<?xml version="1.0" encoding="UTF-8"?>
<!DOCTYPE svg  PUBLIC '-//W3C//DTD SVG 1.1//EN'  'http://www.w3.org/Graphics/SVG/1.1/DTD/svg11.dtd'>
<svg width="1767.2pt" height="570.12pt" version="1.1" viewBox="0 0 1767.2 570.12" xmlns="http://www.w3.org/2000/svg" xmlns:xlink="http://www.w3.org/1999/xlink">
 <defs>
  <style type="text/css">*{stroke-linejoin: round; stroke-linecap: butt}</style>
 </defs>
 <path d="m-0 570.12h1767.2v-570.12h-1767.2z" fill="#fff"/>
 <path d="m86.033 492.12h1674v-460.11h-1674z" fill="#fff"/>
 <defs>
  <path id="b" d="m0 0v3.5" stroke="#000" stroke-width=".8"/>
 </defs>
 <use x="130.085806" y="492.117072" stroke="#000000" stroke-width=".8" xlink:href="#b"/>
 <text transform="translate(125.23 561.77) rotate(-90)" font-family="'Montserrat'" font-size="25px" font-weight="500">2007</text>
 <use x="218.190543" y="492.117072" stroke="#000000" stroke-width=".8" xlink:href="#b"/>
 <text transform="translate(213.34 562.92) rotate(-90)" font-family="'Montserrat'" font-size="25px" font-weight="500">2008</text>
 <use x="306.29528" y="492.117072" stroke="#000000" stroke-width=".8" xlink:href="#b"/>
 <text transform="translate(301.44 562.25) rotate(-90)" font-family="'Montserrat'" font-size="25px" font-weight="500">2009</text>
 <use x="394.400016" y="492.117072" stroke="#000000" stroke-width=".8" xlink:href="#b"/>
 <text transform="translate(389.55 556.07) rotate(-90)" font-family="'Montserrat'" font-size="25px" font-weight="500">2010</text>
 <use x="482.504753" y="492.117072" stroke="#000000" stroke-width=".8" xlink:href="#b"/>
 <text transform="translate(477.65 548.64) rotate(-90)" font-family="'Montserrat'" font-size="25px" font-weight="500">2011</text>
 <use x="570.60949" y="492.117072" stroke="#000000" stroke-width=".8" xlink:href="#b"/>
 <text transform="translate(565.76 553.75) rotate(-90)" font-family="'Montserrat'" font-size="25px" font-weight="500">2012</text>
 <use x="658.714227" y="492.117072" stroke="#000000" stroke-width=".8" xlink:href="#b"/>
 <text transform="translate(653.86 553.7) rotate(-90)" font-family="'Montserrat'" font-size="25px" font-weight="500">2013</text>
 <use x="746.818964" y="492.117072" stroke="#000000" stroke-width=".8" xlink:href="#b"/>
 <text transform="translate(741.97 556.12) rotate(-90)" font-family="'Montserrat'" font-size="25px" font-weight="500">2014</text>
 <use x="834.923701" y="492.117072" stroke="#000000" stroke-width=".8" xlink:href="#b"/>
 <text transform="translate(830.07 553.75) rotate(-90)" font-family="'Montserrat'" font-size="25px" font-weight="500">2015</text>
 <use x="923.028437" y="492.117072" stroke="#000000" stroke-width=".8" xlink:href="#b"/>
 <text transform="translate(918.18 554.82) rotate(-90)" font-family="'Montserrat'" font-size="25px" font-weight="500">2016</text>
 <use x="1011.133174" y="492.117072" stroke="#000000" stroke-width=".8" xlink:href="#b"/>
 <text transform="translate(1006.3 554.34) rotate(-90)" font-family="'Montserrat'" font-size="25px" font-weight="500">2017</text>
 <use x="1099.237911" y="492.117072" stroke="#000000" stroke-width=".8" xlink:href="#b"/>
 <text transform="translate(1094.4 555.5) rotate(-90)" font-family="'Montserrat'" font-size="25px" font-weight="500">2018</text>
 <use x="1187.342648" y="492.117072" stroke="#000000" stroke-width=".8" xlink:href="#b"/>
 <text transform="translate(1182.5 554.82) rotate(-90)" font-family="'Montserrat'" font-size="25px" font-weight="500">2019</text>
 <use x="1275.447385" y="492.117072" stroke="#000000" stroke-width=".8" xlink:href="#b"/>
 <text transform="translate(1270.6 561.17) rotate(-90)" font-family="'Montserrat'" font-size="25px" font-weight="500">2020</text>
 <use x="1363.552122" y="492.117072" stroke="#000000" stroke-width=".8" xlink:href="#b"/>
 <text transform="translate(1358.7 553.75) rotate(-90)" font-family="'Montserrat'" font-size="25px" font-weight="500">2021</text>
 <use x="1451.656859" y="492.117072" stroke="#000000" stroke-width=".8" xlink:href="#b"/>
 <text transform="translate(1446.8 558.85) rotate(-90)" font-family="'Montserrat'" font-size="25px" font-weight="500">2022</text>
 <use x="1539.761595" y="492.117072" stroke="#000000" stroke-width=".8" xlink:href="#b"/>
 <text transform="translate(1534.9 558.8) rotate(-90)" font-family="'Montserrat'" font-size="25px" font-weight="500">2023</text>
 <use x="1627.866332" y="492.117072" stroke="#000000" stroke-width=".8" xlink:href="#b"/>
 <text transform="translate(1623 561.22) rotate(-90)" font-family="'Montserrat'" font-size="25px" font-weight="500">2024</text>
 <use x="1715.971069" y="492.117072" stroke="#000000" stroke-width=".8" xlink:href="#b"/>
 <text transform="translate(1711.1 558.85) rotate(-90)" font-family="'Montserrat'" font-size="25px" font-weight="500">2025</text>
 <path d="m86.033 492.12h1674" clip-path="url(#a)" fill="none" stroke="#b9b9b9" stroke-linecap="square" stroke-width=".75"/>
 <defs>
  <path id="c" d="m0 0h-3.5" stroke="#000" stroke-width=".8"/>
 </defs>
 <use x="86.033438" y="492.117072" stroke="#000000" stroke-width=".8" xlink:href="#c"/>
 <text transform="rotate(-0 79.033 500.28)" x="79.033438" y="500.279416" font-family="'Montserrat'" font-size="22px" font-weight="500" text-anchor="end">0</text>
 <path d="m86.033 411.08h1674" clip-path="url(#a)" fill="none" stroke="#b9b9b9" stroke-linecap="square" stroke-width=".75"/>
 <use x="86.033438" y="411.082861" stroke="#000000" stroke-width=".8" xlink:href="#c"/>
 <text transform="rotate(-0 79.033 419.25)" x="79.033438" y="419.245205" font-family="'Montserrat'" font-size="22px" font-weight="500" text-anchor="end">2,000</text>
 <path d="m86.033 330.05h1674" clip-path="url(#a)" fill="none" stroke="#b9b9b9" stroke-linecap="square" stroke-width=".75"/>
 <use x="86.033438" y="330.04865" stroke="#000000" stroke-width=".8" xlink:href="#c"/>
 <text transform="rotate(-0 79.033 338.21)" x="79.033438" y="338.210994" font-family="'Montserrat'" font-size="22px" font-weight="500" text-anchor="end">4,000</text>
 <path d="m86.033 249.01h1674" clip-path="url(#a)" fill="none" stroke="#b9b9b9" stroke-linecap="square" stroke-width=".75"/>
 <use x="86.033438" y="249.014439" stroke="#000000" stroke-width=".8" xlink:href="#c"/>
 <text transform="rotate(-0 79.033 257.18)" x="79.033438" y="257.176783" font-family="'Montserrat'" font-size="22px" font-weight="500" text-anchor="end">6,000</text>
 <path d="m86.033 167.98h1674" clip-path="url(#a)" fill="none" stroke="#b9b9b9" stroke-linecap="square" stroke-width=".75"/>
 <use x="86.033438" y="167.980229" stroke="#000000" stroke-width=".8" xlink:href="#c"/>
 <text transform="rotate(-0 79.033 176.14)" x="79.033438" y="176.142572" font-family="'Montserrat'" font-size="22px" font-weight="500" text-anchor="end">8,000</text>
 <path d="m86.033 86.946h1674" clip-path="url(#a)" fill="none" stroke="#b9b9b9" stroke-linecap="square" stroke-width=".75"/>
 <use x="86.033438" y="86.946018" stroke="#000000" stroke-width=".8" xlink:href="#c"/>
 <text transform="rotate(-0 79.033 95.108)" x="79.033438" y="95.108362" font-family="'Montserrat'" font-size="22px" font-weight="500" text-anchor="end">10,000</text>
 <path d="m94.844 492.12h70.484v-7.05h-70.484z" clip-path="url(#a)" fill="#10302c"/>
 <path d="m94.844 485.07h70.484v-7.4957h-70.484z" clip-path="url(#a)" fill="#4c6a67"/>
 <path d="m182.95 492.12h70.484v-9.481h-70.484z" clip-path="url(#a)" fill="#10302c"/>
 <path d="m182.95 482.64h70.484v-10.008h-70.484z" clip-path="url(#a)" fill="#4c6a67"/>
 <path d="m271.05 492.12h70.484v-16.693h-70.484z" clip-path="url(#a)" fill="#10302c"/>
 <path d="m271.05 475.42h70.484v-16.207h-70.484z" clip-path="url(#a)" fill="#4c6a67"/>
 <path d="m359.16 492.12h70.484v-34.521h-70.484z" clip-path="url(#a)" fill="#10302c"/>
 <path d="m359.16 457.6h70.484v-46.554h-70.484z" clip-path="url(#a)" fill="#4c6a67"/>
 <path d="m447.26 492.12h70.484v-33.832h-70.484z" clip-path="url(#a)" fill="#10302c"/>
 <path d="m447.26 458.29h70.484v-63.207h-70.484z" clip-path="url(#a)" fill="#4c6a67"/>
 <path d="m535.37 492.12h70.484v-27.552h-70.484z" clip-path="url(#a)" fill="#10302c"/>
 <path d="m535.37 464.57h70.484v-57.453h-70.484z" clip-path="url(#a)" fill="#4c6a67"/>
 <path d="m623.47 492.12h70.484v-34.966h-70.484z" clip-path="url(#a)" fill="#10302c"/>
 <path d="m623.47 457.15h70.484v-58.183h-70.484z" clip-path="url(#a)" fill="#4c6a67"/>
 <path d="m711.58 492.12h70.484v-35.209h-70.484z" clip-path="url(#a)" fill="#10302c"/>
 <path d="m711.58 456.91h70.484v-54.901h-70.484z" clip-path="url(#a)" fill="#4c6a67"/>
 <path d="m799.68 492.12h70.484v-31.968h-70.484z" clip-path="url(#a)" fill="#10302c"/>
 <path d="m799.68 460.15h70.484v-51.497h-70.484z" clip-path="url(#a)" fill="#4c6a67"/>
 <path d="m887.79 492.12h70.484v-39.302h-70.484z" clip-path="url(#a)" fill="#10302c"/>
 <path d="m887.79 452.82h70.484v-59.033h-70.484z" clip-path="url(#a)" fill="#4c6a67"/>
 <path d="m975.89 492.12h70.484v-43.353h-70.484z" clip-path="url(#a)" fill="#10302c"/>
 <path d="m975.89 448.76h70.484v-77.752h-70.484z" clip-path="url(#a)" fill="#4c6a67"/>
 <path d="m1064 492.12h70.484v-25.445h-70.484z" clip-path="url(#a)" fill="#10302c"/>
 <path d="m1064 466.67h70.484v-72.809h-70.484z" clip-path="url(#a)" fill="#4c6a67"/>
 <path d="m1152.1 492.12h70.484v-27.754h-70.484z" clip-path="url(#a)" fill="#10302c"/>
 <path d="m1152.1 464.36h70.484v-92.136h-70.484z" clip-path="url(#a)" fill="#4c6a67"/>
 <path d="m1240.2 492.12h70.484v-48.134h-70.484z" clip-path="url(#a)" fill="#10302c"/>
 <path d="m1240.2 443.98h70.484v-107.17h-70.484z" clip-path="url(#a)" fill="#4c6a67"/>
 <path d="m1328.3 492.12h70.484v-66.408h-70.484z" clip-path="url(#a)" fill="#10302c"/>
 <path d="m1328.3 425.71h70.484v-126.29h-70.484z" clip-path="url(#a)" fill="#4c6a67"/>
 <path d="m1416.4 492.12h70.484v-61.1h-70.484z" clip-path="url(#a)" fill="#10302c"/>
 <path d="m1416.4 431.02h70.484v-115.64h-70.484z" clip-path="url(#a)" fill="#4c6a67"/>
 <path d="m1504.5 492.12h70.484v-90.961h-70.484z" clip-path="url(#a)" fill="#10302c"/>
 <path d="m1504.5 401.16h70.484v-156.07h-70.484z" clip-path="url(#a)" fill="#4c6a67"/>
 <path d="m1592.6 492.12h70.484v-126.86h-70.484z" clip-path="url(#a)" fill="#10302c"/>
 <path d="m1592.6 365.26h70.484v-236.86h-70.484z" clip-path="url(#a)" fill="#4c6a67"/>
 <path d="m1680.7 492.12h70.484v-19.732h-70.484z" clip-path="url(#a)" fill="#10302c"/>
 <path d="m1680.7 472.39h70.484v-161.87h-70.484z" clip-path="url(#a)" fill="#4c6a67"/>
 <path d="m113.53 468.02h33.119q16 0 16-16v7.2781q0-16-16-16h-33.119q-16 0-16 16v-7.2781q0 16 16 16z" fill="#fff" stroke="#002f2a" stroke-width="1.5"/>
 <text transform="rotate(-0 130.09 461.14)" x="130.085806" y="461.14177" fill="#10302c" font-family="'Montserrat'" font-size="20px" font-weight="700" text-anchor="middle">359  </text>
 <text transform="rotate(-0 130.09 410.56)" x="130.085806" y="410.560002" fill="#4c6a67" font-family="'Montserrat'" font-size="22px" font-weight="600" text-anchor="middle">0.6%</text>
 <path d="m202.46 463.08h31.459q16 0 16-16v7.2781q0-16-16-16h-31.459q-16 0-16 16v-7.2781q0 16 16 16z" fill="#fff" stroke="#002f2a" stroke-width="1.5"/>
 <text transform="rotate(-0 218.19 456.2)" x="218.190543" y="456.198683" fill="#10302c" font-family="'Montserrat'" font-size="20px" font-weight="700" text-anchor="middle">481  </text>
 <text transform="rotate(-0 218.19 405.62)" x="218.190543" y="405.616915" fill="#4c6a67" font-family="'Montserrat'" font-size="22px" font-weight="600" text-anchor="middle">0.8%</text>
 <path d="m291.56 449.67h29.478q16 0 16-16v7.2781q0-16-16-16h-29.478q-16 0-16 16v-7.2781q0 16 16 16z" fill="#fff" stroke="#002f2a" stroke-width="1.5"/>
 <text transform="rotate(-0 306.3 442.79)" x="306.29528" y="442.787521" fill="#10302c" font-family="'Montserrat'" font-size="20px" font-weight="700" text-anchor="middle">812  </text>
 <text transform="rotate(-0 306.3 392.21)" x="306.29528" y="392.205753" fill="#4c6a67" font-family="'Montserrat'" font-size="22px" font-weight="600" text-anchor="middle">1.4%</text>
 <text transform="rotate(-0 394.4 481.43)" x="394.400016" y="481.43241" fill="#ffffff" font-family="'Montserrat'" font-size="24px" font-weight="500" text-anchor="middle">852</text>
 <text transform="rotate(-0 394.4 440.9)" x="394.400016" y="440.895046" fill="#ffffff" font-family="'Montserrat'" font-size="24px" font-weight="500" text-anchor="middle">1,149</text>
 <path d="m370.06 401.49h48.681q16 0 16-16v7.2781q0-16-16-16h-48.681q-16 0-16 16v-7.2781q0 16 16 16z" fill="#fff" stroke="#002f2a" stroke-width="1.5"/>
 <text transform="rotate(-0 394.4 394.61)" x="394.400016" y="394.612683" fill="#10302c" font-family="'Montserrat'" font-size="20px" font-weight="700" text-anchor="middle">2,001  </text>
 <text transform="rotate(-0 394.4 344.03)" x="394.400016" y="344.030915" fill="#4c6a67" font-family="'Montserrat'" font-size="22px" font-weight="600" text-anchor="middle">3.4%</text>
 <text transform="rotate(-0 482.5 481.78)" x="482.504753" y="481.776805" fill="#ffffff" font-family="'Montserrat'" font-size="24px" font-weight="500" text-anchor="middle">835</text>
 <text transform="rotate(-0 482.5 433.26)" x="482.504753" y="433.257572" fill="#ffffff" font-family="'Montserrat'" font-size="24px" font-weight="500" text-anchor="middle">1,560</text>
 <path d="m457.43 385.53h50.159q16 0 16-16v7.2781q0-16-16-16h-50.159q-16 0-16 16v-7.2781q0 16 16 16z" fill="#fff" stroke="#002f2a" stroke-width="1.5"/>
 <text transform="rotate(-0 482.5 378.65)" x="482.504753" y="378.648944" fill="#10302c" font-family="'Montserrat'" font-size="20px" font-weight="700" text-anchor="middle">2,395  </text>
 <text transform="rotate(-0 482.5 328.07)" x="482.504753" y="328.067175" fill="#4c6a67" font-family="'Montserrat'" font-size="22px" font-weight="600" text-anchor="middle">4.1%</text>
 <text transform="rotate(-0 570.61 484.92)" x="570.60949" y="484.916881" fill="#ffffff" font-family="'Montserrat'" font-size="24px" font-weight="500" text-anchor="middle">680</text>
 <text transform="rotate(-0 570.61 442.41)" x="570.60949" y="442.414438" fill="#ffffff" font-family="'Montserrat'" font-size="24px" font-weight="500" text-anchor="middle">1,418</text>
 <path d="m544.01 397.56h53.2q16 0 16-16v7.2781q0-16-16-16h-53.2q-16 0-16 16v-7.2781q0 16 16 16z" fill="#fff" stroke="#002f2a" stroke-width="1.5"/>
 <text transform="rotate(-0 570.61 390.68)" x="570.60949" y="390.682524" fill="#10302c" font-family="'Montserrat'" font-size="20px" font-weight="700" text-anchor="middle">2,098  </text>
 <text transform="rotate(-0 570.61 340.1)" x="570.60949" y="340.100755" fill="#4c6a67" font-family="'Montserrat'" font-size="22px" font-weight="600" text-anchor="middle">3.6%</text>
 <text transform="rotate(-0 658.71 481.21)" x="658.714227" y="481.209566" fill="#ffffff" font-family="'Montserrat'" font-size="24px" font-weight="500" text-anchor="middle">863</text>
 <text transform="rotate(-0 658.71 434.64)" x="658.714227" y="434.635153" fill="#ffffff" font-family="'Montserrat'" font-size="24px" font-weight="500" text-anchor="middle">1,436</text>
 <path d="m633.23 389.42h50.959q16 0 16-16v7.2781q0-16-16-16h-50.959q-16 0-16 16v-7.2781q0 16 16 16z" fill="#fff" stroke="#002f2a" stroke-width="1.5"/>
 <text transform="rotate(-0 658.71 382.54)" x="658.714227" y="382.538586" fill="#10302c" font-family="'Montserrat'" font-size="20px" font-weight="700" text-anchor="middle">2,299  </text>
 <text transform="rotate(-0 658.71 331.96)" x="658.714227" y="331.956817" fill="#4c6a67" font-family="'Montserrat'" font-size="22px" font-weight="600" text-anchor="middle">4.0%</text>
 <text transform="rotate(-0 746.82 481.09)" x="746.818964" y="481.088015" fill="#ffffff" font-family="'Montserrat'" font-size="24px" font-weight="500" text-anchor="middle">869</text>
 <text transform="rotate(-0 746.82 436.03)" x="746.818964" y="436.032993" fill="#ffffff" font-family="'Montserrat'" font-size="24px" font-weight="500" text-anchor="middle">1,355</text>
 <path d="m721.29 392.46h51.059q16 0 16-16v7.2781q0-16-16-16h-51.059q-16 0-16 16v-7.2781q0 16 16 16z" fill="#fff" stroke="#002f2a" stroke-width="1.5"/>
 <text transform="rotate(-0 746.82 385.58)" x="746.818964" y="385.577369" fill="#10302c" font-family="'Montserrat'" font-size="20px" font-weight="700" text-anchor="middle">2,224  </text>
 <text transform="rotate(-0 746.82 335)" x="746.818964" y="334.9956" fill="#4c6a67" font-family="'Montserrat'" font-size="22px" font-weight="600" text-anchor="middle">3.8%</text>
 <text transform="rotate(-0 834.92 482.71)" x="834.923701" y="482.708699" fill="#ffffff" font-family="'Montserrat'" font-size="24px" font-weight="500" text-anchor="middle">789</text>
 <text transform="rotate(-0 834.92 440.98)" x="834.923701" y="440.97608" fill="#ffffff" font-family="'Montserrat'" font-size="24px" font-weight="500" text-anchor="middle">1,271</text>
 <path d="m808.13 399.1h53.581q16 0 16-16v7.2781q0-16-16-16h-53.581q-16 0-16 16v-7.2781q0 16 16 16z" fill="#fff" stroke="#002f2a" stroke-width="1.5"/>
 <text transform="rotate(-0 834.92 392.22)" x="834.923701" y="392.222174" fill="#10302c" font-family="'Montserrat'" font-size="20px" font-weight="700" text-anchor="middle">2,060  </text>
 <text transform="rotate(-0 834.92 341.64)" x="834.923701" y="341.640405" fill="#4c6a67" font-family="'Montserrat'" font-size="22px" font-weight="600" text-anchor="middle">3.5%</text>
 <text transform="rotate(-0 923.03 479.04)" x="923.028437" y="479.041901" fill="#ffffff" font-family="'Montserrat'" font-size="24px" font-weight="500" text-anchor="middle">970</text>
 <text transform="rotate(-0 923.03 429.87)" x="923.028437" y="429.874393" fill="#ffffff" font-family="'Montserrat'" font-size="24px" font-weight="500" text-anchor="middle">1,457</text>
 <path d="m897.2 384.23h51.659q16 0 16-16v7.2781q0-16-16-16h-51.659q-16 0-16 16v-7.2781q0 16 16 16z" fill="#fff" stroke="#002f2a" stroke-width="1.5"/>
 <text transform="rotate(-0 923.03 377.35)" x="923.028437" y="377.352396" fill="#10302c" font-family="'Montserrat'" font-size="20px" font-weight="700" text-anchor="middle">2,427  </text>
 <text transform="rotate(-0 923.03 326.77)" x="923.028437" y="326.770628" fill="#4c6a67" font-family="'Montserrat'" font-size="22px" font-weight="600" text-anchor="middle">4.2%</text>
 <text transform="rotate(-0 1011.1 477.02)" x="1011.133174" y="477.016046" fill="#ffffff" font-family="'Montserrat'" font-size="24px" font-weight="500" text-anchor="middle">1,070</text>
 <text transform="rotate(-0 1011.1 416.46)" x="1011.133174" y="416.463232" fill="#ffffff" font-family="'Montserrat'" font-size="24px" font-weight="500" text-anchor="middle">1,919</text>
 <path d="m984.95 361.46h52.359q16 0 16-16v7.2781q0-16-16-16h-52.359q-16 0-16 16v-7.2781q0 16 16 16z" fill="#fff" stroke="#002f2a" stroke-width="1.5"/>
 <text transform="rotate(-0 1011.1 354.58)" x="1011.133174" y="354.581783" fill="#10302c" font-family="'Montserrat'" font-size="20px" font-weight="700" text-anchor="middle">2,989  </text>
 <text transform="rotate(-0 1011.1 304)" x="1011.133174" y="304.000014" fill="#4c6a67" font-family="'Montserrat'" font-size="22px" font-weight="600" text-anchor="middle">5.2%</text>
 <text transform="rotate(-0 1099.2 485.97)" x="1099.237911" y="485.970326" fill="#ffffff" font-family="'Montserrat'" font-size="24px" font-weight="500" text-anchor="middle">628</text>
 <text transform="rotate(-0 1099.2 436.84)" x="1099.237911" y="436.843336" fill="#ffffff" font-family="'Montserrat'" font-size="24px" font-weight="500" text-anchor="middle">1,797</text>
 <path d="m1073.7 384.31h51.159q16 0 16-16v7.2781q0-16-16-16h-51.159q-16 0-16 16v-7.2781q0 16 16 16z" fill="#fff" stroke="#002f2a" stroke-width="1.5"/>
 <text transform="rotate(-0 1099.2 377.43)" x="1099.237911" y="377.43343" fill="#10302c" font-family="'Montserrat'" font-size="20px" font-weight="700" text-anchor="middle">2,425  </text>
 <text transform="rotate(-0 1099.2 326.85)" x="1099.237911" y="326.851662" fill="#4c6a67" font-family="'Montserrat'" font-size="22px" font-weight="600" text-anchor="middle">4.2%</text>
 <text transform="rotate(-0 1187.3 484.82)" x="1187.342648" y="484.815588" fill="#ffffff" font-family="'Montserrat'" font-size="24px" font-weight="500" text-anchor="middle">685</text>
 <text transform="rotate(-0 1187.3 424.87)" x="1187.342648" y="424.870531" fill="#ffffff" font-family="'Montserrat'" font-size="24px" font-weight="500" text-anchor="middle">2,274</text>
 <path d="m1161.8 362.68h51.059q16 0 16-16v7.2781q0-16-16-16h-51.059q-16 0-16 16v-7.2781q0 16 16 16z" fill="#fff" stroke="#002f2a" stroke-width="1.5"/>
 <text transform="rotate(-0 1187.3 355.8)" x="1187.342648" y="355.797296" fill="#10302c" font-family="'Montserrat'" font-size="20px" font-weight="700" text-anchor="middle">2,959  </text>
 <text transform="rotate(-0 1187.3 305.22)" x="1187.342648" y="305.215528" fill="#4c6a67" font-family="'Montserrat'" font-size="22px" font-weight="600" text-anchor="middle">5.1%</text>
 <text transform="rotate(-0 1275.4 474.63)" x="1275.447385" y="474.625536" fill="#ffffff" font-family="'Montserrat'" font-size="24px" font-weight="500" text-anchor="middle">1,188</text>
 <text transform="rotate(-0 1275.4 396.97)" x="1275.447385" y="396.974504" fill="#ffffff" font-family="'Montserrat'" font-size="24px" font-weight="500" text-anchor="middle">2,645</text>
 <path d="m1250.1 327.27h50.6q16 0 16-16v7.2781q0-16-16-16h-50.6q-16 0-16 16v-7.2781q0 16 16 16z" fill="#fff" stroke="#002f2a" stroke-width="1.5"/>
 <text transform="rotate(-0 1275.4 320.39)" x="1275.447385" y="320.385346" fill="#10302c" font-family="'Montserrat'" font-size="20px" font-weight="700" text-anchor="middle">3,833  </text>
 <text transform="rotate(-0 1275.4 269.8)" x="1275.447385" y="269.803577" fill="#4c6a67" font-family="'Montserrat'" font-size="22px" font-weight="600" text-anchor="middle">6.6%</text>
 <text transform="rotate(-0 1363.6 465.49)" x="1363.552122" y="465.488929" fill="#ffffff" font-family="'Montserrat'" font-size="24px" font-weight="500" text-anchor="middle">1,639</text>
 <text transform="rotate(-0 1363.6 369.14)" x="1363.552122" y="369.139252" fill="#ffffff" font-family="'Montserrat'" font-size="24px" font-weight="500" text-anchor="middle">3,117</text>
 <path d="m1337.2 289.87h52.7q16 0 16-16v7.2781q0-16-16-16h-52.7q-16 0-16 16v-7.2781q0 16 16 16z" fill="#fff" stroke="#002f2a" stroke-width="1.5"/>
 <text transform="rotate(-0 1363.6 282.99)" x="1363.552122" y="282.988058" fill="#10302c" font-family="'Montserrat'" font-size="20px" font-weight="700" text-anchor="middle">4,756  </text>
 <text transform="rotate(-0 1363.6 232.41)" x="1363.552122" y="232.406289" fill="#4c6a67" font-family="'Montserrat'" font-size="22px" font-weight="600" text-anchor="middle">8.2%</text>
 <text transform="rotate(-0 1451.7 468.14)" x="1451.656859" y="468.1428" fill="#ffffff" font-family="'Montserrat'" font-size="24px" font-weight="500" text-anchor="middle">1,508</text>
 <text transform="rotate(-0 1451.7 379.77)" x="1451.656859" y="379.774993" fill="#ffffff" font-family="'Montserrat'" font-size="24px" font-weight="500" text-anchor="middle">2,854</text>
 <path d="m1425.6 305.83h52.041q16 0 16-16v7.2781q0-16-16-16h-52.041q-16 0-16 16v-7.2781q0 16 16 16z" fill="#fff" stroke="#002f2a" stroke-width="1.5"/>
 <text transform="rotate(-0 1451.7 298.95)" x="1451.656859" y="298.951797" fill="#10302c" font-family="'Montserrat'" font-size="20px" font-weight="700" text-anchor="middle">4,362  </text>
 <text transform="rotate(-0 1451.7 248.37)" x="1451.656859" y="248.370029" fill="#4c6a67" font-family="'Montserrat'" font-size="22px" font-weight="600" text-anchor="middle">7.5%</text>
 <text transform="rotate(-0 1539.8 453.21)" x="1539.761595" y="453.212246" fill="#ffffff" font-family="'Montserrat'" font-size="24px" font-weight="500" text-anchor="middle">2,245</text>
 <text transform="rotate(-0 1539.8 329.7)" x="1539.761595" y="329.69585" fill="#ffffff" font-family="'Montserrat'" font-size="24px" font-weight="500" text-anchor="middle">3,852</text>
 <path d="m1513.1 235.54h53.341q16 0 16-16v7.2781q0-16-16-16h-53.341q-16 0-16 16v-7.2781q0 16 16 16z" fill="#fff" stroke="#002f2a" stroke-width="1.5"/>
 <text transform="rotate(-0 1539.8 228.65)" x="1539.761595" y="228.654619" fill="#10302c" font-family="'Montserrat'" font-size="20px" font-weight="700" text-anchor="middle">6,097  </text>
 <text transform="rotate(-0 1539.8 178.07)" x="1539.761595" y="178.072851" fill="#4c6a67" font-family="'Montserrat'" font-size="22px" font-weight="600" text-anchor="middle">10.5%</text>
 <text transform="rotate(-0 1627.9 435.26)" x="1627.866332" y="435.263168" fill="#ffffff" font-family="'Montserrat'" font-size="24px" font-weight="500" text-anchor="middle">3,131</text>
 <text transform="rotate(-0 1627.9 253.4)" x="1627.866332" y="253.402141" fill="#ffffff" font-family="'Montserrat'" font-size="24px" font-weight="500" text-anchor="middle">5,846</text>
 <path d="m1601.6 118.85h52.619q16 0 16-16v7.2781q0-16-16-16h-52.619q-16 0-16 16v-7.2781q0 16 16 16z" fill="#fff" stroke="#002f2a" stroke-width="1.5"/>
 <text transform="rotate(-0 1627.9 111.97)" x="1627.866332" y="111.965356" fill="#10302c" font-family="'Montserrat'" font-size="20px" font-weight="700" text-anchor="middle">8,977  </text>
 <text transform="rotate(-0 1627.9 61.384)" x="1627.866332" y="61.383587" fill="#4c6a67" font-family="'Montserrat'" font-size="22px" font-weight="600" text-anchor="middle">15.5%</text>
 <text transform="rotate(-0 1716 398.03)" x="1715.971069" y="398.027949" fill="#ffffff" font-family="'Montserrat'" font-size="24px" font-weight="500" text-anchor="middle">3,995</text>
 <path d="m1688.8 300.97h54.441q16 0 16-16v7.2781q0-16-16-16h-54.441q-16 0-16 16v-7.2781q0 16 16 16z" fill="#fff" stroke="#002f2a" stroke-width="1.5"/>
 <text transform="rotate(-0 1716 294.09)" x="1715.971069" y="294.089745" fill="#10302c" font-family="'Montserrat'" font-size="20px" font-weight="700" text-anchor="middle">4,482  </text>
 <text transform="rotate(-0 1716 243.51)" x="1715.971069" y="243.507976" fill="#4c6a67" font-family="'Montserrat'" font-size="22px" font-weight="600" text-anchor="middle">7.7%</text>
 <path d="m665.59 35.036h48v-16.8h-48z" fill="#10302c"/>
 <text transform="rotate(-0 732.79 35.036)" x="732.787188" y="35.03625" font-family="'DejaVu Sans', 'Bitstream Vera Sans', 'Computer Modern Sans Serif', 'Lucida Grande', 'Verdana', 'Geneva', 'Lucid', 'Arial', 'Helvetica', 'Avant Garde', sans-serif" font-size="24px">movimiento</text>
 <path d="m923.84 35.036h48v-16.8h-48z" fill="#4c6a67"/>
 <text transform="rotate(-0 991.04 35.036)" x="991.038438" y="35.03625" font-family="'DejaVu Sans', 'Bitstream Vera Sans', 'Computer Modern Sans Serif', 'Lucida Grande', 'Verdana', 'Geneva', 'Lucid', 'Arial', 'Helvetica', 'Avant Garde', sans-serif" font-size="24px">sin_movimiento</text>
 <defs>
  <clipPath id="a">
   <rect x="86.033" y="32.009" width="1674" height="460.11"/>
  </clipPath>
 </defs>
</svg>
