<svg xmlns="http://www.w3.org/2000/svg" xmlns:xlink="http://www.w3.org/1999/xlink" width="1767.2pt" height="760.16" viewBox="0 0 1767.2 570.12"><defs><style>*{stroke-linejoin:round;stroke-linecap:butt}</style></defs><path fill="#fff" d="M0 570.12h1767.2V0H0z"/><path fill="#fff" d="M86.033 492.12h1674V32.01h-1674z"/><defs><path id="b" stroke="#000" stroke-width=".8" d="M0 0v3.5"/></defs><use xlink:href="#b" x="130.086" y="492.117" stroke="#000" stroke-width=".8"/><text font-family="'Montserrat'" font-size="25" font-weight="500" transform="rotate(-90 343.5 218.27)">2007</text><use xlink:href="#b" x="218.191" y="492.117" stroke="#000" stroke-width=".8"/><text font-family="'Montserrat'" font-size="25" font-weight="500" transform="rotate(-90 388.13 174.79)">2008</text><use xlink:href="#b" x="306.295" y="492.117" stroke="#000" stroke-width=".8"/><text font-family="'Montserrat'" font-size="25" font-weight="500" transform="rotate(-90 431.845 130.405)">2009</text><use xlink:href="#b" x="394.4" y="492.117" stroke="#000" stroke-width=".8"/><text font-family="'Montserrat'" font-size="25" font-weight="500" transform="rotate(-90 472.81 83.26)">2010</text><use xlink:href="#b" x="482.505" y="492.117" stroke="#000" stroke-width=".8"/><text font-family="'Montserrat'" font-size="25" font-weight="500" transform="rotate(-90 513.145 35.495)">2011</text><use xlink:href="#b" x="570.609" y="492.117" stroke="#000" stroke-width=".8"/><text font-family="'Montserrat'" font-size="25" font-weight="500" transform="rotate(-90 559.755 -6.005)">2012</text><use xlink:href="#b" x="658.714" y="492.117" stroke="#000" stroke-width=".8"/><text font-family="'Montserrat'" font-size="25" font-weight="500" transform="rotate(-90 603.78 -50.08)">2013</text><use xlink:href="#b" x="746.819" y="492.117" stroke="#000" stroke-width=".8"/><text font-family="'Montserrat'" font-size="25" font-weight="500" transform="rotate(-90 649.045 -92.925)">2014</text><use xlink:href="#b" x="834.924" y="492.117" stroke="#000" stroke-width=".8"/><text font-family="'Montserrat'" font-size="25" font-weight="500" transform="rotate(-90 691.91 -138.16)">2015</text><use xlink:href="#b" x="923.028" y="492.117" stroke="#000" stroke-width=".8"/><text font-family="'Montserrat'" font-size="25" font-weight="500" transform="rotate(-90 736.5 -181.68)">2016</text><use xlink:href="#b" x="1011.133" y="492.117" stroke="#000" stroke-width=".8"/><text font-family="'Montserrat'" font-size="25" font-weight="500" transform="rotate(-90 780.32 -225.98)">2017</text><use xlink:href="#b" x="1099.238" y="492.117" stroke="#000" stroke-width=".8"/><text font-family="'Montserrat'" font-size="25" font-weight="500" transform="rotate(-90 824.95 -269.45)">2018</text><use xlink:href="#b" x="1187.343" y="492.117" stroke="#000" stroke-width=".8"/><text font-family="'Montserrat'" font-size="25" font-weight="500" transform="rotate(-90 868.66 -313.84)">2019</text><use xlink:href="#b" x="1275.447" y="492.117" stroke="#000" stroke-width=".8"/><text font-family="'Montserrat'" font-size="25" font-weight="500" transform="rotate(-90 915.885 -354.715)">2020</text><use xlink:href="#b" x="1363.552" y="492.117" stroke="#000" stroke-width=".8"/><text font-family="'Montserrat'" font-size="25" font-weight="500" transform="rotate(-90 956.225 -402.475)">2021</text><use xlink:href="#b" x="1451.657" y="492.117" stroke="#000" stroke-width=".8"/><text font-family="'Montserrat'" font-size="25" font-weight="500" transform="rotate(-90 1002.825 -443.975)">2022</text><use xlink:href="#b" x="1539.762" y="492.117" stroke="#000" stroke-width=".8"/><text font-family="'Montserrat'" font-size="25" font-weight="500" transform="rotate(-90 1046.85 -488.05)">2023</text><use xlink:href="#b" x="1627.866" y="492.117" stroke="#000" stroke-width=".8"/><text font-family="'Montserrat'" font-size="25" font-weight="500" transform="rotate(-90 1092.11 -530.89)">2024</text><use xlink:href="#b" x="1715.971" y="492.117" stroke="#000" stroke-width=".8"/><text font-family="'Montserrat'" font-size="25" font-weight="500" transform="rotate(-90 1134.975 -576.125)">2025</text><path fill="none" stroke="#b9b9b9" stroke-linecap="square" stroke-width=".75" d="M86.033 492.12h1674" clip-path="url(#a)"/><defs><path id="c" stroke="#000" stroke-width=".8" d="M0 0h-3.5"/></defs><use xlink:href="#c" x="86.033" y="492.117" stroke="#000" stroke-width=".8"/><text x="79.033" y="500.279" font-family="'Montserrat'" font-size="22" font-weight="500" text-anchor="end">0</text><path fill="none" stroke="#b9b9b9" stroke-linecap="square" stroke-width=".75" d="M86.033 411.08h1674" clip-path="url(#a)"/><use xlink:href="#c" x="86.033" y="411.083" stroke="#000" stroke-width=".8"/><text x="79.033" y="419.245" font-family="'Montserrat'" font-size="22" font-weight="500" text-anchor="end">2,000</text><path fill="none" stroke="#b9b9b9" stroke-linecap="square" stroke-width=".75" d="M86.033 330.05h1674" clip-path="url(#a)"/><use xlink:href="#c" x="86.033" y="330.049" stroke="#000" stroke-width=".8"/><text x="79.033" y="338.211" font-family="'Montserrat'" font-size="22" font-weight="500" text-anchor="end">4,000</text><path fill="none" stroke="#b9b9b9" stroke-linecap="square" stroke-width=".75" d="M86.033 249.01h1674" clip-path="url(#a)"/><use xlink:href="#c" x="86.033" y="249.014" stroke="#000" stroke-width=".8"/><text x="79.033" y="257.177" font-family="'Montserrat'" font-size="22" font-weight="500" text-anchor="end">6,000</text><path fill="none" stroke="#b9b9b9" stroke-linecap="square" stroke-width=".75" d="M86.033 167.98h1674" clip-path="url(#a)"/><use xlink:href="#c" x="86.033" y="167.98" stroke="#000" stroke-width=".8"/><text x="79.033" y="176.143" font-family="'Montserrat'" font-size="22" font-weight="500" text-anchor="end">8,000</text><path fill="none" stroke="#b9b9b9" stroke-linecap="square" stroke-width=".75" d="M86.033 86.946h1674" clip-path="url(#a)"/><use xlink:href="#c" x="86.033" y="86.946" stroke="#000" stroke-width=".8"/><text x="79.033" y="95.108" font-family="'Montserrat'" font-size="22" font-weight="500" text-anchor="end">10,000</text><path fill="#10302c" d="M94.844 492.12h70.484v-7.05H94.844z" clip-path="url(#a)"/><path fill="#4c6a67" d="M94.844 485.07h70.484v-7.496H94.844z" clip-path="url(#a)"/><path fill="#10302c" d="M182.95 492.12h70.484v-9.481H182.95z" clip-path="url(#a)"/><path fill="#4c6a67" d="M182.95 482.64h70.484v-10.008H182.95z" clip-path="url(#a)"/><path fill="#10302c" d="M271.05 492.12h70.484v-16.693H271.05z" clip-path="url(#a)"/><path fill="#4c6a67" d="M271.05 475.42h70.484v-16.207H271.05z" clip-path="url(#a)"/><path fill="#10302c" d="M359.16 492.12h70.484v-34.521H359.16z" clip-path="url(#a)"/><path fill="#4c6a67" d="M359.16 457.6h70.484v-46.554H359.16z" clip-path="url(#a)"/><path fill="#10302c" d="M447.26 492.12h70.484v-33.832H447.26z" clip-path="url(#a)"/><path fill="#4c6a67" d="M447.26 458.29h70.484v-63.207H447.26z" clip-path="url(#a)"/><path fill="#10302c" d="M535.37 492.12h70.484v-27.552H535.37z" clip-path="url(#a)"/><path fill="#4c6a67" d="M535.37 464.57h70.484v-57.453H535.37z" clip-path="url(#a)"/><path fill="#10302c" d="M623.47 492.12h70.484v-34.966H623.47z" clip-path="url(#a)"/><path fill="#4c6a67" d="M623.47 457.15h70.484v-58.183H623.47z" clip-path="url(#a)"/><path fill="#10302c" d="M711.58 492.12h70.484v-35.209H711.58z" clip-path="url(#a)"/><path fill="#4c6a67" d="M711.58 456.91h70.484v-54.901H711.58z" clip-path="url(#a)"/><path fill="#10302c" d="M799.68 492.12h70.484v-31.968H799.68z" clip-path="url(#a)"/><path fill="#4c6a67" d="M799.68 460.15h70.484v-51.497H799.68z" clip-path="url(#a)"/><path fill="#10302c" d="M887.79 492.12h70.484v-39.302H887.79z" clip-path="url(#a)"/><path fill="#4c6a67" d="M887.79 452.82h70.484v-59.033H887.79z" clip-path="url(#a)"/><path fill="#10302c" d="M975.89 492.12h70.484v-43.353H975.89z" clip-path="url(#a)"/><path fill="#4c6a67" d="M975.89 448.76h70.484v-77.752H975.89z" clip-path="url(#a)"/><path fill="#10302c" d="M1064 492.12h70.484v-25.445H1064z" clip-path="url(#a)"/><path fill="#4c6a67" d="M1064 466.67h70.484v-72.809H1064z" clip-path="url(#a)"/><path fill="#10302c" d="M1152.1 492.12h70.484v-27.754H1152.1z" clip-path="url(#a)"/><path fill="#4c6a67" d="M1152.1 464.36h70.484v-92.136H1152.1z" clip-path="url(#a)"/><path fill="#10302c" d="M1240.2 492.12h70.484v-48.134H1240.2z" clip-path="url(#a)"/><path fill="#4c6a67" d="M1240.2 443.98h70.484V336.81H1240.2z" clip-path="url(#a)"/><path fill="#10302c" d="M1328.3 492.12h70.484v-66.408H1328.3z" clip-path="url(#a)"/><path fill="#4c6a67" d="M1328.3 425.71h70.484V299.42H1328.3z" clip-path="url(#a)"/><path fill="#10302c" d="M1416.4 492.12h70.484v-61.1H1416.4z" clip-path="url(#a)"/><path fill="#4c6a67" d="M1416.4 431.02h70.484V315.38H1416.4z" clip-path="url(#a)"/><path fill="#10302c" d="M1504.5 492.12h70.484v-90.961H1504.5z" clip-path="url(#a)"/><path fill="#4c6a67" d="M1504.5 401.16h70.484V245.09H1504.5z" clip-path="url(#a)"/><path fill="#10302c" d="M1592.6 492.12h70.484V365.26H1592.6z" clip-path="url(#a)"/><path fill="#4c6a67" d="M1592.6 365.26h70.484V128.4H1592.6z" clip-path="url(#a)"/><path fill="#10302c" d="M1680.7 492.12h70.484v-19.732H1680.7z" clip-path="url(#a)"/><path fill="#4c6a67" d="M1680.7 472.39h70.484V310.52H1680.7z" clip-path="url(#a)"/><path fill="#fff" stroke="#002f2a" stroke-width="1.5" d="M113.53 468.02h33.119q16 0 16-16v7.278q0-16-16-16H113.53q-16 0-16 16v-7.278q0 16 16 16z"/><text x="130.086" y="461.142" fill="#10302c" font-family="'Montserrat'" font-size="20" font-weight="700" text-anchor="middle">359  </text><text x="130.086" y="410.56" fill="#4c6a67" font-family="'Montserrat'" font-size="22" font-weight="600" text-anchor="middle">0.6%</text><path fill="#fff" stroke="#002f2a" stroke-width="1.5" d="M202.46 463.08h31.459q16 0 16-16v7.278q0-16-16-16H202.46q-16 0-16 16v-7.278q0 16 16 16z"/><text x="218.191" y="456.199" fill="#10302c" font-family="'Montserrat'" font-size="20" font-weight="700" text-anchor="middle">481  </text><text x="218.191" y="405.617" fill="#4c6a67" font-family="'Montserrat'" font-size="22" font-weight="600" text-anchor="middle">0.8%</text><path fill="#fff" stroke="#002f2a" stroke-width="1.5" d="M291.56 449.67h29.478q16 0 16-16v7.278q0-16-16-16H291.56q-16 0-16 16v-7.278q0 16 16 16z"/><text x="306.295" y="442.788" fill="#10302c" font-family="'Montserrat'" font-size="20" font-weight="700" text-anchor="middle">812  </text><text x="306.295" y="392.206" fill="#4c6a67" font-family="'Montserrat'" font-size="22" font-weight="600" text-anchor="middle">1.4%</text><text x="394.4" y="481.432" fill="#fff" font-family="'Montserrat'" font-size="24" font-weight="500" text-anchor="middle">852</text><text x="394.4" y="440.895" fill="#fff" font-family="'Montserrat'" font-size="24" font-weight="500" text-anchor="middle">1,149</text><path fill="#fff" stroke="#002f2a" stroke-width="1.5" d="M370.06 401.49h48.681q16 0 16-16v7.278q0-16-16-16H370.06q-16 0-16 16v-7.278q0 16 16 16z"/><text x="394.4" y="394.613" fill="#10302c" font-family="'Montserrat'" font-size="20" font-weight="700" text-anchor="middle">2,001  </text><text x="394.4" y="344.031" fill="#4c6a67" font-family="'Montserrat'" font-size="22" font-weight="600" text-anchor="middle">3.4%</text><text x="482.505" y="481.777" fill="#fff" font-family="'Montserrat'" font-size="24" font-weight="500" text-anchor="middle">835</text><text x="482.505" y="433.258" fill="#fff" font-family="'Montserrat'" font-size="24" font-weight="500" text-anchor="middle">1,560</text><path fill="#fff" stroke="#002f2a" stroke-width="1.5" d="M457.43 385.53h50.159q16 0 16-16v7.278q0-16-16-16H457.43q-16 0-16 16v-7.278q0 16 16 16z"/><text x="482.505" y="378.649" fill="#10302c" font-family="'Montserrat'" font-size="20" font-weight="700" text-anchor="middle">2,395  </text><text x="482.505" y="328.067" fill="#4c6a67" font-family="'Montserrat'" font-size="22" font-weight="600" text-anchor="middle">4.1%</text><text x="570.609" y="484.917" fill="#fff" font-family="'Montserrat'" font-size="24" font-weight="500" text-anchor="middle">680</text><text x="570.609" y="442.414" fill="#fff" font-family="'Montserrat'" font-size="24" font-weight="500" text-anchor="middle">1,418</text><path fill="#fff" stroke="#002f2a" stroke-width="1.5" d="M544.01 397.56h53.2q16 0 16-16v7.278q0-16-16-16h-53.2q-16 0-16 16v-7.278q0 16 16 16z"/><text x="570.609" y="390.683" fill="#10302c" font-family="'Montserrat'" font-size="20" font-weight="700" text-anchor="middle">2,098  </text><text x="570.609" y="340.101" fill="#4c6a67" font-family="'Montserrat'" font-size="22" font-weight="600" text-anchor="middle">3.6%</text><text x="658.714" y="481.21" fill="#fff" font-family="'Montserrat'" font-size="24" font-weight="500" text-anchor="middle">863</text><text x="658.714" y="434.635" fill="#fff" font-family="'Montserrat'" font-size="24" font-weight="500" text-anchor="middle">1,436</text><path fill="#fff" stroke="#002f2a" stroke-width="1.5" d="M633.23 389.42h50.959q16 0 16-16v7.278q0-16-16-16H633.23q-16 0-16 16v-7.278q0 16 16 16z"/><text x="658.714" y="382.539" fill="#10302c" font-family="'Montserrat'" font-size="20" font-weight="700" text-anchor="middle">2,299  </text><text x="658.714" y="331.957" fill="#4c6a67" font-family="'Montserrat'" font-size="22" font-weight="600" text-anchor="middle">4.0%</text><text x="746.819" y="481.088" fill="#fff" font-family="'Montserrat'" font-size="24" font-weight="500" text-anchor="middle">869</text><text x="746.819" y="436.033" fill="#fff" font-family="'Montserrat'" font-size="24" font-weight="500" text-anchor="middle">1,355</text><path fill="#fff" stroke="#002f2a" stroke-width="1.5" d="M721.29 392.46h51.059q16 0 16-16v7.278q0-16-16-16H721.29q-16 0-16 16v-7.278q0 16 16 16z"/><text x="746.819" y="385.577" fill="#10302c" font-family="'Montserrat'" font-size="20" font-weight="700" text-anchor="middle">2,224  </text><text x="746.819" y="334.996" fill="#4c6a67" font-family="'Montserrat'" font-size="22" font-weight="600" text-anchor="middle">3.8%</text><text x="834.924" y="482.709" fill="#fff" font-family="'Montserrat'" font-size="24" font-weight="500" text-anchor="middle">789</text><text x="834.924" y="440.976" fill="#fff" font-family="'Montserrat'" font-size="24" font-weight="500" text-anchor="middle">1,271</text><path fill="#fff" stroke="#002f2a" stroke-width="1.5" d="M808.13 399.1h53.581q16 0 16-16v7.278q0-16-16-16H808.13q-16 0-16 16V383.1q0 16 16 16z"/><text x="834.924" y="392.222" fill="#10302c" font-family="'Montserrat'" font-size="20" font-weight="700" text-anchor="middle">2,060  </text><text x="834.924" y="341.64" fill="#4c6a67" font-family="'Montserrat'" font-size="22" font-weight="600" text-anchor="middle">3.5%</text><text x="923.028" y="479.042" fill="#fff" font-family="'Montserrat'" font-size="24" font-weight="500" text-anchor="middle">970</text><text x="923.028" y="429.874" fill="#fff" font-family="'Montserrat'" font-size="24" font-weight="500" text-anchor="middle">1,457</text><path fill="#fff" stroke="#002f2a" stroke-width="1.5" d="M897.2 384.23h51.659q16 0 16-16v7.278q0-16-16-16H897.2q-16 0-16 16v-7.278q0 16 16 16z"/><text x="923.028" y="377.352" fill="#10302c" font-family="'Montserrat'" font-size="20" font-weight="700" text-anchor="middle">2,427  </text><text x="923.028" y="326.771" fill="#4c6a67" font-family="'Montserrat'" font-size="22" font-weight="600" text-anchor="middle">4.2%</text><text x="1011.133" y="477.016" fill="#fff" font-family="'Montserrat'" font-size="24" font-weight="500" text-anchor="middle">1,070</text><text x="1011.133" y="416.463" fill="#fff" font-family="'Montserrat'" font-size="24" font-weight="500" text-anchor="middle">1,919</text><path fill="#fff" stroke="#002f2a" stroke-width="1.5" d="M984.95 361.46h52.359q16 0 16-16v7.278q0-16-16-16H984.95q-16 0-16 16v-7.278q0 16 16 16z"/><text x="1011.133" y="354.582" fill="#10302c" font-family="'Montserrat'" font-size="20" font-weight="700" text-anchor="middle">2,989  </text><text x="1011.133" y="304" fill="#4c6a67" font-family="'Montserrat'" font-size="22" font-weight="600" text-anchor="middle">5.2%</text><text x="1099.238" y="485.97" fill="#fff" font-family="'Montserrat'" font-size="24" font-weight="500" text-anchor="middle">628</text><text x="1099.238" y="436.843" fill="#fff" font-family="'Montserrat'" font-size="24" font-weight="500" text-anchor="middle">1,797</text><path fill="#fff" stroke="#002f2a" stroke-width="1.5" d="M1073.7 384.31h51.159q16 0 16-16v7.278q0-16-16-16H1073.7q-16 0-16 16v-7.278q0 16 16 16z"/><text x="1099.238" y="377.433" fill="#10302c" font-family="'Montserrat'" font-size="20" font-weight="700" text-anchor="middle">2,425  </text><text x="1099.238" y="326.852" fill="#4c6a67" font-family="'Montserrat'" font-size="22" font-weight="600" text-anchor="middle">4.2%</text><text x="1187.343" y="484.816" fill="#fff" font-family="'Montserrat'" font-size="24" font-weight="500" text-anchor="middle">685</text><text x="1187.343" y="424.871" fill="#fff" font-family="'Montserrat'" font-size="24" font-weight="500" text-anchor="middle">2,274</text><path fill="#fff" stroke="#002f2a" stroke-width="1.5" d="M1161.8 362.68h51.059q16 0 16-16v7.278q0-16-16-16H1161.8q-16 0-16 16v-7.278q0 16 16 16z"/><text x="1187.343" y="355.797" fill="#10302c" font-family="'Montserrat'" font-size="20" font-weight="700" text-anchor="middle">2,959  </text><text x="1187.343" y="305.216" fill="#4c6a67" font-family="'Montserrat'" font-size="22" font-weight="600" text-anchor="middle">5.1%</text><text x="1275.447" y="474.626" fill="#fff" font-family="'Montserrat'" font-size="24" font-weight="500" text-anchor="middle">1,188</text><text x="1275.447" y="396.975" fill="#fff" font-family="'Montserrat'" font-size="24" font-weight="500" text-anchor="middle">2,645</text><path fill="#fff" stroke="#002f2a" stroke-width="1.5" d="M1250.1 327.27h50.6q16 0 16-16v7.278q0-16-16-16h-50.6q-16 0-16 16v-7.278q0 16 16 16z"/><text x="1275.447" y="320.385" fill="#10302c" font-family="'Montserrat'" font-size="20" font-weight="700" text-anchor="middle">3,833  </text><text x="1275.447" y="269.804" fill="#4c6a67" font-family="'Montserrat'" font-size="22" font-weight="600" text-anchor="middle">6.6%</text><text x="1363.552" y="465.489" fill="#fff" font-family="'Montserrat'" font-size="24" font-weight="500" text-anchor="middle">1,639</text><text x="1363.552" y="369.139" fill="#fff" font-family="'Montserrat'" font-size="24" font-weight="500" text-anchor="middle">3,117</text><path fill="#fff" stroke="#002f2a" stroke-width="1.5" d="M1337.2 289.87h52.7q16 0 16-16v7.278q0-16-16-16h-52.7q-16 0-16 16v-7.278q0 16 16 16z"/><text x="1363.552" y="282.988" fill="#10302c" font-family="'Montserrat'" font-size="20" font-weight="700" text-anchor="middle">4,756  </text><text x="1363.552" y="232.406" fill="#4c6a67" font-family="'Montserrat'" font-size="22" font-weight="600" text-anchor="middle">8.2%</text><text x="1451.657" y="468.143" fill="#fff" font-family="'Montserrat'" font-size="24" font-weight="500" text-anchor="middle">1,508</text><text x="1451.657" y="379.775" fill="#fff" font-family="'Montserrat'" font-size="24" font-weight="500" text-anchor="middle">2,854</text><path fill="#fff" stroke="#002f2a" stroke-width="1.5" d="M1425.6 305.83h52.041q16 0 16-16v7.278q0-16-16-16H1425.6q-16 0-16 16v-7.278q0 16 16 16z"/><text x="1451.657" y="298.952" fill="#10302c" font-family="'Montserrat'" font-size="20" font-weight="700" text-anchor="middle">4,362  </text><text x="1451.657" y="248.37" fill="#4c6a67" font-family="'Montserrat'" font-size="22" font-weight="600" text-anchor="middle">7.5%</text><text x="1539.762" y="453.212" fill="#fff" font-family="'Montserrat'" font-size="24" font-weight="500" text-anchor="middle">2,245</text><text x="1539.762" y="329.696" fill="#fff" font-family="'Montserrat'" font-size="24" font-weight="500" text-anchor="middle">3,852</text><path fill="#fff" stroke="#002f2a" stroke-width="1.5" d="M1513.1 235.54h53.341q16 0 16-16v7.278q0-16-16-16H1513.1q-16 0-16 16v-7.278q0 16 16 16z"/><text x="1539.762" y="228.655" fill="#10302c" font-family="'Montserrat'" font-size="20" font-weight="700" text-anchor="middle">6,097  </text><text x="1539.762" y="178.073" fill="#4c6a67" font-family="'Montserrat'" font-size="22" font-weight="600" text-anchor="middle">10.5%</text><text x="1627.866" y="435.263" fill="#fff" font-family="'Montserrat'" font-size="24" font-weight="500" text-anchor="middle">3,131</text><text x="1627.866" y="253.402" fill="#fff" font-family="'Montserrat'" font-size="24" font-weight="500" text-anchor="middle">5,846</text><path fill="#fff" stroke="#002f2a" stroke-width="1.5" d="M1601.6 118.85h52.619q16 0 16-16v7.278q0-16-16-16H1601.6q-16 0-16 16v-7.278q0 16 16 16z"/><text x="1627.866" y="111.965" fill="#10302c" font-family="'Montserrat'" font-size="20" font-weight="700" text-anchor="middle">8,977  </text><text x="1627.866" y="61.384" fill="#4c6a67" font-family="'Montserrat'" font-size="22" font-weight="600" text-anchor="middle">15.5%</text><text x="1715.971" y="398.028" fill="#fff" font-family="'Montserrat'" font-size="24" font-weight="500" text-anchor="middle">3,995</text><path fill="#fff" stroke="#002f2a" stroke-width="1.5" d="M1688.8 300.97h54.441q16 0 16-16v7.278q0-16-16-16H1688.8q-16 0-16 16v-7.278q0 16 16 16z"/><text x="1715.971" y="294.09" fill="#10302c" font-family="'Montserrat'" font-size="20" font-weight="700" text-anchor="middle">4,482  </text><text x="1715.971" y="243.508" fill="#4c6a67" font-family="'Montserrat'" font-size="22" font-weight="600" text-anchor="middle">7.7%</text><path fill="#10302c" d="M665.59 35.036h48v-16.8h-48z"/><text x="732.787" y="35.036" font-family="'DejaVu Sans', 'Bitstream Vera Sans', 'Computer Modern Sans Serif', 'Lucida Grande', 'Verdana', 'Geneva', 'Lucid', 'Arial', 'Helvetica', 'Avant Garde', sans-serif" font-size="24">movimiento</text><path fill="#4c6a67" d="M923.84 35.036h48v-16.8h-48z"/><text x="991.038" y="35.036" font-family="'DejaVu Sans', 'Bitstream Vera Sans', 'Computer Modern Sans Serif', 'Lucida Grande', 'Verdana', 'Geneva', 'Lucid', 'Arial', 'Helvetica', 'Avant Garde', sans-serif" font-size="24">sin_movimiento</text><defs><clipPath id="a"><path d="M86.033 32.009h1674v460.11h-1674z"/></clipPath></defs></svg>