<?xml version="1.0" encoding="utf-8" standalone="no"?>
<!DOCTYPE svg PUBLIC "-//W3C//DTD SVG 1.1//EN"
  "http://www.w3.org/Graphics/SVG/1.1/DTD/svg11.dtd">
<svg xmlns:xlink="http://www.w3.org/1999/xlink" width="856.861945pt" height="1084.022504pt" viewBox="0 0 856.861945 1084.022504" xmlns="http://www.w3.org/2000/svg" version="1.1">
 <metadata>
  <rdf:RDF xmlns:dc="http://purl.org/dc/elements/1.1/" xmlns:cc="http://creativecommons.org/ns#" xmlns:rdf="http://www.w3.org/1999/02/22-rdf-syntax-ns#">
   <cc:Work>
    <dc:type rdf:resource="http://purl.org/dc/dcmitype/StillImage"/>
    <dc:date>2025-05-29T12:01:05.578026</dc:date>
    <dc:format>image/svg+xml</dc:format>
    <dc:creator>
     <cc:Agent>
      <dc:title>Matplotlib v3.10.1, https://matplotlib.org/</dc:title>
     </cc:Agent>
    </dc:creator>
   </cc:Work>
  </rdf:RDF>
 </metadata>
 <defs>
  <style type="text/css">*{stroke-linejoin: round; stroke-linecap: butt}</style>
 </defs>
 <g id="figure_1">
  <g id="patch_1">
   <path d="M 0 1084.022504 
L 856.861945 1084.022504 
L 856.861945 0 
L 0 0 
z
" style="fill: #ffffff"/>
  </g>
  <g id="axes_1">
   <g id="patch_2">
    <path d="M 121.343438 1046.42016 
L 791.558102 1046.42016 
L 791.558102 73.06816 
L 121.343438 73.06816 
z
" style="fill: #ffffff"/>
   </g>
   <g id="matplotlib.axis_1">
    <g id="xtick_1">
     <g id="line2d_1">
      <path d="M 121.343438 1046.42016 
L 121.343438 73.06816 
" clip-path="url(#pae0cdf4fcc)" style="fill: none; stroke: #b9b9b9; stroke-width: 0.75; stroke-linecap: square"/>
     </g>
     <g id="line2d_2">
      <defs>
       <path id="m4c6ab61499" d="M 0 0 
L 0 3.5 
" style="stroke: #000000; stroke-width: 0.8"/>
      </defs>
      <g>
       <use xlink:href="#m4c6ab61499" x="121.343438" y="1046.42016" style="stroke: #000000; stroke-width: 0.8"/>
      </g>
     </g>
     <g id="text_1">
      <text style="font-weight: 500; font-size: 25px; font-family: 'Montserrat'; text-anchor: middle" x="121.343438" y="1071.970941" transform="rotate(-0 121.343438 1071.970941)">0</text>
     </g>
    </g>
    <g id="xtick_2">
     <g id="line2d_3">
      <path d="M 239.381527 1046.42016 
L 239.381527 73.06816 
" clip-path="url(#pae0cdf4fcc)" style="fill: none; stroke: #b9b9b9; stroke-width: 0.75; stroke-linecap: square"/>
     </g>
     <g id="line2d_4">
      <g>
       <use xlink:href="#m4c6ab61499" x="239.381527" y="1046.42016" style="stroke: #000000; stroke-width: 0.8"/>
      </g>
     </g>
     <g id="text_2">
      <text style="font-weight: 500; font-size: 25px; font-family: 'Montserrat'; text-anchor: middle" x="239.381527" y="1071.970941" transform="rotate(-0 239.381527 1071.970941)">2,000</text>
     </g>
    </g>
    <g id="xtick_3">
     <g id="line2d_5">
      <path d="M 357.419616 1046.42016 
L 357.419616 73.06816 
" clip-path="url(#pae0cdf4fcc)" style="fill: none; stroke: #b9b9b9; stroke-width: 0.75; stroke-linecap: square"/>
     </g>
     <g id="line2d_6">
      <g>
       <use xlink:href="#m4c6ab61499" x="357.419616" y="1046.42016" style="stroke: #000000; stroke-width: 0.8"/>
      </g>
     </g>
     <g id="text_3">
      <text style="font-weight: 500; font-size: 25px; font-family: 'Montserrat'; text-anchor: middle" x="357.419616" y="1071.970941" transform="rotate(-0 357.419616 1071.970941)">4,000</text>
     </g>
    </g>
    <g id="xtick_4">
     <g id="line2d_7">
      <path d="M 475.457705 1046.42016 
L 475.457705 73.06816 
" clip-path="url(#pae0cdf4fcc)" style="fill: none; stroke: #b9b9b9; stroke-width: 0.75; stroke-linecap: square"/>
     </g>
     <g id="line2d_8">
      <g>
       <use xlink:href="#m4c6ab61499" x="475.457705" y="1046.42016" style="stroke: #000000; stroke-width: 0.8"/>
      </g>
     </g>
     <g id="text_4">
      <text style="font-weight: 500; font-size: 25px; font-family: 'Montserrat'; text-anchor: middle" x="475.457705" y="1071.970941" transform="rotate(-0 475.457705 1071.970941)">6,000</text>
     </g>
    </g>
    <g id="xtick_5">
     <g id="line2d_9">
      <path d="M 593.495795 1046.42016 
L 593.495795 73.06816 
" clip-path="url(#pae0cdf4fcc)" style="fill: none; stroke: #b9b9b9; stroke-width: 0.75; stroke-linecap: square"/>
     </g>
     <g id="line2d_10">
      <g>
       <use xlink:href="#m4c6ab61499" x="593.495795" y="1046.42016" style="stroke: #000000; stroke-width: 0.8"/>
      </g>
     </g>
     <g id="text_5">
      <text style="font-weight: 500; font-size: 25px; font-family: 'Montserrat'; text-anchor: middle" x="593.495795" y="1071.970941" transform="rotate(-0 593.495795 1071.970941)">8,000</text>
     </g>
    </g>
    <g id="xtick_6">
     <g id="line2d_11">
      <path d="M 711.533884 1046.42016 
L 711.533884 73.06816 
" clip-path="url(#pae0cdf4fcc)" style="fill: none; stroke: #b9b9b9; stroke-width: 0.75; stroke-linecap: square"/>
     </g>
     <g id="line2d_12">
      <g>
       <use xlink:href="#m4c6ab61499" x="711.533884" y="1046.42016" style="stroke: #000000; stroke-width: 0.8"/>
      </g>
     </g>
     <g id="text_6">
      <text style="font-weight: 500; font-size: 25px; font-family: 'Montserrat'; text-anchor: middle" x="711.533884" y="1071.970941" transform="rotate(-0 711.533884 1071.970941)">10,000</text>
     </g>
    </g>
   </g>
   <g id="matplotlib.axis_2">
    <g id="ytick_1">
     <g id="line2d_13">
      <defs>
       <path id="m367466a115" d="M 0 0 
L -3.5 0 
" style="stroke: #000000; stroke-width: 0.8"/>
      </defs>
      <g>
       <use xlink:href="#m367466a115" x="121.343438" y="141.226715" style="stroke: #000000; stroke-width: 0.8"/>
      </g>
     </g>
     <g id="text_7">
      <text style="font-weight: 500; font-size: 22px; font-family: 'Montserrat'; text-anchor: end" x="114.343438" y="149.389059" transform="rotate(-0 114.343438 149.389059)">2007-2011</text>
     </g>
    </g>
    <g id="ytick_2">
     <g id="line2d_14">
      <g>
       <use xlink:href="#m367466a115" x="121.343438" y="201.014922" style="stroke: #000000; stroke-width: 0.8"/>
      </g>
     </g>
     <g id="text_8">
      <text style="font-weight: 500; font-size: 22px; font-family: 'Montserrat'; text-anchor: end" x="114.343438" y="209.177265" transform="rotate(-0 114.343438 209.177265)">2012</text>
     </g>
    </g>
    <g id="ytick_3">
     <g id="line2d_15">
      <g>
       <use xlink:href="#m367466a115" x="121.343438" y="260.803128" style="stroke: #000000; stroke-width: 0.8"/>
      </g>
     </g>
     <g id="text_9">
      <text style="font-weight: 500; font-size: 22px; font-family: 'Montserrat'; text-anchor: end" x="114.343438" y="268.965472" transform="rotate(-0 114.343438 268.965472)">2013</text>
     </g>
    </g>
    <g id="ytick_4">
     <g id="line2d_16">
      <g>
       <use xlink:href="#m367466a115" x="121.343438" y="320.591334" style="stroke: #000000; stroke-width: 0.8"/>
      </g>
     </g>
     <g id="text_10">
      <text style="font-weight: 500; font-size: 22px; font-family: 'Montserrat'; text-anchor: end" x="114.343438" y="328.753678" transform="rotate(-0 114.343438 328.753678)">2014</text>
     </g>
    </g>
    <g id="ytick_5">
     <g id="line2d_17">
      <g>
       <use xlink:href="#m367466a115" x="121.343438" y="380.379541" style="stroke: #000000; stroke-width: 0.8"/>
      </g>
     </g>
     <g id="text_11">
      <text style="font-weight: 500; font-size: 22px; font-family: 'Montserrat'; text-anchor: end" x="114.343438" y="388.541885" transform="rotate(-0 114.343438 388.541885)">2015</text>
     </g>
    </g>
    <g id="ytick_6">
     <g id="line2d_18">
      <g>
       <use xlink:href="#m367466a115" x="121.343438" y="440.167747" style="stroke: #000000; stroke-width: 0.8"/>
      </g>
     </g>
     <g id="text_12">
      <text style="font-weight: 500; font-size: 22px; font-family: 'Montserrat'; text-anchor: end" x="114.343438" y="448.330091" transform="rotate(-0 114.343438 448.330091)">2016</text>
     </g>
    </g>
    <g id="ytick_7">
     <g id="line2d_19">
      <g>
       <use xlink:href="#m367466a115" x="121.343438" y="499.955954" style="stroke: #000000; stroke-width: 0.8"/>
      </g>
     </g>
     <g id="text_13">
      <text style="font-weight: 500; font-size: 22px; font-family: 'Montserrat'; text-anchor: end" x="114.343438" y="508.118297" transform="rotate(-0 114.343438 508.118297)">2017</text>
     </g>
    </g>
    <g id="ytick_8">
     <g id="line2d_20">
      <g>
       <use xlink:href="#m367466a115" x="121.343438" y="559.74416" style="stroke: #000000; stroke-width: 0.8"/>
      </g>
     </g>
     <g id="text_14">
      <text style="font-weight: 500; font-size: 22px; font-family: 'Montserrat'; text-anchor: end" x="114.343438" y="567.906504" transform="rotate(-0 114.343438 567.906504)">2018</text>
     </g>
    </g>
    <g id="ytick_9">
     <g id="line2d_21">
      <g>
       <use xlink:href="#m367466a115" x="121.343438" y="619.532366" style="stroke: #000000; stroke-width: 0.8"/>
      </g>
     </g>
     <g id="text_15">
      <text style="font-weight: 500; font-size: 22px; font-family: 'Montserrat'; text-anchor: end" x="114.343438" y="627.69471" transform="rotate(-0 114.343438 627.69471)">2019</text>
     </g>
    </g>
    <g id="ytick_10">
     <g id="line2d_22">
      <g>
       <use xlink:href="#m367466a115" x="121.343438" y="679.320573" style="stroke: #000000; stroke-width: 0.8"/>
      </g>
     </g>
     <g id="text_16">
      <text style="font-weight: 500; font-size: 22px; font-family: 'Montserrat'; text-anchor: end" x="114.343438" y="687.482917" transform="rotate(-0 114.343438 687.482917)">2020</text>
     </g>
    </g>
    <g id="ytick_11">
     <g id="line2d_23">
      <g>
       <use xlink:href="#m367466a115" x="121.343438" y="739.108779" style="stroke: #000000; stroke-width: 0.8"/>
      </g>
     </g>
     <g id="text_17">
      <text style="font-weight: 500; font-size: 22px; font-family: 'Montserrat'; text-anchor: end" x="114.343438" y="747.271123" transform="rotate(-0 114.343438 747.271123)">2021</text>
     </g>
    </g>
    <g id="ytick_12">
     <g id="line2d_24">
      <g>
       <use xlink:href="#m367466a115" x="121.343438" y="798.896986" style="stroke: #000000; stroke-width: 0.8"/>
      </g>
     </g>
     <g id="text_18">
      <text style="font-weight: 500; font-size: 22px; font-family: 'Montserrat'; text-anchor: end" x="114.343438" y="807.059329" transform="rotate(-0 114.343438 807.059329)">2022</text>
     </g>
    </g>
    <g id="ytick_13">
     <g id="line2d_25">
      <g>
       <use xlink:href="#m367466a115" x="121.343438" y="858.685192" style="stroke: #000000; stroke-width: 0.8"/>
      </g>
     </g>
     <g id="text_19">
      <text style="font-weight: 500; font-size: 22px; font-family: 'Montserrat'; text-anchor: end" x="114.343438" y="866.847536" transform="rotate(-0 114.343438 866.847536)">2023</text>
     </g>
    </g>
    <g id="ytick_14">
     <g id="line2d_26">
      <g>
       <use xlink:href="#m367466a115" x="121.343438" y="918.473398" style="stroke: #000000; stroke-width: 0.8"/>
      </g>
     </g>
     <g id="text_20">
      <text style="font-weight: 500; font-size: 22px; font-family: 'Montserrat'; text-anchor: end" x="114.343438" y="926.635742" transform="rotate(-0 114.343438 926.635742)">2024</text>
     </g>
    </g>
    <g id="ytick_15">
     <g id="line2d_27">
      <g>
       <use xlink:href="#m367466a115" x="121.343438" y="978.261605" style="stroke: #000000; stroke-width: 0.8"/>
      </g>
     </g>
     <g id="text_21">
      <text style="font-weight: 500; font-size: 22px; font-family: 'Montserrat'; text-anchor: end" x="114.343438" y="986.423948" transform="rotate(-0 114.343438 986.423948)">2025</text>
     </g>
    </g>
   </g>
   <g id="patch_3">
    <path d="M 121.343438 117.311433 
L 269.304182 117.311433 
L 269.304182 165.141998 
L 121.343438 165.141998 
z
" clip-path="url(#pae0cdf4fcc)" style="fill: #10302c"/>
   </g>
   <g id="patch_4">
    <path d="M 269.304182 117.311433 
L 478.290619 117.311433 
L 478.290619 165.141998 
L 269.304182 165.141998 
z
" clip-path="url(#pae0cdf4fcc)" style="fill: #4c6a67"/>
   </g>
   <g id="patch_5">
    <path d="M 121.343438 177.099639 
L 161.476388 177.099639 
L 161.476388 224.930204 
L 121.343438 224.930204 
z
" clip-path="url(#pae0cdf4fcc)" style="fill: #10302c"/>
   </g>
   <g id="patch_6">
    <path d="M 161.476388 177.099639 
L 245.165393 177.099639 
L 245.165393 224.930204 
L 161.476388 224.930204 
z
" clip-path="url(#pae0cdf4fcc)" style="fill: #4c6a67"/>
   </g>
   <g id="patch_7">
    <path d="M 121.343438 236.887846 
L 172.276873 236.887846 
L 172.276873 284.718411 
L 121.343438 284.718411 
z
" clip-path="url(#pae0cdf4fcc)" style="fill: #10302c"/>
   </g>
   <g id="patch_8">
    <path d="M 172.276873 236.887846 
L 257.028221 236.887846 
L 257.028221 284.718411 
L 172.276873 284.718411 
z
" clip-path="url(#pae0cdf4fcc)" style="fill: #4c6a67"/>
   </g>
   <g id="patch_9">
    <path d="M 121.343438 296.676052 
L 172.630987 296.676052 
L 172.630987 344.506617 
L 121.343438 344.506617 
z
" clip-path="url(#pae0cdf4fcc)" style="fill: #10302c"/>
   </g>
   <g id="patch_10">
    <path d="M 172.630987 296.676052 
L 252.601793 296.676052 
L 252.601793 344.506617 
L 172.630987 344.506617 
z
" clip-path="url(#pae0cdf4fcc)" style="fill: #4c6a67"/>
   </g>
   <g id="patch_11">
    <path d="M 121.343438 356.464258 
L 167.909464 356.464258 
L 167.909464 404.294823 
L 121.343438 404.294823 
z
" clip-path="url(#pae0cdf4fcc)" style="fill: #10302c"/>
   </g>
   <g id="patch_12">
    <path d="M 167.909464 356.464258 
L 242.922669 356.464258 
L 242.922669 404.294823 
L 167.909464 404.294823 
z
" clip-path="url(#pae0cdf4fcc)" style="fill: #4c6a67"/>
   </g>
   <g id="patch_13">
    <path d="M 121.343438 416.252465 
L 178.591911 416.252465 
L 178.591911 464.08303 
L 121.343438 464.08303 
z
" clip-path="url(#pae0cdf4fcc)" style="fill: #10302c"/>
   </g>
   <g id="patch_14">
    <path d="M 178.591911 416.252465 
L 264.582659 416.252465 
L 264.582659 464.08303 
L 178.591911 464.08303 
z
" clip-path="url(#pae0cdf4fcc)" style="fill: #4c6a67"/>
   </g>
   <g id="patch_15">
    <path d="M 121.343438 476.040671 
L 184.493815 476.040671 
L 184.493815 523.871236 
L 121.343438 523.871236 
z
" clip-path="url(#pae0cdf4fcc)" style="fill: #10302c"/>
   </g>
   <g id="patch_16">
    <path d="M 184.493815 476.040671 
L 297.751362 476.040671 
L 297.751362 523.871236 
L 184.493815 523.871236 
z
" clip-path="url(#pae0cdf4fcc)" style="fill: #4c6a67"/>
   </g>
   <g id="patch_17">
    <path d="M 121.343438 535.828877 
L 158.407398 535.828877 
L 158.407398 583.659443 
L 121.343438 583.659443 
z
" clip-path="url(#pae0cdf4fcc)" style="fill: #10302c"/>
   </g>
   <g id="patch_18">
    <path d="M 158.407398 535.828877 
L 264.464621 535.828877 
L 264.464621 583.659443 
L 158.407398 583.659443 
z
" clip-path="url(#pae0cdf4fcc)" style="fill: #4c6a67"/>
   </g>
   <g id="patch_19">
    <path d="M 121.343438 595.617084 
L 161.771483 595.617084 
L 161.771483 643.447649 
L 121.343438 643.447649 
z
" clip-path="url(#pae0cdf4fcc)" style="fill: #10302c"/>
   </g>
   <g id="patch_20">
    <path d="M 161.771483 595.617084 
L 295.980791 595.617084 
L 295.980791 643.447649 
L 161.771483 643.447649 
z
" clip-path="url(#pae0cdf4fcc)" style="fill: #4c6a67"/>
   </g>
   <g id="patch_21">
    <path d="M 121.343438 655.40529 
L 191.458063 655.40529 
L 191.458063 703.235855 
L 121.343438 703.235855 
z
" clip-path="url(#pae0cdf4fcc)" style="fill: #10302c"/>
   </g>
   <g id="patch_22">
    <path d="M 191.458063 655.40529 
L 347.563436 655.40529 
L 347.563436 703.235855 
L 191.458063 703.235855 
z
" clip-path="url(#pae0cdf4fcc)" style="fill: #4c6a67"/>
   </g>
   <g id="patch_23">
    <path d="M 121.343438 715.193497 
L 218.075652 715.193497 
L 218.075652 763.024062 
L 121.343438 763.024062 
z
" clip-path="url(#pae0cdf4fcc)" style="fill: #10302c"/>
   </g>
   <g id="patch_24">
    <path d="M 218.075652 715.193497 
L 402.038014 715.193497 
L 402.038014 763.024062 
L 218.075652 763.024062 
z
" clip-path="url(#pae0cdf4fcc)" style="fill: #4c6a67"/>
   </g>
   <g id="patch_25">
    <path d="M 121.343438 774.981703 
L 210.344157 774.981703 
L 210.344157 822.812268 
L 121.343438 822.812268 
z
" clip-path="url(#pae0cdf4fcc)" style="fill: #10302c"/>
   </g>
   <g id="patch_26">
    <path d="M 210.344157 774.981703 
L 378.78451 774.981703 
L 378.78451 822.812268 
L 210.344157 822.812268 
z
" clip-path="url(#pae0cdf4fcc)" style="fill: #4c6a67"/>
   </g>
   <g id="patch_27">
    <path d="M 121.343438 834.769909 
L 253.841193 834.769909 
L 253.841193 882.600474 
L 121.343438 882.600474 
z
" clip-path="url(#pae0cdf4fcc)" style="fill: #10302c"/>
   </g>
   <g id="patch_28">
    <path d="M 253.841193 834.769909 
L 481.182553 834.769909 
L 481.182553 882.600474 
L 253.841193 882.600474 
z
" clip-path="url(#pae0cdf4fcc)" style="fill: #4c6a67"/>
   </g>
   <g id="patch_29">
    <path d="M 121.343438 894.558116 
L 306.132066 894.558116 
L 306.132066 942.388681 
L 121.343438 942.388681 
z
" clip-path="url(#pae0cdf4fcc)" style="fill: #10302c"/>
   </g>
   <g id="patch_30">
    <path d="M 306.132066 894.558116 
L 651.157401 894.558116 
L 651.157401 942.388681 
L 306.132066 942.388681 
z
" clip-path="url(#pae0cdf4fcc)" style="fill: #4c6a67"/>
   </g>
   <g id="patch_31">
    <path d="M 121.343438 954.346322 
L 150.085712 954.346322 
L 150.085712 1002.176887 
L 121.343438 1002.176887 
z
" clip-path="url(#pae0cdf4fcc)" style="fill: #10302c"/>
   </g>
   <g id="patch_32">
    <path d="M 150.085712 954.346322 
L 385.866796 954.346322 
L 385.866796 1002.176887 
L 150.085712 1002.176887 
z
" clip-path="url(#pae0cdf4fcc)" style="fill: #4c6a67"/>
   </g>
   <g id="text_22">
    <text style="font-weight: 500; font-size: 20px; font-family: 'Montserrat'; text-anchor: middle; fill: #ffffff" x="195.32381" y="146.706403" transform="rotate(-0 195.32381 146.706403)">2,507</text>
   </g>
   <g id="text_23">
    <text style="font-weight: 500; font-size: 20px; font-family: 'Montserrat'; text-anchor: middle; fill: #ffffff" x="373.797401" y="146.706403" transform="rotate(-0 373.797401 146.706403)">3,541</text>
   </g>
   <g id="text_24">
    <g id="patch_33">
     <path d="M 509.569201 153.587653 
L 587.387951 153.587653 
Q 603.387951 153.587653 603.387951 137.587653 
L 603.387951 144.865778 
Q 603.387951 128.865778 587.387951 128.865778 
L 509.569201 128.865778 
Q 493.569201 128.865778 493.569201 144.865778 
L 493.569201 137.587653 
Q 493.569201 153.587653 509.569201 153.587653 
z
" style="fill: #ffffff; stroke: #002f2a; stroke-width: 1.5; stroke-linejoin: miter"/>
    </g>
    <text style="font-weight: 700; font-size: 20px; font-family: 'Montserrat'; text-anchor: start; fill: #10302c" x="496.569201" y="146.706403" transform="rotate(-0 496.569201 146.706403)">    6,048    </text>
   </g>
   <g id="text_25">
    <text style="font-weight: 600; font-size: 22px; font-family: 'Montserrat'; text-anchor: start; fill: #4c6a67" x="618.426413" y="147.254372" transform="rotate(-0 618.426413 147.254372)">10.4%</text>
   </g>
   <g id="text_26">
    <text style="font-weight: 500; font-size: 20px; font-family: 'Montserrat'; text-anchor: middle; fill: #ffffff" x="141.409913" y="206.494609" transform="rotate(-0 141.409913 206.494609)">680</text>
   </g>
   <g id="text_27">
    <text style="font-weight: 500; font-size: 20px; font-family: 'Montserrat'; text-anchor: middle; fill: #ffffff" x="203.32089" y="206.494609" transform="rotate(-0 203.32089 206.494609)">1,418</text>
   </g>
   <g id="text_28">
    <g id="patch_34">
     <path d="M 276.443975 213.375859 
L 352.281475 213.375859 
Q 368.281475 213.375859 368.281475 197.375859 
L 368.281475 204.653984 
Q 368.281475 188.653984 352.281475 188.653984 
L 276.443975 188.653984 
Q 260.443975 188.653984 260.443975 204.653984 
L 260.443975 197.375859 
Q 260.443975 213.375859 276.443975 213.375859 
z
" style="fill: #ffffff; stroke: #002f2a; stroke-width: 1.5; stroke-linejoin: miter"/>
    </g>
    <text style="font-weight: 700; font-size: 20px; font-family: 'Montserrat'; text-anchor: start; fill: #10302c" x="263.443975" y="206.494609" transform="rotate(-0 263.443975 206.494609)">    2,098    </text>
   </g>
   <g id="text_29">
    <text style="font-weight: 600; font-size: 22px; font-family: 'Montserrat'; text-anchor: start; fill: #4c6a67" x="385.301187" y="207.042578" transform="rotate(-0 385.301187 207.042578)">3.6%</text>
   </g>
   <g id="text_30">
    <text style="font-weight: 500; font-size: 20px; font-family: 'Montserrat'; text-anchor: middle; fill: #ffffff" x="146.810155" y="266.282816" transform="rotate(-0 146.810155 266.282816)">863</text>
   </g>
   <g id="text_31">
    <text style="font-weight: 500; font-size: 20px; font-family: 'Montserrat'; text-anchor: middle; fill: #ffffff" x="214.652547" y="266.282816" transform="rotate(-0 214.652547 266.282816)">1,436</text>
   </g>
   <g id="text_32">
    <g id="patch_35">
     <path d="M 288.306803 273.164066 
L 361.903678 273.164066 
Q 377.903678 273.164066 377.903678 257.164066 
L 377.903678 264.442191 
Q 377.903678 248.442191 361.903678 248.442191 
L 288.306803 248.442191 
Q 272.306803 248.442191 272.306803 264.442191 
L 272.306803 257.164066 
Q 272.306803 273.164066 288.306803 273.164066 
z
" style="fill: #ffffff; stroke: #002f2a; stroke-width: 1.5; stroke-linejoin: miter"/>
    </g>
    <text style="font-weight: 700; font-size: 20px; font-family: 'Montserrat'; text-anchor: start; fill: #10302c" x="275.306803" y="266.282816" transform="rotate(-0 275.306803 266.282816)">    2,299    </text>
   </g>
   <g id="text_33">
    <text style="font-weight: 600; font-size: 22px; font-family: 'Montserrat'; text-anchor: start; fill: #4c6a67" x="397.164014" y="266.830784" transform="rotate(-0 397.164014 266.830784)">4.0%</text>
   </g>
   <g id="text_34">
    <text style="font-weight: 500; font-size: 20px; font-family: 'Montserrat'; text-anchor: middle; fill: #ffffff" x="146.987212" y="326.071022" transform="rotate(-0 146.987212 326.071022)">869</text>
   </g>
   <g id="text_35">
    <text style="font-weight: 500; font-size: 20px; font-family: 'Montserrat'; text-anchor: middle; fill: #ffffff" x="212.61639" y="326.071022" transform="rotate(-0 212.61639 326.071022)">1,355</text>
   </g>
   <g id="text_36">
    <g id="patch_36">
     <path d="M 283.880375 332.952272 
L 357.57725 332.952272 
Q 373.57725 332.952272 373.57725 316.952272 
L 373.57725 324.230397 
Q 373.57725 308.230397 357.57725 308.230397 
L 283.880375 308.230397 
Q 267.880375 308.230397 267.880375 324.230397 
L 267.880375 316.952272 
Q 267.880375 332.952272 283.880375 332.952272 
z
" style="fill: #ffffff; stroke: #002f2a; stroke-width: 1.5; stroke-linejoin: miter"/>
    </g>
    <text style="font-weight: 700; font-size: 20px; font-family: 'Montserrat'; text-anchor: start; fill: #10302c" x="270.880375" y="326.071022" transform="rotate(-0 270.880375 326.071022)">    2,224    </text>
   </g>
   <g id="text_37">
    <text style="font-weight: 600; font-size: 22px; font-family: 'Montserrat'; text-anchor: start; fill: #4c6a67" x="392.737586" y="326.618991" transform="rotate(-0 392.737586 326.618991)">3.8%</text>
   </g>
   <g id="text_38">
    <text style="font-weight: 500; font-size: 20px; font-family: 'Montserrat'; text-anchor: middle; fill: #ffffff" x="144.626451" y="385.859228" transform="rotate(-0 144.626451 385.859228)">789</text>
   </g>
   <g id="text_39">
    <text style="font-weight: 500; font-size: 20px; font-family: 'Montserrat'; text-anchor: middle; fill: #ffffff" x="205.416067" y="385.859228" transform="rotate(-0 205.416067 385.859228)">1,271</text>
   </g>
   <g id="text_40">
    <g id="patch_37">
     <path d="M 274.201251 392.740478 
L 350.420001 392.740478 
Q 366.420001 392.740478 366.420001 376.740478 
L 366.420001 384.018603 
Q 366.420001 368.018603 350.420001 368.018603 
L 274.201251 368.018603 
Q 258.201251 368.018603 258.201251 384.018603 
L 258.201251 376.740478 
Q 258.201251 392.740478 274.201251 392.740478 
z
" style="fill: #ffffff; stroke: #002f2a; stroke-width: 1.5; stroke-linejoin: miter"/>
    </g>
    <text style="font-weight: 700; font-size: 20px; font-family: 'Montserrat'; text-anchor: start; fill: #10302c" x="261.201251" y="385.859228" transform="rotate(-0 261.201251 385.859228)">    2,060    </text>
   </g>
   <g id="text_41">
    <text style="font-weight: 600; font-size: 22px; font-family: 'Montserrat'; text-anchor: start; fill: #4c6a67" x="383.058463" y="386.407197" transform="rotate(-0 383.058463 386.407197)">3.5%</text>
   </g>
   <g id="text_42">
    <text style="font-weight: 500; font-size: 20px; font-family: 'Montserrat'; text-anchor: middle; fill: #ffffff" x="149.967674" y="445.647435" transform="rotate(-0 149.967674 445.647435)">970</text>
   </g>
   <g id="text_43">
    <text style="font-weight: 500; font-size: 20px; font-family: 'Montserrat'; text-anchor: middle; fill: #ffffff" x="221.587285" y="445.647435" transform="rotate(-0 221.587285 445.647435)">1,457</text>
   </g>
   <g id="text_44">
    <g id="patch_38">
     <path d="M 295.861241 452.528685 
L 370.158116 452.528685 
Q 386.158116 452.528685 386.158116 436.528685 
L 386.158116 443.80681 
Q 386.158116 427.80681 370.158116 427.80681 
L 295.861241 427.80681 
Q 279.861241 427.80681 279.861241 443.80681 
L 279.861241 436.528685 
Q 279.861241 452.528685 295.861241 452.528685 
z
" style="fill: #ffffff; stroke: #002f2a; stroke-width: 1.5; stroke-linejoin: miter"/>
    </g>
    <text style="font-weight: 700; font-size: 20px; font-family: 'Montserrat'; text-anchor: start; fill: #10302c" x="282.861241" y="445.647435" transform="rotate(-0 282.861241 445.647435)">    2,427    </text>
   </g>
   <g id="text_45">
    <text style="font-weight: 600; font-size: 22px; font-family: 'Montserrat'; text-anchor: start; fill: #4c6a67" x="404.718452" y="446.195403" transform="rotate(-0 404.718452 446.195403)">4.2%</text>
   </g>
   <g id="text_46">
    <text style="font-weight: 500; font-size: 20px; font-family: 'Montserrat'; text-anchor: middle; fill: #ffffff" x="152.918626" y="505.435641" transform="rotate(-0 152.918626 505.435641)">1,070</text>
   </g>
   <g id="text_47">
    <text style="font-weight: 500; font-size: 20px; font-family: 'Montserrat'; text-anchor: middle; fill: #ffffff" x="241.122589" y="505.435641" transform="rotate(-0 241.122589 505.435641)">1,919</text>
   </g>
   <g id="text_48">
    <g id="patch_39">
     <path d="M 329.029944 512.316891 
L 404.026819 512.316891 
Q 420.026819 512.316891 420.026819 496.316891 
L 420.026819 503.595016 
Q 420.026819 487.595016 404.026819 487.595016 
L 329.029944 487.595016 
Q 313.029944 487.595016 313.029944 503.595016 
L 313.029944 496.316891 
Q 313.029944 512.316891 329.029944 512.316891 
z
" style="fill: #ffffff; stroke: #002f2a; stroke-width: 1.5; stroke-linejoin: miter"/>
    </g>
    <text style="font-weight: 700; font-size: 20px; font-family: 'Montserrat'; text-anchor: start; fill: #10302c" x="316.029944" y="505.435641" transform="rotate(-0 316.029944 505.435641)">    2,989    </text>
   </g>
   <g id="text_49">
    <text style="font-weight: 600; font-size: 22px; font-family: 'Montserrat'; text-anchor: start; fill: #4c6a67" x="437.887155" y="505.98361" transform="rotate(-0 437.887155 505.98361)">5.2%</text>
   </g>
   <g id="text_50">
    <text style="font-weight: 500; font-size: 20px; font-family: 'Montserrat'; text-anchor: middle; fill: #ffffff" x="139.875418" y="565.223847" transform="rotate(-0 139.875418 565.223847)">628</text>
   </g>
   <g id="text_51">
    <text style="font-weight: 500; font-size: 20px; font-family: 'Montserrat'; text-anchor: middle; fill: #ffffff" x="211.436009" y="565.223847" transform="rotate(-0 211.436009 565.223847)">1,797</text>
   </g>
   <g id="text_52">
    <g id="patch_40">
     <path d="M 295.743202 572.105097 
L 369.540077 572.105097 
Q 385.540077 572.105097 385.540077 556.105097 
L 385.540077 563.383222 
Q 385.540077 547.383222 369.540077 547.383222 
L 295.743202 547.383222 
Q 279.743202 547.383222 279.743202 563.383222 
L 279.743202 556.105097 
Q 279.743202 572.105097 295.743202 572.105097 
z
" style="fill: #ffffff; stroke: #002f2a; stroke-width: 1.5; stroke-linejoin: miter"/>
    </g>
    <text style="font-weight: 700; font-size: 20px; font-family: 'Montserrat'; text-anchor: start; fill: #10302c" x="282.743202" y="565.223847" transform="rotate(-0 282.743202 565.223847)">    2,425    </text>
   </g>
   <g id="text_53">
    <text style="font-weight: 600; font-size: 22px; font-family: 'Montserrat'; text-anchor: start; fill: #4c6a67" x="404.600414" y="565.771816" transform="rotate(-0 404.600414 565.771816)">4.2%</text>
   </g>
   <g id="text_54">
    <text style="font-weight: 500; font-size: 20px; font-family: 'Montserrat'; text-anchor: middle; fill: #ffffff" x="141.55746" y="625.012054" transform="rotate(-0 141.55746 625.012054)">685</text>
   </g>
   <g id="text_55">
    <text style="font-weight: 500; font-size: 20px; font-family: 'Montserrat'; text-anchor: middle; fill: #ffffff" x="228.876137" y="625.012054" transform="rotate(-0 228.876137 625.012054)">2,274</text>
   </g>
   <g id="text_56">
    <g id="patch_41">
     <path d="M 327.259372 631.893304 
L 400.956247 631.893304 
Q 416.956247 631.893304 416.956247 615.893304 
L 416.956247 623.171429 
Q 416.956247 607.171429 400.956247 607.171429 
L 327.259372 607.171429 
Q 311.259372 607.171429 311.259372 623.171429 
L 311.259372 615.893304 
Q 311.259372 631.893304 327.259372 631.893304 
z
" style="fill: #ffffff; stroke: #002f2a; stroke-width: 1.5; stroke-linejoin: miter"/>
    </g>
    <text style="font-weight: 700; font-size: 20px; font-family: 'Montserrat'; text-anchor: start; fill: #10302c" x="314.259372" y="625.012054" transform="rotate(-0 314.259372 625.012054)">    2,959    </text>
   </g>
   <g id="text_57">
    <text style="font-weight: 600; font-size: 22px; font-family: 'Montserrat'; text-anchor: start; fill: #4c6a67" x="436.116584" y="625.560023" transform="rotate(-0 436.116584 625.560023)">5.1%</text>
   </g>
   <g id="text_58">
    <text style="font-weight: 500; font-size: 20px; font-family: 'Montserrat'; text-anchor: middle; fill: #ffffff" x="156.40075" y="684.80026" transform="rotate(-0 156.40075 684.80026)">1,188</text>
   </g>
   <g id="text_59">
    <text style="font-weight: 500; font-size: 20px; font-family: 'Montserrat'; text-anchor: middle; fill: #ffffff" x="269.510749" y="684.80026" transform="rotate(-0 269.510749 684.80026)">2,645</text>
   </g>
   <g id="text_60">
    <g id="patch_42">
     <path d="M 378.842017 691.68151 
L 452.079517 691.68151 
Q 468.079517 691.68151 468.079517 675.68151 
L 468.079517 682.959635 
Q 468.079517 666.959635 452.079517 666.959635 
L 378.842017 666.959635 
Q 362.842017 666.959635 362.842017 682.959635 
L 362.842017 675.68151 
Q 362.842017 691.68151 378.842017 691.68151 
z
" style="fill: #ffffff; stroke: #002f2a; stroke-width: 1.5; stroke-linejoin: miter"/>
    </g>
    <text style="font-weight: 700; font-size: 20px; font-family: 'Montserrat'; text-anchor: start; fill: #10302c" x="365.842017" y="684.80026" transform="rotate(-0 365.842017 684.80026)">    3,833    </text>
   </g>
   <g id="text_61">
    <text style="font-weight: 600; font-size: 22px; font-family: 'Montserrat'; text-anchor: start; fill: #4c6a67" x="487.699229" y="685.348229" transform="rotate(-0 487.699229 685.348229)">6.6%</text>
   </g>
   <g id="text_62">
    <text style="font-weight: 500; font-size: 20px; font-family: 'Montserrat'; text-anchor: middle; fill: #ffffff" x="169.709545" y="744.588467" transform="rotate(-0 169.709545 744.588467)">1,639</text>
   </g>
   <g id="text_63">
    <text style="font-weight: 500; font-size: 20px; font-family: 'Montserrat'; text-anchor: middle; fill: #ffffff" x="310.056833" y="744.588467" transform="rotate(-0 310.056833 744.588467)">3,117</text>
   </g>
   <g id="text_64">
    <g id="patch_43">
     <path d="M 433.316596 751.469717 
L 508.654096 751.469717 
Q 524.654096 751.469717 524.654096 735.469717 
L 524.654096 742.747842 
Q 524.654096 726.747842 508.654096 726.747842 
L 433.316596 726.747842 
Q 417.316596 726.747842 417.316596 742.747842 
L 417.316596 735.469717 
Q 417.316596 751.469717 433.316596 751.469717 
z
" style="fill: #ffffff; stroke: #002f2a; stroke-width: 1.5; stroke-linejoin: miter"/>
    </g>
    <text style="font-weight: 700; font-size: 20px; font-family: 'Montserrat'; text-anchor: start; fill: #10302c" x="420.316596" y="744.588467" transform="rotate(-0 420.316596 744.588467)">    4,756    </text>
   </g>
   <g id="text_65">
    <text style="font-weight: 600; font-size: 22px; font-family: 'Montserrat'; text-anchor: start; fill: #4c6a67" x="542.173807" y="745.136435" transform="rotate(-0 542.173807 745.136435)">8.2%</text>
   </g>
   <g id="text_66">
    <text style="font-weight: 500; font-size: 20px; font-family: 'Montserrat'; text-anchor: middle; fill: #ffffff" x="165.843797" y="804.376673" transform="rotate(-0 165.843797 804.376673)">1,508</text>
   </g>
   <g id="text_67">
    <text style="font-weight: 500; font-size: 20px; font-family: 'Montserrat'; text-anchor: middle; fill: #ffffff" x="294.564333" y="804.376673" transform="rotate(-0 294.564333 804.376673)">2,854</text>
   </g>
   <g id="text_68">
    <g id="patch_44">
     <path d="M 410.063092 811.257923 
L 484.741217 811.257923 
Q 500.741217 811.257923 500.741217 795.257923 
L 500.741217 802.536048 
Q 500.741217 786.536048 484.741217 786.536048 
L 410.063092 786.536048 
Q 394.063092 786.536048 394.063092 802.536048 
L 394.063092 795.257923 
Q 394.063092 811.257923 410.063092 811.257923 
z
" style="fill: #ffffff; stroke: #002f2a; stroke-width: 1.5; stroke-linejoin: miter"/>
    </g>
    <text style="font-weight: 700; font-size: 20px; font-family: 'Montserrat'; text-anchor: start; fill: #10302c" x="397.063092" y="804.376673" transform="rotate(-0 397.063092 804.376673)">    4,362    </text>
   </g>
   <g id="text_69">
    <text style="font-weight: 600; font-size: 22px; font-family: 'Montserrat'; text-anchor: start; fill: #4c6a67" x="518.920304" y="804.924642" transform="rotate(-0 518.920304 804.924642)">7.5%</text>
   </g>
   <g id="text_70">
    <text style="font-weight: 500; font-size: 20px; font-family: 'Montserrat'; text-anchor: middle; fill: #ffffff" x="187.592315" y="864.164879" transform="rotate(-0 187.592315 864.164879)">2,245</text>
   </g>
   <g id="text_71">
    <text style="font-weight: 500; font-size: 20px; font-family: 'Montserrat'; text-anchor: middle; fill: #ffffff" x="367.511873" y="864.164879" transform="rotate(-0 367.511873 864.164879)">3,852</text>
   </g>
   <g id="text_72">
    <g id="patch_45">
     <path d="M 512.461134 871.046129 
L 588.439259 871.046129 
Q 604.439259 871.046129 604.439259 855.046129 
L 604.439259 862.324254 
Q 604.439259 846.324254 588.439259 846.324254 
L 512.461134 846.324254 
Q 496.461134 846.324254 496.461134 862.324254 
L 496.461134 855.046129 
Q 496.461134 871.046129 512.461134 871.046129 
z
" style="fill: #ffffff; stroke: #002f2a; stroke-width: 1.5; stroke-linejoin: miter"/>
    </g>
    <text style="font-weight: 700; font-size: 20px; font-family: 'Montserrat'; text-anchor: start; fill: #10302c" x="499.461134" y="864.164879" transform="rotate(-0 499.461134 864.164879)">    6,097    </text>
   </g>
   <g id="text_73">
    <text style="font-weight: 600; font-size: 22px; font-family: 'Montserrat'; text-anchor: start; fill: #4c6a67" x="621.318346" y="864.712848" transform="rotate(-0 621.318346 864.712848)">10.5%</text>
   </g>
   <g id="text_74">
    <text style="font-weight: 500; font-size: 20px; font-family: 'Montserrat'; text-anchor: middle; fill: #ffffff" x="213.737752" y="923.953086" transform="rotate(-0 213.737752 923.953086)">3,131</text>
   </g>
   <g id="text_75">
    <text style="font-weight: 500; font-size: 20px; font-family: 'Montserrat'; text-anchor: middle; fill: #ffffff" x="478.644734" y="923.953086" transform="rotate(-0 478.644734 923.953086)">5,846</text>
   </g>
   <g id="text_76">
    <g id="patch_46">
     <path d="M 682.435983 930.834336 
L 757.692233 930.834336 
Q 773.692233 930.834336 773.692233 914.834336 
L 773.692233 922.112461 
Q 773.692233 906.112461 757.692233 906.112461 
L 682.435983 906.112461 
Q 666.435983 906.112461 666.435983 922.112461 
L 666.435983 914.834336 
Q 666.435983 930.834336 682.435983 930.834336 
z
" style="fill: #ffffff; stroke: #002f2a; stroke-width: 1.5; stroke-linejoin: miter"/>
    </g>
    <text style="font-weight: 700; font-size: 20px; font-family: 'Montserrat'; text-anchor: start; fill: #10302c" x="669.435983" y="923.953086" transform="rotate(-0 669.435983 923.953086)">    8,977    </text>
   </g>
   <g id="text_77">
    <text style="font-weight: 600; font-size: 22px; font-family: 'Montserrat'; text-anchor: start; fill: #4c6a67" x="791.293195" y="924.501055" transform="rotate(-0 791.293195 924.501055)">15.5%</text>
   </g>
   <g id="text_78">
    <text style="font-weight: 500; font-size: 20px; font-family: 'Montserrat'; text-anchor: middle; fill: #ffffff" x="267.976254" y="983.741292" transform="rotate(-0 267.976254 983.741292)">3,995</text>
   </g>
   <g id="text_79">
    <g id="patch_47">
     <path d="M 417.145377 990.622542 
L 494.223502 990.622542 
Q 510.223502 990.622542 510.223502 974.622542 
L 510.223502 981.900667 
Q 510.223502 965.900667 494.223502 965.900667 
L 417.145377 965.900667 
Q 401.145377 965.900667 401.145377 981.900667 
L 401.145377 974.622542 
Q 401.145377 990.622542 417.145377 990.622542 
z
" style="fill: #ffffff; stroke: #002f2a; stroke-width: 1.5; stroke-linejoin: miter"/>
    </g>
    <text style="font-weight: 700; font-size: 20px; font-family: 'Montserrat'; text-anchor: start; fill: #10302c" x="404.145377" y="983.741292" transform="rotate(-0 404.145377 983.741292)">    4,482    </text>
   </g>
   <g id="text_80">
    <text style="font-weight: 600; font-size: 22px; font-family: 'Montserrat'; text-anchor: start; fill: #4c6a67" x="526.002589" y="984.289261" transform="rotate(-0 526.002589 984.289261)">7.7%</text>
   </g>
   <g id="legend_1">
    <g id="patch_48">
     <path d="M 199.00952 35.03625 
L 247.00952 35.03625 
L 247.00952 18.23625 
L 199.00952 18.23625 
z
" style="fill: #10302c"/>
    </g>
    <g id="text_81">
     <text style="font-size: 24px; font-family: 'DejaVu Sans', 'Bitstream Vera Sans', 'Computer Modern Sans Serif', 'Lucida Grande', 'Verdana', 'Geneva', 'Lucid', 'Arial', 'Helvetica', 'Avant Garde', sans-serif; text-anchor: start" x="266.20952" y="35.03625" transform="rotate(-0 266.20952 35.03625)">movimiento</text>
    </g>
    <g id="patch_49">
     <path d="M 457.26077 35.03625 
L 505.26077 35.03625 
L 505.26077 18.23625 
L 457.26077 18.23625 
z
" style="fill: #4c6a67"/>
    </g>
    <g id="text_82">
     <text style="font-size: 24px; font-family: 'DejaVu Sans', 'Bitstream Vera Sans', 'Computer Modern Sans Serif', 'Lucida Grande', 'Verdana', 'Geneva', 'Lucid', 'Arial', 'Helvetica', 'Avant Garde', sans-serif; text-anchor: start" x="524.46077" y="35.03625" transform="rotate(-0 524.46077 35.03625)">sin_movimiento</text>
    </g>
   </g>
  </g>
 </g>
 <defs>
  <clipPath id="pae0cdf4fcc">
   <rect x="121.343438" y="73.06816" width="670.214664" height="973.352"/>
  </clipPath>
 </defs>
</svg>
