<?xml version="1.0" encoding="utf-8" standalone="no"?>
<!DOCTYPE svg PUBLIC "-//W3C//DTD SVG 1.1//EN"
  "http://www.w3.org/Graphics/SVG/1.1/DTD/svg11.dtd">
<svg xmlns:xlink="http://www.w3.org/1999/xlink" width="1576.82125pt" height="568.96pt" viewBox="0 0 1576.82125 568.96" xmlns="http://www.w3.org/2000/svg" version="1.1">
 <metadata>
  <rdf:RDF xmlns:dc="http://purl.org/dc/elements/1.1/" xmlns:cc="http://creativecommons.org/ns#" xmlns:rdf="http://www.w3.org/1999/02/22-rdf-syntax-ns#">
   <cc:Work>
    <dc:type rdf:resource="http://purl.org/dc/dcmitype/StillImage"/>
    <dc:date>2025-05-29T12:01:11.429871</dc:date>
    <dc:format>image/svg+xml</dc:format>
    <dc:creator>
     <cc:Agent>
      <dc:title>Matplotlib v3.10.1, https://matplotlib.org/</dc:title>
     </cc:Agent>
    </dc:creator>
   </cc:Work>
  </rdf:RDF>
 </metadata>
 <defs>
  <style type="text/css">*{stroke-linejoin: round; stroke-linecap: butt}</style>
 </defs>
 <g id="figure_1">
  <g id="patch_1">
   <path d="M 0 568.96 
L 1576.82125 568.96 
L 1576.82125 0 
L 0 0 
z
" style="fill: #ffffff"/>
  </g>
  <g id="axes_1">
   <g id="patch_2">
    <path d="M 50.10125 400.26 
L 1569.62125 400.26 
L 1569.62125 15.34 
L 50.10125 15.34 
z
" style="fill: #ffffff"/>
   </g>
   <g id="matplotlib.axis_1">
    <g id="xtick_1">
     <g id="line2d_1">
      <defs>
       <path id="mba7cf4f377" d="M 0 0 
L 0 3.5 
" style="stroke: #000000; stroke-width: 0.8"/>
      </defs>
      <g>
       <use xlink:href="#mba7cf4f377" x="150.407618" y="400.26" style="stroke: #000000; stroke-width: 0.8"/>
      </g>
     </g>
     <g id="text_1">
      <text style="font-weight: 500; font-size: 25px; font-family: 'Poppins'" transform="translate(143.856837 555.732656) rotate(-90)">06-08-2015</text>
     </g>
    </g>
    <g id="xtick_2">
     <g id="line2d_2">
      <g>
       <use xlink:href="#mba7cf4f377" x="219.82379" y="400.26" style="stroke: #000000; stroke-width: 0.8"/>
      </g>
     </g>
     <g id="text_2">
      <text style="font-weight: 500; font-size: 25px; font-family: 'Poppins'" transform="translate(213.273009 548.533437) rotate(-90)">18-06-2016</text>
     </g>
    </g>
    <g id="xtick_3">
     <g id="line2d_3">
      <g>
       <use xlink:href="#mba7cf4f377" x="289.239962" y="400.26" style="stroke: #000000; stroke-width: 0.8"/>
      </g>
     </g>
     <g id="text_3">
      <text style="font-weight: 500; font-size: 25px; font-family: 'Poppins'" transform="translate(282.68918 554.135) rotate(-90)">29-06-2016</text>
     </g>
    </g>
    <g id="xtick_4">
     <g id="line2d_4">
      <g>
       <use xlink:href="#mba7cf4f377" x="358.656134" y="400.26" style="stroke: #000000; stroke-width: 0.8"/>
      </g>
     </g>
     <g id="text_4">
      <text style="font-weight: 500; font-size: 25px; font-family: 'Poppins'" transform="translate(352.105352 551.806875) rotate(-90)">06-07-2017</text>
     </g>
    </g>
    <g id="xtick_5">
     <g id="line2d_5">
      <g>
       <use xlink:href="#mba7cf4f377" x="428.072305" y="400.26" style="stroke: #000000; stroke-width: 0.8"/>
      </g>
     </g>
     <g id="text_5">
      <text style="font-weight: 500; font-size: 25px; font-family: 'Poppins'" transform="translate(421.521524 539.607656) rotate(-90)">21-01-2018</text>
     </g>
    </g>
    <g id="xtick_6">
     <g id="line2d_6">
      <g>
       <use xlink:href="#mba7cf4f377" x="497.488477" y="400.26" style="stroke: #000000; stroke-width: 0.8"/>
      </g>
     </g>
     <g id="text_6">
      <text style="font-weight: 500; font-size: 25px; font-family: 'Poppins'" transform="translate(490.937696 548.556875) rotate(-90)">18-04-2018</text>
     </g>
    </g>
    <g id="xtick_7">
     <g id="line2d_7">
      <g>
       <use xlink:href="#mba7cf4f377" x="566.904649" y="400.26" style="stroke: #000000; stroke-width: 0.8"/>
      </g>
     </g>
     <g id="text_7">
      <text style="font-weight: 500; font-size: 25px; font-family: 'Poppins'" transform="translate(560.353868 550.885) rotate(-90)">22-02-2019</text>
     </g>
    </g>
    <g id="xtick_8">
     <g id="line2d_8">
      <g>
       <use xlink:href="#mba7cf4f377" x="636.320821" y="400.26" style="stroke: #000000; stroke-width: 0.8"/>
      </g>
     </g>
     <g id="text_8">
      <text style="font-weight: 500; font-size: 25px; font-family: 'Poppins'" transform="translate(629.770039 555.857656) rotate(-90)">04-06-2019</text>
     </g>
    </g>
    <g id="xtick_9">
     <g id="line2d_9">
      <g>
       <use xlink:href="#mba7cf4f377" x="705.736992" y="400.26" style="stroke: #000000; stroke-width: 0.8"/>
      </g>
     </g>
     <g id="text_9">
      <text style="font-weight: 500; font-size: 25px; font-family: 'Poppins'" transform="translate(699.186211 560.056875) rotate(-90)">02-04-2020</text>
     </g>
    </g>
    <g id="xtick_10">
     <g id="line2d_10">
      <g>
       <use xlink:href="#mba7cf4f377" x="775.153164" y="400.26" style="stroke: #000000; stroke-width: 0.8"/>
      </g>
     </g>
     <g id="text_10">
      <text style="font-weight: 500; font-size: 25px; font-family: 'Poppins'" transform="translate(768.602383 553.01) rotate(-90)">05-03-2021</text>
     </g>
    </g>
    <g id="xtick_11">
     <g id="line2d_11">
      <g>
       <use xlink:href="#mba7cf4f377" x="844.569336" y="400.26" style="stroke: #000000; stroke-width: 0.8"/>
      </g>
     </g>
     <g id="text_11">
      <text style="font-weight: 500; font-size: 25px; font-family: 'Poppins'" transform="translate(838.018555 549.435781) rotate(-90)">27-03-2021</text>
     </g>
    </g>
    <g id="xtick_12">
     <g id="line2d_12">
      <g>
       <use xlink:href="#mba7cf4f377" x="913.985508" y="400.26" style="stroke: #000000; stroke-width: 0.8"/>
      </g>
     </g>
     <g id="text_12">
      <text style="font-weight: 500; font-size: 25px; font-family: 'Poppins'" transform="translate(907.434726 552.611562) rotate(-90)">26-05-2021</text>
     </g>
    </g>
    <g id="xtick_13">
     <g id="line2d_13">
      <g>
       <use xlink:href="#mba7cf4f377" x="983.401679" y="400.26" style="stroke: #000000; stroke-width: 0.8"/>
      </g>
     </g>
     <g id="text_13">
      <text style="font-weight: 500; font-size: 25px; font-family: 'Poppins'" transform="translate(976.850898 538.236562) rotate(-90)">24-11-2021</text>
     </g>
    </g>
    <g id="xtick_14">
     <g id="line2d_14">
      <g>
       <use xlink:href="#mba7cf4f377" x="1052.817851" y="400.26" style="stroke: #000000; stroke-width: 0.8"/>
      </g>
     </g>
     <g id="text_14">
      <text style="font-weight: 500; font-size: 25px; font-family: 'Poppins'" transform="translate(1046.26707 550.986562) rotate(-90)">05-12-2022</text>
     </g>
    </g>
    <g id="xtick_15">
     <g id="line2d_15">
      <g>
       <use xlink:href="#mba7cf4f377" x="1122.234023" y="400.26" style="stroke: #000000; stroke-width: 0.8"/>
      </g>
     </g>
     <g id="text_15">
      <text style="font-weight: 500; font-size: 25px; font-family: 'Poppins'" transform="translate(1115.683242 551.611562) rotate(-90)">24-01-2023</text>
     </g>
    </g>
    <g id="xtick_16">
     <g id="line2d_16">
      <g>
       <use xlink:href="#mba7cf4f377" x="1191.650195" y="400.26" style="stroke: #000000; stroke-width: 0.8"/>
      </g>
     </g>
     <g id="text_16">
      <text style="font-weight: 500; font-size: 25px; font-family: 'Poppins'" transform="translate(1185.099413 549.435781) rotate(-90)">27-01-2023</text>
     </g>
    </g>
    <g id="xtick_17">
     <g id="line2d_17">
      <g>
       <use xlink:href="#mba7cf4f377" x="1261.066366" y="400.26" style="stroke: #000000; stroke-width: 0.8"/>
      </g>
     </g>
     <g id="text_17">
      <text style="font-weight: 500; font-size: 25px; font-family: 'Poppins'" transform="translate(1254.515585 558.385) rotate(-90)">28-02-2024</text>
     </g>
    </g>
    <g id="xtick_18">
     <g id="line2d_18">
      <g>
       <use xlink:href="#mba7cf4f377" x="1330.482538" y="400.26" style="stroke: #000000; stroke-width: 0.8"/>
      </g>
     </g>
     <g id="text_18">
      <text style="font-weight: 500; font-size: 25px; font-family: 'Poppins'" transform="translate(1323.931757 559.037344) rotate(-90)">23-04-2024</text>
     </g>
    </g>
    <g id="xtick_19">
     <g id="line2d_19">
      <g>
       <use xlink:href="#mba7cf4f377" x="1399.89871" y="400.26" style="stroke: #000000; stroke-width: 0.8"/>
      </g>
     </g>
     <g id="text_19">
      <text style="font-weight: 500; font-size: 25px; font-family: 'Poppins'" transform="translate(1393.347929 556.662344) rotate(-90)">22-02-2025</text>
     </g>
    </g>
    <g id="xtick_20">
     <g id="line2d_20">
      <g>
       <use xlink:href="#mba7cf4f377" x="1469.314882" y="400.26" style="stroke: #000000; stroke-width: 0.8"/>
      </g>
     </g>
     <g id="text_20">
      <text style="font-weight: 500; font-size: 25px; font-family: 'Poppins'" transform="translate(1462.764101 561.76) rotate(-90)">04-04-2025</text>
     </g>
    </g>
   </g>
   <g id="matplotlib.axis_2">
    <g id="ytick_1">
     <g id="line2d_21">
      <defs>
       <path id="m9de017ff24" d="M 0 0 
L -3.5 0 
" style="stroke: #000000; stroke-width: 0.8"/>
      </defs>
      <g>
       <use xlink:href="#m9de017ff24" x="50.10125" y="400.26" style="stroke: #000000; stroke-width: 0.8"/>
      </g>
     </g>
     <g id="text_21">
      <text style="font-weight: 500; font-size: 22px; font-family: 'Poppins'; text-anchor: end" x="43.10125" y="408.4" transform="rotate(-0 43.10125 408.4)">0</text>
     </g>
    </g>
    <g id="ytick_2">
     <g id="line2d_22">
      <g>
       <use xlink:href="#m9de017ff24" x="50.10125" y="323.276" style="stroke: #000000; stroke-width: 0.8"/>
      </g>
     </g>
     <g id="text_22">
      <text style="font-weight: 500; font-size: 22px; font-family: 'Poppins'; text-anchor: end" x="43.10125" y="331.416" transform="rotate(-0 43.10125 331.416)">20</text>
     </g>
    </g>
    <g id="ytick_3">
     <g id="line2d_23">
      <g>
       <use xlink:href="#m9de017ff24" x="50.10125" y="246.292" style="stroke: #000000; stroke-width: 0.8"/>
      </g>
     </g>
     <g id="text_23">
      <text style="font-weight: 500; font-size: 22px; font-family: 'Poppins'; text-anchor: end" x="43.10125" y="254.432" transform="rotate(-0 43.10125 254.432)">40</text>
     </g>
    </g>
    <g id="ytick_4">
     <g id="line2d_24">
      <g>
       <use xlink:href="#m9de017ff24" x="50.10125" y="169.308" style="stroke: #000000; stroke-width: 0.8"/>
      </g>
     </g>
     <g id="text_24">
      <text style="font-weight: 500; font-size: 22px; font-family: 'Poppins'; text-anchor: end" x="43.10125" y="177.448" transform="rotate(-0 43.10125 177.448)">60</text>
     </g>
    </g>
    <g id="ytick_5">
     <g id="line2d_25">
      <g>
       <use xlink:href="#m9de017ff24" x="50.10125" y="92.324" style="stroke: #000000; stroke-width: 0.8"/>
      </g>
     </g>
     <g id="text_25">
      <text style="font-weight: 500; font-size: 22px; font-family: 'Poppins'; text-anchor: end" x="43.10125" y="100.464" transform="rotate(-0 43.10125 100.464)">80</text>
     </g>
    </g>
    <g id="ytick_6">
     <g id="line2d_26">
      <g>
       <use xlink:href="#m9de017ff24" x="50.10125" y="15.34" style="stroke: #000000; stroke-width: 0.8"/>
      </g>
     </g>
     <g id="text_26">
      <text style="font-weight: 500; font-size: 22px; font-family: 'Poppins'; text-anchor: end" x="43.10125" y="23.48" transform="rotate(-0 43.10125 23.48)">100</text>
     </g>
    </g>
   </g>
   <g id="patch_3">
    <path d="M 119.170341 400.26 
L 181.644896 400.26 
L 181.644896 321.3514 
L 119.170341 321.3514 
z
" clip-path="url(#p770e9e3927)" style="fill: #10302c"/>
   </g>
   <g id="patch_4">
    <path d="M 119.170341 321.3514 
L 181.644896 321.3514 
L 181.644896 93.47876 
L 119.170341 93.47876 
z
" clip-path="url(#p770e9e3927)" style="fill: #4c6a67"/>
   </g>
   <g id="patch_5">
    <path d="M 119.170341 93.47876 
L 181.644896 93.47876 
L 181.644896 15.34 
L 119.170341 15.34 
z
" clip-path="url(#p770e9e3927)" style="fill: #8fa8a6"/>
   </g>
   <g id="patch_6">
    <path d="M 188.586513 400.26 
L 251.061067 400.26 
L 251.061067 309.41888 
L 188.586513 309.41888 
z
" clip-path="url(#p770e9e3927)" style="fill: #10302c"/>
   </g>
   <g id="patch_7">
    <path d="M 188.586513 309.41888 
L 251.061067 309.41888 
L 251.061067 91.55416 
L 188.586513 91.55416 
z
" clip-path="url(#p770e9e3927)" style="fill: #4c6a67"/>
   </g>
   <g id="patch_8">
    <path d="M 188.586513 91.55416 
L 251.061067 91.55416 
L 251.061067 15.34 
L 188.586513 15.34 
z
" clip-path="url(#p770e9e3927)" style="fill: #8fa8a6"/>
   </g>
   <g id="patch_9">
    <path d="M 258.002684 400.26 
L 320.477239 400.26 
L 320.477239 319.4268 
L 258.002684 319.4268 
z
" clip-path="url(#p770e9e3927)" style="fill: #10302c"/>
   </g>
   <g id="patch_10">
    <path d="M 258.002684 319.4268 
L 320.477239 319.4268 
L 320.477239 295.56176 
L 258.002684 295.56176 
z
" clip-path="url(#p770e9e3927)" style="fill: #4c6a67"/>
   </g>
   <g id="patch_11">
    <path d="M 258.002684 295.56176 
L 320.477239 295.56176 
L 320.477239 15.34 
L 258.002684 15.34 
z
" clip-path="url(#p770e9e3927)" style="fill: #8fa8a6"/>
   </g>
   <g id="patch_12">
    <path d="M 327.418856 400.26 
L 389.893411 400.26 
L 389.893411 222.04204 
L 327.418856 222.04204 
z
" clip-path="url(#p770e9e3927)" style="fill: #10302c"/>
   </g>
   <g id="patch_13">
    <path d="M 327.418856 222.04204 
L 389.893411 222.04204 
L 389.893411 143.13344 
L 327.418856 143.13344 
z
" clip-path="url(#p770e9e3927)" style="fill: #4c6a67"/>
   </g>
   <g id="patch_14">
    <path d="M 327.418856 143.13344 
L 389.893411 143.13344 
L 389.893411 15.34 
L 327.418856 15.34 
z
" clip-path="url(#p770e9e3927)" style="fill: #8fa8a6"/>
   </g>
   <g id="patch_15">
    <path d="M 396.835028 400.26 
L 459.309583 400.26 
L 459.309583 223.96664 
L 396.835028 223.96664 
z
" clip-path="url(#p770e9e3927)" style="fill: #10302c"/>
   </g>
   <g id="patch_16">
    <path d="M 396.835028 223.96664 
L 459.309583 223.96664 
L 459.309583 209.7246 
L 396.835028 209.7246 
z
" clip-path="url(#p770e9e3927)" style="fill: #4c6a67"/>
   </g>
   <g id="patch_17">
    <path d="M 396.835028 209.7246 
L 459.309583 209.7246 
L 459.309583 15.34 
L 396.835028 15.34 
z
" clip-path="url(#p770e9e3927)" style="fill: #8fa8a6"/>
   </g>
   <g id="patch_18">
    <path d="M 466.2512 400.26 
L 528.725754 400.26 
L 528.725754 273.2364 
L 466.2512 273.2364 
z
" clip-path="url(#p770e9e3927)" style="fill: #10302c"/>
   </g>
   <g id="patch_19">
    <path d="M 466.2512 273.2364 
L 528.725754 273.2364 
L 528.725754 150.83184 
L 466.2512 150.83184 
z
" clip-path="url(#p770e9e3927)" style="fill: #4c6a67"/>
   </g>
   <g id="patch_20">
    <path d="M 466.2512 150.83184 
L 528.725754 150.83184 
L 528.725754 15.34 
L 466.2512 15.34 
z
" clip-path="url(#p770e9e3927)" style="fill: #8fa8a6"/>
   </g>
   <g id="patch_21">
    <path d="M 535.667372 400.26 
L 598.141926 400.26 
L 598.141926 260.14912 
L 535.667372 260.14912 
z
" clip-path="url(#p770e9e3927)" style="fill: #10302c"/>
   </g>
   <g id="patch_22">
    <path d="M 535.667372 260.14912 
L 598.141926 260.14912 
L 598.141926 137.35964 
L 535.667372 137.35964 
z
" clip-path="url(#p770e9e3927)" style="fill: #4c6a67"/>
   </g>
   <g id="patch_23">
    <path d="M 535.667372 137.35964 
L 598.141926 137.35964 
L 598.141926 15.34 
L 535.667372 15.34 
z
" clip-path="url(#p770e9e3927)" style="fill: #8fa8a6"/>
   </g>
   <g id="patch_24">
    <path d="M 605.083543 400.26 
L 667.558098 400.26 
L 667.558098 244.75232 
L 605.083543 244.75232 
z
" clip-path="url(#p770e9e3927)" style="fill: #10302c"/>
   </g>
   <g id="patch_25">
    <path d="M 605.083543 244.75232 
L 667.558098 244.75232 
L 667.558098 151.60168 
L 605.083543 151.60168 
z
" clip-path="url(#p770e9e3927)" style="fill: #4c6a67"/>
   </g>
   <g id="patch_26">
    <path d="M 605.083543 151.60168 
L 667.558098 151.60168 
L 667.558098 15.34 
L 605.083543 15.34 
z
" clip-path="url(#p770e9e3927)" style="fill: #8fa8a6"/>
   </g>
   <g id="patch_27">
    <path d="M 674.499715 400.26 
L 736.97427 400.26 
L 736.97427 302.49032 
L 674.499715 302.49032 
z
" clip-path="url(#p770e9e3927)" style="fill: #10302c"/>
   </g>
   <g id="patch_28">
    <path d="M 674.499715 302.49032 
L 736.97427 302.49032 
L 736.97427 180.08576 
L 674.499715 180.08576 
z
" clip-path="url(#p770e9e3927)" style="fill: #4c6a67"/>
   </g>
   <g id="patch_29">
    <path d="M 674.499715 180.08576 
L 736.97427 180.08576 
L 736.97427 15.34 
L 674.499715 15.34 
z
" clip-path="url(#p770e9e3927)" style="fill: #8fa8a6"/>
   </g>
   <g id="patch_30">
    <path d="M 743.915887 400.26 
L 806.390441 400.26 
L 806.390441 218.19284 
L 743.915887 218.19284 
z
" clip-path="url(#p770e9e3927)" style="fill: #10302c"/>
   </g>
   <g id="patch_31">
    <path d="M 743.915887 218.19284 
L 806.390441 218.19284 
L 806.390441 21.49872 
L 743.915887 21.49872 
z
" clip-path="url(#p770e9e3927)" style="fill: #4c6a67"/>
   </g>
   <g id="patch_32">
    <path d="M 743.915887 21.49872 
L 806.390441 21.49872 
L 806.390441 15.34 
L 743.915887 15.34 
z
" clip-path="url(#p770e9e3927)" style="fill: #8fa8a6"/>
   </g>
   <g id="patch_33">
    <path d="M 813.332059 400.26 
L 875.806613 400.26 
L 875.806613 346.3712 
L 813.332059 346.3712 
z
" clip-path="url(#p770e9e3927)" style="fill: #10302c"/>
   </g>
   <g id="patch_34">
    <path d="M 813.332059 346.3712 
L 875.806613 346.3712 
L 875.806613 148.1374 
L 813.332059 148.1374 
z
" clip-path="url(#p770e9e3927)" style="fill: #4c6a67"/>
   </g>
   <g id="patch_35">
    <path d="M 813.332059 148.1374 
L 875.806613 148.1374 
L 875.806613 15.34 
L 813.332059 15.34 
z
" clip-path="url(#p770e9e3927)" style="fill: #8fa8a6"/>
   </g>
   <g id="patch_36">
    <path d="M 882.74823 400.26 
L 945.222785 400.26 
L 945.222785 286.32368 
L 882.74823 286.32368 
z
" clip-path="url(#p770e9e3927)" style="fill: #10302c"/>
   </g>
   <g id="patch_37">
    <path d="M 882.74823 286.32368 
L 945.222785 286.32368 
L 945.222785 252.0658 
L 882.74823 252.0658 
z
" clip-path="url(#p770e9e3927)" style="fill: #4c6a67"/>
   </g>
   <g id="patch_38">
    <path d="M 882.74823 252.0658 
L 945.222785 252.0658 
L 945.222785 15.34 
L 882.74823 15.34 
z
" clip-path="url(#p770e9e3927)" style="fill: #8fa8a6"/>
   </g>
   <g id="patch_39">
    <path d="M 952.164402 400.26 
L 1014.638957 400.26 
L 1014.638957 231.66504 
L 952.164402 231.66504 
z
" clip-path="url(#p770e9e3927)" style="fill: #10302c"/>
   </g>
   <g id="patch_40">
    <path d="M 952.164402 231.66504 
L 1014.638957 231.66504 
L 1014.638957 31.89156 
L 952.164402 31.89156 
z
" clip-path="url(#p770e9e3927)" style="fill: #4c6a67"/>
   </g>
   <g id="patch_41">
    <path d="M 952.164402 31.89156 
L 1014.638957 31.89156 
L 1014.638957 15.34 
L 952.164402 15.34 
z
" clip-path="url(#p770e9e3927)" style="fill: #8fa8a6"/>
   </g>
   <g id="patch_42">
    <path d="M 1021.580574 400.26 
L 1084.055128 400.26 
L 1084.055128 336.36328 
L 1021.580574 336.36328 
z
" clip-path="url(#p770e9e3927)" style="fill: #10302c"/>
   </g>
   <g id="patch_43">
    <path d="M 1021.580574 336.36328 
L 1084.055128 336.36328 
L 1084.055128 45.36376 
L 1021.580574 45.36376 
z
" clip-path="url(#p770e9e3927)" style="fill: #4c6a67"/>
   </g>
   <g id="patch_44">
    <path d="M 1021.580574 45.36376 
L 1084.055128 45.36376 
L 1084.055128 15.34 
L 1021.580574 15.34 
z
" clip-path="url(#p770e9e3927)" style="fill: #8fa8a6"/>
   </g>
   <g id="patch_45">
    <path d="M 1090.996746 400.26 
L 1153.4713 400.26 
L 1153.4713 153.52628 
L 1090.996746 153.52628 
z
" clip-path="url(#p770e9e3927)" style="fill: #10302c"/>
   </g>
   <g id="patch_46">
    <path d="M 1090.996746 153.52628 
L 1153.4713 153.52628 
L 1153.4713 145.44296 
L 1090.996746 145.44296 
z
" clip-path="url(#p770e9e3927)" style="fill: #4c6a67"/>
   </g>
   <g id="patch_47">
    <path d="M 1090.996746 145.44296 
L 1153.4713 145.44296 
L 1153.4713 15.34 
L 1090.996746 15.34 
z
" clip-path="url(#p770e9e3927)" style="fill: #8fa8a6"/>
   </g>
   <g id="patch_48">
    <path d="M 1160.412917 400.26 
L 1222.887472 400.26 
L 1222.887472 344.06168 
L 1160.412917 344.06168 
z
" clip-path="url(#p770e9e3927)" style="fill: #10302c"/>
   </g>
   <g id="patch_49">
    <path d="M 1160.412917 344.06168 
L 1222.887472 344.06168 
L 1222.887472 101.17716 
L 1160.412917 101.17716 
z
" clip-path="url(#p770e9e3927)" style="fill: #4c6a67"/>
   </g>
   <g id="patch_50">
    <path d="M 1160.412917 101.17716 
L 1222.887472 101.17716 
L 1222.887472 15.34 
L 1160.412917 15.34 
z
" clip-path="url(#p770e9e3927)" style="fill: #8fa8a6"/>
   </g>
   <g id="patch_51">
    <path d="M 1229.829089 400.26 
L 1292.303644 400.26 
L 1292.303644 307.8792 
L 1229.829089 307.8792 
z
" clip-path="url(#p770e9e3927)" style="fill: #10302c"/>
   </g>
   <g id="patch_52">
    <path d="M 1229.829089 307.8792 
L 1292.303644 307.8792 
L 1292.303644 80.39148 
L 1229.829089 80.39148 
z
" clip-path="url(#p770e9e3927)" style="fill: #4c6a67"/>
   </g>
   <g id="patch_53">
    <path d="M 1229.829089 80.39148 
L 1292.303644 80.39148 
L 1292.303644 15.34 
L 1229.829089 15.34 
z
" clip-path="url(#p770e9e3927)" style="fill: #8fa8a6"/>
   </g>
   <g id="patch_54">
    <path d="M 1299.245261 400.26 
L 1361.719816 400.26 
L 1361.719816 230.51028 
L 1299.245261 230.51028 
z
" clip-path="url(#p770e9e3927)" style="fill: #10302c"/>
   </g>
   <g id="patch_55">
    <path d="M 1299.245261 230.51028 
L 1361.719816 230.51028 
L 1361.719816 102.33192 
L 1299.245261 102.33192 
z
" clip-path="url(#p770e9e3927)" style="fill: #4c6a67"/>
   </g>
   <g id="patch_56">
    <path d="M 1299.245261 102.33192 
L 1361.719816 102.33192 
L 1361.719816 15.34 
L 1299.245261 15.34 
z
" clip-path="url(#p770e9e3927)" style="fill: #8fa8a6"/>
   </g>
   <g id="patch_57">
    <path d="M 1368.661433 400.26 
L 1431.135987 400.26 
L 1431.135987 234.35948 
L 1368.661433 234.35948 
z
" clip-path="url(#p770e9e3927)" style="fill: #10302c"/>
   </g>
   <g id="patch_58">
    <path d="M 1368.661433 234.35948 
L 1431.135987 234.35948 
L 1431.135987 54.98676 
L 1368.661433 54.98676 
z
" clip-path="url(#p770e9e3927)" style="fill: #4c6a67"/>
   </g>
   <g id="patch_59">
    <path d="M 1368.661433 54.98676 
L 1431.135987 54.98676 
L 1431.135987 15.34 
L 1368.661433 15.34 
z
" clip-path="url(#p770e9e3927)" style="fill: #8fa8a6"/>
   </g>
   <g id="patch_60">
    <path d="M 1438.077604 400.26 
L 1500.552159 400.26 
L 1500.552159 178.16116 
L 1438.077604 178.16116 
z
" clip-path="url(#p770e9e3927)" style="fill: #10302c"/>
   </g>
   <g id="patch_61">
    <path d="M 1438.077604 178.16116 
L 1500.552159 178.16116 
L 1500.552159 18.03444 
L 1438.077604 18.03444 
z
" clip-path="url(#p770e9e3927)" style="fill: #4c6a67"/>
   </g>
   <g id="patch_62">
    <path d="M 1438.077604 18.03444 
L 1500.552159 18.03444 
L 1500.552159 15.34 
L 1438.077604 15.34 
z
" clip-path="url(#p770e9e3927)" style="fill: #8fa8a6"/>
   </g>
   <g id="text_27">
    <text style="font-weight: 500; font-size: 17px; font-family: 'Poppins'; text-anchor: middle; fill: #ffffff" x="150.407618" y="364.868434" transform="rotate(-0 150.407618 364.868434)">20.5%</text>
   </g>
   <g id="text_28">
    <text style="font-weight: 500; font-size: 17px; font-family: 'Poppins'; text-anchor: middle; fill: #ffffff" x="150.407618" y="211.477814" transform="rotate(-0 150.407618 211.477814)">59.2%</text>
   </g>
   <g id="text_29">
    <text style="font-weight: 500; font-size: 17px; font-family: 'Poppins'; text-anchor: middle; fill: #ffffff" x="150.407618" y="58.472114" transform="rotate(-0 150.407618 58.472114)">20.3%</text>
   </g>
   <g id="text_30">
    <text style="font-weight: 500; font-size: 17px; font-family: 'Poppins'; text-anchor: middle; fill: #ffffff" x="219.82379" y="358.902174" transform="rotate(-0 219.82379 358.902174)">23.6%</text>
   </g>
   <g id="text_31">
    <text style="font-weight: 500; font-size: 17px; font-family: 'Poppins'; text-anchor: middle; fill: #ffffff" x="219.82379" y="204.549254" transform="rotate(-0 219.82379 204.549254)">56.6%</text>
   </g>
   <g id="text_32">
    <text style="font-weight: 500; font-size: 17px; font-family: 'Poppins'; text-anchor: middle; fill: #ffffff" x="219.82379" y="57.509814" transform="rotate(-0 219.82379 57.509814)">19.8%</text>
   </g>
   <g id="text_33">
    <text style="font-weight: 500; font-size: 17px; font-family: 'Poppins'; text-anchor: middle; fill: #ffffff" x="289.239962" y="363.906134" transform="rotate(-0 289.239962 363.906134)">21.0%</text>
   </g>
   <g id="text_34">
    <text style="font-weight: 500; font-size: 17px; font-family: 'Poppins'; text-anchor: middle; fill: #ffffff" x="289.239962" y="159.513614" transform="rotate(-0 289.239962 159.513614)">72.8%</text>
   </g>
   <g id="text_35">
    <text style="font-weight: 500; font-size: 17px; font-family: 'Poppins'; text-anchor: middle; fill: #ffffff" x="358.656134" y="315.213754" transform="rotate(-0 358.656134 315.213754)">46.3%</text>
   </g>
   <g id="text_36">
    <text style="font-weight: 500; font-size: 17px; font-family: 'Poppins'; text-anchor: middle; fill: #ffffff" x="358.656134" y="186.650474" transform="rotate(-0 358.656134 186.650474)">20.5%</text>
   </g>
   <g id="text_37">
    <text style="font-weight: 500; font-size: 17px; font-family: 'Poppins'; text-anchor: middle; fill: #ffffff" x="358.656134" y="83.299454" transform="rotate(-0 358.656134 83.299454)">33.2%</text>
   </g>
   <g id="text_38">
    <text style="font-weight: 500; font-size: 17px; font-family: 'Poppins'; text-anchor: middle; fill: #ffffff" x="428.072305" y="316.176054" transform="rotate(-0 428.072305 316.176054)">45.8%</text>
   </g>
   <g id="text_39">
    <text style="font-weight: 500; font-size: 17px; font-family: 'Poppins'; text-anchor: middle; fill: #ffffff" x="428.072305" y="116.595034" transform="rotate(-0 428.072305 116.595034)">50.5%</text>
   </g>
   <g id="text_40">
    <text style="font-weight: 500; font-size: 17px; font-family: 'Poppins'; text-anchor: middle; fill: #ffffff" x="497.488477" y="340.810934" transform="rotate(-0 497.488477 340.810934)">33.0%</text>
   </g>
   <g id="text_41">
    <text style="font-weight: 500; font-size: 17px; font-family: 'Poppins'; text-anchor: middle; fill: #ffffff" x="497.488477" y="216.096854" transform="rotate(-0 497.488477 216.096854)">31.8%</text>
   </g>
   <g id="text_42">
    <text style="font-weight: 500; font-size: 17px; font-family: 'Poppins'; text-anchor: middle; fill: #ffffff" x="497.488477" y="87.148654" transform="rotate(-0 497.488477 87.148654)">35.2%</text>
   </g>
   <g id="text_43">
    <text style="font-weight: 500; font-size: 17px; font-family: 'Poppins'; text-anchor: middle; fill: #ffffff" x="566.904649" y="334.267294" transform="rotate(-0 566.904649 334.267294)">36.4%</text>
   </g>
   <g id="text_44">
    <text style="font-weight: 500; font-size: 17px; font-family: 'Poppins'; text-anchor: middle; fill: #ffffff" x="566.904649" y="202.817114" transform="rotate(-0 566.904649 202.817114)">31.9%</text>
   </g>
   <g id="text_45">
    <text style="font-weight: 500; font-size: 17px; font-family: 'Poppins'; text-anchor: middle; fill: #ffffff" x="566.904649" y="80.412554" transform="rotate(-0 566.904649 80.412554)">31.7%</text>
   </g>
   <g id="text_46">
    <text style="font-weight: 500; font-size: 17px; font-family: 'Poppins'; text-anchor: middle; fill: #ffffff" x="636.320821" y="326.568894" transform="rotate(-0 636.320821 326.568894)">40.4%</text>
   </g>
   <g id="text_47">
    <text style="font-weight: 500; font-size: 17px; font-family: 'Poppins'; text-anchor: middle; fill: #ffffff" x="636.320821" y="202.239734" transform="rotate(-0 636.320821 202.239734)">24.2%</text>
   </g>
   <g id="text_48">
    <text style="font-weight: 500; font-size: 17px; font-family: 'Poppins'; text-anchor: middle; fill: #ffffff" x="636.320821" y="87.533574" transform="rotate(-0 636.320821 87.533574)">35.4%</text>
   </g>
   <g id="text_49">
    <text style="font-weight: 500; font-size: 17px; font-family: 'Poppins'; text-anchor: middle; fill: #ffffff" x="705.736992" y="355.437894" transform="rotate(-0 705.736992 355.437894)">25.4%</text>
   </g>
   <g id="text_50">
    <text style="font-weight: 500; font-size: 17px; font-family: 'Poppins'; text-anchor: middle; fill: #ffffff" x="705.736992" y="245.350774" transform="rotate(-0 705.736992 245.350774)">31.8%</text>
   </g>
   <g id="text_51">
    <text style="font-weight: 500; font-size: 17px; font-family: 'Poppins'; text-anchor: middle; fill: #ffffff" x="705.736992" y="101.775614" transform="rotate(-0 705.736992 101.775614)">42.8%</text>
   </g>
   <g id="text_52">
    <text style="font-weight: 500; font-size: 17px; font-family: 'Poppins'; text-anchor: middle; fill: #ffffff" x="775.153164" y="313.289154" transform="rotate(-0 775.153164 313.289154)">47.3%</text>
   </g>
   <g id="text_53">
    <text style="font-weight: 500; font-size: 17px; font-family: 'Poppins'; text-anchor: middle; fill: #ffffff" x="775.153164" y="123.908514" transform="rotate(-0 775.153164 123.908514)">51.1%</text>
   </g>
   <g id="text_54">
    <text style="font-weight: 500; font-size: 17px; font-family: 'Poppins'; text-anchor: middle; fill: #ffffff" x="844.569336" y="377.378334" transform="rotate(-0 844.569336 377.378334)">14.0%</text>
   </g>
   <g id="text_55">
    <text style="font-weight: 500; font-size: 17px; font-family: 'Poppins'; text-anchor: middle; fill: #ffffff" x="844.569336" y="251.317034" transform="rotate(-0 844.569336 251.317034)">51.5%</text>
   </g>
   <g id="text_56">
    <text style="font-weight: 500; font-size: 17px; font-family: 'Poppins'; text-anchor: middle; fill: #ffffff" x="844.569336" y="85.801434" transform="rotate(-0 844.569336 85.801434)">34.5%</text>
   </g>
   <g id="text_57">
    <text style="font-weight: 500; font-size: 17px; font-family: 'Poppins'; text-anchor: middle; fill: #ffffff" x="913.985508" y="347.354574" transform="rotate(-0 913.985508 347.354574)">29.6%</text>
   </g>
   <g id="text_58">
    <text style="font-weight: 500; font-size: 17px; font-family: 'Poppins'; text-anchor: middle; fill: #ffffff" x="913.985508" y="137.765634" transform="rotate(-0 913.985508 137.765634)">61.5%</text>
   </g>
   <g id="text_59">
    <text style="font-weight: 500; font-size: 17px; font-family: 'Poppins'; text-anchor: middle; fill: #ffffff" x="983.401679" y="320.025254" transform="rotate(-0 983.401679 320.025254)">43.8%</text>
   </g>
   <g id="text_60">
    <text style="font-weight: 500; font-size: 17px; font-family: 'Poppins'; text-anchor: middle; fill: #ffffff" x="983.401679" y="135.841034" transform="rotate(-0 983.401679 135.841034)">51.9%</text>
   </g>
   <g id="text_61">
    <text style="font-weight: 500; font-size: 17px; font-family: 'Poppins'; text-anchor: middle; fill: #ffffff" x="1052.817851" y="372.374374" transform="rotate(-0 1052.817851 372.374374)">16.6%</text>
   </g>
   <g id="text_62">
    <text style="font-weight: 500; font-size: 17px; font-family: 'Poppins'; text-anchor: middle; fill: #ffffff" x="1052.817851" y="194.926254" transform="rotate(-0 1052.817851 194.926254)">75.6%</text>
   </g>
   <g id="text_63">
    <text style="font-weight: 500; font-size: 17px; font-family: 'Poppins'; text-anchor: middle; fill: #ffffff" x="1122.234023" y="280.955874" transform="rotate(-0 1122.234023 280.955874)">64.1%</text>
   </g>
   <g id="text_64">
    <text style="font-weight: 500; font-size: 17px; font-family: 'Poppins'; text-anchor: middle; fill: #ffffff" x="1122.234023" y="84.454214" transform="rotate(-0 1122.234023 84.454214)">33.8%</text>
   </g>
   <g id="text_65">
    <text style="font-weight: 500; font-size: 17px; font-family: 'Poppins'; text-anchor: middle; fill: #ffffff" x="1191.650195" y="376.223574" transform="rotate(-0 1191.650195 376.223574)">14.6%</text>
   </g>
   <g id="text_66">
    <text style="font-weight: 500; font-size: 17px; font-family: 'Poppins'; text-anchor: middle; fill: #ffffff" x="1191.650195" y="226.682154" transform="rotate(-0 1191.650195 226.682154)">63.1%</text>
   </g>
   <g id="text_67">
    <text style="font-weight: 500; font-size: 17px; font-family: 'Poppins'; text-anchor: middle; fill: #ffffff" x="1191.650195" y="62.321314" transform="rotate(-0 1191.650195 62.321314)">22.3%</text>
   </g>
   <g id="text_68">
    <text style="font-weight: 500; font-size: 17px; font-family: 'Poppins'; text-anchor: middle; fill: #ffffff" x="1261.066366" y="358.132334" transform="rotate(-0 1261.066366 358.132334)">24.0%</text>
   </g>
   <g id="text_69">
    <text style="font-weight: 500; font-size: 17px; font-family: 'Poppins'; text-anchor: middle; fill: #ffffff" x="1261.066366" y="198.198074" transform="rotate(-0 1261.066366 198.198074)">59.1%</text>
   </g>
   <g id="text_70">
    <text style="font-weight: 500; font-size: 17px; font-family: 'Poppins'; text-anchor: middle; fill: #ffffff" x="1261.066366" y="51.928474" transform="rotate(-0 1261.066366 51.928474)">16.9%</text>
   </g>
   <g id="text_71">
    <text style="font-weight: 500; font-size: 17px; font-family: 'Poppins'; text-anchor: middle; fill: #ffffff" x="1330.482538" y="319.447874" transform="rotate(-0 1330.482538 319.447874)">44.1%</text>
   </g>
   <g id="text_72">
    <text style="font-weight: 500; font-size: 17px; font-family: 'Poppins'; text-anchor: middle; fill: #ffffff" x="1330.482538" y="170.483834" transform="rotate(-0 1330.482538 170.483834)">33.3%</text>
   </g>
   <g id="text_73">
    <text style="font-weight: 500; font-size: 17px; font-family: 'Poppins'; text-anchor: middle; fill: #ffffff" x="1330.482538" y="62.898694" transform="rotate(-0 1330.482538 62.898694)">22.6%</text>
   </g>
   <g id="text_74">
    <text style="font-weight: 500; font-size: 17px; font-family: 'Poppins'; text-anchor: middle; fill: #ffffff" x="1399.89871" y="321.372474" transform="rotate(-0 1399.89871 321.372474)">43.1%</text>
   </g>
   <g id="text_75">
    <text style="font-weight: 500; font-size: 17px; font-family: 'Poppins'; text-anchor: middle; fill: #ffffff" x="1399.89871" y="148.735854" transform="rotate(-0 1399.89871 148.735854)">46.6%</text>
   </g>
   <g id="text_76">
    <text style="font-weight: 500; font-size: 17px; font-family: 'Poppins'; text-anchor: middle; fill: #ffffff" x="1469.314882" y="293.273314" transform="rotate(-0 1469.314882 293.273314)">57.7%</text>
   </g>
   <g id="text_77">
    <text style="font-weight: 500; font-size: 17px; font-family: 'Poppins'; text-anchor: middle; fill: #ffffff" x="1469.314882" y="102.160534" transform="rotate(-0 1469.314882 102.160534)">41.6%</text>
   </g>
  </g>
 </g>
 <defs>
  <clipPath id="p770e9e3927">
   <rect x="50.10125" y="15.34" width="1519.52" height="384.92"/>
  </clipPath>
 </defs>
</svg>
