<?xml version="1.0" encoding="utf-8" standalone="no"?>
<!DOCTYPE svg PUBLIC "-//W3C//DTD SVG 1.1//EN"
  "http://www.w3.org/Graphics/SVG/1.1/DTD/svg11.dtd">
<svg xmlns:xlink="http://www.w3.org/1999/xlink" width="1576.82125pt" height="568.96pt" viewBox="0 0 1576.82125 568.96" xmlns="http://www.w3.org/2000/svg" version="1.1">
 <metadata>
  <rdf:RDF xmlns:dc="http://purl.org/dc/elements/1.1/" xmlns:cc="http://creativecommons.org/ns#" xmlns:rdf="http://www.w3.org/1999/02/22-rdf-syntax-ns#">
   <cc:Work>
    <dc:type rdf:resource="http://purl.org/dc/dcmitype/StillImage"/>
    <dc:date>2025-05-29T11:45:51.630426</dc:date>
    <dc:format>image/svg+xml</dc:format>
    <dc:creator>
     <cc:Agent>
      <dc:title>Matplotlib v3.10.1, https://matplotlib.org/</dc:title>
     </cc:Agent>
    </dc:creator>
   </cc:Work>
  </rdf:RDF>
 </metadata>
 <defs>
  <style type="text/css">*{stroke-linejoin: round; stroke-linecap: butt}</style>
 </defs>
 <g id="figure_1">
  <g id="patch_1">
   <path d="M 0 568.96 
L 1576.82125 568.96 
L 1576.82125 0 
L 0 0 
z
" style="fill: #ffffff"/>
  </g>
  <g id="axes_1">
   <g id="patch_2">
    <path d="M 50.10125 400.26 
L 1569.62125 400.26 
L 1569.62125 15.34 
L 50.10125 15.34 
z
" style="fill: #ffffff"/>
   </g>
   <g id="matplotlib.axis_1">
    <g id="xtick_1">
     <g id="line2d_1">
      <defs>
       <path id="mf3691c54b1" d="M 0 0 
L 0 3.5 
" style="stroke: #000000; stroke-width: 0.8"/>
      </defs>
      <g>
       <use xlink:href="#mf3691c54b1" x="88.08925" y="400.26" style="stroke: #000000; stroke-width: 0.8"/>
      </g>
     </g>
     <g id="text_1">
      <text style="font-weight: 500; font-size: 25px; font-family: 'Poppins'" transform="translate(81.538469 555.732656) rotate(-90)">06-08-2015</text>
     </g>
    </g>
    <g id="xtick_2">
     <g id="line2d_2">
      <g>
       <use xlink:href="#mf3691c54b1" x="164.06525" y="400.26" style="stroke: #000000; stroke-width: 0.8"/>
      </g>
     </g>
     <g id="text_2">
      <text style="font-weight: 500; font-size: 25px; font-family: 'Poppins'" transform="translate(157.514469 548.533437) rotate(-90)">18-06-2016</text>
     </g>
    </g>
    <g id="xtick_3">
     <g id="line2d_3">
      <g>
       <use xlink:href="#mf3691c54b1" x="240.04125" y="400.26" style="stroke: #000000; stroke-width: 0.8"/>
      </g>
     </g>
     <g id="text_3">
      <text style="font-weight: 500; font-size: 25px; font-family: 'Poppins'" transform="translate(233.490469 554.135) rotate(-90)">29-06-2016</text>
     </g>
    </g>
    <g id="xtick_4">
     <g id="line2d_4">
      <g>
       <use xlink:href="#mf3691c54b1" x="316.01725" y="400.26" style="stroke: #000000; stroke-width: 0.8"/>
      </g>
     </g>
     <g id="text_4">
      <text style="font-weight: 500; font-size: 25px; font-family: 'Poppins'" transform="translate(309.466469 551.806875) rotate(-90)">06-07-2017</text>
     </g>
    </g>
    <g id="xtick_5">
     <g id="line2d_5">
      <g>
       <use xlink:href="#mf3691c54b1" x="391.99325" y="400.26" style="stroke: #000000; stroke-width: 0.8"/>
      </g>
     </g>
     <g id="text_5">
      <text style="font-weight: 500; font-size: 25px; font-family: 'Poppins'" transform="translate(385.442469 539.607656) rotate(-90)">21-01-2018</text>
     </g>
    </g>
    <g id="xtick_6">
     <g id="line2d_6">
      <g>
       <use xlink:href="#mf3691c54b1" x="467.96925" y="400.26" style="stroke: #000000; stroke-width: 0.8"/>
      </g>
     </g>
     <g id="text_6">
      <text style="font-weight: 500; font-size: 25px; font-family: 'Poppins'" transform="translate(461.418469 548.556875) rotate(-90)">18-04-2018</text>
     </g>
    </g>
    <g id="xtick_7">
     <g id="line2d_7">
      <g>
       <use xlink:href="#mf3691c54b1" x="543.94525" y="400.26" style="stroke: #000000; stroke-width: 0.8"/>
      </g>
     </g>
     <g id="text_7">
      <text style="font-weight: 500; font-size: 25px; font-family: 'Poppins'" transform="translate(537.394469 550.885) rotate(-90)">22-02-2019</text>
     </g>
    </g>
    <g id="xtick_8">
     <g id="line2d_8">
      <g>
       <use xlink:href="#mf3691c54b1" x="619.92125" y="400.26" style="stroke: #000000; stroke-width: 0.8"/>
      </g>
     </g>
     <g id="text_8">
      <text style="font-weight: 500; font-size: 25px; font-family: 'Poppins'" transform="translate(613.370469 555.857656) rotate(-90)">04-06-2019</text>
     </g>
    </g>
    <g id="xtick_9">
     <g id="line2d_9">
      <g>
       <use xlink:href="#mf3691c54b1" x="695.89725" y="400.26" style="stroke: #000000; stroke-width: 0.8"/>
      </g>
     </g>
     <g id="text_9">
      <text style="font-weight: 500; font-size: 25px; font-family: 'Poppins'" transform="translate(689.346469 560.056875) rotate(-90)">02-04-2020</text>
     </g>
    </g>
    <g id="xtick_10">
     <g id="line2d_10">
      <g>
       <use xlink:href="#mf3691c54b1" x="771.87325" y="400.26" style="stroke: #000000; stroke-width: 0.8"/>
      </g>
     </g>
     <g id="text_10">
      <text style="font-weight: 500; font-size: 25px; font-family: 'Poppins'" transform="translate(765.322469 553.01) rotate(-90)">05-03-2021</text>
     </g>
    </g>
    <g id="xtick_11">
     <g id="line2d_11">
      <g>
       <use xlink:href="#mf3691c54b1" x="847.84925" y="400.26" style="stroke: #000000; stroke-width: 0.8"/>
      </g>
     </g>
     <g id="text_11">
      <text style="font-weight: 500; font-size: 25px; font-family: 'Poppins'" transform="translate(841.298469 549.435781) rotate(-90)">27-03-2021</text>
     </g>
    </g>
    <g id="xtick_12">
     <g id="line2d_12">
      <g>
       <use xlink:href="#mf3691c54b1" x="923.82525" y="400.26" style="stroke: #000000; stroke-width: 0.8"/>
      </g>
     </g>
     <g id="text_12">
      <text style="font-weight: 500; font-size: 25px; font-family: 'Poppins'" transform="translate(917.274469 552.611562) rotate(-90)">26-05-2021</text>
     </g>
    </g>
    <g id="xtick_13">
     <g id="line2d_13">
      <g>
       <use xlink:href="#mf3691c54b1" x="999.80125" y="400.26" style="stroke: #000000; stroke-width: 0.8"/>
      </g>
     </g>
     <g id="text_13">
      <text style="font-weight: 500; font-size: 25px; font-family: 'Poppins'" transform="translate(993.250469 538.236562) rotate(-90)">24-11-2021</text>
     </g>
    </g>
    <g id="xtick_14">
     <g id="line2d_14">
      <g>
       <use xlink:href="#mf3691c54b1" x="1075.77725" y="400.26" style="stroke: #000000; stroke-width: 0.8"/>
      </g>
     </g>
     <g id="text_14">
      <text style="font-weight: 500; font-size: 25px; font-family: 'Poppins'" transform="translate(1069.226469 550.986562) rotate(-90)">05-12-2022</text>
     </g>
    </g>
    <g id="xtick_15">
     <g id="line2d_15">
      <g>
       <use xlink:href="#mf3691c54b1" x="1151.75325" y="400.26" style="stroke: #000000; stroke-width: 0.8"/>
      </g>
     </g>
     <g id="text_15">
      <text style="font-weight: 500; font-size: 25px; font-family: 'Poppins'" transform="translate(1145.202469 551.611562) rotate(-90)">24-01-2023</text>
     </g>
    </g>
    <g id="xtick_16">
     <g id="line2d_16">
      <g>
       <use xlink:href="#mf3691c54b1" x="1227.72925" y="400.26" style="stroke: #000000; stroke-width: 0.8"/>
      </g>
     </g>
     <g id="text_16">
      <text style="font-weight: 500; font-size: 25px; font-family: 'Poppins'" transform="translate(1221.178469 549.435781) rotate(-90)">27-01-2023</text>
     </g>
    </g>
    <g id="xtick_17">
     <g id="line2d_17">
      <g>
       <use xlink:href="#mf3691c54b1" x="1303.70525" y="400.26" style="stroke: #000000; stroke-width: 0.8"/>
      </g>
     </g>
     <g id="text_17">
      <text style="font-weight: 500; font-size: 25px; font-family: 'Poppins'" transform="translate(1297.154469 558.385) rotate(-90)">28-02-2024</text>
     </g>
    </g>
    <g id="xtick_18">
     <g id="line2d_18">
      <g>
       <use xlink:href="#mf3691c54b1" x="1379.68125" y="400.26" style="stroke: #000000; stroke-width: 0.8"/>
      </g>
     </g>
     <g id="text_18">
      <text style="font-weight: 500; font-size: 25px; font-family: 'Poppins'" transform="translate(1373.130469 559.037344) rotate(-90)">23-04-2024</text>
     </g>
    </g>
    <g id="xtick_19">
     <g id="line2d_19">
      <g>
       <use xlink:href="#mf3691c54b1" x="1455.65725" y="400.26" style="stroke: #000000; stroke-width: 0.8"/>
      </g>
     </g>
     <g id="text_19">
      <text style="font-weight: 500; font-size: 25px; font-family: 'Poppins'" transform="translate(1449.106469 556.662344) rotate(-90)">22-02-2025</text>
     </g>
    </g>
    <g id="xtick_20">
     <g id="line2d_20">
      <g>
       <use xlink:href="#mf3691c54b1" x="1531.63325" y="400.26" style="stroke: #000000; stroke-width: 0.8"/>
      </g>
     </g>
     <g id="text_20">
      <text style="font-weight: 500; font-size: 25px; font-family: 'Poppins'" transform="translate(1525.082469 561.76) rotate(-90)">04-04-2025</text>
     </g>
    </g>
   </g>
   <g id="matplotlib.axis_2">
    <g id="ytick_1">
     <g id="line2d_21">
      <defs>
       <path id="m914c53973b" d="M 0 0 
L -3.5 0 
" style="stroke: #000000; stroke-width: 0.8"/>
      </defs>
      <g>
       <use xlink:href="#m914c53973b" x="50.10125" y="400.26" style="stroke: #000000; stroke-width: 0.8"/>
      </g>
     </g>
     <g id="text_21">
      <text style="font-weight: 500; font-size: 22px; font-family: 'Poppins'; text-anchor: end" x="43.10125" y="408.4" transform="rotate(-0 43.10125 408.4)">0</text>
     </g>
    </g>
    <g id="ytick_2">
     <g id="line2d_22">
      <g>
       <use xlink:href="#m914c53973b" x="50.10125" y="323.276" style="stroke: #000000; stroke-width: 0.8"/>
      </g>
     </g>
     <g id="text_22">
      <text style="font-weight: 500; font-size: 22px; font-family: 'Poppins'; text-anchor: end" x="43.10125" y="331.416" transform="rotate(-0 43.10125 331.416)">20</text>
     </g>
    </g>
    <g id="ytick_3">
     <g id="line2d_23">
      <g>
       <use xlink:href="#m914c53973b" x="50.10125" y="246.292" style="stroke: #000000; stroke-width: 0.8"/>
      </g>
     </g>
     <g id="text_23">
      <text style="font-weight: 500; font-size: 22px; font-family: 'Poppins'; text-anchor: end" x="43.10125" y="254.432" transform="rotate(-0 43.10125 254.432)">40</text>
     </g>
    </g>
    <g id="ytick_4">
     <g id="line2d_24">
      <g>
       <use xlink:href="#m914c53973b" x="50.10125" y="169.308" style="stroke: #000000; stroke-width: 0.8"/>
      </g>
     </g>
     <g id="text_24">
      <text style="font-weight: 500; font-size: 22px; font-family: 'Poppins'; text-anchor: end" x="43.10125" y="177.448" transform="rotate(-0 43.10125 177.448)">60</text>
     </g>
    </g>
    <g id="ytick_5">
     <g id="line2d_25">
      <g>
       <use xlink:href="#m914c53973b" x="50.10125" y="92.324" style="stroke: #000000; stroke-width: 0.8"/>
      </g>
     </g>
     <g id="text_25">
      <text style="font-weight: 500; font-size: 22px; font-family: 'Poppins'; text-anchor: end" x="43.10125" y="100.464" transform="rotate(-0 43.10125 100.464)">80</text>
     </g>
    </g>
    <g id="ytick_6">
     <g id="line2d_26">
      <g>
       <use xlink:href="#m914c53973b" x="50.10125" y="15.34" style="stroke: #000000; stroke-width: 0.8"/>
      </g>
     </g>
     <g id="text_26">
      <text style="font-weight: 500; font-size: 22px; font-family: 'Poppins'; text-anchor: end" x="43.10125" y="23.48" transform="rotate(-0 43.10125 23.48)">100</text>
     </g>
    </g>
   </g>
   <g id="patch_3">
    <path d="M 53.90005 400.26 
L 122.27845 400.26 
L 122.27845 321.3514 
L 53.90005 321.3514 
z
" clip-path="url(#p0755ca5a2c)" style="fill: #10302c"/>
   </g>
   <g id="patch_4">
    <path d="M 53.90005 321.3514 
L 122.27845 321.3514 
L 122.27845 93.47876 
L 53.90005 93.47876 
z
" clip-path="url(#p0755ca5a2c)" style="fill: #4c6a67"/>
   </g>
   <g id="patch_5">
    <path d="M 53.90005 93.47876 
L 122.27845 93.47876 
L 122.27845 15.34 
L 53.90005 15.34 
z
" clip-path="url(#p0755ca5a2c)" style="fill: #8fa8a6"/>
   </g>
   <g id="patch_6">
    <path d="M 129.87605 400.26 
L 198.25445 400.26 
L 198.25445 309.41888 
L 129.87605 309.41888 
z
" clip-path="url(#p0755ca5a2c)" style="fill: #10302c"/>
   </g>
   <g id="patch_7">
    <path d="M 129.87605 309.41888 
L 198.25445 309.41888 
L 198.25445 91.55416 
L 129.87605 91.55416 
z
" clip-path="url(#p0755ca5a2c)" style="fill: #4c6a67"/>
   </g>
   <g id="patch_8">
    <path d="M 129.87605 91.55416 
L 198.25445 91.55416 
L 198.25445 15.34 
L 129.87605 15.34 
z
" clip-path="url(#p0755ca5a2c)" style="fill: #8fa8a6"/>
   </g>
   <g id="patch_9">
    <path d="M 205.85205 400.26 
L 274.23045 400.26 
L 274.23045 319.4268 
L 205.85205 319.4268 
z
" clip-path="url(#p0755ca5a2c)" style="fill: #10302c"/>
   </g>
   <g id="patch_10">
    <path d="M 205.85205 319.4268 
L 274.23045 319.4268 
L 274.23045 295.56176 
L 205.85205 295.56176 
z
" clip-path="url(#p0755ca5a2c)" style="fill: #4c6a67"/>
   </g>
   <g id="patch_11">
    <path d="M 205.85205 295.56176 
L 274.23045 295.56176 
L 274.23045 15.34 
L 205.85205 15.34 
z
" clip-path="url(#p0755ca5a2c)" style="fill: #8fa8a6"/>
   </g>
   <g id="patch_12">
    <path d="M 281.82805 400.26 
L 350.20645 400.26 
L 350.20645 222.04204 
L 281.82805 222.04204 
z
" clip-path="url(#p0755ca5a2c)" style="fill: #10302c"/>
   </g>
   <g id="patch_13">
    <path d="M 281.82805 222.04204 
L 350.20645 222.04204 
L 350.20645 143.13344 
L 281.82805 143.13344 
z
" clip-path="url(#p0755ca5a2c)" style="fill: #4c6a67"/>
   </g>
   <g id="patch_14">
    <path d="M 281.82805 143.13344 
L 350.20645 143.13344 
L 350.20645 15.34 
L 281.82805 15.34 
z
" clip-path="url(#p0755ca5a2c)" style="fill: #8fa8a6"/>
   </g>
   <g id="patch_15">
    <path d="M 357.80405 400.26 
L 426.18245 400.26 
L 426.18245 223.96664 
L 357.80405 223.96664 
z
" clip-path="url(#p0755ca5a2c)" style="fill: #10302c"/>
   </g>
   <g id="patch_16">
    <path d="M 357.80405 223.96664 
L 426.18245 223.96664 
L 426.18245 209.7246 
L 357.80405 209.7246 
z
" clip-path="url(#p0755ca5a2c)" style="fill: #4c6a67"/>
   </g>
   <g id="patch_17">
    <path d="M 357.80405 209.7246 
L 426.18245 209.7246 
L 426.18245 15.34 
L 357.80405 15.34 
z
" clip-path="url(#p0755ca5a2c)" style="fill: #8fa8a6"/>
   </g>
   <g id="patch_18">
    <path d="M 433.78005 400.26 
L 502.15845 400.26 
L 502.15845 273.2364 
L 433.78005 273.2364 
z
" clip-path="url(#p0755ca5a2c)" style="fill: #10302c"/>
   </g>
   <g id="patch_19">
    <path d="M 433.78005 273.2364 
L 502.15845 273.2364 
L 502.15845 150.83184 
L 433.78005 150.83184 
z
" clip-path="url(#p0755ca5a2c)" style="fill: #4c6a67"/>
   </g>
   <g id="patch_20">
    <path d="M 433.78005 150.83184 
L 502.15845 150.83184 
L 502.15845 15.34 
L 433.78005 15.34 
z
" clip-path="url(#p0755ca5a2c)" style="fill: #8fa8a6"/>
   </g>
   <g id="patch_21">
    <path d="M 509.75605 400.26 
L 578.13445 400.26 
L 578.13445 260.14912 
L 509.75605 260.14912 
z
" clip-path="url(#p0755ca5a2c)" style="fill: #10302c"/>
   </g>
   <g id="patch_22">
    <path d="M 509.75605 260.14912 
L 578.13445 260.14912 
L 578.13445 137.35964 
L 509.75605 137.35964 
z
" clip-path="url(#p0755ca5a2c)" style="fill: #4c6a67"/>
   </g>
   <g id="patch_23">
    <path d="M 509.75605 137.35964 
L 578.13445 137.35964 
L 578.13445 15.34 
L 509.75605 15.34 
z
" clip-path="url(#p0755ca5a2c)" style="fill: #8fa8a6"/>
   </g>
   <g id="patch_24">
    <path d="M 585.73205 400.26 
L 654.11045 400.26 
L 654.11045 244.75232 
L 585.73205 244.75232 
z
" clip-path="url(#p0755ca5a2c)" style="fill: #10302c"/>
   </g>
   <g id="patch_25">
    <path d="M 585.73205 244.75232 
L 654.11045 244.75232 
L 654.11045 151.60168 
L 585.73205 151.60168 
z
" clip-path="url(#p0755ca5a2c)" style="fill: #4c6a67"/>
   </g>
   <g id="patch_26">
    <path d="M 585.73205 151.60168 
L 654.11045 151.60168 
L 654.11045 15.34 
L 585.73205 15.34 
z
" clip-path="url(#p0755ca5a2c)" style="fill: #8fa8a6"/>
   </g>
   <g id="patch_27">
    <path d="M 661.70805 400.26 
L 730.08645 400.26 
L 730.08645 302.49032 
L 661.70805 302.49032 
z
" clip-path="url(#p0755ca5a2c)" style="fill: #10302c"/>
   </g>
   <g id="patch_28">
    <path d="M 661.70805 302.49032 
L 730.08645 302.49032 
L 730.08645 180.08576 
L 661.70805 180.08576 
z
" clip-path="url(#p0755ca5a2c)" style="fill: #4c6a67"/>
   </g>
   <g id="patch_29">
    <path d="M 661.70805 180.08576 
L 730.08645 180.08576 
L 730.08645 15.34 
L 661.70805 15.34 
z
" clip-path="url(#p0755ca5a2c)" style="fill: #8fa8a6"/>
   </g>
   <g id="patch_30">
    <path d="M 737.68405 400.26 
L 806.06245 400.26 
L 806.06245 218.19284 
L 737.68405 218.19284 
z
" clip-path="url(#p0755ca5a2c)" style="fill: #10302c"/>
   </g>
   <g id="patch_31">
    <path d="M 737.68405 218.19284 
L 806.06245 218.19284 
L 806.06245 21.49872 
L 737.68405 21.49872 
z
" clip-path="url(#p0755ca5a2c)" style="fill: #4c6a67"/>
   </g>
   <g id="patch_32">
    <path d="M 737.68405 21.49872 
L 806.06245 21.49872 
L 806.06245 15.34 
L 737.68405 15.34 
z
" clip-path="url(#p0755ca5a2c)" style="fill: #8fa8a6"/>
   </g>
   <g id="patch_33">
    <path d="M 813.66005 400.26 
L 882.03845 400.26 
L 882.03845 346.3712 
L 813.66005 346.3712 
z
" clip-path="url(#p0755ca5a2c)" style="fill: #10302c"/>
   </g>
   <g id="patch_34">
    <path d="M 813.66005 346.3712 
L 882.03845 346.3712 
L 882.03845 148.1374 
L 813.66005 148.1374 
z
" clip-path="url(#p0755ca5a2c)" style="fill: #4c6a67"/>
   </g>
   <g id="patch_35">
    <path d="M 813.66005 148.1374 
L 882.03845 148.1374 
L 882.03845 15.34 
L 813.66005 15.34 
z
" clip-path="url(#p0755ca5a2c)" style="fill: #8fa8a6"/>
   </g>
   <g id="patch_36">
    <path d="M 889.63605 400.26 
L 958.01445 400.26 
L 958.01445 286.32368 
L 889.63605 286.32368 
z
" clip-path="url(#p0755ca5a2c)" style="fill: #10302c"/>
   </g>
   <g id="patch_37">
    <path d="M 889.63605 286.32368 
L 958.01445 286.32368 
L 958.01445 252.0658 
L 889.63605 252.0658 
z
" clip-path="url(#p0755ca5a2c)" style="fill: #4c6a67"/>
   </g>
   <g id="patch_38">
    <path d="M 889.63605 252.0658 
L 958.01445 252.0658 
L 958.01445 15.34 
L 889.63605 15.34 
z
" clip-path="url(#p0755ca5a2c)" style="fill: #8fa8a6"/>
   </g>
   <g id="patch_39">
    <path d="M 965.61205 400.26 
L 1033.99045 400.26 
L 1033.99045 231.66504 
L 965.61205 231.66504 
z
" clip-path="url(#p0755ca5a2c)" style="fill: #10302c"/>
   </g>
   <g id="patch_40">
    <path d="M 965.61205 231.66504 
L 1033.99045 231.66504 
L 1033.99045 31.89156 
L 965.61205 31.89156 
z
" clip-path="url(#p0755ca5a2c)" style="fill: #4c6a67"/>
   </g>
   <g id="patch_41">
    <path d="M 965.61205 31.89156 
L 1033.99045 31.89156 
L 1033.99045 15.34 
L 965.61205 15.34 
z
" clip-path="url(#p0755ca5a2c)" style="fill: #8fa8a6"/>
   </g>
   <g id="patch_42">
    <path d="M 1041.58805 400.26 
L 1109.96645 400.26 
L 1109.96645 336.36328 
L 1041.58805 336.36328 
z
" clip-path="url(#p0755ca5a2c)" style="fill: #10302c"/>
   </g>
   <g id="patch_43">
    <path d="M 1041.58805 336.36328 
L 1109.96645 336.36328 
L 1109.96645 45.36376 
L 1041.58805 45.36376 
z
" clip-path="url(#p0755ca5a2c)" style="fill: #4c6a67"/>
   </g>
   <g id="patch_44">
    <path d="M 1041.58805 45.36376 
L 1109.96645 45.36376 
L 1109.96645 15.34 
L 1041.58805 15.34 
z
" clip-path="url(#p0755ca5a2c)" style="fill: #8fa8a6"/>
   </g>
   <g id="patch_45">
    <path d="M 1117.56405 400.26 
L 1185.94245 400.26 
L 1185.94245 153.52628 
L 1117.56405 153.52628 
z
" clip-path="url(#p0755ca5a2c)" style="fill: #10302c"/>
   </g>
   <g id="patch_46">
    <path d="M 1117.56405 153.52628 
L 1185.94245 153.52628 
L 1185.94245 145.44296 
L 1117.56405 145.44296 
z
" clip-path="url(#p0755ca5a2c)" style="fill: #4c6a67"/>
   </g>
   <g id="patch_47">
    <path d="M 1117.56405 145.44296 
L 1185.94245 145.44296 
L 1185.94245 15.34 
L 1117.56405 15.34 
z
" clip-path="url(#p0755ca5a2c)" style="fill: #8fa8a6"/>
   </g>
   <g id="patch_48">
    <path d="M 1193.54005 400.26 
L 1261.91845 400.26 
L 1261.91845 344.06168 
L 1193.54005 344.06168 
z
" clip-path="url(#p0755ca5a2c)" style="fill: #10302c"/>
   </g>
   <g id="patch_49">
    <path d="M 1193.54005 344.06168 
L 1261.91845 344.06168 
L 1261.91845 101.17716 
L 1193.54005 101.17716 
z
" clip-path="url(#p0755ca5a2c)" style="fill: #4c6a67"/>
   </g>
   <g id="patch_50">
    <path d="M 1193.54005 101.17716 
L 1261.91845 101.17716 
L 1261.91845 15.34 
L 1193.54005 15.34 
z
" clip-path="url(#p0755ca5a2c)" style="fill: #8fa8a6"/>
   </g>
   <g id="patch_51">
    <path d="M 1269.51605 400.26 
L 1337.89445 400.26 
L 1337.89445 307.8792 
L 1269.51605 307.8792 
z
" clip-path="url(#p0755ca5a2c)" style="fill: #10302c"/>
   </g>
   <g id="patch_52">
    <path d="M 1269.51605 307.8792 
L 1337.89445 307.8792 
L 1337.89445 80.39148 
L 1269.51605 80.39148 
z
" clip-path="url(#p0755ca5a2c)" style="fill: #4c6a67"/>
   </g>
   <g id="patch_53">
    <path d="M 1269.51605 80.39148 
L 1337.89445 80.39148 
L 1337.89445 15.34 
L 1269.51605 15.34 
z
" clip-path="url(#p0755ca5a2c)" style="fill: #8fa8a6"/>
   </g>
   <g id="patch_54">
    <path d="M 1345.49205 400.26 
L 1413.87045 400.26 
L 1413.87045 230.51028 
L 1345.49205 230.51028 
z
" clip-path="url(#p0755ca5a2c)" style="fill: #10302c"/>
   </g>
   <g id="patch_55">
    <path d="M 1345.49205 230.51028 
L 1413.87045 230.51028 
L 1413.87045 102.33192 
L 1345.49205 102.33192 
z
" clip-path="url(#p0755ca5a2c)" style="fill: #4c6a67"/>
   </g>
   <g id="patch_56">
    <path d="M 1345.49205 102.33192 
L 1413.87045 102.33192 
L 1413.87045 15.34 
L 1345.49205 15.34 
z
" clip-path="url(#p0755ca5a2c)" style="fill: #8fa8a6"/>
   </g>
   <g id="patch_57">
    <path d="M 1421.46805 400.26 
L 1489.84645 400.26 
L 1489.84645 234.35948 
L 1421.46805 234.35948 
z
" clip-path="url(#p0755ca5a2c)" style="fill: #10302c"/>
   </g>
   <g id="patch_58">
    <path d="M 1421.46805 234.35948 
L 1489.84645 234.35948 
L 1489.84645 54.98676 
L 1421.46805 54.98676 
z
" clip-path="url(#p0755ca5a2c)" style="fill: #4c6a67"/>
   </g>
   <g id="patch_59">
    <path d="M 1421.46805 54.98676 
L 1489.84645 54.98676 
L 1489.84645 15.34 
L 1421.46805 15.34 
z
" clip-path="url(#p0755ca5a2c)" style="fill: #8fa8a6"/>
   </g>
   <g id="patch_60">
    <path d="M 1497.44405 400.26 
L 1565.82245 400.26 
L 1565.82245 178.16116 
L 1497.44405 178.16116 
z
" clip-path="url(#p0755ca5a2c)" style="fill: #10302c"/>
   </g>
   <g id="patch_61">
    <path d="M 1497.44405 178.16116 
L 1565.82245 178.16116 
L 1565.82245 18.03444 
L 1497.44405 18.03444 
z
" clip-path="url(#p0755ca5a2c)" style="fill: #4c6a67"/>
   </g>
   <g id="patch_62">
    <path d="M 1497.44405 18.03444 
L 1565.82245 18.03444 
L 1565.82245 15.34 
L 1497.44405 15.34 
z
" clip-path="url(#p0755ca5a2c)" style="fill: #8fa8a6"/>
   </g>
   <g id="text_27">
    <text style="font-weight: 500; font-size: 17px; font-family: 'Poppins'; text-anchor: middle; fill: #ffffff" x="88.08925" y="364.868434" transform="rotate(-0 88.08925 364.868434)">20.5%</text>
   </g>
   <g id="text_28">
    <text style="font-weight: 500; font-size: 17px; font-family: 'Poppins'; text-anchor: middle; fill: #ffffff" x="88.08925" y="211.477814" transform="rotate(-0 88.08925 211.477814)">59.2%</text>
   </g>
   <g id="text_29">
    <text style="font-weight: 500; font-size: 17px; font-family: 'Poppins'; text-anchor: middle; fill: #ffffff" x="88.08925" y="58.472114" transform="rotate(-0 88.08925 58.472114)">20.3%</text>
   </g>
   <g id="text_30">
    <text style="font-weight: 500; font-size: 17px; font-family: 'Poppins'; text-anchor: middle; fill: #ffffff" x="164.06525" y="358.902174" transform="rotate(-0 164.06525 358.902174)">23.6%</text>
   </g>
   <g id="text_31">
    <text style="font-weight: 500; font-size: 17px; font-family: 'Poppins'; text-anchor: middle; fill: #ffffff" x="164.06525" y="204.549254" transform="rotate(-0 164.06525 204.549254)">56.6%</text>
   </g>
   <g id="text_32">
    <text style="font-weight: 500; font-size: 17px; font-family: 'Poppins'; text-anchor: middle; fill: #ffffff" x="164.06525" y="57.509814" transform="rotate(-0 164.06525 57.509814)">19.8%</text>
   </g>
   <g id="text_33">
    <text style="font-weight: 500; font-size: 17px; font-family: 'Poppins'; text-anchor: middle; fill: #ffffff" x="240.04125" y="363.906134" transform="rotate(-0 240.04125 363.906134)">21.0%</text>
   </g>
   <g id="text_34">
    <text style="font-weight: 500; font-size: 17px; font-family: 'Poppins'; text-anchor: middle; fill: #ffffff" x="240.04125" y="159.513614" transform="rotate(-0 240.04125 159.513614)">72.8%</text>
   </g>
   <g id="text_35">
    <text style="font-weight: 500; font-size: 17px; font-family: 'Poppins'; text-anchor: middle; fill: #ffffff" x="316.01725" y="315.213754" transform="rotate(-0 316.01725 315.213754)">46.3%</text>
   </g>
   <g id="text_36">
    <text style="font-weight: 500; font-size: 17px; font-family: 'Poppins'; text-anchor: middle; fill: #ffffff" x="316.01725" y="186.650474" transform="rotate(-0 316.01725 186.650474)">20.5%</text>
   </g>
   <g id="text_37">
    <text style="font-weight: 500; font-size: 17px; font-family: 'Poppins'; text-anchor: middle; fill: #ffffff" x="316.01725" y="83.299454" transform="rotate(-0 316.01725 83.299454)">33.2%</text>
   </g>
   <g id="text_38">
    <text style="font-weight: 500; font-size: 17px; font-family: 'Poppins'; text-anchor: middle; fill: #ffffff" x="391.99325" y="316.176054" transform="rotate(-0 391.99325 316.176054)">45.8%</text>
   </g>
   <g id="text_39">
    <text style="font-weight: 500; font-size: 17px; font-family: 'Poppins'; text-anchor: middle; fill: #ffffff" x="391.99325" y="116.595034" transform="rotate(-0 391.99325 116.595034)">50.5%</text>
   </g>
   <g id="text_40">
    <text style="font-weight: 500; font-size: 17px; font-family: 'Poppins'; text-anchor: middle; fill: #ffffff" x="467.96925" y="340.810934" transform="rotate(-0 467.96925 340.810934)">33.0%</text>
   </g>
   <g id="text_41">
    <text style="font-weight: 500; font-size: 17px; font-family: 'Poppins'; text-anchor: middle; fill: #ffffff" x="467.96925" y="216.096854" transform="rotate(-0 467.96925 216.096854)">31.8%</text>
   </g>
   <g id="text_42">
    <text style="font-weight: 500; font-size: 17px; font-family: 'Poppins'; text-anchor: middle; fill: #ffffff" x="467.96925" y="87.148654" transform="rotate(-0 467.96925 87.148654)">35.2%</text>
   </g>
   <g id="text_43">
    <text style="font-weight: 500; font-size: 17px; font-family: 'Poppins'; text-anchor: middle; fill: #ffffff" x="543.94525" y="334.267294" transform="rotate(-0 543.94525 334.267294)">36.4%</text>
   </g>
   <g id="text_44">
    <text style="font-weight: 500; font-size: 17px; font-family: 'Poppins'; text-anchor: middle; fill: #ffffff" x="543.94525" y="202.817114" transform="rotate(-0 543.94525 202.817114)">31.9%</text>
   </g>
   <g id="text_45">
    <text style="font-weight: 500; font-size: 17px; font-family: 'Poppins'; text-anchor: middle; fill: #ffffff" x="543.94525" y="80.412554" transform="rotate(-0 543.94525 80.412554)">31.7%</text>
   </g>
   <g id="text_46">
    <text style="font-weight: 500; font-size: 17px; font-family: 'Poppins'; text-anchor: middle; fill: #ffffff" x="619.92125" y="326.568894" transform="rotate(-0 619.92125 326.568894)">40.4%</text>
   </g>
   <g id="text_47">
    <text style="font-weight: 500; font-size: 17px; font-family: 'Poppins'; text-anchor: middle; fill: #ffffff" x="619.92125" y="202.239734" transform="rotate(-0 619.92125 202.239734)">24.2%</text>
   </g>
   <g id="text_48">
    <text style="font-weight: 500; font-size: 17px; font-family: 'Poppins'; text-anchor: middle; fill: #ffffff" x="619.92125" y="87.533574" transform="rotate(-0 619.92125 87.533574)">35.4%</text>
   </g>
   <g id="text_49">
    <text style="font-weight: 500; font-size: 17px; font-family: 'Poppins'; text-anchor: middle; fill: #ffffff" x="695.89725" y="355.437894" transform="rotate(-0 695.89725 355.437894)">25.4%</text>
   </g>
   <g id="text_50">
    <text style="font-weight: 500; font-size: 17px; font-family: 'Poppins'; text-anchor: middle; fill: #ffffff" x="695.89725" y="245.350774" transform="rotate(-0 695.89725 245.350774)">31.8%</text>
   </g>
   <g id="text_51">
    <text style="font-weight: 500; font-size: 17px; font-family: 'Poppins'; text-anchor: middle; fill: #ffffff" x="695.89725" y="101.775614" transform="rotate(-0 695.89725 101.775614)">42.8%</text>
   </g>
   <g id="text_52">
    <text style="font-weight: 500; font-size: 17px; font-family: 'Poppins'; text-anchor: middle; fill: #ffffff" x="771.87325" y="313.289154" transform="rotate(-0 771.87325 313.289154)">47.3%</text>
   </g>
   <g id="text_53">
    <text style="font-weight: 500; font-size: 17px; font-family: 'Poppins'; text-anchor: middle; fill: #ffffff" x="771.87325" y="123.908514" transform="rotate(-0 771.87325 123.908514)">51.1%</text>
   </g>
   <g id="text_54">
    <text style="font-weight: 500; font-size: 17px; font-family: 'Poppins'; text-anchor: middle; fill: #ffffff" x="847.84925" y="377.378334" transform="rotate(-0 847.84925 377.378334)">14.0%</text>
   </g>
   <g id="text_55">
    <text style="font-weight: 500; font-size: 17px; font-family: 'Poppins'; text-anchor: middle; fill: #ffffff" x="847.84925" y="251.317034" transform="rotate(-0 847.84925 251.317034)">51.5%</text>
   </g>
   <g id="text_56">
    <text style="font-weight: 500; font-size: 17px; font-family: 'Poppins'; text-anchor: middle; fill: #ffffff" x="847.84925" y="85.801434" transform="rotate(-0 847.84925 85.801434)">34.5%</text>
   </g>
   <g id="text_57">
    <text style="font-weight: 500; font-size: 17px; font-family: 'Poppins'; text-anchor: middle; fill: #ffffff" x="923.82525" y="347.354574" transform="rotate(-0 923.82525 347.354574)">29.6%</text>
   </g>
   <g id="text_58">
    <text style="font-weight: 500; font-size: 17px; font-family: 'Poppins'; text-anchor: middle; fill: #ffffff" x="923.82525" y="137.765634" transform="rotate(-0 923.82525 137.765634)">61.5%</text>
   </g>
   <g id="text_59">
    <text style="font-weight: 500; font-size: 17px; font-family: 'Poppins'; text-anchor: middle; fill: #ffffff" x="999.80125" y="320.025254" transform="rotate(-0 999.80125 320.025254)">43.8%</text>
   </g>
   <g id="text_60">
    <text style="font-weight: 500; font-size: 17px; font-family: 'Poppins'; text-anchor: middle; fill: #ffffff" x="999.80125" y="135.841034" transform="rotate(-0 999.80125 135.841034)">51.9%</text>
   </g>
   <g id="text_61">
    <text style="font-weight: 500; font-size: 17px; font-family: 'Poppins'; text-anchor: middle; fill: #ffffff" x="1075.77725" y="372.374374" transform="rotate(-0 1075.77725 372.374374)">16.6%</text>
   </g>
   <g id="text_62">
    <text style="font-weight: 500; font-size: 17px; font-family: 'Poppins'; text-anchor: middle; fill: #ffffff" x="1075.77725" y="194.926254" transform="rotate(-0 1075.77725 194.926254)">75.6%</text>
   </g>
   <g id="text_63">
    <text style="font-weight: 500; font-size: 17px; font-family: 'Poppins'; text-anchor: middle; fill: #ffffff" x="1151.75325" y="280.955874" transform="rotate(-0 1151.75325 280.955874)">64.1%</text>
   </g>
   <g id="text_64">
    <text style="font-weight: 500; font-size: 17px; font-family: 'Poppins'; text-anchor: middle; fill: #ffffff" x="1151.75325" y="84.454214" transform="rotate(-0 1151.75325 84.454214)">33.8%</text>
   </g>
   <g id="text_65">
    <text style="font-weight: 500; font-size: 17px; font-family: 'Poppins'; text-anchor: middle; fill: #ffffff" x="1227.72925" y="376.223574" transform="rotate(-0 1227.72925 376.223574)">14.6%</text>
   </g>
   <g id="text_66">
    <text style="font-weight: 500; font-size: 17px; font-family: 'Poppins'; text-anchor: middle; fill: #ffffff" x="1227.72925" y="226.682154" transform="rotate(-0 1227.72925 226.682154)">63.1%</text>
   </g>
   <g id="text_67">
    <text style="font-weight: 500; font-size: 17px; font-family: 'Poppins'; text-anchor: middle; fill: #ffffff" x="1227.72925" y="62.321314" transform="rotate(-0 1227.72925 62.321314)">22.3%</text>
   </g>
   <g id="text_68">
    <text style="font-weight: 500; font-size: 17px; font-family: 'Poppins'; text-anchor: middle; fill: #ffffff" x="1303.70525" y="358.132334" transform="rotate(-0 1303.70525 358.132334)">24.0%</text>
   </g>
   <g id="text_69">
    <text style="font-weight: 500; font-size: 17px; font-family: 'Poppins'; text-anchor: middle; fill: #ffffff" x="1303.70525" y="198.198074" transform="rotate(-0 1303.70525 198.198074)">59.1%</text>
   </g>
   <g id="text_70">
    <text style="font-weight: 500; font-size: 17px; font-family: 'Poppins'; text-anchor: middle; fill: #ffffff" x="1303.70525" y="51.928474" transform="rotate(-0 1303.70525 51.928474)">16.9%</text>
   </g>
   <g id="text_71">
    <text style="font-weight: 500; font-size: 17px; font-family: 'Poppins'; text-anchor: middle; fill: #ffffff" x="1379.68125" y="319.447874" transform="rotate(-0 1379.68125 319.447874)">44.1%</text>
   </g>
   <g id="text_72">
    <text style="font-weight: 500; font-size: 17px; font-family: 'Poppins'; text-anchor: middle; fill: #ffffff" x="1379.68125" y="170.483834" transform="rotate(-0 1379.68125 170.483834)">33.3%</text>
   </g>
   <g id="text_73">
    <text style="font-weight: 500; font-size: 17px; font-family: 'Poppins'; text-anchor: middle; fill: #ffffff" x="1379.68125" y="62.898694" transform="rotate(-0 1379.68125 62.898694)">22.6%</text>
   </g>
   <g id="text_74">
    <text style="font-weight: 500; font-size: 17px; font-family: 'Poppins'; text-anchor: middle; fill: #ffffff" x="1455.65725" y="321.372474" transform="rotate(-0 1455.65725 321.372474)">43.1%</text>
   </g>
   <g id="text_75">
    <text style="font-weight: 500; font-size: 17px; font-family: 'Poppins'; text-anchor: middle; fill: #ffffff" x="1455.65725" y="148.735854" transform="rotate(-0 1455.65725 148.735854)">46.6%</text>
   </g>
   <g id="text_76">
    <text style="font-weight: 500; font-size: 17px; font-family: 'Poppins'; text-anchor: middle; fill: #ffffff" x="1531.63325" y="293.273314" transform="rotate(-0 1531.63325 293.273314)">57.7%</text>
   </g>
   <g id="text_77">
    <text style="font-weight: 500; font-size: 17px; font-family: 'Poppins'; text-anchor: middle; fill: #ffffff" x="1531.63325" y="102.160534" transform="rotate(-0 1531.63325 102.160534)">41.6%</text>
   </g>
  </g>
 </g>
 <defs>
  <clipPath id="p0755ca5a2c">
   <rect x="50.10125" y="15.34" width="1519.52" height="384.92"/>
  </clipPath>
 </defs>
</svg>
