<svg xmlns="http://www.w3.org/2000/svg" xmlns:xlink="http://www.w3.org/1999/xlink" width="2611.2" height="758.4" viewBox="0 0 1958.4 568.8"><defs><style>*{stroke-linejoin:round;stroke-linecap:butt}</style></defs><path fill="#fff" d="M0 568.8h1958.4V0H0z"/><path fill="#fff" d="M86.033 474.17h1865.2V7.2H86.033z"/><defs><path id="b" stroke="#000" stroke-width=".8" d="M0 0v3.5"/></defs><use xlink:href="#b" x="130.442" y="474.17" stroke="#000" stroke-width=".8"/><text font-family="'Montserrat'" font-size="25" font-weight="500" transform="rotate(-90 349.445 212.155)">Previo</text><use xlink:href="#b" x="219.261" y="474.17" stroke="#000" stroke-width=".8"/><text x="219.261" y="499.721" font-family="'Montserrat'" font-size="25" font-weight="500" text-anchor="middle">...</text><use xlink:href="#b" x="308.079" y="474.17" stroke="#000" stroke-width=".8"/><text font-family="'Montserrat'" font-size="25" font-weight="500" transform="rotate(-90 423.525 120.295)">2007</text><use xlink:href="#b" x="396.897" y="474.17" stroke="#000" stroke-width=".8"/><text font-family="'Montserrat'" font-size="25" font-weight="500" transform="rotate(-90 468.51 76.46)">2008</text><use xlink:href="#b" x="485.715" y="474.17" stroke="#000" stroke-width=".8"/><text font-family="'Montserrat'" font-size="25" font-weight="500" transform="rotate(-90 512.58 31.72)">2009</text><use xlink:href="#b" x="574.533" y="474.17" stroke="#000" stroke-width=".8"/><text font-family="'Montserrat'" font-size="25" font-weight="500" transform="rotate(-90 553.9 -15.78)">2010</text><use xlink:href="#b" x="663.351" y="474.17" stroke="#000" stroke-width=".8"/><text font-family="'Montserrat'" font-size="25" font-weight="500" transform="rotate(-90 594.6 -63.9)">2011</text><use xlink:href="#b" x="752.169" y="474.17" stroke="#000" stroke-width=".8"/><text font-family="'Montserrat'" font-size="25" font-weight="500" transform="rotate(-90 641.56 -105.76)">2012</text><use xlink:href="#b" x="840.987" y="474.17" stroke="#000" stroke-width=".8"/><text font-family="'Montserrat'" font-size="25" font-weight="500" transform="rotate(-90 685.945 -150.195)">2013</text><use xlink:href="#b" x="929.805" y="474.17" stroke="#000" stroke-width=".8"/><text font-family="'Montserrat'" font-size="25" font-weight="500" transform="rotate(-90 731.56 -193.39)">2014</text><use xlink:href="#b" x="1018.623" y="474.17" stroke="#000" stroke-width=".8"/><text font-family="'Montserrat'" font-size="25" font-weight="500" transform="rotate(-90 774.8 -239)">2015</text><use xlink:href="#b" x="1107.442" y="474.17" stroke="#000" stroke-width=".8"/><text font-family="'Montserrat'" font-size="25" font-weight="500" transform="rotate(-90 819.735 -282.865)">2016</text><use xlink:href="#b" x="1196.26" y="474.17" stroke="#000" stroke-width=".8"/><text font-family="'Montserrat'" font-size="25" font-weight="500" transform="rotate(-90 863.9 -327.5)">2017</text><use xlink:href="#b" x="1285.078" y="474.17" stroke="#000" stroke-width=".8"/><text font-family="'Montserrat'" font-size="25" font-weight="500" transform="rotate(-90 908.875 -371.325)">2018</text><use xlink:href="#b" x="1373.896" y="474.17" stroke="#000" stroke-width=".8"/><text font-family="'Montserrat'" font-size="25" font-weight="500" transform="rotate(-90 952.935 -416.065)">2019</text><use xlink:href="#b" x="1462.714" y="474.17" stroke="#000" stroke-width=".8"/><text font-family="'Montserrat'" font-size="25" font-weight="500" transform="rotate(-90 1000.56 -457.34)">2020</text><use xlink:href="#b" x="1551.532" y="474.17" stroke="#000" stroke-width=".8"/><text font-family="'Montserrat'" font-size="25" font-weight="500" transform="rotate(-90 1041.25 -505.45)">2021</text><use xlink:href="#b" x="1640.35" y="474.17" stroke="#000" stroke-width=".8"/><text font-family="'Montserrat'" font-size="25" font-weight="500" transform="rotate(-90 1088.2 -547.3)">2022</text><use xlink:href="#b" x="1729.168" y="474.17" stroke="#000" stroke-width=".8"/><text font-family="'Montserrat'" font-size="25" font-weight="500" transform="rotate(-90 1132.575 -591.725)">2023</text><use xlink:href="#b" x="1817.986" y="474.17" stroke="#000" stroke-width=".8"/><text font-family="'Montserrat'" font-size="25" font-weight="500" transform="rotate(-90 1178.19 -634.91)">2024</text><use xlink:href="#b" x="1906.804" y="474.17" stroke="#000" stroke-width=".8"/><text font-family="'Montserrat'" font-size="25" font-weight="500" transform="rotate(-90 1221.45 -680.55)">2025</text><defs><path id="c" stroke="#000" stroke-width=".8" d="M0 0h-3.5"/></defs><use xlink:href="#c" x="86.033" y="474.17" stroke="#000" stroke-width=".8"/><text x="79.033" y="482.332" font-family="'Montserrat'" font-size="22" font-weight="500" text-anchor="end">0</text><use xlink:href="#c" x="86.033" y="391.927" stroke="#000" stroke-width=".8"/><text x="79.033" y="400.09" font-family="'Montserrat'" font-size="22" font-weight="500" text-anchor="end">2,000</text><use xlink:href="#c" x="86.033" y="309.685" stroke="#000" stroke-width=".8"/><text x="79.033" y="317.847" font-family="'Montserrat'" font-size="22" font-weight="500" text-anchor="end">4,000</text><use xlink:href="#c" x="86.033" y="227.442" stroke="#000" stroke-width=".8"/><text x="79.033" y="235.604" font-family="'Montserrat'" font-size="22" font-weight="500" text-anchor="end">6,000</text><use xlink:href="#c" x="86.033" y="145.199" stroke="#000" stroke-width=".8"/><text x="79.033" y="153.362" font-family="'Montserrat'" font-size="22" font-weight="500" text-anchor="end">8,000</text><use xlink:href="#c" x="86.033" y="62.957" stroke="#000" stroke-width=".8"/><text x="79.033" y="71.119" font-family="'Montserrat'" font-size="22" font-weight="500" text-anchor="end">10,000</text><path fill="#10302c" d="M90.474 474.17h79.936v-7.895H90.474z" clip-path="url(#a)"/><path fill="#e6e6e6" d="M90.474 466.27h79.936v-12.871H90.474z" clip-path="url(#a)"/><path fill="#10302c" d="M268.11 474.17h79.936v-7.155H268.11z" clip-path="url(#a)"/><path fill="#e6e6e6" d="M268.11 467.01h79.936v-7.607H268.11z" clip-path="url(#a)"/><path fill="#10302c" d="M356.93 474.17h79.936v-9.622H356.93z" clip-path="url(#a)"/><path fill="#e6e6e6" d="M356.93 464.55h79.936v-10.157H356.93z" clip-path="url(#a)"/><path fill="#10302c" d="M445.75 474.17h79.936v-16.942H445.75z" clip-path="url(#a)"/><path fill="#e6e6e6" d="M445.75 457.23h79.936v-16.449H445.75z" clip-path="url(#a)"/><path fill="#10302c" d="M534.56 474.17h79.936v-35.035H534.56z" clip-path="url(#a)"/><path fill="#e6e6e6" d="M534.56 439.13h79.936v-47.248H534.56z" clip-path="url(#a)"/><path fill="#10302c" d="M623.38 474.17h79.936v-34.336H623.38z" clip-path="url(#a)"/><path fill="#e6e6e6" d="M623.38 439.83h79.936v-64.149H623.38z" clip-path="url(#a)"/><path fill="#10302c" d="M712.2 474.17h79.936v-27.963H712.2z" clip-path="url(#a)"/><path fill="#e6e6e6" d="M712.2 446.21h79.936V387.9H712.2z" clip-path="url(#a)"/><path fill="#10302c" d="M801.02 474.17h79.936v-35.488H801.02z" clip-path="url(#a)"/><path fill="#e6e6e6" d="M801.02 438.68h79.936v-59.05H801.02z" clip-path="url(#a)"/><path fill="#10302c" d="M889.84 474.17h79.936v-35.734H889.84z" clip-path="url(#a)"/><path fill="#e6e6e6" d="M889.84 438.44h79.936v-55.719H889.84z" clip-path="url(#a)"/><path fill="#10302c" d="M978.66 474.17h79.936v-32.445H978.66z" clip-path="url(#a)"/><path fill="#e6e6e6" d="M978.66 441.73h79.936v-52.265H978.66z" clip-path="url(#a)"/><path fill="#10302c" d="M1067.5 474.17h79.936v-39.888H1067.5z" clip-path="url(#a)"/><path fill="#e6e6e6" d="M1067.5 434.28h79.936v-59.914H1067.5z" clip-path="url(#a)"/><path fill="#10302c" d="M1156.3 474.17h79.936v-44H1156.3z" clip-path="url(#a)"/><path fill="#e6e6e6" d="M1156.3 430.17h79.936v-78.912H1156.3z" clip-path="url(#a)"/><path fill="#10302c" d="M1245.1 474.17h79.936v-25.824H1245.1z" clip-path="url(#a)"/><path fill="#e6e6e6" d="M1245.1 448.35h79.936v-73.895H1245.1z" clip-path="url(#a)"/><path fill="#10302c" d="M1333.9 474.17h79.936v-28.168H1333.9z" clip-path="url(#a)"/><path fill="#e6e6e6" d="M1333.9 446h79.936v-93.51H1333.9z" clip-path="url(#a)"/><path fill="#10302c" d="M1422.7 474.17h79.936v-48.852H1422.7z" clip-path="url(#a)"/><path fill="#e6e6e6" d="M1422.7 425.32h79.936V316.55H1422.7z" clip-path="url(#a)"/><path fill="#10302c" d="M1511.6 474.17h79.936v-67.398H1511.6z" clip-path="url(#a)"/><path fill="#e6e6e6" d="M1511.6 406.77h79.936V278.59H1511.6z" clip-path="url(#a)"/><path fill="#10302c" d="M1600.4 474.17h79.936v-62.011H1600.4z" clip-path="url(#a)"/><path fill="#e6e6e6" d="M1600.4 412.16h79.936V294.8H1600.4z" clip-path="url(#a)"/><path fill="#10302c" d="M1689.2 474.17h79.936v-92.317H1689.2z" clip-path="url(#a)"/><path fill="#e6e6e6" d="M1689.2 381.85h79.936v-158.4H1689.2z" clip-path="url(#a)"/><path fill="#10302c" d="M1778 474.17h79.936V345.42H1778z" clip-path="url(#a)"/><path fill="#e6e6e6" d="M1778 345.42h79.936v-240.4H1778z" clip-path="url(#a)"/><path fill="#10302c" d="M1866.8 474.17h79.936v-20.026H1866.8z" clip-path="url(#a)"/><path fill="#e6e6e6" d="M1866.8 454.14h79.936V289.86H1866.8z" clip-path="url(#a)"/><text x="130.442" y="434.846" fill="#10302c" font-family="'Montserrat'" font-size="30" font-weight="700" text-anchor="middle">38%</text><text x="308.079" y="440.85" fill="#10302c" font-family="'Montserrat'" font-size="30" font-weight="700" text-anchor="middle">48%</text><text x="396.897" y="435.833" fill="#10302c" font-family="'Montserrat'" font-size="30" font-weight="700" text-anchor="middle">49%</text><text x="485.715" y="422.222" fill="#10302c" font-family="'Montserrat'" font-size="30" font-weight="700" text-anchor="middle">51%</text><text x="574.533" y="373.329" fill="#10302c" font-family="'Montserrat'" font-size="30" font-weight="700" text-anchor="middle">43%</text><text x="663.351" y="357.127" fill="#10302c" font-family="'Montserrat'" font-size="30" font-weight="700" text-anchor="middle">35%</text><text x="752.169" y="369.34" fill="#10302c" font-family="'Montserrat'" font-size="30" font-weight="700" text-anchor="middle">32%</text><text x="840.987" y="361.075" fill="#10302c" font-family="'Montserrat'" font-size="30" font-weight="700" text-anchor="middle">38%</text><text x="929.805" y="364.159" fill="#10302c" font-family="'Montserrat'" font-size="30" font-weight="700" text-anchor="middle">39%</text><text x="1018.623" y="370.903" fill="#10302c" font-family="'Montserrat'" font-size="30" font-weight="700" text-anchor="middle">38%</text><text x="1107.442" y="355.811" fill="#10302c" font-family="'Montserrat'" font-size="30" font-weight="700" text-anchor="middle">40%</text><text x="1196.26" y="332.701" fill="#10302c" font-family="'Montserrat'" font-size="30" font-weight="700" text-anchor="middle">36%</text><text x="1285.078" y="355.893" fill="#10302c" font-family="'Montserrat'" font-size="30" font-weight="700" text-anchor="middle">26%</text><text x="1373.896" y="333.935" fill="#10302c" font-family="'Montserrat'" font-size="30" font-weight="700" text-anchor="middle">23%</text><text x="1462.714" y="297.994" fill="#10302c" font-family="'Montserrat'" font-size="30" font-weight="700" text-anchor="middle">31%</text><text x="1551.532" y="260.039" fill="#10302c" font-family="'Montserrat'" font-size="30" font-weight="700" text-anchor="middle">34%</text><text x="1640.35" y="276.241" fill="#10302c" font-family="'Montserrat'" font-size="30" font-weight="700" text-anchor="middle">35%</text><text x="1729.168" y="204.896" fill="#10302c" font-family="'Montserrat'" font-size="30" font-weight="700" text-anchor="middle">37%</text><text x="1817.986" y="86.466" fill="#10302c" font-family="'Montserrat'" font-size="30" font-weight="700" text-anchor="middle">35%</text><text x="1906.804" y="271.307" fill="#10302c" font-family="'Montserrat'" font-size="30" font-weight="700" text-anchor="middle">11%</text><defs><clipPath id="a"><path d="M86.033 7.2h1865.2v466.97H86.033z"/></clipPath></defs></svg>