<?xml version="1.0" encoding="UTF-8"?>
<!DOCTYPE svg  PUBLIC '-//W3C//DTD SVG 1.1//EN'  'http://www.w3.org/Graphics/SVG/1.1/DTD/svg11.dtd'>
<svg width="1577pt" height="569.05pt" version="1.1" viewBox="0 0 1577 569.05" xmlns="http://www.w3.org/2000/svg" xmlns:xlink="http://www.w3.org/1999/xlink">
 <defs>
  <style type="text/css">*{stroke-linejoin: round; stroke-linecap: butt}</style>
 </defs>
 <path d="m0 569.05h1577v-569.05h-1577z" fill="#fff"/>
 <path d="m90.806 357.3h1479v-341.96h-1479z" fill="#fff"/>
 <defs>
  <path id="b" d="m0 0v3.5" stroke="#000" stroke-width=".8"/>
 </defs>
 <use x="127.779938" y="357.3" stroke="#000000" stroke-width=".8" xlink:href="#b"/>
 <text transform="translate(121.23 512.77) rotate(-90)" font-family="'Poppins'" font-size="25px" font-weight="500">06-08-2015</text>
 <use x="201.727937" y="357.3" stroke="#000000" stroke-width=".8" xlink:href="#b"/>
 <text transform="translate(195.18 505.57) rotate(-90)" font-family="'Poppins'" font-size="25px" font-weight="500">18-06-2016</text>
 <use x="275.675938" y="357.3" stroke="#000000" stroke-width=".8" xlink:href="#b"/>
 <text transform="translate(269.13 511.18) rotate(-90)" font-family="'Poppins'" font-size="25px" font-weight="500">29-06-2016</text>
 <use x="349.623938" y="357.3" stroke="#000000" stroke-width=".8" xlink:href="#b"/>
 <text transform="translate(343.07 508.85) rotate(-90)" font-family="'Poppins'" font-size="25px" font-weight="500">06-07-2017</text>
 <use x="423.571938" y="357.3" stroke="#000000" stroke-width=".8" xlink:href="#b"/>
 <text transform="translate(417.02 496.65) rotate(-90)" font-family="'Poppins'" font-size="25px" font-weight="500">21-01-2018</text>
 <use x="497.519938" y="357.3" stroke="#000000" stroke-width=".8" xlink:href="#b"/>
 <text transform="translate(490.97 505.6) rotate(-90)" font-family="'Poppins'" font-size="25px" font-weight="500">18-04-2018</text>
 <use x="571.467938" y="357.3" stroke="#000000" stroke-width=".8" xlink:href="#b"/>
 <text transform="translate(564.92 507.92) rotate(-90)" font-family="'Poppins'" font-size="25px" font-weight="500">22-02-2019</text>
 <use x="645.415938" y="357.3" stroke="#000000" stroke-width=".8" xlink:href="#b"/>
 <text transform="translate(638.87 512.9) rotate(-90)" font-family="'Poppins'" font-size="25px" font-weight="500">04-06-2019</text>
 <use x="719.363938" y="357.3" stroke="#000000" stroke-width=".8" xlink:href="#b"/>
 <text transform="translate(712.81 517.1) rotate(-90)" font-family="'Poppins'" font-size="25px" font-weight="500">02-04-2020</text>
 <use x="793.311937" y="357.3" stroke="#000000" stroke-width=".8" xlink:href="#b"/>
 <text transform="translate(786.76 510.05) rotate(-90)" font-family="'Poppins'" font-size="25px" font-weight="500">05-03-2021</text>
 <use x="867.259937" y="357.3" stroke="#000000" stroke-width=".8" xlink:href="#b"/>
 <text transform="translate(860.71 506.48) rotate(-90)" font-family="'Poppins'" font-size="25px" font-weight="500">27-03-2021</text>
 <use x="941.207938" y="357.3" stroke="#000000" stroke-width=".8" xlink:href="#b"/>
 <text transform="translate(934.66 509.65) rotate(-90)" font-family="'Poppins'" font-size="25px" font-weight="500">26-05-2021</text>
 <use x="1015.155938" y="357.3" stroke="#000000" stroke-width=".8" xlink:href="#b"/>
 <text transform="translate(1008.6 495.28) rotate(-90)" font-family="'Poppins'" font-size="25px" font-weight="500">24-11-2021</text>
 <use x="1089.103938" y="357.3" stroke="#000000" stroke-width=".8" xlink:href="#b"/>
 <text transform="translate(1082.6 508.03) rotate(-90)" font-family="'Poppins'" font-size="25px" font-weight="500">05-12-2022</text>
 <use x="1163.051938" y="357.3" stroke="#000000" stroke-width=".8" xlink:href="#b"/>
 <text transform="translate(1156.5 508.65) rotate(-90)" font-family="'Poppins'" font-size="25px" font-weight="500">24-01-2023</text>
 <use x="1236.999937" y="357.3" stroke="#000000" stroke-width=".8" xlink:href="#b"/>
 <text transform="translate(1230.4 506.48) rotate(-90)" font-family="'Poppins'" font-size="25px" font-weight="500">27-01-2023</text>
 <use x="1310.947938" y="357.3" stroke="#000000" stroke-width=".8" xlink:href="#b"/>
 <text transform="translate(1304.4 515.42) rotate(-90)" font-family="'Poppins'" font-size="25px" font-weight="500">28-02-2024</text>
 <use x="1384.895938" y="357.3" stroke="#000000" stroke-width=".8" xlink:href="#b"/>
 <text transform="translate(1378.3 516.08) rotate(-90)" font-family="'Poppins'" font-size="25px" font-weight="500">23-04-2024</text>
 <use x="1458.843938" y="357.3" stroke="#000000" stroke-width=".8" xlink:href="#b"/>
 <text transform="translate(1452.3 513.7) rotate(-90)" font-family="'Poppins'" font-size="25px" font-weight="500">22-02-2025</text>
 <use x="1532.791938" y="357.3" stroke="#000000" stroke-width=".8" xlink:href="#b"/>
 <text transform="translate(1526.2 518.8) rotate(-90)" font-family="'Poppins'" font-size="25px" font-weight="500">04-04-2025</text>
 <text transform="rotate(-0 830.29 555.3)" x="830.285938" y="555.3" font-family="'Poppins'" font-size="25px" font-weight="500" text-anchor="middle">Fecha</text>
 <defs>
  <path id="c" d="m0 0h-3.5" stroke="#000" stroke-width=".8"/>
 </defs>
 <use x="90.805937" y="357.3" stroke="#000000" stroke-width=".8" xlink:href="#c"/>
 <text transform="rotate(-0 83.806 365.44)" x="83.805937" y="365.44" font-family="'Poppins'" font-size="22px" font-weight="500" text-anchor="end">0</text>
 <use x="90.805937" y="288.908" stroke="#000000" stroke-width=".8" xlink:href="#c"/>
 <text transform="rotate(-0 83.806 297.05)" x="83.805937" y="297.048" font-family="'Poppins'" font-size="22px" font-weight="500" text-anchor="end">20</text>
 <use x="90.805937" y="220.516" stroke="#000000" stroke-width=".8" xlink:href="#c"/>
 <text transform="rotate(-0 83.806 228.66)" x="83.805937" y="228.656" font-family="'Poppins'" font-size="22px" font-weight="500" text-anchor="end">40</text>
 <use x="90.805937" y="152.124" stroke="#000000" stroke-width=".8" xlink:href="#c"/>
 <text transform="rotate(-0 83.806 160.26)" x="83.805937" y="160.264" font-family="'Poppins'" font-size="22px" font-weight="500" text-anchor="end">60</text>
 <use x="90.805937" y="83.732" stroke="#000000" stroke-width=".8" xlink:href="#c"/>
 <text transform="rotate(-0 83.806 91.872)" x="83.805937" y="91.872" font-family="'Poppins'" font-size="22px" font-weight="500" text-anchor="end">80</text>
 <use x="90.805937" y="15.34" stroke="#000000" stroke-width=".8" xlink:href="#c"/>
 <text transform="rotate(-0 83.806 23.48)" x="83.805937" y="23.48" font-family="'Poppins'" font-size="22px" font-weight="500" text-anchor="end">100</text>
 <text transform="rotate(-90 24.14 186.32)" x="24.14" y="186.32" font-family="'Poppins'" font-size="22px" font-weight="500" text-anchor="middle">Porcentaje</text>
 <path d="m94.503 357.3h66.553v-70.102h-66.553z" clip-path="url(#a)" fill="#10302c"/>
 <path d="m94.503 287.2h66.553v-202.44h-66.553z" clip-path="url(#a)" fill="#4c6a67"/>
 <path d="m94.503 84.758h66.553v-69.418h-66.553z" clip-path="url(#a)" fill="#8fa8a6"/>
 <path d="m168.45 357.3h66.553v-80.703h-66.553z" clip-path="url(#a)" fill="#10302c"/>
 <path d="m168.45 276.6h66.553v-193.55h-66.553z" clip-path="url(#a)" fill="#4c6a67"/>
 <path d="m168.45 83.048h66.553v-67.708h-66.553z" clip-path="url(#a)" fill="#8fa8a6"/>
 <path d="m242.4 357.3h66.553v-71.812h-66.553z" clip-path="url(#a)" fill="#10302c"/>
 <path d="m242.4 285.49h66.553v-21.202h-66.553z" clip-path="url(#a)" fill="#4c6a67"/>
 <path d="m242.4 264.29h66.553v-248.95h-66.553z" clip-path="url(#a)" fill="#8fa8a6"/>
 <path d="m316.35 357.3h66.553v-158.33h-66.553z" clip-path="url(#a)" fill="#10302c"/>
 <path d="m316.35 198.97h66.553v-70.102h-66.553z" clip-path="url(#a)" fill="#4c6a67"/>
 <path d="m316.35 128.87h66.553v-113.53h-66.553z" clip-path="url(#a)" fill="#8fa8a6"/>
 <path d="m390.3 357.3h66.553v-156.62h-66.553z" clip-path="url(#a)" fill="#10302c"/>
 <path d="m390.3 200.68h66.553v-12.653h-66.553z" clip-path="url(#a)" fill="#4c6a67"/>
 <path d="m390.3 188.03h66.553v-172.69h-66.553z" clip-path="url(#a)" fill="#8fa8a6"/>
 <path d="m464.24 357.3h66.553v-112.85h-66.553z" clip-path="url(#a)" fill="#10302c"/>
 <path d="m464.24 244.45h66.553v-108.74h-66.553z" clip-path="url(#a)" fill="#4c6a67"/>
 <path d="m464.24 135.71h66.553v-120.37h-66.553z" clip-path="url(#a)" fill="#8fa8a6"/>
 <path d="m538.19 357.3h66.553v-124.47h-66.553z" clip-path="url(#a)" fill="#10302c"/>
 <path d="m538.19 232.83h66.553v-109.09h-66.553z" clip-path="url(#a)" fill="#4c6a67"/>
 <path d="m538.19 123.74h66.553v-108.4h-66.553z" clip-path="url(#a)" fill="#8fa8a6"/>
 <path d="m612.14 357.3h66.553v-138.15h-66.553z" clip-path="url(#a)" fill="#10302c"/>
 <path d="m612.14 219.15h66.553v-82.754h-66.553z" clip-path="url(#a)" fill="#4c6a67"/>
 <path d="m612.14 136.39h66.553v-121.05h-66.553z" clip-path="url(#a)" fill="#8fa8a6"/>
 <path d="m686.09 357.3h66.553v-86.858h-66.553z" clip-path="url(#a)" fill="#10302c"/>
 <path d="m686.09 270.44h66.553v-108.74h-66.553z" clip-path="url(#a)" fill="#4c6a67"/>
 <path d="m686.09 161.7h66.553v-146.36h-66.553z" clip-path="url(#a)" fill="#8fa8a6"/>
 <path d="m760.04 357.3h66.553v-161.75h-66.553z" clip-path="url(#a)" fill="#10302c"/>
 <path d="m760.04 195.55h66.553v-174.74h-66.553z" clip-path="url(#a)" fill="#4c6a67"/>
 <path d="m760.04 20.811h66.553v-5.4714h-66.553z" clip-path="url(#a)" fill="#8fa8a6"/>
 <path d="m833.98 357.3h66.553v-47.874h-66.553z" clip-path="url(#a)" fill="#10302c"/>
 <path d="m833.98 309.43h66.553v-176.11h-66.553z" clip-path="url(#a)" fill="#4c6a67"/>
 <path d="m833.98 133.32h66.553v-117.98h-66.553z" clip-path="url(#a)" fill="#8fa8a6"/>
 <path d="m907.93 357.3h66.553v-101.22h-66.553z" clip-path="url(#a)" fill="#10302c"/>
 <path d="m907.93 256.08h66.553v-30.434h-66.553z" clip-path="url(#a)" fill="#4c6a67"/>
 <path d="m907.93 225.65h66.553v-210.31h-66.553z" clip-path="url(#a)" fill="#8fa8a6"/>
 <path d="m981.88 357.3h66.553v-149.78h-66.553z" clip-path="url(#a)" fill="#10302c"/>
 <path d="m981.88 207.52h66.553v-177.48h-66.553z" clip-path="url(#a)" fill="#4c6a67"/>
 <path d="m981.88 30.044h66.553v-14.704h-66.553z" clip-path="url(#a)" fill="#8fa8a6"/>
 <path d="m1055.8 357.3h66.553v-56.765h-66.553z" clip-path="url(#a)" fill="#10302c"/>
 <path d="m1055.8 300.53h66.553v-258.52h-66.553z" clip-path="url(#a)" fill="#4c6a67"/>
 <path d="m1055.8 42.013h66.553v-26.673h-66.553z" clip-path="url(#a)" fill="#8fa8a6"/>
 <path d="m1129.8 357.3h66.553v-219.2h-66.553z" clip-path="url(#a)" fill="#10302c"/>
 <path d="m1129.8 138.1h66.553v-7.1812h-66.553z" clip-path="url(#a)" fill="#4c6a67"/>
 <path d="m1129.8 130.92h66.553v-115.58h-66.553z" clip-path="url(#a)" fill="#8fa8a6"/>
 <path d="m1203.7 357.3h66.553v-49.926h-66.553z" clip-path="url(#a)" fill="#10302c"/>
 <path d="m1203.7 307.37h66.553v-215.78h-66.553z" clip-path="url(#a)" fill="#4c6a67"/>
 <path d="m1203.7 91.597h66.553v-76.257h-66.553z" clip-path="url(#a)" fill="#8fa8a6"/>
 <path d="m1277.7 357.3h66.553v-82.07h-66.553z" clip-path="url(#a)" fill="#10302c"/>
 <path d="m1277.7 275.23h66.553v-202.1h-66.553z" clip-path="url(#a)" fill="#4c6a67"/>
 <path d="m1277.7 73.131h66.553v-57.791h-66.553z" clip-path="url(#a)" fill="#8fa8a6"/>
 <path d="m1351.6 357.3h66.553v-150.8h-66.553z" clip-path="url(#a)" fill="#10302c"/>
 <path d="m1351.6 206.5h66.553v-113.87h-66.553z" clip-path="url(#a)" fill="#4c6a67"/>
 <path d="m1351.6 92.623h66.553v-77.283h-66.553z" clip-path="url(#a)" fill="#8fa8a6"/>
 <path d="m1425.6 357.3h66.553v-147.38h-66.553z" clip-path="url(#a)" fill="#10302c"/>
 <path d="m1425.6 209.92h66.553v-159.35h-66.553z" clip-path="url(#a)" fill="#4c6a67"/>
 <path d="m1425.6 50.562h66.553v-35.222h-66.553z" clip-path="url(#a)" fill="#8fa8a6"/>
 <path d="m1499.5 357.3h66.553v-197.31h-66.553z" clip-path="url(#a)" fill="#10302c"/>
 <path d="m1499.5 159.99h66.553v-142.26h-66.553z" clip-path="url(#a)" fill="#4c6a67"/>
 <path d="m1499.5 17.734h66.553v-2.3937h-66.553z" clip-path="url(#a)" fill="#8fa8a6"/>
 <text transform="rotate(-0 127.78 326.31)" x="127.779938" y="326.311834" fill="#ffffff" font-family="'Poppins'" font-size="17px" font-weight="500" text-anchor="middle">20.5%</text>
 <text transform="rotate(-0 127.78 190.04)" x="127.779938" y="190.040774" fill="#ffffff" font-family="'Poppins'" font-size="17px" font-weight="500" text-anchor="middle">59.2%</text>
 <text transform="rotate(-0 127.78 54.112)" x="127.779938" y="54.111674" fill="#ffffff" font-family="'Poppins'" font-size="17px" font-weight="500" text-anchor="middle">20.3%</text>
 <text transform="rotate(-0 201.73 321.01)" x="201.727937" y="321.011454" fill="#ffffff" font-family="'Poppins'" font-size="17px" font-weight="500" text-anchor="middle">23.6%</text>
 <text transform="rotate(-0 201.73 183.89)" x="201.727937" y="183.885494" fill="#ffffff" font-family="'Poppins'" font-size="17px" font-weight="500" text-anchor="middle">56.6%</text>
 <text transform="rotate(-0 201.73 53.257)" x="201.727937" y="53.256774" fill="#ffffff" font-family="'Poppins'" font-size="17px" font-weight="500" text-anchor="middle">19.8%</text>
 <text transform="rotate(-0 275.68 325.46)" x="275.675938" y="325.456934" fill="#ffffff" font-family="'Poppins'" font-size="17px" font-weight="500" text-anchor="middle">21.0%</text>
 <text transform="rotate(-0 275.68 143.88)" x="275.675938" y="143.876174" fill="#ffffff" font-family="'Poppins'" font-size="17px" font-weight="500" text-anchor="middle">72.8%</text>
 <text transform="rotate(-0 349.62 282.2)" x="349.623938" y="282.198994" fill="#ffffff" font-family="'Poppins'" font-size="17px" font-weight="500" text-anchor="middle">46.3%</text>
 <text transform="rotate(-0 349.62 167.98)" x="349.623938" y="167.984354" fill="#ffffff" font-family="'Poppins'" font-size="17px" font-weight="500" text-anchor="middle">20.5%</text>
 <text transform="rotate(-0 349.62 76.168)" x="349.623938" y="76.168094" fill="#ffffff" font-family="'Poppins'" font-size="17px" font-weight="500" text-anchor="middle">33.2%</text>
 <text transform="rotate(-0 423.57 283.05)" x="423.571938" y="283.053894" fill="#ffffff" font-family="'Poppins'" font-size="17px" font-weight="500" text-anchor="middle">45.8%</text>
 <text transform="rotate(-0 423.57 105.75)" x="423.571938" y="105.747634" fill="#ffffff" font-family="'Poppins'" font-size="17px" font-weight="500" text-anchor="middle">50.5%</text>
 <text transform="rotate(-0 497.52 304.94)" x="497.519938" y="304.939334" fill="#ffffff" font-family="'Poppins'" font-size="17px" font-weight="500" text-anchor="middle">33.0%</text>
 <text transform="rotate(-0 497.52 194.14)" x="497.519938" y="194.144294" fill="#ffffff" font-family="'Poppins'" font-size="17px" font-weight="500" text-anchor="middle">31.8%</text>
 <text transform="rotate(-0 497.52 79.588)" x="497.519938" y="79.587694" fill="#ffffff" font-family="'Poppins'" font-size="17px" font-weight="500" text-anchor="middle">35.2%</text>
 <text transform="rotate(-0 571.47 299.13)" x="571.467938" y="299.126014" fill="#ffffff" font-family="'Poppins'" font-size="17px" font-weight="500" text-anchor="middle">36.4%</text>
 <text transform="rotate(-0 571.47 182.35)" x="571.467938" y="182.346674" fill="#ffffff" font-family="'Poppins'" font-size="17px" font-weight="500" text-anchor="middle">31.9%</text>
 <text transform="rotate(-0 571.47 73.603)" x="571.467938" y="73.603394" fill="#ffffff" font-family="'Poppins'" font-size="17px" font-weight="500" text-anchor="middle">31.7%</text>
 <text transform="rotate(-0 645.42 292.29)" x="645.415938" y="292.286814" fill="#ffffff" font-family="'Poppins'" font-size="17px" font-weight="500" text-anchor="middle">40.4%</text>
 <text transform="rotate(-0 645.42 181.83)" x="645.415938" y="181.833734" fill="#ffffff" font-family="'Poppins'" font-size="17px" font-weight="500" text-anchor="middle">24.2%</text>
 <text transform="rotate(-0 645.42 79.93)" x="645.415938" y="79.929654" fill="#ffffff" font-family="'Poppins'" font-size="17px" font-weight="500" text-anchor="middle">35.4%</text>
 <text transform="rotate(-0 719.36 317.93)" x="719.363938" y="317.933814" fill="#ffffff" font-family="'Poppins'" font-size="17px" font-weight="500" text-anchor="middle">25.4%</text>
 <text transform="rotate(-0 719.36 220.13)" x="719.363938" y="220.133254" fill="#ffffff" font-family="'Poppins'" font-size="17px" font-weight="500" text-anchor="middle">31.8%</text>
 <text transform="rotate(-0 719.36 92.582)" x="719.363938" y="92.582174" fill="#ffffff" font-family="'Poppins'" font-size="17px" font-weight="500" text-anchor="middle">42.8%</text>
 <text transform="rotate(-0 793.31 280.49)" x="793.311937" y="280.489194" fill="#ffffff" font-family="'Poppins'" font-size="17px" font-weight="500" text-anchor="middle">47.3%</text>
 <text transform="rotate(-0 793.31 112.24)" x="793.311937" y="112.244874" fill="#ffffff" font-family="'Poppins'" font-size="17px" font-weight="500" text-anchor="middle">51.1%</text>
 <text transform="rotate(-0 867.26 337.43)" x="867.259937" y="337.425534" fill="#ffffff" font-family="'Poppins'" font-size="17px" font-weight="500" text-anchor="middle">14.0%</text>
 <text transform="rotate(-0 867.26 225.43)" x="867.259937" y="225.433634" fill="#ffffff" font-family="'Poppins'" font-size="17px" font-weight="500" text-anchor="middle">51.5%</text>
 <text transform="rotate(-0 867.26 78.391)" x="867.259937" y="78.390834" fill="#ffffff" font-family="'Poppins'" font-size="17px" font-weight="500" text-anchor="middle">34.5%</text>
 <text transform="rotate(-0 941.21 310.75)" x="941.207938" y="310.752654" fill="#ffffff" font-family="'Poppins'" font-size="17px" font-weight="500" text-anchor="middle">29.6%</text>
 <text transform="rotate(-0 941.21 124.56)" x="941.207938" y="124.555434" fill="#ffffff" font-family="'Poppins'" font-size="17px" font-weight="500" text-anchor="middle">61.5%</text>
 <text transform="rotate(-0 1015.2 286.47)" x="1015.155938" y="286.473494" fill="#ffffff" font-family="'Poppins'" font-size="17px" font-weight="500" text-anchor="middle">43.8%</text>
 <text transform="rotate(-0 1015.2 122.85)" x="1015.155938" y="122.845634" fill="#ffffff" font-family="'Poppins'" font-size="17px" font-weight="500" text-anchor="middle">51.9%</text>
 <text transform="rotate(-0 1089.1 332.98)" x="1089.103938" y="332.980054" fill="#ffffff" font-family="'Poppins'" font-size="17px" font-weight="500" text-anchor="middle">16.6%</text>
 <text transform="rotate(-0 1089.1 175.34)" x="1089.103938" y="175.336494" fill="#ffffff" font-family="'Poppins'" font-size="17px" font-weight="500" text-anchor="middle">75.6%</text>
 <text transform="rotate(-0 1163.1 251.76)" x="1163.051938" y="251.764554" fill="#ffffff" font-family="'Poppins'" font-size="17px" font-weight="500" text-anchor="middle">64.1%</text>
 <text transform="rotate(-0 1163.1 77.194)" x="1163.051938" y="77.193974" fill="#ffffff" font-family="'Poppins'" font-size="17px" font-weight="500" text-anchor="middle">33.8%</text>
 <text transform="rotate(-0 1237 336.4)" x="1236.999937" y="336.399654" fill="#ffffff" font-family="'Poppins'" font-size="17px" font-weight="500" text-anchor="middle">14.6%</text>
 <text transform="rotate(-0 1237 203.55)" x="1236.999937" y="203.548194" fill="#ffffff" font-family="'Poppins'" font-size="17px" font-weight="500" text-anchor="middle">63.1%</text>
 <text transform="rotate(-0 1237 57.531)" x="1236.999937" y="57.531274" fill="#ffffff" font-family="'Poppins'" font-size="17px" font-weight="500" text-anchor="middle">22.3%</text>
 <text transform="rotate(-0 1310.9 320.33)" x="1310.947938" y="320.327534" fill="#ffffff" font-family="'Poppins'" font-size="17px" font-weight="500" text-anchor="middle">24.0%</text>
 <text transform="rotate(-0 1310.9 178.24)" x="1310.947938" y="178.243154" fill="#ffffff" font-family="'Poppins'" font-size="17px" font-weight="500" text-anchor="middle">59.1%</text>
 <text transform="rotate(-0 1310.9 48.298)" x="1310.947938" y="48.298354" fill="#ffffff" font-family="'Poppins'" font-size="17px" font-weight="500" text-anchor="middle">16.9%</text>
 <text transform="rotate(-0 1384.9 285.96)" x="1384.895938" y="285.960554" fill="#ffffff" font-family="'Poppins'" font-size="17px" font-weight="500" text-anchor="middle">44.1%</text>
 <text transform="rotate(-0 1384.9 153.62)" x="1384.895938" y="153.622034" fill="#ffffff" font-family="'Poppins'" font-size="17px" font-weight="500" text-anchor="middle">33.3%</text>
 <text transform="rotate(-0 1384.9 58.044)" x="1384.895938" y="58.044214" fill="#ffffff" font-family="'Poppins'" font-size="17px" font-weight="500" text-anchor="middle">22.6%</text>
 <text transform="rotate(-0 1458.8 287.67)" x="1458.843938" y="287.670354" fill="#ffffff" font-family="'Poppins'" font-size="17px" font-weight="500" text-anchor="middle">43.1%</text>
 <text transform="rotate(-0 1458.8 134.3)" x="1458.843938" y="134.301294" fill="#ffffff" font-family="'Poppins'" font-size="17px" font-weight="500" text-anchor="middle">46.6%</text>
 <text transform="rotate(-0 1532.8 262.71)" x="1532.791938" y="262.707274" fill="#ffffff" font-family="'Poppins'" font-size="17px" font-weight="500" text-anchor="middle">57.7%</text>
 <text transform="rotate(-0 1532.8 92.924)" x="1532.791938" y="92.924134" fill="#ffffff" font-family="'Poppins'" font-size="17px" font-weight="500" text-anchor="middle">41.6%</text>
 <defs>
  <clipPath id="a">
   <rect x="90.806" y="15.34" width="1479" height="341.96"/>
  </clipPath>
 </defs>
</svg>
