<?xml version="1.0" encoding="utf-8" standalone="no"?>
<!DOCTYPE svg PUBLIC "-//W3C//DTD SVG 1.1//EN"
  "http://www.w3.org/Graphics/SVG/1.1/DTD/svg11.dtd">
<svg xmlns:xlink="http://www.w3.org/1999/xlink" width="1116.0225pt" height="566.623923pt" viewBox="0 0 1116.0225 566.623923" xmlns="http://www.w3.org/2000/svg" version="1.1">
 <metadata>
  <rdf:RDF xmlns:dc="http://purl.org/dc/elements/1.1/" xmlns:cc="http://creativecommons.org/ns#" xmlns:rdf="http://www.w3.org/1999/02/22-rdf-syntax-ns#">
   <cc:Work>
    <dc:type rdf:resource="http://purl.org/dc/dcmitype/StillImage"/>
    <dc:date>2025-05-26T10:08:25.238655</dc:date>
    <dc:format>image/svg+xml</dc:format>
    <dc:creator>
     <cc:Agent>
      <dc:title>Matplotlib v3.10.1, https://matplotlib.org/</dc:title>
     </cc:Agent>
    </dc:creator>
   </cc:Work>
  </rdf:RDF>
 </metadata>
 <defs>
  <style type="text/css">*{stroke-linejoin: round; stroke-linecap: butt}</style>
 </defs>
 <g id="figure_1">
  <g id="patch_1">
   <path d="M 0 566.623923 
L 1116.0225 566.623923 
L 1116.0225 0 
L 0 0 
z
" style="fill: #ffffff"/>
  </g>
  <g id="axes_1">
   <g id="patch_2">
    <path d="M 83.2525 399.248142 
L 1108.8225 399.248142 
L 1108.8225 69.758542 
L 83.2525 69.758542 
z
" style="fill: #ffffff"/>
   </g>
   <g id="matplotlib.axis_1">
    <g id="xtick_1">
     <g id="line2d_1">
      <defs>
       <path id="m28484c7a36" d="M 0 0 
L 0 3.5 
" style="stroke: #000000; stroke-width: 0.8"/>
      </defs>
      <g>
       <use xlink:href="#m28484c7a36" x="125.984583" y="399.248142" style="stroke: #000000; stroke-width: 0.8"/>
      </g>
     </g>
     <g id="text_1">
      <text style="font-weight: 500; font-size: 25px; font-family: 'Poppins'" transform="translate(119.433802 551.951267) rotate(-90)">31-05-2025</text>
     </g>
    </g>
    <g id="xtick_2">
     <g id="line2d_2">
      <g>
       <use xlink:href="#m28484c7a36" x="211.44875" y="399.248142" style="stroke: #000000; stroke-width: 0.8"/>
      </g>
     </g>
     <g id="text_2">
      <text style="font-weight: 500; font-size: 25px; font-family: 'Poppins'" transform="translate(204.897969 557.173923) rotate(-90)">28-02-2025</text>
     </g>
    </g>
    <g id="xtick_3">
     <g id="line2d_3">
      <g>
       <use xlink:href="#m28484c7a36" x="296.912917" y="399.248142" style="stroke: #000000; stroke-width: 0.8"/>
      </g>
     </g>
     <g id="text_3">
      <text style="font-weight: 500; font-size: 25px; font-family: 'Poppins'" transform="translate(290.362135 559.298923) rotate(-90)">30-06-2025</text>
     </g>
    </g>
    <g id="xtick_4">
     <g id="line2d_4">
      <g>
       <use xlink:href="#m28484c7a36" x="382.377083" y="399.248142" style="stroke: #000000; stroke-width: 0.8"/>
      </g>
     </g>
     <g id="text_4">
      <text style="font-weight: 500; font-size: 25px; font-family: 'Poppins'" transform="translate(375.826302 544.724704) rotate(-90)">31-10-2025</text>
     </g>
    </g>
    <g id="xtick_5">
     <g id="line2d_5">
      <g>
       <use xlink:href="#m28484c7a36" x="467.84125" y="399.248142" style="stroke: #000000; stroke-width: 0.8"/>
      </g>
     </g>
     <g id="text_5">
      <text style="font-weight: 500; font-size: 25px; font-family: 'Poppins'" transform="translate(461.290469 543.127048) rotate(-90)">31-12-2025</text>
     </g>
    </g>
    <g id="xtick_6">
     <g id="line2d_6">
      <g>
       <use xlink:href="#m28484c7a36" x="553.305417" y="399.248142" style="stroke: #000000; stroke-width: 0.8"/>
      </g>
     </g>
     <g id="text_6">
      <text style="font-weight: 500; font-size: 25px; font-family: 'Poppins'" transform="translate(546.754635 544.724704) rotate(-90)">30-11-2025</text>
     </g>
    </g>
    <g id="xtick_7">
     <g id="line2d_7">
      <g>
       <use xlink:href="#m28484c7a36" x="638.769583" y="399.248142" style="stroke: #000000; stroke-width: 0.8"/>
      </g>
     </g>
     <g id="text_7">
      <text style="font-weight: 500; font-size: 25px; font-family: 'Poppins'" transform="translate(632.218802 544.724704) rotate(-90)">31-01-2025</text>
     </g>
    </g>
    <g id="xtick_8">
     <g id="line2d_8">
      <g>
       <use xlink:href="#m28484c7a36" x="724.23375" y="399.248142" style="stroke: #000000; stroke-width: 0.8"/>
      </g>
     </g>
     <g id="text_8">
      <text style="font-weight: 500; font-size: 25px; font-family: 'Poppins'" transform="translate(717.682969 550.826267) rotate(-90)">31-03-2025</text>
     </g>
    </g>
    <g id="xtick_9">
     <g id="line2d_9">
      <g>
       <use xlink:href="#m28484c7a36" x="809.697917" y="399.248142" style="stroke: #000000; stroke-width: 0.8"/>
      </g>
     </g>
     <g id="text_9">
      <text style="font-weight: 500; font-size: 25px; font-family: 'Poppins'" transform="translate(803.147135 549.974704) rotate(-90)">31-07-2025</text>
     </g>
    </g>
    <g id="xtick_10">
     <g id="line2d_10">
      <g>
       <use xlink:href="#m28484c7a36" x="895.162083" y="399.248142" style="stroke: #000000; stroke-width: 0.8"/>
      </g>
     </g>
     <g id="text_10">
      <text style="font-weight: 500; font-size: 25px; font-family: 'Poppins'" transform="translate(888.611302 559.123142) rotate(-90)">30-09-2025</text>
     </g>
    </g>
    <g id="xtick_11">
     <g id="line2d_11">
      <g>
       <use xlink:href="#m28484c7a36" x="980.62625" y="399.248142" style="stroke: #000000; stroke-width: 0.8"/>
      </g>
     </g>
     <g id="text_11">
      <text style="font-weight: 500; font-size: 25px; font-family: 'Poppins'" transform="translate(974.075469 559.423923) rotate(-90)">30-04-2025</text>
     </g>
    </g>
    <g id="xtick_12">
     <g id="line2d_12">
      <g>
       <use xlink:href="#m28484c7a36" x="1066.090417" y="399.248142" style="stroke: #000000; stroke-width: 0.8"/>
      </g>
     </g>
     <g id="text_12">
      <text style="font-weight: 500; font-size: 25px; font-family: 'Poppins'" transform="translate(1059.539635 551.923923) rotate(-90)">31-08-2025</text>
     </g>
    </g>
   </g>
   <g id="matplotlib.axis_2">
    <g id="ytick_1">
     <g id="line2d_13">
      <path d="M 83.2525 399.248142 
L 1108.8225 399.248142 
" clip-path="url(#pb58704c792)" style="fill: none; stroke: #b9b9b9; stroke-width: 0.75; stroke-linecap: square"/>
     </g>
     <g id="line2d_14">
      <defs>
       <path id="m2191493bae" d="M 0 0 
L -3.5 0 
" style="stroke: #000000; stroke-width: 0.8"/>
      </defs>
      <g>
       <use xlink:href="#m2191493bae" x="83.2525" y="399.248142" style="stroke: #000000; stroke-width: 0.8"/>
      </g>
     </g>
     <g id="text_13">
      <text style="font-weight: 500; font-size: 22px; font-family: 'Poppins'; text-anchor: end" x="76.2525" y="407.388142" transform="rotate(-0 76.2525 407.388142)">0</text>
     </g>
    </g>
    <g id="ytick_2">
     <g id="line2d_15">
      <path d="M 83.2525 347.243333 
L 1108.8225 347.243333 
" clip-path="url(#pb58704c792)" style="fill: none; stroke: #b9b9b9; stroke-width: 0.75; stroke-linecap: square"/>
     </g>
     <g id="line2d_16">
      <g>
       <use xlink:href="#m2191493bae" x="83.2525" y="347.243333" style="stroke: #000000; stroke-width: 0.8"/>
      </g>
     </g>
     <g id="text_14">
      <text style="font-weight: 500; font-size: 22px; font-family: 'Poppins'; text-anchor: end" x="76.2525" y="355.383333" transform="rotate(-0 76.2525 355.383333)">2,000</text>
     </g>
    </g>
    <g id="ytick_3">
     <g id="line2d_17">
      <path d="M 83.2525 295.238524 
L 1108.8225 295.238524 
" clip-path="url(#pb58704c792)" style="fill: none; stroke: #b9b9b9; stroke-width: 0.75; stroke-linecap: square"/>
     </g>
     <g id="line2d_18">
      <g>
       <use xlink:href="#m2191493bae" x="83.2525" y="295.238524" style="stroke: #000000; stroke-width: 0.8"/>
      </g>
     </g>
     <g id="text_15">
      <text style="font-weight: 500; font-size: 22px; font-family: 'Poppins'; text-anchor: end" x="76.2525" y="303.378524" transform="rotate(-0 76.2525 303.378524)">4,000</text>
     </g>
    </g>
    <g id="ytick_4">
     <g id="line2d_19">
      <path d="M 83.2525 243.233714 
L 1108.8225 243.233714 
" clip-path="url(#pb58704c792)" style="fill: none; stroke: #b9b9b9; stroke-width: 0.75; stroke-linecap: square"/>
     </g>
     <g id="line2d_20">
      <g>
       <use xlink:href="#m2191493bae" x="83.2525" y="243.233714" style="stroke: #000000; stroke-width: 0.8"/>
      </g>
     </g>
     <g id="text_16">
      <text style="font-weight: 500; font-size: 22px; font-family: 'Poppins'; text-anchor: end" x="76.2525" y="251.373714" transform="rotate(-0 76.2525 251.373714)">6,000</text>
     </g>
    </g>
    <g id="ytick_5">
     <g id="line2d_21">
      <path d="M 83.2525 191.228905 
L 1108.8225 191.228905 
" clip-path="url(#pb58704c792)" style="fill: none; stroke: #b9b9b9; stroke-width: 0.75; stroke-linecap: square"/>
     </g>
     <g id="line2d_22">
      <g>
       <use xlink:href="#m2191493bae" x="83.2525" y="191.228905" style="stroke: #000000; stroke-width: 0.8"/>
      </g>
     </g>
     <g id="text_17">
      <text style="font-weight: 500; font-size: 22px; font-family: 'Poppins'; text-anchor: end" x="76.2525" y="199.368905" transform="rotate(-0 76.2525 199.368905)">8,000</text>
     </g>
    </g>
    <g id="ytick_6">
     <g id="line2d_23">
      <path d="M 83.2525 139.224096 
L 1108.8225 139.224096 
" clip-path="url(#pb58704c792)" style="fill: none; stroke: #b9b9b9; stroke-width: 0.75; stroke-linecap: square"/>
     </g>
     <g id="line2d_24">
      <g>
       <use xlink:href="#m2191493bae" x="83.2525" y="139.224096" style="stroke: #000000; stroke-width: 0.8"/>
      </g>
     </g>
     <g id="text_18">
      <text style="font-weight: 500; font-size: 22px; font-family: 'Poppins'; text-anchor: end" x="76.2525" y="147.364096" transform="rotate(-0 76.2525 147.364096)">10,000</text>
     </g>
    </g>
    <g id="ytick_7">
     <g id="line2d_25">
      <path d="M 83.2525 87.219287 
L 1108.8225 87.219287 
" clip-path="url(#pb58704c792)" style="fill: none; stroke: #b9b9b9; stroke-width: 0.75; stroke-linecap: square"/>
     </g>
     <g id="line2d_26">
      <g>
       <use xlink:href="#m2191493bae" x="83.2525" y="87.219287" style="stroke: #000000; stroke-width: 0.8"/>
      </g>
     </g>
     <g id="text_19">
      <text style="font-weight: 500; font-size: 22px; font-family: 'Poppins'; text-anchor: end" x="76.2525" y="95.359287" transform="rotate(-0 76.2525 95.359287)">12,000</text>
     </g>
    </g>
   </g>
   <g id="patch_3">
    <path d="M 87.525708 399.248142 
L 164.443458 399.248142 
L 164.443458 319.030724 
L 87.525708 319.030724 
z
" clip-path="url(#pb58704c792)" style="fill: #10302c"/>
   </g>
   <g id="patch_4">
    <path d="M 87.525708 319.030724 
L 164.443458 319.030724 
L 164.443458 225.500074 
L 87.525708 225.500074 
z
" clip-path="url(#pb58704c792)" style="fill: #4c6a67"/>
   </g>
   <g id="patch_5">
    <path d="M 87.525708 225.500074 
L 164.443458 225.500074 
L 164.443458 138.782055 
L 87.525708 138.782055 
z
" clip-path="url(#pb58704c792)" style="fill: #8fa8a6"/>
   </g>
   <g id="patch_6">
    <path d="M 172.989875 399.248142 
L 249.907625 399.248142 
L 249.907625 327.403498 
L 172.989875 327.403498 
z
" clip-path="url(#pb58704c792)" style="fill: #10302c"/>
   </g>
   <g id="patch_7">
    <path d="M 172.989875 327.403498 
L 249.907625 327.403498 
L 249.907625 252.672587 
L 172.989875 252.672587 
z
" clip-path="url(#pb58704c792)" style="fill: #4c6a67"/>
   </g>
   <g id="patch_8">
    <path d="M 172.989875 252.672587 
L 249.907625 252.672587 
L 249.907625 175.523453 
L 172.989875 175.523453 
z
" clip-path="url(#pb58704c792)" style="fill: #8fa8a6"/>
   </g>
   <g id="patch_9">
    <path d="M 258.454042 399.248142 
L 335.371792 399.248142 
L 335.371792 328.807628 
L 258.454042 328.807628 
z
" clip-path="url(#pb58704c792)" style="fill: #10302c"/>
   </g>
   <g id="patch_10">
    <path d="M 258.454042 328.807628 
L 335.371792 328.807628 
L 335.371792 255.714869 
L 258.454042 255.714869 
z
" clip-path="url(#pb58704c792)" style="fill: #4c6a67"/>
   </g>
   <g id="patch_11">
    <path d="M 258.454042 255.714869 
L 335.371792 255.714869 
L 335.371792 178.825758 
L 258.454042 178.825758 
z
" clip-path="url(#pb58704c792)" style="fill: #8fa8a6"/>
   </g>
   <g id="patch_12">
    <path d="M 343.918208 399.248142 
L 420.835958 399.248142 
L 420.835958 322.281024 
L 343.918208 322.281024 
z
" clip-path="url(#pb58704c792)" style="fill: #10302c"/>
   </g>
   <g id="patch_13">
    <path d="M 343.918208 322.281024 
L 420.835958 322.281024 
L 420.835958 249.760318 
L 343.918208 249.760318 
z
" clip-path="url(#pb58704c792)" style="fill: #4c6a67"/>
   </g>
   <g id="patch_14">
    <path d="M 343.918208 249.760318 
L 420.835958 249.760318 
L 420.835958 180.047871 
L 343.918208 180.047871 
z
" clip-path="url(#pb58704c792)" style="fill: #8fa8a6"/>
   </g>
   <g id="patch_15">
    <path d="M 429.382375 399.248142 
L 506.300125 399.248142 
L 506.300125 325.58333 
L 429.382375 325.58333 
z
" clip-path="url(#pb58704c792)" style="fill: #10302c"/>
   </g>
   <g id="patch_16">
    <path d="M 429.382375 325.58333 
L 506.300125 325.58333 
L 506.300125 250.592395 
L 429.382375 250.592395 
z
" clip-path="url(#pb58704c792)" style="fill: #4c6a67"/>
   </g>
   <g id="patch_17">
    <path d="M 429.382375 250.592395 
L 506.300125 250.592395 
L 506.300125 185.11834 
L 429.382375 185.11834 
z
" clip-path="url(#pb58704c792)" style="fill: #8fa8a6"/>
   </g>
   <g id="patch_18">
    <path d="M 514.846542 399.248142 
L 591.764292 399.248142 
L 591.764292 319.550772 
L 514.846542 319.550772 
z
" clip-path="url(#pb58704c792)" style="fill: #10302c"/>
   </g>
   <g id="patch_19">
    <path d="M 514.846542 319.550772 
L 591.764292 319.550772 
L 591.764292 254.830787 
L 514.846542 254.830787 
z
" clip-path="url(#pb58704c792)" style="fill: #4c6a67"/>
   </g>
   <g id="patch_20">
    <path d="M 514.846542 254.830787 
L 591.764292 254.830787 
L 591.764292 185.742398 
L 514.846542 185.742398 
z
" clip-path="url(#pb58704c792)" style="fill: #8fa8a6"/>
   </g>
   <g id="patch_21">
    <path d="M 600.310708 399.248142 
L 677.228458 399.248142 
L 677.228458 324.569236 
L 600.310708 324.569236 
z
" clip-path="url(#pb58704c792)" style="fill: #10302c"/>
   </g>
   <g id="patch_22">
    <path d="M 600.310708 324.569236 
L 677.228458 324.569236 
L 677.228458 258.315109 
L 600.310708 258.315109 
z
" clip-path="url(#pb58704c792)" style="fill: #4c6a67"/>
   </g>
   <g id="patch_23">
    <path d="M 600.310708 258.315109 
L 677.228458 258.315109 
L 677.228458 187.900597 
L 600.310708 187.900597 
z
" clip-path="url(#pb58704c792)" style="fill: #8fa8a6"/>
   </g>
   <g id="patch_24">
    <path d="M 685.774875 399.248142 
L 762.692625 399.248142 
L 762.692625 326.649428 
L 685.774875 326.649428 
z
" clip-path="url(#pb58704c792)" style="fill: #10302c"/>
   </g>
   <g id="patch_25">
    <path d="M 685.774875 326.649428 
L 762.692625 326.649428 
L 762.692625 261.669419 
L 685.774875 261.669419 
z
" clip-path="url(#pb58704c792)" style="fill: #4c6a67"/>
   </g>
   <g id="patch_26">
    <path d="M 685.774875 261.669419 
L 762.692625 261.669419 
L 762.692625 192.841054 
L 685.774875 192.841054 
z
" clip-path="url(#pb58704c792)" style="fill: #8fa8a6"/>
   </g>
   <g id="patch_27">
    <path d="M 771.239042 399.248142 
L 848.156792 399.248142 
L 848.156792 337.674448 
L 771.239042 337.674448 
z
" clip-path="url(#pb58704c792)" style="fill: #10302c"/>
   </g>
   <g id="patch_28">
    <path d="M 771.239042 337.674448 
L 848.156792 337.674448 
L 848.156792 265.959816 
L 771.239042 265.959816 
z
" clip-path="url(#pb58704c792)" style="fill: #4c6a67"/>
   </g>
   <g id="patch_29">
    <path d="M 771.239042 265.959816 
L 848.156792 265.959816 
L 848.156792 193.049073 
L 771.239042 193.049073 
z
" clip-path="url(#pb58704c792)" style="fill: #8fa8a6"/>
   </g>
   <g id="patch_30">
    <path d="M 856.703208 399.248142 
L 933.620958 399.248142 
L 933.620958 325.219296 
L 856.703208 325.219296 
z
" clip-path="url(#pb58704c792)" style="fill: #10302c"/>
   </g>
   <g id="patch_31">
    <path d="M 856.703208 325.219296 
L 933.620958 325.219296 
L 933.620958 257.639047 
L 856.703208 257.639047 
z
" clip-path="url(#pb58704c792)" style="fill: #4c6a67"/>
   </g>
   <g id="patch_32">
    <path d="M 856.703208 257.639047 
L 933.620958 257.639047 
L 933.620958 195.28528 
L 856.703208 195.28528 
z
" clip-path="url(#pb58704c792)" style="fill: #8fa8a6"/>
   </g>
   <g id="patch_33">
    <path d="M 942.167375 399.248142 
L 1019.085125 399.248142 
L 1019.085125 337.102395 
L 942.167375 337.102395 
z
" clip-path="url(#pb58704c792)" style="fill: #10302c"/>
   </g>
   <g id="patch_34">
    <path d="M 942.167375 337.102395 
L 1019.085125 337.102395 
L 1019.085125 272.252398 
L 942.167375 272.252398 
z
" clip-path="url(#pb58704c792)" style="fill: #4c6a67"/>
   </g>
   <g id="patch_35">
    <path d="M 942.167375 272.252398 
L 1019.085125 272.252398 
L 1019.085125 197.287465 
L 942.167375 197.287465 
z
" clip-path="url(#pb58704c792)" style="fill: #8fa8a6"/>
   </g>
   <g id="patch_36">
    <path d="M 1027.631542 399.248142 
L 1104.549292 399.248142 
L 1104.549292 344.695097 
L 1027.631542 344.695097 
z
" clip-path="url(#pb58704c792)" style="fill: #10302c"/>
   </g>
   <g id="patch_37">
    <path d="M 1027.631542 344.695097 
L 1104.549292 344.695097 
L 1104.549292 280.183131 
L 1027.631542 280.183131 
z
" clip-path="url(#pb58704c792)" style="fill: #4c6a67"/>
   </g>
   <g id="patch_38">
    <path d="M 1027.631542 280.183131 
L 1104.549292 280.183131 
L 1104.549292 217.725355 
L 1027.631542 217.725355 
z
" clip-path="url(#pb58704c792)" style="fill: #8fa8a6"/>
   </g>
   <g id="text_20">
    <text style="font-weight: 500; font-size: 20px; font-family: 'Poppins'; text-anchor: middle; fill: #ffffff" x="125.984583" y="363.91912" transform="rotate(-0 125.984583 363.91912)">30.8%</text>
   </g>
   <g id="text_21">
    <text style="font-weight: 500; font-size: 20px; font-family: 'Poppins'; text-anchor: middle; fill: #ffffff" x="125.984583" y="277.045087" transform="rotate(-0 125.984583 277.045087)">35.9%</text>
   </g>
   <g id="text_22">
    <text style="font-weight: 500; font-size: 20px; font-family: 'Poppins'; text-anchor: middle; fill: #ffffff" x="125.984583" y="186.920752" transform="rotate(-0 125.984583 186.920752)">33.3%</text>
   </g>
   <g id="text_23">
    <g id="patch_39">
     <path d="M 100.937708 132.795975 
L 151.031458 132.795975 
Q 167.031458 132.795975 167.031458 116.795975 
L 167.031458 122.677225 
Q 167.031458 106.677225 151.031458 106.677225 
L 100.937708 106.677225 
Q 84.937708 106.677225 84.937708 122.677225 
L 84.937708 116.795975 
Q 84.937708 132.795975 100.937708 132.795975 
z
" style="fill: #ffffff; stroke: #002f2a; stroke-width: 1.5; stroke-linejoin: miter"/>
    </g>
    <text style="font-weight: 700; font-size: 20px; font-family: 'Poppins'; text-anchor: middle; fill: #10302c" x="125.984583" y="124.477225" transform="rotate(-0 125.984583 124.477225)">  10,017  </text>
   </g>
   <g id="text_24">
    <text style="font-weight: 600; font-size: 22px; font-family: 'Poppins'; text-anchor: middle; fill: #4c6a67" x="125.984583" y="88.04228" transform="rotate(-0 125.984583 88.04228)">10.2%</text>
   </g>
   <g id="text_25">
    <text style="font-weight: 500; font-size: 20px; font-family: 'Poppins'; text-anchor: middle; fill: #ffffff" x="211.44875" y="368.105508" transform="rotate(-0 211.44875 368.105508)">32.1%</text>
   </g>
   <g id="text_26">
    <text style="font-weight: 500; font-size: 20px; font-family: 'Poppins'; text-anchor: middle; fill: #ffffff" x="211.44875" y="294.81773" transform="rotate(-0 211.44875 294.81773)">33.4%</text>
   </g>
   <g id="text_27">
    <text style="font-weight: 500; font-size: 20px; font-family: 'Poppins'; text-anchor: middle; fill: #ffffff" x="211.44875" y="218.877707" transform="rotate(-0 211.44875 218.877707)">34.5%</text>
   </g>
   <g id="text_28">
    <g id="patch_40">
     <path d="M 186.170625 169.537373 
L 236.726875 169.537373 
Q 252.726875 169.537373 252.726875 153.537373 
L 252.726875 159.418623 
Q 252.726875 143.418623 236.726875 143.418623 
L 186.170625 143.418623 
Q 170.170625 143.418623 170.170625 159.418623 
L 170.170625 153.537373 
Q 170.170625 169.537373 186.170625 169.537373 
z
" style="fill: #ffffff; stroke: #002f2a; stroke-width: 1.5; stroke-linejoin: miter"/>
    </g>
    <text style="font-weight: 700; font-size: 20px; font-family: 'Poppins'; text-anchor: middle; fill: #10302c" x="211.44875" y="161.218623" transform="rotate(-0 211.44875 161.218623)">  8,604  </text>
   </g>
   <g id="text_29">
    <text style="font-weight: 600; font-size: 22px; font-family: 'Poppins'; text-anchor: middle; fill: #4c6a67" x="211.44875" y="124.783678" transform="rotate(-0 211.44875 124.783678)">8.7%</text>
   </g>
   <g id="text_30">
    <text style="font-weight: 500; font-size: 20px; font-family: 'Poppins'; text-anchor: middle; fill: #ffffff" x="296.912917" y="368.807572" transform="rotate(-0 296.912917 368.807572)">32.0%</text>
   </g>
   <g id="text_31">
    <text style="font-weight: 500; font-size: 20px; font-family: 'Poppins'; text-anchor: middle; fill: #ffffff" x="296.912917" y="297.040936" transform="rotate(-0 296.912917 297.040936)">33.2%</text>
   </g>
   <g id="text_32">
    <text style="font-weight: 500; font-size: 20px; font-family: 'Poppins'; text-anchor: middle; fill: #ffffff" x="296.912917" y="222.050001" transform="rotate(-0 296.912917 222.050001)">34.9%</text>
   </g>
   <g id="text_33">
    <g id="patch_41">
     <path d="M 273.825417 172.839678 
L 320.000417 172.839678 
Q 336.000417 172.839678 336.000417 156.839678 
L 336.000417 162.720928 
Q 336.000417 146.720928 320.000417 146.720928 
L 273.825417 146.720928 
Q 257.825417 146.720928 257.825417 162.720928 
L 257.825417 156.839678 
Q 257.825417 172.839678 273.825417 172.839678 
z
" style="fill: #ffffff; stroke: #002f2a; stroke-width: 1.5; stroke-linejoin: miter"/>
    </g>
    <text style="font-weight: 700; font-size: 20px; font-family: 'Poppins'; text-anchor: middle; fill: #10302c" x="296.912917" y="164.520928" transform="rotate(-0 296.912917 164.520928)">  8,477  </text>
   </g>
   <g id="text_34">
    <text style="font-weight: 600; font-size: 22px; font-family: 'Poppins'; text-anchor: middle; fill: #4c6a67" x="296.912917" y="128.085983" transform="rotate(-0 296.912917 128.085983)">8.6%</text>
   </g>
   <g id="text_35">
    <text style="font-weight: 500; font-size: 20px; font-family: 'Poppins'; text-anchor: middle; fill: #ffffff" x="382.377083" y="365.544271" transform="rotate(-0 382.377083 365.544271)">35.1%</text>
   </g>
   <g id="text_36">
    <text style="font-weight: 500; font-size: 20px; font-family: 'Poppins'; text-anchor: middle; fill: #ffffff" x="382.377083" y="290.800359" transform="rotate(-0 382.377083 290.800359)">33.1%</text>
   </g>
   <g id="text_37">
    <text style="font-weight: 500; font-size: 20px; font-family: 'Poppins'; text-anchor: middle; fill: #ffffff" x="382.377083" y="219.683782" transform="rotate(-0 382.377083 219.683782)">31.8%</text>
   </g>
   <g id="text_38">
    <g id="patch_42">
     <path d="M 357.419271 174.061791 
L 407.334896 174.061791 
Q 423.334896 174.061791 423.334896 158.061791 
L 423.334896 163.943041 
Q 423.334896 147.943041 407.334896 147.943041 
L 357.419271 147.943041 
Q 341.419271 147.943041 341.419271 163.943041 
L 341.419271 158.061791 
Q 341.419271 174.061791 357.419271 174.061791 
z
" style="fill: #ffffff; stroke: #002f2a; stroke-width: 1.5; stroke-linejoin: miter"/>
    </g>
    <text style="font-weight: 700; font-size: 20px; font-family: 'Poppins'; text-anchor: middle; fill: #10302c" x="382.377083" y="165.743041" transform="rotate(-0 382.377083 165.743041)">  8,430  </text>
   </g>
   <g id="text_39">
    <text style="font-weight: 600; font-size: 22px; font-family: 'Poppins'; text-anchor: middle; fill: #4c6a67" x="382.377083" y="129.308096" transform="rotate(-0 382.377083 129.308096)">8.6%</text>
   </g>
   <g id="text_40">
    <text style="font-weight: 500; font-size: 20px; font-family: 'Poppins'; text-anchor: middle; fill: #ffffff" x="467.84125" y="367.195423" transform="rotate(-0 467.84125 367.195423)">34.4%</text>
   </g>
   <g id="text_41">
    <text style="font-weight: 500; font-size: 20px; font-family: 'Poppins'; text-anchor: middle; fill: #ffffff" x="467.84125" y="292.86755" transform="rotate(-0 467.84125 292.86755)">35.0%</text>
   </g>
   <g id="text_42">
    <text style="font-weight: 500; font-size: 20px; font-family: 'Poppins'; text-anchor: middle; fill: #ffffff" x="467.84125" y="222.635055" transform="rotate(-0 467.84125 222.635055)">30.6%</text>
   </g>
   <g id="text_43">
    <g id="patch_43">
     <path d="M 443.964687 179.13226 
L 491.717812 179.13226 
Q 507.717812 179.13226 507.717812 163.13226 
L 507.717812 169.01351 
Q 507.717812 153.01351 491.717812 153.01351 
L 443.964687 153.01351 
Q 427.964687 153.01351 427.964687 169.01351 
L 427.964687 163.13226 
Q 427.964687 179.13226 443.964687 179.13226 
z
" style="fill: #ffffff; stroke: #002f2a; stroke-width: 1.5; stroke-linejoin: miter"/>
    </g>
    <text style="font-weight: 700; font-size: 20px; font-family: 'Poppins'; text-anchor: middle; fill: #10302c" x="467.84125" y="170.81351" transform="rotate(-0 467.84125 170.81351)">  8,235  </text>
   </g>
   <g id="text_44">
    <text style="font-weight: 600; font-size: 22px; font-family: 'Poppins'; text-anchor: middle; fill: #4c6a67" x="467.84125" y="134.378565" transform="rotate(-0 467.84125 134.378565)">8.4%</text>
   </g>
   <g id="text_45">
    <text style="font-weight: 500; font-size: 20px; font-family: 'Poppins'; text-anchor: middle; fill: #ffffff" x="553.305417" y="364.179144" transform="rotate(-0 553.305417 364.179144)">37.3%</text>
   </g>
   <g id="text_46">
    <text style="font-weight: 500; font-size: 20px; font-family: 'Poppins'; text-anchor: middle; fill: #ffffff" x="553.305417" y="291.970467" transform="rotate(-0 553.305417 291.970467)">30.3%</text>
   </g>
   <g id="text_47">
    <text style="font-weight: 500; font-size: 20px; font-family: 'Poppins'; text-anchor: middle; fill: #ffffff" x="553.305417" y="225.06628" transform="rotate(-0 553.305417 225.06628)">32.4%</text>
   </g>
   <g id="text_48">
    <g id="patch_44">
     <path d="M 534.460104 179.756318 
L 572.150729 179.756318 
Q 588.150729 179.756318 588.150729 163.756318 
L 588.150729 169.637568 
Q 588.150729 153.637568 572.150729 153.637568 
L 534.460104 153.637568 
Q 518.460104 153.637568 518.460104 169.637568 
L 518.460104 163.756318 
Q 518.460104 179.756318 534.460104 179.756318 
z
" style="fill: #ffffff; stroke: #002f2a; stroke-width: 1.5; stroke-linejoin: miter"/>
    </g>
    <text style="font-weight: 700; font-size: 20px; font-family: 'Poppins'; text-anchor: middle; fill: #10302c" x="553.305417" y="171.437568" transform="rotate(-0 553.305417 171.437568)">  8,211  </text>
   </g>
   <g id="text_49">
    <text style="font-weight: 600; font-size: 22px; font-family: 'Poppins'; text-anchor: middle; fill: #4c6a67" x="553.305417" y="135.002623" transform="rotate(-0 553.305417 135.002623)">8.3%</text>
   </g>
   <g id="text_50">
    <text style="font-weight: 500; font-size: 20px; font-family: 'Poppins'; text-anchor: middle; fill: #ffffff" x="638.769583" y="366.688376" transform="rotate(-0 638.769583 366.688376)">35.3%</text>
   </g>
   <g id="text_51">
    <text style="font-weight: 500; font-size: 20px; font-family: 'Poppins'; text-anchor: middle; fill: #ffffff" x="638.769583" y="296.22186" transform="rotate(-0 638.769583 296.22186)">31.3%</text>
   </g>
   <g id="text_52">
    <text style="font-weight: 500; font-size: 20px; font-family: 'Poppins'; text-anchor: middle; fill: #ffffff" x="638.769583" y="227.887541" transform="rotate(-0 638.769583 227.887541)">33.3%</text>
   </g>
   <g id="text_53">
    <g id="patch_45">
     <path d="M 617.203958 181.914517 
L 660.335208 181.914517 
Q 676.335208 181.914517 676.335208 165.914517 
L 676.335208 171.795767 
Q 676.335208 155.795767 660.335208 155.795767 
L 617.203958 155.795767 
Q 601.203958 155.795767 601.203958 171.795767 
L 601.203958 165.914517 
Q 601.203958 181.914517 617.203958 181.914517 
z
" style="fill: #ffffff; stroke: #002f2a; stroke-width: 1.5; stroke-linejoin: miter"/>
    </g>
    <text style="font-weight: 700; font-size: 20px; font-family: 'Poppins'; text-anchor: middle; fill: #10302c" x="638.769583" y="173.595767" transform="rotate(-0 638.769583 173.595767)">  8,128  </text>
   </g>
   <g id="text_54">
    <text style="font-weight: 600; font-size: 22px; font-family: 'Poppins'; text-anchor: middle; fill: #4c6a67" x="638.769583" y="137.160822" transform="rotate(-0 638.769583 137.160822)">8.2%</text>
   </g>
   <g id="text_55">
    <text style="font-weight: 500; font-size: 20px; font-family: 'Poppins'; text-anchor: middle; fill: #ffffff" x="724.23375" y="367.728473" transform="rotate(-0 724.23375 367.728473)">35.2%</text>
   </g>
   <g id="text_56">
    <text style="font-weight: 500; font-size: 20px; font-family: 'Poppins'; text-anchor: middle; fill: #ffffff" x="724.23375" y="298.939111" transform="rotate(-0 724.23375 298.939111)">31.5%</text>
   </g>
   <g id="text_57">
    <text style="font-weight: 500; font-size: 20px; font-family: 'Poppins'; text-anchor: middle; fill: #ffffff" x="724.23375" y="232.034924" transform="rotate(-0 724.23375 232.034924)">33.3%</text>
   </g>
   <g id="text_58">
    <g id="patch_46">
     <path d="M 701.066562 186.854974 
L 747.400937 186.854974 
Q 763.400937 186.854974 763.400937 170.854974 
L 763.400937 176.736224 
Q 763.400937 160.736224 747.400937 160.736224 
L 701.066562 160.736224 
Q 685.066562 160.736224 685.066562 176.736224 
L 685.066562 170.854974 
Q 685.066562 186.854974 701.066562 186.854974 
z
" style="fill: #ffffff; stroke: #002f2a; stroke-width: 1.5; stroke-linejoin: miter"/>
    </g>
    <text style="font-weight: 700; font-size: 20px; font-family: 'Poppins'; text-anchor: middle; fill: #10302c" x="724.23375" y="178.536224" transform="rotate(-0 724.23375 178.536224)">  7,938  </text>
   </g>
   <g id="text_59">
    <text style="font-weight: 600; font-size: 22px; font-family: 'Poppins'; text-anchor: middle; fill: #4c6a67" x="724.23375" y="142.101279" transform="rotate(-0 724.23375 142.101279)">8.1%</text>
   </g>
   <g id="text_60">
    <text style="font-weight: 500; font-size: 20px; font-family: 'Poppins'; text-anchor: middle; fill: #ffffff" x="809.697917" y="373.240982" transform="rotate(-0 809.697917 373.240982)">29.9%</text>
   </g>
   <g id="text_61">
    <text style="font-weight: 500; font-size: 20px; font-family: 'Poppins'; text-anchor: middle; fill: #ffffff" x="809.697917" y="306.596819" transform="rotate(-0 809.697917 306.596819)">34.8%</text>
   </g>
   <g id="text_62">
    <text style="font-weight: 500; font-size: 20px; font-family: 'Poppins'; text-anchor: middle; fill: #ffffff" x="809.697917" y="234.284132" transform="rotate(-0 809.697917 234.284132)">35.4%</text>
   </g>
   <g id="text_63">
    <g id="patch_47">
     <path d="M 786.490104 187.062993 
L 832.905729 187.062993 
Q 848.905729 187.062993 848.905729 171.062993 
L 848.905729 176.944243 
Q 848.905729 160.944243 832.905729 160.944243 
L 786.490104 160.944243 
Q 770.490104 160.944243 770.490104 176.944243 
L 770.490104 171.062993 
Q 770.490104 187.062993 786.490104 187.062993 
z
" style="fill: #ffffff; stroke: #002f2a; stroke-width: 1.5; stroke-linejoin: miter"/>
    </g>
    <text style="font-weight: 700; font-size: 20px; font-family: 'Poppins'; text-anchor: middle; fill: #10302c" x="809.697917" y="178.744243" transform="rotate(-0 809.697917 178.744243)">  7,930  </text>
   </g>
   <g id="text_64">
    <text style="font-weight: 600; font-size: 22px; font-family: 'Poppins'; text-anchor: middle; fill: #4c6a67" x="809.697917" y="142.309298" transform="rotate(-0 809.697917 142.309298)">8.0%</text>
   </g>
   <g id="text_65">
    <text style="font-weight: 500; font-size: 20px; font-family: 'Poppins'; text-anchor: middle; fill: #ffffff" x="895.162083" y="367.013407" transform="rotate(-0 895.162083 367.013407)">36.3%</text>
   </g>
   <g id="text_66">
    <text style="font-weight: 500; font-size: 20px; font-family: 'Poppins'; text-anchor: middle; fill: #ffffff" x="895.162083" y="296.208859" transform="rotate(-0 895.162083 296.208859)">33.1%</text>
   </g>
   <g id="text_67">
    <text style="font-weight: 500; font-size: 20px; font-family: 'Poppins'; text-anchor: middle; fill: #ffffff" x="895.162083" y="231.241851" transform="rotate(-0 895.162083 231.241851)">30.6%</text>
   </g>
   <g id="text_68">
    <g id="patch_48">
     <path d="M 870.654271 189.2992 
L 919.669896 189.2992 
Q 935.669896 189.2992 935.669896 173.2992 
L 935.669896 179.18045 
Q 935.669896 163.18045 919.669896 163.18045 
L 870.654271 163.18045 
Q 854.654271 163.18045 854.654271 179.18045 
L 854.654271 173.2992 
Q 854.654271 189.2992 870.654271 189.2992 
z
" style="fill: #ffffff; stroke: #002f2a; stroke-width: 1.5; stroke-linejoin: miter"/>
    </g>
    <text style="font-weight: 700; font-size: 20px; font-family: 'Poppins'; text-anchor: middle; fill: #10302c" x="895.162083" y="180.98045" transform="rotate(-0 895.162083 180.98045)">  7,844  </text>
   </g>
   <g id="text_69">
    <text style="font-weight: 600; font-size: 22px; font-family: 'Poppins'; text-anchor: middle; fill: #4c6a67" x="895.162083" y="144.545505" transform="rotate(-0 895.162083 144.545505)">8.0%</text>
   </g>
   <g id="text_70">
    <text style="font-weight: 500; font-size: 20px; font-family: 'Poppins'; text-anchor: middle; fill: #ffffff" x="980.62625" y="372.954956" transform="rotate(-0 980.62625 372.954956)">30.8%</text>
   </g>
   <g id="text_71">
    <text style="font-weight: 500; font-size: 20px; font-family: 'Poppins'; text-anchor: middle; fill: #ffffff" x="980.62625" y="309.457084" transform="rotate(-0 980.62625 309.457084)">32.1%</text>
   </g>
   <g id="text_72">
    <text style="font-weight: 500; font-size: 20px; font-family: 'Poppins'; text-anchor: middle; fill: #ffffff" x="980.62625" y="239.549619" transform="rotate(-0 980.62625 239.549619)">37.1%</text>
   </g>
   <g id="text_73">
    <g id="patch_49">
     <path d="M 959.068437 191.301385 
L 1002.184062 191.301385 
Q 1018.184062 191.301385 1018.184062 175.301385 
L 1018.184062 181.182635 
Q 1018.184062 165.182635 1002.184062 165.182635 
L 959.068437 165.182635 
Q 943.068437 165.182635 943.068437 181.182635 
L 943.068437 175.301385 
Q 943.068437 191.301385 959.068437 191.301385 
z
" style="fill: #ffffff; stroke: #002f2a; stroke-width: 1.5; stroke-linejoin: miter"/>
    </g>
    <text style="font-weight: 700; font-size: 20px; font-family: 'Poppins'; text-anchor: middle; fill: #10302c" x="980.62625" y="182.982635" transform="rotate(-0 980.62625 182.982635)">  7,767  </text>
   </g>
   <g id="text_74">
    <text style="font-weight: 600; font-size: 22px; font-family: 'Poppins'; text-anchor: middle; fill: #4c6a67" x="980.62625" y="146.54769" transform="rotate(-0 980.62625 146.54769)">7.9%</text>
   </g>
   <g id="text_75">
    <text style="font-weight: 500; font-size: 20px; font-family: 'Poppins'; text-anchor: middle; fill: #ffffff" x="1066.090417" y="376.751307" transform="rotate(-0 1066.090417 376.751307)">30.1%</text>
   </g>
   <g id="text_76">
    <text style="font-weight: 500; font-size: 20px; font-family: 'Poppins'; text-anchor: middle; fill: #ffffff" x="1066.090417" y="317.218802" transform="rotate(-0 1066.090417 317.218802)">35.5%</text>
   </g>
   <g id="text_77">
    <text style="font-weight: 500; font-size: 20px; font-family: 'Poppins'; text-anchor: middle; fill: #ffffff" x="1066.090417" y="253.733931" transform="rotate(-0 1066.090417 253.733931)">34.4%</text>
   </g>
   <g id="text_78">
    <g id="patch_50">
     <path d="M 1044.193542 211.739275 
L 1087.987292 211.739275 
Q 1103.987292 211.739275 1103.987292 195.739275 
L 1103.987292 201.620525 
Q 1103.987292 185.620525 1087.987292 185.620525 
L 1044.193542 185.620525 
Q 1028.193542 185.620525 1028.193542 201.620525 
L 1028.193542 195.739275 
Q 1028.193542 211.739275 1044.193542 211.739275 
z
" style="fill: #ffffff; stroke: #002f2a; stroke-width: 1.5; stroke-linejoin: miter"/>
    </g>
    <text style="font-weight: 700; font-size: 20px; font-family: 'Poppins'; text-anchor: middle; fill: #10302c" x="1066.090417" y="203.420525" transform="rotate(-0 1066.090417 203.420525)">  6,981  </text>
   </g>
   <g id="text_79">
    <text style="font-weight: 600; font-size: 22px; font-family: 'Poppins'; text-anchor: middle; fill: #4c6a67" x="1066.090417" y="166.98558" transform="rotate(-0 1066.090417 166.98558)">7.1%</text>
   </g>
   <g id="legend_1">
    <g id="patch_51">
     <path d="M 94.33425 35.28 
L 142.33425 35.28 
L 142.33425 18.48 
L 94.33425 18.48 
z
" style="fill: #10302c"/>
    </g>
    <g id="text_80">
     <text style="font-weight: 500; font-size: 24px; font-family: 'Poppins'; text-anchor: start; fill: #767676" x="161.53425" y="35.28" transform="rotate(-0 161.53425 35.28)">Desaparecidos</text>
    </g>
    <g id="patch_52">
     <path d="M 392.1555 35.28 
L 440.1555 35.28 
L 440.1555 18.48 
L 392.1555 18.48 
z
" style="fill: #4c6a67"/>
    </g>
    <g id="text_81">
     <text style="font-weight: 500; font-size: 24px; font-family: 'Poppins'; text-anchor: start; fill: #767676" x="459.3555" y="35.28" transform="rotate(-0 459.3555 35.28)">Localizados</text>
    </g>
    <g id="patch_53">
     <path d="M 648.64425 35.28 
L 696.64425 35.28 
L 696.64425 18.48 
L 648.64425 18.48 
z
" style="fill: #8fa8a6"/>
    </g>
    <g id="text_82">
     <text style="font-weight: 500; font-size: 24px; font-family: 'Poppins'; text-anchor: start; fill: #767676" x="715.84425" y="35.28" transform="rotate(-0 715.84425 35.28)">No localizados</text>
    </g>
   </g>
  </g>
 </g>
 <defs>
  <clipPath id="pb58704c792">
   <rect x="83.2525" y="69.758542" width="1025.57" height="329.4896"/>
  </clipPath>
 </defs>
</svg>
