<?xml version="1.0" encoding="utf-8" standalone="no"?>
<!DOCTYPE svg PUBLIC "-//W3C//DTD SVG 1.1//EN"
  "http://www.w3.org/Graphics/SVG/1.1/DTD/svg11.dtd">
<svg xmlns:xlink="http://www.w3.org/1999/xlink" width="1110.93216pt" height="565.865309pt" viewBox="0 0 1110.93216 565.865309" xmlns="http://www.w3.org/2000/svg" version="1.1">
 <metadata>
  <rdf:RDF xmlns:dc="http://purl.org/dc/elements/1.1/" xmlns:cc="http://creativecommons.org/ns#" xmlns:rdf="http://www.w3.org/1999/02/22-rdf-syntax-ns#">
   <cc:Work>
    <dc:type rdf:resource="http://purl.org/dc/dcmitype/StillImage"/>
    <dc:date>2025-05-22T10:36:25.666445</dc:date>
    <dc:format>image/svg+xml</dc:format>
    <dc:creator>
     <cc:Agent>
      <dc:title>Matplotlib v3.10.1, https://matplotlib.org/</dc:title>
     </cc:Agent>
    </dc:creator>
   </cc:Work>
  </rdf:RDF>
 </metadata>
 <defs>
  <style type="text/css">*{stroke-linejoin: round; stroke-linecap: butt}</style>
 </defs>
 <g id="figure_1">
  <g id="patch_1">
   <path d="M 0 565.865309 
L 1110.93216 565.865309 
L 1110.93216 0 
L 0 0 
z
" style="fill: #ffffff"/>
  </g>
  <g id="axes_1">
   <g id="patch_2">
    <path d="M 123.66185 353.120221 
L 1103.73216 353.120221 
L 1103.73216 68.854073 
L 123.66185 68.854073 
z
" style="fill: #ffffff"/>
   </g>
   <g id="matplotlib.axis_1">
    <g id="xtick_1">
     <g id="line2d_1">
      <defs>
       <path id="mc4209f6a63" d="M 0 0 
L 0 3.5 
" style="stroke: #000000; stroke-width: 0.8"/>
      </defs>
      <g>
       <use xlink:href="#mc4209f6a63" x="164.498113" y="353.120221" style="stroke: #000000; stroke-width: 0.8"/>
      </g>
     </g>
     <g id="text_1">
      <text style="font-weight: 500; font-size: 25px; font-family: 'Poppins'" transform="translate(20.281475 512.609455) rotate(-45)">Agosto de 2025</text>
     </g>
    </g>
    <g id="xtick_2">
     <g id="line2d_2">
      <g>
       <use xlink:href="#mc4209f6a63" x="246.170639" y="353.120221" style="stroke: #000000; stroke-width: 0.8"/>
      </g>
     </g>
     <g id="text_2">
      <text style="font-weight: 500; font-size: 25px; font-family: 'Poppins'" transform="translate(116.145855 498.594378) rotate(-45)">Junio de 2025</text>
     </g>
    </g>
    <g id="xtick_3">
     <g id="line2d_3">
      <g>
       <use xlink:href="#mc4209f6a63" x="327.843165" y="353.120221" style="stroke: #000000; stroke-width: 0.8"/>
      </g>
     </g>
     <g id="text_3">
      <text style="font-weight: 500; font-size: 25px; font-family: 'Poppins'" transform="translate(192.713954 503.698805) rotate(-45)">Marzo de 2025</text>
     </g>
    </g>
    <g id="xtick_4">
     <g id="line2d_4">
      <g>
       <use xlink:href="#mc4209f6a63" x="409.515691" y="353.120221" style="stroke: #000000; stroke-width: 0.8"/>
      </g>
     </g>
     <g id="text_4">
      <text style="font-weight: 500; font-size: 25px; font-family: 'Poppins'" transform="translate(287.923708 490.161577) rotate(-45)">Abril de 2025</text>
     </g>
    </g>
    <g id="xtick_5">
     <g id="line2d_5">
      <g>
       <use xlink:href="#mc4209f6a63" x="491.188216" y="353.120221" style="stroke: #000000; stroke-width: 0.8"/>
      </g>
     </g>
     <g id="text_5">
      <text style="font-weight: 500; font-size: 25px; font-family: 'Poppins'" transform="translate(367.969336 491.788475) rotate(-45)">Julio de 2025</text>
     </g>
    </g>
    <g id="xtick_6">
     <g id="line2d_6">
      <g>
       <use xlink:href="#mc4209f6a63" x="572.860742" y="353.120221" style="stroke: #000000; stroke-width: 0.8"/>
      </g>
     </g>
     <g id="text_6">
      <text style="font-weight: 500; font-size: 25px; font-family: 'Poppins'" transform="translate(419.501435 521.928902) rotate(-45)">Octubre de 2025</text>
     </g>
    </g>
    <g id="xtick_7">
     <g id="line2d_7">
      <g>
       <use xlink:href="#mc4209f6a63" x="654.533268" y="353.120221" style="stroke: #000000; stroke-width: 0.8"/>
      </g>
     </g>
     <g id="text_7">
      <text style="font-weight: 500; font-size: 25px; font-family: 'Poppins'" transform="translate(475.544102 547.558761) rotate(-45)">Noviembre de 2025</text>
     </g>
    </g>
    <g id="xtick_8">
     <g id="line2d_8">
      <g>
       <use xlink:href="#mc4209f6a63" x="736.205794" y="353.120221" style="stroke: #000000; stroke-width: 0.8"/>
      </g>
     </g>
     <g id="text_8">
      <text style="font-weight: 500; font-size: 25px; font-family: 'Poppins'" transform="translate(605.333034 499.442354) rotate(-45)">Enero de 2025</text>
     </g>
    </g>
    <g id="xtick_9">
     <g id="line2d_9">
      <g>
       <use xlink:href="#mc4209f6a63" x="817.87832" y="353.120221" style="stroke: #000000; stroke-width: 0.8"/>
      </g>
     </g>
     <g id="text_9">
      <text style="font-weight: 500; font-size: 25px; font-family: 'Poppins'" transform="translate(645.283498 541.164416) rotate(-45)">Diciembre de 2025</text>
     </g>
    </g>
    <g id="xtick_10">
     <g id="line2d_10">
      <g>
       <use xlink:href="#mc4209f6a63" x="899.550845" y="353.120221" style="stroke: #000000; stroke-width: 0.8"/>
      </g>
     </g>
     <g id="text_10">
      <text style="font-weight: 500; font-size: 25px; font-family: 'Poppins'" transform="translate(750.63029 517.49015) rotate(-45)">Febrero de 2025</text>
     </g>
    </g>
    <g id="xtick_11">
     <g id="line2d_11">
      <g>
       <use xlink:href="#mc4209f6a63" x="981.223371" y="353.120221" style="stroke: #000000; stroke-width: 0.8"/>
      </g>
     </g>
     <g id="text_11">
      <text style="font-weight: 500; font-size: 25px; font-family: 'Poppins'" transform="translate(796.290089 554.033207) rotate(-45)">Septiembre de 2025</text>
     </g>
    </g>
    <g id="xtick_12">
     <g id="line2d_12">
      <g>
       <use xlink:href="#mc4209f6a63" x="1062.895897" y="353.120221" style="stroke: #000000; stroke-width: 0.8"/>
      </g>
     </g>
     <g id="text_12">
      <text style="font-weight: 500; font-size: 25px; font-family: 'Poppins'" transform="translate(932.592138 498.873354) rotate(-45)">Mayo de 2025</text>
     </g>
    </g>
   </g>
   <g id="matplotlib.axis_2">
    <g id="ytick_1">
     <g id="line2d_13">
      <path d="M 123.66185 353.120221 
L 1103.73216 353.120221 
" clip-path="url(#pe22cb98456)" style="fill: none; stroke: #b9b9b9; stroke-width: 0.75; stroke-linecap: square"/>
     </g>
     <g id="line2d_14">
      <defs>
       <path id="m73d4a3ba92" d="M 0 0 
L -3.5 0 
" style="stroke: #000000; stroke-width: 0.8"/>
      </defs>
      <g>
       <use xlink:href="#m73d4a3ba92" x="123.66185" y="353.120221" style="stroke: #000000; stroke-width: 0.8"/>
      </g>
     </g>
     <g id="text_13">
      <text style="font-weight: 500; font-size: 22px; font-family: 'Poppins'; text-anchor: end" x="116.66185" y="361.260221" transform="rotate(-0 116.66185 361.260221)">0</text>
     </g>
    </g>
    <g id="ytick_2">
     <g id="line2d_15">
      <path d="M 123.66185 304.778536 
L 1103.73216 304.778536 
" clip-path="url(#pe22cb98456)" style="fill: none; stroke: #b9b9b9; stroke-width: 0.75; stroke-linecap: square"/>
     </g>
     <g id="line2d_16">
      <g>
       <use xlink:href="#m73d4a3ba92" x="123.66185" y="304.778536" style="stroke: #000000; stroke-width: 0.8"/>
      </g>
     </g>
     <g id="text_14">
      <text style="font-weight: 500; font-size: 22px; font-family: 'Poppins'; text-anchor: end" x="116.66185" y="312.918536" transform="rotate(-0 116.66185 312.918536)">2,000</text>
     </g>
    </g>
    <g id="ytick_3">
     <g id="line2d_17">
      <path d="M 123.66185 256.436851 
L 1103.73216 256.436851 
" clip-path="url(#pe22cb98456)" style="fill: none; stroke: #b9b9b9; stroke-width: 0.75; stroke-linecap: square"/>
     </g>
     <g id="line2d_18">
      <g>
       <use xlink:href="#m73d4a3ba92" x="123.66185" y="256.436851" style="stroke: #000000; stroke-width: 0.8"/>
      </g>
     </g>
     <g id="text_15">
      <text style="font-weight: 500; font-size: 22px; font-family: 'Poppins'; text-anchor: end" x="116.66185" y="264.576851" transform="rotate(-0 116.66185 264.576851)">4,000</text>
     </g>
    </g>
    <g id="ytick_4">
     <g id="line2d_19">
      <path d="M 123.66185 208.095166 
L 1103.73216 208.095166 
" clip-path="url(#pe22cb98456)" style="fill: none; stroke: #b9b9b9; stroke-width: 0.75; stroke-linecap: square"/>
     </g>
     <g id="line2d_20">
      <g>
       <use xlink:href="#m73d4a3ba92" x="123.66185" y="208.095166" style="stroke: #000000; stroke-width: 0.8"/>
      </g>
     </g>
     <g id="text_16">
      <text style="font-weight: 500; font-size: 22px; font-family: 'Poppins'; text-anchor: end" x="116.66185" y="216.235166" transform="rotate(-0 116.66185 216.235166)">6,000</text>
     </g>
    </g>
    <g id="ytick_5">
     <g id="line2d_21">
      <path d="M 123.66185 159.753481 
L 1103.73216 159.753481 
" clip-path="url(#pe22cb98456)" style="fill: none; stroke: #b9b9b9; stroke-width: 0.75; stroke-linecap: square"/>
     </g>
     <g id="line2d_22">
      <g>
       <use xlink:href="#m73d4a3ba92" x="123.66185" y="159.753481" style="stroke: #000000; stroke-width: 0.8"/>
      </g>
     </g>
     <g id="text_17">
      <text style="font-weight: 500; font-size: 22px; font-family: 'Poppins'; text-anchor: end" x="116.66185" y="167.893481" transform="rotate(-0 116.66185 167.893481)">8,000</text>
     </g>
    </g>
    <g id="ytick_6">
     <g id="line2d_23">
      <path d="M 123.66185 111.411796 
L 1103.73216 111.411796 
" clip-path="url(#pe22cb98456)" style="fill: none; stroke: #b9b9b9; stroke-width: 0.75; stroke-linecap: square"/>
     </g>
     <g id="line2d_24">
      <g>
       <use xlink:href="#m73d4a3ba92" x="123.66185" y="111.411796" style="stroke: #000000; stroke-width: 0.8"/>
      </g>
     </g>
     <g id="text_18">
      <text style="font-weight: 500; font-size: 22px; font-family: 'Poppins'; text-anchor: end" x="116.66185" y="119.551796" transform="rotate(-0 116.66185 119.551796)">10,000</text>
     </g>
    </g>
   </g>
   <g id="patch_3">
    <path d="M 127.745477 353.120221 
L 201.25075 353.120221 
L 201.25075 278.698197 
L 127.745477 278.698197 
z
" clip-path="url(#pe22cb98456)" style="fill: #10302c"/>
   </g>
   <g id="patch_4">
    <path d="M 127.745477 278.698197 
L 201.25075 278.698197 
L 201.25075 202.560043 
L 127.745477 202.560043 
z
" clip-path="url(#pe22cb98456)" style="fill: #4c6a67"/>
   </g>
   <g id="patch_5">
    <path d="M 127.745477 202.560043 
L 201.25075 202.560043 
L 201.25075 128.403898 
L 127.745477 128.403898 
z
" clip-path="url(#pe22cb98456)" style="fill: #8fa8a6"/>
   </g>
   <g id="patch_6">
    <path d="M 209.418002 353.120221 
L 282.923276 353.120221 
L 282.923276 275.483475 
L 209.418002 275.483475 
z
" clip-path="url(#pe22cb98456)" style="fill: #10302c"/>
   </g>
   <g id="patch_7">
    <path d="M 209.418002 275.483475 
L 282.923276 275.483475 
L 282.923276 205.726423 
L 209.418002 205.726423 
z
" clip-path="url(#pe22cb98456)" style="fill: #4c6a67"/>
   </g>
   <g id="patch_8">
    <path d="M 209.418002 205.726423 
L 282.923276 205.726423 
L 282.923276 132.730479 
L 209.418002 132.730479 
z
" clip-path="url(#pe22cb98456)" style="fill: #8fa8a6"/>
   </g>
   <g id="patch_9">
    <path d="M 291.090528 353.120221 
L 364.595801 353.120221 
L 364.595801 280.921914 
L 291.090528 280.921914 
z
" clip-path="url(#pe22cb98456)" style="fill: #10302c"/>
   </g>
   <g id="patch_10">
    <path d="M 291.090528 280.921914 
L 364.595801 280.921914 
L 364.595801 212.566772 
L 291.090528 212.566772 
z
" clip-path="url(#pe22cb98456)" style="fill: #4c6a67"/>
   </g>
   <g id="patch_11">
    <path d="M 291.090528 212.566772 
L 364.595801 212.566772 
L 364.595801 137.34711 
L 291.090528 137.34711 
z
" clip-path="url(#pe22cb98456)" style="fill: #8fa8a6"/>
   </g>
   <g id="patch_12">
    <path d="M 372.763054 353.120221 
L 446.268327 353.120221 
L 446.268327 274.734179 
L 372.763054 274.734179 
z
" clip-path="url(#pe22cb98456)" style="fill: #10302c"/>
   </g>
   <g id="patch_13">
    <path d="M 372.763054 274.734179 
L 446.268327 274.734179 
L 446.268327 207.539237 
L 372.763054 207.539237 
z
" clip-path="url(#pe22cb98456)" style="fill: #4c6a67"/>
   </g>
   <g id="patch_14">
    <path d="M 372.763054 207.539237 
L 446.268327 207.539237 
L 446.268327 141.431982 
L 372.763054 141.431982 
z
" clip-path="url(#pe22cb98456)" style="fill: #8fa8a6"/>
   </g>
   <g id="patch_15">
    <path d="M 454.43558 353.120221 
L 527.940853 353.120221 
L 527.940853 282.638044 
L 454.43558 282.638044 
z
" clip-path="url(#pe22cb98456)" style="fill: #10302c"/>
   </g>
   <g id="patch_16">
    <path d="M 454.43558 282.638044 
L 527.940853 282.638044 
L 527.940853 211.406571 
L 454.43558 211.406571 
z
" clip-path="url(#pe22cb98456)" style="fill: #4c6a67"/>
   </g>
   <g id="patch_17">
    <path d="M 454.43558 211.406571 
L 527.940853 211.406571 
L 527.940853 142.253791 
L 454.43558 142.253791 
z
" clip-path="url(#pe22cb98456)" style="fill: #8fa8a6"/>
   </g>
   <g id="patch_18">
    <path d="M 536.108106 353.120221 
L 609.613379 353.120221 
L 609.613379 283.798245 
L 536.108106 283.798245 
z
" clip-path="url(#pe22cb98456)" style="fill: #10302c"/>
   </g>
   <g id="patch_19">
    <path d="M 536.108106 283.798245 
L 609.613379 283.798245 
L 609.613379 209.448733 
L 536.108106 209.448733 
z
" clip-path="url(#pe22cb98456)" style="fill: #4c6a67"/>
   </g>
   <g id="patch_20">
    <path d="M 536.108106 209.448733 
L 609.613379 209.448733 
L 609.613379 145.033438 
L 536.108106 145.033438 
z
" clip-path="url(#pe22cb98456)" style="fill: #8fa8a6"/>
   </g>
   <g id="patch_21">
    <path d="M 617.780631 353.120221 
L 691.285905 353.120221 
L 691.285905 288.753267 
L 617.780631 288.753267 
z
" clip-path="url(#pe22cb98456)" style="fill: #10302c"/>
   </g>
   <g id="patch_22">
    <path d="M 617.780631 288.753267 
L 691.285905 288.753267 
L 691.285905 210.270542 
L 617.780631 210.270542 
z
" clip-path="url(#pe22cb98456)" style="fill: #4c6a67"/>
   </g>
   <g id="patch_23">
    <path d="M 617.780631 210.270542 
L 691.285905 210.270542 
L 691.285905 149.408361 
L 617.780631 149.408361 
z
" clip-path="url(#pe22cb98456)" style="fill: #8fa8a6"/>
   </g>
   <g id="patch_24">
    <path d="M 699.453157 353.120221 
L 772.95843 353.120221 
L 772.95843 281.840406 
L 699.453157 281.840406 
z
" clip-path="url(#pe22cb98456)" style="fill: #10302c"/>
   </g>
   <g id="patch_25">
    <path d="M 699.453157 281.840406 
L 772.95843 281.840406 
L 772.95843 215.10471 
L 699.453157 215.10471 
z
" clip-path="url(#pe22cb98456)" style="fill: #4c6a67"/>
   </g>
   <g id="patch_26">
    <path d="M 699.453157 215.10471 
L 772.95843 215.10471 
L 772.95843 149.625898 
L 699.453157 149.625898 
z
" clip-path="url(#pe22cb98456)" style="fill: #8fa8a6"/>
   </g>
   <g id="patch_27">
    <path d="M 781.125683 353.120221 
L 854.630956 353.120221 
L 854.630956 291.557085 
L 781.125683 291.557085 
z
" clip-path="url(#pe22cb98456)" style="fill: #10302c"/>
   </g>
   <g id="patch_28">
    <path d="M 781.125683 291.557085 
L 854.630956 291.557085 
L 854.630956 229.14797 
L 781.125683 229.14797 
z
" clip-path="url(#pe22cb98456)" style="fill: #4c6a67"/>
   </g>
   <g id="patch_29">
    <path d="M 781.125683 229.14797 
L 854.630956 229.14797 
L 854.630956 152.502228 
L 781.125683 152.502228 
z
" clip-path="url(#pe22cb98456)" style="fill: #8fa8a6"/>
   </g>
   <g id="patch_30">
    <path d="M 862.798209 353.120221 
L 936.303482 353.120221 
L 936.303482 289.188343 
L 862.798209 289.188343 
z
" clip-path="url(#pe22cb98456)" style="fill: #10302c"/>
   </g>
   <g id="patch_31">
    <path d="M 862.798209 289.188343 
L 936.303482 289.188343 
L 936.303482 225.498173 
L 862.798209 225.498173 
z
" clip-path="url(#pe22cb98456)" style="fill: #4c6a67"/>
   </g>
   <g id="patch_32">
    <path d="M 862.798209 225.498173 
L 936.303482 225.498173 
L 936.303482 161.058707 
L 862.798209 161.058707 
z
" clip-path="url(#pe22cb98456)" style="fill: #8fa8a6"/>
   </g>
   <g id="patch_33">
    <path d="M 944.470735 353.120221 
L 1017.976008 353.120221 
L 1017.976008 288.390705 
L 944.470735 288.390705 
z
" clip-path="url(#pe22cb98456)" style="fill: #10302c"/>
   </g>
   <g id="patch_34">
    <path d="M 944.470735 288.390705 
L 1017.976008 288.390705 
L 1017.976008 226.078273 
L 944.470735 226.078273 
z
" clip-path="url(#pe22cb98456)" style="fill: #4c6a67"/>
   </g>
   <g id="patch_35">
    <path d="M 944.470735 226.078273 
L 1017.976008 226.078273 
L 1017.976008 168.817547 
L 944.470735 168.817547 
z
" clip-path="url(#pe22cb98456)" style="fill: #8fa8a6"/>
   </g>
   <g id="patch_36">
    <path d="M 1026.14326 353.120221 
L 1099.648534 353.120221 
L 1099.648534 286.626233 
L 1026.14326 286.626233 
z
" clip-path="url(#pe22cb98456)" style="fill: #10302c"/>
   </g>
   <g id="patch_37">
    <path d="M 1026.14326 286.626233 
L 1099.648534 286.626233 
L 1099.648534 228.59204 
L 1026.14326 228.59204 
z
" clip-path="url(#pe22cb98456)" style="fill: #4c6a67"/>
   </g>
   <g id="patch_38">
    <path d="M 1026.14326 228.59204 
L 1099.648534 228.59204 
L 1099.648534 172.974932 
L 1026.14326 172.974932 
z
" clip-path="url(#pe22cb98456)" style="fill: #8fa8a6"/>
   </g>
   <g id="text_19">
    <text style="font-weight: 500; font-size: 20px; font-family: 'Poppins'; text-anchor: middle; fill: #ffffff" x="164.498113" y="320.688896" transform="rotate(-0 164.498113 320.688896)">3.0%</text>
   </g>
   <g id="text_20">
    <text style="font-weight: 500; font-size: 20px; font-family: 'Poppins'; text-anchor: middle; fill: #ffffff" x="164.498113" y="245.408807" transform="rotate(-0 164.498113 245.408807)">3.1%</text>
   </g>
   <g id="text_21">
    <text style="font-weight: 500; font-size: 20px; font-family: 'Poppins'; text-anchor: middle; fill: #ffffff" x="164.498113" y="170.261658" transform="rotate(-0 164.498113 170.261658)">3.0%</text>
   </g>
   <g id="text_22">
    <g id="patch_39">
     <path d="M 142.001238 123.651185 
L 186.994988 123.651185 
Q 202.994988 123.651185 202.994988 107.651185 
L 202.994988 113.532435 
Q 202.994988 97.532435 186.994988 97.532435 
L 142.001238 97.532435 
Q 126.001238 97.532435 126.001238 113.532435 
L 126.001238 107.651185 
Q 126.001238 123.651185 142.001238 123.651185 
z
" style="fill: #ffffff; stroke: #002f2a; stroke-width: 1.5; stroke-linejoin: miter"/>
    </g>
    <text style="font-weight: 700; font-size: 20px; font-family: 'Poppins'; text-anchor: middle; fill: #10302c" x="164.498113" y="115.332435" transform="rotate(-0 164.498113 115.332435)">  9,297  </text>
   </g>
   <g id="text_23">
    <text style="font-weight: 600; font-size: 22px; font-family: 'Poppins'; text-anchor: middle; fill: #4c6a67" x="164.498113" y="83.570491" transform="rotate(-0 164.498113 83.570491)">9.2%</text>
   </g>
   <g id="text_24">
    <text style="font-weight: 500; font-size: 20px; font-family: 'Poppins'; text-anchor: middle; fill: #ffffff" x="246.170639" y="319.081535" transform="rotate(-0 246.170639 319.081535)">3.2%</text>
   </g>
   <g id="text_25">
    <text style="font-weight: 500; font-size: 20px; font-family: 'Poppins'; text-anchor: middle; fill: #ffffff" x="246.170639" y="245.384637" transform="rotate(-0 246.170639 245.384637)">2.8%</text>
   </g>
   <g id="text_26">
    <text style="font-weight: 500; font-size: 20px; font-family: 'Poppins'; text-anchor: middle; fill: #ffffff" x="246.170639" y="174.008139" transform="rotate(-0 246.170639 174.008139)">3.0%</text>
   </g>
   <g id="text_27">
    <g id="patch_40">
     <path d="M 226.884701 127.977766 
L 265.456576 127.977766 
Q 281.456576 127.977766 281.456576 111.977766 
L 281.456576 117.859016 
Q 281.456576 101.859016 265.456576 101.859016 
L 226.884701 101.859016 
Q 210.884701 101.859016 210.884701 117.859016 
L 210.884701 111.977766 
Q 210.884701 127.977766 226.884701 127.977766 
z
" style="fill: #ffffff; stroke: #002f2a; stroke-width: 1.5; stroke-linejoin: miter"/>
    </g>
    <text style="font-weight: 700; font-size: 20px; font-family: 'Poppins'; text-anchor: middle; fill: #10302c" x="246.170639" y="119.659016" transform="rotate(-0 246.170639 119.659016)">  9,118  </text>
   </g>
   <g id="text_28">
    <text style="font-weight: 600; font-size: 22px; font-family: 'Poppins'; text-anchor: middle; fill: #4c6a67" x="246.170639" y="87.897072" transform="rotate(-0 246.170639 87.897072)">9.0%</text>
   </g>
   <g id="text_29">
    <text style="font-weight: 500; font-size: 20px; font-family: 'Poppins'; text-anchor: middle; fill: #ffffff" x="327.843165" y="321.800755" transform="rotate(-0 327.843165 321.800755)">2.9%</text>
   </g>
   <g id="text_30">
    <text style="font-weight: 500; font-size: 20px; font-family: 'Poppins'; text-anchor: middle; fill: #ffffff" x="327.843165" y="251.524031" transform="rotate(-0 327.843165 251.524031)">2.8%</text>
   </g>
   <g id="text_31">
    <text style="font-weight: 500; font-size: 20px; font-family: 'Poppins'; text-anchor: middle; fill: #ffffff" x="327.843165" y="179.736628" transform="rotate(-0 327.843165 179.736628)">3.1%</text>
   </g>
   <g id="text_32">
    <g id="patch_41">
     <path d="M 305.016602 132.594397 
L 350.669727 132.594397 
Q 366.669727 132.594397 366.669727 116.594397 
L 366.669727 122.475647 
Q 366.669727 106.475647 350.669727 106.475647 
L 305.016602 106.475647 
Q 289.016602 106.475647 289.016602 122.475647 
L 289.016602 116.594397 
Q 289.016602 132.594397 305.016602 132.594397 
z
" style="fill: #ffffff; stroke: #002f2a; stroke-width: 1.5; stroke-linejoin: miter"/>
    </g>
    <text style="font-weight: 700; font-size: 20px; font-family: 'Poppins'; text-anchor: middle; fill: #10302c" x="327.843165" y="124.275647" transform="rotate(-0 327.843165 124.275647)">  8,927  </text>
   </g>
   <g id="text_33">
    <text style="font-weight: 600; font-size: 22px; font-family: 'Poppins'; text-anchor: middle; fill: #4c6a67" x="327.843165" y="92.513703" transform="rotate(-0 327.843165 92.513703)">8.8%</text>
   </g>
   <g id="text_34">
    <text style="font-weight: 500; font-size: 20px; font-family: 'Poppins'; text-anchor: middle; fill: #ffffff" x="409.515691" y="318.706887" transform="rotate(-0 409.515691 318.706887)">3.2%</text>
   </g>
   <g id="text_35">
    <text style="font-weight: 500; font-size: 20px; font-family: 'Poppins'; text-anchor: middle; fill: #ffffff" x="409.515691" y="245.916395" transform="rotate(-0 409.515691 245.916395)">2.7%</text>
   </g>
   <g id="text_36">
    <text style="font-weight: 500; font-size: 20px; font-family: 'Poppins'; text-anchor: middle; fill: #ffffff" x="409.515691" y="179.265297" transform="rotate(-0 409.515691 179.265297)">2.7%</text>
   </g>
   <g id="text_37">
    <g id="patch_42">
     <path d="M 385.568816 136.679269 
L 433.462566 136.679269 
Q 449.462566 136.679269 449.462566 120.679269 
L 449.462566 126.560519 
Q 449.462566 110.560519 433.462566 110.560519 
L 385.568816 110.560519 
Q 369.568816 110.560519 369.568816 126.560519 
L 369.568816 120.679269 
Q 369.568816 136.679269 385.568816 136.679269 
z
" style="fill: #ffffff; stroke: #002f2a; stroke-width: 1.5; stroke-linejoin: miter"/>
    </g>
    <text style="font-weight: 700; font-size: 20px; font-family: 'Poppins'; text-anchor: middle; fill: #10302c" x="409.515691" y="128.360519" transform="rotate(-0 409.515691 128.360519)">  8,758  </text>
   </g>
   <g id="text_38">
    <text style="font-weight: 600; font-size: 22px; font-family: 'Poppins'; text-anchor: middle; fill: #4c6a67" x="409.515691" y="96.598575" transform="rotate(-0 409.515691 96.598575)">8.6%</text>
   </g>
   <g id="text_39">
    <text style="font-weight: 500; font-size: 20px; font-family: 'Poppins'; text-anchor: middle; fill: #ffffff" x="491.188216" y="322.65882" transform="rotate(-0 491.188216 322.65882)">2.9%</text>
   </g>
   <g id="text_40">
    <text style="font-weight: 500; font-size: 20px; font-family: 'Poppins'; text-anchor: middle; fill: #ffffff" x="491.188216" y="251.801995" transform="rotate(-0 491.188216 251.801995)">2.9%</text>
   </g>
   <g id="text_41">
    <text style="font-weight: 500; font-size: 20px; font-family: 'Poppins'; text-anchor: middle; fill: #ffffff" x="491.188216" y="181.609869" transform="rotate(-0 491.188216 181.609869)">2.8%</text>
   </g>
   <g id="text_42">
    <g id="patch_43">
     <path d="M 467.741341 137.501078 
L 514.635091 137.501078 
Q 530.635091 137.501078 530.635091 121.501078 
L 530.635091 127.382328 
Q 530.635091 111.382328 514.635091 111.382328 
L 467.741341 111.382328 
Q 451.741341 111.382328 451.741341 127.382328 
L 451.741341 121.501078 
Q 451.741341 137.501078 467.741341 137.501078 
z
" style="fill: #ffffff; stroke: #002f2a; stroke-width: 1.5; stroke-linejoin: miter"/>
    </g>
    <text style="font-weight: 700; font-size: 20px; font-family: 'Poppins'; text-anchor: middle; fill: #10302c" x="491.188216" y="129.182328" transform="rotate(-0 491.188216 129.182328)">  8,724  </text>
   </g>
   <g id="text_43">
    <text style="font-weight: 600; font-size: 22px; font-family: 'Poppins'; text-anchor: middle; fill: #4c6a67" x="491.188216" y="97.420384" transform="rotate(-0 491.188216 97.420384)">8.6%</text>
   </g>
   <g id="text_44">
    <text style="font-weight: 500; font-size: 20px; font-family: 'Poppins'; text-anchor: middle; fill: #ffffff" x="572.860742" y="323.23892" transform="rotate(-0 572.860742 323.23892)">2.8%</text>
   </g>
   <g id="text_45">
    <text style="font-weight: 500; font-size: 20px; font-family: 'Poppins'; text-anchor: middle; fill: #ffffff" x="572.860742" y="251.403176" transform="rotate(-0 572.860742 251.403176)">3.0%</text>
   </g>
   <g id="text_46">
    <text style="font-weight: 500; font-size: 20px; font-family: 'Poppins'; text-anchor: middle; fill: #ffffff" x="572.860742" y="182.020773" transform="rotate(-0 572.860742 182.020773)">2.6%</text>
   </g>
   <g id="text_47">
    <g id="patch_44">
     <path d="M 548.20293 140.280725 
L 597.518555 140.280725 
Q 613.518555 140.280725 613.518555 124.280725 
L 613.518555 130.161975 
Q 613.518555 114.161975 597.518555 114.161975 
L 548.20293 114.161975 
Q 532.20293 114.161975 532.20293 130.161975 
L 532.20293 124.280725 
Q 532.20293 140.280725 548.20293 140.280725 
z
" style="fill: #ffffff; stroke: #002f2a; stroke-width: 1.5; stroke-linejoin: miter"/>
    </g>
    <text style="font-weight: 700; font-size: 20px; font-family: 'Poppins'; text-anchor: middle; fill: #10302c" x="572.860742" y="131.961975" transform="rotate(-0 572.860742 131.961975)">  8,609  </text>
   </g>
   <g id="text_48">
    <text style="font-weight: 600; font-size: 22px; font-family: 'Poppins'; text-anchor: middle; fill: #4c6a67" x="572.860742" y="100.200031" transform="rotate(-0 572.860742 100.200031)">8.5%</text>
   </g>
   <g id="text_49">
    <text style="font-weight: 500; font-size: 20px; font-family: 'Poppins'; text-anchor: middle; fill: #ffffff" x="654.533268" y="325.716432" transform="rotate(-0 654.533268 325.716432)">2.6%</text>
   </g>
   <g id="text_50">
    <text style="font-weight: 500; font-size: 20px; font-family: 'Poppins'; text-anchor: middle; fill: #ffffff" x="654.533268" y="254.291592" transform="rotate(-0 654.533268 254.291592)">3.2%</text>
   </g>
   <g id="text_51">
    <text style="font-weight: 500; font-size: 20px; font-family: 'Poppins'; text-anchor: middle; fill: #ffffff" x="654.533268" y="184.619139" transform="rotate(-0 654.533268 184.619139)">2.5%</text>
   </g>
   <g id="text_52">
    <g id="patch_45">
     <path d="M 629.956706 144.655647 
L 679.109831 144.655647 
Q 695.109831 144.655647 695.109831 128.655647 
L 695.109831 134.536897 
Q 695.109831 118.536897 679.109831 118.536897 
L 629.956706 118.536897 
Q 613.956706 118.536897 613.956706 134.536897 
L 613.956706 128.655647 
Q 613.956706 144.655647 629.956706 144.655647 
z
" style="fill: #ffffff; stroke: #002f2a; stroke-width: 1.5; stroke-linejoin: miter"/>
    </g>
    <text style="font-weight: 700; font-size: 20px; font-family: 'Poppins'; text-anchor: middle; fill: #10302c" x="654.533268" y="136.336897" transform="rotate(-0 654.533268 136.336897)">  8,428  </text>
   </g>
   <g id="text_53">
    <text style="font-weight: 600; font-size: 22px; font-family: 'Poppins'; text-anchor: middle; fill: #4c6a67" x="654.533268" y="104.574953" transform="rotate(-0 654.533268 104.574953)">8.3%</text>
   </g>
   <g id="text_54">
    <text style="font-weight: 500; font-size: 20px; font-family: 'Poppins'; text-anchor: middle; fill: #ffffff" x="736.205794" y="322.260001" transform="rotate(-0 736.205794 322.260001)">2.9%</text>
   </g>
   <g id="text_55">
    <text style="font-weight: 500; font-size: 20px; font-family: 'Poppins'; text-anchor: middle; fill: #ffffff" x="736.205794" y="253.252246" transform="rotate(-0 736.205794 253.252246)">2.7%</text>
   </g>
   <g id="text_56">
    <text style="font-weight: 500; font-size: 20px; font-family: 'Poppins'; text-anchor: middle; fill: #ffffff" x="736.205794" y="187.144992" transform="rotate(-0 736.205794 187.144992)">2.7%</text>
   </g>
   <g id="text_57">
    <g id="patch_46">
     <path d="M 713.908919 144.873185 
L 758.502669 144.873185 
Q 774.502669 144.873185 774.502669 128.873185 
L 774.502669 134.754435 
Q 774.502669 118.754435 758.502669 118.754435 
L 713.908919 118.754435 
Q 697.908919 118.754435 697.908919 134.754435 
L 697.908919 128.873185 
Q 697.908919 144.873185 713.908919 144.873185 
z
" style="fill: #ffffff; stroke: #002f2a; stroke-width: 1.5; stroke-linejoin: miter"/>
    </g>
    <text style="font-weight: 700; font-size: 20px; font-family: 'Poppins'; text-anchor: middle; fill: #10302c" x="736.205794" y="136.554435" transform="rotate(-0 736.205794 136.554435)">  8,419  </text>
   </g>
   <g id="text_58">
    <text style="font-weight: 600; font-size: 22px; font-family: 'Poppins'; text-anchor: middle; fill: #4c6a67" x="736.205794" y="104.792491" transform="rotate(-0 736.205794 104.792491)">8.3%</text>
   </g>
   <g id="text_59">
    <text style="font-weight: 500; font-size: 20px; font-family: 'Poppins'; text-anchor: middle; fill: #ffffff" x="817.87832" y="327.11834" transform="rotate(-0 817.87832 327.11834)">2.5%</text>
   </g>
   <g id="text_60">
    <text style="font-weight: 500; font-size: 20px; font-family: 'Poppins'; text-anchor: middle; fill: #ffffff" x="817.87832" y="265.132215" transform="rotate(-0 817.87832 265.132215)">2.5%</text>
   </g>
   <g id="text_61">
    <text style="font-weight: 500; font-size: 20px; font-family: 'Poppins'; text-anchor: middle; fill: #ffffff" x="817.87832" y="195.604787" transform="rotate(-0 817.87832 195.604787)">3.1%</text>
   </g>
   <g id="text_62">
    <g id="patch_47">
     <path d="M 793.170507 147.749515 
L 842.586132 147.749515 
Q 858.586132 147.749515 858.586132 131.749515 
L 858.586132 137.630765 
Q 858.586132 121.630765 842.586132 121.630765 
L 793.170507 121.630765 
Q 777.170507 121.630765 777.170507 137.630765 
L 777.170507 131.749515 
Q 777.170507 147.749515 793.170507 147.749515 
z
" style="fill: #ffffff; stroke: #002f2a; stroke-width: 1.5; stroke-linejoin: miter"/>
    </g>
    <text style="font-weight: 700; font-size: 20px; font-family: 'Poppins'; text-anchor: middle; fill: #10302c" x="817.87832" y="139.430765" transform="rotate(-0 817.87832 139.430765)">  8,300  </text>
   </g>
   <g id="text_63">
    <text style="font-weight: 600; font-size: 22px; font-family: 'Poppins'; text-anchor: middle; fill: #4c6a67" x="817.87832" y="107.668821" transform="rotate(-0 817.87832 107.668821)">8.2%</text>
   </g>
   <g id="text_64">
    <text style="font-weight: 500; font-size: 20px; font-family: 'Poppins'; text-anchor: middle; fill: #ffffff" x="899.550845" y="325.933969" transform="rotate(-0 899.550845 325.933969)">2.6%</text>
   </g>
   <g id="text_65">
    <text style="font-weight: 500; font-size: 20px; font-family: 'Poppins'; text-anchor: middle; fill: #ffffff" x="899.550845" y="262.122945" transform="rotate(-0 899.550845 262.122945)">2.6%</text>
   </g>
   <g id="text_66">
    <text style="font-weight: 500; font-size: 20px; font-family: 'Poppins'; text-anchor: middle; fill: #ffffff" x="899.550845" y="198.058127" transform="rotate(-0 899.550845 198.058127)">2.6%</text>
   </g>
   <g id="text_67">
    <g id="patch_48">
     <path d="M 875.77272 156.305993 
L 923.32897 156.305993 
Q 939.32897 156.305993 939.32897 140.305993 
L 939.32897 146.187243 
Q 939.32897 130.187243 923.32897 130.187243 
L 875.77272 130.187243 
Q 859.77272 130.187243 859.77272 146.187243 
L 859.77272 140.305993 
Q 859.77272 156.305993 875.77272 156.305993 
z
" style="fill: #ffffff; stroke: #002f2a; stroke-width: 1.5; stroke-linejoin: miter"/>
    </g>
    <text style="font-weight: 700; font-size: 20px; font-family: 'Poppins'; text-anchor: middle; fill: #10302c" x="899.550845" y="147.987243" transform="rotate(-0 899.550845 147.987243)">  7,946  </text>
   </g>
   <g id="text_68">
    <text style="font-weight: 600; font-size: 22px; font-family: 'Poppins'; text-anchor: middle; fill: #4c6a67" x="899.550845" y="116.225299" transform="rotate(-0 899.550845 116.225299)">7.8%</text>
   </g>
   <g id="text_69">
    <text style="font-weight: 500; font-size: 20px; font-family: 'Poppins'; text-anchor: middle; fill: #ffffff" x="981.223371" y="325.53515" transform="rotate(-0 981.223371 325.53515)">2.6%</text>
   </g>
   <g id="text_70">
    <text style="font-weight: 500; font-size: 20px; font-family: 'Poppins'; text-anchor: middle; fill: #ffffff" x="981.223371" y="262.014176" transform="rotate(-0 981.223371 262.014176)">2.5%</text>
   </g>
   <g id="text_71">
    <text style="font-weight: 500; font-size: 20px; font-family: 'Poppins'; text-anchor: middle; fill: #ffffff" x="981.223371" y="202.227597" transform="rotate(-0 981.223371 202.227597)">2.3%</text>
   </g>
   <g id="text_72">
    <g id="patch_49">
     <path d="M 958.156184 164.064834 
L 1004.290559 164.064834 
Q 1020.290559 164.064834 1020.290559 148.064834 
L 1020.290559 153.946084 
Q 1020.290559 137.946084 1004.290559 137.946084 
L 958.156184 137.946084 
Q 942.156184 137.946084 942.156184 153.946084 
L 942.156184 148.064834 
Q 942.156184 164.064834 958.156184 164.064834 
z
" style="fill: #ffffff; stroke: #002f2a; stroke-width: 1.5; stroke-linejoin: miter"/>
    </g>
    <text style="font-weight: 700; font-size: 20px; font-family: 'Poppins'; text-anchor: middle; fill: #10302c" x="981.223371" y="155.746084" transform="rotate(-0 981.223371 155.746084)">  7,625  </text>
   </g>
   <g id="text_73">
    <text style="font-weight: 600; font-size: 22px; font-family: 'Poppins'; text-anchor: middle; fill: #4c6a67" x="981.223371" y="123.98414" transform="rotate(-0 981.223371 123.98414)">7.5%</text>
   </g>
   <g id="text_74">
    <text style="font-weight: 500; font-size: 20px; font-family: 'Poppins'; text-anchor: middle; fill: #ffffff" x="1062.895897" y="324.652915" transform="rotate(-0 1062.895897 324.652915)">2.7%</text>
   </g>
   <g id="text_75">
    <text style="font-weight: 500; font-size: 20px; font-family: 'Poppins'; text-anchor: middle; fill: #ffffff" x="1062.895897" y="262.388824" transform="rotate(-0 1062.895897 262.388824)">2.4%</text>
   </g>
   <g id="text_76">
    <text style="font-weight: 500; font-size: 20px; font-family: 'Poppins'; text-anchor: middle; fill: #ffffff" x="1062.895897" y="205.563174" transform="rotate(-0 1062.895897 205.563174)">2.3%</text>
   </g>
   <g id="text_77">
    <g id="patch_50">
     <path d="M 1039.088085 168.222219 
L 1086.70371 168.222219 
Q 1102.70371 168.222219 1102.70371 152.222219 
L 1102.70371 158.103469 
Q 1102.70371 142.103469 1086.70371 142.103469 
L 1039.088085 142.103469 
Q 1023.088085 142.103469 1023.088085 158.103469 
L 1023.088085 152.222219 
Q 1023.088085 168.222219 1039.088085 168.222219 
z
" style="fill: #ffffff; stroke: #002f2a; stroke-width: 1.5; stroke-linejoin: miter"/>
    </g>
    <text style="font-weight: 700; font-size: 20px; font-family: 'Poppins'; text-anchor: middle; fill: #10302c" x="1062.895897" y="159.903469" transform="rotate(-0 1062.895897 159.903469)">  7,453  </text>
   </g>
   <g id="text_78">
    <text style="font-weight: 600; font-size: 22px; font-family: 'Poppins'; text-anchor: middle; fill: #4c6a67" x="1062.895897" y="128.141525" transform="rotate(-0 1062.895897 128.141525)">7.3%</text>
   </g>
   <g id="legend_1">
    <g id="patch_51">
     <path d="M 116.543724 35.28 
L 164.543724 35.28 
L 164.543724 18.48 
L 116.543724 18.48 
z
" style="fill: #10302c"/>
    </g>
    <g id="text_79">
     <text style="font-weight: 500; font-size: 24px; font-family: 'Poppins'; text-anchor: start; fill: #767676" x="183.743724" y="35.28" transform="rotate(-0 183.743724 35.28)">Desaparecidos</text>
    </g>
    <g id="patch_52">
     <path d="M 414.364974 35.28 
L 462.364974 35.28 
L 462.364974 18.48 
L 414.364974 18.48 
z
" style="fill: #4c6a67"/>
    </g>
    <g id="text_80">
     <text style="font-weight: 500; font-size: 24px; font-family: 'Poppins'; text-anchor: start; fill: #767676" x="481.564974" y="35.28" transform="rotate(-0 481.564974 35.28)">Localizados</text>
    </g>
    <g id="patch_53">
     <path d="M 670.853724 35.28 
L 718.853724 35.28 
L 718.853724 18.48 
L 670.853724 18.48 
z
" style="fill: #8fa8a6"/>
    </g>
    <g id="text_81">
     <text style="font-weight: 500; font-size: 24px; font-family: 'Poppins'; text-anchor: start; fill: #767676" x="738.053724" y="35.28" transform="rotate(-0 738.053724 35.28)">No localizados</text>
    </g>
   </g>
  </g>
 </g>
 <defs>
  <clipPath id="pe22cb98456">
   <rect x="123.66185" y="68.854073" width="980.07031" height="284.266148"/>
  </clipPath>
 </defs>
</svg>
