<?xml version="1.0" encoding="utf-8" standalone="no"?>
<!DOCTYPE svg PUBLIC "-//W3C//DTD SVG 1.1//EN"
  "http://www.w3.org/Graphics/SVG/1.1/DTD/svg11.dtd">
<svg xmlns:xlink="http://www.w3.org/1999/xlink" width="1116.0225pt" height="566.623923pt" viewBox="0 0 1116.0225 566.623923" xmlns="http://www.w3.org/2000/svg" version="1.1">
 <metadata>
  <rdf:RDF xmlns:dc="http://purl.org/dc/elements/1.1/" xmlns:cc="http://creativecommons.org/ns#" xmlns:rdf="http://www.w3.org/1999/02/22-rdf-syntax-ns#">
   <cc:Work>
    <dc:type rdf:resource="http://purl.org/dc/dcmitype/StillImage"/>
    <dc:date>2025-05-26T17:52:39.307720</dc:date>
    <dc:format>image/svg+xml</dc:format>
    <dc:creator>
     <cc:Agent>
      <dc:title>Matplotlib v3.10.1, https://matplotlib.org/</dc:title>
     </cc:Agent>
    </dc:creator>
   </cc:Work>
  </rdf:RDF>
 </metadata>
 <defs>
  <style type="text/css">*{stroke-linejoin: round; stroke-linecap: butt}</style>
 </defs>
 <g id="figure_1">
  <g id="patch_1">
   <path d="M 0 566.623923 
L 1116.0225 566.623923 
L 1116.0225 0 
L 0 0 
z
" style="fill: #ffffff"/>
  </g>
  <g id="axes_1">
   <g id="patch_2">
    <path d="M 83.2525 399.248142 
L 1108.8225 399.248142 
L 1108.8225 69.758542 
L 83.2525 69.758542 
z
" style="fill: #ffffff"/>
   </g>
   <g id="matplotlib.axis_1">
    <g id="xtick_1">
     <g id="line2d_1">
      <defs>
       <path id="md4b4ab8de9" d="M 0 0 
L 0 3.5 
" style="stroke: #000000; stroke-width: 0.8"/>
      </defs>
      <g>
       <use xlink:href="#md4b4ab8de9" x="125.984583" y="399.248142" style="stroke: #000000; stroke-width: 0.8"/>
      </g>
     </g>
     <g id="text_1">
      <text style="font-weight: 500; font-size: 25px; font-family: 'Poppins'" transform="translate(119.433802 550.826267) rotate(-90)">31-03-2025</text>
     </g>
    </g>
    <g id="xtick_2">
     <g id="line2d_2">
      <g>
       <use xlink:href="#md4b4ab8de9" x="211.44875" y="399.248142" style="stroke: #000000; stroke-width: 0.8"/>
      </g>
     </g>
     <g id="text_2">
      <text style="font-weight: 500; font-size: 25px; font-family: 'Poppins'" transform="translate(204.897969 544.724704) rotate(-90)">30-11-2025</text>
     </g>
    </g>
    <g id="xtick_3">
     <g id="line2d_3">
      <g>
       <use xlink:href="#md4b4ab8de9" x="296.912917" y="399.248142" style="stroke: #000000; stroke-width: 0.8"/>
      </g>
     </g>
     <g id="text_3">
      <text style="font-weight: 500; font-size: 25px; font-family: 'Poppins'" transform="translate(290.362135 543.127048) rotate(-90)">31-12-2025</text>
     </g>
    </g>
    <g id="xtick_4">
     <g id="line2d_4">
      <g>
       <use xlink:href="#md4b4ab8de9" x="382.377083" y="399.248142" style="stroke: #000000; stroke-width: 0.8"/>
      </g>
     </g>
     <g id="text_4">
      <text style="font-weight: 500; font-size: 25px; font-family: 'Poppins'" transform="translate(375.826302 559.423923) rotate(-90)">30-04-2025</text>
     </g>
    </g>
    <g id="xtick_5">
     <g id="line2d_5">
      <g>
       <use xlink:href="#md4b4ab8de9" x="467.84125" y="399.248142" style="stroke: #000000; stroke-width: 0.8"/>
      </g>
     </g>
     <g id="text_5">
      <text style="font-weight: 500; font-size: 25px; font-family: 'Poppins'" transform="translate(461.290469 559.123142) rotate(-90)">30-09-2025</text>
     </g>
    </g>
    <g id="xtick_6">
     <g id="line2d_6">
      <g>
       <use xlink:href="#md4b4ab8de9" x="553.305417" y="399.248142" style="stroke: #000000; stroke-width: 0.8"/>
      </g>
     </g>
     <g id="text_6">
      <text style="font-weight: 500; font-size: 25px; font-family: 'Poppins'" transform="translate(546.754635 551.923923) rotate(-90)">31-08-2025</text>
     </g>
    </g>
    <g id="xtick_7">
     <g id="line2d_7">
      <g>
       <use xlink:href="#md4b4ab8de9" x="638.769583" y="399.248142" style="stroke: #000000; stroke-width: 0.8"/>
      </g>
     </g>
     <g id="text_7">
      <text style="font-weight: 500; font-size: 25px; font-family: 'Poppins'" transform="translate(632.218802 544.724704) rotate(-90)">31-01-2025</text>
     </g>
    </g>
    <g id="xtick_8">
     <g id="line2d_8">
      <g>
       <use xlink:href="#md4b4ab8de9" x="724.23375" y="399.248142" style="stroke: #000000; stroke-width: 0.8"/>
      </g>
     </g>
     <g id="text_8">
      <text style="font-weight: 500; font-size: 25px; font-family: 'Poppins'" transform="translate(717.682969 544.724704) rotate(-90)">31-10-2025</text>
     </g>
    </g>
    <g id="xtick_9">
     <g id="line2d_9">
      <g>
       <use xlink:href="#md4b4ab8de9" x="809.697917" y="399.248142" style="stroke: #000000; stroke-width: 0.8"/>
      </g>
     </g>
     <g id="text_9">
      <text style="font-weight: 500; font-size: 25px; font-family: 'Poppins'" transform="translate(803.147135 559.298923) rotate(-90)">30-06-2025</text>
     </g>
    </g>
    <g id="xtick_10">
     <g id="line2d_10">
      <g>
       <use xlink:href="#md4b4ab8de9" x="895.162083" y="399.248142" style="stroke: #000000; stroke-width: 0.8"/>
      </g>
     </g>
     <g id="text_10">
      <text style="font-weight: 500; font-size: 25px; font-family: 'Poppins'" transform="translate(888.611302 551.951267) rotate(-90)">31-05-2025</text>
     </g>
    </g>
    <g id="xtick_11">
     <g id="line2d_11">
      <g>
       <use xlink:href="#md4b4ab8de9" x="980.62625" y="399.248142" style="stroke: #000000; stroke-width: 0.8"/>
      </g>
     </g>
     <g id="text_11">
      <text style="font-weight: 500; font-size: 25px; font-family: 'Poppins'" transform="translate(974.075469 549.974704) rotate(-90)">31-07-2025</text>
     </g>
    </g>
    <g id="xtick_12">
     <g id="line2d_12">
      <g>
       <use xlink:href="#md4b4ab8de9" x="1066.090417" y="399.248142" style="stroke: #000000; stroke-width: 0.8"/>
      </g>
     </g>
     <g id="text_12">
      <text style="font-weight: 500; font-size: 25px; font-family: 'Poppins'" transform="translate(1059.539635 557.173923) rotate(-90)">28-02-2025</text>
     </g>
    </g>
   </g>
   <g id="matplotlib.axis_2">
    <g id="ytick_1">
     <g id="line2d_13">
      <path d="M 83.2525 399.248142 
L 1108.8225 399.248142 
" clip-path="url(#p62cc0d29dd)" style="fill: none; stroke: #b9b9b9; stroke-width: 0.75; stroke-linecap: square"/>
     </g>
     <g id="line2d_14">
      <defs>
       <path id="m7d45d730e6" d="M 0 0 
L -3.5 0 
" style="stroke: #000000; stroke-width: 0.8"/>
      </defs>
      <g>
       <use xlink:href="#m7d45d730e6" x="83.2525" y="399.248142" style="stroke: #000000; stroke-width: 0.8"/>
      </g>
     </g>
     <g id="text_13">
      <text style="font-weight: 500; font-size: 22px; font-family: 'Poppins'; text-anchor: end" x="76.2525" y="407.388142" transform="rotate(-0 76.2525 407.388142)">0</text>
     </g>
    </g>
    <g id="ytick_2">
     <g id="line2d_15">
      <path d="M 83.2525 346.977203 
L 1108.8225 346.977203 
" clip-path="url(#p62cc0d29dd)" style="fill: none; stroke: #b9b9b9; stroke-width: 0.75; stroke-linecap: square"/>
     </g>
     <g id="line2d_16">
      <g>
       <use xlink:href="#m7d45d730e6" x="83.2525" y="346.977203" style="stroke: #000000; stroke-width: 0.8"/>
      </g>
     </g>
     <g id="text_14">
      <text style="font-weight: 500; font-size: 22px; font-family: 'Poppins'; text-anchor: end" x="76.2525" y="355.117203" transform="rotate(-0 76.2525 355.117203)">2,000</text>
     </g>
    </g>
    <g id="ytick_3">
     <g id="line2d_17">
      <path d="M 83.2525 294.706265 
L 1108.8225 294.706265 
" clip-path="url(#p62cc0d29dd)" style="fill: none; stroke: #b9b9b9; stroke-width: 0.75; stroke-linecap: square"/>
     </g>
     <g id="line2d_18">
      <g>
       <use xlink:href="#m7d45d730e6" x="83.2525" y="294.706265" style="stroke: #000000; stroke-width: 0.8"/>
      </g>
     </g>
     <g id="text_15">
      <text style="font-weight: 500; font-size: 22px; font-family: 'Poppins'; text-anchor: end" x="76.2525" y="302.846265" transform="rotate(-0 76.2525 302.846265)">4,000</text>
     </g>
    </g>
    <g id="ytick_4">
     <g id="line2d_19">
      <path d="M 83.2525 242.435326 
L 1108.8225 242.435326 
" clip-path="url(#p62cc0d29dd)" style="fill: none; stroke: #b9b9b9; stroke-width: 0.75; stroke-linecap: square"/>
     </g>
     <g id="line2d_20">
      <g>
       <use xlink:href="#m7d45d730e6" x="83.2525" y="242.435326" style="stroke: #000000; stroke-width: 0.8"/>
      </g>
     </g>
     <g id="text_16">
      <text style="font-weight: 500; font-size: 22px; font-family: 'Poppins'; text-anchor: end" x="76.2525" y="250.575326" transform="rotate(-0 76.2525 250.575326)">6,000</text>
     </g>
    </g>
    <g id="ytick_5">
     <g id="line2d_21">
      <path d="M 83.2525 190.164388 
L 1108.8225 190.164388 
" clip-path="url(#p62cc0d29dd)" style="fill: none; stroke: #b9b9b9; stroke-width: 0.75; stroke-linecap: square"/>
     </g>
     <g id="line2d_22">
      <g>
       <use xlink:href="#m7d45d730e6" x="83.2525" y="190.164388" style="stroke: #000000; stroke-width: 0.8"/>
      </g>
     </g>
     <g id="text_17">
      <text style="font-weight: 500; font-size: 22px; font-family: 'Poppins'; text-anchor: end" x="76.2525" y="198.304388" transform="rotate(-0 76.2525 198.304388)">8,000</text>
     </g>
    </g>
    <g id="ytick_6">
     <g id="line2d_23">
      <path d="M 83.2525 137.893449 
L 1108.8225 137.893449 
" clip-path="url(#p62cc0d29dd)" style="fill: none; stroke: #b9b9b9; stroke-width: 0.75; stroke-linecap: square"/>
     </g>
     <g id="line2d_24">
      <g>
       <use xlink:href="#m7d45d730e6" x="83.2525" y="137.893449" style="stroke: #000000; stroke-width: 0.8"/>
      </g>
     </g>
     <g id="text_18">
      <text style="font-weight: 500; font-size: 22px; font-family: 'Poppins'; text-anchor: end" x="76.2525" y="146.033449" transform="rotate(-0 76.2525 146.033449)">10,000</text>
     </g>
    </g>
    <g id="ytick_7">
     <g id="line2d_25">
      <path d="M 83.2525 85.622511 
L 1108.8225 85.622511 
" clip-path="url(#p62cc0d29dd)" style="fill: none; stroke: #b9b9b9; stroke-width: 0.75; stroke-linecap: square"/>
     </g>
     <g id="line2d_26">
      <g>
       <use xlink:href="#m7d45d730e6" x="83.2525" y="85.622511" style="stroke: #000000; stroke-width: 0.8"/>
      </g>
     </g>
     <g id="text_19">
      <text style="font-weight: 500; font-size: 22px; font-family: 'Poppins'; text-anchor: end" x="76.2525" y="93.762511" transform="rotate(-0 76.2525 93.762511)">12,000</text>
     </g>
    </g>
   </g>
   <g id="patch_3">
    <path d="M 87.525708 399.248142 
L 164.443458 399.248142 
L 164.443458 312.243165 
L 87.525708 312.243165 
z
" clip-path="url(#p62cc0d29dd)" style="fill: #10302c"/>
   </g>
   <g id="patch_4">
    <path d="M 87.525708 312.243165 
L 164.443458 312.243165 
L 164.443458 221.788306 
L 87.525708 221.788306 
z
" clip-path="url(#p62cc0d29dd)" style="fill: #4c6a67"/>
   </g>
   <g id="patch_5">
    <path d="M 87.525708 221.788306 
L 164.443458 221.788306 
L 164.443458 138.782055 
L 87.525708 138.782055 
z
" clip-path="url(#p62cc0d29dd)" style="fill: #8fa8a6"/>
   </g>
   <g id="patch_6">
    <path d="M 172.989875 399.248142 
L 249.907625 399.248142 
L 249.907625 314.177189 
L 172.989875 314.177189 
z
" clip-path="url(#p62cc0d29dd)" style="fill: #10302c"/>
   </g>
   <g id="patch_7">
    <path d="M 172.989875 314.177189 
L 249.907625 314.177189 
L 249.907625 243.036442 
L 172.989875 243.036442 
z
" clip-path="url(#p62cc0d29dd)" style="fill: #4c6a67"/>
   </g>
   <g id="patch_8">
    <path d="M 172.989875 243.036442 
L 249.907625 243.036442 
L 249.907625 166.407246 
L 172.989875 166.407246 
z
" clip-path="url(#p62cc0d29dd)" style="fill: #8fa8a6"/>
   </g>
   <g id="patch_9">
    <path d="M 258.454042 399.248142 
L 335.371792 399.248142 
L 335.371792 321.259902 
L 258.454042 321.259902 
z
" clip-path="url(#p62cc0d29dd)" style="fill: #10302c"/>
   </g>
   <g id="patch_10">
    <path d="M 258.454042 321.259902 
L 335.371792 321.259902 
L 335.371792 249.727122 
L 258.454042 249.727122 
z
" clip-path="url(#p62cc0d29dd)" style="fill: #4c6a67"/>
   </g>
   <g id="patch_11">
    <path d="M 258.454042 249.727122 
L 335.371792 249.727122 
L 335.371792 169.778722 
L 258.454042 169.778722 
z
" clip-path="url(#p62cc0d29dd)" style="fill: #8fa8a6"/>
   </g>
   <g id="patch_12">
    <path d="M 343.918208 399.248142 
L 420.835958 399.248142 
L 420.835958 331.557277 
L 343.918208 331.557277 
z
" clip-path="url(#p62cc0d29dd)" style="fill: #10302c"/>
   </g>
   <g id="patch_13">
    <path d="M 343.918208 331.557277 
L 420.835958 331.557277 
L 420.835958 256.26099 
L 343.918208 256.26099 
z
" clip-path="url(#p62cc0d29dd)" style="fill: #4c6a67"/>
   </g>
   <g id="patch_14">
    <path d="M 343.918208 256.26099 
L 420.835958 256.26099 
L 420.835958 171.268443 
L 343.918208 171.268443 
z
" clip-path="url(#p62cc0d29dd)" style="fill: #8fa8a6"/>
   </g>
   <g id="patch_15">
    <path d="M 429.382375 399.248142 
L 506.300125 399.248142 
L 506.300125 323.167791 
L 429.382375 323.167791 
z
" clip-path="url(#p62cc0d29dd)" style="fill: #10302c"/>
   </g>
   <g id="patch_16">
    <path d="M 429.382375 323.167791 
L 506.300125 323.167791 
L 506.300125 242.017159 
L 429.382375 242.017159 
z
" clip-path="url(#p62cc0d29dd)" style="fill: #4c6a67"/>
   </g>
   <g id="patch_17">
    <path d="M 429.382375 242.017159 
L 506.300125 242.017159 
L 506.300125 172.888842 
L 429.382375 172.888842 
z
" clip-path="url(#p62cc0d29dd)" style="fill: #8fa8a6"/>
   </g>
   <g id="patch_18">
    <path d="M 514.846542 399.248142 
L 591.764292 399.248142 
L 591.764292 321.808746 
L 514.846542 321.808746 
z
" clip-path="url(#p62cc0d29dd)" style="fill: #10302c"/>
   </g>
   <g id="patch_19">
    <path d="M 514.846542 321.808746 
L 591.764292 321.808746 
L 591.764292 246.956762 
L 514.846542 246.956762 
z
" clip-path="url(#p62cc0d29dd)" style="fill: #4c6a67"/>
   </g>
   <g id="patch_20">
    <path d="M 514.846542 246.956762 
L 591.764292 246.956762 
L 591.764292 175.397848 
L 514.846542 175.397848 
z
" clip-path="url(#p62cc0d29dd)" style="fill: #8fa8a6"/>
   </g>
   <g id="patch_21">
    <path d="M 600.310708 399.248142 
L 677.228458 399.248142 
L 677.228458 334.876481 
L 600.310708 334.876481 
z
" clip-path="url(#p62cc0d29dd)" style="fill: #10302c"/>
   </g>
   <g id="patch_22">
    <path d="M 600.310708 334.876481 
L 677.228458 334.876481 
L 677.228458 259.632465 
L 600.310708 259.632465 
z
" clip-path="url(#p62cc0d29dd)" style="fill: #4c6a67"/>
   </g>
   <g id="patch_23">
    <path d="M 600.310708 259.632465 
L 677.228458 259.632465 
L 677.228458 177.018247 
L 600.310708 177.018247 
z
" clip-path="url(#p62cc0d29dd)" style="fill: #8fa8a6"/>
   </g>
   <g id="patch_24">
    <path d="M 685.774875 399.248142 
L 762.692625 399.248142 
L 762.692625 326.46086 
L 685.774875 326.46086 
z
" clip-path="url(#p62cc0d29dd)" style="fill: #10302c"/>
   </g>
   <g id="patch_25">
    <path d="M 685.774875 326.46086 
L 762.692625 326.46086 
L 762.692625 258.482504 
L 685.774875 258.482504 
z
" clip-path="url(#p62cc0d29dd)" style="fill: #4c6a67"/>
   </g>
   <g id="patch_26">
    <path d="M 685.774875 258.482504 
L 762.692625 258.482504 
L 762.692625 183.473708 
L 685.774875 183.473708 
z
" clip-path="url(#p62cc0d29dd)" style="fill: #8fa8a6"/>
   </g>
   <g id="patch_27">
    <path d="M 771.239042 399.248142 
L 848.156792 399.248142 
L 848.156792 318.228187 
L 771.239042 318.228187 
z
" clip-path="url(#p62cc0d29dd)" style="fill: #10302c"/>
   </g>
   <g id="patch_28">
    <path d="M 771.239042 318.228187 
L 848.156792 318.228187 
L 848.156792 250.066883 
L 771.239042 250.066883 
z
" clip-path="url(#p62cc0d29dd)" style="fill: #4c6a67"/>
   </g>
   <g id="patch_29">
    <path d="M 771.239042 250.066883 
L 848.156792 250.066883 
L 848.156792 186.296338 
L 771.239042 186.296338 
z
" clip-path="url(#p62cc0d29dd)" style="fill: #8fa8a6"/>
   </g>
   <g id="patch_30">
    <path d="M 856.703208 399.248142 
L 933.620958 399.248142 
L 933.620958 332.419747 
L 856.703208 332.419747 
z
" clip-path="url(#p62cc0d29dd)" style="fill: #10302c"/>
   </g>
   <g id="patch_31">
    <path d="M 856.703208 332.419747 
L 933.620958 332.419747 
L 933.620958 271.60251 
L 856.703208 271.60251 
z
" clip-path="url(#p62cc0d29dd)" style="fill: #4c6a67"/>
   </g>
   <g id="patch_32">
    <path d="M 856.703208 271.60251 
L 933.620958 271.60251 
L 933.620958 197.717538 
L 856.703208 197.717538 
z
" clip-path="url(#p62cc0d29dd)" style="fill: #8fa8a6"/>
   </g>
   <g id="patch_33">
    <path d="M 942.167375 399.248142 
L 1019.085125 399.248142 
L 1019.085125 329.23122 
L 942.167375 329.23122 
z
" clip-path="url(#p62cc0d29dd)" style="fill: #10302c"/>
   </g>
   <g id="patch_34">
    <path d="M 942.167375 329.23122 
L 1019.085125 329.23122 
L 1019.085125 269.250318 
L 942.167375 269.250318 
z
" clip-path="url(#p62cc0d29dd)" style="fill: #4c6a67"/>
   </g>
   <g id="patch_35">
    <path d="M 942.167375 269.250318 
L 1019.085125 269.250318 
L 1019.085125 201.298098 
L 942.167375 201.298098 
z
" clip-path="url(#p62cc0d29dd)" style="fill: #8fa8a6"/>
   </g>
   <g id="patch_36">
    <path d="M 1027.631542 399.248142 
L 1104.549292 399.248142 
L 1104.549292 344.076166 
L 1027.631542 344.076166 
z
" clip-path="url(#p62cc0d29dd)" style="fill: #10302c"/>
   </g>
   <g id="patch_37">
    <path d="M 1027.631542 344.076166 
L 1104.549292 344.076166 
L 1104.549292 279.260202 
L 1027.631542 279.260202 
z
" clip-path="url(#p62cc0d29dd)" style="fill: #4c6a67"/>
   </g>
   <g id="patch_38">
    <path d="M 1027.631542 279.260202 
L 1104.549292 279.260202 
L 1104.549292 218.495236 
L 1027.631542 218.495236 
z
" clip-path="url(#p62cc0d29dd)" style="fill: #8fa8a6"/>
   </g>
   <g id="text_20">
    <text style="font-weight: 500; font-size: 20px; font-family: 'Poppins'; text-anchor: middle; fill: #ffffff" x="125.984583" y="360.525341" transform="rotate(-0 125.984583 360.525341)">33.4%</text>
   </g>
   <g id="text_21">
    <text style="font-weight: 500; font-size: 20px; font-family: 'Poppins'; text-anchor: middle; fill: #ffffff" x="125.984583" y="271.795423" transform="rotate(-0 125.984583 271.795423)">34.7%</text>
   </g>
   <g id="text_22">
    <text style="font-weight: 500; font-size: 20px; font-family: 'Poppins'; text-anchor: middle; fill: #ffffff" x="125.984583" y="185.064868" transform="rotate(-0 125.984583 185.064868)">31.9%</text>
   </g>
   <g id="text_23">
    <g id="patch_39">
     <path d="M 101.806458 132.795975 
L 150.162708 132.795975 
Q 166.162708 132.795975 166.162708 116.795975 
L 166.162708 122.677225 
Q 166.162708 106.677225 150.162708 106.677225 
L 101.806458 106.677225 
Q 85.806458 106.677225 85.806458 122.677225 
L 85.806458 116.795975 
Q 85.806458 132.795975 101.806458 132.795975 
z
" style="fill: #ffffff; stroke: #002f2a; stroke-width: 1.5; stroke-linejoin: miter"/>
    </g>
    <text style="font-weight: 700; font-size: 20px; font-family: 'Poppins'; text-anchor: middle; fill: #10302c" x="125.984583" y="124.477225" transform="rotate(-0 125.984583 124.477225)">  9,966  </text>
   </g>
   <g id="text_24">
    <text style="font-weight: 600; font-size: 22px; font-family: 'Poppins'; text-anchor: middle; fill: #4c6a67" x="125.984583" y="88.04228" transform="rotate(-0 125.984583 88.04228)">9.9%</text>
   </g>
   <g id="text_25">
    <text style="font-weight: 500; font-size: 20px; font-family: 'Poppins'; text-anchor: middle; fill: #ffffff" x="211.44875" y="361.492353" transform="rotate(-0 211.44875 361.492353)">36.5%</text>
   </g>
   <g id="text_26">
    <text style="font-weight: 500; font-size: 20px; font-family: 'Poppins'; text-anchor: middle; fill: #ffffff" x="211.44875" y="283.386503" transform="rotate(-0 211.44875 283.386503)">30.6%</text>
   </g>
   <g id="text_27">
    <text style="font-weight: 500; font-size: 20px; font-family: 'Poppins'; text-anchor: middle; fill: #ffffff" x="211.44875" y="209.501532" transform="rotate(-0 211.44875 209.501532)">32.9%</text>
   </g>
   <g id="text_28">
    <g id="patch_40">
     <path d="M 187.01125 160.421166 
L 235.88625 160.421166 
Q 251.88625 160.421166 251.88625 144.421166 
L 251.88625 150.302416 
Q 251.88625 134.302416 235.88625 134.302416 
L 187.01125 134.302416 
Q 171.01125 134.302416 171.01125 150.302416 
L 171.01125 144.421166 
Q 171.01125 160.421166 187.01125 160.421166 
z
" style="fill: #ffffff; stroke: #002f2a; stroke-width: 1.5; stroke-linejoin: miter"/>
    </g>
    <text style="font-weight: 700; font-size: 20px; font-family: 'Poppins'; text-anchor: middle; fill: #10302c" x="211.44875" y="152.102416" transform="rotate(-0 211.44875 152.102416)">  8,909  </text>
   </g>
   <g id="text_29">
    <text style="font-weight: 600; font-size: 22px; font-family: 'Poppins'; text-anchor: middle; fill: #4c6a67" x="211.44875" y="115.667471" transform="rotate(-0 211.44875 115.667471)">8.8%</text>
   </g>
   <g id="text_30">
    <text style="font-weight: 500; font-size: 20px; font-family: 'Poppins'; text-anchor: middle; fill: #ffffff" x="296.912917" y="365.033709" transform="rotate(-0 296.912917 365.033709)">34.0%</text>
   </g>
   <g id="text_31">
    <text style="font-weight: 500; font-size: 20px; font-family: 'Poppins'; text-anchor: middle; fill: #ffffff" x="296.912917" y="290.273199" transform="rotate(-0 296.912917 290.273199)">31.2%</text>
   </g>
   <g id="text_32">
    <text style="font-weight: 500; font-size: 20px; font-family: 'Poppins'; text-anchor: middle; fill: #ffffff" x="296.912917" y="214.532609" transform="rotate(-0 296.912917 214.532609)">34.8%</text>
   </g>
   <g id="text_33">
    <g id="patch_41">
     <path d="M 272.945729 163.792642 
L 320.880104 163.792642 
Q 336.880104 163.792642 336.880104 147.792642 
L 336.880104 153.673892 
Q 336.880104 137.673892 320.880104 137.673892 
L 272.945729 137.673892 
Q 256.945729 137.673892 256.945729 153.673892 
L 256.945729 147.792642 
Q 256.945729 163.792642 272.945729 163.792642 
z
" style="fill: #ffffff; stroke: #002f2a; stroke-width: 1.5; stroke-linejoin: miter"/>
    </g>
    <text style="font-weight: 700; font-size: 20px; font-family: 'Poppins'; text-anchor: middle; fill: #10302c" x="296.912917" y="155.473892" transform="rotate(-0 296.912917 155.473892)">  8,780  </text>
   </g>
   <g id="text_34">
    <text style="font-weight: 600; font-size: 22px; font-family: 'Poppins'; text-anchor: middle; fill: #4c6a67" x="296.912917" y="119.038947" transform="rotate(-0 296.912917 119.038947)">8.7%</text>
   </g>
   <g id="text_35">
    <text style="font-weight: 500; font-size: 20px; font-family: 'Poppins'; text-anchor: middle; fill: #ffffff" x="382.377083" y="370.182397" transform="rotate(-0 382.377083 370.182397)">29.7%</text>
   </g>
   <g id="text_36">
    <text style="font-weight: 500; font-size: 20px; font-family: 'Poppins'; text-anchor: middle; fill: #ffffff" x="382.377083" y="298.688821" transform="rotate(-0 382.377083 298.688821)">33.0%</text>
   </g>
   <g id="text_37">
    <text style="font-weight: 500; font-size: 20px; font-family: 'Poppins'; text-anchor: middle; fill: #ffffff" x="382.377083" y="218.544404" transform="rotate(-0 382.377083 218.544404)">37.3%</text>
   </g>
   <g id="text_38">
    <g id="patch_42">
     <path d="M 359.650521 165.282363 
L 405.103646 165.282363 
Q 421.103646 165.282363 421.103646 149.282363 
L 421.103646 155.163613 
Q 421.103646 139.163613 405.103646 139.163613 
L 359.650521 139.163613 
Q 343.650521 139.163613 343.650521 155.163613 
L 343.650521 149.282363 
Q 343.650521 165.282363 359.650521 165.282363 
z
" style="fill: #ffffff; stroke: #002f2a; stroke-width: 1.5; stroke-linejoin: miter"/>
    </g>
    <text style="font-weight: 700; font-size: 20px; font-family: 'Poppins'; text-anchor: middle; fill: #10302c" x="382.377083" y="156.963613" transform="rotate(-0 382.377083 156.963613)">  8,723  </text>
   </g>
   <g id="text_39">
    <text style="font-weight: 600; font-size: 22px; font-family: 'Poppins'; text-anchor: middle; fill: #4c6a67" x="382.377083" y="120.528668" transform="rotate(-0 382.377083 120.528668)">8.7%</text>
   </g>
   <g id="text_40">
    <text style="font-weight: 500; font-size: 20px; font-family: 'Poppins'; text-anchor: middle; fill: #ffffff" x="467.84125" y="365.987654" transform="rotate(-0 467.84125 365.987654)">33.6%</text>
   </g>
   <g id="text_41">
    <text style="font-weight: 500; font-size: 20px; font-family: 'Poppins'; text-anchor: middle; fill: #ffffff" x="467.84125" y="287.372162" transform="rotate(-0 467.84125 287.372162)">35.9%</text>
   </g>
   <g id="text_42">
    <text style="font-weight: 500; font-size: 20px; font-family: 'Poppins'; text-anchor: middle; fill: #ffffff" x="467.84125" y="212.232688" transform="rotate(-0 467.84125 212.232688)">30.5%</text>
   </g>
   <g id="text_43">
    <g id="patch_43">
     <path d="M 445.724062 166.902762 
L 489.958437 166.902762 
Q 505.958437 166.902762 505.958437 150.902762 
L 505.958437 156.784012 
Q 505.958437 140.784012 489.958437 140.784012 
L 445.724062 140.784012 
Q 429.724062 140.784012 429.724062 156.784012 
L 429.724062 150.902762 
Q 429.724062 166.902762 445.724062 166.902762 
z
" style="fill: #ffffff; stroke: #002f2a; stroke-width: 1.5; stroke-linejoin: miter"/>
    </g>
    <text style="font-weight: 700; font-size: 20px; font-family: 'Poppins'; text-anchor: middle; fill: #10302c" x="467.84125" y="158.584012" transform="rotate(-0 467.84125 158.584012)">  8,661  </text>
   </g>
   <g id="text_44">
    <text style="font-weight: 600; font-size: 22px; font-family: 'Poppins'; text-anchor: middle; fill: #4c6a67" x="467.84125" y="122.149067" transform="rotate(-0 467.84125 122.149067)">8.6%</text>
   </g>
   <g id="text_45">
    <text style="font-weight: 500; font-size: 20px; font-family: 'Poppins'; text-anchor: middle; fill: #ffffff" x="553.305417" y="365.308132" transform="rotate(-0 553.305417 365.308132)">34.6%</text>
   </g>
   <g id="text_46">
    <text style="font-weight: 500; font-size: 20px; font-family: 'Poppins'; text-anchor: middle; fill: #ffffff" x="553.305417" y="289.162442" transform="rotate(-0 553.305417 289.162442)">33.4%</text>
   </g>
   <g id="text_47">
    <text style="font-weight: 500; font-size: 20px; font-family: 'Poppins'; text-anchor: middle; fill: #ffffff" x="553.305417" y="215.956992" transform="rotate(-0 553.305417 215.956992)">32.0%</text>
   </g>
   <g id="text_48">
    <g id="patch_44">
     <path d="M 528.317917 169.411768 
L 578.292917 169.411768 
Q 594.292917 169.411768 594.292917 153.411768 
L 594.292917 159.293018 
Q 594.292917 143.293018 578.292917 143.293018 
L 528.317917 143.293018 
Q 512.317917 143.293018 512.317917 159.293018 
L 512.317917 153.411768 
Q 512.317917 169.411768 528.317917 169.411768 
z
" style="fill: #ffffff; stroke: #002f2a; stroke-width: 1.5; stroke-linejoin: miter"/>
    </g>
    <text style="font-weight: 700; font-size: 20px; font-family: 'Poppins'; text-anchor: middle; fill: #10302c" x="553.305417" y="161.093018" transform="rotate(-0 553.305417 161.093018)">  8,565  </text>
   </g>
   <g id="text_49">
    <text style="font-weight: 600; font-size: 22px; font-family: 'Poppins'; text-anchor: middle; fill: #4c6a67" x="553.305417" y="124.658073" transform="rotate(-0 553.305417 124.658073)">8.5%</text>
   </g>
   <g id="text_50">
    <text style="font-weight: 500; font-size: 20px; font-family: 'Poppins'; text-anchor: middle; fill: #ffffff" x="638.769583" y="371.841999" transform="rotate(-0 638.769583 371.841999)">29.0%</text>
   </g>
   <g id="text_51">
    <text style="font-weight: 500; font-size: 20px; font-family: 'Poppins'; text-anchor: middle; fill: #ffffff" x="638.769583" y="302.034161" transform="rotate(-0 638.769583 302.034161)">33.9%</text>
   </g>
   <g id="text_52">
    <text style="font-weight: 500; font-size: 20px; font-family: 'Poppins'; text-anchor: middle; fill: #ffffff" x="638.769583" y="223.105043" transform="rotate(-0 638.769583 223.105043)">37.2%</text>
   </g>
   <g id="text_53">
    <g id="patch_45">
     <path d="M 614.082083 171.032167 
L 663.457083 171.032167 
Q 679.457083 171.032167 679.457083 155.032167 
L 679.457083 160.913417 
Q 679.457083 144.913417 663.457083 144.913417 
L 614.082083 144.913417 
Q 598.082083 144.913417 598.082083 160.913417 
L 598.082083 155.032167 
Q 598.082083 171.032167 614.082083 171.032167 
z
" style="fill: #ffffff; stroke: #002f2a; stroke-width: 1.5; stroke-linejoin: miter"/>
    </g>
    <text style="font-weight: 700; font-size: 20px; font-family: 'Poppins'; text-anchor: middle; fill: #10302c" x="638.769583" y="162.713417" transform="rotate(-0 638.769583 162.713417)">  8,503  </text>
   </g>
   <g id="text_54">
    <text style="font-weight: 600; font-size: 22px; font-family: 'Poppins'; text-anchor: middle; fill: #4c6a67" x="638.769583" y="126.278472" transform="rotate(-0 638.769583 126.278472)">8.4%</text>
   </g>
   <g id="text_55">
    <text style="font-weight: 500; font-size: 20px; font-family: 'Poppins'; text-anchor: middle; fill: #ffffff" x="724.23375" y="367.634189" transform="rotate(-0 724.23375 367.634189)">33.7%</text>
   </g>
   <g id="text_56">
    <text style="font-weight: 500; font-size: 20px; font-family: 'Poppins'; text-anchor: middle; fill: #ffffff" x="724.23375" y="297.25137" transform="rotate(-0 724.23375 297.25137)">31.5%</text>
   </g>
   <g id="text_57">
    <text style="font-weight: 500; font-size: 20px; font-family: 'Poppins'; text-anchor: middle; fill: #ffffff" x="724.23375" y="225.757793" transform="rotate(-0 724.23375 225.757793)">34.8%</text>
   </g>
   <g id="text_58">
    <g id="patch_46">
     <path d="M 700.036875 177.487628 
L 748.430625 177.487628 
Q 764.430625 177.487628 764.430625 161.487628 
L 764.430625 167.368878 
Q 764.430625 151.368878 748.430625 151.368878 
L 700.036875 151.368878 
Q 684.036875 151.368878 684.036875 167.368878 
L 684.036875 161.487628 
Q 684.036875 177.487628 700.036875 177.487628 
z
" style="fill: #ffffff; stroke: #002f2a; stroke-width: 1.5; stroke-linejoin: miter"/>
    </g>
    <text style="font-weight: 700; font-size: 20px; font-family: 'Poppins'; text-anchor: middle; fill: #10302c" x="724.23375" y="169.168878" transform="rotate(-0 724.23375 169.168878)">  8,256  </text>
   </g>
   <g id="text_59">
    <text style="font-weight: 600; font-size: 22px; font-family: 'Poppins'; text-anchor: middle; fill: #4c6a67" x="724.23375" y="132.733933" transform="rotate(-0 724.23375 132.733933)">8.2%</text>
   </g>
   <g id="text_60">
    <text style="font-weight: 500; font-size: 20px; font-family: 'Poppins'; text-anchor: middle; fill: #ffffff" x="809.697917" y="363.517852" transform="rotate(-0 809.697917 363.517852)">38.0%</text>
   </g>
   <g id="text_61">
    <text style="font-weight: 500; font-size: 20px; font-family: 'Poppins'; text-anchor: middle; fill: #ffffff" x="809.697917" y="288.927223" transform="rotate(-0 809.697917 288.927223)">32.0%</text>
   </g>
   <g id="text_62">
    <text style="font-weight: 500; font-size: 20px; font-family: 'Poppins'; text-anchor: middle; fill: #ffffff" x="809.697917" y="222.961298" transform="rotate(-0 809.697917 222.961298)">29.9%</text>
   </g>
   <g id="text_63">
    <g id="patch_47">
     <path d="M 787.071354 180.310258 
L 832.324479 180.310258 
Q 848.324479 180.310258 848.324479 164.310258 
L 848.324479 170.191508 
Q 848.324479 154.191508 832.324479 154.191508 
L 787.071354 154.191508 
Q 771.071354 154.191508 771.071354 170.191508 
L 771.071354 164.310258 
Q 771.071354 180.310258 787.071354 180.310258 
z
" style="fill: #ffffff; stroke: #002f2a; stroke-width: 1.5; stroke-linejoin: miter"/>
    </g>
    <text style="font-weight: 700; font-size: 20px; font-family: 'Poppins'; text-anchor: middle; fill: #10302c" x="809.697917" y="171.991508" transform="rotate(-0 809.697917 171.991508)">  8,148  </text>
   </g>
   <g id="text_64">
    <text style="font-weight: 600; font-size: 22px; font-family: 'Poppins'; text-anchor: middle; fill: #4c6a67" x="809.697917" y="135.556563" transform="rotate(-0 809.697917 135.556563)">8.1%</text>
   </g>
   <g id="text_65">
    <text style="font-weight: 500; font-size: 20px; font-family: 'Poppins'; text-anchor: middle; fill: #ffffff" x="895.162083" y="370.613632" transform="rotate(-0 895.162083 370.613632)">33.2%</text>
   </g>
   <g id="text_66">
    <text style="font-weight: 500; font-size: 20px; font-family: 'Poppins'; text-anchor: middle; fill: #ffffff" x="895.162083" y="306.790816" transform="rotate(-0 895.162083 306.790816)">30.2%</text>
   </g>
   <g id="text_67">
    <text style="font-weight: 500; font-size: 20px; font-family: 'Poppins'; text-anchor: middle; fill: #ffffff" x="895.162083" y="239.439712" transform="rotate(-0 895.162083 239.439712)">36.7%</text>
   </g>
   <g id="text_68">
    <g id="patch_48">
     <path d="M 877.805833 191.731458 
L 912.518333 191.731458 
Q 928.518333 191.731458 928.518333 175.731458 
L 928.518333 181.612708 
Q 928.518333 165.612708 912.518333 165.612708 
L 877.805833 165.612708 
Q 861.805833 165.612708 861.805833 181.612708 
L 861.805833 175.731458 
Q 861.805833 191.731458 877.805833 191.731458 
z
" style="fill: #ffffff; stroke: #002f2a; stroke-width: 1.5; stroke-linejoin: miter"/>
    </g>
    <text style="font-weight: 700; font-size: 20px; font-family: 'Poppins'; text-anchor: middle; fill: #10302c" x="895.162083" y="183.412708" transform="rotate(-0 895.162083 183.412708)">  7,711  </text>
   </g>
   <g id="text_69">
    <text style="font-weight: 600; font-size: 22px; font-family: 'Poppins'; text-anchor: middle; fill: #4c6a67" x="895.162083" y="146.977763" transform="rotate(-0 895.162083 146.977763)">7.7%</text>
   </g>
   <g id="text_70">
    <text style="font-weight: 500; font-size: 20px; font-family: 'Poppins'; text-anchor: middle; fill: #ffffff" x="980.62625" y="369.019368" transform="rotate(-0 980.62625 369.019368)">35.4%</text>
   </g>
   <g id="text_71">
    <text style="font-weight: 500; font-size: 20px; font-family: 'Poppins'; text-anchor: middle; fill: #ffffff" x="980.62625" y="304.020456" transform="rotate(-0 980.62625 304.020456)">30.3%</text>
   </g>
   <g id="text_72">
    <text style="font-weight: 500; font-size: 20px; font-family: 'Poppins'; text-anchor: middle; fill: #ffffff" x="980.62625" y="240.053895" transform="rotate(-0 980.62625 240.053895)">34.3%</text>
   </g>
   <g id="text_73">
    <g id="patch_49">
     <path d="M 957.518437 195.312018 
L 1003.734062 195.312018 
Q 1019.734062 195.312018 1019.734062 179.312018 
L 1019.734062 185.193268 
Q 1019.734062 169.193268 1003.734062 169.193268 
L 957.518437 169.193268 
Q 941.518437 169.193268 941.518437 185.193268 
L 941.518437 179.312018 
Q 941.518437 195.312018 957.518437 195.312018 
z
" style="fill: #ffffff; stroke: #002f2a; stroke-width: 1.5; stroke-linejoin: miter"/>
    </g>
    <text style="font-weight: 700; font-size: 20px; font-family: 'Poppins'; text-anchor: middle; fill: #10302c" x="980.62625" y="186.993268" transform="rotate(-0 980.62625 186.993268)">  7,574  </text>
   </g>
   <g id="text_74">
    <text style="font-weight: 600; font-size: 22px; font-family: 'Poppins'; text-anchor: middle; fill: #4c6a67" x="980.62625" y="150.558323" transform="rotate(-0 980.62625 150.558323)">7.5%</text>
   </g>
   <g id="text_75">
    <text style="font-weight: 500; font-size: 20px; font-family: 'Poppins'; text-anchor: middle; fill: #ffffff" x="1066.090417" y="376.441842" transform="rotate(-0 1066.090417 376.441842)">30.5%</text>
   </g>
   <g id="text_76">
    <text style="font-weight: 500; font-size: 20px; font-family: 'Poppins'; text-anchor: middle; fill: #ffffff" x="1066.090417" y="316.447872" transform="rotate(-0 1066.090417 316.447872)">35.9%</text>
   </g>
   <g id="text_77">
    <text style="font-weight: 500; font-size: 20px; font-family: 'Poppins'; text-anchor: middle; fill: #ffffff" x="1066.090417" y="253.657407" transform="rotate(-0 1066.090417 253.657407)">33.6%</text>
   </g>
   <g id="text_78">
    <g id="patch_50">
     <path d="M 1044.302917 212.509156 
L 1087.877917 212.509156 
Q 1103.877917 212.509156 1103.877917 196.509156 
L 1103.877917 202.390406 
Q 1103.877917 186.390406 1087.877917 186.390406 
L 1044.302917 186.390406 
Q 1028.302917 186.390406 1028.302917 202.390406 
L 1028.302917 196.509156 
Q 1028.302917 212.509156 1044.302917 212.509156 
z
" style="fill: #ffffff; stroke: #002f2a; stroke-width: 1.5; stroke-linejoin: miter"/>
    </g>
    <text style="font-weight: 700; font-size: 20px; font-family: 'Poppins'; text-anchor: middle; fill: #10302c" x="1066.090417" y="204.190406" transform="rotate(-0 1066.090417 204.190406)">  6,916  </text>
   </g>
   <g id="text_79">
    <text style="font-weight: 600; font-size: 22px; font-family: 'Poppins'; text-anchor: middle; fill: #4c6a67" x="1066.090417" y="167.755461" transform="rotate(-0 1066.090417 167.755461)">6.9%</text>
   </g>
   <g id="legend_1">
    <g id="patch_51">
     <path d="M 94.33425 35.28 
L 142.33425 35.28 
L 142.33425 18.48 
L 94.33425 18.48 
z
" style="fill: #10302c"/>
    </g>
    <g id="text_80">
     <text style="font-weight: 500; font-size: 24px; font-family: 'Poppins'; text-anchor: start; fill: #767676" x="161.53425" y="35.28" transform="rotate(-0 161.53425 35.28)">Desaparecidos</text>
    </g>
    <g id="patch_52">
     <path d="M 392.1555 35.28 
L 440.1555 35.28 
L 440.1555 18.48 
L 392.1555 18.48 
z
" style="fill: #4c6a67"/>
    </g>
    <g id="text_81">
     <text style="font-weight: 500; font-size: 24px; font-family: 'Poppins'; text-anchor: start; fill: #767676" x="459.3555" y="35.28" transform="rotate(-0 459.3555 35.28)">Localizados</text>
    </g>
    <g id="patch_53">
     <path d="M 648.64425 35.28 
L 696.64425 35.28 
L 696.64425 18.48 
L 648.64425 18.48 
z
" style="fill: #8fa8a6"/>
    </g>
    <g id="text_82">
     <text style="font-weight: 500; font-size: 24px; font-family: 'Poppins'; text-anchor: start; fill: #767676" x="715.84425" y="35.28" transform="rotate(-0 715.84425 35.28)">No localizados</text>
    </g>
   </g>
  </g>
 </g>
 <defs>
  <clipPath id="p62cc0d29dd">
   <rect x="83.2525" y="69.758542" width="1025.57" height="329.4896"/>
  </clipPath>
 </defs>
</svg>
