<?xml version="1.0" encoding="utf-8" standalone="no"?>
<!DOCTYPE svg PUBLIC "-//W3C//DTD SVG 1.1//EN"
  "http://www.w3.org/Graphics/SVG/1.1/DTD/svg11.dtd">
<svg xmlns:xlink="http://www.w3.org/1999/xlink" width="1111.113883pt" height="565.947439pt" viewBox="0 0 1111.113883 565.947439" xmlns="http://www.w3.org/2000/svg" version="1.1">
 <metadata>
  <rdf:RDF xmlns:dc="http://purl.org/dc/elements/1.1/" xmlns:cc="http://creativecommons.org/ns#" xmlns:rdf="http://www.w3.org/1999/02/22-rdf-syntax-ns#">
   <cc:Work>
    <dc:type rdf:resource="http://purl.org/dc/dcmitype/StillImage"/>
    <dc:date>2025-05-21T23:28:25.641376</dc:date>
    <dc:format>image/svg+xml</dc:format>
    <dc:creator>
     <cc:Agent>
      <dc:title>Matplotlib v3.10.1, https://matplotlib.org/</dc:title>
     </cc:Agent>
    </dc:creator>
   </cc:Work>
  </rdf:RDF>
 </metadata>
 <defs>
  <style type="text/css">*{stroke-linejoin: round; stroke-linecap: butt}</style>
 </defs>
 <g id="figure_1">
  <g id="patch_1">
   <path d="M 0 565.947439 
L 1111.113883 565.947439 
L 1111.113883 0 
L 0 0 
z
" style="fill: #ffffff"/>
  </g>
  <g id="axes_1">
   <g id="patch_2">
    <path d="M 113.793845 376.166749 
L 1103.913883 376.166749 
L 1103.913883 66.54126 
L 113.793845 66.54126 
z
" style="fill: #ffffff"/>
   </g>
   <g id="matplotlib.axis_1">
    <g id="xtick_1">
     <g id="line2d_1">
      <defs>
       <path id="mff129d8a64" d="M 0 0 
L 0 3.5 
" style="stroke: #000000; stroke-width: 0.8"/>
      </defs>
      <g>
       <use xlink:href="#mff129d8a64" x="155.048846" y="376.166749" style="stroke: #000000; stroke-width: 0.8"/>
      </g>
     </g>
     <g id="text_1">
      <text style="font-weight: 500; font-size: 25px; font-family: 'Arial'" transform="translate(19.853344 527.502158) rotate(-45)">Octubre de 2025</text>
     </g>
    </g>
    <g id="xtick_2">
     <g id="line2d_2">
      <g>
       <use xlink:href="#mff129d8a64" x="237.55885" y="376.166749" style="stroke: #000000; stroke-width: 0.8"/>
      </g>
     </g>
     <g id="text_2">
      <text style="font-weight: 500; font-size: 25px; font-family: 'Arial'" transform="translate(85.677285 544.188221) rotate(-45)">Diciembre de 2025</text>
     </g>
    </g>
    <g id="xtick_3">
     <g id="line2d_3">
      <g>
       <use xlink:href="#mff129d8a64" x="320.068853" y="376.166749" style="stroke: #000000; stroke-width: 0.8"/>
      </g>
     </g>
     <g id="text_3">
      <text style="font-weight: 500; font-size: 25px; font-family: 'Arial'" transform="translate(198.639836 513.735673) rotate(-45)">Marzo de 2025</text>
     </g>
    </g>
    <g id="xtick_4">
     <g id="line2d_4">
      <g>
       <use xlink:href="#mff129d8a64" x="402.578856" y="376.166749" style="stroke: #000000; stroke-width: 0.8"/>
      </g>
     </g>
     <g id="text_4">
      <text style="font-weight: 500; font-size: 25px; font-family: 'Arial'" transform="translate(275.02066 519.710173) rotate(-45)">Agosto de 2025</text>
     </g>
    </g>
    <g id="xtick_5">
     <g id="line2d_5">
      <g>
       <use xlink:href="#mff129d8a64" x="485.088859" y="376.166749" style="stroke: #000000; stroke-width: 0.8"/>
      </g>
     </g>
     <g id="text_5">
      <text style="font-weight: 500; font-size: 25px; font-family: 'Arial'" transform="translate(322.37696 555.234002) rotate(-45)">Septiembre de 2025</text>
     </g>
    </g>
    <g id="xtick_6">
     <g id="line2d_6">
      <g>
       <use xlink:href="#mff129d8a64" x="567.598862" y="376.166749" style="stroke: #000000; stroke-width: 0.8"/>
      </g>
     </g>
     <g id="text_6">
      <text style="font-weight: 500; font-size: 25px; font-family: 'Arial'" transform="translate(458.925389 500.98013) rotate(-45)">Julio de 2025</text>
     </g>
    </g>
    <g id="xtick_7">
     <g id="line2d_7">
      <g>
       <use xlink:href="#mff129d8a64" x="650.108865" y="376.166749" style="stroke: #000000; stroke-width: 0.8"/>
      </g>
     </g>
     <g id="text_7">
      <text style="font-weight: 500; font-size: 25px; font-family: 'Arial'" transform="translate(515.899446 526.516076) rotate(-45)">Febrero de 2025</text>
     </g>
    </g>
    <g id="xtick_8">
     <g id="line2d_8">
      <g>
       <use xlink:href="#mff129d8a64" x="732.618869" y="376.166749" style="stroke: #000000; stroke-width: 0.8"/>
      </g>
     </g>
     <g id="text_8">
      <text style="font-weight: 500; font-size: 25px; font-family: 'Arial'" transform="translate(618.042711 506.882814) rotate(-45)">Junio de 2025</text>
     </g>
    </g>
    <g id="xtick_9">
     <g id="line2d_9">
      <g>
       <use xlink:href="#mff129d8a64" x="815.128872" y="376.166749" style="stroke: #000000; stroke-width: 0.8"/>
      </g>
     </g>
     <g id="text_9">
      <text style="font-weight: 500; font-size: 25px; font-family: 'Arial'" transform="translate(699.378806 507.902042) rotate(-45)">Mayo de 2025</text>
     </g>
    </g>
    <g id="xtick_10">
     <g id="line2d_10">
      <g>
       <use xlink:href="#mff129d8a64" x="897.638875" y="376.166749" style="stroke: #000000; stroke-width: 0.8"/>
      </g>
     </g>
     <g id="text_10">
      <text style="font-weight: 500; font-size: 25px; font-family: 'Arial'" transform="translate(778.15164 511.793891) rotate(-45)">Enero de 2025</text>
     </g>
    </g>
    <g id="xtick_11">
     <g id="line2d_11">
      <g>
       <use xlink:href="#mff129d8a64" x="980.148878" y="376.166749" style="stroke: #000000; stroke-width: 0.8"/>
      </g>
     </g>
     <g id="text_11">
      <text style="font-weight: 500; font-size: 25px; font-family: 'Arial'" transform="translate(872.467011 499.988523) rotate(-45)">Abril de 2025</text>
     </g>
    </g>
    <g id="xtick_12">
     <g id="line2d_12">
      <g>
       <use xlink:href="#mff129d8a64" x="1062.658881" y="376.166749" style="stroke: #000000; stroke-width: 0.8"/>
      </g>
     </g>
     <g id="text_12">
      <text style="font-weight: 500; font-size: 25px; font-family: 'Arial'" transform="translate(904.874632 550.090905) rotate(-45)">Noviembre de 2025</text>
     </g>
    </g>
   </g>
   <g id="matplotlib.axis_2">
    <g id="ytick_1">
     <g id="line2d_13">
      <path d="M 113.793845 376.166749 
L 1103.913883 376.166749 
" clip-path="url(#pe7c46caf50)" style="fill: none; stroke: #b9b9b9; stroke-width: 0.75; stroke-linecap: square"/>
     </g>
     <g id="line2d_14">
      <defs>
       <path id="m8228710dcd" d="M 0 0 
L -3.5 0 
" style="stroke: #000000; stroke-width: 0.8"/>
      </defs>
      <g>
       <use xlink:href="#m8228710dcd" x="113.793845" y="376.166749" style="stroke: #000000; stroke-width: 0.8"/>
      </g>
     </g>
     <g id="text_13">
      <text style="font-weight: 500; font-size: 22px; font-family: 'Arial'; text-anchor: end" x="106.793845" y="384.040342" transform="rotate(-0 106.793845 384.040342)">0</text>
     </g>
    </g>
    <g id="ytick_2">
     <g id="line2d_15">
      <path d="M 113.793845 323.398993 
L 1103.913883 323.398993 
" clip-path="url(#pe7c46caf50)" style="fill: none; stroke: #b9b9b9; stroke-width: 0.75; stroke-linecap: square"/>
     </g>
     <g id="line2d_16">
      <g>
       <use xlink:href="#m8228710dcd" x="113.793845" y="323.398993" style="stroke: #000000; stroke-width: 0.8"/>
      </g>
     </g>
     <g id="text_14">
      <text style="font-weight: 500; font-size: 22px; font-family: 'Arial'; text-anchor: end" x="106.793845" y="331.272587" transform="rotate(-0 106.793845 331.272587)">2,000</text>
     </g>
    </g>
    <g id="ytick_3">
     <g id="line2d_17">
      <path d="M 113.793845 270.631238 
L 1103.913883 270.631238 
" clip-path="url(#pe7c46caf50)" style="fill: none; stroke: #b9b9b9; stroke-width: 0.75; stroke-linecap: square"/>
     </g>
     <g id="line2d_18">
      <g>
       <use xlink:href="#m8228710dcd" x="113.793845" y="270.631238" style="stroke: #000000; stroke-width: 0.8"/>
      </g>
     </g>
     <g id="text_15">
      <text style="font-weight: 500; font-size: 22px; font-family: 'Arial'; text-anchor: end" x="106.793845" y="278.504832" transform="rotate(-0 106.793845 278.504832)">4,000</text>
     </g>
    </g>
    <g id="ytick_4">
     <g id="line2d_19">
      <path d="M 113.793845 217.863483 
L 1103.913883 217.863483 
" clip-path="url(#pe7c46caf50)" style="fill: none; stroke: #b9b9b9; stroke-width: 0.75; stroke-linecap: square"/>
     </g>
     <g id="line2d_20">
      <g>
       <use xlink:href="#m8228710dcd" x="113.793845" y="217.863483" style="stroke: #000000; stroke-width: 0.8"/>
      </g>
     </g>
     <g id="text_16">
      <text style="font-weight: 500; font-size: 22px; font-family: 'Arial'; text-anchor: end" x="106.793845" y="225.737077" transform="rotate(-0 106.793845 225.737077)">6,000</text>
     </g>
    </g>
    <g id="ytick_5">
     <g id="line2d_21">
      <path d="M 113.793845 165.095728 
L 1103.913883 165.095728 
" clip-path="url(#pe7c46caf50)" style="fill: none; stroke: #b9b9b9; stroke-width: 0.75; stroke-linecap: square"/>
     </g>
     <g id="line2d_22">
      <g>
       <use xlink:href="#m8228710dcd" x="113.793845" y="165.095728" style="stroke: #000000; stroke-width: 0.8"/>
      </g>
     </g>
     <g id="text_17">
      <text style="font-weight: 500; font-size: 22px; font-family: 'Arial'; text-anchor: end" x="106.793845" y="172.969322" transform="rotate(-0 106.793845 172.969322)">8,000</text>
     </g>
    </g>
    <g id="ytick_6">
     <g id="line2d_23">
      <path d="M 113.793845 112.327973 
L 1103.913883 112.327973 
" clip-path="url(#pe7c46caf50)" style="fill: none; stroke: #b9b9b9; stroke-width: 0.75; stroke-linecap: square"/>
     </g>
     <g id="line2d_24">
      <g>
       <use xlink:href="#m8228710dcd" x="113.793845" y="112.327973" style="stroke: #000000; stroke-width: 0.8"/>
      </g>
     </g>
     <g id="text_18">
      <text style="font-weight: 500; font-size: 22px; font-family: 'Arial'; text-anchor: end" x="106.793845" y="120.201567" transform="rotate(-0 106.793845 120.201567)">10,000</text>
     </g>
    </g>
   </g>
   <g id="patch_3">
    <path d="M 117.919345 376.166749 
L 192.178348 376.166749 
L 192.178348 300.207565 
L 117.919345 300.207565 
z
" clip-path="url(#pe7c46caf50)" style="fill: #10302c"/>
   </g>
   <g id="patch_4">
    <path d="M 117.919345 300.207565 
L 192.178348 300.207565 
L 192.178348 211.531352 
L 117.919345 211.531352 
z
" clip-path="url(#pe7c46caf50)" style="fill: #4c6a67"/>
   </g>
   <g id="patch_5">
    <path d="M 117.919345 211.531352 
L 192.178348 211.531352 
L 192.178348 131.403516 
L 117.919345 131.403516 
z
" clip-path="url(#pe7c46caf50)" style="fill: #8fa8a6"/>
   </g>
   <g id="patch_6">
    <path d="M 200.429348 376.166749 
L 274.688351 376.166749 
L 274.688351 300.814394 
L 200.429348 300.814394 
z
" clip-path="url(#pe7c46caf50)" style="fill: #10302c"/>
   </g>
   <g id="patch_7">
    <path d="M 200.429348 300.814394 
L 274.688351 300.814394 
L 274.688351 215.647237 
L 200.429348 215.647237 
z
" clip-path="url(#pe7c46caf50)" style="fill: #4c6a67"/>
   </g>
   <g id="patch_8">
    <path d="M 200.429348 215.647237 
L 274.688351 215.647237 
L 274.688351 134.675117 
L 200.429348 134.675117 
z
" clip-path="url(#pe7c46caf50)" style="fill: #8fa8a6"/>
   </g>
   <g id="patch_9">
    <path d="M 282.939351 376.166749 
L 357.198354 376.166749 
L 357.198354 292.424321 
L 282.939351 292.424321 
z
" clip-path="url(#pe7c46caf50)" style="fill: #10302c"/>
   </g>
   <g id="patch_10">
    <path d="M 282.939351 292.424321 
L 357.198354 292.424321 
L 357.198354 209.8164 
L 282.939351 209.8164 
z
" clip-path="url(#pe7c46caf50)" style="fill: #4c6a67"/>
   </g>
   <g id="patch_11">
    <path d="M 282.939351 209.8164 
L 357.198354 209.8164 
L 357.198354 136.917747 
L 282.939351 136.917747 
z
" clip-path="url(#pe7c46caf50)" style="fill: #8fa8a6"/>
   </g>
   <g id="patch_12">
    <path d="M 365.449354 376.166749 
L 439.708357 376.166749 
L 439.708357 295.643154 
L 365.449354 295.643154 
z
" clip-path="url(#pe7c46caf50)" style="fill: #10302c"/>
   </g>
   <g id="patch_13">
    <path d="M 365.449354 295.643154 
L 439.708357 295.643154 
L 439.708357 222.665349 
L 365.449354 222.665349 
z
" clip-path="url(#pe7c46caf50)" style="fill: #4c6a67"/>
   </g>
   <g id="patch_14">
    <path d="M 365.449354 222.665349 
L 439.708357 222.665349 
L 439.708357 141.983451 
L 365.449354 141.983451 
z
" clip-path="url(#pe7c46caf50)" style="fill: #8fa8a6"/>
   </g>
   <g id="patch_15">
    <path d="M 447.959358 376.166749 
L 522.218361 376.166749 
L 522.218361 302.502962 
L 447.959358 302.502962 
z
" clip-path="url(#pe7c46caf50)" style="fill: #10302c"/>
   </g>
   <g id="patch_16">
    <path d="M 447.959358 302.502962 
L 522.218361 302.502962 
L 522.218361 223.747088 
L 447.959358 223.747088 
z
" clip-path="url(#pe7c46caf50)" style="fill: #4c6a67"/>
   </g>
   <g id="patch_17">
    <path d="M 447.959358 223.747088 
L 522.218361 223.747088 
L 522.218361 148.684956 
L 447.959358 148.684956 
z
" clip-path="url(#pe7c46caf50)" style="fill: #8fa8a6"/>
   </g>
   <g id="patch_18">
    <path d="M 530.469361 376.166749 
L 604.728364 376.166749 
L 604.728364 308.333799 
L 530.469361 308.333799 
z
" clip-path="url(#pe7c46caf50)" style="fill: #10302c"/>
   </g>
   <g id="patch_19">
    <path d="M 530.469361 308.333799 
L 604.728364 308.333799 
L 604.728364 229.155783 
L 530.469361 229.155783 
z
" clip-path="url(#pe7c46caf50)" style="fill: #4c6a67"/>
   </g>
   <g id="patch_20">
    <path d="M 530.469361 229.155783 
L 604.728364 229.155783 
L 604.728364 148.790492 
L 530.469361 148.790492 
z
" clip-path="url(#pe7c46caf50)" style="fill: #8fa8a6"/>
   </g>
   <g id="patch_21">
    <path d="M 612.979364 376.166749 
L 687.238367 376.166749 
L 687.238367 301.579527 
L 612.979364 301.579527 
z
" clip-path="url(#pe7c46caf50)" style="fill: #10302c"/>
   </g>
   <g id="patch_22">
    <path d="M 612.979364 301.579527 
L 687.238367 301.579527 
L 687.238367 222.295975 
L 612.979364 222.295975 
z
" clip-path="url(#pe7c46caf50)" style="fill: #4c6a67"/>
   </g>
   <g id="patch_23">
    <path d="M 612.979364 222.295975 
L 687.238367 222.295975 
L 687.238367 150.848434 
L 612.979364 150.848434 
z
" clip-path="url(#pe7c46caf50)" style="fill: #8fa8a6"/>
   </g>
   <g id="patch_24">
    <path d="M 695.489367 376.166749 
L 769.74837 376.166749 
L 769.74837 302.21274 
L 695.489367 302.21274 
z
" clip-path="url(#pe7c46caf50)" style="fill: #10302c"/>
   </g>
   <g id="patch_25">
    <path d="M 695.489367 302.21274 
L 769.74837 302.21274 
L 769.74837 228.891944 
L 695.489367 228.891944 
z
" clip-path="url(#pe7c46caf50)" style="fill: #4c6a67"/>
   </g>
   <g id="patch_26">
    <path d="M 695.489367 228.891944 
L 769.74837 228.891944 
L 769.74837 151.270576 
L 695.489367 151.270576 
z
" clip-path="url(#pe7c46caf50)" style="fill: #8fa8a6"/>
   </g>
   <g id="patch_27">
    <path d="M 777.99937 376.166749 
L 852.258373 376.166749 
L 852.258373 301.078233 
L 777.99937 301.078233 
z
" clip-path="url(#pe7c46caf50)" style="fill: #10302c"/>
   </g>
   <g id="patch_28">
    <path d="M 777.99937 301.078233 
L 852.258373 301.078233 
L 852.258373 219.34098 
L 777.99937 219.34098 
z
" clip-path="url(#pe7c46caf50)" style="fill: #4c6a67"/>
   </g>
   <g id="patch_29">
    <path d="M 777.99937 219.34098 
L 852.258373 219.34098 
L 852.258373 154.542177 
L 777.99937 154.542177 
z
" clip-path="url(#pe7c46caf50)" style="fill: #8fa8a6"/>
   </g>
   <g id="patch_30">
    <path d="M 860.509374 376.166749 
L 934.768376 376.166749 
L 934.768376 303.426398 
L 860.509374 303.426398 
z
" clip-path="url(#pe7c46caf50)" style="fill: #10302c"/>
   </g>
   <g id="patch_31">
    <path d="M 860.509374 303.426398 
L 934.768376 303.426398 
L 934.768376 237.202865 
L 860.509374 237.202865 
z
" clip-path="url(#pe7c46caf50)" style="fill: #4c6a67"/>
   </g>
   <g id="patch_32">
    <path d="M 860.509374 237.202865 
L 934.768376 237.202865 
L 934.768376 173.74964 
L 860.509374 173.74964 
z
" clip-path="url(#pe7c46caf50)" style="fill: #8fa8a6"/>
   </g>
   <g id="patch_33">
    <path d="M 943.019377 376.166749 
L 1017.27838 376.166749 
L 1017.27838 309.072548 
L 943.019377 309.072548 
z
" clip-path="url(#pe7c46caf50)" style="fill: #10302c"/>
   </g>
   <g id="patch_34">
    <path d="M 943.019377 309.072548 
L 1017.27838 309.072548 
L 1017.27838 244.009906 
L 943.019377 244.009906 
z
" clip-path="url(#pe7c46caf50)" style="fill: #4c6a67"/>
   </g>
   <g id="patch_35">
    <path d="M 943.019377 244.009906 
L 1017.27838 244.009906 
L 1017.27838 174.330085 
L 943.019377 174.330085 
z
" clip-path="url(#pe7c46caf50)" style="fill: #8fa8a6"/>
   </g>
   <g id="patch_36">
    <path d="M 1025.52938 376.166749 
L 1099.788383 376.166749 
L 1099.788383 313.689726 
L 1025.52938 313.689726 
z
" clip-path="url(#pe7c46caf50)" style="fill: #10302c"/>
   </g>
   <g id="patch_37">
    <path d="M 1025.52938 313.689726 
L 1099.788383 313.689726 
L 1099.788383 244.748654 
L 1025.52938 244.748654 
z
" clip-path="url(#pe7c46caf50)" style="fill: #4c6a67"/>
   </g>
   <g id="patch_38">
    <path d="M 1025.52938 244.748654 
L 1099.788383 244.748654 
L 1099.788383 184.778101 
L 1025.52938 184.778101 
z
" clip-path="url(#pe7c46caf50)" style="fill: #8fa8a6"/>
   </g>
   <g id="text_19">
    <text style="font-weight: 500; font-size: 20px; font-family: 'Arial'; text-anchor: middle; fill: #ffffff" x="155.048846" y="343.357469" transform="rotate(-0 155.048846 343.357469)">2.8%</text>
   </g>
   <g id="text_20">
    <text style="font-weight: 500; font-size: 20px; font-family: 'Arial'; text-anchor: middle; fill: #ffffff" x="155.048846" y="261.039771" transform="rotate(-0 155.048846 261.039771)">3.3%</text>
   </g>
   <g id="text_21">
    <text style="font-weight: 500; font-size: 20px; font-family: 'Arial'; text-anchor: middle; fill: #ffffff" x="155.048846" y="176.637747" transform="rotate(-0 155.048846 176.637747)">3.0%</text>
   </g>
   <g id="text_22">
    <g id="patch_39">
     <path d="M 131.914471 125.959185 
L 178.183221 125.959185 
Q 194.183221 125.959185 194.183221 109.959185 
L 194.183221 117.696685 
Q 194.183221 101.696685 178.183221 101.696685 
L 131.914471 101.696685 
Q 115.914471 101.696685 115.914471 117.696685 
L 115.914471 109.959185 
Q 115.914471 125.959185 131.914471 125.959185 
z
" style="fill: #ffffff; stroke: #002f2a; stroke-width: 1.5; stroke-linejoin: miter"/>
    </g>
    <text style="font-weight: 700; font-size: 20px; font-family: 'Arial'; text-anchor: middle; fill: #10302c" x="155.048846" y="119.01231" transform="rotate(-0 155.048846 119.01231)">  9,277  </text>
   </g>
   <g id="text_23">
    <text style="font-weight: 600; font-size: 22px; font-family: 'Arial'; text-anchor: middle; fill: #4c6a67" x="155.048846" y="85.669154" transform="rotate(-0 155.048846 85.669154)">9.1%</text>
   </g>
   <g id="text_24">
    <text style="font-weight: 500; font-size: 20px; font-family: 'Arial'; text-anchor: middle; fill: #ffffff" x="237.55885" y="343.660884" transform="rotate(-0 237.55885 343.660884)">2.8%</text>
   </g>
   <g id="text_25">
    <text style="font-weight: 500; font-size: 20px; font-family: 'Arial'; text-anchor: middle; fill: #ffffff" x="237.55885" y="263.401128" transform="rotate(-0 237.55885 263.401128)">3.2%</text>
   </g>
   <g id="text_26">
    <text style="font-weight: 500; font-size: 20px; font-family: 'Arial'; text-anchor: middle; fill: #ffffff" x="237.55885" y="180.33149" transform="rotate(-0 237.55885 180.33149)">3.0%</text>
   </g>
   <g id="text_27">
    <g id="patch_40">
     <path d="M 214.424475 129.230786 
L 260.693225 129.230786 
Q 276.693225 129.230786 276.693225 113.230786 
L 276.693225 120.968286 
Q 276.693225 104.968286 260.693225 104.968286 
L 214.424475 104.968286 
Q 198.424475 104.968286 198.424475 120.968286 
L 198.424475 113.230786 
Q 198.424475 129.230786 214.424475 129.230786 
z
" style="fill: #ffffff; stroke: #002f2a; stroke-width: 1.5; stroke-linejoin: miter"/>
    </g>
    <text style="font-weight: 700; font-size: 20px; font-family: 'Arial'; text-anchor: middle; fill: #10302c" x="237.55885" y="122.283911" transform="rotate(-0 237.55885 122.283911)">  9,153  </text>
   </g>
   <g id="text_28">
    <text style="font-weight: 600; font-size: 22px; font-family: 'Arial'; text-anchor: middle; fill: #4c6a67" x="237.55885" y="88.940754" transform="rotate(-0 237.55885 88.940754)">9.0%</text>
   </g>
   <g id="text_29">
    <text style="font-weight: 500; font-size: 20px; font-family: 'Arial'; text-anchor: middle; fill: #ffffff" x="320.068853" y="339.465847" transform="rotate(-0 320.068853 339.465847)">3.1%</text>
   </g>
   <g id="text_30">
    <text style="font-weight: 500; font-size: 20px; font-family: 'Arial'; text-anchor: middle; fill: #ffffff" x="320.068853" y="256.290673" transform="rotate(-0 320.068853 256.290673)">3.1%</text>
   </g>
   <g id="text_31">
    <text style="font-weight: 500; font-size: 20px; font-family: 'Arial'; text-anchor: middle; fill: #ffffff" x="320.068853" y="178.537386" transform="rotate(-0 320.068853 178.537386)">2.7%</text>
   </g>
   <g id="text_32">
    <g id="patch_41">
     <path d="M 296.934478 131.473415 
L 343.203228 131.473415 
Q 359.203228 131.473415 359.203228 115.473415 
L 359.203228 123.210915 
Q 359.203228 107.210915 343.203228 107.210915 
L 296.934478 107.210915 
Q 280.934478 107.210915 280.934478 123.210915 
L 280.934478 115.473415 
Q 280.934478 131.473415 296.934478 131.473415 
z
" style="fill: #ffffff; stroke: #002f2a; stroke-width: 1.5; stroke-linejoin: miter"/>
    </g>
    <text style="font-weight: 700; font-size: 20px; font-family: 'Arial'; text-anchor: middle; fill: #10302c" x="320.068853" y="124.52654" transform="rotate(-0 320.068853 124.52654)">  9,068  </text>
   </g>
   <g id="text_33">
    <text style="font-weight: 600; font-size: 22px; font-family: 'Arial'; text-anchor: middle; fill: #4c6a67" x="320.068853" y="91.183384" transform="rotate(-0 320.068853 91.183384)">8.9%</text>
   </g>
   <g id="text_34">
    <text style="font-weight: 500; font-size: 20px; font-family: 'Arial'; text-anchor: middle; fill: #ffffff" x="402.578856" y="341.075264" transform="rotate(-0 402.578856 341.075264)">3.0%</text>
   </g>
   <g id="text_35">
    <text style="font-weight: 500; font-size: 20px; font-family: 'Arial'; text-anchor: middle; fill: #ffffff" x="402.578856" y="264.324564" transform="rotate(-0 402.578856 264.324564)">2.7%</text>
   </g>
   <g id="text_36">
    <text style="font-weight: 500; font-size: 20px; font-family: 'Arial'; text-anchor: middle; fill: #ffffff" x="402.578856" y="187.494713" transform="rotate(-0 402.578856 187.494713)">3.0%</text>
   </g>
   <g id="text_37">
    <g id="patch_42">
     <path d="M 379.444481 136.53912 
L 425.713231 136.53912 
Q 441.713231 136.53912 441.713231 120.53912 
L 441.713231 128.27662 
Q 441.713231 112.27662 425.713231 112.27662 
L 379.444481 112.27662 
Q 363.444481 112.27662 363.444481 128.27662 
L 363.444481 120.53912 
Q 363.444481 136.53912 379.444481 136.53912 
z
" style="fill: #ffffff; stroke: #002f2a; stroke-width: 1.5; stroke-linejoin: miter"/>
    </g>
    <text style="font-weight: 700; font-size: 20px; font-family: 'Arial'; text-anchor: middle; fill: #10302c" x="402.578856" y="129.592245" transform="rotate(-0 402.578856 129.592245)">  8,876  </text>
   </g>
   <g id="text_38">
    <text style="font-weight: 600; font-size: 22px; font-family: 'Arial'; text-anchor: middle; fill: #4c6a67" x="402.578856" y="96.249088" transform="rotate(-0 402.578856 96.249088)">8.7%</text>
   </g>
   <g id="text_39">
    <text style="font-weight: 500; font-size: 20px; font-family: 'Arial'; text-anchor: middle; fill: #ffffff" x="485.088859" y="344.505168" transform="rotate(-0 485.088859 344.505168)">2.7%</text>
   </g>
   <g id="text_40">
    <text style="font-weight: 500; font-size: 20px; font-family: 'Arial'; text-anchor: middle; fill: #ffffff" x="485.088859" y="268.295338" transform="rotate(-0 485.088859 268.295338)">2.9%</text>
   </g>
   <g id="text_41">
    <text style="font-weight: 500; font-size: 20px; font-family: 'Arial'; text-anchor: middle; fill: #ffffff" x="485.088859" y="191.386334" transform="rotate(-0 485.088859 191.386334)">2.8%</text>
   </g>
   <g id="text_42">
    <g id="patch_43">
     <path d="M 461.954484 143.240625 
L 508.223234 143.240625 
Q 524.223234 143.240625 524.223234 127.240625 
L 524.223234 134.978125 
Q 524.223234 118.978125 508.223234 118.978125 
L 461.954484 118.978125 
Q 445.954484 118.978125 445.954484 134.978125 
L 445.954484 127.240625 
Q 445.954484 143.240625 461.954484 143.240625 
z
" style="fill: #ffffff; stroke: #002f2a; stroke-width: 1.5; stroke-linejoin: miter"/>
    </g>
    <text style="font-weight: 700; font-size: 20px; font-family: 'Arial'; text-anchor: middle; fill: #10302c" x="485.088859" y="136.29375" transform="rotate(-0 485.088859 136.29375)">  8,622  </text>
   </g>
   <g id="text_43">
    <text style="font-weight: 600; font-size: 22px; font-family: 'Arial'; text-anchor: middle; fill: #4c6a67" x="485.088859" y="102.950593" transform="rotate(-0 485.088859 102.950593)">8.5%</text>
   </g>
   <g id="text_44">
    <text style="font-weight: 500; font-size: 20px; font-family: 'Arial'; text-anchor: middle; fill: #ffffff" x="567.598862" y="347.420586" transform="rotate(-0 567.598862 347.420586)">2.5%</text>
   </g>
   <g id="text_45">
    <text style="font-weight: 500; font-size: 20px; font-family: 'Arial'; text-anchor: middle; fill: #ffffff" x="567.598862" y="273.915104" transform="rotate(-0 567.598862 273.915104)">3.0%</text>
   </g>
   <g id="text_46">
    <text style="font-weight: 500; font-size: 20px; font-family: 'Arial'; text-anchor: middle; fill: #ffffff" x="567.598862" y="194.14345" transform="rotate(-0 567.598862 194.14345)">3.0%</text>
   </g>
   <g id="text_47">
    <g id="patch_44">
     <path d="M 544.464487 143.34616 
L 590.733237 143.34616 
Q 606.733237 143.34616 606.733237 127.34616 
L 606.733237 135.08366 
Q 606.733237 119.08366 590.733237 119.08366 
L 544.464487 119.08366 
Q 528.464487 119.08366 528.464487 135.08366 
L 528.464487 127.34616 
Q 528.464487 143.34616 544.464487 143.34616 
z
" style="fill: #ffffff; stroke: #002f2a; stroke-width: 1.5; stroke-linejoin: miter"/>
    </g>
    <text style="font-weight: 700; font-size: 20px; font-family: 'Arial'; text-anchor: middle; fill: #10302c" x="567.598862" y="136.399285" transform="rotate(-0 567.598862 136.399285)">  8,618  </text>
   </g>
   <g id="text_48">
    <text style="font-weight: 600; font-size: 22px; font-family: 'Arial'; text-anchor: middle; fill: #4c6a67" x="567.598862" y="103.056129" transform="rotate(-0 567.598862 103.056129)">8.5%</text>
   </g>
   <g id="text_49">
    <text style="font-weight: 500; font-size: 20px; font-family: 'Arial'; text-anchor: middle; fill: #ffffff" x="650.108865" y="344.04345" transform="rotate(-0 650.108865 344.04345)">2.8%</text>
   </g>
   <g id="text_50">
    <text style="font-weight: 500; font-size: 20px; font-family: 'Arial'; text-anchor: middle; fill: #ffffff" x="650.108865" y="267.108063" transform="rotate(-0 650.108865 267.108063)">3.0%</text>
   </g>
   <g id="text_51">
    <text style="font-weight: 500; font-size: 20px; font-family: 'Arial'; text-anchor: middle; fill: #ffffff" x="650.108865" y="191.742517" transform="rotate(-0 650.108865 191.742517)">2.7%</text>
   </g>
   <g id="text_52">
    <g id="patch_45">
     <path d="M 626.97449 145.404103 
L 673.24324 145.404103 
Q 689.24324 145.404103 689.24324 129.404103 
L 689.24324 137.141603 
Q 689.24324 121.141603 673.24324 121.141603 
L 626.97449 121.141603 
Q 610.97449 121.141603 610.97449 137.141603 
L 610.97449 129.404103 
Q 610.97449 145.404103 626.97449 145.404103 
z
" style="fill: #ffffff; stroke: #002f2a; stroke-width: 1.5; stroke-linejoin: miter"/>
    </g>
    <text style="font-weight: 700; font-size: 20px; font-family: 'Arial'; text-anchor: middle; fill: #10302c" x="650.108865" y="138.457228" transform="rotate(-0 650.108865 138.457228)">  8,540  </text>
   </g>
   <g id="text_53">
    <text style="font-weight: 600; font-size: 22px; font-family: 'Arial'; text-anchor: middle; fill: #4c6a67" x="650.108865" y="105.114071" transform="rotate(-0 650.108865 105.114071)">8.4%</text>
   </g>
   <g id="text_54">
    <text style="font-weight: 500; font-size: 20px; font-family: 'Arial'; text-anchor: middle; fill: #ffffff" x="732.618869" y="344.360057" transform="rotate(-0 732.618869 344.360057)">2.8%</text>
   </g>
   <g id="text_55">
    <text style="font-weight: 500; font-size: 20px; font-family: 'Arial'; text-anchor: middle; fill: #ffffff" x="732.618869" y="270.722654" transform="rotate(-0 732.618869 270.722654)">2.7%</text>
   </g>
   <g id="text_56">
    <text style="font-weight: 500; font-size: 20px; font-family: 'Arial'; text-anchor: middle; fill: #ffffff" x="732.618869" y="195.251573" transform="rotate(-0 732.618869 195.251573)">2.9%</text>
   </g>
   <g id="text_57">
    <g id="patch_46">
     <path d="M 709.484494 145.826245 
L 755.753244 145.826245 
Q 771.753244 145.826245 771.753244 129.826245 
L 771.753244 137.563745 
Q 771.753244 121.563745 755.753244 121.563745 
L 709.484494 121.563745 
Q 693.484494 121.563745 693.484494 137.563745 
L 693.484494 129.826245 
Q 693.484494 145.826245 709.484494 145.826245 
z
" style="fill: #ffffff; stroke: #002f2a; stroke-width: 1.5; stroke-linejoin: miter"/>
    </g>
    <text style="font-weight: 700; font-size: 20px; font-family: 'Arial'; text-anchor: middle; fill: #10302c" x="732.618869" y="138.87937" transform="rotate(-0 732.618869 138.87937)">  8,524  </text>
   </g>
   <g id="text_58">
    <text style="font-weight: 600; font-size: 22px; font-family: 'Arial'; text-anchor: middle; fill: #4c6a67" x="732.618869" y="105.536213" transform="rotate(-0 732.618869 105.536213)">8.4%</text>
   </g>
   <g id="text_59">
    <text style="font-weight: 500; font-size: 20px; font-family: 'Arial'; text-anchor: middle; fill: #ffffff" x="815.128872" y="343.792803" transform="rotate(-0 815.128872 343.792803)">2.8%</text>
   </g>
   <g id="text_60">
    <text style="font-weight: 500; font-size: 20px; font-family: 'Arial'; text-anchor: middle; fill: #ffffff" x="815.128872" y="265.379919" transform="rotate(-0 815.128872 265.379919)">3.0%</text>
   </g>
   <g id="text_61">
    <text style="font-weight: 500; font-size: 20px; font-family: 'Arial'; text-anchor: middle; fill: #ffffff" x="815.128872" y="192.111891" transform="rotate(-0 815.128872 192.111891)">2.4%</text>
   </g>
   <g id="text_62">
    <g id="patch_47">
     <path d="M 791.994497 149.097845 
L 838.263247 149.097845 
Q 854.263247 149.097845 854.263247 133.097845 
L 854.263247 140.835345 
Q 854.263247 124.835345 838.263247 124.835345 
L 791.994497 124.835345 
Q 775.994497 124.835345 775.994497 140.835345 
L 775.994497 133.097845 
Q 775.994497 149.097845 791.994497 149.097845 
z
" style="fill: #ffffff; stroke: #002f2a; stroke-width: 1.5; stroke-linejoin: miter"/>
    </g>
    <text style="font-weight: 700; font-size: 20px; font-family: 'Arial'; text-anchor: middle; fill: #10302c" x="815.128872" y="142.15097" transform="rotate(-0 815.128872 142.15097)">  8,400  </text>
   </g>
   <g id="text_63">
    <text style="font-weight: 600; font-size: 22px; font-family: 'Arial'; text-anchor: middle; fill: #4c6a67" x="815.128872" y="108.807814" transform="rotate(-0 815.128872 108.807814)">8.3%</text>
   </g>
   <g id="text_64">
    <text style="font-weight: 500; font-size: 20px; font-family: 'Arial'; text-anchor: middle; fill: #ffffff" x="897.638875" y="344.966886" transform="rotate(-0 897.638875 344.966886)">2.7%</text>
   </g>
   <g id="text_65">
    <text style="font-weight: 500; font-size: 20px; font-family: 'Arial'; text-anchor: middle; fill: #ffffff" x="897.638875" y="275.484944" transform="rotate(-0 897.638875 275.484944)">2.5%</text>
   </g>
   <g id="text_66">
    <text style="font-weight: 500; font-size: 20px; font-family: 'Arial'; text-anchor: middle; fill: #ffffff" x="897.638875" y="210.646565" transform="rotate(-0 897.638875 210.646565)">2.4%</text>
   </g>
   <g id="text_67">
    <g id="patch_48">
     <path d="M 874.5045 168.305308 
L 920.77325 168.305308 
Q 936.77325 168.305308 936.77325 152.305308 
L 936.77325 160.042808 
Q 936.77325 144.042808 920.77325 144.042808 
L 874.5045 144.042808 
Q 858.5045 144.042808 858.5045 160.042808 
L 858.5045 152.305308 
Q 858.5045 168.305308 874.5045 168.305308 
z
" style="fill: #ffffff; stroke: #002f2a; stroke-width: 1.5; stroke-linejoin: miter"/>
    </g>
    <text style="font-weight: 700; font-size: 20px; font-family: 'Arial'; text-anchor: middle; fill: #10302c" x="897.638875" y="161.358433" transform="rotate(-0 897.638875 161.358433)">  7,672  </text>
   </g>
   <g id="text_68">
    <text style="font-weight: 600; font-size: 22px; font-family: 'Arial'; text-anchor: middle; fill: #4c6a67" x="897.638875" y="128.015277" transform="rotate(-0 897.638875 128.015277)">7.5%</text>
   </g>
   <g id="text_69">
    <text style="font-weight: 500; font-size: 20px; font-family: 'Arial'; text-anchor: middle; fill: #ffffff" x="980.148878" y="347.789961" transform="rotate(-0 980.148878 347.789961)">2.5%</text>
   </g>
   <g id="text_70">
    <text style="font-weight: 500; font-size: 20px; font-family: 'Arial'; text-anchor: middle; fill: #ffffff" x="980.148878" y="281.711539" transform="rotate(-0 980.148878 281.711539)">2.4%</text>
   </g>
   <g id="text_71">
    <text style="font-weight: 500; font-size: 20px; font-family: 'Arial'; text-anchor: middle; fill: #ffffff" x="980.148878" y="214.340308" transform="rotate(-0 980.148878 214.340308)">2.6%</text>
   </g>
   <g id="text_72">
    <g id="patch_49">
     <path d="M 957.014503 168.885754 
L 1003.283253 168.885754 
Q 1019.283253 168.885754 1019.283253 152.885754 
L 1019.283253 160.623254 
Q 1019.283253 144.623254 1003.283253 144.623254 
L 957.014503 144.623254 
Q 941.014503 144.623254 941.014503 160.623254 
L 941.014503 152.885754 
Q 941.014503 168.885754 957.014503 168.885754 
z
" style="fill: #ffffff; stroke: #002f2a; stroke-width: 1.5; stroke-linejoin: miter"/>
    </g>
    <text style="font-weight: 700; font-size: 20px; font-family: 'Arial'; text-anchor: middle; fill: #10302c" x="980.148878" y="161.938879" transform="rotate(-0 980.148878 161.938879)">  7,650  </text>
   </g>
   <g id="text_73">
    <text style="font-weight: 600; font-size: 22px; font-family: 'Arial'; text-anchor: middle; fill: #4c6a67" x="980.148878" y="128.595722" transform="rotate(-0 980.148878 128.595722)">7.5%</text>
   </g>
   <g id="text_74">
    <text style="font-weight: 500; font-size: 20px; font-family: 'Arial'; text-anchor: middle; fill: #ffffff" x="1062.658881" y="350.09855" transform="rotate(-0 1062.658881 350.09855)">2.3%</text>
   </g>
   <g id="text_75">
    <text style="font-weight: 500; font-size: 20px; font-family: 'Arial'; text-anchor: middle; fill: #ffffff" x="1062.658881" y="284.389503" transform="rotate(-0 1062.658881 284.389503)">2.6%</text>
   </g>
   <g id="text_76">
    <text style="font-weight: 500; font-size: 20px; font-family: 'Arial'; text-anchor: middle; fill: #ffffff" x="1062.658881" y="219.93369" transform="rotate(-0 1062.658881 219.93369)">2.2%</text>
   </g>
   <g id="text_77">
    <g id="patch_50">
     <path d="M 1039.524506 179.333769 
L 1085.793256 179.333769 
Q 1101.793256 179.333769 1101.793256 163.333769 
L 1101.793256 171.071269 
Q 1101.793256 155.071269 1085.793256 155.071269 
L 1039.524506 155.071269 
Q 1023.524506 155.071269 1023.524506 171.071269 
L 1023.524506 163.333769 
Q 1023.524506 179.333769 1039.524506 179.333769 
z
" style="fill: #ffffff; stroke: #002f2a; stroke-width: 1.5; stroke-linejoin: miter"/>
    </g>
    <text style="font-weight: 700; font-size: 20px; font-family: 'Arial'; text-anchor: middle; fill: #10302c" x="1062.658881" y="172.386894" transform="rotate(-0 1062.658881 172.386894)">  7,254  </text>
   </g>
   <g id="text_78">
    <text style="font-weight: 600; font-size: 22px; font-family: 'Arial'; text-anchor: middle; fill: #4c6a67" x="1062.658881" y="139.043738" transform="rotate(-0 1062.658881 139.043738)">7.1%</text>
   </g>
   <g id="legend_1">
    <g id="patch_51">
     <path d="M 139.59311 33.97875 
L 187.59311 33.97875 
L 187.59311 17.17875 
L 139.59311 17.17875 
z
" style="fill: #10302c"/>
    </g>
    <g id="text_79">
     <text style="font-weight: 500; font-size: 24px; font-family: 'Arial'; text-anchor: start; fill: #767676" x="206.79311" y="33.97875" transform="rotate(-0 206.79311 33.97875)">Desaparecidos</text>
    </g>
    <g id="patch_52">
     <path d="M 414.87311 33.97875 
L 462.87311 33.97875 
L 462.87311 17.17875 
L 414.87311 17.17875 
z
" style="fill: #4c6a67"/>
    </g>
    <g id="text_80">
     <text style="font-weight: 500; font-size: 24px; font-family: 'Arial'; text-anchor: start; fill: #767676" x="482.07311" y="33.97875" transform="rotate(-0 482.07311 33.97875)">Localizados</text>
    </g>
    <g id="patch_53">
     <path d="M 656.81561 33.97875 
L 704.81561 33.97875 
L 704.81561 17.17875 
L 656.81561 17.17875 
z
" style="fill: #8fa8a6"/>
    </g>
    <g id="text_81">
     <text style="font-weight: 500; font-size: 24px; font-family: 'Arial'; text-anchor: start; fill: #767676" x="724.01561" y="33.97875" transform="rotate(-0 724.01561 33.97875)">No localizados</text>
    </g>
   </g>
  </g>
 </g>
 <defs>
  <clipPath id="pe7c46caf50">
   <rect x="113.793845" y="66.54126" width="990.120038" height="309.625489"/>
  </clipPath>
 </defs>
</svg>
