<?xml version="1.0" encoding="utf-8" standalone="no"?>
<!DOCTYPE svg PUBLIC "-//W3C//DTD SVG 1.1//EN"
  "http://www.w3.org/Graphics/SVG/1.1/DTD/svg11.dtd">
<svg xmlns:xlink="http://www.w3.org/1999/xlink" width="856.861945pt" height="535.490664pt" viewBox="0 0 856.861945 535.490664" xmlns="http://www.w3.org/2000/svg" version="1.1">
 <metadata>
  <rdf:RDF xmlns:dc="http://purl.org/dc/elements/1.1/" xmlns:cc="http://creativecommons.org/ns#" xmlns:rdf="http://www.w3.org/1999/02/22-rdf-syntax-ns#">
   <cc:Work>
    <dc:type rdf:resource="http://purl.org/dc/dcmitype/StillImage"/>
    <dc:date>2025-05-29T11:45:49.223758</dc:date>
    <dc:format>image/svg+xml</dc:format>
    <dc:creator>
     <cc:Agent>
      <dc:title>Matplotlib v3.10.1, https://matplotlib.org/</dc:title>
     </cc:Agent>
    </dc:creator>
   </cc:Work>
  </rdf:RDF>
 </metadata>
 <defs>
  <style type="text/css">*{stroke-linejoin: round; stroke-linecap: butt}</style>
 </defs>
 <g id="figure_1">
  <g id="patch_1">
   <path d="M 0 535.490664 
L 856.861945 535.490664 
L 856.861945 0 
L 0 0 
z
" style="fill: #ffffff"/>
  </g>
  <g id="axes_1">
   <g id="patch_2">
    <path d="M 121.343438 497.88832 
L 791.558102 497.88832 
L 791.558102 64.53632 
L 121.343438 64.53632 
z
" style="fill: #ffffff"/>
   </g>
   <g id="matplotlib.axis_1">
    <g id="xtick_1">
     <g id="line2d_1">
      <path d="M 121.343438 497.88832 
L 121.343438 64.53632 
" clip-path="url(#p4fd8afd227)" style="fill: none; stroke: #b9b9b9; stroke-width: 0.75; stroke-linecap: square"/>
     </g>
     <g id="line2d_2">
      <defs>
       <path id="ma7688f7dd5" d="M 0 0 
L 0 3.5 
" style="stroke: #000000; stroke-width: 0.8"/>
      </defs>
      <g>
       <use xlink:href="#ma7688f7dd5" x="121.343438" y="497.88832" style="stroke: #000000; stroke-width: 0.8"/>
      </g>
     </g>
     <g id="text_1">
      <text style="font-weight: 500; font-size: 25px; font-family: 'Montserrat'; text-anchor: middle" x="121.343438" y="523.439101" transform="rotate(-0 121.343438 523.439101)">0</text>
     </g>
    </g>
    <g id="xtick_2">
     <g id="line2d_3">
      <path d="M 239.381527 497.88832 
L 239.381527 64.53632 
" clip-path="url(#p4fd8afd227)" style="fill: none; stroke: #b9b9b9; stroke-width: 0.75; stroke-linecap: square"/>
     </g>
     <g id="line2d_4">
      <g>
       <use xlink:href="#ma7688f7dd5" x="239.381527" y="497.88832" style="stroke: #000000; stroke-width: 0.8"/>
      </g>
     </g>
     <g id="text_2">
      <text style="font-weight: 500; font-size: 25px; font-family: 'Montserrat'; text-anchor: middle" x="239.381527" y="523.439101" transform="rotate(-0 239.381527 523.439101)">2,000</text>
     </g>
    </g>
    <g id="xtick_3">
     <g id="line2d_5">
      <path d="M 357.419616 497.88832 
L 357.419616 64.53632 
" clip-path="url(#p4fd8afd227)" style="fill: none; stroke: #b9b9b9; stroke-width: 0.75; stroke-linecap: square"/>
     </g>
     <g id="line2d_6">
      <g>
       <use xlink:href="#ma7688f7dd5" x="357.419616" y="497.88832" style="stroke: #000000; stroke-width: 0.8"/>
      </g>
     </g>
     <g id="text_3">
      <text style="font-weight: 500; font-size: 25px; font-family: 'Montserrat'; text-anchor: middle" x="357.419616" y="523.439101" transform="rotate(-0 357.419616 523.439101)">4,000</text>
     </g>
    </g>
    <g id="xtick_4">
     <g id="line2d_7">
      <path d="M 475.457705 497.88832 
L 475.457705 64.53632 
" clip-path="url(#p4fd8afd227)" style="fill: none; stroke: #b9b9b9; stroke-width: 0.75; stroke-linecap: square"/>
     </g>
     <g id="line2d_8">
      <g>
       <use xlink:href="#ma7688f7dd5" x="475.457705" y="497.88832" style="stroke: #000000; stroke-width: 0.8"/>
      </g>
     </g>
     <g id="text_4">
      <text style="font-weight: 500; font-size: 25px; font-family: 'Montserrat'; text-anchor: middle" x="475.457705" y="523.439101" transform="rotate(-0 475.457705 523.439101)">6,000</text>
     </g>
    </g>
    <g id="xtick_5">
     <g id="line2d_9">
      <path d="M 593.495795 497.88832 
L 593.495795 64.53632 
" clip-path="url(#p4fd8afd227)" style="fill: none; stroke: #b9b9b9; stroke-width: 0.75; stroke-linecap: square"/>
     </g>
     <g id="line2d_10">
      <g>
       <use xlink:href="#ma7688f7dd5" x="593.495795" y="497.88832" style="stroke: #000000; stroke-width: 0.8"/>
      </g>
     </g>
     <g id="text_5">
      <text style="font-weight: 500; font-size: 25px; font-family: 'Montserrat'; text-anchor: middle" x="593.495795" y="523.439101" transform="rotate(-0 593.495795 523.439101)">8,000</text>
     </g>
    </g>
    <g id="xtick_6">
     <g id="line2d_11">
      <path d="M 711.533884 497.88832 
L 711.533884 64.53632 
" clip-path="url(#p4fd8afd227)" style="fill: none; stroke: #b9b9b9; stroke-width: 0.75; stroke-linecap: square"/>
     </g>
     <g id="line2d_12">
      <g>
       <use xlink:href="#ma7688f7dd5" x="711.533884" y="497.88832" style="stroke: #000000; stroke-width: 0.8"/>
      </g>
     </g>
     <g id="text_6">
      <text style="font-weight: 500; font-size: 25px; font-family: 'Montserrat'; text-anchor: middle" x="711.533884" y="523.439101" transform="rotate(-0 711.533884 523.439101)">10,000</text>
     </g>
    </g>
   </g>
   <g id="matplotlib.axis_2">
    <g id="ytick_1">
     <g id="line2d_13">
      <defs>
       <path id="mc41d406fc9" d="M 0 0 
L -3.5 0 
" style="stroke: #000000; stroke-width: 0.8"/>
      </defs>
      <g>
       <use xlink:href="#mc41d406fc9" x="121.343438" y="78.981387" style="stroke: #000000; stroke-width: 0.8"/>
      </g>
     </g>
     <g id="text_7">
      <text style="font-weight: 500; font-size: 22px; font-family: 'Montserrat'; text-anchor: end" x="114.343438" y="87.14373" transform="rotate(-0 114.343438 87.14373)">2007-2011</text>
     </g>
    </g>
    <g id="ytick_2">
     <g id="line2d_14">
      <g>
       <use xlink:href="#mc41d406fc9" x="121.343438" y="107.87152" style="stroke: #000000; stroke-width: 0.8"/>
      </g>
     </g>
     <g id="text_8">
      <text style="font-weight: 500; font-size: 22px; font-family: 'Montserrat'; text-anchor: end" x="114.343438" y="116.033864" transform="rotate(-0 114.343438 116.033864)">2012</text>
     </g>
    </g>
    <g id="ytick_3">
     <g id="line2d_15">
      <g>
       <use xlink:href="#mc41d406fc9" x="121.343438" y="136.761653" style="stroke: #000000; stroke-width: 0.8"/>
      </g>
     </g>
     <g id="text_9">
      <text style="font-weight: 500; font-size: 22px; font-family: 'Montserrat'; text-anchor: end" x="114.343438" y="144.923997" transform="rotate(-0 114.343438 144.923997)">2013</text>
     </g>
    </g>
    <g id="ytick_4">
     <g id="line2d_16">
      <g>
       <use xlink:href="#mc41d406fc9" x="121.343438" y="165.651787" style="stroke: #000000; stroke-width: 0.8"/>
      </g>
     </g>
     <g id="text_10">
      <text style="font-weight: 500; font-size: 22px; font-family: 'Montserrat'; text-anchor: end" x="114.343438" y="173.81413" transform="rotate(-0 114.343438 173.81413)">2014</text>
     </g>
    </g>
    <g id="ytick_5">
     <g id="line2d_17">
      <g>
       <use xlink:href="#mc41d406fc9" x="121.343438" y="194.54192" style="stroke: #000000; stroke-width: 0.8"/>
      </g>
     </g>
     <g id="text_11">
      <text style="font-weight: 500; font-size: 22px; font-family: 'Montserrat'; text-anchor: end" x="114.343438" y="202.704264" transform="rotate(-0 114.343438 202.704264)">2015</text>
     </g>
    </g>
    <g id="ytick_6">
     <g id="line2d_18">
      <g>
       <use xlink:href="#mc41d406fc9" x="121.343438" y="223.432053" style="stroke: #000000; stroke-width: 0.8"/>
      </g>
     </g>
     <g id="text_12">
      <text style="font-weight: 500; font-size: 22px; font-family: 'Montserrat'; text-anchor: end" x="114.343438" y="231.594397" transform="rotate(-0 114.343438 231.594397)">2016</text>
     </g>
    </g>
    <g id="ytick_7">
     <g id="line2d_19">
      <g>
       <use xlink:href="#mc41d406fc9" x="121.343438" y="252.322187" style="stroke: #000000; stroke-width: 0.8"/>
      </g>
     </g>
     <g id="text_13">
      <text style="font-weight: 500; font-size: 22px; font-family: 'Montserrat'; text-anchor: end" x="114.343438" y="260.48453" transform="rotate(-0 114.343438 260.48453)">2017</text>
     </g>
    </g>
    <g id="ytick_8">
     <g id="line2d_20">
      <g>
       <use xlink:href="#mc41d406fc9" x="121.343438" y="281.21232" style="stroke: #000000; stroke-width: 0.8"/>
      </g>
     </g>
     <g id="text_14">
      <text style="font-weight: 500; font-size: 22px; font-family: 'Montserrat'; text-anchor: end" x="114.343438" y="289.374664" transform="rotate(-0 114.343438 289.374664)">2018</text>
     </g>
    </g>
    <g id="ytick_9">
     <g id="line2d_21">
      <g>
       <use xlink:href="#mc41d406fc9" x="121.343438" y="310.102453" style="stroke: #000000; stroke-width: 0.8"/>
      </g>
     </g>
     <g id="text_15">
      <text style="font-weight: 500; font-size: 22px; font-family: 'Montserrat'; text-anchor: end" x="114.343438" y="318.264797" transform="rotate(-0 114.343438 318.264797)">2019</text>
     </g>
    </g>
    <g id="ytick_10">
     <g id="line2d_22">
      <g>
       <use xlink:href="#mc41d406fc9" x="121.343438" y="338.992587" style="stroke: #000000; stroke-width: 0.8"/>
      </g>
     </g>
     <g id="text_16">
      <text style="font-weight: 500; font-size: 22px; font-family: 'Montserrat'; text-anchor: end" x="114.343438" y="347.15493" transform="rotate(-0 114.343438 347.15493)">2020</text>
     </g>
    </g>
    <g id="ytick_11">
     <g id="line2d_23">
      <g>
       <use xlink:href="#mc41d406fc9" x="121.343438" y="367.88272" style="stroke: #000000; stroke-width: 0.8"/>
      </g>
     </g>
     <g id="text_17">
      <text style="font-weight: 500; font-size: 22px; font-family: 'Montserrat'; text-anchor: end" x="114.343438" y="376.045064" transform="rotate(-0 114.343438 376.045064)">2021</text>
     </g>
    </g>
    <g id="ytick_12">
     <g id="line2d_24">
      <g>
       <use xlink:href="#mc41d406fc9" x="121.343438" y="396.772853" style="stroke: #000000; stroke-width: 0.8"/>
      </g>
     </g>
     <g id="text_18">
      <text style="font-weight: 500; font-size: 22px; font-family: 'Montserrat'; text-anchor: end" x="114.343438" y="404.935197" transform="rotate(-0 114.343438 404.935197)">2022</text>
     </g>
    </g>
    <g id="ytick_13">
     <g id="line2d_25">
      <g>
       <use xlink:href="#mc41d406fc9" x="121.343438" y="425.662987" style="stroke: #000000; stroke-width: 0.8"/>
      </g>
     </g>
     <g id="text_19">
      <text style="font-weight: 500; font-size: 22px; font-family: 'Montserrat'; text-anchor: end" x="114.343438" y="433.82533" transform="rotate(-0 114.343438 433.82533)">2023</text>
     </g>
    </g>
    <g id="ytick_14">
     <g id="line2d_26">
      <g>
       <use xlink:href="#mc41d406fc9" x="121.343438" y="454.55312" style="stroke: #000000; stroke-width: 0.8"/>
      </g>
     </g>
     <g id="text_20">
      <text style="font-weight: 500; font-size: 22px; font-family: 'Montserrat'; text-anchor: end" x="114.343438" y="462.715464" transform="rotate(-0 114.343438 462.715464)">2024</text>
     </g>
    </g>
    <g id="ytick_15">
     <g id="line2d_27">
      <g>
       <use xlink:href="#mc41d406fc9" x="121.343438" y="483.443253" style="stroke: #000000; stroke-width: 0.8"/>
      </g>
     </g>
     <g id="text_21">
      <text style="font-weight: 500; font-size: 22px; font-family: 'Montserrat'; text-anchor: end" x="114.343438" y="491.605597" transform="rotate(-0 114.343438 491.605597)">2025</text>
     </g>
    </g>
   </g>
   <g id="patch_3">
    <path d="M 121.343438 65.980827 
L 269.304182 65.980827 
L 269.304182 91.981947 
L 121.343438 91.981947 
z
" clip-path="url(#p4fd8afd227)" style="fill: #10302c"/>
   </g>
   <g id="patch_4">
    <path d="M 269.304182 65.980827 
L 478.290619 65.980827 
L 478.290619 91.981947 
L 269.304182 91.981947 
z
" clip-path="url(#p4fd8afd227)" style="fill: #4c6a67"/>
   </g>
   <g id="patch_5">
    <path d="M 121.343438 94.87096 
L 161.476388 94.87096 
L 161.476388 120.87208 
L 121.343438 120.87208 
z
" clip-path="url(#p4fd8afd227)" style="fill: #10302c"/>
   </g>
   <g id="patch_6">
    <path d="M 161.476388 94.87096 
L 245.165393 94.87096 
L 245.165393 120.87208 
L 161.476388 120.87208 
z
" clip-path="url(#p4fd8afd227)" style="fill: #4c6a67"/>
   </g>
   <g id="patch_7">
    <path d="M 121.343438 123.761093 
L 172.276873 123.761093 
L 172.276873 149.762213 
L 121.343438 149.762213 
z
" clip-path="url(#p4fd8afd227)" style="fill: #10302c"/>
   </g>
   <g id="patch_8">
    <path d="M 172.276873 123.761093 
L 257.028221 123.761093 
L 257.028221 149.762213 
L 172.276873 149.762213 
z
" clip-path="url(#p4fd8afd227)" style="fill: #4c6a67"/>
   </g>
   <g id="patch_9">
    <path d="M 121.343438 152.651227 
L 172.630987 152.651227 
L 172.630987 178.652347 
L 121.343438 178.652347 
z
" clip-path="url(#p4fd8afd227)" style="fill: #10302c"/>
   </g>
   <g id="patch_10">
    <path d="M 172.630987 152.651227 
L 252.601793 152.651227 
L 252.601793 178.652347 
L 172.630987 178.652347 
z
" clip-path="url(#p4fd8afd227)" style="fill: #4c6a67"/>
   </g>
   <g id="patch_11">
    <path d="M 121.343438 181.54136 
L 167.909464 181.54136 
L 167.909464 207.54248 
L 121.343438 207.54248 
z
" clip-path="url(#p4fd8afd227)" style="fill: #10302c"/>
   </g>
   <g id="patch_12">
    <path d="M 167.909464 181.54136 
L 242.922669 181.54136 
L 242.922669 207.54248 
L 167.909464 207.54248 
z
" clip-path="url(#p4fd8afd227)" style="fill: #4c6a67"/>
   </g>
   <g id="patch_13">
    <path d="M 121.343438 210.431493 
L 178.591911 210.431493 
L 178.591911 236.432613 
L 121.343438 236.432613 
z
" clip-path="url(#p4fd8afd227)" style="fill: #10302c"/>
   </g>
   <g id="patch_14">
    <path d="M 178.591911 210.431493 
L 264.582659 210.431493 
L 264.582659 236.432613 
L 178.591911 236.432613 
z
" clip-path="url(#p4fd8afd227)" style="fill: #4c6a67"/>
   </g>
   <g id="patch_15">
    <path d="M 121.343438 239.321627 
L 184.493815 239.321627 
L 184.493815 265.322747 
L 121.343438 265.322747 
z
" clip-path="url(#p4fd8afd227)" style="fill: #10302c"/>
   </g>
   <g id="patch_16">
    <path d="M 184.493815 239.321627 
L 297.751362 239.321627 
L 297.751362 265.322747 
L 184.493815 265.322747 
z
" clip-path="url(#p4fd8afd227)" style="fill: #4c6a67"/>
   </g>
   <g id="patch_17">
    <path d="M 121.343438 268.21176 
L 158.407398 268.21176 
L 158.407398 294.21288 
L 121.343438 294.21288 
z
" clip-path="url(#p4fd8afd227)" style="fill: #10302c"/>
   </g>
   <g id="patch_18">
    <path d="M 158.407398 268.21176 
L 264.464621 268.21176 
L 264.464621 294.21288 
L 158.407398 294.21288 
z
" clip-path="url(#p4fd8afd227)" style="fill: #4c6a67"/>
   </g>
   <g id="patch_19">
    <path d="M 121.343438 297.101893 
L 161.771483 297.101893 
L 161.771483 323.103013 
L 121.343438 323.103013 
z
" clip-path="url(#p4fd8afd227)" style="fill: #10302c"/>
   </g>
   <g id="patch_20">
    <path d="M 161.771483 297.101893 
L 295.980791 297.101893 
L 295.980791 323.103013 
L 161.771483 323.103013 
z
" clip-path="url(#p4fd8afd227)" style="fill: #4c6a67"/>
   </g>
   <g id="patch_21">
    <path d="M 121.343438 325.992027 
L 191.458063 325.992027 
L 191.458063 351.993147 
L 121.343438 351.993147 
z
" clip-path="url(#p4fd8afd227)" style="fill: #10302c"/>
   </g>
   <g id="patch_22">
    <path d="M 191.458063 325.992027 
L 347.563436 325.992027 
L 347.563436 351.993147 
L 191.458063 351.993147 
z
" clip-path="url(#p4fd8afd227)" style="fill: #4c6a67"/>
   </g>
   <g id="patch_23">
    <path d="M 121.343438 354.88216 
L 218.075652 354.88216 
L 218.075652 380.88328 
L 121.343438 380.88328 
z
" clip-path="url(#p4fd8afd227)" style="fill: #10302c"/>
   </g>
   <g id="patch_24">
    <path d="M 218.075652 354.88216 
L 402.038014 354.88216 
L 402.038014 380.88328 
L 218.075652 380.88328 
z
" clip-path="url(#p4fd8afd227)" style="fill: #4c6a67"/>
   </g>
   <g id="patch_25">
    <path d="M 121.343438 383.772293 
L 210.344157 383.772293 
L 210.344157 409.773413 
L 121.343438 409.773413 
z
" clip-path="url(#p4fd8afd227)" style="fill: #10302c"/>
   </g>
   <g id="patch_26">
    <path d="M 210.344157 383.772293 
L 378.78451 383.772293 
L 378.78451 409.773413 
L 210.344157 409.773413 
z
" clip-path="url(#p4fd8afd227)" style="fill: #4c6a67"/>
   </g>
   <g id="patch_27">
    <path d="M 121.343438 412.662427 
L 253.841193 412.662427 
L 253.841193 438.663547 
L 121.343438 438.663547 
z
" clip-path="url(#p4fd8afd227)" style="fill: #10302c"/>
   </g>
   <g id="patch_28">
    <path d="M 253.841193 412.662427 
L 481.182553 412.662427 
L 481.182553 438.663547 
L 253.841193 438.663547 
z
" clip-path="url(#p4fd8afd227)" style="fill: #4c6a67"/>
   </g>
   <g id="patch_29">
    <path d="M 121.343438 441.55256 
L 306.132066 441.55256 
L 306.132066 467.55368 
L 121.343438 467.55368 
z
" clip-path="url(#p4fd8afd227)" style="fill: #10302c"/>
   </g>
   <g id="patch_30">
    <path d="M 306.132066 441.55256 
L 651.157401 441.55256 
L 651.157401 467.55368 
L 306.132066 467.55368 
z
" clip-path="url(#p4fd8afd227)" style="fill: #4c6a67"/>
   </g>
   <g id="patch_31">
    <path d="M 121.343438 470.442693 
L 150.085712 470.442693 
L 150.085712 496.443813 
L 121.343438 496.443813 
z
" clip-path="url(#p4fd8afd227)" style="fill: #10302c"/>
   </g>
   <g id="patch_32">
    <path d="M 150.085712 470.442693 
L 385.866796 470.442693 
L 385.866796 496.443813 
L 150.085712 496.443813 
z
" clip-path="url(#p4fd8afd227)" style="fill: #4c6a67"/>
   </g>
   <g id="text_22">
    <text style="font-weight: 500; font-size: 20px; font-family: 'Montserrat'; text-anchor: middle; fill: #ffffff" x="195.32381" y="84.461074" transform="rotate(-0 195.32381 84.461074)">2,507</text>
   </g>
   <g id="text_23">
    <text style="font-weight: 500; font-size: 20px; font-family: 'Montserrat'; text-anchor: middle; fill: #ffffff" x="373.797401" y="84.461074" transform="rotate(-0 373.797401 84.461074)">3,541</text>
   </g>
   <g id="text_24">
    <g id="patch_33">
     <path d="M 509.569201 91.342324 
L 587.387951 91.342324 
Q 603.387951 91.342324 603.387951 75.342324 
L 603.387951 82.620449 
Q 603.387951 66.620449 587.387951 66.620449 
L 509.569201 66.620449 
Q 493.569201 66.620449 493.569201 82.620449 
L 493.569201 75.342324 
Q 493.569201 91.342324 509.569201 91.342324 
z
" style="fill: #ffffff; stroke: #002f2a; stroke-width: 1.5; stroke-linejoin: miter"/>
    </g>
    <text style="font-weight: 700; font-size: 20px; font-family: 'Montserrat'; text-anchor: start; fill: #10302c" x="496.569201" y="84.461074" transform="rotate(-0 496.569201 84.461074)">    6,048    </text>
   </g>
   <g id="text_25">
    <text style="font-weight: 600; font-size: 22px; font-family: 'Montserrat'; text-anchor: start; fill: #4c6a67" x="618.426413" y="85.009043" transform="rotate(-0 618.426413 85.009043)">10.4%</text>
   </g>
   <g id="text_26">
    <text style="font-weight: 500; font-size: 20px; font-family: 'Montserrat'; text-anchor: middle; fill: #ffffff" x="141.409913" y="113.351208" transform="rotate(-0 141.409913 113.351208)">680</text>
   </g>
   <g id="text_27">
    <text style="font-weight: 500; font-size: 20px; font-family: 'Montserrat'; text-anchor: middle; fill: #ffffff" x="203.32089" y="113.351208" transform="rotate(-0 203.32089 113.351208)">1,418</text>
   </g>
   <g id="text_28">
    <g id="patch_34">
     <path d="M 276.443975 120.232458 
L 352.281475 120.232458 
Q 368.281475 120.232458 368.281475 104.232458 
L 368.281475 111.510583 
Q 368.281475 95.510583 352.281475 95.510583 
L 276.443975 95.510583 
Q 260.443975 95.510583 260.443975 111.510583 
L 260.443975 104.232458 
Q 260.443975 120.232458 276.443975 120.232458 
z
" style="fill: #ffffff; stroke: #002f2a; stroke-width: 1.5; stroke-linejoin: miter"/>
    </g>
    <text style="font-weight: 700; font-size: 20px; font-family: 'Montserrat'; text-anchor: start; fill: #10302c" x="263.443975" y="113.351208" transform="rotate(-0 263.443975 113.351208)">    2,098    </text>
   </g>
   <g id="text_29">
    <text style="font-weight: 600; font-size: 22px; font-family: 'Montserrat'; text-anchor: start; fill: #4c6a67" x="385.301187" y="113.899176" transform="rotate(-0 385.301187 113.899176)">3.6%</text>
   </g>
   <g id="text_30">
    <text style="font-weight: 500; font-size: 20px; font-family: 'Montserrat'; text-anchor: middle; fill: #ffffff" x="146.810155" y="142.241341" transform="rotate(-0 146.810155 142.241341)">863</text>
   </g>
   <g id="text_31">
    <text style="font-weight: 500; font-size: 20px; font-family: 'Montserrat'; text-anchor: middle; fill: #ffffff" x="214.652547" y="142.241341" transform="rotate(-0 214.652547 142.241341)">1,436</text>
   </g>
   <g id="text_32">
    <g id="patch_35">
     <path d="M 288.306803 149.122591 
L 361.903678 149.122591 
Q 377.903678 149.122591 377.903678 133.122591 
L 377.903678 140.400716 
Q 377.903678 124.400716 361.903678 124.400716 
L 288.306803 124.400716 
Q 272.306803 124.400716 272.306803 140.400716 
L 272.306803 133.122591 
Q 272.306803 149.122591 288.306803 149.122591 
z
" style="fill: #ffffff; stroke: #002f2a; stroke-width: 1.5; stroke-linejoin: miter"/>
    </g>
    <text style="font-weight: 700; font-size: 20px; font-family: 'Montserrat'; text-anchor: start; fill: #10302c" x="275.306803" y="142.241341" transform="rotate(-0 275.306803 142.241341)">    2,299    </text>
   </g>
   <g id="text_33">
    <text style="font-weight: 600; font-size: 22px; font-family: 'Montserrat'; text-anchor: start; fill: #4c6a67" x="397.164014" y="142.78931" transform="rotate(-0 397.164014 142.78931)">4.0%</text>
   </g>
   <g id="text_34">
    <text style="font-weight: 500; font-size: 20px; font-family: 'Montserrat'; text-anchor: middle; fill: #ffffff" x="146.987212" y="171.131474" transform="rotate(-0 146.987212 171.131474)">869</text>
   </g>
   <g id="text_35">
    <text style="font-weight: 500; font-size: 20px; font-family: 'Montserrat'; text-anchor: middle; fill: #ffffff" x="212.61639" y="171.131474" transform="rotate(-0 212.61639 171.131474)">1,355</text>
   </g>
   <g id="text_36">
    <g id="patch_36">
     <path d="M 283.880375 178.012724 
L 357.57725 178.012724 
Q 373.57725 178.012724 373.57725 162.012724 
L 373.57725 169.290849 
Q 373.57725 153.290849 357.57725 153.290849 
L 283.880375 153.290849 
Q 267.880375 153.290849 267.880375 169.290849 
L 267.880375 162.012724 
Q 267.880375 178.012724 283.880375 178.012724 
z
" style="fill: #ffffff; stroke: #002f2a; stroke-width: 1.5; stroke-linejoin: miter"/>
    </g>
    <text style="font-weight: 700; font-size: 20px; font-family: 'Montserrat'; text-anchor: start; fill: #10302c" x="270.880375" y="171.131474" transform="rotate(-0 270.880375 171.131474)">    2,224    </text>
   </g>
   <g id="text_37">
    <text style="font-weight: 600; font-size: 22px; font-family: 'Montserrat'; text-anchor: start; fill: #4c6a67" x="392.737586" y="171.679443" transform="rotate(-0 392.737586 171.679443)">3.8%</text>
   </g>
   <g id="text_38">
    <text style="font-weight: 500; font-size: 20px; font-family: 'Montserrat'; text-anchor: middle; fill: #ffffff" x="144.626451" y="200.021608" transform="rotate(-0 144.626451 200.021608)">789</text>
   </g>
   <g id="text_39">
    <text style="font-weight: 500; font-size: 20px; font-family: 'Montserrat'; text-anchor: middle; fill: #ffffff" x="205.416067" y="200.021608" transform="rotate(-0 205.416067 200.021608)">1,271</text>
   </g>
   <g id="text_40">
    <g id="patch_37">
     <path d="M 274.201251 206.902857 
L 350.420001 206.902857 
Q 366.420001 206.902857 366.420001 190.902857 
L 366.420001 198.180982 
Q 366.420001 182.180982 350.420001 182.180982 
L 274.201251 182.180982 
Q 258.201251 182.180982 258.201251 198.180982 
L 258.201251 190.902857 
Q 258.201251 206.902857 274.201251 206.902857 
z
" style="fill: #ffffff; stroke: #002f2a; stroke-width: 1.5; stroke-linejoin: miter"/>
    </g>
    <text style="font-weight: 700; font-size: 20px; font-family: 'Montserrat'; text-anchor: start; fill: #10302c" x="261.201251" y="200.021608" transform="rotate(-0 261.201251 200.021608)">    2,060    </text>
   </g>
   <g id="text_41">
    <text style="font-weight: 600; font-size: 22px; font-family: 'Montserrat'; text-anchor: start; fill: #4c6a67" x="383.058463" y="200.569576" transform="rotate(-0 383.058463 200.569576)">3.5%</text>
   </g>
   <g id="text_42">
    <text style="font-weight: 500; font-size: 20px; font-family: 'Montserrat'; text-anchor: middle; fill: #ffffff" x="149.967674" y="228.911741" transform="rotate(-0 149.967674 228.911741)">970</text>
   </g>
   <g id="text_43">
    <text style="font-weight: 500; font-size: 20px; font-family: 'Montserrat'; text-anchor: middle; fill: #ffffff" x="221.587285" y="228.911741" transform="rotate(-0 221.587285 228.911741)">1,457</text>
   </g>
   <g id="text_44">
    <g id="patch_38">
     <path d="M 295.861241 235.792991 
L 370.158116 235.792991 
Q 386.158116 235.792991 386.158116 219.792991 
L 386.158116 227.071116 
Q 386.158116 211.071116 370.158116 211.071116 
L 295.861241 211.071116 
Q 279.861241 211.071116 279.861241 227.071116 
L 279.861241 219.792991 
Q 279.861241 235.792991 295.861241 235.792991 
z
" style="fill: #ffffff; stroke: #002f2a; stroke-width: 1.5; stroke-linejoin: miter"/>
    </g>
    <text style="font-weight: 700; font-size: 20px; font-family: 'Montserrat'; text-anchor: start; fill: #10302c" x="282.861241" y="228.911741" transform="rotate(-0 282.861241 228.911741)">    2,427    </text>
   </g>
   <g id="text_45">
    <text style="font-weight: 600; font-size: 22px; font-family: 'Montserrat'; text-anchor: start; fill: #4c6a67" x="404.718452" y="229.45971" transform="rotate(-0 404.718452 229.45971)">4.2%</text>
   </g>
   <g id="text_46">
    <text style="font-weight: 500; font-size: 20px; font-family: 'Montserrat'; text-anchor: middle; fill: #ffffff" x="152.918626" y="257.801874" transform="rotate(-0 152.918626 257.801874)">1,070</text>
   </g>
   <g id="text_47">
    <text style="font-weight: 500; font-size: 20px; font-family: 'Montserrat'; text-anchor: middle; fill: #ffffff" x="241.122589" y="257.801874" transform="rotate(-0 241.122589 257.801874)">1,919</text>
   </g>
   <g id="text_48">
    <g id="patch_39">
     <path d="M 329.029944 264.683124 
L 404.026819 264.683124 
Q 420.026819 264.683124 420.026819 248.683124 
L 420.026819 255.961249 
Q 420.026819 239.961249 404.026819 239.961249 
L 329.029944 239.961249 
Q 313.029944 239.961249 313.029944 255.961249 
L 313.029944 248.683124 
Q 313.029944 264.683124 329.029944 264.683124 
z
" style="fill: #ffffff; stroke: #002f2a; stroke-width: 1.5; stroke-linejoin: miter"/>
    </g>
    <text style="font-weight: 700; font-size: 20px; font-family: 'Montserrat'; text-anchor: start; fill: #10302c" x="316.029944" y="257.801874" transform="rotate(-0 316.029944 257.801874)">    2,989    </text>
   </g>
   <g id="text_49">
    <text style="font-weight: 600; font-size: 22px; font-family: 'Montserrat'; text-anchor: start; fill: #4c6a67" x="437.887155" y="258.349843" transform="rotate(-0 437.887155 258.349843)">5.2%</text>
   </g>
   <g id="text_50">
    <text style="font-weight: 500; font-size: 20px; font-family: 'Montserrat'; text-anchor: middle; fill: #ffffff" x="139.875418" y="286.692008" transform="rotate(-0 139.875418 286.692008)">628</text>
   </g>
   <g id="text_51">
    <text style="font-weight: 500; font-size: 20px; font-family: 'Montserrat'; text-anchor: middle; fill: #ffffff" x="211.436009" y="286.692008" transform="rotate(-0 211.436009 286.692008)">1,797</text>
   </g>
   <g id="text_52">
    <g id="patch_40">
     <path d="M 295.743202 293.573258 
L 369.540077 293.573258 
Q 385.540077 293.573258 385.540077 277.573258 
L 385.540077 284.851382 
Q 385.540077 268.851382 369.540077 268.851382 
L 295.743202 268.851382 
Q 279.743202 268.851382 279.743202 284.851382 
L 279.743202 277.573258 
Q 279.743202 293.573258 295.743202 293.573258 
z
" style="fill: #ffffff; stroke: #002f2a; stroke-width: 1.5; stroke-linejoin: miter"/>
    </g>
    <text style="font-weight: 700; font-size: 20px; font-family: 'Montserrat'; text-anchor: start; fill: #10302c" x="282.743202" y="286.692008" transform="rotate(-0 282.743202 286.692008)">    2,425    </text>
   </g>
   <g id="text_53">
    <text style="font-weight: 600; font-size: 22px; font-family: 'Montserrat'; text-anchor: start; fill: #4c6a67" x="404.600414" y="287.239976" transform="rotate(-0 404.600414 287.239976)">4.2%</text>
   </g>
   <g id="text_54">
    <text style="font-weight: 500; font-size: 20px; font-family: 'Montserrat'; text-anchor: middle; fill: #ffffff" x="141.55746" y="315.582141" transform="rotate(-0 141.55746 315.582141)">685</text>
   </g>
   <g id="text_55">
    <text style="font-weight: 500; font-size: 20px; font-family: 'Montserrat'; text-anchor: middle; fill: #ffffff" x="228.876137" y="315.582141" transform="rotate(-0 228.876137 315.582141)">2,274</text>
   </g>
   <g id="text_56">
    <g id="patch_41">
     <path d="M 327.259372 322.463391 
L 400.956247 322.463391 
Q 416.956247 322.463391 416.956247 306.463391 
L 416.956247 313.741516 
Q 416.956247 297.741516 400.956247 297.741516 
L 327.259372 297.741516 
Q 311.259372 297.741516 311.259372 313.741516 
L 311.259372 306.463391 
Q 311.259372 322.463391 327.259372 322.463391 
z
" style="fill: #ffffff; stroke: #002f2a; stroke-width: 1.5; stroke-linejoin: miter"/>
    </g>
    <text style="font-weight: 700; font-size: 20px; font-family: 'Montserrat'; text-anchor: start; fill: #10302c" x="314.259372" y="315.582141" transform="rotate(-0 314.259372 315.582141)">    2,959    </text>
   </g>
   <g id="text_57">
    <text style="font-weight: 600; font-size: 22px; font-family: 'Montserrat'; text-anchor: start; fill: #4c6a67" x="436.116584" y="316.13011" transform="rotate(-0 436.116584 316.13011)">5.1%</text>
   </g>
   <g id="text_58">
    <text style="font-weight: 500; font-size: 20px; font-family: 'Montserrat'; text-anchor: middle; fill: #ffffff" x="156.40075" y="344.472274" transform="rotate(-0 156.40075 344.472274)">1,188</text>
   </g>
   <g id="text_59">
    <text style="font-weight: 500; font-size: 20px; font-family: 'Montserrat'; text-anchor: middle; fill: #ffffff" x="269.510749" y="344.472274" transform="rotate(-0 269.510749 344.472274)">2,645</text>
   </g>
   <g id="text_60">
    <g id="patch_42">
     <path d="M 378.842017 351.353524 
L 452.079517 351.353524 
Q 468.079517 351.353524 468.079517 335.353524 
L 468.079517 342.631649 
Q 468.079517 326.631649 452.079517 326.631649 
L 378.842017 326.631649 
Q 362.842017 326.631649 362.842017 342.631649 
L 362.842017 335.353524 
Q 362.842017 351.353524 378.842017 351.353524 
z
" style="fill: #ffffff; stroke: #002f2a; stroke-width: 1.5; stroke-linejoin: miter"/>
    </g>
    <text style="font-weight: 700; font-size: 20px; font-family: 'Montserrat'; text-anchor: start; fill: #10302c" x="365.842017" y="344.472274" transform="rotate(-0 365.842017 344.472274)">    3,833    </text>
   </g>
   <g id="text_61">
    <text style="font-weight: 600; font-size: 22px; font-family: 'Montserrat'; text-anchor: start; fill: #4c6a67" x="487.699229" y="345.020243" transform="rotate(-0 487.699229 345.020243)">6.6%</text>
   </g>
   <g id="text_62">
    <text style="font-weight: 500; font-size: 20px; font-family: 'Montserrat'; text-anchor: middle; fill: #ffffff" x="169.709545" y="373.362408" transform="rotate(-0 169.709545 373.362408)">1,639</text>
   </g>
   <g id="text_63">
    <text style="font-weight: 500; font-size: 20px; font-family: 'Montserrat'; text-anchor: middle; fill: #ffffff" x="310.056833" y="373.362408" transform="rotate(-0 310.056833 373.362408)">3,117</text>
   </g>
   <g id="text_64">
    <g id="patch_43">
     <path d="M 433.316596 380.243658 
L 508.654096 380.243658 
Q 524.654096 380.243658 524.654096 364.243658 
L 524.654096 371.521783 
Q 524.654096 355.521783 508.654096 355.521783 
L 433.316596 355.521783 
Q 417.316596 355.521783 417.316596 371.521783 
L 417.316596 364.243658 
Q 417.316596 380.243658 433.316596 380.243658 
z
" style="fill: #ffffff; stroke: #002f2a; stroke-width: 1.5; stroke-linejoin: miter"/>
    </g>
    <text style="font-weight: 700; font-size: 20px; font-family: 'Montserrat'; text-anchor: start; fill: #10302c" x="420.316596" y="373.362408" transform="rotate(-0 420.316596 373.362408)">    4,756    </text>
   </g>
   <g id="text_65">
    <text style="font-weight: 600; font-size: 22px; font-family: 'Montserrat'; text-anchor: start; fill: #4c6a67" x="542.173807" y="373.910376" transform="rotate(-0 542.173807 373.910376)">8.2%</text>
   </g>
   <g id="text_66">
    <text style="font-weight: 500; font-size: 20px; font-family: 'Montserrat'; text-anchor: middle; fill: #ffffff" x="165.843797" y="402.252541" transform="rotate(-0 165.843797 402.252541)">1,508</text>
   </g>
   <g id="text_67">
    <text style="font-weight: 500; font-size: 20px; font-family: 'Montserrat'; text-anchor: middle; fill: #ffffff" x="294.564333" y="402.252541" transform="rotate(-0 294.564333 402.252541)">2,854</text>
   </g>
   <g id="text_68">
    <g id="patch_44">
     <path d="M 410.063092 409.133791 
L 484.741217 409.133791 
Q 500.741217 409.133791 500.741217 393.133791 
L 500.741217 400.411916 
Q 500.741217 384.411916 484.741217 384.411916 
L 410.063092 384.411916 
Q 394.063092 384.411916 394.063092 400.411916 
L 394.063092 393.133791 
Q 394.063092 409.133791 410.063092 409.133791 
z
" style="fill: #ffffff; stroke: #002f2a; stroke-width: 1.5; stroke-linejoin: miter"/>
    </g>
    <text style="font-weight: 700; font-size: 20px; font-family: 'Montserrat'; text-anchor: start; fill: #10302c" x="397.063092" y="402.252541" transform="rotate(-0 397.063092 402.252541)">    4,362    </text>
   </g>
   <g id="text_69">
    <text style="font-weight: 600; font-size: 22px; font-family: 'Montserrat'; text-anchor: start; fill: #4c6a67" x="518.920304" y="402.80051" transform="rotate(-0 518.920304 402.80051)">7.5%</text>
   </g>
   <g id="text_70">
    <text style="font-weight: 500; font-size: 20px; font-family: 'Montserrat'; text-anchor: middle; fill: #ffffff" x="187.592315" y="431.142674" transform="rotate(-0 187.592315 431.142674)">2,245</text>
   </g>
   <g id="text_71">
    <text style="font-weight: 500; font-size: 20px; font-family: 'Montserrat'; text-anchor: middle; fill: #ffffff" x="367.511873" y="431.142674" transform="rotate(-0 367.511873 431.142674)">3,852</text>
   </g>
   <g id="text_72">
    <g id="patch_45">
     <path d="M 512.461134 438.023924 
L 588.439259 438.023924 
Q 604.439259 438.023924 604.439259 422.023924 
L 604.439259 429.302049 
Q 604.439259 413.302049 588.439259 413.302049 
L 512.461134 413.302049 
Q 496.461134 413.302049 496.461134 429.302049 
L 496.461134 422.023924 
Q 496.461134 438.023924 512.461134 438.023924 
z
" style="fill: #ffffff; stroke: #002f2a; stroke-width: 1.5; stroke-linejoin: miter"/>
    </g>
    <text style="font-weight: 700; font-size: 20px; font-family: 'Montserrat'; text-anchor: start; fill: #10302c" x="499.461134" y="431.142674" transform="rotate(-0 499.461134 431.142674)">    6,097    </text>
   </g>
   <g id="text_73">
    <text style="font-weight: 600; font-size: 22px; font-family: 'Montserrat'; text-anchor: start; fill: #4c6a67" x="621.318346" y="431.690643" transform="rotate(-0 621.318346 431.690643)">10.5%</text>
   </g>
   <g id="text_74">
    <text style="font-weight: 500; font-size: 20px; font-family: 'Montserrat'; text-anchor: middle; fill: #ffffff" x="213.737752" y="460.032807" transform="rotate(-0 213.737752 460.032807)">3,131</text>
   </g>
   <g id="text_75">
    <text style="font-weight: 500; font-size: 20px; font-family: 'Montserrat'; text-anchor: middle; fill: #ffffff" x="478.644734" y="460.032807" transform="rotate(-0 478.644734 460.032807)">5,846</text>
   </g>
   <g id="text_76">
    <g id="patch_46">
     <path d="M 682.435983 466.914058 
L 757.692233 466.914058 
Q 773.692233 466.914058 773.692233 450.914058 
L 773.692233 458.192183 
Q 773.692233 442.192183 757.692233 442.192183 
L 682.435983 442.192183 
Q 666.435983 442.192183 666.435983 458.192183 
L 666.435983 450.914058 
Q 666.435983 466.914058 682.435983 466.914058 
z
" style="fill: #ffffff; stroke: #002f2a; stroke-width: 1.5; stroke-linejoin: miter"/>
    </g>
    <text style="font-weight: 700; font-size: 20px; font-family: 'Montserrat'; text-anchor: start; fill: #10302c" x="669.435983" y="460.032807" transform="rotate(-0 669.435983 460.032807)">    8,977    </text>
   </g>
   <g id="text_77">
    <text style="font-weight: 600; font-size: 22px; font-family: 'Montserrat'; text-anchor: start; fill: #4c6a67" x="791.293195" y="460.580776" transform="rotate(-0 791.293195 460.580776)">15.5%</text>
   </g>
   <g id="text_78">
    <text style="font-weight: 500; font-size: 20px; font-family: 'Montserrat'; text-anchor: middle; fill: #ffffff" x="267.976254" y="488.922941" transform="rotate(-0 267.976254 488.922941)">3,995</text>
   </g>
   <g id="text_79">
    <g id="patch_47">
     <path d="M 417.145377 495.804191 
L 494.223502 495.804191 
Q 510.223502 495.804191 510.223502 479.804191 
L 510.223502 487.082316 
Q 510.223502 471.082316 494.223502 471.082316 
L 417.145377 471.082316 
Q 401.145377 471.082316 401.145377 487.082316 
L 401.145377 479.804191 
Q 401.145377 495.804191 417.145377 495.804191 
z
" style="fill: #ffffff; stroke: #002f2a; stroke-width: 1.5; stroke-linejoin: miter"/>
    </g>
    <text style="font-weight: 700; font-size: 20px; font-family: 'Montserrat'; text-anchor: start; fill: #10302c" x="404.145377" y="488.922941" transform="rotate(-0 404.145377 488.922941)">    4,482    </text>
   </g>
   <g id="text_80">
    <text style="font-weight: 600; font-size: 22px; font-family: 'Montserrat'; text-anchor: start; fill: #4c6a67" x="526.002589" y="489.47091" transform="rotate(-0 526.002589 489.47091)">7.7%</text>
   </g>
   <g id="legend_1">
    <g id="patch_48">
     <path d="M 199.00952 35.03625 
L 247.00952 35.03625 
L 247.00952 18.23625 
L 199.00952 18.23625 
z
" style="fill: #10302c"/>
    </g>
    <g id="text_81">
     <text style="font-size: 24px; font-family: 'DejaVu Sans', 'Bitstream Vera Sans', 'Computer Modern Sans Serif', 'Lucida Grande', 'Verdana', 'Geneva', 'Lucid', 'Arial', 'Helvetica', 'Avant Garde', sans-serif; text-anchor: start" x="266.20952" y="35.03625" transform="rotate(-0 266.20952 35.03625)">movimiento</text>
    </g>
    <g id="patch_49">
     <path d="M 457.26077 35.03625 
L 505.26077 35.03625 
L 505.26077 18.23625 
L 457.26077 18.23625 
z
" style="fill: #4c6a67"/>
    </g>
    <g id="text_82">
     <text style="font-size: 24px; font-family: 'DejaVu Sans', 'Bitstream Vera Sans', 'Computer Modern Sans Serif', 'Lucida Grande', 'Verdana', 'Geneva', 'Lucid', 'Arial', 'Helvetica', 'Avant Garde', sans-serif; text-anchor: start" x="524.46077" y="35.03625" transform="rotate(-0 524.46077 35.03625)">sin_movimiento</text>
    </g>
   </g>
  </g>
 </g>
 <defs>
  <clipPath id="p4fd8afd227">
   <rect x="121.343438" y="64.53632" width="670.214664" height="433.352"/>
  </clipPath>
 </defs>
</svg>
