<?xml version="1.0" encoding="utf-8" standalone="no"?>
<!DOCTYPE svg PUBLIC "-//W3C//DTD SVG 1.1//EN"
  "http://www.w3.org/Graphics/SVG/1.1/DTD/svg11.dtd">
<svg xmlns:xlink="http://www.w3.org/1999/xlink" width="856.861945pt" height="535.490664pt" viewBox="0 0 856.861945 535.490664" xmlns="http://www.w3.org/2000/svg" version="1.1">
 <metadata>
  <rdf:RDF xmlns:dc="http://purl.org/dc/elements/1.1/" xmlns:cc="http://creativecommons.org/ns#" xmlns:rdf="http://www.w3.org/1999/02/22-rdf-syntax-ns#">
   <cc:Work>
    <dc:type rdf:resource="http://purl.org/dc/dcmitype/StillImage"/>
    <dc:date>2025-05-29T12:01:08.119200</dc:date>
    <dc:format>image/svg+xml</dc:format>
    <dc:creator>
     <cc:Agent>
      <dc:title>Matplotlib v3.10.1, https://matplotlib.org/</dc:title>
     </cc:Agent>
    </dc:creator>
   </cc:Work>
  </rdf:RDF>
 </metadata>
 <defs>
  <style type="text/css">*{stroke-linejoin: round; stroke-linecap: butt}</style>
 </defs>
 <g id="figure_1">
  <g id="patch_1">
   <path d="M 0 535.490664 
L 856.861945 535.490664 
L 856.861945 0 
L 0 0 
z
" style="fill: #ffffff"/>
  </g>
  <g id="axes_1">
   <g id="patch_2">
    <path d="M 121.343438 497.88832 
L 791.558102 497.88832 
L 791.558102 64.53632 
L 121.343438 64.53632 
z
" style="fill: #ffffff"/>
   </g>
   <g id="matplotlib.axis_1">
    <g id="xtick_1">
     <g id="line2d_1">
      <path d="M 121.343438 497.88832 
L 121.343438 64.53632 
" clip-path="url(#p6d5f0d61aa)" style="fill: none; stroke: #b9b9b9; stroke-width: 0.75; stroke-linecap: square"/>
     </g>
     <g id="line2d_2">
      <defs>
       <path id="maa5420f43f" d="M 0 0 
L 0 3.5 
" style="stroke: #000000; stroke-width: 0.8"/>
      </defs>
      <g>
       <use xlink:href="#maa5420f43f" x="121.343438" y="497.88832" style="stroke: #000000; stroke-width: 0.8"/>
      </g>
     </g>
     <g id="text_1">
      <text style="font-weight: 500; font-size: 25px; font-family: 'Montserrat'; text-anchor: middle" x="121.343438" y="523.439101" transform="rotate(-0 121.343438 523.439101)">0</text>
     </g>
    </g>
    <g id="xtick_2">
     <g id="line2d_3">
      <path d="M 239.381527 497.88832 
L 239.381527 64.53632 
" clip-path="url(#p6d5f0d61aa)" style="fill: none; stroke: #b9b9b9; stroke-width: 0.75; stroke-linecap: square"/>
     </g>
     <g id="line2d_4">
      <g>
       <use xlink:href="#maa5420f43f" x="239.381527" y="497.88832" style="stroke: #000000; stroke-width: 0.8"/>
      </g>
     </g>
     <g id="text_2">
      <text style="font-weight: 500; font-size: 25px; font-family: 'Montserrat'; text-anchor: middle" x="239.381527" y="523.439101" transform="rotate(-0 239.381527 523.439101)">2,000</text>
     </g>
    </g>
    <g id="xtick_3">
     <g id="line2d_5">
      <path d="M 357.419616 497.88832 
L 357.419616 64.53632 
" clip-path="url(#p6d5f0d61aa)" style="fill: none; stroke: #b9b9b9; stroke-width: 0.75; stroke-linecap: square"/>
     </g>
     <g id="line2d_6">
      <g>
       <use xlink:href="#maa5420f43f" x="357.419616" y="497.88832" style="stroke: #000000; stroke-width: 0.8"/>
      </g>
     </g>
     <g id="text_3">
      <text style="font-weight: 500; font-size: 25px; font-family: 'Montserrat'; text-anchor: middle" x="357.419616" y="523.439101" transform="rotate(-0 357.419616 523.439101)">4,000</text>
     </g>
    </g>
    <g id="xtick_4">
     <g id="line2d_7">
      <path d="M 475.457705 497.88832 
L 475.457705 64.53632 
" clip-path="url(#p6d5f0d61aa)" style="fill: none; stroke: #b9b9b9; stroke-width: 0.75; stroke-linecap: square"/>
     </g>
     <g id="line2d_8">
      <g>
       <use xlink:href="#maa5420f43f" x="475.457705" y="497.88832" style="stroke: #000000; stroke-width: 0.8"/>
      </g>
     </g>
     <g id="text_4">
      <text style="font-weight: 500; font-size: 25px; font-family: 'Montserrat'; text-anchor: middle" x="475.457705" y="523.439101" transform="rotate(-0 475.457705 523.439101)">6,000</text>
     </g>
    </g>
    <g id="xtick_5">
     <g id="line2d_9">
      <path d="M 593.495795 497.88832 
L 593.495795 64.53632 
" clip-path="url(#p6d5f0d61aa)" style="fill: none; stroke: #b9b9b9; stroke-width: 0.75; stroke-linecap: square"/>
     </g>
     <g id="line2d_10">
      <g>
       <use xlink:href="#maa5420f43f" x="593.495795" y="497.88832" style="stroke: #000000; stroke-width: 0.8"/>
      </g>
     </g>
     <g id="text_5">
      <text style="font-weight: 500; font-size: 25px; font-family: 'Montserrat'; text-anchor: middle" x="593.495795" y="523.439101" transform="rotate(-0 593.495795 523.439101)">8,000</text>
     </g>
    </g>
    <g id="xtick_6">
     <g id="line2d_11">
      <path d="M 711.533884 497.88832 
L 711.533884 64.53632 
" clip-path="url(#p6d5f0d61aa)" style="fill: none; stroke: #b9b9b9; stroke-width: 0.75; stroke-linecap: square"/>
     </g>
     <g id="line2d_12">
      <g>
       <use xlink:href="#maa5420f43f" x="711.533884" y="497.88832" style="stroke: #000000; stroke-width: 0.8"/>
      </g>
     </g>
     <g id="text_6">
      <text style="font-weight: 500; font-size: 25px; font-family: 'Montserrat'; text-anchor: middle" x="711.533884" y="523.439101" transform="rotate(-0 711.533884 523.439101)">10,000</text>
     </g>
    </g>
   </g>
   <g id="matplotlib.axis_2">
    <g id="ytick_1">
     <g id="line2d_13">
      <defs>
       <path id="mf4bed2b0bb" d="M 0 0 
L -3.5 0 
" style="stroke: #000000; stroke-width: 0.8"/>
      </defs>
      <g>
       <use xlink:href="#mf4bed2b0bb" x="121.343438" y="96.132149" style="stroke: #000000; stroke-width: 0.8"/>
      </g>
     </g>
     <g id="text_7">
      <text style="font-weight: 500; font-size: 22px; font-family: 'Montserrat'; text-anchor: end" x="114.343438" y="104.294493" transform="rotate(-0 114.343438 104.294493)">2007-2011</text>
     </g>
    </g>
    <g id="ytick_2">
     <g id="line2d_14">
      <g>
       <use xlink:href="#mf4bed2b0bb" x="121.343438" y="122.572174" style="stroke: #000000; stroke-width: 0.8"/>
      </g>
     </g>
     <g id="text_8">
      <text style="font-weight: 500; font-size: 22px; font-family: 'Montserrat'; text-anchor: end" x="114.343438" y="130.734517" transform="rotate(-0 114.343438 130.734517)">2012</text>
     </g>
    </g>
    <g id="ytick_3">
     <g id="line2d_15">
      <g>
       <use xlink:href="#mf4bed2b0bb" x="121.343438" y="149.012198" style="stroke: #000000; stroke-width: 0.8"/>
      </g>
     </g>
     <g id="text_9">
      <text style="font-weight: 500; font-size: 22px; font-family: 'Montserrat'; text-anchor: end" x="114.343438" y="157.174542" transform="rotate(-0 114.343438 157.174542)">2013</text>
     </g>
    </g>
    <g id="ytick_4">
     <g id="line2d_16">
      <g>
       <use xlink:href="#mf4bed2b0bb" x="121.343438" y="175.452222" style="stroke: #000000; stroke-width: 0.8"/>
      </g>
     </g>
     <g id="text_10">
      <text style="font-weight: 500; font-size: 22px; font-family: 'Montserrat'; text-anchor: end" x="114.343438" y="183.614566" transform="rotate(-0 114.343438 183.614566)">2014</text>
     </g>
    </g>
    <g id="ytick_5">
     <g id="line2d_17">
      <g>
       <use xlink:href="#mf4bed2b0bb" x="121.343438" y="201.892247" style="stroke: #000000; stroke-width: 0.8"/>
      </g>
     </g>
     <g id="text_11">
      <text style="font-weight: 500; font-size: 22px; font-family: 'Montserrat'; text-anchor: end" x="114.343438" y="210.054591" transform="rotate(-0 114.343438 210.054591)">2015</text>
     </g>
    </g>
    <g id="ytick_6">
     <g id="line2d_18">
      <g>
       <use xlink:href="#mf4bed2b0bb" x="121.343438" y="228.332271" style="stroke: #000000; stroke-width: 0.8"/>
      </g>
     </g>
     <g id="text_12">
      <text style="font-weight: 500; font-size: 22px; font-family: 'Montserrat'; text-anchor: end" x="114.343438" y="236.494615" transform="rotate(-0 114.343438 236.494615)">2016</text>
     </g>
    </g>
    <g id="ytick_7">
     <g id="line2d_19">
      <g>
       <use xlink:href="#mf4bed2b0bb" x="121.343438" y="254.772296" style="stroke: #000000; stroke-width: 0.8"/>
      </g>
     </g>
     <g id="text_13">
      <text style="font-weight: 500; font-size: 22px; font-family: 'Montserrat'; text-anchor: end" x="114.343438" y="262.934639" transform="rotate(-0 114.343438 262.934639)">2017</text>
     </g>
    </g>
    <g id="ytick_8">
     <g id="line2d_20">
      <g>
       <use xlink:href="#mf4bed2b0bb" x="121.343438" y="281.21232" style="stroke: #000000; stroke-width: 0.8"/>
      </g>
     </g>
     <g id="text_14">
      <text style="font-weight: 500; font-size: 22px; font-family: 'Montserrat'; text-anchor: end" x="114.343438" y="289.374664" transform="rotate(-0 114.343438 289.374664)">2018</text>
     </g>
    </g>
    <g id="ytick_9">
     <g id="line2d_21">
      <g>
       <use xlink:href="#mf4bed2b0bb" x="121.343438" y="307.652344" style="stroke: #000000; stroke-width: 0.8"/>
      </g>
     </g>
     <g id="text_15">
      <text style="font-weight: 500; font-size: 22px; font-family: 'Montserrat'; text-anchor: end" x="114.343438" y="315.814688" transform="rotate(-0 114.343438 315.814688)">2019</text>
     </g>
    </g>
    <g id="ytick_10">
     <g id="line2d_22">
      <g>
       <use xlink:href="#mf4bed2b0bb" x="121.343438" y="334.092369" style="stroke: #000000; stroke-width: 0.8"/>
      </g>
     </g>
     <g id="text_16">
      <text style="font-weight: 500; font-size: 22px; font-family: 'Montserrat'; text-anchor: end" x="114.343438" y="342.254713" transform="rotate(-0 114.343438 342.254713)">2020</text>
     </g>
    </g>
    <g id="ytick_11">
     <g id="line2d_23">
      <g>
       <use xlink:href="#mf4bed2b0bb" x="121.343438" y="360.532393" style="stroke: #000000; stroke-width: 0.8"/>
      </g>
     </g>
     <g id="text_17">
      <text style="font-weight: 500; font-size: 22px; font-family: 'Montserrat'; text-anchor: end" x="114.343438" y="368.694737" transform="rotate(-0 114.343438 368.694737)">2021</text>
     </g>
    </g>
    <g id="ytick_12">
     <g id="line2d_24">
      <g>
       <use xlink:href="#mf4bed2b0bb" x="121.343438" y="386.972418" style="stroke: #000000; stroke-width: 0.8"/>
      </g>
     </g>
     <g id="text_18">
      <text style="font-weight: 500; font-size: 22px; font-family: 'Montserrat'; text-anchor: end" x="114.343438" y="395.134761" transform="rotate(-0 114.343438 395.134761)">2022</text>
     </g>
    </g>
    <g id="ytick_13">
     <g id="line2d_25">
      <g>
       <use xlink:href="#mf4bed2b0bb" x="121.343438" y="413.412442" style="stroke: #000000; stroke-width: 0.8"/>
      </g>
     </g>
     <g id="text_19">
      <text style="font-weight: 500; font-size: 22px; font-family: 'Montserrat'; text-anchor: end" x="114.343438" y="421.574786" transform="rotate(-0 114.343438 421.574786)">2023</text>
     </g>
    </g>
    <g id="ytick_14">
     <g id="line2d_26">
      <g>
       <use xlink:href="#mf4bed2b0bb" x="121.343438" y="439.852466" style="stroke: #000000; stroke-width: 0.8"/>
      </g>
     </g>
     <g id="text_20">
      <text style="font-weight: 500; font-size: 22px; font-family: 'Montserrat'; text-anchor: end" x="114.343438" y="448.01481" transform="rotate(-0 114.343438 448.01481)">2024</text>
     </g>
    </g>
    <g id="ytick_15">
     <g id="line2d_27">
      <g>
       <use xlink:href="#mf4bed2b0bb" x="121.343438" y="466.292491" style="stroke: #000000; stroke-width: 0.8"/>
      </g>
     </g>
     <g id="text_21">
      <text style="font-weight: 500; font-size: 22px; font-family: 'Montserrat'; text-anchor: end" x="114.343438" y="474.454835" transform="rotate(-0 114.343438 474.454835)">2025</text>
     </g>
    </g>
   </g>
   <g id="patch_3">
    <path d="M 121.343438 84.234138 
L 269.304182 84.234138 
L 269.304182 108.03016 
L 121.343438 108.03016 
z
" clip-path="url(#p6d5f0d61aa)" style="fill: #10302c"/>
   </g>
   <g id="patch_4">
    <path d="M 269.304182 84.234138 
L 478.290619 84.234138 
L 478.290619 108.03016 
L 269.304182 108.03016 
z
" clip-path="url(#p6d5f0d61aa)" style="fill: #4c6a67"/>
   </g>
   <g id="patch_5">
    <path d="M 121.343438 110.674163 
L 161.476388 110.674163 
L 161.476388 134.470185 
L 121.343438 134.470185 
z
" clip-path="url(#p6d5f0d61aa)" style="fill: #10302c"/>
   </g>
   <g id="patch_6">
    <path d="M 161.476388 110.674163 
L 245.165393 110.674163 
L 245.165393 134.470185 
L 161.476388 134.470185 
z
" clip-path="url(#p6d5f0d61aa)" style="fill: #4c6a67"/>
   </g>
   <g id="patch_7">
    <path d="M 121.343438 137.114187 
L 172.276873 137.114187 
L 172.276873 160.910209 
L 121.343438 160.910209 
z
" clip-path="url(#p6d5f0d61aa)" style="fill: #10302c"/>
   </g>
   <g id="patch_8">
    <path d="M 172.276873 137.114187 
L 257.028221 137.114187 
L 257.028221 160.910209 
L 172.276873 160.910209 
z
" clip-path="url(#p6d5f0d61aa)" style="fill: #4c6a67"/>
   </g>
   <g id="patch_9">
    <path d="M 121.343438 163.554211 
L 172.630987 163.554211 
L 172.630987 187.350233 
L 121.343438 187.350233 
z
" clip-path="url(#p6d5f0d61aa)" style="fill: #10302c"/>
   </g>
   <g id="patch_10">
    <path d="M 172.630987 163.554211 
L 252.601793 163.554211 
L 252.601793 187.350233 
L 172.630987 187.350233 
z
" clip-path="url(#p6d5f0d61aa)" style="fill: #4c6a67"/>
   </g>
   <g id="patch_11">
    <path d="M 121.343438 189.994236 
L 167.909464 189.994236 
L 167.909464 213.790258 
L 121.343438 213.790258 
z
" clip-path="url(#p6d5f0d61aa)" style="fill: #10302c"/>
   </g>
   <g id="patch_12">
    <path d="M 167.909464 189.994236 
L 242.922669 189.994236 
L 242.922669 213.790258 
L 167.909464 213.790258 
z
" clip-path="url(#p6d5f0d61aa)" style="fill: #4c6a67"/>
   </g>
   <g id="patch_13">
    <path d="M 121.343438 216.43426 
L 178.591911 216.43426 
L 178.591911 240.230282 
L 121.343438 240.230282 
z
" clip-path="url(#p6d5f0d61aa)" style="fill: #10302c"/>
   </g>
   <g id="patch_14">
    <path d="M 178.591911 216.43426 
L 264.582659 216.43426 
L 264.582659 240.230282 
L 178.591911 240.230282 
z
" clip-path="url(#p6d5f0d61aa)" style="fill: #4c6a67"/>
   </g>
   <g id="patch_15">
    <path d="M 121.343438 242.874285 
L 184.493815 242.874285 
L 184.493815 266.670307 
L 121.343438 266.670307 
z
" clip-path="url(#p6d5f0d61aa)" style="fill: #10302c"/>
   </g>
   <g id="patch_16">
    <path d="M 184.493815 242.874285 
L 297.751362 242.874285 
L 297.751362 266.670307 
L 184.493815 266.670307 
z
" clip-path="url(#p6d5f0d61aa)" style="fill: #4c6a67"/>
   </g>
   <g id="patch_17">
    <path d="M 121.343438 269.314309 
L 158.407398 269.314309 
L 158.407398 293.110331 
L 121.343438 293.110331 
z
" clip-path="url(#p6d5f0d61aa)" style="fill: #10302c"/>
   </g>
   <g id="patch_18">
    <path d="M 158.407398 269.314309 
L 264.464621 269.314309 
L 264.464621 293.110331 
L 158.407398 293.110331 
z
" clip-path="url(#p6d5f0d61aa)" style="fill: #4c6a67"/>
   </g>
   <g id="patch_19">
    <path d="M 121.343438 295.754333 
L 161.771483 295.754333 
L 161.771483 319.550355 
L 121.343438 319.550355 
z
" clip-path="url(#p6d5f0d61aa)" style="fill: #10302c"/>
   </g>
   <g id="patch_20">
    <path d="M 161.771483 295.754333 
L 295.980791 295.754333 
L 295.980791 319.550355 
L 161.771483 319.550355 
z
" clip-path="url(#p6d5f0d61aa)" style="fill: #4c6a67"/>
   </g>
   <g id="patch_21">
    <path d="M 121.343438 322.194358 
L 191.458063 322.194358 
L 191.458063 345.99038 
L 121.343438 345.99038 
z
" clip-path="url(#p6d5f0d61aa)" style="fill: #10302c"/>
   </g>
   <g id="patch_22">
    <path d="M 191.458063 322.194358 
L 347.563436 322.194358 
L 347.563436 345.99038 
L 191.458063 345.99038 
z
" clip-path="url(#p6d5f0d61aa)" style="fill: #4c6a67"/>
   </g>
   <g id="patch_23">
    <path d="M 121.343438 348.634382 
L 218.075652 348.634382 
L 218.075652 372.430404 
L 121.343438 372.430404 
z
" clip-path="url(#p6d5f0d61aa)" style="fill: #10302c"/>
   </g>
   <g id="patch_24">
    <path d="M 218.075652 348.634382 
L 402.038014 348.634382 
L 402.038014 372.430404 
L 218.075652 372.430404 
z
" clip-path="url(#p6d5f0d61aa)" style="fill: #4c6a67"/>
   </g>
   <g id="patch_25">
    <path d="M 121.343438 375.074407 
L 210.344157 375.074407 
L 210.344157 398.870429 
L 121.343438 398.870429 
z
" clip-path="url(#p6d5f0d61aa)" style="fill: #10302c"/>
   </g>
   <g id="patch_26">
    <path d="M 210.344157 375.074407 
L 378.78451 375.074407 
L 378.78451 398.870429 
L 210.344157 398.870429 
z
" clip-path="url(#p6d5f0d61aa)" style="fill: #4c6a67"/>
   </g>
   <g id="patch_27">
    <path d="M 121.343438 401.514431 
L 253.841193 401.514431 
L 253.841193 425.310453 
L 121.343438 425.310453 
z
" clip-path="url(#p6d5f0d61aa)" style="fill: #10302c"/>
   </g>
   <g id="patch_28">
    <path d="M 253.841193 401.514431 
L 481.182553 401.514431 
L 481.182553 425.310453 
L 253.841193 425.310453 
z
" clip-path="url(#p6d5f0d61aa)" style="fill: #4c6a67"/>
   </g>
   <g id="patch_29">
    <path d="M 121.343438 427.954455 
L 306.132066 427.954455 
L 306.132066 451.750477 
L 121.343438 451.750477 
z
" clip-path="url(#p6d5f0d61aa)" style="fill: #10302c"/>
   </g>
   <g id="patch_30">
    <path d="M 306.132066 427.954455 
L 651.157401 427.954455 
L 651.157401 451.750477 
L 306.132066 451.750477 
z
" clip-path="url(#p6d5f0d61aa)" style="fill: #4c6a67"/>
   </g>
   <g id="patch_31">
    <path d="M 121.343438 454.39448 
L 150.085712 454.39448 
L 150.085712 478.190502 
L 121.343438 478.190502 
z
" clip-path="url(#p6d5f0d61aa)" style="fill: #10302c"/>
   </g>
   <g id="patch_32">
    <path d="M 150.085712 454.39448 
L 385.866796 454.39448 
L 385.866796 478.190502 
L 150.085712 478.190502 
z
" clip-path="url(#p6d5f0d61aa)" style="fill: #4c6a67"/>
   </g>
   <g id="text_22">
    <text style="font-weight: 500; font-size: 20px; font-family: 'Montserrat'; text-anchor: middle; fill: #ffffff" x="195.32381" y="101.611837" transform="rotate(-0 195.32381 101.611837)">2,507</text>
   </g>
   <g id="text_23">
    <text style="font-weight: 500; font-size: 20px; font-family: 'Montserrat'; text-anchor: middle; fill: #ffffff" x="373.797401" y="101.611837" transform="rotate(-0 373.797401 101.611837)">3,541</text>
   </g>
   <g id="text_24">
    <g id="patch_33">
     <path d="M 509.569201 108.493087 
L 587.387951 108.493087 
Q 603.387951 108.493087 603.387951 92.493087 
L 603.387951 99.771212 
Q 603.387951 83.771212 587.387951 83.771212 
L 509.569201 83.771212 
Q 493.569201 83.771212 493.569201 99.771212 
L 493.569201 92.493087 
Q 493.569201 108.493087 509.569201 108.493087 
z
" style="fill: #ffffff; stroke: #002f2a; stroke-width: 1.5; stroke-linejoin: miter"/>
    </g>
    <text style="font-weight: 700; font-size: 20px; font-family: 'Montserrat'; text-anchor: start; fill: #10302c" x="496.569201" y="101.611837" transform="rotate(-0 496.569201 101.611837)">    6,048    </text>
   </g>
   <g id="text_25">
    <text style="font-weight: 600; font-size: 22px; font-family: 'Montserrat'; text-anchor: start; fill: #4c6a67" x="618.426413" y="102.159805" transform="rotate(-0 618.426413 102.159805)">10.4%</text>
   </g>
   <g id="text_26">
    <text style="font-weight: 500; font-size: 20px; font-family: 'Montserrat'; text-anchor: middle; fill: #ffffff" x="141.409913" y="128.051861" transform="rotate(-0 141.409913 128.051861)">680</text>
   </g>
   <g id="text_27">
    <text style="font-weight: 500; font-size: 20px; font-family: 'Montserrat'; text-anchor: middle; fill: #ffffff" x="203.32089" y="128.051861" transform="rotate(-0 203.32089 128.051861)">1,418</text>
   </g>
   <g id="text_28">
    <g id="patch_34">
     <path d="M 276.443975 134.933111 
L 352.281475 134.933111 
Q 368.281475 134.933111 368.281475 118.933111 
L 368.281475 126.211236 
Q 368.281475 110.211236 352.281475 110.211236 
L 276.443975 110.211236 
Q 260.443975 110.211236 260.443975 126.211236 
L 260.443975 118.933111 
Q 260.443975 134.933111 276.443975 134.933111 
z
" style="fill: #ffffff; stroke: #002f2a; stroke-width: 1.5; stroke-linejoin: miter"/>
    </g>
    <text style="font-weight: 700; font-size: 20px; font-family: 'Montserrat'; text-anchor: start; fill: #10302c" x="263.443975" y="128.051861" transform="rotate(-0 263.443975 128.051861)">    2,098    </text>
   </g>
   <g id="text_29">
    <text style="font-weight: 600; font-size: 22px; font-family: 'Montserrat'; text-anchor: start; fill: #4c6a67" x="385.301187" y="128.59983" transform="rotate(-0 385.301187 128.59983)">3.6%</text>
   </g>
   <g id="text_30">
    <text style="font-weight: 500; font-size: 20px; font-family: 'Montserrat'; text-anchor: middle; fill: #ffffff" x="146.810155" y="154.491885" transform="rotate(-0 146.810155 154.491885)">863</text>
   </g>
   <g id="text_31">
    <text style="font-weight: 500; font-size: 20px; font-family: 'Montserrat'; text-anchor: middle; fill: #ffffff" x="214.652547" y="154.491885" transform="rotate(-0 214.652547 154.491885)">1,436</text>
   </g>
   <g id="text_32">
    <g id="patch_35">
     <path d="M 288.306803 161.373135 
L 361.903678 161.373135 
Q 377.903678 161.373135 377.903678 145.373135 
L 377.903678 152.65126 
Q 377.903678 136.65126 361.903678 136.65126 
L 288.306803 136.65126 
Q 272.306803 136.65126 272.306803 152.65126 
L 272.306803 145.373135 
Q 272.306803 161.373135 288.306803 161.373135 
z
" style="fill: #ffffff; stroke: #002f2a; stroke-width: 1.5; stroke-linejoin: miter"/>
    </g>
    <text style="font-weight: 700; font-size: 20px; font-family: 'Montserrat'; text-anchor: start; fill: #10302c" x="275.306803" y="154.491885" transform="rotate(-0 275.306803 154.491885)">    2,299    </text>
   </g>
   <g id="text_33">
    <text style="font-weight: 600; font-size: 22px; font-family: 'Montserrat'; text-anchor: start; fill: #4c6a67" x="397.164014" y="155.039854" transform="rotate(-0 397.164014 155.039854)">4.0%</text>
   </g>
   <g id="text_34">
    <text style="font-weight: 500; font-size: 20px; font-family: 'Montserrat'; text-anchor: middle; fill: #ffffff" x="146.987212" y="180.93191" transform="rotate(-0 146.987212 180.93191)">869</text>
   </g>
   <g id="text_35">
    <text style="font-weight: 500; font-size: 20px; font-family: 'Montserrat'; text-anchor: middle; fill: #ffffff" x="212.61639" y="180.93191" transform="rotate(-0 212.61639 180.93191)">1,355</text>
   </g>
   <g id="text_36">
    <g id="patch_36">
     <path d="M 283.880375 187.81316 
L 357.57725 187.81316 
Q 373.57725 187.81316 373.57725 171.81316 
L 373.57725 179.091285 
Q 373.57725 163.091285 357.57725 163.091285 
L 283.880375 163.091285 
Q 267.880375 163.091285 267.880375 179.091285 
L 267.880375 171.81316 
Q 267.880375 187.81316 283.880375 187.81316 
z
" style="fill: #ffffff; stroke: #002f2a; stroke-width: 1.5; stroke-linejoin: miter"/>
    </g>
    <text style="font-weight: 700; font-size: 20px; font-family: 'Montserrat'; text-anchor: start; fill: #10302c" x="270.880375" y="180.93191" transform="rotate(-0 270.880375 180.93191)">    2,224    </text>
   </g>
   <g id="text_37">
    <text style="font-weight: 600; font-size: 22px; font-family: 'Montserrat'; text-anchor: start; fill: #4c6a67" x="392.737586" y="181.479879" transform="rotate(-0 392.737586 181.479879)">3.8%</text>
   </g>
   <g id="text_38">
    <text style="font-weight: 500; font-size: 20px; font-family: 'Montserrat'; text-anchor: middle; fill: #ffffff" x="144.626451" y="207.371934" transform="rotate(-0 144.626451 207.371934)">789</text>
   </g>
   <g id="text_39">
    <text style="font-weight: 500; font-size: 20px; font-family: 'Montserrat'; text-anchor: middle; fill: #ffffff" x="205.416067" y="207.371934" transform="rotate(-0 205.416067 207.371934)">1,271</text>
   </g>
   <g id="text_40">
    <g id="patch_37">
     <path d="M 274.201251 214.253184 
L 350.420001 214.253184 
Q 366.420001 214.253184 366.420001 198.253184 
L 366.420001 205.531309 
Q 366.420001 189.531309 350.420001 189.531309 
L 274.201251 189.531309 
Q 258.201251 189.531309 258.201251 205.531309 
L 258.201251 198.253184 
Q 258.201251 214.253184 274.201251 214.253184 
z
" style="fill: #ffffff; stroke: #002f2a; stroke-width: 1.5; stroke-linejoin: miter"/>
    </g>
    <text style="font-weight: 700; font-size: 20px; font-family: 'Montserrat'; text-anchor: start; fill: #10302c" x="261.201251" y="207.371934" transform="rotate(-0 261.201251 207.371934)">    2,060    </text>
   </g>
   <g id="text_41">
    <text style="font-weight: 600; font-size: 22px; font-family: 'Montserrat'; text-anchor: start; fill: #4c6a67" x="383.058463" y="207.919903" transform="rotate(-0 383.058463 207.919903)">3.5%</text>
   </g>
   <g id="text_42">
    <text style="font-weight: 500; font-size: 20px; font-family: 'Montserrat'; text-anchor: middle; fill: #ffffff" x="149.967674" y="233.811959" transform="rotate(-0 149.967674 233.811959)">970</text>
   </g>
   <g id="text_43">
    <text style="font-weight: 500; font-size: 20px; font-family: 'Montserrat'; text-anchor: middle; fill: #ffffff" x="221.587285" y="233.811959" transform="rotate(-0 221.587285 233.811959)">1,457</text>
   </g>
   <g id="text_44">
    <g id="patch_38">
     <path d="M 295.861241 240.693209 
L 370.158116 240.693209 
Q 386.158116 240.693209 386.158116 224.693209 
L 386.158116 231.971334 
Q 386.158116 215.971334 370.158116 215.971334 
L 295.861241 215.971334 
Q 279.861241 215.971334 279.861241 231.971334 
L 279.861241 224.693209 
Q 279.861241 240.693209 295.861241 240.693209 
z
" style="fill: #ffffff; stroke: #002f2a; stroke-width: 1.5; stroke-linejoin: miter"/>
    </g>
    <text style="font-weight: 700; font-size: 20px; font-family: 'Montserrat'; text-anchor: start; fill: #10302c" x="282.861241" y="233.811959" transform="rotate(-0 282.861241 233.811959)">    2,427    </text>
   </g>
   <g id="text_45">
    <text style="font-weight: 600; font-size: 22px; font-family: 'Montserrat'; text-anchor: start; fill: #4c6a67" x="404.718452" y="234.359927" transform="rotate(-0 404.718452 234.359927)">4.2%</text>
   </g>
   <g id="text_46">
    <text style="font-weight: 500; font-size: 20px; font-family: 'Montserrat'; text-anchor: middle; fill: #ffffff" x="152.918626" y="260.251983" transform="rotate(-0 152.918626 260.251983)">1,070</text>
   </g>
   <g id="text_47">
    <text style="font-weight: 500; font-size: 20px; font-family: 'Montserrat'; text-anchor: middle; fill: #ffffff" x="241.122589" y="260.251983" transform="rotate(-0 241.122589 260.251983)">1,919</text>
   </g>
   <g id="text_48">
    <g id="patch_39">
     <path d="M 329.029944 267.133233 
L 404.026819 267.133233 
Q 420.026819 267.133233 420.026819 251.133233 
L 420.026819 258.411358 
Q 420.026819 242.411358 404.026819 242.411358 
L 329.029944 242.411358 
Q 313.029944 242.411358 313.029944 258.411358 
L 313.029944 251.133233 
Q 313.029944 267.133233 329.029944 267.133233 
z
" style="fill: #ffffff; stroke: #002f2a; stroke-width: 1.5; stroke-linejoin: miter"/>
    </g>
    <text style="font-weight: 700; font-size: 20px; font-family: 'Montserrat'; text-anchor: start; fill: #10302c" x="316.029944" y="260.251983" transform="rotate(-0 316.029944 260.251983)">    2,989    </text>
   </g>
   <g id="text_49">
    <text style="font-weight: 600; font-size: 22px; font-family: 'Montserrat'; text-anchor: start; fill: #4c6a67" x="437.887155" y="260.799952" transform="rotate(-0 437.887155 260.799952)">5.2%</text>
   </g>
   <g id="text_50">
    <text style="font-weight: 500; font-size: 20px; font-family: 'Montserrat'; text-anchor: middle; fill: #ffffff" x="139.875418" y="286.692008" transform="rotate(-0 139.875418 286.692008)">628</text>
   </g>
   <g id="text_51">
    <text style="font-weight: 500; font-size: 20px; font-family: 'Montserrat'; text-anchor: middle; fill: #ffffff" x="211.436009" y="286.692008" transform="rotate(-0 211.436009 286.692008)">1,797</text>
   </g>
   <g id="text_52">
    <g id="patch_40">
     <path d="M 295.743202 293.573258 
L 369.540077 293.573258 
Q 385.540077 293.573258 385.540077 277.573258 
L 385.540077 284.851383 
Q 385.540077 268.851383 369.540077 268.851383 
L 295.743202 268.851383 
Q 279.743202 268.851383 279.743202 284.851383 
L 279.743202 277.573258 
Q 279.743202 293.573258 295.743202 293.573258 
z
" style="fill: #ffffff; stroke: #002f2a; stroke-width: 1.5; stroke-linejoin: miter"/>
    </g>
    <text style="font-weight: 700; font-size: 20px; font-family: 'Montserrat'; text-anchor: start; fill: #10302c" x="282.743202" y="286.692008" transform="rotate(-0 282.743202 286.692008)">    2,425    </text>
   </g>
   <g id="text_53">
    <text style="font-weight: 600; font-size: 22px; font-family: 'Montserrat'; text-anchor: start; fill: #4c6a67" x="404.600414" y="287.239976" transform="rotate(-0 404.600414 287.239976)">4.2%</text>
   </g>
   <g id="text_54">
    <text style="font-weight: 500; font-size: 20px; font-family: 'Montserrat'; text-anchor: middle; fill: #ffffff" x="141.55746" y="313.132032" transform="rotate(-0 141.55746 313.132032)">685</text>
   </g>
   <g id="text_55">
    <text style="font-weight: 500; font-size: 20px; font-family: 'Montserrat'; text-anchor: middle; fill: #ffffff" x="228.876137" y="313.132032" transform="rotate(-0 228.876137 313.132032)">2,274</text>
   </g>
   <g id="text_56">
    <g id="patch_41">
     <path d="M 327.259372 320.013282 
L 400.956247 320.013282 
Q 416.956247 320.013282 416.956247 304.013282 
L 416.956247 311.291407 
Q 416.956247 295.291407 400.956247 295.291407 
L 327.259372 295.291407 
Q 311.259372 295.291407 311.259372 311.291407 
L 311.259372 304.013282 
Q 311.259372 320.013282 327.259372 320.013282 
z
" style="fill: #ffffff; stroke: #002f2a; stroke-width: 1.5; stroke-linejoin: miter"/>
    </g>
    <text style="font-weight: 700; font-size: 20px; font-family: 'Montserrat'; text-anchor: start; fill: #10302c" x="314.259372" y="313.132032" transform="rotate(-0 314.259372 313.132032)">    2,959    </text>
   </g>
   <g id="text_57">
    <text style="font-weight: 600; font-size: 22px; font-family: 'Montserrat'; text-anchor: start; fill: #4c6a67" x="436.116584" y="313.680001" transform="rotate(-0 436.116584 313.680001)">5.1%</text>
   </g>
   <g id="text_58">
    <text style="font-weight: 500; font-size: 20px; font-family: 'Montserrat'; text-anchor: middle; fill: #ffffff" x="156.40075" y="339.572056" transform="rotate(-0 156.40075 339.572056)">1,188</text>
   </g>
   <g id="text_59">
    <text style="font-weight: 500; font-size: 20px; font-family: 'Montserrat'; text-anchor: middle; fill: #ffffff" x="269.510749" y="339.572056" transform="rotate(-0 269.510749 339.572056)">2,645</text>
   </g>
   <g id="text_60">
    <g id="patch_42">
     <path d="M 378.842017 346.453306 
L 452.079517 346.453306 
Q 468.079517 346.453306 468.079517 330.453306 
L 468.079517 337.731431 
Q 468.079517 321.731431 452.079517 321.731431 
L 378.842017 321.731431 
Q 362.842017 321.731431 362.842017 337.731431 
L 362.842017 330.453306 
Q 362.842017 346.453306 378.842017 346.453306 
z
" style="fill: #ffffff; stroke: #002f2a; stroke-width: 1.5; stroke-linejoin: miter"/>
    </g>
    <text style="font-weight: 700; font-size: 20px; font-family: 'Montserrat'; text-anchor: start; fill: #10302c" x="365.842017" y="339.572056" transform="rotate(-0 365.842017 339.572056)">    3,833    </text>
   </g>
   <g id="text_61">
    <text style="font-weight: 600; font-size: 22px; font-family: 'Montserrat'; text-anchor: start; fill: #4c6a67" x="487.699229" y="340.120025" transform="rotate(-0 487.699229 340.120025)">6.6%</text>
   </g>
   <g id="text_62">
    <text style="font-weight: 500; font-size: 20px; font-family: 'Montserrat'; text-anchor: middle; fill: #ffffff" x="169.709545" y="366.012081" transform="rotate(-0 169.709545 366.012081)">1,639</text>
   </g>
   <g id="text_63">
    <text style="font-weight: 500; font-size: 20px; font-family: 'Montserrat'; text-anchor: middle; fill: #ffffff" x="310.056833" y="366.012081" transform="rotate(-0 310.056833 366.012081)">3,117</text>
   </g>
   <g id="text_64">
    <g id="patch_43">
     <path d="M 433.316596 372.893331 
L 508.654096 372.893331 
Q 524.654096 372.893331 524.654096 356.893331 
L 524.654096 364.171456 
Q 524.654096 348.171456 508.654096 348.171456 
L 433.316596 348.171456 
Q 417.316596 348.171456 417.316596 364.171456 
L 417.316596 356.893331 
Q 417.316596 372.893331 433.316596 372.893331 
z
" style="fill: #ffffff; stroke: #002f2a; stroke-width: 1.5; stroke-linejoin: miter"/>
    </g>
    <text style="font-weight: 700; font-size: 20px; font-family: 'Montserrat'; text-anchor: start; fill: #10302c" x="420.316596" y="366.012081" transform="rotate(-0 420.316596 366.012081)">    4,756    </text>
   </g>
   <g id="text_65">
    <text style="font-weight: 600; font-size: 22px; font-family: 'Montserrat'; text-anchor: start; fill: #4c6a67" x="542.173807" y="366.560049" transform="rotate(-0 542.173807 366.560049)">8.2%</text>
   </g>
   <g id="text_66">
    <text style="font-weight: 500; font-size: 20px; font-family: 'Montserrat'; text-anchor: middle; fill: #ffffff" x="165.843797" y="392.452105" transform="rotate(-0 165.843797 392.452105)">1,508</text>
   </g>
   <g id="text_67">
    <text style="font-weight: 500; font-size: 20px; font-family: 'Montserrat'; text-anchor: middle; fill: #ffffff" x="294.564333" y="392.452105" transform="rotate(-0 294.564333 392.452105)">2,854</text>
   </g>
   <g id="text_68">
    <g id="patch_44">
     <path d="M 410.063092 399.333355 
L 484.741217 399.333355 
Q 500.741217 399.333355 500.741217 383.333355 
L 500.741217 390.61148 
Q 500.741217 374.61148 484.741217 374.61148 
L 410.063092 374.61148 
Q 394.063092 374.61148 394.063092 390.61148 
L 394.063092 383.333355 
Q 394.063092 399.333355 410.063092 399.333355 
z
" style="fill: #ffffff; stroke: #002f2a; stroke-width: 1.5; stroke-linejoin: miter"/>
    </g>
    <text style="font-weight: 700; font-size: 20px; font-family: 'Montserrat'; text-anchor: start; fill: #10302c" x="397.063092" y="392.452105" transform="rotate(-0 397.063092 392.452105)">    4,362    </text>
   </g>
   <g id="text_69">
    <text style="font-weight: 600; font-size: 22px; font-family: 'Montserrat'; text-anchor: start; fill: #4c6a67" x="518.920304" y="393.000074" transform="rotate(-0 518.920304 393.000074)">7.5%</text>
   </g>
   <g id="text_70">
    <text style="font-weight: 500; font-size: 20px; font-family: 'Montserrat'; text-anchor: middle; fill: #ffffff" x="187.592315" y="418.89213" transform="rotate(-0 187.592315 418.89213)">2,245</text>
   </g>
   <g id="text_71">
    <text style="font-weight: 500; font-size: 20px; font-family: 'Montserrat'; text-anchor: middle; fill: #ffffff" x="367.511873" y="418.89213" transform="rotate(-0 367.511873 418.89213)">3,852</text>
   </g>
   <g id="text_72">
    <g id="patch_45">
     <path d="M 512.461134 425.77338 
L 588.439259 425.77338 
Q 604.439259 425.77338 604.439259 409.77338 
L 604.439259 417.051505 
Q 604.439259 401.051505 588.439259 401.051505 
L 512.461134 401.051505 
Q 496.461134 401.051505 496.461134 417.051505 
L 496.461134 409.77338 
Q 496.461134 425.77338 512.461134 425.77338 
z
" style="fill: #ffffff; stroke: #002f2a; stroke-width: 1.5; stroke-linejoin: miter"/>
    </g>
    <text style="font-weight: 700; font-size: 20px; font-family: 'Montserrat'; text-anchor: start; fill: #10302c" x="499.461134" y="418.89213" transform="rotate(-0 499.461134 418.89213)">    6,097    </text>
   </g>
   <g id="text_73">
    <text style="font-weight: 600; font-size: 22px; font-family: 'Montserrat'; text-anchor: start; fill: #4c6a67" x="621.318346" y="419.440098" transform="rotate(-0 621.318346 419.440098)">10.5%</text>
   </g>
   <g id="text_74">
    <text style="font-weight: 500; font-size: 20px; font-family: 'Montserrat'; text-anchor: middle; fill: #ffffff" x="213.737752" y="445.332154" transform="rotate(-0 213.737752 445.332154)">3,131</text>
   </g>
   <g id="text_75">
    <text style="font-weight: 500; font-size: 20px; font-family: 'Montserrat'; text-anchor: middle; fill: #ffffff" x="478.644734" y="445.332154" transform="rotate(-0 478.644734 445.332154)">5,846</text>
   </g>
   <g id="text_76">
    <g id="patch_46">
     <path d="M 682.435983 452.213404 
L 757.692233 452.213404 
Q 773.692233 452.213404 773.692233 436.213404 
L 773.692233 443.491529 
Q 773.692233 427.491529 757.692233 427.491529 
L 682.435983 427.491529 
Q 666.435983 427.491529 666.435983 443.491529 
L 666.435983 436.213404 
Q 666.435983 452.213404 682.435983 452.213404 
z
" style="fill: #ffffff; stroke: #002f2a; stroke-width: 1.5; stroke-linejoin: miter"/>
    </g>
    <text style="font-weight: 700; font-size: 20px; font-family: 'Montserrat'; text-anchor: start; fill: #10302c" x="669.435983" y="445.332154" transform="rotate(-0 669.435983 445.332154)">    8,977    </text>
   </g>
   <g id="text_77">
    <text style="font-weight: 600; font-size: 22px; font-family: 'Montserrat'; text-anchor: start; fill: #4c6a67" x="791.293195" y="445.880123" transform="rotate(-0 791.293195 445.880123)">15.5%</text>
   </g>
   <g id="text_78">
    <text style="font-weight: 500; font-size: 20px; font-family: 'Montserrat'; text-anchor: middle; fill: #ffffff" x="267.976254" y="471.772178" transform="rotate(-0 267.976254 471.772178)">3,995</text>
   </g>
   <g id="text_79">
    <g id="patch_47">
     <path d="M 417.145377 478.653428 
L 494.223502 478.653428 
Q 510.223502 478.653428 510.223502 462.653428 
L 510.223502 469.931553 
Q 510.223502 453.931553 494.223502 453.931553 
L 417.145377 453.931553 
Q 401.145377 453.931553 401.145377 469.931553 
L 401.145377 462.653428 
Q 401.145377 478.653428 417.145377 478.653428 
z
" style="fill: #ffffff; stroke: #002f2a; stroke-width: 1.5; stroke-linejoin: miter"/>
    </g>
    <text style="font-weight: 700; font-size: 20px; font-family: 'Montserrat'; text-anchor: start; fill: #10302c" x="404.145377" y="471.772178" transform="rotate(-0 404.145377 471.772178)">    4,482    </text>
   </g>
   <g id="text_80">
    <text style="font-weight: 600; font-size: 22px; font-family: 'Montserrat'; text-anchor: start; fill: #4c6a67" x="526.002589" y="472.320147" transform="rotate(-0 526.002589 472.320147)">7.7%</text>
   </g>
   <g id="legend_1">
    <g id="patch_48">
     <path d="M 199.00952 35.03625 
L 247.00952 35.03625 
L 247.00952 18.23625 
L 199.00952 18.23625 
z
" style="fill: #10302c"/>
    </g>
    <g id="text_81">
     <text style="font-size: 24px; font-family: 'DejaVu Sans', 'Bitstream Vera Sans', 'Computer Modern Sans Serif', 'Lucida Grande', 'Verdana', 'Geneva', 'Lucid', 'Arial', 'Helvetica', 'Avant Garde', sans-serif; text-anchor: start" x="266.20952" y="35.03625" transform="rotate(-0 266.20952 35.03625)">movimiento</text>
    </g>
    <g id="patch_49">
     <path d="M 457.26077 35.03625 
L 505.26077 35.03625 
L 505.26077 18.23625 
L 457.26077 18.23625 
z
" style="fill: #4c6a67"/>
    </g>
    <g id="text_82">
     <text style="font-size: 24px; font-family: 'DejaVu Sans', 'Bitstream Vera Sans', 'Computer Modern Sans Serif', 'Lucida Grande', 'Verdana', 'Geneva', 'Lucid', 'Arial', 'Helvetica', 'Avant Garde', sans-serif; text-anchor: start" x="524.46077" y="35.03625" transform="rotate(-0 524.46077 35.03625)">sin_movimiento</text>
    </g>
   </g>
  </g>
 </g>
 <defs>
  <clipPath id="p6d5f0d61aa">
   <rect x="121.343438" y="64.53632" width="670.214664" height="433.352"/>
  </clipPath>
 </defs>
</svg>
