<svg xmlns="http://www.w3.org/2000/svg" xmlns:xlink="http://www.w3.org/1999/xlink" width="1142.44" height="1072.9pt" viewBox="0 0 856.83 1072.9"><defs><style>*{stroke-linejoin:round;stroke-linecap:butt}</style></defs><path fill="#fff" d="M0 1072.9h856.83V0H0z"/><path fill="#fff" d="M135.63 1033.6h714V7.2h-714z"/><path fill="none" stroke="#b9b9b9" stroke-linecap="square" stroke-width=".75" d="M135.63 1033.6V7.2" clip-path="url(#a)"/><defs><path id="c" stroke="#000" stroke-width=".8" d="M0 0v3.5"/></defs><use xlink:href="#c" x="135.631" y="1033.64" stroke="#000" stroke-width=".8"/><text x="135.631" y="1059.14" font-family="'Poppins'" font-size="25" font-weight="500" text-anchor="middle">0</text><path fill="none" stroke="#b9b9b9" stroke-linecap="square" stroke-width=".75" d="M261.38 1033.6V7.2" clip-path="url(#a)"/><use xlink:href="#c" x="261.381" y="1033.64" stroke="#000" stroke-width=".8"/><text x="261.381" y="1059.14" font-family="'Poppins'" font-size="25" font-weight="500" text-anchor="middle">2,000</text><path fill="none" stroke="#b9b9b9" stroke-linecap="square" stroke-width=".75" d="M387.13 1033.6V7.2" clip-path="url(#a)"/><use xlink:href="#c" x="387.13" y="1033.64" stroke="#000" stroke-width=".8"/><text x="387.13" y="1059.14" font-family="'Poppins'" font-size="25" font-weight="500" text-anchor="middle">4,000</text><path fill="none" stroke="#b9b9b9" stroke-linecap="square" stroke-width=".75" d="M512.88 1033.6V7.2" clip-path="url(#a)"/><use xlink:href="#c" x="512.88" y="1033.64" stroke="#000" stroke-width=".8"/><text x="512.88" y="1059.14" font-family="'Poppins'" font-size="25" font-weight="500" text-anchor="middle">6,000</text><path fill="none" stroke="#b9b9b9" stroke-linecap="square" stroke-width=".75" d="M638.63 1033.6V7.2" clip-path="url(#a)"/><use xlink:href="#c" x="638.629" y="1033.64" stroke="#000" stroke-width=".8"/><text x="638.629" y="1059.14" font-family="'Poppins'" font-size="25" font-weight="500" text-anchor="middle">8,000</text><path fill="none" stroke="#b9b9b9" stroke-linecap="square" stroke-width=".75" d="M764.38 1033.6V7.2" clip-path="url(#a)"/><use xlink:href="#c" x="764.379" y="1033.64" stroke="#000" stroke-width=".8"/><text x="764.379" y="1059.14" font-family="'Poppins'" font-size="25" font-weight="500" text-anchor="middle">10,000</text><defs><path id="b" stroke="#000" stroke-width=".8" d="M0 0h-3.5"/></defs><use xlink:href="#b" x="135.631" y="1006.628" stroke="#000" stroke-width=".8"/><text x="62.131" y="1014.768" font-family="'Poppins'" font-size="22" font-weight="500" text-anchor="end">2007</text><use xlink:href="#b" x="135.631" y="952.605" stroke="#000" stroke-width=".8"/><text x="62.131" y="960.745" font-family="'Poppins'" font-size="22" font-weight="500" text-anchor="end">2008</text><use xlink:href="#b" x="135.631" y="898.582" stroke="#000" stroke-width=".8"/><text x="62.131" y="906.722" font-family="'Poppins'" font-size="22" font-weight="500" text-anchor="end">2009</text><use xlink:href="#b" x="135.631" y="844.559" stroke="#000" stroke-width=".8"/><text x="62.131" y="852.699" font-family="'Poppins'" font-size="22" font-weight="500" text-anchor="end">2010</text><use xlink:href="#b" x="135.631" y="790.536" stroke="#000" stroke-width=".8"/><text x="62.131" y="798.676" font-family="'Poppins'" font-size="22" font-weight="500" text-anchor="end">2015</text><use xlink:href="#b" x="135.631" y="736.513" stroke="#000" stroke-width=".8"/><text x="62.131" y="744.653" font-family="'Poppins'" font-size="22" font-weight="500" text-anchor="end">2012</text><use xlink:href="#b" x="135.631" y="682.489" stroke="#000" stroke-width=".8"/><text x="62.131" y="690.629" font-family="'Poppins'" font-size="22" font-weight="500" text-anchor="end">2014</text><use xlink:href="#b" x="135.631" y="628.466" stroke="#000" stroke-width=".8"/><text x="62.131" y="636.606" font-family="'Poppins'" font-size="22" font-weight="500" text-anchor="end">2013</text><use xlink:href="#b" x="135.631" y="574.443" stroke="#000" stroke-width=".8"/><text x="62.131" y="582.583" font-family="'Poppins'" font-size="22" font-weight="500" text-anchor="end">2011</text><use xlink:href="#b" x="135.631" y="520.42" stroke="#000" stroke-width=".8"/><text x="62.131" y="528.56" font-family="'Poppins'" font-size="22" font-weight="500" text-anchor="end">2018</text><use xlink:href="#b" x="135.631" y="466.397" stroke="#000" stroke-width=".8"/><text x="62.131" y="474.537" font-family="'Poppins'" font-size="22" font-weight="500" text-anchor="end">2016</text><use xlink:href="#b" x="135.631" y="412.374" stroke="#000" stroke-width=".8"/><text x="62.131" y="420.514" font-family="'Poppins'" font-size="22" font-weight="500" text-anchor="end">2019</text><use xlink:href="#b" x="135.631" y="358.351" stroke="#000" stroke-width=".8"/><text x="62.131" y="366.491" font-family="'Poppins'" font-size="22" font-weight="500" text-anchor="end">2017</text><use xlink:href="#b" x="135.631" y="304.327" stroke="#000" stroke-width=".8"/><text x="62.131" y="312.467" font-family="'Poppins'" font-size="22" font-weight="500" text-anchor="end">2020</text><use xlink:href="#b" x="135.631" y="250.304" stroke="#000" stroke-width=".8"/><text x="62.131" y="258.444" font-family="'Poppins'" font-size="22" font-weight="500" text-anchor="end">2022</text><use xlink:href="#b" x="135.631" y="196.281" stroke="#000" stroke-width=".8"/><text x="62.131" y="204.421" font-family="'Poppins'" font-size="22" font-weight="500" text-anchor="end">2025</text><use xlink:href="#b" x="135.631" y="142.258" stroke="#000" stroke-width=".8"/><text x="62.131" y="150.398" font-family="'Poppins'" font-size="22" font-weight="500" text-anchor="end">2021</text><use xlink:href="#b" x="135.631" y="88.235" stroke="#000" stroke-width=".8"/><text x="62.131" y="96.375" font-family="'Poppins'" font-size="22" font-weight="500" text-anchor="end">2023</text><use xlink:href="#b" x="135.631" y="34.212" stroke="#000" stroke-width=".8"/><text x="62.131" y="42.352" font-family="'Poppins'" font-size="22" font-weight="500" text-anchor="end">2024</text><path fill="#10302c" d="M135.63 1025.5h10.94v-37.816h-10.94z" clip-path="url(#a)"/><path fill="#4c6a67" d="M146.57 1025.5h11.632v-37.816H146.57z" clip-path="url(#a)"/><path fill="#10302c" d="M135.63 971.51h14.713v-37.816H135.63z" clip-path="url(#a)"/><path fill="#4c6a67" d="M150.34 971.51h15.53v-37.816h-15.53z" clip-path="url(#a)"/><path fill="#10302c" d="M135.63 917.49h25.904v-37.816H135.63z" clip-path="url(#a)"/><path fill="#4c6a67" d="M161.54 917.49h25.15v-37.816h-25.15z" clip-path="url(#a)"/><path fill="#10302c" d="M135.63 863.47h53.569v-37.816H135.63z" clip-path="url(#a)"/><path fill="#4c6a67" d="M189.2 863.47h72.243v-37.816H189.2z" clip-path="url(#a)"/><path fill="#10302c" d="M135.63 809.44h49.608v-37.816H135.63z" clip-path="url(#a)"/><path fill="#4c6a67" d="M185.24 809.44h79.914v-37.816H185.24z" clip-path="url(#a)"/><path fill="#10302c" d="M135.63 755.42h42.755v-37.816H135.63z" clip-path="url(#a)"/><path fill="#4c6a67" d="M178.39 755.42h89.156v-37.816H178.39z" clip-path="url(#a)"/><path fill="#10302c" d="M135.63 701.4h54.638v-37.816H135.63z" clip-path="url(#a)"/><path fill="#4c6a67" d="M190.27 701.4h85.195v-37.816H190.27z" clip-path="url(#a)"/><path fill="#10302c" d="M135.63 647.37h54.261v-37.816H135.63z" clip-path="url(#a)"/><path fill="#4c6a67" d="M189.89 647.37h90.288v-37.816H189.89z" clip-path="url(#a)"/><path fill="#10302c" d="M135.63 593.35h52.5v-37.816h-52.5z" clip-path="url(#a)"/><path fill="#4c6a67" d="M188.13 593.35h98.085v-37.816H188.13z" clip-path="url(#a)"/><path fill="#10302c" d="M135.63 539.33h39.485v-37.816H135.63z" clip-path="url(#a)"/><path fill="#4c6a67" d="M175.12 539.33h112.99v-37.816H175.12z" clip-path="url(#a)"/><path fill="#10302c" d="M135.63 485.3h60.989v-37.816H135.63z" clip-path="url(#a)"/><path fill="#4c6a67" d="M196.62 485.3h91.609v-37.816H196.62z" clip-path="url(#a)"/><path fill="#10302c" d="M135.63 431.28h43.069v-37.816H135.63z" clip-path="url(#a)"/><path fill="#4c6a67" d="M178.7 431.28h142.98v-37.816H178.7z" clip-path="url(#a)"/><path fill="#10302c" d="M135.63 377.26h67.276v-37.816H135.63z" clip-path="url(#a)"/><path fill="#4c6a67" d="M202.91 377.26h120.66v-37.816H202.91z" clip-path="url(#a)"/><path fill="#10302c" d="M135.63 323.24h74.695v-37.816H135.63z" clip-path="url(#a)"/><path fill="#4c6a67" d="M210.33 323.24h166.3v-37.816h-166.3z" clip-path="url(#a)"/><path fill="#10302c" d="M135.63 269.21h94.815v-37.816H135.63z" clip-path="url(#a)"/><path fill="#4c6a67" d="M230.45 269.21h179.44v-37.816H230.45z" clip-path="url(#a)"/><path fill="#10302c" d="M135.63 215.19h30.62v-37.816h-30.62z" clip-path="url(#a)"/><path fill="#4c6a67" d="M166.25 215.19h251.18v-37.816H166.25z" clip-path="url(#a)"/><path fill="#10302c" d="M135.63 161.17h103.05v-37.816H135.63z" clip-path="url(#a)"/><path fill="#4c6a67" d="M238.68 161.17h195.98v-37.816H238.68z" clip-path="url(#a)"/><path fill="#10302c" d="M135.63 107.14h141.15V69.324H135.63z" clip-path="url(#a)"/><path fill="#4c6a67" d="M276.79 107.14h242.19V69.324H276.79z" clip-path="url(#a)"/><path fill="#10302c" d="M135.63 53.12h196.86V15.304H135.63z" clip-path="url(#a)"/><path fill="#4c6a67" d="M332.49 53.12h367.57V15.304H332.49z" clip-path="url(#a)"/><text x="177.676" y="1012.317" fill="#10302c" font-family="'Poppins'" font-size="24" font-weight="700">359</text><text x="135.631" y="1011.864" fill="#4c6a67" font-family="'Poppins'" font-size="22" font-weight="600" text-anchor="end">0.6% </text><text x="185.347" y="958.294" fill="#10302c" font-family="'Poppins'" font-size="24" font-weight="700">481</text><text x="135.631" y="957.841" fill="#4c6a67" font-family="'Poppins'" font-size="22" font-weight="600" text-anchor="end">0.8% </text><text x="206.158" y="904.271" fill="#10302c" font-family="'Poppins'" font-size="24" font-weight="700">812</text><text x="135.631" y="903.817" fill="#4c6a67" font-family="'Poppins'" font-size="22" font-weight="600" text-anchor="end">1.4% </text><text x="162.416" y="848.861" fill="#fff" font-family="'Poppins'" font-size="18" font-weight="500" text-anchor="middle">852</text><text x="225.322" y="848.861" fill="#fff" font-family="'Poppins'" font-size="18" font-weight="500" text-anchor="middle">1,149</text><text x="280.916" y="850.248" fill="#10302c" font-family="'Poppins'" font-size="24" font-weight="700">2,001</text><text x="135.631" y="849.794" fill="#4c6a67" font-family="'Poppins'" font-size="22" font-weight="600" text-anchor="end">3.4% </text><text x="160.435" y="794.838" fill="#fff" font-family="'Poppins'" font-size="18" font-weight="500" text-anchor="middle">789</text><text x="225.196" y="794.838" fill="#fff" font-family="'Poppins'" font-size="18" font-weight="500" text-anchor="middle">1,271</text><text x="284.626" y="796.225" fill="#10302c" font-family="'Poppins'" font-size="24" font-weight="700">2,060</text><text x="135.631" y="795.771" fill="#4c6a67" font-family="'Poppins'" font-size="22" font-weight="600" text-anchor="end">3.5% </text><text x="157.009" y="740.814" fill="#fff" font-family="'Poppins'" font-size="18" font-weight="500" text-anchor="middle">680</text><text x="222.964" y="740.814" fill="#fff" font-family="'Poppins'" font-size="18" font-weight="500" text-anchor="middle">1,418</text><text x="287.015" y="742.201" fill="#10302c" font-family="'Poppins'" font-size="24" font-weight="700">2,098</text><text x="135.631" y="741.748" fill="#4c6a67" font-family="'Poppins'" font-size="22" font-weight="600" text-anchor="end">3.6% </text><text x="162.95" y="686.791" fill="#fff" font-family="'Poppins'" font-size="18" font-weight="500" text-anchor="middle">869</text><text x="232.867" y="686.791" fill="#fff" font-family="'Poppins'" font-size="18" font-weight="500" text-anchor="middle">1,355</text><text x="294.937" y="688.178" fill="#10302c" font-family="'Poppins'" font-size="24" font-weight="700">2,224</text><text x="135.631" y="687.725" fill="#4c6a67" font-family="'Poppins'" font-size="22" font-weight="600" text-anchor="end">3.8% </text><text x="162.762" y="632.768" fill="#fff" font-family="'Poppins'" font-size="18" font-weight="500" text-anchor="middle">863</text><text x="235.036" y="632.768" fill="#fff" font-family="'Poppins'" font-size="18" font-weight="500" text-anchor="middle">1,436</text><text x="299.653" y="634.155" fill="#10302c" font-family="'Poppins'" font-size="24" font-weight="700">2,299</text><text x="135.631" y="633.702" fill="#4c6a67" font-family="'Poppins'" font-size="22" font-weight="600" text-anchor="end">4.0% </text><text x="161.881" y="578.745" fill="#fff" font-family="'Poppins'" font-size="18" font-weight="500" text-anchor="middle">835</text><text x="237.174" y="578.745" fill="#fff" font-family="'Poppins'" font-size="18" font-weight="500" text-anchor="middle">1,560</text><text x="305.689" y="580.132" fill="#10302c" font-family="'Poppins'" font-size="24" font-weight="700">2,395</text><text x="135.631" y="579.678" fill="#4c6a67" font-family="'Poppins'" font-size="22" font-weight="600" text-anchor="end">4.1% </text><text x="155.374" y="524.722" fill="#fff" font-family="'Poppins'" font-size="18" font-weight="500" text-anchor="middle">628</text><text x="231.61" y="524.722" fill="#fff" font-family="'Poppins'" font-size="18" font-weight="500" text-anchor="middle">1,797</text><text x="307.575" y="526.109" fill="#10302c" font-family="'Poppins'" font-size="24" font-weight="700">2,425</text><text x="135.631" y="525.655" fill="#4c6a67" font-family="'Poppins'" font-size="22" font-weight="600" text-anchor="end">4.2% </text><text x="166.126" y="470.699" fill="#fff" font-family="'Poppins'" font-size="18" font-weight="500" text-anchor="middle">970</text><text x="242.424" y="470.699" fill="#fff" font-family="'Poppins'" font-size="18" font-weight="500" text-anchor="middle">1,457</text><text x="307.701" y="472.086" fill="#10302c" font-family="'Poppins'" font-size="24" font-weight="700">2,427</text><text x="135.631" y="471.632" fill="#4c6a67" font-family="'Poppins'" font-size="22" font-weight="600" text-anchor="end">4.2% </text><text x="157.166" y="416.675" fill="#fff" font-family="'Poppins'" font-size="18" font-weight="500" text-anchor="middle">685</text><text x="250.189" y="416.675" fill="#fff" font-family="'Poppins'" font-size="18" font-weight="500" text-anchor="middle">2,274</text><text x="341.15" y="418.062" fill="#10302c" font-family="'Poppins'" font-size="24" font-weight="700">2,959</text><text x="135.631" y="417.609" fill="#4c6a67" font-family="'Poppins'" font-size="22" font-weight="600" text-anchor="end">5.1% </text><text x="169.269" y="362.652" fill="#fff" font-family="'Poppins'" font-size="18" font-weight="500" text-anchor="middle">1,070</text><text x="263.236" y="362.652" fill="#fff" font-family="'Poppins'" font-size="18" font-weight="500" text-anchor="middle">1,919</text><text x="343.037" y="364.039" fill="#10302c" font-family="'Poppins'" font-size="24" font-weight="700">2,989</text><text x="135.631" y="363.586" fill="#4c6a67" font-family="'Poppins'" font-size="22" font-weight="600" text-anchor="end">5.2% </text><text x="172.979" y="308.629" fill="#fff" font-family="'Poppins'" font-size="18" font-weight="500" text-anchor="middle">1,188</text><text x="293.478" y="308.629" fill="#fff" font-family="'Poppins'" font-size="18" font-weight="500" text-anchor="middle">2,645</text><text x="396.103" y="310.016" fill="#10302c" font-family="'Poppins'" font-size="24" font-weight="700">3,833</text><text x="135.631" y="309.563" fill="#4c6a67" font-family="'Poppins'" font-size="22" font-weight="600" text-anchor="end">6.6% </text><text x="183.039" y="254.606" fill="#fff" font-family="'Poppins'" font-size="18" font-weight="500" text-anchor="middle">1,508</text><text x="320.169" y="254.606" fill="#fff" font-family="'Poppins'" font-size="18" font-weight="500" text-anchor="middle">2,854</text><text x="429.364" y="255.993" fill="#10302c" font-family="'Poppins'" font-size="24" font-weight="700">4,362</text><text x="135.631" y="255.54" fill="#4c6a67" font-family="'Poppins'" font-size="22" font-weight="600" text-anchor="end">7.5% </text><text x="291.844" y="200.583" fill="#fff" font-family="'Poppins'" font-size="18" font-weight="500" text-anchor="middle">3,995</text><text x="436.909" y="201.97" fill="#10302c" font-family="'Poppins'" font-size="24" font-weight="700">4,482</text><text x="135.631" y="201.516" fill="#4c6a67" font-family="'Poppins'" font-size="22" font-weight="600" text-anchor="end">7.7% </text><text x="187.157" y="146.56" fill="#fff" font-family="'Poppins'" font-size="18" font-weight="500" text-anchor="middle">1,639</text><text x="336.673" y="146.56" fill="#fff" font-family="'Poppins'" font-size="18" font-weight="500" text-anchor="middle">3,117</text><text x="454.136" y="147.947" fill="#10302c" font-family="'Poppins'" font-size="24" font-weight="700">4,756</text><text x="135.631" y="147.493" fill="#4c6a67" font-family="'Poppins'" font-size="22" font-weight="600" text-anchor="end">8.2% </text><text x="206.208" y="92.536" fill="#fff" font-family="'Poppins'" font-size="18" font-weight="500" text-anchor="middle">2,245</text><text x="397.882" y="92.536" fill="#fff" font-family="'Poppins'" font-size="18" font-weight="500" text-anchor="middle">3,852</text><text x="538.451" y="93.923" fill="#10302c" font-family="'Poppins'" font-size="24" font-weight="700">6,097</text><text x="135.631" y="93.47" fill="#4c6a67" font-family="'Poppins'" font-size="22" font-weight="600" text-anchor="end">10.5% </text><text x="234.062" y="38.513" fill="#fff" font-family="'Poppins'" font-size="18" font-weight="500" text-anchor="middle">3,131</text><text x="516.275" y="38.513" fill="#fff" font-family="'Poppins'" font-size="18" font-weight="500" text-anchor="middle">5,846</text><text x="719.531" y="39.9" fill="#10302c" font-family="'Poppins'" font-size="24" font-weight="700">8,977</text><text x="135.631" y="39.447" fill="#4c6a67" font-family="'Poppins'" font-size="22" font-weight="600" text-anchor="end">15.5% </text><defs><clipPath id="a"><path d="M135.63 7.2h714v1026.4h-714z"/></clipPath></defs></svg>