<svg xmlns="http://www.w3.org/2000/svg" xmlns:xlink="http://www.w3.org/1999/xlink" width="860.35pt" height="1072.9pt" viewBox="0 0 860.35 1072.9"><defs><style>*{stroke-linejoin:round;stroke-linecap:butt}</style></defs><path fill="#fff" d="M0 1072.9h860.35V0H0z"/><path fill="#fff" d="M297.04 1033.6H847.4V7.2H297.04z"/><path fill="none" stroke="#b9b9b9" stroke-linecap="square" stroke-width=".75" d="M297.04 1033.6V7.2" clip-path="url(#a)"/><defs><path id="c" stroke="#000" stroke-width=".8" d="M0 0v3.5"/></defs><use xlink:href="#c" x="297.036" y="1033.64" stroke="#000" stroke-width=".8"/><text x="297.036" y="1059.14" font-family="'Poppins'" font-size="25" font-weight="500" text-anchor="middle">0</text><path fill="none" stroke="#b9b9b9" stroke-linecap="square" stroke-width=".75" d="M383.91 1033.6V7.2" clip-path="url(#a)"/><use xlink:href="#c" x="383.91" y="1033.64" stroke="#000" stroke-width=".8"/><text x="383.91" y="1059.14" font-family="'Poppins'" font-size="25" font-weight="500" text-anchor="middle">1,000</text><path fill="none" stroke="#b9b9b9" stroke-linecap="square" stroke-width=".75" d="M470.78 1033.6V7.2" clip-path="url(#a)"/><use xlink:href="#c" x="470.784" y="1033.64" stroke="#000" stroke-width=".8"/><text x="470.784" y="1059.14" font-family="'Poppins'" font-size="25" font-weight="500" text-anchor="middle">2,000</text><path fill="none" stroke="#b9b9b9" stroke-linecap="square" stroke-width=".75" d="M557.66 1033.6V7.2" clip-path="url(#a)"/><use xlink:href="#c" x="557.657" y="1033.64" stroke="#000" stroke-width=".8"/><text x="557.657" y="1059.14" font-family="'Poppins'" font-size="25" font-weight="500" text-anchor="middle">3,000</text><path fill="none" stroke="#b9b9b9" stroke-linecap="square" stroke-width=".75" d="M644.53 1033.6V7.2" clip-path="url(#a)"/><use xlink:href="#c" x="644.531" y="1033.64" stroke="#000" stroke-width=".8"/><text x="644.531" y="1059.14" font-family="'Poppins'" font-size="25" font-weight="500" text-anchor="middle">4,000</text><path fill="none" stroke="#b9b9b9" stroke-linecap="square" stroke-width=".75" d="M731.4 1033.6V7.2" clip-path="url(#a)"/><use xlink:href="#c" x="731.405" y="1033.64" stroke="#000" stroke-width=".8"/><text x="731.405" y="1059.14" font-family="'Poppins'" font-size="25" font-weight="500" text-anchor="middle">5,000</text><path fill="none" stroke="#b9b9b9" stroke-linecap="square" stroke-width=".75" d="M818.28 1033.6V7.2" clip-path="url(#a)"/><use xlink:href="#c" x="818.278" y="1033.64" stroke="#000" stroke-width=".8"/><text x="818.278" y="1059.14" font-family="'Poppins'" font-size="25" font-weight="500" text-anchor="middle">6,000</text><defs><path id="b" stroke="#000" stroke-width=".8" d="M0 0h-3.5"/></defs><use xlink:href="#b" x="297.036" y="1017.602" stroke="#000" stroke-width=".8"/><text x="228.536" y="1026.072" font-family="'Poppins'" font-size="22" font-weight="500" text-anchor="end">Tamaulipas</text><use xlink:href="#b" x="297.036" y="985.526" stroke="#000" stroke-width=".8"/><text x="228.536" y="993.556" font-family="'Poppins'" font-size="22" font-weight="500" text-anchor="end">Durango</text><use xlink:href="#b" x="297.036" y="953.449" stroke="#000" stroke-width=".8"/><text x="228.536" y="961.919" font-family="'Poppins'" font-size="22" font-weight="500" text-anchor="end">Guanajuato</text><use xlink:href="#b" x="297.036" y="921.373" stroke="#000" stroke-width=".8"/><text x="228.536" y="929.843" font-family="'Poppins'" font-size="22" font-weight="500" text-anchor="end">Chiapas</text><use xlink:href="#b" x="297.036" y="889.297" stroke="#000" stroke-width=".8"/><text x="228.536" y="897.767" font-family="'Poppins'" font-size="22" font-weight="500" text-anchor="end">Aguascalientes</text><use xlink:href="#b" x="297.036" y="857.221" stroke="#000" stroke-width=".8"/><text x="228.536" y="865.713" font-family="'Poppins'" font-size="22" font-weight="500" text-anchor="end">Baja California</text><use xlink:href="#b" x="297.036" y="825.144" stroke="#000" stroke-width=".8"/><text x="228.536" y="833.284" font-family="'Poppins'" font-size="22" font-weight="500" text-anchor="end">Jalisco</text><use xlink:href="#b" x="297.036" y="793.068" stroke="#000" stroke-width=".8"/><text x="228.536" y="801.538" font-family="'Poppins'" font-size="22" font-weight="500" text-anchor="end">Hidalgo</text><use xlink:href="#b" x="297.036" y="760.992" stroke="#000" stroke-width=".8"/><text x="228.536" y="769.132" font-family="'Poppins'" font-size="22" font-weight="500" text-anchor="end">Chihuahua</text><use xlink:href="#b" x="297.036" y="728.916" stroke="#000" stroke-width=".8"/><text x="228.536" y="737.056" font-family="'Poppins'" font-size="22" font-weight="500" text-anchor="end">Campeche</text><use xlink:href="#b" x="297.036" y="696.839" stroke="#000" stroke-width=".8"/><text x="228.536" y="704.979" font-family="'Poppins'" font-size="22" font-weight="500" text-anchor="end">Quintana Roo</text><use xlink:href="#b" x="297.036" y="664.763" stroke="#000" stroke-width=".8"/><text x="228.536" y="672.903" font-family="'Poppins'" font-size="22" font-weight="500" text-anchor="end">Oaxaca</text><use xlink:href="#b" x="297.036" y="632.687" stroke="#000" stroke-width=".8"/><text x="228.536" y="640.827" font-family="'Poppins'" font-size="22" font-weight="500" text-anchor="end">Sinaloa</text><use xlink:href="#b" x="297.036" y="600.611" stroke="#000" stroke-width=".8"/><text x="228.536" y="608.751" font-family="'Poppins'" font-size="22" font-weight="500" text-anchor="end">Estado de México</text><use xlink:href="#b" x="297.036" y="568.534" stroke="#000" stroke-width=".8"/><text x="228.536" y="576.674" font-family="'Poppins'" font-size="22" font-weight="500" text-anchor="end">Nuevo León</text><use xlink:href="#b" x="297.036" y="536.458" stroke="#000" stroke-width=".8"/><text x="228.536" y="544.598" font-family="'Poppins'" font-size="22" font-weight="500" text-anchor="end">Zacatecas</text><use xlink:href="#b" x="297.036" y="504.382" stroke="#000" stroke-width=".8"/><text x="228.536" y="512.819" font-family="'Poppins'" font-size="22" font-weight="500" text-anchor="end">Nayarit</text><use xlink:href="#b" x="297.036" y="472.306" stroke="#000" stroke-width=".8"/><text x="228.536" y="480.446" font-family="'Poppins'" font-size="22" font-weight="500" text-anchor="end">San Luis Potosí</text><use xlink:href="#b" x="297.036" y="440.229" stroke="#000" stroke-width=".8"/><text x="228.536" y="448.369" font-family="'Poppins'" font-size="22" font-weight="500" text-anchor="end">Yucatán</text><use xlink:href="#b" x="297.036" y="408.153" stroke="#000" stroke-width=".8"/><text x="228.536" y="416.293" font-family="'Poppins'" font-size="22" font-weight="500" text-anchor="end">Michoacán</text><use xlink:href="#b" x="297.036" y="376.077" stroke="#000" stroke-width=".8"/><use xlink:href="#b" x="297.036" y="344.001" stroke="#000" stroke-width=".8"/><text x="228.536" y="352.141" font-family="'Poppins'" font-size="22" font-weight="500" text-anchor="end">Guerrero</text><use xlink:href="#b" x="297.036" y="311.924" stroke="#000" stroke-width=".8"/><text x="228.536" y="320.064" font-family="'Poppins'" font-size="22" font-weight="500" text-anchor="end">Coahuila</text><use xlink:href="#b" x="297.036" y="279.848" stroke="#000" stroke-width=".8"/><text x="228.536" y="288.34" font-family="'Poppins'" font-size="22" font-weight="500" text-anchor="end">Baja California Sur</text><use xlink:href="#b" x="297.036" y="247.772" stroke="#000" stroke-width=".8"/><text x="228.536" y="255.912" font-family="'Poppins'" font-size="22" font-weight="500" text-anchor="end">Tlaxcala</text><use xlink:href="#b" x="297.036" y="215.696" stroke="#000" stroke-width=".8"/><text x="228.536" y="223.836" font-family="'Poppins'" font-size="22" font-weight="500" text-anchor="end">Querétaro</text><use xlink:href="#b" x="297.036" y="183.619" stroke="#000" stroke-width=".8"/><text x="228.536" y="191.759" font-family="'Poppins'" font-size="22" font-weight="500" text-anchor="end">Veracruz</text><use xlink:href="#b" x="297.036" y="151.543" stroke="#000" stroke-width=".8"/><text x="228.536" y="159.683" font-family="'Poppins'" font-size="22" font-weight="500" text-anchor="end">Sonora</text><use xlink:href="#b" x="297.036" y="119.467" stroke="#000" stroke-width=".8"/><use xlink:href="#b" x="297.036" y="87.391" stroke="#000" stroke-width=".8"/><text x="228.536" y="95.531" font-family="'Poppins'" font-size="22" font-weight="500" text-anchor="end">Morelos</text><use xlink:href="#b" x="297.036" y="55.314" stroke="#000" stroke-width=".8"/><text x="228.536" y="63.454" font-family="'Poppins'" font-size="22" font-weight="500" text-anchor="end">Colima</text><use xlink:href="#b" x="297.036" y="23.238" stroke="#000" stroke-width=".8"/><path fill="#10302c" d="M297.04 1028.8h42.134v-22.453H297.04z" clip-path="url(#a)"/><path fill="#4c6a67" d="M339.17 1028.8h29.624v-22.453H339.17z" clip-path="url(#a)"/><path fill="#8fa8a6" d="M368.79 1028.8h17.114v-22.453H368.79z" clip-path="url(#a)"/><path fill="#a3c9a8" d="M385.91 1028.8h3.562v-22.453h-3.562z" clip-path="url(#a)"/><path fill="#10302c" d="M297.04 996.75h19.199v-22.453H297.04z" clip-path="url(#a)"/><path fill="#4c6a67" d="M316.24 996.75h93.389v-22.453H316.24z" clip-path="url(#a)"/><path fill="#8fa8a6" d="M409.62 996.75h23.369v-22.453H409.62z" clip-path="url(#a)"/><path fill="#a3c9a8" d="M432.99 996.75h1.824v-22.453h-1.824z" clip-path="url(#a)"/><path fill="#10302c" d="M297.04 964.68h116.24v-22.453H297.04z" clip-path="url(#a)"/><path fill="#4c6a67" d="M413.27 964.68h25.107v-22.453H413.27z" clip-path="url(#a)"/><path fill="#8fa8a6" d="M438.38 964.68h19.72v-22.453h-19.72z" clip-path="url(#a)"/><path fill="#a3c9a8" d="M458.1 964.68h3.388v-22.453H458.1z" clip-path="url(#a)"/><path fill="#10302c" d="M297.04 932.6h106.85v-22.453H297.04z" clip-path="url(#a)"/><path fill="#4c6a67" d="M403.89 932.6h49.866v-22.453H403.89z" clip-path="url(#a)"/><path fill="#8fa8a6" d="M453.76 932.6h7.819v-22.453h-7.819z" clip-path="url(#a)"/><path fill="#a3c9a8" d="M461.57 932.6h.434v-22.453h-.434z" clip-path="url(#a)"/><path fill="#10302c" d="M297.04 900.52h106.51v-22.453H297.04z" clip-path="url(#a)"/><path fill="#4c6a67" d="M403.54 900.52h48.562v-22.453H403.54z" clip-path="url(#a)"/><path fill="#8fa8a6" d="M452.11 900.52h8.774v-22.453h-8.774z" clip-path="url(#a)"/><path fill="#a3c9a8" d="M460.88 900.52h2.52v-22.453h-2.52z" clip-path="url(#a)"/><path fill="#10302c" d="M297.04 868.45h135.44v-22.453H297.04z" clip-path="url(#a)"/><path fill="#4c6a67" d="M432.47 868.45h10.512v-22.453H432.47z" clip-path="url(#a)"/><path fill="#8fa8a6" d="M442.98 868.45h23.717v-22.453H442.98z" clip-path="url(#a)"/><path fill="#a3c9a8" d="M466.7 868.45h.956v-22.453h-.956z" clip-path="url(#a)"/><path fill="#10302c" d="M297.04 836.37h16.245v-22.453H297.04z" clip-path="url(#a)"/><path fill="#4c6a67" d="M313.28 836.37h173.66v-22.453H313.28z" clip-path="url(#a)"/><path fill="#8fa8a6" d="M486.94 836.37h18.33v-22.453h-18.33z" clip-path="url(#a)"/><path fill="#a3c9a8" d="M505.27 836.37h.782v-22.453h-.782z" clip-path="url(#a)"/><path fill="#10302c" d="M297.04 804.29h137.43v-22.453H297.04z" clip-path="url(#a)"/><path fill="#4c6a67" d="M434.47 804.29h57.51v-22.453h-57.51z" clip-path="url(#a)"/><path fill="#8fa8a6" d="M491.98 804.29h14.855v-22.453H491.98z" clip-path="url(#a)"/><path fill="#a3c9a8" d="M506.84 804.29h3.214v-22.453h-3.214z" clip-path="url(#a)"/><path fill="#10302c" d="M297.04 772.22h103.81v-22.453H297.04z" clip-path="url(#a)"/><path fill="#4c6a67" d="M400.85 772.22h102.68v-22.453H400.85z" clip-path="url(#a)"/><path fill="#8fa8a6" d="M503.53 772.22h5.126v-22.453h-5.126z" clip-path="url(#a)"/><path fill="#a3c9a8" d="M508.66 772.22h4.17v-22.453h-4.17z" clip-path="url(#a)"/><path fill="#10302c" d="M297.04 740.14h121.1v-22.453h-121.1z" clip-path="url(#a)"/><path fill="#4c6a67" d="M418.14 740.14h73.582v-22.453H418.14z" clip-path="url(#a)"/><path fill="#8fa8a6" d="M491.72 740.14h18.678v-22.453H491.72z" clip-path="url(#a)"/><path fill="#a3c9a8" d="M510.4 740.14h2.433v-22.453H510.4z" clip-path="url(#a)"/><path fill="#10302c" d="M297.04 708.07h75.493v-22.453H297.04z" clip-path="url(#a)"/><path fill="#4c6a67" d="M372.53 708.07h121.36v-22.453H372.53z" clip-path="url(#a)"/><path fill="#8fa8a6" d="M493.89 708.07h21.371v-22.453H493.89z" clip-path="url(#a)"/><path fill="#a3c9a8" d="M515.26 708.07h1.39v-22.453h-1.39z" clip-path="url(#a)"/><path fill="#10302c" d="M297.04 675.99h19.981v-22.453H297.04z" clip-path="url(#a)"/><path fill="#4c6a67" d="M317.02 675.99h188.34v-22.453H317.02z" clip-path="url(#a)"/><path fill="#8fa8a6" d="M505.36 675.99h17.288v-22.453H505.36z" clip-path="url(#a)"/><path fill="#a3c9a8" d="M522.65 675.99h.956v-22.453h-.956z" clip-path="url(#a)"/><path fill="#10302c" d="M297.04 643.91h140.3v-22.453h-140.3z" clip-path="url(#a)"/><path fill="#4c6a67" d="M437.34 643.91h60.812v-22.453H437.34z" clip-path="url(#a)"/><path fill="#8fa8a6" d="M498.15 643.91h25.107v-22.453H498.15z" clip-path="url(#a)"/><path fill="#a3c9a8" d="M523.26 643.91h3.214v-22.453h-3.214z" clip-path="url(#a)"/><path fill="#10302c" d="M297.04 611.84h49.171v-22.453H297.04z" clip-path="url(#a)"/><path fill="#4c6a67" d="M346.21 611.84h165.58v-22.453H346.21z" clip-path="url(#a)"/><path fill="#8fa8a6" d="M511.79 611.84h17.375v-22.453H511.79z" clip-path="url(#a)"/><path fill="#a3c9a8" d="M529.16 611.84h1.043v-22.453h-1.043z" clip-path="url(#a)"/><path fill="#10302c" d="M297.04 579.76h155.24v-22.453H297.04z" clip-path="url(#a)"/><path fill="#4c6a67" d="M452.28 579.76h64.808v-22.453H452.28z" clip-path="url(#a)"/><path fill="#8fa8a6" d="M517.09 579.76h22.674v-22.453H517.09z" clip-path="url(#a)"/><path fill="#a3c9a8" d="M539.76 579.76h2.78v-22.453h-2.78z" clip-path="url(#a)"/><path fill="#10302c" d="M297.04 547.68h111.55v-22.453H297.04z" clip-path="url(#a)"/><path fill="#4c6a67" d="M408.58 547.68h127.1v-22.453h-127.1z" clip-path="url(#a)"/><path fill="#8fa8a6" d="M535.68 547.68h6.429v-22.453h-6.429z" clip-path="url(#a)"/><path fill="#a3c9a8" d="M542.11 547.68h2.259v-22.453h-2.259z" clip-path="url(#a)"/><path fill="#10302c" d="M297.04 515.61h84.354v-22.453H297.04z" clip-path="url(#a)"/><path fill="#4c6a67" d="M381.39 515.61h141.43v-22.453H381.39z" clip-path="url(#a)"/><path fill="#8fa8a6" d="M522.82 515.61h19.46v-22.453h-19.46z" clip-path="url(#a)"/><path fill="#a3c9a8" d="M542.28 515.61h3.91v-22.453h-3.91z" clip-path="url(#a)"/><path fill="#10302c" d="M297.04 483.53h38.485v-22.453H297.04z" clip-path="url(#a)"/><path fill="#4c6a67" d="M335.52 483.53h220.22v-22.453H335.52z" clip-path="url(#a)"/><path fill="#8fa8a6" d="M555.75 483.53h5.386v-22.453h-5.386z" clip-path="url(#a)"/><path fill="#a3c9a8" d="M561.13 483.53h3.301v-22.453h-3.301z" clip-path="url(#a)"/><path fill="#10302c" d="M297.04 451.46h32.665v-22.453H297.04z" clip-path="url(#a)"/><path fill="#4c6a67" d="M329.7 451.46h235.6v-22.453H329.7z" clip-path="url(#a)"/><path fill="#8fa8a6" d="M565.3 451.46h2.085v-22.453H565.3z" clip-path="url(#a)"/><path fill="#a3c9a8" d="M567.39 451.46h3.822v-22.453h-3.822z" clip-path="url(#a)"/><path fill="#10302c" d="M297.04 419.38H427v-22.453H297.04z" clip-path="url(#a)"/><path fill="#4c6a67" d="M427 419.38h118.76v-22.453H427z" clip-path="url(#a)"/><path fill="#8fa8a6" d="M545.76 419.38h24.238v-22.453H545.76z" clip-path="url(#a)"/><path fill="#a3c9a8" d="M569.99 419.38h3.996v-22.453h-3.996z" clip-path="url(#a)"/><path fill="#10302c" d="M297.04 387.3h78.621v-22.453H297.04z" clip-path="url(#a)"/><path fill="#4c6a67" d="M375.66 387.3h187.73v-22.453H375.66z" clip-path="url(#a)"/><path fill="#8fa8a6" d="M563.39 387.3h22.674v-22.453H563.39z" clip-path="url(#a)"/><path fill="#a3c9a8" d="M586.07 387.3h2.433v-22.453h-2.433z" clip-path="url(#a)"/><path fill="#10302c" d="M297.04 355.23h37.356v-22.453H297.04z" clip-path="url(#a)"/><path fill="#4c6a67" d="M334.39 355.23h246.2v-22.453h-246.2z" clip-path="url(#a)"/><path fill="#8fa8a6" d="M580.59 355.23h4.604v-22.453h-4.604z" clip-path="url(#a)"/><path fill="#a3c9a8" d="M585.2 355.23h3.388v-22.453H585.2z" clip-path="url(#a)"/><path fill="#10302c" d="M297.04 323.15h99.384v-22.453H297.04z" clip-path="url(#a)"/><path fill="#4c6a67" d="M396.42 323.15h186.52v-22.453H396.42z" clip-path="url(#a)"/><path fill="#8fa8a6" d="M582.94 323.15h5.473v-22.453h-5.473z" clip-path="url(#a)"/><path fill="#a3c9a8" d="M588.41 323.15h2.433v-22.453h-2.433z" clip-path="url(#a)"/><path fill="#10302c" d="M297.04 291.07h83.399v-22.453H297.04z" clip-path="url(#a)"/><path fill="#4c6a67" d="M380.43 291.07h208.5v-22.453h-208.5z" clip-path="url(#a)"/><path fill="#8fa8a6" d="M588.93 291.07h3.822v-22.453h-3.822z" clip-path="url(#a)"/><path fill="#a3c9a8" d="M592.75 291.07h1.13v-22.453h-1.13z" clip-path="url(#a)"/><path fill="#10302c" d="M297.04 259h114.24v-22.453H297.04z" clip-path="url(#a)"/><path fill="#4c6a67" d="M411.28 259h186v-22.453h-186z" clip-path="url(#a)"/><path fill="#8fa8a6" d="M597.27 259h4.344v-22.453h-4.344z" clip-path="url(#a)"/><path fill="#a3c9a8" d="M601.62 259h3.388v-22.453h-3.388z" clip-path="url(#a)"/><path fill="#10302c" d="M297.04 226.92h124.4v-22.453h-124.4z" clip-path="url(#a)"/><path fill="#4c6a67" d="M421.44 226.92h201.03v-22.453H421.44z" clip-path="url(#a)"/><path fill="#8fa8a6" d="M622.47 226.92h18.852v-22.453H622.47z" clip-path="url(#a)"/><path fill="#a3c9a8" d="M641.32 226.92h1.043v-22.453h-1.043z" clip-path="url(#a)"/><path fill="#10302c" d="M297.04 194.85h91.652v-22.453H297.04z" clip-path="url(#a)"/><path fill="#4c6a67" d="M388.69 194.85h254.02v-22.453H388.69z" clip-path="url(#a)"/><path fill="#8fa8a6" d="M642.71 194.85h14.421v-22.453H642.71z" clip-path="url(#a)"/><path fill="#a3c9a8" d="M657.13 194.85h4.17v-22.453h-4.17z" clip-path="url(#a)"/><path fill="#10302c" d="M297.04 162.77h133.52v-22.453H297.04z" clip-path="url(#a)"/><path fill="#4c6a67" d="M430.56 162.77h213.97v-22.453H430.56z" clip-path="url(#a)"/><path fill="#8fa8a6" d="M644.53 162.77h19.633v-22.453H644.53z" clip-path="url(#a)"/><path fill="#a3c9a8" d="M664.16 162.77h2.346v-22.453h-2.346z" clip-path="url(#a)"/><path fill="#10302c" d="M297.04 130.69H455.5v-22.453H297.04z" clip-path="url(#a)"/><path fill="#4c6a67" d="M455.49 130.69H686.4v-22.453H455.49z" clip-path="url(#a)"/><path fill="#8fa8a6" d="M686.4 130.69h.956v-22.453h-.956z" clip-path="url(#a)"/><path fill="#a3c9a8" d="M687.36 130.69h1.043v-22.453h-1.043z" clip-path="url(#a)"/><path fill="#10302c" d="M297.04 98.617h106.25V76.164H297.04z" clip-path="url(#a)"/><path fill="#4c6a67" d="M403.28 98.617h258.8V76.164h-258.8z" clip-path="url(#a)"/><path fill="#8fa8a6" d="M662.08 98.617h24.325V76.164H662.08z" clip-path="url(#a)"/><path fill="#a3c9a8" d="M686.4 98.617h3.736V76.164H686.4z" clip-path="url(#a)"/><path fill="#10302c" d="M297.04 66.541h150.99V44.088H297.04z" clip-path="url(#a)"/><path fill="#4c6a67" d="M448.02 66.541h247.33V44.088H448.02z" clip-path="url(#a)"/><path fill="#8fa8a6" d="M695.35 66.541h9.99V44.088h-9.99z" clip-path="url(#a)"/><path fill="#a3c9a8" d="M705.34 66.541h1.303V44.088h-1.303z" clip-path="url(#a)"/><path fill="#10302c" d="M297.04 34.465h155.07V12.012H297.04z" clip-path="url(#a)"/><path fill="#4c6a67" d="M452.11 34.465h259.58V12.012H452.11z" clip-path="url(#a)"/><path fill="#8fa8a6" d="M711.68 34.465h19.286V12.012H711.68z" clip-path="url(#a)"/><path fill="#a3c9a8" d="M730.97 34.465h1.13V12.012h-1.13z" clip-path="url(#a)"/><text x="404.479" y="1023.291" fill="#10302c" font-family="'Poppins'" font-size="24" font-weight="700">1,064</text><text x="297.036" y="1022.837" fill="#4c6a67" font-family="'Poppins'" font-size="22" font-weight="600" text-anchor="end">1.1% </text><text x="362.93" y="989.827" fill="#fff" font-family="'Poppins'" font-size="18" font-weight="500" text-anchor="middle">1,075</text><text x="449.828" y="991.214" fill="#10302c" font-family="'Poppins'" font-size="24" font-weight="700">1,586</text><text x="297.036" y="990.761" fill="#4c6a67" font-family="'Poppins'" font-size="22" font-weight="600" text-anchor="end">1.6% </text><text x="355.155" y="957.751" fill="#fff" font-family="'Poppins'" font-size="18" font-weight="500" text-anchor="middle">1,338</text><text x="476.498" y="959.138" fill="#10302c" font-family="'Poppins'" font-size="24" font-weight="700">1,893</text><text x="297.036" y="958.685" fill="#4c6a67" font-family="'Poppins'" font-size="22" font-weight="600" text-anchor="end">2.0% </text><text x="350.463" y="925.675" fill="#fff" font-family="'Poppins'" font-size="18" font-weight="500" text-anchor="middle">1,230</text><text x="428.824" y="925.675" fill="#fff" font-family="'Poppins'" font-size="18" font-weight="500" text-anchor="middle">574</text><text x="477.019" y="927.062" fill="#10302c" font-family="'Poppins'" font-size="24" font-weight="700">1,899</text><text x="297.036" y="926.608" fill="#4c6a67" font-family="'Poppins'" font-size="22" font-weight="600" text-anchor="end">2.0% </text><text x="350.29" y="893.599" fill="#fff" font-family="'Poppins'" font-size="18" font-weight="500" text-anchor="middle">1,226</text><text x="427.825" y="893.599" fill="#fff" font-family="'Poppins'" font-size="18" font-weight="500" text-anchor="middle">559</text><text x="478.409" y="894.986" fill="#10302c" font-family="'Poppins'" font-size="24" font-weight="700">1,915</text><text x="297.036" y="894.532" fill="#4c6a67" font-family="'Poppins'" font-size="22" font-weight="600" text-anchor="end">2.0% </text><text x="364.754" y="861.522" fill="#fff" font-family="'Poppins'" font-size="18" font-weight="500" text-anchor="middle">1,559</text><text x="482.666" y="862.909" fill="#10302c" font-family="'Poppins'" font-size="24" font-weight="700">1,964</text><text x="297.036" y="862.456" fill="#4c6a67" font-family="'Poppins'" font-size="22" font-weight="600" text-anchor="end">2.0% </text><text x="400.112" y="829.446" fill="#fff" font-family="'Poppins'" font-size="18" font-weight="500" text-anchor="middle">1,999</text><text x="521.064" y="830.833" fill="#10302c" font-family="'Poppins'" font-size="24" font-weight="700">2,406</text><text x="297.036" y="830.38" fill="#4c6a67" font-family="'Poppins'" font-size="22" font-weight="600" text-anchor="end">2.5% </text><text x="365.753" y="797.37" fill="#fff" font-family="'Poppins'" font-size="18" font-weight="500" text-anchor="middle">1,582</text><text x="463.226" y="797.37" fill="#fff" font-family="'Poppins'" font-size="18" font-weight="500" text-anchor="middle">662</text><text x="525.06" y="798.757" fill="#10302c" font-family="'Poppins'" font-size="24" font-weight="700">2,452</text><text x="297.036" y="798.303" fill="#4c6a67" font-family="'Poppins'" font-size="22" font-weight="600" text-anchor="end">2.5% </text><text x="348.943" y="765.294" fill="#fff" font-family="'Poppins'" font-size="18" font-weight="500" text-anchor="middle">1,195</text><text x="452.193" y="765.294" fill="#fff" font-family="'Poppins'" font-size="18" font-weight="500" text-anchor="middle">1,182</text><text x="527.84" y="766.681" fill="#10302c" font-family="'Poppins'" font-size="24" font-weight="700">2,484</text><text x="297.036" y="766.227" fill="#4c6a67" font-family="'Poppins'" font-size="22" font-weight="600" text-anchor="end">2.6% </text><text x="357.587" y="733.217" fill="#fff" font-family="'Poppins'" font-size="18" font-weight="500" text-anchor="middle">1,394</text><text x="454.929" y="733.217" fill="#fff" font-family="'Poppins'" font-size="18" font-weight="500" text-anchor="middle">847</text><text x="527.84" y="734.604" fill="#10302c" font-family="'Poppins'" font-size="24" font-weight="700">2,484</text><text x="297.036" y="734.151" fill="#4c6a67" font-family="'Poppins'" font-size="22" font-weight="600" text-anchor="end">2.6% </text><text x="334.783" y="701.141" fill="#fff" font-family="'Poppins'" font-size="18" font-weight="500" text-anchor="middle">869</text><text x="433.211" y="701.141" fill="#fff" font-family="'Poppins'" font-size="18" font-weight="500" text-anchor="middle">1,397</text><text x="531.663" y="702.528" fill="#10302c" font-family="'Poppins'" font-size="24" font-weight="700">2,528</text><text x="297.036" y="702.075" fill="#4c6a67" font-family="'Poppins'" font-size="22" font-weight="600" text-anchor="end">2.6% </text><text x="411.188" y="669.065" fill="#fff" font-family="'Poppins'" font-size="18" font-weight="500" text-anchor="middle">2,168</text><text x="538.613" y="670.452" fill="#10302c" font-family="'Poppins'" font-size="24" font-weight="700">2,608</text><text x="297.036" y="669.998" fill="#4c6a67" font-family="'Poppins'" font-size="22" font-weight="600" text-anchor="end">2.7% </text><text x="367.187" y="636.989" fill="#fff" font-family="'Poppins'" font-size="18" font-weight="500" text-anchor="middle">1,615</text><text x="467.743" y="636.989" fill="#fff" font-family="'Poppins'" font-size="18" font-weight="500" text-anchor="middle">700</text><text x="541.479" y="638.376" fill="#10302c" font-family="'Poppins'" font-size="24" font-weight="700">2,641</text><text x="297.036" y="637.922" fill="#4c6a67" font-family="'Poppins'" font-size="22" font-weight="600" text-anchor="end">2.7% </text><text x="321.621" y="604.912" fill="#fff" font-family="'Poppins'" font-size="18" font-weight="500" text-anchor="middle">566</text><text x="428.997" y="604.912" fill="#fff" font-family="'Poppins'" font-size="18" font-weight="500" text-anchor="middle">1,906</text><text x="545.215" y="606.299" fill="#10302c" font-family="'Poppins'" font-size="24" font-weight="700">2,684</text><text x="297.036" y="605.846" fill="#4c6a67" font-family="'Poppins'" font-size="22" font-weight="600" text-anchor="end">2.8% </text><text x="374.658" y="572.836" fill="#fff" font-family="'Poppins'" font-size="18" font-weight="500" text-anchor="middle">1,787</text><text x="484.683" y="572.836" fill="#fff" font-family="'Poppins'" font-size="18" font-weight="500" text-anchor="middle">746</text><text x="557.551" y="574.223" fill="#10302c" font-family="'Poppins'" font-size="24" font-weight="700">2,826</text><text x="297.036" y="573.77" fill="#4c6a67" font-family="'Poppins'" font-size="22" font-weight="600" text-anchor="end">2.9% </text><text x="352.809" y="540.76" fill="#fff" font-family="'Poppins'" font-size="18" font-weight="500" text-anchor="middle">1,284</text><text x="472.13" y="540.76" fill="#fff" font-family="'Poppins'" font-size="18" font-weight="500" text-anchor="middle">1,463</text><text x="559.375" y="542.147" fill="#10302c" font-family="'Poppins'" font-size="24" font-weight="700">2,847</text><text x="297.036" y="541.693" fill="#4c6a67" font-family="'Poppins'" font-size="22" font-weight="600" text-anchor="end">2.9% </text><text x="339.213" y="508.684" fill="#fff" font-family="'Poppins'" font-size="18" font-weight="500" text-anchor="middle">971</text><text x="452.106" y="508.684" fill="#fff" font-family="'Poppins'" font-size="18" font-weight="500" text-anchor="middle">1,628</text><text x="561.2" y="510.071" fill="#10302c" font-family="'Poppins'" font-size="24" font-weight="700">2,868</text><text x="297.036" y="509.617" fill="#4c6a67" font-family="'Poppins'" font-size="22" font-weight="600" text-anchor="end">3.0% </text><text x="445.634" y="476.607" fill="#fff" font-family="'Poppins'" font-size="18" font-weight="500" text-anchor="middle">2,535</text><text x="579.443" y="477.994" fill="#10302c" font-family="'Poppins'" font-size="24" font-weight="700">3,078</text><text x="297.036" y="477.541" fill="#4c6a67" font-family="'Poppins'" font-size="22" font-weight="600" text-anchor="end">3.2% </text><text x="447.501" y="444.531" fill="#fff" font-family="'Poppins'" font-size="18" font-weight="500" text-anchor="middle">2,712</text><text x="586.219" y="445.918" fill="#10302c" font-family="'Poppins'" font-size="24" font-weight="700">3,156</text><text x="297.036" y="445.465" fill="#4c6a67" font-family="'Poppins'" font-size="22" font-weight="600" text-anchor="end">3.3% </text><text x="362.018" y="412.455" fill="#fff" font-family="'Poppins'" font-size="18" font-weight="500" text-anchor="middle">1,496</text><text x="486.377" y="412.455" fill="#fff" font-family="'Poppins'" font-size="18" font-weight="500" text-anchor="middle">1,367</text><text x="588.999" y="413.842" fill="#10302c" font-family="'Poppins'" font-size="24" font-weight="700">3,188</text><text x="297.036" y="413.388" fill="#4c6a67" font-family="'Poppins'" font-size="22" font-weight="600" text-anchor="end">3.3% </text><text x="336.347" y="380.379" fill="#fff" font-family="'Poppins'" font-size="18" font-weight="500" text-anchor="middle">905</text><text x="469.524" y="380.379" fill="#fff" font-family="'Poppins'" font-size="18" font-weight="500" text-anchor="middle">2,161</text><text x="603.507" y="381.766" fill="#10302c" font-family="'Poppins'" font-size="24" font-weight="700">3,355</text><path fill="#a3173e" d="M125.24 390.42h147.49q17.6 0 17.6-17.6v6.51q0-17.6-17.6-17.6H125.24q-17.6 0-17.6 17.6v-6.51q0 17.6 17.6 17.6"/><text x="287.03" y="381.312" fill="#fff" font-family="'Poppins'" font-size="22" font-weight="600" text-anchor="end">Tabasco 3.5% </text><text x="457.492" y="348.302" fill="#fff" font-family="'Poppins'" font-size="18" font-weight="500" text-anchor="middle">2,834</text><text x="603.594" y="349.689" fill="#10302c" font-family="'Poppins'" font-size="24" font-weight="700">3,356</text><text x="297.036" y="349.236" fill="#4c6a67" font-family="'Poppins'" font-size="22" font-weight="600" text-anchor="end">3.5% </text><text x="346.728" y="316.226" fill="#fff" font-family="'Poppins'" font-size="18" font-weight="500" text-anchor="middle">1,144</text><text x="489.679" y="316.226" fill="#fff" font-family="'Poppins'" font-size="18" font-weight="500" text-anchor="middle">2,147</text><text x="605.853" y="317.613" fill="#10302c" font-family="'Poppins'" font-size="24" font-weight="700">3,382</text><text x="297.036" y="317.16" fill="#4c6a67" font-family="'Poppins'" font-size="22" font-weight="600" text-anchor="end">3.5% </text><text x="338.736" y="284.15" fill="#fff" font-family="'Poppins'" font-size="18" font-weight="500" text-anchor="middle">960</text><text x="484.683" y="284.15" fill="#fff" font-family="'Poppins'" font-size="18" font-weight="500" text-anchor="middle">2,400</text><text x="608.893" y="285.537" fill="#10302c" font-family="'Poppins'" font-size="24" font-weight="700">3,417</text><text x="297.036" y="285.083" fill="#4c6a67" font-family="'Poppins'" font-size="22" font-weight="600" text-anchor="end">3.5% </text><text x="354.156" y="252.074" fill="#fff" font-family="'Poppins'" font-size="18" font-weight="500" text-anchor="middle">1,315</text><text x="504.273" y="252.074" fill="#fff" font-family="'Poppins'" font-size="18" font-weight="500" text-anchor="middle">2,141</text><text x="620.013" y="253.461" fill="#10302c" font-family="'Poppins'" font-size="24" font-weight="700">3,545</text><text x="297.036" y="253.007" fill="#4c6a67" font-family="'Poppins'" font-size="22" font-weight="600" text-anchor="end">3.7% </text><text x="359.238" y="219.997" fill="#fff" font-family="'Poppins'" font-size="18" font-weight="500" text-anchor="middle">1,432</text><text x="521.952" y="219.997" fill="#fff" font-family="'Poppins'" font-size="18" font-weight="500" text-anchor="middle">2,314</text><text x="657.369" y="221.384" fill="#10302c" font-family="'Poppins'" font-size="24" font-weight="700">3,975</text><text x="297.036" y="220.931" fill="#4c6a67" font-family="'Poppins'" font-size="22" font-weight="600" text-anchor="end">4.1% </text><text x="342.862" y="187.921" fill="#fff" font-family="'Poppins'" font-size="18" font-weight="500" text-anchor="middle">1,055</text><text x="515.697" y="187.921" fill="#fff" font-family="'Poppins'" font-size="18" font-weight="500" text-anchor="middle">2,924</text><text x="676.307" y="189.308" fill="#10302c" font-family="'Poppins'" font-size="24" font-weight="700">4,193</text><text x="297.036" y="188.855" fill="#4c6a67" font-family="'Poppins'" font-size="22" font-weight="600" text-anchor="end">4.3% </text><text x="363.799" y="155.845" fill="#fff" font-family="'Poppins'" font-size="18" font-weight="500" text-anchor="middle">1,537</text><text x="537.546" y="155.845" fill="#fff" font-family="'Poppins'" font-size="18" font-weight="500" text-anchor="middle">2,463</text><text x="681.52" y="157.232" fill="#10302c" font-family="'Poppins'" font-size="24" font-weight="700">4,253</text><text x="297.036" y="156.778" fill="#4c6a67" font-family="'Poppins'" font-size="22" font-weight="600" text-anchor="end">4.4% </text><text x="376.265" y="123.769" fill="#fff" font-family="'Poppins'" font-size="18" font-weight="500" text-anchor="middle">1,824</text><text x="570.949" y="123.769" fill="#fff" font-family="'Poppins'" font-size="18" font-weight="500" text-anchor="middle">2,658</text><text x="703.412" y="125.156" fill="#10302c" font-family="'Poppins'" font-size="24" font-weight="700">4,505</text><path fill="#a3173e" d="M21.5 133.81h251.23q17.6 0 17.6-17.6v6.51q0-17.6-17.6-17.6H21.5q-17.6 0-17.6 17.6v-6.51q0 17.6 17.6 17.6"/><text x="287.03" y="124.702" fill="#fff" font-family="'Poppins'" font-size="22" font-weight="600" text-anchor="end">Ciudad de México 4.7% </text><text x="350.159" y="91.692" fill="#fff" font-family="'Poppins'" font-size="18" font-weight="500" text-anchor="middle">1,223</text><text x="532.681" y="91.692" fill="#fff" font-family="'Poppins'" font-size="18" font-weight="500" text-anchor="middle">2,979</text><text x="705.149" y="93.079" fill="#10302c" font-family="'Poppins'" font-size="24" font-weight="700">4,525</text><text x="297.036" y="92.626" fill="#4c6a67" font-family="'Poppins'" font-size="22" font-weight="600" text-anchor="end">4.7% </text><text x="372.529" y="59.616" fill="#fff" font-family="'Poppins'" font-size="18" font-weight="500" text-anchor="middle">1,738</text><text x="571.687" y="59.616" fill="#fff" font-family="'Poppins'" font-size="18" font-weight="500" text-anchor="middle">2,847</text><text x="721.655" y="61.003" fill="#10302c" font-family="'Poppins'" font-size="24" font-weight="700">4,715</text><text x="297.036" y="60.55" fill="#4c6a67" font-family="'Poppins'" font-size="22" font-weight="600" text-anchor="end">4.9% </text><text x="374.571" y="27.54" fill="#fff" font-family="'Poppins'" font-size="18" font-weight="500" text-anchor="middle">1,785</text><text x="581.895" y="27.54" fill="#fff" font-family="'Poppins'" font-size="18" font-weight="500" text-anchor="middle">2,988</text><text x="747.109" y="28.927" fill="#10302c" font-family="'Poppins'" font-size="24" font-weight="700">5,008</text><path fill="#a3173e" d="M145.07 37.583h127.66q17.6 0 17.6-17.6v6.51q0-17.6-17.6-17.6H145.07q-17.6 0-17.6 17.6v-6.51q0 17.6 17.6 17.6"/><text x="287.03" y="28.473" fill="#fff" font-family="'Poppins'" font-size="22" font-weight="600" text-anchor="end">Puebla 5.2% </text><defs><clipPath id="a"><path d="M297.04 7.2H847.4v1026.4H297.04z"/></clipPath></defs></svg>