<?xml version="1.0" encoding="UTF-8"?>
<!DOCTYPE svg  PUBLIC '-//W3C//DTD SVG 1.1//EN'  'http://www.w3.org/Graphics/SVG/1.1/DTD/svg11.dtd'>
<svg width="1577.8pt" height="554.68pt" version="1.1" viewBox="0 0 1577.8 554.68" xmlns="http://www.w3.org/2000/svg" xmlns:xlink="http://www.w3.org/1999/xlink">
 <defs>
  <style type="text/css">*{stroke-linejoin: round; stroke-linecap: butt}</style>
 </defs>
 <path d="m0 554.68h1577.8v-554.68h-1577.8z" fill="#fff"/>
 <path d="m90.523 283.14h1480.1v-266.61h-1480.1z" fill="#fff"/>
 <defs>
  <path id="b" d="m0 0v3.5" stroke="#000" stroke-width=".8"/>
 </defs>
 <use x="134.055165" y="283.137072" stroke="#000000" stroke-width=".8" xlink:href="#b"/>
 <text transform="translate(129.2 410.72) rotate(-90)" font-family="'Montserrat'" font-size="25px" font-weight="500">Año 2007</text>
 <use x="221.119871" y="283.137072" stroke="#000000" stroke-width=".8" xlink:href="#b"/>
 <text transform="translate(216.27 411.87) rotate(-90)" font-family="'Montserrat'" font-size="25px" font-weight="500">Año 2008</text>
 <use x="308.184577" y="283.137072" stroke="#000000" stroke-width=".8" xlink:href="#b"/>
 <text transform="translate(303.33 411.19) rotate(-90)" font-family="'Montserrat'" font-size="25px" font-weight="500">Año 2009</text>
 <use x="395.249283" y="283.137072" stroke="#000000" stroke-width=".8" xlink:href="#b"/>
 <text transform="translate(390.4 405.02) rotate(-90)" font-family="'Montserrat'" font-size="25px" font-weight="500">Año 2010</text>
 <use x="482.313989" y="283.137072" stroke="#000000" stroke-width=".8" xlink:href="#b"/>
 <text transform="translate(477.46 397.59) rotate(-90)" font-family="'Montserrat'" font-size="25px" font-weight="500">Año 2011</text>
 <use x="569.378695" y="283.137072" stroke="#000000" stroke-width=".8" xlink:href="#b"/>
 <text transform="translate(564.53 402.69) rotate(-90)" font-family="'Montserrat'" font-size="25px" font-weight="500">Año 2012</text>
 <use x="656.443401" y="283.137072" stroke="#000000" stroke-width=".8" xlink:href="#b"/>
 <text transform="translate(651.59 402.64) rotate(-90)" font-family="'Montserrat'" font-size="25px" font-weight="500">Año 2013</text>
 <use x="743.508107" y="283.137072" stroke="#000000" stroke-width=".8" xlink:href="#b"/>
 <text transform="translate(738.66 405.07) rotate(-90)" font-family="'Montserrat'" font-size="25px" font-weight="500">Año 2014</text>
 <use x="830.572813" y="283.137072" stroke="#000000" stroke-width=".8" xlink:href="#b"/>
 <text transform="translate(825.72 402.69) rotate(-90)" font-family="'Montserrat'" font-size="25px" font-weight="500">Año 2015</text>
 <use x="917.637518" y="283.137072" stroke="#000000" stroke-width=".8" xlink:href="#b"/>
 <text transform="translate(912.79 403.77) rotate(-90)" font-family="'Montserrat'" font-size="25px" font-weight="500">Año 2016</text>
 <use x="1004.702224" y="283.137072" stroke="#000000" stroke-width=".8" xlink:href="#b"/>
 <text transform="translate(999.85 403.29) rotate(-90)" font-family="'Montserrat'" font-size="25px" font-weight="500">Año 2017</text>
 <use x="1091.76693" y="283.137072" stroke="#000000" stroke-width=".8" xlink:href="#b"/>
 <text transform="translate(1086.9 404.44) rotate(-90)" font-family="'Montserrat'" font-size="25px" font-weight="500">Año 2018</text>
 <use x="1178.831636" y="283.137072" stroke="#000000" stroke-width=".8" xlink:href="#b"/>
 <text transform="translate(1174 403.77) rotate(-90)" font-family="'Montserrat'" font-size="25px" font-weight="500">Año 2019</text>
 <use x="1265.896342" y="283.137072" stroke="#000000" stroke-width=".8" xlink:href="#b"/>
 <text transform="translate(1261 410.12) rotate(-90)" font-family="'Montserrat'" font-size="25px" font-weight="500">Año 2020</text>
 <use x="1352.961048" y="283.137072" stroke="#000000" stroke-width=".8" xlink:href="#b"/>
 <text transform="translate(1348.1 402.69) rotate(-90)" font-family="'Montserrat'" font-size="25px" font-weight="500">Año 2021</text>
 <use x="1440.025754" y="283.137072" stroke="#000000" stroke-width=".8" xlink:href="#b"/>
 <text transform="translate(1435.2 407.79) rotate(-90)" font-family="'Montserrat'" font-size="25px" font-weight="500">Año 2022</text>
 <use x="1527.09046" y="283.137072" stroke="#000000" stroke-width=".8" xlink:href="#b"/>
 <text transform="translate(1522.2 547.48) rotate(-90)" font-family="'Montserrat'" font-size="25px" font-weight="500">Años de 2023 a 2025</text>
 <path d="m90.523 283.14h1480.1" clip-path="url(#a)" fill="none" stroke="#b9b9b9" stroke-linecap="square" stroke-width=".75"/>
 <defs>
  <path id="c" d="m0 0h-3.5" stroke="#000" stroke-width=".8"/>
 </defs>
 <use x="90.522813" y="283.137072" stroke="#000000" stroke-width=".8" xlink:href="#c"/>
 <text transform="rotate(-0 83.523 291.3)" x="83.522813" y="291.299416" font-family="'Montserrat'" font-size="22px" font-weight="500" text-anchor="end">0</text>
 <path d="m90.523 229.25h1480.1" clip-path="url(#a)" fill="none" stroke="#b9b9b9" stroke-linecap="square" stroke-width=".75"/>
 <use x="90.522813" y="229.251403" stroke="#000000" stroke-width=".8" xlink:href="#c"/>
 <text transform="rotate(-0 83.523 237.41)" x="83.522813" y="237.413747" font-family="'Montserrat'" font-size="22px" font-weight="500" text-anchor="end">5,000</text>
 <path d="m90.523 175.37h1480.1" clip-path="url(#a)" fill="none" stroke="#b9b9b9" stroke-linecap="square" stroke-width=".75"/>
 <use x="90.522813" y="175.365734" stroke="#000000" stroke-width=".8" xlink:href="#c"/>
 <text transform="rotate(-0 83.523 183.53)" x="83.522813" y="183.528078" font-family="'Montserrat'" font-size="22px" font-weight="500" text-anchor="end">10,000</text>
 <path d="m90.523 121.48h1480.1" clip-path="url(#a)" fill="none" stroke="#b9b9b9" stroke-linecap="square" stroke-width=".75"/>
 <use x="90.522813" y="121.480065" stroke="#000000" stroke-width=".8" xlink:href="#c"/>
 <text transform="rotate(-0 83.523 129.64)" x="83.522813" y="129.642409" font-family="'Montserrat'" font-size="22px" font-weight="500" text-anchor="end">15,000</text>
 <path d="m90.523 67.594h1480.1" clip-path="url(#a)" fill="none" stroke="#b9b9b9" stroke-linecap="square" stroke-width=".75"/>
 <use x="90.522813" y="67.594396" stroke="#000000" stroke-width=".8" xlink:href="#c"/>
 <text transform="rotate(-0 83.523 75.757)" x="83.522813" y="75.75674" font-family="'Montserrat'" font-size="22px" font-weight="500" text-anchor="end">20,000</text>
 <path d="m99.229 283.14h69.652v-1.8752h-69.652z" clip-path="url(#a)" fill="#10302c"/>
 <path d="m99.229 281.26h69.652v-1.9938h-69.652z" clip-path="url(#a)" fill="#4c6a67"/>
 <path d="m186.29 283.14h69.652v-2.5218h-69.652z" clip-path="url(#a)" fill="#10302c"/>
 <path d="m186.29 280.62h69.652v-2.662h-69.652z" clip-path="url(#a)" fill="#4c6a67"/>
 <path d="m273.36 283.14h69.652v-4.4402h-69.652z" clip-path="url(#a)" fill="#10302c"/>
 <path d="m273.36 278.7h69.652v-4.3109h-69.652z" clip-path="url(#a)" fill="#4c6a67"/>
 <path d="m360.42 283.14h69.652v-9.1821h-69.652z" clip-path="url(#a)" fill="#10302c"/>
 <path d="m360.42 273.95h69.652v-12.383h-69.652z" clip-path="url(#a)" fill="#4c6a67"/>
 <path d="m447.49 283.14h69.652v-8.9989h-69.652z" clip-path="url(#a)" fill="#10302c"/>
 <path d="m447.49 274.14h69.652v-16.812h-69.652z" clip-path="url(#a)" fill="#4c6a67"/>
 <path d="m534.55 283.14h69.652v-7.3285h-69.652z" clip-path="url(#a)" fill="#10302c"/>
 <path d="m534.55 275.81h69.652v-15.282h-69.652z" clip-path="url(#a)" fill="#4c6a67"/>
 <path d="m621.62 283.14h69.652v-9.3007h-69.652z" clip-path="url(#a)" fill="#10302c"/>
 <path d="m621.62 273.84h69.652v-15.476h-69.652z" clip-path="url(#a)" fill="#4c6a67"/>
 <path d="m708.68 283.14h69.652v-9.3653h-69.652z" clip-path="url(#a)" fill="#10302c"/>
 <path d="m708.68 273.77h69.652v-14.603h-69.652z" clip-path="url(#a)" fill="#4c6a67"/>
 <path d="m795.75 283.14h69.652v-8.5032h-69.652z" clip-path="url(#a)" fill="#10302c"/>
 <path d="m795.75 274.63h69.652v-13.698h-69.652z" clip-path="url(#a)" fill="#4c6a67"/>
 <path d="m882.81 283.14h69.652v-10.454h-69.652z" clip-path="url(#a)" fill="#10302c"/>
 <path d="m882.81 272.68h69.652v-15.702h-69.652z" clip-path="url(#a)" fill="#4c6a67"/>
 <path d="m969.88 283.14h69.652v-11.532h-69.652z" clip-path="url(#a)" fill="#10302c"/>
 <path d="m969.88 271.61h69.652v-20.681h-69.652z" clip-path="url(#a)" fill="#4c6a67"/>
 <path d="m1056.9 283.14h69.652v-6.768h-69.652z" clip-path="url(#a)" fill="#10302c"/>
 <path d="m1056.9 276.37h69.652v-19.367h-69.652z" clip-path="url(#a)" fill="#4c6a67"/>
 <path d="m1144 283.14h69.652v-7.3823h-69.652z" clip-path="url(#a)" fill="#10302c"/>
 <path d="m1144 275.75h69.652v-24.507h-69.652z" clip-path="url(#a)" fill="#4c6a67"/>
 <path d="m1231.1 283.14h69.652v-12.803h-69.652z" clip-path="url(#a)" fill="#10302c"/>
 <path d="m1231.1 270.33h69.652v-28.506h-69.652z" clip-path="url(#a)" fill="#4c6a67"/>
 <path d="m1318.1 283.14h69.652v-17.664h-69.652z" clip-path="url(#a)" fill="#10302c"/>
 <path d="m1318.1 265.47h69.652v-33.592h-69.652z" clip-path="url(#a)" fill="#4c6a67"/>
 <path d="m1405.2 283.14h69.652v-16.252h-69.652z" clip-path="url(#a)" fill="#10302c"/>
 <path d="m1405.2 266.89h69.652v-30.758h-69.652z" clip-path="url(#a)" fill="#4c6a67"/>
 <path d="m1492.3 283.14h69.652v-63.186h-69.652z" clip-path="url(#a)" fill="#10302c"/>
 <path d="m1492.3 219.95h69.652v-147.57h-69.652z" clip-path="url(#a)" fill="#4c6a67"/>
 <path d="m117.5 275h33.119q16 0 16-16v7.2781q0-16-16-16h-33.119q-16 0-16 16v-7.2781q0 16 16 16z" fill="#fff" stroke="#002f2a" stroke-width="1.5"/>
 <text transform="rotate(-0 134.06 268.12)" x="134.055165" y="268.115693" fill="#10302c" font-family="'Montserrat'" font-size="20px" font-weight="700" text-anchor="middle">359  </text>
 <text transform="rotate(-0 134.06 238.64)" x="134.055165" y="238.643015" fill="#4c6a67" font-family="'Montserrat'" font-size="22px" font-weight="600" text-anchor="middle">0.6%</text>
 <path d="m205.39 273.68h31.459q16 0 16-16v7.2781q0-16-16-16h-31.459q-16 0-16 16v-7.2781q0 16 16 16z" fill="#fff" stroke="#002f2a" stroke-width="1.5"/>
 <text transform="rotate(-0 221.12 266.8)" x="221.119871" y="266.800882" fill="#10302c" font-family="'Montserrat'" font-size="20px" font-weight="700" text-anchor="middle">481  </text>
 <text transform="rotate(-0 221.12 237.33)" x="221.119871" y="237.328205" fill="#4c6a67" font-family="'Montserrat'" font-size="22px" font-weight="600" text-anchor="middle">0.8%</text>
 <path d="m293.45 270.11h29.478q16 0 16-16v7.2781q0-16-16-16h-29.478q-16 0-16 16v-7.2781q0 16 16 16z" fill="#fff" stroke="#002f2a" stroke-width="1.5"/>
 <text transform="rotate(-0 308.18 263.23)" x="308.184577" y="263.233651" fill="#10302c" font-family="'Montserrat'" font-size="20px" font-weight="700" text-anchor="middle">812  </text>
 <text transform="rotate(-0 308.18 233.76)" x="308.184577" y="233.760973" fill="#4c6a67" font-family="'Montserrat'" font-size="22px" font-weight="600" text-anchor="middle">1.4%</text>
 <text transform="rotate(-0 395.25 272.7)" x="395.249283" y="272.695209" fill="#ffffff" font-family="'Montserrat'" font-size="18px" font-weight="500" text-anchor="middle">1,149</text>
 <path d="m370.91 257.3h48.681q16 0 16-16v7.2781q0-16-16-16h-48.681q-16 0-16 16v-7.2781q0 16 16 16z" fill="#fff" stroke="#002f2a" stroke-width="1.5"/>
 <text transform="rotate(-0 395.25 250.42)" x="395.249283" y="250.419639" fill="#10302c" font-family="'Montserrat'" font-size="20px" font-weight="700" text-anchor="middle">2,001  </text>
 <text transform="rotate(-0 395.25 220.95)" x="395.249283" y="220.946961" fill="#4c6a67" font-family="'Montserrat'" font-size="22px" font-weight="600" text-anchor="middle">3.4%</text>
 <text transform="rotate(-0 482.31 270.66)" x="482.313989" y="270.66372" fill="#ffffff" font-family="'Montserrat'" font-size="18px" font-weight="500" text-anchor="middle">1,560</text>
 <path d="m457.23 253.05h50.159q16 0 16-16v7.2781q0-16-16-16h-50.159q-16 0-16 16v-7.2781q0 16 16 16z" fill="#fff" stroke="#002f2a" stroke-width="1.5"/>
 <text transform="rotate(-0 482.31 246.17)" x="482.313989" y="246.173448" fill="#10302c" font-family="'Montserrat'" font-size="20px" font-weight="700" text-anchor="middle">2,395  </text>
 <text transform="rotate(-0 482.31 216.7)" x="482.313989" y="216.700771" fill="#4c6a67" font-family="'Montserrat'" font-size="22px" font-weight="600" text-anchor="middle">4.1%</text>
 <text transform="rotate(-0 569.38 273.1)" x="569.378695" y="273.099352" fill="#ffffff" font-family="'Montserrat'" font-size="18px" font-weight="500" text-anchor="middle">1,418</text>
 <path d="m542.78 256.26h53.2q16 0 16-16v7.2781q0-16-16-16h-53.2q-16 0-16 16v-7.2781q0 16 16 16z" fill="#fff" stroke="#002f2a" stroke-width="1.5"/>
 <text transform="rotate(-0 569.38 249.37)" x="569.378695" y="249.374257" fill="#10302c" font-family="'Montserrat'" font-size="20px" font-weight="700" text-anchor="middle">2,098  </text>
 <text transform="rotate(-0 569.38 219.9)" x="569.378695" y="219.901579" fill="#4c6a67" font-family="'Montserrat'" font-size="22px" font-weight="600" text-anchor="middle">3.6%</text>
 <text transform="rotate(-0 656.44 271.03)" x="656.443401" y="271.030142" fill="#ffffff" font-family="'Montserrat'" font-size="18px" font-weight="500" text-anchor="middle">1,436</text>
 <path d="m630.96 254.09h50.959q16 0 16-16v7.2781q0-16-16-16h-50.959q-16 0-16 16v-7.2781q0 16 16 16z" fill="#fff" stroke="#002f2a" stroke-width="1.5"/>
 <text transform="rotate(-0 656.44 247.21)" x="656.443401" y="247.208053" fill="#10302c" font-family="'Montserrat'" font-size="20px" font-weight="700" text-anchor="middle">2,299  </text>
 <text transform="rotate(-0 656.44 217.74)" x="656.443401" y="217.735376" fill="#4c6a67" font-family="'Montserrat'" font-size="22px" font-weight="600" text-anchor="middle">4.0%</text>
 <text transform="rotate(-0 743.51 271.4)" x="743.508107" y="271.401953" fill="#ffffff" font-family="'Montserrat'" font-size="18px" font-weight="500" text-anchor="middle">1,355</text>
 <path d="m717.98 254.9h51.059q16 0 16-16v7.2781q0-16-16-16h-51.059q-16 0-16 16v-7.2781q0 16 16 16z" fill="#fff" stroke="#002f2a" stroke-width="1.5"/>
 <text transform="rotate(-0 743.51 248.02)" x="743.508107" y="248.016338" fill="#10302c" font-family="'Montserrat'" font-size="20px" font-weight="700" text-anchor="middle">2,224  </text>
 <text transform="rotate(-0 743.51 218.54)" x="743.508107" y="218.543661" fill="#4c6a67" font-family="'Montserrat'" font-size="22px" font-weight="600" text-anchor="middle">3.8%</text>
 <text transform="rotate(-0 830.57 272.72)" x="830.572813" y="272.716764" fill="#ffffff" font-family="'Montserrat'" font-size="18px" font-weight="500" text-anchor="middle">1,271</text>
 <path d="m803.78 256.67h53.581q16 0 16-16v7.2781q0-16-16-16h-53.581q-16 0-16 16v-7.2781q0 16 16 16z" fill="#fff" stroke="#002f2a" stroke-width="1.5"/>
 <text transform="rotate(-0 830.57 249.78)" x="830.572813" y="249.783788" fill="#10302c" font-family="'Montserrat'" font-size="20px" font-weight="700" text-anchor="middle">2,060  </text>
 <text transform="rotate(-0 830.57 220.31)" x="830.572813" y="220.31111" fill="#4c6a67" font-family="'Montserrat'" font-size="22px" font-weight="600" text-anchor="middle">3.5%</text>
 <text transform="rotate(-0 917.64 269.76)" x="917.637518" y="269.763829" fill="#ffffff" font-family="'Montserrat'" font-size="18px" font-weight="500" text-anchor="middle">1,457</text>
 <path d="m891.81 252.71h51.659q16 0 16-16v7.2781q0-16-16-16h-51.659q-16 0-16 16v-7.2781q0 16 16 16z" fill="#fff" stroke="#002f2a" stroke-width="1.5"/>
 <text transform="rotate(-0 917.64 245.83)" x="917.637518" y="245.82858" fill="#10302c" font-family="'Montserrat'" font-size="20px" font-weight="700" text-anchor="middle">2,427  </text>
 <text transform="rotate(-0 917.64 216.36)" x="917.637518" y="216.355902" fill="#4c6a67" font-family="'Montserrat'" font-size="22px" font-weight="600" text-anchor="middle">4.2%</text>
 <text transform="rotate(-0 1004.7 266.2)" x="1004.702224" y="266.196598" fill="#ffffff" font-family="'Montserrat'" font-size="18px" font-weight="500" text-anchor="middle">1,919</text>
 <path d="m978.52 246.65h52.359q16 0 16-16v7.2781q0-16-16-16h-52.359q-16 0-16 16v-7.2781q0 16 16 16z" fill="#fff" stroke="#002f2a" stroke-width="1.5"/>
 <text transform="rotate(-0 1004.7 239.77)" x="1004.702224" y="239.771831" fill="#10302c" font-family="'Montserrat'" font-size="20px" font-weight="700" text-anchor="middle">2,989  </text>
 <text transform="rotate(-0 1004.7 210.3)" x="1004.702224" y="210.299153" fill="#4c6a67" font-family="'Montserrat'" font-size="22px" font-weight="600" text-anchor="middle">5.2%</text>
 <text transform="rotate(-0 1091.8 271.62)" x="1091.76693" y="271.617496" fill="#ffffff" font-family="'Montserrat'" font-size="18px" font-weight="500" text-anchor="middle">1,797</text>
 <path d="m1066.2 252.73h51.159q16 0 16-16v7.2781q0-16-16-16h-51.159q-16 0-16 16v-7.2781q0 16 16 16z" fill="#fff" stroke="#002f2a" stroke-width="1.5"/>
 <text transform="rotate(-0 1091.8 245.85)" x="1091.76693" y="245.850134" fill="#10302c" font-family="'Montserrat'" font-size="20px" font-weight="700" text-anchor="middle">2,425  </text>
 <text transform="rotate(-0 1091.8 216.38)" x="1091.76693" y="216.377457" fill="#4c6a67" font-family="'Montserrat'" font-size="22px" font-weight="600" text-anchor="middle">4.2%</text>
 <text transform="rotate(-0 1178.8 268.43)" x="1178.831636" y="268.432853" fill="#ffffff" font-family="'Montserrat'" font-size="18px" font-weight="500" text-anchor="middle">2,274</text>
 <path d="m1153.3 246.98h51.059q16 0 16-16v7.2781q0-16-16-16h-51.059q-16 0-16 16v-7.2781q0 16 16 16z" fill="#fff" stroke="#002f2a" stroke-width="1.5"/>
 <text transform="rotate(-0 1178.8 240.1)" x="1178.831636" y="240.095145" fill="#10302c" font-family="'Montserrat'" font-size="20px" font-weight="700" text-anchor="middle">2,959  </text>
 <text transform="rotate(-0 1178.8 210.62)" x="1178.831636" y="210.622467" fill="#4c6a67" font-family="'Montserrat'" font-size="22px" font-weight="600" text-anchor="middle">5.1%</text>
 <text transform="rotate(-0 1265.9 281.67)" x="1265.896342" y="281.667173" fill="#ffffff" font-family="'Montserrat'" font-size="18px" font-weight="500" text-anchor="middle">1,188</text>
 <text transform="rotate(-0 1265.9 261.01)" x="1265.896342" y="261.012796" fill="#ffffff" font-family="'Montserrat'" font-size="18px" font-weight="500" text-anchor="middle">2,645</text>
 <path d="m1240.6 237.56h50.6q16 0 16-16v7.2781q0-16-16-16h-50.6q-16 0-16 16v-7.2781q0 16 16 16z" fill="#fff" stroke="#002f2a" stroke-width="1.5"/>
 <text transform="rotate(-0 1265.9 230.68)" x="1265.896342" y="230.67593" fill="#10302c" font-family="'Montserrat'" font-size="20px" font-weight="700" text-anchor="middle">3,833  </text>
 <text transform="rotate(-0 1265.9 201.2)" x="1265.896342" y="201.203252" fill="#4c6a67" font-family="'Montserrat'" font-size="22px" font-weight="600" text-anchor="middle">6.6%</text>
 <text transform="rotate(-0 1353 279.24)" x="1352.961048" y="279.23693" fill="#ffffff" font-family="'Montserrat'" font-size="18px" font-weight="500" text-anchor="middle">1,639</text>
 <text transform="rotate(-0 1353 253.61)" x="1352.961048" y="253.608905" fill="#ffffff" font-family="'Montserrat'" font-size="18px" font-weight="500" text-anchor="middle">3,117</text>
 <path d="m1326.6 227.61h52.7q16 0 16-16v7.2781q0-16-16-16h-52.7q-16 0-16 16v-7.2781q0 16 16 16z" fill="#fff" stroke="#002f2a" stroke-width="1.5"/>
 <text transform="rotate(-0 1353 220.73)" x="1352.961048" y="220.728635" fill="#10302c" font-family="'Montserrat'" font-size="20px" font-weight="700" text-anchor="middle">4,756  </text>
 <text transform="rotate(-0 1353 191.26)" x="1352.961048" y="191.255958" fill="#4c6a67" font-family="'Montserrat'" font-size="22px" font-weight="600" text-anchor="middle">8.2%</text>
 <text transform="rotate(-0 1440 279.94)" x="1440.025754" y="279.942832" fill="#ffffff" font-family="'Montserrat'" font-size="18px" font-weight="500" text-anchor="middle">1,508</text>
 <text transform="rotate(-0 1440 256.44)" x="1440.025754" y="256.437903" fill="#ffffff" font-family="'Montserrat'" font-size="18px" font-weight="500" text-anchor="middle">2,854</text>
 <path d="m1414 231.86h52.041q16 0 16-16v7.2781q0-16-16-16h-52.041q-16 0-16 16v-7.2781q0 16 16 16z" fill="#fff" stroke="#002f2a" stroke-width="1.5"/>
 <text transform="rotate(-0 1440 224.97)" x="1440.025754" y="224.974826" fill="#10302c" font-family="'Montserrat'" font-size="20px" font-weight="700" text-anchor="middle">4,362  </text>
 <text transform="rotate(-0 1440 195.5)" x="1440.025754" y="195.502148" fill="#4c6a67" font-family="'Montserrat'" font-size="22px" font-weight="600" text-anchor="middle">7.5%</text>
 <text transform="rotate(-0 1527.1 256.48)" x="1527.09046" y="256.475623" fill="#ffffff" font-family="'Montserrat'" font-size="18px" font-weight="500" text-anchor="middle">5,863</text>
 <text transform="rotate(-0 1527.1 151.1)" x="1527.09046" y="151.096809" fill="#ffffff" font-family="'Montserrat'" font-size="18px" font-weight="500" text-anchor="middle">13,693</text>
 <path d="m1497.6 68.108h59q16 0 16-16v7.2781q0-16-16-16h-59q-16 0-16 16v-7.2781q0 16 16 16z" fill="#fff" stroke="#002f2a" stroke-width="1.5"/>
 <text transform="rotate(-0 1527.1 61.227)" x="1527.09046" y="61.227055" fill="#10302c" font-family="'Montserrat'" font-size="20px" font-weight="700" text-anchor="middle">19,556  </text>
 <text transform="rotate(-0 1527.1 31.754)" x="1527.09046" y="31.754378" fill="#4c6a67" font-family="'Montserrat'" font-size="22px" font-weight="600" text-anchor="middle">33.7%</text>
 <path d="m573.13 35.036h48v-16.8h-48z" fill="#10302c"/>
 <text transform="rotate(-0 640.33 35.036)" x="640.331563" y="35.03625" font-family="'DejaVu Sans', 'Bitstream Vera Sans', 'Computer Modern Sans Serif', 'Lucida Grande', 'Verdana', 'Geneva', 'Lucid', 'Arial', 'Helvetica', 'Avant Garde', sans-serif" font-size="24px">movimiento</text>
 <path d="m831.38 35.036h48v-16.8h-48z" fill="#4c6a67"/>
 <text transform="rotate(-0 898.58 35.036)" x="898.582813" y="35.03625" font-family="'DejaVu Sans', 'Bitstream Vera Sans', 'Computer Modern Sans Serif', 'Lucida Grande', 'Verdana', 'Geneva', 'Lucid', 'Arial', 'Helvetica', 'Avant Garde', sans-serif" font-size="24px">sin_movimiento</text>
 <defs>
  <clipPath id="a">
   <rect x="90.523" y="16.529" width="1480.1" height="266.61"/>
  </clipPath>
 </defs>
</svg>
