<svg xmlns="http://www.w3.org/2000/svg" xmlns:xlink="http://www.w3.org/1999/xlink" width="1392.8pt" height="753.96" viewBox="0 0 1392.8 565.47"><defs><style>*{stroke-linejoin:round;stroke-linecap:butt}</style></defs><path fill="#fff" d="M0 565.47h1392.8V0H0z"/><path fill="#fff" d="M86.033 429.52h1299.6V27.37H86.033z"/><defs><path id="b" stroke="#000" stroke-width=".8" d="M0 0v3.5"/></defs><use xlink:href="#b" x="129.353" y="429.52" stroke="#000" stroke-width=".8"/><text font-family="'Montserrat'" font-size="25" font-weight="500" transform="rotate(-90 341.385 216.885)">2007-2011</text><use xlink:href="#b" x="215.992" y="429.52" stroke="#000" stroke-width=".8"/><text font-family="'Montserrat'" font-size="25" font-weight="500" transform="rotate(-90 351.145 140.005)">2012</text><use xlink:href="#b" x="302.632" y="429.52" stroke="#000" stroke-width=".8"/><text font-family="'Montserrat'" font-size="25" font-weight="500" transform="rotate(-90 394.44 96.66)">2013</text><use xlink:href="#b" x="389.271" y="429.52" stroke="#000" stroke-width=".8"/><text font-family="'Montserrat'" font-size="25" font-weight="500" transform="rotate(-90 438.97 54.55)">2014</text><use xlink:href="#b" x="475.91" y="429.52" stroke="#000" stroke-width=".8"/><text font-family="'Montserrat'" font-size="25" font-weight="500" transform="rotate(-90 481.105 10.045)">2015</text><use xlink:href="#b" x="562.55" y="429.52" stroke="#000" stroke-width=".8"/><text font-family="'Montserrat'" font-size="25" font-weight="500" transform="rotate(-90 524.96 -32.74)">2016</text><use xlink:href="#b" x="649.189" y="429.52" stroke="#000" stroke-width=".8"/><text font-family="'Montserrat'" font-size="25" font-weight="500" transform="rotate(-90 568.045 -76.295)">2017</text><use xlink:href="#b" x="735.828" y="429.52" stroke="#000" stroke-width=".8"/><text font-family="'Montserrat'" font-size="25" font-weight="500" transform="rotate(-90 611.94 -119.04)">2018</text><use xlink:href="#b" x="822.468" y="429.52" stroke="#000" stroke-width=".8"/><text font-family="'Montserrat'" font-size="25" font-weight="500" transform="rotate(-90 654.92 -162.7)">2019</text><use xlink:href="#b" x="909.107" y="429.52" stroke="#000" stroke-width=".8"/><text font-family="'Montserrat'" font-size="25" font-weight="500" transform="rotate(-90 701.415 -202.845)">2020</text><use xlink:href="#b" x="995.746" y="429.52" stroke="#000" stroke-width=".8"/><text font-family="'Montserrat'" font-size="25" font-weight="500" transform="rotate(-90 741.02 -249.87)">2021</text><use xlink:href="#b" x="1082.386" y="429.52" stroke="#000" stroke-width=".8"/><text font-family="'Montserrat'" font-size="25" font-weight="500" transform="rotate(-90 786.875 -290.625)">2022</text><use xlink:href="#b" x="1169.025" y="429.52" stroke="#000" stroke-width=".8"/><text font-family="'Montserrat'" font-size="25" font-weight="500" transform="rotate(-90 830.2 -334)">2023</text><use xlink:href="#b" x="1255.664" y="429.52" stroke="#000" stroke-width=".8"/><text font-family="'Montserrat'" font-size="25" font-weight="500" transform="rotate(-90 874.715 -376.085)">2024</text><use xlink:href="#b" x="1342.304" y="429.52" stroke="#000" stroke-width=".8"/><text font-family="'Montserrat'" font-size="25" font-weight="500" transform="rotate(-90 916.875 -420.625)">2025</text><path fill="none" stroke="#b9b9b9" stroke-linecap="square" stroke-width=".75" d="M86.033 429.52h1299.6" clip-path="url(#a)"/><defs><path id="c" stroke="#000" stroke-width=".8" d="M0 0h-3.5"/></defs><use xlink:href="#c" x="86.033" y="429.52" stroke="#000" stroke-width=".8"/><text x="79.033" y="437.683" font-family="'Montserrat'" font-size="22" font-weight="500" text-anchor="end">0</text><path fill="none" stroke="#b9b9b9" stroke-linecap="square" stroke-width=".75" d="M86.033 358.69h1299.6" clip-path="url(#a)"/><use xlink:href="#c" x="86.033" y="358.694" stroke="#000" stroke-width=".8"/><text x="79.033" y="366.856" font-family="'Montserrat'" font-size="22" font-weight="500" text-anchor="end">2,000</text><path fill="none" stroke="#b9b9b9" stroke-linecap="square" stroke-width=".75" d="M86.033 287.87h1299.6" clip-path="url(#a)"/><use xlink:href="#c" x="86.033" y="287.868" stroke="#000" stroke-width=".8"/><text x="79.033" y="296.03" font-family="'Montserrat'" font-size="22" font-weight="500" text-anchor="end">4,000</text><path fill="none" stroke="#b9b9b9" stroke-linecap="square" stroke-width=".75" d="M86.033 217.04h1299.6" clip-path="url(#a)"/><use xlink:href="#c" x="86.033" y="217.041" stroke="#000" stroke-width=".8"/><text x="79.033" y="225.204" font-family="'Montserrat'" font-size="22" font-weight="500" text-anchor="end">6,000</text><path fill="none" stroke="#b9b9b9" stroke-linecap="square" stroke-width=".75" d="M86.033 146.22h1299.6" clip-path="url(#a)"/><use xlink:href="#c" x="86.033" y="146.215" stroke="#000" stroke-width=".8"/><text x="79.033" y="154.377" font-family="'Montserrat'" font-size="22" font-weight="500" text-anchor="end">8,000</text><path fill="none" stroke="#b9b9b9" stroke-linecap="square" stroke-width=".75" d="M86.033 75.389h1299.6" clip-path="url(#a)"/><use xlink:href="#c" x="86.033" y="75.389" stroke="#000" stroke-width=".8"/><text x="79.033" y="83.551" font-family="'Montserrat'" font-size="22" font-weight="500" text-anchor="end">10,000</text><path fill="#10302c" d="M94.697 429.52h69.311v-88.781H94.697z" clip-path="url(#a)"/><path fill="#4c6a67" d="M94.697 340.74h69.311v-125.4H94.697z" clip-path="url(#a)"/><path fill="#10302c" d="M181.34 429.52h69.311v-24.081H181.34z" clip-path="url(#a)"/><path fill="#4c6a67" d="M181.34 405.44h69.311v-50.216H181.34z" clip-path="url(#a)"/><path fill="#10302c" d="M267.98 429.52h69.311v-30.562H267.98z" clip-path="url(#a)"/><path fill="#4c6a67" d="M267.98 398.96h69.311v-50.853H267.98z" clip-path="url(#a)"/><path fill="#10302c" d="M354.62 429.52h69.311v-30.774H354.62z" clip-path="url(#a)"/><path fill="#4c6a67" d="M354.62 398.75h69.311v-47.985H354.62z" clip-path="url(#a)"/><path fill="#10302c" d="M441.25 429.52h69.311v-27.941H441.25z" clip-path="url(#a)"/><path fill="#4c6a67" d="M441.25 401.58h69.311v-45.01H441.25z" clip-path="url(#a)"/><path fill="#10302c" d="M527.89 429.52h69.311v-34.351H527.89z" clip-path="url(#a)"/><path fill="#4c6a67" d="M527.89 395.17h69.311v-51.597H527.89z" clip-path="url(#a)"/><path fill="#10302c" d="M614.53 429.52h69.311v-37.892H614.53z" clip-path="url(#a)"/><path fill="#4c6a67" d="M614.53 391.63h69.311v-67.958H614.53z" clip-path="url(#a)"/><path fill="#10302c" d="M701.17 429.52h69.311v-22.239H701.17z" clip-path="url(#a)"/><path fill="#4c6a67" d="M701.17 407.28h69.311v-63.637H701.17z" clip-path="url(#a)"/><path fill="#10302c" d="M787.81 429.52h69.311v-24.258H787.81z" clip-path="url(#a)"/><path fill="#4c6a67" d="M787.81 405.26h69.311v-80.53H787.81z" clip-path="url(#a)"/><path fill="#10302c" d="M874.45 429.52h69.311v-42.071H874.45z" clip-path="url(#a)"/><path fill="#4c6a67" d="M874.45 387.45h69.311v-93.668H874.45z" clip-path="url(#a)"/><path fill="#10302c" d="M961.09 429.52h69.311v-58.042H961.09z" clip-path="url(#a)"/><path fill="#4c6a67" d="M961.09 371.48h69.311V261.1H961.09z" clip-path="url(#a)"/><path fill="#10302c" d="M1047.7 429.52h69.311v-53.403H1047.7z" clip-path="url(#a)"/><path fill="#4c6a67" d="M1047.7 376.12h69.311V275.05H1047.7z" clip-path="url(#a)"/><path fill="#10302c" d="M1134.4 429.52h69.311v-79.503H1134.4z" clip-path="url(#a)"/><path fill="#4c6a67" d="M1134.4 350.02h69.311V213.61H1134.4z" clip-path="url(#a)"/><path fill="#10302c" d="M1221 429.52h69.311V318.64H1221z" clip-path="url(#a)"/><path fill="#4c6a67" d="M1221 318.64h69.311V111.61H1221z" clip-path="url(#a)"/><path fill="#10302c" d="M1307.6 429.52h69.311v-17.246H1307.6z" clip-path="url(#a)"/><path fill="#4c6a67" d="M1307.6 412.27h69.311V270.79H1307.6z" clip-path="url(#a)"/><text x="129.353" y="391.706" fill="#fff" font-family="'Montserrat'" font-size="24" font-weight="500" text-anchor="middle">2,507</text><text x="129.353" y="284.616" fill="#fff" font-family="'Montserrat'" font-size="24" font-weight="500" text-anchor="middle">3,541</text><path fill="#fff" stroke="#002f2a" stroke-width="1.5" d="M101.76 207.37h55.181q16 0 16-16v7.278q0-16-16-16H101.76q-16 0-16 16v-7.278q0 16 16 16z"/><text x="129.353" y="200.493" fill="#10302c" font-family="'Montserrat'" font-size="20" font-weight="700" text-anchor="middle">6,048  </text><text x="129.353" y="156.234" fill="#4c6a67" font-family="'Montserrat'" font-size="22" font-weight="600" text-anchor="middle">10.4%</text><text x="215.992" y="424.055" fill="#fff" font-family="'Montserrat'" font-size="24" font-weight="500" text-anchor="middle">680</text><text x="215.992" y="386.907" fill="#fff" font-family="'Montserrat'" font-size="24" font-weight="500" text-anchor="middle">1,418</text><path fill="#fff" stroke="#002f2a" stroke-width="1.5" d="M189.39 347.26h53.2q16 0 16-16v7.278q0-16-16-16h-53.2q-16 0-16 16v-7.278q0 16 16 16z"/><text x="215.992" y="340.375" fill="#10302c" font-family="'Montserrat'" font-size="20" font-weight="700" text-anchor="middle">2,098  </text><text x="215.992" y="296.116" fill="#4c6a67" font-family="'Montserrat'" font-size="22" font-weight="600" text-anchor="middle">3.6%</text><text x="302.632" y="420.815" fill="#fff" font-family="'Montserrat'" font-size="24" font-weight="500" text-anchor="middle">863</text><text x="302.632" y="380.108" fill="#fff" font-family="'Montserrat'" font-size="24" font-weight="500" text-anchor="middle">1,436</text><path fill="#fff" stroke="#002f2a" stroke-width="1.5" d="M277.15 340.14h50.959q16 0 16-16v7.278q0-16-16-16H277.15q-16 0-16 16v-7.278q0 16 16 16z"/><text x="302.632" y="333.257" fill="#10302c" font-family="'Montserrat'" font-size="20" font-weight="700" text-anchor="middle">2,299  </text><text x="302.632" y="288.998" fill="#4c6a67" font-family="'Montserrat'" font-size="22" font-weight="600" text-anchor="middle">4.0%</text><text x="389.271" y="420.709" fill="#fff" font-family="'Montserrat'" font-size="24" font-weight="500" text-anchor="middle">869</text><text x="389.271" y="381.329" fill="#fff" font-family="'Montserrat'" font-size="24" font-weight="500" text-anchor="middle">1,355</text><path fill="#fff" stroke="#002f2a" stroke-width="1.5" d="M363.74 342.79h51.059q16 0 16-16v7.278q0-16-16-16H363.74q-16 0-16 16v-7.278q0 16 16 16z"/><text x="389.271" y="335.912" fill="#10302c" font-family="'Montserrat'" font-size="20" font-weight="700" text-anchor="middle">2,224  </text><text x="389.271" y="291.654" fill="#4c6a67" font-family="'Montserrat'" font-size="22" font-weight="600" text-anchor="middle">3.8%</text><text x="475.91" y="422.125" fill="#fff" font-family="'Montserrat'" font-size="24" font-weight="500" text-anchor="middle">789</text><text x="475.91" y="385.65" fill="#fff" font-family="'Montserrat'" font-size="24" font-weight="500" text-anchor="middle">1,271</text><path fill="#fff" stroke="#002f2a" stroke-width="1.5" d="M449.12 348.6h53.581q16 0 16-16v7.278q0-16-16-16H449.12q-16 0-16 16V332.6q0 16 16 16z"/><text x="475.91" y="341.72" fill="#10302c" font-family="'Montserrat'" font-size="20" font-weight="700" text-anchor="middle">2,060  </text><text x="475.91" y="297.461" fill="#4c6a67" font-family="'Montserrat'" font-size="22" font-weight="600" text-anchor="middle">3.5%</text><text x="562.55" y="418.921" fill="#fff" font-family="'Montserrat'" font-size="24" font-weight="500" text-anchor="middle">970</text><text x="562.55" y="375.947" fill="#fff" font-family="'Montserrat'" font-size="24" font-weight="500" text-anchor="middle">1,457</text><path fill="#fff" stroke="#002f2a" stroke-width="1.5" d="M536.72 335.6h51.659q16 0 16-16v7.278q0-16-16-16H536.72q-16 0-16 16V319.6q0 16 16 16z"/><text x="562.55" y="328.724" fill="#10302c" font-family="'Montserrat'" font-size="20" font-weight="700" text-anchor="middle">2,427  </text><text x="562.55" y="284.465" fill="#4c6a67" font-family="'Montserrat'" font-size="22" font-weight="600" text-anchor="middle">4.2%</text><text x="649.189" y="417.15" fill="#fff" font-family="'Montserrat'" font-size="24" font-weight="500" text-anchor="middle">1,070</text><text x="649.189" y="364.225" fill="#fff" font-family="'Montserrat'" font-size="24" font-weight="500" text-anchor="middle">1,919</text><path fill="#fff" stroke="#002f2a" stroke-width="1.5" d="M623.01 315.7h52.359q16 0 16-16v7.278q0-16-16-16H623.01q-16 0-16 16V299.7q0 16 16 16z"/><text x="649.189" y="308.821" fill="#10302c" font-family="'Montserrat'" font-size="20" font-weight="700" text-anchor="middle">2,989  </text><text x="649.189" y="264.563" fill="#4c6a67" font-family="'Montserrat'" font-size="22" font-weight="600" text-anchor="middle">5.2%</text><text x="735.828" y="424.976" fill="#fff" font-family="'Montserrat'" font-size="24" font-weight="500" text-anchor="middle">628</text><text x="735.828" y="382.038" fill="#fff" font-family="'Montserrat'" font-size="24" font-weight="500" text-anchor="middle">1,797</text><path fill="#fff" stroke="#002f2a" stroke-width="1.5" d="M710.25 335.68h51.159q16 0 16-16v7.278q0-16-16-16H710.25q-16 0-16 16v-7.278q0 16 16 16z"/><text x="735.828" y="328.794" fill="#10302c" font-family="'Montserrat'" font-size="20" font-weight="700" text-anchor="middle">2,425  </text><text x="735.828" y="284.536" fill="#4c6a67" font-family="'Montserrat'" font-size="22" font-weight="600" text-anchor="middle">4.2%</text><text x="822.468" y="423.967" fill="#fff" font-family="'Montserrat'" font-size="24" font-weight="500" text-anchor="middle">685</text><text x="822.468" y="371.573" fill="#fff" font-family="'Montserrat'" font-size="24" font-weight="500" text-anchor="middle">2,274</text><path fill="#fff" stroke="#002f2a" stroke-width="1.5" d="M796.94 316.77h51.059q16 0 16-16v7.278q0-16-16-16H796.94q-16 0-16 16v-7.278q0 16 16 16z"/><text x="822.468" y="309.884" fill="#10302c" font-family="'Montserrat'" font-size="20" font-weight="700" text-anchor="middle">2,959  </text><text x="822.468" y="265.625" fill="#4c6a67" font-family="'Montserrat'" font-size="22" font-weight="600" text-anchor="middle">5.1%</text><text x="909.107" y="415.06" fill="#fff" font-family="'Montserrat'" font-size="24" font-weight="500" text-anchor="middle">1,188</text><text x="909.107" y="347.191" fill="#fff" font-family="'Montserrat'" font-size="24" font-weight="500" text-anchor="middle">2,645</text><path fill="#fff" stroke="#002f2a" stroke-width="1.5" d="M883.81 285.81h50.6q16 0 16-16v7.278q0-16-16-16h-50.6q-16 0-16 16v-7.278q0 16 16 16z"/><text x="909.107" y="278.933" fill="#10302c" font-family="'Montserrat'" font-size="20" font-weight="700" text-anchor="middle">3,833  </text><text x="909.107" y="234.674" fill="#4c6a67" font-family="'Montserrat'" font-size="22" font-weight="600" text-anchor="middle">6.6%</text><text x="995.746" y="407.075" fill="#fff" font-family="'Montserrat'" font-size="24" font-weight="500" text-anchor="middle">1,639</text><text x="995.746" y="322.862" fill="#fff" font-family="'Montserrat'" font-size="24" font-weight="500" text-anchor="middle">3,117</text><path fill="#fff" stroke="#002f2a" stroke-width="1.5" d="M969.4 253.13h52.7q16 0 16-16v7.278q0-16-16-16h-52.7q-16 0-16 16v-7.278q0 16 16 16z"/><text x="995.746" y="246.246" fill="#10302c" font-family="'Montserrat'" font-size="20" font-weight="700" text-anchor="middle">4,756  </text><text x="995.746" y="201.988" fill="#4c6a67" font-family="'Montserrat'" font-size="22" font-weight="600" text-anchor="middle">8.2%</text><text x="1082.386" y="409.394" fill="#fff" font-family="'Montserrat'" font-size="24" font-weight="500" text-anchor="middle">1,508</text><text x="1082.386" y="332.158" fill="#fff" font-family="'Montserrat'" font-size="24" font-weight="500" text-anchor="middle">2,854</text><path fill="#fff" stroke="#002f2a" stroke-width="1.5" d="M1056.4 267.08h52.041q16 0 16-16v7.278q0-16-16-16H1056.4q-16 0-16 16v-7.278q0 16 16 16z"/><text x="1082.386" y="260.199" fill="#10302c" font-family="'Montserrat'" font-size="20" font-weight="700" text-anchor="middle">4,362  </text><text x="1082.386" y="215.94" fill="#4c6a67" font-family="'Montserrat'" font-size="22" font-weight="600" text-anchor="middle">7.5%</text><text x="1169.025" y="396.345" fill="#fff" font-family="'Montserrat'" font-size="24" font-weight="500" text-anchor="middle">2,245</text><text x="1169.025" y="288.388" fill="#fff" font-family="'Montserrat'" font-size="24" font-weight="500" text-anchor="middle">3,852</text><path fill="#fff" stroke="#002f2a" stroke-width="1.5" d="M1142.4 205.64h53.341q16 0 16-16v7.278q0-16-16-16H1142.4q-16 0-16 16v-7.278q0 16 16 16z"/><text x="1169.025" y="198.757" fill="#10302c" font-family="'Montserrat'" font-size="20" font-weight="700" text-anchor="middle">6,097  </text><text x="1169.025" y="154.498" fill="#4c6a67" font-family="'Montserrat'" font-size="22" font-weight="600" text-anchor="middle">10.5%</text><text x="1255.664" y="380.657" fill="#fff" font-family="'Montserrat'" font-size="24" font-weight="500" text-anchor="middle">3,131</text><text x="1255.664" y="221.705" fill="#fff" font-family="'Montserrat'" font-size="24" font-weight="500" text-anchor="middle">5,846</text><path fill="#fff" stroke="#002f2a" stroke-width="1.5" d="M1229.4 103.65h52.619q16 0 16-16v7.278q0-16-16-16H1229.4q-16 0-16 16V87.65q0 16 16 16z"/><text x="1255.664" y="96.767" fill="#10302c" font-family="'Montserrat'" font-size="20" font-weight="700" text-anchor="middle">8,977  </text><text x="1255.664" y="52.509" fill="#4c6a67" font-family="'Montserrat'" font-size="22" font-weight="600" text-anchor="middle">15.5%</text><text x="1342.304" y="348.112" fill="#fff" font-family="'Montserrat'" font-size="24" font-weight="500" text-anchor="middle">3,995</text><path fill="#fff" stroke="#002f2a" stroke-width="1.5" d="M1315.1 262.83h54.441q16 0 16-16v7.278q0-16-16-16H1315.1q-16 0-16 16v-7.278q0 16 16 16z"/><text x="1342.304" y="255.95" fill="#10302c" font-family="'Montserrat'" font-size="20" font-weight="700" text-anchor="middle">4,482  </text><text x="1342.304" y="211.691" fill="#4c6a67" font-family="'Montserrat'" font-size="22" font-weight="600" text-anchor="middle">7.7%</text><path fill="#10302c" d="M478.39 35.036h48v-16.8h-48z"/><text x="545.587" y="35.036" font-family="'DejaVu Sans', 'Bitstream Vera Sans', 'Computer Modern Sans Serif', 'Lucida Grande', 'Verdana', 'Geneva', 'Lucid', 'Arial', 'Helvetica', 'Avant Garde', sans-serif" font-size="24">movimiento</text><path fill="#4c6a67" d="M736.64 35.036h48v-16.8h-48z"/><text x="803.838" y="35.036" font-family="'DejaVu Sans', 'Bitstream Vera Sans', 'Computer Modern Sans Serif', 'Lucida Grande', 'Verdana', 'Geneva', 'Lucid', 'Arial', 'Helvetica', 'Avant Garde', sans-serif" font-size="24">sin_movimiento</text><defs><clipPath id="a"><path d="M86.033 27.372h1299.6v402.15H86.033z"/></clipPath></defs></svg>