<?xml version="1.0" encoding="utf-8" standalone="no"?>
<!DOCTYPE svg PUBLIC "-//W3C//DTD SVG 1.1//EN"
  "http://www.w3.org/Graphics/SVG/1.1/DTD/svg11.dtd">
<svg xmlns:xlink="http://www.w3.org/1999/xlink" width="1577.822813pt" height="564.961047pt" viewBox="0 0 1577.822813 564.961047" xmlns="http://www.w3.org/2000/svg" version="1.1">
 <metadata>
  <rdf:RDF xmlns:dc="http://purl.org/dc/elements/1.1/" xmlns:cc="http://creativecommons.org/ns#" xmlns:rdf="http://www.w3.org/1999/02/22-rdf-syntax-ns#">
   <cc:Work>
    <dc:type rdf:resource="http://purl.org/dc/dcmitype/StillImage"/>
    <dc:date>2025-05-29T11:45:40.416553</dc:date>
    <dc:format>image/svg+xml</dc:format>
    <dc:creator>
     <cc:Agent>
      <dc:title>Matplotlib v3.10.1, https://matplotlib.org/</dc:title>
     </cc:Agent>
    </dc:creator>
   </cc:Work>
  </rdf:RDF>
 </metadata>
 <defs>
  <style type="text/css">*{stroke-linejoin: round; stroke-linecap: butt}</style>
 </defs>
 <g id="figure_1">
  <g id="patch_1">
   <path d="M 0 564.961047 
L 1577.822813 564.961047 
L 1577.822813 0 
L 0 0 
z
" style="fill: #ffffff"/>
  </g>
  <g id="axes_1">
   <g id="patch_2">
    <path d="M 90.522813 421.776672 
L 1570.622813 421.776672 
L 1570.622813 26.798272 
L 90.522813 26.798272 
z
" style="fill: #ffffff"/>
   </g>
   <g id="matplotlib.axis_1">
    <g id="xtick_1">
     <g id="line2d_1">
      <defs>
       <path id="m4ca119bf78" d="M 0 0 
L 0 3.5 
" style="stroke: #000000; stroke-width: 0.8"/>
      </defs>
      <g>
       <use xlink:href="#m4ca119bf78" x="134.055165" y="421.776672" style="stroke: #000000; stroke-width: 0.8"/>
      </g>
     </g>
     <g id="text_1">
      <text style="font-weight: 500; font-size: 25px; font-family: 'Montserrat'" transform="translate(129.203603 491.429016) rotate(-90)">2007</text>
     </g>
    </g>
    <g id="xtick_2">
     <g id="line2d_2">
      <g>
       <use xlink:href="#m4ca119bf78" x="221.119871" y="421.776672" style="stroke: #000000; stroke-width: 0.8"/>
      </g>
     </g>
     <g id="text_2">
      <text style="font-weight: 500; font-size: 25px; font-family: 'Montserrat'" transform="translate(216.268309 492.581359) rotate(-90)">2008</text>
     </g>
    </g>
    <g id="xtick_3">
     <g id="line2d_3">
      <g>
       <use xlink:href="#m4ca119bf78" x="308.184577" y="421.776672" style="stroke: #000000; stroke-width: 0.8"/>
      </g>
     </g>
     <g id="text_3">
      <text style="font-weight: 500; font-size: 25px; font-family: 'Montserrat'" transform="translate(303.333015 491.905578) rotate(-90)">2009</text>
     </g>
    </g>
    <g id="xtick_4">
     <g id="line2d_4">
      <g>
       <use xlink:href="#m4ca119bf78" x="395.249283" y="421.776672" style="stroke: #000000; stroke-width: 0.8"/>
      </g>
     </g>
     <g id="text_4">
      <text style="font-weight: 500; font-size: 25px; font-family: 'Montserrat'" transform="translate(390.397721 485.729797) rotate(-90)">2010</text>
     </g>
    </g>
    <g id="xtick_5">
     <g id="line2d_5">
      <g>
       <use xlink:href="#m4ca119bf78" x="482.313989" y="421.776672" style="stroke: #000000; stroke-width: 0.8"/>
      </g>
     </g>
     <g id="text_5">
      <text style="font-weight: 500; font-size: 25px; font-family: 'Montserrat'" transform="translate(477.462426 478.304016) rotate(-90)">2011</text>
     </g>
    </g>
    <g id="xtick_6">
     <g id="line2d_6">
      <g>
       <use xlink:href="#m4ca119bf78" x="569.378695" y="421.776672" style="stroke: #000000; stroke-width: 0.8"/>
      </g>
     </g>
     <g id="text_6">
      <text style="font-weight: 500; font-size: 25px; font-family: 'Montserrat'" transform="translate(564.527132 483.405578) rotate(-90)">2012</text>
     </g>
    </g>
    <g id="xtick_7">
     <g id="line2d_7">
      <g>
       <use xlink:href="#m4ca119bf78" x="656.443401" y="421.776672" style="stroke: #000000; stroke-width: 0.8"/>
      </g>
     </g>
     <g id="text_7">
      <text style="font-weight: 500; font-size: 25px; font-family: 'Montserrat'" transform="translate(651.591838 483.354797) rotate(-90)">2013</text>
     </g>
    </g>
    <g id="xtick_8">
     <g id="line2d_8">
      <g>
       <use xlink:href="#m4ca119bf78" x="743.508107" y="421.776672" style="stroke: #000000; stroke-width: 0.8"/>
      </g>
     </g>
     <g id="text_8">
      <text style="font-weight: 500; font-size: 25px; font-family: 'Montserrat'" transform="translate(738.656544 485.780578) rotate(-90)">2014</text>
     </g>
    </g>
    <g id="xtick_9">
     <g id="line2d_9">
      <g>
       <use xlink:href="#m4ca119bf78" x="830.572813" y="421.776672" style="stroke: #000000; stroke-width: 0.8"/>
      </g>
     </g>
     <g id="text_9">
      <text style="font-weight: 500; font-size: 25px; font-family: 'Montserrat'" transform="translate(825.72125 483.405578) rotate(-90)">2015</text>
     </g>
    </g>
    <g id="xtick_10">
     <g id="line2d_10">
      <g>
       <use xlink:href="#m4ca119bf78" x="917.637518" y="421.776672" style="stroke: #000000; stroke-width: 0.8"/>
      </g>
     </g>
     <g id="text_10">
      <text style="font-weight: 500; font-size: 25px; font-family: 'Montserrat'" transform="translate(912.785956 484.479797) rotate(-90)">2016</text>
     </g>
    </g>
    <g id="xtick_11">
     <g id="line2d_11">
      <g>
       <use xlink:href="#m4ca119bf78" x="1004.702224" y="421.776672" style="stroke: #000000; stroke-width: 0.8"/>
      </g>
     </g>
     <g id="text_11">
      <text style="font-weight: 500; font-size: 25px; font-family: 'Montserrat'" transform="translate(999.850662 484.003234) rotate(-90)">2017</text>
     </g>
    </g>
    <g id="xtick_12">
     <g id="line2d_12">
      <g>
       <use xlink:href="#m4ca119bf78" x="1091.76693" y="421.776672" style="stroke: #000000; stroke-width: 0.8"/>
      </g>
     </g>
     <g id="text_12">
      <text style="font-weight: 500; font-size: 25px; font-family: 'Montserrat'" transform="translate(1086.915368 485.155578) rotate(-90)">2018</text>
     </g>
    </g>
    <g id="xtick_13">
     <g id="line2d_13">
      <g>
       <use xlink:href="#m4ca119bf78" x="1178.831636" y="421.776672" style="stroke: #000000; stroke-width: 0.8"/>
      </g>
     </g>
     <g id="text_13">
      <text style="font-weight: 500; font-size: 25px; font-family: 'Montserrat'" transform="translate(1173.980074 484.479797) rotate(-90)">2019</text>
     </g>
    </g>
    <g id="xtick_14">
     <g id="line2d_14">
      <g>
       <use xlink:href="#m4ca119bf78" x="1265.896342" y="421.776672" style="stroke: #000000; stroke-width: 0.8"/>
      </g>
     </g>
     <g id="text_14">
      <text style="font-weight: 500; font-size: 25px; font-family: 'Montserrat'" transform="translate(1261.044779 490.831359) rotate(-90)">2020</text>
     </g>
    </g>
    <g id="xtick_15">
     <g id="line2d_15">
      <g>
       <use xlink:href="#m4ca119bf78" x="1352.961048" y="421.776672" style="stroke: #000000; stroke-width: 0.8"/>
      </g>
     </g>
     <g id="text_15">
      <text style="font-weight: 500; font-size: 25px; font-family: 'Montserrat'" transform="translate(1348.109485 483.405578) rotate(-90)">2021</text>
     </g>
    </g>
    <g id="xtick_16">
     <g id="line2d_16">
      <g>
       <use xlink:href="#m4ca119bf78" x="1440.025754" y="421.776672" style="stroke: #000000; stroke-width: 0.8"/>
      </g>
     </g>
     <g id="text_16">
      <text style="font-weight: 500; font-size: 25px; font-family: 'Montserrat'" transform="translate(1435.174191 488.507141) rotate(-90)">2022</text>
     </g>
    </g>
    <g id="xtick_17">
     <g id="line2d_17">
      <g>
       <use xlink:href="#m4ca119bf78" x="1527.09046" y="421.776672" style="stroke: #000000; stroke-width: 0.8"/>
      </g>
     </g>
     <g id="text_17">
      <text style="font-weight: 500; font-size: 25px; font-family: 'Montserrat'" transform="translate(1522.238897 557.761047) rotate(-90)">2023-2025</text>
     </g>
    </g>
   </g>
   <g id="matplotlib.axis_2">
    <g id="ytick_1">
     <g id="line2d_18">
      <path d="M 90.522813 421.776672 
L 1570.622813 421.776672 
" clip-path="url(#p5b55360424)" style="fill: none; stroke: #b9b9b9; stroke-width: 0.75; stroke-linecap: square"/>
     </g>
     <g id="line2d_19">
      <defs>
       <path id="mbe3e2e4788" d="M 0 0 
L -3.5 0 
" style="stroke: #000000; stroke-width: 0.8"/>
      </defs>
      <g>
       <use xlink:href="#mbe3e2e4788" x="90.522813" y="421.776672" style="stroke: #000000; stroke-width: 0.8"/>
      </g>
     </g>
     <g id="text_18">
      <text style="font-weight: 500; font-size: 22px; font-family: 'Montserrat'; text-anchor: end" x="83.522813" y="429.939016" transform="rotate(-0 83.522813 429.939016)">0</text>
     </g>
    </g>
    <g id="ytick_2">
     <g id="line2d_20">
      <path d="M 90.522813 341.945446 
L 1570.622813 341.945446 
" clip-path="url(#p5b55360424)" style="fill: none; stroke: #b9b9b9; stroke-width: 0.75; stroke-linecap: square"/>
     </g>
     <g id="line2d_21">
      <g>
       <use xlink:href="#mbe3e2e4788" x="90.522813" y="341.945446" style="stroke: #000000; stroke-width: 0.8"/>
      </g>
     </g>
     <g id="text_19">
      <text style="font-weight: 500; font-size: 22px; font-family: 'Montserrat'; text-anchor: end" x="83.522813" y="350.10779" transform="rotate(-0 83.522813 350.10779)">5,000</text>
     </g>
    </g>
    <g id="ytick_3">
     <g id="line2d_22">
      <path d="M 90.522813 262.114221 
L 1570.622813 262.114221 
" clip-path="url(#p5b55360424)" style="fill: none; stroke: #b9b9b9; stroke-width: 0.75; stroke-linecap: square"/>
     </g>
     <g id="line2d_23">
      <g>
       <use xlink:href="#mbe3e2e4788" x="90.522813" y="262.114221" style="stroke: #000000; stroke-width: 0.8"/>
      </g>
     </g>
     <g id="text_20">
      <text style="font-weight: 500; font-size: 22px; font-family: 'Montserrat'; text-anchor: end" x="83.522813" y="270.276565" transform="rotate(-0 83.522813 270.276565)">10,000</text>
     </g>
    </g>
    <g id="ytick_4">
     <g id="line2d_24">
      <path d="M 90.522813 182.282995 
L 1570.622813 182.282995 
" clip-path="url(#p5b55360424)" style="fill: none; stroke: #b9b9b9; stroke-width: 0.75; stroke-linecap: square"/>
     </g>
     <g id="line2d_25">
      <g>
       <use xlink:href="#mbe3e2e4788" x="90.522813" y="182.282995" style="stroke: #000000; stroke-width: 0.8"/>
      </g>
     </g>
     <g id="text_21">
      <text style="font-weight: 500; font-size: 22px; font-family: 'Montserrat'; text-anchor: end" x="83.522813" y="190.445339" transform="rotate(-0 83.522813 190.445339)">15,000</text>
     </g>
    </g>
    <g id="ytick_5">
     <g id="line2d_26">
      <path d="M 90.522813 102.45177 
L 1570.622813 102.45177 
" clip-path="url(#p5b55360424)" style="fill: none; stroke: #b9b9b9; stroke-width: 0.75; stroke-linecap: square"/>
     </g>
     <g id="line2d_27">
      <g>
       <use xlink:href="#mbe3e2e4788" x="90.522813" y="102.45177" style="stroke: #000000; stroke-width: 0.8"/>
      </g>
     </g>
     <g id="text_22">
      <text style="font-weight: 500; font-size: 22px; font-family: 'Montserrat'; text-anchor: end" x="83.522813" y="110.614114" transform="rotate(-0 83.522813 110.614114)">20,000</text>
     </g>
    </g>
   </g>
   <g id="patch_3">
    <path d="M 99.229283 421.776672 
L 168.881048 421.776672 
L 168.881048 418.998545 
L 99.229283 418.998545 
z
" clip-path="url(#p5b55360424)" style="fill: #10302c"/>
   </g>
   <g id="patch_4">
    <path d="M 99.229283 418.998545 
L 168.881048 418.998545 
L 168.881048 416.04479 
L 99.229283 416.04479 
z
" clip-path="url(#p5b55360424)" style="fill: #4c6a67"/>
   </g>
   <g id="patch_5">
    <path d="M 186.293989 421.776672 
L 255.945754 421.776672 
L 255.945754 418.040571 
L 186.293989 418.040571 
z
" clip-path="url(#p5b55360424)" style="fill: #10302c"/>
   </g>
   <g id="patch_6">
    <path d="M 186.293989 418.040571 
L 255.945754 418.040571 
L 255.945754 414.096908 
L 186.293989 414.096908 
z
" clip-path="url(#p5b55360424)" style="fill: #4c6a67"/>
   </g>
   <g id="patch_7">
    <path d="M 273.358695 421.776672 
L 343.01046 421.776672 
L 343.01046 415.198579 
L 273.358695 415.198579 
z
" clip-path="url(#p5b55360424)" style="fill: #10302c"/>
   </g>
   <g id="patch_8">
    <path d="M 273.358695 415.198579 
L 343.01046 415.198579 
L 343.01046 408.812081 
L 273.358695 408.812081 
z
" clip-path="url(#p5b55360424)" style="fill: #4c6a67"/>
   </g>
   <g id="patch_9">
    <path d="M 360.423401 421.776672 
L 430.075165 421.776672 
L 430.075165 408.173431 
L 360.423401 408.173431 
z
" clip-path="url(#p5b55360424)" style="fill: #10302c"/>
   </g>
   <g id="patch_10">
    <path d="M 360.423401 408.173431 
L 430.075165 408.173431 
L 430.075165 389.828216 
L 360.423401 389.828216 
z
" clip-path="url(#p5b55360424)" style="fill: #4c6a67"/>
   </g>
   <g id="patch_11">
    <path d="M 447.488107 421.776672 
L 517.139871 421.776672 
L 517.139871 408.444857 
L 447.488107 408.444857 
z
" clip-path="url(#p5b55360424)" style="fill: #10302c"/>
   </g>
   <g id="patch_12">
    <path d="M 447.488107 408.444857 
L 517.139871 408.444857 
L 517.139871 383.537515 
L 447.488107 383.537515 
z
" clip-path="url(#p5b55360424)" style="fill: #4c6a67"/>
   </g>
   <g id="patch_13">
    <path d="M 534.552812 421.776672 
L 604.204577 421.776672 
L 604.204577 410.919625 
L 534.552812 410.919625 
z
" clip-path="url(#p5b55360424)" style="fill: #10302c"/>
   </g>
   <g id="patch_14">
    <path d="M 534.552812 410.919625 
L 604.204577 410.919625 
L 604.204577 388.27949 
L 534.552812 388.27949 
z
" clip-path="url(#p5b55360424)" style="fill: #4c6a67"/>
   </g>
   <g id="patch_15">
    <path d="M 621.617518 421.776672 
L 691.269283 421.776672 
L 691.269283 407.997802 
L 621.617518 407.997802 
z
" clip-path="url(#p5b55360424)" style="fill: #10302c"/>
   </g>
   <g id="patch_16">
    <path d="M 621.617518 407.997802 
L 691.269283 407.997802 
L 691.269283 385.070274 
L 621.617518 385.070274 
z
" clip-path="url(#p5b55360424)" style="fill: #4c6a67"/>
   </g>
   <g id="patch_17">
    <path d="M 708.682224 421.776672 
L 778.333989 421.776672 
L 778.333989 407.902005 
L 708.682224 407.902005 
z
" clip-path="url(#p5b55360424)" style="fill: #10302c"/>
   </g>
   <g id="patch_18">
    <path d="M 708.682224 407.902005 
L 778.333989 407.902005 
L 778.333989 386.267743 
L 708.682224 386.267743 
z
" clip-path="url(#p5b55360424)" style="fill: #4c6a67"/>
   </g>
   <g id="patch_19">
    <path d="M 795.74693 421.776672 
L 865.398695 421.776672 
L 865.398695 409.179305 
L 795.74693 409.179305 
z
" clip-path="url(#p5b55360424)" style="fill: #10302c"/>
   </g>
   <g id="patch_20">
    <path d="M 795.74693 409.179305 
L 865.398695 409.179305 
L 865.398695 388.886207 
L 795.74693 388.886207 
z
" clip-path="url(#p5b55360424)" style="fill: #4c6a67"/>
   </g>
   <g id="patch_21">
    <path d="M 882.811636 421.776672 
L 952.463401 421.776672 
L 952.463401 406.289414 
L 882.811636 406.289414 
z
" clip-path="url(#p5b55360424)" style="fill: #10302c"/>
   </g>
   <g id="patch_22">
    <path d="M 882.811636 406.289414 
L 952.463401 406.289414 
L 952.463401 383.026595 
L 882.811636 383.026595 
z
" clip-path="url(#p5b55360424)" style="fill: #4c6a67"/>
   </g>
   <g id="patch_23">
    <path d="M 969.876342 421.776672 
L 1039.528107 421.776672 
L 1039.528107 404.69279 
L 969.876342 404.69279 
z
" clip-path="url(#p5b55360424)" style="fill: #10302c"/>
   </g>
   <g id="patch_24">
    <path d="M 969.876342 404.69279 
L 1039.528107 404.69279 
L 1039.528107 374.053565 
L 969.876342 374.053565 
z
" clip-path="url(#p5b55360424)" style="fill: #4c6a67"/>
   </g>
   <g id="patch_25">
    <path d="M 1056.941048 421.776672 
L 1126.592813 421.776672 
L 1126.592813 411.74987 
L 1056.941048 411.74987 
z
" clip-path="url(#p5b55360424)" style="fill: #10302c"/>
   </g>
   <g id="patch_26">
    <path d="M 1056.941048 411.74987 
L 1126.592813 411.74987 
L 1126.592813 383.058528 
L 1056.941048 383.058528 
z
" clip-path="url(#p5b55360424)" style="fill: #4c6a67"/>
   </g>
   <g id="patch_27">
    <path d="M 1144.005754 421.776672 
L 1213.657518 421.776672 
L 1213.657518 410.839794 
L 1144.005754 410.839794 
z
" clip-path="url(#p5b55360424)" style="fill: #10302c"/>
   </g>
   <g id="patch_28">
    <path d="M 1144.005754 410.839794 
L 1213.657518 410.839794 
L 1213.657518 374.532553 
L 1144.005754 374.532553 
z
" clip-path="url(#p5b55360424)" style="fill: #4c6a67"/>
   </g>
   <g id="patch_29">
    <path d="M 1231.07046 421.776672 
L 1300.722224 421.776672 
L 1300.722224 402.808773 
L 1231.07046 402.808773 
z
" clip-path="url(#p5b55360424)" style="fill: #10302c"/>
   </g>
   <g id="patch_30">
    <path d="M 1231.07046 402.808773 
L 1300.722224 402.808773 
L 1300.722224 360.578055 
L 1231.07046 360.578055 
z
" clip-path="url(#p5b55360424)" style="fill: #4c6a67"/>
   </g>
   <g id="patch_31">
    <path d="M 1318.135165 421.776672 
L 1387.78693 421.776672 
L 1387.78693 395.607996 
L 1318.135165 395.607996 
z
" clip-path="url(#p5b55360424)" style="fill: #10302c"/>
   </g>
   <g id="patch_32">
    <path d="M 1318.135165 395.607996 
L 1387.78693 395.607996 
L 1387.78693 345.84121 
L 1318.135165 345.84121 
z
" clip-path="url(#p5b55360424)" style="fill: #4c6a67"/>
   </g>
   <g id="patch_33">
    <path d="M 1405.199871 421.776672 
L 1474.851636 421.776672 
L 1474.851636 397.699574 
L 1405.199871 397.699574 
z
" clip-path="url(#p5b55360424)" style="fill: #10302c"/>
   </g>
   <g id="patch_34">
    <path d="M 1405.199871 397.699574 
L 1474.851636 397.699574 
L 1474.851636 352.131911 
L 1405.199871 352.131911 
z
" clip-path="url(#p5b55360424)" style="fill: #4c6a67"/>
   </g>
   <g id="patch_35">
    <path d="M 1492.264577 421.776672 
L 1561.916342 421.776672 
L 1561.916342 328.166577 
L 1492.264577 328.166577 
z
" clip-path="url(#p5b55360424)" style="fill: #10302c"/>
   </g>
   <g id="patch_36">
    <path d="M 1492.264577 328.166577 
L 1561.916342 328.166577 
L 1561.916342 109.540783 
L 1492.264577 109.540783 
z
" clip-path="url(#p5b55360424)" style="fill: #4c6a67"/>
   </g>
   <g id="text_23">
    <g id="patch_37">
     <path d="M 117.49579 408.272652 
L 150.61454 408.272652 
Q 166.61454 408.272652 166.61454 392.272652 
L 166.61454 399.550777 
Q 166.61454 383.550777 150.61454 383.550777 
L 117.49579 383.550777 
Q 101.49579 383.550777 101.49579 399.550777 
L 101.49579 392.272652 
Q 101.49579 408.272652 117.49579 408.272652 
z
" style="fill: #ffffff; stroke: #002f2a; stroke-width: 1.5; stroke-linejoin: miter"/>
    </g>
    <text style="font-weight: 700; font-size: 20px; font-family: 'Montserrat'; text-anchor: middle; fill: #10302c" x="134.055165" y="401.391402" transform="rotate(-0 134.055165 401.391402)">  359  </text>
   </g>
   <g id="text_24">
    <text style="font-weight: 600; font-size: 22px; font-family: 'Montserrat'; text-anchor: middle; fill: #4c6a67" x="134.055165" y="357.914724" transform="rotate(-0 134.055165 357.914724)">0.6%</text>
   </g>
   <g id="text_25">
    <g id="patch_38">
     <path d="M 205.390184 406.32477 
L 236.849559 406.32477 
Q 252.849559 406.32477 252.849559 390.32477 
L 252.849559 397.602895 
Q 252.849559 381.602895 236.849559 381.602895 
L 205.390184 381.602895 
Q 189.390184 381.602895 189.390184 397.602895 
L 189.390184 390.32477 
Q 189.390184 406.32477 205.390184 406.32477 
z
" style="fill: #ffffff; stroke: #002f2a; stroke-width: 1.5; stroke-linejoin: miter"/>
    </g>
    <text style="font-weight: 700; font-size: 20px; font-family: 'Montserrat'; text-anchor: middle; fill: #10302c" x="221.119871" y="399.44352" transform="rotate(-0 221.119871 399.44352)">  481  </text>
   </g>
   <g id="text_26">
    <text style="font-weight: 600; font-size: 22px; font-family: 'Montserrat'; text-anchor: middle; fill: #4c6a67" x="221.119871" y="355.966842" transform="rotate(-0 221.119871 355.966842)">0.8%</text>
   </g>
   <g id="text_27">
    <g id="patch_39">
     <path d="M 293.445515 401.039943 
L 322.92364 401.039943 
Q 338.92364 401.039943 338.92364 385.039943 
L 338.92364 392.318068 
Q 338.92364 376.318068 322.92364 376.318068 
L 293.445515 376.318068 
Q 277.445515 376.318068 277.445515 392.318068 
L 277.445515 385.039943 
Q 277.445515 401.039943 293.445515 401.039943 
z
" style="fill: #ffffff; stroke: #002f2a; stroke-width: 1.5; stroke-linejoin: miter"/>
    </g>
    <text style="font-weight: 700; font-size: 20px; font-family: 'Montserrat'; text-anchor: middle; fill: #10302c" x="308.184577" y="394.158693" transform="rotate(-0 308.184577 394.158693)">  812  </text>
   </g>
   <g id="text_28">
    <text style="font-weight: 600; font-size: 22px; font-family: 'Montserrat'; text-anchor: middle; fill: #4c6a67" x="308.184577" y="350.682015" transform="rotate(-0 308.184577 350.682015)">1.4%</text>
   </g>
   <g id="text_29">
    <text style="font-weight: 500; font-size: 24px; font-family: 'Montserrat'; text-anchor: middle; fill: #ffffff" x="395.249283" y="405.576448" transform="rotate(-0 395.249283 405.576448)">1,149</text>
   </g>
   <g id="text_30">
    <g id="patch_40">
     <path d="M 370.908658 382.056077 
L 419.589908 382.056077 
Q 435.589908 382.056077 435.589908 366.056077 
L 435.589908 373.334202 
Q 435.589908 357.334202 419.589908 357.334202 
L 370.908658 357.334202 
Q 354.908658 357.334202 354.908658 373.334202 
L 354.908658 366.056077 
Q 354.908658 382.056077 370.908658 382.056077 
z
" style="fill: #ffffff; stroke: #002f2a; stroke-width: 1.5; stroke-linejoin: miter"/>
    </g>
    <text style="font-weight: 700; font-size: 20px; font-family: 'Montserrat'; text-anchor: middle; fill: #10302c" x="395.249283" y="375.174827" transform="rotate(-0 395.249283 375.174827)">  2,001  </text>
   </g>
   <g id="text_31">
    <text style="font-weight: 600; font-size: 22px; font-family: 'Montserrat'; text-anchor: middle; fill: #4c6a67" x="395.249283" y="331.69815" transform="rotate(-0 395.249283 331.69815)">3.4%</text>
   </g>
   <g id="text_32">
    <text style="font-weight: 500; font-size: 24px; font-family: 'Montserrat'; text-anchor: middle; fill: #ffffff" x="482.313989" y="402.566811" transform="rotate(-0 482.313989 402.566811)">1,560</text>
   </g>
   <g id="text_33">
    <g id="patch_41">
     <path d="M 457.234301 375.765377 
L 507.393676 375.765377 
Q 523.393676 375.765377 523.393676 359.765377 
L 523.393676 367.043502 
Q 523.393676 351.043502 507.393676 351.043502 
L 457.234301 351.043502 
Q 441.234301 351.043502 441.234301 367.043502 
L 441.234301 359.765377 
Q 441.234301 375.765377 457.234301 375.765377 
z
" style="fill: #ffffff; stroke: #002f2a; stroke-width: 1.5; stroke-linejoin: miter"/>
    </g>
    <text style="font-weight: 700; font-size: 20px; font-family: 'Montserrat'; text-anchor: middle; fill: #10302c" x="482.313989" y="368.884127" transform="rotate(-0 482.313989 368.884127)">  2,395  </text>
   </g>
   <g id="text_34">
    <text style="font-weight: 600; font-size: 22px; font-family: 'Montserrat'; text-anchor: middle; fill: #4c6a67" x="482.313989" y="325.407449" transform="rotate(-0 482.313989 325.407449)">4.1%</text>
   </g>
   <g id="text_35">
    <text style="font-weight: 500; font-size: 24px; font-family: 'Montserrat'; text-anchor: middle; fill: #ffffff" x="569.378695" y="406.175183" transform="rotate(-0 569.378695 406.175183)">1,418</text>
   </g>
   <g id="text_36">
    <g id="patch_42">
     <path d="M 542.778695 380.507352 
L 595.978695 380.507352 
Q 611.978695 380.507352 611.978695 364.507352 
L 611.978695 371.785477 
Q 611.978695 355.785477 595.978695 355.785477 
L 542.778695 355.785477 
Q 526.778695 355.785477 526.778695 371.785477 
L 526.778695 364.507352 
Q 526.778695 380.507352 542.778695 380.507352 
z
" style="fill: #ffffff; stroke: #002f2a; stroke-width: 1.5; stroke-linejoin: miter"/>
    </g>
    <text style="font-weight: 700; font-size: 20px; font-family: 'Montserrat'; text-anchor: middle; fill: #10302c" x="569.378695" y="373.626102" transform="rotate(-0 569.378695 373.626102)">  2,098  </text>
   </g>
   <g id="text_37">
    <text style="font-weight: 600; font-size: 22px; font-family: 'Montserrat'; text-anchor: middle; fill: #4c6a67" x="569.378695" y="330.149424" transform="rotate(-0 569.378695 330.149424)">3.6%</text>
   </g>
   <g id="text_38">
    <text style="font-weight: 500; font-size: 24px; font-family: 'Montserrat'; text-anchor: middle; fill: #ffffff" x="656.443401" y="403.109663" transform="rotate(-0 656.443401 403.109663)">1,436</text>
   </g>
   <g id="text_39">
    <g id="patch_43">
     <path d="M 630.963713 377.298136 
L 681.923088 377.298136 
Q 697.923088 377.298136 697.923088 361.298136 
L 697.923088 368.576261 
Q 697.923088 352.576261 681.923088 352.576261 
L 630.963713 352.576261 
Q 614.963713 352.576261 614.963713 368.576261 
L 614.963713 361.298136 
Q 614.963713 377.298136 630.963713 377.298136 
z
" style="fill: #ffffff; stroke: #002f2a; stroke-width: 1.5; stroke-linejoin: miter"/>
    </g>
    <text style="font-weight: 700; font-size: 20px; font-family: 'Montserrat'; text-anchor: middle; fill: #10302c" x="656.443401" y="370.416886" transform="rotate(-0 656.443401 370.416886)">  2,299  </text>
   </g>
   <g id="text_40">
    <text style="font-weight: 600; font-size: 22px; font-family: 'Montserrat'; text-anchor: middle; fill: #4c6a67" x="656.443401" y="326.940209" transform="rotate(-0 656.443401 326.940209)">4.0%</text>
   </g>
   <g id="text_41">
    <text style="font-weight: 500; font-size: 24px; font-family: 'Montserrat'; text-anchor: middle; fill: #ffffff" x="743.508107" y="403.660499" transform="rotate(-0 743.508107 403.660499)">1,355</text>
   </g>
   <g id="text_42">
    <g id="patch_44">
     <path d="M 717.978419 378.495605 
L 769.037794 378.495605 
Q 785.037794 378.495605 785.037794 362.495605 
L 785.037794 369.77373 
Q 785.037794 353.77373 769.037794 353.77373 
L 717.978419 353.77373 
Q 701.978419 353.77373 701.978419 369.77373 
L 701.978419 362.495605 
Q 701.978419 378.495605 717.978419 378.495605 
z
" style="fill: #ffffff; stroke: #002f2a; stroke-width: 1.5; stroke-linejoin: miter"/>
    </g>
    <text style="font-weight: 700; font-size: 20px; font-family: 'Montserrat'; text-anchor: middle; fill: #10302c" x="743.508107" y="371.614355" transform="rotate(-0 743.508107 371.614355)">  2,224  </text>
   </g>
   <g id="text_43">
    <text style="font-weight: 600; font-size: 22px; font-family: 'Montserrat'; text-anchor: middle; fill: #4c6a67" x="743.508107" y="328.137677" transform="rotate(-0 743.508107 328.137677)">3.8%</text>
   </g>
   <g id="text_44">
    <text style="font-weight: 500; font-size: 24px; font-family: 'Montserrat'; text-anchor: middle; fill: #ffffff" x="830.572813" y="405.608381" transform="rotate(-0 830.572813 405.608381)">1,271</text>
   </g>
   <g id="text_45">
    <g id="patch_45">
     <path d="M 803.782188 381.114069 
L 857.363438 381.114069 
Q 873.363438 381.114069 873.363438 365.114069 
L 873.363438 372.392194 
Q 873.363438 356.392194 857.363438 356.392194 
L 803.782188 356.392194 
Q 787.782188 356.392194 787.782188 372.392194 
L 787.782188 365.114069 
Q 787.782188 381.114069 803.782188 381.114069 
z
" style="fill: #ffffff; stroke: #002f2a; stroke-width: 1.5; stroke-linejoin: miter"/>
    </g>
    <text style="font-weight: 700; font-size: 20px; font-family: 'Montserrat'; text-anchor: middle; fill: #10302c" x="830.572813" y="374.232819" transform="rotate(-0 830.572813 374.232819)">  2,060  </text>
   </g>
   <g id="text_46">
    <text style="font-weight: 600; font-size: 22px; font-family: 'Montserrat'; text-anchor: middle; fill: #4c6a67" x="830.572813" y="330.756141" transform="rotate(-0 830.572813 330.756141)">3.5%</text>
   </g>
   <g id="text_47">
    <text style="font-weight: 500; font-size: 24px; font-family: 'Montserrat'; text-anchor: middle; fill: #ffffff" x="917.637518" y="401.23363" transform="rotate(-0 917.637518 401.23363)">1,457</text>
   </g>
   <g id="text_48">
    <g id="patch_46">
     <path d="M 891.807831 375.254457 
L 943.467206 375.254457 
Q 959.467206 375.254457 959.467206 359.254457 
L 959.467206 366.532582 
Q 959.467206 350.532582 943.467206 350.532582 
L 891.807831 350.532582 
Q 875.807831 350.532582 875.807831 366.532582 
L 875.807831 359.254457 
Q 875.807831 375.254457 891.807831 375.254457 
z
" style="fill: #ffffff; stroke: #002f2a; stroke-width: 1.5; stroke-linejoin: miter"/>
    </g>
    <text style="font-weight: 700; font-size: 20px; font-family: 'Montserrat'; text-anchor: middle; fill: #10302c" x="917.637518" y="368.373207" transform="rotate(-0 917.637518 368.373207)">  2,427  </text>
   </g>
   <g id="text_49">
    <text style="font-weight: 600; font-size: 22px; font-family: 'Montserrat'; text-anchor: middle; fill: #4c6a67" x="917.637518" y="324.896529" transform="rotate(-0 917.637518 324.896529)">4.2%</text>
   </g>
   <g id="text_50">
    <text style="font-weight: 500; font-size: 24px; font-family: 'Montserrat'; text-anchor: middle; fill: #ffffff" x="1004.702224" y="395.948803" transform="rotate(-0 1004.702224 395.948803)">1,919</text>
   </g>
   <g id="text_51">
    <g id="patch_47">
     <path d="M 978.522537 366.281427 
L 1030.881912 366.281427 
Q 1046.881912 366.281427 1046.881912 350.281427 
L 1046.881912 357.559552 
Q 1046.881912 341.559552 1030.881912 341.559552 
L 978.522537 341.559552 
Q 962.522537 341.559552 962.522537 357.559552 
L 962.522537 350.281427 
Q 962.522537 366.281427 978.522537 366.281427 
z
" style="fill: #ffffff; stroke: #002f2a; stroke-width: 1.5; stroke-linejoin: miter"/>
    </g>
    <text style="font-weight: 700; font-size: 20px; font-family: 'Montserrat'; text-anchor: middle; fill: #10302c" x="1004.702224" y="359.400177" transform="rotate(-0 1004.702224 359.400177)">  2,989  </text>
   </g>
   <g id="text_52">
    <text style="font-weight: 600; font-size: 22px; font-family: 'Montserrat'; text-anchor: middle; fill: #4c6a67" x="1004.702224" y="315.923499" transform="rotate(-0 1004.702224 315.923499)">5.2%</text>
   </g>
   <g id="text_53">
    <text style="font-weight: 500; font-size: 24px; font-family: 'Montserrat'; text-anchor: middle; fill: #ffffff" x="1091.76693" y="403.979824" transform="rotate(-0 1091.76693 403.979824)">1,797</text>
   </g>
   <g id="text_54">
    <g id="patch_48">
     <path d="M 1066.187243 375.286389 
L 1117.346618 375.286389 
Q 1133.346618 375.286389 1133.346618 359.286389 
L 1133.346618 366.564514 
Q 1133.346618 350.564514 1117.346618 350.564514 
L 1066.187243 350.564514 
Q 1050.187243 350.564514 1050.187243 366.564514 
L 1050.187243 359.286389 
Q 1050.187243 375.286389 1066.187243 375.286389 
z
" style="fill: #ffffff; stroke: #002f2a; stroke-width: 1.5; stroke-linejoin: miter"/>
    </g>
    <text style="font-weight: 700; font-size: 20px; font-family: 'Montserrat'; text-anchor: middle; fill: #10302c" x="1091.76693" y="368.405139" transform="rotate(-0 1091.76693 368.405139)">  2,425  </text>
   </g>
   <g id="text_55">
    <text style="font-weight: 600; font-size: 22px; font-family: 'Montserrat'; text-anchor: middle; fill: #4c6a67" x="1091.76693" y="324.928462" transform="rotate(-0 1091.76693 324.928462)">4.2%</text>
   </g>
   <g id="text_56">
    <text style="font-weight: 500; font-size: 24px; font-family: 'Montserrat'; text-anchor: middle; fill: #ffffff" x="1178.831636" y="399.261798" transform="rotate(-0 1178.831636 399.261798)">2,274</text>
   </g>
   <g id="text_57">
    <g id="patch_49">
     <path d="M 1153.301949 366.760415 
L 1204.361324 366.760415 
Q 1220.361324 366.760415 1220.361324 350.760415 
L 1220.361324 358.03854 
Q 1220.361324 342.03854 1204.361324 342.03854 
L 1153.301949 342.03854 
Q 1137.301949 342.03854 1137.301949 358.03854 
L 1137.301949 350.760415 
Q 1137.301949 366.760415 1153.301949 366.760415 
z
" style="fill: #ffffff; stroke: #002f2a; stroke-width: 1.5; stroke-linejoin: miter"/>
    </g>
    <text style="font-weight: 700; font-size: 20px; font-family: 'Montserrat'; text-anchor: middle; fill: #10302c" x="1178.831636" y="359.879165" transform="rotate(-0 1178.831636 359.879165)">  2,959  </text>
   </g>
   <g id="text_58">
    <text style="font-weight: 600; font-size: 22px; font-family: 'Montserrat'; text-anchor: middle; fill: #4c6a67" x="1178.831636" y="316.402487" transform="rotate(-0 1178.831636 316.402487)">5.1%</text>
   </g>
   <g id="text_59">
    <text style="font-weight: 500; font-size: 24px; font-family: 'Montserrat'; text-anchor: middle; fill: #ffffff" x="1265.896342" y="418.868347" transform="rotate(-0 1265.896342 418.868347)">1,188</text>
   </g>
   <g id="text_60">
    <text style="font-weight: 500; font-size: 24px; font-family: 'Montserrat'; text-anchor: middle; fill: #ffffff" x="1265.896342" y="388.269039" transform="rotate(-0 1265.896342 388.269039)">2,645</text>
   </g>
   <g id="text_61">
    <g id="patch_50">
     <path d="M 1240.596342 352.805916 
L 1291.196342 352.805916 
Q 1307.196342 352.805916 1307.196342 336.805916 
L 1307.196342 344.084041 
Q 1307.196342 328.084041 1291.196342 328.084041 
L 1240.596342 328.084041 
Q 1224.596342 328.084041 1224.596342 344.084041 
L 1224.596342 336.805916 
Q 1224.596342 352.805916 1240.596342 352.805916 
z
" style="fill: #ffffff; stroke: #002f2a; stroke-width: 1.5; stroke-linejoin: miter"/>
    </g>
    <text style="font-weight: 700; font-size: 20px; font-family: 'Montserrat'; text-anchor: middle; fill: #10302c" x="1265.896342" y="345.924666" transform="rotate(-0 1265.896342 345.924666)">  3,833  </text>
   </g>
   <g id="text_62">
    <text style="font-weight: 600; font-size: 22px; font-family: 'Montserrat'; text-anchor: middle; fill: #4c6a67" x="1265.896342" y="302.447989" transform="rotate(-0 1265.896342 302.447989)">6.6%</text>
   </g>
   <g id="text_63">
    <text style="font-weight: 500; font-size: 24px; font-family: 'Montserrat'; text-anchor: middle; fill: #ffffff" x="1352.961048" y="415.267959" transform="rotate(-0 1352.961048 415.267959)">1,639</text>
   </g>
   <g id="text_64">
    <text style="font-weight: 500; font-size: 24px; font-family: 'Montserrat'; text-anchor: middle; fill: #ffffff" x="1352.961048" y="377.300228" transform="rotate(-0 1352.961048 377.300228)">3,117</text>
   </g>
   <g id="text_65">
    <g id="patch_51">
     <path d="M 1326.611048 338.069072 
L 1379.311048 338.069072 
Q 1395.311048 338.069072 1395.311048 322.069072 
L 1395.311048 329.347197 
Q 1395.311048 313.347197 1379.311048 313.347197 
L 1326.611048 313.347197 
Q 1310.611048 313.347197 1310.611048 329.347197 
L 1310.611048 322.069072 
Q 1310.611048 338.069072 1326.611048 338.069072 
z
" style="fill: #ffffff; stroke: #002f2a; stroke-width: 1.5; stroke-linejoin: miter"/>
    </g>
    <text style="font-weight: 700; font-size: 20px; font-family: 'Montserrat'; text-anchor: middle; fill: #10302c" x="1352.961048" y="331.187822" transform="rotate(-0 1352.961048 331.187822)">  4,756  </text>
   </g>
   <g id="text_66">
    <text style="font-weight: 600; font-size: 22px; font-family: 'Montserrat'; text-anchor: middle; fill: #4c6a67" x="1352.961048" y="287.711144" transform="rotate(-0 1352.961048 287.711144)">8.2%</text>
   </g>
   <g id="text_67">
    <text style="font-weight: 500; font-size: 24px; font-family: 'Montserrat'; text-anchor: middle; fill: #ffffff" x="1440.025754" y="416.313748" transform="rotate(-0 1440.025754 416.313748)">1,508</text>
   </g>
   <g id="text_68">
    <text style="font-weight: 500; font-size: 24px; font-family: 'Montserrat'; text-anchor: middle; fill: #ffffff" x="1440.025754" y="381.491368" transform="rotate(-0 1440.025754 381.491368)">2,854</text>
   </g>
   <g id="text_69">
    <g id="patch_52">
     <path d="M 1414.005441 344.359773 
L 1466.046066 344.359773 
Q 1482.046066 344.359773 1482.046066 328.359773 
L 1482.046066 335.637898 
Q 1482.046066 319.637898 1466.046066 319.637898 
L 1414.005441 319.637898 
Q 1398.005441 319.637898 1398.005441 335.637898 
L 1398.005441 328.359773 
Q 1398.005441 344.359773 1414.005441 344.359773 
z
" style="fill: #ffffff; stroke: #002f2a; stroke-width: 1.5; stroke-linejoin: miter"/>
    </g>
    <text style="font-weight: 700; font-size: 20px; font-family: 'Montserrat'; text-anchor: middle; fill: #10302c" x="1440.025754" y="337.478523" transform="rotate(-0 1440.025754 337.478523)">  4,362  </text>
   </g>
   <g id="text_70">
    <text style="font-weight: 600; font-size: 22px; font-family: 'Montserrat'; text-anchor: middle; fill: #4c6a67" x="1440.025754" y="294.001845" transform="rotate(-0 1440.025754 294.001845)">7.5%</text>
   </g>
   <g id="text_71">
    <text style="font-weight: 500; font-size: 24px; font-family: 'Montserrat'; text-anchor: middle; fill: #ffffff" x="1527.09046" y="381.547249" transform="rotate(-0 1527.09046 381.547249)">5,863</text>
   </g>
   <g id="text_72">
    <text style="font-weight: 500; font-size: 24px; font-family: 'Montserrat'; text-anchor: middle; fill: #ffffff" x="1527.09046" y="225.429305" transform="rotate(-0 1527.09046 225.429305)">13,693</text>
   </g>
   <g id="text_73">
    <g id="patch_53">
     <path d="M 1497.59046 101.768644 
L 1556.59046 101.768644 
Q 1572.59046 101.768644 1572.59046 85.768644 
L 1572.59046 93.046769 
Q 1572.59046 77.046769 1556.59046 77.046769 
L 1497.59046 77.046769 
Q 1481.59046 77.046769 1481.59046 93.046769 
L 1481.59046 85.768644 
Q 1481.59046 101.768644 1497.59046 101.768644 
z
" style="fill: #ffffff; stroke: #002f2a; stroke-width: 1.5; stroke-linejoin: miter"/>
    </g>
    <text style="font-weight: 700; font-size: 20px; font-family: 'Montserrat'; text-anchor: middle; fill: #10302c" x="1527.09046" y="94.887394" transform="rotate(-0 1527.09046 94.887394)">  19,556  </text>
   </g>
   <g id="text_74">
    <text style="font-weight: 600; font-size: 22px; font-family: 'Montserrat'; text-anchor: middle; fill: #4c6a67" x="1527.09046" y="51.410717" transform="rotate(-0 1527.09046 51.410717)">33.7%</text>
   </g>
   <g id="legend_1">
    <g id="patch_54">
     <path d="M 573.131562 35.03625 
L 621.131562 35.03625 
L 621.131562 18.23625 
L 573.131562 18.23625 
z
" style="fill: #10302c"/>
    </g>
    <g id="text_75">
     <text style="font-size: 24px; font-family: 'DejaVu Sans', 'Bitstream Vera Sans', 'Computer Modern Sans Serif', 'Lucida Grande', 'Verdana', 'Geneva', 'Lucid', 'Arial', 'Helvetica', 'Avant Garde', sans-serif; text-anchor: start" x="640.331563" y="35.03625" transform="rotate(-0 640.331563 35.03625)">movimiento</text>
    </g>
    <g id="patch_55">
     <path d="M 831.382812 35.03625 
L 879.382812 35.03625 
L 879.382812 18.23625 
L 831.382812 18.23625 
z
" style="fill: #4c6a67"/>
    </g>
    <g id="text_76">
     <text style="font-size: 24px; font-family: 'DejaVu Sans', 'Bitstream Vera Sans', 'Computer Modern Sans Serif', 'Lucida Grande', 'Verdana', 'Geneva', 'Lucid', 'Arial', 'Helvetica', 'Avant Garde', sans-serif; text-anchor: start" x="898.582813" y="35.03625" transform="rotate(-0 898.582813 35.03625)">sin_movimiento</text>
    </g>
   </g>
  </g>
 </g>
 <defs>
  <clipPath id="p5b55360424">
   <rect x="90.522813" y="26.798272" width="1480.1" height="394.9784"/>
  </clipPath>
 </defs>
</svg>
