<svg xmlns="http://www.w3.org/2000/svg" xmlns:xlink="http://www.w3.org/1999/xlink" width="1275.68" height="478.867" viewBox="0 0 956.76 359.15"><defs><style>*{stroke-linejoin:round;stroke-linecap:butt}</style></defs><path fill="#fff" d="M0 359.15h956.76V0H0z"/><path fill="#fff" d="M78.284 295.49h825.84V7.2H78.284z"/><defs><path id="d" stroke="#d4dce9" d="M115.82-76.769v-9.7l30.011-11.864 30.011-18.001 30.011-5.605 30.093-.018 30.011-19.371 30.011-6.882 30.011-3.833 30.093-12.449 30.011-12.593 30.011-14.356 30.011-27.997 30.093-26.15 30.011-9.648 30.011-3.972 30.011-21.351 30.093-11.446 30.011-6.38 30.011-26.823 30.011-8.192 30.093-5.45 30.011 205.57 30.011.185 30.011 9.11 30.093-.095 30.011 11.672v35.635H115.82z"/></defs><g clip-path="url(#a)"><use xlink:href="#d" y="359.153" fill="#d4dce9" stroke="#d4dce9"/></g><path fill="#af0b19" d="M870.71 254.13h1.13q2.256 0 2.943-2.332.686-2.315.686-10.037v-13.388q0-8.413.723-12.248.727-3.835 2.518-5.303-1.79-1.348-2.518-5.166-.723-3.835-.723-12.317v-13.388q0-7.67-.687-10.019-.686-2.349-2.942-2.349h-1.13v-7.722h1.017q4.015 0 5.363 3.973 1.347 3.974 1.347 15.893v12.956q0 8.05.867 11.16.872 3.092 3.164 3.092h1.001v7.721h-1.001q-2.292 0-3.164 3.144-.867 3.127-.867 11.28v12.904q0 11.92-1.347 15.91-1.348 4.008-5.363 4.008h-1.017v-7.773z" clip-path="url(#a)"/><path fill="none" stroke="#000" stroke-linecap="square" stroke-opacity=".2" stroke-width=".75" d="M85.811 295.49V7.2" clip-path="url(#a)"/><defs><path id="b" stroke="#000" stroke-width=".8" d="M0 0v3.5"/></defs><use xlink:href="#b" x="85.811" y="282.384" stroke="#000" stroke-width=".8"/><text fill="#767676" font-family="'Montserrat'" font-size="24" font-weight="600" transform="rotate(-90 222.099 129.712)">2000</text><path fill="none" stroke="#000" stroke-linecap="square" stroke-opacity=".2" stroke-width=".75" d="M205.94 295.49V7.2" clip-path="url(#a)"/><use xlink:href="#b" x="205.937" y="282.384" stroke="#000" stroke-width=".8"/><text fill="#767676" font-family="'Montserrat'" font-size="24" font-weight="600" transform="rotate(-90 282.23 69.72)">2004</text><path fill="none" stroke="#000" stroke-linecap="square" stroke-opacity=".2" stroke-width=".75" d="M326.06 295.49V7.2" clip-path="url(#a)"/><use xlink:href="#b" x="326.062" y="282.384" stroke="#000" stroke-width=".8"/><text fill="#767676" font-family="'Montserrat'" font-size="24" font-weight="600" transform="rotate(-90 341.97 9.33)">2008</text><path fill="none" stroke="#000" stroke-linecap="square" stroke-opacity=".2" stroke-width=".75" d="M446.19 295.49V7.2" clip-path="url(#a)"/><use xlink:href="#b" x="446.188" y="282.384" stroke="#000" stroke-width=".8"/><text fill="#767676" font-family="'Montserrat'" font-size="24" font-weight="600" transform="rotate(-90 397.69 -55.07)">2012</text><path fill="none" stroke="#000" stroke-linecap="square" stroke-opacity=".2" stroke-width=".75" d="M566.31 295.49V7.2" clip-path="url(#a)"/><use xlink:href="#b" x="566.313" y="282.384" stroke="#000" stroke-width=".8"/><text fill="#767676" font-family="'Montserrat'" font-size="24" font-weight="600" transform="rotate(-90 458.295 -114.595)">2016</text><path fill="none" stroke="#000" stroke-linecap="square" stroke-opacity=".2" stroke-width=".75" d="M686.44 295.49V7.2" clip-path="url(#a)"/><use xlink:href="#b" x="686.438" y="282.384" stroke="#000" stroke-width=".8"/><text fill="#767676" font-family="'Montserrat'" font-size="24" font-weight="600" transform="rotate(-90 521.315 -171.695)">2020</text><path fill="none" stroke="#000" stroke-linecap="square" stroke-opacity=".2" stroke-width=".75" d="M806.56 295.49V7.2" clip-path="url(#a)"/><use xlink:href="#b" x="806.564" y="282.384" stroke="#000" stroke-width=".8"/><text fill="#767676" font-family="'Montserrat'" font-size="24" font-weight="600" transform="rotate(-90 581.455 -231.685)">2024</text><path fill="none" stroke="#000" stroke-linecap="square" stroke-opacity=".2" stroke-width=".75" d="M78.284 282.38h825.84" clip-path="url(#a)"/><defs><path id="c" stroke="#000" stroke-width=".8" d="M0 0h-3.5"/></defs><use xlink:href="#c" x="78.284" y="282.384" stroke="#000" stroke-width=".8"/><text x="71.284" y="291.288" fill="#767676" font-family="'Montserrat'" font-size="24" font-weight="500" text-anchor="end">0</text><path fill="none" stroke="#000" stroke-linecap="square" stroke-opacity=".2" stroke-width=".75" d="M78.284 216.61h825.84" clip-path="url(#a)"/><use xlink:href="#c" x="78.284" y="216.612" stroke="#000" stroke-width=".8"/><text x="71.284" y="225.516" fill="#767676" font-family="'Montserrat'" font-size="24" font-weight="500" text-anchor="end">1000</text><path fill="none" stroke="#000" stroke-linecap="square" stroke-opacity=".2" stroke-width=".75" d="M78.284 150.84h825.84" clip-path="url(#a)"/><use xlink:href="#c" x="78.284" y="150.84" stroke="#000" stroke-width=".8"/><text x="71.284" y="159.744" fill="#767676" font-family="'Montserrat'" font-size="24" font-weight="500" text-anchor="end">2000</text><path fill="none" stroke="#000" stroke-linecap="square" stroke-opacity=".2" stroke-width=".75" d="M78.284 85.068h825.84" clip-path="url(#a)"/><use xlink:href="#c" x="78.284" y="85.068" stroke="#000" stroke-width=".8"/><text x="71.284" y="93.972" fill="#767676" font-family="'Montserrat'" font-size="24" font-weight="500" text-anchor="end">3000</text><path fill="none" stroke="#000" stroke-linecap="square" stroke-opacity=".2" stroke-width=".75" d="M78.284 19.296h825.84" clip-path="url(#a)"/><use xlink:href="#c" x="78.284" y="19.296" stroke="#000" stroke-width=".8"/><text x="71.284" y="28.2" fill="#767676" font-family="'Montserrat'" font-size="24" font-weight="500" text-anchor="end">4000</text><path fill="none" stroke="#2f5597" stroke-linecap="square" stroke-width="2" d="m115.82 272.68 30.011-11.865 30.011-18.001 30.011-5.605 30.093-.018 30.011-19.37 30.011-6.883 30.011-3.833 30.093-12.449 30.011-12.593 30.011-14.356 30.011-27.997 30.093-26.15 30.011-9.648 30.011-3.972 30.011-21.351 30.093-11.446 30.011-6.38 30.011-26.823 30.011-8.191 30.093-5.45 30.011 205.57 30.011.185 30.011 9.11 30.093-.095 30.011 11.672" clip-path="url(#a)"/><path fill="none" stroke="#c00000" stroke-dasharray="7.4,3.2" stroke-width="2" d="m115.82 150.35 30.011-.19 30.011-.102 30.011-.01 30.093-.236 30.011-.097 30.011-.308 30.011-.114 30.093-.517 30.011-.338 30.011-.76 30.011-.494 30.093-.056 30.011-.625 30.011-.369 30.011-.216 30.093-.018 30.011-.255 30.011-1.21 30.011-.079 30.093-.072 30.011 5.918 30.011-2.663 30.011-2.74 30.093 2.584 30.011 3.223" clip-path="url(#a)"/><path fill="none" stroke="#000" stroke-linecap="square" stroke-width="2" d="M78.284 282.38h825.84"/><path fill="#af0b19" d="M915.85 221.22h20.396q17.82 0 17.82-17.82v9.79q0-17.82-17.82-17.82H915.85q-17.82 0-17.82 17.82v-9.79q0 17.82 17.82 17.82"/><text x="926.046" y="213.223" fill="#fff" font-family="'Montserrat'" font-size="18" font-weight="500" text-anchor="middle">-1462</text><defs><clipPath id="a"><path d="M78.284 7.2h825.84v288.29H78.284z"/></clipPath></defs></svg>