<svg xmlns="http://www.w3.org/2000/svg" width="856.72pt" height="373.653" viewBox="0 0 856.72 280.24"><defs><style>*{stroke-linejoin:round;stroke-linecap:butt}</style></defs><path fill="#fff" d="M0 280.24h856.72V0H0z"/><path fill="#fff" d="M33.288 256.36h816.23V11H33.288z"/><text x="70.389" y="270.958" font-family="'DejaVu Sans', 'Bitstream Vera Sans', 'Computer Modern Sans Serif', 'Lucida Grande', 'Verdana', 'Geneva', 'Lucid', 'Arial', 'Helvetica', 'Avant Garde', sans-serif" font-size="10" font-weight="700" text-anchor="end">2013</text><text x="137.846" y="270.958" font-family="'DejaVu Sans', 'Bitstream Vera Sans', 'Computer Modern Sans Serif', 'Lucida Grande', 'Verdana', 'Geneva', 'Lucid', 'Arial', 'Helvetica', 'Avant Garde', sans-serif" font-size="10" font-weight="700" text-anchor="end">2014</text><text x="205.303" y="270.958" font-family="'DejaVu Sans', 'Bitstream Vera Sans', 'Computer Modern Sans Serif', 'Lucida Grande', 'Verdana', 'Geneva', 'Lucid', 'Arial', 'Helvetica', 'Avant Garde', sans-serif" font-size="10" font-weight="700" text-anchor="end">2015</text><text x="272.76" y="270.958" font-family="'DejaVu Sans', 'Bitstream Vera Sans', 'Computer Modern Sans Serif', 'Lucida Grande', 'Verdana', 'Geneva', 'Lucid', 'Arial', 'Helvetica', 'Avant Garde', sans-serif" font-size="10" font-weight="700" text-anchor="end">2016</text><text x="340.217" y="270.958" font-family="'DejaVu Sans', 'Bitstream Vera Sans', 'Computer Modern Sans Serif', 'Lucida Grande', 'Verdana', 'Geneva', 'Lucid', 'Arial', 'Helvetica', 'Avant Garde', sans-serif" font-size="10" font-weight="700" text-anchor="end">2017</text><text x="407.674" y="270.958" font-family="'DejaVu Sans', 'Bitstream Vera Sans', 'Computer Modern Sans Serif', 'Lucida Grande', 'Verdana', 'Geneva', 'Lucid', 'Arial', 'Helvetica', 'Avant Garde', sans-serif" font-size="10" font-weight="700" text-anchor="end">2018</text><text x="475.131" y="270.958" font-family="'DejaVu Sans', 'Bitstream Vera Sans', 'Computer Modern Sans Serif', 'Lucida Grande', 'Verdana', 'Geneva', 'Lucid', 'Arial', 'Helvetica', 'Avant Garde', sans-serif" font-size="10" font-weight="700" text-anchor="end">2019</text><text x="542.588" y="270.958" font-family="'DejaVu Sans', 'Bitstream Vera Sans', 'Computer Modern Sans Serif', 'Lucida Grande', 'Verdana', 'Geneva', 'Lucid', 'Arial', 'Helvetica', 'Avant Garde', sans-serif" font-size="10" font-weight="700" text-anchor="end">2020</text><text x="610.045" y="270.958" font-family="'DejaVu Sans', 'Bitstream Vera Sans', 'Computer Modern Sans Serif', 'Lucida Grande', 'Verdana', 'Geneva', 'Lucid', 'Arial', 'Helvetica', 'Avant Garde', sans-serif" font-size="10" font-weight="700" text-anchor="end">2021</text><text x="677.502" y="270.958" font-family="'DejaVu Sans', 'Bitstream Vera Sans', 'Computer Modern Sans Serif', 'Lucida Grande', 'Verdana', 'Geneva', 'Lucid', 'Arial', 'Helvetica', 'Avant Garde', sans-serif" font-size="10" font-weight="700" text-anchor="end">2022</text><text x="744.959" y="270.958" font-family="'DejaVu Sans', 'Bitstream Vera Sans', 'Computer Modern Sans Serif', 'Lucida Grande', 'Verdana', 'Geneva', 'Lucid', 'Arial', 'Helvetica', 'Avant Garde', sans-serif" font-size="10" font-weight="700" text-anchor="end">2023</text><text x="812.416" y="270.958" font-family="'DejaVu Sans', 'Bitstream Vera Sans', 'Computer Modern Sans Serif', 'Lucida Grande', 'Verdana', 'Geneva', 'Lucid', 'Arial', 'Helvetica', 'Avant Garde', sans-serif" font-size="10" font-weight="700" text-anchor="end">2024</text><text x="26.288" y="229.321" font-family="'DejaVu Sans', 'Bitstream Vera Sans', 'Computer Modern Sans Serif', 'Lucida Grande', 'Verdana', 'Geneva', 'Lucid', 'Arial', 'Helvetica', 'Avant Garde', sans-serif" font-size="10" text-anchor="end">$5</text><text x="26.288" y="175.69" font-family="'DejaVu Sans', 'Bitstream Vera Sans', 'Computer Modern Sans Serif', 'Lucida Grande', 'Verdana', 'Geneva', 'Lucid', 'Arial', 'Helvetica', 'Avant Garde', sans-serif" font-size="10" text-anchor="end">$8</text><text x="26.288" y="122.06" font-family="'DejaVu Sans', 'Bitstream Vera Sans', 'Computer Modern Sans Serif', 'Lucida Grande', 'Verdana', 'Geneva', 'Lucid', 'Arial', 'Helvetica', 'Avant Garde', sans-serif" font-size="10" text-anchor="end">$10</text><text x="26.288" y="68.429" font-family="'DejaVu Sans', 'Bitstream Vera Sans', 'Computer Modern Sans Serif', 'Lucida Grande', 'Verdana', 'Geneva', 'Lucid', 'Arial', 'Helvetica', 'Avant Garde', sans-serif" font-size="10" text-anchor="end">$12</text><text x="26.288" y="14.798" font-family="'DejaVu Sans', 'Bitstream Vera Sans', 'Computer Modern Sans Serif', 'Lucida Grande', 'Verdana', 'Geneva', 'Lucid', 'Arial', 'Helvetica', 'Avant Garde', sans-serif" font-size="10" text-anchor="end">$15</text><path fill="none" stroke="#10302c" stroke-linecap="square" stroke-opacity=".3" stroke-width="1.5" d="m70.389 105.17 67.457 8.58 67.457 2.146 67.457 9.44 67.457 1.286 67.457 1.93 67.457 7.295 67.457.858 67.457 8.58 67.457 4.291h67.457l67.457 5.363M70.389 145.5l67.457 5.792 67.457.858 67.457 1.502 67.457 4.076 67.457 4.29 67.457-1.716 67.457 7.508 67.457 2.145 67.457.43 67.457 10.726 67.457 2.574M70.389 96.808l67.457 5.578 67.457 1.072 67.457 8.581 67.457.858 67.457 5.578 202.37 14.802 67.457 4.72 67.457 4.933 67.457 3.647M70.389 148.94l67.457 8.152 67.457 3.218 67.457 3.432 67.457-2.145 67.457 3.218 67.457 5.792 67.457 4.505 67.457 2.36 67.457 1.501 67.457 8.367 67.457-1.717" clip-path="url(#a)"/><path fill="none" stroke="#10302c" stroke-linecap="square" stroke-opacity=".3" stroke-width="1.5" d="m70.389 105.6 67.457 6.007 67.457 7.722 67.457 4.076 67.457 5.578 67.457 4.72h67.457l67.457 5.792 67.457 1.072 67.457 6.221 67.457 1.073 67.457 8.152M70.389 72.138l67.457 6.436 67.457 6.65L272.76 90.8l67.457 6.865 67.457 1.93 67.457 4.077 67.457 7.294 67.457.214 67.457 9.225 67.457 6.435 67.457-2.574M70.389 23.227l67.457 3.003 67.457 8.367 67.457 6.22 67.457 2.146 67.457 10.726 67.457 3.003 67.457 3.433 67.457 10.297 67.457 2.36 67.457 9.224 67.457 3.218" clip-path="url(#a)"/><path fill="none" stroke="#8b0000" stroke-linecap="square" stroke-width="1.5" d="m70.389 134.78 67.457 15.231 67.457 16.304 67.457 9.654 67.457 6.22 67.457 18.664 67.457 5.792 67.457 9.439 67.457 6.864 67.457 6.436 67.457 5.149 67.457 10.726" clip-path="url(#a)"/><path fill="none" stroke="#10302c" stroke-linecap="square" stroke-opacity=".3" stroke-width="1.5" d="m70.389 58.623 67.457 5.149h67.457l67.457 8.151 67.457 5.363 67.457 6.007 67.457 5.149 67.457.214 67.457 12.657 67.457 3.647 67.457 3.003h67.457M70.389 108.39l67.457 5.149 67.457 3.86 67.457 2.146 67.457 8.796 67.457 4.075 67.457 6.007 67.457-1.287 67.457 4.934 67.457 6.221 67.457-5.148 67.457 8.58" clip-path="url(#a)"/><path fill="none" stroke="#000" stroke-linecap="square" stroke-width=".8" d="M33.288 256.36V11M33.288 256.36h816.23"/><defs><clipPath id="a"><path d="M33.288 10.999h816.23v245.36H33.288z"/></clipPath></defs></svg>