<?xml version="1.0" encoding="utf-8" standalone="no"?>
<!DOCTYPE svg PUBLIC "-//W3C//DTD SVG 1.1//EN"
  "http://www.w3.org/Graphics/SVG/1.1/DTD/svg11.dtd">
<svg xmlns:xlink="http://www.w3.org/1999/xlink" width="856.7175pt" height="280.237344pt" viewBox="0 0 856.7175 280.237344" xmlns="http://www.w3.org/2000/svg" version="1.1">
 <metadata>
  <rdf:RDF xmlns:dc="http://purl.org/dc/elements/1.1/" xmlns:cc="http://creativecommons.org/ns#" xmlns:rdf="http://www.w3.org/1999/02/22-rdf-syntax-ns#">
   <cc:Work>
    <dc:type rdf:resource="http://purl.org/dc/dcmitype/StillImage"/>
    <dc:date>2025-05-29T16:21:44.065500</dc:date>
    <dc:format>image/svg+xml</dc:format>
    <dc:creator>
     <cc:Agent>
      <dc:title>Matplotlib v3.10.0, https://matplotlib.org/</dc:title>
     </cc:Agent>
    </dc:creator>
   </cc:Work>
  </rdf:RDF>
 </metadata>
 <defs>
  <style type="text/css">*{stroke-linejoin: round; stroke-linecap: butt}</style>
 </defs>
 <g id="figure_1">
  <g id="patch_1">
   <path d="M 0 280.237344 
L 856.7175 280.237344 
L 856.7175 0 
L 0 0 
z
" style="fill: #ffffff"/>
  </g>
  <g id="axes_1">
   <g id="patch_2">
    <path d="M 33.2875 256.359219 
L 849.5175 256.359219 
L 849.5175 10.999219 
L 33.2875 10.999219 
z
" style="fill: #ffffff"/>
   </g>
   <g id="matplotlib.axis_1">
    <g id="xtick_1">
     <g id="text_1">
      <text style="font-weight: 700; font-size: 10px; font-family: 'DejaVu Sans', 'Bitstream Vera Sans', 'Computer Modern Sans Serif', 'Lucida Grande', 'Verdana', 'Geneva', 'Lucid', 'Arial', 'Helvetica', 'Avant Garde', sans-serif; text-anchor: end" x="70.388864" y="270.957656" transform="rotate(-0 70.388864 270.957656)">2013</text>
     </g>
    </g>
    <g id="xtick_2">
     <g id="text_2">
      <text style="font-weight: 700; font-size: 10px; font-family: 'DejaVu Sans', 'Bitstream Vera Sans', 'Computer Modern Sans Serif', 'Lucida Grande', 'Verdana', 'Geneva', 'Lucid', 'Arial', 'Helvetica', 'Avant Garde', sans-serif; text-anchor: end" x="137.845888" y="270.957656" transform="rotate(-0 137.845888 270.957656)">2014</text>
     </g>
    </g>
    <g id="xtick_3">
     <g id="text_3">
      <text style="font-weight: 700; font-size: 10px; font-family: 'DejaVu Sans', 'Bitstream Vera Sans', 'Computer Modern Sans Serif', 'Lucida Grande', 'Verdana', 'Geneva', 'Lucid', 'Arial', 'Helvetica', 'Avant Garde', sans-serif; text-anchor: end" x="205.302913" y="270.957656" transform="rotate(-0 205.302913 270.957656)">2015</text>
     </g>
    </g>
    <g id="xtick_4">
     <g id="text_4">
      <text style="font-weight: 700; font-size: 10px; font-family: 'DejaVu Sans', 'Bitstream Vera Sans', 'Computer Modern Sans Serif', 'Lucida Grande', 'Verdana', 'Geneva', 'Lucid', 'Arial', 'Helvetica', 'Avant Garde', sans-serif; text-anchor: end" x="272.759938" y="270.957656" transform="rotate(-0 272.759938 270.957656)">2016</text>
     </g>
    </g>
    <g id="xtick_5">
     <g id="text_5">
      <text style="font-weight: 700; font-size: 10px; font-family: 'DejaVu Sans', 'Bitstream Vera Sans', 'Computer Modern Sans Serif', 'Lucida Grande', 'Verdana', 'Geneva', 'Lucid', 'Arial', 'Helvetica', 'Avant Garde', sans-serif; text-anchor: end" x="340.216963" y="270.957656" transform="rotate(-0 340.216963 270.957656)">2017</text>
     </g>
    </g>
    <g id="xtick_6">
     <g id="text_6">
      <text style="font-weight: 700; font-size: 10px; font-family: 'DejaVu Sans', 'Bitstream Vera Sans', 'Computer Modern Sans Serif', 'Lucida Grande', 'Verdana', 'Geneva', 'Lucid', 'Arial', 'Helvetica', 'Avant Garde', sans-serif; text-anchor: end" x="407.673988" y="270.957656" transform="rotate(-0 407.673988 270.957656)">2018</text>
     </g>
    </g>
    <g id="xtick_7">
     <g id="text_7">
      <text style="font-weight: 700; font-size: 10px; font-family: 'DejaVu Sans', 'Bitstream Vera Sans', 'Computer Modern Sans Serif', 'Lucida Grande', 'Verdana', 'Geneva', 'Lucid', 'Arial', 'Helvetica', 'Avant Garde', sans-serif; text-anchor: end" x="475.131012" y="270.957656" transform="rotate(-0 475.131012 270.957656)">2019</text>
     </g>
    </g>
    <g id="xtick_8">
     <g id="text_8">
      <text style="font-weight: 700; font-size: 10px; font-family: 'DejaVu Sans', 'Bitstream Vera Sans', 'Computer Modern Sans Serif', 'Lucida Grande', 'Verdana', 'Geneva', 'Lucid', 'Arial', 'Helvetica', 'Avant Garde', sans-serif; text-anchor: end" x="542.588037" y="270.957656" transform="rotate(-0 542.588037 270.957656)">2020</text>
     </g>
    </g>
    <g id="xtick_9">
     <g id="text_9">
      <text style="font-weight: 700; font-size: 10px; font-family: 'DejaVu Sans', 'Bitstream Vera Sans', 'Computer Modern Sans Serif', 'Lucida Grande', 'Verdana', 'Geneva', 'Lucid', 'Arial', 'Helvetica', 'Avant Garde', sans-serif; text-anchor: end" x="610.045062" y="270.957656" transform="rotate(-0 610.045062 270.957656)">2021</text>
     </g>
    </g>
    <g id="xtick_10">
     <g id="text_10">
      <text style="font-weight: 700; font-size: 10px; font-family: 'DejaVu Sans', 'Bitstream Vera Sans', 'Computer Modern Sans Serif', 'Lucida Grande', 'Verdana', 'Geneva', 'Lucid', 'Arial', 'Helvetica', 'Avant Garde', sans-serif; text-anchor: end" x="677.502087" y="270.957656" transform="rotate(-0 677.502087 270.957656)">2022</text>
     </g>
    </g>
    <g id="xtick_11">
     <g id="text_11">
      <text style="font-weight: 700; font-size: 10px; font-family: 'DejaVu Sans', 'Bitstream Vera Sans', 'Computer Modern Sans Serif', 'Lucida Grande', 'Verdana', 'Geneva', 'Lucid', 'Arial', 'Helvetica', 'Avant Garde', sans-serif; text-anchor: end" x="744.959112" y="270.957656" transform="rotate(-0 744.959112 270.957656)">2023</text>
     </g>
    </g>
    <g id="xtick_12">
     <g id="text_12">
      <text style="font-weight: 700; font-size: 10px; font-family: 'DejaVu Sans', 'Bitstream Vera Sans', 'Computer Modern Sans Serif', 'Lucida Grande', 'Verdana', 'Geneva', 'Lucid', 'Arial', 'Helvetica', 'Avant Garde', sans-serif; text-anchor: end" x="812.416136" y="270.957656" transform="rotate(-0 812.416136 270.957656)">2024</text>
     </g>
    </g>
   </g>
   <g id="matplotlib.axis_2">
    <g id="ytick_1">
     <g id="text_13">
      <text style="font-size: 10px; font-family: 'DejaVu Sans', 'Bitstream Vera Sans', 'Computer Modern Sans Serif', 'Lucida Grande', 'Verdana', 'Geneva', 'Lucid', 'Arial', 'Helvetica', 'Avant Garde', sans-serif; text-anchor: end" x="26.2875" y="229.320842" transform="rotate(-0 26.2875 229.320842)">$5</text>
     </g>
    </g>
    <g id="ytick_2">
     <g id="text_14">
      <text style="font-size: 10px; font-family: 'DejaVu Sans', 'Bitstream Vera Sans', 'Computer Modern Sans Serif', 'Lucida Grande', 'Verdana', 'Geneva', 'Lucid', 'Arial', 'Helvetica', 'Avant Garde', sans-serif; text-anchor: end" x="26.2875" y="175.690241" transform="rotate(-0 26.2875 175.690241)">$8</text>
     </g>
    </g>
    <g id="ytick_3">
     <g id="text_15">
      <text style="font-size: 10px; font-family: 'DejaVu Sans', 'Bitstream Vera Sans', 'Computer Modern Sans Serif', 'Lucida Grande', 'Verdana', 'Geneva', 'Lucid', 'Arial', 'Helvetica', 'Avant Garde', sans-serif; text-anchor: end" x="26.2875" y="122.05964" transform="rotate(-0 26.2875 122.05964)">$10</text>
     </g>
    </g>
    <g id="ytick_4">
     <g id="text_16">
      <text style="font-size: 10px; font-family: 'DejaVu Sans', 'Bitstream Vera Sans', 'Computer Modern Sans Serif', 'Lucida Grande', 'Verdana', 'Geneva', 'Lucid', 'Arial', 'Helvetica', 'Avant Garde', sans-serif; text-anchor: end" x="26.2875" y="68.429039" transform="rotate(-0 26.2875 68.429039)">$12</text>
     </g>
    </g>
    <g id="ytick_5">
     <g id="text_17">
      <text style="font-size: 10px; font-family: 'DejaVu Sans', 'Bitstream Vera Sans', 'Computer Modern Sans Serif', 'Lucida Grande', 'Verdana', 'Geneva', 'Lucid', 'Arial', 'Helvetica', 'Avant Garde', sans-serif; text-anchor: end" x="26.2875" y="14.798438" transform="rotate(-0 26.2875 14.798438)">$15</text>
     </g>
    </g>
   </g>
   <g id="line2d_1">
    <path d="M 70.388864 105.174554 
L 137.845888 113.75545 
L 205.302913 115.900674 
L 272.759938 125.33966 
L 340.216963 126.626795 
L 407.673988 128.557496 
L 475.131012 135.851258 
L 542.588037 136.709348 
L 610.045062 145.290244 
L 677.502087 149.580692 
L 744.959112 149.580692 
L 812.416136 154.943752 
" clip-path="url(#p8dd4e2d744)" style="fill: none; stroke: #10302c; stroke-opacity: 0.3; stroke-width: 1.5; stroke-linecap: square"/>
   </g>
   <g id="line2d_2">
    <path d="M 70.388864 145.504766 
L 137.845888 151.296871 
L 205.302913 152.154961 
L 272.759938 153.656618 
L 340.216963 157.732543 
L 407.673988 162.022991 
L 475.131012 160.306812 
L 542.588037 167.815096 
L 610.045062 169.96032 
L 677.502087 170.389365 
L 744.959112 181.115485 
L 812.416136 183.689754 
" clip-path="url(#p8dd4e2d744)" style="fill: none; stroke: #10302c; stroke-opacity: 0.3; stroke-width: 1.5; stroke-linecap: square"/>
   </g>
   <g id="line2d_3">
    <path d="M 70.388864 96.80818 
L 137.845888 102.385763 
L 205.302913 103.458375 
L 272.759938 112.039271 
L 340.216963 112.897361 
L 407.673988 118.474943 
L 475.131012 123.408959 
L 542.588037 128.342974 
L 610.045062 133.276989 
L 677.502087 137.996482 
L 744.959112 142.930497 
L 812.416136 146.577378 
" clip-path="url(#p8dd4e2d744)" style="fill: none; stroke: #10302c; stroke-opacity: 0.3; stroke-width: 1.5; stroke-linecap: square"/>
   </g>
   <g id="line2d_4">
    <path d="M 70.388864 148.937125 
L 137.845888 157.088976 
L 205.302913 160.306812 
L 272.759938 163.739171 
L 340.216963 161.593947 
L 407.673988 164.811783 
L 475.131012 170.603888 
L 542.588037 175.108858 
L 610.045062 177.468605 
L 677.502087 178.970261 
L 744.959112 187.336635 
L 812.416136 185.620456 
" clip-path="url(#p8dd4e2d744)" style="fill: none; stroke: #10302c; stroke-opacity: 0.3; stroke-width: 1.5; stroke-linecap: square"/>
   </g>
   <g id="line2d_5">
    <path d="M 70.388864 105.603599 
L 137.845888 111.610226 
L 205.302913 119.333033 
L 272.759938 123.408959 
L 340.216963 128.986541 
L 407.673988 133.706034 
L 475.131012 133.706034 
L 542.588037 139.498139 
L 610.045062 140.570751 
L 677.502087 146.791901 
L 744.959112 147.864513 
L 812.416136 156.016364 
" clip-path="url(#p8dd4e2d744)" style="fill: none; stroke: #10302c; stroke-opacity: 0.3; stroke-width: 1.5; stroke-linecap: square"/>
   </g>
   <g id="line2d_6">
    <path d="M 70.388864 72.138104 
L 137.845888 78.573776 
L 205.302913 85.223971 
L 272.759938 90.801553 
L 340.216963 97.66627 
L 407.673988 99.596972 
L 475.131012 103.672897 
L 542.588037 110.966659 
L 610.045062 111.181182 
L 677.502087 120.405645 
L 744.959112 126.841317 
L 812.416136 124.267048 
" clip-path="url(#p8dd4e2d744)" style="fill: none; stroke: #10302c; stroke-opacity: 0.3; stroke-width: 1.5; stroke-linecap: square"/>
   </g>
   <g id="line2d_7">
    <path d="M 70.388864 23.226996 
L 137.845888 26.230309 
L 205.302913 34.596683 
L 272.759938 40.817833 
L 340.216963 42.963057 
L 407.673988 53.689177 
L 475.131012 56.692491 
L 542.588037 60.124849 
L 610.045062 70.421925 
L 677.502087 72.781671 
L 744.959112 82.006135 
L 812.416136 85.223971 
" clip-path="url(#p8dd4e2d744)" style="fill: none; stroke: #10302c; stroke-opacity: 0.3; stroke-width: 1.5; stroke-linecap: square"/>
   </g>
   <g id="line2d_8">
    <path d="M 70.388864 134.778646 
L 137.845888 150.009737 
L 205.302913 166.31344 
L 272.759938 175.966948 
L 340.216963 182.188097 
L 407.673988 200.851547 
L 475.131012 206.643652 
L 542.588037 216.082637 
L 610.045062 222.947354 
L 677.502087 229.383026 
L 744.959112 234.531564 
L 812.416136 245.257684 
" clip-path="url(#p8dd4e2d744)" style="fill: none; stroke: #8b0000; stroke-width: 1.5; stroke-linecap: square"/>
   </g>
   <g id="line2d_9">
    <path d="M 70.388864 58.623193 
L 137.845888 63.77173 
L 205.302913 63.77173 
L 272.759938 71.923582 
L 340.216963 77.286642 
L 407.673988 83.293269 
L 475.131012 88.441807 
L 542.588037 88.656329 
L 610.045062 101.313151 
L 677.502087 104.960032 
L 744.959112 107.963346 
L 812.416136 107.963346 
" clip-path="url(#p8dd4e2d744)" style="fill: none; stroke: #10302c; stroke-opacity: 0.3; stroke-width: 1.5; stroke-linecap: square"/>
   </g>
   <g id="line2d_10">
    <path d="M 70.388864 108.39239 
L 137.845888 113.540928 
L 205.302913 117.402331 
L 272.759938 119.547555 
L 340.216963 128.342974 
L 407.673988 132.4189 
L 475.131012 138.425527 
L 542.588037 137.138393 
L 610.045062 142.072408 
L 677.502087 148.293558 
L 744.959112 143.14502 
L 812.416136 151.725916 
" clip-path="url(#p8dd4e2d744)" style="fill: none; stroke: #10302c; stroke-opacity: 0.3; stroke-width: 1.5; stroke-linecap: square"/>
   </g>
   <g id="patch_3">
    <path d="M 33.2875 256.359219 
L 33.2875 10.999219 
" style="fill: none; stroke: #000000; stroke-width: 0.8; stroke-linejoin: miter; stroke-linecap: square"/>
   </g>
   <g id="patch_4">
    <path d="M 33.2875 256.359219 
L 849.5175 256.359219 
" style="fill: none; stroke: #000000; stroke-width: 0.8; stroke-linejoin: miter; stroke-linecap: square"/>
   </g>
  </g>
 </g>
 <defs>
  <clipPath id="p8dd4e2d744">
   <rect x="33.2875" y="10.999219" width="816.23" height="245.36"/>
  </clipPath>
 </defs>
</svg>
