<?xml version="1.0" encoding="utf-8" standalone="no"?>
<!DOCTYPE svg PUBLIC "-//W3C//DTD SVG 1.1//EN"
  "http://www.w3.org/Graphics/SVG/1.1/DTD/svg11.dtd">
<svg xmlns:xlink="http://www.w3.org/1999/xlink" width="958.445pt" height="415.358705pt" viewBox="0 0 958.445 415.358705" xmlns="http://www.w3.org/2000/svg" version="1.1">
 <metadata>
  <rdf:RDF xmlns:dc="http://purl.org/dc/elements/1.1/" xmlns:cc="http://creativecommons.org/ns#" xmlns:rdf="http://www.w3.org/1999/02/22-rdf-syntax-ns#">
   <cc:Work>
    <dc:type rdf:resource="http://purl.org/dc/dcmitype/StillImage"/>
    <dc:date>2025-05-21T14:50:50.245328</dc:date>
    <dc:format>image/svg+xml</dc:format>
    <dc:creator>
     <cc:Agent>
      <dc:title>Matplotlib v3.10.0, https://matplotlib.org/</dc:title>
     </cc:Agent>
    </dc:creator>
   </cc:Work>
  </rdf:RDF>
 </metadata>
 <defs>
  <style type="text/css">*{stroke-linejoin: round; stroke-linecap: butt}</style>
 </defs>
 <g id="figure_1">
  <g id="patch_1">
   <path d="M 0 415.358705 
L 958.445 415.358705 
L 958.445 -0 
L 0 -0 
z
" style="fill: #ffffff"/>
  </g>
  <g id="axes_1">
   <g id="patch_2">
    <path d="M 125.405 314.3168 
L 951.245 314.3168 
L 951.245 26.0288 
L 125.405 26.0288 
z
" style="fill: #ffffff"/>
   </g>
   <g id="FillBetweenPolyCollection_1">
    <path d="M 162.943182 308.284836 
L 162.943182 314.3168 
L 192.953994 314.3168 
L 222.964806 314.3168 
L 252.975619 314.3168 
L 283.068652 314.3168 
L 313.079465 314.3168 
L 343.090277 314.3168 
L 373.101089 314.3168 
L 403.194123 314.3168 
L 433.204935 314.3168 
L 463.215748 314.3168 
L 493.22656 314.3168 
L 523.319594 314.3168 
L 553.330406 314.3168 
L 583.341218 314.3168 
L 613.352031 314.3168 
L 643.445065 314.3168 
L 673.455877 314.3168 
L 703.466689 314.3168 
L 733.477501 314.3168 
L 763.570535 314.3168 
L 793.581348 314.3168 
L 823.59216 314.3168 
L 853.602972 314.3168 
L 883.696006 314.3168 
L 913.706818 314.3168 
L 913.706818 303.208602 
L 913.706818 303.208602 
L 883.696006 303.827084 
L 853.602972 304.596671 
L 823.59216 300.738369 
L 793.581348 300.121308 
L 763.570535 256.074845 
L 733.477501 256.297435 
L 703.466689 260.212083 
L 673.455877 261.127937 
L 643.445065 261.959917 
L 613.352031 270.849222 
L 583.341218 276.068573 
L 553.330406 282.01403 
L 523.319594 282.541031 
L 493.22656 284.570808 
L 463.215748 288.672285 
L 433.204935 289.172714 
L 403.194123 291.27797 
L 373.101089 293.942742 
L 343.090277 294.871269 
L 313.079465 296.679057 
L 283.068652 296.766438 
L 252.975619 300.400824 
L 222.964806 301.689546 
L 192.953994 306.955349 
L 162.943182 308.284836 
z
" clip-path="url(#p0dcc83595f)" style="fill: #006157; fill-opacity: 0.8"/>
   </g>
   <g id="FillBetweenPolyCollection_2">
    <path d="M 162.943182 303.626146 
L 162.943182 308.284836 
L 192.953994 306.955349 
L 222.964806 301.689546 
L 252.975619 300.400824 
L 283.068652 296.766438 
L 313.079465 296.679057 
L 343.090277 294.871269 
L 373.101089 293.942742 
L 403.194123 291.27797 
L 433.204935 289.172714 
L 463.215748 288.672285 
L 493.22656 284.570808 
L 523.319594 282.541031 
L 553.330406 282.01403 
L 583.341218 276.068573 
L 613.352031 270.849222 
L 643.445065 261.959917 
L 673.455877 261.127937 
L 703.466689 260.212083 
L 733.477501 256.297435 
L 763.570535 256.074845 
L 793.581348 300.121308 
L 823.59216 300.738369 
L 853.602972 304.596671 
L 883.696006 303.827084 
L 913.706818 303.208602 
L 913.706818 292.030142 
L 913.706818 292.030142 
L 883.696006 293.209398 
L 853.602972 292.795369 
L 823.59216 288.784027 
L 793.581348 290.916617 
L 763.570535 204.860503 
L 733.477501 206.26566 
L 703.466689 210.238066 
L 673.455877 212.018418 
L 643.445065 213.226253 
L 613.352031 224.406908 
L 583.341218 237.706972 
L 553.330406 244.483723 
L 523.319594 245.907144 
L 493.22656 248.249663 
L 463.215748 256.058708 
L 433.204935 257.870824 
L 403.194123 261.001716 
L 373.101089 264.331152 
L 343.090277 272.583719 
L 313.079465 276.389647 
L 283.068652 278.810903 
L 252.975619 285.496598 
L 222.964806 288.459632 
L 192.953994 301.440969 
L 162.943182 303.626146 
z
" clip-path="url(#p0dcc83595f)" style="fill: #767676; fill-opacity: 0.8"/>
   </g>
   <g id="FillBetweenPolyCollection_3">
    <path d="M 162.943182 299.003981 
L 162.943182 303.626146 
L 192.953994 301.440969 
L 222.964806 288.459632 
L 252.975619 285.496598 
L 283.068652 278.810903 
L 313.079465 276.389647 
L 343.090277 272.583719 
L 373.101089 264.331152 
L 403.194123 261.001716 
L 433.204935 257.870824 
L 463.215748 256.058708 
L 493.22656 248.249663 
L 523.319594 245.907144 
L 553.330406 244.483723 
L 583.341218 237.706972 
L 613.352031 224.406908 
L 643.445065 213.226253 
L 673.455877 212.018418 
L 703.466689 210.238066 
L 733.477501 206.26566 
L 763.570535 204.860503 
L 793.581348 290.916617 
L 823.59216 288.784027 
L 853.602972 292.795369 
L 883.696006 293.209398 
L 913.706818 292.030142 
L 913.706818 288.509696 
L 913.706818 288.509696 
L 883.696006 285.570203 
L 853.602972 291.190924 
L 823.59216 281.330639 
L 793.581348 282.585453 
L 763.570535 159.683826 
L 733.477501 161.60813 
L 703.466689 165.89251 
L 673.455877 169.217273 
L 643.445065 170.586046 
L 613.352031 182.255993 
L 583.341218 203.102518 
L 553.330406 211.31074 
L 523.319594 216.648636 
L 493.22656 223.905726 
L 463.215748 233.616856 
L 433.204935 236.108421 
L 403.194123 240.952283 
L 373.101089 247.174307 
L 343.090277 256.056649 
L 313.079465 262.554786 
L 283.068652 265.207014 
L 252.975619 273.620253 
L 222.964806 280.100945 
L 192.953994 293.734798 
L 162.943182 299.003981 
z
" clip-path="url(#p0dcc83595f)" style="fill: #671435; fill-opacity: 0.8"/>
   </g>
   <g id="FillBetweenPolyCollection_4">
    <path d="M 162.943182 290.612816 
L 162.943182 299.003981 
L 192.953994 293.734798 
L 222.964806 280.100945 
L 252.975619 273.620253 
L 283.068652 265.207014 
L 313.079465 262.554786 
L 343.090277 256.056649 
L 373.101089 247.174307 
L 403.194123 240.952283 
L 433.204935 236.108421 
L 463.215748 233.616856 
L 493.22656 223.905726 
L 523.319594 216.648636 
L 553.330406 211.31074 
L 583.341218 203.102518 
L 613.352031 182.255993 
L 643.445065 170.586046 
L 673.455877 169.217273 
L 703.466689 165.89251 
L 733.477501 161.60813 
L 763.570535 159.683826 
L 793.581348 282.585453 
L 823.59216 281.330639 
L 853.602972 291.190924 
L 883.696006 285.570203 
L 913.706818 288.509696 
L 913.706818 282.523941 
L 913.706818 282.523941 
L 883.696006 278.580264 
L 853.602972 283.585614 
L 823.59216 274.00762 
L 793.581348 279.048319 
L 763.570535 122.1248 
L 733.477501 124.64191 
L 703.466689 129.106204 
L 673.455877 134.193664 
L 643.445065 136.281468 
L 613.352031 148.892622 
L 583.341218 170.695021 
L 553.330406 182.219698 
L 523.319594 187.812889 
L 493.22656 195.315278 
L 463.215748 211.142659 
L 433.204935 214.360436 
L 403.194123 219.593007 
L 373.101089 226.36639 
L 343.090277 235.700028 
L 313.079465 247.122526 
L 283.068652 251.201788 
L 252.975619 260.810188 
L 222.964806 268.746766 
L 192.953994 284.335936 
L 162.943182 290.612816 
z
" clip-path="url(#p0dcc83595f)" style="fill: #9b2247; fill-opacity: 0.8"/>
   </g>
   <g id="matplotlib.axis_1">
    <g id="xtick_1">
     <g id="line2d_1">
      <path d="M 132.93237 314.3168 
L 132.93237 26.0288 
" clip-path="url(#p0dcc83595f)" style="fill: none; stroke: #000000; stroke-opacity: 0.2; stroke-width: 0.75; stroke-linecap: square"/>
     </g>
     <g id="line2d_2">
      <defs>
       <path id="mf590dd380d" d="M 0 0 
L 0 3.5 
" style="stroke: #000000; stroke-width: 0.8"/>
      </defs>
      <g>
       <use xlink:href="#mf590dd380d" x="132.93237" y="314.3168" style="stroke: #000000; stroke-width: 0.8"/>
      </g>
     </g>
     <g id="text_1">
      <text style="font-size: 24px; font-family: 'DejaVu Sans', 'Bitstream Vera Sans', 'Computer Modern Sans Serif', 'Lucida Grande', 'Verdana', 'Geneva', 'Lucid', 'Arial', 'Helvetica', 'Avant Garde', sans-serif" transform="translate(116.020143 377.401858) rotate(-45)">2000</text>
     </g>
    </g>
    <g id="xtick_2">
     <g id="line2d_3">
      <path d="M 253.05784 314.3168 
L 253.05784 26.0288 
" clip-path="url(#p0dcc83595f)" style="fill: none; stroke: #000000; stroke-opacity: 0.2; stroke-width: 0.75; stroke-linecap: square"/>
     </g>
     <g id="line2d_4">
      <g>
       <use xlink:href="#mf590dd380d" x="253.05784" y="314.3168" style="stroke: #000000; stroke-width: 0.8"/>
      </g>
     </g>
     <g id="text_2">
      <text style="font-size: 24px; font-family: 'DejaVu Sans', 'Bitstream Vera Sans', 'Computer Modern Sans Serif', 'Lucida Grande', 'Verdana', 'Geneva', 'Lucid', 'Arial', 'Helvetica', 'Avant Garde', sans-serif" transform="translate(236.145614 377.401858) rotate(-45)">2004</text>
     </g>
    </g>
    <g id="xtick_3">
     <g id="line2d_5">
      <path d="M 373.183311 314.3168 
L 373.183311 26.0288 
" clip-path="url(#p0dcc83595f)" style="fill: none; stroke: #000000; stroke-opacity: 0.2; stroke-width: 0.75; stroke-linecap: square"/>
     </g>
     <g id="line2d_6">
      <g>
       <use xlink:href="#mf590dd380d" x="373.183311" y="314.3168" style="stroke: #000000; stroke-width: 0.8"/>
      </g>
     </g>
     <g id="text_3">
      <text style="font-size: 24px; font-family: 'DejaVu Sans', 'Bitstream Vera Sans', 'Computer Modern Sans Serif', 'Lucida Grande', 'Verdana', 'Geneva', 'Lucid', 'Arial', 'Helvetica', 'Avant Garde', sans-serif" transform="translate(356.271084 377.401858) rotate(-45)">2008</text>
     </g>
    </g>
    <g id="xtick_4">
     <g id="line2d_7">
      <path d="M 493.308782 314.3168 
L 493.308782 26.0288 
" clip-path="url(#p0dcc83595f)" style="fill: none; stroke: #000000; stroke-opacity: 0.2; stroke-width: 0.75; stroke-linecap: square"/>
     </g>
     <g id="line2d_8">
      <g>
       <use xlink:href="#mf590dd380d" x="493.308782" y="314.3168" style="stroke: #000000; stroke-width: 0.8"/>
      </g>
     </g>
     <g id="text_4">
      <text style="font-size: 24px; font-family: 'DejaVu Sans', 'Bitstream Vera Sans', 'Computer Modern Sans Serif', 'Lucida Grande', 'Verdana', 'Geneva', 'Lucid', 'Arial', 'Helvetica', 'Avant Garde', sans-serif" transform="translate(476.396555 377.401858) rotate(-45)">2012</text>
     </g>
    </g>
    <g id="xtick_5">
     <g id="line2d_9">
      <path d="M 613.434252 314.3168 
L 613.434252 26.0288 
" clip-path="url(#p0dcc83595f)" style="fill: none; stroke: #000000; stroke-opacity: 0.2; stroke-width: 0.75; stroke-linecap: square"/>
     </g>
     <g id="line2d_10">
      <g>
       <use xlink:href="#mf590dd380d" x="613.434252" y="314.3168" style="stroke: #000000; stroke-width: 0.8"/>
      </g>
     </g>
     <g id="text_5">
      <text style="font-size: 24px; font-family: 'DejaVu Sans', 'Bitstream Vera Sans', 'Computer Modern Sans Serif', 'Lucida Grande', 'Verdana', 'Geneva', 'Lucid', 'Arial', 'Helvetica', 'Avant Garde', sans-serif" transform="translate(596.522026 377.401858) rotate(-45)">2016</text>
     </g>
    </g>
    <g id="xtick_6">
     <g id="line2d_11">
      <path d="M 733.559723 314.3168 
L 733.559723 26.0288 
" clip-path="url(#p0dcc83595f)" style="fill: none; stroke: #000000; stroke-opacity: 0.2; stroke-width: 0.75; stroke-linecap: square"/>
     </g>
     <g id="line2d_12">
      <g>
       <use xlink:href="#mf590dd380d" x="733.559723" y="314.3168" style="stroke: #000000; stroke-width: 0.8"/>
      </g>
     </g>
     <g id="text_6">
      <text style="font-size: 24px; font-family: 'DejaVu Sans', 'Bitstream Vera Sans', 'Computer Modern Sans Serif', 'Lucida Grande', 'Verdana', 'Geneva', 'Lucid', 'Arial', 'Helvetica', 'Avant Garde', sans-serif" transform="translate(716.647496 377.401858) rotate(-45)">2020</text>
     </g>
    </g>
    <g id="xtick_7">
     <g id="line2d_13">
      <path d="M 853.685194 314.3168 
L 853.685194 26.0288 
" clip-path="url(#p0dcc83595f)" style="fill: none; stroke: #000000; stroke-opacity: 0.2; stroke-width: 0.75; stroke-linecap: square"/>
     </g>
     <g id="line2d_14">
      <g>
       <use xlink:href="#mf590dd380d" x="853.685194" y="314.3168" style="stroke: #000000; stroke-width: 0.8"/>
      </g>
     </g>
     <g id="text_7">
      <text style="font-size: 24px; font-family: 'DejaVu Sans', 'Bitstream Vera Sans', 'Computer Modern Sans Serif', 'Lucida Grande', 'Verdana', 'Geneva', 'Lucid', 'Arial', 'Helvetica', 'Avant Garde', sans-serif" transform="translate(836.772967 377.401858) rotate(-45)">2024</text>
     </g>
    </g>
    <g id="text_8">
     <text style="font-weight: 600; font-size: 24px; font-family: 'DejaVu Sans', 'Bitstream Vera Sans', 'Computer Modern Sans Serif', 'Lucida Grande', 'Verdana', 'Geneva', 'Lucid', 'Arial', 'Helvetica', 'Avant Garde', sans-serif; text-anchor: middle; fill: #767676" x="538.325" y="403.167455" transform="rotate(-0 538.325 403.167455)">Fecha</text>
    </g>
   </g>
   <g id="matplotlib.axis_2">
    <g id="ytick_1">
     <g id="line2d_15">
      <path d="M 125.405 314.3168 
L 951.245 314.3168 
" clip-path="url(#p0dcc83595f)" style="fill: none; stroke: #000000; stroke-opacity: 0.2; stroke-width: 0.75; stroke-linecap: square"/>
     </g>
     <g id="line2d_16">
      <defs>
       <path id="m0457ab0273" d="M 0 0 
L -3.5 0 
" style="stroke: #000000; stroke-width: 0.8"/>
      </defs>
      <g>
       <use xlink:href="#m0457ab0273" x="125.405" y="314.3168" style="stroke: #000000; stroke-width: 0.8"/>
      </g>
     </g>
     <g id="text_9">
      <text style="font-size: 24px; font-family: 'DejaVu Sans', 'Bitstream Vera Sans', 'Computer Modern Sans Serif', 'Lucida Grande', 'Verdana', 'Geneva', 'Lucid', 'Arial', 'Helvetica', 'Avant Garde', sans-serif; text-anchor: end" x="118.405" y="323.434925" transform="rotate(-0 118.405 323.434925)">0</text>
     </g>
    </g>
    <g id="ytick_2">
     <g id="line2d_17">
      <path d="M 125.405 276.034818 
L 951.245 276.034818 
" clip-path="url(#p0dcc83595f)" style="fill: none; stroke: #000000; stroke-opacity: 0.2; stroke-width: 0.75; stroke-linecap: square"/>
     </g>
     <g id="line2d_18">
      <g>
       <use xlink:href="#m0457ab0273" x="125.405" y="276.034818" style="stroke: #000000; stroke-width: 0.8"/>
      </g>
     </g>
     <g id="text_10">
      <text style="font-size: 24px; font-family: 'DejaVu Sans', 'Bitstream Vera Sans', 'Computer Modern Sans Serif', 'Lucida Grande', 'Verdana', 'Geneva', 'Lucid', 'Arial', 'Helvetica', 'Avant Garde', sans-serif; text-anchor: end" x="118.405" y="285.152943" transform="rotate(-0 118.405 285.152943)">2,500</text>
     </g>
    </g>
    <g id="ytick_3">
     <g id="line2d_19">
      <path d="M 125.405 237.752836 
L 951.245 237.752836 
" clip-path="url(#p0dcc83595f)" style="fill: none; stroke: #000000; stroke-opacity: 0.2; stroke-width: 0.75; stroke-linecap: square"/>
     </g>
     <g id="line2d_20">
      <g>
       <use xlink:href="#m0457ab0273" x="125.405" y="237.752836" style="stroke: #000000; stroke-width: 0.8"/>
      </g>
     </g>
     <g id="text_11">
      <text style="font-size: 24px; font-family: 'DejaVu Sans', 'Bitstream Vera Sans', 'Computer Modern Sans Serif', 'Lucida Grande', 'Verdana', 'Geneva', 'Lucid', 'Arial', 'Helvetica', 'Avant Garde', sans-serif; text-anchor: end" x="118.405" y="246.870961" transform="rotate(-0 118.405 246.870961)">5,000</text>
     </g>
    </g>
    <g id="ytick_4">
     <g id="line2d_21">
      <path d="M 125.405 199.470854 
L 951.245 199.470854 
" clip-path="url(#p0dcc83595f)" style="fill: none; stroke: #000000; stroke-opacity: 0.2; stroke-width: 0.75; stroke-linecap: square"/>
     </g>
     <g id="line2d_22">
      <g>
       <use xlink:href="#m0457ab0273" x="125.405" y="199.470854" style="stroke: #000000; stroke-width: 0.8"/>
      </g>
     </g>
     <g id="text_12">
      <text style="font-size: 24px; font-family: 'DejaVu Sans', 'Bitstream Vera Sans', 'Computer Modern Sans Serif', 'Lucida Grande', 'Verdana', 'Geneva', 'Lucid', 'Arial', 'Helvetica', 'Avant Garde', sans-serif; text-anchor: end" x="118.405" y="208.588979" transform="rotate(-0 118.405 208.588979)">7,500</text>
     </g>
    </g>
    <g id="ytick_5">
     <g id="line2d_23">
      <path d="M 125.405 161.188873 
L 951.245 161.188873 
" clip-path="url(#p0dcc83595f)" style="fill: none; stroke: #000000; stroke-opacity: 0.2; stroke-width: 0.75; stroke-linecap: square"/>
     </g>
     <g id="line2d_24">
      <g>
       <use xlink:href="#m0457ab0273" x="125.405" y="161.188873" style="stroke: #000000; stroke-width: 0.8"/>
      </g>
     </g>
     <g id="text_13">
      <text style="font-size: 24px; font-family: 'DejaVu Sans', 'Bitstream Vera Sans', 'Computer Modern Sans Serif', 'Lucida Grande', 'Verdana', 'Geneva', 'Lucid', 'Arial', 'Helvetica', 'Avant Garde', sans-serif; text-anchor: end" x="118.405" y="170.306998" transform="rotate(-0 118.405 170.306998)">10,000</text>
     </g>
    </g>
    <g id="ytick_6">
     <g id="line2d_25">
      <path d="M 125.405 122.906891 
L 951.245 122.906891 
" clip-path="url(#p0dcc83595f)" style="fill: none; stroke: #000000; stroke-opacity: 0.2; stroke-width: 0.75; stroke-linecap: square"/>
     </g>
     <g id="line2d_26">
      <g>
       <use xlink:href="#m0457ab0273" x="125.405" y="122.906891" style="stroke: #000000; stroke-width: 0.8"/>
      </g>
     </g>
     <g id="text_14">
      <text style="font-size: 24px; font-family: 'DejaVu Sans', 'Bitstream Vera Sans', 'Computer Modern Sans Serif', 'Lucida Grande', 'Verdana', 'Geneva', 'Lucid', 'Arial', 'Helvetica', 'Avant Garde', sans-serif; text-anchor: end" x="118.405" y="132.025016" transform="rotate(-0 118.405 132.025016)">12,500</text>
     </g>
    </g>
    <g id="ytick_7">
     <g id="line2d_27">
      <path d="M 125.405 84.624909 
L 951.245 84.624909 
" clip-path="url(#p0dcc83595f)" style="fill: none; stroke: #000000; stroke-opacity: 0.2; stroke-width: 0.75; stroke-linecap: square"/>
     </g>
     <g id="line2d_28">
      <g>
       <use xlink:href="#m0457ab0273" x="125.405" y="84.624909" style="stroke: #000000; stroke-width: 0.8"/>
      </g>
     </g>
     <g id="text_15">
      <text style="font-size: 24px; font-family: 'DejaVu Sans', 'Bitstream Vera Sans', 'Computer Modern Sans Serif', 'Lucida Grande', 'Verdana', 'Geneva', 'Lucid', 'Arial', 'Helvetica', 'Avant Garde', sans-serif; text-anchor: end" x="118.405" y="93.743034" transform="rotate(-0 118.405 93.743034)">15,000</text>
     </g>
    </g>
    <g id="ytick_8">
     <g id="line2d_29">
      <path d="M 125.405 46.342927 
L 951.245 46.342927 
" clip-path="url(#p0dcc83595f)" style="fill: none; stroke: #000000; stroke-opacity: 0.2; stroke-width: 0.75; stroke-linecap: square"/>
     </g>
     <g id="line2d_30">
      <g>
       <use xlink:href="#m0457ab0273" x="125.405" y="46.342927" style="stroke: #000000; stroke-width: 0.8"/>
      </g>
     </g>
     <g id="text_16">
      <text style="font-size: 24px; font-family: 'DejaVu Sans', 'Bitstream Vera Sans', 'Computer Modern Sans Serif', 'Lucida Grande', 'Verdana', 'Geneva', 'Lucid', 'Arial', 'Helvetica', 'Avant Garde', sans-serif; text-anchor: end" x="118.405" y="55.461052" transform="rotate(-0 118.405 55.461052)">17,500</text>
     </g>
    </g>
    <g id="text_17">
     <text style="font-weight: 500; font-size: 24px; font-family: 'DejaVu Sans', 'Bitstream Vera Sans', 'Computer Modern Sans Serif', 'Lucida Grande', 'Verdana', 'Geneva', 'Lucid', 'Arial', 'Helvetica', 'Avant Garde', sans-serif; text-anchor: middle; fill: #767676" x="25.43625" y="170.1728" transform="rotate(-90 25.43625 170.1728)">Valores</text>
    </g>
   </g>
   <g id="patch_3">
    <path d="M 125.405 314.3168 
L 951.245 314.3168 
" style="fill: none; stroke: #000000; stroke-width: 2; stroke-linejoin: miter; stroke-linecap: square"/>
   </g>
   <g id="text_18">
    <g id="patch_4">
     <path d="M 190.574619 273.254423 
L 195.333369 273.254423 
Q 204.243369 273.254423 204.243369 264.344423 
L 204.243369 268.05411 
Q 204.243369 259.14411 195.333369 259.14411 
L 190.574619 259.14411 
Q 181.664619 259.14411 181.664619 268.05411 
L 181.664619 264.344423 
Q 181.664619 273.254423 190.574619 273.254423 
z
" style="fill: #006157"/>
    </g>
    <text style="font-size: 9px; font-family: 'DejaVu Sans', 'Bitstream Vera Sans', 'Computer Modern Sans Serif', 'Lucida Grande', 'Verdana', 'Geneva', 'Lucid', 'Arial', 'Helvetica', 'Avant Garde', sans-serif; text-anchor: middle; fill: #ffffff" x="192.953994" y="268.682704" transform="rotate(-0 192.953994 268.682704)">480</text>
   </g>
   <g id="text_19">
    <g id="patch_5">
     <path d="M 250.596244 249.728675 
L 255.354994 249.728675 
Q 264.264994 249.728675 264.264994 240.818675 
L 264.264994 244.528362 
Q 264.264994 235.618362 255.354994 235.618362 
L 250.596244 235.618362 
Q 241.686244 235.618362 241.686244 244.528362 
L 241.686244 240.818675 
Q 241.686244 249.728675 250.596244 249.728675 
z
" style="fill: #ffffff; stroke: #808080; stroke-linejoin: miter"/>
    </g>
    <text style="font-size: 9px; font-family: 'DejaVu Sans', 'Bitstream Vera Sans', 'Computer Modern Sans Serif', 'Lucida Grande', 'Verdana', 'Geneva', 'Lucid', 'Arial', 'Helvetica', 'Avant Garde', sans-serif; text-anchor: middle; fill: #006157" x="252.975619" y="245.156956" transform="rotate(-0 252.975619 245.156956)">908</text>
   </g>
   <g id="text_20">
    <g id="patch_6">
     <path d="M 306.406809 236.041012 
L 319.752121 236.041012 
Q 328.662121 236.041012 328.662121 227.131012 
L 328.662121 230.8407 
Q 328.662121 221.9307 319.752121 221.9307 
L 306.406809 221.9307 
Q 297.496809 221.9307 297.496809 230.8407 
L 297.496809 227.131012 
Q 297.496809 236.041012 306.406809 236.041012 
z
" style="fill: #ffffff; stroke: #808080; stroke-linejoin: miter"/>
    </g>
    <text style="font-size: 9px; font-family: 'DejaVu Sans', 'Bitstream Vera Sans', 'Computer Modern Sans Serif', 'Lucida Grande', 'Verdana', 'Geneva', 'Lucid', 'Arial', 'Helvetica', 'Avant Garde', sans-serif; text-anchor: middle; fill: #006157" x="313.079465" y="231.469293" transform="rotate(-0 313.079465 231.469293)">1,151</text>
   </g>
   <g id="text_21">
    <g id="patch_7">
     <path d="M 366.428433 215.284876 
L 379.773746 215.284876 
Q 388.683746 215.284876 388.683746 206.374876 
L 388.683746 210.084564 
Q 388.683746 201.174564 379.773746 201.174564 
L 366.428433 201.174564 
Q 357.518433 201.174564 357.518433 210.084564 
L 357.518433 206.374876 
Q 357.518433 215.284876 366.428433 215.284876 
z
" style="fill: #ffffff; stroke: #808080; stroke-linejoin: miter"/>
    </g>
    <text style="font-size: 9px; font-family: 'DejaVu Sans', 'Bitstream Vera Sans', 'Computer Modern Sans Serif', 'Lucida Grande', 'Verdana', 'Geneva', 'Lucid', 'Arial', 'Helvetica', 'Avant Garde', sans-serif; text-anchor: middle; fill: #006157" x="373.101089" y="210.713158" transform="rotate(-0 373.101089 210.713158)">1,330</text>
   </g>
   <g id="text_22">
    <g id="patch_8">
     <path d="M 426.532279 203.278923 
L 439.877592 203.278923 
Q 448.787592 203.278923 448.787592 194.368923 
L 448.787592 198.07861 
Q 448.787592 189.16861 439.877592 189.16861 
L 426.532279 189.16861 
Q 417.622279 189.16861 417.622279 198.07861 
L 417.622279 194.368923 
Q 417.622279 203.278923 426.532279 203.278923 
z
" style="fill: #ffffff; stroke: #808080; stroke-linejoin: miter"/>
    </g>
    <text style="font-size: 9px; font-family: 'DejaVu Sans', 'Bitstream Vera Sans', 'Computer Modern Sans Serif', 'Lucida Grande', 'Verdana', 'Geneva', 'Lucid', 'Arial', 'Helvetica', 'Avant Garde', sans-serif; text-anchor: middle; fill: #006157" x="433.204935" y="198.707204" transform="rotate(-0 433.204935 198.707204)">1,642</text>
   </g>
   <g id="text_23">
    <g id="patch_9">
     <path d="M 486.553904 184.233765 
L 499.899216 184.233765 
Q 508.809216 184.233765 508.809216 175.323765 
L 508.809216 179.033452 
Q 508.809216 170.123452 499.899216 170.123452 
L 486.553904 170.123452 
Q 477.643904 170.123452 477.643904 179.033452 
L 477.643904 175.323765 
Q 477.643904 184.233765 486.553904 184.233765 
z
" style="fill: #ffffff; stroke: #808080; stroke-linejoin: miter"/>
    </g>
    <text style="font-size: 9px; font-family: 'DejaVu Sans', 'Bitstream Vera Sans', 'Computer Modern Sans Serif', 'Lucida Grande', 'Verdana', 'Geneva', 'Lucid', 'Arial', 'Helvetica', 'Avant Garde', sans-serif; text-anchor: middle; fill: #006157" x="493.22656" y="179.662046" transform="rotate(-0 493.22656 179.662046)">1,942</text>
   </g>
   <g id="text_24">
    <g id="patch_10">
     <path d="M 546.65775 171.138184 
L 560.003062 171.138184 
Q 568.913062 171.138184 568.913062 162.228184 
L 568.913062 165.937872 
Q 568.913062 157.027872 560.003062 157.027872 
L 546.65775 157.027872 
Q 537.74775 157.027872 537.74775 165.937872 
L 537.74775 162.228184 
Q 537.74775 171.138184 546.65775 171.138184 
z
" style="fill: #ffffff; stroke: #808080; stroke-linejoin: miter"/>
    </g>
    <text style="font-size: 9px; font-family: 'DejaVu Sans', 'Bitstream Vera Sans', 'Computer Modern Sans Serif', 'Lucida Grande', 'Verdana', 'Geneva', 'Lucid', 'Arial', 'Helvetica', 'Avant Garde', sans-serif; text-anchor: middle; fill: #006157" x="553.330406" y="166.566466" transform="rotate(-0 553.330406 166.566466)">2,109</text>
   </g>
   <g id="text_25">
    <g id="patch_11">
     <path d="M 606.679375 137.811109 
L 620.024687 137.811109 
Q 628.934687 137.811109 628.934687 128.901109 
L 628.934687 132.610796 
Q 628.934687 123.700796 620.024687 123.700796 
L 606.679375 123.700796 
Q 597.769375 123.700796 597.769375 132.610796 
L 597.769375 128.901109 
Q 597.769375 137.811109 606.679375 137.811109 
z
" style="fill: #ffffff; stroke: #808080; stroke-linejoin: miter"/>
    </g>
    <text style="font-size: 9px; font-family: 'DejaVu Sans', 'Bitstream Vera Sans', 'Computer Modern Sans Serif', 'Lucida Grande', 'Verdana', 'Geneva', 'Lucid', 'Arial', 'Helvetica', 'Avant Garde', sans-serif; text-anchor: middle; fill: #006157" x="613.352031" y="133.23939" transform="rotate(-0 613.352031 133.23939)">2,838</text>
   </g>
   <g id="text_26">
    <g id="patch_12">
     <path d="M 666.783221 123.11215 
L 680.128533 123.11215 
Q 689.038533 123.11215 689.038533 114.20215 
L 689.038533 117.911838 
Q 689.038533 109.001838 680.128533 109.001838 
L 666.783221 109.001838 
Q 657.873221 109.001838 657.873221 117.911838 
L 657.873221 114.20215 
Q 657.873221 123.11215 666.783221 123.11215 
z
" style="fill: #ffffff; stroke: #808080; stroke-linejoin: miter"/>
    </g>
    <text style="font-size: 9px; font-family: 'DejaVu Sans', 'Bitstream Vera Sans', 'Computer Modern Sans Serif', 'Lucida Grande', 'Verdana', 'Geneva', 'Lucid', 'Arial', 'Helvetica', 'Avant Garde', sans-serif; text-anchor: middle; fill: #006157" x="673.455877" y="118.540432" transform="rotate(-0 673.455877 118.540432)">3,473</text>
   </g>
   <g id="text_27">
    <g id="patch_13">
     <path d="M 726.804845 113.560397 
L 740.150158 113.560397 
Q 749.060158 113.560397 749.060158 104.650397 
L 749.060158 108.360084 
Q 749.060158 99.450084 740.150158 99.450084 
L 726.804845 99.450084 
Q 717.894845 99.450084 717.894845 108.360084 
L 717.894845 104.650397 
Q 717.894845 113.560397 726.804845 113.560397 
z
" style="fill: #ffffff; stroke: #808080; stroke-linejoin: miter"/>
    </g>
    <text style="font-size: 9px; font-family: 'DejaVu Sans', 'Bitstream Vera Sans', 'Computer Modern Sans Serif', 'Lucida Grande', 'Verdana', 'Geneva', 'Lucid', 'Arial', 'Helvetica', 'Avant Garde', sans-serif; text-anchor: middle; fill: #006157" x="733.477501" y="108.988678" transform="rotate(-0 733.477501 108.988678)">3,788</text>
   </g>
   <g id="text_28">
    <g id="patch_14">
     <path d="M 756.897879 111.043287 
L 770.243191 111.043287 
Q 779.153191 111.043287 779.153191 102.133287 
L 779.153191 105.842974 
Q 779.153191 96.932974 770.243191 96.932974 
L 756.897879 96.932974 
Q 747.987879 96.932974 747.987879 105.842974 
L 747.987879 102.133287 
Q 747.987879 111.043287 756.897879 111.043287 
z
" style="fill: #ffffff; stroke: #808080; stroke-linejoin: miter"/>
    </g>
    <text style="font-size: 9px; font-family: 'DejaVu Sans', 'Bitstream Vera Sans', 'Computer Modern Sans Serif', 'Lucida Grande', 'Verdana', 'Geneva', 'Lucid', 'Arial', 'Helvetica', 'Avant Garde', sans-serif; text-anchor: middle; fill: #006157" x="763.570535" y="106.471568" transform="rotate(-0 763.570535 106.471568)">3,803</text>
   </g>
   <g id="text_29">
    <g id="patch_15">
     <path d="M 791.201973 267.966806 
L 795.960723 267.966806 
Q 804.870723 267.966806 804.870723 259.056806 
L 804.870723 262.766494 
Q 804.870723 253.856494 795.960723 253.856494 
L 791.201973 253.856494 
Q 782.291973 253.856494 782.291973 262.766494 
L 782.291973 259.056806 
Q 782.291973 267.966806 791.201973 267.966806 
z
" style="fill: #ffffff; stroke: #808080; stroke-linejoin: miter"/>
    </g>
    <text style="font-size: 9px; font-family: 'DejaVu Sans', 'Bitstream Vera Sans', 'Computer Modern Sans Serif', 'Lucida Grande', 'Verdana', 'Geneva', 'Lucid', 'Arial', 'Helvetica', 'Avant Garde', sans-serif; text-anchor: middle; fill: #006157" x="793.581348" y="263.395087" transform="rotate(-0 793.581348 263.395087)">927</text>
   </g>
   <g id="text_30">
    <g id="patch_16">
     <path d="M 851.223597 272.504101 
L 855.982347 272.504101 
Q 864.892347 272.504101 864.892347 263.594101 
L 864.892347 267.303788 
Q 864.892347 258.393788 855.982347 258.393788 
L 851.223597 258.393788 
Q 842.313597 258.393788 842.313597 267.303788 
L 842.313597 263.594101 
Q 842.313597 272.504101 851.223597 272.504101 
z
" style="fill: #ffffff; stroke: #808080; stroke-linejoin: miter"/>
    </g>
    <text style="font-size: 9px; font-family: 'DejaVu Sans', 'Bitstream Vera Sans', 'Computer Modern Sans Serif', 'Lucida Grande', 'Verdana', 'Geneva', 'Lucid', 'Arial', 'Helvetica', 'Avant Garde', sans-serif; text-anchor: middle; fill: #006157" x="853.602972" y="267.932382" transform="rotate(-0 853.602972 267.932382)">634</text>
   </g>
   <g id="text_31">
    <g id="patch_17">
     <path d="M 911.327443 271.442428 
L 916.086193 271.442428 
Q 924.996193 271.442428 924.996193 262.532428 
L 924.996193 266.242115 
Q 924.996193 257.332115 916.086193 257.332115 
L 911.327443 257.332115 
Q 902.417443 257.332115 902.417443 266.242115 
L 902.417443 262.532428 
Q 902.417443 271.442428 911.327443 271.442428 
z
" style="fill: #006157"/>
    </g>
    <text style="font-size: 9px; font-family: 'DejaVu Sans', 'Bitstream Vera Sans', 'Computer Modern Sans Serif', 'Lucida Grande', 'Verdana', 'Geneva', 'Lucid', 'Arial', 'Helvetica', 'Avant Garde', sans-serif; text-anchor: middle; fill: #ffffff" x="913.706818" y="266.870709" transform="rotate(-0 913.706818 266.870709)">725</text>
   </g>
   <g id="text_32">
    <g id="patch_18">
     <path d="M 190.574619 256.410351 
L 195.333369 256.410351 
Q 204.243369 256.410351 204.243369 247.500351 
L 204.243369 251.210038 
Q 204.243369 242.300038 195.333369 242.300038 
L 190.574619 242.300038 
Q 181.664619 242.300038 181.664619 251.210038 
L 181.664619 247.500351 
Q 181.664619 256.410351 190.574619 256.410351 
z
" style="fill: #767676"/>
    </g>
    <text style="font-size: 9px; font-family: 'DejaVu Sans', 'Bitstream Vera Sans', 'Computer Modern Sans Serif', 'Lucida Grande', 'Verdana', 'Geneva', 'Lucid', 'Arial', 'Helvetica', 'Avant Garde', sans-serif; text-anchor: middle; fill: #ffffff" x="192.953994" y="251.838632" transform="rotate(-0 192.953994 251.838632)">360</text>
   </g>
   <g id="text_33">
    <g id="patch_19">
     <path d="M 250.596244 232.884603 
L 255.354994 232.884603 
Q 264.264994 232.884603 264.264994 223.974603 
L 264.264994 227.68429 
Q 264.264994 218.77429 255.354994 218.77429 
L 250.596244 218.77429 
Q 241.686244 218.77429 241.686244 227.68429 
L 241.686244 223.974603 
Q 241.686244 232.884603 250.596244 232.884603 
z
" style="fill: #ffffff; stroke: #808080; stroke-linejoin: miter"/>
    </g>
    <text style="font-size: 9px; font-family: 'DejaVu Sans', 'Bitstream Vera Sans', 'Computer Modern Sans Serif', 'Lucida Grande', 'Verdana', 'Geneva', 'Lucid', 'Arial', 'Helvetica', 'Avant Garde', sans-serif; text-anchor: middle; fill: #767676" x="252.975619" y="228.312884" transform="rotate(-0 252.975619 228.312884)">973</text>
   </g>
   <g id="text_34">
    <g id="patch_20">
     <path d="M 306.406809 219.19694 
L 319.752121 219.19694 
Q 328.662121 219.19694 328.662121 210.28694 
L 328.662121 213.996628 
Q 328.662121 205.086628 319.752121 205.086628 
L 306.406809 205.086628 
Q 297.496809 205.086628 297.496809 213.996628 
L 297.496809 210.28694 
Q 297.496809 219.19694 306.406809 219.19694 
z
" style="fill: #ffffff; stroke: #808080; stroke-linejoin: miter"/>
    </g>
    <text style="font-size: 9px; font-family: 'DejaVu Sans', 'Bitstream Vera Sans', 'Computer Modern Sans Serif', 'Lucida Grande', 'Verdana', 'Geneva', 'Lucid', 'Arial', 'Helvetica', 'Avant Garde', sans-serif; text-anchor: middle; fill: #767676" x="313.079465" y="214.625221" transform="rotate(-0 313.079465 214.625221)">1,324</text>
   </g>
   <g id="text_35">
    <g id="patch_21">
     <path d="M 366.428433 198.440804 
L 379.773746 198.440804 
Q 388.683746 198.440804 388.683746 189.530804 
L 388.683746 193.240492 
Q 388.683746 184.330492 379.773746 184.330492 
L 366.428433 184.330492 
Q 357.518433 184.330492 357.518433 193.240492 
L 357.518433 189.530804 
Q 357.518433 198.440804 366.428433 198.440804 
z
" style="fill: #ffffff; stroke: #808080; stroke-linejoin: miter"/>
    </g>
    <text style="font-size: 9px; font-family: 'DejaVu Sans', 'Bitstream Vera Sans', 'Computer Modern Sans Serif', 'Lucida Grande', 'Verdana', 'Geneva', 'Lucid', 'Arial', 'Helvetica', 'Avant Garde', sans-serif; text-anchor: middle; fill: #767676" x="373.101089" y="193.869086" transform="rotate(-0 373.101089 193.869086)">1,933</text>
   </g>
   <g id="text_36">
    <g id="patch_22">
     <path d="M 426.532279 186.434851 
L 439.877592 186.434851 
Q 448.787592 186.434851 448.787592 177.524851 
L 448.787592 181.234538 
Q 448.787592 172.324538 439.877592 172.324538 
L 426.532279 172.324538 
Q 417.622279 172.324538 417.622279 181.234538 
L 417.622279 177.524851 
Q 417.622279 186.434851 426.532279 186.434851 
z
" style="fill: #ffffff; stroke: #808080; stroke-linejoin: miter"/>
    </g>
    <text style="font-size: 9px; font-family: 'DejaVu Sans', 'Bitstream Vera Sans', 'Computer Modern Sans Serif', 'Lucida Grande', 'Verdana', 'Geneva', 'Lucid', 'Arial', 'Helvetica', 'Avant Garde', sans-serif; text-anchor: middle; fill: #767676" x="433.204935" y="181.863132" transform="rotate(-0 433.204935 181.863132)">2,044</text>
   </g>
   <g id="text_37">
    <g id="patch_23">
     <path d="M 486.553904 167.389693 
L 499.899216 167.389693 
Q 508.809216 167.389693 508.809216 158.479693 
L 508.809216 162.18938 
Q 508.809216 153.27938 499.899216 153.27938 
L 486.553904 153.27938 
Q 477.643904 153.27938 477.643904 162.18938 
L 477.643904 158.479693 
Q 477.643904 167.389693 486.553904 167.389693 
z
" style="fill: #ffffff; stroke: #808080; stroke-linejoin: miter"/>
    </g>
    <text style="font-size: 9px; font-family: 'DejaVu Sans', 'Bitstream Vera Sans', 'Computer Modern Sans Serif', 'Lucida Grande', 'Verdana', 'Geneva', 'Lucid', 'Arial', 'Helvetica', 'Avant Garde', sans-serif; text-anchor: middle; fill: #767676" x="493.22656" y="162.817974" transform="rotate(-0 493.22656 162.817974)">2,371</text>
   </g>
   <g id="text_38">
    <g id="patch_24">
     <path d="M 546.65775 154.294112 
L 560.003062 154.294112 
Q 568.913062 154.294112 568.913062 145.384112 
L 568.913062 149.0938 
Q 568.913062 140.1838 560.003062 140.1838 
L 546.65775 140.1838 
Q 537.74775 140.1838 537.74775 149.0938 
L 537.74775 145.384112 
Q 537.74775 154.294112 546.65775 154.294112 
z
" style="fill: #ffffff; stroke: #808080; stroke-linejoin: miter"/>
    </g>
    <text style="font-size: 9px; font-family: 'DejaVu Sans', 'Bitstream Vera Sans', 'Computer Modern Sans Serif', 'Lucida Grande', 'Verdana', 'Geneva', 'Lucid', 'Arial', 'Helvetica', 'Avant Garde', sans-serif; text-anchor: middle; fill: #767676" x="553.330406" y="149.722394" transform="rotate(-0 553.330406 149.722394)">2,450</text>
   </g>
   <g id="text_39">
    <g id="patch_25">
     <path d="M 606.679375 120.967037 
L 620.024687 120.967037 
Q 628.934687 120.967037 628.934687 112.057037 
L 628.934687 115.766724 
Q 628.934687 106.856724 620.024687 106.856724 
L 606.679375 106.856724 
Q 597.769375 106.856724 597.769375 115.766724 
L 597.769375 112.057037 
Q 597.769375 120.967037 606.679375 120.967037 
z
" style="fill: #ffffff; stroke: #808080; stroke-linejoin: miter"/>
    </g>
    <text style="font-size: 9px; font-family: 'DejaVu Sans', 'Bitstream Vera Sans', 'Computer Modern Sans Serif', 'Lucida Grande', 'Verdana', 'Geneva', 'Lucid', 'Arial', 'Helvetica', 'Avant Garde', sans-serif; text-anchor: middle; fill: #767676" x="613.352031" y="116.395318" transform="rotate(-0 613.352031 116.395318)">3,032</text>
   </g>
   <g id="text_40">
    <g id="patch_26">
     <path d="M 666.783221 106.268078 
L 680.128533 106.268078 
Q 689.038533 106.268078 689.038533 97.358078 
L 689.038533 101.067766 
Q 689.038533 92.157766 680.128533 92.157766 
L 666.783221 92.157766 
Q 657.873221 92.157766 657.873221 101.067766 
L 657.873221 97.358078 
Q 657.873221 106.268078 666.783221 106.268078 
z
" style="fill: #ffffff; stroke: #808080; stroke-linejoin: miter"/>
    </g>
    <text style="font-size: 9px; font-family: 'DejaVu Sans', 'Bitstream Vera Sans', 'Computer Modern Sans Serif', 'Lucida Grande', 'Verdana', 'Geneva', 'Lucid', 'Arial', 'Helvetica', 'Avant Garde', sans-serif; text-anchor: middle; fill: #767676" x="673.455877" y="101.69636" transform="rotate(-0 673.455877 101.69636)">3,207</text>
   </g>
   <g id="text_41">
    <g id="patch_27">
     <path d="M 726.804845 96.716325 
L 740.150158 96.716325 
Q 749.060158 96.716325 749.060158 87.806325 
L 749.060158 91.516012 
Q 749.060158 82.606012 740.150158 82.606012 
L 726.804845 82.606012 
Q 717.894845 82.606012 717.894845 91.516012 
L 717.894845 87.806325 
Q 717.894845 96.716325 726.804845 96.716325 
z
" style="fill: #ffffff; stroke: #808080; stroke-linejoin: miter"/>
    </g>
    <text style="font-size: 9px; font-family: 'DejaVu Sans', 'Bitstream Vera Sans', 'Computer Modern Sans Serif', 'Lucida Grande', 'Verdana', 'Geneva', 'Lucid', 'Arial', 'Helvetica', 'Avant Garde', sans-serif; text-anchor: middle; fill: #767676" x="733.477501" y="92.144606" transform="rotate(-0 733.477501 92.144606)">3,267</text>
   </g>
   <g id="text_42">
    <g id="patch_28">
     <path d="M 756.897879 94.199215 
L 770.243191 94.199215 
Q 779.153191 94.199215 779.153191 85.289215 
L 779.153191 88.998902 
Q 779.153191 80.088902 770.243191 80.088902 
L 756.897879 80.088902 
Q 747.987879 80.088902 747.987879 88.998902 
L 747.987879 85.289215 
Q 747.987879 94.199215 756.897879 94.199215 
z
" style="fill: #ffffff; stroke: #808080; stroke-linejoin: miter"/>
    </g>
    <text style="font-size: 9px; font-family: 'DejaVu Sans', 'Bitstream Vera Sans', 'Computer Modern Sans Serif', 'Lucida Grande', 'Verdana', 'Geneva', 'Lucid', 'Arial', 'Helvetica', 'Avant Garde', sans-serif; text-anchor: middle; fill: #767676" x="763.570535" y="89.627496" transform="rotate(-0 763.570535 89.627496)">3,344</text>
   </g>
   <g id="text_43">
    <g id="patch_29">
     <path d="M 791.201973 251.122734 
L 795.960723 251.122734 
Q 804.870723 251.122734 804.870723 242.212734 
L 804.870723 245.922422 
Q 804.870723 237.012422 795.960723 237.012422 
L 791.201973 237.012422 
Q 782.291973 237.012422 782.291973 245.922422 
L 782.291973 242.212734 
Q 782.291973 251.122734 791.201973 251.122734 
z
" style="fill: #ffffff; stroke: #808080; stroke-linejoin: miter"/>
    </g>
    <text style="font-size: 9px; font-family: 'DejaVu Sans', 'Bitstream Vera Sans', 'Computer Modern Sans Serif', 'Lucida Grande', 'Verdana', 'Geneva', 'Lucid', 'Arial', 'Helvetica', 'Avant Garde', sans-serif; text-anchor: middle; fill: #767676" x="793.581348" y="246.551015" transform="rotate(-0 793.581348 246.551015)">601</text>
   </g>
   <g id="text_44">
    <g id="patch_30">
     <path d="M 851.223597 255.660029 
L 855.982347 255.660029 
Q 864.892347 255.660029 864.892347 246.750029 
L 864.892347 250.459716 
Q 864.892347 241.549716 855.982347 241.549716 
L 851.223597 241.549716 
Q 842.313597 241.549716 842.313597 250.459716 
L 842.313597 246.750029 
Q 842.313597 255.660029 851.223597 255.660029 
z
" style="fill: #ffffff; stroke: #808080; stroke-linejoin: miter"/>
    </g>
    <text style="font-size: 9px; font-family: 'DejaVu Sans', 'Bitstream Vera Sans', 'Computer Modern Sans Serif', 'Lucida Grande', 'Verdana', 'Geneva', 'Lucid', 'Arial', 'Helvetica', 'Avant Garde', sans-serif; text-anchor: middle; fill: #767676" x="853.602972" y="251.08831" transform="rotate(-0 853.602972 251.08831)">770</text>
   </g>
   <g id="text_45">
    <g id="patch_31">
     <path d="M 911.327443 254.598356 
L 916.086193 254.598356 
Q 924.996193 254.598356 924.996193 245.688356 
L 924.996193 249.398043 
Q 924.996193 240.488043 916.086193 240.488043 
L 911.327443 240.488043 
Q 902.417443 240.488043 902.417443 249.398043 
L 902.417443 245.688356 
Q 902.417443 254.598356 911.327443 254.598356 
z
" style="fill: #767676"/>
    </g>
    <text style="font-size: 9px; font-family: 'DejaVu Sans', 'Bitstream Vera Sans', 'Computer Modern Sans Serif', 'Lucida Grande', 'Verdana', 'Geneva', 'Lucid', 'Arial', 'Helvetica', 'Avant Garde', sans-serif; text-anchor: middle; fill: #ffffff" x="913.706818" y="250.026637" transform="rotate(-0 913.706818 250.026637)">730</text>
   </g>
   <g id="text_46">
    <g id="patch_32">
     <path d="M 190.574619 239.566279 
L 195.333369 239.566279 
Q 204.243369 239.566279 204.243369 230.656279 
L 204.243369 234.365966 
Q 204.243369 225.455966 195.333369 225.455966 
L 190.574619 225.455966 
Q 181.664619 225.455966 181.664619 234.365966 
L 181.664619 230.656279 
Q 181.664619 239.566279 190.574619 239.566279 
z
" style="fill: #671435"/>
    </g>
    <text style="font-size: 9px; font-family: 'DejaVu Sans', 'Bitstream Vera Sans', 'Computer Modern Sans Serif', 'Lucida Grande', 'Verdana', 'Geneva', 'Lucid', 'Arial', 'Helvetica', 'Avant Garde', sans-serif; text-anchor: middle; fill: #ffffff" x="192.953994" y="234.99456" transform="rotate(-0 192.953994 234.99456)">503</text>
   </g>
   <g id="text_47">
    <g id="patch_33">
     <path d="M 250.596244 216.040531 
L 255.354994 216.040531 
Q 264.264994 216.040531 264.264994 207.130531 
L 264.264994 210.840218 
Q 264.264994 201.930218 255.354994 201.930218 
L 250.596244 201.930218 
Q 241.686244 201.930218 241.686244 210.840218 
L 241.686244 207.130531 
Q 241.686244 216.040531 250.596244 216.040531 
z
" style="fill: #ffffff; stroke: #808080; stroke-linejoin: miter"/>
    </g>
    <text style="font-size: 9px; font-family: 'DejaVu Sans', 'Bitstream Vera Sans', 'Computer Modern Sans Serif', 'Lucida Grande', 'Verdana', 'Geneva', 'Lucid', 'Arial', 'Helvetica', 'Avant Garde', sans-serif; text-anchor: middle; fill: #671435" x="252.975619" y="211.468812" transform="rotate(-0 252.975619 211.468812)">775</text>
   </g>
   <g id="text_48">
    <g id="patch_34">
     <path d="M 310.70009 202.352868 
L 315.45884 202.352868 
Q 324.36884 202.352868 324.36884 193.442868 
L 324.36884 197.152556 
Q 324.36884 188.242556 315.45884 188.242556 
L 310.70009 188.242556 
Q 301.79009 188.242556 301.79009 197.152556 
L 301.79009 193.442868 
Q 301.79009 202.352868 310.70009 202.352868 
z
" style="fill: #ffffff; stroke: #808080; stroke-linejoin: miter"/>
    </g>
    <text style="font-size: 9px; font-family: 'DejaVu Sans', 'Bitstream Vera Sans', 'Computer Modern Sans Serif', 'Lucida Grande', 'Verdana', 'Geneva', 'Lucid', 'Arial', 'Helvetica', 'Avant Garde', sans-serif; text-anchor: middle; fill: #671435" x="313.079465" y="197.781149" transform="rotate(-0 313.079465 197.781149)">903</text>
   </g>
   <g id="text_49">
    <g id="patch_35">
     <path d="M 366.428433 181.596732 
L 379.773746 181.596732 
Q 388.683746 181.596732 388.683746 172.686732 
L 388.683746 176.39642 
Q 388.683746 167.48642 379.773746 167.48642 
L 366.428433 167.48642 
Q 357.518433 167.48642 357.518433 176.39642 
L 357.518433 172.686732 
Q 357.518433 181.596732 366.428433 181.596732 
z
" style="fill: #ffffff; stroke: #808080; stroke-linejoin: miter"/>
    </g>
    <text style="font-size: 9px; font-family: 'DejaVu Sans', 'Bitstream Vera Sans', 'Computer Modern Sans Serif', 'Lucida Grande', 'Verdana', 'Geneva', 'Lucid', 'Arial', 'Helvetica', 'Avant Garde', sans-serif; text-anchor: middle; fill: #671435" x="373.101089" y="177.025014" transform="rotate(-0 373.101089 177.025014)">1,120</text>
   </g>
   <g id="text_50">
    <g id="patch_36">
     <path d="M 426.532279 169.590779 
L 439.877592 169.590779 
Q 448.787592 169.590779 448.787592 160.680779 
L 448.787592 164.390466 
Q 448.787592 155.480466 439.877592 155.480466 
L 426.532279 155.480466 
Q 417.622279 155.480466 417.622279 164.390466 
L 417.622279 160.680779 
Q 417.622279 169.590779 426.532279 169.590779 
z
" style="fill: #ffffff; stroke: #808080; stroke-linejoin: miter"/>
    </g>
    <text style="font-size: 9px; font-family: 'DejaVu Sans', 'Bitstream Vera Sans', 'Computer Modern Sans Serif', 'Lucida Grande', 'Verdana', 'Geneva', 'Lucid', 'Arial', 'Helvetica', 'Avant Garde', sans-serif; text-anchor: middle; fill: #671435" x="433.204935" y="165.01906" transform="rotate(-0 433.204935 165.01906)">1,421</text>
   </g>
   <g id="text_51">
    <g id="patch_37">
     <path d="M 486.553904 150.545621 
L 499.899216 150.545621 
Q 508.809216 150.545621 508.809216 141.635621 
L 508.809216 145.345308 
Q 508.809216 136.435308 499.899216 136.435308 
L 486.553904 136.435308 
Q 477.643904 136.435308 477.643904 145.345308 
L 477.643904 141.635621 
Q 477.643904 150.545621 486.553904 150.545621 
z
" style="fill: #ffffff; stroke: #808080; stroke-linejoin: miter"/>
    </g>
    <text style="font-size: 9px; font-family: 'DejaVu Sans', 'Bitstream Vera Sans', 'Computer Modern Sans Serif', 'Lucida Grande', 'Verdana', 'Geneva', 'Lucid', 'Arial', 'Helvetica', 'Avant Garde', sans-serif; text-anchor: middle; fill: #671435" x="493.22656" y="145.973902" transform="rotate(-0 493.22656 145.973902)">1,589</text>
   </g>
   <g id="text_52">
    <g id="patch_38">
     <path d="M 546.65775 137.45004 
L 560.003062 137.45004 
Q 568.913062 137.45004 568.913062 128.54004 
L 568.913062 132.249728 
Q 568.913062 123.339728 560.003062 123.339728 
L 546.65775 123.339728 
Q 537.74775 123.339728 537.74775 132.249728 
L 537.74775 128.54004 
Q 537.74775 137.45004 546.65775 137.45004 
z
" style="fill: #ffffff; stroke: #808080; stroke-linejoin: miter"/>
    </g>
    <text style="font-size: 9px; font-family: 'DejaVu Sans', 'Bitstream Vera Sans', 'Computer Modern Sans Serif', 'Lucida Grande', 'Verdana', 'Geneva', 'Lucid', 'Arial', 'Helvetica', 'Avant Garde', sans-serif; text-anchor: middle; fill: #671435" x="553.330406" y="132.878322" transform="rotate(-0 553.330406 132.878322)">2,166</text>
   </g>
   <g id="text_53">
    <g id="patch_39">
     <path d="M 606.679375 104.122965 
L 620.024687 104.122965 
Q 628.934687 104.122965 628.934687 95.212965 
L 628.934687 98.922652 
Q 628.934687 90.012652 620.024687 90.012652 
L 606.679375 90.012652 
Q 597.769375 90.012652 597.769375 98.922652 
L 597.769375 95.212965 
Q 597.769375 104.122965 606.679375 104.122965 
z
" style="fill: #ffffff; stroke: #808080; stroke-linejoin: miter"/>
    </g>
    <text style="font-size: 9px; font-family: 'DejaVu Sans', 'Bitstream Vera Sans', 'Computer Modern Sans Serif', 'Lucida Grande', 'Verdana', 'Geneva', 'Lucid', 'Arial', 'Helvetica', 'Avant Garde', sans-serif; text-anchor: middle; fill: #671435" x="613.352031" y="99.551246" transform="rotate(-0 613.352031 99.551246)">2,752</text>
   </g>
   <g id="text_54">
    <g id="patch_40">
     <path d="M 666.783221 89.424006 
L 680.128533 89.424006 
Q 689.038533 89.424006 689.038533 80.514006 
L 689.038533 84.223694 
Q 689.038533 75.313694 680.128533 75.313694 
L 666.783221 75.313694 
Q 657.873221 75.313694 657.873221 84.223694 
L 657.873221 80.514006 
Q 657.873221 89.424006 666.783221 89.424006 
z
" style="fill: #ffffff; stroke: #808080; stroke-linejoin: miter"/>
    </g>
    <text style="font-size: 9px; font-family: 'DejaVu Sans', 'Bitstream Vera Sans', 'Computer Modern Sans Serif', 'Lucida Grande', 'Verdana', 'Geneva', 'Lucid', 'Arial', 'Helvetica', 'Avant Garde', sans-serif; text-anchor: middle; fill: #671435" x="673.455877" y="84.852288" transform="rotate(-0 673.455877 84.852288)">2,795</text>
   </g>
   <g id="text_55">
    <g id="patch_41">
     <path d="M 726.804845 79.872253 
L 740.150158 79.872253 
Q 749.060158 79.872253 749.060158 70.962253 
L 749.060158 74.67194 
Q 749.060158 65.76194 740.150158 65.76194 
L 726.804845 65.76194 
Q 717.894845 65.76194 717.894845 74.67194 
L 717.894845 70.962253 
Q 717.894845 79.872253 726.804845 79.872253 
z
" style="fill: #ffffff; stroke: #808080; stroke-linejoin: miter"/>
    </g>
    <text style="font-size: 9px; font-family: 'DejaVu Sans', 'Bitstream Vera Sans', 'Computer Modern Sans Serif', 'Lucida Grande', 'Verdana', 'Geneva', 'Lucid', 'Arial', 'Helvetica', 'Avant Garde', sans-serif; text-anchor: middle; fill: #671435" x="733.477501" y="75.300534" transform="rotate(-0 733.477501 75.300534)">2,916</text>
   </g>
   <g id="text_56">
    <g id="patch_42">
     <path d="M 756.897879 77.355142 
L 770.243191 77.355142 
Q 779.153191 77.355142 779.153191 68.445142 
L 779.153191 72.15483 
Q 779.153191 63.24483 770.243191 63.24483 
L 756.897879 63.24483 
Q 747.987879 63.24483 747.987879 72.15483 
L 747.987879 68.445142 
Q 747.987879 77.355142 756.897879 77.355142 
z
" style="fill: #ffffff; stroke: #808080; stroke-linejoin: miter"/>
    </g>
    <text style="font-size: 9px; font-family: 'DejaVu Sans', 'Bitstream Vera Sans', 'Computer Modern Sans Serif', 'Lucida Grande', 'Verdana', 'Geneva', 'Lucid', 'Arial', 'Helvetica', 'Avant Garde', sans-serif; text-anchor: middle; fill: #671435" x="763.570535" y="72.783424" transform="rotate(-0 763.570535 72.783424)">2,950</text>
   </g>
   <g id="text_57">
    <g id="patch_43">
     <path d="M 791.201973 234.278662 
L 795.960723 234.278662 
Q 804.870723 234.278662 804.870723 225.368662 
L 804.870723 229.078349 
Q 804.870723 220.168349 795.960723 220.168349 
L 791.201973 220.168349 
Q 782.291973 220.168349 782.291973 229.078349 
L 782.291973 225.368662 
Q 782.291973 234.278662 791.201973 234.278662 
z
" style="fill: #ffffff; stroke: #808080; stroke-linejoin: miter"/>
    </g>
    <text style="font-size: 9px; font-family: 'DejaVu Sans', 'Bitstream Vera Sans', 'Computer Modern Sans Serif', 'Lucida Grande', 'Verdana', 'Geneva', 'Lucid', 'Arial', 'Helvetica', 'Avant Garde', sans-serif; text-anchor: middle; fill: #671435" x="793.581348" y="229.706943" transform="rotate(-0 793.581348 229.706943)">544</text>
   </g>
   <g id="text_58">
    <g id="patch_44">
     <path d="M 851.223597 238.815957 
L 855.982347 238.815957 
Q 864.892347 238.815957 864.892347 229.905957 
L 864.892347 233.615644 
Q 864.892347 224.705644 855.982347 224.705644 
L 851.223597 224.705644 
Q 842.313597 224.705644 842.313597 233.615644 
L 842.313597 229.905957 
Q 842.313597 238.815957 851.223597 238.815957 
z
" style="fill: #ffffff; stroke: #808080; stroke-linejoin: miter"/>
    </g>
    <text style="font-size: 9px; font-family: 'DejaVu Sans', 'Bitstream Vera Sans', 'Computer Modern Sans Serif', 'Lucida Grande', 'Verdana', 'Geneva', 'Lucid', 'Arial', 'Helvetica', 'Avant Garde', sans-serif; text-anchor: middle; fill: #671435" x="853.602972" y="234.244238" transform="rotate(-0 853.602972 234.244238)">104</text>
   </g>
   <g id="text_59">
    <g id="patch_45">
     <path d="M 911.327443 237.754284 
L 916.086193 237.754284 
Q 924.996193 237.754284 924.996193 228.844284 
L 924.996193 232.553971 
Q 924.996193 223.643971 916.086193 223.643971 
L 911.327443 223.643971 
Q 902.417443 223.643971 902.417443 232.553971 
L 902.417443 228.844284 
Q 902.417443 237.754284 911.327443 237.754284 
z
" style="fill: #671435"/>
    </g>
    <text style="font-size: 9px; font-family: 'DejaVu Sans', 'Bitstream Vera Sans', 'Computer Modern Sans Serif', 'Lucida Grande', 'Verdana', 'Geneva', 'Lucid', 'Arial', 'Helvetica', 'Avant Garde', sans-serif; text-anchor: middle; fill: #ffffff" x="913.706818" y="233.182565" transform="rotate(-0 913.706818 233.182565)">229</text>
   </g>
   <g id="text_60">
    <g id="patch_46">
     <path d="M 190.574619 222.722207 
L 195.333369 222.722207 
Q 204.243369 222.722207 204.243369 213.812207 
L 204.243369 217.521894 
Q 204.243369 208.611894 195.333369 208.611894 
L 190.574619 208.611894 
Q 181.664619 208.611894 181.664619 217.521894 
L 181.664619 213.812207 
Q 181.664619 222.722207 190.574619 222.722207 
z
" style="fill: #9b2247"/>
    </g>
    <text style="font-size: 9px; font-family: 'DejaVu Sans', 'Bitstream Vera Sans', 'Computer Modern Sans Serif', 'Lucida Grande', 'Verdana', 'Geneva', 'Lucid', 'Arial', 'Helvetica', 'Avant Garde', sans-serif; text-anchor: middle; fill: #ffffff" x="192.953994" y="218.150488" transform="rotate(-0 192.953994 218.150488)">613</text>
   </g>
   <g id="text_61">
    <g id="patch_47">
     <path d="M 250.596244 199.196459 
L 255.354994 199.196459 
Q 264.264994 199.196459 264.264994 190.286459 
L 264.264994 193.996146 
Q 264.264994 185.086146 255.354994 185.086146 
L 250.596244 185.086146 
Q 241.686244 185.086146 241.686244 193.996146 
L 241.686244 190.286459 
Q 241.686244 199.196459 250.596244 199.196459 
z
" style="fill: #ffffff; stroke: #808080; stroke-linejoin: miter"/>
    </g>
    <text style="font-size: 9px; font-family: 'DejaVu Sans', 'Bitstream Vera Sans', 'Computer Modern Sans Serif', 'Lucida Grande', 'Verdana', 'Geneva', 'Lucid', 'Arial', 'Helvetica', 'Avant Garde', sans-serif; text-anchor: middle; fill: #9b2247" x="252.975619" y="194.62474" transform="rotate(-0 252.975619 194.62474)">836</text>
   </g>
   <g id="text_62">
    <g id="patch_48">
     <path d="M 306.406809 185.508796 
L 319.752121 185.508796 
Q 328.662121 185.508796 328.662121 176.598796 
L 328.662121 180.308484 
Q 328.662121 171.398484 319.752121 171.398484 
L 306.406809 171.398484 
Q 297.496809 171.398484 297.496809 180.308484 
L 297.496809 176.598796 
Q 297.496809 185.508796 306.406809 185.508796 
z
" style="fill: #ffffff; stroke: #808080; stroke-linejoin: miter"/>
    </g>
    <text style="font-size: 9px; font-family: 'DejaVu Sans', 'Bitstream Vera Sans', 'Computer Modern Sans Serif', 'Lucida Grande', 'Verdana', 'Geneva', 'Lucid', 'Arial', 'Helvetica', 'Avant Garde', sans-serif; text-anchor: middle; fill: #9b2247" x="313.079465" y="180.937077" transform="rotate(-0 313.079465 180.937077)">1,007</text>
   </g>
   <g id="text_63">
    <g id="patch_49">
     <path d="M 366.428433 164.75266 
L 379.773746 164.75266 
Q 388.683746 164.75266 388.683746 155.84266 
L 388.683746 159.552348 
Q 388.683746 150.642348 379.773746 150.642348 
L 366.428433 150.642348 
Q 357.518433 150.642348 357.518433 159.552348 
L 357.518433 155.84266 
Q 357.518433 164.75266 366.428433 164.75266 
z
" style="fill: #ffffff; stroke: #808080; stroke-linejoin: miter"/>
    </g>
    <text style="font-size: 9px; font-family: 'DejaVu Sans', 'Bitstream Vera Sans', 'Computer Modern Sans Serif', 'Lucida Grande', 'Verdana', 'Geneva', 'Lucid', 'Arial', 'Helvetica', 'Avant Garde', sans-serif; text-anchor: middle; fill: #9b2247" x="373.101089" y="160.180942" transform="rotate(-0 373.101089 160.180942)">1,358</text>
   </g>
   <g id="text_64">
    <g id="patch_50">
     <path d="M 426.532279 152.746707 
L 439.877592 152.746707 
Q 448.787592 152.746707 448.787592 143.836707 
L 448.787592 147.546394 
Q 448.787592 138.636394 439.877592 138.636394 
L 426.532279 138.636394 
Q 417.622279 138.636394 417.622279 147.546394 
L 417.622279 143.836707 
Q 417.622279 152.746707 426.532279 152.746707 
z
" style="fill: #ffffff; stroke: #808080; stroke-linejoin: miter"/>
    </g>
    <text style="font-size: 9px; font-family: 'DejaVu Sans', 'Bitstream Vera Sans', 'Computer Modern Sans Serif', 'Lucida Grande', 'Verdana', 'Geneva', 'Lucid', 'Arial', 'Helvetica', 'Avant Garde', sans-serif; text-anchor: middle; fill: #9b2247" x="433.204935" y="148.174988" transform="rotate(-0 433.204935 148.174988)">1,420</text>
   </g>
   <g id="text_65">
    <g id="patch_51">
     <path d="M 486.553904 133.701549 
L 499.899216 133.701549 
Q 508.809216 133.701549 508.809216 124.791549 
L 508.809216 128.501236 
Q 508.809216 119.591236 499.899216 119.591236 
L 486.553904 119.591236 
Q 477.643904 119.591236 477.643904 128.501236 
L 477.643904 124.791549 
Q 477.643904 133.701549 486.553904 133.701549 
z
" style="fill: #ffffff; stroke: #808080; stroke-linejoin: miter"/>
    </g>
    <text style="font-size: 9px; font-family: 'DejaVu Sans', 'Bitstream Vera Sans', 'Computer Modern Sans Serif', 'Lucida Grande', 'Verdana', 'Geneva', 'Lucid', 'Arial', 'Helvetica', 'Avant Garde', sans-serif; text-anchor: middle; fill: #9b2247" x="493.22656" y="129.12983" transform="rotate(-0 493.22656 129.12983)">1,867</text>
   </g>
   <g id="text_66">
    <g id="patch_52">
     <path d="M 546.65775 120.605968 
L 560.003062 120.605968 
Q 568.913062 120.605968 568.913062 111.695968 
L 568.913062 115.405656 
Q 568.913062 106.495656 560.003062 106.495656 
L 546.65775 106.495656 
Q 537.74775 106.495656 537.74775 115.405656 
L 537.74775 111.695968 
Q 537.74775 120.605968 546.65775 120.605968 
z
" style="fill: #ffffff; stroke: #808080; stroke-linejoin: miter"/>
    </g>
    <text style="font-size: 9px; font-family: 'DejaVu Sans', 'Bitstream Vera Sans', 'Computer Modern Sans Serif', 'Lucida Grande', 'Verdana', 'Geneva', 'Lucid', 'Arial', 'Helvetica', 'Avant Garde', sans-serif; text-anchor: middle; fill: #9b2247" x="553.330406" y="116.03425" transform="rotate(-0 553.330406 116.03425)">1,899</text>
   </g>
   <g id="text_67">
    <g id="patch_53">
     <path d="M 606.679375 87.278893 
L 620.024687 87.278893 
Q 628.934687 87.278893 628.934687 78.368893 
L 628.934687 82.07858 
Q 628.934687 73.16858 620.024687 73.16858 
L 606.679375 73.16858 
Q 597.769375 73.16858 597.769375 82.07858 
L 597.769375 78.368893 
Q 597.769375 87.278893 606.679375 87.278893 
z
" style="fill: #ffffff; stroke: #808080; stroke-linejoin: miter"/>
    </g>
    <text style="font-size: 9px; font-family: 'DejaVu Sans', 'Bitstream Vera Sans', 'Computer Modern Sans Serif', 'Lucida Grande', 'Verdana', 'Geneva', 'Lucid', 'Arial', 'Helvetica', 'Avant Garde', sans-serif; text-anchor: middle; fill: #9b2247" x="613.352031" y="82.707174" transform="rotate(-0 613.352031 82.707174)">2,178</text>
   </g>
   <g id="text_68">
    <g id="patch_54">
     <path d="M 666.783221 72.579934 
L 680.128533 72.579934 
Q 689.038533 72.579934 689.038533 63.669934 
L 689.038533 67.379622 
Q 689.038533 58.469622 680.128533 58.469622 
L 666.783221 58.469622 
Q 657.873221 58.469622 657.873221 67.379622 
L 657.873221 63.669934 
Q 657.873221 72.579934 666.783221 72.579934 
z
" style="fill: #ffffff; stroke: #808080; stroke-linejoin: miter"/>
    </g>
    <text style="font-size: 9px; font-family: 'DejaVu Sans', 'Bitstream Vera Sans', 'Computer Modern Sans Serif', 'Lucida Grande', 'Verdana', 'Geneva', 'Lucid', 'Arial', 'Helvetica', 'Avant Garde', sans-serif; text-anchor: middle; fill: #9b2247" x="673.455877" y="68.008216" transform="rotate(-0 673.455877 68.008216)">2,287</text>
   </g>
   <g id="text_69">
    <g id="patch_55">
     <path d="M 726.804845 63.028181 
L 740.150158 63.028181 
Q 749.060158 63.028181 749.060158 54.118181 
L 749.060158 57.827868 
Q 749.060158 48.917868 740.150158 48.917868 
L 726.804845 48.917868 
Q 717.894845 48.917868 717.894845 57.827868 
L 717.894845 54.118181 
Q 717.894845 63.028181 726.804845 63.028181 
z
" style="fill: #ffffff; stroke: #808080; stroke-linejoin: miter"/>
    </g>
    <text style="font-size: 9px; font-family: 'DejaVu Sans', 'Bitstream Vera Sans', 'Computer Modern Sans Serif', 'Lucida Grande', 'Verdana', 'Geneva', 'Lucid', 'Arial', 'Helvetica', 'Avant Garde', sans-serif; text-anchor: middle; fill: #9b2247" x="733.477501" y="58.456462" transform="rotate(-0 733.477501 58.456462)">2,414</text>
   </g>
   <g id="text_70">
    <g id="patch_56">
     <path d="M 756.897879 60.51107 
L 770.243191 60.51107 
Q 779.153191 60.51107 779.153191 51.60107 
L 779.153191 55.310758 
Q 779.153191 46.400758 770.243191 46.400758 
L 756.897879 46.400758 
Q 747.987879 46.400758 747.987879 55.310758 
L 747.987879 51.60107 
Q 747.987879 60.51107 756.897879 60.51107 
z
" style="fill: #ffffff; stroke: #808080; stroke-linejoin: miter"/>
    </g>
    <text style="font-size: 9px; font-family: 'DejaVu Sans', 'Bitstream Vera Sans', 'Computer Modern Sans Serif', 'Lucida Grande', 'Verdana', 'Geneva', 'Lucid', 'Arial', 'Helvetica', 'Avant Garde', sans-serif; text-anchor: middle; fill: #9b2247" x="763.570535" y="55.939352" transform="rotate(-0 763.570535 55.939352)">2,452</text>
   </g>
   <g id="text_71">
    <g id="patch_57">
     <path d="M 791.201973 217.43459 
L 795.960723 217.43459 
Q 804.870723 217.43459 804.870723 208.52459 
L 804.870723 212.234277 
Q 804.870723 203.324277 795.960723 203.324277 
L 791.201973 203.324277 
Q 782.291973 203.324277 782.291973 212.234277 
L 782.291973 208.52459 
Q 782.291973 217.43459 791.201973 217.43459 
z
" style="fill: #ffffff; stroke: #808080; stroke-linejoin: miter"/>
    </g>
    <text style="font-size: 9px; font-family: 'DejaVu Sans', 'Bitstream Vera Sans', 'Computer Modern Sans Serif', 'Lucida Grande', 'Verdana', 'Geneva', 'Lucid', 'Arial', 'Helvetica', 'Avant Garde', sans-serif; text-anchor: middle; fill: #9b2247" x="793.581348" y="212.862871" transform="rotate(-0 793.581348 212.862871)">230</text>
   </g>
   <g id="text_72">
    <g id="patch_58">
     <path d="M 851.223597 221.971885 
L 855.982347 221.971885 
Q 864.892347 221.971885 864.892347 213.061885 
L 864.892347 216.771572 
Q 864.892347 207.861572 855.982347 207.861572 
L 851.223597 207.861572 
Q 842.313597 207.861572 842.313597 216.771572 
L 842.313597 213.061885 
Q 842.313597 221.971885 851.223597 221.971885 
z
" style="fill: #ffffff; stroke: #808080; stroke-linejoin: miter"/>
    </g>
    <text style="font-size: 9px; font-family: 'DejaVu Sans', 'Bitstream Vera Sans', 'Computer Modern Sans Serif', 'Lucida Grande', 'Verdana', 'Geneva', 'Lucid', 'Arial', 'Helvetica', 'Avant Garde', sans-serif; text-anchor: middle; fill: #9b2247" x="853.602972" y="217.400166" transform="rotate(-0 853.602972 217.400166)">496</text>
   </g>
   <g id="text_73">
    <g id="patch_59">
     <path d="M 911.327443 220.910212 
L 916.086193 220.910212 
Q 924.996193 220.910212 924.996193 212.000212 
L 924.996193 215.709899 
Q 924.996193 206.799899 916.086193 206.799899 
L 911.327443 206.799899 
Q 902.417443 206.799899 902.417443 215.709899 
L 902.417443 212.000212 
Q 902.417443 220.910212 911.327443 220.910212 
z
" style="fill: #9b2247"/>
    </g>
    <text style="font-size: 9px; font-family: 'DejaVu Sans', 'Bitstream Vera Sans', 'Computer Modern Sans Serif', 'Lucida Grande', 'Verdana', 'Geneva', 'Lucid', 'Arial', 'Helvetica', 'Avant Garde', sans-serif; text-anchor: middle; fill: #ffffff" x="913.706818" y="216.338493" transform="rotate(-0 913.706818 216.338493)">390</text>
   </g>
   <g id="legend_1">
    <g id="patch_60">
     <path d="M 184.0125 29.515625 
L 224.0125 29.515625 
L 224.0125 15.515625 
L 184.0125 15.515625 
z
" style="fill: #006157; fill-opacity: 0.8"/>
    </g>
    <g id="text_74">
     <text style="font-weight: 500; font-size: 20px; font-family: 'Arial'; text-anchor: start" x="240.0125" y="29.515625" transform="rotate(-0 240.0125 29.515625)">Columna1</text>
    </g>
    <g id="patch_61">
     <path d="M 371.16875 29.515625 
L 411.16875 29.515625 
L 411.16875 15.515625 
L 371.16875 15.515625 
z
" style="fill: #767676; fill-opacity: 0.8"/>
    </g>
    <g id="text_75">
     <text style="font-weight: 500; font-size: 20px; font-family: 'Arial'; text-anchor: start" x="427.16875" y="29.515625" transform="rotate(-0 427.16875 29.515625)">Columna2</text>
    </g>
    <g id="patch_62">
     <path d="M 558.325 29.515625 
L 598.325 29.515625 
L 598.325 15.515625 
L 558.325 15.515625 
z
" style="fill: #671435; fill-opacity: 0.8"/>
    </g>
    <g id="text_76">
     <text style="font-weight: 500; font-size: 20px; font-family: 'Arial'; text-anchor: start" x="614.325" y="29.515625" transform="rotate(-0 614.325 29.515625)">Columna3</text>
    </g>
    <g id="patch_63">
     <path d="M 745.48125 29.515625 
L 785.48125 29.515625 
L 785.48125 15.515625 
L 745.48125 15.515625 
z
" style="fill: #9b2247; fill-opacity: 0.8"/>
    </g>
    <g id="text_77">
     <text style="font-weight: 500; font-size: 20px; font-family: 'Arial'; text-anchor: start" x="801.48125" y="29.515625" transform="rotate(-0 801.48125 29.515625)">Columna4</text>
    </g>
   </g>
  </g>
 </g>
 <defs>
  <clipPath id="p0dcc83595f">
   <rect x="125.405" y="26.0288" width="825.84" height="288.288"/>
  </clipPath>
 </defs>
</svg>
