<?xml version="1.0" encoding="utf-8" standalone="no"?>
<!DOCTYPE svg PUBLIC "-//W3C//DTD SVG 1.1//EN"
  "http://www.w3.org/Graphics/SVG/1.1/DTD/svg11.dtd">
<svg xmlns:xlink="http://www.w3.org/1999/xlink" width="958.445pt" height="415.358705pt" viewBox="0 0 958.445 415.358705" xmlns="http://www.w3.org/2000/svg" version="1.1">
 <metadata>
  <rdf:RDF xmlns:dc="http://purl.org/dc/elements/1.1/" xmlns:cc="http://creativecommons.org/ns#" xmlns:rdf="http://www.w3.org/1999/02/22-rdf-syntax-ns#">
   <cc:Work>
    <dc:type rdf:resource="http://purl.org/dc/dcmitype/StillImage"/>
    <dc:date>2025-05-23T16:11:40.856782</dc:date>
    <dc:format>image/svg+xml</dc:format>
    <dc:creator>
     <cc:Agent>
      <dc:title>Matplotlib v3.10.0, https://matplotlib.org/</dc:title>
     </cc:Agent>
    </dc:creator>
   </cc:Work>
  </rdf:RDF>
 </metadata>
 <defs>
  <style type="text/css">*{stroke-linejoin: round; stroke-linecap: butt}</style>
 </defs>
 <g id="figure_1">
  <g id="patch_1">
   <path d="M 0 415.358705 
L 958.445 415.358705 
L 958.445 -0 
L 0 -0 
z
" style="fill: #ffffff"/>
  </g>
  <g id="axes_1">
   <g id="patch_2">
    <path d="M 125.405 314.3168 
L 951.245 314.3168 
L 951.245 26.0288 
L 125.405 26.0288 
z
" style="fill: #ffffff"/>
   </g>
   <g id="FillBetweenPolyCollection_1">
    <path d="M 162.943182 311.698097 
L 162.943182 314.3168 
L 192.953994 314.3168 
L 222.964806 314.3168 
L 252.975619 314.3168 
L 283.068652 314.3168 
L 313.079465 314.3168 
L 343.090277 314.3168 
L 373.101089 314.3168 
L 403.194123 314.3168 
L 433.204935 314.3168 
L 463.215748 314.3168 
L 493.22656 314.3168 
L 523.319594 314.3168 
L 553.330406 314.3168 
L 583.341218 314.3168 
L 613.352031 314.3168 
L 643.445065 314.3168 
L 673.455877 314.3168 
L 703.466689 314.3168 
L 733.477501 314.3168 
L 763.570535 314.3168 
L 793.581348 314.3168 
L 823.59216 314.3168 
L 853.602972 314.3168 
L 883.696006 314.3168 
L 913.706818 314.3168 
L 913.706818 304.098124 
L 913.706818 304.098124 
L 883.696006 305.196425 
L 853.602972 301.930341 
L 823.59216 306.412796 
L 793.581348 301.291926 
L 763.570535 258.592667 
L 733.477501 259.300395 
L 703.466689 260.204422 
L 673.455877 272.32903 
L 643.445065 280.863883 
L 613.352031 283.291617 
L 583.341218 285.591193 
L 553.330406 285.607553 
L 523.319594 286.545843 
L 493.22656 287.831016 
L 463.215748 288.659341 
L 433.204935 294.54285 
L 403.194123 294.841453 
L 373.101089 297.877884 
L 343.090277 298.246654 
L 313.079465 300.389907 
L 283.068652 302.031533 
L 252.975619 303.432499 
L 222.964806 307.699659 
L 192.953994 309.528254 
L 162.943182 311.698097 
z
" clip-path="url(#pbacfa68ba1)" style="fill: #006157; fill-opacity: 0.8"/>
   </g>
   <g id="FillBetweenPolyCollection_2">
    <path d="M 162.943182 306.696997 
L 162.943182 311.698097 
L 192.953994 309.528254 
L 222.964806 307.699659 
L 252.975619 303.432499 
L 283.068652 302.031533 
L 313.079465 300.389907 
L 343.090277 298.246654 
L 373.101089 297.877884 
L 403.194123 294.841453 
L 433.204935 294.54285 
L 463.215748 288.659341 
L 493.22656 287.831016 
L 523.319594 286.545843 
L 553.330406 285.607553 
L 583.341218 285.591193 
L 613.352031 283.291617 
L 643.445065 280.863883 
L 673.455877 272.32903 
L 703.466689 260.204422 
L 733.477501 259.300395 
L 763.570535 258.592667 
L 793.581348 301.291926 
L 823.59216 306.412796 
L 853.602972 301.930341 
L 883.696006 305.196425 
L 913.706818 304.098124 
L 913.706818 298.572007 
L 913.706818 298.572007 
L 883.696006 299.879183 
L 853.602972 295.565536 
L 823.59216 294.758918 
L 793.581348 291.790806 
L 763.570535 205.500667 
L 733.477501 208.206999 
L 703.466689 209.999691 
L 673.455877 222.762162 
L 643.445065 236.158372 
L 613.352031 242.273 
L 583.341218 245.365337 
L 553.330406 247.810396 
L 523.319594 249.384385 
L 493.22656 252.263223 
L 463.215748 256.255115 
L 433.204935 262.915622 
L 403.194123 263.992833 
L 373.101089 267.571882 
L 343.090277 268.81108 
L 313.079465 273.874373 
L 283.068652 278.40378 
L 252.975619 281.505235 
L 222.964806 299.714342 
L 192.953994 303.285767 
L 162.943182 306.696997 
z
" clip-path="url(#pbacfa68ba1)" style="fill: #767676; fill-opacity: 0.8"/>
   </g>
   <g id="FillBetweenPolyCollection_3">
    <path d="M 162.943182 300.744714 
L 162.943182 306.696997 
L 192.953994 303.285767 
L 222.964806 299.714342 
L 252.975619 281.505235 
L 283.068652 278.40378 
L 313.079465 273.874373 
L 343.090277 268.81108 
L 373.101089 267.571882 
L 403.194123 263.992833 
L 433.204935 262.915622 
L 463.215748 256.255115 
L 493.22656 252.263223 
L 523.319594 249.384385 
L 553.330406 247.810396 
L 583.341218 245.365337 
L 613.352031 242.273 
L 643.445065 236.158372 
L 673.455877 222.762162 
L 703.466689 209.999691 
L 733.477501 208.206999 
L 763.570535 205.500667 
L 793.581348 291.790806 
L 823.59216 294.758918 
L 853.602972 295.565536 
L 883.696006 299.879183 
L 913.706818 298.572007 
L 913.706818 294.239684 
L 913.706818 294.239684 
L 883.696006 293.200925 
L 853.602972 286.608276 
L 823.59216 290.060142 
L 793.581348 287.34518 
L 763.570535 160.447861 
L 733.477501 166.081101 
L 703.466689 170.787833 
L 673.455877 183.766284 
L 643.445065 199.149391 
L 613.352031 209.400685 
L 583.341218 213.136627 
L 553.330406 217.55293 
L 523.319594 220.284532 
L 493.22656 224.709567 
L 463.215748 229.441647 
L 433.204935 244.729428 
L 403.194123 248.305545 
L 373.101089 252.124735 
L 343.090277 253.445915 
L 313.079465 264.167406 
L 283.068652 269.875337 
L 252.975619 273.492975 
L 222.964806 291.999135 
L 192.953994 296.380909 
L 162.943182 300.744714 
z
" clip-path="url(#pbacfa68ba1)" style="fill: #671435; fill-opacity: 0.8"/>
   </g>
   <g id="FillBetweenPolyCollection_4">
    <path d="M 162.943182 291.652543 
L 162.943182 300.744714 
L 192.953994 296.380909 
L 222.964806 291.999135 
L 252.975619 273.492975 
L 283.068652 269.875337 
L 313.079465 264.167406 
L 343.090277 253.445915 
L 373.101089 252.124735 
L 403.194123 248.305545 
L 433.204935 244.729428 
L 463.215748 229.441647 
L 493.22656 224.709567 
L 523.319594 220.284532 
L 553.330406 217.55293 
L 583.341218 213.136627 
L 613.352031 209.400685 
L 643.445065 199.149391 
L 673.455877 183.766284 
L 703.466689 170.787833 
L 733.477501 166.081101 
L 763.570535 160.447861 
L 793.581348 287.34518 
L 823.59216 290.060142 
L 853.602972 286.608276 
L 883.696006 293.200925 
L 913.706818 294.239684 
L 913.706818 292.497324 
L 913.706818 292.497324 
L 883.696006 286.987047 
L 853.602972 285.326517 
L 823.59216 289.149607 
L 793.581348 283.73728 
L 763.570535 122.1248 
L 733.477501 134.861633 
L 703.466689 140.862251 
L 673.455877 154.228754 
L 643.445065 171.147696 
L 613.352031 182.880332 
L 583.341218 187.189585 
L 553.330406 193.204612 
L 523.319594 196.511691 
L 493.22656 204.049995 
L 463.215748 209.354531 
L 433.204935 224.788316 
L 403.194123 231.085143 
L 373.101089 235.296409 
L 343.090277 237.566509 
L 313.079465 250.019049 
L 283.068652 256.450671 
L 252.975619 260.088023 
L 222.964806 280.979728 
L 192.953994 285.386997 
L 162.943182 291.652543 
z
" clip-path="url(#pbacfa68ba1)" style="fill: #9b2247; fill-opacity: 0.8"/>
   </g>
   <g id="matplotlib.axis_1">
    <g id="xtick_1">
     <g id="line2d_1">
      <path d="M 132.93237 314.3168 
L 132.93237 26.0288 
" clip-path="url(#pbacfa68ba1)" style="fill: none; stroke: #000000; stroke-opacity: 0.2; stroke-width: 0.75; stroke-linecap: square"/>
     </g>
     <g id="line2d_2">
      <defs>
       <path id="m2e4c34e97c" d="M 0 0 
L 0 3.5 
" style="stroke: #000000; stroke-width: 0.8"/>
      </defs>
      <g>
       <use xlink:href="#m2e4c34e97c" x="132.93237" y="314.3168" style="stroke: #000000; stroke-width: 0.8"/>
      </g>
     </g>
     <g id="text_1">
      <text style="font-size: 24px; font-family: 'DejaVu Sans', 'Bitstream Vera Sans', 'Computer Modern Sans Serif', 'Lucida Grande', 'Verdana', 'Geneva', 'Lucid', 'Arial', 'Helvetica', 'Avant Garde', sans-serif" transform="translate(116.020143 377.401858) rotate(-45)">2000</text>
     </g>
    </g>
    <g id="xtick_2">
     <g id="line2d_3">
      <path d="M 253.05784 314.3168 
L 253.05784 26.0288 
" clip-path="url(#pbacfa68ba1)" style="fill: none; stroke: #000000; stroke-opacity: 0.2; stroke-width: 0.75; stroke-linecap: square"/>
     </g>
     <g id="line2d_4">
      <g>
       <use xlink:href="#m2e4c34e97c" x="253.05784" y="314.3168" style="stroke: #000000; stroke-width: 0.8"/>
      </g>
     </g>
     <g id="text_2">
      <text style="font-size: 24px; font-family: 'DejaVu Sans', 'Bitstream Vera Sans', 'Computer Modern Sans Serif', 'Lucida Grande', 'Verdana', 'Geneva', 'Lucid', 'Arial', 'Helvetica', 'Avant Garde', sans-serif" transform="translate(236.145614 377.401858) rotate(-45)">2004</text>
     </g>
    </g>
    <g id="xtick_3">
     <g id="line2d_5">
      <path d="M 373.183311 314.3168 
L 373.183311 26.0288 
" clip-path="url(#pbacfa68ba1)" style="fill: none; stroke: #000000; stroke-opacity: 0.2; stroke-width: 0.75; stroke-linecap: square"/>
     </g>
     <g id="line2d_6">
      <g>
       <use xlink:href="#m2e4c34e97c" x="373.183311" y="314.3168" style="stroke: #000000; stroke-width: 0.8"/>
      </g>
     </g>
     <g id="text_3">
      <text style="font-size: 24px; font-family: 'DejaVu Sans', 'Bitstream Vera Sans', 'Computer Modern Sans Serif', 'Lucida Grande', 'Verdana', 'Geneva', 'Lucid', 'Arial', 'Helvetica', 'Avant Garde', sans-serif" transform="translate(356.271084 377.401858) rotate(-45)">2008</text>
     </g>
    </g>
    <g id="xtick_4">
     <g id="line2d_7">
      <path d="M 493.308782 314.3168 
L 493.308782 26.0288 
" clip-path="url(#pbacfa68ba1)" style="fill: none; stroke: #000000; stroke-opacity: 0.2; stroke-width: 0.75; stroke-linecap: square"/>
     </g>
     <g id="line2d_8">
      <g>
       <use xlink:href="#m2e4c34e97c" x="493.308782" y="314.3168" style="stroke: #000000; stroke-width: 0.8"/>
      </g>
     </g>
     <g id="text_4">
      <text style="font-size: 24px; font-family: 'DejaVu Sans', 'Bitstream Vera Sans', 'Computer Modern Sans Serif', 'Lucida Grande', 'Verdana', 'Geneva', 'Lucid', 'Arial', 'Helvetica', 'Avant Garde', sans-serif" transform="translate(476.396555 377.401858) rotate(-45)">2012</text>
     </g>
    </g>
    <g id="xtick_5">
     <g id="line2d_9">
      <path d="M 613.434252 314.3168 
L 613.434252 26.0288 
" clip-path="url(#pbacfa68ba1)" style="fill: none; stroke: #000000; stroke-opacity: 0.2; stroke-width: 0.75; stroke-linecap: square"/>
     </g>
     <g id="line2d_10">
      <g>
       <use xlink:href="#m2e4c34e97c" x="613.434252" y="314.3168" style="stroke: #000000; stroke-width: 0.8"/>
      </g>
     </g>
     <g id="text_5">
      <text style="font-size: 24px; font-family: 'DejaVu Sans', 'Bitstream Vera Sans', 'Computer Modern Sans Serif', 'Lucida Grande', 'Verdana', 'Geneva', 'Lucid', 'Arial', 'Helvetica', 'Avant Garde', sans-serif" transform="translate(596.522026 377.401858) rotate(-45)">2016</text>
     </g>
    </g>
    <g id="xtick_6">
     <g id="line2d_11">
      <path d="M 733.559723 314.3168 
L 733.559723 26.0288 
" clip-path="url(#pbacfa68ba1)" style="fill: none; stroke: #000000; stroke-opacity: 0.2; stroke-width: 0.75; stroke-linecap: square"/>
     </g>
     <g id="line2d_12">
      <g>
       <use xlink:href="#m2e4c34e97c" x="733.559723" y="314.3168" style="stroke: #000000; stroke-width: 0.8"/>
      </g>
     </g>
     <g id="text_6">
      <text style="font-size: 24px; font-family: 'DejaVu Sans', 'Bitstream Vera Sans', 'Computer Modern Sans Serif', 'Lucida Grande', 'Verdana', 'Geneva', 'Lucid', 'Arial', 'Helvetica', 'Avant Garde', sans-serif" transform="translate(716.647496 377.401858) rotate(-45)">2020</text>
     </g>
    </g>
    <g id="xtick_7">
     <g id="line2d_13">
      <path d="M 853.685194 314.3168 
L 853.685194 26.0288 
" clip-path="url(#pbacfa68ba1)" style="fill: none; stroke: #000000; stroke-opacity: 0.2; stroke-width: 0.75; stroke-linecap: square"/>
     </g>
     <g id="line2d_14">
      <g>
       <use xlink:href="#m2e4c34e97c" x="853.685194" y="314.3168" style="stroke: #000000; stroke-width: 0.8"/>
      </g>
     </g>
     <g id="text_7">
      <text style="font-size: 24px; font-family: 'DejaVu Sans', 'Bitstream Vera Sans', 'Computer Modern Sans Serif', 'Lucida Grande', 'Verdana', 'Geneva', 'Lucid', 'Arial', 'Helvetica', 'Avant Garde', sans-serif" transform="translate(836.772967 377.401858) rotate(-45)">2024</text>
     </g>
    </g>
    <g id="text_8">
     <text style="font-weight: 600; font-size: 24px; font-family: 'DejaVu Sans', 'Bitstream Vera Sans', 'Computer Modern Sans Serif', 'Lucida Grande', 'Verdana', 'Geneva', 'Lucid', 'Arial', 'Helvetica', 'Avant Garde', sans-serif; text-anchor: middle; fill: #767676" x="538.325" y="403.167455" transform="rotate(-0 538.325 403.167455)">Fecha</text>
    </g>
   </g>
   <g id="matplotlib.axis_2">
    <g id="ytick_1">
     <g id="line2d_15">
      <path d="M 125.405 314.3168 
L 951.245 314.3168 
" clip-path="url(#pbacfa68ba1)" style="fill: none; stroke: #000000; stroke-opacity: 0.2; stroke-width: 0.75; stroke-linecap: square"/>
     </g>
     <g id="line2d_16">
      <defs>
       <path id="m5a2853f963" d="M 0 0 
L -3.5 0 
" style="stroke: #000000; stroke-width: 0.8"/>
      </defs>
      <g>
       <use xlink:href="#m5a2853f963" x="125.405" y="314.3168" style="stroke: #000000; stroke-width: 0.8"/>
      </g>
     </g>
     <g id="text_9">
      <text style="font-size: 24px; font-family: 'DejaVu Sans', 'Bitstream Vera Sans', 'Computer Modern Sans Serif', 'Lucida Grande', 'Verdana', 'Geneva', 'Lucid', 'Arial', 'Helvetica', 'Avant Garde', sans-serif; text-anchor: end" x="118.405" y="323.434925" transform="rotate(-0 118.405 323.434925)">0</text>
     </g>
    </g>
    <g id="ytick_2">
     <g id="line2d_17">
      <path d="M 125.405 275.944704 
L 951.245 275.944704 
" clip-path="url(#pbacfa68ba1)" style="fill: none; stroke: #000000; stroke-opacity: 0.2; stroke-width: 0.75; stroke-linecap: square"/>
     </g>
     <g id="line2d_18">
      <g>
       <use xlink:href="#m5a2853f963" x="125.405" y="275.944704" style="stroke: #000000; stroke-width: 0.8"/>
      </g>
     </g>
     <g id="text_10">
      <text style="font-size: 24px; font-family: 'DejaVu Sans', 'Bitstream Vera Sans', 'Computer Modern Sans Serif', 'Lucida Grande', 'Verdana', 'Geneva', 'Lucid', 'Arial', 'Helvetica', 'Avant Garde', sans-serif; text-anchor: end" x="118.405" y="285.062829" transform="rotate(-0 118.405 285.062829)">2,500</text>
     </g>
    </g>
    <g id="ytick_3">
     <g id="line2d_19">
      <path d="M 125.405 237.572608 
L 951.245 237.572608 
" clip-path="url(#pbacfa68ba1)" style="fill: none; stroke: #000000; stroke-opacity: 0.2; stroke-width: 0.75; stroke-linecap: square"/>
     </g>
     <g id="line2d_20">
      <g>
       <use xlink:href="#m5a2853f963" x="125.405" y="237.572608" style="stroke: #000000; stroke-width: 0.8"/>
      </g>
     </g>
     <g id="text_11">
      <text style="font-size: 24px; font-family: 'DejaVu Sans', 'Bitstream Vera Sans', 'Computer Modern Sans Serif', 'Lucida Grande', 'Verdana', 'Geneva', 'Lucid', 'Arial', 'Helvetica', 'Avant Garde', sans-serif; text-anchor: end" x="118.405" y="246.690733" transform="rotate(-0 118.405 246.690733)">5,000</text>
     </g>
    </g>
    <g id="ytick_4">
     <g id="line2d_21">
      <path d="M 125.405 199.200512 
L 951.245 199.200512 
" clip-path="url(#pbacfa68ba1)" style="fill: none; stroke: #000000; stroke-opacity: 0.2; stroke-width: 0.75; stroke-linecap: square"/>
     </g>
     <g id="line2d_22">
      <g>
       <use xlink:href="#m5a2853f963" x="125.405" y="199.200512" style="stroke: #000000; stroke-width: 0.8"/>
      </g>
     </g>
     <g id="text_12">
      <text style="font-size: 24px; font-family: 'DejaVu Sans', 'Bitstream Vera Sans', 'Computer Modern Sans Serif', 'Lucida Grande', 'Verdana', 'Geneva', 'Lucid', 'Arial', 'Helvetica', 'Avant Garde', sans-serif; text-anchor: end" x="118.405" y="208.318637" transform="rotate(-0 118.405 208.318637)">7,500</text>
     </g>
    </g>
    <g id="ytick_5">
     <g id="line2d_23">
      <path d="M 125.405 160.828416 
L 951.245 160.828416 
" clip-path="url(#pbacfa68ba1)" style="fill: none; stroke: #000000; stroke-opacity: 0.2; stroke-width: 0.75; stroke-linecap: square"/>
     </g>
     <g id="line2d_24">
      <g>
       <use xlink:href="#m5a2853f963" x="125.405" y="160.828416" style="stroke: #000000; stroke-width: 0.8"/>
      </g>
     </g>
     <g id="text_13">
      <text style="font-size: 24px; font-family: 'DejaVu Sans', 'Bitstream Vera Sans', 'Computer Modern Sans Serif', 'Lucida Grande', 'Verdana', 'Geneva', 'Lucid', 'Arial', 'Helvetica', 'Avant Garde', sans-serif; text-anchor: end" x="118.405" y="169.946541" transform="rotate(-0 118.405 169.946541)">10,000</text>
     </g>
    </g>
    <g id="ytick_6">
     <g id="line2d_25">
      <path d="M 125.405 122.45632 
L 951.245 122.45632 
" clip-path="url(#pbacfa68ba1)" style="fill: none; stroke: #000000; stroke-opacity: 0.2; stroke-width: 0.75; stroke-linecap: square"/>
     </g>
     <g id="line2d_26">
      <g>
       <use xlink:href="#m5a2853f963" x="125.405" y="122.45632" style="stroke: #000000; stroke-width: 0.8"/>
      </g>
     </g>
     <g id="text_14">
      <text style="font-size: 24px; font-family: 'DejaVu Sans', 'Bitstream Vera Sans', 'Computer Modern Sans Serif', 'Lucida Grande', 'Verdana', 'Geneva', 'Lucid', 'Arial', 'Helvetica', 'Avant Garde', sans-serif; text-anchor: end" x="118.405" y="131.574445" transform="rotate(-0 118.405 131.574445)">12,500</text>
     </g>
    </g>
    <g id="ytick_7">
     <g id="line2d_27">
      <path d="M 125.405 84.084223 
L 951.245 84.084223 
" clip-path="url(#pbacfa68ba1)" style="fill: none; stroke: #000000; stroke-opacity: 0.2; stroke-width: 0.75; stroke-linecap: square"/>
     </g>
     <g id="line2d_28">
      <g>
       <use xlink:href="#m5a2853f963" x="125.405" y="84.084223" style="stroke: #000000; stroke-width: 0.8"/>
      </g>
     </g>
     <g id="text_15">
      <text style="font-size: 24px; font-family: 'DejaVu Sans', 'Bitstream Vera Sans', 'Computer Modern Sans Serif', 'Lucida Grande', 'Verdana', 'Geneva', 'Lucid', 'Arial', 'Helvetica', 'Avant Garde', sans-serif; text-anchor: end" x="118.405" y="93.202348" transform="rotate(-0 118.405 93.202348)">15,000</text>
     </g>
    </g>
    <g id="ytick_8">
     <g id="line2d_29">
      <path d="M 125.405 45.712127 
L 951.245 45.712127 
" clip-path="url(#pbacfa68ba1)" style="fill: none; stroke: #000000; stroke-opacity: 0.2; stroke-width: 0.75; stroke-linecap: square"/>
     </g>
     <g id="line2d_30">
      <g>
       <use xlink:href="#m5a2853f963" x="125.405" y="45.712127" style="stroke: #000000; stroke-width: 0.8"/>
      </g>
     </g>
     <g id="text_16">
      <text style="font-size: 24px; font-family: 'DejaVu Sans', 'Bitstream Vera Sans', 'Computer Modern Sans Serif', 'Lucida Grande', 'Verdana', 'Geneva', 'Lucid', 'Arial', 'Helvetica', 'Avant Garde', sans-serif; text-anchor: end" x="118.405" y="54.830252" transform="rotate(-0 118.405 54.830252)">17,500</text>
     </g>
    </g>
    <g id="text_17">
     <text style="font-weight: 500; font-size: 24px; font-family: 'DejaVu Sans', 'Bitstream Vera Sans', 'Computer Modern Sans Serif', 'Lucida Grande', 'Verdana', 'Geneva', 'Lucid', 'Arial', 'Helvetica', 'Avant Garde', sans-serif; text-anchor: middle; fill: #767676" x="25.43625" y="170.1728" transform="rotate(-90 25.43625 170.1728)">Valores</text>
    </g>
   </g>
   <g id="patch_3">
    <path d="M 125.405 314.3168 
L 951.245 314.3168 
" style="fill: none; stroke: #000000; stroke-width: 2; stroke-linejoin: miter; stroke-linecap: square"/>
   </g>
   <g id="text_18">
    <g id="patch_4">
     <path d="M 180.203525 269.853275 
L 205.704463 269.853275 
Q 212.904463 269.853275 212.904463 262.653275 
L 212.904463 265.642963 
Q 212.904463 258.442963 205.704463 258.442963 
L 180.203525 258.442963 
Q 173.003525 258.442963 173.003525 265.642963 
L 173.003525 262.653275 
Q 173.003525 269.853275 180.203525 269.853275 
z
" style="fill: #006157"/>
    </g>
    <text style="font-size: 9px; font-family: 'DejaVu Sans', 'Bitstream Vera Sans', 'Computer Modern Sans Serif', 'Lucida Grande', 'Verdana', 'Geneva', 'Lucid', 'Arial', 'Helvetica', 'Avant Garde', sans-serif; text-anchor: middle; fill: #ffffff" x="192.953994" y="266.631556" transform="rotate(-0 192.953994 266.631556)">   311    </text>
   </g>
   <g id="text_19">
    <g id="patch_5">
     <path d="M 240.22515 244.554301 
L 265.726088 244.554301 
Q 272.926088 244.554301 272.926088 237.354301 
L 272.926088 240.343989 
Q 272.926088 233.143989 265.726088 233.143989 
L 240.22515 233.143989 
Q 233.02515 233.143989 233.02515 240.343989 
L 233.02515 237.354301 
Q 233.02515 244.554301 240.22515 244.554301 
z
" style="fill: #ffffff; stroke: #808080; stroke-width: 1.5; stroke-linejoin: miter"/>
    </g>
    <text style="font-size: 9px; font-family: 'DejaVu Sans', 'Bitstream Vera Sans', 'Computer Modern Sans Serif', 'Lucida Grande', 'Verdana', 'Geneva', 'Lucid', 'Arial', 'Helvetica', 'Avant Garde', sans-serif; text-anchor: middle; fill: #006157" x="252.975619" y="241.332582" transform="rotate(-0 252.975619 241.332582)">   709    </text>
   </g>
   <g id="text_20">
    <g id="patch_6">
     <path d="M 300.328996 234.485326 
L 325.829934 234.485326 
Q 333.029934 234.485326 333.029934 227.285326 
L 333.029934 230.275014 
Q 333.029934 223.075014 325.829934 223.075014 
L 300.328996 223.075014 
Q 293.128996 223.075014 293.128996 230.275014 
L 293.128996 227.285326 
Q 293.128996 234.485326 300.328996 234.485326 
z
" style="fill: #ffffff; stroke: #808080; stroke-width: 1.5; stroke-linejoin: miter"/>
    </g>
    <text style="font-size: 9px; font-family: 'DejaVu Sans', 'Bitstream Vera Sans', 'Computer Modern Sans Serif', 'Lucida Grande', 'Verdana', 'Geneva', 'Lucid', 'Arial', 'Helvetica', 'Avant Garde', sans-serif; text-anchor: middle; fill: #006157" x="313.079465" y="231.263608" transform="rotate(-0 313.079465 231.263608)">   907    </text>
   </g>
   <g id="text_21">
    <g id="patch_7">
     <path d="M 358.917652 219.762687 
L 387.284527 219.762687 
Q 394.484527 219.762687 394.484527 212.562687 
L 394.484527 215.552375 
Q 394.484527 208.352375 387.284527 208.352375 
L 358.917652 208.352375 
Q 351.717652 208.352375 351.717652 215.552375 
L 351.717652 212.562687 
Q 351.717652 219.762687 358.917652 219.762687 
z
" style="fill: #ffffff; stroke: #808080; stroke-width: 1.5; stroke-linejoin: miter"/>
    </g>
    <text style="font-size: 9px; font-family: 'DejaVu Sans', 'Bitstream Vera Sans', 'Computer Modern Sans Serif', 'Lucida Grande', 'Verdana', 'Geneva', 'Lucid', 'Arial', 'Helvetica', 'Avant Garde', sans-serif; text-anchor: middle; fill: #006157" x="373.101089" y="216.540968" transform="rotate(-0 373.101089 216.540968)">  1,071   </text>
   </g>
   <g id="text_22">
    <g id="patch_8">
     <path d="M 419.021498 209.254594 
L 447.388373 209.254594 
Q 454.588373 209.254594 454.588373 202.054594 
L 454.588373 205.044281 
Q 454.588373 197.844281 447.388373 197.844281 
L 419.021498 197.844281 
Q 411.821498 197.844281 411.821498 205.044281 
L 411.821498 202.054594 
Q 411.821498 209.254594 419.021498 209.254594 
z
" style="fill: #ffffff; stroke: #808080; stroke-width: 1.5; stroke-linejoin: miter"/>
    </g>
    <text style="font-size: 9px; font-family: 'DejaVu Sans', 'Bitstream Vera Sans', 'Computer Modern Sans Serif', 'Lucida Grande', 'Verdana', 'Geneva', 'Lucid', 'Arial', 'Helvetica', 'Avant Garde', sans-serif; text-anchor: middle; fill: #006157" x="433.204935" y="206.032875" transform="rotate(-0 433.204935 206.032875)">  1,288   </text>
   </g>
   <g id="text_23">
    <g id="patch_9">
     <path d="M 479.043123 188.516273 
L 507.409998 188.516273 
Q 514.609998 188.516273 514.609998 181.316273 
L 514.609998 184.30596 
Q 514.609998 177.10596 507.409998 177.10596 
L 479.043123 177.10596 
Q 471.843123 177.10596 471.843123 184.30596 
L 471.843123 181.316273 
Q 471.843123 188.516273 479.043123 188.516273 
z
" style="fill: #ffffff; stroke: #808080; stroke-width: 1.5; stroke-linejoin: miter"/>
    </g>
    <text style="font-size: 9px; font-family: 'DejaVu Sans', 'Bitstream Vera Sans', 'Computer Modern Sans Serif', 'Lucida Grande', 'Verdana', 'Geneva', 'Lucid', 'Arial', 'Helvetica', 'Avant Garde', sans-serif; text-anchor: middle; fill: #006157" x="493.22656" y="185.294554" transform="rotate(-0 493.22656 185.294554)">  1,725   </text>
   </g>
   <g id="text_24">
    <g id="patch_10">
     <path d="M 539.146969 177.670889 
L 567.513844 177.670889 
Q 574.713844 177.670889 574.713844 170.470889 
L 574.713844 173.460577 
Q 574.713844 166.260577 567.513844 166.260577 
L 539.146969 166.260577 
Q 531.946969 166.260577 531.946969 173.460577 
L 531.946969 170.470889 
Q 531.946969 177.670889 539.146969 177.670889 
z
" style="fill: #ffffff; stroke: #808080; stroke-width: 1.5; stroke-linejoin: miter"/>
    </g>
    <text style="font-size: 9px; font-family: 'DejaVu Sans', 'Bitstream Vera Sans', 'Computer Modern Sans Serif', 'Lucida Grande', 'Verdana', 'Geneva', 'Lucid', 'Arial', 'Helvetica', 'Avant Garde', sans-serif; text-anchor: middle; fill: #006157" x="553.330406" y="174.44917" transform="rotate(-0 553.330406 174.44917)">  1,870   </text>
   </g>
   <g id="text_25">
    <g id="patch_11">
     <path d="M 599.168593 167.34661 
L 627.535468 167.34661 
Q 634.735468 167.34661 634.735468 160.14661 
L 634.735468 163.136297 
Q 634.735468 155.936297 627.535468 155.936297 
L 599.168593 155.936297 
Q 591.968593 155.936297 591.968593 163.136297 
L 591.968593 160.14661 
Q 591.968593 167.34661 599.168593 167.34661 
z
" style="fill: #ffffff; stroke: #808080; stroke-width: 1.5; stroke-linejoin: miter"/>
    </g>
    <text style="font-size: 9px; font-family: 'DejaVu Sans', 'Bitstream Vera Sans', 'Computer Modern Sans Serif', 'Lucida Grande', 'Verdana', 'Geneva', 'Lucid', 'Arial', 'Helvetica', 'Avant Garde', sans-serif; text-anchor: middle; fill: #006157" x="613.352031" y="164.124891" transform="rotate(-0 613.352031 164.124891)">  2,021   </text>
   </g>
   <g id="text_26">
    <g id="patch_12">
     <path d="M 659.272439 138.695032 
L 687.639314 138.695032 
Q 694.839314 138.695032 694.839314 131.495032 
L 694.839314 134.484719 
Q 694.839314 127.284719 687.639314 127.284719 
L 659.272439 127.284719 
Q 652.072439 127.284719 652.072439 134.484719 
L 652.072439 131.495032 
Q 652.072439 138.695032 659.272439 138.695032 
z
" style="fill: #ffffff; stroke: #808080; stroke-width: 1.5; stroke-linejoin: miter"/>
    </g>
    <text style="font-size: 9px; font-family: 'DejaVu Sans', 'Bitstream Vera Sans', 'Computer Modern Sans Serif', 'Lucida Grande', 'Verdana', 'Geneva', 'Lucid', 'Arial', 'Helvetica', 'Avant Garde', sans-serif; text-anchor: middle; fill: #006157" x="673.455877" y="135.473313" transform="rotate(-0 673.455877 135.473313)">  2,735   </text>
   </g>
   <g id="text_27">
    <g id="patch_13">
     <path d="M 749.387098 106.591078 
L 777.753973 106.591078 
Q 784.953973 106.591078 784.953973 99.391078 
L 784.953973 102.380765 
Q 784.953973 95.180765 777.753973 95.180765 
L 749.387098 95.180765 
Q 742.187098 95.180765 742.187098 102.380765 
L 742.187098 99.391078 
Q 742.187098 106.591078 749.387098 106.591078 
z
" style="fill: #ffffff; stroke: #808080; stroke-width: 1.5; stroke-linejoin: miter"/>
    </g>
    <text style="font-size: 9px; font-family: 'DejaVu Sans', 'Bitstream Vera Sans', 'Computer Modern Sans Serif', 'Lucida Grande', 'Verdana', 'Geneva', 'Lucid', 'Arial', 'Helvetica', 'Avant Garde', sans-serif; text-anchor: middle; fill: #006157" x="763.570535" y="103.369359" transform="rotate(-0 763.570535 103.369359)">  3,630   </text>
   </g>
   <g id="text_28">
    <g id="patch_14">
     <path d="M 780.830879 268.203558 
L 806.331816 268.203558 
Q 813.531816 268.203558 813.531816 261.003558 
L 813.531816 263.993245 
Q 813.531816 256.793245 806.331816 256.793245 
L 780.830879 256.793245 
Q 773.630879 256.793245 773.630879 263.993245 
L 773.630879 261.003558 
Q 773.630879 268.203558 780.830879 268.203558 
z
" style="fill: #ffffff; stroke: #808080; stroke-width: 1.5; stroke-linejoin: miter"/>
    </g>
    <text style="font-size: 9px; font-family: 'DejaVu Sans', 'Bitstream Vera Sans', 'Computer Modern Sans Serif', 'Lucida Grande', 'Verdana', 'Geneva', 'Lucid', 'Arial', 'Helvetica', 'Avant Garde', sans-serif; text-anchor: middle; fill: #006157" x="793.581348" y="264.981839" transform="rotate(-0 793.581348 264.981839)">   848    </text>
   </g>
   <g id="text_29">
    <g id="patch_15">
     <path d="M 841.674717 269.792795 
L 867.175655 269.792795 
Q 874.375655 269.792795 874.375655 262.592795 
L 874.375655 265.582482 
Q 874.375655 258.382482 867.175655 258.382482 
L 841.674717 258.382482 
Q 834.474717 258.382482 834.474717 265.582482 
L 834.474717 262.592795 
Q 834.474717 269.792795 841.674717 269.792795 
z
" style="fill: #ffffff; stroke: #808080; stroke-width: 1.5; stroke-linejoin: miter"/>
    </g>
    <text style="font-size: 9px; font-family: 'DejaVu Sans', 'Bitstream Vera Sans', 'Computer Modern Sans Serif', 'Lucida Grande', 'Verdana', 'Geneva', 'Lucid', 'Arial', 'Helvetica', 'Avant Garde', sans-serif; text-anchor: middle; fill: #006157" x="854.425186" y="266.571076" transform="rotate(-0 854.425186 266.571076)">   806    </text>
   </g>
   <g id="text_30">
    <g id="patch_16">
     <path d="M 901.778563 276.963602 
L 927.279501 276.963602 
Q 934.479501 276.963602 934.479501 269.763602 
L 934.479501 272.75329 
Q 934.479501 265.55329 927.279501 265.55329 
L 901.778563 265.55329 
Q 894.578563 265.55329 894.578563 272.75329 
L 894.578563 269.763602 
Q 894.578563 276.963602 901.778563 276.963602 
z
" style="fill: #006157"/>
    </g>
    <text style="font-size: 9px; font-family: 'DejaVu Sans', 'Bitstream Vera Sans', 'Computer Modern Sans Serif', 'Lucida Grande', 'Verdana', 'Geneva', 'Lucid', 'Arial', 'Helvetica', 'Avant Garde', sans-serif; text-anchor: middle; fill: #ffffff" x="914.529032" y="273.741883" transform="rotate(-0 914.529032 273.741883)">   665    </text>
   </g>
   <g id="text_31">
    <g id="patch_17">
     <path d="M 180.203525 252.969553 
L 205.704463 252.969553 
Q 212.904463 252.969553 212.904463 245.769553 
L 212.904463 248.75924 
Q 212.904463 241.55924 205.704463 241.55924 
L 180.203525 241.55924 
Q 173.003525 241.55924 173.003525 248.75924 
L 173.003525 245.769553 
Q 173.003525 252.969553 180.203525 252.969553 
z
" style="fill: #767676"/>
    </g>
    <text style="font-size: 9px; font-family: 'DejaVu Sans', 'Bitstream Vera Sans', 'Computer Modern Sans Serif', 'Lucida Grande', 'Verdana', 'Geneva', 'Lucid', 'Arial', 'Helvetica', 'Avant Garde', sans-serif; text-anchor: middle; fill: #ffffff" x="192.953994" y="249.747834" transform="rotate(-0 192.953994 249.747834)">   406    </text>
   </g>
   <g id="text_32">
    <g id="patch_18">
     <path d="M 238.792181 227.670579 
L 267.159056 227.670579 
Q 274.359056 227.670579 274.359056 220.470579 
L 274.359056 223.460266 
Q 274.359056 216.260266 267.159056 216.260266 
L 238.792181 216.260266 
Q 231.592181 216.260266 231.592181 223.460266 
L 231.592181 220.470579 
Q 231.592181 227.670579 238.792181 227.670579 
z
" style="fill: #ffffff; stroke: #808080; stroke-width: 1.5; stroke-linejoin: miter"/>
    </g>
    <text style="font-size: 9px; font-family: 'DejaVu Sans', 'Bitstream Vera Sans', 'Computer Modern Sans Serif', 'Lucida Grande', 'Verdana', 'Geneva', 'Lucid', 'Arial', 'Helvetica', 'Avant Garde', sans-serif; text-anchor: middle; fill: #767676" x="252.975619" y="224.44886" transform="rotate(-0 252.975619 224.44886)">  1,428   </text>
   </g>
   <g id="text_33">
    <g id="patch_19">
     <path d="M 298.896027 217.601604 
L 327.262902 217.601604 
Q 334.462902 217.601604 334.462902 210.401604 
L 334.462902 213.391292 
Q 334.462902 206.191292 327.262902 206.191292 
L 298.896027 206.191292 
Q 291.696027 206.191292 291.696027 213.391292 
L 291.696027 210.401604 
Q 291.696027 217.601604 298.896027 217.601604 
z
" style="fill: #ffffff; stroke: #808080; stroke-width: 1.5; stroke-linejoin: miter"/>
    </g>
    <text style="font-size: 9px; font-family: 'DejaVu Sans', 'Bitstream Vera Sans', 'Computer Modern Sans Serif', 'Lucida Grande', 'Verdana', 'Geneva', 'Lucid', 'Arial', 'Helvetica', 'Avant Garde', sans-serif; text-anchor: middle; fill: #767676" x="313.079465" y="214.379885" transform="rotate(-0 313.079465 214.379885)">  1,727   </text>
   </g>
   <g id="text_34">
    <g id="patch_20">
     <path d="M 358.917652 202.878965 
L 387.284527 202.878965 
Q 394.484527 202.878965 394.484527 195.678965 
L 394.484527 198.668652 
Q 394.484527 191.468652 387.284527 191.468652 
L 358.917652 191.468652 
Q 351.717652 191.468652 351.717652 198.668652 
L 351.717652 195.678965 
Q 351.717652 202.878965 358.917652 202.878965 
z
" style="fill: #ffffff; stroke: #808080; stroke-width: 1.5; stroke-linejoin: miter"/>
    </g>
    <text style="font-size: 9px; font-family: 'DejaVu Sans', 'Bitstream Vera Sans', 'Computer Modern Sans Serif', 'Lucida Grande', 'Verdana', 'Geneva', 'Lucid', 'Arial', 'Helvetica', 'Avant Garde', sans-serif; text-anchor: middle; fill: #767676" x="373.101089" y="199.657246" transform="rotate(-0 373.101089 199.657246)">  1,974   </text>
   </g>
   <g id="text_35">
    <g id="patch_21">
     <path d="M 419.021498 192.370871 
L 447.388373 192.370871 
Q 454.588373 192.370871 454.588373 185.170871 
L 454.588373 188.160559 
Q 454.588373 180.960559 447.388373 180.960559 
L 419.021498 180.960559 
Q 411.821498 180.960559 411.821498 188.160559 
L 411.821498 185.170871 
Q 411.821498 192.370871 419.021498 192.370871 
z
" style="fill: #ffffff; stroke: #808080; stroke-width: 1.5; stroke-linejoin: miter"/>
    </g>
    <text style="font-size: 9px; font-family: 'DejaVu Sans', 'Bitstream Vera Sans', 'Computer Modern Sans Serif', 'Lucida Grande', 'Verdana', 'Geneva', 'Lucid', 'Arial', 'Helvetica', 'Avant Garde', sans-serif; text-anchor: middle; fill: #767676" x="433.204935" y="189.149153" transform="rotate(-0 433.204935 189.149153)">  2,060   </text>
   </g>
   <g id="text_36">
    <g id="patch_22">
     <path d="M 479.043123 171.632551 
L 507.409998 171.632551 
Q 514.609998 171.632551 514.609998 164.432551 
L 514.609998 167.422238 
Q 514.609998 160.222238 507.409998 160.222238 
L 479.043123 160.222238 
Q 471.843123 160.222238 471.843123 167.422238 
L 471.843123 164.432551 
Q 471.843123 171.632551 479.043123 171.632551 
z
" style="fill: #ffffff; stroke: #808080; stroke-width: 1.5; stroke-linejoin: miter"/>
    </g>
    <text style="font-size: 9px; font-family: 'DejaVu Sans', 'Bitstream Vera Sans', 'Computer Modern Sans Serif', 'Lucida Grande', 'Verdana', 'Geneva', 'Lucid', 'Arial', 'Helvetica', 'Avant Garde', sans-serif; text-anchor: middle; fill: #767676" x="493.22656" y="168.410832" transform="rotate(-0 493.22656 168.410832)">  2,317   </text>
   </g>
   <g id="text_37">
    <g id="patch_23">
     <path d="M 539.146969 160.787167 
L 567.513844 160.787167 
Q 574.713844 160.787167 574.713844 153.587167 
L 574.713844 156.576854 
Q 574.713844 149.376854 567.513844 149.376854 
L 539.146969 149.376854 
Q 531.946969 149.376854 531.946969 156.576854 
L 531.946969 153.587167 
Q 531.946969 160.787167 539.146969 160.787167 
z
" style="fill: #ffffff; stroke: #808080; stroke-width: 1.5; stroke-linejoin: miter"/>
    </g>
    <text style="font-size: 9px; font-family: 'DejaVu Sans', 'Bitstream Vera Sans', 'Computer Modern Sans Serif', 'Lucida Grande', 'Verdana', 'Geneva', 'Lucid', 'Arial', 'Helvetica', 'Avant Garde', sans-serif; text-anchor: middle; fill: #767676" x="553.330406" y="157.565448" transform="rotate(-0 553.330406 157.565448)">  2,462   </text>
   </g>
   <g id="text_38">
    <g id="patch_24">
     <path d="M 599.168593 150.462888 
L 627.535468 150.462888 
Q 634.735468 150.462888 634.735468 143.262888 
L 634.735468 146.252575 
Q 634.735468 139.052575 627.535468 139.052575 
L 599.168593 139.052575 
Q 591.968593 139.052575 591.968593 146.252575 
L 591.968593 143.262888 
Q 591.968593 150.462888 599.168593 150.462888 
z
" style="fill: #ffffff; stroke: #808080; stroke-width: 1.5; stroke-linejoin: miter"/>
    </g>
    <text style="font-size: 9px; font-family: 'DejaVu Sans', 'Bitstream Vera Sans', 'Computer Modern Sans Serif', 'Lucida Grande', 'Verdana', 'Geneva', 'Lucid', 'Arial', 'Helvetica', 'Avant Garde', sans-serif; text-anchor: middle; fill: #767676" x="613.352031" y="147.241169" transform="rotate(-0 613.352031 147.241169)">  2,672   </text>
   </g>
   <g id="text_39">
    <g id="patch_25">
     <path d="M 659.272439 121.811309 
L 687.639314 121.811309 
Q 694.839314 121.811309 694.839314 114.611309 
L 694.839314 117.600997 
Q 694.839314 110.400997 687.639314 110.400997 
L 659.272439 110.400997 
Q 652.072439 110.400997 652.072439 117.600997 
L 652.072439 114.611309 
Q 652.072439 121.811309 659.272439 121.811309 
z
" style="fill: #ffffff; stroke: #808080; stroke-width: 1.5; stroke-linejoin: miter"/>
    </g>
    <text style="font-size: 9px; font-family: 'DejaVu Sans', 'Bitstream Vera Sans', 'Computer Modern Sans Serif', 'Lucida Grande', 'Verdana', 'Geneva', 'Lucid', 'Arial', 'Helvetica', 'Avant Garde', sans-serif; text-anchor: middle; fill: #767676" x="673.455877" y="118.589591" transform="rotate(-0 673.455877 118.589591)">  3,229   </text>
   </g>
   <g id="text_40">
    <g id="patch_26">
     <path d="M 749.387098 89.707355 
L 777.753973 89.707355 
Q 784.953973 89.707355 784.953973 82.507355 
L 784.953973 85.497043 
Q 784.953973 78.297043 777.753973 78.297043 
L 749.387098 78.297043 
Q 742.187098 78.297043 742.187098 85.497043 
L 742.187098 82.507355 
Q 742.187098 89.707355 749.387098 89.707355 
z
" style="fill: #ffffff; stroke: #808080; stroke-width: 1.5; stroke-linejoin: miter"/>
    </g>
    <text style="font-size: 9px; font-family: 'DejaVu Sans', 'Bitstream Vera Sans', 'Computer Modern Sans Serif', 'Lucida Grande', 'Verdana', 'Geneva', 'Lucid', 'Arial', 'Helvetica', 'Avant Garde', sans-serif; text-anchor: middle; fill: #767676" x="763.570535" y="86.485637" transform="rotate(-0 763.570535 86.485637)">  3,459   </text>
   </g>
   <g id="text_41">
    <g id="patch_27">
     <path d="M 780.830879 251.319836 
L 806.331816 251.319836 
Q 813.531816 251.319836 813.531816 244.119836 
L 813.531816 247.109523 
Q 813.531816 239.909523 806.331816 239.909523 
L 780.830879 239.909523 
Q 773.630879 239.909523 773.630879 247.109523 
L 773.630879 244.119836 
Q 773.630879 251.319836 780.830879 251.319836 
z
" style="fill: #ffffff; stroke: #808080; stroke-width: 1.5; stroke-linejoin: miter"/>
    </g>
    <text style="font-size: 9px; font-family: 'DejaVu Sans', 'Bitstream Vera Sans', 'Computer Modern Sans Serif', 'Lucida Grande', 'Verdana', 'Geneva', 'Lucid', 'Arial', 'Helvetica', 'Avant Garde', sans-serif; text-anchor: middle; fill: #767676" x="793.581348" y="248.098117" transform="rotate(-0 793.581348 248.098117)">   619    </text>
   </g>
   <g id="text_42">
    <g id="patch_28">
     <path d="M 841.674717 252.909072 
L 867.175655 252.909072 
Q 874.375655 252.909072 874.375655 245.709072 
L 874.375655 248.69876 
Q 874.375655 241.49876 867.175655 241.49876 
L 841.674717 241.49876 
Q 834.474717 241.49876 834.474717 248.69876 
L 834.474717 245.709072 
Q 834.474717 252.909072 841.674717 252.909072 
z
" style="fill: #ffffff; stroke: #808080; stroke-width: 1.5; stroke-linejoin: miter"/>
    </g>
    <text style="font-size: 9px; font-family: 'DejaVu Sans', 'Bitstream Vera Sans', 'Computer Modern Sans Serif', 'Lucida Grande', 'Verdana', 'Geneva', 'Lucid', 'Arial', 'Helvetica', 'Avant Garde', sans-serif; text-anchor: middle; fill: #767676" x="854.425186" y="249.687354" transform="rotate(-0 854.425186 249.687354)">   414    </text>
   </g>
   <g id="text_43">
    <g id="patch_29">
     <path d="M 901.778563 260.07988 
L 927.279501 260.07988 
Q 934.479501 260.07988 934.479501 252.87988 
L 934.479501 255.869567 
Q 934.479501 248.669567 927.279501 248.669567 
L 901.778563 248.669567 
Q 894.578563 248.669567 894.578563 255.869567 
L 894.578563 252.87988 
Q 894.578563 260.07988 901.778563 260.07988 
z
" style="fill: #767676"/>
    </g>
    <text style="font-size: 9px; font-family: 'DejaVu Sans', 'Bitstream Vera Sans', 'Computer Modern Sans Serif', 'Lucida Grande', 'Verdana', 'Geneva', 'Lucid', 'Arial', 'Helvetica', 'Avant Garde', sans-serif; text-anchor: middle; fill: #ffffff" x="914.529032" y="256.858161" transform="rotate(-0 914.529032 256.858161)">   360    </text>
   </g>
   <g id="text_44">
    <g id="patch_30">
     <path d="M 180.203525 236.085831 
L 205.704463 236.085831 
Q 212.904463 236.085831 212.904463 228.885831 
L 212.904463 231.875518 
Q 212.904463 224.675518 205.704463 224.675518 
L 180.203525 224.675518 
Q 173.003525 224.675518 173.003525 231.875518 
L 173.003525 228.885831 
Q 173.003525 236.085831 180.203525 236.085831 
z
" style="fill: #671435"/>
    </g>
    <text style="font-size: 9px; font-family: 'DejaVu Sans', 'Bitstream Vera Sans', 'Computer Modern Sans Serif', 'Lucida Grande', 'Verdana', 'Geneva', 'Lucid', 'Arial', 'Helvetica', 'Avant Garde', sans-serif; text-anchor: middle; fill: #ffffff" x="192.953994" y="232.864112" transform="rotate(-0 192.953994 232.864112)">   449    </text>
   </g>
   <g id="text_45">
    <g id="patch_31">
     <path d="M 240.22515 210.786857 
L 265.726088 210.786857 
Q 272.926088 210.786857 272.926088 203.586857 
L 272.926088 206.576544 
Q 272.926088 199.376544 265.726088 199.376544 
L 240.22515 199.376544 
Q 233.02515 199.376544 233.02515 206.576544 
L 233.02515 203.586857 
Q 233.02515 210.786857 240.22515 210.786857 
z
" style="fill: #ffffff; stroke: #808080; stroke-width: 1.5; stroke-linejoin: miter"/>
    </g>
    <text style="font-size: 9px; font-family: 'DejaVu Sans', 'Bitstream Vera Sans', 'Computer Modern Sans Serif', 'Lucida Grande', 'Verdana', 'Geneva', 'Lucid', 'Arial', 'Helvetica', 'Avant Garde', sans-serif; text-anchor: middle; fill: #671435" x="252.975619" y="207.565138" transform="rotate(-0 252.975619 207.565138)">   522    </text>
   </g>
   <g id="text_46">
    <g id="patch_32">
     <path d="M 300.328996 200.717882 
L 325.829934 200.717882 
Q 333.029934 200.717882 333.029934 193.517882 
L 333.029934 196.507569 
Q 333.029934 189.307569 325.829934 189.307569 
L 300.328996 189.307569 
Q 293.128996 189.307569 293.128996 196.507569 
L 293.128996 193.517882 
Q 293.128996 200.717882 300.328996 200.717882 
z
" style="fill: #ffffff; stroke: #808080; stroke-width: 1.5; stroke-linejoin: miter"/>
    </g>
    <text style="font-size: 9px; font-family: 'DejaVu Sans', 'Bitstream Vera Sans', 'Computer Modern Sans Serif', 'Lucida Grande', 'Verdana', 'Geneva', 'Lucid', 'Arial', 'Helvetica', 'Avant Garde', sans-serif; text-anchor: middle; fill: #671435" x="313.079465" y="197.496163" transform="rotate(-0 313.079465 197.496163)">   632    </text>
   </g>
   <g id="text_47">
    <g id="patch_33">
     <path d="M 358.917652 185.995243 
L 387.284527 185.995243 
Q 394.484527 185.995243 394.484527 178.795243 
L 394.484527 181.78493 
Q 394.484527 174.58493 387.284527 174.58493 
L 358.917652 174.58493 
Q 351.717652 174.58493 351.717652 181.78493 
L 351.717652 178.795243 
Q 351.717652 185.995243 358.917652 185.995243 
z
" style="fill: #ffffff; stroke: #808080; stroke-width: 1.5; stroke-linejoin: miter"/>
    </g>
    <text style="font-size: 9px; font-family: 'DejaVu Sans', 'Bitstream Vera Sans', 'Computer Modern Sans Serif', 'Lucida Grande', 'Verdana', 'Geneva', 'Lucid', 'Arial', 'Helvetica', 'Avant Garde', sans-serif; text-anchor: middle; fill: #671435" x="373.101089" y="182.773524" transform="rotate(-0 373.101089 182.773524)">  1,006   </text>
   </g>
   <g id="text_48">
    <g id="patch_34">
     <path d="M 419.021498 175.487149 
L 447.388373 175.487149 
Q 454.588373 175.487149 454.588373 168.287149 
L 454.588373 171.276837 
Q 454.588373 164.076837 447.388373 164.076837 
L 419.021498 164.076837 
Q 411.821498 164.076837 411.821498 171.276837 
L 411.821498 168.287149 
Q 411.821498 175.487149 419.021498 175.487149 
z
" style="fill: #ffffff; stroke: #808080; stroke-width: 1.5; stroke-linejoin: miter"/>
    </g>
    <text style="font-size: 9px; font-family: 'DejaVu Sans', 'Bitstream Vera Sans', 'Computer Modern Sans Serif', 'Lucida Grande', 'Verdana', 'Geneva', 'Lucid', 'Arial', 'Helvetica', 'Avant Garde', sans-serif; text-anchor: middle; fill: #671435" x="433.204935" y="172.26543" transform="rotate(-0 433.204935 172.26543)">  1,184   </text>
   </g>
   <g id="text_49">
    <g id="patch_35">
     <path d="M 479.043123 154.748828 
L 507.409998 154.748828 
Q 514.609998 154.748828 514.609998 147.548828 
L 514.609998 150.538516 
Q 514.609998 143.338516 507.409998 143.338516 
L 479.043123 143.338516 
Q 471.843123 143.338516 471.843123 150.538516 
L 471.843123 147.548828 
Q 471.843123 154.748828 479.043123 154.748828 
z
" style="fill: #ffffff; stroke: #808080; stroke-width: 1.5; stroke-linejoin: miter"/>
    </g>
    <text style="font-size: 9px; font-family: 'DejaVu Sans', 'Bitstream Vera Sans', 'Computer Modern Sans Serif', 'Lucida Grande', 'Verdana', 'Geneva', 'Lucid', 'Arial', 'Helvetica', 'Avant Garde', sans-serif; text-anchor: middle; fill: #671435" x="493.22656" y="151.52711" transform="rotate(-0 493.22656 151.52711)">  1,795   </text>
   </g>
   <g id="text_50">
    <g id="patch_36">
     <path d="M 539.146969 143.903445 
L 567.513844 143.903445 
Q 574.713844 143.903445 574.713844 136.703445 
L 574.713844 139.693132 
Q 574.713844 132.493132 567.513844 132.493132 
L 539.146969 132.493132 
Q 531.946969 132.493132 531.946969 139.693132 
L 531.946969 136.703445 
Q 531.946969 143.903445 539.146969 143.903445 
z
" style="fill: #ffffff; stroke: #808080; stroke-width: 1.5; stroke-linejoin: miter"/>
    </g>
    <text style="font-size: 9px; font-family: 'DejaVu Sans', 'Bitstream Vera Sans', 'Computer Modern Sans Serif', 'Lucida Grande', 'Verdana', 'Geneva', 'Lucid', 'Arial', 'Helvetica', 'Avant Garde', sans-serif; text-anchor: middle; fill: #671435" x="553.330406" y="140.681726" transform="rotate(-0 553.330406 140.681726)">  1,971   </text>
   </g>
   <g id="text_51">
    <g id="patch_37">
     <path d="M 599.168593 133.579165 
L 627.535468 133.579165 
Q 634.735468 133.579165 634.735468 126.379165 
L 634.735468 129.368853 
Q 634.735468 122.168853 627.535468 122.168853 
L 599.168593 122.168853 
Q 591.968593 122.168853 591.968593 129.368853 
L 591.968593 126.379165 
Q 591.968593 133.579165 599.168593 133.579165 
z
" style="fill: #ffffff; stroke: #808080; stroke-width: 1.5; stroke-linejoin: miter"/>
    </g>
    <text style="font-size: 9px; font-family: 'DejaVu Sans', 'Bitstream Vera Sans', 'Computer Modern Sans Serif', 'Lucida Grande', 'Verdana', 'Geneva', 'Lucid', 'Arial', 'Helvetica', 'Avant Garde', sans-serif; text-anchor: middle; fill: #671435" x="613.352031" y="130.357447" transform="rotate(-0 613.352031 130.357447)">  2,141   </text>
   </g>
   <g id="text_52">
    <g id="patch_38">
     <path d="M 659.272439 104.927587 
L 687.639314 104.927587 
Q 694.839314 104.927587 694.839314 97.727587 
L 694.839314 100.717274 
Q 694.839314 93.517274 687.639314 93.517274 
L 659.272439 93.517274 
Q 652.072439 93.517274 652.072439 100.717274 
L 652.072439 97.727587 
Q 652.072439 104.927587 659.272439 104.927587 
z
" style="fill: #ffffff; stroke: #808080; stroke-width: 1.5; stroke-linejoin: miter"/>
    </g>
    <text style="font-size: 9px; font-family: 'DejaVu Sans', 'Bitstream Vera Sans', 'Computer Modern Sans Serif', 'Lucida Grande', 'Verdana', 'Geneva', 'Lucid', 'Arial', 'Helvetica', 'Avant Garde', sans-serif; text-anchor: middle; fill: #671435" x="673.455877" y="101.705868" transform="rotate(-0 673.455877 101.705868)">  2,540   </text>
   </g>
   <g id="text_53">
    <g id="patch_39">
     <path d="M 749.387098 72.823633 
L 777.753973 72.823633 
Q 784.953973 72.823633 784.953973 65.623633 
L 784.953973 68.613321 
Q 784.953973 61.413321 777.753973 61.413321 
L 749.387098 61.413321 
Q 742.187098 61.413321 742.187098 68.613321 
L 742.187098 65.623633 
Q 742.187098 72.823633 749.387098 72.823633 
z
" style="fill: #ffffff; stroke: #808080; stroke-width: 1.5; stroke-linejoin: miter"/>
    </g>
    <text style="font-size: 9px; font-family: 'DejaVu Sans', 'Bitstream Vera Sans', 'Computer Modern Sans Serif', 'Lucida Grande', 'Verdana', 'Geneva', 'Lucid', 'Arial', 'Helvetica', 'Avant Garde', sans-serif; text-anchor: middle; fill: #671435" x="763.570535" y="69.601914" transform="rotate(-0 763.570535 69.601914)">  2,935   </text>
   </g>
   <g id="text_54">
    <g id="patch_40">
     <path d="M 780.830879 234.436113 
L 806.331816 234.436113 
Q 813.531816 234.436113 813.531816 227.236113 
L 813.531816 230.225801 
Q 813.531816 223.025801 806.331816 223.025801 
L 780.830879 223.025801 
Q 773.630879 223.025801 773.630879 230.225801 
L 773.630879 227.236113 
Q 773.630879 234.436113 780.830879 234.436113 
z
" style="fill: #ffffff; stroke: #808080; stroke-width: 1.5; stroke-linejoin: miter"/>
    </g>
    <text style="font-size: 9px; font-family: 'DejaVu Sans', 'Bitstream Vera Sans', 'Computer Modern Sans Serif', 'Lucida Grande', 'Verdana', 'Geneva', 'Lucid', 'Arial', 'Helvetica', 'Avant Garde', sans-serif; text-anchor: middle; fill: #671435" x="793.581348" y="231.214394" transform="rotate(-0 793.581348 231.214394)">   289    </text>
   </g>
   <g id="text_55">
    <g id="patch_41">
     <path d="M 841.674717 236.02535 
L 867.175655 236.02535 
Q 874.375655 236.02535 874.375655 228.82535 
L 874.375655 231.815038 
Q 874.375655 224.615038 867.175655 224.615038 
L 841.674717 224.615038 
Q 834.474717 224.615038 834.474717 231.815038 
L 834.474717 228.82535 
Q 834.474717 236.02535 841.674717 236.02535 
z
" style="fill: #ffffff; stroke: #808080; stroke-width: 1.5; stroke-linejoin: miter"/>
    </g>
    <text style="font-size: 9px; font-family: 'DejaVu Sans', 'Bitstream Vera Sans', 'Computer Modern Sans Serif', 'Lucida Grande', 'Verdana', 'Geneva', 'Lucid', 'Arial', 'Helvetica', 'Avant Garde', sans-serif; text-anchor: middle; fill: #671435" x="854.425186" y="232.803631" transform="rotate(-0 854.425186 232.803631)">   583    </text>
   </g>
   <g id="text_56">
    <g id="patch_42">
     <path d="M 901.778563 243.196158 
L 927.279501 243.196158 
Q 934.479501 243.196158 934.479501 235.996158 
L 934.479501 238.985845 
Q 934.479501 231.785845 927.279501 231.785845 
L 901.778563 231.785845 
Q 894.578563 231.785845 894.578563 238.985845 
L 894.578563 235.996158 
Q 894.578563 243.196158 901.778563 243.196158 
z
" style="fill: #671435"/>
    </g>
    <text style="font-size: 9px; font-family: 'DejaVu Sans', 'Bitstream Vera Sans', 'Computer Modern Sans Serif', 'Lucida Grande', 'Verdana', 'Geneva', 'Lucid', 'Arial', 'Helvetica', 'Avant Garde', sans-serif; text-anchor: middle; fill: #ffffff" x="914.529032" y="239.974439" transform="rotate(-0 914.529032 239.974439)">   282    </text>
   </g>
   <g id="text_57">
    <g id="patch_43">
     <path d="M 180.203525 219.202108 
L 205.704463 219.202108 
Q 212.904463 219.202108 212.904463 212.002108 
L 212.904463 214.991796 
Q 212.904463 207.791796 205.704463 207.791796 
L 180.203525 207.791796 
Q 173.003525 207.791796 173.003525 214.991796 
L 173.003525 212.002108 
Q 173.003525 219.202108 180.203525 219.202108 
z
" style="fill: #9b2247"/>
    </g>
    <text style="font-size: 9px; font-family: 'DejaVu Sans', 'Bitstream Vera Sans', 'Computer Modern Sans Serif', 'Lucida Grande', 'Verdana', 'Geneva', 'Lucid', 'Arial', 'Helvetica', 'Avant Garde', sans-serif; text-anchor: middle; fill: #ffffff" x="192.953994" y="215.98039" transform="rotate(-0 192.953994 215.98039)">   716    </text>
   </g>
   <g id="text_58">
    <g id="patch_44">
     <path d="M 240.22515 193.903134 
L 265.726088 193.903134 
Q 272.926088 193.903134 272.926088 186.703134 
L 272.926088 189.692822 
Q 272.926088 182.492822 265.726088 182.492822 
L 240.22515 182.492822 
Q 233.02515 182.492822 233.02515 189.692822 
L 233.02515 186.703134 
Q 233.02515 193.903134 240.22515 193.903134 
z
" style="fill: #ffffff; stroke: #808080; stroke-width: 1.5; stroke-linejoin: miter"/>
    </g>
    <text style="font-size: 9px; font-family: 'DejaVu Sans', 'Bitstream Vera Sans', 'Computer Modern Sans Serif', 'Lucida Grande', 'Verdana', 'Geneva', 'Lucid', 'Arial', 'Helvetica', 'Avant Garde', sans-serif; text-anchor: middle; fill: #9b2247" x="252.975619" y="190.681416" transform="rotate(-0 252.975619 190.681416)">   873    </text>
   </g>
   <g id="text_59">
    <g id="patch_45">
     <path d="M 300.328996 183.83416 
L 325.829934 183.83416 
Q 333.029934 183.83416 333.029934 176.63416 
L 333.029934 179.623847 
Q 333.029934 172.423847 325.829934 172.423847 
L 300.328996 172.423847 
Q 293.128996 172.423847 293.128996 179.623847 
L 293.128996 176.63416 
Q 293.128996 183.83416 300.328996 183.83416 
z
" style="fill: #ffffff; stroke: #808080; stroke-width: 1.5; stroke-linejoin: miter"/>
    </g>
    <text style="font-size: 9px; font-family: 'DejaVu Sans', 'Bitstream Vera Sans', 'Computer Modern Sans Serif', 'Lucida Grande', 'Verdana', 'Geneva', 'Lucid', 'Arial', 'Helvetica', 'Avant Garde', sans-serif; text-anchor: middle; fill: #9b2247" x="313.079465" y="180.612441" transform="rotate(-0 313.079465 180.612441)">   921    </text>
   </g>
   <g id="text_60">
    <g id="patch_46">
     <path d="M 358.917652 169.11152 
L 387.284527 169.11152 
Q 394.484527 169.11152 394.484527 161.91152 
L 394.484527 164.901208 
Q 394.484527 157.701208 387.284527 157.701208 
L 358.917652 157.701208 
Q 351.717652 157.701208 351.717652 164.901208 
L 351.717652 161.91152 
Q 351.717652 169.11152 358.917652 169.11152 
z
" style="fill: #ffffff; stroke: #808080; stroke-width: 1.5; stroke-linejoin: miter"/>
    </g>
    <text style="font-size: 9px; font-family: 'DejaVu Sans', 'Bitstream Vera Sans', 'Computer Modern Sans Serif', 'Lucida Grande', 'Verdana', 'Geneva', 'Lucid', 'Arial', 'Helvetica', 'Avant Garde', sans-serif; text-anchor: middle; fill: #9b2247" x="373.101089" y="165.889802" transform="rotate(-0 373.101089 165.889802)">  1,096   </text>
   </g>
   <g id="text_61">
    <g id="patch_47">
     <path d="M 419.021498 158.603427 
L 447.388373 158.603427 
Q 454.588373 158.603427 454.588373 151.403427 
L 454.588373 154.393114 
Q 454.588373 147.193114 447.388373 147.193114 
L 419.021498 147.193114 
Q 411.821498 147.193114 411.821498 154.393114 
L 411.821498 151.403427 
Q 411.821498 158.603427 419.021498 158.603427 
z
" style="fill: #ffffff; stroke: #808080; stroke-width: 1.5; stroke-linejoin: miter"/>
    </g>
    <text style="font-size: 9px; font-family: 'DejaVu Sans', 'Bitstream Vera Sans', 'Computer Modern Sans Serif', 'Lucida Grande', 'Verdana', 'Geneva', 'Lucid', 'Arial', 'Helvetica', 'Avant Garde', sans-serif; text-anchor: middle; fill: #9b2247" x="433.204935" y="155.381708" transform="rotate(-0 433.204935 155.381708)">  1,299   </text>
   </g>
   <g id="text_62">
    <g id="patch_48">
     <path d="M 479.043123 137.865106 
L 507.409998 137.865106 
Q 514.609998 137.865106 514.609998 130.665106 
L 514.609998 133.654794 
Q 514.609998 126.454794 507.409998 126.454794 
L 479.043123 126.454794 
Q 471.843123 126.454794 471.843123 133.654794 
L 471.843123 130.665106 
Q 471.843123 137.865106 479.043123 137.865106 
z
" style="fill: #ffffff; stroke: #808080; stroke-width: 1.5; stroke-linejoin: miter"/>
    </g>
    <text style="font-size: 9px; font-family: 'DejaVu Sans', 'Bitstream Vera Sans', 'Computer Modern Sans Serif', 'Lucida Grande', 'Verdana', 'Geneva', 'Lucid', 'Arial', 'Helvetica', 'Avant Garde', sans-serif; text-anchor: middle; fill: #9b2247" x="493.22656" y="134.643387" transform="rotate(-0 493.22656 134.643387)">  1,346   </text>
   </g>
   <g id="text_63">
    <g id="patch_49">
     <path d="M 539.146969 127.019722 
L 567.513844 127.019722 
Q 574.713844 127.019722 574.713844 119.819722 
L 574.713844 122.80941 
Q 574.713844 115.60941 567.513844 115.60941 
L 539.146969 115.60941 
Q 531.946969 115.60941 531.946969 122.80941 
L 531.946969 119.819722 
Q 531.946969 127.019722 539.146969 127.019722 
z
" style="fill: #ffffff; stroke: #808080; stroke-width: 1.5; stroke-linejoin: miter"/>
    </g>
    <text style="font-size: 9px; font-family: 'DejaVu Sans', 'Bitstream Vera Sans', 'Computer Modern Sans Serif', 'Lucida Grande', 'Verdana', 'Geneva', 'Lucid', 'Arial', 'Helvetica', 'Avant Garde', sans-serif; text-anchor: middle; fill: #9b2247" x="553.330406" y="123.798004" transform="rotate(-0 553.330406 123.798004)">  1,586   </text>
   </g>
   <g id="text_64">
    <g id="patch_50">
     <path d="M 599.168593 116.695443 
L 627.535468 116.695443 
Q 634.735468 116.695443 634.735468 109.495443 
L 634.735468 112.485131 
Q 634.735468 105.285131 627.535468 105.285131 
L 599.168593 105.285131 
Q 591.968593 105.285131 591.968593 112.485131 
L 591.968593 109.495443 
Q 591.968593 116.695443 599.168593 116.695443 
z
" style="fill: #ffffff; stroke: #808080; stroke-width: 1.5; stroke-linejoin: miter"/>
    </g>
    <text style="font-size: 9px; font-family: 'DejaVu Sans', 'Bitstream Vera Sans', 'Computer Modern Sans Serif', 'Lucida Grande', 'Verdana', 'Geneva', 'Lucid', 'Arial', 'Helvetica', 'Avant Garde', sans-serif; text-anchor: middle; fill: #9b2247" x="613.352031" y="113.473724" transform="rotate(-0 613.352031 113.473724)">  1,727   </text>
   </g>
   <g id="text_65">
    <g id="patch_51">
     <path d="M 659.272439 88.043865 
L 687.639314 88.043865 
Q 694.839314 88.043865 694.839314 80.843865 
L 694.839314 83.833552 
Q 694.839314 76.633552 687.639314 76.633552 
L 659.272439 76.633552 
Q 652.072439 76.633552 652.072439 83.833552 
L 652.072439 80.843865 
Q 652.072439 88.043865 659.272439 88.043865 
z
" style="fill: #ffffff; stroke: #808080; stroke-width: 1.5; stroke-linejoin: miter"/>
    </g>
    <text style="font-size: 9px; font-family: 'DejaVu Sans', 'Bitstream Vera Sans', 'Computer Modern Sans Serif', 'Lucida Grande', 'Verdana', 'Geneva', 'Lucid', 'Arial', 'Helvetica', 'Avant Garde', sans-serif; text-anchor: middle; fill: #9b2247" x="673.455877" y="84.822146" transform="rotate(-0 673.455877 84.822146)">  1,924   </text>
   </g>
   <g id="text_66">
    <g id="patch_52">
     <path d="M 749.387098 55.939911 
L 777.753973 55.939911 
Q 784.953973 55.939911 784.953973 48.739911 
L 784.953973 51.729598 
Q 784.953973 44.529598 777.753973 44.529598 
L 749.387098 44.529598 
Q 742.187098 44.529598 742.187098 51.729598 
L 742.187098 48.739911 
Q 742.187098 55.939911 749.387098 55.939911 
z
" style="fill: #ffffff; stroke: #808080; stroke-width: 1.5; stroke-linejoin: miter"/>
    </g>
    <text style="font-size: 9px; font-family: 'DejaVu Sans', 'Bitstream Vera Sans', 'Computer Modern Sans Serif', 'Lucida Grande', 'Verdana', 'Geneva', 'Lucid', 'Arial', 'Helvetica', 'Avant Garde', sans-serif; text-anchor: middle; fill: #9b2247" x="763.570535" y="52.718192" transform="rotate(-0 763.570535 52.718192)">  2,496   </text>
   </g>
   <g id="text_67">
    <g id="patch_53">
     <path d="M 780.830879 217.552391 
L 806.331816 217.552391 
Q 813.531816 217.552391 813.531816 210.352391 
L 813.531816 213.342078 
Q 813.531816 206.142078 806.331816 206.142078 
L 780.830879 206.142078 
Q 773.630879 206.142078 773.630879 213.342078 
L 773.630879 210.352391 
Q 773.630879 217.552391 780.830879 217.552391 
z
" style="fill: #ffffff; stroke: #808080; stroke-width: 1.5; stroke-linejoin: miter"/>
    </g>
    <text style="font-size: 9px; font-family: 'DejaVu Sans', 'Bitstream Vera Sans', 'Computer Modern Sans Serif', 'Lucida Grande', 'Verdana', 'Geneva', 'Lucid', 'Arial', 'Helvetica', 'Avant Garde', sans-serif; text-anchor: middle; fill: #9b2247" x="793.581348" y="214.330672" transform="rotate(-0 793.581348 214.330672)">   235    </text>
   </g>
   <g id="text_68">
    <g id="patch_54">
     <path d="M 843.107686 219.141628 
L 865.742686 219.141628 
Q 872.942686 219.141628 872.942686 211.941628 
L 872.942686 214.931315 
Q 872.942686 207.731315 865.742686 207.731315 
L 843.107686 207.731315 
Q 835.907686 207.731315 835.907686 214.931315 
L 835.907686 211.941628 
Q 835.907686 219.141628 843.107686 219.141628 
z
" style="fill: #ffffff; stroke: #808080; stroke-width: 1.5; stroke-linejoin: miter"/>
    </g>
    <text style="font-size: 9px; font-family: 'DejaVu Sans', 'Bitstream Vera Sans', 'Computer Modern Sans Serif', 'Lucida Grande', 'Verdana', 'Geneva', 'Lucid', 'Arial', 'Helvetica', 'Avant Garde', sans-serif; text-anchor: middle; fill: #9b2247" x="854.425186" y="215.919909" transform="rotate(-0 854.425186 215.919909)">    83    </text>
   </g>
   <g id="text_69">
    <g id="patch_55">
     <path d="M 901.778563 226.312435 
L 927.279501 226.312435 
Q 934.479501 226.312435 934.479501 219.112435 
L 934.479501 222.102123 
Q 934.479501 214.902123 927.279501 214.902123 
L 901.778563 214.902123 
Q 894.578563 214.902123 894.578563 222.102123 
L 894.578563 219.112435 
Q 894.578563 226.312435 901.778563 226.312435 
z
" style="fill: #9b2247"/>
    </g>
    <text style="font-size: 9px; font-family: 'DejaVu Sans', 'Bitstream Vera Sans', 'Computer Modern Sans Serif', 'Lucida Grande', 'Verdana', 'Geneva', 'Lucid', 'Arial', 'Helvetica', 'Avant Garde', sans-serif; text-anchor: middle; fill: #ffffff" x="914.529032" y="223.090717" transform="rotate(-0 914.529032 223.090717)">   113    </text>
   </g>
   <g id="legend_1">
    <g id="patch_56">
     <path d="M 184.0125 29.515625 
L 224.0125 29.515625 
L 224.0125 15.515625 
L 184.0125 15.515625 
z
" style="fill: #006157; fill-opacity: 0.8"/>
    </g>
    <g id="text_70">
     <text style="font-weight: 500; font-size: 20px; font-family: 'Arial'; text-anchor: start" x="240.0125" y="29.515625" transform="rotate(-0 240.0125 29.515625)">Columna1</text>
    </g>
    <g id="patch_57">
     <path d="M 371.16875 29.515625 
L 411.16875 29.515625 
L 411.16875 15.515625 
L 371.16875 15.515625 
z
" style="fill: #767676; fill-opacity: 0.8"/>
    </g>
    <g id="text_71">
     <text style="font-weight: 500; font-size: 20px; font-family: 'Arial'; text-anchor: start" x="427.16875" y="29.515625" transform="rotate(-0 427.16875 29.515625)">Columna2</text>
    </g>
    <g id="patch_58">
     <path d="M 558.325 29.515625 
L 598.325 29.515625 
L 598.325 15.515625 
L 558.325 15.515625 
z
" style="fill: #671435; fill-opacity: 0.8"/>
    </g>
    <g id="text_72">
     <text style="font-weight: 500; font-size: 20px; font-family: 'Arial'; text-anchor: start" x="614.325" y="29.515625" transform="rotate(-0 614.325 29.515625)">Columna3</text>
    </g>
    <g id="patch_59">
     <path d="M 745.48125 29.515625 
L 785.48125 29.515625 
L 785.48125 15.515625 
L 745.48125 15.515625 
z
" style="fill: #9b2247; fill-opacity: 0.8"/>
    </g>
    <g id="text_73">
     <text style="font-weight: 500; font-size: 20px; font-family: 'Arial'; text-anchor: start" x="801.48125" y="29.515625" transform="rotate(-0 801.48125 29.515625)">Columna4</text>
    </g>
   </g>
  </g>
 </g>
 <defs>
  <clipPath id="pbacfa68ba1">
   <rect x="125.405" y="26.0288" width="825.84" height="288.288"/>
  </clipPath>
 </defs>
</svg>
