<svg xmlns="http://www.w3.org/2000/svg" xmlns:xlink="http://www.w3.org/1999/xlink" width="1277.92" height="553.813" viewBox="0 0 958.44 415.36"><defs><style>*{stroke-linejoin:round;stroke-linecap:butt}</style></defs><path fill="#fff" d="M0 415.36h958.44V0H0z"/><path fill="#fff" d="M125.4 314.32h825.84V26.03H125.4z"/><path fill="#006157" fill-opacity=".8" d="M162.94 311.55v2.77h750.767v-9.87l-30.011-2.633-30.093-.899-30.011.57-30.011 4.156-30.011-49.618-30.093 3.608-30.011 4.608-30.011.934-30.011.925-30.093.578-30.011 1.617-30.011.181-30.011.41-30.093 6.61-30.011 4.153-30.011 1.014-30.011.368-30.093 13.256-30.011 2.06-30.011.167-30.011 2.925-30.093 3.03-30.011 4.962-30.011 2.872z" clip-path="url(#a)"/><path fill="#767676" fill-opacity=".8" d="M162.94 307.2v4.343l30.011-1.245 30.011-2.873 30.011-4.963 30.093-3.03 30.011-2.924 30.011-.168 30.011-2.059 30.093-13.256 30.011-.368 30.011-1.014 30.011-4.153 30.093-6.61 30.011-.41 30.011-.181 30.011-1.617 30.093-.578 30.011-.925 30.011-.934 30.011-4.608 30.093-3.608 30.011 49.618 30.011-4.156 30.011-.57 30.093.899 30.011 2.634v-9.336l-30.011-4.721-30.093 5.76-30.011-.984-30.011 3.978-30.011-93.703-30.093 7.96-30.011 8.015-30.011 5.116-30.011 2.63-30.093 1.244-30.011 2.416-30.011.975-30.011 1.874-30.093 8.38-30.011 9.33-30.011 4.606-30.011 2.405-30.093 13.86-30.011 2.746-30.011 1.064-30.011 3.018-30.093 7.714-30.011 8.749-30.011 5.64z" clip-path="url(#a)"/><path fill="#671435" fill-opacity=".8" d="M162.94 300.81v6.393l30.011-4.02 30.011-5.64 30.011-8.748 30.093-7.714 30.011-3.018L343.088 277l30.011-2.746 30.093-13.86 30.011-2.405 30.011-4.606 30.011-9.33 30.093-8.38 30.011-1.874 30.011-.975 30.011-2.416 30.093-1.244 30.011-2.63 30.011-5.116 30.011-8.016 30.093-7.96 30.011 93.703 30.011-3.977 30.011.984 30.093-5.76 30.011 4.721v-6.308l-30.011-.757-30.093 3.141-30.011-1.177-30.011 4.074-30.011-134.05-30.093 8.352-30.011 8.063-30.011 6.776-30.011 9.036-30.093 2.173-30.011 3.254-30.011 3.787-30.011 3.282-30.093 13.048-30.011 12.923-30.011 5.829-30.011 4.768-30.093 15.874-30.011 3.81-30.011 2.524-30.011 3.705-30.093 12.554-30.011 8.93-30.011 7.278-30.011 4.81z" clip-path="url(#a)"/><path fill="#9b2247" fill-opacity=".8" d="M162.94 290.32v10.491l30.011-4.81 30.011-7.278 30.011-8.93 30.093-12.554 30.011-3.705 30.011-2.524 30.011-3.81 30.093-15.874 30.011-4.77 30.011-5.828 30.011-12.923 30.093-13.048 30.011-3.282 30.011-3.787 30.011-3.254 30.093-2.173 30.011-9.035 30.011-6.777 30.011-8.063 30.093-8.352 30.011 134.05 30.011-4.074 30.011 1.178 30.093-3.142 30.011.758v-7.819l-30.011 3.055-30.093-.35-30.011 4.732-30.011-1.455-30.011-164.84-30.093 9.085-30.011 8.298-30.011 7.246-30.011 14.831-30.093 3.205-30.011 3.522-30.011 3.997-30.011 5.62-30.093 13.225-30.011 12.955-30.011 7.047-30.011 6.1-30.093 17.182-30.011 6.209-30.011 2.675-30.011 5.5-30.093 16.812-30.011 10.074-30.011 9.087-30.011 5.526z" clip-path="url(#a)"/><path fill="none" stroke="#000" stroke-linecap="square" stroke-opacity=".2" stroke-width=".75" d="M132.93 314.32V26.03" clip-path="url(#a)"/><defs><path id="c" stroke="#000" stroke-width=".8" d="M0 0v3.5"/></defs><use xlink:href="#c" x="132.932" y="314.317" stroke="#000" stroke-width=".8"/><text font-family="'DejaVu Sans', 'Bitstream Vera Sans', 'Computer Modern Sans Serif', 'Lucida Grande', 'Verdana', 'Geneva', 'Lucid', 'Arial', 'Helvetica', 'Avant Garde', sans-serif" font-size="24" transform="rotate(-45 513.572 48.651)">2000</text><path fill="none" stroke="#000" stroke-linecap="square" stroke-opacity=".2" stroke-width=".75" d="M253.06 314.32V26.03" clip-path="url(#a)"/><use xlink:href="#c" x="253.058" y="314.317" stroke="#000" stroke-width=".8"/><text font-family="'DejaVu Sans', 'Bitstream Vera Sans', 'Computer Modern Sans Serif', 'Lucida Grande', 'Verdana', 'Geneva', 'Lucid', 'Arial', 'Helvetica', 'Avant Garde', sans-serif" font-size="24" transform="rotate(-45 573.637 -96.358)">2004</text><path fill="none" stroke="#000" stroke-linecap="square" stroke-opacity=".2" stroke-width=".75" d="M373.18 314.32V26.03" clip-path="url(#a)"/><use xlink:href="#c" x="373.183" y="314.317" stroke="#000" stroke-width=".8"/><text font-family="'DejaVu Sans', 'Bitstream Vera Sans', 'Computer Modern Sans Serif', 'Lucida Grande', 'Verdana', 'Geneva', 'Lucid', 'Arial', 'Helvetica', 'Avant Garde', sans-serif" font-size="24" transform="rotate(-45 633.697 -241.356)">2008</text><path fill="none" stroke="#000" stroke-linecap="square" stroke-opacity=".2" stroke-width=".75" d="M493.31 314.32V26.03" clip-path="url(#a)"/><use xlink:href="#c" x="493.309" y="314.317" stroke="#000" stroke-width=".8"/><text font-family="'DejaVu Sans', 'Bitstream Vera Sans', 'Computer Modern Sans Serif', 'Lucida Grande', 'Verdana', 'Geneva', 'Lucid', 'Arial', 'Helvetica', 'Avant Garde', sans-serif" font-size="24" transform="rotate(-45 693.762 -386.366)">2012</text><path fill="none" stroke="#000" stroke-linecap="square" stroke-opacity=".2" stroke-width=".75" d="M613.43 314.32V26.03" clip-path="url(#a)"/><use xlink:href="#c" x="613.434" y="314.317" stroke="#000" stroke-width=".8"/><text font-family="'DejaVu Sans', 'Bitstream Vera Sans', 'Computer Modern Sans Serif', 'Lucida Grande', 'Verdana', 'Geneva', 'Lucid', 'Arial', 'Helvetica', 'Avant Garde', sans-serif" font-size="24" transform="rotate(-45 753.822 -531.363)">2016</text><path fill="none" stroke="#000" stroke-linecap="square" stroke-opacity=".2" stroke-width=".75" d="M733.56 314.32V26.03" clip-path="url(#a)"/><use xlink:href="#c" x="733.56" y="314.317" stroke="#000" stroke-width=".8"/><text font-family="'DejaVu Sans', 'Bitstream Vera Sans', 'Computer Modern Sans Serif', 'Lucida Grande', 'Verdana', 'Geneva', 'Lucid', 'Arial', 'Helvetica', 'Avant Garde', sans-serif" font-size="24" transform="rotate(-45 813.887 -676.373)">2020</text><path fill="none" stroke="#000" stroke-linecap="square" stroke-opacity=".2" stroke-width=".75" d="M853.69 314.32V26.03" clip-path="url(#a)"/><use xlink:href="#c" x="853.685" y="314.317" stroke="#000" stroke-width=".8"/><text font-family="'DejaVu Sans', 'Bitstream Vera Sans', 'Computer Modern Sans Serif', 'Lucida Grande', 'Verdana', 'Geneva', 'Lucid', 'Arial', 'Helvetica', 'Avant Garde', sans-serif" font-size="24" transform="rotate(-45 873.947 -821.37)">2024</text><text x="538.325" y="403.167" fill="#767676" font-family="'DejaVu Sans', 'Bitstream Vera Sans', 'Computer Modern Sans Serif', 'Lucida Grande', 'Verdana', 'Geneva', 'Lucid', 'Arial', 'Helvetica', 'Avant Garde', sans-serif" font-size="24" font-weight="600" text-anchor="middle">Fecha</text><path fill="none" stroke="#000" stroke-linecap="square" stroke-opacity=".2" stroke-width=".75" d="M125.4 314.32h825.84" clip-path="url(#a)"/><defs><path id="b" stroke="#000" stroke-width=".8" d="M0 0h-3.5"/></defs><use xlink:href="#b" x="125.405" y="314.317" stroke="#000" stroke-width=".8"/><text x="118.405" y="323.435" font-family="'DejaVu Sans', 'Bitstream Vera Sans', 'Computer Modern Sans Serif', 'Lucida Grande', 'Verdana', 'Geneva', 'Lucid', 'Arial', 'Helvetica', 'Avant Garde', sans-serif" font-size="24" text-anchor="end">0</text><path fill="none" stroke="#000" stroke-linecap="square" stroke-opacity=".2" stroke-width=".75" d="M125.4 274.97h825.84" clip-path="url(#a)"/><use xlink:href="#b" x="125.405" y="274.969" stroke="#000" stroke-width=".8"/><text x="118.405" y="284.087" font-family="'DejaVu Sans', 'Bitstream Vera Sans', 'Computer Modern Sans Serif', 'Lucida Grande', 'Verdana', 'Geneva', 'Lucid', 'Arial', 'Helvetica', 'Avant Garde', sans-serif" font-size="24" text-anchor="end">2,500</text><path fill="none" stroke="#000" stroke-linecap="square" stroke-opacity=".2" stroke-width=".75" d="M125.4 235.62h825.84" clip-path="url(#a)"/><use xlink:href="#b" x="125.405" y="235.622" stroke="#000" stroke-width=".8"/><text x="118.405" y="244.74" font-family="'DejaVu Sans', 'Bitstream Vera Sans', 'Computer Modern Sans Serif', 'Lucida Grande', 'Verdana', 'Geneva', 'Lucid', 'Arial', 'Helvetica', 'Avant Garde', sans-serif" font-size="24" text-anchor="end">5,000</text><path fill="none" stroke="#000" stroke-linecap="square" stroke-opacity=".2" stroke-width=".75" d="M125.4 196.27h825.84" clip-path="url(#a)"/><use xlink:href="#b" x="125.405" y="196.274" stroke="#000" stroke-width=".8"/><text x="118.405" y="205.393" font-family="'DejaVu Sans', 'Bitstream Vera Sans', 'Computer Modern Sans Serif', 'Lucida Grande', 'Verdana', 'Geneva', 'Lucid', 'Arial', 'Helvetica', 'Avant Garde', sans-serif" font-size="24" text-anchor="end">7,500</text><path fill="none" stroke="#000" stroke-linecap="square" stroke-opacity=".2" stroke-width=".75" d="M125.4 156.93h825.84" clip-path="url(#a)"/><use xlink:href="#b" x="125.405" y="156.927" stroke="#000" stroke-width=".8"/><text x="118.405" y="166.045" font-family="'DejaVu Sans', 'Bitstream Vera Sans', 'Computer Modern Sans Serif', 'Lucida Grande', 'Verdana', 'Geneva', 'Lucid', 'Arial', 'Helvetica', 'Avant Garde', sans-serif" font-size="24" text-anchor="end">10,000</text><path fill="none" stroke="#000" stroke-linecap="square" stroke-opacity=".2" stroke-width=".75" d="M125.4 117.58h825.84" clip-path="url(#a)"/><use xlink:href="#b" x="125.405" y="117.58" stroke="#000" stroke-width=".8"/><text x="118.405" y="126.698" font-family="'DejaVu Sans', 'Bitstream Vera Sans', 'Computer Modern Sans Serif', 'Lucida Grande', 'Verdana', 'Geneva', 'Lucid', 'Arial', 'Helvetica', 'Avant Garde', sans-serif" font-size="24" text-anchor="end">12,500</text><path fill="none" stroke="#000" stroke-linecap="square" stroke-opacity=".2" stroke-width=".75" d="M125.4 78.232h825.84" clip-path="url(#a)"/><use xlink:href="#b" x="125.405" y="78.232" stroke="#000" stroke-width=".8"/><text x="118.405" y="87.35" font-family="'DejaVu Sans', 'Bitstream Vera Sans', 'Computer Modern Sans Serif', 'Lucida Grande', 'Verdana', 'Geneva', 'Lucid', 'Arial', 'Helvetica', 'Avant Garde', sans-serif" font-size="24" text-anchor="end">15,000</text><path fill="none" stroke="#000" stroke-linecap="square" stroke-opacity=".2" stroke-width=".75" d="M125.4 38.885h825.84" clip-path="url(#a)"/><use xlink:href="#b" x="125.405" y="38.885" stroke="#000" stroke-width=".8"/><text x="118.405" y="48.003" font-family="'DejaVu Sans', 'Bitstream Vera Sans', 'Computer Modern Sans Serif', 'Lucida Grande', 'Verdana', 'Geneva', 'Lucid', 'Arial', 'Helvetica', 'Avant Garde', sans-serif" font-size="24" text-anchor="end">17,500</text><text x="25.436" y="170.173" fill="#767676" font-family="'DejaVu Sans', 'Bitstream Vera Sans', 'Computer Modern Sans Serif', 'Lucida Grande', 'Verdana', 'Geneva', 'Lucid', 'Arial', 'Helvetica', 'Avant Garde', sans-serif" font-size="24" font-weight="500" text-anchor="middle" transform="rotate(-90 25.436 170.17)">Valores</text><path fill="none" stroke="#000" stroke-linecap="square" stroke-width="2" d="M125.4 314.32h825.84"/><path fill="#006157" d="M180.2 268.83h25.501q7.2 0 7.2-7.2v2.99q0-7.2-7.2-7.2H180.2q-7.2 0-7.2 7.2v-2.99q0 7.2 7.2 7.2"/><text x="192.954" y="265.609" fill="#fff" font-family="'DejaVu Sans', 'Bitstream Vera Sans', 'Computer Modern Sans Serif', 'Lucida Grande', 'Verdana', 'Geneva', 'Lucid', 'Arial', 'Helvetica', 'Avant Garde', sans-serif" font-size="9" text-anchor="middle">255 </text><path fill="#fff" stroke="gray" stroke-width="1.5" d="M240.23 249.67h25.501q7.2 0 7.2-7.2v2.99q0-7.2-7.2-7.2H240.23q-7.2 0-7.2 7.2v-2.99q0 7.2 7.2 7.2z"/><text x="252.976" y="246.448" fill="#006157" font-family="'DejaVu Sans', 'Bitstream Vera Sans', 'Computer Modern Sans Serif', 'Lucida Grande', 'Verdana', 'Geneva', 'Lucid', 'Arial', 'Helvetica', 'Avant Garde', sans-serif" font-size="9" text-anchor="middle">752 </text><path fill="#fff" stroke="gray" stroke-width="1.5" d="M298.9 227.36h28.367q7.2 0 7.2-7.2v2.99q0-7.2-7.2-7.2H298.9q-7.2 0-7.2 7.2v-2.99q0 7.2 7.2 7.2z"/><text x="313.079" y="224.137" fill="#006157" font-family="'DejaVu Sans', 'Bitstream Vera Sans', 'Computer Modern Sans Serif', 'Lucida Grande', 'Verdana', 'Geneva', 'Lucid', 'Arial', 'Helvetica', 'Avant Garde', sans-serif" font-size="9" text-anchor="middle">1,131 </text><path fill="#fff" stroke="gray" stroke-width="1.5" d="M358.92 218.47h28.367q7.2 0 7.2-7.2v2.99q0-7.2-7.2-7.2H358.92q-7.2 0-7.2 7.2v-2.99q0 7.2 7.2 7.2z"/><text x="373.101" y="215.253" fill="#006157" font-family="'DejaVu Sans', 'Bitstream Vera Sans', 'Computer Modern Sans Serif', 'Lucida Grande', 'Verdana', 'Geneva', 'Lucid', 'Arial', 'Helvetica', 'Avant Garde', sans-serif" font-size="9" text-anchor="middle">1,272 </text><path fill="#fff" stroke="gray" stroke-width="1.5" d="M419.02 195.19h28.367q7.2 0 7.2-7.2v2.99q0-7.2-7.2-7.2H419.02q-7.2 0-7.2 7.2v-2.99q0 7.2 7.2 7.2z"/><text x="433.205" y="191.971" fill="#006157" font-family="'DejaVu Sans', 'Bitstream Vera Sans', 'Computer Modern Sans Serif', 'Lucida Grande', 'Verdana', 'Geneva', 'Lucid', 'Arial', 'Helvetica', 'Avant Garde', sans-serif" font-size="9" text-anchor="middle">2,138 </text><path fill="#fff" stroke="gray" stroke-width="1.5" d="M479.04 175.19h28.367q7.2 0 7.2-7.2v2.99q0-7.2-7.2-7.2H479.04q-7.2 0-7.2 7.2v-2.99q0 7.2 7.2 7.2z"/><text x="493.227" y="171.968" fill="#006157" font-family="'DejaVu Sans', 'Bitstream Vera Sans', 'Computer Modern Sans Serif', 'Lucida Grande', 'Verdana', 'Geneva', 'Lucid', 'Arial', 'Helvetica', 'Avant Garde', sans-serif" font-size="9" text-anchor="middle">2,466 </text><path fill="#fff" stroke="gray" stroke-width="1.5" d="M539.15 156.34h28.367q7.2 0 7.2-7.2v2.99q0-7.2-7.2-7.2H539.15q-7.2 0-7.2 7.2v-2.99q0 7.2 7.2 7.2z"/><text x="553.33" y="153.123" fill="#006157" font-family="'DejaVu Sans', 'Bitstream Vera Sans', 'Computer Modern Sans Serif', 'Lucida Grande', 'Verdana', 'Geneva', 'Lucid', 'Arial', 'Helvetica', 'Avant Garde', sans-serif" font-size="9" text-anchor="middle">2,912 </text><path fill="#fff" stroke="gray" stroke-width="1.5" d="M599.17 148.83h28.367q7.2 0 7.2-7.2v2.99q0-7.2-7.2-7.2H599.17q-7.2 0-7.2 7.2v-2.99q0 7.2 7.2 7.2z"/><text x="613.352" y="145.605" fill="#006157" font-family="'DejaVu Sans', 'Bitstream Vera Sans', 'Computer Modern Sans Serif', 'Lucida Grande', 'Verdana', 'Geneva', 'Lucid', 'Arial', 'Helvetica', 'Avant Garde', sans-serif" font-size="9" text-anchor="middle">3,026 </text><path fill="#fff" stroke="gray" stroke-width="1.5" d="M659.27 130.79h28.367q7.2 0 7.2-7.2v2.99q0-7.2-7.2-7.2H659.27q-7.2 0-7.2 7.2v-2.99q0 7.2 7.2 7.2z"/><text x="673.456" y="127.569" fill="#006157" font-family="'DejaVu Sans', 'Bitstream Vera Sans', 'Computer Modern Sans Serif', 'Lucida Grande', 'Verdana', 'Geneva', 'Lucid', 'Arial', 'Helvetica', 'Avant Garde', sans-serif" font-size="9" text-anchor="middle">3,122 </text><path fill="#fff" stroke="gray" stroke-width="1.5" d="M749.39 106.16h28.367q7.2 0 7.2-7.2v2.99q0-7.2-7.2-7.2H749.39q-7.2 0-7.2 7.2v-2.99q0 7.2 7.2 7.2z"/><text x="763.571" y="102.94" fill="#006157" font-family="'DejaVu Sans', 'Bitstream Vera Sans', 'Computer Modern Sans Serif', 'Lucida Grande', 'Verdana', 'Geneva', 'Lucid', 'Arial', 'Helvetica', 'Avant Garde', sans-serif" font-size="9" text-anchor="middle">3,703 </text><path fill="#fff" stroke="gray" stroke-width="1.5" d="M780.83 271.01h25.501q7.2 0 7.2-7.2v2.99q0-7.2-7.2-7.2H780.83q-7.2 0-7.2 7.2v-2.99q0 7.2 7.2 7.2z"/><text x="793.581" y="267.783" fill="#006157" font-family="'DejaVu Sans', 'Bitstream Vera Sans', 'Computer Modern Sans Serif', 'Lucida Grande', 'Verdana', 'Geneva', 'Lucid', 'Arial', 'Helvetica', 'Avant Garde', sans-serif" font-size="9" text-anchor="middle">551 </text><path fill="#fff" stroke="gray" stroke-width="1.5" d="M841.67 267.73h25.501q7.2 0 7.2-7.2v2.99q0-7.2-7.2-7.2H841.67q-7.2 0-7.2 7.2v-2.99q0 7.2 7.2 7.2z"/><text x="854.425" y="264.506" fill="#006157" font-family="'DejaVu Sans', 'Bitstream Vera Sans', 'Computer Modern Sans Serif', 'Lucida Grande', 'Verdana', 'Geneva', 'Lucid', 'Arial', 'Helvetica', 'Avant Garde', sans-serif" font-size="9" text-anchor="middle">851 </text><path fill="#006157" d="M901.78 265.02h25.501q7.2 0 7.2-7.2v2.99q0-7.2-7.2-7.2H901.78q-7.2 0-7.2 7.2v-2.99q0 7.2 7.2 7.2"/><text x="914.529" y="261.801" fill="#fff" font-family="'DejaVu Sans', 'Bitstream Vera Sans', 'Computer Modern Sans Serif', 'Lucida Grande', 'Verdana', 'Geneva', 'Lucid', 'Arial', 'Helvetica', 'Avant Garde', sans-serif" font-size="9" text-anchor="middle">627 </text><path fill="#767676" d="M180.2 251.52h25.501q7.2 0 7.2-7.2v2.99q0-7.2-7.2-7.2H180.2q-7.2 0-7.2 7.2v-2.99q0 7.2 7.2 7.2"/><text x="192.954" y="248.296" fill="#fff" font-family="'DejaVu Sans', 'Bitstream Vera Sans', 'Computer Modern Sans Serif', 'Lucida Grande', 'Verdana', 'Geneva', 'Lucid', 'Arial', 'Helvetica', 'Avant Garde', sans-serif" font-size="9" text-anchor="middle">452 </text><path fill="#fff" stroke="gray" stroke-width="1.5" d="M240.23 232.36h25.501q7.2 0 7.2-7.2v2.99q0-7.2-7.2-7.2H240.23q-7.2 0-7.2 7.2v-2.99q0 7.2 7.2 7.2z"/><text x="252.976" y="229.135" fill="#767676" font-family="'DejaVu Sans', 'Bitstream Vera Sans', 'Computer Modern Sans Serif', 'Lucida Grande', 'Verdana', 'Geneva', 'Lucid', 'Arial', 'Helvetica', 'Avant Garde', sans-serif" font-size="9" text-anchor="middle">868 </text><path fill="#fff" stroke="gray" stroke-width="1.5" d="M298.9 210.05h28.367q7.2 0 7.2-7.2v2.99q0-7.2-7.2-7.2H298.9q-7.2 0-7.2 7.2v-2.99q0 7.2 7.2 7.2z"/><text x="313.079" y="206.824" fill="#767676" font-family="'DejaVu Sans', 'Bitstream Vera Sans', 'Computer Modern Sans Serif', 'Lucida Grande', 'Verdana', 'Geneva', 'Lucid', 'Arial', 'Helvetica', 'Avant Garde', sans-serif" font-size="9" text-anchor="middle">1,172 </text><path fill="#fff" stroke="gray" stroke-width="1.5" d="M358.92 201.16h28.367q7.2 0 7.2-7.2v2.99q0-7.2-7.2-7.2H358.92q-7.2 0-7.2 7.2v-2.99q0 7.2 7.2 7.2z"/><text x="373.101" y="197.94" fill="#767676" font-family="'DejaVu Sans', 'Bitstream Vera Sans', 'Computer Modern Sans Serif', 'Lucida Grande', 'Verdana', 'Geneva', 'Lucid', 'Arial', 'Helvetica', 'Avant Garde', sans-serif" font-size="9" text-anchor="middle">1,272 </text><path fill="#fff" stroke="gray" stroke-width="1.5" d="M419.02 177.88h28.367q7.2 0 7.2-7.2v2.99q0-7.2-7.2-7.2H419.02q-7.2 0-7.2 7.2v-2.99q0 7.2 7.2 7.2z"/><text x="433.205" y="174.658" fill="#767676" font-family="'DejaVu Sans', 'Bitstream Vera Sans', 'Computer Modern Sans Serif', 'Lucida Grande', 'Verdana', 'Geneva', 'Lucid', 'Arial', 'Helvetica', 'Avant Garde', sans-serif" font-size="9" text-anchor="middle">1,440 </text><path fill="#fff" stroke="gray" stroke-width="1.5" d="M479.04 157.88h28.367q7.2 0 7.2-7.2v2.99q0-7.2-7.2-7.2H479.04q-7.2 0-7.2 7.2v-2.99q0 7.2 7.2 7.2z"/><text x="493.227" y="154.655" fill="#767676" font-family="'DejaVu Sans', 'Bitstream Vera Sans', 'Computer Modern Sans Serif', 'Lucida Grande', 'Verdana', 'Geneva', 'Lucid', 'Arial', 'Helvetica', 'Avant Garde', sans-serif" font-size="9" text-anchor="middle">1,997 </text><path fill="#fff" stroke="gray" stroke-width="1.5" d="M539.15 139.03h28.367q7.2 0 7.2-7.2v2.99q0-7.2-7.2-7.2H539.15q-7.2 0-7.2 7.2v-2.99q0 7.2 7.2 7.2z"/><text x="553.33" y="135.81" fill="#767676" font-family="'DejaVu Sans', 'Bitstream Vera Sans', 'Computer Modern Sans Serif', 'Lucida Grande', 'Verdana', 'Geneva', 'Lucid', 'Arial', 'Helvetica', 'Avant Garde', sans-serif" font-size="9" text-anchor="middle">2,203 </text><path fill="#fff" stroke="gray" stroke-width="1.5" d="M599.17 131.51h28.367q7.2 0 7.2-7.2v2.99q0-7.2-7.2-7.2H599.17q-7.2 0-7.2 7.2v-2.99q0 7.2 7.2 7.2z"/><text x="613.352" y="128.292" fill="#767676" font-family="'DejaVu Sans', 'Bitstream Vera Sans', 'Computer Modern Sans Serif', 'Lucida Grande', 'Verdana', 'Geneva', 'Lucid', 'Arial', 'Helvetica', 'Avant Garde', sans-serif" font-size="9" text-anchor="middle">2,304 </text><path fill="#fff" stroke="gray" stroke-width="1.5" d="M659.27 113.48h28.367q7.2 0 7.2-7.2v2.99q0-7.2-7.2-7.2H659.27q-7.2 0-7.2 7.2v-2.99q0 7.2 7.2 7.2z"/><text x="673.456" y="110.256" fill="#767676" font-family="'DejaVu Sans', 'Bitstream Vera Sans', 'Computer Modern Sans Serif', 'Lucida Grande', 'Verdana', 'Geneva', 'Lucid', 'Arial', 'Helvetica', 'Avant Garde', sans-serif" font-size="9" text-anchor="middle">2,455 </text><path fill="#fff" stroke="gray" stroke-width="1.5" d="M749.39 88.849h28.367q7.2 0 7.2-7.2v2.99q0-7.2-7.2-7.2H749.39q-7.2 0-7.2 7.2v-2.99q0 7.2 7.2 7.2z"/><text x="763.571" y="85.627" fill="#767676" font-family="'DejaVu Sans', 'Bitstream Vera Sans', 'Computer Modern Sans Serif', 'Lucida Grande', 'Verdana', 'Geneva', 'Lucid', 'Arial', 'Helvetica', 'Avant Garde', sans-serif" font-size="9" text-anchor="middle">3,213 </text><path fill="#fff" stroke="gray" stroke-width="1.5" d="M780.83 253.69h25.501q7.2 0 7.2-7.2v2.99q0-7.2-7.2-7.2H780.83q-7.2 0-7.2 7.2v-2.99q0 7.2 7.2 7.2z"/><text x="793.581" y="250.471" fill="#767676" font-family="'DejaVu Sans', 'Bitstream Vera Sans', 'Computer Modern Sans Serif', 'Lucida Grande', 'Verdana', 'Geneva', 'Lucid', 'Arial', 'Helvetica', 'Avant Garde', sans-serif" font-size="9" text-anchor="middle">412 </text><path fill="#fff" stroke="gray" stroke-width="1.5" d="M841.67 250.42h25.501q7.2 0 7.2-7.2v2.99q0-7.2-7.2-7.2H841.67q-7.2 0-7.2 7.2v-2.99q0 7.2 7.2 7.2z"/><text x="854.425" y="247.194" fill="#767676" font-family="'DejaVu Sans', 'Bitstream Vera Sans', 'Computer Modern Sans Serif', 'Lucida Grande', 'Verdana', 'Geneva', 'Lucid', 'Arial', 'Helvetica', 'Avant Garde', sans-serif" font-size="9" text-anchor="middle">302 </text><path fill="#767676" d="M901.78 247.71h25.501q7.2 0 7.2-7.2v2.99q0-7.2-7.2-7.2H901.78q-7.2 0-7.2 7.2v-2.99q0 7.2 7.2 7.2"/><text x="914.529" y="244.488" fill="#fff" font-family="'DejaVu Sans', 'Bitstream Vera Sans', 'Computer Modern Sans Serif', 'Lucida Grande', 'Verdana', 'Geneva', 'Lucid', 'Arial', 'Helvetica', 'Avant Garde', sans-serif" font-size="9" text-anchor="middle">593 </text><path fill="#671435" d="M180.2 234.2h25.501q7.2 0 7.2-7.2v2.99q0-7.2-7.2-7.2H180.2q-7.2 0-7.2 7.2V227q0 7.2 7.2 7.2"/><text x="192.954" y="230.983" fill="#fff" font-family="'DejaVu Sans', 'Bitstream Vera Sans', 'Computer Modern Sans Serif', 'Lucida Grande', 'Verdana', 'Geneva', 'Lucid', 'Arial', 'Helvetica', 'Avant Garde', sans-serif" font-size="9" text-anchor="middle">456 </text><path fill="#fff" stroke="gray" stroke-width="1.5" d="M240.23 215.04h25.501q7.2 0 7.2-7.2v2.99q0-7.2-7.2-7.2H240.23q-7.2 0-7.2 7.2v-2.99q0 7.2 7.2 7.2z"/><text x="252.976" y="211.822" fill="#671435" font-family="'DejaVu Sans', 'Bitstream Vera Sans', 'Computer Modern Sans Serif', 'Lucida Grande', 'Verdana', 'Geneva', 'Lucid', 'Arial', 'Helvetica', 'Avant Garde', sans-serif" font-size="9" text-anchor="middle">572 </text><path fill="#fff" stroke="gray" stroke-width="1.5" d="M300.33 192.73h25.501q7.2 0 7.2-7.2v2.99q0-7.2-7.2-7.2H300.33q-7.2 0-7.2 7.2v-2.99q0 7.2 7.2 7.2z"/><text x="313.079" y="189.511" fill="#671435" font-family="'DejaVu Sans', 'Bitstream Vera Sans', 'Computer Modern Sans Serif', 'Lucida Grande', 'Verdana', 'Geneva', 'Lucid', 'Arial', 'Helvetica', 'Avant Garde', sans-serif" font-size="9" text-anchor="middle">923 </text><path fill="#fff" stroke="gray" stroke-width="1.5" d="M358.92 183.85h28.367q7.2 0 7.2-7.2v2.99q0-7.2-7.2-7.2H358.92q-7.2 0-7.2 7.2v-2.99q0 7.2 7.2 7.2z"/><text x="373.101" y="180.627" fill="#671435" font-family="'DejaVu Sans', 'Bitstream Vera Sans', 'Computer Modern Sans Serif', 'Lucida Grande', 'Verdana', 'Geneva', 'Lucid', 'Arial', 'Helvetica', 'Avant Garde', sans-serif" font-size="9" text-anchor="middle">1,083 </text><path fill="#fff" stroke="gray" stroke-width="1.5" d="M419.02 160.57h28.367q7.2 0 7.2-7.2v2.99q0-7.2-7.2-7.2H419.02q-7.2 0-7.2 7.2v-2.99q0 7.2 7.2 7.2z"/><text x="433.205" y="157.345" fill="#671435" font-family="'DejaVu Sans', 'Bitstream Vera Sans', 'Computer Modern Sans Serif', 'Lucida Grande', 'Verdana', 'Geneva', 'Lucid', 'Arial', 'Helvetica', 'Avant Garde', sans-serif" font-size="9" text-anchor="middle">1,361 </text><path fill="#fff" stroke="gray" stroke-width="1.5" d="M479.04 140.56h28.367q7.2 0 7.2-7.2v2.99q0-7.2-7.2-7.2H479.04q-7.2 0-7.2 7.2v-2.99q0 7.2 7.2 7.2z"/><text x="493.227" y="137.343" fill="#671435" font-family="'DejaVu Sans', 'Bitstream Vera Sans', 'Computer Modern Sans Serif', 'Lucida Grande', 'Verdana', 'Geneva', 'Lucid', 'Arial', 'Helvetica', 'Avant Garde', sans-serif" font-size="9" text-anchor="middle">1,667 </text><path fill="#fff" stroke="gray" stroke-width="1.5" d="M539.15 121.72h28.367q7.2 0 7.2-7.2v2.99q0-7.2-7.2-7.2H539.15q-7.2 0-7.2 7.2v-2.99q0 7.2 7.2 7.2z"/><text x="553.33" y="118.497" fill="#671435" font-family="'DejaVu Sans', 'Bitstream Vera Sans', 'Computer Modern Sans Serif', 'Lucida Grande', 'Verdana', 'Geneva', 'Lucid', 'Arial', 'Helvetica', 'Avant Garde', sans-serif" font-size="9" text-anchor="middle">2,053 </text><path fill="#fff" stroke="gray" stroke-width="1.5" d="M599.17 114.2h28.367q7.2 0 7.2-7.2v2.99q0-7.2-7.2-7.2H599.17q-7.2 0-7.2 7.2V107q0 7.2 7.2 7.2z"/><text x="613.352" y="110.979" fill="#671435" font-family="'DejaVu Sans', 'Bitstream Vera Sans', 'Computer Modern Sans Serif', 'Lucida Grande', 'Verdana', 'Geneva', 'Lucid', 'Arial', 'Helvetica', 'Avant Garde', sans-serif" font-size="9" text-anchor="middle">2,285 </text><path fill="#fff" stroke="gray" stroke-width="1.5" d="M659.27 96.165h28.367q7.2 0 7.2-7.2v2.99q0-7.2-7.2-7.2H659.27q-7.2 0-7.2 7.2v-2.99q0 7.2 7.2 7.2z"/><text x="673.456" y="92.944" fill="#671435" font-family="'DejaVu Sans', 'Bitstream Vera Sans', 'Computer Modern Sans Serif', 'Lucida Grande', 'Verdana', 'Geneva', 'Lucid', 'Arial', 'Helvetica', 'Avant Garde', sans-serif" font-size="9" text-anchor="middle">2,751 </text><path fill="#fff" stroke="gray" stroke-width="1.5" d="M749.39 71.536h28.367q7.2 0 7.2-7.2v2.99q0-7.2-7.2-7.2H749.39q-7.2 0-7.2 7.2v-2.99q0 7.2 7.2 7.2z"/><text x="763.571" y="68.314" fill="#671435" font-family="'DejaVu Sans', 'Bitstream Vera Sans', 'Computer Modern Sans Serif', 'Lucida Grande', 'Verdana', 'Geneva', 'Lucid', 'Arial', 'Helvetica', 'Avant Garde', sans-serif" font-size="9" text-anchor="middle">2,885 </text><path fill="#fff" stroke="gray" stroke-width="1.5" d="M780.83 236.38h25.501q7.2 0 7.2-7.2v2.99q0-7.2-7.2-7.2H780.83q-7.2 0-7.2 7.2v-2.99q0 7.2 7.2 7.2z"/><text x="793.581" y="233.158" fill="#671435" font-family="'DejaVu Sans', 'Bitstream Vera Sans', 'Computer Modern Sans Serif', 'Lucida Grande', 'Verdana', 'Geneva', 'Lucid', 'Arial', 'Helvetica', 'Avant Garde', sans-serif" font-size="9" text-anchor="middle">321 </text><path fill="#fff" stroke="gray" stroke-width="1.5" d="M841.67 233.1h25.501q7.2 0 7.2-7.2v2.99q0-7.2-7.2-7.2H841.67q-7.2 0-7.2 7.2v-2.99q0 7.2 7.2 7.2z"/><text x="854.425" y="229.881" fill="#671435" font-family="'DejaVu Sans', 'Bitstream Vera Sans', 'Computer Modern Sans Serif', 'Lucida Grande', 'Verdana', 'Geneva', 'Lucid', 'Arial', 'Helvetica', 'Avant Garde', sans-serif" font-size="9" text-anchor="middle">315 </text><path fill="#671435" d="M901.78 230.4h25.501q7.2 0 7.2-7.2v2.99q0-7.2-7.2-7.2H901.78q-7.2 0-7.2 7.2v-2.99q0 7.2 7.2 7.2"/><text x="914.529" y="227.175" fill="#fff" font-family="'DejaVu Sans', 'Bitstream Vera Sans', 'Computer Modern Sans Serif', 'Lucida Grande', 'Verdana', 'Geneva', 'Lucid', 'Arial', 'Helvetica', 'Avant Garde', sans-serif" font-size="9" text-anchor="middle">400 </text><path fill="#9b2247" d="M180.2 216.89h25.501q7.2 0 7.2-7.2v2.99q0-7.2-7.2-7.2H180.2q-7.2 0-7.2 7.2v-2.99q0 7.2 7.2 7.2"/><text x="192.954" y="213.67" fill="#fff" font-family="'DejaVu Sans', 'Bitstream Vera Sans', 'Computer Modern Sans Serif', 'Lucida Grande', 'Verdana', 'Geneva', 'Lucid', 'Arial', 'Helvetica', 'Avant Garde', sans-serif" font-size="9" text-anchor="middle">712 </text><path fill="#fff" stroke="gray" stroke-width="1.5" d="M240.23 197.73h25.501q7.2 0 7.2-7.2v2.99q0-7.2-7.2-7.2H240.23q-7.2 0-7.2 7.2v-2.99q0 7.2 7.2 7.2z"/><text x="252.976" y="194.51" fill="#9b2247" font-family="'DejaVu Sans', 'Bitstream Vera Sans', 'Computer Modern Sans Serif', 'Lucida Grande', 'Verdana', 'Geneva', 'Lucid', 'Arial', 'Helvetica', 'Avant Garde', sans-serif" font-size="9" text-anchor="middle">899 </text><path fill="#fff" stroke="gray" stroke-width="1.5" d="M298.9 175.42h28.367q7.2 0 7.2-7.2v2.99q0-7.2-7.2-7.2H298.9q-7.2 0-7.2 7.2v-2.99q0 7.2 7.2 7.2z"/><text x="313.079" y="172.198" fill="#9b2247" font-family="'DejaVu Sans', 'Bitstream Vera Sans', 'Computer Modern Sans Serif', 'Lucida Grande', 'Verdana', 'Geneva', 'Lucid', 'Arial', 'Helvetica', 'Avant Garde', sans-serif" font-size="9" text-anchor="middle">1,284 </text><path fill="#fff" stroke="gray" stroke-width="1.5" d="M358.92 166.54h28.367q7.2 0 7.2-7.2v2.99q0-7.2-7.2-7.2H358.92q-7.2 0-7.2 7.2v-2.99q0 7.2 7.2 7.2z"/><text x="373.101" y="163.314" fill="#9b2247" font-family="'DejaVu Sans', 'Bitstream Vera Sans', 'Computer Modern Sans Serif', 'Lucida Grande', 'Verdana', 'Geneva', 'Lucid', 'Arial', 'Helvetica', 'Avant Garde', sans-serif" font-size="9" text-anchor="middle">1,446 </text><path fill="#fff" stroke="gray" stroke-width="1.5" d="M419.02 143.25h28.367q7.2 0 7.2-7.2v2.99q0-7.2-7.2-7.2H419.02q-7.2 0-7.2 7.2v-2.99q0 7.2 7.2 7.2z"/><text x="433.205" y="140.032" fill="#9b2247" font-family="'DejaVu Sans', 'Bitstream Vera Sans', 'Computer Modern Sans Serif', 'Lucida Grande', 'Verdana', 'Geneva', 'Lucid', 'Arial', 'Helvetica', 'Avant Garde', sans-serif" font-size="9" text-anchor="middle">1,613 </text><path fill="#fff" stroke="gray" stroke-width="1.5" d="M479.04 123.25h28.367q7.2 0 7.2-7.2v2.99q0-7.2-7.2-7.2H479.04q-7.2 0-7.2 7.2v-2.99q0 7.2 7.2 7.2z"/><text x="493.227" y="120.03" fill="#9b2247" font-family="'DejaVu Sans', 'Bitstream Vera Sans', 'Computer Modern Sans Serif', 'Lucida Grande', 'Verdana', 'Geneva', 'Lucid', 'Arial', 'Helvetica', 'Avant Garde', sans-serif" font-size="9" text-anchor="middle">1,693 </text><path fill="#fff" stroke="gray" stroke-width="1.5" d="M539.15 104.41h28.367q7.2 0 7.2-7.2v2.99q0-7.2-7.2-7.2H539.15q-7.2 0-7.2 7.2v-2.99q0 7.2 7.2 7.2z"/><text x="553.33" y="101.184" fill="#9b2247" font-family="'DejaVu Sans', 'Bitstream Vera Sans', 'Computer Modern Sans Serif', 'Lucida Grande', 'Verdana', 'Geneva', 'Lucid', 'Arial', 'Helvetica', 'Avant Garde', sans-serif" font-size="9" text-anchor="middle">1,853 </text><path fill="#fff" stroke="gray" stroke-width="1.5" d="M599.17 96.888h28.367q7.2 0 7.2-7.2v2.99q0-7.2-7.2-7.2H599.17q-7.2 0-7.2 7.2v-2.99q0 7.2 7.2 7.2z"/><text x="613.352" y="93.666" fill="#9b2247" font-family="'DejaVu Sans', 'Bitstream Vera Sans', 'Computer Modern Sans Serif', 'Lucida Grande', 'Verdana', 'Geneva', 'Lucid', 'Arial', 'Helvetica', 'Avant Garde', sans-serif" font-size="9" text-anchor="middle">1,883 </text><path fill="#fff" stroke="gray" stroke-width="1.5" d="M659.27 78.852h28.367q7.2 0 7.2-7.2v2.99q0-7.2-7.2-7.2H659.27q-7.2 0-7.2 7.2v-2.99q0 7.2 7.2 7.2z"/><text x="673.456" y="75.631" fill="#9b2247" font-family="'DejaVu Sans', 'Bitstream Vera Sans', 'Computer Modern Sans Serif', 'Lucida Grande', 'Verdana', 'Geneva', 'Lucid', 'Arial', 'Helvetica', 'Avant Garde', sans-serif" font-size="9" text-anchor="middle">2,317 </text><path fill="#fff" stroke="gray" stroke-width="1.5" d="M749.39 54.223h28.367q7.2 0 7.2-7.2v2.99q0-7.2-7.2-7.2H749.39q-7.2 0-7.2 7.2v-2.99q0 7.2 7.2 7.2z"/><text x="763.571" y="51.002" fill="#9b2247" font-family="'DejaVu Sans', 'Bitstream Vera Sans', 'Computer Modern Sans Serif', 'Lucida Grande', 'Verdana', 'Geneva', 'Lucid', 'Arial', 'Helvetica', 'Avant Garde', sans-serif" font-size="9" text-anchor="middle">2,408 </text><path fill="#fff" stroke="gray" stroke-width="1.5" d="M780.83 219.07h25.501q7.2 0 7.2-7.2v2.99q0-7.2-7.2-7.2H780.83q-7.2 0-7.2 7.2v-2.99q0 7.2 7.2 7.2z"/><text x="793.581" y="215.845" fill="#9b2247" font-family="'DejaVu Sans', 'Bitstream Vera Sans', 'Computer Modern Sans Serif', 'Lucida Grande', 'Verdana', 'Geneva', 'Lucid', 'Arial', 'Helvetica', 'Avant Garde', sans-serif" font-size="9" text-anchor="middle">452 </text><path fill="#fff" stroke="gray" stroke-width="1.5" d="M841.67 215.79h25.501q7.2 0 7.2-7.2v2.99q0-7.2-7.2-7.2H841.67q-7.2 0-7.2 7.2v-2.99q0 7.2 7.2 7.2z"/><text x="854.425" y="212.568" fill="#9b2247" font-family="'DejaVu Sans', 'Bitstream Vera Sans', 'Computer Modern Sans Serif', 'Lucida Grande', 'Verdana', 'Geneva', 'Lucid', 'Arial', 'Helvetica', 'Avant Garde', sans-serif" font-size="9" text-anchor="middle">476 </text><path fill="#9b2247" d="M901.78 213.08h25.501q7.2 0 7.2-7.2v2.99q0-7.2-7.2-7.2H901.78q-7.2 0-7.2 7.2v-2.99q0 7.2 7.2 7.2"/><text x="914.529" y="209.863" fill="#fff" font-family="'DejaVu Sans', 'Bitstream Vera Sans', 'Computer Modern Sans Serif', 'Lucida Grande', 'Verdana', 'Geneva', 'Lucid', 'Arial', 'Helvetica', 'Avant Garde', sans-serif" font-size="9" text-anchor="middle">496 </text><path fill="#006157" fill-opacity=".8" d="M184.01 29.516h40v-14h-40z"/><text x="240.012" y="29.516" font-family="'Arial'" font-size="20" font-weight="500">Columna1</text><path fill="#767676" fill-opacity=".8" d="M371.17 29.516h40v-14h-40z"/><text x="427.169" y="29.516" font-family="'Arial'" font-size="20" font-weight="500">Columna2</text><path fill="#671435" fill-opacity=".8" d="M558.32 29.516h40v-14h-40z"/><text x="614.325" y="29.516" font-family="'Arial'" font-size="20" font-weight="500">Columna3</text><path fill="#9b2247" fill-opacity=".8" d="M745.48 29.516h40v-14h-40z"/><text x="801.481" y="29.516" font-family="'Arial'" font-size="20" font-weight="500">Columna4</text><defs><clipPath id="a"><path d="M125.4 26.029h825.84v288.29H125.4z"/></clipPath></defs></svg>