<?xml version="1.0" encoding="utf-8" standalone="no"?>
<!DOCTYPE svg PUBLIC "-//W3C//DTD SVG 1.1//EN"
  "http://www.w3.org/Graphics/SVG/1.1/DTD/svg11.dtd">
<svg xmlns:xlink="http://www.w3.org/1999/xlink" width="958.445pt" height="415.358705pt" viewBox="0 0 958.445 415.358705" xmlns="http://www.w3.org/2000/svg" version="1.1">
 <metadata>
  <rdf:RDF xmlns:dc="http://purl.org/dc/elements/1.1/" xmlns:cc="http://creativecommons.org/ns#" xmlns:rdf="http://www.w3.org/1999/02/22-rdf-syntax-ns#">
   <cc:Work>
    <dc:type rdf:resource="http://purl.org/dc/dcmitype/StillImage"/>
    <dc:date>2025-05-22T17:33:26.459732</dc:date>
    <dc:format>image/svg+xml</dc:format>
    <dc:creator>
     <cc:Agent>
      <dc:title>Matplotlib v3.10.0, https://matplotlib.org/</dc:title>
     </cc:Agent>
    </dc:creator>
   </cc:Work>
  </rdf:RDF>
 </metadata>
 <defs>
  <style type="text/css">*{stroke-linejoin: round; stroke-linecap: butt}</style>
 </defs>
 <g id="figure_1">
  <g id="patch_1">
   <path d="M 0 415.358705 
L 958.445 415.358705 
L 958.445 -0 
L 0 -0 
z
" style="fill: #ffffff"/>
  </g>
  <g id="axes_1">
   <g id="patch_2">
    <path d="M 125.405 314.3168 
L 951.245 314.3168 
L 951.245 26.0288 
L 125.405 26.0288 
z
" style="fill: #ffffff"/>
   </g>
   <g id="FillBetweenPolyCollection_1">
    <path d="M 162.943182 308.112971 
L 162.943182 314.3168 
L 192.953994 314.3168 
L 222.964806 314.3168 
L 252.975619 314.3168 
L 283.068652 314.3168 
L 313.079465 314.3168 
L 343.090277 314.3168 
L 373.101089 314.3168 
L 403.194123 314.3168 
L 433.204935 314.3168 
L 463.215748 314.3168 
L 493.22656 314.3168 
L 523.319594 314.3168 
L 553.330406 314.3168 
L 583.341218 314.3168 
L 613.352031 314.3168 
L 643.445065 314.3168 
L 673.455877 314.3168 
L 703.466689 314.3168 
L 733.477501 314.3168 
L 763.570535 314.3168 
L 793.581348 314.3168 
L 823.59216 314.3168 
L 853.602972 314.3168 
L 883.696006 314.3168 
L 913.706818 314.3168 
L 913.706818 303.054007 
L 913.706818 303.054007 
L 883.696006 299.604608 
L 853.602972 305.404325 
L 823.59216 302.64791 
L 793.581348 300.88157 
L 763.570535 255.058622 
L 733.477501 255.993463 
L 703.466689 256.720624 
L 673.455877 262.680994 
L 643.445065 263.030014 
L 613.352031 264.548996 
L 583.341218 267.84413 
L 553.330406 269.21162 
L 523.319594 274.380815 
L 493.22656 274.751339 
L 463.215748 275.823126 
L 433.204935 280.956246 
L 403.194123 281.223156 
L 373.101089 287.027325 
L 343.090277 291.897106 
L 313.079465 293.959965 
L 283.068652 294.430741 
L 252.975619 299.291236 
L 222.964806 301.246034 
L 192.953994 302.490573 
L 162.943182 308.112971 
z
" clip-path="url(#p03636bd288)" style="fill: #006157; fill-opacity: 0.8"/>
   </g>
   <g id="FillBetweenPolyCollection_2">
    <path d="M 162.943182 304.946006 
L 162.943182 308.112971 
L 192.953994 302.490573 
L 222.964806 301.246034 
L 252.975619 299.291236 
L 283.068652 294.430741 
L 313.079465 293.959965 
L 343.090277 291.897106 
L 373.101089 287.027325 
L 403.194123 281.223156 
L 433.204935 280.956246 
L 463.215748 275.823126 
L 493.22656 274.751339 
L 523.319594 274.380815 
L 553.330406 269.21162 
L 583.341218 267.84413 
L 613.352031 264.548996 
L 643.445065 263.030014 
L 673.455877 262.680994 
L 703.466689 256.720624 
L 733.477501 255.993463 
L 763.570535 255.058622 
L 793.581348 300.88157 
L 823.59216 302.64791 
L 853.602972 305.404325 
L 883.696006 299.604608 
L 913.706818 303.054007 
L 913.706818 297.944751 
L 913.706818 297.944751 
L 883.696006 287.75939 
L 853.602972 297.423066 
L 823.59216 296.239489 
L 793.581348 290.294935 
L 763.570535 204.645651 
L 733.477501 210.418621 
L 703.466689 213.204854 
L 673.455877 219.390529 
L 643.445065 223.657114 
L 613.352031 225.351593 
L 583.341218 229.816459 
L 553.330406 231.449608 
L 523.319594 241.548292 
L 493.22656 244.309626 
L 463.215748 247.857273 
L 433.204935 254.848046 
L 403.194123 256.39457 
L 373.101089 263.861982 
L 343.090277 273.140618 
L 313.079465 278.96863 
L 283.068652 282.344456 
L 252.975619 289.50674 
L 222.964806 293.620382 
L 192.953994 298.614015 
L 162.943182 304.946006 
z
" clip-path="url(#p03636bd288)" style="fill: #767676; fill-opacity: 0.8"/>
   </g>
   <g id="FillBetweenPolyCollection_3">
    <path d="M 162.943182 298.971781 
L 162.943182 304.946006 
L 192.953994 298.614015 
L 222.964806 293.620382 
L 252.975619 289.50674 
L 283.068652 282.344456 
L 313.079465 278.96863 
L 343.090277 273.140618 
L 373.101089 263.861982 
L 403.194123 256.39457 
L 433.204935 254.848046 
L 463.215748 247.857273 
L 493.22656 244.309626 
L 523.319594 241.548292 
L 553.330406 231.449608 
L 583.341218 229.816459 
L 613.352031 225.351593 
L 643.445065 223.657114 
L 673.455877 219.390529 
L 703.466689 213.204854 
L 733.477501 210.418621 
L 763.570535 204.645651 
L 793.581348 290.294935 
L 823.59216 296.239489 
L 853.602972 297.423066 
L 883.696006 287.75939 
L 913.706818 297.944751 
L 913.706818 294.746615 
L 913.706818 294.746615 
L 883.696006 284.678028 
L 853.602972 293.442884 
L 823.59216 291.824256 
L 793.581348 285.195094 
L 763.570535 158.628307 
L 733.477501 169.681237 
L 703.466689 175.337395 
L 673.455877 183.653716 
L 643.445065 190.27438 
L 613.352031 193.032121 
L 583.341218 197.583455 
L 553.330406 200.386071 
L 523.319594 213.644196 
L 493.22656 217.197092 
L 463.215748 221.09147 
L 433.204935 230.502589 
L 403.194123 234.68041 
L 373.101089 242.980898 
L 343.090277 252.732674 
L 313.079465 259.372858 
L 283.068652 263.095726 
L 252.975619 273.493306 
L 222.964806 282.294422 
L 192.953994 292.186001 
L 162.943182 298.971781 
z
" clip-path="url(#p03636bd288)" style="fill: #671435; fill-opacity: 0.8"/>
   </g>
   <g id="FillBetweenPolyCollection_4">
    <path d="M 162.943182 292.730156 
L 162.943182 298.971781 
L 192.953994 292.186001 
L 222.964806 282.294422 
L 252.975619 273.493306 
L 283.068652 263.095726 
L 313.079465 259.372858 
L 343.090277 252.732674 
L 373.101089 242.980898 
L 403.194123 234.68041 
L 433.204935 230.502589 
L 463.215748 221.09147 
L 493.22656 217.197092 
L 523.319594 213.644196 
L 553.330406 200.386071 
L 583.341218 197.583455 
L 613.352031 193.032121 
L 643.445065 190.27438 
L 673.455877 183.653716 
L 703.466689 175.337395 
L 733.477501 169.681237 
L 763.570535 158.628307 
L 793.581348 285.195094 
L 823.59216 291.824256 
L 853.602972 293.442884 
L 883.696006 284.678028 
L 913.706818 294.746615 
L 913.706818 289.850825 
L 913.706818 289.850825 
L 883.696006 277.447866 
L 853.602972 290.157212 
L 823.59216 290.432235 
L 793.581348 282.88201 
L 763.570535 122.1248 
L 733.477501 133.563253 
L 703.466689 141.209939 
L 673.455877 149.72015 
L 643.445065 156.750721 
L 613.352031 162.07055 
L 583.341218 166.692688 
L 553.330406 169.554641 
L 523.319594 185.397733 
L 493.22656 190.768801 
L 463.215748 196.206025 
L 433.204935 207.767103 
L 403.194123 212.900053 
L 373.101089 222.796455 
L 343.090277 233.428106 
L 313.079465 240.559762 
L 283.068652 245.268997 
L 252.975619 255.944938 
L 222.964806 273.165494 
L 192.953994 283.277287 
L 162.943182 292.730156 
z
" clip-path="url(#p03636bd288)" style="fill: #9b2247; fill-opacity: 0.8"/>
   </g>
   <g id="matplotlib.axis_1">
    <g id="xtick_1">
     <g id="line2d_1">
      <path d="M 132.93237 314.3168 
L 132.93237 26.0288 
" clip-path="url(#p03636bd288)" style="fill: none; stroke: #000000; stroke-opacity: 0.2; stroke-width: 0.75; stroke-linecap: square"/>
     </g>
     <g id="line2d_2">
      <defs>
       <path id="m1bc0fedfd5" d="M 0 0 
L 0 3.5 
" style="stroke: #000000; stroke-width: 0.8"/>
      </defs>
      <g>
       <use xlink:href="#m1bc0fedfd5" x="132.93237" y="314.3168" style="stroke: #000000; stroke-width: 0.8"/>
      </g>
     </g>
     <g id="text_1">
      <text style="font-size: 24px; font-family: 'DejaVu Sans', 'Bitstream Vera Sans', 'Computer Modern Sans Serif', 'Lucida Grande', 'Verdana', 'Geneva', 'Lucid', 'Arial', 'Helvetica', 'Avant Garde', sans-serif" transform="translate(116.020143 377.401858) rotate(-45)">2000</text>
     </g>
    </g>
    <g id="xtick_2">
     <g id="line2d_3">
      <path d="M 253.05784 314.3168 
L 253.05784 26.0288 
" clip-path="url(#p03636bd288)" style="fill: none; stroke: #000000; stroke-opacity: 0.2; stroke-width: 0.75; stroke-linecap: square"/>
     </g>
     <g id="line2d_4">
      <g>
       <use xlink:href="#m1bc0fedfd5" x="253.05784" y="314.3168" style="stroke: #000000; stroke-width: 0.8"/>
      </g>
     </g>
     <g id="text_2">
      <text style="font-size: 24px; font-family: 'DejaVu Sans', 'Bitstream Vera Sans', 'Computer Modern Sans Serif', 'Lucida Grande', 'Verdana', 'Geneva', 'Lucid', 'Arial', 'Helvetica', 'Avant Garde', sans-serif" transform="translate(236.145614 377.401858) rotate(-45)">2004</text>
     </g>
    </g>
    <g id="xtick_3">
     <g id="line2d_5">
      <path d="M 373.183311 314.3168 
L 373.183311 26.0288 
" clip-path="url(#p03636bd288)" style="fill: none; stroke: #000000; stroke-opacity: 0.2; stroke-width: 0.75; stroke-linecap: square"/>
     </g>
     <g id="line2d_6">
      <g>
       <use xlink:href="#m1bc0fedfd5" x="373.183311" y="314.3168" style="stroke: #000000; stroke-width: 0.8"/>
      </g>
     </g>
     <g id="text_3">
      <text style="font-size: 24px; font-family: 'DejaVu Sans', 'Bitstream Vera Sans', 'Computer Modern Sans Serif', 'Lucida Grande', 'Verdana', 'Geneva', 'Lucid', 'Arial', 'Helvetica', 'Avant Garde', sans-serif" transform="translate(356.271084 377.401858) rotate(-45)">2008</text>
     </g>
    </g>
    <g id="xtick_4">
     <g id="line2d_7">
      <path d="M 493.308782 314.3168 
L 493.308782 26.0288 
" clip-path="url(#p03636bd288)" style="fill: none; stroke: #000000; stroke-opacity: 0.2; stroke-width: 0.75; stroke-linecap: square"/>
     </g>
     <g id="line2d_8">
      <g>
       <use xlink:href="#m1bc0fedfd5" x="493.308782" y="314.3168" style="stroke: #000000; stroke-width: 0.8"/>
      </g>
     </g>
     <g id="text_4">
      <text style="font-size: 24px; font-family: 'DejaVu Sans', 'Bitstream Vera Sans', 'Computer Modern Sans Serif', 'Lucida Grande', 'Verdana', 'Geneva', 'Lucid', 'Arial', 'Helvetica', 'Avant Garde', sans-serif" transform="translate(476.396555 377.401858) rotate(-45)">2012</text>
     </g>
    </g>
    <g id="xtick_5">
     <g id="line2d_9">
      <path d="M 613.434252 314.3168 
L 613.434252 26.0288 
" clip-path="url(#p03636bd288)" style="fill: none; stroke: #000000; stroke-opacity: 0.2; stroke-width: 0.75; stroke-linecap: square"/>
     </g>
     <g id="line2d_10">
      <g>
       <use xlink:href="#m1bc0fedfd5" x="613.434252" y="314.3168" style="stroke: #000000; stroke-width: 0.8"/>
      </g>
     </g>
     <g id="text_5">
      <text style="font-size: 24px; font-family: 'DejaVu Sans', 'Bitstream Vera Sans', 'Computer Modern Sans Serif', 'Lucida Grande', 'Verdana', 'Geneva', 'Lucid', 'Arial', 'Helvetica', 'Avant Garde', sans-serif" transform="translate(596.522026 377.401858) rotate(-45)">2016</text>
     </g>
    </g>
    <g id="xtick_6">
     <g id="line2d_11">
      <path d="M 733.559723 314.3168 
L 733.559723 26.0288 
" clip-path="url(#p03636bd288)" style="fill: none; stroke: #000000; stroke-opacity: 0.2; stroke-width: 0.75; stroke-linecap: square"/>
     </g>
     <g id="line2d_12">
      <g>
       <use xlink:href="#m1bc0fedfd5" x="733.559723" y="314.3168" style="stroke: #000000; stroke-width: 0.8"/>
      </g>
     </g>
     <g id="text_6">
      <text style="font-size: 24px; font-family: 'DejaVu Sans', 'Bitstream Vera Sans', 'Computer Modern Sans Serif', 'Lucida Grande', 'Verdana', 'Geneva', 'Lucid', 'Arial', 'Helvetica', 'Avant Garde', sans-serif" transform="translate(716.647496 377.401858) rotate(-45)">2020</text>
     </g>
    </g>
    <g id="xtick_7">
     <g id="line2d_13">
      <path d="M 853.685194 314.3168 
L 853.685194 26.0288 
" clip-path="url(#p03636bd288)" style="fill: none; stroke: #000000; stroke-opacity: 0.2; stroke-width: 0.75; stroke-linecap: square"/>
     </g>
     <g id="line2d_14">
      <g>
       <use xlink:href="#m1bc0fedfd5" x="853.685194" y="314.3168" style="stroke: #000000; stroke-width: 0.8"/>
      </g>
     </g>
     <g id="text_7">
      <text style="font-size: 24px; font-family: 'DejaVu Sans', 'Bitstream Vera Sans', 'Computer Modern Sans Serif', 'Lucida Grande', 'Verdana', 'Geneva', 'Lucid', 'Arial', 'Helvetica', 'Avant Garde', sans-serif" transform="translate(836.772967 377.401858) rotate(-45)">2024</text>
     </g>
    </g>
    <g id="text_8">
     <text style="font-weight: 600; font-size: 24px; font-family: 'DejaVu Sans', 'Bitstream Vera Sans', 'Computer Modern Sans Serif', 'Lucida Grande', 'Verdana', 'Geneva', 'Lucid', 'Arial', 'Helvetica', 'Avant Garde', sans-serif; text-anchor: middle; fill: #767676" x="538.325" y="403.167455" transform="rotate(-0 538.325 403.167455)">Fecha</text>
    </g>
   </g>
   <g id="matplotlib.axis_2">
    <g id="ytick_1">
     <g id="line2d_15">
      <path d="M 125.405 314.3168 
L 951.245 314.3168 
" clip-path="url(#p03636bd288)" style="fill: none; stroke: #000000; stroke-opacity: 0.2; stroke-width: 0.75; stroke-linecap: square"/>
     </g>
     <g id="line2d_16">
      <defs>
       <path id="me8d6ea9da1" d="M 0 0 
L -3.5 0 
" style="stroke: #000000; stroke-width: 0.8"/>
      </defs>
      <g>
       <use xlink:href="#me8d6ea9da1" x="125.405" y="314.3168" style="stroke: #000000; stroke-width: 0.8"/>
      </g>
     </g>
     <g id="text_9">
      <text style="font-size: 24px; font-family: 'DejaVu Sans', 'Bitstream Vera Sans', 'Computer Modern Sans Serif', 'Lucida Grande', 'Verdana', 'Geneva', 'Lucid', 'Arial', 'Helvetica', 'Avant Garde', sans-serif; text-anchor: end" x="118.405" y="323.434925" transform="rotate(-0 118.405 323.434925)">0</text>
     </g>
    </g>
    <g id="ytick_2">
     <g id="line2d_17">
      <path d="M 125.405 275.627955 
L 951.245 275.627955 
" clip-path="url(#p03636bd288)" style="fill: none; stroke: #000000; stroke-opacity: 0.2; stroke-width: 0.75; stroke-linecap: square"/>
     </g>
     <g id="line2d_18">
      <g>
       <use xlink:href="#me8d6ea9da1" x="125.405" y="275.627955" style="stroke: #000000; stroke-width: 0.8"/>
      </g>
     </g>
     <g id="text_10">
      <text style="font-size: 24px; font-family: 'DejaVu Sans', 'Bitstream Vera Sans', 'Computer Modern Sans Serif', 'Lucida Grande', 'Verdana', 'Geneva', 'Lucid', 'Arial', 'Helvetica', 'Avant Garde', sans-serif; text-anchor: end" x="118.405" y="284.74608" transform="rotate(-0 118.405 284.74608)">2,500</text>
     </g>
    </g>
    <g id="ytick_3">
     <g id="line2d_19">
      <path d="M 125.405 236.939109 
L 951.245 236.939109 
" clip-path="url(#p03636bd288)" style="fill: none; stroke: #000000; stroke-opacity: 0.2; stroke-width: 0.75; stroke-linecap: square"/>
     </g>
     <g id="line2d_20">
      <g>
       <use xlink:href="#me8d6ea9da1" x="125.405" y="236.939109" style="stroke: #000000; stroke-width: 0.8"/>
      </g>
     </g>
     <g id="text_11">
      <text style="font-size: 24px; font-family: 'DejaVu Sans', 'Bitstream Vera Sans', 'Computer Modern Sans Serif', 'Lucida Grande', 'Verdana', 'Geneva', 'Lucid', 'Arial', 'Helvetica', 'Avant Garde', sans-serif; text-anchor: end" x="118.405" y="246.057234" transform="rotate(-0 118.405 246.057234)">5,000</text>
     </g>
    </g>
    <g id="ytick_4">
     <g id="line2d_21">
      <path d="M 125.405 198.250264 
L 951.245 198.250264 
" clip-path="url(#p03636bd288)" style="fill: none; stroke: #000000; stroke-opacity: 0.2; stroke-width: 0.75; stroke-linecap: square"/>
     </g>
     <g id="line2d_22">
      <g>
       <use xlink:href="#me8d6ea9da1" x="125.405" y="198.250264" style="stroke: #000000; stroke-width: 0.8"/>
      </g>
     </g>
     <g id="text_12">
      <text style="font-size: 24px; font-family: 'DejaVu Sans', 'Bitstream Vera Sans', 'Computer Modern Sans Serif', 'Lucida Grande', 'Verdana', 'Geneva', 'Lucid', 'Arial', 'Helvetica', 'Avant Garde', sans-serif; text-anchor: end" x="118.405" y="207.368389" transform="rotate(-0 118.405 207.368389)">7,500</text>
     </g>
    </g>
    <g id="ytick_5">
     <g id="line2d_23">
      <path d="M 125.405 159.561419 
L 951.245 159.561419 
" clip-path="url(#p03636bd288)" style="fill: none; stroke: #000000; stroke-opacity: 0.2; stroke-width: 0.75; stroke-linecap: square"/>
     </g>
     <g id="line2d_24">
      <g>
       <use xlink:href="#me8d6ea9da1" x="125.405" y="159.561419" style="stroke: #000000; stroke-width: 0.8"/>
      </g>
     </g>
     <g id="text_13">
      <text style="font-size: 24px; font-family: 'DejaVu Sans', 'Bitstream Vera Sans', 'Computer Modern Sans Serif', 'Lucida Grande', 'Verdana', 'Geneva', 'Lucid', 'Arial', 'Helvetica', 'Avant Garde', sans-serif; text-anchor: end" x="118.405" y="168.679544" transform="rotate(-0 118.405 168.679544)">10,000</text>
     </g>
    </g>
    <g id="ytick_6">
     <g id="line2d_25">
      <path d="M 125.405 120.872574 
L 951.245 120.872574 
" clip-path="url(#p03636bd288)" style="fill: none; stroke: #000000; stroke-opacity: 0.2; stroke-width: 0.75; stroke-linecap: square"/>
     </g>
     <g id="line2d_26">
      <g>
       <use xlink:href="#me8d6ea9da1" x="125.405" y="120.872574" style="stroke: #000000; stroke-width: 0.8"/>
      </g>
     </g>
     <g id="text_14">
      <text style="font-size: 24px; font-family: 'DejaVu Sans', 'Bitstream Vera Sans', 'Computer Modern Sans Serif', 'Lucida Grande', 'Verdana', 'Geneva', 'Lucid', 'Arial', 'Helvetica', 'Avant Garde', sans-serif; text-anchor: end" x="118.405" y="129.990699" transform="rotate(-0 118.405 129.990699)">12,500</text>
     </g>
    </g>
    <g id="ytick_7">
     <g id="line2d_27">
      <path d="M 125.405 82.183728 
L 951.245 82.183728 
" clip-path="url(#p03636bd288)" style="fill: none; stroke: #000000; stroke-opacity: 0.2; stroke-width: 0.75; stroke-linecap: square"/>
     </g>
     <g id="line2d_28">
      <g>
       <use xlink:href="#me8d6ea9da1" x="125.405" y="82.183728" style="stroke: #000000; stroke-width: 0.8"/>
      </g>
     </g>
     <g id="text_15">
      <text style="font-size: 24px; font-family: 'DejaVu Sans', 'Bitstream Vera Sans', 'Computer Modern Sans Serif', 'Lucida Grande', 'Verdana', 'Geneva', 'Lucid', 'Arial', 'Helvetica', 'Avant Garde', sans-serif; text-anchor: end" x="118.405" y="91.301853" transform="rotate(-0 118.405 91.301853)">15,000</text>
     </g>
    </g>
    <g id="ytick_8">
     <g id="line2d_29">
      <path d="M 125.405 43.494883 
L 951.245 43.494883 
" clip-path="url(#p03636bd288)" style="fill: none; stroke: #000000; stroke-opacity: 0.2; stroke-width: 0.75; stroke-linecap: square"/>
     </g>
     <g id="line2d_30">
      <g>
       <use xlink:href="#me8d6ea9da1" x="125.405" y="43.494883" style="stroke: #000000; stroke-width: 0.8"/>
      </g>
     </g>
     <g id="text_16">
      <text style="font-size: 24px; font-family: 'DejaVu Sans', 'Bitstream Vera Sans', 'Computer Modern Sans Serif', 'Lucida Grande', 'Verdana', 'Geneva', 'Lucid', 'Arial', 'Helvetica', 'Avant Garde', sans-serif; text-anchor: end" x="118.405" y="52.613008" transform="rotate(-0 118.405 52.613008)">17,500</text>
     </g>
    </g>
    <g id="text_17">
     <text style="font-weight: 500; font-size: 24px; font-family: 'DejaVu Sans', 'Bitstream Vera Sans', 'Computer Modern Sans Serif', 'Lucida Grande', 'Verdana', 'Geneva', 'Lucid', 'Arial', 'Helvetica', 'Avant Garde', sans-serif; text-anchor: middle; fill: #767676" x="25.43625" y="170.1728" transform="rotate(-90 25.43625 170.1728)">Valores</text>
    </g>
   </g>
   <g id="patch_3">
    <path d="M 125.405 314.3168 
L 951.245 314.3168 
" style="fill: none; stroke: #000000; stroke-width: 2; stroke-linejoin: miter; stroke-linecap: square"/>
   </g>
   <g id="text_18">
    <g id="patch_4">
     <path d="M 180.203525 270.699303 
L 205.704463 270.699303 
Q 212.904463 270.699303 212.904463 263.499303 
L 212.904463 266.48899 
Q 212.904463 259.28899 205.704463 259.28899 
L 180.203525 259.28899 
Q 173.003525 259.28899 173.003525 266.48899 
L 173.003525 263.499303 
Q 173.003525 270.699303 180.203525 270.699303 
z
" style="fill: #006157"/>
    </g>
    <text style="font-size: 9px; font-family: 'DejaVu Sans', 'Bitstream Vera Sans', 'Computer Modern Sans Serif', 'Lucida Grande', 'Verdana', 'Geneva', 'Lucid', 'Arial', 'Helvetica', 'Avant Garde', sans-serif; text-anchor: middle; fill: #ffffff" x="192.953994" y="267.477584" transform="rotate(-0 192.953994 267.477584)">   764    </text>
   </g>
   <g id="text_19">
    <g id="patch_5">
     <path d="M 240.22515 243.366953 
L 265.726088 243.366953 
Q 272.926088 243.366953 272.926088 236.166953 
L 272.926088 239.156641 
Q 272.926088 231.956641 265.726088 231.956641 
L 240.22515 231.956641 
Q 233.02515 231.956641 233.02515 239.156641 
L 233.02515 236.166953 
Q 233.02515 243.366953 240.22515 243.366953 
z
" style="fill: #ffffff; stroke: #808080; stroke-width: 1.5; stroke-linejoin: miter"/>
    </g>
    <text style="font-size: 9px; font-family: 'DejaVu Sans', 'Bitstream Vera Sans', 'Computer Modern Sans Serif', 'Lucida Grande', 'Verdana', 'Geneva', 'Lucid', 'Arial', 'Helvetica', 'Avant Garde', sans-serif; text-anchor: middle; fill: #006157" x="252.975619" y="240.145235" transform="rotate(-0 252.975619 240.145235)">   970    </text>
   </g>
   <g id="text_20">
    <g id="patch_6">
     <path d="M 298.896027 227.981778 
L 327.262902 227.981778 
Q 334.462902 227.981778 334.462902 220.781778 
L 334.462902 223.771465 
Q 334.462902 216.571465 327.262902 216.571465 
L 298.896027 216.571465 
Q 291.696027 216.571465 291.696027 223.771465 
L 291.696027 220.781778 
Q 291.696027 227.981778 298.896027 227.981778 
z
" style="fill: #ffffff; stroke: #808080; stroke-width: 1.5; stroke-linejoin: miter"/>
    </g>
    <text style="font-size: 9px; font-family: 'DejaVu Sans', 'Bitstream Vera Sans', 'Computer Modern Sans Serif', 'Lucida Grande', 'Verdana', 'Geneva', 'Lucid', 'Arial', 'Helvetica', 'Avant Garde', sans-serif; text-anchor: middle; fill: #006157" x="313.079465" y="224.760059" transform="rotate(-0 313.079465 224.760059)">  1,315   </text>
   </g>
   <g id="text_21">
    <g id="patch_7">
     <path d="M 358.917652 210.218471 
L 387.284527 210.218471 
Q 394.484527 210.218471 394.484527 203.018471 
L 394.484527 206.008158 
Q 394.484527 198.808158 387.284527 198.808158 
L 358.917652 198.808158 
Q 351.717652 198.808158 351.717652 206.008158 
L 351.717652 203.018471 
Q 351.717652 210.218471 358.917652 210.218471 
z
" style="fill: #ffffff; stroke: #808080; stroke-width: 1.5; stroke-linejoin: miter"/>
    </g>
    <text style="font-size: 9px; font-family: 'DejaVu Sans', 'Bitstream Vera Sans', 'Computer Modern Sans Serif', 'Lucida Grande', 'Verdana', 'Geneva', 'Lucid', 'Arial', 'Helvetica', 'Avant Garde', sans-serif; text-anchor: middle; fill: #006157" x="373.101089" y="206.996752" transform="rotate(-0 373.101089 206.996752)">  1,763   </text>
   </g>
   <g id="text_22">
    <g id="patch_8">
     <path d="M 419.021498 195.189118 
L 447.388373 195.189118 
Q 454.588373 195.189118 454.588373 187.989118 
L 454.588373 190.978806 
Q 454.588373 183.778806 447.388373 183.778806 
L 419.021498 183.778806 
Q 411.821498 183.778806 411.821498 190.978806 
L 411.821498 187.989118 
Q 411.821498 195.189118 419.021498 195.189118 
z
" style="fill: #ffffff; stroke: #808080; stroke-width: 1.5; stroke-linejoin: miter"/>
    </g>
    <text style="font-size: 9px; font-family: 'DejaVu Sans', 'Bitstream Vera Sans', 'Computer Modern Sans Serif', 'Lucida Grande', 'Verdana', 'Geneva', 'Lucid', 'Arial', 'Helvetica', 'Avant Garde', sans-serif; text-anchor: middle; fill: #006157" x="433.204935" y="191.9674" transform="rotate(-0 433.204935 191.9674)">  2,155   </text>
   </g>
   <g id="text_23">
    <g id="patch_9">
     <path d="M 479.043123 178.190816 
L 507.409998 178.190816 
Q 514.609998 178.190816 514.609998 170.990816 
L 514.609998 173.980504 
Q 514.609998 166.780504 507.409998 166.780504 
L 479.043123 166.780504 
Q 471.843123 166.780504 471.843123 173.980504 
L 471.843123 170.990816 
Q 471.843123 178.190816 479.043123 178.190816 
z
" style="fill: #ffffff; stroke: #808080; stroke-width: 1.5; stroke-linejoin: miter"/>
    </g>
    <text style="font-size: 9px; font-family: 'DejaVu Sans', 'Bitstream Vera Sans', 'Computer Modern Sans Serif', 'Lucida Grande', 'Verdana', 'Geneva', 'Lucid', 'Arial', 'Helvetica', 'Avant Garde', sans-serif; text-anchor: middle; fill: #006157" x="493.22656" y="174.969098" transform="rotate(-0 493.22656 174.969098)">  2,556   </text>
   </g>
   <g id="text_24">
    <g id="patch_10">
     <path d="M 539.146969 156.976657 
L 567.513844 156.976657 
Q 574.713844 156.976657 574.713844 149.776657 
L 574.713844 152.766344 
Q 574.713844 145.566344 567.513844 145.566344 
L 539.146969 145.566344 
Q 531.946969 145.566344 531.946969 152.766344 
L 531.946969 149.776657 
Q 531.946969 156.976657 539.146969 156.976657 
z
" style="fill: #ffffff; stroke: #808080; stroke-width: 1.5; stroke-linejoin: miter"/>
    </g>
    <text style="font-size: 9px; font-family: 'DejaVu Sans', 'Bitstream Vera Sans', 'Computer Modern Sans Serif', 'Lucida Grande', 'Verdana', 'Geneva', 'Lucid', 'Arial', 'Helvetica', 'Avant Garde', sans-serif; text-anchor: middle; fill: #006157" x="553.330406" y="153.754938" transform="rotate(-0 553.330406 153.754938)">  2,914   </text>
   </g>
   <g id="text_25">
    <g id="patch_11">
     <path d="M 599.168593 149.492566 
L 627.535468 149.492566 
Q 634.735468 149.492566 634.735468 142.292566 
L 634.735468 145.282253 
Q 634.735468 138.082253 627.535468 138.082253 
L 599.168593 138.082253 
Q 591.968593 138.082253 591.968593 145.282253 
L 591.968593 142.292566 
Q 591.968593 149.492566 599.168593 149.492566 
z
" style="fill: #ffffff; stroke: #808080; stroke-width: 1.5; stroke-linejoin: miter"/>
    </g>
    <text style="font-size: 9px; font-family: 'DejaVu Sans', 'Bitstream Vera Sans', 'Computer Modern Sans Serif', 'Lucida Grande', 'Verdana', 'Geneva', 'Lucid', 'Arial', 'Helvetica', 'Avant Garde', sans-serif; text-anchor: middle; fill: #006157" x="613.352031" y="146.270847" transform="rotate(-0 613.352031 146.270847)">  3,215   </text>
   </g>
   <g id="text_26">
    <g id="patch_12">
     <path d="M 659.272439 137.142165 
L 687.639314 137.142165 
Q 694.839314 137.142165 694.839314 129.942165 
L 694.839314 132.931853 
Q 694.839314 125.731853 687.639314 125.731853 
L 659.272439 125.731853 
Q 652.072439 125.731853 652.072439 132.931853 
L 652.072439 129.942165 
Q 652.072439 137.142165 659.272439 137.142165 
z
" style="fill: #ffffff; stroke: #808080; stroke-width: 1.5; stroke-linejoin: miter"/>
    </g>
    <text style="font-size: 9px; font-family: 'DejaVu Sans', 'Bitstream Vera Sans', 'Computer Modern Sans Serif', 'Lucida Grande', 'Verdana', 'Geneva', 'Lucid', 'Arial', 'Helvetica', 'Avant Garde', sans-serif; text-anchor: middle; fill: #006157" x="673.455877" y="133.920447" transform="rotate(-0 673.455877 133.920447)">  3,336   </text>
   </g>
   <g id="text_27">
    <g id="patch_13">
     <path d="M 719.294064 120.985269 
L 747.660939 120.985269 
Q 754.860939 120.985269 754.860939 113.785269 
L 754.860939 116.774957 
Q 754.860939 109.574957 747.660939 109.574957 
L 719.294064 109.574957 
Q 712.094064 109.574957 712.094064 116.774957 
L 712.094064 113.785269 
Q 712.094064 120.985269 719.294064 120.985269 
z
" style="fill: #ffffff; stroke: #808080; stroke-width: 1.5; stroke-linejoin: miter"/>
    </g>
    <text style="font-size: 9px; font-family: 'DejaVu Sans', 'Bitstream Vera Sans', 'Computer Modern Sans Serif', 'Lucida Grande', 'Verdana', 'Geneva', 'Lucid', 'Arial', 'Helvetica', 'Avant Garde', sans-serif; text-anchor: middle; fill: #006157" x="733.477501" y="117.76355" transform="rotate(-0 733.477501 117.76355)">  3,768   </text>
   </g>
   <g id="text_28">
    <g id="patch_14">
     <path d="M 749.387098 109.546816 
L 777.753973 109.546816 
Q 784.953973 109.546816 784.953973 102.346816 
L 784.953973 105.336503 
Q 784.953973 98.136503 777.753973 98.136503 
L 749.387098 98.136503 
Q 742.187098 98.136503 742.187098 105.336503 
L 742.187098 102.346816 
Q 742.187098 109.546816 749.387098 109.546816 
z
" style="fill: #ffffff; stroke: #808080; stroke-width: 1.5; stroke-linejoin: miter"/>
    </g>
    <text style="font-size: 9px; font-family: 'DejaVu Sans', 'Bitstream Vera Sans', 'Computer Modern Sans Serif', 'Lucida Grande', 'Verdana', 'Geneva', 'Lucid', 'Arial', 'Helvetica', 'Avant Garde', sans-serif; text-anchor: middle; fill: #006157" x="763.570535" y="106.325097" transform="rotate(-0 763.570535 106.325097)">  3,829   </text>
   </g>
   <g id="text_29">
    <g id="patch_15">
     <path d="M 780.830879 270.304026 
L 806.331816 270.304026 
Q 813.531816 270.304026 813.531816 263.104026 
L 813.531816 266.093713 
Q 813.531816 258.893713 806.331816 258.893713 
L 780.830879 258.893713 
Q 773.630879 258.893713 773.630879 266.093713 
L 773.630879 263.104026 
Q 773.630879 270.304026 780.830879 270.304026 
z
" style="fill: #ffffff; stroke: #808080; stroke-width: 1.5; stroke-linejoin: miter"/>
    </g>
    <text style="font-size: 9px; font-family: 'DejaVu Sans', 'Bitstream Vera Sans', 'Computer Modern Sans Serif', 'Lucida Grande', 'Verdana', 'Geneva', 'Lucid', 'Arial', 'Helvetica', 'Avant Garde', sans-serif; text-anchor: middle; fill: #006157" x="793.581348" y="267.082307" transform="rotate(-0 793.581348 267.082307)">   868    </text>
   </g>
   <g id="text_30">
    <g id="patch_16">
     <path d="M 841.674717 277.579228 
L 867.175655 277.579228 
Q 874.375655 277.579228 874.375655 270.379228 
L 874.375655 273.368915 
Q 874.375655 266.168915 867.175655 266.168915 
L 841.674717 266.168915 
Q 834.474717 266.168915 834.474717 273.368915 
L 834.474717 270.379228 
Q 834.474717 277.579228 841.674717 277.579228 
z
" style="fill: #ffffff; stroke: #808080; stroke-width: 1.5; stroke-linejoin: miter"/>
    </g>
    <text style="font-size: 9px; font-family: 'DejaVu Sans', 'Bitstream Vera Sans', 'Computer Modern Sans Serif', 'Lucida Grande', 'Verdana', 'Geneva', 'Lucid', 'Arial', 'Helvetica', 'Avant Garde', sans-serif; text-anchor: middle; fill: #006157" x="854.425186" y="274.357509" transform="rotate(-0 854.425186 274.357509)">   575    </text>
   </g>
   <g id="text_31">
    <g id="patch_17">
     <path d="M 901.778563 277.272841 
L 927.279501 277.272841 
Q 934.479501 277.272841 934.479501 270.072841 
L 934.479501 273.062529 
Q 934.479501 265.862529 927.279501 265.862529 
L 901.778563 265.862529 
Q 894.578563 265.862529 894.578563 273.062529 
L 894.578563 270.072841 
Q 894.578563 277.272841 901.778563 277.272841 
z
" style="fill: #006157"/>
    </g>
    <text style="font-size: 9px; font-family: 'DejaVu Sans', 'Bitstream Vera Sans', 'Computer Modern Sans Serif', 'Lucida Grande', 'Verdana', 'Geneva', 'Lucid', 'Arial', 'Helvetica', 'Avant Garde', sans-serif; text-anchor: middle; fill: #ffffff" x="914.529032" y="274.051122" transform="rotate(-0 914.529032 274.051122)">   727    </text>
   </g>
   <g id="text_32">
    <g id="patch_18">
     <path d="M 180.203525 253.676211 
L 205.704463 253.676211 
Q 212.904463 253.676211 212.904463 246.476211 
L 212.904463 249.465898 
Q 212.904463 242.265898 205.704463 242.265898 
L 180.203525 242.265898 
Q 173.003525 242.265898 173.003525 249.465898 
L 173.003525 246.476211 
Q 173.003525 253.676211 180.203525 253.676211 
z
" style="fill: #767676"/>
    </g>
    <text style="font-size: 9px; font-family: 'DejaVu Sans', 'Bitstream Vera Sans', 'Computer Modern Sans Serif', 'Lucida Grande', 'Verdana', 'Geneva', 'Lucid', 'Arial', 'Helvetica', 'Avant Garde', sans-serif; text-anchor: middle; fill: #ffffff" x="192.953994" y="250.454492" transform="rotate(-0 192.953994 250.454492)">   250    </text>
   </g>
   <g id="text_33">
    <g id="patch_19">
     <path d="M 240.22515 226.343861 
L 265.726088 226.343861 
Q 272.926088 226.343861 272.926088 219.143861 
L 272.926088 222.133549 
Q 272.926088 214.933549 265.726088 214.933549 
L 240.22515 214.933549 
Q 233.02515 214.933549 233.02515 222.133549 
L 233.02515 219.143861 
Q 233.02515 226.343861 240.22515 226.343861 
z
" style="fill: #ffffff; stroke: #808080; stroke-width: 1.5; stroke-linejoin: miter"/>
    </g>
    <text style="font-size: 9px; font-family: 'DejaVu Sans', 'Bitstream Vera Sans', 'Computer Modern Sans Serif', 'Lucida Grande', 'Verdana', 'Geneva', 'Lucid', 'Arial', 'Helvetica', 'Avant Garde', sans-serif; text-anchor: middle; fill: #767676" x="252.975619" y="223.122143" transform="rotate(-0 252.975619 223.122143)">   632    </text>
   </g>
   <g id="text_34">
    <g id="patch_20">
     <path d="M 300.328996 210.958686 
L 325.829934 210.958686 
Q 333.029934 210.958686 333.029934 203.758686 
L 333.029934 206.748373 
Q 333.029934 199.548373 325.829934 199.548373 
L 300.328996 199.548373 
Q 293.128996 199.548373 293.128996 206.748373 
L 293.128996 203.758686 
Q 293.128996 210.958686 300.328996 210.958686 
z
" style="fill: #ffffff; stroke: #808080; stroke-width: 1.5; stroke-linejoin: miter"/>
    </g>
    <text style="font-size: 9px; font-family: 'DejaVu Sans', 'Bitstream Vera Sans', 'Computer Modern Sans Serif', 'Lucida Grande', 'Verdana', 'Geneva', 'Lucid', 'Arial', 'Helvetica', 'Avant Garde', sans-serif; text-anchor: middle; fill: #767676" x="313.079465" y="207.736967" transform="rotate(-0 313.079465 207.736967)">   968    </text>
   </g>
   <g id="text_35">
    <g id="patch_21">
     <path d="M 358.917652 193.195379 
L 387.284527 193.195379 
Q 394.484527 193.195379 394.484527 185.995379 
L 394.484527 188.985066 
Q 394.484527 181.785066 387.284527 181.785066 
L 358.917652 181.785066 
Q 351.717652 181.785066 351.717652 188.985066 
L 351.717652 185.995379 
Q 351.717652 193.195379 358.917652 193.195379 
z
" style="fill: #ffffff; stroke: #808080; stroke-width: 1.5; stroke-linejoin: miter"/>
    </g>
    <text style="font-size: 9px; font-family: 'DejaVu Sans', 'Bitstream Vera Sans', 'Computer Modern Sans Serif', 'Lucida Grande', 'Verdana', 'Geneva', 'Lucid', 'Arial', 'Helvetica', 'Avant Garde', sans-serif; text-anchor: middle; fill: #767676" x="373.101089" y="189.97366" transform="rotate(-0 373.101089 189.97366)">  1,496   </text>
   </g>
   <g id="text_36">
    <g id="patch_22">
     <path d="M 419.021498 178.166026 
L 447.388373 178.166026 
Q 454.588373 178.166026 454.588373 170.966026 
L 454.588373 173.955714 
Q 454.588373 166.755714 447.388373 166.755714 
L 419.021498 166.755714 
Q 411.821498 166.755714 411.821498 173.955714 
L 411.821498 170.966026 
Q 411.821498 178.166026 419.021498 178.166026 
z
" style="fill: #ffffff; stroke: #808080; stroke-width: 1.5; stroke-linejoin: miter"/>
    </g>
    <text style="font-size: 9px; font-family: 'DejaVu Sans', 'Bitstream Vera Sans', 'Computer Modern Sans Serif', 'Lucida Grande', 'Verdana', 'Geneva', 'Lucid', 'Arial', 'Helvetica', 'Avant Garde', sans-serif; text-anchor: middle; fill: #767676" x="433.204935" y="174.944308" transform="rotate(-0 433.204935 174.944308)">  1,687   </text>
   </g>
   <g id="text_37">
    <g id="patch_23">
     <path d="M 479.043123 161.167724 
L 507.409998 161.167724 
Q 514.609998 161.167724 514.609998 153.967724 
L 514.609998 156.957412 
Q 514.609998 149.757412 507.409998 149.757412 
L 479.043123 149.757412 
Q 471.843123 149.757412 471.843123 156.957412 
L 471.843123 153.967724 
Q 471.843123 161.167724 479.043123 161.167724 
z
" style="fill: #ffffff; stroke: #808080; stroke-width: 1.5; stroke-linejoin: miter"/>
    </g>
    <text style="font-size: 9px; font-family: 'DejaVu Sans', 'Bitstream Vera Sans', 'Computer Modern Sans Serif', 'Lucida Grande', 'Verdana', 'Geneva', 'Lucid', 'Arial', 'Helvetica', 'Avant Garde', sans-serif; text-anchor: middle; fill: #767676" x="493.22656" y="157.946006" transform="rotate(-0 493.22656 157.946006)">  1,967   </text>
   </g>
   <g id="text_38">
    <g id="patch_24">
     <path d="M 539.146969 139.953565 
L 567.513844 139.953565 
Q 574.713844 139.953565 574.713844 132.753565 
L 574.713844 135.743252 
Q 574.713844 128.543252 567.513844 128.543252 
L 539.146969 128.543252 
Q 531.946969 128.543252 531.946969 135.743252 
L 531.946969 132.753565 
Q 531.946969 139.953565 539.146969 139.953565 
z
" style="fill: #ffffff; stroke: #808080; stroke-width: 1.5; stroke-linejoin: miter"/>
    </g>
    <text style="font-size: 9px; font-family: 'DejaVu Sans', 'Bitstream Vera Sans', 'Computer Modern Sans Serif', 'Lucida Grande', 'Verdana', 'Geneva', 'Lucid', 'Arial', 'Helvetica', 'Avant Garde', sans-serif; text-anchor: middle; fill: #767676" x="553.330406" y="136.731846" transform="rotate(-0 553.330406 136.731846)">  2,440   </text>
   </g>
   <g id="text_39">
    <g id="patch_25">
     <path d="M 599.168593 132.469474 
L 627.535468 132.469474 
Q 634.735468 132.469474 634.735468 125.269474 
L 634.735468 128.259161 
Q 634.735468 121.059161 627.535468 121.059161 
L 599.168593 121.059161 
Q 591.968593 121.059161 591.968593 128.259161 
L 591.968593 125.269474 
Q 591.968593 132.469474 599.168593 132.469474 
z
" style="fill: #ffffff; stroke: #808080; stroke-width: 1.5; stroke-linejoin: miter"/>
    </g>
    <text style="font-size: 9px; font-family: 'DejaVu Sans', 'Bitstream Vera Sans', 'Computer Modern Sans Serif', 'Lucida Grande', 'Verdana', 'Geneva', 'Lucid', 'Arial', 'Helvetica', 'Avant Garde', sans-serif; text-anchor: middle; fill: #767676" x="613.352031" y="129.247755" transform="rotate(-0 613.352031 129.247755)">  2,532   </text>
   </g>
   <g id="text_40">
    <g id="patch_26">
     <path d="M 659.272439 120.119073 
L 687.639314 120.119073 
Q 694.839314 120.119073 694.839314 112.919073 
L 694.839314 115.908761 
Q 694.839314 108.708761 687.639314 108.708761 
L 659.272439 108.708761 
Q 652.072439 108.708761 652.072439 115.908761 
L 652.072439 112.919073 
Q 652.072439 120.119073 659.272439 120.119073 
z
" style="fill: #ffffff; stroke: #808080; stroke-width: 1.5; stroke-linejoin: miter"/>
    </g>
    <text style="font-size: 9px; font-family: 'DejaVu Sans', 'Bitstream Vera Sans', 'Computer Modern Sans Serif', 'Lucida Grande', 'Verdana', 'Geneva', 'Lucid', 'Arial', 'Helvetica', 'Avant Garde', sans-serif; text-anchor: middle; fill: #767676" x="673.455877" y="116.897355" transform="rotate(-0 673.455877 116.897355)">  2,797   </text>
   </g>
   <g id="text_41">
    <g id="patch_27">
     <path d="M 719.294064 103.962177 
L 747.660939 103.962177 
Q 754.860939 103.962177 754.860939 96.762177 
L 754.860939 99.751865 
Q 754.860939 92.551865 747.660939 92.551865 
L 719.294064 92.551865 
Q 712.094064 92.551865 712.094064 99.751865 
L 712.094064 96.762177 
Q 712.094064 103.962177 719.294064 103.962177 
z
" style="fill: #ffffff; stroke: #808080; stroke-width: 1.5; stroke-linejoin: miter"/>
    </g>
    <text style="font-size: 9px; font-family: 'DejaVu Sans', 'Bitstream Vera Sans', 'Computer Modern Sans Serif', 'Lucida Grande', 'Verdana', 'Geneva', 'Lucid', 'Arial', 'Helvetica', 'Avant Garde', sans-serif; text-anchor: middle; fill: #767676" x="733.477501" y="100.740459" transform="rotate(-0 733.477501 100.740459)">  2,944   </text>
   </g>
   <g id="text_42">
    <g id="patch_28">
     <path d="M 749.387098 92.523724 
L 777.753973 92.523724 
Q 784.953973 92.523724 784.953973 85.323724 
L 784.953973 88.313411 
Q 784.953973 81.113411 777.753973 81.113411 
L 749.387098 81.113411 
Q 742.187098 81.113411 742.187098 88.313411 
L 742.187098 85.323724 
Q 742.187098 92.523724 749.387098 92.523724 
z
" style="fill: #ffffff; stroke: #808080; stroke-width: 1.5; stroke-linejoin: miter"/>
    </g>
    <text style="font-size: 9px; font-family: 'DejaVu Sans', 'Bitstream Vera Sans', 'Computer Modern Sans Serif', 'Lucida Grande', 'Verdana', 'Geneva', 'Lucid', 'Arial', 'Helvetica', 'Avant Garde', sans-serif; text-anchor: middle; fill: #767676" x="763.570535" y="89.302005" transform="rotate(-0 763.570535 89.302005)">  3,257   </text>
   </g>
   <g id="text_43">
    <g id="patch_29">
     <path d="M 780.830879 253.280934 
L 806.331816 253.280934 
Q 813.531816 253.280934 813.531816 246.080934 
L 813.531816 249.070621 
Q 813.531816 241.870621 806.331816 241.870621 
L 780.830879 241.870621 
Q 773.630879 241.870621 773.630879 249.070621 
L 773.630879 246.080934 
Q 773.630879 253.280934 780.830879 253.280934 
z
" style="fill: #ffffff; stroke: #808080; stroke-width: 1.5; stroke-linejoin: miter"/>
    </g>
    <text style="font-size: 9px; font-family: 'DejaVu Sans', 'Bitstream Vera Sans', 'Computer Modern Sans Serif', 'Lucida Grande', 'Verdana', 'Geneva', 'Lucid', 'Arial', 'Helvetica', 'Avant Garde', sans-serif; text-anchor: middle; fill: #767676" x="793.581348" y="250.059215" transform="rotate(-0 793.581348 250.059215)">   684    </text>
   </g>
   <g id="text_44">
    <g id="patch_30">
     <path d="M 841.674717 260.556136 
L 867.175655 260.556136 
Q 874.375655 260.556136 874.375655 253.356136 
L 874.375655 256.345823 
Q 874.375655 249.145823 867.175655 249.145823 
L 841.674717 249.145823 
Q 834.474717 249.145823 834.474717 256.345823 
L 834.474717 253.356136 
Q 834.474717 260.556136 841.674717 260.556136 
z
" style="fill: #ffffff; stroke: #808080; stroke-width: 1.5; stroke-linejoin: miter"/>
    </g>
    <text style="font-size: 9px; font-family: 'DejaVu Sans', 'Bitstream Vera Sans', 'Computer Modern Sans Serif', 'Lucida Grande', 'Verdana', 'Geneva', 'Lucid', 'Arial', 'Helvetica', 'Avant Garde', sans-serif; text-anchor: middle; fill: #767676" x="854.425186" y="257.334417" transform="rotate(-0 854.425186 257.334417)">   515    </text>
   </g>
   <g id="text_45">
    <g id="patch_31">
     <path d="M 901.778563 260.249749 
L 927.279501 260.249749 
Q 934.479501 260.249749 934.479501 253.049749 
L 934.479501 256.039437 
Q 934.479501 248.839437 927.279501 248.839437 
L 901.778563 248.839437 
Q 894.578563 248.839437 894.578563 256.039437 
L 894.578563 253.049749 
Q 894.578563 260.249749 901.778563 260.249749 
z
" style="fill: #767676"/>
    </g>
    <text style="font-size: 9px; font-family: 'DejaVu Sans', 'Bitstream Vera Sans', 'Computer Modern Sans Serif', 'Lucida Grande', 'Verdana', 'Geneva', 'Lucid', 'Arial', 'Helvetica', 'Avant Garde', sans-serif; text-anchor: middle; fill: #ffffff" x="914.529032" y="257.02803" transform="rotate(-0 914.529032 257.02803)">   330    </text>
   </g>
   <g id="text_46">
    <g id="patch_32">
     <path d="M 180.203525 236.653119 
L 205.704463 236.653119 
Q 212.904463 236.653119 212.904463 229.453119 
L 212.904463 232.442806 
Q 212.904463 225.242806 205.704463 225.242806 
L 180.203525 225.242806 
Q 173.003525 225.242806 173.003525 232.442806 
L 173.003525 229.453119 
Q 173.003525 236.653119 180.203525 236.653119 
z
" style="fill: #671435"/>
    </g>
    <text style="font-size: 9px; font-family: 'DejaVu Sans', 'Bitstream Vera Sans', 'Computer Modern Sans Serif', 'Lucida Grande', 'Verdana', 'Geneva', 'Lucid', 'Arial', 'Helvetica', 'Avant Garde', sans-serif; text-anchor: middle; fill: #ffffff" x="192.953994" y="233.4314" transform="rotate(-0 192.953994 233.4314)">   415    </text>
   </g>
   <g id="text_47">
    <g id="patch_33">
     <path d="M 238.792181 209.320769 
L 267.159056 209.320769 
Q 274.359056 209.320769 274.359056 202.120769 
L 274.359056 205.110457 
Q 274.359056 197.910457 267.159056 197.910457 
L 238.792181 197.910457 
Q 231.592181 197.910457 231.592181 205.110457 
L 231.592181 202.120769 
Q 231.592181 209.320769 238.792181 209.320769 
z
" style="fill: #ffffff; stroke: #808080; stroke-width: 1.5; stroke-linejoin: miter"/>
    </g>
    <text style="font-size: 9px; font-family: 'DejaVu Sans', 'Bitstream Vera Sans', 'Computer Modern Sans Serif', 'Lucida Grande', 'Verdana', 'Geneva', 'Lucid', 'Arial', 'Helvetica', 'Avant Garde', sans-serif; text-anchor: middle; fill: #671435" x="252.975619" y="206.099051" transform="rotate(-0 252.975619 206.099051)">  1,034   </text>
   </g>
   <g id="text_48">
    <g id="patch_34">
     <path d="M 298.896027 193.935594 
L 327.262902 193.935594 
Q 334.462902 193.935594 334.462902 186.735594 
L 334.462902 189.725281 
Q 334.462902 182.525281 327.262902 182.525281 
L 298.896027 182.525281 
Q 291.696027 182.525281 291.696027 189.725281 
L 291.696027 186.735594 
Q 291.696027 193.935594 298.896027 193.935594 
z
" style="fill: #ffffff; stroke: #808080; stroke-width: 1.5; stroke-linejoin: miter"/>
    </g>
    <text style="font-size: 9px; font-family: 'DejaVu Sans', 'Bitstream Vera Sans', 'Computer Modern Sans Serif', 'Lucida Grande', 'Verdana', 'Geneva', 'Lucid', 'Arial', 'Helvetica', 'Avant Garde', sans-serif; text-anchor: middle; fill: #671435" x="313.079465" y="190.713875" transform="rotate(-0 313.079465 190.713875)">  1,266   </text>
   </g>
   <g id="text_49">
    <g id="patch_35">
     <path d="M 358.917652 176.172287 
L 387.284527 176.172287 
Q 394.484527 176.172287 394.484527 168.972287 
L 394.484527 171.961974 
Q 394.484527 164.761974 387.284527 164.761974 
L 358.917652 164.761974 
Q 351.717652 164.761974 351.717652 171.961974 
L 351.717652 168.972287 
Q 351.717652 176.172287 358.917652 176.172287 
z
" style="fill: #ffffff; stroke: #808080; stroke-width: 1.5; stroke-linejoin: miter"/>
    </g>
    <text style="font-size: 9px; font-family: 'DejaVu Sans', 'Bitstream Vera Sans', 'Computer Modern Sans Serif', 'Lucida Grande', 'Verdana', 'Geneva', 'Lucid', 'Arial', 'Helvetica', 'Avant Garde', sans-serif; text-anchor: middle; fill: #671435" x="373.101089" y="172.950568" transform="rotate(-0 373.101089 172.950568)">  1,349   </text>
   </g>
   <g id="text_50">
    <g id="patch_36">
     <path d="M 419.021498 161.142935 
L 447.388373 161.142935 
Q 454.588373 161.142935 454.588373 153.942935 
L 454.588373 156.932622 
Q 454.588373 149.732622 447.388373 149.732622 
L 419.021498 149.732622 
Q 411.821498 149.732622 411.821498 156.932622 
L 411.821498 153.942935 
Q 411.821498 161.142935 419.021498 161.142935 
z
" style="fill: #ffffff; stroke: #808080; stroke-width: 1.5; stroke-linejoin: miter"/>
    </g>
    <text style="font-size: 9px; font-family: 'DejaVu Sans', 'Bitstream Vera Sans', 'Computer Modern Sans Serif', 'Lucida Grande', 'Verdana', 'Geneva', 'Lucid', 'Arial', 'Helvetica', 'Avant Garde', sans-serif; text-anchor: middle; fill: #671435" x="433.204935" y="157.921216" transform="rotate(-0 433.204935 157.921216)">  1,573   </text>
   </g>
   <g id="text_51">
    <g id="patch_37">
     <path d="M 479.043123 144.144633 
L 507.409998 144.144633 
Q 514.609998 144.144633 514.609998 136.944633 
L 514.609998 139.93432 
Q 514.609998 132.73432 507.409998 132.73432 
L 479.043123 132.73432 
Q 471.843123 132.73432 471.843123 139.93432 
L 471.843123 136.944633 
Q 471.843123 144.144633 479.043123 144.144633 
z
" style="fill: #ffffff; stroke: #808080; stroke-width: 1.5; stroke-linejoin: miter"/>
    </g>
    <text style="font-size: 9px; font-family: 'DejaVu Sans', 'Bitstream Vera Sans', 'Computer Modern Sans Serif', 'Lucida Grande', 'Verdana', 'Geneva', 'Lucid', 'Arial', 'Helvetica', 'Avant Garde', sans-serif; text-anchor: middle; fill: #671435" x="493.22656" y="140.922914" transform="rotate(-0 493.22656 140.922914)">  1,751   </text>
   </g>
   <g id="text_52">
    <g id="patch_38">
     <path d="M 539.146969 122.930473 
L 567.513844 122.930473 
Q 574.713844 122.930473 574.713844 115.730473 
L 574.713844 118.72016 
Q 574.713844 111.52016 567.513844 111.52016 
L 539.146969 111.52016 
Q 531.946969 111.52016 531.946969 118.72016 
L 531.946969 115.730473 
Q 531.946969 122.930473 539.146969 122.930473 
z
" style="fill: #ffffff; stroke: #808080; stroke-width: 1.5; stroke-linejoin: miter"/>
    </g>
    <text style="font-size: 9px; font-family: 'DejaVu Sans', 'Bitstream Vera Sans', 'Computer Modern Sans Serif', 'Lucida Grande', 'Verdana', 'Geneva', 'Lucid', 'Arial', 'Helvetica', 'Avant Garde', sans-serif; text-anchor: middle; fill: #671435" x="553.330406" y="119.708754" transform="rotate(-0 553.330406 119.708754)">  2,007   </text>
   </g>
   <g id="text_53">
    <g id="patch_39">
     <path d="M 599.168593 115.446382 
L 627.535468 115.446382 
Q 634.735468 115.446382 634.735468 108.246382 
L 634.735468 111.236069 
Q 634.735468 104.036069 627.535468 104.036069 
L 599.168593 104.036069 
Q 591.968593 104.036069 591.968593 111.236069 
L 591.968593 108.246382 
Q 591.968593 115.446382 599.168593 115.446382 
z
" style="fill: #ffffff; stroke: #808080; stroke-width: 1.5; stroke-linejoin: miter"/>
    </g>
    <text style="font-size: 9px; font-family: 'DejaVu Sans', 'Bitstream Vera Sans', 'Computer Modern Sans Serif', 'Lucida Grande', 'Verdana', 'Geneva', 'Lucid', 'Arial', 'Helvetica', 'Avant Garde', sans-serif; text-anchor: middle; fill: #671435" x="613.352031" y="112.224663" transform="rotate(-0 613.352031 112.224663)">  2,088   </text>
   </g>
   <g id="text_54">
    <g id="patch_40">
     <path d="M 659.272439 103.095981 
L 687.639314 103.095981 
Q 694.839314 103.095981 694.839314 95.895981 
L 694.839314 98.885669 
Q 694.839314 91.685669 687.639314 91.685669 
L 659.272439 91.685669 
Q 652.072439 91.685669 652.072439 98.885669 
L 652.072439 95.895981 
Q 652.072439 103.095981 659.272439 103.095981 
z
" style="fill: #ffffff; stroke: #808080; stroke-width: 1.5; stroke-linejoin: miter"/>
    </g>
    <text style="font-size: 9px; font-family: 'DejaVu Sans', 'Bitstream Vera Sans', 'Computer Modern Sans Serif', 'Lucida Grande', 'Verdana', 'Geneva', 'Lucid', 'Arial', 'Helvetica', 'Avant Garde', sans-serif; text-anchor: middle; fill: #671435" x="673.455877" y="99.874263" transform="rotate(-0 673.455877 99.874263)">  2,309   </text>
   </g>
   <g id="text_55">
    <g id="patch_41">
     <path d="M 719.294064 86.939085 
L 747.660939 86.939085 
Q 754.860939 86.939085 754.860939 79.739085 
L 754.860939 82.728773 
Q 754.860939 75.528773 747.660939 75.528773 
L 719.294064 75.528773 
Q 712.094064 75.528773 712.094064 82.728773 
L 712.094064 79.739085 
Q 712.094064 86.939085 719.294064 86.939085 
z
" style="fill: #ffffff; stroke: #808080; stroke-width: 1.5; stroke-linejoin: miter"/>
    </g>
    <text style="font-size: 9px; font-family: 'DejaVu Sans', 'Bitstream Vera Sans', 'Computer Modern Sans Serif', 'Lucida Grande', 'Verdana', 'Geneva', 'Lucid', 'Arial', 'Helvetica', 'Avant Garde', sans-serif; text-anchor: middle; fill: #671435" x="733.477501" y="83.717367" transform="rotate(-0 733.477501 83.717367)">  2,632   </text>
   </g>
   <g id="text_56">
    <g id="patch_42">
     <path d="M 749.387098 75.500632 
L 777.753973 75.500632 
Q 784.953973 75.500632 784.953973 68.300632 
L 784.953973 71.290319 
Q 784.953973 64.090319 777.753973 64.090319 
L 749.387098 64.090319 
Q 742.187098 64.090319 742.187098 71.290319 
L 742.187098 68.300632 
Q 742.187098 75.500632 749.387098 75.500632 
z
" style="fill: #ffffff; stroke: #808080; stroke-width: 1.5; stroke-linejoin: miter"/>
    </g>
    <text style="font-size: 9px; font-family: 'DejaVu Sans', 'Bitstream Vera Sans', 'Computer Modern Sans Serif', 'Lucida Grande', 'Verdana', 'Geneva', 'Lucid', 'Arial', 'Helvetica', 'Avant Garde', sans-serif; text-anchor: middle; fill: #671435" x="763.570535" y="72.278913" transform="rotate(-0 763.570535 72.278913)">  2,973   </text>
   </g>
   <g id="text_57">
    <g id="patch_43">
     <path d="M 780.830879 236.257842 
L 806.331816 236.257842 
Q 813.531816 236.257842 813.531816 229.057842 
L 813.531816 232.047529 
Q 813.531816 224.847529 806.331816 224.847529 
L 780.830879 224.847529 
Q 773.630879 224.847529 773.630879 232.047529 
L 773.630879 229.057842 
Q 773.630879 236.257842 780.830879 236.257842 
z
" style="fill: #ffffff; stroke: #808080; stroke-width: 1.5; stroke-linejoin: miter"/>
    </g>
    <text style="font-size: 9px; font-family: 'DejaVu Sans', 'Bitstream Vera Sans', 'Computer Modern Sans Serif', 'Lucida Grande', 'Verdana', 'Geneva', 'Lucid', 'Arial', 'Helvetica', 'Avant Garde', sans-serif; text-anchor: middle; fill: #671435" x="793.581348" y="233.036123" transform="rotate(-0 793.581348 233.036123)">   329    </text>
   </g>
   <g id="text_58">
    <g id="patch_44">
     <path d="M 841.674717 243.533044 
L 867.175655 243.533044 
Q 874.375655 243.533044 874.375655 236.333044 
L 874.375655 239.322731 
Q 874.375655 232.122731 867.175655 232.122731 
L 841.674717 232.122731 
Q 834.474717 232.122731 834.474717 239.322731 
L 834.474717 236.333044 
Q 834.474717 243.533044 841.674717 243.533044 
z
" style="fill: #ffffff; stroke: #808080; stroke-width: 1.5; stroke-linejoin: miter"/>
    </g>
    <text style="font-size: 9px; font-family: 'DejaVu Sans', 'Bitstream Vera Sans', 'Computer Modern Sans Serif', 'Lucida Grande', 'Verdana', 'Geneva', 'Lucid', 'Arial', 'Helvetica', 'Avant Garde', sans-serif; text-anchor: middle; fill: #671435" x="854.425186" y="240.311325" transform="rotate(-0 854.425186 240.311325)">   257    </text>
   </g>
   <g id="text_59">
    <g id="patch_45">
     <path d="M 901.778563 243.226657 
L 927.279501 243.226657 
Q 934.479501 243.226657 934.479501 236.026657 
L 934.479501 239.016345 
Q 934.479501 231.816345 927.279501 231.816345 
L 901.778563 231.816345 
Q 894.578563 231.816345 894.578563 239.016345 
L 894.578563 236.026657 
Q 894.578563 243.226657 901.778563 243.226657 
z
" style="fill: #671435"/>
    </g>
    <text style="font-size: 9px; font-family: 'DejaVu Sans', 'Bitstream Vera Sans', 'Computer Modern Sans Serif', 'Lucida Grande', 'Verdana', 'Geneva', 'Lucid', 'Arial', 'Helvetica', 'Avant Garde', sans-serif; text-anchor: middle; fill: #ffffff" x="914.529032" y="240.004938" transform="rotate(-0 914.529032 240.004938)">   206    </text>
   </g>
   <g id="text_60">
    <g id="patch_46">
     <path d="M 180.203525 219.630027 
L 205.704463 219.630027 
Q 212.904463 219.630027 212.904463 212.430027 
L 212.904463 215.419714 
Q 212.904463 208.219714 205.704463 208.219714 
L 180.203525 208.219714 
Q 173.003525 208.219714 173.003525 215.419714 
L 173.003525 212.430027 
Q 173.003525 219.630027 180.203525 219.630027 
z
" style="fill: #9b2247"/>
    </g>
    <text style="font-size: 9px; font-family: 'DejaVu Sans', 'Bitstream Vera Sans', 'Computer Modern Sans Serif', 'Lucida Grande', 'Verdana', 'Geneva', 'Lucid', 'Arial', 'Helvetica', 'Avant Garde', sans-serif; text-anchor: middle; fill: #ffffff" x="192.953994" y="216.408308" transform="rotate(-0 192.953994 216.408308)">   575    </text>
   </g>
   <g id="text_61">
    <g id="patch_47">
     <path d="M 238.792181 192.297678 
L 267.159056 192.297678 
Q 274.359056 192.297678 274.359056 185.097678 
L 274.359056 188.087365 
Q 274.359056 180.887365 267.159056 180.887365 
L 238.792181 180.887365 
Q 231.592181 180.887365 231.592181 188.087365 
L 231.592181 185.097678 
Q 231.592181 192.297678 238.792181 192.297678 
z
" style="fill: #ffffff; stroke: #808080; stroke-width: 1.5; stroke-linejoin: miter"/>
    </g>
    <text style="font-size: 9px; font-family: 'DejaVu Sans', 'Bitstream Vera Sans', 'Computer Modern Sans Serif', 'Lucida Grande', 'Verdana', 'Geneva', 'Lucid', 'Arial', 'Helvetica', 'Avant Garde', sans-serif; text-anchor: middle; fill: #9b2247" x="252.975619" y="189.075959" transform="rotate(-0 252.975619 189.075959)">  1,133   </text>
   </g>
   <g id="text_62">
    <g id="patch_48">
     <path d="M 298.896027 176.912502 
L 327.262902 176.912502 
Q 334.462902 176.912502 334.462902 169.712502 
L 334.462902 172.70219 
Q 334.462902 165.50219 327.262902 165.50219 
L 298.896027 165.50219 
Q 291.696027 165.50219 291.696027 172.70219 
L 291.696027 169.712502 
Q 291.696027 176.912502 298.896027 176.912502 
z
" style="fill: #ffffff; stroke: #808080; stroke-width: 1.5; stroke-linejoin: miter"/>
    </g>
    <text style="font-size: 9px; font-family: 'DejaVu Sans', 'Bitstream Vera Sans', 'Computer Modern Sans Serif', 'Lucida Grande', 'Verdana', 'Geneva', 'Lucid', 'Arial', 'Helvetica', 'Avant Garde', sans-serif; text-anchor: middle; fill: #9b2247" x="313.079465" y="173.690783" transform="rotate(-0 313.079465 173.690783)">  1,215   </text>
   </g>
   <g id="text_63">
    <g id="patch_49">
     <path d="M 358.917652 159.149195 
L 387.284527 159.149195 
Q 394.484527 159.149195 394.484527 151.949195 
L 394.484527 154.938883 
Q 394.484527 147.738883 387.284527 147.738883 
L 358.917652 147.738883 
Q 351.717652 147.738883 351.717652 154.938883 
L 351.717652 151.949195 
Q 351.717652 159.149195 358.917652 159.149195 
z
" style="fill: #ffffff; stroke: #808080; stroke-width: 1.5; stroke-linejoin: miter"/>
    </g>
    <text style="font-size: 9px; font-family: 'DejaVu Sans', 'Bitstream Vera Sans', 'Computer Modern Sans Serif', 'Lucida Grande', 'Verdana', 'Geneva', 'Lucid', 'Arial', 'Helvetica', 'Avant Garde', sans-serif; text-anchor: middle; fill: #9b2247" x="373.101089" y="155.927476" transform="rotate(-0 373.101089 155.927476)">  1,304   </text>
   </g>
   <g id="text_64">
    <g id="patch_50">
     <path d="M 419.021498 144.119843 
L 447.388373 144.119843 
Q 454.588373 144.119843 454.588373 136.919843 
L 454.588373 139.90953 
Q 454.588373 132.70953 447.388373 132.70953 
L 419.021498 132.70953 
Q 411.821498 132.70953 411.821498 139.90953 
L 411.821498 136.919843 
Q 411.821498 144.119843 419.021498 144.119843 
z
" style="fill: #ffffff; stroke: #808080; stroke-width: 1.5; stroke-linejoin: miter"/>
    </g>
    <text style="font-size: 9px; font-family: 'DejaVu Sans', 'Bitstream Vera Sans', 'Computer Modern Sans Serif', 'Lucida Grande', 'Verdana', 'Geneva', 'Lucid', 'Arial', 'Helvetica', 'Avant Garde', sans-serif; text-anchor: middle; fill: #9b2247" x="433.204935" y="140.898124" transform="rotate(-0 433.204935 140.898124)">  1,469   </text>
   </g>
   <g id="text_65">
    <g id="patch_51">
     <path d="M 479.043123 127.121541 
L 507.409998 127.121541 
Q 514.609998 127.121541 514.609998 119.921541 
L 514.609998 122.911228 
Q 514.609998 115.711228 507.409998 115.711228 
L 479.043123 115.711228 
Q 471.843123 115.711228 471.843123 122.911228 
L 471.843123 119.921541 
Q 471.843123 127.121541 479.043123 127.121541 
z
" style="fill: #ffffff; stroke: #808080; stroke-width: 1.5; stroke-linejoin: miter"/>
    </g>
    <text style="font-size: 9px; font-family: 'DejaVu Sans', 'Bitstream Vera Sans', 'Computer Modern Sans Serif', 'Lucida Grande', 'Verdana', 'Geneva', 'Lucid', 'Arial', 'Helvetica', 'Avant Garde', sans-serif; text-anchor: middle; fill: #9b2247" x="493.22656" y="123.899822" transform="rotate(-0 493.22656 123.899822)">  1,707   </text>
   </g>
   <g id="text_66">
    <g id="patch_52">
     <path d="M 539.146969 105.907381 
L 567.513844 105.907381 
Q 574.713844 105.907381 574.713844 98.707381 
L 574.713844 101.697068 
Q 574.713844 94.497068 567.513844 94.497068 
L 539.146969 94.497068 
Q 531.946969 94.497068 531.946969 101.697068 
L 531.946969 98.707381 
Q 531.946969 105.907381 539.146969 105.907381 
z
" style="fill: #ffffff; stroke: #808080; stroke-width: 1.5; stroke-linejoin: miter"/>
    </g>
    <text style="font-size: 9px; font-family: 'DejaVu Sans', 'Bitstream Vera Sans', 'Computer Modern Sans Serif', 'Lucida Grande', 'Verdana', 'Geneva', 'Lucid', 'Arial', 'Helvetica', 'Avant Garde', sans-serif; text-anchor: middle; fill: #9b2247" x="553.330406" y="102.685662" transform="rotate(-0 553.330406 102.685662)">  1,992   </text>
   </g>
   <g id="text_67">
    <g id="patch_53">
     <path d="M 599.168593 98.42329 
L 627.535468 98.42329 
Q 634.735468 98.42329 634.735468 91.22329 
L 634.735468 94.212977 
Q 634.735468 87.012977 627.535468 87.012977 
L 599.168593 87.012977 
Q 591.968593 87.012977 591.968593 94.212977 
L 591.968593 91.22329 
Q 591.968593 98.42329 599.168593 98.42329 
z
" style="fill: #ffffff; stroke: #808080; stroke-width: 1.5; stroke-linejoin: miter"/>
    </g>
    <text style="font-size: 9px; font-family: 'DejaVu Sans', 'Bitstream Vera Sans', 'Computer Modern Sans Serif', 'Lucida Grande', 'Verdana', 'Geneva', 'Lucid', 'Arial', 'Helvetica', 'Avant Garde', sans-serif; text-anchor: middle; fill: #9b2247" x="613.352031" y="95.201571" transform="rotate(-0 613.352031 95.201571)">  2,000   </text>
   </g>
   <g id="text_68">
    <g id="patch_54">
     <path d="M 659.272439 86.072889 
L 687.639314 86.072889 
Q 694.839314 86.072889 694.839314 78.872889 
L 694.839314 81.862577 
Q 694.839314 74.662577 687.639314 74.662577 
L 659.272439 74.662577 
Q 652.072439 74.662577 652.072439 81.862577 
L 652.072439 78.872889 
Q 652.072439 86.072889 659.272439 86.072889 
z
" style="fill: #ffffff; stroke: #808080; stroke-width: 1.5; stroke-linejoin: miter"/>
    </g>
    <text style="font-size: 9px; font-family: 'DejaVu Sans', 'Bitstream Vera Sans', 'Computer Modern Sans Serif', 'Lucida Grande', 'Verdana', 'Geneva', 'Lucid', 'Arial', 'Helvetica', 'Avant Garde', sans-serif; text-anchor: middle; fill: #9b2247" x="673.455877" y="82.851171" transform="rotate(-0 673.455877 82.851171)">  2,192   </text>
   </g>
   <g id="text_69">
    <g id="patch_55">
     <path d="M 719.294064 69.915993 
L 747.660939 69.915993 
Q 754.860939 69.915993 754.860939 62.715993 
L 754.860939 65.705681 
Q 754.860939 58.505681 747.660939 58.505681 
L 719.294064 58.505681 
Q 712.094064 58.505681 712.094064 65.705681 
L 712.094064 62.715993 
Q 712.094064 69.915993 719.294064 69.915993 
z
" style="fill: #ffffff; stroke: #808080; stroke-width: 1.5; stroke-linejoin: miter"/>
    </g>
    <text style="font-size: 9px; font-family: 'DejaVu Sans', 'Bitstream Vera Sans', 'Computer Modern Sans Serif', 'Lucida Grande', 'Verdana', 'Geneva', 'Lucid', 'Arial', 'Helvetica', 'Avant Garde', sans-serif; text-anchor: middle; fill: #9b2247" x="733.477501" y="66.694275" transform="rotate(-0 733.477501 66.694275)">  2,333   </text>
   </g>
   <g id="text_70">
    <g id="patch_56">
     <path d="M 749.387098 58.47754 
L 777.753973 58.47754 
Q 784.953973 58.47754 784.953973 51.27754 
L 784.953973 54.267227 
Q 784.953973 47.067227 777.753973 47.067227 
L 749.387098 47.067227 
Q 742.187098 47.067227 742.187098 54.267227 
L 742.187098 51.27754 
Q 742.187098 58.47754 749.387098 58.47754 
z
" style="fill: #ffffff; stroke: #808080; stroke-width: 1.5; stroke-linejoin: miter"/>
    </g>
    <text style="font-size: 9px; font-family: 'DejaVu Sans', 'Bitstream Vera Sans', 'Computer Modern Sans Serif', 'Lucida Grande', 'Verdana', 'Geneva', 'Lucid', 'Arial', 'Helvetica', 'Avant Garde', sans-serif; text-anchor: middle; fill: #9b2247" x="763.570535" y="55.255821" transform="rotate(-0 763.570535 55.255821)">  2,358   </text>
   </g>
   <g id="text_71">
    <g id="patch_57">
     <path d="M 780.830879 219.23475 
L 806.331816 219.23475 
Q 813.531816 219.23475 813.531816 212.03475 
L 813.531816 215.024437 
Q 813.531816 207.824437 806.331816 207.824437 
L 780.830879 207.824437 
Q 773.630879 207.824437 773.630879 215.024437 
L 773.630879 212.03475 
Q 773.630879 219.23475 780.830879 219.23475 
z
" style="fill: #ffffff; stroke: #808080; stroke-width: 1.5; stroke-linejoin: miter"/>
    </g>
    <text style="font-size: 9px; font-family: 'DejaVu Sans', 'Bitstream Vera Sans', 'Computer Modern Sans Serif', 'Lucida Grande', 'Verdana', 'Geneva', 'Lucid', 'Arial', 'Helvetica', 'Avant Garde', sans-serif; text-anchor: middle; fill: #9b2247" x="793.581348" y="216.013031" transform="rotate(-0 793.581348 216.013031)">   149    </text>
   </g>
   <g id="text_72">
    <g id="patch_58">
     <path d="M 841.674717 226.509952 
L 867.175655 226.509952 
Q 874.375655 226.509952 874.375655 219.309952 
L 874.375655 222.29964 
Q 874.375655 215.09964 867.175655 215.09964 
L 841.674717 215.09964 
Q 834.474717 215.09964 834.474717 222.29964 
L 834.474717 219.309952 
Q 834.474717 226.509952 841.674717 226.509952 
z
" style="fill: #ffffff; stroke: #808080; stroke-width: 1.5; stroke-linejoin: miter"/>
    </g>
    <text style="font-size: 9px; font-family: 'DejaVu Sans', 'Bitstream Vera Sans', 'Computer Modern Sans Serif', 'Lucida Grande', 'Verdana', 'Geneva', 'Lucid', 'Arial', 'Helvetica', 'Avant Garde', sans-serif; text-anchor: middle; fill: #9b2247" x="854.425186" y="223.288233" transform="rotate(-0 854.425186 223.288233)">   212    </text>
   </g>
   <g id="text_73">
    <g id="patch_59">
     <path d="M 901.778563 226.203565 
L 927.279501 226.203565 
Q 934.479501 226.203565 934.479501 219.003565 
L 934.479501 221.993253 
Q 934.479501 214.793253 927.279501 214.793253 
L 901.778563 214.793253 
Q 894.578563 214.793253 894.578563 221.993253 
L 894.578563 219.003565 
Q 894.578563 226.203565 901.778563 226.203565 
z
" style="fill: #9b2247"/>
    </g>
    <text style="font-size: 9px; font-family: 'DejaVu Sans', 'Bitstream Vera Sans', 'Computer Modern Sans Serif', 'Lucida Grande', 'Verdana', 'Geneva', 'Lucid', 'Arial', 'Helvetica', 'Avant Garde', sans-serif; text-anchor: middle; fill: #ffffff" x="914.529032" y="222.981847" transform="rotate(-0 914.529032 222.981847)">   316    </text>
   </g>
   <g id="legend_1">
    <g id="patch_60">
     <path d="M 184.0125 29.515625 
L 224.0125 29.515625 
L 224.0125 15.515625 
L 184.0125 15.515625 
z
" style="fill: #006157; fill-opacity: 0.8"/>
    </g>
    <g id="text_74">
     <text style="font-weight: 500; font-size: 20px; font-family: 'Arial'; text-anchor: start" x="240.0125" y="29.515625" transform="rotate(-0 240.0125 29.515625)">Columna1</text>
    </g>
    <g id="patch_61">
     <path d="M 371.16875 29.515625 
L 411.16875 29.515625 
L 411.16875 15.515625 
L 371.16875 15.515625 
z
" style="fill: #767676; fill-opacity: 0.8"/>
    </g>
    <g id="text_75">
     <text style="font-weight: 500; font-size: 20px; font-family: 'Arial'; text-anchor: start" x="427.16875" y="29.515625" transform="rotate(-0 427.16875 29.515625)">Columna2</text>
    </g>
    <g id="patch_62">
     <path d="M 558.325 29.515625 
L 598.325 29.515625 
L 598.325 15.515625 
L 558.325 15.515625 
z
" style="fill: #671435; fill-opacity: 0.8"/>
    </g>
    <g id="text_76">
     <text style="font-weight: 500; font-size: 20px; font-family: 'Arial'; text-anchor: start" x="614.325" y="29.515625" transform="rotate(-0 614.325 29.515625)">Columna3</text>
    </g>
    <g id="patch_63">
     <path d="M 745.48125 29.515625 
L 785.48125 29.515625 
L 785.48125 15.515625 
L 745.48125 15.515625 
z
" style="fill: #9b2247; fill-opacity: 0.8"/>
    </g>
    <g id="text_77">
     <text style="font-weight: 500; font-size: 20px; font-family: 'Arial'; text-anchor: start" x="801.48125" y="29.515625" transform="rotate(-0 801.48125 29.515625)">Columna4</text>
    </g>
   </g>
  </g>
 </g>
 <defs>
  <clipPath id="p03636bd288">
   <rect x="125.405" y="26.0288" width="825.84" height="288.288"/>
  </clipPath>
 </defs>
</svg>
