<?xml version="1.0" encoding="utf-8" standalone="no"?>
<!DOCTYPE svg PUBLIC "-//W3C//DTD SVG 1.1//EN"
  "http://www.w3.org/Graphics/SVG/1.1/DTD/svg11.dtd">
<svg xmlns:xlink="http://www.w3.org/1999/xlink" width="1144.65375pt" height="593.3925pt" viewBox="0 0 1144.65375 593.3925" xmlns="http://www.w3.org/2000/svg" version="1.1">
 <metadata>
  <rdf:RDF xmlns:dc="http://purl.org/dc/elements/1.1/" xmlns:cc="http://creativecommons.org/ns#" xmlns:rdf="http://www.w3.org/1999/02/22-rdf-syntax-ns#">
   <cc:Work>
    <dc:type rdf:resource="http://purl.org/dc/dcmitype/StillImage"/>
    <dc:date>2025-04-17T16:02:43.070410</dc:date>
    <dc:format>image/svg+xml</dc:format>
    <dc:creator>
     <cc:Agent>
      <dc:title>Matplotlib v3.10.1, https://matplotlib.org/</dc:title>
     </cc:Agent>
    </dc:creator>
   </cc:Work>
  </rdf:RDF>
 </metadata>
 <defs>
  <style type="text/css">*{stroke-linejoin: round; stroke-linecap: butt}</style>
 </defs>
 <g id="figure_1">
  <g id="patch_1">
   <path d="M 0 593.3925 
L 1144.65375 593.3925 
L 1144.65375 0 
L 0 0 
z
" style="fill: #ffffff"/>
  </g>
  <g id="axes_1">
   <g id="patch_2">
    <path d="M 82.81375 469.04 
L 865.69375 469.04 
L 865.69375 31.8 
L 82.81375 31.8 
z
" style="fill: #ffffff"/>
   </g>
   <g id="FillBetweenPolyCollection_1">
    <path d="M 115.43375 398.600848 
L 115.43375 469.04 
L 117.833884 469.04 
L 120.234018 469.04 
L 122.634151 469.04 
L 125.034285 469.04 
L 127.434419 469.04 
L 129.834553 469.04 
L 132.234686 469.04 
L 134.63482 469.04 
L 137.034954 469.04 
L 139.435088 469.04 
L 141.835222 469.04 
L 144.235355 469.04 
L 146.635489 469.04 
L 149.035623 469.04 
L 151.435757 469.04 
L 153.83589 469.04 
L 156.236024 469.04 
L 158.636158 469.04 
L 161.036292 469.04 
L 163.436426 469.04 
L 165.836559 469.04 
L 168.236693 469.04 
L 170.636827 469.04 
L 173.036961 469.04 
L 175.437094 469.04 
L 177.837228 469.04 
L 180.237362 469.04 
L 182.637496 469.04 
L 185.03763 469.04 
L 187.437763 469.04 
L 189.837897 469.04 
L 192.238031 469.04 
L 194.638165 469.04 
L 197.038298 469.04 
L 199.438432 469.04 
L 201.838566 469.04 
L 204.2387 469.04 
L 206.638834 469.04 
L 209.038967 469.04 
L 211.439101 469.04 
L 213.839235 469.04 
L 216.239369 469.04 
L 218.639503 469.04 
L 221.039636 469.04 
L 223.43977 469.04 
L 225.839904 469.04 
L 228.240038 469.04 
L 230.640171 469.04 
L 233.040305 469.04 
L 235.440439 469.04 
L 237.840573 469.04 
L 240.240707 469.04 
L 242.64084 469.04 
L 245.040974 469.04 
L 247.441108 469.04 
L 249.841242 469.04 
L 252.241375 469.04 
L 254.641509 469.04 
L 257.041643 469.04 
L 259.441777 469.04 
L 261.841911 469.04 
L 264.242044 469.04 
L 266.642178 469.04 
L 269.042312 469.04 
L 271.442446 469.04 
L 273.842579 469.04 
L 276.242713 469.04 
L 278.642847 469.04 
L 281.042981 469.04 
L 283.443115 469.04 
L 285.843248 469.04 
L 288.243382 469.04 
L 290.643516 469.04 
L 293.04365 469.04 
L 295.443783 469.04 
L 297.843917 469.04 
L 300.244051 469.04 
L 302.644185 469.04 
L 305.044319 469.04 
L 307.444452 469.04 
L 309.844586 469.04 
L 312.24472 469.04 
L 314.644854 469.04 
L 317.044987 469.04 
L 319.445121 469.04 
L 321.845255 469.04 
L 324.245389 469.04 
L 326.645523 469.04 
L 329.045656 469.04 
L 331.44579 469.04 
L 333.845924 469.04 
L 336.246058 469.04 
L 338.646191 469.04 
L 341.046325 469.04 
L 343.446459 469.04 
L 345.846593 469.04 
L 348.246727 469.04 
L 350.64686 469.04 
L 353.046994 469.04 
L 355.447128 469.04 
L 357.847262 469.04 
L 360.247395 469.04 
L 362.647529 469.04 
L 365.047663 469.04 
L 367.447797 469.04 
L 369.847931 469.04 
L 372.248064 469.04 
L 374.648198 469.04 
L 377.048332 469.04 
L 379.448466 469.04 
L 381.848599 469.04 
L 384.248733 469.04 
L 386.648867 469.04 
L 389.049001 469.04 
L 391.449135 469.04 
L 393.849268 469.04 
L 396.249402 469.04 
L 398.649536 469.04 
L 401.04967 469.04 
L 403.449804 469.04 
L 405.849937 469.04 
L 408.250071 469.04 
L 410.650205 469.04 
L 413.050339 469.04 
L 415.450472 469.04 
L 417.850606 469.04 
L 420.25074 469.04 
L 422.650874 469.04 
L 425.051008 469.04 
L 427.451141 469.04 
L 429.851275 469.04 
L 432.251409 469.04 
L 434.651543 469.04 
L 437.051676 469.04 
L 439.45181 469.04 
L 441.851944 469.04 
L 444.252078 469.04 
L 446.652212 469.04 
L 449.052345 469.04 
L 451.452479 469.04 
L 453.852613 469.04 
L 456.252747 469.04 
L 458.65288 469.04 
L 461.053014 469.04 
L 463.453148 469.04 
L 465.853282 469.04 
L 468.253416 469.04 
L 470.653549 469.04 
L 473.053683 469.04 
L 475.453817 469.04 
L 477.853951 469.04 
L 480.254084 469.04 
L 482.654218 469.04 
L 485.054352 469.04 
L 487.454486 469.04 
L 489.85462 469.04 
L 492.254753 469.04 
L 494.654887 469.04 
L 497.055021 469.04 
L 499.455155 469.04 
L 501.855288 469.04 
L 504.255422 469.04 
L 506.655556 469.04 
L 509.05569 469.04 
L 511.455824 469.04 
L 513.855957 469.04 
L 516.256091 469.04 
L 518.656225 469.04 
L 521.056359 469.04 
L 523.456492 469.04 
L 525.856626 469.04 
L 528.25676 469.04 
L 530.656894 469.04 
L 533.057028 469.04 
L 535.457161 469.04 
L 537.857295 469.04 
L 540.257429 469.04 
L 542.657563 469.04 
L 545.057696 469.04 
L 547.45783 469.04 
L 549.857964 469.04 
L 552.258098 469.04 
L 554.658232 469.04 
L 557.058365 469.04 
L 559.458499 469.04 
L 561.858633 469.04 
L 564.258767 469.04 
L 566.658901 469.04 
L 569.059034 469.04 
L 571.459168 469.04 
L 573.859302 469.04 
L 576.259436 469.04 
L 578.659569 469.04 
L 581.059703 469.04 
L 583.459837 469.04 
L 585.859971 469.04 
L 588.260105 469.04 
L 590.660238 469.04 
L 593.060372 469.04 
L 595.460506 469.04 
L 597.86064 469.04 
L 600.260773 469.04 
L 602.660907 469.04 
L 605.061041 469.04 
L 607.461175 469.04 
L 609.861309 469.04 
L 612.261442 469.04 
L 614.661576 469.04 
L 617.06171 469.04 
L 619.461844 469.04 
L 621.861977 469.04 
L 624.262111 469.04 
L 626.662245 469.04 
L 629.062379 469.04 
L 631.462513 469.04 
L 633.862646 469.04 
L 636.26278 469.04 
L 638.662914 469.04 
L 641.063048 469.04 
L 643.463181 469.04 
L 645.863315 469.04 
L 648.263449 469.04 
L 650.663583 469.04 
L 653.063717 469.04 
L 655.46385 469.04 
L 657.863984 469.04 
L 660.264118 469.04 
L 662.664252 469.04 
L 665.064385 469.04 
L 667.464519 469.04 
L 669.864653 469.04 
L 672.264787 469.04 
L 674.664921 469.04 
L 677.065054 469.04 
L 679.465188 469.04 
L 681.865322 469.04 
L 684.265456 469.04 
L 686.665589 469.04 
L 689.065723 469.04 
L 691.465857 469.04 
L 693.865991 469.04 
L 696.266125 469.04 
L 698.666258 469.04 
L 701.066392 469.04 
L 703.466526 469.04 
L 705.86666 469.04 
L 708.266793 469.04 
L 710.666927 469.04 
L 713.067061 469.04 
L 715.467195 469.04 
L 717.867329 469.04 
L 720.267462 469.04 
L 722.667596 469.04 
L 725.06773 469.04 
L 727.467864 469.04 
L 729.867997 469.04 
L 732.268131 469.04 
L 734.668265 469.04 
L 737.068399 469.04 
L 739.468533 469.04 
L 741.868666 469.04 
L 744.2688 469.04 
L 746.668934 469.04 
L 749.069068 469.04 
L 751.469202 469.04 
L 753.869335 469.04 
L 756.269469 469.04 
L 758.669603 469.04 
L 761.069737 469.04 
L 763.46987 469.04 
L 765.870004 469.04 
L 768.270138 469.04 
L 770.670272 469.04 
L 773.070406 469.04 
L 775.470539 469.04 
L 777.870673 469.04 
L 780.270807 469.04 
L 782.670941 469.04 
L 785.071074 469.04 
L 787.471208 469.04 
L 789.871342 469.04 
L 792.271476 469.04 
L 794.67161 469.04 
L 797.071743 469.04 
L 799.471877 469.04 
L 801.872011 469.04 
L 804.272145 469.04 
L 806.672278 469.04 
L 809.072412 469.04 
L 811.472546 469.04 
L 813.87268 469.04 
L 816.272814 469.04 
L 818.672947 469.04 
L 821.073081 469.04 
L 823.473215 469.04 
L 825.873349 469.04 
L 828.273482 469.04 
L 830.673616 469.04 
L 833.07375 469.04 
L 833.07375 319.99518 
L 833.07375 319.99518 
L 830.673616 330.59191 
L 828.273482 340.177404 
L 825.873349 348.784427 
L 823.473215 356.44574 
L 821.073081 363.194109 
L 818.672947 369.062295 
L 816.272814 374.083064 
L 813.87268 378.289179 
L 811.472546 381.713403 
L 809.072412 384.388499 
L 806.672278 386.347231 
L 804.272145 387.622363 
L 801.872011 388.246658 
L 799.471877 388.25288 
L 797.071743 387.673792 
L 794.67161 386.542158 
L 792.271476 384.890742 
L 789.871342 382.752306 
L 787.471208 380.159614 
L 785.071074 377.14543 
L 782.670941 373.742518 
L 780.270807 369.983641 
L 777.870673 365.901562 
L 775.470539 361.529045 
L 773.070406 356.898854 
L 770.670272 352.043752 
L 768.270138 346.996502 
L 765.870004 341.789869 
L 763.46987 336.456615 
L 761.069737 331.029504 
L 758.669603 325.5413 
L 756.269469 320.024767 
L 753.869335 314.512667 
L 751.469202 309.037764 
L 749.069068 303.632823 
L 746.668934 298.330605 
L 744.2688 293.163876 
L 741.868666 288.165398 
L 739.468533 283.367934 
L 737.068399 278.80425 
L 734.668265 274.507107 
L 732.268131 270.50927 
L 729.867997 266.843502 
L 727.467864 263.542566 
L 725.06773 260.639227 
L 722.667596 258.166247 
L 720.267462 256.156391 
L 717.867329 254.642421 
L 715.467195 253.657102 
L 713.067061 253.233196 
L 710.666927 253.403467 
L 708.266793 254.20068 
L 705.86666 255.657596 
L 703.466526 257.806981 
L 701.066392 260.677943 
L 698.666258 264.252089 
L 696.266125 268.477799 
L 693.865991 273.302777 
L 691.465857 278.674722 
L 689.065723 284.541336 
L 686.665589 290.85032 
L 684.265456 297.549375 
L 681.865322 304.586203 
L 679.465188 311.908504 
L 677.065054 319.46398 
L 674.664921 327.200332 
L 672.264787 335.06526 
L 669.864653 343.006467 
L 667.464519 350.971653 
L 665.064385 358.90852 
L 662.664252 366.764768 
L 660.264118 374.488099 
L 657.863984 382.026214 
L 655.46385 389.326813 
L 653.063717 396.337599 
L 650.663583 403.006273 
L 648.263449 409.280534 
L 645.863315 415.108086 
L 643.463181 420.436628 
L 641.063048 425.213862 
L 638.662914 429.387489 
L 636.26278 432.906542 
L 633.862646 435.758371 
L 631.462513 437.97347 
L 629.062379 439.584635 
L 626.662245 440.62466 
L 624.262111 441.126341 
L 621.861977 441.122473 
L 619.461844 440.645851 
L 617.06171 439.729272 
L 614.661576 438.40553 
L 612.261442 436.70742 
L 609.861309 434.667739 
L 607.461175 432.319281 
L 605.061041 429.694841 
L 602.660907 426.827215 
L 600.260773 423.749199 
L 597.86064 420.493587 
L 595.460506 417.093176 
L 593.060372 413.580759 
L 590.660238 409.989134 
L 588.260105 406.351094 
L 585.859971 402.699436 
L 583.459837 399.066954 
L 581.059703 395.486445 
L 578.659569 391.990702 
L 576.259436 388.612523 
L 573.859302 385.384701 
L 571.459168 382.339875 
L 569.059034 379.495192 
L 566.658901 376.839536 
L 564.258767 374.358782 
L 561.858633 372.038803 
L 559.458499 369.865474 
L 557.058365 367.824671 
L 554.658232 365.902267 
L 552.258098 364.084137 
L 549.857964 362.356155 
L 547.45783 360.704197 
L 545.057696 359.114136 
L 542.657563 357.571848 
L 540.257429 356.063206 
L 537.857295 354.574086 
L 535.457161 353.090362 
L 533.057028 351.597908 
L 530.656894 350.082599 
L 528.25676 348.530309 
L 525.856626 346.926914 
L 523.456492 345.258287 
L 521.056359 343.510304 
L 518.656225 341.668838 
L 516.256091 339.719765 
L 513.855957 337.648958 
L 511.455824 335.442293 
L 509.05569 333.085644 
L 506.655556 330.564891 
L 504.255422 327.875626 
L 501.855288 325.043074 
L 499.455155 322.098095 
L 497.055021 319.071547 
L 494.654887 315.994291 
L 492.254753 312.897184 
L 489.85462 309.811087 
L 487.454486 306.766857 
L 485.054352 303.795355 
L 482.654218 300.927439 
L 480.254084 298.193969 
L 477.853951 295.625803 
L 475.453817 293.2538 
L 473.053683 291.10882 
L 470.653549 289.221722 
L 468.253416 287.623364 
L 465.853282 286.344606 
L 463.453148 285.416307 
L 461.053014 284.869327 
L 458.65288 284.734523 
L 456.252747 285.042755 
L 453.852613 285.824882 
L 451.452479 287.111764 
L 449.052345 288.934259 
L 446.652212 291.323227 
L 444.252078 294.309526 
L 441.851944 297.924016 
L 439.45181 302.185455 
L 437.051676 307.048946 
L 434.651543 312.448728 
L 432.251409 318.319032 
L 429.851275 324.594086 
L 427.451141 331.20812 
L 425.051008 338.095361 
L 422.650874 345.190039 
L 420.25074 352.426384 
L 417.850606 359.738623 
L 415.450472 367.060986 
L 413.050339 374.327703 
L 410.650205 381.473001 
L 408.250071 388.431111 
L 405.849937 395.13626 
L 403.449804 401.522678 
L 401.04967 407.524594 
L 398.649536 413.076237 
L 396.249402 418.111835 
L 393.849268 422.565619 
L 391.449135 426.371816 
L 389.049001 429.464656 
L 386.648867 431.778368 
L 384.248733 433.24718 
L 381.848599 433.805322 
L 379.448466 433.387023 
L 377.048332 431.926512 
L 374.648198 429.36762 
L 372.248064 425.744418 
L 369.847931 421.140416 
L 367.447797 415.639632 
L 365.047663 409.326084 
L 362.647529 402.283789 
L 360.247395 394.596766 
L 357.847262 386.349031 
L 355.447128 377.624603 
L 353.046994 368.507498 
L 350.64686 359.081736 
L 348.246727 349.431332 
L 345.846593 339.640306 
L 343.446459 329.792675 
L 341.046325 319.972456 
L 338.646191 310.263666 
L 336.246058 300.750325 
L 333.845924 291.516449 
L 331.44579 282.646055 
L 329.045656 274.223163 
L 326.645523 266.331788 
L 324.245389 259.05595 
L 321.845255 252.479665 
L 319.445121 246.686951 
L 317.044987 241.761826 
L 314.644854 237.788308 
L 312.24472 234.850414 
L 309.844586 233.02794 
L 307.444452 232.321535 
L 305.044319 232.66156 
L 302.644185 233.975931 
L 300.244051 236.192563 
L 297.843917 239.239373 
L 295.443783 243.044276 
L 293.04365 247.53519 
L 290.643516 252.640031 
L 288.243382 258.286713 
L 285.843248 264.403154 
L 283.443115 270.91727 
L 281.042981 277.756977 
L 278.642847 284.85019 
L 276.242713 292.124827 
L 273.842579 299.508803 
L 271.442446 306.930034 
L 269.042312 314.316437 
L 266.642178 321.595928 
L 264.242044 328.696422 
L 261.841911 335.545837 
L 259.441777 342.072087 
L 257.041643 348.20309 
L 254.641509 353.866761 
L 252.241375 358.991017 
L 249.841242 363.503773 
L 247.441108 367.332947 
L 245.040974 370.407346 
L 242.64084 372.69928 
L 240.240707 374.243264 
L 237.840573 375.078596 
L 235.440439 375.244573 
L 233.040305 374.780493 
L 230.640171 373.725655 
L 228.240038 372.119355 
L 225.839904 370.000893 
L 223.43977 367.409567 
L 221.039636 364.384673 
L 218.639503 360.96551 
L 216.239369 357.191377 
L 213.839235 353.10157 
L 211.439101 348.735388 
L 209.038967 344.132129 
L 206.638834 339.33109 
L 204.2387 334.37157 
L 201.838566 329.292867 
L 199.438432 324.134279 
L 197.038298 318.935103 
L 194.638165 313.734637 
L 192.238031 308.57218 
L 189.837897 303.487029 
L 187.437763 298.518482 
L 185.03763 293.705837 
L 182.637496 289.088393 
L 180.237362 284.705447 
L 177.837228 280.596296 
L 175.437094 276.80024 
L 173.036961 273.356576 
L 170.636827 270.304601 
L 168.236693 267.683614 
L 165.836559 265.532913 
L 163.436426 263.891796 
L 161.036292 262.79956 
L 158.636158 262.295504 
L 156.236024 262.418925 
L 153.83589 263.209122 
L 151.435757 264.705392 
L 149.035623 266.947033 
L 146.635489 269.973344 
L 144.235355 273.823622 
L 141.835222 278.537165 
L 139.435088 284.153271 
L 137.034954 290.711238 
L 134.63482 298.250364 
L 132.234686 306.809947 
L 129.834553 316.429285 
L 127.434419 327.147675 
L 125.034285 339.004416 
L 122.634151 352.038806 
L 120.234018 366.290143 
L 117.833884 381.797724 
L 115.43375 398.600848 
z
" clip-path="url(#p1ec262ca45)" style="fill: #215f53"/>
   </g>
   <g id="FillBetweenPolyCollection_2">
    <path d="M 115.43375 82.122257 
L 115.43375 398.600848 
L 117.833884 381.797724 
L 120.234018 366.290143 
L 122.634151 352.038806 
L 125.034285 339.004416 
L 127.434419 327.147675 
L 129.834553 316.429285 
L 132.234686 306.809947 
L 134.63482 298.250364 
L 137.034954 290.711238 
L 139.435088 284.153271 
L 141.835222 278.537165 
L 144.235355 273.823622 
L 146.635489 269.973344 
L 149.035623 266.947033 
L 151.435757 264.705392 
L 153.83589 263.209122 
L 156.236024 262.418925 
L 158.636158 262.295504 
L 161.036292 262.79956 
L 163.436426 263.891796 
L 165.836559 265.532913 
L 168.236693 267.683614 
L 170.636827 270.304601 
L 173.036961 273.356576 
L 175.437094 276.80024 
L 177.837228 280.596296 
L 180.237362 284.705447 
L 182.637496 289.088393 
L 185.03763 293.705837 
L 187.437763 298.518482 
L 189.837897 303.487029 
L 192.238031 308.57218 
L 194.638165 313.734637 
L 197.038298 318.935103 
L 199.438432 324.134279 
L 201.838566 329.292867 
L 204.2387 334.37157 
L 206.638834 339.33109 
L 209.038967 344.132129 
L 211.439101 348.735388 
L 213.839235 353.10157 
L 216.239369 357.191377 
L 218.639503 360.96551 
L 221.039636 364.384673 
L 223.43977 367.409567 
L 225.839904 370.000893 
L 228.240038 372.119355 
L 230.640171 373.725655 
L 233.040305 374.780493 
L 235.440439 375.244573 
L 237.840573 375.078596 
L 240.240707 374.243264 
L 242.64084 372.69928 
L 245.040974 370.407346 
L 247.441108 367.332947 
L 249.841242 363.503773 
L 252.241375 358.991017 
L 254.641509 353.866761 
L 257.041643 348.20309 
L 259.441777 342.072087 
L 261.841911 335.545837 
L 264.242044 328.696422 
L 266.642178 321.595928 
L 269.042312 314.316437 
L 271.442446 306.930034 
L 273.842579 299.508803 
L 276.242713 292.124827 
L 278.642847 284.85019 
L 281.042981 277.756977 
L 283.443115 270.91727 
L 285.843248 264.403154 
L 288.243382 258.286713 
L 290.643516 252.640031 
L 293.04365 247.53519 
L 295.443783 243.044276 
L 297.843917 239.239373 
L 300.244051 236.192563 
L 302.644185 233.975931 
L 305.044319 232.66156 
L 307.444452 232.321535 
L 309.844586 233.02794 
L 312.24472 234.850414 
L 314.644854 237.788308 
L 317.044987 241.761826 
L 319.445121 246.686951 
L 321.845255 252.479665 
L 324.245389 259.05595 
L 326.645523 266.331788 
L 329.045656 274.223163 
L 331.44579 282.646055 
L 333.845924 291.516449 
L 336.246058 300.750325 
L 338.646191 310.263666 
L 341.046325 319.972456 
L 343.446459 329.792675 
L 345.846593 339.640306 
L 348.246727 349.431332 
L 350.64686 359.081736 
L 353.046994 368.507498 
L 355.447128 377.624603 
L 357.847262 386.349031 
L 360.247395 394.596766 
L 362.647529 402.283789 
L 365.047663 409.326084 
L 367.447797 415.639632 
L 369.847931 421.140416 
L 372.248064 425.744418 
L 374.648198 429.36762 
L 377.048332 431.926512 
L 379.448466 433.387023 
L 381.848599 433.805322 
L 384.248733 433.24718 
L 386.648867 431.778368 
L 389.049001 429.464656 
L 391.449135 426.371816 
L 393.849268 422.565619 
L 396.249402 418.111835 
L 398.649536 413.076237 
L 401.04967 407.524594 
L 403.449804 401.522678 
L 405.849937 395.13626 
L 408.250071 388.431111 
L 410.650205 381.473001 
L 413.050339 374.327703 
L 415.450472 367.060986 
L 417.850606 359.738623 
L 420.25074 352.426384 
L 422.650874 345.190039 
L 425.051008 338.095361 
L 427.451141 331.20812 
L 429.851275 324.594086 
L 432.251409 318.319032 
L 434.651543 312.448728 
L 437.051676 307.048946 
L 439.45181 302.185455 
L 441.851944 297.924016 
L 444.252078 294.309526 
L 446.652212 291.323227 
L 449.052345 288.934259 
L 451.452479 287.111764 
L 453.852613 285.824882 
L 456.252747 285.042755 
L 458.65288 284.734523 
L 461.053014 284.869327 
L 463.453148 285.416307 
L 465.853282 286.344606 
L 468.253416 287.623364 
L 470.653549 289.221722 
L 473.053683 291.10882 
L 475.453817 293.2538 
L 477.853951 295.625803 
L 480.254084 298.193969 
L 482.654218 300.927439 
L 485.054352 303.795355 
L 487.454486 306.766857 
L 489.85462 309.811087 
L 492.254753 312.897184 
L 494.654887 315.994291 
L 497.055021 319.071547 
L 499.455155 322.098095 
L 501.855288 325.043074 
L 504.255422 327.875626 
L 506.655556 330.564891 
L 509.05569 333.085644 
L 511.455824 335.442293 
L 513.855957 337.648958 
L 516.256091 339.719765 
L 518.656225 341.668838 
L 521.056359 343.510304 
L 523.456492 345.258287 
L 525.856626 346.926914 
L 528.25676 348.530309 
L 530.656894 350.082599 
L 533.057028 351.597908 
L 535.457161 353.090362 
L 537.857295 354.574086 
L 540.257429 356.063206 
L 542.657563 357.571848 
L 545.057696 359.114136 
L 547.45783 360.704197 
L 549.857964 362.356155 
L 552.258098 364.084137 
L 554.658232 365.902267 
L 557.058365 367.824671 
L 559.458499 369.865474 
L 561.858633 372.038803 
L 564.258767 374.358782 
L 566.658901 376.839536 
L 569.059034 379.495192 
L 571.459168 382.339875 
L 573.859302 385.384701 
L 576.259436 388.612523 
L 578.659569 391.990702 
L 581.059703 395.486445 
L 583.459837 399.066954 
L 585.859971 402.699436 
L 588.260105 406.351094 
L 590.660238 409.989134 
L 593.060372 413.580759 
L 595.460506 417.093176 
L 597.86064 420.493587 
L 600.260773 423.749199 
L 602.660907 426.827215 
L 605.061041 429.694841 
L 607.461175 432.319281 
L 609.861309 434.667739 
L 612.261442 436.70742 
L 614.661576 438.40553 
L 617.06171 439.729272 
L 619.461844 440.645851 
L 621.861977 441.122473 
L 624.262111 441.126341 
L 626.662245 440.62466 
L 629.062379 439.584635 
L 631.462513 437.97347 
L 633.862646 435.758371 
L 636.26278 432.906542 
L 638.662914 429.387489 
L 641.063048 425.213862 
L 643.463181 420.436628 
L 645.863315 415.108086 
L 648.263449 409.280534 
L 650.663583 403.006273 
L 653.063717 396.337599 
L 655.46385 389.326813 
L 657.863984 382.026214 
L 660.264118 374.488099 
L 662.664252 366.764768 
L 665.064385 358.90852 
L 667.464519 350.971653 
L 669.864653 343.006467 
L 672.264787 335.06526 
L 674.664921 327.200332 
L 677.065054 319.46398 
L 679.465188 311.908504 
L 681.865322 304.586203 
L 684.265456 297.549375 
L 686.665589 290.85032 
L 689.065723 284.541336 
L 691.465857 278.674722 
L 693.865991 273.302777 
L 696.266125 268.477799 
L 698.666258 264.252089 
L 701.066392 260.677943 
L 703.466526 257.806981 
L 705.86666 255.657596 
L 708.266793 254.20068 
L 710.666927 253.403467 
L 713.067061 253.233196 
L 715.467195 253.657102 
L 717.867329 254.642421 
L 720.267462 256.156391 
L 722.667596 258.166247 
L 725.06773 260.639227 
L 727.467864 263.542566 
L 729.867997 266.843502 
L 732.268131 270.50927 
L 734.668265 274.507107 
L 737.068399 278.80425 
L 739.468533 283.367934 
L 741.868666 288.165398 
L 744.2688 293.163876 
L 746.668934 298.330605 
L 749.069068 303.632823 
L 751.469202 309.037764 
L 753.869335 314.512667 
L 756.269469 320.024767 
L 758.669603 325.5413 
L 761.069737 331.029504 
L 763.46987 336.456615 
L 765.870004 341.789869 
L 768.270138 346.996502 
L 770.670272 352.043752 
L 773.070406 356.898854 
L 775.470539 361.529045 
L 777.870673 365.901562 
L 780.270807 369.983641 
L 782.670941 373.742518 
L 785.071074 377.14543 
L 787.471208 380.159614 
L 789.871342 382.752306 
L 792.271476 384.890742 
L 794.67161 386.542158 
L 797.071743 387.673792 
L 799.471877 388.25288 
L 801.872011 388.246658 
L 804.272145 387.622363 
L 806.672278 386.347231 
L 809.072412 384.388499 
L 811.472546 381.713403 
L 813.87268 378.289179 
L 816.272814 374.083064 
L 818.672947 369.062295 
L 821.073081 363.194109 
L 823.473215 356.44574 
L 825.873349 348.784427 
L 828.273482 340.177404 
L 830.673616 330.59191 
L 833.07375 319.99518 
L 833.07375 120.921242 
L 833.07375 120.921242 
L 830.673616 129.758319 
L 828.273482 137.941598 
L 825.873349 145.490036 
L 823.473215 152.422587 
L 821.073081 158.758208 
L 818.672947 164.515855 
L 816.272814 169.714483 
L 813.87268 174.373048 
L 811.472546 178.510506 
L 809.072412 182.145813 
L 806.672278 185.297925 
L 804.272145 187.985798 
L 801.872011 190.228387 
L 799.471877 192.044648 
L 797.071743 193.453537 
L 794.67161 194.47401 
L 792.271476 195.125023 
L 789.871342 195.425532 
L 787.471208 195.394492 
L 785.071074 195.050859 
L 782.670941 194.41359 
L 780.270807 193.501639 
L 777.870673 192.333963 
L 775.470539 190.929518 
L 773.070406 189.30726 
L 770.670272 187.486144 
L 768.270138 185.485126 
L 765.870004 183.323161 
L 763.46987 181.019207 
L 761.069737 178.592219 
L 758.669603 176.061152 
L 756.269469 173.444962 
L 753.869335 170.762606 
L 751.469202 168.033038 
L 749.069068 165.275216 
L 746.668934 162.508094 
L 744.2688 159.750629 
L 741.868666 157.021776 
L 739.468533 154.340491 
L 737.068399 151.725731 
L 734.668265 149.19645 
L 732.268131 146.771605 
L 729.867997 144.470152 
L 727.467864 142.311046 
L 725.06773 140.313244 
L 722.667596 138.4957 
L 720.267462 136.877372 
L 717.867329 135.477214 
L 715.467195 134.314183 
L 713.067061 133.407234 
L 710.666927 132.775324 
L 708.266793 132.437408 
L 705.86666 132.412442 
L 703.466526 132.719381 
L 701.066392 133.37528 
L 698.666258 134.372448 
L 696.266125 135.685894 
L 693.865991 137.290271 
L 691.465857 139.160232 
L 689.065723 141.270429 
L 686.665589 143.595517 
L 684.265456 146.110147 
L 681.865322 148.788973 
L 679.465188 151.606648 
L 677.065054 154.537826 
L 674.664921 157.557158 
L 672.264787 160.639298 
L 669.864653 163.758899 
L 667.464519 166.890614 
L 665.064385 170.009096 
L 662.664252 173.088998 
L 660.264118 176.104973 
L 657.863984 179.031674 
L 655.46385 181.843754 
L 653.063717 184.515866 
L 650.663583 187.022664 
L 648.263449 189.338799 
L 645.863315 191.438926 
L 643.463181 193.297697 
L 641.063048 194.889765 
L 638.662914 196.189783 
L 636.26278 197.173136 
L 633.862646 197.836259 
L 631.462513 198.199289 
L 629.062379 198.283627 
L 626.662245 198.110676 
L 624.262111 197.701837 
L 621.861977 197.078511 
L 619.461844 196.262099 
L 617.06171 195.274004 
L 614.661576 194.135627 
L 612.261442 192.86837 
L 609.861309 191.493633 
L 607.461175 190.032819 
L 605.061041 188.507329 
L 602.660907 186.938564 
L 600.260773 185.347927 
L 597.86064 183.756818 
L 595.460506 182.18664 
L 593.060372 180.658793 
L 590.660238 179.19468 
L 588.260105 177.815702 
L 585.859971 176.54326 
L 583.459837 175.398756 
L 581.059703 174.403591 
L 578.659569 173.579168 
L 576.259436 172.946887 
L 573.859302 172.52815 
L 571.459168 172.34421 
L 569.059034 172.401734 
L 566.658901 172.68077 
L 564.258767 173.158536 
L 561.858633 173.812247 
L 559.458499 174.619121 
L 557.058365 175.556372 
L 554.658232 176.601218 
L 552.258098 177.730875 
L 549.857964 178.922559 
L 547.45783 180.153486 
L 545.057696 181.400873 
L 542.657563 182.641935 
L 540.257429 183.85389 
L 537.857295 185.013954 
L 535.457161 186.099342 
L 533.057028 187.087272 
L 530.656894 187.954959 
L 528.25676 188.679619 
L 525.856626 189.23847 
L 523.456492 189.608727 
L 521.056359 189.767606 
L 518.656225 189.692325 
L 516.256091 189.360098 
L 513.855957 188.748144 
L 511.455824 187.833676 
L 509.05569 186.593913 
L 506.655556 185.006077 
L 504.255422 183.059017 
L 501.855288 180.777054 
L 499.455155 178.191256 
L 497.055021 175.332687 
L 494.654887 172.232416 
L 492.254753 168.921507 
L 489.85462 165.431026 
L 487.454486 161.792041 
L 485.054352 158.035616 
L 482.654218 154.192818 
L 480.254084 150.294713 
L 477.853951 146.372367 
L 475.453817 142.456846 
L 473.053683 138.579216 
L 470.653549 134.770544 
L 468.253416 131.061895 
L 465.853282 127.484336 
L 463.453148 124.068932 
L 461.053014 120.84675 
L 458.65288 117.848856 
L 456.252747 115.106315 
L 453.852613 112.650195 
L 451.452479 110.51156 
L 449.052345 108.721478 
L 446.652212 107.311014 
L 444.252078 106.311234 
L 441.851944 105.753204 
L 439.45181 105.660524 
L 437.051676 106.017502 
L 434.651543 106.795575 
L 432.251409 107.966171 
L 429.851275 109.500719 
L 427.451141 111.370647 
L 425.051008 113.547384 
L 422.650874 116.002357 
L 420.25074 118.706996 
L 417.850606 121.632728 
L 415.450472 124.750983 
L 413.050339 128.033188 
L 410.650205 131.450771 
L 408.250071 134.975162 
L 405.849937 138.577789 
L 403.449804 142.230079 
L 401.04967 145.903462 
L 398.649536 149.569366 
L 396.249402 153.199219 
L 393.849268 156.76445 
L 391.449135 160.236486 
L 389.049001 163.586758 
L 386.648867 166.786691 
L 384.248733 169.807717 
L 381.848599 172.621261 
L 379.448466 175.198754 
L 377.048332 177.511623 
L 374.648198 179.533878 
L 372.248064 181.263776 
L 369.847931 182.712862 
L 367.447797 183.892818 
L 365.047663 184.815323 
L 362.647529 185.492058 
L 360.247395 185.934705 
L 357.847262 186.154943 
L 355.447128 186.164453 
L 353.046994 185.974916 
L 350.64686 185.598013 
L 348.246727 185.045425 
L 345.846593 184.328831 
L 343.446459 183.459913 
L 341.046325 182.450352 
L 338.646191 181.311828 
L 336.246058 180.056021 
L 333.845924 178.694613 
L 331.44579 177.239284 
L 329.045656 175.701715 
L 326.645523 174.093587 
L 324.245389 172.426579 
L 321.845255 170.712374 
L 319.445121 168.962651 
L 317.044987 167.189091 
L 314.644854 165.403375 
L 312.24472 163.617184 
L 309.844586 161.841844 
L 307.444452 160.082047 
L 305.044319 158.33659 
L 302.644185 156.604069 
L 300.244051 154.883077 
L 297.843917 153.172206 
L 295.443783 151.470051 
L 293.04365 149.775206 
L 290.643516 148.086264 
L 288.243382 146.401818 
L 285.843248 144.720463 
L 283.443115 143.040792 
L 281.042981 141.361399 
L 278.642847 139.680877 
L 276.242713 137.99782 
L 273.842579 136.310822 
L 271.442446 134.618476 
L 269.042312 132.919376 
L 266.642178 131.212115 
L 264.242044 129.495288 
L 261.841911 127.767488 
L 259.441777 126.027308 
L 257.041643 124.273343 
L 254.641509 122.504185 
L 252.241375 120.718429 
L 249.841242 118.914668 
L 247.441108 117.091496 
L 245.040974 115.247547 
L 242.64084 113.383445 
L 240.240707 111.502655 
L 237.840573 109.608865 
L 235.440439 107.705758 
L 233.040305 105.797022 
L 230.640171 103.88634 
L 228.240038 101.977399 
L 225.839904 100.073884 
L 223.43977 98.179481 
L 221.039636 96.297875 
L 218.639503 94.432752 
L 216.239369 92.587797 
L 213.839235 90.766696 
L 211.439101 88.973133 
L 209.038967 87.210796 
L 206.638834 85.483368 
L 204.2387 83.794536 
L 201.838566 82.147986 
L 199.438432 80.547402 
L 197.038298 78.99647 
L 194.638165 77.498875 
L 192.238031 76.058304 
L 189.837897 74.678442 
L 187.437763 73.362973 
L 185.03763 72.115584 
L 182.637496 70.939961 
L 180.237362 69.839788 
L 177.837228 68.818751 
L 175.437094 67.880536 
L 173.036961 67.028827 
L 170.636827 66.267312 
L 168.236693 65.599674 
L 165.836559 65.0296 
L 163.436426 64.560776 
L 161.036292 64.196885 
L 158.636158 63.941615 
L 156.236024 63.798651 
L 153.83589 63.771677 
L 151.435757 63.864381 
L 149.035623 64.080446 
L 146.635489 64.423559 
L 144.235355 64.897405 
L 141.835222 65.505669 
L 139.435088 66.252038 
L 137.034954 67.140196 
L 134.63482 68.173829 
L 132.234686 69.356623 
L 129.834553 70.692263 
L 127.434419 72.184434 
L 125.034285 73.836822 
L 122.634151 75.653113 
L 120.234018 77.636992 
L 117.833884 79.792145 
L 115.43375 82.122257 
z
" clip-path="url(#p1ec262ca45)" style="fill: #7570b3"/>
   </g>
   <g id="FillBetweenPolyCollection_3">
    <path d="M 115.43375 52.620952 
L 115.43375 82.122257 
L 117.833884 79.792145 
L 120.234018 77.636992 
L 122.634151 75.653113 
L 125.034285 73.836822 
L 127.434419 72.184434 
L 129.834553 70.692263 
L 132.234686 69.356623 
L 134.63482 68.173829 
L 137.034954 67.140196 
L 139.435088 66.252038 
L 141.835222 65.505669 
L 144.235355 64.897405 
L 146.635489 64.423559 
L 149.035623 64.080446 
L 151.435757 63.864381 
L 153.83589 63.771677 
L 156.236024 63.798651 
L 158.636158 63.941615 
L 161.036292 64.196885 
L 163.436426 64.560776 
L 165.836559 65.0296 
L 168.236693 65.599674 
L 170.636827 66.267312 
L 173.036961 67.028827 
L 175.437094 67.880536 
L 177.837228 68.818751 
L 180.237362 69.839788 
L 182.637496 70.939961 
L 185.03763 72.115584 
L 187.437763 73.362973 
L 189.837897 74.678442 
L 192.238031 76.058304 
L 194.638165 77.498875 
L 197.038298 78.99647 
L 199.438432 80.547402 
L 201.838566 82.147986 
L 204.2387 83.794536 
L 206.638834 85.483368 
L 209.038967 87.210796 
L 211.439101 88.973133 
L 213.839235 90.766696 
L 216.239369 92.587797 
L 218.639503 94.432752 
L 221.039636 96.297875 
L 223.43977 98.179481 
L 225.839904 100.073884 
L 228.240038 101.977399 
L 230.640171 103.88634 
L 233.040305 105.797022 
L 235.440439 107.705758 
L 237.840573 109.608865 
L 240.240707 111.502655 
L 242.64084 113.383445 
L 245.040974 115.247547 
L 247.441108 117.091496 
L 249.841242 118.914668 
L 252.241375 120.718429 
L 254.641509 122.504185 
L 257.041643 124.273343 
L 259.441777 126.027308 
L 261.841911 127.767488 
L 264.242044 129.495288 
L 266.642178 131.212115 
L 269.042312 132.919376 
L 271.442446 134.618476 
L 273.842579 136.310822 
L 276.242713 137.99782 
L 278.642847 139.680877 
L 281.042981 141.361399 
L 283.443115 143.040792 
L 285.843248 144.720463 
L 288.243382 146.401818 
L 290.643516 148.086264 
L 293.04365 149.775206 
L 295.443783 151.470051 
L 297.843917 153.172206 
L 300.244051 154.883077 
L 302.644185 156.604069 
L 305.044319 158.33659 
L 307.444452 160.082047 
L 309.844586 161.841844 
L 312.24472 163.617184 
L 314.644854 165.403375 
L 317.044987 167.189091 
L 319.445121 168.962651 
L 321.845255 170.712374 
L 324.245389 172.426579 
L 326.645523 174.093587 
L 329.045656 175.701715 
L 331.44579 177.239284 
L 333.845924 178.694613 
L 336.246058 180.056021 
L 338.646191 181.311828 
L 341.046325 182.450352 
L 343.446459 183.459913 
L 345.846593 184.328831 
L 348.246727 185.045425 
L 350.64686 185.598013 
L 353.046994 185.974916 
L 355.447128 186.164453 
L 357.847262 186.154943 
L 360.247395 185.934705 
L 362.647529 185.492058 
L 365.047663 184.815323 
L 367.447797 183.892818 
L 369.847931 182.712862 
L 372.248064 181.263776 
L 374.648198 179.533878 
L 377.048332 177.511623 
L 379.448466 175.198754 
L 381.848599 172.621261 
L 384.248733 169.807717 
L 386.648867 166.786691 
L 389.049001 163.586758 
L 391.449135 160.236486 
L 393.849268 156.76445 
L 396.249402 153.199219 
L 398.649536 149.569366 
L 401.04967 145.903462 
L 403.449804 142.230079 
L 405.849937 138.577789 
L 408.250071 134.975162 
L 410.650205 131.450771 
L 413.050339 128.033188 
L 415.450472 124.750983 
L 417.850606 121.632728 
L 420.25074 118.706996 
L 422.650874 116.002357 
L 425.051008 113.547384 
L 427.451141 111.370647 
L 429.851275 109.500719 
L 432.251409 107.966171 
L 434.651543 106.795575 
L 437.051676 106.017502 
L 439.45181 105.660524 
L 441.851944 105.753204 
L 444.252078 106.311234 
L 446.652212 107.311014 
L 449.052345 108.721478 
L 451.452479 110.51156 
L 453.852613 112.650195 
L 456.252747 115.106315 
L 458.65288 117.848856 
L 461.053014 120.84675 
L 463.453148 124.068932 
L 465.853282 127.484336 
L 468.253416 131.061895 
L 470.653549 134.770544 
L 473.053683 138.579216 
L 475.453817 142.456846 
L 477.853951 146.372367 
L 480.254084 150.294713 
L 482.654218 154.192818 
L 485.054352 158.035616 
L 487.454486 161.792041 
L 489.85462 165.431026 
L 492.254753 168.921507 
L 494.654887 172.232416 
L 497.055021 175.332687 
L 499.455155 178.191256 
L 501.855288 180.777054 
L 504.255422 183.059017 
L 506.655556 185.006077 
L 509.05569 186.593913 
L 511.455824 187.833676 
L 513.855957 188.748144 
L 516.256091 189.360098 
L 518.656225 189.692325 
L 521.056359 189.767606 
L 523.456492 189.608727 
L 525.856626 189.23847 
L 528.25676 188.679619 
L 530.656894 187.954959 
L 533.057028 187.087272 
L 535.457161 186.099342 
L 537.857295 185.013954 
L 540.257429 183.85389 
L 542.657563 182.641935 
L 545.057696 181.400873 
L 547.45783 180.153486 
L 549.857964 178.922559 
L 552.258098 177.730875 
L 554.658232 176.601218 
L 557.058365 175.556372 
L 559.458499 174.619121 
L 561.858633 173.812247 
L 564.258767 173.158536 
L 566.658901 172.68077 
L 569.059034 172.401734 
L 571.459168 172.34421 
L 573.859302 172.52815 
L 576.259436 172.946887 
L 578.659569 173.579168 
L 581.059703 174.403591 
L 583.459837 175.398756 
L 585.859971 176.54326 
L 588.260105 177.815702 
L 590.660238 179.19468 
L 593.060372 180.658793 
L 595.460506 182.18664 
L 597.86064 183.756818 
L 600.260773 185.347927 
L 602.660907 186.938564 
L 605.061041 188.507329 
L 607.461175 190.032819 
L 609.861309 191.493633 
L 612.261442 192.86837 
L 614.661576 194.135627 
L 617.06171 195.274004 
L 619.461844 196.262099 
L 621.861977 197.078511 
L 624.262111 197.701837 
L 626.662245 198.110676 
L 629.062379 198.283627 
L 631.462513 198.199289 
L 633.862646 197.836259 
L 636.26278 197.173136 
L 638.662914 196.189783 
L 641.063048 194.889765 
L 643.463181 193.297697 
L 645.863315 191.438926 
L 648.263449 189.338799 
L 650.663583 187.022664 
L 653.063717 184.515866 
L 655.46385 181.843754 
L 657.863984 179.031674 
L 660.264118 176.104973 
L 662.664252 173.088998 
L 665.064385 170.009096 
L 667.464519 166.890614 
L 669.864653 163.758899 
L 672.264787 160.639298 
L 674.664921 157.557158 
L 677.065054 154.537826 
L 679.465188 151.606648 
L 681.865322 148.788973 
L 684.265456 146.110147 
L 686.665589 143.595517 
L 689.065723 141.270429 
L 691.465857 139.160232 
L 693.865991 137.290271 
L 696.266125 135.685894 
L 698.666258 134.372448 
L 701.066392 133.37528 
L 703.466526 132.719381 
L 705.86666 132.412442 
L 708.266793 132.437408 
L 710.666927 132.775324 
L 713.067061 133.407234 
L 715.467195 134.314183 
L 717.867329 135.477214 
L 720.267462 136.877372 
L 722.667596 138.4957 
L 725.06773 140.313244 
L 727.467864 142.311046 
L 729.867997 144.470152 
L 732.268131 146.771605 
L 734.668265 149.19645 
L 737.068399 151.725731 
L 739.468533 154.340491 
L 741.868666 157.021776 
L 744.2688 159.750629 
L 746.668934 162.508094 
L 749.069068 165.275216 
L 751.469202 168.033038 
L 753.869335 170.762606 
L 756.269469 173.444962 
L 758.669603 176.061152 
L 761.069737 178.592219 
L 763.46987 181.019207 
L 765.870004 183.323161 
L 768.270138 185.485126 
L 770.670272 187.486144 
L 773.070406 189.30726 
L 775.470539 190.929518 
L 777.870673 192.333963 
L 780.270807 193.501639 
L 782.670941 194.41359 
L 785.071074 195.050859 
L 787.471208 195.394492 
L 789.871342 195.425532 
L 792.271476 195.125023 
L 794.67161 194.47401 
L 797.071743 193.453537 
L 799.471877 192.044648 
L 801.872011 190.228387 
L 804.272145 187.985798 
L 806.672278 185.297925 
L 809.072412 182.145813 
L 811.472546 178.510506 
L 813.87268 174.373048 
L 816.272814 169.714483 
L 818.672947 164.515855 
L 821.073081 158.758208 
L 823.473215 152.422587 
L 825.873349 145.490036 
L 828.273482 137.941598 
L 830.673616 129.758319 
L 833.07375 120.921242 
L 833.07375 52.620952 
L 833.07375 52.620952 
L 830.673616 52.620952 
L 828.273482 52.620952 
L 825.873349 52.620952 
L 823.473215 52.620952 
L 821.073081 52.620952 
L 818.672947 52.620952 
L 816.272814 52.620952 
L 813.87268 52.620952 
L 811.472546 52.620952 
L 809.072412 52.620952 
L 806.672278 52.620952 
L 804.272145 52.620952 
L 801.872011 52.620952 
L 799.471877 52.620952 
L 797.071743 52.620952 
L 794.67161 52.620952 
L 792.271476 52.620952 
L 789.871342 52.620952 
L 787.471208 52.620952 
L 785.071074 52.620952 
L 782.670941 52.620952 
L 780.270807 52.620952 
L 777.870673 52.620952 
L 775.470539 52.620952 
L 773.070406 52.620952 
L 770.670272 52.620952 
L 768.270138 52.620952 
L 765.870004 52.620952 
L 763.46987 52.620952 
L 761.069737 52.620952 
L 758.669603 52.620952 
L 756.269469 52.620952 
L 753.869335 52.620952 
L 751.469202 52.620952 
L 749.069068 52.620952 
L 746.668934 52.620952 
L 744.2688 52.620952 
L 741.868666 52.620952 
L 739.468533 52.620952 
L 737.068399 52.620952 
L 734.668265 52.620952 
L 732.268131 52.620952 
L 729.867997 52.620952 
L 727.467864 52.620952 
L 725.06773 52.620952 
L 722.667596 52.620952 
L 720.267462 52.620952 
L 717.867329 52.620952 
L 715.467195 52.620952 
L 713.067061 52.620952 
L 710.666927 52.620952 
L 708.266793 52.620952 
L 705.86666 52.620952 
L 703.466526 52.620952 
L 701.066392 52.620952 
L 698.666258 52.620952 
L 696.266125 52.620952 
L 693.865991 52.620952 
L 691.465857 52.620952 
L 689.065723 52.620952 
L 686.665589 52.620952 
L 684.265456 52.620952 
L 681.865322 52.620952 
L 679.465188 52.620952 
L 677.065054 52.620952 
L 674.664921 52.620952 
L 672.264787 52.620952 
L 669.864653 52.620952 
L 667.464519 52.620952 
L 665.064385 52.620952 
L 662.664252 52.620952 
L 660.264118 52.620952 
L 657.863984 52.620952 
L 655.46385 52.620952 
L 653.063717 52.620952 
L 650.663583 52.620952 
L 648.263449 52.620952 
L 645.863315 52.620952 
L 643.463181 52.620952 
L 641.063048 52.620952 
L 638.662914 52.620952 
L 636.26278 52.620952 
L 633.862646 52.620952 
L 631.462513 52.620952 
L 629.062379 52.620952 
L 626.662245 52.620952 
L 624.262111 52.620952 
L 621.861977 52.620952 
L 619.461844 52.620952 
L 617.06171 52.620952 
L 614.661576 52.620952 
L 612.261442 52.620952 
L 609.861309 52.620952 
L 607.461175 52.620952 
L 605.061041 52.620952 
L 602.660907 52.620952 
L 600.260773 52.620952 
L 597.86064 52.620952 
L 595.460506 52.620952 
L 593.060372 52.620952 
L 590.660238 52.620952 
L 588.260105 52.620952 
L 585.859971 52.620952 
L 583.459837 52.620952 
L 581.059703 52.620952 
L 578.659569 52.620952 
L 576.259436 52.620952 
L 573.859302 52.620952 
L 571.459168 52.620952 
L 569.059034 52.620952 
L 566.658901 52.620952 
L 564.258767 52.620952 
L 561.858633 52.620952 
L 559.458499 52.620952 
L 557.058365 52.620952 
L 554.658232 52.620952 
L 552.258098 52.620952 
L 549.857964 52.620952 
L 547.45783 52.620952 
L 545.057696 52.620952 
L 542.657563 52.620952 
L 540.257429 52.620952 
L 537.857295 52.620952 
L 535.457161 52.620952 
L 533.057028 52.620952 
L 530.656894 52.620952 
L 528.25676 52.620952 
L 525.856626 52.620952 
L 523.456492 52.620952 
L 521.056359 52.620952 
L 518.656225 52.620952 
L 516.256091 52.620952 
L 513.855957 52.620952 
L 511.455824 52.620952 
L 509.05569 52.620952 
L 506.655556 52.620952 
L 504.255422 52.620952 
L 501.855288 52.620952 
L 499.455155 52.620952 
L 497.055021 52.620952 
L 494.654887 52.620952 
L 492.254753 52.620952 
L 489.85462 52.620952 
L 487.454486 52.620952 
L 485.054352 52.620952 
L 482.654218 52.620952 
L 480.254084 52.620952 
L 477.853951 52.620952 
L 475.453817 52.620952 
L 473.053683 52.620952 
L 470.653549 52.620952 
L 468.253416 52.620952 
L 465.853282 52.620952 
L 463.453148 52.620952 
L 461.053014 52.620952 
L 458.65288 52.620952 
L 456.252747 52.620952 
L 453.852613 52.620952 
L 451.452479 52.620952 
L 449.052345 52.620952 
L 446.652212 52.620952 
L 444.252078 52.620952 
L 441.851944 52.620952 
L 439.45181 52.620952 
L 437.051676 52.620952 
L 434.651543 52.620952 
L 432.251409 52.620952 
L 429.851275 52.620952 
L 427.451141 52.620952 
L 425.051008 52.620952 
L 422.650874 52.620952 
L 420.25074 52.620952 
L 417.850606 52.620952 
L 415.450472 52.620952 
L 413.050339 52.620952 
L 410.650205 52.620952 
L 408.250071 52.620952 
L 405.849937 52.620952 
L 403.449804 52.620952 
L 401.04967 52.620952 
L 398.649536 52.620952 
L 396.249402 52.620952 
L 393.849268 52.620952 
L 391.449135 52.620952 
L 389.049001 52.620952 
L 386.648867 52.620952 
L 384.248733 52.620952 
L 381.848599 52.620952 
L 379.448466 52.620952 
L 377.048332 52.620952 
L 374.648198 52.620952 
L 372.248064 52.620952 
L 369.847931 52.620952 
L 367.447797 52.620952 
L 365.047663 52.620952 
L 362.647529 52.620952 
L 360.247395 52.620952 
L 357.847262 52.620952 
L 355.447128 52.620952 
L 353.046994 52.620952 
L 350.64686 52.620952 
L 348.246727 52.620952 
L 345.846593 52.620952 
L 343.446459 52.620952 
L 341.046325 52.620952 
L 338.646191 52.620952 
L 336.246058 52.620952 
L 333.845924 52.620952 
L 331.44579 52.620952 
L 329.045656 52.620952 
L 326.645523 52.620952 
L 324.245389 52.620952 
L 321.845255 52.620952 
L 319.445121 52.620952 
L 317.044987 52.620952 
L 314.644854 52.620952 
L 312.24472 52.620952 
L 309.844586 52.620952 
L 307.444452 52.620952 
L 305.044319 52.620952 
L 302.644185 52.620952 
L 300.244051 52.620952 
L 297.843917 52.620952 
L 295.443783 52.620952 
L 293.04365 52.620952 
L 290.643516 52.620952 
L 288.243382 52.620952 
L 285.843248 52.620952 
L 283.443115 52.620952 
L 281.042981 52.620952 
L 278.642847 52.620952 
L 276.242713 52.620952 
L 273.842579 52.620952 
L 271.442446 52.620952 
L 269.042312 52.620952 
L 266.642178 52.620952 
L 264.242044 52.620952 
L 261.841911 52.620952 
L 259.441777 52.620952 
L 257.041643 52.620952 
L 254.641509 52.620952 
L 252.241375 52.620952 
L 249.841242 52.620952 
L 247.441108 52.620952 
L 245.040974 52.620952 
L 242.64084 52.620952 
L 240.240707 52.620952 
L 237.840573 52.620952 
L 235.440439 52.620952 
L 233.040305 52.620952 
L 230.640171 52.620952 
L 228.240038 52.620952 
L 225.839904 52.620952 
L 223.43977 52.620952 
L 221.039636 52.620952 
L 218.639503 52.620952 
L 216.239369 52.620952 
L 213.839235 52.620952 
L 211.439101 52.620952 
L 209.038967 52.620952 
L 206.638834 52.620952 
L 204.2387 52.620952 
L 201.838566 52.620952 
L 199.438432 52.620952 
L 197.038298 52.620952 
L 194.638165 52.620952 
L 192.238031 52.620952 
L 189.837897 52.620952 
L 187.437763 52.620952 
L 185.03763 52.620952 
L 182.637496 52.620952 
L 180.237362 52.620952 
L 177.837228 52.620952 
L 175.437094 52.620952 
L 173.036961 52.620952 
L 170.636827 52.620952 
L 168.236693 52.620952 
L 165.836559 52.620952 
L 163.436426 52.620952 
L 161.036292 52.620952 
L 158.636158 52.620952 
L 156.236024 52.620952 
L 153.83589 52.620952 
L 151.435757 52.620952 
L 149.035623 52.620952 
L 146.635489 52.620952 
L 144.235355 52.620952 
L 141.835222 52.620952 
L 139.435088 52.620952 
L 137.034954 52.620952 
L 134.63482 52.620952 
L 132.234686 52.620952 
L 129.834553 52.620952 
L 127.434419 52.620952 
L 125.034285 52.620952 
L 122.634151 52.620952 
L 120.234018 52.620952 
L 117.833884 52.620952 
L 115.43375 52.620952 
z
" clip-path="url(#p1ec262ca45)" style="fill: #c7eae5"/>
   </g>
   <g id="matplotlib.axis_1">
    <g id="xtick_1">
     <g id="line2d_1">
      <path d="M 115.43375 469.04 
L 115.43375 31.8 
" clip-path="url(#p1ec262ca45)" style="fill: none; stroke: #ffffff; stroke-opacity: 0.3; stroke-width: 0.75; stroke-linecap: square"/>
     </g>
     <g id="line2d_2">
      <defs>
       <path id="m08c7b8f9b3" d="M 0 0 
L 0 3.5 
" style="stroke: #000000; stroke-width: 0.8"/>
      </defs>
      <g>
       <use xlink:href="#m08c7b8f9b3" x="115.43375" y="469.04" style="stroke: #000000; stroke-width: 0.8"/>
      </g>
     </g>
     <g id="text_1">
      <text style="font-weight: 600; font-size: 24px; font-family: 'DejaVu Sans', 'Bitstream Vera Sans', 'Computer Modern Sans Serif', 'Lucida Grande', 'Verdana', 'Geneva', 'Lucid', 'Arial', 'Helvetica', 'Avant Garde', sans-serif; fill: #767676" transform="translate(122.05625 586.1925) rotate(-90)">2023-01</text>
     </g>
    </g>
    <g id="xtick_2">
     <g id="line2d_3">
      <path d="M 180.67375 469.04 
L 180.67375 31.8 
" clip-path="url(#p1ec262ca45)" style="fill: none; stroke: #ffffff; stroke-opacity: 0.3; stroke-width: 0.75; stroke-linecap: square"/>
     </g>
     <g id="line2d_4">
      <g>
       <use xlink:href="#m08c7b8f9b3" x="180.67375" y="469.04" style="stroke: #000000; stroke-width: 0.8"/>
      </g>
     </g>
     <g id="text_2">
      <text style="font-weight: 600; font-size: 24px; font-family: 'DejaVu Sans', 'Bitstream Vera Sans', 'Computer Modern Sans Serif', 'Lucida Grande', 'Verdana', 'Geneva', 'Lucid', 'Arial', 'Helvetica', 'Avant Garde', sans-serif; fill: #767676" transform="translate(187.29625 586.1925) rotate(-90)">2023-02</text>
     </g>
    </g>
    <g id="xtick_3">
     <g id="line2d_5">
      <path d="M 245.91375 469.04 
L 245.91375 31.8 
" clip-path="url(#p1ec262ca45)" style="fill: none; stroke: #ffffff; stroke-opacity: 0.3; stroke-width: 0.75; stroke-linecap: square"/>
     </g>
     <g id="line2d_6">
      <g>
       <use xlink:href="#m08c7b8f9b3" x="245.91375" y="469.04" style="stroke: #000000; stroke-width: 0.8"/>
      </g>
     </g>
     <g id="text_3">
      <text style="font-weight: 600; font-size: 24px; font-family: 'DejaVu Sans', 'Bitstream Vera Sans', 'Computer Modern Sans Serif', 'Lucida Grande', 'Verdana', 'Geneva', 'Lucid', 'Arial', 'Helvetica', 'Avant Garde', sans-serif; fill: #767676" transform="translate(252.53625 586.1925) rotate(-90)">2023-03</text>
     </g>
    </g>
    <g id="xtick_4">
     <g id="line2d_7">
      <path d="M 311.15375 469.04 
L 311.15375 31.8 
" clip-path="url(#p1ec262ca45)" style="fill: none; stroke: #ffffff; stroke-opacity: 0.3; stroke-width: 0.75; stroke-linecap: square"/>
     </g>
     <g id="line2d_8">
      <g>
       <use xlink:href="#m08c7b8f9b3" x="311.15375" y="469.04" style="stroke: #000000; stroke-width: 0.8"/>
      </g>
     </g>
     <g id="text_4">
      <text style="font-weight: 600; font-size: 24px; font-family: 'DejaVu Sans', 'Bitstream Vera Sans', 'Computer Modern Sans Serif', 'Lucida Grande', 'Verdana', 'Geneva', 'Lucid', 'Arial', 'Helvetica', 'Avant Garde', sans-serif; fill: #767676" transform="translate(317.77625 586.1925) rotate(-90)">2023-04</text>
     </g>
    </g>
    <g id="xtick_5">
     <g id="line2d_9">
      <path d="M 376.39375 469.04 
L 376.39375 31.8 
" clip-path="url(#p1ec262ca45)" style="fill: none; stroke: #ffffff; stroke-opacity: 0.3; stroke-width: 0.75; stroke-linecap: square"/>
     </g>
     <g id="line2d_10">
      <g>
       <use xlink:href="#m08c7b8f9b3" x="376.39375" y="469.04" style="stroke: #000000; stroke-width: 0.8"/>
      </g>
     </g>
     <g id="text_5">
      <text style="font-weight: 600; font-size: 24px; font-family: 'DejaVu Sans', 'Bitstream Vera Sans', 'Computer Modern Sans Serif', 'Lucida Grande', 'Verdana', 'Geneva', 'Lucid', 'Arial', 'Helvetica', 'Avant Garde', sans-serif; fill: #767676" transform="translate(383.01625 586.1925) rotate(-90)">2023-05</text>
     </g>
    </g>
    <g id="xtick_6">
     <g id="line2d_11">
      <path d="M 441.63375 469.04 
L 441.63375 31.8 
" clip-path="url(#p1ec262ca45)" style="fill: none; stroke: #ffffff; stroke-opacity: 0.3; stroke-width: 0.75; stroke-linecap: square"/>
     </g>
     <g id="line2d_12">
      <g>
       <use xlink:href="#m08c7b8f9b3" x="441.63375" y="469.04" style="stroke: #000000; stroke-width: 0.8"/>
      </g>
     </g>
     <g id="text_6">
      <text style="font-weight: 600; font-size: 24px; font-family: 'DejaVu Sans', 'Bitstream Vera Sans', 'Computer Modern Sans Serif', 'Lucida Grande', 'Verdana', 'Geneva', 'Lucid', 'Arial', 'Helvetica', 'Avant Garde', sans-serif; fill: #767676" transform="translate(448.25625 586.1925) rotate(-90)">2023-06</text>
     </g>
    </g>
    <g id="xtick_7">
     <g id="line2d_13">
      <path d="M 506.87375 469.04 
L 506.87375 31.8 
" clip-path="url(#p1ec262ca45)" style="fill: none; stroke: #ffffff; stroke-opacity: 0.3; stroke-width: 0.75; stroke-linecap: square"/>
     </g>
     <g id="line2d_14">
      <g>
       <use xlink:href="#m08c7b8f9b3" x="506.87375" y="469.04" style="stroke: #000000; stroke-width: 0.8"/>
      </g>
     </g>
     <g id="text_7">
      <text style="font-weight: 600; font-size: 24px; font-family: 'DejaVu Sans', 'Bitstream Vera Sans', 'Computer Modern Sans Serif', 'Lucida Grande', 'Verdana', 'Geneva', 'Lucid', 'Arial', 'Helvetica', 'Avant Garde', sans-serif; fill: #767676" transform="translate(513.49625 586.1925) rotate(-90)">2023-07</text>
     </g>
    </g>
    <g id="xtick_8">
     <g id="line2d_15">
      <path d="M 572.11375 469.04 
L 572.11375 31.8 
" clip-path="url(#p1ec262ca45)" style="fill: none; stroke: #ffffff; stroke-opacity: 0.3; stroke-width: 0.75; stroke-linecap: square"/>
     </g>
     <g id="line2d_16">
      <g>
       <use xlink:href="#m08c7b8f9b3" x="572.11375" y="469.04" style="stroke: #000000; stroke-width: 0.8"/>
      </g>
     </g>
     <g id="text_8">
      <text style="font-weight: 600; font-size: 24px; font-family: 'DejaVu Sans', 'Bitstream Vera Sans', 'Computer Modern Sans Serif', 'Lucida Grande', 'Verdana', 'Geneva', 'Lucid', 'Arial', 'Helvetica', 'Avant Garde', sans-serif; fill: #767676" transform="translate(578.73625 586.1925) rotate(-90)">2023-08</text>
     </g>
    </g>
    <g id="xtick_9">
     <g id="line2d_17">
      <path d="M 637.35375 469.04 
L 637.35375 31.8 
" clip-path="url(#p1ec262ca45)" style="fill: none; stroke: #ffffff; stroke-opacity: 0.3; stroke-width: 0.75; stroke-linecap: square"/>
     </g>
     <g id="line2d_18">
      <g>
       <use xlink:href="#m08c7b8f9b3" x="637.35375" y="469.04" style="stroke: #000000; stroke-width: 0.8"/>
      </g>
     </g>
     <g id="text_9">
      <text style="font-weight: 600; font-size: 24px; font-family: 'DejaVu Sans', 'Bitstream Vera Sans', 'Computer Modern Sans Serif', 'Lucida Grande', 'Verdana', 'Geneva', 'Lucid', 'Arial', 'Helvetica', 'Avant Garde', sans-serif; fill: #767676" transform="translate(643.97625 586.1925) rotate(-90)">2023-09</text>
     </g>
    </g>
    <g id="xtick_10">
     <g id="line2d_19">
      <path d="M 702.59375 469.04 
L 702.59375 31.8 
" clip-path="url(#p1ec262ca45)" style="fill: none; stroke: #ffffff; stroke-opacity: 0.3; stroke-width: 0.75; stroke-linecap: square"/>
     </g>
     <g id="line2d_20">
      <g>
       <use xlink:href="#m08c7b8f9b3" x="702.59375" y="469.04" style="stroke: #000000; stroke-width: 0.8"/>
      </g>
     </g>
     <g id="text_10">
      <text style="font-weight: 600; font-size: 24px; font-family: 'DejaVu Sans', 'Bitstream Vera Sans', 'Computer Modern Sans Serif', 'Lucida Grande', 'Verdana', 'Geneva', 'Lucid', 'Arial', 'Helvetica', 'Avant Garde', sans-serif; fill: #767676" transform="translate(709.21625 586.1925) rotate(-90)">2023-10</text>
     </g>
    </g>
    <g id="xtick_11">
     <g id="line2d_21">
      <path d="M 767.83375 469.04 
L 767.83375 31.8 
" clip-path="url(#p1ec262ca45)" style="fill: none; stroke: #ffffff; stroke-opacity: 0.3; stroke-width: 0.75; stroke-linecap: square"/>
     </g>
     <g id="line2d_22">
      <g>
       <use xlink:href="#m08c7b8f9b3" x="767.83375" y="469.04" style="stroke: #000000; stroke-width: 0.8"/>
      </g>
     </g>
     <g id="text_11">
      <text style="font-weight: 600; font-size: 24px; font-family: 'DejaVu Sans', 'Bitstream Vera Sans', 'Computer Modern Sans Serif', 'Lucida Grande', 'Verdana', 'Geneva', 'Lucid', 'Arial', 'Helvetica', 'Avant Garde', sans-serif; fill: #767676" transform="translate(774.45625 586.1925) rotate(-90)">2023-11</text>
     </g>
    </g>
    <g id="xtick_12">
     <g id="line2d_23">
      <path d="M 833.07375 469.04 
L 833.07375 31.8 
" clip-path="url(#p1ec262ca45)" style="fill: none; stroke: #ffffff; stroke-opacity: 0.3; stroke-width: 0.75; stroke-linecap: square"/>
     </g>
     <g id="line2d_24">
      <g>
       <use xlink:href="#m08c7b8f9b3" x="833.07375" y="469.04" style="stroke: #000000; stroke-width: 0.8"/>
      </g>
     </g>
     <g id="text_12">
      <text style="font-weight: 600; font-size: 24px; font-family: 'DejaVu Sans', 'Bitstream Vera Sans', 'Computer Modern Sans Serif', 'Lucida Grande', 'Verdana', 'Geneva', 'Lucid', 'Arial', 'Helvetica', 'Avant Garde', sans-serif; fill: #767676" transform="translate(839.69625 586.1925) rotate(-90)">2023-12</text>
     </g>
    </g>
   </g>
   <g id="matplotlib.axis_2">
    <g id="ytick_1">
     <g id="line2d_25">
      <path d="M 82.81375 469.04 
L 865.69375 469.04 
" clip-path="url(#p1ec262ca45)" style="fill: none; stroke: #ffffff; stroke-opacity: 0.8; stroke-width: 1.25; stroke-linecap: square"/>
     </g>
     <g id="line2d_26">
      <defs>
       <path id="m71b0e27cec" d="M 0 0 
L -3.5 0 
" style="stroke: #000000; stroke-width: 0.8"/>
      </defs>
      <g>
       <use xlink:href="#m71b0e27cec" x="82.81375" y="469.04" style="stroke: #000000; stroke-width: 0.8"/>
      </g>
     </g>
     <g id="text_13">
      <text style="font-weight: 500; font-size: 24px; font-family: 'DejaVu Sans', 'Bitstream Vera Sans', 'Computer Modern Sans Serif', 'Lucida Grande', 'Verdana', 'Geneva', 'Lucid', 'Arial', 'Helvetica', 'Avant Garde', sans-serif; text-anchor: end; fill: #767676" x="75.81375" y="478.158125" transform="rotate(-0 75.81375 478.158125)">0%</text>
     </g>
    </g>
    <g id="ytick_2">
     <g id="line2d_27">
      <path d="M 82.81375 364.935238 
L 865.69375 364.935238 
" clip-path="url(#p1ec262ca45)" style="fill: none; stroke: #ffffff; stroke-opacity: 0.8; stroke-width: 1.25; stroke-linecap: square"/>
     </g>
     <g id="line2d_28">
      <g>
       <use xlink:href="#m71b0e27cec" x="82.81375" y="364.935238" style="stroke: #000000; stroke-width: 0.8"/>
      </g>
     </g>
     <g id="text_14">
      <text style="font-weight: 500; font-size: 24px; font-family: 'DejaVu Sans', 'Bitstream Vera Sans', 'Computer Modern Sans Serif', 'Lucida Grande', 'Verdana', 'Geneva', 'Lucid', 'Arial', 'Helvetica', 'Avant Garde', sans-serif; text-anchor: end; fill: #767676" x="75.81375" y="374.053363" transform="rotate(-0 75.81375 374.053363)">25%</text>
     </g>
    </g>
    <g id="ytick_3">
     <g id="line2d_29">
      <path d="M 82.81375 260.830476 
L 865.69375 260.830476 
" clip-path="url(#p1ec262ca45)" style="fill: none; stroke: #ffffff; stroke-opacity: 0.8; stroke-width: 1.25; stroke-linecap: square"/>
     </g>
     <g id="line2d_30">
      <g>
       <use xlink:href="#m71b0e27cec" x="82.81375" y="260.830476" style="stroke: #000000; stroke-width: 0.8"/>
      </g>
     </g>
     <g id="text_15">
      <text style="font-weight: 500; font-size: 24px; font-family: 'DejaVu Sans', 'Bitstream Vera Sans', 'Computer Modern Sans Serif', 'Lucida Grande', 'Verdana', 'Geneva', 'Lucid', 'Arial', 'Helvetica', 'Avant Garde', sans-serif; text-anchor: end; fill: #767676" x="75.81375" y="269.948601" transform="rotate(-0 75.81375 269.948601)">50%</text>
     </g>
    </g>
    <g id="ytick_4">
     <g id="line2d_31">
      <path d="M 82.81375 156.725714 
L 865.69375 156.725714 
" clip-path="url(#p1ec262ca45)" style="fill: none; stroke: #ffffff; stroke-opacity: 0.8; stroke-width: 1.25; stroke-linecap: square"/>
     </g>
     <g id="line2d_32">
      <g>
       <use xlink:href="#m71b0e27cec" x="82.81375" y="156.725714" style="stroke: #000000; stroke-width: 0.8"/>
      </g>
     </g>
     <g id="text_16">
      <text style="font-weight: 500; font-size: 24px; font-family: 'DejaVu Sans', 'Bitstream Vera Sans', 'Computer Modern Sans Serif', 'Lucida Grande', 'Verdana', 'Geneva', 'Lucid', 'Arial', 'Helvetica', 'Avant Garde', sans-serif; text-anchor: end; fill: #767676" x="75.81375" y="165.843839" transform="rotate(-0 75.81375 165.843839)">75%</text>
     </g>
    </g>
    <g id="ytick_5">
     <g id="line2d_33">
      <path d="M 82.81375 52.620952 
L 865.69375 52.620952 
" clip-path="url(#p1ec262ca45)" style="fill: none; stroke: #ffffff; stroke-opacity: 0.8; stroke-width: 1.25; stroke-linecap: square"/>
     </g>
     <g id="line2d_34">
      <g>
       <use xlink:href="#m71b0e27cec" x="82.81375" y="52.620952" style="stroke: #000000; stroke-width: 0.8"/>
      </g>
     </g>
     <g id="text_17">
      <text style="font-weight: 500; font-size: 24px; font-family: 'DejaVu Sans', 'Bitstream Vera Sans', 'Computer Modern Sans Serif', 'Lucida Grande', 'Verdana', 'Geneva', 'Lucid', 'Arial', 'Helvetica', 'Avant Garde', sans-serif; text-anchor: end; fill: #767676" x="75.81375" y="61.739077" transform="rotate(-0 75.81375 61.739077)">100%</text>
     </g>
    </g>
   </g>
   <g id="patch_3">
    <path d="M 82.81375 469.04 
L 865.69375 469.04 
" style="fill: none; stroke: #000000; stroke-width: 2; stroke-linejoin: miter; stroke-linecap: square"/>
   </g>
   <g id="text_18">
    <g id="patch_4">
     <path d="M 166.408125 428.255268 
L 194.939375 428.255268 
Q 214.939375 428.255268 214.939375 408.255268 
L 214.939375 404.899018 
Q 214.939375 384.899018 194.939375 384.899018 
L 166.408125 384.899018 
Q 146.408125 384.899018 146.408125 404.899018 
L 146.408125 408.255268 
Q 146.408125 428.255268 166.408125 428.255268 
z
" style="fill: #ffffff; stroke: #d9d9d9; stroke-width: 1.8; stroke-linejoin: miter"/>
    </g>
    <text style="font-size: 20px; font-family: 'DejaVu Sans', 'Bitstream Vera Sans', 'Computer Modern Sans Serif', 'Lucida Grande', 'Verdana', 'Geneva', 'Lucid', 'Arial', 'Helvetica', 'Avant Garde', sans-serif; text-anchor: middle; fill: #10302c" x="180.67375" y="412.095893" transform="rotate(-0 180.67375 412.095893)">3.70</text>
   </g>
   <g id="text_19">
    <g id="patch_5">
     <path d="M 459.988125 303.329554 
L 488.519375 303.329554 
Q 508.519375 303.329554 508.519375 283.329554 
L 508.519375 279.973304 
Q 508.519375 259.973304 488.519375 259.973304 
L 459.988125 259.973304 
Q 439.988125 259.973304 439.988125 279.973304 
L 439.988125 283.329554 
Q 439.988125 303.329554 459.988125 303.329554 
z
" style="fill: #ffffff; stroke: #d9d9d9; stroke-width: 1.8; stroke-linejoin: miter"/>
    </g>
    <text style="font-size: 20px; font-family: 'DejaVu Sans', 'Bitstream Vera Sans', 'Computer Modern Sans Serif', 'Lucida Grande', 'Verdana', 'Geneva', 'Lucid', 'Arial', 'Helvetica', 'Avant Garde', sans-serif; text-anchor: middle; fill: #10302c" x="474.25375" y="287.170179" transform="rotate(-0 474.25375 287.170179)">5.71</text>
   </g>
   <g id="text_20">
    <g id="patch_6">
     <path d="M 753.568125 136.761935 
L 782.099375 136.761935 
Q 802.099375 136.761935 802.099375 116.761935 
L 802.099375 113.405685 
Q 802.099375 93.405685 782.099375 93.405685 
L 753.568125 93.405685 
Q 733.568125 93.405685 733.568125 113.405685 
L 733.568125 116.761935 
Q 733.568125 136.761935 753.568125 136.761935 
z
" style="fill: #ffffff; stroke: #d9d9d9; stroke-width: 1.8; stroke-linejoin: miter"/>
    </g>
    <text style="font-size: 20px; font-family: 'DejaVu Sans', 'Bitstream Vera Sans', 'Computer Modern Sans Serif', 'Lucida Grande', 'Verdana', 'Geneva', 'Lucid', 'Arial', 'Helvetica', 'Avant Garde', sans-serif; text-anchor: middle; fill: #10302c" x="767.83375" y="120.60256" transform="rotate(-0 767.83375 120.60256)">2.59</text>
   </g>
  </g>
  <g id="axes_2">
   <g id="patch_7">
    <path d="M 876.49375 469.04 
L 1137.45375 469.04 
L 1137.45375 31.8 
L 876.49375 31.8 
z
" style="fill: #ffffff"/>
   </g>
   <g id="patch_8">
    <path d="M 941.73375 469.04 
L 1072.21375 469.04 
L 1072.21375 395.07889 
L 941.73375 395.07889 
z
" clip-path="url(#pe6a0d23bcb)" style="fill: #215f53; stroke: #ffffff; stroke-width: 0.5; stroke-linejoin: miter"/>
   </g>
   <g id="patch_9">
    <path d="M 941.73375 395.07889 
L 1072.21375 395.07889 
L 1072.21375 62.776369 
L 941.73375 62.776369 
z
" clip-path="url(#pe6a0d23bcb)" style="fill: #7570b3; stroke: #ffffff; stroke-width: 0.5; stroke-linejoin: miter"/>
   </g>
   <g id="patch_10">
    <path d="M 941.73375 62.776369 
L 1072.21375 62.776369 
L 1072.21375 31.8 
L 941.73375 31.8 
z
" clip-path="url(#pe6a0d23bcb)" style="fill: #c7eae5; stroke: #ffffff; stroke-width: 0.5; stroke-linejoin: miter"/>
   </g>
   <g id="matplotlib.axis_3"/>
   <g id="matplotlib.axis_4"/>
   <g id="text_21">
    <text style="font-weight: 500; font-size: 20px; font-family: 'DejaVu Sans', 'Bitstream Vera Sans', 'Computer Modern Sans Serif', 'Lucida Grande', 'Verdana', 'Geneva', 'Lucid', 'Arial', 'Helvetica', 'Avant Garde', sans-serif; text-anchor: middle; fill: #ffffff" x="1006.97375" y="437.578195" transform="rotate(-0 1006.97375 437.578195)">16.9%</text>
   </g>
   <g id="text_22">
    <text style="font-weight: 500; font-size: 20px; font-family: 'DejaVu Sans', 'Bitstream Vera Sans', 'Computer Modern Sans Serif', 'Lucida Grande', 'Verdana', 'Geneva', 'Lucid', 'Arial', 'Helvetica', 'Avant Garde', sans-serif; text-anchor: middle; fill: #ffffff" x="1006.97375" y="234.44638" transform="rotate(-0 1006.97375 234.44638)">76.0%</text>
   </g>
   <g id="text_23">
    <text style="font-weight: 500; font-size: 20px; font-family: 'DejaVu Sans', 'Bitstream Vera Sans', 'Computer Modern Sans Serif', 'Lucida Grande', 'Verdana', 'Geneva', 'Lucid', 'Arial', 'Helvetica', 'Avant Garde', sans-serif; text-anchor: middle; fill: #ffffff" x="1006.97375" y="52.806935" transform="rotate(-0 1006.97375 52.806935)">7.1%</text>
   </g>
  </g>
  <g id="legend_1">
   <g id="patch_11">
    <path d="M 209.535 40.673437 
L 269.535 40.673437 
L 269.535 19.673437 
L 209.535 19.673437 
z
" style="fill: #215f53"/>
   </g>
   <g id="text_24">
    <text style="font-weight: 500; font-size: 30px; font-family: 'Arial'; text-anchor: start" x="293.535" y="40.673437" transform="rotate(-0 293.535 40.673437)">Comisiones</text>
   </g>
   <g id="patch_12">
    <path d="M 510.252187 40.673437 
L 570.252187 40.673437 
L 570.252187 19.673437 
L 510.252187 19.673437 
z
" style="fill: #7570b3"/>
   </g>
   <g id="text_25">
    <text style="font-weight: 500; font-size: 30px; font-family: 'Arial'; text-anchor: start" x="594.252187" y="40.673437" transform="rotate(-0 594.252187 40.673437)">Fiscalas</text>
   </g>
   <g id="patch_13">
    <path d="M 772.606875 40.673437 
L 832.606875 40.673437 
L 832.606875 19.673437 
L 772.606875 19.673437 
z
" style="fill: #c7eae5"/>
   </g>
   <g id="text_26">
    <text style="font-weight: 500; font-size: 30px; font-family: 'Arial'; text-anchor: start" x="856.606875" y="40.673437" transform="rotate(-0 856.606875 40.673437)">Portal</text>
   </g>
  </g>
 </g>
 <defs>
  <clipPath id="p1ec262ca45">
   <rect x="82.81375" y="31.8" width="782.88" height="437.24"/>
  </clipPath>
  <clipPath id="pe6a0d23bcb">
   <rect x="876.49375" y="31.8" width="260.96" height="437.24"/>
  </clipPath>
 </defs>
</svg>
