<svg xmlns="http://www.w3.org/2000/svg" xmlns:xlink="http://www.w3.org/1999/xlink" width="1057.9pt" height="425.173" viewBox="0 0 1057.9 318.88"><defs><style>*{stroke-linejoin:round;stroke-linecap:butt}</style></defs><path fill="#fff" d="M0 318.88h1057.9V0H0z"/><path fill="#fff" d="M104.41 287.26h946.33V95.88H104.41z"/><defs><path id="b" stroke="#000" stroke-width=".8" d="M0 0v3.5"/></defs><use xlink:href="#b" x="280.92" y="287.264" stroke="#000" stroke-width=".8"/><text x="280.92" y="307.941" font-family="'DejaVu Sans', 'Bitstream Vera Sans', 'Computer Modern Sans Serif', 'Lucida Grande', 'Verdana', 'Geneva', 'Lucid', 'Arial', 'Helvetica', 'Avant Garde', sans-serif" font-size="18" font-weight="500" text-anchor="middle">Hombre</text><use xlink:href="#b" x="577.576" y="287.264" stroke="#000" stroke-width=".8"/><text x="577.576" y="307.941" font-family="'DejaVu Sans', 'Bitstream Vera Sans', 'Computer Modern Sans Serif', 'Lucida Grande', 'Verdana', 'Geneva', 'Lucid', 'Arial', 'Helvetica', 'Avant Garde', sans-serif" font-size="18" font-weight="500" text-anchor="middle">Mujer</text><use xlink:href="#b" x="874.231" y="287.264" stroke="#000" stroke-width=".8"/><text x="874.231" y="307.941" font-family="'DejaVu Sans', 'Bitstream Vera Sans', 'Computer Modern Sans Serif', 'Lucida Grande', 'Verdana', 'Geneva', 'Lucid', 'Arial', 'Helvetica', 'Avant Garde', sans-serif" font-size="18" font-weight="500" text-anchor="middle">No definido</text><path fill="none" stroke="#000" stroke-linecap="square" stroke-opacity=".2" stroke-width=".75" d="M104.41 287.26h946.33" clip-path="url(#a)"/><defs><path id="c" stroke="#000" stroke-width=".8" d="M0 0h-3.5"/></defs><use xlink:href="#c" x="104.411" y="287.264" stroke="#000" stroke-width=".8"/><text x="97.411" y="294.103" font-family="'DejaVu Sans', 'Bitstream Vera Sans', 'Computer Modern Sans Serif', 'Lucida Grande', 'Verdana', 'Geneva', 'Lucid', 'Arial', 'Helvetica', 'Avant Garde', sans-serif" font-size="18" text-anchor="end">0</text><path fill="none" stroke="#000" stroke-linecap="square" stroke-opacity=".2" stroke-width=".75" d="M104.41 211.32h946.33" clip-path="url(#a)"/><use xlink:href="#c" x="104.411" y="211.321" stroke="#000" stroke-width=".8"/><text x="97.411" y="218.16" font-family="'DejaVu Sans', 'Bitstream Vera Sans', 'Computer Modern Sans Serif', 'Lucida Grande', 'Verdana', 'Geneva', 'Lucid', 'Arial', 'Helvetica', 'Avant Garde', sans-serif" font-size="18" text-anchor="end">5,000</text><path fill="none" stroke="#000" stroke-linecap="square" stroke-opacity=".2" stroke-width=".75" d="M104.41 135.38h946.33" clip-path="url(#a)"/><use xlink:href="#c" x="104.411" y="135.378" stroke="#000" stroke-width=".8"/><text x="97.411" y="142.217" font-family="'DejaVu Sans', 'Bitstream Vera Sans', 'Computer Modern Sans Serif', 'Lucida Grande', 'Verdana', 'Geneva', 'Lucid', 'Arial', 'Helvetica', 'Avant Garde', sans-serif" font-size="18" text-anchor="end">10,000</text><text x="25.436" y="191.576" fill="#767676" font-family="'DejaVu Sans', 'Bitstream Vera Sans', 'Computer Modern Sans Serif', 'Lucida Grande', 'Verdana', 'Geneva', 'Lucid', 'Arial', 'Helvetica', 'Avant Garde', sans-serif" font-size="24" font-weight="500" text-anchor="middle" transform="rotate(-90 25.436 191.58)">Valores</text><path fill="none" stroke="#000" stroke-linecap="square" stroke-width="2" d="M104.41 287.26h946.33"/><path fill="#006157" d="M147.43 287.26h88.997v-45.566H147.43zM444.08 287.26h88.997v-60.754H444.08zM740.74 287.26h88.997v-30.377H740.74z" clip-path="url(#a)"/><text x="191.924" y="266.965" fill="#fff" font-family="'DejaVu Sans', 'Bitstream Vera Sans', 'Computer Modern Sans Serif', 'Lucida Grande', 'Verdana', 'Geneva', 'Lucid', 'Arial', 'Helvetica', 'Avant Garde', sans-serif" font-size="9" font-weight="500" text-anchor="middle">3,000 (60.0%)</text><text x="488.579" y="259.37" fill="#fff" font-family="'DejaVu Sans', 'Bitstream Vera Sans', 'Computer Modern Sans Serif', 'Lucida Grande', 'Verdana', 'Geneva', 'Lucid', 'Arial', 'Helvetica', 'Avant Garde', sans-serif" font-size="9" font-weight="500" text-anchor="middle">4,000 (57.1%)</text><text x="785.234" y="274.559" fill="#fff" font-family="'DejaVu Sans', 'Bitstream Vera Sans', 'Computer Modern Sans Serif', 'Lucida Grande', 'Verdana', 'Geneva', 'Lucid', 'Arial', 'Helvetica', 'Avant Garde', sans-serif" font-size="9" font-weight="500" text-anchor="middle">2,000 (66.7%)</text><path fill="#767676" d="M147.43 241.7h88.997v-30.377H147.43zM444.08 226.51h88.997v-45.566H444.08zM740.74 256.89h88.997v-15.189H740.74z" clip-path="url(#a)"/><text x="191.924" y="228.993" fill="#fff" font-family="'DejaVu Sans', 'Bitstream Vera Sans', 'Computer Modern Sans Serif', 'Lucida Grande', 'Verdana', 'Geneva', 'Lucid', 'Arial', 'Helvetica', 'Avant Garde', sans-serif" font-size="9" font-weight="500" text-anchor="middle">2,000 (40.0%)</text><text x="488.579" y="206.21" fill="#fff" font-family="'DejaVu Sans', 'Bitstream Vera Sans', 'Computer Modern Sans Serif', 'Lucida Grande', 'Verdana', 'Geneva', 'Lucid', 'Arial', 'Helvetica', 'Avant Garde', sans-serif" font-size="9" font-weight="500" text-anchor="middle">3,000 (42.9%)</text><text x="785.234" y="251.776" fill="#fff" font-family="'DejaVu Sans', 'Bitstream Vera Sans', 'Computer Modern Sans Serif', 'Lucida Grande', 'Verdana', 'Geneva', 'Lucid', 'Arial', 'Helvetica', 'Avant Garde', sans-serif" font-size="9" font-weight="500" text-anchor="middle">1,000 (33.3%)</text><path fill="#fff" stroke="#006157" d="M182.43 210.21h18.994q11.88 0 11.88-11.88v3.746q0-11.88-11.88-11.88H182.43q-11.88 0-11.88 11.88v-3.746q0 11.88 11.88 11.88z"/><text x="191.924" y="203.51" fill="#767676" font-family="'DejaVu Sans', 'Bitstream Vera Sans', 'Computer Modern Sans Serif', 'Lucida Grande', 'Verdana', 'Geneva', 'Lucid', 'Arial', 'Helvetica', 'Avant Garde', sans-serif" font-size="12" font-weight="500" text-anchor="middle">5,000</text><path fill="#fff" stroke="#006157" d="M479.08 179.83h18.994q11.88 0 11.88-11.88v3.746q0-11.88-11.88-11.88H479.08q-11.88 0-11.88 11.88v-3.746q0 11.88 11.88 11.88z"/><text x="488.579" y="173.132" fill="#767676" font-family="'DejaVu Sans', 'Bitstream Vera Sans', 'Computer Modern Sans Serif', 'Lucida Grande', 'Verdana', 'Geneva', 'Lucid', 'Arial', 'Helvetica', 'Avant Garde', sans-serif" font-size="12" font-weight="500" text-anchor="middle">7,000</text><path fill="#fff" stroke="#006157" d="M775.74 240.58h18.994q11.88 0 11.88-11.88v3.746q0-11.88-11.88-11.88H775.74q-11.88 0-11.88 11.88V228.7q0 11.88 11.88 11.88z"/><text x="785.234" y="233.887" fill="#767676" font-family="'DejaVu Sans', 'Bitstream Vera Sans', 'Computer Modern Sans Serif', 'Lucida Grande', 'Verdana', 'Geneva', 'Lucid', 'Arial', 'Helvetica', 'Avant Garde', sans-serif" font-size="12" font-weight="500" text-anchor="middle">3,000</text><path fill="#671435" d="M236.42 287.26h88.997V135.37H236.42zM533.08 287.26h88.997v-45.566H533.08zM829.73 287.26h88.997v-60.754H829.73z" clip-path="url(#a)"/><text x="280.92" y="213.805" fill="#fff" font-family="'DejaVu Sans', 'Bitstream Vera Sans', 'Computer Modern Sans Serif', 'Lucida Grande', 'Verdana', 'Geneva', 'Lucid', 'Arial', 'Helvetica', 'Avant Garde', sans-serif" font-size="9" font-weight="500" text-anchor="middle">10,000 (83.3%)</text><text x="577.576" y="266.965" fill="#fff" font-family="'DejaVu Sans', 'Bitstream Vera Sans', 'Computer Modern Sans Serif', 'Lucida Grande', 'Verdana', 'Geneva', 'Lucid', 'Arial', 'Helvetica', 'Avant Garde', sans-serif" font-size="9" font-weight="500" text-anchor="middle">3,000 (75.0%)</text><text x="874.231" y="259.37" fill="#fff" font-family="'DejaVu Sans', 'Bitstream Vera Sans', 'Computer Modern Sans Serif', 'Lucida Grande', 'Verdana', 'Geneva', 'Lucid', 'Arial', 'Helvetica', 'Avant Garde', sans-serif" font-size="9" font-weight="500" text-anchor="middle">4,000 (44.4%)</text><path fill="#9b2247" d="M236.42 135.38h88.997v-30.377H236.42zM533.08 241.7h88.997v-15.189H533.08zM829.73 226.51h88.997v-75.943H829.73z" clip-path="url(#a)"/><text x="280.92" y="122.673" fill="#fff" font-family="'DejaVu Sans', 'Bitstream Vera Sans', 'Computer Modern Sans Serif', 'Lucida Grande', 'Verdana', 'Geneva', 'Lucid', 'Arial', 'Helvetica', 'Avant Garde', sans-serif" font-size="9" font-weight="500" text-anchor="middle">2,000 (16.7%)</text><text x="577.576" y="236.587" fill="#fff" font-family="'DejaVu Sans', 'Bitstream Vera Sans', 'Computer Modern Sans Serif', 'Lucida Grande', 'Verdana', 'Geneva', 'Lucid', 'Arial', 'Helvetica', 'Avant Garde', sans-serif" font-size="9" font-weight="500" text-anchor="middle">1,000 (25.0%)</text><text x="874.231" y="191.022" fill="#fff" font-family="'DejaVu Sans', 'Bitstream Vera Sans', 'Computer Modern Sans Serif', 'Lucida Grande', 'Verdana', 'Geneva', 'Lucid', 'Arial', 'Helvetica', 'Avant Garde', sans-serif" font-size="9" font-weight="500" text-anchor="middle">5,000 (55.6%)</text><path fill="#fff" stroke="#671435" d="M267.61 100.09h26.629q11.88 0 11.88-11.88v3.746q0-11.88-11.88-11.88H267.61q-11.88 0-11.88 11.88V88.21q0 11.88 11.88 11.88z"/><text x="280.92" y="93.392" fill="#9b2247" font-family="'DejaVu Sans', 'Bitstream Vera Sans', 'Computer Modern Sans Serif', 'Lucida Grande', 'Verdana', 'Geneva', 'Lucid', 'Arial', 'Helvetica', 'Avant Garde', sans-serif" font-size="12" font-weight="500" text-anchor="middle">12,000</text><path fill="#fff" stroke="#671435" d="M568.08 221.6h18.994q11.88 0 11.88-11.88v3.746q0-11.88-11.88-11.88H568.08q-11.88 0-11.88 11.88v-3.746q0 11.88 11.88 11.88z"/><text x="577.576" y="214.901" fill="#9b2247" font-family="'DejaVu Sans', 'Bitstream Vera Sans', 'Computer Modern Sans Serif', 'Lucida Grande', 'Verdana', 'Geneva', 'Lucid', 'Arial', 'Helvetica', 'Avant Garde', sans-serif" font-size="12" font-weight="500" text-anchor="middle">4,000</text><path fill="#fff" stroke="#671435" d="M864.73 145.65h18.994q11.88 0 11.88-11.88v3.746q0-11.88-11.88-11.88H864.73q-11.88 0-11.88 11.88v-3.746q0 11.88 11.88 11.88z"/><text x="874.231" y="138.958" fill="#9b2247" font-family="'DejaVu Sans', 'Bitstream Vera Sans', 'Computer Modern Sans Serif', 'Lucida Grande', 'Verdana', 'Geneva', 'Lucid', 'Arial', 'Helvetica', 'Avant Garde', sans-serif" font-size="12" font-weight="500" text-anchor="middle">9,000</text><path fill="#9d792a" d="M325.42 287.26h88.997v-15.189H325.42zM622.07 287.26h88.997v-22.783H622.07zM918.73 287.26h88.997v-75.943H918.73z" clip-path="url(#a)"/><text x="369.917" y="282.153" fill="#fff" font-family="'DejaVu Sans', 'Bitstream Vera Sans', 'Computer Modern Sans Serif', 'Lucida Grande', 'Verdana', 'Geneva', 'Lucid', 'Arial', 'Helvetica', 'Avant Garde', sans-serif" font-size="9" font-weight="500" text-anchor="middle">1,000 (16.7%)</text><text x="666.572" y="278.356" fill="#fff" font-family="'DejaVu Sans', 'Bitstream Vera Sans', 'Computer Modern Sans Serif', 'Lucida Grande', 'Verdana', 'Geneva', 'Lucid', 'Arial', 'Helvetica', 'Avant Garde', sans-serif" font-size="9" font-weight="500" text-anchor="middle">1,500 (39.5%)</text><text x="963.227" y="251.776" fill="#fff" font-family="'DejaVu Sans', 'Bitstream Vera Sans', 'Computer Modern Sans Serif', 'Lucida Grande', 'Verdana', 'Geneva', 'Lucid', 'Arial', 'Helvetica', 'Avant Garde', sans-serif" font-size="9" font-weight="500" text-anchor="middle">5,000 (55.6%)</text><path fill="#d5b162" d="M325.42 272.08h88.997v-75.943H325.42zM622.07 264.48h88.997v-34.934H622.07zM918.73 211.32h88.997v-60.754H918.73z" clip-path="url(#a)"/><text x="369.917" y="236.587" fill="#fff" font-family="'DejaVu Sans', 'Bitstream Vera Sans', 'Computer Modern Sans Serif', 'Lucida Grande', 'Verdana', 'Geneva', 'Lucid', 'Arial', 'Helvetica', 'Avant Garde', sans-serif" font-size="9" font-weight="500" text-anchor="middle">5,000 (83.3%)</text><text x="666.572" y="249.498" fill="#fff" font-family="'DejaVu Sans', 'Bitstream Vera Sans', 'Computer Modern Sans Serif', 'Lucida Grande', 'Verdana', 'Geneva', 'Lucid', 'Arial', 'Helvetica', 'Avant Garde', sans-serif" font-size="9" font-weight="500" text-anchor="middle">2,300 (60.5%)</text><text x="963.227" y="183.427" fill="#fff" font-family="'DejaVu Sans', 'Bitstream Vera Sans', 'Computer Modern Sans Serif', 'Lucida Grande', 'Verdana', 'Geneva', 'Lucid', 'Arial', 'Helvetica', 'Avant Garde', sans-serif" font-size="9" font-weight="500" text-anchor="middle">4,000 (44.4%)</text><path fill="#fff" stroke="#9d792a" d="M360.42 193.5h18.994q11.88 0 11.88-11.88v3.746q0-11.88-11.88-11.88H360.42q-11.88 0-11.88 11.88v-3.746q0 11.88 11.88 11.88z"/><text x="369.917" y="186.802" fill="#d5b162" font-family="'DejaVu Sans', 'Bitstream Vera Sans', 'Computer Modern Sans Serif', 'Lucida Grande', 'Verdana', 'Geneva', 'Lucid', 'Arial', 'Helvetica', 'Avant Garde', sans-serif" font-size="12" font-weight="500" text-anchor="middle">6,000</text><path fill="#fff" stroke="#9d792a" d="M657.08 226.91h18.994q11.88 0 11.88-11.88v3.746q0-11.88-11.88-11.88H657.08q-11.88 0-11.88 11.88v-3.746q0 11.88 11.88 11.88z"/><text x="666.572" y="220.217" fill="#d5b162" font-family="'DejaVu Sans', 'Bitstream Vera Sans', 'Computer Modern Sans Serif', 'Lucida Grande', 'Verdana', 'Geneva', 'Lucid', 'Arial', 'Helvetica', 'Avant Garde', sans-serif" font-size="12" font-weight="500" text-anchor="middle">3,800</text><path fill="#fff" stroke="#9d792a" d="M953.73 147.93h18.994q11.88 0 11.88-11.88v3.746q0-11.88-11.88-11.88H953.73q-11.88 0-11.88 11.88v-3.746q0 11.88 11.88 11.88z"/><text x="963.227" y="141.236" fill="#d5b162" font-family="'DejaVu Sans', 'Bitstream Vera Sans', 'Computer Modern Sans Serif', 'Lucida Grande', 'Verdana', 'Geneva', 'Lucid', 'Arial', 'Helvetica', 'Avant Garde', sans-serif" font-size="12" font-weight="500" text-anchor="middle">9,000</text><path fill="#006157" d="M424.94 23.438h28v-9.8h-28z"/><text x="464.144" y="23.438" font-family="'DejaVu Sans', 'Bitstream Vera Sans', 'Computer Modern Sans Serif', 'Lucida Grande', 'Verdana', 'Geneva', 'Lucid', 'Arial', 'Helvetica', 'Avant Garde', sans-serif" font-size="14" font-weight="500">Menor</text><path fill="#767676" d="M424.94 43.987h28v-9.8h-28z"/><text x="464.144" y="43.987" font-family="'DejaVu Sans', 'Bitstream Vera Sans', 'Computer Modern Sans Serif', 'Lucida Grande', 'Verdana', 'Geneva', 'Lucid', 'Arial', 'Helvetica', 'Avant Garde', sans-serif" font-size="14" font-weight="500">Mayor</text><path fill="#671435" d="M536.03 23.438h28v-9.8h-28z"/><text x="575.232" y="23.438" font-family="'DejaVu Sans', 'Bitstream Vera Sans', 'Computer Modern Sans Serif', 'Lucida Grande', 'Verdana', 'Geneva', 'Lucid', 'Arial', 'Helvetica', 'Avant Garde', sans-serif" font-size="14" font-weight="500">Menor</text><path fill="#9b2247" d="M536.03 43.987h28v-9.8h-28z"/><text x="575.232" y="43.987" font-family="'DejaVu Sans', 'Bitstream Vera Sans', 'Computer Modern Sans Serif', 'Lucida Grande', 'Verdana', 'Geneva', 'Lucid', 'Arial', 'Helvetica', 'Avant Garde', sans-serif" font-size="14" font-weight="500">Mayor</text><path fill="#9d792a" d="M647.12 23.438h28v-9.8h-28z"/><text x="686.32" y="23.438" font-family="'DejaVu Sans', 'Bitstream Vera Sans', 'Computer Modern Sans Serif', 'Lucida Grande', 'Verdana', 'Geneva', 'Lucid', 'Arial', 'Helvetica', 'Avant Garde', sans-serif" font-size="14" font-weight="500">Menor</text><path fill="#d5b162" d="M647.12 43.987h28v-9.8h-28z"/><text x="686.32" y="43.987" font-family="'DejaVu Sans', 'Bitstream Vera Sans', 'Computer Modern Sans Serif', 'Lucida Grande', 'Verdana', 'Geneva', 'Lucid', 'Arial', 'Helvetica', 'Avant Garde', sans-serif" font-size="14" font-weight="500">Mayor</text><defs><clipPath id="a"><path d="M104.41 95.888h946.33v191.38H104.41z"/></clipPath></defs></svg>