<svg xmlns="http://www.w3.org/2000/svg" xmlns:xlink="http://www.w3.org/1999/xlink" width="1411.2" height="476.28" viewBox="0 0 1058.4 357.21"><defs><style>*{stroke-linejoin:round;stroke-linecap:butt}</style></defs><path fill="#fff" d="M0 357.21h1058.4V0H0z"/><path fill="#fff" d="M83.732 282.88h967.43V44.81H83.732z"/><path fill="none" stroke="#000" stroke-linecap="square" stroke-opacity=".2" stroke-width=".75" d="M92.55 282.88V44.81" clip-path="url(#c)"/><defs><path id="e" stroke="#000" stroke-width=".8" d="M0 0v3.5"/></defs><use xlink:href="#e" x="92.55" y="282.88" stroke="#000" stroke-width=".8"/><text fill="#767676" font-family="'Montserrat'" font-size="24" font-weight="600" transform="rotate(-45 455.96 82.615)">2000</text><path fill="none" stroke="#000" stroke-linecap="square" stroke-opacity=".2" stroke-width=".75" d="M233.27 282.88V44.81" clip-path="url(#c)"/><use xlink:href="#e" x="233.271" y="282.88" stroke="#000" stroke-width=".8"/><text fill="#767676" font-family="'Montserrat'" font-size="24" font-weight="600" transform="rotate(-45 526.428 -87.134)">2004</text><path fill="none" stroke="#000" stroke-linecap="square" stroke-opacity=".2" stroke-width=".75" d="M373.99 282.88V44.81" clip-path="url(#c)"/><use xlink:href="#e" x="373.992" y="282.88" stroke="#000" stroke-width=".8"/><text fill="#767676" font-family="'Montserrat'" font-size="24" font-weight="600" transform="rotate(-45 596.348 -257.505)">2008</text><path fill="none" stroke="#000" stroke-linecap="square" stroke-opacity=".2" stroke-width=".75" d="M514.71 282.88V44.81" clip-path="url(#c)"/><use xlink:href="#e" x="514.713" y="282.88" stroke="#000" stroke-width=".8"/><text fill="#767676" font-family="'Montserrat'" font-size="24" font-weight="600" transform="rotate(-45 660.82 -434.15)">2012</text><path fill="none" stroke="#000" stroke-linecap="square" stroke-opacity=".2" stroke-width=".75" d="M655.43 282.88V44.81" clip-path="url(#c)"/><use xlink:href="#e" x="655.434" y="282.88" stroke="#000" stroke-width=".8"/><text fill="#767676" font-family="'Montserrat'" font-size="24" font-weight="600" transform="rotate(-45 731.919 -603.17)">2016</text><path fill="none" stroke="#000" stroke-linecap="square" stroke-opacity=".2" stroke-width=".75" d="M796.16 282.88V44.81" clip-path="url(#c)"/><use xlink:href="#e" x="796.155" y="282.88" stroke="#000" stroke-width=".8"/><text fill="#767676" font-family="'Montserrat'" font-size="24" font-weight="600" transform="rotate(-45 806.291 -768.417)">2020</text><path fill="none" stroke="#000" stroke-linecap="square" stroke-opacity=".2" stroke-width=".75" d="M936.88 282.88V44.81" clip-path="url(#c)"/><use xlink:href="#e" x="936.876" y="282.88" stroke="#000" stroke-width=".8"/><text fill="#767676" font-family="'Montserrat'" font-size="24" font-weight="600" transform="rotate(-45 876.747 -938.17)">2024</text><path fill="none" stroke="#000" stroke-linecap="square" stroke-opacity=".2" stroke-width=".75" d="M83.732 263.93h967.43" clip-path="url(#c)"/><defs><path id="d" stroke="#000" stroke-width=".8" d="M0 0h-3.5"/></defs><use xlink:href="#d" x="83.733" y="263.926" stroke="#000" stroke-width=".8"/><text x="76.733" y="272.831" fill="#767676" font-family="'Montserrat'" font-size="24" font-weight="500" text-anchor="end">500</text><path fill="none" stroke="#000" stroke-linecap="square" stroke-opacity=".2" stroke-width=".75" d="M83.732 233.69h967.43" clip-path="url(#c)"/><use xlink:href="#d" x="83.733" y="233.691" stroke="#000" stroke-width=".8"/><text x="76.733" y="242.595" fill="#767676" font-family="'Montserrat'" font-size="24" font-weight="500" text-anchor="end">1,000</text><path fill="none" stroke="#000" stroke-linecap="square" stroke-opacity=".2" stroke-width=".75" d="M83.732 203.46h967.43" clip-path="url(#c)"/><use xlink:href="#d" x="83.733" y="203.455" stroke="#000" stroke-width=".8"/><text x="76.733" y="212.36" fill="#767676" font-family="'Montserrat'" font-size="24" font-weight="500" text-anchor="end">1,500</text><path fill="none" stroke="#000" stroke-linecap="square" stroke-opacity=".2" stroke-width=".75" d="M83.732 173.22h967.43" clip-path="url(#c)"/><use xlink:href="#d" x="83.733" y="173.22" stroke="#000" stroke-width=".8"/><text x="76.733" y="182.124" fill="#767676" font-family="'Montserrat'" font-size="24" font-weight="500" text-anchor="end">2,000</text><path fill="none" stroke="#000" stroke-linecap="square" stroke-opacity=".2" stroke-width=".75" d="M83.732 142.98h967.43" clip-path="url(#c)"/><use xlink:href="#d" x="83.733" y="142.985" stroke="#000" stroke-width=".8"/><text x="76.733" y="151.889" fill="#767676" font-family="'Montserrat'" font-size="24" font-weight="500" text-anchor="end">2,500</text><path fill="none" stroke="#000" stroke-linecap="square" stroke-opacity=".2" stroke-width=".75" d="M83.732 112.75h967.43" clip-path="url(#c)"/><use xlink:href="#d" x="83.733" y="112.749" stroke="#000" stroke-width=".8"/><text x="76.733" y="121.653" fill="#767676" font-family="'Montserrat'" font-size="24" font-weight="500" text-anchor="end">3,000</text><path fill="none" stroke="#000" stroke-linecap="square" stroke-opacity=".2" stroke-width=".75" d="M83.732 82.514h967.43" clip-path="url(#c)"/><use xlink:href="#d" x="83.733" y="82.514" stroke="#000" stroke-width=".8"/><text x="76.733" y="91.418" fill="#767676" font-family="'Montserrat'" font-size="24" font-weight="500" text-anchor="end">3,500</text><path fill="none" stroke="#000" stroke-linecap="square" stroke-opacity=".2" stroke-width=".75" d="M83.732 52.278h967.43" clip-path="url(#c)"/><use xlink:href="#d" x="83.733" y="52.278" stroke="#000" stroke-width=".8"/><text x="76.733" y="61.182" fill="#767676" font-family="'Montserrat'" font-size="24" font-weight="500" text-anchor="end">4,000</text><path fill="none" stroke="#006157" stroke-linecap="square" stroke-width="2" d="m127.71 267.92 35.156-2.373 35.156-10.433 35.156-1.24 35.252-3.553 35.156-38.078 35.156-27.726 35.156-1.973 35.252-5.339 35.156-13.87 35.156-1.752 35.156-15.694 35.252-8.575 35.156-1.769 35.156-14.819 35.156-5.734 35.252-24.17 35.156-4.042 35.156-2.24 35.156-14.646L831.31 55.63l35.156 188 35.156 11.122 35.156-16.743 35.252 12.76 35.156-15.303" clip-path="url(#c)"/><path fill="none" stroke="#767676" stroke-linecap="square" stroke-width="2" d="m127.71 265.6 35.156-3.789 35.156-11.98 35.156-15.782 35.252-2.085 35.156-15.696 35.156-7.758 35.156-9.532 35.252-15.538 35.156-5.387 35.156-2.51 35.156-16.797 35.252-3.064 35.156-9.567 35.156-6.383 35.156-10.036 35.252-10.356 35.156-19.102 35.156-5.32 35.156-1.745 35.252-2.57 35.156 163.41 35.156 18.053 35.156-12.503 35.252 11.263 35.156-2.832" clip-path="url(#c)"/><path fill="none" stroke="#000" stroke-linecap="square" stroke-width="1.5" d="M83.732 282.88h967.43"/><defs><path id="a" stroke="#006157" d="M0 3.162a3.162 3.162 0 1 0 0-6.325 3.162 3.162 0 0 0 0 6.325z"/></defs><g fill="#006157" stroke="#006157" clip-path="url(#c)"><use xlink:href="#a" x="127.707" y="267.923"/><use xlink:href="#a" x="162.863" y="265.55"/><use xlink:href="#a" x="198.019" y="255.117"/><use xlink:href="#a" x="233.175" y="253.877"/><use xlink:href="#a" x="268.428" y="250.324"/><use xlink:href="#a" x="303.584" y="212.246"/><use xlink:href="#a" x="338.74" y="184.521"/><use xlink:href="#a" x="373.896" y="182.548"/><use xlink:href="#a" x="409.148" y="177.21"/><use xlink:href="#a" x="444.305" y="163.339"/><use xlink:href="#a" x="479.461" y="161.587"/><use xlink:href="#a" x="514.617" y="145.893"/><use xlink:href="#a" x="549.869" y="137.317"/><use xlink:href="#a" x="585.026" y="135.549"/><use xlink:href="#a" x="620.182" y="120.73"/><use xlink:href="#a" x="655.338" y="114.996"/><use xlink:href="#a" x="690.59" y="90.825"/><use xlink:href="#a" x="725.747" y="86.784"/><use xlink:href="#a" x="760.903" y="84.543"/><use xlink:href="#a" x="796.059" y="69.897"/><use xlink:href="#a" x="831.311" y="55.635"/><use xlink:href="#a" x="866.467" y="243.632"/><use xlink:href="#a" x="901.624" y="254.754"/><use xlink:href="#a" x="936.78" y="238.012"/><use xlink:href="#a" x="972.032" y="250.771"/><use xlink:href="#a" x="1007.188" y="235.468"/></g><defs><path id="b" stroke="#767676" d="M0 3.162a3.162 3.162 0 1 0 0-6.325 3.162 3.162 0 0 0 0 6.325z"/></defs><g fill="#767676" stroke="#767676" clip-path="url(#c)"><use xlink:href="#b" x="127.707" y="265.597"/><use xlink:href="#b" x="162.863" y="261.808"/><use xlink:href="#b" x="198.019" y="249.828"/><use xlink:href="#b" x="233.175" y="234.046"/><use xlink:href="#b" x="268.428" y="231.961"/><use xlink:href="#b" x="303.584" y="216.265"/><use xlink:href="#b" x="338.74" y="208.507"/><use xlink:href="#b" x="373.896" y="198.974"/><use xlink:href="#b" x="409.148" y="183.436"/><use xlink:href="#b" x="444.305" y="178.049"/><use xlink:href="#b" x="479.461" y="175.54"/><use xlink:href="#b" x="514.617" y="158.743"/><use xlink:href="#b" x="549.869" y="155.679"/><use xlink:href="#b" x="585.026" y="146.112"/><use xlink:href="#b" x="620.182" y="139.729"/><use xlink:href="#b" x="655.338" y="129.692"/><use xlink:href="#b" x="690.59" y="119.337"/><use xlink:href="#b" x="725.747" y="100.234"/><use xlink:href="#b" x="760.903" y="94.915"/><use xlink:href="#b" x="796.059" y="93.17"/><use xlink:href="#b" x="831.311" y="90.6"/><use xlink:href="#b" x="866.467" y="254.006"/><use xlink:href="#b" x="901.624" y="272.059"/><use xlink:href="#b" x="936.78" y="259.556"/><use xlink:href="#b" x="972.032" y="270.819"/><use xlink:href="#b" x="1007.188" y="267.987"/></g><path fill="#006157" stroke="#fff" stroke-width=".7" d="M105.61 268.81h10.455q11.88 0 11.88-11.88v6.527q0-11.88-11.88-11.88H105.61q-11.88 0-11.88 11.88v-6.527q0 11.88 11.88 11.88z"/><text x="110.838" y="263.477" fill="#fff" font-family="'Montserrat'" font-size="12" font-weight="500" text-anchor="middle">433 </text><path fill="#006157" stroke="#fff" stroke-width=".7" d="M837.31 62.646h21.748q11.88 0 11.88-11.88v6.527q0-11.88-11.88-11.88H837.31q-11.88 0-11.88 11.88v-6.527q0 11.88 11.88 11.88z"/><text x="848.18" y="57.317" fill="#fff" font-family="'Montserrat'" font-size="12" font-weight="500" text-anchor="middle">3,944 </text><path fill="#006157" stroke="#fff" stroke-width=".7" d="M1010.8 230.9h11.282q11.88 0 11.88-11.88v6.527q0-11.88-11.88-11.88H1010.8q-11.88 0-11.88 11.88v-6.527q0 11.88 11.88 11.88z"/><text x="1016.466" y="225.574" fill="#fff" font-family="'Montserrat'" font-size="12" font-weight="500" text-anchor="middle">970 </text><path fill="#767676" stroke="#fff" stroke-width=".7" d="M130.75 257.91h10.791q11.88 0 11.88-11.88v6.527q0-11.88-11.88-11.88H130.75q-11.88 0-11.88 11.88v-6.527q0 11.88 11.88 11.88z"/><text x="136.141" y="252.582" fill="#fff" font-family="'Montserrat'" font-size="12" font-weight="500" text-anchor="middle">472 </text><path fill="#767676" stroke="#fff" stroke-width=".7" d="M830.61 86.035h19.959q11.88 0 11.88-11.88v6.527q0-11.88-11.88-11.88H830.61q-11.88 0-11.88 11.88v-6.527q0 11.88 11.88 11.88z"/><text x="840.589" y="80.706" fill="#fff" font-family="'Montserrat'" font-size="12" font-weight="500" text-anchor="middle">3,366 </text><path fill="#767676" stroke="#fff" stroke-width=".7" d="M905.13 267.49h9.855q11.88 0 11.88-11.88v6.527q0-11.88-11.88-11.88h-9.855q-11.88 0-11.88 11.88v-6.527q0 11.88 11.88 11.88z"/><text x="910.058" y="262.165" fill="#fff" font-family="'Montserrat'" font-size="12" font-weight="500" text-anchor="middle">365 </text><path fill="#767676" stroke="#fff" stroke-width=".7" d="M1010.4 263.42h10.479q11.88 0 11.88-11.88v6.527q0-11.88-11.88-11.88H1010.4q-11.88 0-11.88 11.88v-6.527q0 11.88 11.88 11.88z"/><text x="1015.623" y="258.093" fill="#fff" font-family="'Montserrat'" font-size="12" font-weight="500" text-anchor="middle">432 </text><path fill="none" stroke="gray" stroke-linecap="round" stroke-width=".5" d="m112.84 260.34 12.878.947M846.26 53.472l-13.023-3.773M1014.8 223.46l-6.028 4.346M134.84 250.81l-5.827 6.778M838.97 78.589l-6.028 4.346M908.49 260.12l-5.301 4.204M1014.1 256.05l-5.301 4.204"/><path fill="none" stroke="#006157" stroke-linecap="square" stroke-width="2" d="M357.45 23.341h40"/><text x="413.449" y="30.341" fill="#767676" font-family="'Montserrat'" font-size="20" font-weight="500">Desaparecidos</text><path fill="none" stroke="#767676" stroke-linecap="square" stroke-width="2" d="M603.59 23.341h40"/><text x="659.587" y="30.341" fill="#767676" font-family="'Montserrat'" font-size="20" font-weight="500">Localizados</text><defs><clipPath id="c"><path d="M83.732 44.813h967.43v238.07H83.732z"/></clipPath></defs></svg>