<?xml version="1.0" encoding="UTF-8"?>
<!DOCTYPE svg  PUBLIC '-//W3C//DTD SVG 1.1//EN'  'http://www.w3.org/Graphics/SVG/1.1/DTD/svg11.dtd'>
<svg width="1058.4pt" height="357.21pt" version="1.1" viewBox="0 0 1058.4 357.21" xmlns="http://www.w3.org/2000/svg" xmlns:xlink="http://www.w3.org/1999/xlink">
 <defs>
  <style type="text/css">*{stroke-linejoin: round; stroke-linecap: butt}</style>
 </defs>
 <path d="m0 357.21h1058.4v-357.21h-1058.4z" fill="#fff"/>
 <path d="m83.732 282.88h967.43v-238.07h-967.43z" fill="#fff"/>
 <path d="m92.55 282.88v-238.07" clip-path="url(#c)" fill="none" stroke="#000" stroke-linecap="square" stroke-opacity=".2" stroke-width=".75"/>
 <defs>
  <path id="e" d="m0 0v3.5" stroke="#000" stroke-width=".8"/>
 </defs>
 <use x="92.550435" y="282.879929" stroke="#000000" stroke-width=".8" xlink:href="#e"/>
 <text transform="translate(75.13 346.61) rotate(-45)" fill="#767676" font-family="'Montserrat'" font-size="24px" font-weight="600">2000</text>
 <path d="m233.27 282.88v-238.07" clip-path="url(#c)" fill="none" stroke="#000" stroke-linecap="square" stroke-opacity=".2" stroke-width=".75"/>
 <use x="233.271378" y="282.879929" stroke="#000000" stroke-width=".8" xlink:href="#e"/>
 <text transform="translate(215.8 346.72) rotate(-45)" fill="#767676" font-family="'Montserrat'" font-size="24px" font-weight="600">2004</text>
 <path d="m373.99 282.88v-238.07" clip-path="url(#c)" fill="none" stroke="#000" stroke-linecap="square" stroke-opacity=".2" stroke-width=".75"/>
 <use x="373.992322" y="282.879929" stroke="#000000" stroke-width=".8" xlink:href="#e"/>
 <text transform="translate(356.75 346.26) rotate(-45)" fill="#767676" font-family="'Montserrat'" font-size="24px" font-weight="600">2008</text>
 <path d="m514.71 282.88v-238.07" clip-path="url(#c)" fill="none" stroke="#000" stroke-linecap="square" stroke-opacity=".2" stroke-width=".75"/>
 <use x="514.713265" y="282.879929" stroke="#000000" stroke-width=".8" xlink:href="#e"/>
 <text transform="translate(500.54 340.11) rotate(-45)" fill="#767676" font-family="'Montserrat'" font-size="24px" font-weight="600">2012</text>
 <path d="m655.43 282.88v-238.07" clip-path="url(#c)" fill="none" stroke="#000" stroke-linecap="square" stroke-opacity=".2" stroke-width=".75"/>
 <use x="655.434209" y="282.879929" stroke="#000000" stroke-width=".8" xlink:href="#e"/>
 <text transform="translate(640.88 340.88) rotate(-45)" fill="#767676" font-family="'Montserrat'" font-size="24px" font-weight="600">2016</text>
 <path d="m796.16 282.88v-238.07" clip-path="url(#c)" fill="none" stroke="#000" stroke-linecap="square" stroke-opacity=".2" stroke-width=".75"/>
 <use x="796.155153" y="282.879929" stroke="#000000" stroke-width=".8" xlink:href="#e"/>
 <text transform="translate(779.51 345.07) rotate(-45)" fill="#767676" font-family="'Montserrat'" font-size="24px" font-weight="600">2020</text>
 <path d="m936.88 282.88v-238.07" clip-path="url(#c)" fill="none" stroke="#000" stroke-linecap="square" stroke-opacity=".2" stroke-width=".75"/>
 <use x="936.876096" y="282.879929" stroke="#000000" stroke-width=".8" xlink:href="#e"/>
 <text transform="translate(920.18 345.17) rotate(-45)" fill="#767676" font-family="'Montserrat'" font-size="24px" font-weight="600">2024</text>
 <path d="m83.732 263.93h967.43" clip-path="url(#c)" fill="none" stroke="#000" stroke-linecap="square" stroke-opacity=".2" stroke-width=".75"/>
 <defs>
  <path id="d" d="m0 0h-3.5" stroke="#000" stroke-width=".8"/>
 </defs>
 <use x="83.7325" y="263.926462" stroke="#000000" stroke-width=".8" xlink:href="#d"/>
 <text transform="rotate(-0 76.732 272.83)" x="76.7325" y="272.830837" fill="#767676" font-family="'Montserrat'" font-size="24px" font-weight="500" text-anchor="end">500</text>
 <path d="m83.732 233.69h967.43" clip-path="url(#c)" fill="none" stroke="#000" stroke-linecap="square" stroke-opacity=".2" stroke-width=".75"/>
 <use x="83.7325" y="233.690975" stroke="#000000" stroke-width=".8" xlink:href="#d"/>
 <text transform="rotate(-0 76.732 242.6)" x="76.7325" y="242.59535" fill="#767676" font-family="'Montserrat'" font-size="24px" font-weight="500" text-anchor="end">1,000</text>
 <path d="m83.732 203.46h967.43" clip-path="url(#c)" fill="none" stroke="#000" stroke-linecap="square" stroke-opacity=".2" stroke-width=".75"/>
 <use x="83.7325" y="203.455488" stroke="#000000" stroke-width=".8" xlink:href="#d"/>
 <text transform="rotate(-0 76.732 212.36)" x="76.7325" y="212.359863" fill="#767676" font-family="'Montserrat'" font-size="24px" font-weight="500" text-anchor="end">1,500</text>
 <path d="m83.732 173.22h967.43" clip-path="url(#c)" fill="none" stroke="#000" stroke-linecap="square" stroke-opacity=".2" stroke-width=".75"/>
 <use x="83.7325" y="173.220001" stroke="#000000" stroke-width=".8" xlink:href="#d"/>
 <text transform="rotate(-0 76.732 182.12)" x="76.7325" y="182.124376" fill="#767676" font-family="'Montserrat'" font-size="24px" font-weight="500" text-anchor="end">2,000</text>
 <path d="m83.732 142.98h967.43" clip-path="url(#c)" fill="none" stroke="#000" stroke-linecap="square" stroke-opacity=".2" stroke-width=".75"/>
 <use x="83.7325" y="142.984514" stroke="#000000" stroke-width=".8" xlink:href="#d"/>
 <text transform="rotate(-0 76.732 151.89)" x="76.7325" y="151.888889" fill="#767676" font-family="'Montserrat'" font-size="24px" font-weight="500" text-anchor="end">2,500</text>
 <path d="m83.732 112.75h967.43" clip-path="url(#c)" fill="none" stroke="#000" stroke-linecap="square" stroke-opacity=".2" stroke-width=".75"/>
 <use x="83.7325" y="112.749028" stroke="#000000" stroke-width=".8" xlink:href="#d"/>
 <text transform="rotate(-0 76.732 121.65)" x="76.7325" y="121.653403" fill="#767676" font-family="'Montserrat'" font-size="24px" font-weight="500" text-anchor="end">3,000</text>
 <path d="m83.732 82.514h967.43" clip-path="url(#c)" fill="none" stroke="#000" stroke-linecap="square" stroke-opacity=".2" stroke-width=".75"/>
 <use x="83.7325" y="82.513541" stroke="#000000" stroke-width=".8" xlink:href="#d"/>
 <text transform="rotate(-0 76.732 91.418)" x="76.7325" y="91.417916" fill="#767676" font-family="'Montserrat'" font-size="24px" font-weight="500" text-anchor="end">3,500</text>
 <path d="m83.732 52.278h967.43" clip-path="url(#c)" fill="none" stroke="#000" stroke-linecap="square" stroke-opacity=".2" stroke-width=".75"/>
 <use x="83.7325" y="52.278054" stroke="#000000" stroke-width=".8" xlink:href="#d"/>
 <text transform="rotate(-0 76.732 61.182)" x="76.7325" y="61.182429" fill="#767676" font-family="'Montserrat'" font-size="24px" font-weight="500" text-anchor="end">4,000</text>
 <path d="m127.71 267.92 35.156-2.3735 35.156-10.433 35.156-1.2393 35.252-3.5535 35.156-38.078 35.156-27.726 35.156-1.9726 35.252-5.3388 35.156-13.87 35.156-1.7524 35.156-15.694 35.252-8.5753 35.156-1.7682 35.156-14.819 35.156-5.734 35.252-24.171 35.156-4.0411 35.156-2.2408 35.156-14.646 35.252-14.263 35.156 188 35.156 11.122 35.156-16.743 35.252 12.76 35.156-15.303" clip-path="url(#c)" fill="none" stroke="#006157" stroke-linecap="square" stroke-width="2"/>
 <path d="m127.71 265.6 35.156-3.7888 35.156-11.98 35.156-15.782 35.252-2.085 35.156-15.696 35.156-7.758 35.156-9.5327 35.252-15.538 35.156-5.3869 35.156-2.5093 35.156-16.797 35.252-3.0641 35.156-9.5675 35.156-6.3829 35.156-10.036 35.252-10.356 35.156-19.102 35.156-5.3196 35.156-1.7452 35.252-2.5698 35.156 163.41 35.156 18.053 35.156-12.503 35.252 11.263 35.156-2.8324" clip-path="url(#c)" fill="none" stroke="#767676" stroke-linecap="square" stroke-width="2"/>
 <path d="m83.732 282.88h967.43" fill="none" stroke="#000" stroke-linecap="square" stroke-width="1.5"/>
 <defs>
  <path id="a" d="m0 3.1623c0.83865 0 1.6431-0.3332 2.2361-0.92621s0.92621-1.3974 0.92621-2.2361-0.3332-1.6431-0.92621-2.2361-1.3974-0.92621-2.2361-0.92621-1.6431 0.3332-2.2361 0.92621-0.92621 1.3974-0.92621 2.2361 0.3332 1.6431 0.92621 2.2361 1.3974 0.92621 2.2361 0.92621z" stroke="#006157"/>
 </defs>
 <g clip-path="url(#c)" fill="#006157" stroke="#006157">
  <use x="127.706591" y="267.923249" xlink:href="#a"/>
  <use x="162.862747" y="265.549747" xlink:href="#a"/>
  <use x="198.018904" y="255.116768" xlink:href="#a"/>
  <use x="233.17506" y="253.877449" xlink:href="#a"/>
  <use x="268.427535" y="250.323998" xlink:href="#a"/>
  <use x="303.583691" y="212.246397" xlink:href="#a"/>
  <use x="338.739847" y="184.520891" xlink:href="#a"/>
  <use x="373.896004" y="182.548332" xlink:href="#a"/>
  <use x="409.148478" y="177.209551" xlink:href="#a"/>
  <use x="444.304635" y="163.339395" xlink:href="#a"/>
  <use x="479.460791" y="161.587042" xlink:href="#a"/>
  <use x="514.616947" y="145.892684" xlink:href="#a"/>
  <use x="549.869422" y="137.317335" xlink:href="#a"/>
  <use x="585.025578" y="135.549133" xlink:href="#a"/>
  <use x="620.181735" y="120.730284" xlink:href="#a"/>
  <use x="655.337891" y="114.996326" xlink:href="#a"/>
  <use x="690.590365" y="90.825324" xlink:href="#a"/>
  <use x="725.746522" y="86.7842" xlink:href="#a"/>
  <use x="760.902678" y="84.543394" xlink:href="#a"/>
  <use x="796.058835" y="69.897366" xlink:href="#a"/>
  <use x="831.311309" y="55.634531" xlink:href="#a"/>
  <use x="866.467465" y="243.632284" xlink:href="#a"/>
  <use x="901.623622" y="254.754358" xlink:href="#a"/>
  <use x="936.779778" y="238.011819" xlink:href="#a"/>
  <use x="972.032253" y="250.771405" xlink:href="#a"/>
  <use x="1007.188409" y="235.468124" xlink:href="#a"/>
 </g>
 <defs>
  <path id="b" d="m0 3.1623c0.83865 0 1.6431-0.3332 2.2361-0.92621s0.92621-1.3974 0.92621-2.2361-0.3332-1.6431-0.92621-2.2361-1.3974-0.92621-2.2361-0.92621-1.6431 0.3332-2.2361 0.92621-0.92621 1.3974-0.92621 2.2361 0.3332 1.6431 0.92621 2.2361 1.3974 0.92621 2.2361 0.92621z" stroke="#767676"/>
 </defs>
 <g clip-path="url(#c)" fill="#767676" stroke="#767676">
  <use x="127.706591" y="265.596876" xlink:href="#b"/>
  <use x="162.862747" y="261.808107" xlink:href="#b"/>
  <use x="198.018904" y="249.827708" xlink:href="#b"/>
  <use x="233.17506" y="234.046023" xlink:href="#b"/>
  <use x="268.427535" y="231.961011" xlink:href="#b"/>
  <use x="303.583691" y="216.265202" xlink:href="#b"/>
  <use x="338.739847" y="208.507163" xlink:href="#b"/>
  <use x="373.896004" y="198.974458" xlink:href="#b"/>
  <use x="409.148478" y="183.436239" xlink:href="#b"/>
  <use x="444.304635" y="178.049317" xlink:href="#b"/>
  <use x="479.460791" y="175.539997" xlink:href="#b"/>
  <use x="514.616947" y="158.743215" xlink:href="#b"/>
  <use x="549.869422" y="155.679153" xlink:href="#b"/>
  <use x="585.025578" y="146.111604" xlink:href="#b"/>
  <use x="620.181735" y="139.728725" xlink:href="#b"/>
  <use x="655.337891" y="129.69246" xlink:href="#b"/>
  <use x="690.590365" y="119.336543" xlink:href="#b"/>
  <use x="725.746522" y="100.234366" xlink:href="#b"/>
  <use x="760.902678" y="94.914721" xlink:href="#b"/>
  <use x="796.058835" y="93.169569" xlink:href="#b"/>
  <use x="831.311309" y="90.599759" xlink:href="#b"/>
  <use x="866.467465" y="254.005725" xlink:href="#b"/>
  <use x="901.623622" y="272.05872" xlink:href="#b"/>
  <use x="936.779778" y="259.556191" xlink:href="#b"/>
  <use x="972.032253" y="270.818964" xlink:href="#b"/>
  <use x="1007.188409" y="267.9866" xlink:href="#b"/>
 </g>
 <path d="m105.61 268.81h10.455q11.88 0 11.88-11.88v6.5269q0-11.88-11.88-11.88h-10.455q-11.88 0-11.88 11.88v-6.5269q0 11.88 11.88 11.88z" fill="#006157" stroke="#fff" stroke-width=".7"/>
 <text transform="rotate(-0 110.84 263.48)" x="110.837716" y="263.477277" fill="#ffffff" font-family="'Montserrat'" font-size="12px" font-weight="500" text-anchor="middle">433 </text>
 <path d="m837.31 62.646h21.748q11.88 0 11.88-11.88v6.5269q0-11.88-11.88-11.88h-21.748q-11.88 0-11.88 11.88v-6.5269q0 11.88 11.88 11.88z" fill="#006157" stroke="#fff" stroke-width=".7"/>
 <text transform="rotate(-0 848.18 57.317)" x="848.180184" y="57.316999" fill="#ffffff" font-family="'Montserrat'" font-size="12px" font-weight="500" text-anchor="middle">3,944 </text>
 <path d="m1010.8 230.9h11.282q11.88 0 11.88-11.88v6.5269q0-11.88-11.88-11.88h-11.282q-11.88 0-11.88 11.88v-6.5269q0 11.88 11.88 11.88z" fill="#006157" stroke="#fff" stroke-width=".7"/>
 <text transform="rotate(-0 1016.5 225.57)" x="1016.466291" y="225.574276" fill="#ffffff" font-family="'Montserrat'" font-size="12px" font-weight="500" text-anchor="middle">970 </text>
 <path d="m130.75 257.91h10.791q11.88 0 11.88-11.88v6.5269q0-11.88-11.88-11.88h-10.791q-11.88 0-11.88 11.88v-6.5269q0 11.88 11.88 11.88z" fill="#767676" stroke="#fff" stroke-width=".7"/>
 <text transform="rotate(-0 136.14 252.58)" x="136.141029" y="252.581526" fill="#ffffff" font-family="'Montserrat'" font-size="12px" font-weight="500" text-anchor="middle">472 </text>
 <path d="m830.61 86.035h19.959q11.88 0 11.88-11.88v6.5269q0-11.88-11.88-11.88h-19.959q-11.88 0-11.88 11.88v-6.5269q0 11.88 11.88 11.88z" fill="#767676" stroke="#fff" stroke-width=".7"/>
 <text transform="rotate(-0 840.59 80.706)" x="840.589191" y="80.705912" fill="#ffffff" font-family="'Montserrat'" font-size="12px" font-weight="500" text-anchor="middle">3,366 </text>
 <path d="m905.13 267.49h9.855q11.88 0 11.88-11.88v6.5269q0-11.88-11.88-11.88h-9.855q-11.88 0-11.88 11.88v-6.5269q0 11.88 11.88 11.88z" fill="#767676" stroke="#fff" stroke-width=".7"/>
 <text transform="rotate(-0 910.06 262.16)" x="910.058059" y="262.164872" fill="#ffffff" font-family="'Montserrat'" font-size="12px" font-weight="500" text-anchor="middle">365 </text>
 <path d="m1010.4 263.42h10.479q11.88 0 11.88-11.88v6.5269q0-11.88-11.88-11.88h-10.479q-11.88 0-11.88 11.88v-6.5269q0 11.88 11.88 11.88z" fill="#767676" stroke="#fff" stroke-width=".7"/>
 <text transform="rotate(-0 1015.6 258.09)" x="1015.622847" y="258.092752" fill="#ffffff" font-family="'Montserrat'" font-size="12px" font-weight="500" text-anchor="middle">432 </text>
 <path d="m112.84 260.34q6.4391 0.47373 12.878 0.94746" fill="none" stroke="#808080" stroke-linecap="round" stroke-width=".5"/>
 <path d="m846.26 53.472q-6.5113-1.8865-13.023-3.773" fill="none" stroke="#808080" stroke-linecap="round" stroke-width=".5"/>
 <path d="m1014.8 223.46q-3.0141 2.173-6.0281 4.346" fill="none" stroke="#808080" stroke-linecap="round" stroke-width=".5"/>
 <path d="m134.84 250.81q-2.9135 3.3888-5.827 6.7776" fill="none" stroke="#808080" stroke-linecap="round" stroke-width=".5"/>
 <path d="m838.97 78.589q-3.0141 2.173-6.0281 4.346" fill="none" stroke="#808080" stroke-linecap="round" stroke-width=".5"/>
 <path d="m908.49 260.12q-2.6507 2.1022-5.3014 4.2043" fill="none" stroke="#808080" stroke-linecap="round" stroke-width=".5"/>
 <path d="m1014.1 256.05q-2.6507 2.1022-5.3014 4.2043" fill="none" stroke="#808080" stroke-linecap="round" stroke-width=".5"/>
 <path d="m357.45 23.341h20 20" fill="none" stroke="#006157" stroke-linecap="square" stroke-width="2"/>
 <text transform="rotate(-0 413.45 30.341)" x="413.449063" y="30.340625" fill="#767676" font-family="'Montserrat'" font-size="20px" font-weight="500">Desaparecidos</text>
 <path d="m603.59 23.341h20 20" fill="none" stroke="#767676" stroke-linecap="square" stroke-width="2"/>
 <text transform="rotate(-0 659.59 30.341)" x="659.586563" y="30.340625" fill="#767676" font-family="'Montserrat'" font-size="20px" font-weight="500">Localizados</text>
 <defs>
  <clipPath id="c">
   <rect x="83.732" y="44.813" width="967.43" height="238.07"/>
  </clipPath>
 </defs>
</svg>
