<?xml version="1.0" encoding="utf-8" standalone="no"?>
<!DOCTYPE svg PUBLIC "-//W3C//DTD SVG 1.1//EN"
  "http://www.w3.org/Graphics/SVG/1.1/DTD/svg11.dtd">
<svg xmlns:xlink="http://www.w3.org/1999/xlink" width="1058.3325pt" height="357.208755pt" viewBox="0 0 1058.3325 357.208755" xmlns="http://www.w3.org/2000/svg" version="1.1">
 <metadata>
  <rdf:RDF xmlns:dc="http://purl.org/dc/elements/1.1/" xmlns:cc="http://creativecommons.org/ns#" xmlns:rdf="http://www.w3.org/1999/02/22-rdf-syntax-ns#">
   <cc:Work>
    <dc:type rdf:resource="http://purl.org/dc/dcmitype/StillImage"/>
    <dc:date>2025-05-29T16:35:45.909018</dc:date>
    <dc:format>image/svg+xml</dc:format>
    <dc:creator>
     <cc:Agent>
      <dc:title>Matplotlib v3.10.0, https://matplotlib.org/</dc:title>
     </cc:Agent>
    </dc:creator>
   </cc:Work>
  </rdf:RDF>
 </metadata>
 <defs>
  <style type="text/css">*{stroke-linejoin: round; stroke-linecap: butt}</style>
 </defs>
 <g id="figure_1">
  <g id="patch_1">
   <path d="M -0 357.208755 
L 1058.3325 357.208755 
L 1058.3325 0 
L -0 0 
z
" style="fill: #ffffff"/>
  </g>
  <g id="axes_1">
   <g id="patch_2">
    <path d="M 81.4525 282.879929 
L 1051.1325 282.879929 
L 1051.1325 44.813322 
L 81.4525 44.813322 
z
" style="fill: #ffffff"/>
   </g>
   <g id="matplotlib.axis_1">
    <g id="xtick_1">
     <g id="line2d_1">
      <path d="M 90.290943 282.879929 
L 90.290943 44.813322 
" clip-path="url(#pbd2f84a063)" style="fill: none; stroke: #000000; stroke-opacity: 0.2; stroke-width: 0.75; stroke-linecap: square"/>
     </g>
     <g id="line2d_2">
      <defs>
       <path id="m7db6bd4705" d="M 0 0 
L 0 3.5 
" style="stroke: #000000; stroke-width: 0.8"/>
      </defs>
      <g>
       <use xlink:href="#m7db6bd4705" x="90.290943" y="282.879929" style="stroke: #000000; stroke-width: 0.8"/>
      </g>
     </g>
     <g id="text_1">
      <text style="font-weight: 600; font-size: 24px; font-family: 'Montserrat'; fill: #767676" transform="translate(72.870925 346.61199) rotate(-45)">2000</text>
     </g>
    </g>
    <g id="xtick_2">
     <g id="line2d_3">
      <path d="M 231.339168 282.879929 
L 231.339168 44.813322 
" clip-path="url(#pbd2f84a063)" style="fill: none; stroke: #000000; stroke-opacity: 0.2; stroke-width: 0.75; stroke-linecap: square"/>
     </g>
     <g id="line2d_4">
      <g>
       <use xlink:href="#m7db6bd4705" x="231.339168" y="282.879929" style="stroke: #000000; stroke-width: 0.8"/>
      </g>
     </g>
     <g id="text_2">
      <text style="font-weight: 600; font-size: 24px; font-family: 'Montserrat'; fill: #767676" transform="translate(213.867444 346.715405) rotate(-45)">2004</text>
     </g>
    </g>
    <g id="xtick_3">
     <g id="line2d_5">
      <path d="M 372.387394 282.879929 
L 372.387394 44.813322 
" clip-path="url(#pbd2f84a063)" style="fill: none; stroke: #000000; stroke-opacity: 0.2; stroke-width: 0.75; stroke-linecap: square"/>
     </g>
     <g id="line2d_6">
      <g>
       <use xlink:href="#m7db6bd4705" x="372.387394" y="282.879929" style="stroke: #000000; stroke-width: 0.8"/>
      </g>
     </g>
     <g id="text_3">
      <text style="font-weight: 600; font-size: 24px; font-family: 'Montserrat'; fill: #767676" transform="translate(355.145037 346.256669) rotate(-45)">2008</text>
     </g>
    </g>
    <g id="xtick_4">
     <g id="line2d_7">
      <path d="M 513.435619 282.879929 
L 513.435619 44.813322 
" clip-path="url(#pbd2f84a063)" style="fill: none; stroke: #000000; stroke-opacity: 0.2; stroke-width: 0.75; stroke-linecap: square"/>
     </g>
     <g id="line2d_8">
      <g>
       <use xlink:href="#m7db6bd4705" x="513.435619" y="282.879929" style="stroke: #000000; stroke-width: 0.8"/>
      </g>
     </g>
     <g id="text_4">
      <text style="font-weight: 600; font-size: 24px; font-family: 'Montserrat'; fill: #767676" transform="translate(499.265199 340.112795) rotate(-45)">2012</text>
     </g>
    </g>
    <g id="xtick_5">
     <g id="line2d_9">
      <path d="M 654.483844 282.879929 
L 654.483844 44.813322 
" clip-path="url(#pbd2f84a063)" style="fill: none; stroke: #000000; stroke-opacity: 0.2; stroke-width: 0.75; stroke-linecap: square"/>
     </g>
     <g id="line2d_10">
      <g>
       <use xlink:href="#m7db6bd4705" x="654.483844" y="282.879929" style="stroke: #000000; stroke-width: 0.8"/>
      </g>
     </g>
     <g id="text_5">
      <text style="font-weight: 600; font-size: 24px; font-family: 'Montserrat'; fill: #767676" transform="translate(639.931587 340.876471) rotate(-45)">2016</text>
     </g>
    </g>
    <g id="xtick_6">
     <g id="line2d_11">
      <path d="M 795.532069 282.879929 
L 795.532069 44.813322 
" clip-path="url(#pbd2f84a063)" style="fill: none; stroke: #000000; stroke-opacity: 0.2; stroke-width: 0.75; stroke-linecap: square"/>
     </g>
     <g id="line2d_12">
      <g>
       <use xlink:href="#m7db6bd4705" x="795.532069" y="282.879929" style="stroke: #000000; stroke-width: 0.8"/>
      </g>
     </g>
     <g id="text_6">
      <text style="font-weight: 600; font-size: 24px; font-family: 'Montserrat'; fill: #767676" transform="translate(778.883682 345.06873) rotate(-45)">2020</text>
     </g>
    </g>
    <g id="xtick_7">
     <g id="line2d_13">
      <path d="M 936.580295 282.879929 
L 936.580295 44.813322 
" clip-path="url(#pbd2f84a063)" style="fill: none; stroke: #000000; stroke-opacity: 0.2; stroke-width: 0.75; stroke-linecap: square"/>
     </g>
     <g id="line2d_14">
      <g>
       <use xlink:href="#m7db6bd4705" x="936.580295" y="282.879929" style="stroke: #000000; stroke-width: 0.8"/>
      </g>
     </g>
     <g id="text_7">
      <text style="font-weight: 600; font-size: 24px; font-family: 'Montserrat'; fill: #767676" transform="translate(919.8802 345.172144) rotate(-45)">2024</text>
     </g>
    </g>
   </g>
   <g id="matplotlib.axis_2">
    <g id="ytick_1">
     <g id="line2d_15">
      <path d="M 81.4525 278.052453 
L 1051.1325 278.052453 
" clip-path="url(#pbd2f84a063)" style="fill: none; stroke: #000000; stroke-opacity: 0.2; stroke-width: 0.75; stroke-linecap: square"/>
     </g>
     <g id="line2d_16">
      <defs>
       <path id="m920c7036bd" d="M 0 0 
L -3.5 0 
" style="stroke: #000000; stroke-width: 0.8"/>
      </defs>
      <g>
       <use xlink:href="#m920c7036bd" x="81.4525" y="278.052453" style="stroke: #000000; stroke-width: 0.8"/>
      </g>
     </g>
     <g id="text_8">
      <text style="font-weight: 500; font-size: 24px; font-family: 'Montserrat'; text-anchor: end; fill: #767676" x="74.4525" y="286.956828" transform="rotate(-0 74.4525 286.956828)">0</text>
     </g>
    </g>
    <g id="ytick_2">
     <g id="line2d_17">
      <path d="M 81.4525 247.718954 
L 1051.1325 247.718954 
" clip-path="url(#pbd2f84a063)" style="fill: none; stroke: #000000; stroke-opacity: 0.2; stroke-width: 0.75; stroke-linecap: square"/>
     </g>
     <g id="line2d_18">
      <g>
       <use xlink:href="#m920c7036bd" x="81.4525" y="247.718954" style="stroke: #000000; stroke-width: 0.8"/>
      </g>
     </g>
     <g id="text_9">
      <text style="font-weight: 500; font-size: 24px; font-family: 'Montserrat'; text-anchor: end; fill: #767676" x="74.4525" y="256.623329" transform="rotate(-0 74.4525 256.623329)">500</text>
     </g>
    </g>
    <g id="ytick_3">
     <g id="line2d_19">
      <path d="M 81.4525 217.385456 
L 1051.1325 217.385456 
" clip-path="url(#pbd2f84a063)" style="fill: none; stroke: #000000; stroke-opacity: 0.2; stroke-width: 0.75; stroke-linecap: square"/>
     </g>
     <g id="line2d_20">
      <g>
       <use xlink:href="#m920c7036bd" x="81.4525" y="217.385456" style="stroke: #000000; stroke-width: 0.8"/>
      </g>
     </g>
     <g id="text_10">
      <text style="font-weight: 500; font-size: 24px; font-family: 'Montserrat'; text-anchor: end; fill: #767676" x="74.4525" y="226.289831" transform="rotate(-0 74.4525 226.289831)">1,000</text>
     </g>
    </g>
    <g id="ytick_4">
     <g id="line2d_21">
      <path d="M 81.4525 187.051957 
L 1051.1325 187.051957 
" clip-path="url(#pbd2f84a063)" style="fill: none; stroke: #000000; stroke-opacity: 0.2; stroke-width: 0.75; stroke-linecap: square"/>
     </g>
     <g id="line2d_22">
      <g>
       <use xlink:href="#m920c7036bd" x="81.4525" y="187.051957" style="stroke: #000000; stroke-width: 0.8"/>
      </g>
     </g>
     <g id="text_11">
      <text style="font-weight: 500; font-size: 24px; font-family: 'Montserrat'; text-anchor: end; fill: #767676" x="74.4525" y="195.956332" transform="rotate(-0 74.4525 195.956332)">1,500</text>
     </g>
    </g>
    <g id="ytick_5">
     <g id="line2d_23">
      <path d="M 81.4525 156.718458 
L 1051.1325 156.718458 
" clip-path="url(#pbd2f84a063)" style="fill: none; stroke: #000000; stroke-opacity: 0.2; stroke-width: 0.75; stroke-linecap: square"/>
     </g>
     <g id="line2d_24">
      <g>
       <use xlink:href="#m920c7036bd" x="81.4525" y="156.718458" style="stroke: #000000; stroke-width: 0.8"/>
      </g>
     </g>
     <g id="text_12">
      <text style="font-weight: 500; font-size: 24px; font-family: 'Montserrat'; text-anchor: end; fill: #767676" x="74.4525" y="165.622833" transform="rotate(-0 74.4525 165.622833)">2,000</text>
     </g>
    </g>
    <g id="ytick_6">
     <g id="line2d_25">
      <path d="M 81.4525 126.38496 
L 1051.1325 126.38496 
" clip-path="url(#pbd2f84a063)" style="fill: none; stroke: #000000; stroke-opacity: 0.2; stroke-width: 0.75; stroke-linecap: square"/>
     </g>
     <g id="line2d_26">
      <g>
       <use xlink:href="#m920c7036bd" x="81.4525" y="126.38496" style="stroke: #000000; stroke-width: 0.8"/>
      </g>
     </g>
     <g id="text_13">
      <text style="font-weight: 500; font-size: 24px; font-family: 'Montserrat'; text-anchor: end; fill: #767676" x="74.4525" y="135.289335" transform="rotate(-0 74.4525 135.289335)">2,500</text>
     </g>
    </g>
    <g id="ytick_7">
     <g id="line2d_27">
      <path d="M 81.4525 96.051461 
L 1051.1325 96.051461 
" clip-path="url(#pbd2f84a063)" style="fill: none; stroke: #000000; stroke-opacity: 0.2; stroke-width: 0.75; stroke-linecap: square"/>
     </g>
     <g id="line2d_28">
      <g>
       <use xlink:href="#m920c7036bd" x="81.4525" y="96.051461" style="stroke: #000000; stroke-width: 0.8"/>
      </g>
     </g>
     <g id="text_14">
      <text style="font-weight: 500; font-size: 24px; font-family: 'Montserrat'; text-anchor: end; fill: #767676" x="74.4525" y="104.955836" transform="rotate(-0 74.4525 104.955836)">3,000</text>
     </g>
    </g>
    <g id="ytick_8">
     <g id="line2d_29">
      <path d="M 81.4525 65.717963 
L 1051.1325 65.717963 
" clip-path="url(#pbd2f84a063)" style="fill: none; stroke: #000000; stroke-opacity: 0.2; stroke-width: 0.75; stroke-linecap: square"/>
     </g>
     <g id="line2d_30">
      <g>
       <use xlink:href="#m920c7036bd" x="81.4525" y="65.717963" style="stroke: #000000; stroke-width: 0.8"/>
      </g>
     </g>
     <g id="text_15">
      <text style="font-weight: 500; font-size: 24px; font-family: 'Montserrat'; text-anchor: end; fill: #767676" x="74.4525" y="74.622338" transform="rotate(-0 74.4525 74.622338)">3,500</text>
     </g>
    </g>
   </g>
   <g id="line2d_31">
    <path d="M 125.528864 264.76846 
L 160.766784 252.11469 
L 196.004705 238.868687 
L 231.242626 238.118221 
L 266.577089 235.212357 
L 301.81501 212.028756 
L 337.052931 209.88138 
L 372.290851 208.126196 
L 407.625314 161.357 
L 442.863235 152.582188 
L 478.101156 136.171216 
L 513.339077 117.301263 
L 548.67354 115.368574 
L 583.91146 111.756604 
L 619.149381 90.819292 
L 654.387302 70.088871 
L 689.721765 69.596906 
L 724.959686 65.406379 
L 760.197606 61.677244 
L 795.435527 59.795041 
L 830.76999 55.634531 
L 866.007911 240.13592 
L 901.245832 218.063617 
L 936.483753 219.108955 
L 971.818216 220.84912 
L 1007.056136 237.559129 
" clip-path="url(#pbd2f84a063)" style="fill: none; stroke: #006157; stroke-width: 2; stroke-linecap: square"/>
   </g>
   <g id="line2d_32">
    <path d="M 125.528864 263.369173 
L 160.766784 262.298846 
L 196.004705 252.455607 
L 231.242626 229.788221 
L 266.577089 225.360651 
L 301.81501 210.991133 
L 337.052931 210.729902 
L 372.290851 204.104876 
L 407.625314 201.077398 
L 442.863235 200.730274 
L 478.101156 192.053009 
L 513.339077 188.537028 
L 548.67354 175.758934 
L 583.91146 172.558216 
L 619.149381 162.36004 
L 654.387302 144.630914 
L 689.721765 136.601701 
L 724.959686 113.33593 
L 760.197606 91.646222 
L 795.435527 91.431877 
L 830.76999 81.162525 
L 866.007911 252.049684 
L 901.245832 233.439011 
L 936.483753 254.63447 
L 971.818216 240.683669 
L 1007.056136 251.754444 
" clip-path="url(#pbd2f84a063)" style="fill: none; stroke: #767676; stroke-width: 2; stroke-linecap: square"/>
   </g>
   <g id="line2d_33">
    <path d="M 125.528864 242.77033 
L 160.766784 236.865277 
L 196.004705 233.027286 
L 231.242626 231.109513 
L 266.577089 208.396778 
L 301.81501 204.167811 
L 337.052931 200.451906 
L 372.290851 195.351028 
L 407.625314 192.564014 
L 442.863235 176.111047 
L 478.101156 161.685611 
L 513.339077 151.928732 
L 548.67354 150.936669 
L 583.91146 149.62872 
L 619.149381 148.557084 
L 654.387302 136.613783 
L 689.721765 121.447877 
L 724.959686 121.038004 
L 760.197606 113.247203 
L 795.435527 112.826306 
L 830.76999 106.585763 
L 866.007911 260.632191 
L 901.245832 247.712012 
L 936.483753 268.899375 
L 971.818216 248.504173 
L 1007.056136 243.886413 
" clip-path="url(#pbd2f84a063)" style="fill: none; stroke: #671435; stroke-width: 2; stroke-linecap: square"/>
   </g>
   <g id="line2d_34">
    <path d="M 125.528864 247.548063 
L 160.766784 243.002974 
L 196.004705 236.569496 
L 231.242626 234.729162 
L 266.577089 234.419128 
L 301.81501 229.97553 
L 337.052931 228.494748 
L 372.290851 221.213338 
L 407.625314 220.490226 
L 442.863235 207.282696 
L 478.101156 203.171667 
L 513.339077 191.709071 
L 548.67354 186.596686 
L 583.91146 183.444594 
L 619.149381 179.368032 
L 654.387302 175.656821 
L 689.721765 165.273213 
L 724.959686 157.952456 
L 760.197606 147.021844 
L 795.435527 143.267439 
L 830.76999 143.046266 
L 866.007911 260.233703 
L 901.245832 272.05872 
L 936.483753 255.667778 
L 971.818216 251.304787 
L 1007.056136 261.169167 
" clip-path="url(#pbd2f84a063)" style="fill: none; stroke: #9b2247; stroke-width: 2; stroke-linecap: square"/>
   </g>
   <g id="patch_3">
    <path d="M 81.4525 282.879929 
L 1051.1325 282.879929 
" style="fill: none; stroke: #000000; stroke-width: 1.5; stroke-linejoin: miter; stroke-linecap: square"/>
   </g>
   <g id="PathCollection_1">
    <defs>
     <path id="m9a0090fa16" d="M 0 3.162278 
C 0.838646 3.162278 1.643056 2.82908 2.236068 2.236068 
C 2.82908 1.643056 3.162278 0.838646 3.162278 0 
C 3.162278 -0.838646 2.82908 -1.643056 2.236068 -2.236068 
C 1.643056 -2.82908 0.838646 -3.162278 0 -3.162278 
C -0.838646 -3.162278 -1.643056 -2.82908 -2.236068 -2.236068 
C -2.82908 -1.643056 -3.162278 -0.838646 -3.162278 0 
C -3.162278 0.838646 -2.82908 1.643056 -2.236068 2.236068 
C -1.643056 2.82908 -0.838646 3.162278 0 3.162278 
z
" style="stroke: #006157"/>
    </defs>
    <g clip-path="url(#pbd2f84a063)">
     <use xlink:href="#m9a0090fa16" x="125.528864" y="264.76846" style="fill: #006157; stroke: #006157"/>
     <use xlink:href="#m9a0090fa16" x="160.766784" y="252.11469" style="fill: #006157; stroke: #006157"/>
     <use xlink:href="#m9a0090fa16" x="196.004705" y="238.868687" style="fill: #006157; stroke: #006157"/>
     <use xlink:href="#m9a0090fa16" x="231.242626" y="238.118221" style="fill: #006157; stroke: #006157"/>
     <use xlink:href="#m9a0090fa16" x="266.577089" y="235.212357" style="fill: #006157; stroke: #006157"/>
     <use xlink:href="#m9a0090fa16" x="301.81501" y="212.028756" style="fill: #006157; stroke: #006157"/>
     <use xlink:href="#m9a0090fa16" x="337.052931" y="209.88138" style="fill: #006157; stroke: #006157"/>
     <use xlink:href="#m9a0090fa16" x="372.290851" y="208.126196" style="fill: #006157; stroke: #006157"/>
     <use xlink:href="#m9a0090fa16" x="407.625314" y="161.357" style="fill: #006157; stroke: #006157"/>
     <use xlink:href="#m9a0090fa16" x="442.863235" y="152.582188" style="fill: #006157; stroke: #006157"/>
     <use xlink:href="#m9a0090fa16" x="478.101156" y="136.171216" style="fill: #006157; stroke: #006157"/>
     <use xlink:href="#m9a0090fa16" x="513.339077" y="117.301263" style="fill: #006157; stroke: #006157"/>
     <use xlink:href="#m9a0090fa16" x="548.67354" y="115.368574" style="fill: #006157; stroke: #006157"/>
     <use xlink:href="#m9a0090fa16" x="583.91146" y="111.756604" style="fill: #006157; stroke: #006157"/>
     <use xlink:href="#m9a0090fa16" x="619.149381" y="90.819292" style="fill: #006157; stroke: #006157"/>
     <use xlink:href="#m9a0090fa16" x="654.387302" y="70.088871" style="fill: #006157; stroke: #006157"/>
     <use xlink:href="#m9a0090fa16" x="689.721765" y="69.596906" style="fill: #006157; stroke: #006157"/>
     <use xlink:href="#m9a0090fa16" x="724.959686" y="65.406379" style="fill: #006157; stroke: #006157"/>
     <use xlink:href="#m9a0090fa16" x="760.197606" y="61.677244" style="fill: #006157; stroke: #006157"/>
     <use xlink:href="#m9a0090fa16" x="795.435527" y="59.795041" style="fill: #006157; stroke: #006157"/>
     <use xlink:href="#m9a0090fa16" x="830.76999" y="55.634531" style="fill: #006157; stroke: #006157"/>
     <use xlink:href="#m9a0090fa16" x="866.007911" y="240.13592" style="fill: #006157; stroke: #006157"/>
     <use xlink:href="#m9a0090fa16" x="901.245832" y="218.063617" style="fill: #006157; stroke: #006157"/>
     <use xlink:href="#m9a0090fa16" x="936.483753" y="219.108955" style="fill: #006157; stroke: #006157"/>
     <use xlink:href="#m9a0090fa16" x="971.818216" y="220.84912" style="fill: #006157; stroke: #006157"/>
     <use xlink:href="#m9a0090fa16" x="1007.056136" y="237.559129" style="fill: #006157; stroke: #006157"/>
    </g>
   </g>
   <g id="PathCollection_2">
    <defs>
     <path id="m2309fd5050" d="M 0 3.162278 
C 0.838646 3.162278 1.643056 2.82908 2.236068 2.236068 
C 2.82908 1.643056 3.162278 0.838646 3.162278 0 
C 3.162278 -0.838646 2.82908 -1.643056 2.236068 -2.236068 
C 1.643056 -2.82908 0.838646 -3.162278 0 -3.162278 
C -0.838646 -3.162278 -1.643056 -2.82908 -2.236068 -2.236068 
C -2.82908 -1.643056 -3.162278 -0.838646 -3.162278 0 
C -3.162278 0.838646 -2.82908 1.643056 -2.236068 2.236068 
C -1.643056 2.82908 -0.838646 3.162278 0 3.162278 
z
" style="stroke: #767676"/>
    </defs>
    <g clip-path="url(#pbd2f84a063)">
     <use xlink:href="#m2309fd5050" x="125.528864" y="263.369173" style="fill: #767676; stroke: #767676"/>
     <use xlink:href="#m2309fd5050" x="160.766784" y="262.298846" style="fill: #767676; stroke: #767676"/>
     <use xlink:href="#m2309fd5050" x="196.004705" y="252.455607" style="fill: #767676; stroke: #767676"/>
     <use xlink:href="#m2309fd5050" x="231.242626" y="229.788221" style="fill: #767676; stroke: #767676"/>
     <use xlink:href="#m2309fd5050" x="266.577089" y="225.360651" style="fill: #767676; stroke: #767676"/>
     <use xlink:href="#m2309fd5050" x="301.81501" y="210.991133" style="fill: #767676; stroke: #767676"/>
     <use xlink:href="#m2309fd5050" x="337.052931" y="210.729902" style="fill: #767676; stroke: #767676"/>
     <use xlink:href="#m2309fd5050" x="372.290851" y="204.104876" style="fill: #767676; stroke: #767676"/>
     <use xlink:href="#m2309fd5050" x="407.625314" y="201.077398" style="fill: #767676; stroke: #767676"/>
     <use xlink:href="#m2309fd5050" x="442.863235" y="200.730274" style="fill: #767676; stroke: #767676"/>
     <use xlink:href="#m2309fd5050" x="478.101156" y="192.053009" style="fill: #767676; stroke: #767676"/>
     <use xlink:href="#m2309fd5050" x="513.339077" y="188.537028" style="fill: #767676; stroke: #767676"/>
     <use xlink:href="#m2309fd5050" x="548.67354" y="175.758934" style="fill: #767676; stroke: #767676"/>
     <use xlink:href="#m2309fd5050" x="583.91146" y="172.558216" style="fill: #767676; stroke: #767676"/>
     <use xlink:href="#m2309fd5050" x="619.149381" y="162.36004" style="fill: #767676; stroke: #767676"/>
     <use xlink:href="#m2309fd5050" x="654.387302" y="144.630914" style="fill: #767676; stroke: #767676"/>
     <use xlink:href="#m2309fd5050" x="689.721765" y="136.601701" style="fill: #767676; stroke: #767676"/>
     <use xlink:href="#m2309fd5050" x="724.959686" y="113.33593" style="fill: #767676; stroke: #767676"/>
     <use xlink:href="#m2309fd5050" x="760.197606" y="91.646222" style="fill: #767676; stroke: #767676"/>
     <use xlink:href="#m2309fd5050" x="795.435527" y="91.431877" style="fill: #767676; stroke: #767676"/>
     <use xlink:href="#m2309fd5050" x="830.76999" y="81.162525" style="fill: #767676; stroke: #767676"/>
     <use xlink:href="#m2309fd5050" x="866.007911" y="252.049684" style="fill: #767676; stroke: #767676"/>
     <use xlink:href="#m2309fd5050" x="901.245832" y="233.439011" style="fill: #767676; stroke: #767676"/>
     <use xlink:href="#m2309fd5050" x="936.483753" y="254.63447" style="fill: #767676; stroke: #767676"/>
     <use xlink:href="#m2309fd5050" x="971.818216" y="240.683669" style="fill: #767676; stroke: #767676"/>
     <use xlink:href="#m2309fd5050" x="1007.056136" y="251.754444" style="fill: #767676; stroke: #767676"/>
    </g>
   </g>
   <g id="PathCollection_3">
    <defs>
     <path id="m515258c620" d="M 0 3.162278 
C 0.838646 3.162278 1.643056 2.82908 2.236068 2.236068 
C 2.82908 1.643056 3.162278 0.838646 3.162278 0 
C 3.162278 -0.838646 2.82908 -1.643056 2.236068 -2.236068 
C 1.643056 -2.82908 0.838646 -3.162278 0 -3.162278 
C -0.838646 -3.162278 -1.643056 -2.82908 -2.236068 -2.236068 
C -2.82908 -1.643056 -3.162278 -0.838646 -3.162278 0 
C -3.162278 0.838646 -2.82908 1.643056 -2.236068 2.236068 
C -1.643056 2.82908 -0.838646 3.162278 0 3.162278 
z
" style="stroke: #671435"/>
    </defs>
    <g clip-path="url(#pbd2f84a063)">
     <use xlink:href="#m515258c620" x="125.528864" y="242.77033" style="fill: #671435; stroke: #671435"/>
     <use xlink:href="#m515258c620" x="160.766784" y="236.865277" style="fill: #671435; stroke: #671435"/>
     <use xlink:href="#m515258c620" x="196.004705" y="233.027286" style="fill: #671435; stroke: #671435"/>
     <use xlink:href="#m515258c620" x="231.242626" y="231.109513" style="fill: #671435; stroke: #671435"/>
     <use xlink:href="#m515258c620" x="266.577089" y="208.396778" style="fill: #671435; stroke: #671435"/>
     <use xlink:href="#m515258c620" x="301.81501" y="204.167811" style="fill: #671435; stroke: #671435"/>
     <use xlink:href="#m515258c620" x="337.052931" y="200.451906" style="fill: #671435; stroke: #671435"/>
     <use xlink:href="#m515258c620" x="372.290851" y="195.351028" style="fill: #671435; stroke: #671435"/>
     <use xlink:href="#m515258c620" x="407.625314" y="192.564014" style="fill: #671435; stroke: #671435"/>
     <use xlink:href="#m515258c620" x="442.863235" y="176.111047" style="fill: #671435; stroke: #671435"/>
     <use xlink:href="#m515258c620" x="478.101156" y="161.685611" style="fill: #671435; stroke: #671435"/>
     <use xlink:href="#m515258c620" x="513.339077" y="151.928732" style="fill: #671435; stroke: #671435"/>
     <use xlink:href="#m515258c620" x="548.67354" y="150.936669" style="fill: #671435; stroke: #671435"/>
     <use xlink:href="#m515258c620" x="583.91146" y="149.62872" style="fill: #671435; stroke: #671435"/>
     <use xlink:href="#m515258c620" x="619.149381" y="148.557084" style="fill: #671435; stroke: #671435"/>
     <use xlink:href="#m515258c620" x="654.387302" y="136.613783" style="fill: #671435; stroke: #671435"/>
     <use xlink:href="#m515258c620" x="689.721765" y="121.447877" style="fill: #671435; stroke: #671435"/>
     <use xlink:href="#m515258c620" x="724.959686" y="121.038004" style="fill: #671435; stroke: #671435"/>
     <use xlink:href="#m515258c620" x="760.197606" y="113.247203" style="fill: #671435; stroke: #671435"/>
     <use xlink:href="#m515258c620" x="795.435527" y="112.826306" style="fill: #671435; stroke: #671435"/>
     <use xlink:href="#m515258c620" x="830.76999" y="106.585763" style="fill: #671435; stroke: #671435"/>
     <use xlink:href="#m515258c620" x="866.007911" y="260.632191" style="fill: #671435; stroke: #671435"/>
     <use xlink:href="#m515258c620" x="901.245832" y="247.712012" style="fill: #671435; stroke: #671435"/>
     <use xlink:href="#m515258c620" x="936.483753" y="268.899375" style="fill: #671435; stroke: #671435"/>
     <use xlink:href="#m515258c620" x="971.818216" y="248.504173" style="fill: #671435; stroke: #671435"/>
     <use xlink:href="#m515258c620" x="1007.056136" y="243.886413" style="fill: #671435; stroke: #671435"/>
    </g>
   </g>
   <g id="PathCollection_4">
    <defs>
     <path id="mfcd7bf90b7" d="M 0 3.162278 
C 0.838646 3.162278 1.643056 2.82908 2.236068 2.236068 
C 2.82908 1.643056 3.162278 0.838646 3.162278 0 
C 3.162278 -0.838646 2.82908 -1.643056 2.236068 -2.236068 
C 1.643056 -2.82908 0.838646 -3.162278 0 -3.162278 
C -0.838646 -3.162278 -1.643056 -2.82908 -2.236068 -2.236068 
C -2.82908 -1.643056 -3.162278 -0.838646 -3.162278 0 
C -3.162278 0.838646 -2.82908 1.643056 -2.236068 2.236068 
C -1.643056 2.82908 -0.838646 3.162278 0 3.162278 
z
" style="stroke: #9b2247"/>
    </defs>
    <g clip-path="url(#pbd2f84a063)">
     <use xlink:href="#mfcd7bf90b7" x="125.528864" y="247.548063" style="fill: #9b2247; stroke: #9b2247"/>
     <use xlink:href="#mfcd7bf90b7" x="160.766784" y="243.002974" style="fill: #9b2247; stroke: #9b2247"/>
     <use xlink:href="#mfcd7bf90b7" x="196.004705" y="236.569496" style="fill: #9b2247; stroke: #9b2247"/>
     <use xlink:href="#mfcd7bf90b7" x="231.242626" y="234.729162" style="fill: #9b2247; stroke: #9b2247"/>
     <use xlink:href="#mfcd7bf90b7" x="266.577089" y="234.419128" style="fill: #9b2247; stroke: #9b2247"/>
     <use xlink:href="#mfcd7bf90b7" x="301.81501" y="229.97553" style="fill: #9b2247; stroke: #9b2247"/>
     <use xlink:href="#mfcd7bf90b7" x="337.052931" y="228.494748" style="fill: #9b2247; stroke: #9b2247"/>
     <use xlink:href="#mfcd7bf90b7" x="372.290851" y="221.213338" style="fill: #9b2247; stroke: #9b2247"/>
     <use xlink:href="#mfcd7bf90b7" x="407.625314" y="220.490226" style="fill: #9b2247; stroke: #9b2247"/>
     <use xlink:href="#mfcd7bf90b7" x="442.863235" y="207.282696" style="fill: #9b2247; stroke: #9b2247"/>
     <use xlink:href="#mfcd7bf90b7" x="478.101156" y="203.171667" style="fill: #9b2247; stroke: #9b2247"/>
     <use xlink:href="#mfcd7bf90b7" x="513.339077" y="191.709071" style="fill: #9b2247; stroke: #9b2247"/>
     <use xlink:href="#mfcd7bf90b7" x="548.67354" y="186.596686" style="fill: #9b2247; stroke: #9b2247"/>
     <use xlink:href="#mfcd7bf90b7" x="583.91146" y="183.444594" style="fill: #9b2247; stroke: #9b2247"/>
     <use xlink:href="#mfcd7bf90b7" x="619.149381" y="179.368032" style="fill: #9b2247; stroke: #9b2247"/>
     <use xlink:href="#mfcd7bf90b7" x="654.387302" y="175.656821" style="fill: #9b2247; stroke: #9b2247"/>
     <use xlink:href="#mfcd7bf90b7" x="689.721765" y="165.273213" style="fill: #9b2247; stroke: #9b2247"/>
     <use xlink:href="#mfcd7bf90b7" x="724.959686" y="157.952456" style="fill: #9b2247; stroke: #9b2247"/>
     <use xlink:href="#mfcd7bf90b7" x="760.197606" y="147.021844" style="fill: #9b2247; stroke: #9b2247"/>
     <use xlink:href="#mfcd7bf90b7" x="795.435527" y="143.267439" style="fill: #9b2247; stroke: #9b2247"/>
     <use xlink:href="#mfcd7bf90b7" x="830.76999" y="143.046266" style="fill: #9b2247; stroke: #9b2247"/>
     <use xlink:href="#mfcd7bf90b7" x="866.007911" y="260.233703" style="fill: #9b2247; stroke: #9b2247"/>
     <use xlink:href="#mfcd7bf90b7" x="901.245832" y="272.05872" style="fill: #9b2247; stroke: #9b2247"/>
     <use xlink:href="#mfcd7bf90b7" x="936.483753" y="255.667778" style="fill: #9b2247; stroke: #9b2247"/>
     <use xlink:href="#mfcd7bf90b7" x="971.818216" y="251.304787" style="fill: #9b2247; stroke: #9b2247"/>
     <use xlink:href="#mfcd7bf90b7" x="1007.056136" y="261.169167" style="fill: #9b2247; stroke: #9b2247"/>
    </g>
   </g>
   <g id="text_16">
    <g id="patch_4">
     <path d="M 137.617958 257.508673 
L 148.408583 257.508673 
Q 160.288583 257.508673 160.288583 245.628673 
L 160.288583 252.155548 
Q 160.288583 240.275548 148.408583 240.275548 
L 137.617958 240.275548 
Q 125.737958 240.275548 125.737958 252.155548 
L 125.737958 245.628673 
Q 125.737958 257.508673 137.617958 257.508673 
z
" style="fill: #006157; stroke: #ffffff; stroke-width: 0.7; stroke-linejoin: miter"/>
    </g>
    <text style="font-weight: 500; font-size: 12px; font-family: 'Montserrat'; text-anchor: middle; fill: #ffffff" x="143.013271" y="252.179923" transform="rotate(-0 143.013271 252.179923)"> 427 </text>
   </g>
   <g id="text_17">
    <g id="patch_5">
     <path d="M 279.53507 238.228052 
L 290.816945 238.228052 
Q 302.696945 238.228052 302.696945 226.348052 
L 302.696945 232.874927 
Q 302.696945 220.994927 290.816945 220.994927 
L 279.53507 220.994927 
Q 267.65507 220.994927 267.65507 232.874927 
L 267.65507 226.348052 
Q 267.65507 238.228052 279.53507 238.228052 
z
" style="fill: #006157; stroke: #ffffff; stroke-width: 0.7; stroke-linejoin: miter"/>
    </g>
    <text style="font-weight: 500; font-size: 12px; font-family: 'Montserrat'; text-anchor: middle; fill: #ffffff" x="285.176008" y="232.899302" transform="rotate(-0 285.176008 232.899302)"> 706 </text>
   </g>
   <g id="text_18">
    <g id="patch_6">
     <path d="M 385.540894 217.682183 
L 399.620269 217.682183 
Q 411.500269 217.682183 411.500269 205.802183 
L 411.500269 212.329058 
Q 411.500269 200.449058 399.620269 200.449058 
L 385.540894 200.449058 
Q 373.660894 200.449058 373.660894 212.329058 
L 373.660894 205.802183 
Q 373.660894 217.682183 385.540894 217.682183 
z
" style="fill: #006157; stroke: #ffffff; stroke-width: 0.7; stroke-linejoin: miter"/>
    </g>
    <text style="font-weight: 500; font-size: 12px; font-family: 'Montserrat'; text-anchor: middle; fill: #ffffff" x="392.580581" y="212.353433" transform="rotate(-0 392.580581 212.353433)"> 1,152 </text>
   </g>
   <g id="text_19">
    <g id="patch_7">
     <path d="M 482.588985 130.862904 
L 502.35711 130.862904 
Q 514.23711 130.862904 514.23711 118.982904 
L 514.23711 125.509779 
Q 514.23711 113.629779 502.35711 113.629779 
L 482.588985 113.629779 
Q 470.708985 113.629779 470.708985 125.509779 
L 470.708985 118.982904 
Q 470.708985 130.862904 482.588985 130.862904 
z
" style="fill: #006157; stroke: #ffffff; stroke-width: 0.7; stroke-linejoin: miter"/>
    </g>
    <text style="font-weight: 500; font-size: 12px; font-family: 'Montserrat'; text-anchor: middle; fill: #ffffff" x="492.473048" y="125.534154" transform="rotate(-0 492.473048 125.534154)"> 2,338 </text>
   </g>
   <g id="text_20">
    <g id="patch_8">
     <path d="M 587.615041 107.191507 
L 605.570041 107.191507 
Q 617.450041 107.191507 617.450041 95.311507 
L 617.450041 101.838382 
Q 617.450041 89.958382 605.570041 89.958382 
L 587.615041 89.958382 
Q 575.735041 89.958382 575.735041 101.838382 
L 575.735041 95.311507 
Q 575.735041 107.191507 587.615041 107.191507 
z
" style="fill: #006157; stroke: #ffffff; stroke-width: 0.7; stroke-linejoin: miter"/>
    </g>
    <text style="font-weight: 500; font-size: 12px; font-family: 'Montserrat'; text-anchor: middle; fill: #ffffff" x="596.592541" y="101.862757" transform="rotate(-0 596.592541 101.862757)"> 2,741 </text>
   </g>
   <g id="text_21">
    <g id="patch_9">
     <path d="M 693.801782 65.031809 
L 714.385532 65.031809 
Q 726.265532 65.031809 726.265532 53.151809 
L 726.265532 59.678684 
Q 726.265532 47.798684 714.385532 47.798684 
L 693.801782 47.798684 
Q 681.921782 47.798684 681.921782 59.678684 
L 681.921782 53.151809 
Q 681.921782 65.031809 693.801782 65.031809 
z
" style="fill: #006157; stroke: #ffffff; stroke-width: 0.7; stroke-linejoin: miter"/>
    </g>
    <text style="font-weight: 500; font-size: 12px; font-family: 'Montserrat'; text-anchor: middle; fill: #ffffff" x="704.093657" y="59.703059" transform="rotate(-0 704.093657 59.703059)"> 3,436 </text>
   </g>
   <g id="text_22">
    <g id="patch_10">
     <path d="M 762.732081 57.889174 
L 782.487081 57.889174 
Q 794.367081 57.889174 794.367081 46.009174 
L 794.367081 52.536049 
Q 794.367081 40.656049 782.487081 40.656049 
L 762.732081 40.656049 
Q 750.852081 40.656049 750.852081 52.536049 
L 750.852081 46.009174 
Q 750.852081 57.889174 762.732081 57.889174 
z
" style="fill: #006157; stroke: #ffffff; stroke-width: 0.7; stroke-linejoin: miter"/>
    </g>
    <text style="font-weight: 500; font-size: 12px; font-family: 'Montserrat'; text-anchor: middle; fill: #ffffff" x="772.609581" y="52.560424" transform="rotate(-0 772.609581 52.560424)"> 3,597 </text>
   </g>
   <g id="text_23">
    <g id="patch_11">
     <path d="M 844.191654 59.078318 
L 864.691029 59.078318 
Q 876.571029 59.078318 876.571029 47.198318 
L 876.571029 53.725193 
Q 876.571029 41.845193 864.691029 41.845193 
L 844.191654 41.845193 
Q 832.311654 41.845193 832.311654 53.725193 
L 832.311654 47.198318 
Q 832.311654 59.078318 844.191654 59.078318 
z
" style="fill: #006157; stroke: #ffffff; stroke-width: 0.7; stroke-linejoin: miter"/>
    </g>
    <text style="font-weight: 500; font-size: 12px; font-family: 'Montserrat'; text-anchor: middle; fill: #ffffff" x="854.441342" y="53.749568" transform="rotate(-0 854.441342 53.749568)"> 3,666 </text>
   </g>
   <g id="text_24">
    <g id="patch_12">
     <path d="M 904.765604 212.755304 
L 916.324979 212.755304 
Q 928.204979 212.755304 928.204979 200.875304 
L 928.204979 207.402179 
Q 928.204979 195.522179 916.324979 195.522179 
L 904.765604 195.522179 
Q 892.885604 195.522179 892.885604 207.402179 
L 892.885604 200.875304 
Q 892.885604 212.755304 904.765604 212.755304 
z
" style="fill: #006157; stroke: #ffffff; stroke-width: 0.7; stroke-linejoin: miter"/>
    </g>
    <text style="font-weight: 500; font-size: 12px; font-family: 'Montserrat'; text-anchor: middle; fill: #ffffff" x="910.545291" y="207.426554" transform="rotate(-0 910.545291 207.426554)"> 988 </text>
   </g>
   <g id="text_25">
    <g id="patch_13">
     <path d="M 1010.169253 229.872529 
L 1020.851128 229.872529 
Q 1032.731128 229.872529 1032.731128 217.992529 
L 1032.731128 224.519404 
Q 1032.731128 212.639404 1020.851128 212.639404 
L 1010.169253 212.639404 
Q 998.289253 212.639404 998.289253 224.519404 
L 998.289253 217.992529 
Q 998.289253 229.872529 1010.169253 229.872529 
z
" style="fill: #006157; stroke: #ffffff; stroke-width: 0.7; stroke-linejoin: miter"/>
    </g>
    <text style="font-weight: 500; font-size: 12px; font-family: 'Montserrat'; text-anchor: middle; fill: #ffffff" x="1015.51019" y="224.543779" transform="rotate(-0 1015.51019 224.543779)"> 667 </text>
   </g>
   <g id="text_26">
    <g id="patch_14">
     <path d="M 145.682232 270.071116 
L 155.561607 270.071116 
Q 167.441607 270.071116 167.441607 258.191116 
L 167.441607 264.717991 
Q 167.441607 252.837991 155.561607 252.837991 
L 145.682232 252.837991 
Q 133.802232 252.837991 133.802232 264.717991 
L 133.802232 258.191116 
Q 133.802232 270.071116 145.682232 270.071116 
z
" style="fill: #767676; stroke: #ffffff; stroke-width: 0.7; stroke-linejoin: miter"/>
    </g>
    <text style="font-weight: 500; font-size: 12px; font-family: 'Montserrat'; text-anchor: middle; fill: #ffffff" x="150.62192" y="264.742366" transform="rotate(-0 150.62192 264.742366)"> 259 </text>
   </g>
   <g id="text_27">
    <g id="patch_15">
     <path d="M 279.39632 217.674051 
L 290.955695 217.674051 
Q 302.835695 217.674051 302.835695 205.794051 
L 302.835695 212.320926 
Q 302.835695 200.440926 290.955695 200.440926 
L 279.39632 200.440926 
Q 267.51632 200.440926 267.51632 212.320926 
L 267.51632 205.794051 
Q 267.51632 217.674051 279.39632 217.674051 
z
" style="fill: #767676; stroke: #ffffff; stroke-width: 0.7; stroke-linejoin: miter"/>
    </g>
    <text style="font-weight: 500; font-size: 12px; font-family: 'Montserrat'; text-anchor: middle; fill: #ffffff" x="285.176008" y="212.345301" transform="rotate(-0 285.176008 212.345301)"> 868 </text>
   </g>
   <g id="text_28">
    <g id="patch_16">
     <path d="M 344.541434 196.418276 
L 359.460809 196.418276 
Q 371.340809 196.418276 371.340809 184.538276 
L 371.340809 191.065151 
Q 371.340809 179.185151 359.460809 179.185151 
L 344.541434 179.185151 
Q 332.661434 179.185151 332.661434 191.065151 
L 332.661434 184.538276 
Q 332.661434 196.418276 344.541434 196.418276 
z
" style="fill: #767676; stroke: #ffffff; stroke-width: 0.7; stroke-linejoin: miter"/>
    </g>
    <text style="font-weight: 500; font-size: 12px; font-family: 'Montserrat'; text-anchor: middle; fill: #ffffff" x="352.001122" y="191.089526" transform="rotate(-0 352.001122 191.089526)"> 1,218 </text>
   </g>
   <g id="text_29">
    <g id="patch_17">
     <path d="M 482.183707 187.093663 
L 497.689957 187.093663 
Q 509.569957 187.093663 509.569957 175.213663 
L 509.569957 181.740538 
Q 509.569957 169.860538 497.689957 169.860538 
L 482.183707 169.860538 
Q 470.303707 169.860538 470.303707 181.740538 
L 470.303707 175.213663 
Q 470.303707 187.093663 482.183707 187.093663 
z
" style="fill: #767676; stroke: #ffffff; stroke-width: 0.7; stroke-linejoin: miter"/>
    </g>
    <text style="font-weight: 500; font-size: 12px; font-family: 'Montserrat'; text-anchor: middle; fill: #ffffff" x="489.936832" y="181.764913" transform="rotate(-0 489.936832 181.764913)"> 1,417 </text>
   </g>
   <g id="text_30">
    <g id="patch_18">
     <path d="M 587.777229 167.249903 
L 605.407854 167.249903 
Q 617.287854 167.249903 617.287854 155.369903 
L 617.287854 161.896778 
Q 617.287854 150.016778 605.407854 150.016778 
L 587.777229 150.016778 
Q 575.897229 150.016778 575.897229 161.896778 
L 575.897229 155.369903 
Q 575.897229 167.249903 587.777229 167.249903 
z
" style="fill: #767676; stroke: #ffffff; stroke-width: 0.7; stroke-linejoin: miter"/>
    </g>
    <text style="font-weight: 500; font-size: 12px; font-family: 'Montserrat'; text-anchor: middle; fill: #ffffff" x="596.592541" y="161.921153" transform="rotate(-0 596.592541 161.921153)"> 1,738 </text>
   </g>
   <g id="text_31">
    <g id="patch_19">
     <path d="M 693.317753 133.077104 
L 709.797128 133.077104 
Q 721.677128 133.077104 721.677128 121.197104 
L 721.677128 127.723979 
Q 721.677128 115.843979 709.797128 115.843979 
L 693.317753 115.843979 
Q 681.437753 115.843979 681.437753 127.723979 
L 681.437753 121.197104 
Q 681.437753 133.077104 693.317753 133.077104 
z
" style="fill: #767676; stroke: #ffffff; stroke-width: 0.7; stroke-linejoin: miter"/>
    </g>
    <text style="font-weight: 500; font-size: 12px; font-family: 'Montserrat'; text-anchor: middle; fill: #ffffff" x="701.557441" y="127.748354" transform="rotate(-0 701.557441 127.748354)"> 2,331 </text>
   </g>
   <g id="text_32">
    <g id="patch_20">
     <path d="M 798.526701 88.501853 
L 819.397326 88.501853 
Q 831.277326 88.501853 831.277326 76.621853 
L 831.277326 83.148728 
Q 831.277326 71.268728 819.397326 71.268728 
L 798.526701 71.268728 
Q 786.646701 71.268728 786.646701 83.148728 
L 786.646701 76.621853 
Q 786.646701 88.501853 798.526701 88.501853 
z
" style="fill: #767676; stroke: #ffffff; stroke-width: 0.7; stroke-linejoin: miter"/>
    </g>
    <text style="font-weight: 500; font-size: 12px; font-family: 'Montserrat'; text-anchor: middle; fill: #ffffff" x="808.962014" y="83.173103" transform="rotate(-0 808.962014 83.173103)"> 3,076 </text>
   </g>
   <g id="text_33">
    <g id="patch_21">
     <path d="M 835.095632 76.448784 
L 855.188132 76.448784 
Q 867.068132 76.448784 867.068132 64.568784 
L 867.068132 71.095659 
Q 867.068132 59.215659 855.188132 59.215659 
L 835.095632 59.215659 
Q 823.215632 59.215659 823.215632 71.095659 
L 823.215632 64.568784 
Q 823.215632 76.448784 835.095632 76.448784 
z
" style="fill: #767676; stroke: #ffffff; stroke-width: 0.7; stroke-linejoin: miter"/>
    </g>
    <text style="font-weight: 500; font-size: 12px; font-family: 'Montserrat'; text-anchor: middle; fill: #ffffff" x="845.141882" y="71.120034" transform="rotate(-0 845.141882 71.120034)"> 3,245 </text>
   </g>
   <g id="text_34">
    <g id="patch_22">
     <path d="M 904.886761 228.130698 
L 914.513011 228.130698 
Q 926.393011 228.130698 926.393011 216.250698 
L 926.393011 222.777573 
Q 926.393011 210.897573 914.513011 210.897573 
L 904.886761 210.897573 
Q 893.006761 210.897573 893.006761 222.777573 
L 893.006761 216.250698 
Q 893.006761 228.130698 904.886761 228.130698 
z
" style="fill: #767676; stroke: #ffffff; stroke-width: 0.7; stroke-linejoin: miter"/>
    </g>
    <text style="font-weight: 500; font-size: 12px; font-family: 'Montserrat'; text-anchor: middle; fill: #ffffff" x="909.699886" y="222.801948" transform="rotate(-0 909.699886 222.801948)"> 735 </text>
   </g>
   <g id="text_35">
    <g id="patch_23">
     <path d="M 984.920528 256.553854 
L 995.375528 256.553854 
Q 1007.255528 256.553854 1007.255528 244.673854 
L 1007.255528 251.200729 
Q 1007.255528 239.320729 995.375528 239.320729 
L 984.920528 239.320729 
Q 973.040528 239.320729 973.040528 251.200729 
L 973.040528 244.673854 
Q 973.040528 256.553854 984.920528 256.553854 
z
" style="fill: #767676; stroke: #ffffff; stroke-width: 0.7; stroke-linejoin: miter"/>
    </g>
    <text style="font-weight: 500; font-size: 12px; font-family: 'Montserrat'; text-anchor: middle; fill: #ffffff" x="990.148028" y="251.225104" transform="rotate(-0 990.148028 251.225104)"> 433 </text>
   </g>
   <g id="text_36">
    <g id="patch_24">
     <path d="M 164.563119 229.178677 
L 175.569369 229.178677 
Q 187.449369 229.178677 187.449369 217.298677 
L 187.449369 223.825552 
Q 187.449369 211.945552 175.569369 211.945552 
L 164.563119 211.945552 
Q 152.683119 211.945552 152.683119 223.825552 
L 152.683119 217.298677 
Q 152.683119 229.178677 164.563119 229.178677 
z
" style="fill: #671435; stroke: #ffffff; stroke-width: 0.7; stroke-linejoin: miter"/>
    </g>
    <text style="font-weight: 500; font-size: 12px; font-family: 'Montserrat'; text-anchor: middle; fill: #ffffff" x="170.066244" y="223.849927" transform="rotate(-0 170.066244 223.849927)"> 678 </text>
   </g>
   <g id="text_37">
    <g id="patch_25">
     <path d="M 270.383077 200.710178 
L 286.442452 200.710178 
Q 298.322452 200.710178 298.322452 188.830178 
L 298.322452 195.357053 
Q 298.322452 183.477053 286.442452 183.477053 
L 270.383077 183.477053 
Q 258.503077 183.477053 258.503077 195.357053 
L 258.503077 188.830178 
Q 258.503077 200.710178 270.383077 200.710178 
z
" style="fill: #671435; stroke: #ffffff; stroke-width: 0.7; stroke-linejoin: miter"/>
    </g>
    <text style="font-weight: 500; font-size: 12px; font-family: 'Montserrat'; text-anchor: middle; fill: #ffffff" x="278.412765" y="195.381428" transform="rotate(-0 278.412765 195.381428)"> 1,148 </text>
   </g>
   <g id="text_38">
    <g id="patch_26">
     <path d="M 376.474432 187.664428 
L 393.469432 187.664428 
Q 405.349432 187.664428 405.349432 175.784428 
L 405.349432 182.311303 
Q 405.349432 170.431303 393.469432 170.431303 
L 376.474432 170.431303 
Q 364.594432 170.431303 364.594432 182.311303 
L 364.594432 175.784428 
Q 364.594432 187.664428 376.474432 187.664428 
z
" style="fill: #671435; stroke: #ffffff; stroke-width: 0.7; stroke-linejoin: miter"/>
    </g>
    <text style="font-weight: 500; font-size: 12px; font-family: 'Montserrat'; text-anchor: middle; fill: #ffffff" x="384.971932" y="182.335678" transform="rotate(-0 384.971932 182.335678)"> 1,363 </text>
   </g>
   <g id="text_39">
    <g id="patch_27">
     <path d="M 482.219332 158.161014 
L 497.654332 158.161014 
Q 509.534332 158.161014 509.534332 146.281014 
L 509.534332 152.807889 
Q 509.534332 140.927889 497.654332 140.927889 
L 482.219332 140.927889 
Q 470.339332 140.927889 470.339332 152.807889 
L 470.339332 146.281014 
Q 470.339332 158.161014 482.219332 158.161014 
z
" style="fill: #671435; stroke: #ffffff; stroke-width: 0.7; stroke-linejoin: miter"/>
    </g>
    <text style="font-weight: 500; font-size: 12px; font-family: 'Montserrat'; text-anchor: middle; fill: #ffffff" x="489.936832" y="152.832264" transform="rotate(-0 489.936832 152.832264)"> 1,918 </text>
   </g>
   <g id="text_40">
    <g id="patch_28">
     <path d="M 587.604231 145.063622 
L 602.199231 145.063622 
Q 614.079231 145.063622 614.079231 133.183622 
L 614.079231 139.710497 
Q 614.079231 127.830497 602.199231 127.830497 
L 587.604231 127.830497 
Q 575.724231 127.830497 575.724231 139.710497 
L 575.724231 133.183622 
Q 575.724231 145.063622 587.604231 145.063622 
z
" style="fill: #671435; stroke: #ffffff; stroke-width: 0.7; stroke-linejoin: miter"/>
    </g>
    <text style="font-weight: 500; font-size: 12px; font-family: 'Montserrat'; text-anchor: middle; fill: #ffffff" x="594.901731" y="139.734872" transform="rotate(-0 594.901731 139.734872)"> 2,116 </text>
   </g>
   <g id="text_41">
    <g id="patch_29">
     <path d="M 693.718784 116.139564 
L 711.086909 116.139564 
Q 722.966909 116.139564 722.966909 104.259564 
L 722.966909 110.786439 
Q 722.966909 98.906439 711.086909 98.906439 
L 693.718784 98.906439 
Q 681.838784 98.906439 681.838784 110.786439 
L 681.838784 104.259564 
Q 681.838784 116.139564 693.718784 116.139564 
z
" style="fill: #671435; stroke: #ffffff; stroke-width: 0.7; stroke-linejoin: miter"/>
    </g>
    <text style="font-weight: 500; font-size: 12px; font-family: 'Montserrat'; text-anchor: middle; fill: #ffffff" x="702.402846" y="110.810814" transform="rotate(-0 702.402846 110.810814)"> 2,581 </text>
   </g>
   <g id="text_42">
    <g id="patch_30">
     <path d="M 770.598542 120.004004 
L 789.837917 120.004004 
Q 801.717917 120.004004 801.717917 108.124004 
L 801.717917 114.650879 
Q 801.717917 102.770879 789.837917 102.770879 
L 770.598542 102.770879 
Q 758.718542 102.770879 758.718542 114.650879 
L 758.718542 108.124004 
Q 758.718542 120.004004 770.598542 120.004004 
z
" style="fill: #671435; stroke: #ffffff; stroke-width: 0.7; stroke-linejoin: miter"/>
    </g>
    <text style="font-weight: 500; font-size: 12px; font-family: 'Montserrat'; text-anchor: middle; fill: #ffffff" x="780.21823" y="114.675254" transform="rotate(-0 780.21823 114.675254)"> 2,723 </text>
   </g>
   <g id="text_43">
    <g id="patch_31">
     <path d="M 834.975632 103.061166 
L 855.308132 103.061166 
Q 867.188132 103.061166 867.188132 91.181166 
L 867.188132 97.708041 
Q 867.188132 85.828041 855.308132 85.828041 
L 834.975632 85.828041 
Q 823.095632 85.828041 823.095632 97.708041 
L 823.095632 91.181166 
Q 823.095632 103.061166 834.975632 103.061166 
z
" style="fill: #671435; stroke: #ffffff; stroke-width: 0.7; stroke-linejoin: miter"/>
    </g>
    <text style="font-weight: 500; font-size: 12px; font-family: 'Montserrat'; text-anchor: middle; fill: #ffffff" x="845.141882" y="97.732416" transform="rotate(-0 845.141882 97.732416)"> 2,826 </text>
   </g>
   <g id="text_44">
    <g id="patch_32">
     <path d="M 904.747791 244.187415 
L 916.342791 244.187415 
Q 928.222791 244.187415 928.222791 232.307415 
L 928.222791 238.83429 
Q 928.222791 226.95429 916.342791 226.95429 
L 904.747791 226.95429 
Q 892.867791 226.95429 892.867791 238.83429 
L 892.867791 232.307415 
Q 892.867791 244.187415 904.747791 244.187415 
z
" style="fill: #671435; stroke: #ffffff; stroke-width: 0.7; stroke-linejoin: miter"/>
    </g>
    <text style="font-weight: 500; font-size: 12px; font-family: 'Montserrat'; text-anchor: middle; fill: #ffffff" x="910.545291" y="238.858665" transform="rotate(-0 910.545291 238.858665)"> 500 </text>
   </g>
   <g id="text_45">
    <g id="patch_33">
     <path d="M 985.220528 242.740104 
L 995.075528 242.740104 
Q 1006.955528 242.740104 1006.955528 230.860104 
L 1006.955528 237.386979 
Q 1006.955528 225.506979 995.075528 225.506979 
L 985.220528 225.506979 
Q 973.340528 225.506979 973.340528 237.386979 
L 973.340528 230.860104 
Q 973.340528 242.740104 985.220528 242.740104 
z
" style="fill: #671435; stroke: #ffffff; stroke-width: 0.7; stroke-linejoin: miter"/>
    </g>
    <text style="font-weight: 500; font-size: 12px; font-family: 'Montserrat'; text-anchor: middle; fill: #ffffff" x="990.148028" y="237.411354" transform="rotate(-0 990.148028 237.411354)"> 563 </text>
   </g>
   <g id="text_46">
    <g id="patch_34">
     <path d="M 138.889926 242.451237 
L 148.827426 242.451237 
Q 160.707426 242.451237 160.707426 230.571237 
L 160.707426 237.098112 
Q 160.707426 225.218112 148.827426 225.218112 
L 138.889926 225.218112 
Q 127.009926 225.218112 127.009926 237.098112 
L 127.009926 230.571237 
Q 127.009926 242.451237 138.889926 242.451237 
z
" style="fill: #9b2247; stroke: #ffffff; stroke-width: 0.7; stroke-linejoin: miter"/>
    </g>
    <text style="font-weight: 500; font-size: 12px; font-family: 'Montserrat'; text-anchor: middle; fill: #ffffff" x="143.858676" y="237.122487" transform="rotate(-0 143.858676 237.122487)"> 577 </text>
   </g>
   <g id="text_47">
    <g id="patch_35">
     <path d="M 247.501042 224.948812 
L 255.218542 224.948812 
Q 267.098542 224.948812 267.098542 213.068812 
L 267.098542 219.595687 
Q 267.098542 207.715687 255.218542 207.715687 
L 247.501042 207.715687 
Q 235.621042 207.715687 235.621042 219.595687 
L 235.621042 213.068812 
Q 235.621042 224.948812 247.501042 224.948812 
z
" style="fill: #9b2247; stroke: #ffffff; stroke-width: 0.7; stroke-linejoin: miter"/>
    </g>
    <text style="font-weight: 500; font-size: 12px; font-family: 'Montserrat'; text-anchor: middle; fill: #ffffff" x="251.359792" y="219.620062" transform="rotate(-0 251.359792 219.620062)"> 719 </text>
   </g>
   <g id="text_48">
    <g id="patch_36">
     <path d="M 355.269863 228.985608 
L 365.640488 228.985608 
Q 377.520488 228.985608 377.520488 217.105608 
L 377.520488 223.632483 
Q 377.520488 211.752483 365.640488 211.752483 
L 355.269863 211.752483 
Q 343.389863 211.752483 343.389863 223.632483 
L 343.389863 217.105608 
Q 343.389863 228.985608 355.269863 228.985608 
z
" style="fill: #9b2247; stroke: #ffffff; stroke-width: 0.7; stroke-linejoin: miter"/>
    </g>
    <text style="font-weight: 500; font-size: 12px; font-family: 'Montserrat'; text-anchor: middle; fill: #ffffff" x="360.455176" y="223.656858" transform="rotate(-0 360.455176 223.656858)"> 936 </text>
   </g>
   <g id="text_49">
    <g id="patch_37">
     <path d="M 481.960362 199.557966 
L 499.604112 199.557966 
Q 511.484112 199.557966 511.484112 187.677966 
L 511.484112 194.204841 
Q 511.484112 182.324841 499.604112 182.324841 
L 481.960362 182.324841 
Q 470.080362 182.324841 470.080362 194.204841 
L 470.080362 187.677966 
Q 470.080362 199.557966 481.960362 199.557966 
z
" style="fill: #9b2247; stroke: #ffffff; stroke-width: 0.7; stroke-linejoin: miter"/>
    </g>
    <text style="font-weight: 500; font-size: 12px; font-family: 'Montserrat'; text-anchor: middle; fill: #ffffff" x="490.782237" y="194.229216" transform="rotate(-0 490.782237 194.229216)"> 1,234 </text>
   </g>
   <g id="text_50">
    <g id="patch_38">
     <path d="M 561.017693 191.01162 
L 578.061443 191.01162 
Q 589.941443 191.01162 589.941443 179.13162 
L 589.941443 185.658495 
Q 589.941443 173.778495 578.061443 173.778495 
L 561.017693 173.778495 
Q 549.137693 173.778495 549.137693 185.658495 
L 549.137693 179.13162 
Q 549.137693 191.01162 561.017693 191.01162 
z
" style="fill: #9b2247; stroke: #ffffff; stroke-width: 0.7; stroke-linejoin: miter"/>
    </g>
    <text style="font-weight: 500; font-size: 12px; font-family: 'Montserrat'; text-anchor: middle; fill: #ffffff" x="569.539568" y="185.68287" transform="rotate(-0 569.539568 185.68287)"> 1,559 </text>
   </g>
   <g id="text_51">
    <g id="patch_39">
     <path d="M 694.144189 161.748617 
L 712.352314 161.748617 
Q 724.232314 161.748617 724.232314 149.868617 
L 724.232314 156.395492 
Q 724.232314 144.515492 712.352314 144.515492 
L 694.144189 144.515492 
Q 682.264189 144.515492 682.264189 156.395492 
L 682.264189 149.868617 
Q 682.264189 161.748617 694.144189 161.748617 
z
" style="fill: #9b2247; stroke: #ffffff; stroke-width: 0.7; stroke-linejoin: miter"/>
    </g>
    <text style="font-weight: 500; font-size: 12px; font-family: 'Montserrat'; text-anchor: middle; fill: #ffffff" x="703.248251" y="156.419867" transform="rotate(-0 703.248251 156.419867)"> 1,858 </text>
   </g>
   <g id="text_52">
    <g id="patch_40">
     <path d="M 773.644978 150.445137 
L 790.173103 150.445137 
Q 802.053103 150.445137 802.053103 138.565137 
L 802.053103 145.092012 
Q 802.053103 133.212012 790.173103 133.212012 
L 773.644978 133.212012 
Q 761.764978 133.212012 761.764978 145.092012 
L 761.764978 138.565137 
Q 761.764978 150.445137 773.644978 150.445137 
z
" style="fill: #9b2247; stroke: #ffffff; stroke-width: 0.7; stroke-linejoin: miter"/>
    </g>
    <text style="font-weight: 500; font-size: 12px; font-family: 'Montserrat'; text-anchor: middle; fill: #ffffff" x="781.909041" y="145.116387" transform="rotate(-0 781.909041 145.116387)"> 2,221 </text>
   </g>
   <g id="text_53">
    <g id="patch_41">
     <path d="M 834.808039 135.359666 
L 853.784914 135.359666 
Q 865.664914 135.359666 865.664914 123.479666 
L 865.664914 130.006541 
Q 865.664914 118.126541 853.784914 118.126541 
L 834.808039 118.126541 
Q 822.928039 118.126541 822.928039 130.006541 
L 822.928039 123.479666 
Q 822.928039 135.359666 834.808039 135.359666 
z
" style="fill: #9b2247; stroke: #ffffff; stroke-width: 0.7; stroke-linejoin: miter"/>
    </g>
    <text style="font-weight: 500; font-size: 12px; font-family: 'Montserrat'; text-anchor: middle; fill: #ffffff" x="844.296477" y="130.030916" transform="rotate(-0 844.296477 130.030916)"> 2,225 </text>
   </g>
   <g id="text_54">
    <g id="patch_42">
     <path d="M 904.402952 268.534123 
L 908.233577 268.534123 
Q 920.113577 268.534123 920.113577 256.654123 
L 920.113577 263.180998 
Q 920.113577 251.300998 908.233577 251.300998 
L 904.402952 251.300998 
Q 892.522952 251.300998 892.522952 263.180998 
L 892.522952 256.654123 
Q 892.522952 268.534123 904.402952 268.534123 
z
" style="fill: #9b2247; stroke: #ffffff; stroke-width: 0.7; stroke-linejoin: miter"/>
    </g>
    <text style="font-weight: 500; font-size: 12px; font-family: 'Montserrat'; text-anchor: middle; fill: #ffffff" x="906.318264" y="263.205373" transform="rotate(-0 906.318264 263.205373)"> 98 </text>
   </g>
   <g id="text_55">
    <g id="patch_43">
     <path d="M 992.511364 268.346865 
L 1003.001989 268.346865 
Q 1014.881989 268.346865 1014.881989 256.466865 
L 1014.881989 262.99374 
Q 1014.881989 251.11374 1003.001989 251.11374 
L 992.511364 251.11374 
Q 980.631364 251.11374 980.631364 262.99374 
L 980.631364 256.466865 
Q 980.631364 268.346865 992.511364 268.346865 
z
" style="fill: #9b2247; stroke: #ffffff; stroke-width: 0.7; stroke-linejoin: miter"/>
    </g>
    <text style="font-weight: 500; font-size: 12px; font-family: 'Montserrat'; text-anchor: middle; fill: #ffffff" x="997.756677" y="263.018115" transform="rotate(-0 997.756677 263.018115)"> 278 </text>
   </g>
   <g id="patch_44">
    <path d="M 283.182618 229.515902 
Q 275.879185 229.165687 268.575752 228.815472 
" style="fill: none; stroke: #808080; stroke-width: 0.5; stroke-linecap: round"/>
   </g>
   <g id="patch_45">
    <path d="M 390.70071 208.377021 
Q 382.432903 205.348515 374.165097 202.320009 
" style="fill: none; stroke: #808080; stroke-width: 0.5; stroke-linecap: round"/>
   </g>
   <g id="patch_46">
    <path d="M 490.694105 123.166287 
Q 485.284609 125.963705 479.875114 128.761122 
" style="fill: none; stroke: #808080; stroke-width: 0.5; stroke-linecap: round"/>
   </g>
   <g id="patch_47">
    <path d="M 594.824744 99.50741 
Q 590.251343 101.919758 585.677942 104.332107 
" style="fill: none; stroke: #808080; stroke-width: 0.5; stroke-linecap: round"/>
   </g>
   <g id="patch_48">
    <path d="M 702.279627 57.259528 
Q 696.906665 59.7602 691.533702 62.260872 
" style="fill: none; stroke: #808080; stroke-width: 0.5; stroke-linecap: round"/>
   </g>
   <g id="patch_49">
    <path d="M 852.444649 50.350417 
Q 842.606121 49.801806 832.767594 49.253195 
" style="fill: none; stroke: #808080; stroke-width: 0.5; stroke-linecap: round"/>
   </g>
   <g id="patch_50">
    <path d="M 908.981002 205.388925 
Q 905.893355 207.85658 902.805707 210.324235 
" style="fill: none; stroke: #808080; stroke-width: 0.5; stroke-linecap: round"/>
   </g>
   <g id="patch_51">
    <path d="M 1014.203692 222.772081 
Q 1011.28342 226.160887 1008.363148 229.549693 
" style="fill: none; stroke: #808080; stroke-width: 0.5; stroke-linecap: round"/>
   </g>
   <g id="patch_52">
    <path d="M 152.368045 260.48235 
Q 155.691863 258.631723 159.01568 256.781096 
" style="fill: none; stroke: #808080; stroke-width: 0.5; stroke-linecap: round"/>
   </g>
   <g id="patch_53">
    <path d="M 283.407385 209.99039 
Q 275.877718 213.96209 268.34805 217.93379 
" style="fill: none; stroke: #808080; stroke-width: 0.5; stroke-linecap: round"/>
   </g>
   <g id="patch_54">
    <path d="M 353.801736 188.672342 
Q 362.14689 192.707369 370.492045 196.742396 
" style="fill: none; stroke: #808080; stroke-width: 0.5; stroke-linecap: round"/>
   </g>
   <g id="patch_55">
    <path d="M 488.223317 179.502571 
Q 484.020989 182.017498 479.818661 184.532425 
" style="fill: none; stroke: #808080; stroke-width: 0.5; stroke-linecap: round"/>
   </g>
   <g id="patch_56">
    <path d="M 594.868088 159.644011 
Q 590.252448 162.349153 585.636808 165.054295 
" style="fill: none; stroke: #808080; stroke-width: 0.5; stroke-linecap: round"/>
   </g>
   <g id="patch_57">
    <path d="M 699.75146 125.322424 
Q 695.638942 127.285074 691.526424 129.247723 
" style="fill: none; stroke: #808080; stroke-width: 0.5; stroke-linecap: round"/>
   </g>
   <g id="patch_58">
    <path d="M 807.089573 80.584885 
Q 802.200052 82.411742 797.310531 84.238599 
" style="fill: none; stroke: #808080; stroke-width: 0.5; stroke-linecap: round"/>
   </g>
   <g id="patch_59">
    <path d="M 843.334869 68.691927 
Q 837.955837 71.251058 832.576805 73.810188 
" style="fill: none; stroke: #808080; stroke-width: 0.5; stroke-linecap: round"/>
   </g>
   <g id="patch_60">
    <path d="M 908.199374 220.83327 
Q 905.474658 223.228629 902.749943 225.623987 
" style="fill: none; stroke: #808080; stroke-width: 0.5; stroke-linecap: round"/>
   </g>
   <g id="patch_61">
    <path d="M 168.688126 222.015956 
Q 165.414964 225.468968 162.141802 228.92198 
" style="fill: none; stroke: #808080; stroke-width: 0.5; stroke-linecap: round"/>
   </g>
   <g id="patch_62">
    <path d="M 276.872624 193.370218 
Q 272.495262 196.998556 268.1179 200.626894 
" style="fill: none; stroke: #808080; stroke-width: 0.5; stroke-linecap: round"/>
   </g>
   <g id="patch_63">
    <path d="M 383.389893 180.271775 
Q 378.630258 183.953961 373.870622 187.636148 
" style="fill: none; stroke: #808080; stroke-width: 0.5; stroke-linecap: round"/>
   </g>
   <g id="patch_64">
    <path d="M 488.130851 150.406334 
Q 484.018333 152.368984 479.905815 154.331633 
" style="fill: none; stroke: #808080; stroke-width: 0.5; stroke-linecap: round"/>
   </g>
   <g id="patch_65">
    <path d="M 593.19255 137.487307 
Q 589.405113 139.792429 585.617676 142.097552 
" style="fill: none; stroke: #808080; stroke-width: 0.5; stroke-linecap: round"/>
   </g>
   <g id="patch_66">
    <path d="M 700.678392 108.533672 
Q 696.062753 111.238814 691.447113 113.943956 
" style="fill: none; stroke: #808080; stroke-width: 0.5; stroke-linecap: round"/>
   </g>
   <g id="patch_67">
    <path d="M 782.116677 110.756943 
Q 787.82824 108.860059 793.539802 106.963175 
" style="fill: none; stroke: #808080; stroke-width: 0.5; stroke-linecap: round"/>
   </g>
   <g id="patch_68">
    <path d="M 843.278729 95.176859 
Q 837.95427 97.269476 832.62981 99.362092 
" style="fill: none; stroke: #808080; stroke-width: 0.5; stroke-linecap: round"/>
   </g>
   <g id="patch_69">
    <path d="M 908.835698 236.609249 
Q 905.894996 238.395413 902.954293 240.181578 
" style="fill: none; stroke: #808080; stroke-width: 0.5; stroke-linecap: round"/>
   </g>
   <g id="patch_70">
    <path d="M 252.953596 217.546578 
Q 258.968754 222.129565 264.983912 226.712551 
" style="fill: none; stroke: #808080; stroke-width: 0.5; stroke-linecap: round"/>
   </g>
   <g id="patch_71">
    <path d="M 362.261156 219.507163 
Q 366.373674 217.544514 370.486192 215.581864 
" style="fill: none; stroke: #808080; stroke-width: 0.5; stroke-linecap: round"/>
   </g>
   <g id="patch_72">
    <path d="M 488.958712 191.766455 
Q 484.440474 193.810726 479.922235 195.854997 
" style="fill: none; stroke: #808080; stroke-width: 0.5; stroke-linecap: round"/>
   </g>
   <g id="patch_73">
    <path d="M 571.409739 181.686752 
Q 576.725107 179.673617 582.040475 177.660482 
" style="fill: none; stroke: #808080; stroke-width: 0.5; stroke-linecap: round"/>
   </g>
   <g id="patch_74">
    <path d="M 701.402229 153.902922 
Q 696.484514 155.956477 691.566799 158.010032 
" style="fill: none; stroke: #808080; stroke-width: 0.5; stroke-linecap: round"/>
   </g>
   <g id="patch_75">
    <path d="M 783.781482 141.12898 
Q 788.671002 139.302123 793.560523 137.475265 
" style="fill: none; stroke: #808080; stroke-width: 0.5; stroke-linecap: round"/>
   </g>
   <g id="patch_76">
    <path d="M 842.675016 127.91911 
Q 837.531963 131.649243 832.388911 135.379376 
" style="fill: none; stroke: #808080; stroke-width: 0.5; stroke-linecap: round"/>
   </g>
   <g id="patch_77">
    <path d="M 904.983283 261.404136 
Q 903.783393 262.740279 902.583504 264.076423 
" style="fill: none; stroke: #808080; stroke-width: 0.5; stroke-linecap: round"/>
   </g>
   <g id="patch_78">
    <path d="M 999.511677 258.776534 
Q 1002.405316 257.203964 1005.298955 255.631394 
" style="fill: none; stroke: #808080; stroke-width: 0.5; stroke-linecap: round"/>
   </g>
   <g id="legend_1">
    <g id="line2d_35">
     <path d="M 186.440938 23.040625 
L 206.440938 23.040625 
L 226.440938 23.040625 
" style="fill: none; stroke: #006157; stroke-width: 2; stroke-linecap: square"/>
    </g>
    <g id="text_56">
     <text style="font-weight: 500; font-size: 20px; font-family: 'Montserrat'; text-anchor: start; fill: #767676" x="242.440938" y="30.040625" transform="rotate(-0 242.440938 30.040625)">Columna1</text>
    </g>
    <g id="line2d_36">
     <path d="M 382.840938 23.040625 
L 402.840938 23.040625 
L 422.840938 23.040625 
" style="fill: none; stroke: #767676; stroke-width: 2; stroke-linecap: square"/>
    </g>
    <g id="text_57">
     <text style="font-weight: 500; font-size: 20px; font-family: 'Montserrat'; text-anchor: start; fill: #767676" x="438.840938" y="30.040625" transform="rotate(-0 438.840938 30.040625)">Columna2</text>
    </g>
    <g id="line2d_37">
     <path d="M 583.322188 23.040625 
L 603.322188 23.040625 
L 623.322188 23.040625 
" style="fill: none; stroke: #671435; stroke-width: 2; stroke-linecap: square"/>
    </g>
    <g id="text_58">
     <text style="font-weight: 500; font-size: 20px; font-family: 'Montserrat'; text-anchor: start; fill: #767676" x="639.322188" y="30.040625" transform="rotate(-0 639.322188 30.040625)">Columna3</text>
    </g>
    <g id="line2d_38">
     <path d="M 783.762813 23.040625 
L 803.762813 23.040625 
L 823.762813 23.040625 
" style="fill: none; stroke: #9b2247; stroke-width: 2; stroke-linecap: square"/>
    </g>
    <g id="text_59">
     <text style="font-weight: 500; font-size: 20px; font-family: 'Montserrat'; text-anchor: start; fill: #767676" x="839.762813" y="30.040625" transform="rotate(-0 839.762813 30.040625)">Columna4</text>
    </g>
   </g>
  </g>
 </g>
 <defs>
  <clipPath id="pbd2f84a063">
   <rect x="81.4525" y="44.813322" width="969.68" height="238.066608"/>
  </clipPath>
 </defs>
</svg>
