<?xml version="1.0" encoding="utf-8" standalone="no"?>
<!DOCTYPE svg PUBLIC "-//W3C//DTD SVG 1.1//EN"
  "http://www.w3.org/Graphics/SVG/1.1/DTD/svg11.dtd">
<svg xmlns:xlink="http://www.w3.org/1999/xlink" width="1058.3625pt" height="357.208755pt" viewBox="0 0 1058.3625 357.208755" xmlns="http://www.w3.org/2000/svg" version="1.1">
 <metadata>
  <rdf:RDF xmlns:dc="http://purl.org/dc/elements/1.1/" xmlns:cc="http://creativecommons.org/ns#" xmlns:rdf="http://www.w3.org/1999/02/22-rdf-syntax-ns#">
   <cc:Work>
    <dc:type rdf:resource="http://purl.org/dc/dcmitype/StillImage"/>
    <dc:date>2025-06-20T18:51:18.643492</dc:date>
    <dc:format>image/svg+xml</dc:format>
    <dc:creator>
     <cc:Agent>
      <dc:title>Matplotlib v3.10.1, https://matplotlib.org/</dc:title>
     </cc:Agent>
    </dc:creator>
   </cc:Work>
  </rdf:RDF>
 </metadata>
 <defs>
  <style type="text/css">*{stroke-linejoin: round; stroke-linecap: butt}</style>
 </defs>
 <g id="figure_1">
  <g id="patch_1">
   <path d="M 0 357.208755 
L 1058.3625 357.208755 
L 1058.3625 0 
L 0 0 
z
" style="fill: #ffffff"/>
  </g>
  <g id="axes_1">
   <g id="patch_2">
    <path d="M 83.7325 282.879929 
L 1051.1625 282.879929 
L 1051.1625 44.813322 
L 83.7325 44.813322 
z
" style="fill: #ffffff"/>
   </g>
   <g id="matplotlib.axis_1">
    <g id="xtick_1">
     <g id="line2d_1">
      <path d="M 92.550435 282.879929 
L 92.550435 44.813322 
" clip-path="url(#p0f8d8084d4)" style="fill: none; stroke: #000000; stroke-opacity: 0.2; stroke-width: 0.75; stroke-linecap: square"/>
     </g>
     <g id="line2d_2">
      <defs>
       <path id="m01a018474e" d="M 0 0 
L 0 3.5 
" style="stroke: #000000; stroke-width: 0.8"/>
      </defs>
      <g>
       <use xlink:href="#m01a018474e" x="92.550435" y="282.879929" style="stroke: #000000; stroke-width: 0.8"/>
      </g>
     </g>
     <g id="text_1">
      <text style="font-weight: 600; font-size: 24px; font-family: 'Montserrat'; fill: #767676" transform="translate(75.130417 346.61199) rotate(-45)">2000</text>
     </g>
    </g>
    <g id="xtick_2">
     <g id="line2d_3">
      <path d="M 233.271378 282.879929 
L 233.271378 44.813322 
" clip-path="url(#p0f8d8084d4)" style="fill: none; stroke: #000000; stroke-opacity: 0.2; stroke-width: 0.75; stroke-linecap: square"/>
     </g>
     <g id="line2d_4">
      <g>
       <use xlink:href="#m01a018474e" x="233.271378" y="282.879929" style="stroke: #000000; stroke-width: 0.8"/>
      </g>
     </g>
     <g id="text_2">
      <text style="font-weight: 600; font-size: 24px; font-family: 'Montserrat'; fill: #767676" transform="translate(215.799654 346.715405) rotate(-45)">2004</text>
     </g>
    </g>
    <g id="xtick_3">
     <g id="line2d_5">
      <path d="M 373.992322 282.879929 
L 373.992322 44.813322 
" clip-path="url(#p0f8d8084d4)" style="fill: none; stroke: #000000; stroke-opacity: 0.2; stroke-width: 0.75; stroke-linecap: square"/>
     </g>
     <g id="line2d_6">
      <g>
       <use xlink:href="#m01a018474e" x="373.992322" y="282.879929" style="stroke: #000000; stroke-width: 0.8"/>
      </g>
     </g>
     <g id="text_3">
      <text style="font-weight: 600; font-size: 24px; font-family: 'Montserrat'; fill: #767676" transform="translate(356.749965 346.256669) rotate(-45)">2008</text>
     </g>
    </g>
    <g id="xtick_4">
     <g id="line2d_7">
      <path d="M 514.713265 282.879929 
L 514.713265 44.813322 
" clip-path="url(#p0f8d8084d4)" style="fill: none; stroke: #000000; stroke-opacity: 0.2; stroke-width: 0.75; stroke-linecap: square"/>
     </g>
     <g id="line2d_8">
      <g>
       <use xlink:href="#m01a018474e" x="514.713265" y="282.879929" style="stroke: #000000; stroke-width: 0.8"/>
      </g>
     </g>
     <g id="text_4">
      <text style="font-weight: 600; font-size: 24px; font-family: 'Montserrat'; fill: #767676" transform="translate(500.542846 340.112795) rotate(-45)">2012</text>
     </g>
    </g>
    <g id="xtick_5">
     <g id="line2d_9">
      <path d="M 655.434209 282.879929 
L 655.434209 44.813322 
" clip-path="url(#p0f8d8084d4)" style="fill: none; stroke: #000000; stroke-opacity: 0.2; stroke-width: 0.75; stroke-linecap: square"/>
     </g>
     <g id="line2d_10">
      <g>
       <use xlink:href="#m01a018474e" x="655.434209" y="282.879929" style="stroke: #000000; stroke-width: 0.8"/>
      </g>
     </g>
     <g id="text_5">
      <text style="font-weight: 600; font-size: 24px; font-family: 'Montserrat'; fill: #767676" transform="translate(640.881952 340.876471) rotate(-45)">2016</text>
     </g>
    </g>
    <g id="xtick_6">
     <g id="line2d_11">
      <path d="M 796.155153 282.879929 
L 796.155153 44.813322 
" clip-path="url(#p0f8d8084d4)" style="fill: none; stroke: #000000; stroke-opacity: 0.2; stroke-width: 0.75; stroke-linecap: square"/>
     </g>
     <g id="line2d_12">
      <g>
       <use xlink:href="#m01a018474e" x="796.155153" y="282.879929" style="stroke: #000000; stroke-width: 0.8"/>
      </g>
     </g>
     <g id="text_6">
      <text style="font-weight: 600; font-size: 24px; font-family: 'Montserrat'; fill: #767676" transform="translate(779.506766 345.06873) rotate(-45)">2020</text>
     </g>
    </g>
    <g id="xtick_7">
     <g id="line2d_13">
      <path d="M 936.876096 282.879929 
L 936.876096 44.813322 
" clip-path="url(#p0f8d8084d4)" style="fill: none; stroke: #000000; stroke-opacity: 0.2; stroke-width: 0.75; stroke-linecap: square"/>
     </g>
     <g id="line2d_14">
      <g>
       <use xlink:href="#m01a018474e" x="936.876096" y="282.879929" style="stroke: #000000; stroke-width: 0.8"/>
      </g>
     </g>
     <g id="text_7">
      <text style="font-weight: 600; font-size: 24px; font-family: 'Montserrat'; fill: #767676" transform="translate(920.176002 345.172144) rotate(-45)">2024</text>
     </g>
    </g>
   </g>
   <g id="matplotlib.axis_2">
    <g id="ytick_1">
     <g id="line2d_15">
      <path d="M 83.7325 263.926462 
L 1051.1625 263.926462 
" clip-path="url(#p0f8d8084d4)" style="fill: none; stroke: #000000; stroke-opacity: 0.2; stroke-width: 0.75; stroke-linecap: square"/>
     </g>
     <g id="line2d_16">
      <defs>
       <path id="m3ce09b0166" d="M 0 0 
L -3.5 0 
" style="stroke: #000000; stroke-width: 0.8"/>
      </defs>
      <g>
       <use xlink:href="#m3ce09b0166" x="83.7325" y="263.926462" style="stroke: #000000; stroke-width: 0.8"/>
      </g>
     </g>
     <g id="text_8">
      <text style="font-weight: 500; font-size: 24px; font-family: 'Montserrat'; text-anchor: end; fill: #767676" x="76.7325" y="272.830837" transform="rotate(-0 76.7325 272.830837)">500</text>
     </g>
    </g>
    <g id="ytick_2">
     <g id="line2d_17">
      <path d="M 83.7325 233.690975 
L 1051.1625 233.690975 
" clip-path="url(#p0f8d8084d4)" style="fill: none; stroke: #000000; stroke-opacity: 0.2; stroke-width: 0.75; stroke-linecap: square"/>
     </g>
     <g id="line2d_18">
      <g>
       <use xlink:href="#m3ce09b0166" x="83.7325" y="233.690975" style="stroke: #000000; stroke-width: 0.8"/>
      </g>
     </g>
     <g id="text_9">
      <text style="font-weight: 500; font-size: 24px; font-family: 'Montserrat'; text-anchor: end; fill: #767676" x="76.7325" y="242.59535" transform="rotate(-0 76.7325 242.59535)">1,000</text>
     </g>
    </g>
    <g id="ytick_3">
     <g id="line2d_19">
      <path d="M 83.7325 203.455488 
L 1051.1625 203.455488 
" clip-path="url(#p0f8d8084d4)" style="fill: none; stroke: #000000; stroke-opacity: 0.2; stroke-width: 0.75; stroke-linecap: square"/>
     </g>
     <g id="line2d_20">
      <g>
       <use xlink:href="#m3ce09b0166" x="83.7325" y="203.455488" style="stroke: #000000; stroke-width: 0.8"/>
      </g>
     </g>
     <g id="text_10">
      <text style="font-weight: 500; font-size: 24px; font-family: 'Montserrat'; text-anchor: end; fill: #767676" x="76.7325" y="212.359863" transform="rotate(-0 76.7325 212.359863)">1,500</text>
     </g>
    </g>
    <g id="ytick_4">
     <g id="line2d_21">
      <path d="M 83.7325 173.220001 
L 1051.1625 173.220001 
" clip-path="url(#p0f8d8084d4)" style="fill: none; stroke: #000000; stroke-opacity: 0.2; stroke-width: 0.75; stroke-linecap: square"/>
     </g>
     <g id="line2d_22">
      <g>
       <use xlink:href="#m3ce09b0166" x="83.7325" y="173.220001" style="stroke: #000000; stroke-width: 0.8"/>
      </g>
     </g>
     <g id="text_11">
      <text style="font-weight: 500; font-size: 24px; font-family: 'Montserrat'; text-anchor: end; fill: #767676" x="76.7325" y="182.124376" transform="rotate(-0 76.7325 182.124376)">2,000</text>
     </g>
    </g>
    <g id="ytick_5">
     <g id="line2d_23">
      <path d="M 83.7325 142.984514 
L 1051.1625 142.984514 
" clip-path="url(#p0f8d8084d4)" style="fill: none; stroke: #000000; stroke-opacity: 0.2; stroke-width: 0.75; stroke-linecap: square"/>
     </g>
     <g id="line2d_24">
      <g>
       <use xlink:href="#m3ce09b0166" x="83.7325" y="142.984514" style="stroke: #000000; stroke-width: 0.8"/>
      </g>
     </g>
     <g id="text_12">
      <text style="font-weight: 500; font-size: 24px; font-family: 'Montserrat'; text-anchor: end; fill: #767676" x="76.7325" y="151.888889" transform="rotate(-0 76.7325 151.888889)">2,500</text>
     </g>
    </g>
    <g id="ytick_6">
     <g id="line2d_25">
      <path d="M 83.7325 112.749028 
L 1051.1625 112.749028 
" clip-path="url(#p0f8d8084d4)" style="fill: none; stroke: #000000; stroke-opacity: 0.2; stroke-width: 0.75; stroke-linecap: square"/>
     </g>
     <g id="line2d_26">
      <g>
       <use xlink:href="#m3ce09b0166" x="83.7325" y="112.749028" style="stroke: #000000; stroke-width: 0.8"/>
      </g>
     </g>
     <g id="text_13">
      <text style="font-weight: 500; font-size: 24px; font-family: 'Montserrat'; text-anchor: end; fill: #767676" x="76.7325" y="121.653403" transform="rotate(-0 76.7325 121.653403)">3,000</text>
     </g>
    </g>
    <g id="ytick_7">
     <g id="line2d_27">
      <path d="M 83.7325 82.513541 
L 1051.1625 82.513541 
" clip-path="url(#p0f8d8084d4)" style="fill: none; stroke: #000000; stroke-opacity: 0.2; stroke-width: 0.75; stroke-linecap: square"/>
     </g>
     <g id="line2d_28">
      <g>
       <use xlink:href="#m3ce09b0166" x="83.7325" y="82.513541" style="stroke: #000000; stroke-width: 0.8"/>
      </g>
     </g>
     <g id="text_14">
      <text style="font-weight: 500; font-size: 24px; font-family: 'Montserrat'; text-anchor: end; fill: #767676" x="76.7325" y="91.417916" transform="rotate(-0 76.7325 91.417916)">3,500</text>
     </g>
    </g>
    <g id="ytick_8">
     <g id="line2d_29">
      <path d="M 83.7325 52.278054 
L 1051.1625 52.278054 
" clip-path="url(#p0f8d8084d4)" style="fill: none; stroke: #000000; stroke-opacity: 0.2; stroke-width: 0.75; stroke-linecap: square"/>
     </g>
     <g id="line2d_30">
      <g>
       <use xlink:href="#m3ce09b0166" x="83.7325" y="52.278054" style="stroke: #000000; stroke-width: 0.8"/>
      </g>
     </g>
     <g id="text_15">
      <text style="font-weight: 500; font-size: 24px; font-family: 'Montserrat'; text-anchor: end; fill: #767676" x="76.7325" y="61.182429" transform="rotate(-0 76.7325 61.182429)">4,000</text>
     </g>
    </g>
   </g>
   <g id="line2d_31">
    <path d="M 127.706591 267.923249 
L 162.862747 265.549747 
L 198.018904 255.116768 
L 233.17506 253.877449 
L 268.427535 250.323998 
L 303.583691 212.246397 
L 338.739847 184.520891 
L 373.896004 182.548332 
L 409.148478 177.209551 
L 444.304635 163.339395 
L 479.460791 161.587042 
L 514.616947 145.892684 
L 549.869422 137.317335 
L 585.025578 135.549133 
L 620.181735 120.730284 
L 655.337891 114.996326 
L 690.590365 90.825324 
L 725.746522 86.7842 
L 760.902678 84.543394 
L 796.058835 69.897366 
L 831.311309 55.634531 
L 866.467465 243.632284 
L 901.623622 254.754358 
L 936.779778 238.011819 
L 972.032253 250.771405 
L 1007.188409 235.468124 
" clip-path="url(#p0f8d8084d4)" style="fill: none; stroke: #006157; stroke-width: 2; stroke-linecap: square"/>
   </g>
   <g id="line2d_32">
    <path d="M 127.706591 265.596876 
L 162.862747 261.808107 
L 198.018904 249.827708 
L 233.17506 234.046023 
L 268.427535 231.961011 
L 303.583691 216.265202 
L 338.739847 208.507163 
L 373.896004 198.974458 
L 409.148478 183.436239 
L 444.304635 178.049317 
L 479.460791 175.539997 
L 514.616947 158.743215 
L 549.869422 155.679153 
L 585.025578 146.111604 
L 620.181735 139.728725 
L 655.337891 129.69246 
L 690.590365 119.336543 
L 725.746522 100.234366 
L 760.902678 94.914721 
L 796.058835 93.169569 
L 831.311309 90.599759 
L 866.467465 254.005725 
L 901.623622 272.05872 
L 936.779778 259.556191 
L 972.032253 270.818964 
L 1007.188409 267.9866 
" clip-path="url(#p0f8d8084d4)" style="fill: none; stroke: #767676; stroke-width: 2; stroke-linecap: square"/>
   </g>
   <g id="patch_3">
    <path d="M 83.7325 282.879929 
L 1051.1625 282.879929 
" style="fill: none; stroke: #000000; stroke-width: 1.5; stroke-linejoin: miter; stroke-linecap: square"/>
   </g>
   <g id="PathCollection_1">
    <defs>
     <path id="mdd15729098" d="M 0 3.162278 
C 0.838646 3.162278 1.643056 2.82908 2.236068 2.236068 
C 2.82908 1.643056 3.162278 0.838646 3.162278 0 
C 3.162278 -0.838646 2.82908 -1.643056 2.236068 -2.236068 
C 1.643056 -2.82908 0.838646 -3.162278 0 -3.162278 
C -0.838646 -3.162278 -1.643056 -2.82908 -2.236068 -2.236068 
C -2.82908 -1.643056 -3.162278 -0.838646 -3.162278 0 
C -3.162278 0.838646 -2.82908 1.643056 -2.236068 2.236068 
C -1.643056 2.82908 -0.838646 3.162278 0 3.162278 
z
" style="stroke: #006157"/>
    </defs>
    <g clip-path="url(#p0f8d8084d4)">
     <use xlink:href="#mdd15729098" x="127.706591" y="267.923249" style="fill: #006157; stroke: #006157"/>
     <use xlink:href="#mdd15729098" x="162.862747" y="265.549747" style="fill: #006157; stroke: #006157"/>
     <use xlink:href="#mdd15729098" x="198.018904" y="255.116768" style="fill: #006157; stroke: #006157"/>
     <use xlink:href="#mdd15729098" x="233.17506" y="253.877449" style="fill: #006157; stroke: #006157"/>
     <use xlink:href="#mdd15729098" x="268.427535" y="250.323998" style="fill: #006157; stroke: #006157"/>
     <use xlink:href="#mdd15729098" x="303.583691" y="212.246397" style="fill: #006157; stroke: #006157"/>
     <use xlink:href="#mdd15729098" x="338.739847" y="184.520891" style="fill: #006157; stroke: #006157"/>
     <use xlink:href="#mdd15729098" x="373.896004" y="182.548332" style="fill: #006157; stroke: #006157"/>
     <use xlink:href="#mdd15729098" x="409.148478" y="177.209551" style="fill: #006157; stroke: #006157"/>
     <use xlink:href="#mdd15729098" x="444.304635" y="163.339395" style="fill: #006157; stroke: #006157"/>
     <use xlink:href="#mdd15729098" x="479.460791" y="161.587042" style="fill: #006157; stroke: #006157"/>
     <use xlink:href="#mdd15729098" x="514.616947" y="145.892684" style="fill: #006157; stroke: #006157"/>
     <use xlink:href="#mdd15729098" x="549.869422" y="137.317335" style="fill: #006157; stroke: #006157"/>
     <use xlink:href="#mdd15729098" x="585.025578" y="135.549133" style="fill: #006157; stroke: #006157"/>
     <use xlink:href="#mdd15729098" x="620.181735" y="120.730284" style="fill: #006157; stroke: #006157"/>
     <use xlink:href="#mdd15729098" x="655.337891" y="114.996326" style="fill: #006157; stroke: #006157"/>
     <use xlink:href="#mdd15729098" x="690.590365" y="90.825324" style="fill: #006157; stroke: #006157"/>
     <use xlink:href="#mdd15729098" x="725.746522" y="86.7842" style="fill: #006157; stroke: #006157"/>
     <use xlink:href="#mdd15729098" x="760.902678" y="84.543394" style="fill: #006157; stroke: #006157"/>
     <use xlink:href="#mdd15729098" x="796.058835" y="69.897366" style="fill: #006157; stroke: #006157"/>
     <use xlink:href="#mdd15729098" x="831.311309" y="55.634531" style="fill: #006157; stroke: #006157"/>
     <use xlink:href="#mdd15729098" x="866.467465" y="243.632284" style="fill: #006157; stroke: #006157"/>
     <use xlink:href="#mdd15729098" x="901.623622" y="254.754358" style="fill: #006157; stroke: #006157"/>
     <use xlink:href="#mdd15729098" x="936.779778" y="238.011819" style="fill: #006157; stroke: #006157"/>
     <use xlink:href="#mdd15729098" x="972.032253" y="250.771405" style="fill: #006157; stroke: #006157"/>
     <use xlink:href="#mdd15729098" x="1007.188409" y="235.468124" style="fill: #006157; stroke: #006157"/>
    </g>
   </g>
   <g id="PathCollection_2">
    <defs>
     <path id="mcd82ab334e" d="M 0 3.162278 
C 0.838646 3.162278 1.643056 2.82908 2.236068 2.236068 
C 2.82908 1.643056 3.162278 0.838646 3.162278 0 
C 3.162278 -0.838646 2.82908 -1.643056 2.236068 -2.236068 
C 1.643056 -2.82908 0.838646 -3.162278 0 -3.162278 
C -0.838646 -3.162278 -1.643056 -2.82908 -2.236068 -2.236068 
C -2.82908 -1.643056 -3.162278 -0.838646 -3.162278 0 
C -3.162278 0.838646 -2.82908 1.643056 -2.236068 2.236068 
C -1.643056 2.82908 -0.838646 3.162278 0 3.162278 
z
" style="stroke: #767676"/>
    </defs>
    <g clip-path="url(#p0f8d8084d4)">
     <use xlink:href="#mcd82ab334e" x="127.706591" y="265.596876" style="fill: #767676; stroke: #767676"/>
     <use xlink:href="#mcd82ab334e" x="162.862747" y="261.808107" style="fill: #767676; stroke: #767676"/>
     <use xlink:href="#mcd82ab334e" x="198.018904" y="249.827708" style="fill: #767676; stroke: #767676"/>
     <use xlink:href="#mcd82ab334e" x="233.17506" y="234.046023" style="fill: #767676; stroke: #767676"/>
     <use xlink:href="#mcd82ab334e" x="268.427535" y="231.961011" style="fill: #767676; stroke: #767676"/>
     <use xlink:href="#mcd82ab334e" x="303.583691" y="216.265202" style="fill: #767676; stroke: #767676"/>
     <use xlink:href="#mcd82ab334e" x="338.739847" y="208.507163" style="fill: #767676; stroke: #767676"/>
     <use xlink:href="#mcd82ab334e" x="373.896004" y="198.974458" style="fill: #767676; stroke: #767676"/>
     <use xlink:href="#mcd82ab334e" x="409.148478" y="183.436239" style="fill: #767676; stroke: #767676"/>
     <use xlink:href="#mcd82ab334e" x="444.304635" y="178.049317" style="fill: #767676; stroke: #767676"/>
     <use xlink:href="#mcd82ab334e" x="479.460791" y="175.539997" style="fill: #767676; stroke: #767676"/>
     <use xlink:href="#mcd82ab334e" x="514.616947" y="158.743215" style="fill: #767676; stroke: #767676"/>
     <use xlink:href="#mcd82ab334e" x="549.869422" y="155.679153" style="fill: #767676; stroke: #767676"/>
     <use xlink:href="#mcd82ab334e" x="585.025578" y="146.111604" style="fill: #767676; stroke: #767676"/>
     <use xlink:href="#mcd82ab334e" x="620.181735" y="139.728725" style="fill: #767676; stroke: #767676"/>
     <use xlink:href="#mcd82ab334e" x="655.337891" y="129.69246" style="fill: #767676; stroke: #767676"/>
     <use xlink:href="#mcd82ab334e" x="690.590365" y="119.336543" style="fill: #767676; stroke: #767676"/>
     <use xlink:href="#mcd82ab334e" x="725.746522" y="100.234366" style="fill: #767676; stroke: #767676"/>
     <use xlink:href="#mcd82ab334e" x="760.902678" y="94.914721" style="fill: #767676; stroke: #767676"/>
     <use xlink:href="#mcd82ab334e" x="796.058835" y="93.169569" style="fill: #767676; stroke: #767676"/>
     <use xlink:href="#mcd82ab334e" x="831.311309" y="90.599759" style="fill: #767676; stroke: #767676"/>
     <use xlink:href="#mcd82ab334e" x="866.467465" y="254.005725" style="fill: #767676; stroke: #767676"/>
     <use xlink:href="#mcd82ab334e" x="901.623622" y="272.05872" style="fill: #767676; stroke: #767676"/>
     <use xlink:href="#mcd82ab334e" x="936.779778" y="259.556191" style="fill: #767676; stroke: #767676"/>
     <use xlink:href="#mcd82ab334e" x="972.032253" y="270.818964" style="fill: #767676; stroke: #767676"/>
     <use xlink:href="#mcd82ab334e" x="1007.188409" y="267.9866" style="fill: #767676; stroke: #767676"/>
    </g>
   </g>
   <g id="text_16">
    <g id="patch_4">
     <path d="M 105.610216 268.806027 
L 116.065216 268.806027 
Q 127.945216 268.806027 127.945216 256.926027 
L 127.945216 263.452902 
Q 127.945216 251.572902 116.065216 251.572902 
L 105.610216 251.572902 
Q 93.730216 251.572902 93.730216 263.452902 
L 93.730216 256.926027 
Q 93.730216 268.806027 105.610216 268.806027 
z
" style="fill: #006157; stroke: #ffffff; stroke-width: 0.7; stroke-linejoin: miter"/>
    </g>
    <text style="font-weight: 500; font-size: 12px; font-family: 'Montserrat'; text-anchor: middle; fill: #ffffff" x="110.837716" y="263.477277" transform="rotate(-0 110.837716 263.477277)"> 433 </text>
   </g>
   <g id="text_17">
    <g id="patch_5">
     <path d="M 837.306122 62.645749 
L 859.054247 62.645749 
Q 870.934247 62.645749 870.934247 50.765749 
L 870.934247 57.292624 
Q 870.934247 45.412624 859.054247 45.412624 
L 837.306122 45.412624 
Q 825.426122 45.412624 825.426122 57.292624 
L 825.426122 50.765749 
Q 825.426122 62.645749 837.306122 62.645749 
z
" style="fill: #006157; stroke: #ffffff; stroke-width: 0.7; stroke-linejoin: miter"/>
    </g>
    <text style="font-weight: 500; font-size: 12px; font-family: 'Montserrat'; text-anchor: middle; fill: #ffffff" x="848.180184" y="57.316999" transform="rotate(-0 848.180184 57.316999)"> 3,944 </text>
   </g>
   <g id="text_18">
    <g id="patch_6">
     <path d="M 1010.825353 230.903026 
L 1022.107228 230.903026 
Q 1033.987228 230.903026 1033.987228 219.023026 
L 1033.987228 225.549901 
Q 1033.987228 213.669901 1022.107228 213.669901 
L 1010.825353 213.669901 
Q 998.945353 213.669901 998.945353 225.549901 
L 998.945353 219.023026 
Q 998.945353 230.903026 1010.825353 230.903026 
z
" style="fill: #006157; stroke: #ffffff; stroke-width: 0.7; stroke-linejoin: miter"/>
    </g>
    <text style="font-weight: 500; font-size: 12px; font-family: 'Montserrat'; text-anchor: middle; fill: #ffffff" x="1016.466291" y="225.574276" transform="rotate(-0 1016.466291 225.574276)"> 970 </text>
   </g>
   <g id="text_19">
    <g id="patch_7">
     <path d="M 130.745716 257.910276 
L 141.536341 257.910276 
Q 153.416341 257.910276 153.416341 246.030276 
L 153.416341 252.557151 
Q 153.416341 240.677151 141.536341 240.677151 
L 130.745716 240.677151 
Q 118.865716 240.677151 118.865716 252.557151 
L 118.865716 246.030276 
Q 118.865716 257.910276 130.745716 257.910276 
z
" style="fill: #767676; stroke: #ffffff; stroke-width: 0.7; stroke-linejoin: miter"/>
    </g>
    <text style="font-weight: 500; font-size: 12px; font-family: 'Montserrat'; text-anchor: middle; fill: #ffffff" x="136.141029" y="252.581526" transform="rotate(-0 136.141029 252.581526)"> 472 </text>
   </g>
   <g id="text_20">
    <g id="patch_8">
     <path d="M 830.609503 86.034662 
L 850.568878 86.034662 
Q 862.448878 86.034662 862.448878 74.154662 
L 862.448878 80.681537 
Q 862.448878 68.801537 850.568878 68.801537 
L 830.609503 68.801537 
Q 818.729503 68.801537 818.729503 80.681537 
L 818.729503 74.154662 
Q 818.729503 86.034662 830.609503 86.034662 
z
" style="fill: #767676; stroke: #ffffff; stroke-width: 0.7; stroke-linejoin: miter"/>
    </g>
    <text style="font-weight: 500; font-size: 12px; font-family: 'Montserrat'; text-anchor: middle; fill: #ffffff" x="840.589191" y="80.705912" transform="rotate(-0 840.589191 80.705912)"> 3,366 </text>
   </g>
   <g id="text_21">
    <g id="patch_9">
     <path d="M 905.130559 267.493622 
L 914.985559 267.493622 
Q 926.865559 267.493622 926.865559 255.613622 
L 926.865559 262.140497 
Q 926.865559 250.260497 914.985559 250.260497 
L 905.130559 250.260497 
Q 893.250559 250.260497 893.250559 262.140497 
L 893.250559 255.613622 
Q 893.250559 267.493622 905.130559 267.493622 
z
" style="fill: #767676; stroke: #ffffff; stroke-width: 0.7; stroke-linejoin: miter"/>
    </g>
    <text style="font-weight: 500; font-size: 12px; font-family: 'Montserrat'; text-anchor: middle; fill: #ffffff" x="910.058059" y="262.164872" transform="rotate(-0 910.058059 262.164872)"> 365 </text>
   </g>
   <g id="text_22">
    <g id="patch_10">
     <path d="M 1010.383159 263.421502 
L 1020.862534 263.421502 
Q 1032.742534 263.421502 1032.742534 251.541502 
L 1032.742534 258.068377 
Q 1032.742534 246.188377 1020.862534 246.188377 
L 1010.383159 246.188377 
Q 998.503159 246.188377 998.503159 258.068377 
L 998.503159 251.541502 
Q 998.503159 263.421502 1010.383159 263.421502 
z
" style="fill: #767676; stroke: #ffffff; stroke-width: 0.7; stroke-linejoin: miter"/>
    </g>
    <text style="font-weight: 500; font-size: 12px; font-family: 'Montserrat'; text-anchor: middle; fill: #ffffff" x="1015.622847" y="258.092752" transform="rotate(-0 1015.622847 258.092752)"> 432 </text>
   </g>
   <g id="patch_11">
    <path d="M 112.835129 260.336416 
Q 119.274225 260.810146 125.713321 261.283876 
" style="fill: none; stroke: #808080; stroke-width: 0.5; stroke-linecap: round"/>
   </g>
   <g id="patch_12">
    <path d="M 846.256902 53.471958 
Q 839.745571 51.585445 833.234241 49.698932 
" style="fill: none; stroke: #808080; stroke-width: 0.5; stroke-linecap: round"/>
   </g>
   <g id="patch_13">
    <path d="M 1014.842208 223.457354 
Q 1011.828151 225.630353 1008.814094 227.803353 
" style="fill: none; stroke: #808080; stroke-width: 0.5; stroke-linecap: round"/>
   </g>
   <g id="patch_14">
    <path d="M 134.837562 250.809828 
Q 131.924066 254.198634 129.01057 257.58744 
" style="fill: none; stroke: #808080; stroke-width: 0.5; stroke-linecap: round"/>
   </g>
   <g id="patch_15">
    <path d="M 838.965108 78.588989 
Q 835.951051 80.761989 832.936994 82.934988 
" style="fill: none; stroke: #808080; stroke-width: 0.5; stroke-linecap: round"/>
   </g>
   <g id="patch_16">
    <path d="M 908.491017 260.119804 
Q 905.840296 262.221959 903.189576 264.324114 
" style="fill: none; stroke: #808080; stroke-width: 0.5; stroke-linecap: round"/>
   </g>
   <g id="patch_17">
    <path d="M 1014.055804 256.047684 
Q 1011.405083 258.149839 1008.754363 260.251994 
" style="fill: none; stroke: #808080; stroke-width: 0.5; stroke-linecap: round"/>
   </g>
   <g id="legend_1">
    <g id="line2d_33">
     <path d="M 357.449063 23.340625 
L 377.449063 23.340625 
L 397.449063 23.340625 
" style="fill: none; stroke: #006157; stroke-width: 2; stroke-linecap: square"/>
    </g>
    <g id="text_23">
     <text style="font-weight: 500; font-size: 20px; font-family: 'Montserrat'; text-anchor: start; fill: #767676" x="413.449063" y="30.340625" transform="rotate(-0 413.449063 30.340625)">Desaparecidos</text>
    </g>
    <g id="line2d_34">
     <path d="M 603.586563 23.340625 
L 623.586563 23.340625 
L 643.586563 23.340625 
" style="fill: none; stroke: #767676; stroke-width: 2; stroke-linecap: square"/>
    </g>
    <g id="text_24">
     <text style="font-weight: 500; font-size: 20px; font-family: 'Montserrat'; text-anchor: start; fill: #767676" x="659.586563" y="30.340625" transform="rotate(-0 659.586563 30.340625)">Localizados</text>
    </g>
   </g>
  </g>
 </g>
 <defs>
  <clipPath id="p0f8d8084d4">
   <rect x="83.7325" y="44.813322" width="967.43" height="238.066608"/>
  </clipPath>
 </defs>
</svg>
