<svg xmlns="http://www.w3.org/2000/svg" xmlns:xlink="http://www.w3.org/1999/xlink" width="1058.3pt" height="476.28" viewBox="0 0 1058.3 357.21"><defs><style>*{stroke-linejoin:round;stroke-linecap:butt}</style></defs><path fill="#fff" d="M0 357.21h1058.3V0H0z"/><path fill="#fff" d="M81.452 282.88h969.68V44.81H81.452z"/><path fill="none" stroke="#000" stroke-linecap="square" stroke-opacity=".2" stroke-width=".75" d="M90.291 282.88V44.81" clip-path="url(#e)"/><defs><path id="g" stroke="#000" stroke-width=".8" d="M0 0v3.5"/></defs><use xlink:href="#g" x="90.291" y="282.88" stroke="#000" stroke-width=".8"/><text fill="#767676" font-family="'Montserrat'" font-size="24" font-weight="600" transform="rotate(-45 454.83 85.342)">2000</text><path fill="none" stroke="#000" stroke-linecap="square" stroke-opacity=".2" stroke-width=".75" d="M231.34 282.88V44.81" clip-path="url(#e)"/><use xlink:href="#g" x="231.339" y="282.88" stroke="#000" stroke-width=".8"/><text fill="#767676" font-family="'Montserrat'" font-size="24" font-weight="600" transform="rotate(-45 525.463 -84.804)">2004</text><path fill="none" stroke="#000" stroke-linecap="square" stroke-opacity=".2" stroke-width=".75" d="M372.39 282.88V44.81" clip-path="url(#e)"/><use xlink:href="#g" x="372.387" y="282.88" stroke="#000" stroke-width=".8"/><text fill="#767676" font-family="'Montserrat'" font-size="24" font-weight="600" transform="rotate(-45 595.548 -255.574)">2008</text><path fill="none" stroke="#000" stroke-linecap="square" stroke-opacity=".2" stroke-width=".75" d="M513.44 282.88V44.81" clip-path="url(#e)"/><use xlink:href="#g" x="513.436" y="282.88" stroke="#000" stroke-width=".8"/><text fill="#767676" font-family="'Montserrat'" font-size="24" font-weight="600" transform="rotate(-45 660.184 -432.617)">2012</text><path fill="none" stroke="#000" stroke-linecap="square" stroke-opacity=".2" stroke-width=".75" d="M654.48 282.88V44.81" clip-path="url(#e)"/><use xlink:href="#g" x="654.484" y="282.88" stroke="#000" stroke-width=".8"/><text fill="#767676" font-family="'Montserrat'" font-size="24" font-weight="600" transform="rotate(-45 731.444 -602.024)">2016</text><path fill="none" stroke="#000" stroke-linecap="square" stroke-opacity=".2" stroke-width=".75" d="M795.53 282.88V44.81" clip-path="url(#e)"/><use xlink:href="#g" x="795.532" y="282.88" stroke="#000" stroke-width=".8"/><text fill="#767676" font-family="'Montserrat'" font-size="24" font-weight="600" transform="rotate(-45 805.976 -767.656)">2020</text><path fill="none" stroke="#000" stroke-linecap="square" stroke-opacity=".2" stroke-width=".75" d="M936.58 282.88V44.81" clip-path="url(#e)"/><use xlink:href="#g" x="936.58" y="282.88" stroke="#000" stroke-width=".8"/><text fill="#767676" font-family="'Montserrat'" font-size="24" font-weight="600" transform="rotate(-45 876.597 -937.808)">2024</text><path fill="none" stroke="#000" stroke-linecap="square" stroke-opacity=".2" stroke-width=".75" d="M81.452 278.05h969.68" clip-path="url(#e)"/><defs><path id="f" stroke="#000" stroke-width=".8" d="M0 0h-3.5"/></defs><use xlink:href="#f" x="81.453" y="278.052" stroke="#000" stroke-width=".8"/><text x="74.453" y="286.957" fill="#767676" font-family="'Montserrat'" font-size="24" font-weight="500" text-anchor="end">0</text><path fill="none" stroke="#000" stroke-linecap="square" stroke-opacity=".2" stroke-width=".75" d="M81.452 247.72h969.68" clip-path="url(#e)"/><use xlink:href="#f" x="81.453" y="247.719" stroke="#000" stroke-width=".8"/><text x="74.453" y="256.623" fill="#767676" font-family="'Montserrat'" font-size="24" font-weight="500" text-anchor="end">500</text><path fill="none" stroke="#000" stroke-linecap="square" stroke-opacity=".2" stroke-width=".75" d="M81.452 217.39h969.68" clip-path="url(#e)"/><use xlink:href="#f" x="81.453" y="217.385" stroke="#000" stroke-width=".8"/><text x="74.453" y="226.29" fill="#767676" font-family="'Montserrat'" font-size="24" font-weight="500" text-anchor="end">1,000</text><path fill="none" stroke="#000" stroke-linecap="square" stroke-opacity=".2" stroke-width=".75" d="M81.452 187.05h969.68" clip-path="url(#e)"/><use xlink:href="#f" x="81.453" y="187.052" stroke="#000" stroke-width=".8"/><text x="74.453" y="195.956" fill="#767676" font-family="'Montserrat'" font-size="24" font-weight="500" text-anchor="end">1,500</text><path fill="none" stroke="#000" stroke-linecap="square" stroke-opacity=".2" stroke-width=".75" d="M81.452 156.72h969.68" clip-path="url(#e)"/><use xlink:href="#f" x="81.453" y="156.718" stroke="#000" stroke-width=".8"/><text x="74.453" y="165.623" fill="#767676" font-family="'Montserrat'" font-size="24" font-weight="500" text-anchor="end">2,000</text><path fill="none" stroke="#000" stroke-linecap="square" stroke-opacity=".2" stroke-width=".75" d="M81.452 126.38h969.68" clip-path="url(#e)"/><use xlink:href="#f" x="81.453" y="126.385" stroke="#000" stroke-width=".8"/><text x="74.453" y="135.289" fill="#767676" font-family="'Montserrat'" font-size="24" font-weight="500" text-anchor="end">2,500</text><path fill="none" stroke="#000" stroke-linecap="square" stroke-opacity=".2" stroke-width=".75" d="M81.452 96.051h969.68" clip-path="url(#e)"/><use xlink:href="#f" x="81.453" y="96.051" stroke="#000" stroke-width=".8"/><text x="74.453" y="104.956" fill="#767676" font-family="'Montserrat'" font-size="24" font-weight="500" text-anchor="end">3,000</text><path fill="none" stroke="#000" stroke-linecap="square" stroke-opacity=".2" stroke-width=".75" d="M81.452 65.718h969.68" clip-path="url(#e)"/><use xlink:href="#f" x="81.453" y="65.718" stroke="#000" stroke-width=".8"/><text x="74.453" y="74.622" fill="#767676" font-family="'Montserrat'" font-size="24" font-weight="500" text-anchor="end">3,500</text><path fill="none" stroke="#006157" stroke-linecap="square" stroke-width="2" d="m125.53 264.77 35.238-12.654 35.238-13.246 35.238-.75 35.334-2.906 35.238-23.184 35.238-2.148 35.238-1.755 35.334-46.769 35.238-8.775 35.238-16.41 35.238-18.87 35.334-1.933 35.238-3.612L619.15 90.82l35.238-20.73 35.334-.492 35.238-4.19 35.238-3.73 35.238-1.882 35.334-4.16 35.238 184.5 35.238-22.073 35.238 1.046 35.334 1.74 35.238 16.71" clip-path="url(#e)"/><path fill="none" stroke="#767676" stroke-linecap="square" stroke-width="2" d="m125.53 263.37 35.238-1.07 35.238-9.843 35.238-22.667 35.334-4.428 35.238-14.37 35.238-.261 35.238-6.625 35.334-3.028 35.238-.347 35.238-8.677 35.238-3.516 35.334-12.778 35.238-3.2 35.238-10.199 35.238-17.729 35.334-8.03 35.238-23.265 35.238-21.69 35.238-.214 35.334-10.27 35.238 170.89 35.238-18.61 35.238 21.195 35.334-13.951 35.238 11.07" clip-path="url(#e)"/><path fill="none" stroke="#671435" stroke-linecap="square" stroke-width="2" d="m125.53 242.77 35.238-5.905 35.238-3.838 35.238-1.918 35.334-22.713 35.238-4.229 35.238-3.716 35.238-5.1 35.334-2.788 35.238-16.453 35.238-14.425 35.238-9.757 35.334-.992 35.238-1.308 35.238-1.071 35.238-11.943 35.334-15.166 35.238-.41 35.238-7.79 35.238-.422 35.334-6.24 35.238 154.05 35.238-12.92 35.238 21.187 35.334-20.395 35.238-4.618" clip-path="url(#e)"/><path fill="none" stroke="#9b2247" stroke-linecap="square" stroke-width="2" d="m125.53 247.55 35.238-4.545 35.238-6.434 35.238-1.84 35.334-.31 35.238-4.444 35.238-1.48 35.238-7.282 35.334-.723 35.238-13.208 35.238-4.11 35.238-11.464 35.334-5.112 35.238-3.152 35.238-4.077 35.238-3.711 35.334-10.384 35.238-7.32 35.238-10.932 35.238-3.754 35.334-.222 35.238 117.19 35.238 11.825 35.238-16.39 35.334-4.364 35.238 9.865" clip-path="url(#e)"/><path fill="none" stroke="#000" stroke-linecap="square" stroke-width="1.5" d="M81.452 282.88h969.68"/><defs><path id="b" stroke="#006157" d="M0 3.162a3.162 3.162 0 1 0 0-6.325 3.162 3.162 0 0 0 0 6.325z"/></defs><g fill="#006157" stroke="#006157" clip-path="url(#e)"><use xlink:href="#b" x="125.529" y="264.768"/><use xlink:href="#b" x="160.767" y="252.115"/><use xlink:href="#b" x="196.005" y="238.869"/><use xlink:href="#b" x="231.243" y="238.118"/><use xlink:href="#b" x="266.577" y="235.212"/><use xlink:href="#b" x="301.815" y="212.029"/><use xlink:href="#b" x="337.053" y="209.881"/><use xlink:href="#b" x="372.291" y="208.126"/><use xlink:href="#b" x="407.625" y="161.357"/><use xlink:href="#b" x="442.863" y="152.582"/><use xlink:href="#b" x="478.101" y="136.171"/><use xlink:href="#b" x="513.339" y="117.301"/><use xlink:href="#b" x="548.674" y="115.369"/><use xlink:href="#b" x="583.911" y="111.757"/><use xlink:href="#b" x="619.149" y="90.819"/><use xlink:href="#b" x="654.387" y="70.089"/><use xlink:href="#b" x="689.722" y="69.597"/><use xlink:href="#b" x="724.96" y="65.406"/><use xlink:href="#b" x="760.198" y="61.677"/><use xlink:href="#b" x="795.436" y="59.795"/><use xlink:href="#b" x="830.77" y="55.635"/><use xlink:href="#b" x="866.008" y="240.136"/><use xlink:href="#b" x="901.246" y="218.064"/><use xlink:href="#b" x="936.484" y="219.109"/><use xlink:href="#b" x="971.818" y="220.849"/><use xlink:href="#b" x="1007.056" y="237.559"/></g><defs><path id="d" stroke="#767676" d="M0 3.162a3.162 3.162 0 1 0 0-6.325 3.162 3.162 0 0 0 0 6.325z"/></defs><g fill="#767676" stroke="#767676" clip-path="url(#e)"><use xlink:href="#d" x="125.529" y="263.369"/><use xlink:href="#d" x="160.767" y="262.299"/><use xlink:href="#d" x="196.005" y="252.456"/><use xlink:href="#d" x="231.243" y="229.788"/><use xlink:href="#d" x="266.577" y="225.361"/><use xlink:href="#d" x="301.815" y="210.991"/><use xlink:href="#d" x="337.053" y="210.73"/><use xlink:href="#d" x="372.291" y="204.105"/><use xlink:href="#d" x="407.625" y="201.077"/><use xlink:href="#d" x="442.863" y="200.73"/><use xlink:href="#d" x="478.101" y="192.053"/><use xlink:href="#d" x="513.339" y="188.537"/><use xlink:href="#d" x="548.674" y="175.759"/><use xlink:href="#d" x="583.911" y="172.558"/><use xlink:href="#d" x="619.149" y="162.36"/><use xlink:href="#d" x="654.387" y="144.631"/><use xlink:href="#d" x="689.722" y="136.602"/><use xlink:href="#d" x="724.96" y="113.336"/><use xlink:href="#d" x="760.198" y="91.646"/><use xlink:href="#d" x="795.436" y="91.432"/><use xlink:href="#d" x="830.77" y="81.163"/><use xlink:href="#d" x="866.008" y="252.05"/><use xlink:href="#d" x="901.246" y="233.439"/><use xlink:href="#d" x="936.484" y="254.634"/><use xlink:href="#d" x="971.818" y="240.684"/><use xlink:href="#d" x="1007.056" y="251.754"/></g><defs><path id="c" stroke="#671435" d="M0 3.162a3.162 3.162 0 1 0 0-6.325 3.162 3.162 0 0 0 0 6.325z"/></defs><g fill="#671435" stroke="#671435" clip-path="url(#e)"><use xlink:href="#c" x="125.529" y="242.77"/><use xlink:href="#c" x="160.767" y="236.865"/><use xlink:href="#c" x="196.005" y="233.027"/><use xlink:href="#c" x="231.243" y="231.11"/><use xlink:href="#c" x="266.577" y="208.397"/><use xlink:href="#c" x="301.815" y="204.168"/><use xlink:href="#c" x="337.053" y="200.452"/><use xlink:href="#c" x="372.291" y="195.351"/><use xlink:href="#c" x="407.625" y="192.564"/><use xlink:href="#c" x="442.863" y="176.111"/><use xlink:href="#c" x="478.101" y="161.686"/><use xlink:href="#c" x="513.339" y="151.929"/><use xlink:href="#c" x="548.674" y="150.937"/><use xlink:href="#c" x="583.911" y="149.629"/><use xlink:href="#c" x="619.149" y="148.557"/><use xlink:href="#c" x="654.387" y="136.614"/><use xlink:href="#c" x="689.722" y="121.448"/><use xlink:href="#c" x="724.96" y="121.038"/><use xlink:href="#c" x="760.198" y="113.247"/><use xlink:href="#c" x="795.436" y="112.826"/><use xlink:href="#c" x="830.77" y="106.586"/><use xlink:href="#c" x="866.008" y="260.632"/><use xlink:href="#c" x="901.246" y="247.712"/><use xlink:href="#c" x="936.484" y="268.899"/><use xlink:href="#c" x="971.818" y="248.504"/><use xlink:href="#c" x="1007.056" y="243.886"/></g><defs><path id="a" stroke="#9b2247" d="M0 3.162a3.162 3.162 0 1 0 0-6.325 3.162 3.162 0 0 0 0 6.325z"/></defs><g fill="#9b2247" stroke="#9b2247" clip-path="url(#e)"><use xlink:href="#a" x="125.529" y="247.548"/><use xlink:href="#a" x="160.767" y="243.003"/><use xlink:href="#a" x="196.005" y="236.569"/><use xlink:href="#a" x="231.243" y="234.729"/><use xlink:href="#a" x="266.577" y="234.419"/><use xlink:href="#a" x="301.815" y="229.976"/><use xlink:href="#a" x="337.053" y="228.495"/><use xlink:href="#a" x="372.291" y="221.213"/><use xlink:href="#a" x="407.625" y="220.49"/><use xlink:href="#a" x="442.863" y="207.283"/><use xlink:href="#a" x="478.101" y="203.172"/><use xlink:href="#a" x="513.339" y="191.709"/><use xlink:href="#a" x="548.674" y="186.597"/><use xlink:href="#a" x="583.911" y="183.445"/><use xlink:href="#a" x="619.149" y="179.368"/><use xlink:href="#a" x="654.387" y="175.657"/><use xlink:href="#a" x="689.722" y="165.273"/><use xlink:href="#a" x="724.96" y="157.952"/><use xlink:href="#a" x="760.198" y="147.022"/><use xlink:href="#a" x="795.436" y="143.267"/><use xlink:href="#a" x="830.77" y="143.046"/><use xlink:href="#a" x="866.008" y="260.234"/><use xlink:href="#a" x="901.246" y="272.059"/><use xlink:href="#a" x="936.484" y="255.668"/><use xlink:href="#a" x="971.818" y="251.305"/><use xlink:href="#a" x="1007.056" y="261.169"/></g><path fill="#006157" stroke="#fff" stroke-width=".7" d="M137.62 257.51h10.791q11.88 0 11.88-11.88v6.527q0-11.88-11.88-11.88H137.62q-11.88 0-11.88 11.88v-6.527q0 11.88 11.88 11.88z"/><text x="143.013" y="252.18" fill="#fff" font-family="'Montserrat'" font-size="12" font-weight="500" text-anchor="middle">427 </text><path fill="#006157" stroke="#fff" stroke-width=".7" d="M279.54 238.23h11.282q11.88 0 11.88-11.88v6.527q0-11.88-11.88-11.88H279.54q-11.88 0-11.88 11.88v-6.527q0 11.88 11.88 11.88z"/><text x="285.176" y="232.899" fill="#fff" font-family="'Montserrat'" font-size="12" font-weight="500" text-anchor="middle">706 </text><path fill="#006157" stroke="#fff" stroke-width=".7" d="M385.54 217.68h14.079q11.88 0 11.88-11.88v6.527q0-11.88-11.88-11.88H385.54q-11.88 0-11.88 11.88V205.8q0 11.88 11.88 11.88z"/><text x="392.581" y="212.353" fill="#fff" font-family="'Montserrat'" font-size="12" font-weight="500" text-anchor="middle">1,152 </text><path fill="#006157" stroke="#fff" stroke-width=".7" d="M482.59 130.86h19.768q11.88 0 11.88-11.88v6.527q0-11.88-11.88-11.88H482.59q-11.88 0-11.88 11.88v-6.527q0 11.88 11.88 11.88z"/><text x="492.473" y="125.534" fill="#fff" font-family="'Montserrat'" font-size="12" font-weight="500" text-anchor="middle">2,338 </text><path fill="#006157" stroke="#fff" stroke-width=".7" d="M587.62 107.19h17.955q11.88 0 11.88-11.88v6.527q0-11.88-11.88-11.88H587.62q-11.88 0-11.88 11.88V95.31q0 11.88 11.88 11.88z"/><text x="596.593" y="101.863" fill="#fff" font-family="'Montserrat'" font-size="12" font-weight="500" text-anchor="middle">2,741 </text><path fill="#006157" stroke="#fff" stroke-width=".7" d="M693.8 65.032h20.584q11.88 0 11.88-11.88v6.527q0-11.88-11.88-11.88H693.8q-11.88 0-11.88 11.88v-6.527q0 11.88 11.88 11.88z"/><text x="704.094" y="59.703" fill="#fff" font-family="'Montserrat'" font-size="12" font-weight="500" text-anchor="middle">3,436 </text><path fill="#006157" stroke="#fff" stroke-width=".7" d="M762.73 57.889h19.755q11.88 0 11.88-11.88v6.527q0-11.88-11.88-11.88H762.73q-11.88 0-11.88 11.88v-6.527q0 11.88 11.88 11.88z"/><text x="772.61" y="52.56" fill="#fff" font-family="'Montserrat'" font-size="12" font-weight="500" text-anchor="middle">3,597 </text><path fill="#006157" stroke="#fff" stroke-width=".7" d="M844.19 59.078h20.499q11.88 0 11.88-11.88v6.527q0-11.88-11.88-11.88H844.19q-11.88 0-11.88 11.88v-6.527q0 11.88 11.88 11.88z"/><text x="854.441" y="53.75" fill="#fff" font-family="'Montserrat'" font-size="12" font-weight="500" text-anchor="middle">3,666 </text><path fill="#006157" stroke="#fff" stroke-width=".7" d="M904.77 212.76h11.559q11.88 0 11.88-11.88v6.527q0-11.88-11.88-11.88H904.77q-11.88 0-11.88 11.88v-6.527q0 11.88 11.88 11.88z"/><text x="910.545" y="207.427" fill="#fff" font-family="'Montserrat'" font-size="12" font-weight="500" text-anchor="middle">988 </text><path fill="#006157" stroke="#fff" stroke-width=".7" d="M1010.2 229.87h10.682q11.88 0 11.88-11.88v6.527q0-11.88-11.88-11.88H1010.2q-11.88 0-11.88 11.88v-6.527q0 11.88 11.88 11.88z"/><text x="1015.51" y="224.544" fill="#fff" font-family="'Montserrat'" font-size="12" font-weight="500" text-anchor="middle">667 </text><path fill="#767676" stroke="#fff" stroke-width=".7" d="M145.68 270.07h9.88q11.88 0 11.88-11.88v6.527q0-11.88-11.88-11.88h-9.88q-11.88 0-11.88 11.88v-6.527q0 11.88 11.88 11.88z"/><text x="150.622" y="264.742" fill="#fff" font-family="'Montserrat'" font-size="12" font-weight="500" text-anchor="middle">259 </text><path fill="#767676" stroke="#fff" stroke-width=".7" d="M279.4 217.67h11.559q11.88 0 11.88-11.88v6.527q0-11.88-11.88-11.88H279.4q-11.88 0-11.88 11.88v-6.527q0 11.88 11.88 11.88z"/><text x="285.176" y="212.345" fill="#fff" font-family="'Montserrat'" font-size="12" font-weight="500" text-anchor="middle">868 </text><path fill="#767676" stroke="#fff" stroke-width=".7" d="M344.54 196.42h14.919q11.88 0 11.88-11.88v6.527q0-11.88-11.88-11.88H344.54q-11.88 0-11.88 11.88v-6.527q0 11.88 11.88 11.88z"/><text x="352.001" y="191.09" fill="#fff" font-family="'Montserrat'" font-size="12" font-weight="500" text-anchor="middle">1,218 </text><path fill="#767676" stroke="#fff" stroke-width=".7" d="M482.18 187.09h15.506q11.88 0 11.88-11.88v6.527q0-11.88-11.88-11.88H482.18q-11.88 0-11.88 11.88v-6.527q0 11.88 11.88 11.88z"/><text x="489.937" y="181.765" fill="#fff" font-family="'Montserrat'" font-size="12" font-weight="500" text-anchor="middle">1,417 </text><path fill="#767676" stroke="#fff" stroke-width=".7" d="M587.78 167.25h17.631q11.88 0 11.88-11.88v6.527q0-11.88-11.88-11.88H587.78q-11.88 0-11.88 11.88v-6.527q0 11.88 11.88 11.88z"/><text x="596.593" y="161.921" fill="#fff" font-family="'Montserrat'" font-size="12" font-weight="500" text-anchor="middle">1,738 </text><path fill="#767676" stroke="#fff" stroke-width=".7" d="M693.32 133.08h16.479q11.88 0 11.88-11.88v6.527q0-11.88-11.88-11.88H693.32q-11.88 0-11.88 11.88V121.2q0 11.88 11.88 11.88z"/><text x="701.557" y="127.748" fill="#fff" font-family="'Montserrat'" font-size="12" font-weight="500" text-anchor="middle">2,331 </text><path fill="#767676" stroke="#fff" stroke-width=".7" d="M798.53 88.502h20.871q11.88 0 11.88-11.88v6.527q0-11.88-11.88-11.88H798.53q-11.88 0-11.88 11.88v-6.527q0 11.88 11.88 11.88z"/><text x="808.962" y="83.173" fill="#fff" font-family="'Montserrat'" font-size="12" font-weight="500" text-anchor="middle">3,076 </text><path fill="#767676" stroke="#fff" stroke-width=".7" d="M835.1 76.449h20.092q11.88 0 11.88-11.88v6.527q0-11.88-11.88-11.88H835.1q-11.88 0-11.88 11.88v-6.527q0 11.88 11.88 11.88z"/><text x="845.142" y="71.12" fill="#fff" font-family="'Montserrat'" font-size="12" font-weight="500" text-anchor="middle">3,245 </text><path fill="#767676" stroke="#fff" stroke-width=".7" d="M904.89 228.13h9.626q11.88 0 11.88-11.88v6.527q0-11.88-11.88-11.88h-9.626q-11.88 0-11.88 11.88v-6.527q0 11.88 11.88 11.88z"/><text x="909.7" y="222.802" fill="#fff" font-family="'Montserrat'" font-size="12" font-weight="500" text-anchor="middle">735 </text><path fill="#767676" stroke="#fff" stroke-width=".7" d="M984.92 256.55h10.455q11.88 0 11.88-11.88v6.527q0-11.88-11.88-11.88H984.92q-11.88 0-11.88 11.88v-6.527q0 11.88 11.88 11.88z"/><text x="990.148" y="251.225" fill="#fff" font-family="'Montserrat'" font-size="12" font-weight="500" text-anchor="middle">433 </text><path fill="#671435" stroke="#fff" stroke-width=".7" d="M164.56 229.18h11.006q11.88 0 11.88-11.88v6.527q0-11.88-11.88-11.88H164.56q-11.88 0-11.88 11.88V217.3q0 11.88 11.88 11.88z"/><text x="170.066" y="223.85" fill="#fff" font-family="'Montserrat'" font-size="12" font-weight="500" text-anchor="middle">678 </text><path fill="#671435" stroke="#fff" stroke-width=".7" d="M270.38 200.71h16.059q11.88 0 11.88-11.88v6.527q0-11.88-11.88-11.88H270.38q-11.88 0-11.88 11.88v-6.527q0 11.88 11.88 11.88z"/><text x="278.413" y="195.381" fill="#fff" font-family="'Montserrat'" font-size="12" font-weight="500" text-anchor="middle">1,148 </text><path fill="#671435" stroke="#fff" stroke-width=".7" d="M376.47 187.66h16.995q11.88 0 11.88-11.88v6.527q0-11.88-11.88-11.88H376.47q-11.88 0-11.88 11.88v-6.527q0 11.88 11.88 11.88z"/><text x="384.972" y="182.336" fill="#fff" font-family="'Montserrat'" font-size="12" font-weight="500" text-anchor="middle">1,363 </text><path fill="#671435" stroke="#fff" stroke-width=".7" d="M482.22 158.16h15.435q11.88 0 11.88-11.88v6.527q0-11.88-11.88-11.88H482.22q-11.88 0-11.88 11.88v-6.527q0 11.88 11.88 11.88z"/><text x="489.937" y="152.832" fill="#fff" font-family="'Montserrat'" font-size="12" font-weight="500" text-anchor="middle">1,918 </text><path fill="#671435" stroke="#fff" stroke-width=".7" d="M587.6 145.06h14.595q11.88 0 11.88-11.88v6.527q0-11.88-11.88-11.88H587.6q-11.88 0-11.88 11.88v-6.527q0 11.88 11.88 11.88z"/><text x="594.902" y="139.735" fill="#fff" font-family="'Montserrat'" font-size="12" font-weight="500" text-anchor="middle">2,116 </text><path fill="#671435" stroke="#fff" stroke-width=".7" d="M693.72 116.14h17.368q11.88 0 11.88-11.88v6.527q0-11.88-11.88-11.88H693.72q-11.88 0-11.88 11.88v-6.527q0 11.88 11.88 11.88z"/><text x="702.403" y="110.811" fill="#fff" font-family="'Montserrat'" font-size="12" font-weight="500" text-anchor="middle">2,581 </text><path fill="#671435" stroke="#fff" stroke-width=".7" d="M770.6 120h19.239q11.88 0 11.88-11.88v6.527q0-11.88-11.88-11.88H770.6q-11.88 0-11.88 11.88v-6.527q0 11.88 11.88 11.88z"/><text x="780.218" y="114.675" fill="#fff" font-family="'Montserrat'" font-size="12" font-weight="500" text-anchor="middle">2,723 </text><path fill="#671435" stroke="#fff" stroke-width=".7" d="M834.98 103.06h20.332q11.88 0 11.88-11.88v6.527q0-11.88-11.88-11.88H834.98q-11.88 0-11.88 11.88V91.18q0 11.88 11.88 11.88z"/><text x="845.142" y="97.732" fill="#fff" font-family="'Montserrat'" font-size="12" font-weight="500" text-anchor="middle">2,826 </text><path fill="#671435" stroke="#fff" stroke-width=".7" d="M904.75 244.19h11.595q11.88 0 11.88-11.88v6.527q0-11.88-11.88-11.88H904.75q-11.88 0-11.88 11.88v-6.527q0 11.88 11.88 11.88z"/><text x="910.545" y="238.859" fill="#fff" font-family="'Montserrat'" font-size="12" font-weight="500" text-anchor="middle">500 </text><path fill="#671435" stroke="#fff" stroke-width=".7" d="M985.22 242.74h9.855q11.88 0 11.88-11.88v6.527q0-11.88-11.88-11.88h-9.855q-11.88 0-11.88 11.88v-6.527q0 11.88 11.88 11.88z"/><text x="990.148" y="237.411" fill="#fff" font-family="'Montserrat'" font-size="12" font-weight="500" text-anchor="middle">563 </text><path fill="#9b2247" stroke="#fff" stroke-width=".7" d="M138.89 242.45h9.938q11.88 0 11.88-11.88v6.527q0-11.88-11.88-11.88h-9.938q-11.88 0-11.88 11.88v-6.527q0 11.88 11.88 11.88z"/><text x="143.859" y="237.122" fill="#fff" font-family="'Montserrat'" font-size="12" font-weight="500" text-anchor="middle">577 </text><path fill="#9b2247" stroke="#fff" stroke-width=".7" d="M247.5 224.95h7.718q11.88 0 11.88-11.88v6.527q0-11.88-11.88-11.88H247.5q-11.88 0-11.88 11.88v-6.527q0 11.88 11.88 11.88z"/><text x="251.36" y="219.62" fill="#fff" font-family="'Montserrat'" font-size="12" font-weight="500" text-anchor="middle">719 </text><path fill="#9b2247" stroke="#fff" stroke-width=".7" d="M355.27 228.99h10.371q11.88 0 11.88-11.88v6.527q0-11.88-11.88-11.88H355.27q-11.88 0-11.88 11.88v-6.527q0 11.88 11.88 11.88z"/><text x="360.455" y="223.657" fill="#fff" font-family="'Montserrat'" font-size="12" font-weight="500" text-anchor="middle">936 </text><path fill="#9b2247" stroke="#fff" stroke-width=".7" d="M481.96 199.56h17.644q11.88 0 11.88-11.88v6.527q0-11.88-11.88-11.88H481.96q-11.88 0-11.88 11.88v-6.527q0 11.88 11.88 11.88z"/><text x="490.782" y="194.229" fill="#fff" font-family="'Montserrat'" font-size="12" font-weight="500" text-anchor="middle">1,234 </text><path fill="#9b2247" stroke="#fff" stroke-width=".7" d="M561.02 191.01h17.044q11.88 0 11.88-11.88v6.527q0-11.88-11.88-11.88H561.02q-11.88 0-11.88 11.88v-6.527q0 11.88 11.88 11.88z"/><text x="569.54" y="185.683" fill="#fff" font-family="'Montserrat'" font-size="12" font-weight="500" text-anchor="middle">1,559 </text><path fill="#9b2247" stroke="#fff" stroke-width=".7" d="M694.14 161.75h18.208q11.88 0 11.88-11.88v6.527q0-11.88-11.88-11.88H694.14q-11.88 0-11.88 11.88v-6.527q0 11.88 11.88 11.88z"/><text x="703.248" y="156.42" fill="#fff" font-family="'Montserrat'" font-size="12" font-weight="500" text-anchor="middle">1,858 </text><path fill="#9b2247" stroke="#fff" stroke-width=".7" d="M773.64 150.45h16.528q11.88 0 11.88-11.88v6.527q0-11.88-11.88-11.88H773.64q-11.88 0-11.88 11.88v-6.527q0 11.88 11.88 11.88z"/><text x="781.909" y="145.116" fill="#fff" font-family="'Montserrat'" font-size="12" font-weight="500" text-anchor="middle">2,221 </text><path fill="#9b2247" stroke="#fff" stroke-width=".7" d="M834.81 135.36h18.977q11.88 0 11.88-11.88v6.527q0-11.88-11.88-11.88H834.81q-11.88 0-11.88 11.88v-6.527q0 11.88 11.88 11.88z"/><text x="844.296" y="130.031" fill="#fff" font-family="'Montserrat'" font-size="12" font-weight="500" text-anchor="middle">2,225 </text><path fill="#9b2247" stroke="#fff" stroke-width=".7" d="M904.4 268.53h3.83q11.88 0 11.88-11.88v6.527q0-11.88-11.88-11.88h-3.83q-11.88 0-11.88 11.88v-6.527q0 11.88 11.88 11.88z"/><text x="906.318" y="263.205" fill="#fff" font-family="'Montserrat'" font-size="12" font-weight="500" text-anchor="middle">98 </text><path fill="#9b2247" stroke="#fff" stroke-width=".7" d="M992.51 268.35h10.491q11.88 0 11.88-11.88v6.527q0-11.88-11.88-11.88H992.51q-11.88 0-11.88 11.88v-6.527q0 11.88 11.88 11.88z"/><text x="997.757" y="263.018" fill="#fff" font-family="'Montserrat'" font-size="12" font-weight="500" text-anchor="middle">278 </text><path fill="none" stroke="gray" stroke-linecap="round" stroke-width=".5" d="m283.18 229.52-14.607-.7M390.7 208.38l-16.536-6.057M490.69 123.17l-10.819 5.595M594.82 99.507l-9.147 4.825M702.28 57.26l-10.746 5.001M852.44 50.35l-19.677-1.097M908.98 205.39l-6.175 4.935M1014.2 222.77l-5.84 6.778M152.37 260.48l6.648-3.701M283.41 209.99l-15.059 7.943M353.8 188.67l16.69 8.07M488.22 179.5l-8.405 5.03M594.87 159.64l-9.231 5.41M699.75 125.32l-8.225 3.925M807.09 80.585l-9.779 3.654M843.33 68.692l-10.758 5.118M908.2 220.83l-5.45 4.79M168.69 222.02l-6.546 6.906M276.87 193.37l-8.755 7.257M383.39 180.27l-9.52 7.364M488.13 150.41l-8.225 3.925M593.19 137.49l-7.575 4.61M700.68 108.53l-9.231 5.41M782.12 110.76l11.423-3.794M843.28 95.177l-10.649 4.185M908.84 236.61l-5.881 3.572M252.95 217.55l12.03 9.166M362.26 219.51l8.225-3.925M488.96 191.77l-9.036 4.089M571.41 181.69l10.631-4.026M701.4 153.9l-9.835 4.107M783.78 141.13l9.779-3.654M842.68 127.92l-10.286 7.46M904.98 261.4l-2.4 2.672M999.51 258.78l5.787-3.145"/><path fill="none" stroke="#006157" stroke-linecap="square" stroke-width="2" d="M186.44 23.041h40"/><text x="242.441" y="30.041" fill="#767676" font-family="'Montserrat'" font-size="20" font-weight="500">Columna1</text><path fill="none" stroke="#767676" stroke-linecap="square" stroke-width="2" d="M382.84 23.041h40"/><text x="438.841" y="30.041" fill="#767676" font-family="'Montserrat'" font-size="20" font-weight="500">Columna2</text><path fill="none" stroke="#671435" stroke-linecap="square" stroke-width="2" d="M583.32 23.041h40"/><text x="639.322" y="30.041" fill="#767676" font-family="'Montserrat'" font-size="20" font-weight="500">Columna3</text><path fill="none" stroke="#9b2247" stroke-linecap="square" stroke-width="2" d="M783.76 23.041h40"/><text x="839.763" y="30.041" fill="#767676" font-family="'Montserrat'" font-size="20" font-weight="500">Columna4</text><defs><clipPath id="e"><path d="M81.452 44.813h969.68v238.07H81.452z"/></clipPath></defs></svg>