<?xml version="1.0" encoding="utf-8" standalone="no"?>
<!DOCTYPE svg PUBLIC "-//W3C//DTD SVG 1.1//EN"
  "http://www.w3.org/Graphics/SVG/1.1/DTD/svg11.dtd">
<svg xmlns:xlink="http://www.w3.org/1999/xlink" width="1106.943258pt" height="564.862759pt" viewBox="0 0 1106.943258 564.862759" xmlns="http://www.w3.org/2000/svg" version="1.1">
 <metadata>
  <rdf:RDF xmlns:dc="http://purl.org/dc/elements/1.1/" xmlns:cc="http://creativecommons.org/ns#" xmlns:rdf="http://www.w3.org/1999/02/22-rdf-syntax-ns#">
   <cc:Work>
    <dc:type rdf:resource="http://purl.org/dc/dcmitype/StillImage"/>
    <dc:date>2025-05-21T23:15:27.370996</dc:date>
    <dc:format>image/svg+xml</dc:format>
    <dc:creator>
     <cc:Agent>
      <dc:title>Matplotlib v3.10.1, https://matplotlib.org/</dc:title>
     </cc:Agent>
    </dc:creator>
   </cc:Work>
  </rdf:RDF>
 </metadata>
 <defs>
  <style type="text/css">*{stroke-linejoin: round; stroke-linecap: butt}</style>
 </defs>
 <g id="figure_1">
  <g id="patch_1">
   <path d="M 0 564.862759 
L 1106.943258 564.862759 
L 1106.943258 0 
L 0 0 
z
" style="fill: #ffffff"/>
  </g>
  <g id="axes_1">
   <g id="patch_2">
    <path d="M 117.290201 337.716668 
L 1099.743258 337.716668 
L 1099.743258 66.647631 
L 117.290201 66.647631 
z
" style="fill: #ffffff"/>
   </g>
   <g id="matplotlib.axis_1">
    <g id="xtick_1">
     <g id="line2d_1">
      <defs>
       <path id="m0ad4891d6c" d="M 0 0 
L 0 3.5 
" style="stroke: #000000; stroke-width: 0.8"/>
      </defs>
      <g>
       <use xlink:href="#m0ad4891d6c" x="158.225745" y="337.716668" style="stroke: #000000; stroke-width: 0.8"/>
      </g>
     </g>
     <g id="text_1">
      <text style="font-weight: 500; font-size: 27px; font-family: 'Montserrat'" transform="translate(21.366774 491.924036) rotate(-45)">Mayo de 2025</text>
     </g>
    </g>
    <g id="xtick_2">
     <g id="line2d_2">
      <g>
       <use xlink:href="#m0ad4891d6c" x="240.096833" y="337.716668" style="stroke: #000000; stroke-width: 0.8"/>
      </g>
     </g>
     <g id="text_2">
      <text style="font-weight: 500; font-size: 27px; font-family: 'Montserrat'" transform="translate(98.369432 496.905824) rotate(-45)">Enero de 2025</text>
     </g>
    </g>
    <g id="xtick_3">
     <g id="line2d_3">
      <g>
       <use xlink:href="#m0ad4891d6c" x="321.967921" y="337.716668" style="stroke: #000000; stroke-width: 0.8"/>
      </g>
     </g>
     <g id="text_3">
      <text style="font-weight: 500; font-size: 27px; font-family: 'Montserrat'" transform="translate(192.187862 484.958482) rotate(-45)">Abril de 2025</text>
     </g>
    </g>
    <g id="xtick_4">
     <g id="line2d_4">
      <g>
       <use xlink:href="#m0ad4891d6c" x="403.839009" y="337.716668" style="stroke: #000000; stroke-width: 0.8"/>
      </g>
     </g>
     <g id="text_4">
      <text style="font-weight: 500; font-size: 27px; font-family: 'Montserrat'" transform="translate(217.815456 541.201976) rotate(-45)">Diciembre de 2025</text>
     </g>
    </g>
    <g id="xtick_5">
     <g id="line2d_5">
      <g>
       <use xlink:href="#m0ad4891d6c" x="485.710097" y="337.716668" style="stroke: #000000; stroke-width: 0.8"/>
      </g>
     </g>
     <g id="text_5">
      <text style="font-weight: 500; font-size: 27px; font-family: 'Montserrat'" transform="translate(287.217158 553.957741) rotate(-45)">Septiembre de 2025</text>
     </g>
    </g>
    <g id="xtick_6">
     <g id="line2d_6">
      <g>
       <use xlink:href="#m0ad4891d6c" x="567.581185" y="337.716668" style="stroke: #000000; stroke-width: 0.8"/>
      </g>
     </g>
     <g id="text_6">
      <text style="font-weight: 500; font-size: 27px; font-family: 'Montserrat'" transform="translate(406.988617 515.770991) rotate(-45)">Febrero de 2025</text>
     </g>
    </g>
    <g id="xtick_7">
     <g id="line2d_7">
      <g>
       <use xlink:href="#m0ad4891d6c" x="649.452273" y="337.716668" style="stroke: #000000; stroke-width: 0.8"/>
      </g>
     </g>
     <g id="text_7">
      <text style="font-weight: 500; font-size: 27px; font-family: 'Montserrat'" transform="translate(519.654316 484.976381) rotate(-45)">Julio de 2025</text>
     </g>
    </g>
    <g id="xtick_8">
     <g id="line2d_8">
      <g>
       <use xlink:href="#m0ad4891d6c" x="731.323361" y="337.716668" style="stroke: #000000; stroke-width: 0.8"/>
      </g>
     </g>
     <g id="text_8">
      <text style="font-weight: 500; font-size: 27px; font-family: 'Montserrat'" transform="translate(578.045371 508.343056) rotate(-45)">Agosto de 2025</text>
     </g>
    </g>
    <g id="xtick_9">
     <g id="line2d_9">
      <g>
       <use xlink:href="#m0ad4891d6c" x="813.19445" y="337.716668" style="stroke: #000000; stroke-width: 0.8"/>
      </g>
     </g>
     <g id="text_9">
      <text style="font-weight: 500; font-size: 27px; font-family: 'Montserrat'" transform="translate(648.592586 519.780287) rotate(-45)">Octubre de 2025</text>
     </g>
    </g>
    <g id="xtick_10">
     <g id="line2d_10">
      <g>
       <use xlink:href="#m0ad4891d6c" x="895.065538" y="337.716668" style="stroke: #000000; stroke-width: 0.8"/>
      </g>
     </g>
     <g id="text_10">
      <text style="font-weight: 500; font-size: 27px; font-family: 'Montserrat'" transform="translate(757.59503 492.648931) rotate(-45)">Junio de 2025</text>
     </g>
    </g>
    <g id="xtick_11">
     <g id="line2d_11">
      <g>
       <use xlink:href="#m0ad4891d6c" x="976.936626" y="337.716668" style="stroke: #000000; stroke-width: 0.8"/>
      </g>
     </g>
     <g id="text_11">
      <text style="font-weight: 500; font-size: 27px; font-family: 'Montserrat'" transform="translate(784.609769 547.505281) rotate(-45)">Noviembre de 2025</text>
     </g>
    </g>
    <g id="xtick_12">
     <g id="line2d_12">
      <g>
       <use xlink:href="#m0ad4891d6c" x="1058.807714" y="337.716668" style="stroke: #000000; stroke-width: 0.8"/>
      </g>
     </g>
     <g id="text_12">
      <text style="font-weight: 500; font-size: 27px; font-family: 'Montserrat'" transform="translate(914.962307 499.02383) rotate(-45)">Marzo de 2025</text>
     </g>
    </g>
   </g>
   <g id="matplotlib.axis_2">
    <g id="ytick_1">
     <g id="line2d_13">
      <path d="M 117.290201 337.716668 
L 1099.743258 337.716668 
" clip-path="url(#pa38d030df5)" style="fill: none; stroke: #b9b9b9; stroke-width: 0.75; stroke-linecap: square"/>
     </g>
     <g id="line2d_14">
      <defs>
       <path id="mfd9721d7fe" d="M 0 0 
L -3.5 0 
" style="stroke: #000000; stroke-width: 0.8"/>
      </defs>
      <g>
       <use xlink:href="#mfd9721d7fe" x="117.290201" y="337.716668" style="stroke: #000000; stroke-width: 0.8"/>
      </g>
     </g>
     <g id="text_13">
      <text style="font-weight: 500; font-size: 22px; font-family: 'Montserrat'; text-anchor: end" x="110.290201" y="345.879012" transform="rotate(-0 110.290201 345.879012)">0</text>
     </g>
    </g>
    <g id="ytick_2">
     <g id="line2d_15">
      <path d="M 117.290201 292.163134 
L 1099.743258 292.163134 
" clip-path="url(#pa38d030df5)" style="fill: none; stroke: #b9b9b9; stroke-width: 0.75; stroke-linecap: square"/>
     </g>
     <g id="line2d_16">
      <g>
       <use xlink:href="#mfd9721d7fe" x="117.290201" y="292.163134" style="stroke: #000000; stroke-width: 0.8"/>
      </g>
     </g>
     <g id="text_14">
      <text style="font-weight: 500; font-size: 22px; font-family: 'Montserrat'; text-anchor: end" x="110.290201" y="300.325478" transform="rotate(-0 110.290201 300.325478)">2,000</text>
     </g>
    </g>
    <g id="ytick_3">
     <g id="line2d_17">
      <path d="M 117.290201 246.6096 
L 1099.743258 246.6096 
" clip-path="url(#pa38d030df5)" style="fill: none; stroke: #b9b9b9; stroke-width: 0.75; stroke-linecap: square"/>
     </g>
     <g id="line2d_18">
      <g>
       <use xlink:href="#mfd9721d7fe" x="117.290201" y="246.6096" style="stroke: #000000; stroke-width: 0.8"/>
      </g>
     </g>
     <g id="text_15">
      <text style="font-weight: 500; font-size: 22px; font-family: 'Montserrat'; text-anchor: end" x="110.290201" y="254.771944" transform="rotate(-0 110.290201 254.771944)">4,000</text>
     </g>
    </g>
    <g id="ytick_4">
     <g id="line2d_19">
      <path d="M 117.290201 201.056066 
L 1099.743258 201.056066 
" clip-path="url(#pa38d030df5)" style="fill: none; stroke: #b9b9b9; stroke-width: 0.75; stroke-linecap: square"/>
     </g>
     <g id="line2d_20">
      <g>
       <use xlink:href="#mfd9721d7fe" x="117.290201" y="201.056066" style="stroke: #000000; stroke-width: 0.8"/>
      </g>
     </g>
     <g id="text_16">
      <text style="font-weight: 500; font-size: 22px; font-family: 'Montserrat'; text-anchor: end" x="110.290201" y="209.21841" transform="rotate(-0 110.290201 209.21841)">6,000</text>
     </g>
    </g>
    <g id="ytick_5">
     <g id="line2d_21">
      <path d="M 117.290201 155.502532 
L 1099.743258 155.502532 
" clip-path="url(#pa38d030df5)" style="fill: none; stroke: #b9b9b9; stroke-width: 0.75; stroke-linecap: square"/>
     </g>
     <g id="line2d_22">
      <g>
       <use xlink:href="#mfd9721d7fe" x="117.290201" y="155.502532" style="stroke: #000000; stroke-width: 0.8"/>
      </g>
     </g>
     <g id="text_17">
      <text style="font-weight: 500; font-size: 22px; font-family: 'Montserrat'; text-anchor: end" x="110.290201" y="163.664876" transform="rotate(-0 110.290201 163.664876)">8,000</text>
     </g>
    </g>
    <g id="ytick_6">
     <g id="line2d_23">
      <path d="M 117.290201 109.948998 
L 1099.743258 109.948998 
" clip-path="url(#pa38d030df5)" style="fill: none; stroke: #b9b9b9; stroke-width: 0.75; stroke-linecap: square"/>
     </g>
     <g id="line2d_24">
      <g>
       <use xlink:href="#mfd9721d7fe" x="117.290201" y="109.948998" style="stroke: #000000; stroke-width: 0.8"/>
      </g>
     </g>
     <g id="text_18">
      <text style="font-weight: 500; font-size: 22px; font-family: 'Montserrat'; text-anchor: end" x="110.290201" y="118.111342" transform="rotate(-0 110.290201 118.111342)">10,000</text>
     </g>
    </g>
   </g>
   <g id="patch_3">
    <path d="M 121.383755 337.716668 
L 195.067734 337.716668 
L 195.067734 269.135823 
L 121.383755 269.135823 
z
" clip-path="url(#pa38d030df5)" style="fill: #10302c"/>
   </g>
   <g id="patch_4">
    <path d="M 121.383755 269.135823 
L 195.067734 269.135823 
L 195.067734 195.680749 
L 121.383755 195.680749 
z
" clip-path="url(#pa38d030df5)" style="fill: #4c6a67"/>
   </g>
   <g id="patch_5">
    <path d="M 121.383755 195.680749 
L 195.067734 195.680749 
L 195.067734 123.432844 
L 121.383755 123.432844 
z
" clip-path="url(#pa38d030df5)" style="fill: #8fa8a6"/>
   </g>
   <g id="patch_6">
    <path d="M 203.254843 337.716668 
L 276.938822 337.716668 
L 276.938822 266.653155 
L 203.254843 266.653155 
z
" clip-path="url(#pa38d030df5)" style="fill: #10302c"/>
   </g>
   <g id="patch_7">
    <path d="M 203.254843 266.653155 
L 276.938822 266.653155 
L 276.938822 197.867319 
L 203.254843 197.867319 
z
" clip-path="url(#pa38d030df5)" style="fill: #4c6a67"/>
   </g>
   <g id="patch_8">
    <path d="M 203.254843 197.867319 
L 276.938822 197.867319 
L 276.938822 127.6921 
L 203.254843 127.6921 
z
" clip-path="url(#pa38d030df5)" style="fill: #8fa8a6"/>
   </g>
   <g id="patch_9">
    <path d="M 285.125931 337.716668 
L 358.80991 337.716668 
L 358.80991 270.752973 
L 285.125931 270.752973 
z
" clip-path="url(#pa38d030df5)" style="fill: #10302c"/>
   </g>
   <g id="patch_10">
    <path d="M 285.125931 270.752973 
L 358.80991 270.752973 
L 358.80991 200.281656 
L 285.125931 200.281656 
z
" clip-path="url(#pa38d030df5)" style="fill: #4c6a67"/>
   </g>
   <g id="patch_11">
    <path d="M 285.125931 200.281656 
L 358.80991 200.281656 
L 358.80991 135.026219 
L 285.125931 135.026219 
z
" clip-path="url(#pa38d030df5)" style="fill: #8fa8a6"/>
   </g>
   <g id="patch_12">
    <path d="M 366.997019 337.716668 
L 440.680999 337.716668 
L 440.680999 268.133645 
L 366.997019 268.133645 
z
" clip-path="url(#pa38d030df5)" style="fill: #10302c"/>
   </g>
   <g id="patch_13">
    <path d="M 366.997019 268.133645 
L 440.680999 268.133645 
L 440.680999 205.201438 
L 366.997019 205.201438 
z
" clip-path="url(#pa38d030df5)" style="fill: #4c6a67"/>
   </g>
   <g id="patch_14">
    <path d="M 366.997019 205.201438 
L 440.680999 205.201438 
L 440.680999 142.06424 
L 366.997019 142.06424 
z
" clip-path="url(#pa38d030df5)" style="fill: #8fa8a6"/>
   </g>
   <g id="patch_15">
    <path d="M 448.868107 337.716668 
L 522.552087 337.716668 
L 522.552087 273.212864 
L 448.868107 273.212864 
z
" clip-path="url(#pa38d030df5)" style="fill: #10302c"/>
   </g>
   <g id="patch_16">
    <path d="M 448.868107 273.212864 
L 522.552087 273.212864 
L 522.552087 209.141818 
L 448.868107 209.141818 
z
" clip-path="url(#pa38d030df5)" style="fill: #4c6a67"/>
   </g>
   <g id="patch_17">
    <path d="M 448.868107 209.141818 
L 522.552087 209.141818 
L 522.552087 147.803985 
L 448.868107 147.803985 
z
" clip-path="url(#pa38d030df5)" style="fill: #8fa8a6"/>
   </g>
   <g id="patch_18">
    <path d="M 530.739196 337.716668 
L 604.423175 337.716668 
L 604.423175 274.123935 
L 530.739196 274.123935 
z
" clip-path="url(#pa38d030df5)" style="fill: #10302c"/>
   </g>
   <g id="patch_19">
    <path d="M 530.739196 274.123935 
L 604.423175 274.123935 
L 604.423175 211.578933 
L 530.739196 211.578933 
z
" clip-path="url(#pa38d030df5)" style="fill: #4c6a67"/>
   </g>
   <g id="patch_20">
    <path d="M 530.739196 211.578933 
L 604.423175 211.578933 
L 604.423175 152.108794 
L 530.739196 152.108794 
z
" clip-path="url(#pa38d030df5)" style="fill: #8fa8a6"/>
   </g>
   <g id="patch_21">
    <path d="M 612.610284 337.716668 
L 686.294263 337.716668 
L 686.294263 278.542628 
L 612.610284 278.542628 
z
" clip-path="url(#pa38d030df5)" style="fill: #10302c"/>
   </g>
   <g id="patch_22">
    <path d="M 612.610284 278.542628 
L 686.294263 278.542628 
L 686.294263 216.817589 
L 612.610284 216.817589 
z
" clip-path="url(#pa38d030df5)" style="fill: #4c6a67"/>
   </g>
   <g id="patch_23">
    <path d="M 612.610284 216.817589 
L 686.294263 216.817589 
L 686.294263 153.748721 
L 612.610284 153.748721 
z
" clip-path="url(#pa38d030df5)" style="fill: #8fa8a6"/>
   </g>
   <g id="patch_24">
    <path d="M 694.481372 337.716668 
L 768.165351 337.716668 
L 768.165351 273.918944 
L 694.481372 273.918944 
z
" clip-path="url(#pa38d030df5)" style="fill: #10302c"/>
   </g>
   <g id="patch_25">
    <path d="M 694.481372 273.918944 
L 768.165351 273.918944 
L 768.165351 210.96396 
L 694.481372 210.96396 
z
" clip-path="url(#pa38d030df5)" style="fill: #4c6a67"/>
   </g>
   <g id="patch_26">
    <path d="M 694.481372 210.96396 
L 768.165351 210.96396 
L 768.165351 155.86696 
L 694.481372 155.86696 
z
" clip-path="url(#pa38d030df5)" style="fill: #8fa8a6"/>
   </g>
   <g id="patch_27">
    <path d="M 776.35246 337.716668 
L 850.036439 337.716668 
L 850.036439 279.134823 
L 776.35246 279.134823 
z
" clip-path="url(#pa38d030df5)" style="fill: #10302c"/>
   </g>
   <g id="patch_28">
    <path d="M 776.35246 279.134823 
L 850.036439 279.134823 
L 850.036439 219.664685 
L 776.35246 219.664685 
z
" clip-path="url(#pa38d030df5)" style="fill: #4c6a67"/>
   </g>
   <g id="patch_29">
    <path d="M 776.35246 219.664685 
L 850.036439 219.664685 
L 850.036439 156.709701 
L 776.35246 156.709701 
z
" clip-path="url(#pa38d030df5)" style="fill: #8fa8a6"/>
   </g>
   <g id="patch_30">
    <path d="M 858.223548 337.716668 
L 931.907527 337.716668 
L 931.907527 278.178199 
L 858.223548 278.178199 
z
" clip-path="url(#pa38d030df5)" style="fill: #10302c"/>
   </g>
   <g id="patch_31">
    <path d="M 858.223548 278.178199 
L 931.907527 278.178199 
L 931.907527 224.425029 
L 858.223548 224.425029 
z
" clip-path="url(#pa38d030df5)" style="fill: #4c6a67"/>
   </g>
   <g id="patch_32">
    <path d="M 858.223548 224.425029 
L 931.907527 224.425029 
L 931.907527 163.132749 
L 858.223548 163.132749 
z
" clip-path="url(#pa38d030df5)" style="fill: #8fa8a6"/>
   </g>
   <g id="patch_33">
    <path d="M 940.094636 337.716668 
L 1013.778616 337.716668 
L 1013.778616 278.952609 
L 940.094636 278.952609 
z
" clip-path="url(#pa38d030df5)" style="fill: #10302c"/>
   </g>
   <g id="patch_34">
    <path d="M 940.094636 278.952609 
L 1013.778616 278.952609 
L 1013.778616 221.395719 
L 940.094636 221.395719 
z
" clip-path="url(#pa38d030df5)" style="fill: #4c6a67"/>
   </g>
   <g id="patch_35">
    <path d="M 940.094636 221.395719 
L 1013.778616 221.395719 
L 1013.778616 168.029754 
L 940.094636 168.029754 
z
" clip-path="url(#pa38d030df5)" style="fill: #8fa8a6"/>
   </g>
   <g id="patch_36">
    <path d="M 1021.965724 337.716668 
L 1095.649704 337.716668 
L 1095.649704 286.355059 
L 1021.965724 286.355059 
z
" clip-path="url(#pa38d030df5)" style="fill: #10302c"/>
   </g>
   <g id="patch_37">
    <path d="M 1021.965724 286.355059 
L 1095.649704 286.355059 
L 1095.649704 236.81559 
L 1021.965724 236.81559 
z
" clip-path="url(#pa38d030df5)" style="fill: #4c6a67"/>
   </g>
   <g id="patch_38">
    <path d="M 1021.965724 236.81559 
L 1095.649704 236.81559 
L 1095.649704 177.277121 
L 1021.965724 177.277121 
z
" clip-path="url(#pa38d030df5)" style="fill: #8fa8a6"/>
   </g>
   <g id="text_19">
    <text style="font-weight: 500; font-size: 20px; font-family: 'Montserrat'; text-anchor: middle; fill: #ffffff" x="158.225745" y="308.905933" transform="rotate(-0 158.225745 308.905933)">3.0%</text>
   </g>
   <g id="text_20">
    <text style="font-weight: 500; font-size: 20px; font-family: 'Montserrat'; text-anchor: middle; fill: #ffffff" x="158.225745" y="237.887973" transform="rotate(-0 158.225745 237.887973)">3.3%</text>
   </g>
   <g id="text_21">
    <text style="font-weight: 500; font-size: 20px; font-family: 'Montserrat'; text-anchor: middle; fill: #ffffff" x="158.225745" y="165.036484" transform="rotate(-0 158.225745 165.036484)">3.2%</text>
   </g>
   <g id="text_22">
    <g id="patch_39">
     <path d="M 130.63512 119.040052 
L 185.81637 119.040052 
Q 201.81637 119.040052 201.81637 103.040052 
L 201.81637 110.318177 
Q 201.81637 94.318177 185.81637 94.318177 
L 130.63512 94.318177 
Q 114.63512 94.318177 114.63512 110.318177 
L 114.63512 103.040052 
Q 114.63512 119.040052 130.63512 119.040052 
z
" style="fill: #ffffff; stroke: #002f2a; stroke-width: 1.5; stroke-linejoin: miter"/>
    </g>
    <text style="font-weight: 700; font-size: 20px; font-family: 'Montserrat'; text-anchor: middle; fill: #10302c" x="158.225745" y="112.158802" transform="rotate(-0 158.225745 112.158802)">  9,408  </text>
   </g>
   <g id="text_23">
    <text style="font-weight: 600; font-size: 22px; font-family: 'Montserrat'; text-anchor: middle; fill: #4c6a67" x="158.225745" y="82.438144" transform="rotate(-0 158.225745 82.438144)">9.5%</text>
   </g>
   <g id="text_24">
    <text style="font-weight: 500; font-size: 20px; font-family: 'Montserrat'; text-anchor: middle; fill: #ffffff" x="240.096833" y="307.664599" transform="rotate(-0 240.096833 307.664599)">3.2%</text>
   </g>
   <g id="text_25">
    <text style="font-weight: 500; font-size: 20px; font-family: 'Montserrat'; text-anchor: middle; fill: #ffffff" x="240.096833" y="237.739924" transform="rotate(-0 240.096833 237.739924)">3.1%</text>
   </g>
   <g id="text_26">
    <text style="font-weight: 500; font-size: 20px; font-family: 'Montserrat'; text-anchor: middle; fill: #ffffff" x="240.096833" y="168.259397" transform="rotate(-0 240.096833 168.259397)">3.1%</text>
   </g>
   <g id="text_27">
    <g id="patch_40">
     <path d="M 217.067145 123.299308 
L 263.12652 123.299308 
Q 279.12652 123.299308 279.12652 107.299308 
L 279.12652 114.577433 
Q 279.12652 98.577433 263.12652 98.577433 
L 217.067145 98.577433 
Q 201.067145 98.577433 201.067145 114.577433 
L 201.067145 107.299308 
Q 201.067145 123.299308 217.067145 123.299308 
z
" style="fill: #ffffff; stroke: #002f2a; stroke-width: 1.5; stroke-linejoin: miter"/>
    </g>
    <text style="font-weight: 700; font-size: 20px; font-family: 'Montserrat'; text-anchor: middle; fill: #10302c" x="240.096833" y="116.418058" transform="rotate(-0 240.096833 116.418058)">  9,221  </text>
   </g>
   <g id="text_28">
    <text style="font-weight: 600; font-size: 22px; font-family: 'Montserrat'; text-anchor: middle; fill: #4c6a67" x="240.096833" y="86.697399" transform="rotate(-0 240.096833 86.697399)">9.3%</text>
   </g>
   <g id="text_29">
    <text style="font-weight: 500; font-size: 20px; font-family: 'Montserrat'; text-anchor: middle; fill: #ffffff" x="321.967921" y="309.714508" transform="rotate(-0 321.967921 309.714508)">3.0%</text>
   </g>
   <g id="text_30">
    <text style="font-weight: 500; font-size: 20px; font-family: 'Montserrat'; text-anchor: middle; fill: #ffffff" x="321.967921" y="240.997002" transform="rotate(-0 321.967921 240.997002)">3.1%</text>
   </g>
   <g id="text_31">
    <text style="font-weight: 500; font-size: 20px; font-family: 'Montserrat'; text-anchor: middle; fill: #ffffff" x="321.967921" y="173.133625" transform="rotate(-0 321.967921 173.133625)">2.9%</text>
   </g>
   <g id="text_32">
    <g id="patch_41">
     <path d="M 295.088233 130.633427 
L 348.847608 130.633427 
Q 364.847608 130.633427 364.847608 114.633427 
L 364.847608 121.911552 
Q 364.847608 105.911552 348.847608 105.911552 
L 295.088233 105.911552 
Q 279.088233 105.911552 279.088233 121.911552 
L 279.088233 114.633427 
Q 279.088233 130.633427 295.088233 130.633427 
z
" style="fill: #ffffff; stroke: #002f2a; stroke-width: 1.5; stroke-linejoin: miter"/>
    </g>
    <text style="font-weight: 700; font-size: 20px; font-family: 'Montserrat'; text-anchor: middle; fill: #10302c" x="321.967921" y="123.752177" transform="rotate(-0 321.967921 123.752177)">  8,899  </text>
   </g>
   <g id="text_33">
    <text style="font-weight: 600; font-size: 22px; font-family: 'Montserrat'; text-anchor: middle; fill: #4c6a67" x="321.967921" y="94.031518" transform="rotate(-0 321.967921 94.031518)">9.0%</text>
   </g>
   <g id="text_34">
    <text style="font-weight: 500; font-size: 20px; font-family: 'Montserrat'; text-anchor: middle; fill: #ffffff" x="403.839009" y="308.404844" transform="rotate(-0 403.839009 308.404844)">3.1%</text>
   </g>
   <g id="text_35">
    <text style="font-weight: 500; font-size: 20px; font-family: 'Montserrat'; text-anchor: middle; fill: #ffffff" x="403.839009" y="242.147229" transform="rotate(-0 403.839009 242.147229)">2.8%</text>
   </g>
   <g id="text_36">
    <text style="font-weight: 500; font-size: 20px; font-family: 'Montserrat'; text-anchor: middle; fill: #ffffff" x="403.839009" y="179.112526" transform="rotate(-0 403.839009 179.112526)">2.8%</text>
   </g>
   <g id="text_37">
    <g id="patch_42">
     <path d="M 377.189009 137.671448 
L 430.489009 137.671448 
Q 446.489009 137.671448 446.489009 121.671448 
L 446.489009 128.949573 
Q 446.489009 112.949573 430.489009 112.949573 
L 377.189009 112.949573 
Q 361.189009 112.949573 361.189009 128.949573 
L 361.189009 121.671448 
Q 361.189009 137.671448 377.189009 137.671448 
z
" style="fill: #ffffff; stroke: #002f2a; stroke-width: 1.5; stroke-linejoin: miter"/>
    </g>
    <text style="font-weight: 700; font-size: 20px; font-family: 'Montserrat'; text-anchor: middle; fill: #10302c" x="403.839009" y="130.790198" transform="rotate(-0 403.839009 130.790198)">  8,590  </text>
   </g>
   <g id="text_38">
    <text style="font-weight: 600; font-size: 22px; font-family: 'Montserrat'; text-anchor: middle; fill: #4c6a67" x="403.839009" y="101.069539" transform="rotate(-0 403.839009 101.069539)">8.7%</text>
   </g>
   <g id="text_39">
    <text style="font-weight: 500; font-size: 20px; font-family: 'Montserrat'; text-anchor: middle; fill: #ffffff" x="485.710097" y="310.944454" transform="rotate(-0 485.710097 310.944454)">2.9%</text>
   </g>
   <g id="text_40">
    <text style="font-weight: 500; font-size: 20px; font-family: 'Montserrat'; text-anchor: middle; fill: #ffffff" x="485.710097" y="246.657029" transform="rotate(-0 485.710097 246.657029)">2.8%</text>
   </g>
   <g id="text_41">
    <text style="font-weight: 500; font-size: 20px; font-family: 'Montserrat'; text-anchor: middle; fill: #ffffff" x="485.710097" y="183.952589" transform="rotate(-0 485.710097 183.952589)">2.7%</text>
   </g>
   <g id="text_42">
    <g id="patch_43">
     <path d="M 459.73041 143.411193 
L 511.689785 143.411193 
Q 527.689785 143.411193 527.689785 127.411193 
L 527.689785 134.689318 
Q 527.689785 118.689318 511.689785 118.689318 
L 459.73041 118.689318 
Q 443.73041 118.689318 443.73041 134.689318 
L 443.73041 127.411193 
Q 443.73041 143.411193 459.73041 143.411193 
z
" style="fill: #ffffff; stroke: #002f2a; stroke-width: 1.5; stroke-linejoin: miter"/>
    </g>
    <text style="font-weight: 700; font-size: 20px; font-family: 'Montserrat'; text-anchor: middle; fill: #10302c" x="485.710097" y="136.529943" transform="rotate(-0 485.710097 136.529943)">  8,338  </text>
   </g>
   <g id="text_43">
    <text style="font-weight: 600; font-size: 22px; font-family: 'Montserrat'; text-anchor: middle; fill: #4c6a67" x="485.710097" y="106.809284" transform="rotate(-0 485.710097 106.809284)">8.4%</text>
   </g>
   <g id="text_44">
    <text style="font-weight: 500; font-size: 20px; font-family: 'Montserrat'; text-anchor: middle; fill: #ffffff" x="567.581185" y="311.399989" transform="rotate(-0 567.581185 311.399989)">2.8%</text>
   </g>
   <g id="text_45">
    <text style="font-weight: 500; font-size: 20px; font-family: 'Montserrat'; text-anchor: middle; fill: #ffffff" x="567.581185" y="248.331121" transform="rotate(-0 567.581185 248.331121)">2.8%</text>
   </g>
   <g id="text_46">
    <text style="font-weight: 500; font-size: 20px; font-family: 'Montserrat'; text-anchor: middle; fill: #ffffff" x="567.581185" y="187.323551" transform="rotate(-0 567.581185 187.323551)">2.6%</text>
   </g>
   <g id="text_47">
    <g id="patch_44">
     <path d="M 542.860873 147.716002 
L 592.301498 147.716002 
Q 608.301498 147.716002 608.301498 131.716002 
L 608.301498 138.994127 
Q 608.301498 122.994127 592.301498 122.994127 
L 542.860873 122.994127 
Q 526.860873 122.994127 526.860873 138.994127 
L 526.860873 131.716002 
Q 526.860873 147.716002 542.860873 147.716002 
z
" style="fill: #ffffff; stroke: #002f2a; stroke-width: 1.5; stroke-linejoin: miter"/>
    </g>
    <text style="font-weight: 700; font-size: 20px; font-family: 'Montserrat'; text-anchor: middle; fill: #10302c" x="567.581185" y="140.834752" transform="rotate(-0 567.581185 140.834752)">  8,149  </text>
   </g>
   <g id="text_48">
    <text style="font-weight: 600; font-size: 22px; font-family: 'Montserrat'; text-anchor: middle; fill: #4c6a67" x="567.581185" y="111.114093" transform="rotate(-0 567.581185 111.114093)">8.3%</text>
   </g>
   <g id="text_49">
    <text style="font-weight: 500; font-size: 20px; font-family: 'Montserrat'; text-anchor: middle; fill: #ffffff" x="649.452273" y="313.609335" transform="rotate(-0 649.452273 313.609335)">2.6%</text>
   </g>
   <g id="text_50">
    <text style="font-weight: 500; font-size: 20px; font-family: 'Montserrat'; text-anchor: middle; fill: #ffffff" x="649.452273" y="253.159796" transform="rotate(-0 649.452273 253.159796)">2.7%</text>
   </g>
   <g id="text_51">
    <text style="font-weight: 500; font-size: 20px; font-family: 'Montserrat'; text-anchor: middle; fill: #ffffff" x="649.452273" y="190.762842" transform="rotate(-0 649.452273 190.762842)">2.8%</text>
   </g>
   <g id="text_52">
    <g id="patch_45">
     <path d="M 622.722586 149.355929 
L 676.181961 149.355929 
Q 692.181961 149.355929 692.181961 133.355929 
L 692.181961 140.634054 
Q 692.181961 124.634054 676.181961 124.634054 
L 622.722586 124.634054 
Q 606.722586 124.634054 606.722586 140.634054 
L 606.722586 133.355929 
Q 606.722586 149.355929 622.722586 149.355929 
z
" style="fill: #ffffff; stroke: #002f2a; stroke-width: 1.5; stroke-linejoin: miter"/>
    </g>
    <text style="font-weight: 700; font-size: 20px; font-family: 'Montserrat'; text-anchor: middle; fill: #10302c" x="649.452273" y="142.474679" transform="rotate(-0 649.452273 142.474679)">  8,077  </text>
   </g>
   <g id="text_53">
    <text style="font-weight: 600; font-size: 22px; font-family: 'Montserrat'; text-anchor: middle; fill: #4c6a67" x="649.452273" y="112.754021" transform="rotate(-0 649.452273 112.754021)">8.2%</text>
   </g>
   <g id="text_54">
    <text style="font-weight: 500; font-size: 20px; font-family: 'Montserrat'; text-anchor: middle; fill: #ffffff" x="731.323361" y="311.297494" transform="rotate(-0 731.323361 311.297494)">2.8%</text>
   </g>
   <g id="text_55">
    <text style="font-weight: 500; font-size: 20px; font-family: 'Montserrat'; text-anchor: middle; fill: #ffffff" x="731.323361" y="247.921139" transform="rotate(-0 731.323361 247.921139)">2.8%</text>
   </g>
   <g id="text_56">
    <text style="font-weight: 500; font-size: 20px; font-family: 'Montserrat'; text-anchor: middle; fill: #ffffff" x="731.323361" y="188.895148" transform="rotate(-0 731.323361 188.895148)">2.4%</text>
   </g>
   <g id="text_57">
    <g id="patch_46">
     <path d="M 704.323361 151.474168 
L 758.323361 151.474168 
Q 774.323361 151.474168 774.323361 135.474168 
L 774.323361 142.752293 
Q 774.323361 126.752293 758.323361 126.752293 
L 704.323361 126.752293 
Q 688.323361 126.752293 688.323361 142.752293 
L 688.323361 135.474168 
Q 688.323361 151.474168 704.323361 151.474168 
z
" style="fill: #ffffff; stroke: #002f2a; stroke-width: 1.5; stroke-linejoin: miter"/>
    </g>
    <text style="font-weight: 700; font-size: 20px; font-family: 'Montserrat'; text-anchor: middle; fill: #10302c" x="731.323361" y="144.592918" transform="rotate(-0 731.323361 144.592918)">  7,984  </text>
   </g>
   <g id="text_58">
    <text style="font-weight: 600; font-size: 22px; font-family: 'Montserrat'; text-anchor: middle; fill: #4c6a67" x="731.323361" y="114.87226" transform="rotate(-0 731.323361 114.87226)">8.1%</text>
   </g>
   <g id="text_59">
    <text style="font-weight: 500; font-size: 20px; font-family: 'Montserrat'; text-anchor: middle; fill: #ffffff" x="813.19445" y="313.905433" transform="rotate(-0 813.19445 313.905433)">2.6%</text>
   </g>
   <g id="text_60">
    <text style="font-weight: 500; font-size: 20px; font-family: 'Montserrat'; text-anchor: middle; fill: #ffffff" x="813.19445" y="254.879442" transform="rotate(-0 813.19445 254.879442)">2.6%</text>
   </g>
   <g id="text_61">
    <text style="font-weight: 500; font-size: 20px; font-family: 'Montserrat'; text-anchor: middle; fill: #ffffff" x="813.19445" y="193.66688" transform="rotate(-0 813.19445 193.66688)">2.8%</text>
   </g>
   <g id="text_62">
    <g id="patch_47">
     <path d="M 786.59445 152.316909 
L 839.79445 152.316909 
Q 855.79445 152.316909 855.79445 136.316909 
L 855.79445 143.595034 
Q 855.79445 127.595034 839.79445 127.595034 
L 786.59445 127.595034 
Q 770.59445 127.595034 770.59445 143.595034 
L 770.59445 136.316909 
Q 770.59445 152.316909 786.59445 152.316909 
z
" style="fill: #ffffff; stroke: #002f2a; stroke-width: 1.5; stroke-linejoin: miter"/>
    </g>
    <text style="font-weight: 700; font-size: 20px; font-family: 'Montserrat'; text-anchor: middle; fill: #10302c" x="813.19445" y="145.435659" transform="rotate(-0 813.19445 145.435659)">  7,947  </text>
   </g>
   <g id="text_63">
    <text style="font-weight: 600; font-size: 22px; font-family: 'Montserrat'; text-anchor: middle; fill: #4c6a67" x="813.19445" y="115.715" transform="rotate(-0 813.19445 115.715)">8.0%</text>
   </g>
   <g id="text_64">
    <text style="font-weight: 500; font-size: 20px; font-family: 'Montserrat'; text-anchor: middle; fill: #ffffff" x="895.065538" y="313.427121" transform="rotate(-0 895.065538 313.427121)">2.6%</text>
   </g>
   <g id="text_65">
    <text style="font-weight: 500; font-size: 20px; font-family: 'Montserrat'; text-anchor: middle; fill: #ffffff" x="895.065538" y="256.781302" transform="rotate(-0 895.065538 256.781302)">2.4%</text>
   </g>
   <g id="text_66">
    <text style="font-weight: 500; font-size: 20px; font-family: 'Montserrat'; text-anchor: middle; fill: #ffffff" x="895.065538" y="199.258577" transform="rotate(-0 895.065538 199.258577)">2.7%</text>
   </g>
   <g id="text_67">
    <g id="patch_48">
     <path d="M 869.23585 158.739957 
L 920.895225 158.739957 
Q 936.895225 158.739957 936.895225 142.739957 
L 936.895225 150.018082 
Q 936.895225 134.018082 920.895225 134.018082 
L 869.23585 134.018082 
Q 853.23585 134.018082 853.23585 150.018082 
L 853.23585 142.739957 
Q 853.23585 158.739957 869.23585 158.739957 
z
" style="fill: #ffffff; stroke: #002f2a; stroke-width: 1.5; stroke-linejoin: miter"/>
    </g>
    <text style="font-weight: 700; font-size: 20px; font-family: 'Montserrat'; text-anchor: middle; fill: #10302c" x="895.065538" y="151.858707" transform="rotate(-0 895.065538 151.858707)">  7,665  </text>
   </g>
   <g id="text_68">
    <text style="font-weight: 600; font-size: 22px; font-family: 'Montserrat'; text-anchor: middle; fill: #4c6a67" x="895.065538" y="122.138049" transform="rotate(-0 895.065538 122.138049)">7.8%</text>
   </g>
   <g id="text_69">
    <text style="font-weight: 500; font-size: 20px; font-family: 'Montserrat'; text-anchor: middle; fill: #ffffff" x="976.936626" y="313.814326" transform="rotate(-0 976.936626 313.814326)">2.6%</text>
   </g>
   <g id="text_70">
    <text style="font-weight: 500; font-size: 20px; font-family: 'Montserrat'; text-anchor: middle; fill: #ffffff" x="976.936626" y="255.653852" transform="rotate(-0 976.936626 255.653852)">2.6%</text>
   </g>
   <g id="text_71">
    <text style="font-weight: 500; font-size: 20px; font-family: 'Montserrat'; text-anchor: middle; fill: #ffffff" x="976.936626" y="200.192424" transform="rotate(-0 976.936626 200.192424)">2.4%</text>
   </g>
   <g id="text_72">
    <g id="patch_49">
     <path d="M 950.166313 163.636962 
L 1003.706938 163.636962 
Q 1019.706938 163.636962 1019.706938 147.636962 
L 1019.706938 154.915087 
Q 1019.706938 138.915087 1003.706938 138.915087 
L 950.166313 138.915087 
Q 934.166313 138.915087 934.166313 154.915087 
L 934.166313 147.636962 
Q 934.166313 163.636962 950.166313 163.636962 
z
" style="fill: #ffffff; stroke: #002f2a; stroke-width: 1.5; stroke-linejoin: miter"/>
    </g>
    <text style="font-weight: 700; font-size: 20px; font-family: 'Montserrat'; text-anchor: middle; fill: #10302c" x="976.936626" y="156.755712" transform="rotate(-0 976.936626 156.755712)">  7,450  </text>
   </g>
   <g id="text_73">
    <text style="font-weight: 600; font-size: 22px; font-family: 'Montserrat'; text-anchor: middle; fill: #4c6a67" x="976.936626" y="127.035054" transform="rotate(-0 976.936626 127.035054)">7.5%</text>
   </g>
   <g id="text_74">
    <text style="font-weight: 500; font-size: 20px; font-family: 'Montserrat'; text-anchor: middle; fill: #ffffff" x="1058.807714" y="317.515551" transform="rotate(-0 1058.807714 317.515551)">2.3%</text>
   </g>
   <g id="text_75">
    <text style="font-weight: 500; font-size: 20px; font-family: 'Montserrat'; text-anchor: middle; fill: #ffffff" x="1058.807714" y="267.065012" transform="rotate(-0 1058.807714 267.065012)">2.2%</text>
   </g>
   <g id="text_76">
    <text style="font-weight: 500; font-size: 20px; font-family: 'Montserrat'; text-anchor: middle; fill: #ffffff" x="1058.807714" y="212.526043" transform="rotate(-0 1058.807714 212.526043)">2.6%</text>
   </g>
   <g id="text_77">
    <g id="patch_50">
     <path d="M 1031.096777 172.884329 
L 1086.518652 172.884329 
Q 1102.518652 172.884329 1102.518652 156.884329 
L 1102.518652 164.162454 
Q 1102.518652 148.162454 1086.518652 148.162454 
L 1031.096777 148.162454 
Q 1015.096777 148.162454 1015.096777 164.162454 
L 1015.096777 156.884329 
Q 1015.096777 172.884329 1031.096777 172.884329 
z
" style="fill: #ffffff; stroke: #002f2a; stroke-width: 1.5; stroke-linejoin: miter"/>
    </g>
    <text style="font-weight: 700; font-size: 20px; font-family: 'Montserrat'; text-anchor: middle; fill: #10302c" x="1058.807714" y="166.003079" transform="rotate(-0 1058.807714 166.003079)">  7,044  </text>
   </g>
   <g id="text_78">
    <text style="font-weight: 600; font-size: 22px; font-family: 'Montserrat'; text-anchor: middle; fill: #4c6a67" x="1058.807714" y="136.282421" transform="rotate(-0 1058.807714 136.282421)">7.1%</text>
   </g>
   <g id="legend_1">
    <g id="patch_51">
     <path d="M 113.144549 34.96875 
L 161.144549 34.96875 
L 161.144549 18.16875 
L 113.144549 18.16875 
z
" style="fill: #10302c"/>
    </g>
    <g id="text_79">
     <text style="font-weight: 500; font-size: 24px; font-family: 'Montserrat'; text-anchor: start; fill: #767676" x="180.344549" y="34.96875" transform="rotate(-0 180.344549 34.96875)">Desaparecidos</text>
    </g>
    <g id="patch_52">
     <path d="M 408.509549 34.96875 
L 456.509549 34.96875 
L 456.509549 18.16875 
L 408.509549 18.16875 
z
" style="fill: #4c6a67"/>
    </g>
    <g id="text_80">
     <text style="font-weight: 500; font-size: 24px; font-family: 'Montserrat'; text-anchor: start; fill: #767676" x="475.709549" y="34.96875" transform="rotate(-0 475.709549 34.96875)">Localizados</text>
    </g>
    <g id="patch_53">
     <path d="M 665.140799 34.96875 
L 713.140799 34.96875 
L 713.140799 18.16875 
L 665.140799 18.16875 
z
" style="fill: #8fa8a6"/>
    </g>
    <g id="text_81">
     <text style="font-weight: 500; font-size: 24px; font-family: 'Montserrat'; text-anchor: start; fill: #767676" x="732.340799" y="34.96875" transform="rotate(-0 732.340799 34.96875)">No localizados</text>
    </g>
   </g>
  </g>
 </g>
 <defs>
  <clipPath id="pa38d030df5">
   <rect x="117.290201" y="66.647631" width="982.453058" height="271.069038"/>
  </clipPath>
 </defs>
</svg>
