<?xml version="1.0" encoding="utf-8" standalone="no"?>
<!DOCTYPE svg PUBLIC "-//W3C//DTD SVG 1.1//EN"
  "http://www.w3.org/Graphics/SVG/1.1/DTD/svg11.dtd">
<svg xmlns:xlink="http://www.w3.org/1999/xlink" width="856.800937pt" height="1075.445354pt" viewBox="0 0 856.800937 1075.445354" xmlns="http://www.w3.org/2000/svg" version="1.1">
 <metadata>
  <rdf:RDF xmlns:dc="http://purl.org/dc/elements/1.1/" xmlns:cc="http://creativecommons.org/ns#" xmlns:rdf="http://www.w3.org/1999/02/22-rdf-syntax-ns#">
   <cc:Work>
    <dc:type rdf:resource="http://purl.org/dc/dcmitype/StillImage"/>
    <dc:date>2025-05-16T13:27:12.495047</dc:date>
    <dc:format>image/svg+xml</dc:format>
    <dc:creator>
     <cc:Agent>
      <dc:title>Matplotlib v3.10.1, https://matplotlib.org/</dc:title>
     </cc:Agent>
    </dc:creator>
   </cc:Work>
  </rdf:RDF>
 </metadata>
 <defs>
  <style type="text/css">*{stroke-linejoin: round; stroke-linecap: butt}</style>
 </defs>
 <g id="figure_1">
  <g id="patch_1">
   <path d="M 0 1075.445354 
L 856.800937 1075.445354 
L 856.800937 0 
L 0 0 
z
" style="fill: #ffffff"/>
  </g>
  <g id="axes_1">
   <g id="patch_2">
    <path d="M 219.490938 1034.19051 
L 832.320938 1034.19051 
L 832.320938 81.50251 
L 219.490938 81.50251 
z
" style="fill: #ffffff"/>
   </g>
   <g id="matplotlib.axis_1">
    <g id="xtick_1">
     <g id="line2d_1">
      <path d="M 219.490938 1034.19051 
L 219.490938 81.50251 
" clip-path="url(#p9f7c213560)" style="fill: none; stroke: #b9b9b9; stroke-width: 0.75; stroke-linecap: square"/>
     </g>
     <g id="line2d_2">
      <defs>
       <path id="mce1ef377b5" d="M 0 0 
L 0 3.5 
" style="stroke: #000000; stroke-width: 0.8"/>
      </defs>
      <g>
       <use xlink:href="#mce1ef377b5" x="219.490938" y="1034.19051" style="stroke: #000000; stroke-width: 0.8"/>
      </g>
     </g>
     <g id="text_1">
      <text style="font-weight: 500; font-size: 27px; font-family: 'Poppins'; text-anchor: middle" x="219.490938" y="1061.17051" transform="rotate(-0 219.490938 1061.17051)">0</text>
     </g>
    </g>
    <g id="xtick_2">
     <g id="line2d_3">
      <path d="M 342.056938 1034.19051 
L 342.056938 81.50251 
" clip-path="url(#p9f7c213560)" style="fill: none; stroke: #b9b9b9; stroke-width: 0.75; stroke-linecap: square"/>
     </g>
     <g id="line2d_4">
      <g>
       <use xlink:href="#mce1ef377b5" x="342.056938" y="1034.19051" style="stroke: #000000; stroke-width: 0.8"/>
      </g>
     </g>
     <g id="text_2">
      <text style="font-weight: 500; font-size: 27px; font-family: 'Poppins'; text-anchor: middle" x="342.056938" y="1061.17051" transform="rotate(-0 342.056938 1061.17051)">10</text>
     </g>
    </g>
    <g id="xtick_3">
     <g id="line2d_5">
      <path d="M 464.622938 1034.19051 
L 464.622938 81.50251 
" clip-path="url(#p9f7c213560)" style="fill: none; stroke: #b9b9b9; stroke-width: 0.75; stroke-linecap: square"/>
     </g>
     <g id="line2d_6">
      <g>
       <use xlink:href="#mce1ef377b5" x="464.622938" y="1034.19051" style="stroke: #000000; stroke-width: 0.8"/>
      </g>
     </g>
     <g id="text_3">
      <text style="font-weight: 500; font-size: 27px; font-family: 'Poppins'; text-anchor: middle" x="464.622938" y="1061.17051" transform="rotate(-0 464.622938 1061.17051)">20</text>
     </g>
    </g>
    <g id="xtick_4">
     <g id="line2d_7">
      <path d="M 587.188938 1034.19051 
L 587.188938 81.50251 
" clip-path="url(#p9f7c213560)" style="fill: none; stroke: #b9b9b9; stroke-width: 0.75; stroke-linecap: square"/>
     </g>
     <g id="line2d_8">
      <g>
       <use xlink:href="#mce1ef377b5" x="587.188938" y="1034.19051" style="stroke: #000000; stroke-width: 0.8"/>
      </g>
     </g>
     <g id="text_4">
      <text style="font-weight: 500; font-size: 27px; font-family: 'Poppins'; text-anchor: middle" x="587.188938" y="1061.17051" transform="rotate(-0 587.188938 1061.17051)">30</text>
     </g>
    </g>
    <g id="xtick_5">
     <g id="line2d_9">
      <path d="M 709.754937 1034.19051 
L 709.754937 81.50251 
" clip-path="url(#p9f7c213560)" style="fill: none; stroke: #b9b9b9; stroke-width: 0.75; stroke-linecap: square"/>
     </g>
     <g id="line2d_10">
      <g>
       <use xlink:href="#mce1ef377b5" x="709.754937" y="1034.19051" style="stroke: #000000; stroke-width: 0.8"/>
      </g>
     </g>
     <g id="text_5">
      <text style="font-weight: 500; font-size: 27px; font-family: 'Poppins'; text-anchor: middle" x="709.754937" y="1061.17051" transform="rotate(-0 709.754937 1061.17051)">40</text>
     </g>
    </g>
    <g id="xtick_6">
     <g id="line2d_11">
      <path d="M 832.320938 1034.19051 
L 832.320938 81.50251 
" clip-path="url(#p9f7c213560)" style="fill: none; stroke: #b9b9b9; stroke-width: 0.75; stroke-linecap: square"/>
     </g>
     <g id="line2d_12">
      <g>
       <use xlink:href="#mce1ef377b5" x="832.320938" y="1034.19051" style="stroke: #000000; stroke-width: 0.8"/>
      </g>
     </g>
     <g id="text_6">
      <text style="font-weight: 500; font-size: 27px; font-family: 'Poppins'; text-anchor: middle" x="832.320938" y="1061.17051" transform="rotate(-0 832.320938 1061.17051)">50</text>
     </g>
    </g>
   </g>
   <g id="matplotlib.axis_2">
    <g id="ytick_1">
     <g id="line2d_13">
      <defs>
       <path id="m9ae53dc1a1" d="M 0 0 
L -3.5 0 
" style="stroke: #000000; stroke-width: 0.8"/>
      </defs>
      <g>
       <use xlink:href="#m9ae53dc1a1" x="219.490938" y="95.512628" style="stroke: #000000; stroke-width: 0.8"/>
      </g>
     </g>
     <g id="text_7">
      <text style="font-weight: 500; font-size: 22px; font-family: 'Poppins'; text-anchor: end" x="212.490938" y="103.652628" transform="rotate(-0 212.490938 103.652628)">Nacional</text>
     </g>
    </g>
    <g id="ytick_2">
     <g id="line2d_14">
      <g>
       <use xlink:href="#m9ae53dc1a1" x="219.490938" y="123.532863" style="stroke: #000000; stroke-width: 0.8"/>
      </g>
     </g>
     <g id="text_8">
      <text style="font-weight: 500; font-size: 22px; font-family: 'Poppins'; text-anchor: end" x="212.490938" y="131.672863" transform="rotate(-0 212.490938 131.672863)">FGR</text>
     </g>
    </g>
    <g id="ytick_3">
     <g id="line2d_15">
      <g>
       <use xlink:href="#m9ae53dc1a1" x="219.490938" y="151.553098" style="stroke: #000000; stroke-width: 0.8"/>
      </g>
     </g>
     <g id="text_9">
      <text style="font-weight: 500; font-size: 22px; font-family: 'Poppins'; text-anchor: end" x="212.490938" y="159.693098" transform="rotate(-0 212.490938 159.693098)">Sinaloa</text>
     </g>
    </g>
    <g id="ytick_4">
     <g id="line2d_16">
      <g>
       <use xlink:href="#m9ae53dc1a1" x="219.490938" y="179.573334" style="stroke: #000000; stroke-width: 0.8"/>
      </g>
     </g>
     <g id="text_10">
      <text style="font-weight: 500; font-size: 22px; font-family: 'Poppins'; text-anchor: end" x="212.490938" y="188.065677" transform="rotate(-0 212.490938 188.065677)">Baja California</text>
     </g>
    </g>
    <g id="ytick_5">
     <g id="line2d_17">
      <g>
       <use xlink:href="#m9ae53dc1a1" x="219.490938" y="207.593569" style="stroke: #000000; stroke-width: 0.8"/>
      </g>
     </g>
     <g id="text_11">
      <text style="font-weight: 500; font-size: 22px; font-family: 'Poppins'; text-anchor: end" x="212.490938" y="215.733569" transform="rotate(-0 212.490938 215.733569)">Ciudad de México</text>
     </g>
    </g>
    <g id="ytick_6">
     <g id="line2d_18">
      <g>
       <use xlink:href="#m9ae53dc1a1" x="219.490938" y="235.613804" style="stroke: #000000; stroke-width: 0.8"/>
      </g>
     </g>
     <g id="text_12">
      <text style="font-weight: 500; font-size: 22px; font-family: 'Poppins'; text-anchor: end" x="212.490938" y="243.753804" transform="rotate(-0 212.490938 243.753804)">Colima</text>
     </g>
    </g>
    <g id="ytick_7">
     <g id="line2d_19">
      <g>
       <use xlink:href="#m9ae53dc1a1" x="219.490938" y="263.634039" style="stroke: #000000; stroke-width: 0.8"/>
      </g>
     </g>
     <g id="text_13">
      <text style="font-weight: 500; font-size: 22px; font-family: 'Poppins'; text-anchor: end" x="212.490938" y="271.774039" transform="rotate(-0 212.490938 271.774039)">San Luis Potosí</text>
     </g>
    </g>
    <g id="ytick_8">
     <g id="line2d_20">
      <g>
       <use xlink:href="#m9ae53dc1a1" x="219.490938" y="291.654275" style="stroke: #000000; stroke-width: 0.8"/>
      </g>
     </g>
     <g id="text_14">
      <text style="font-weight: 500; font-size: 22px; font-family: 'Poppins'; text-anchor: end" x="212.490938" y="299.794275" transform="rotate(-0 212.490938 299.794275)">Estado de México</text>
     </g>
    </g>
    <g id="ytick_9">
     <g id="line2d_21">
      <g>
       <use xlink:href="#m9ae53dc1a1" x="219.490938" y="319.67451" style="stroke: #000000; stroke-width: 0.8"/>
      </g>
     </g>
     <g id="text_15">
      <text style="font-weight: 500; font-size: 22px; font-family: 'Poppins'; text-anchor: end" x="212.490938" y="328.166854" transform="rotate(-0 212.490938 328.166854)">Baja California Sur</text>
     </g>
    </g>
    <g id="ytick_10">
     <g id="line2d_22">
      <g>
       <use xlink:href="#m9ae53dc1a1" x="219.490938" y="347.694745" style="stroke: #000000; stroke-width: 0.8"/>
      </g>
     </g>
     <g id="text_16">
      <text style="font-weight: 500; font-size: 22px; font-family: 'Poppins'; text-anchor: end" x="212.490938" y="356.164745" transform="rotate(-0 212.490938 356.164745)">Chiapas</text>
     </g>
    </g>
    <g id="ytick_11">
     <g id="line2d_23">
      <g>
       <use xlink:href="#m9ae53dc1a1" x="219.490938" y="375.714981" style="stroke: #000000; stroke-width: 0.8"/>
      </g>
     </g>
     <g id="text_17">
      <text style="font-weight: 500; font-size: 22px; font-family: 'Poppins'; text-anchor: end" x="212.490938" y="383.854981" transform="rotate(-0 212.490938 383.854981)">Jalisco</text>
     </g>
    </g>
    <g id="ytick_12">
     <g id="line2d_24">
      <g>
       <use xlink:href="#m9ae53dc1a1" x="219.490938" y="403.735216" style="stroke: #000000; stroke-width: 0.8"/>
      </g>
     </g>
     <g id="text_18">
      <text style="font-weight: 500; font-size: 22px; font-family: 'Poppins'; text-anchor: end" x="212.490938" y="411.875216" transform="rotate(-0 212.490938 411.875216)">Michoacán</text>
     </g>
    </g>
    <g id="ytick_13">
     <g id="line2d_25">
      <g>
       <use xlink:href="#m9ae53dc1a1" x="219.490938" y="431.755451" style="stroke: #000000; stroke-width: 0.8"/>
      </g>
     </g>
     <g id="text_19">
      <text style="font-weight: 500; font-size: 22px; font-family: 'Poppins'; text-anchor: end" x="212.490938" y="439.895451" transform="rotate(-0 212.490938 439.895451)">Guerrero</text>
     </g>
    </g>
    <g id="ytick_14">
     <g id="line2d_26">
      <g>
       <use xlink:href="#m9ae53dc1a1" x="219.490938" y="459.775686" style="stroke: #000000; stroke-width: 0.8"/>
      </g>
     </g>
     <g id="text_20">
      <text style="font-weight: 500; font-size: 22px; font-family: 'Poppins'; text-anchor: end" x="212.490938" y="467.915686" transform="rotate(-0 212.490938 467.915686)">Puebla</text>
     </g>
    </g>
    <g id="ytick_15">
     <g id="line2d_27">
      <g>
       <use xlink:href="#m9ae53dc1a1" x="219.490938" y="487.795922" style="stroke: #000000; stroke-width: 0.8"/>
      </g>
     </g>
     <g id="text_21">
      <text style="font-weight: 500; font-size: 22px; font-family: 'Poppins'; text-anchor: end" x="212.490938" y="495.935922" transform="rotate(-0 212.490938 495.935922)">Oaxaca</text>
     </g>
    </g>
    <g id="ytick_16">
     <g id="line2d_28">
      <g>
       <use xlink:href="#m9ae53dc1a1" x="219.490938" y="515.816157" style="stroke: #000000; stroke-width: 0.8"/>
      </g>
     </g>
     <g id="text_22">
      <text style="font-weight: 500; font-size: 22px; font-family: 'Poppins'; text-anchor: end" x="212.490938" y="523.956157" transform="rotate(-0 212.490938 523.956157)">Nuevo León</text>
     </g>
    </g>
    <g id="ytick_17">
     <g id="line2d_29">
      <g>
       <use xlink:href="#m9ae53dc1a1" x="219.490938" y="543.836392" style="stroke: #000000; stroke-width: 0.8"/>
      </g>
     </g>
     <g id="text_23">
      <text style="font-weight: 500; font-size: 22px; font-family: 'Poppins'; text-anchor: end" x="212.490938" y="551.976392" transform="rotate(-0 212.490938 551.976392)">Chihuahua</text>
     </g>
    </g>
    <g id="ytick_18">
     <g id="line2d_30">
      <g>
       <use xlink:href="#m9ae53dc1a1" x="219.490938" y="571.856628" style="stroke: #000000; stroke-width: 0.8"/>
      </g>
     </g>
     <g id="text_24">
      <text style="font-weight: 500; font-size: 22px; font-family: 'Poppins'; text-anchor: end" x="212.490938" y="580.326628" transform="rotate(-0 212.490938 580.326628)">Aguascalientes </text>
     </g>
    </g>
    <g id="ytick_19">
     <g id="line2d_31">
      <g>
       <use xlink:href="#m9ae53dc1a1" x="219.490938" y="599.876863" style="stroke: #000000; stroke-width: 0.8"/>
      </g>
     </g>
     <g id="text_25">
      <text style="font-weight: 500; font-size: 22px; font-family: 'Poppins'; text-anchor: end" x="212.490938" y="608.314207" transform="rotate(-0 212.490938 608.314207)">Nayarit</text>
     </g>
    </g>
    <g id="ytick_20">
     <g id="line2d_32">
      <g>
       <use xlink:href="#m9ae53dc1a1" x="219.490938" y="627.897098" style="stroke: #000000; stroke-width: 0.8"/>
      </g>
     </g>
     <g id="text_26">
      <text style="font-weight: 500; font-size: 22px; font-family: 'Poppins'; text-anchor: end" x="212.490938" y="636.037098" transform="rotate(-0 212.490938 636.037098)">Morelos</text>
     </g>
    </g>
    <g id="ytick_21">
     <g id="line2d_33">
      <g>
       <use xlink:href="#m9ae53dc1a1" x="219.490938" y="655.917334" style="stroke: #000000; stroke-width: 0.8"/>
      </g>
     </g>
     <g id="text_27">
      <text style="font-weight: 500; font-size: 22px; font-family: 'Poppins'; text-anchor: end" x="212.490938" y="664.387334" transform="rotate(-0 212.490938 664.387334)">Guanajuato</text>
     </g>
    </g>
    <g id="ytick_22">
     <g id="line2d_34">
      <g>
       <use xlink:href="#m9ae53dc1a1" x="219.490938" y="683.937569" style="stroke: #000000; stroke-width: 0.8"/>
      </g>
     </g>
     <g id="text_28">
      <text style="font-weight: 500; font-size: 22px; font-family: 'Poppins'; text-anchor: end" x="212.490938" y="692.407569" transform="rotate(-0 212.490938 692.407569)">Hidalgo</text>
     </g>
    </g>
    <g id="ytick_23">
     <g id="line2d_35">
      <g>
       <use xlink:href="#m9ae53dc1a1" x="219.490938" y="711.957804" style="stroke: #000000; stroke-width: 0.8"/>
      </g>
     </g>
     <g id="text_29">
      <text style="font-weight: 500; font-size: 22px; font-family: 'Poppins'; text-anchor: end" x="212.490938" y="720.097804" transform="rotate(-0 212.490938 720.097804)">Coahuila</text>
     </g>
    </g>
    <g id="ytick_24">
     <g id="line2d_36">
      <g>
       <use xlink:href="#m9ae53dc1a1" x="219.490938" y="739.978039" style="stroke: #000000; stroke-width: 0.8"/>
      </g>
     </g>
     <g id="text_30">
      <text style="font-weight: 500; font-size: 22px; font-family: 'Poppins'; text-anchor: end" x="212.490938" y="748.118039" transform="rotate(-0 212.490938 748.118039)">Campeche</text>
     </g>
    </g>
    <g id="ytick_25">
     <g id="line2d_37">
      <g>
       <use xlink:href="#m9ae53dc1a1" x="219.490938" y="767.998275" style="stroke: #000000; stroke-width: 0.8"/>
      </g>
     </g>
     <g id="text_31">
      <text style="font-weight: 500; font-size: 22px; font-family: 'Poppins'; text-anchor: end" x="212.490938" y="776.028275" transform="rotate(-0 212.490938 776.028275)">Durango</text>
     </g>
    </g>
    <g id="ytick_26">
     <g id="line2d_38">
      <g>
       <use xlink:href="#m9ae53dc1a1" x="219.490938" y="796.01851" style="stroke: #000000; stroke-width: 0.8"/>
      </g>
     </g>
     <g id="text_32">
      <text style="font-weight: 500; font-size: 22px; font-family: 'Poppins'; text-anchor: end" x="212.490938" y="804.15851" transform="rotate(-0 212.490938 804.15851)">Querétaro</text>
     </g>
    </g>
    <g id="ytick_27">
     <g id="line2d_39">
      <g>
       <use xlink:href="#m9ae53dc1a1" x="219.490938" y="824.038745" style="stroke: #000000; stroke-width: 0.8"/>
      </g>
     </g>
     <g id="text_33">
      <text style="font-weight: 500; font-size: 22px; font-family: 'Poppins'; text-anchor: end" x="212.490938" y="832.178745" transform="rotate(-0 212.490938 832.178745)">Sonora</text>
     </g>
    </g>
    <g id="ytick_28">
     <g id="line2d_40">
      <g>
       <use xlink:href="#m9ae53dc1a1" x="219.490938" y="852.058981" style="stroke: #000000; stroke-width: 0.8"/>
      </g>
     </g>
     <g id="text_34">
      <text style="font-weight: 500; font-size: 22px; font-family: 'Poppins'; text-anchor: end" x="212.490938" y="860.198981" transform="rotate(-0 212.490938 860.198981)">Quintana Roo</text>
     </g>
    </g>
    <g id="ytick_29">
     <g id="line2d_41">
      <g>
       <use xlink:href="#m9ae53dc1a1" x="219.490938" y="880.079216" style="stroke: #000000; stroke-width: 0.8"/>
      </g>
     </g>
     <g id="text_35">
      <text style="font-weight: 500; font-size: 22px; font-family: 'Poppins'; text-anchor: end" x="212.490938" y="888.219216" transform="rotate(-0 212.490938 888.219216)">Tabasco</text>
     </g>
    </g>
    <g id="ytick_30">
     <g id="line2d_42">
      <g>
       <use xlink:href="#m9ae53dc1a1" x="219.490938" y="908.099451" style="stroke: #000000; stroke-width: 0.8"/>
      </g>
     </g>
     <g id="text_36">
      <text style="font-weight: 500; font-size: 22px; font-family: 'Poppins'; text-anchor: end" x="212.490938" y="916.569451" transform="rotate(-0 212.490938 916.569451)">Tamaulipas</text>
     </g>
    </g>
    <g id="ytick_31">
     <g id="line2d_43">
      <g>
       <use xlink:href="#m9ae53dc1a1" x="219.490938" y="936.119686" style="stroke: #000000; stroke-width: 0.8"/>
      </g>
     </g>
     <g id="text_37">
      <text style="font-weight: 500; font-size: 22px; font-family: 'Poppins'; text-anchor: end" x="212.490938" y="944.259686" transform="rotate(-0 212.490938 944.259686)">Veracruz</text>
     </g>
    </g>
    <g id="ytick_32">
     <g id="line2d_44">
      <g>
       <use xlink:href="#m9ae53dc1a1" x="219.490938" y="964.139922" style="stroke: #000000; stroke-width: 0.8"/>
      </g>
     </g>
     <g id="text_38">
      <text style="font-weight: 500; font-size: 22px; font-family: 'Poppins'; text-anchor: end" x="212.490938" y="972.279922" transform="rotate(-0 212.490938 972.279922)">Tlaxcala</text>
     </g>
    </g>
    <g id="ytick_33">
     <g id="line2d_45">
      <g>
       <use xlink:href="#m9ae53dc1a1" x="219.490938" y="992.160157" style="stroke: #000000; stroke-width: 0.8"/>
      </g>
     </g>
     <g id="text_39">
      <text style="font-weight: 500; font-size: 22px; font-family: 'Poppins'; text-anchor: end" x="212.490938" y="1000.300157" transform="rotate(-0 212.490938 1000.300157)">Zacatecas</text>
     </g>
    </g>
    <g id="ytick_34">
     <g id="line2d_46">
      <g>
       <use xlink:href="#m9ae53dc1a1" x="219.490938" y="1020.180392" style="stroke: #000000; stroke-width: 0.8"/>
      </g>
     </g>
     <g id="text_40">
      <text style="font-weight: 500; font-size: 22px; font-family: 'Poppins'; text-anchor: end" x="212.490938" y="1028.320392" transform="rotate(-0 212.490938 1028.320392)">Yucatán</text>
     </g>
    </g>
   </g>
   <g id="patch_3">
    <path d="M 219.490938 82.903522 
L 293.030538 82.903522 
L 293.030538 108.121734 
L 219.490938 108.121734 
z
" clip-path="url(#p9f7c213560)" style="fill: #10302c"/>
   </g>
   <g id="patch_4">
    <path d="M 293.030538 82.903522 
L 391.083338 82.903522 
L 391.083338 108.121734 
L 293.030538 108.121734 
z
" clip-path="url(#p9f7c213560)" style="fill: #4c6a67"/>
   </g>
   <g id="patch_5">
    <path d="M 391.083337 82.903522 
L 525.905937 82.903522 
L 525.905937 108.121734 
L 391.083337 108.121734 
z
" clip-path="url(#p9f7c213560)" style="fill: #8fa8a6"/>
   </g>
   <g id="patch_6">
    <path d="M 525.905938 82.903522 
L 660.728538 82.903522 
L 660.728538 108.121734 
L 525.905938 108.121734 
z
" clip-path="url(#p9f7c213560)" style="fill: #a3c9a8"/>
   </g>
   <g id="patch_7">
    <path d="M 219.490938 110.923757 
L 280.773937 110.923757 
L 280.773937 136.141969 
L 219.490938 136.141969 
z
" clip-path="url(#p9f7c213560)" style="fill: #10302c"/>
   </g>
   <g id="patch_8">
    <path d="M 280.773937 110.923757 
L 391.083337 110.923757 
L 391.083337 136.141969 
L 280.773937 136.141969 
z
" clip-path="url(#p9f7c213560)" style="fill: #4c6a67"/>
   </g>
   <g id="patch_9">
    <path d="M 391.083337 110.923757 
L 440.109737 110.923757 
L 440.109737 136.141969 
L 391.083337 136.141969 
z
" clip-path="url(#p9f7c213560)" style="fill: #8fa8a6"/>
   </g>
   <g id="patch_10">
    <path d="M 440.109738 110.923757 
L 489.136138 110.923757 
L 489.136138 136.141969 
L 440.109738 136.141969 
z
" clip-path="url(#p9f7c213560)" style="fill: #a3c9a8"/>
   </g>
   <g id="patch_11">
    <path d="M 219.490938 138.943992 
L 244.004138 138.943992 
L 244.004138 164.162204 
L 219.490938 164.162204 
z
" clip-path="url(#p9f7c213560)" style="fill: #10302c"/>
   </g>
   <g id="patch_12">
    <path d="M 244.004138 138.943992 
L 268.517337 138.943992 
L 268.517337 164.162204 
L 244.004138 164.162204 
z
" clip-path="url(#p9f7c213560)" style="fill: #4c6a67"/>
   </g>
   <g id="patch_13">
    <path d="M 268.517337 138.943992 
L 293.030537 138.943992 
L 293.030537 164.162204 
L 268.517337 164.162204 
z
" clip-path="url(#p9f7c213560)" style="fill: #8fa8a6"/>
   </g>
   <g id="patch_14">
    <path d="M 293.030538 138.943992 
L 317.543738 138.943992 
L 317.543738 164.162204 
L 293.030538 164.162204 
z
" clip-path="url(#p9f7c213560)" style="fill: #a3c9a8"/>
   </g>
   <g id="patch_15">
    <path d="M 219.490938 166.964228 
L 231.747537 166.964228 
L 231.747537 192.182439 
L 219.490938 192.182439 
z
" clip-path="url(#p9f7c213560)" style="fill: #10302c"/>
   </g>
   <g id="patch_16">
    <path d="M 231.747537 166.964228 
L 231.747537 166.964228 
L 231.747537 192.182439 
L 231.747537 192.182439 
z
" clip-path="url(#p9f7c213560)" style="fill: #4c6a67"/>
   </g>
   <g id="patch_17">
    <path d="M 231.747537 166.964228 
L 256.260738 166.964228 
L 256.260738 192.182439 
L 231.747537 192.182439 
z
" clip-path="url(#p9f7c213560)" style="fill: #8fa8a6"/>
   </g>
   <g id="patch_18">
    <path d="M 256.260738 166.964228 
L 280.773937 166.964228 
L 280.773937 192.182439 
L 256.260738 192.182439 
z
" clip-path="url(#p9f7c213560)" style="fill: #a3c9a8"/>
   </g>
   <g id="patch_19">
    <path d="M 219.490938 194.984463 
L 219.490938 194.984463 
L 219.490938 220.202675 
L 219.490938 220.202675 
z
" clip-path="url(#p9f7c213560)" style="fill: #10302c"/>
   </g>
   <g id="patch_20">
    <path d="M 219.490938 194.984463 
L 231.747537 194.984463 
L 231.747537 220.202675 
L 219.490938 220.202675 
z
" clip-path="url(#p9f7c213560)" style="fill: #4c6a67"/>
   </g>
   <g id="patch_21">
    <path d="M 231.747537 194.984463 
L 244.004137 194.984463 
L 244.004137 220.202675 
L 231.747537 220.202675 
z
" clip-path="url(#p9f7c213560)" style="fill: #8fa8a6"/>
   </g>
   <g id="patch_22">
    <path d="M 244.004138 194.984463 
L 256.260738 194.984463 
L 256.260738 220.202675 
L 244.004138 220.202675 
z
" clip-path="url(#p9f7c213560)" style="fill: #a3c9a8"/>
   </g>
   <g id="patch_23">
    <path d="M 219.490938 223.004698 
L 231.747537 223.004698 
L 231.747537 248.22291 
L 219.490938 248.22291 
z
" clip-path="url(#p9f7c213560)" style="fill: #10302c"/>
   </g>
   <g id="patch_24">
    <path d="M 231.747537 223.004698 
L 231.747537 223.004698 
L 231.747537 248.22291 
L 231.747537 248.22291 
z
" clip-path="url(#p9f7c213560)" style="fill: #4c6a67"/>
   </g>
   <g id="patch_25">
    <path d="M 231.747537 223.004698 
L 244.004137 223.004698 
L 244.004137 248.22291 
L 231.747537 248.22291 
z
" clip-path="url(#p9f7c213560)" style="fill: #8fa8a6"/>
   </g>
   <g id="patch_26">
    <path d="M 244.004138 223.004698 
L 256.260738 223.004698 
L 256.260738 248.22291 
L 244.004138 248.22291 
z
" clip-path="url(#p9f7c213560)" style="fill: #a3c9a8"/>
   </g>
   <g id="patch_27">
    <path d="M 219.490938 251.024934 
L 219.490938 251.024934 
L 219.490938 276.243145 
L 219.490938 276.243145 
z
" clip-path="url(#p9f7c213560)" style="fill: #10302c"/>
   </g>
   <g id="patch_28">
    <path d="M 219.490938 251.024934 
L 219.490938 251.024934 
L 219.490938 276.243145 
L 219.490938 276.243145 
z
" clip-path="url(#p9f7c213560)" style="fill: #4c6a67"/>
   </g>
   <g id="patch_29">
    <path d="M 219.490938 251.024934 
L 231.747537 251.024934 
L 231.747537 276.243145 
L 219.490938 276.243145 
z
" clip-path="url(#p9f7c213560)" style="fill: #8fa8a6"/>
   </g>
   <g id="patch_30">
    <path d="M 231.747537 251.024934 
L 244.004137 251.024934 
L 244.004137 276.243145 
L 231.747537 276.243145 
z
" clip-path="url(#p9f7c213560)" style="fill: #a3c9a8"/>
   </g>
   <g id="patch_31">
    <path d="M 219.490938 279.045169 
L 219.490938 279.045169 
L 219.490938 304.263381 
L 219.490938 304.263381 
z
" clip-path="url(#p9f7c213560)" style="fill: #10302c"/>
   </g>
   <g id="patch_32">
    <path d="M 219.490938 279.045169 
L 219.490938 279.045169 
L 219.490938 304.263381 
L 219.490938 304.263381 
z
" clip-path="url(#p9f7c213560)" style="fill: #4c6a67"/>
   </g>
   <g id="patch_33">
    <path d="M 219.490938 279.045169 
L 231.747537 279.045169 
L 231.747537 304.263381 
L 219.490938 304.263381 
z
" clip-path="url(#p9f7c213560)" style="fill: #8fa8a6"/>
   </g>
   <g id="patch_34">
    <path d="M 231.747537 279.045169 
L 244.004137 279.045169 
L 244.004137 304.263381 
L 231.747537 304.263381 
z
" clip-path="url(#p9f7c213560)" style="fill: #a3c9a8"/>
   </g>
   <g id="patch_35">
    <path d="M 219.490938 307.065404 
L 219.490938 307.065404 
L 219.490938 332.283616 
L 219.490938 332.283616 
z
" clip-path="url(#p9f7c213560)" style="fill: #10302c"/>
   </g>
   <g id="patch_36">
    <path d="M 219.490938 307.065404 
L 219.490938 307.065404 
L 219.490938 332.283616 
L 219.490938 332.283616 
z
" clip-path="url(#p9f7c213560)" style="fill: #4c6a67"/>
   </g>
   <g id="patch_37">
    <path d="M 219.490938 307.065404 
L 231.747537 307.065404 
L 231.747537 332.283616 
L 219.490938 332.283616 
z
" clip-path="url(#p9f7c213560)" style="fill: #8fa8a6"/>
   </g>
   <g id="patch_38">
    <path d="M 231.747537 307.065404 
L 244.004137 307.065404 
L 244.004137 332.283616 
L 231.747537 332.283616 
z
" clip-path="url(#p9f7c213560)" style="fill: #a3c9a8"/>
   </g>
   <g id="patch_39">
    <path d="M 219.490938 335.085639 
L 231.747537 335.085639 
L 231.747537 360.303851 
L 219.490938 360.303851 
z
" clip-path="url(#p9f7c213560)" style="fill: #10302c"/>
   </g>
   <g id="patch_40">
    <path d="M 231.747537 335.085639 
L 244.004137 335.085639 
L 244.004137 360.303851 
L 231.747537 360.303851 
z
" clip-path="url(#p9f7c213560)" style="fill: #4c6a67"/>
   </g>
   <g id="patch_41">
    <path d="M 244.004138 335.085639 
L 244.004138 335.085639 
L 244.004138 360.303851 
L 244.004138 360.303851 
z
" clip-path="url(#p9f7c213560)" style="fill: #8fa8a6"/>
   </g>
   <g id="patch_42">
    <path d="M 244.004138 335.085639 
L 244.004138 335.085639 
L 244.004138 360.303851 
L 244.004138 360.303851 
z
" clip-path="url(#p9f7c213560)" style="fill: #a3c9a8"/>
   </g>
   <g id="patch_43">
    <path d="M 219.490938 363.105875 
L 219.490938 363.105875 
L 219.490938 388.324086 
L 219.490938 388.324086 
z
" clip-path="url(#p9f7c213560)" style="fill: #10302c"/>
   </g>
   <g id="patch_44">
    <path d="M 219.490938 363.105875 
L 219.490938 363.105875 
L 219.490938 388.324086 
L 219.490938 388.324086 
z
" clip-path="url(#p9f7c213560)" style="fill: #4c6a67"/>
   </g>
   <g id="patch_45">
    <path d="M 219.490938 363.105875 
L 231.747537 363.105875 
L 231.747537 388.324086 
L 219.490938 388.324086 
z
" clip-path="url(#p9f7c213560)" style="fill: #8fa8a6"/>
   </g>
   <g id="patch_46">
    <path d="M 231.747537 363.105875 
L 244.004137 363.105875 
L 244.004137 388.324086 
L 231.747537 388.324086 
z
" clip-path="url(#p9f7c213560)" style="fill: #a3c9a8"/>
   </g>
   <g id="patch_47">
    <path d="M 219.490938 391.12611 
L 219.490938 391.12611 
L 219.490938 416.344322 
L 219.490938 416.344322 
z
" clip-path="url(#p9f7c213560)" style="fill: #10302c"/>
   </g>
   <g id="patch_48">
    <path d="M 219.490938 391.12611 
L 219.490938 391.12611 
L 219.490938 416.344322 
L 219.490938 416.344322 
z
" clip-path="url(#p9f7c213560)" style="fill: #4c6a67"/>
   </g>
   <g id="patch_49">
    <path d="M 219.490938 391.12611 
L 231.747537 391.12611 
L 231.747537 416.344322 
L 219.490938 416.344322 
z
" clip-path="url(#p9f7c213560)" style="fill: #8fa8a6"/>
   </g>
   <g id="patch_50">
    <path d="M 231.747537 391.12611 
L 244.004137 391.12611 
L 244.004137 416.344322 
L 231.747537 416.344322 
z
" clip-path="url(#p9f7c213560)" style="fill: #a3c9a8"/>
   </g>
   <g id="patch_51">
    <path d="M 219.490938 419.146345 
L 219.490938 419.146345 
L 219.490938 444.364557 
L 219.490938 444.364557 
z
" clip-path="url(#p9f7c213560)" style="fill: #10302c"/>
   </g>
   <g id="patch_52">
    <path d="M 219.490938 419.146345 
L 231.747537 419.146345 
L 231.747537 444.364557 
L 219.490938 444.364557 
z
" clip-path="url(#p9f7c213560)" style="fill: #4c6a67"/>
   </g>
   <g id="patch_53">
    <path d="M 231.747537 419.146345 
L 231.747537 419.146345 
L 231.747537 444.364557 
L 231.747537 444.364557 
z
" clip-path="url(#p9f7c213560)" style="fill: #8fa8a6"/>
   </g>
   <g id="patch_54">
    <path d="M 231.747537 419.146345 
L 231.747537 419.146345 
L 231.747537 444.364557 
L 231.747537 444.364557 
z
" clip-path="url(#p9f7c213560)" style="fill: #a3c9a8"/>
   </g>
   <g id="patch_55">
    <path d="M 219.490938 447.166581 
L 219.490938 447.166581 
L 219.490938 472.384792 
L 219.490938 472.384792 
z
" clip-path="url(#p9f7c213560)" style="fill: #10302c"/>
   </g>
   <g id="patch_56">
    <path d="M 219.490938 447.166581 
L 231.747537 447.166581 
L 231.747537 472.384792 
L 219.490938 472.384792 
z
" clip-path="url(#p9f7c213560)" style="fill: #4c6a67"/>
   </g>
   <g id="patch_57">
    <path d="M 231.747537 447.166581 
L 231.747537 447.166581 
L 231.747537 472.384792 
L 231.747537 472.384792 
z
" clip-path="url(#p9f7c213560)" style="fill: #8fa8a6"/>
   </g>
   <g id="patch_58">
    <path d="M 231.747537 447.166581 
L 231.747537 447.166581 
L 231.747537 472.384792 
L 231.747537 472.384792 
z
" clip-path="url(#p9f7c213560)" style="fill: #a3c9a8"/>
   </g>
   <g id="patch_59">
    <path d="M 219.490938 475.186816 
L 219.490938 475.186816 
L 219.490938 500.405028 
L 219.490938 500.405028 
z
" clip-path="url(#p9f7c213560)" style="fill: #10302c"/>
   </g>
   <g id="patch_60">
    <path d="M 219.490938 475.186816 
L 231.747537 475.186816 
L 231.747537 500.405028 
L 219.490938 500.405028 
z
" clip-path="url(#p9f7c213560)" style="fill: #4c6a67"/>
   </g>
   <g id="patch_61">
    <path d="M 231.747537 475.186816 
L 231.747537 475.186816 
L 231.747537 500.405028 
L 231.747537 500.405028 
z
" clip-path="url(#p9f7c213560)" style="fill: #8fa8a6"/>
   </g>
   <g id="patch_62">
    <path d="M 231.747537 475.186816 
L 231.747537 475.186816 
L 231.747537 500.405028 
L 231.747537 500.405028 
z
" clip-path="url(#p9f7c213560)" style="fill: #a3c9a8"/>
   </g>
   <g id="patch_63">
    <path d="M 219.490938 503.207051 
L 231.747537 503.207051 
L 231.747537 528.425263 
L 219.490938 528.425263 
z
" clip-path="url(#p9f7c213560)" style="fill: #10302c"/>
   </g>
   <g id="patch_64">
    <path d="M 231.747537 503.207051 
L 231.747537 503.207051 
L 231.747537 528.425263 
L 231.747537 528.425263 
z
" clip-path="url(#p9f7c213560)" style="fill: #4c6a67"/>
   </g>
   <g id="patch_65">
    <path d="M 231.747537 503.207051 
L 231.747537 503.207051 
L 231.747537 528.425263 
L 231.747537 528.425263 
z
" clip-path="url(#p9f7c213560)" style="fill: #8fa8a6"/>
   </g>
   <g id="patch_66">
    <path d="M 231.747537 503.207051 
L 231.747537 503.207051 
L 231.747537 528.425263 
L 231.747537 528.425263 
z
" clip-path="url(#p9f7c213560)" style="fill: #a3c9a8"/>
   </g>
   <g id="patch_67">
    <path d="M 219.490938 531.227286 
L 219.490938 531.227286 
L 219.490938 556.445498 
L 219.490938 556.445498 
z
" clip-path="url(#p9f7c213560)" style="fill: #10302c"/>
   </g>
   <g id="patch_68">
    <path d="M 219.490938 531.227286 
L 231.747537 531.227286 
L 231.747537 556.445498 
L 219.490938 556.445498 
z
" clip-path="url(#p9f7c213560)" style="fill: #4c6a67"/>
   </g>
   <g id="patch_69">
    <path d="M 231.747537 531.227286 
L 231.747537 531.227286 
L 231.747537 556.445498 
L 231.747537 556.445498 
z
" clip-path="url(#p9f7c213560)" style="fill: #8fa8a6"/>
   </g>
   <g id="patch_70">
    <path d="M 231.747537 531.227286 
L 231.747537 531.227286 
L 231.747537 556.445498 
L 231.747537 556.445498 
z
" clip-path="url(#p9f7c213560)" style="fill: #a3c9a8"/>
   </g>
   <g id="patch_71">
    <path d="M 219.490938 559.247522 
L 219.490938 559.247522 
L 219.490938 584.465734 
L 219.490938 584.465734 
z
" clip-path="url(#p9f7c213560)" style="fill: #10302c"/>
   </g>
   <g id="patch_72">
    <path d="M 219.490938 559.247522 
L 219.490938 559.247522 
L 219.490938 584.465734 
L 219.490938 584.465734 
z
" clip-path="url(#p9f7c213560)" style="fill: #4c6a67"/>
   </g>
   <g id="patch_73">
    <path d="M 219.490938 559.247522 
L 219.490938 559.247522 
L 219.490938 584.465734 
L 219.490938 584.465734 
z
" clip-path="url(#p9f7c213560)" style="fill: #8fa8a6"/>
   </g>
   <g id="patch_74">
    <path d="M 219.490938 559.247522 
L 219.490938 559.247522 
L 219.490938 584.465734 
L 219.490938 584.465734 
z
" clip-path="url(#p9f7c213560)" style="fill: #a3c9a8"/>
   </g>
   <g id="patch_75">
    <path d="M 219.490938 587.267757 
L 219.490938 587.267757 
L 219.490938 612.485969 
L 219.490938 612.485969 
z
" clip-path="url(#p9f7c213560)" style="fill: #10302c"/>
   </g>
   <g id="patch_76">
    <path d="M 219.490938 587.267757 
L 219.490938 587.267757 
L 219.490938 612.485969 
L 219.490938 612.485969 
z
" clip-path="url(#p9f7c213560)" style="fill: #4c6a67"/>
   </g>
   <g id="patch_77">
    <path d="M 219.490938 587.267757 
L 219.490938 587.267757 
L 219.490938 612.485969 
L 219.490938 612.485969 
z
" clip-path="url(#p9f7c213560)" style="fill: #8fa8a6"/>
   </g>
   <g id="patch_78">
    <path d="M 219.490938 587.267757 
L 219.490938 587.267757 
L 219.490938 612.485969 
L 219.490938 612.485969 
z
" clip-path="url(#p9f7c213560)" style="fill: #a3c9a8"/>
   </g>
   <g id="patch_79">
    <path d="M 219.490938 615.287992 
L 219.490938 615.287992 
L 219.490938 640.506204 
L 219.490938 640.506204 
z
" clip-path="url(#p9f7c213560)" style="fill: #10302c"/>
   </g>
   <g id="patch_80">
    <path d="M 219.490938 615.287992 
L 219.490938 615.287992 
L 219.490938 640.506204 
L 219.490938 640.506204 
z
" clip-path="url(#p9f7c213560)" style="fill: #4c6a67"/>
   </g>
   <g id="patch_81">
    <path d="M 219.490938 615.287992 
L 219.490938 615.287992 
L 219.490938 640.506204 
L 219.490938 640.506204 
z
" clip-path="url(#p9f7c213560)" style="fill: #8fa8a6"/>
   </g>
   <g id="patch_82">
    <path d="M 219.490938 615.287992 
L 219.490938 615.287992 
L 219.490938 640.506204 
L 219.490938 640.506204 
z
" clip-path="url(#p9f7c213560)" style="fill: #a3c9a8"/>
   </g>
   <g id="patch_83">
    <path d="M 219.490938 643.308228 
L 219.490938 643.308228 
L 219.490938 668.526439 
L 219.490938 668.526439 
z
" clip-path="url(#p9f7c213560)" style="fill: #10302c"/>
   </g>
   <g id="patch_84">
    <path d="M 219.490938 643.308228 
L 219.490938 643.308228 
L 219.490938 668.526439 
L 219.490938 668.526439 
z
" clip-path="url(#p9f7c213560)" style="fill: #4c6a67"/>
   </g>
   <g id="patch_85">
    <path d="M 219.490938 643.308228 
L 219.490938 643.308228 
L 219.490938 668.526439 
L 219.490938 668.526439 
z
" clip-path="url(#p9f7c213560)" style="fill: #8fa8a6"/>
   </g>
   <g id="patch_86">
    <path d="M 219.490938 643.308228 
L 219.490938 643.308228 
L 219.490938 668.526439 
L 219.490938 668.526439 
z
" clip-path="url(#p9f7c213560)" style="fill: #a3c9a8"/>
   </g>
   <g id="patch_87">
    <path d="M 219.490938 671.328463 
L 219.490938 671.328463 
L 219.490938 696.546675 
L 219.490938 696.546675 
z
" clip-path="url(#p9f7c213560)" style="fill: #10302c"/>
   </g>
   <g id="patch_88">
    <path d="M 219.490938 671.328463 
L 219.490938 671.328463 
L 219.490938 696.546675 
L 219.490938 696.546675 
z
" clip-path="url(#p9f7c213560)" style="fill: #4c6a67"/>
   </g>
   <g id="patch_89">
    <path d="M 219.490938 671.328463 
L 219.490938 671.328463 
L 219.490938 696.546675 
L 219.490938 696.546675 
z
" clip-path="url(#p9f7c213560)" style="fill: #8fa8a6"/>
   </g>
   <g id="patch_90">
    <path d="M 219.490938 671.328463 
L 219.490938 671.328463 
L 219.490938 696.546675 
L 219.490938 696.546675 
z
" clip-path="url(#p9f7c213560)" style="fill: #a3c9a8"/>
   </g>
   <g id="patch_91">
    <path d="M 219.490938 699.348698 
L 219.490938 699.348698 
L 219.490938 724.56691 
L 219.490938 724.56691 
z
" clip-path="url(#p9f7c213560)" style="fill: #10302c"/>
   </g>
   <g id="patch_92">
    <path d="M 219.490938 699.348698 
L 219.490938 699.348698 
L 219.490938 724.56691 
L 219.490938 724.56691 
z
" clip-path="url(#p9f7c213560)" style="fill: #4c6a67"/>
   </g>
   <g id="patch_93">
    <path d="M 219.490938 699.348698 
L 219.490938 699.348698 
L 219.490938 724.56691 
L 219.490938 724.56691 
z
" clip-path="url(#p9f7c213560)" style="fill: #8fa8a6"/>
   </g>
   <g id="patch_94">
    <path d="M 219.490938 699.348698 
L 219.490938 699.348698 
L 219.490938 724.56691 
L 219.490938 724.56691 
z
" clip-path="url(#p9f7c213560)" style="fill: #a3c9a8"/>
   </g>
   <g id="patch_95">
    <path d="M 219.490938 727.368934 
L 219.490938 727.368934 
L 219.490938 752.587145 
L 219.490938 752.587145 
z
" clip-path="url(#p9f7c213560)" style="fill: #10302c"/>
   </g>
   <g id="patch_96">
    <path d="M 219.490938 727.368934 
L 219.490938 727.368934 
L 219.490938 752.587145 
L 219.490938 752.587145 
z
" clip-path="url(#p9f7c213560)" style="fill: #4c6a67"/>
   </g>
   <g id="patch_97">
    <path d="M 219.490938 727.368934 
L 219.490938 727.368934 
L 219.490938 752.587145 
L 219.490938 752.587145 
z
" clip-path="url(#p9f7c213560)" style="fill: #8fa8a6"/>
   </g>
   <g id="patch_98">
    <path d="M 219.490938 727.368934 
L 219.490938 727.368934 
L 219.490938 752.587145 
L 219.490938 752.587145 
z
" clip-path="url(#p9f7c213560)" style="fill: #a3c9a8"/>
   </g>
   <g id="patch_99">
    <path d="M 219.490938 755.389169 
L 219.490938 755.389169 
L 219.490938 780.607381 
L 219.490938 780.607381 
z
" clip-path="url(#p9f7c213560)" style="fill: #10302c"/>
   </g>
   <g id="patch_100">
    <path d="M 219.490938 755.389169 
L 219.490938 755.389169 
L 219.490938 780.607381 
L 219.490938 780.607381 
z
" clip-path="url(#p9f7c213560)" style="fill: #4c6a67"/>
   </g>
   <g id="patch_101">
    <path d="M 219.490938 755.389169 
L 219.490938 755.389169 
L 219.490938 780.607381 
L 219.490938 780.607381 
z
" clip-path="url(#p9f7c213560)" style="fill: #8fa8a6"/>
   </g>
   <g id="patch_102">
    <path d="M 219.490938 755.389169 
L 219.490938 755.389169 
L 219.490938 780.607381 
L 219.490938 780.607381 
z
" clip-path="url(#p9f7c213560)" style="fill: #a3c9a8"/>
   </g>
   <g id="patch_103">
    <path d="M 219.490938 783.409404 
L 219.490938 783.409404 
L 219.490938 808.627616 
L 219.490938 808.627616 
z
" clip-path="url(#p9f7c213560)" style="fill: #10302c"/>
   </g>
   <g id="patch_104">
    <path d="M 219.490938 783.409404 
L 219.490938 783.409404 
L 219.490938 808.627616 
L 219.490938 808.627616 
z
" clip-path="url(#p9f7c213560)" style="fill: #4c6a67"/>
   </g>
   <g id="patch_105">
    <path d="M 219.490938 783.409404 
L 219.490938 783.409404 
L 219.490938 808.627616 
L 219.490938 808.627616 
z
" clip-path="url(#p9f7c213560)" style="fill: #8fa8a6"/>
   </g>
   <g id="patch_106">
    <path d="M 219.490938 783.409404 
L 219.490938 783.409404 
L 219.490938 808.627616 
L 219.490938 808.627616 
z
" clip-path="url(#p9f7c213560)" style="fill: #a3c9a8"/>
   </g>
   <g id="patch_107">
    <path d="M 219.490938 811.429639 
L 219.490938 811.429639 
L 219.490938 836.647851 
L 219.490938 836.647851 
z
" clip-path="url(#p9f7c213560)" style="fill: #10302c"/>
   </g>
   <g id="patch_108">
    <path d="M 219.490938 811.429639 
L 219.490938 811.429639 
L 219.490938 836.647851 
L 219.490938 836.647851 
z
" clip-path="url(#p9f7c213560)" style="fill: #4c6a67"/>
   </g>
   <g id="patch_109">
    <path d="M 219.490938 811.429639 
L 219.490938 811.429639 
L 219.490938 836.647851 
L 219.490938 836.647851 
z
" clip-path="url(#p9f7c213560)" style="fill: #8fa8a6"/>
   </g>
   <g id="patch_110">
    <path d="M 219.490938 811.429639 
L 219.490938 811.429639 
L 219.490938 836.647851 
L 219.490938 836.647851 
z
" clip-path="url(#p9f7c213560)" style="fill: #a3c9a8"/>
   </g>
   <g id="patch_111">
    <path d="M 219.490938 839.449875 
L 219.490938 839.449875 
L 219.490938 864.668086 
L 219.490938 864.668086 
z
" clip-path="url(#p9f7c213560)" style="fill: #10302c"/>
   </g>
   <g id="patch_112">
    <path d="M 219.490938 839.449875 
L 219.490938 839.449875 
L 219.490938 864.668086 
L 219.490938 864.668086 
z
" clip-path="url(#p9f7c213560)" style="fill: #4c6a67"/>
   </g>
   <g id="patch_113">
    <path d="M 219.490938 839.449875 
L 219.490938 839.449875 
L 219.490938 864.668086 
L 219.490938 864.668086 
z
" clip-path="url(#p9f7c213560)" style="fill: #8fa8a6"/>
   </g>
   <g id="patch_114">
    <path d="M 219.490938 839.449875 
L 219.490938 839.449875 
L 219.490938 864.668086 
L 219.490938 864.668086 
z
" clip-path="url(#p9f7c213560)" style="fill: #a3c9a8"/>
   </g>
   <g id="patch_115">
    <path d="M 219.490938 867.47011 
L 219.490938 867.47011 
L 219.490938 892.688322 
L 219.490938 892.688322 
z
" clip-path="url(#p9f7c213560)" style="fill: #10302c"/>
   </g>
   <g id="patch_116">
    <path d="M 219.490938 867.47011 
L 219.490938 867.47011 
L 219.490938 892.688322 
L 219.490938 892.688322 
z
" clip-path="url(#p9f7c213560)" style="fill: #4c6a67"/>
   </g>
   <g id="patch_117">
    <path d="M 219.490938 867.47011 
L 219.490938 867.47011 
L 219.490938 892.688322 
L 219.490938 892.688322 
z
" clip-path="url(#p9f7c213560)" style="fill: #8fa8a6"/>
   </g>
   <g id="patch_118">
    <path d="M 219.490938 867.47011 
L 219.490938 867.47011 
L 219.490938 892.688322 
L 219.490938 892.688322 
z
" clip-path="url(#p9f7c213560)" style="fill: #a3c9a8"/>
   </g>
   <g id="patch_119">
    <path d="M 219.490938 895.490345 
L 219.490938 895.490345 
L 219.490938 920.708557 
L 219.490938 920.708557 
z
" clip-path="url(#p9f7c213560)" style="fill: #10302c"/>
   </g>
   <g id="patch_120">
    <path d="M 219.490938 895.490345 
L 219.490938 895.490345 
L 219.490938 920.708557 
L 219.490938 920.708557 
z
" clip-path="url(#p9f7c213560)" style="fill: #4c6a67"/>
   </g>
   <g id="patch_121">
    <path d="M 219.490938 895.490345 
L 219.490938 895.490345 
L 219.490938 920.708557 
L 219.490938 920.708557 
z
" clip-path="url(#p9f7c213560)" style="fill: #8fa8a6"/>
   </g>
   <g id="patch_122">
    <path d="M 219.490938 895.490345 
L 219.490938 895.490345 
L 219.490938 920.708557 
L 219.490938 920.708557 
z
" clip-path="url(#p9f7c213560)" style="fill: #a3c9a8"/>
   </g>
   <g id="patch_123">
    <path d="M 219.490938 923.510581 
L 219.490938 923.510581 
L 219.490938 948.728792 
L 219.490938 948.728792 
z
" clip-path="url(#p9f7c213560)" style="fill: #10302c"/>
   </g>
   <g id="patch_124">
    <path d="M 219.490938 923.510581 
L 219.490938 923.510581 
L 219.490938 948.728792 
L 219.490938 948.728792 
z
" clip-path="url(#p9f7c213560)" style="fill: #4c6a67"/>
   </g>
   <g id="patch_125">
    <path d="M 219.490938 923.510581 
L 219.490938 923.510581 
L 219.490938 948.728792 
L 219.490938 948.728792 
z
" clip-path="url(#p9f7c213560)" style="fill: #8fa8a6"/>
   </g>
   <g id="patch_126">
    <path d="M 219.490938 923.510581 
L 219.490938 923.510581 
L 219.490938 948.728792 
L 219.490938 948.728792 
z
" clip-path="url(#p9f7c213560)" style="fill: #a3c9a8"/>
   </g>
   <g id="patch_127">
    <path d="M 219.490938 951.530816 
L 219.490938 951.530816 
L 219.490938 976.749028 
L 219.490938 976.749028 
z
" clip-path="url(#p9f7c213560)" style="fill: #10302c"/>
   </g>
   <g id="patch_128">
    <path d="M 219.490938 951.530816 
L 219.490938 951.530816 
L 219.490938 976.749028 
L 219.490938 976.749028 
z
" clip-path="url(#p9f7c213560)" style="fill: #4c6a67"/>
   </g>
   <g id="patch_129">
    <path d="M 219.490938 951.530816 
L 219.490938 951.530816 
L 219.490938 976.749028 
L 219.490938 976.749028 
z
" clip-path="url(#p9f7c213560)" style="fill: #8fa8a6"/>
   </g>
   <g id="patch_130">
    <path d="M 219.490938 951.530816 
L 219.490938 951.530816 
L 219.490938 976.749028 
L 219.490938 976.749028 
z
" clip-path="url(#p9f7c213560)" style="fill: #a3c9a8"/>
   </g>
   <g id="patch_131">
    <path d="M 219.490938 979.551051 
L 219.490938 979.551051 
L 219.490938 1004.769263 
L 219.490938 1004.769263 
z
" clip-path="url(#p9f7c213560)" style="fill: #10302c"/>
   </g>
   <g id="patch_132">
    <path d="M 219.490938 979.551051 
L 219.490938 979.551051 
L 219.490938 1004.769263 
L 219.490938 1004.769263 
z
" clip-path="url(#p9f7c213560)" style="fill: #4c6a67"/>
   </g>
   <g id="patch_133">
    <path d="M 219.490938 979.551051 
L 219.490938 979.551051 
L 219.490938 1004.769263 
L 219.490938 1004.769263 
z
" clip-path="url(#p9f7c213560)" style="fill: #8fa8a6"/>
   </g>
   <g id="patch_134">
    <path d="M 219.490938 979.551051 
L 219.490938 979.551051 
L 219.490938 1004.769263 
L 219.490938 1004.769263 
z
" clip-path="url(#p9f7c213560)" style="fill: #a3c9a8"/>
   </g>
   <g id="patch_135">
    <path d="M 219.490938 1007.571286 
L 219.490938 1007.571286 
L 219.490938 1032.789498 
L 219.490938 1032.789498 
z
" clip-path="url(#p9f7c213560)" style="fill: #10302c"/>
   </g>
   <g id="patch_136">
    <path d="M 219.490938 1007.571286 
L 219.490938 1007.571286 
L 219.490938 1032.789498 
L 219.490938 1032.789498 
z
" clip-path="url(#p9f7c213560)" style="fill: #4c6a67"/>
   </g>
   <g id="patch_137">
    <path d="M 219.490938 1007.571286 
L 219.490938 1007.571286 
L 219.490938 1032.789498 
L 219.490938 1032.789498 
z
" clip-path="url(#p9f7c213560)" style="fill: #8fa8a6"/>
   </g>
   <g id="patch_138">
    <path d="M 219.490938 1007.571286 
L 219.490938 1007.571286 
L 219.490938 1032.789498 
L 219.490938 1032.789498 
z
" clip-path="url(#p9f7c213560)" style="fill: #a3c9a8"/>
   </g>
   <g id="text_41">
    <text style="font-weight: 500; font-size: 15px; font-family: 'Poppins'; text-anchor: middle; fill: #ffffff" x="256.260738" y="99.982159" transform="rotate(-0 256.260738 99.982159)">6 (6.4%)</text>
   </g>
   <g id="text_42">
    <text style="font-weight: 500; font-size: 15px; font-family: 'Poppins'; text-anchor: middle; fill: #ffffff" x="342.056938" y="99.982159" transform="rotate(-0 342.056938 99.982159)">8 (8.5%)</text>
   </g>
   <g id="text_43">
    <text style="font-weight: 500; font-size: 15px; font-family: 'Poppins'; text-anchor: middle; fill: #ffffff" x="458.494638" y="99.982159" transform="rotate(-0 458.494638 99.982159)">11 (11.7%)</text>
   </g>
   <g id="text_44">
    <text style="font-weight: 500; font-size: 15px; font-family: 'Poppins'; text-anchor: middle; fill: #ffffff" x="593.317238" y="99.982159" transform="rotate(-0 593.317238 99.982159)">11 (11.7%)</text>
   </g>
   <g id="text_45">
    <g id="patch_139">
     <path d="M 688.301235 107.919034 
L 719.428578 107.919034 
Q 734.628578 107.919034 734.628578 92.719034 
L 734.628578 98.306221 
Q 734.628578 83.106221 719.428578 83.106221 
L 688.301235 83.106221 
Q 673.101235 83.106221 673.101235 98.306221 
L 673.101235 92.719034 
Q 673.101235 107.919034 688.301235 107.919034 
z
" style="fill: #ffffff; stroke: #002f2a; stroke-width: 1.5; stroke-linejoin: miter"/>
    </g>
    <text style="font-weight: 700; font-size: 19px; font-family: 'Poppins'; text-anchor: start; fill: #10302c" x="675.951235" y="100.016221" transform="rotate(-0 675.951235 100.016221)">    36    </text>
   </g>
   <g id="text_46">
    <text style="font-weight: 600; font-size: 22px; font-family: 'Poppins'; text-anchor: start; fill: #4c6a67" x="736.842023" y="100.74794" transform="rotate(-0 736.842023 100.74794)">38.3%</text>
   </g>
   <g id="text_47">
    <text style="font-weight: 500; font-size: 15px; font-family: 'Poppins'; text-anchor: middle; fill: #ffffff" x="250.132438" y="128.002394" transform="rotate(-0 250.132438 128.002394)">5 (5.3%)</text>
   </g>
   <g id="text_48">
    <text style="font-weight: 500; font-size: 15px; font-family: 'Poppins'; text-anchor: middle; fill: #ffffff" x="335.928638" y="128.002394" transform="rotate(-0 335.928638 128.002394)">9 (9.6%)</text>
   </g>
   <g id="text_49">
    <g id="patch_140">
     <path d="M 516.708835 135.939269 
L 545.93321 135.939269 
Q 561.13321 135.939269 561.13321 120.739269 
L 561.13321 126.326457 
Q 561.13321 111.126457 545.93321 111.126457 
L 516.708835 111.126457 
Q 501.508835 111.126457 501.508835 126.326457 
L 501.508835 120.739269 
Q 501.508835 135.939269 516.708835 135.939269 
z
" style="fill: #ffffff; stroke: #002f2a; stroke-width: 1.5; stroke-linejoin: miter"/>
    </g>
    <text style="font-weight: 700; font-size: 19px; font-family: 'Poppins'; text-anchor: start; fill: #10302c" x="504.358835" y="128.036457" transform="rotate(-0 504.358835 128.036457)">    22    </text>
   </g>
   <g id="text_50">
    <text style="font-weight: 600; font-size: 22px; font-family: 'Poppins'; text-anchor: start; fill: #4c6a67" x="565.249623" y="128.768175" transform="rotate(-0 565.249623 128.768175)">23.4%</text>
   </g>
   <g id="text_51">
    <g id="patch_141">
     <path d="M 345.116435 163.959504 
L 364.956591 163.959504 
Q 380.156591 163.959504 380.156591 148.759504 
L 380.156591 154.346692 
Q 380.156591 139.146692 364.956591 139.146692 
L 345.116435 139.146692 
Q 329.916435 139.146692 329.916435 154.346692 
L 329.916435 148.759504 
Q 329.916435 163.959504 345.116435 163.959504 
z
" style="fill: #ffffff; stroke: #002f2a; stroke-width: 1.5; stroke-linejoin: miter"/>
    </g>
    <text style="font-weight: 700; font-size: 19px; font-family: 'Poppins'; text-anchor: start; fill: #10302c" x="332.766435" y="156.056692" transform="rotate(-0 332.766435 156.056692)">    8    </text>
   </g>
   <g id="text_52">
    <text style="font-weight: 600; font-size: 22px; font-family: 'Poppins'; text-anchor: start; fill: #4c6a67" x="393.657223" y="156.788411" transform="rotate(-0 393.657223 156.788411)">8.5%</text>
   </g>
   <g id="text_53">
    <g id="patch_142">
     <path d="M 308.346635 191.97974 
L 328.225385 191.97974 
Q 343.425385 191.97974 343.425385 176.77974 
L 343.425385 182.366927 
Q 343.425385 167.166927 328.225385 167.166927 
L 308.346635 167.166927 
Q 293.146635 167.166927 293.146635 182.366927 
L 293.146635 176.77974 
Q 293.146635 191.97974 308.346635 191.97974 
z
" style="fill: #ffffff; stroke: #002f2a; stroke-width: 1.5; stroke-linejoin: miter"/>
    </g>
    <text style="font-weight: 700; font-size: 19px; font-family: 'Poppins'; text-anchor: start; fill: #10302c" x="295.996635" y="184.076927" transform="rotate(-0 295.996635 184.076927)">    5    </text>
   </g>
   <g id="text_54">
    <text style="font-weight: 600; font-size: 22px; font-family: 'Poppins'; text-anchor: start; fill: #4c6a67" x="356.887424" y="184.808646" transform="rotate(-0 356.887424 184.808646)">5.3%</text>
   </g>
   <g id="text_55">
    <g id="patch_143">
     <path d="M 283.833435 219.999975 
L 302.857185 219.999975 
Q 318.057185 219.999975 318.057185 204.799975 
L 318.057185 210.387163 
Q 318.057185 195.187163 302.857185 195.187163 
L 283.833435 195.187163 
Q 268.633435 195.187163 268.633435 210.387163 
L 268.633435 204.799975 
Q 268.633435 219.999975 283.833435 219.999975 
z
" style="fill: #ffffff; stroke: #002f2a; stroke-width: 1.5; stroke-linejoin: miter"/>
    </g>
    <text style="font-weight: 700; font-size: 19px; font-family: 'Poppins'; text-anchor: start; fill: #10302c" x="271.483435" y="212.097163" transform="rotate(-0 271.483435 212.097163)">    3    </text>
   </g>
   <g id="text_56">
    <text style="font-weight: 600; font-size: 22px; font-family: 'Poppins'; text-anchor: start; fill: #4c6a67" x="332.374224" y="212.828881" transform="rotate(-0 332.374224 212.828881)">3.2%</text>
   </g>
   <g id="text_57">
    <g id="patch_144">
     <path d="M 283.833435 248.02021 
L 302.857185 248.02021 
Q 318.057185 248.02021 318.057185 232.82021 
L 318.057185 238.407398 
Q 318.057185 223.207398 302.857185 223.207398 
L 283.833435 223.207398 
Q 268.633435 223.207398 268.633435 238.407398 
L 268.633435 232.82021 
Q 268.633435 248.02021 283.833435 248.02021 
z
" style="fill: #ffffff; stroke: #002f2a; stroke-width: 1.5; stroke-linejoin: miter"/>
    </g>
    <text style="font-weight: 700; font-size: 19px; font-family: 'Poppins'; text-anchor: start; fill: #10302c" x="271.483435" y="240.117398" transform="rotate(-0 271.483435 240.117398)">    3    </text>
   </g>
   <g id="text_58">
    <text style="font-weight: 600; font-size: 22px; font-family: 'Poppins'; text-anchor: start; fill: #4c6a67" x="332.374224" y="240.849117" transform="rotate(-0 332.374224 240.849117)">3.2%</text>
   </g>
   <g id="text_59">
    <g id="patch_145">
     <path d="M 271.576835 276.040446 
L 289.953397 276.040446 
Q 305.153397 276.040446 305.153397 260.840446 
L 305.153397 266.427633 
Q 305.153397 251.227633 289.953397 251.227633 
L 271.576835 251.227633 
Q 256.376835 251.227633 256.376835 266.427633 
L 256.376835 260.840446 
Q 256.376835 276.040446 271.576835 276.040446 
z
" style="fill: #ffffff; stroke: #002f2a; stroke-width: 1.5; stroke-linejoin: miter"/>
    </g>
    <text style="font-weight: 700; font-size: 19px; font-family: 'Poppins'; text-anchor: start; fill: #10302c" x="259.226835" y="268.137633" transform="rotate(-0 259.226835 268.137633)">    2    </text>
   </g>
   <g id="text_60">
    <text style="font-weight: 600; font-size: 22px; font-family: 'Poppins'; text-anchor: start; fill: #4c6a67" x="320.117624" y="268.869352" transform="rotate(-0 320.117624 268.869352)">2.1%</text>
   </g>
   <g id="text_61">
    <g id="patch_146">
     <path d="M 271.576835 304.060681 
L 289.953397 304.060681 
Q 305.153397 304.060681 305.153397 288.860681 
L 305.153397 294.447868 
Q 305.153397 279.247868 289.953397 279.247868 
L 271.576835 279.247868 
Q 256.376835 279.247868 256.376835 294.447868 
L 256.376835 288.860681 
Q 256.376835 304.060681 271.576835 304.060681 
z
" style="fill: #ffffff; stroke: #002f2a; stroke-width: 1.5; stroke-linejoin: miter"/>
    </g>
    <text style="font-weight: 700; font-size: 19px; font-family: 'Poppins'; text-anchor: start; fill: #10302c" x="259.226835" y="296.157868" transform="rotate(-0 259.226835 296.157868)">    2    </text>
   </g>
   <g id="text_62">
    <text style="font-weight: 600; font-size: 22px; font-family: 'Poppins'; text-anchor: start; fill: #4c6a67" x="320.117624" y="296.889587" transform="rotate(-0 320.117624 296.889587)">2.1%</text>
   </g>
   <g id="text_63">
    <g id="patch_147">
     <path d="M 271.576835 332.080916 
L 289.953397 332.080916 
Q 305.153397 332.080916 305.153397 316.880916 
L 305.153397 322.468104 
Q 305.153397 307.268104 289.953397 307.268104 
L 271.576835 307.268104 
Q 256.376835 307.268104 256.376835 322.468104 
L 256.376835 316.880916 
Q 256.376835 332.080916 271.576835 332.080916 
z
" style="fill: #ffffff; stroke: #002f2a; stroke-width: 1.5; stroke-linejoin: miter"/>
    </g>
    <text style="font-weight: 700; font-size: 19px; font-family: 'Poppins'; text-anchor: start; fill: #10302c" x="259.226835" y="324.178104" transform="rotate(-0 259.226835 324.178104)">    2    </text>
   </g>
   <g id="text_64">
    <text style="font-weight: 600; font-size: 22px; font-family: 'Poppins'; text-anchor: start; fill: #4c6a67" x="320.117624" y="324.909823" transform="rotate(-0 320.117624 324.909823)">2.1%</text>
   </g>
   <g id="text_65">
    <g id="patch_148">
     <path d="M 271.576835 360.101152 
L 289.953397 360.101152 
Q 305.153397 360.101152 305.153397 344.901152 
L 305.153397 350.488339 
Q 305.153397 335.288339 289.953397 335.288339 
L 271.576835 335.288339 
Q 256.376835 335.288339 256.376835 350.488339 
L 256.376835 344.901152 
Q 256.376835 360.101152 271.576835 360.101152 
z
" style="fill: #ffffff; stroke: #002f2a; stroke-width: 1.5; stroke-linejoin: miter"/>
    </g>
    <text style="font-weight: 700; font-size: 19px; font-family: 'Poppins'; text-anchor: start; fill: #10302c" x="259.226835" y="352.198339" transform="rotate(-0 259.226835 352.198339)">    2    </text>
   </g>
   <g id="text_66">
    <text style="font-weight: 600; font-size: 22px; font-family: 'Poppins'; text-anchor: start; fill: #4c6a67" x="320.117624" y="352.930058" transform="rotate(-0 320.117624 352.930058)">2.1%</text>
   </g>
   <g id="text_67">
    <g id="patch_149">
     <path d="M 271.576835 388.121387 
L 289.953397 388.121387 
Q 305.153397 388.121387 305.153397 372.921387 
L 305.153397 378.508574 
Q 305.153397 363.308574 289.953397 363.308574 
L 271.576835 363.308574 
Q 256.376835 363.308574 256.376835 378.508574 
L 256.376835 372.921387 
Q 256.376835 388.121387 271.576835 388.121387 
z
" style="fill: #ffffff; stroke: #002f2a; stroke-width: 1.5; stroke-linejoin: miter"/>
    </g>
    <text style="font-weight: 700; font-size: 19px; font-family: 'Poppins'; text-anchor: start; fill: #10302c" x="259.226835" y="380.218574" transform="rotate(-0 259.226835 380.218574)">    2    </text>
   </g>
   <g id="text_68">
    <text style="font-weight: 600; font-size: 22px; font-family: 'Poppins'; text-anchor: start; fill: #4c6a67" x="320.117624" y="380.950293" transform="rotate(-0 320.117624 380.950293)">2.1%</text>
   </g>
   <g id="text_69">
    <g id="patch_150">
     <path d="M 271.576835 416.141622 
L 289.953397 416.141622 
Q 305.153397 416.141622 305.153397 400.941622 
L 305.153397 406.52881 
Q 305.153397 391.32881 289.953397 391.32881 
L 271.576835 391.32881 
Q 256.376835 391.32881 256.376835 406.52881 
L 256.376835 400.941622 
Q 256.376835 416.141622 271.576835 416.141622 
z
" style="fill: #ffffff; stroke: #002f2a; stroke-width: 1.5; stroke-linejoin: miter"/>
    </g>
    <text style="font-weight: 700; font-size: 19px; font-family: 'Poppins'; text-anchor: start; fill: #10302c" x="259.226835" y="408.23881" transform="rotate(-0 259.226835 408.23881)">    2    </text>
   </g>
   <g id="text_70">
    <text style="font-weight: 600; font-size: 22px; font-family: 'Poppins'; text-anchor: start; fill: #4c6a67" x="320.117624" y="408.970528" transform="rotate(-0 320.117624 408.970528)">2.1%</text>
   </g>
   <g id="text_71">
    <g id="patch_151">
     <path d="M 259.320235 444.161857 
L 273.991797 444.161857 
Q 289.191797 444.161857 289.191797 428.961857 
L 289.191797 434.549045 
Q 289.191797 419.349045 273.991797 419.349045 
L 259.320235 419.349045 
Q 244.120235 419.349045 244.120235 434.549045 
L 244.120235 428.961857 
Q 244.120235 444.161857 259.320235 444.161857 
z
" style="fill: #ffffff; stroke: #002f2a; stroke-width: 1.5; stroke-linejoin: miter"/>
    </g>
    <text style="font-weight: 700; font-size: 19px; font-family: 'Poppins'; text-anchor: start; fill: #10302c" x="246.970235" y="436.259045" transform="rotate(-0 246.970235 436.259045)">    1    </text>
   </g>
   <g id="text_72">
    <text style="font-weight: 600; font-size: 22px; font-family: 'Poppins'; text-anchor: start; fill: #4c6a67" x="307.861023" y="436.990764" transform="rotate(-0 307.861023 436.990764)">1.1%</text>
   </g>
   <g id="text_73">
    <g id="patch_152">
     <path d="M 259.320235 472.182093 
L 273.991797 472.182093 
Q 289.191797 472.182093 289.191797 456.982093 
L 289.191797 462.56928 
Q 289.191797 447.36928 273.991797 447.36928 
L 259.320235 447.36928 
Q 244.120235 447.36928 244.120235 462.56928 
L 244.120235 456.982093 
Q 244.120235 472.182093 259.320235 472.182093 
z
" style="fill: #ffffff; stroke: #002f2a; stroke-width: 1.5; stroke-linejoin: miter"/>
    </g>
    <text style="font-weight: 700; font-size: 19px; font-family: 'Poppins'; text-anchor: start; fill: #10302c" x="246.970235" y="464.27928" transform="rotate(-0 246.970235 464.27928)">    1    </text>
   </g>
   <g id="text_74">
    <text style="font-weight: 600; font-size: 22px; font-family: 'Poppins'; text-anchor: start; fill: #4c6a67" x="307.861023" y="465.010999" transform="rotate(-0 307.861023 465.010999)">1.1%</text>
   </g>
   <g id="text_75">
    <g id="patch_153">
     <path d="M 259.320235 500.202328 
L 273.991797 500.202328 
Q 289.191797 500.202328 289.191797 485.002328 
L 289.191797 490.589516 
Q 289.191797 475.389516 273.991797 475.389516 
L 259.320235 475.389516 
Q 244.120235 475.389516 244.120235 490.589516 
L 244.120235 485.002328 
Q 244.120235 500.202328 259.320235 500.202328 
z
" style="fill: #ffffff; stroke: #002f2a; stroke-width: 1.5; stroke-linejoin: miter"/>
    </g>
    <text style="font-weight: 700; font-size: 19px; font-family: 'Poppins'; text-anchor: start; fill: #10302c" x="246.970235" y="492.299516" transform="rotate(-0 246.970235 492.299516)">    1    </text>
   </g>
   <g id="text_76">
    <text style="font-weight: 600; font-size: 22px; font-family: 'Poppins'; text-anchor: start; fill: #4c6a67" x="307.861023" y="493.031234" transform="rotate(-0 307.861023 493.031234)">1.1%</text>
   </g>
   <g id="text_77">
    <g id="patch_154">
     <path d="M 259.320235 528.222563 
L 273.991797 528.222563 
Q 289.191797 528.222563 289.191797 513.022563 
L 289.191797 518.609751 
Q 289.191797 503.409751 273.991797 503.409751 
L 259.320235 503.409751 
Q 244.120235 503.409751 244.120235 518.609751 
L 244.120235 513.022563 
Q 244.120235 528.222563 259.320235 528.222563 
z
" style="fill: #ffffff; stroke: #002f2a; stroke-width: 1.5; stroke-linejoin: miter"/>
    </g>
    <text style="font-weight: 700; font-size: 19px; font-family: 'Poppins'; text-anchor: start; fill: #10302c" x="246.970235" y="520.319751" transform="rotate(-0 246.970235 520.319751)">    1    </text>
   </g>
   <g id="text_78">
    <text style="font-weight: 600; font-size: 22px; font-family: 'Poppins'; text-anchor: start; fill: #4c6a67" x="307.861023" y="521.05147" transform="rotate(-0 307.861023 521.05147)">1.1%</text>
   </g>
   <g id="text_79">
    <g id="patch_155">
     <path d="M 259.320235 556.242799 
L 273.991797 556.242799 
Q 289.191797 556.242799 289.191797 541.042799 
L 289.191797 546.629986 
Q 289.191797 531.429986 273.991797 531.429986 
L 259.320235 531.429986 
Q 244.120235 531.429986 244.120235 546.629986 
L 244.120235 541.042799 
Q 244.120235 556.242799 259.320235 556.242799 
z
" style="fill: #ffffff; stroke: #002f2a; stroke-width: 1.5; stroke-linejoin: miter"/>
    </g>
    <text style="font-weight: 700; font-size: 19px; font-family: 'Poppins'; text-anchor: start; fill: #10302c" x="246.970235" y="548.339986" transform="rotate(-0 246.970235 548.339986)">    1    </text>
   </g>
   <g id="text_80">
    <text style="font-weight: 600; font-size: 22px; font-family: 'Poppins'; text-anchor: start; fill: #4c6a67" x="307.861023" y="549.071705" transform="rotate(-0 307.861023 549.071705)">1.1%</text>
   </g>
   <g id="text_81">
    <g id="patch_156">
     <path d="M 247.063635 584.263034 
L 266.980978 584.263034 
Q 282.180978 584.263034 282.180978 569.063034 
L 282.180978 574.650221 
Q 282.180978 559.450221 266.980978 559.450221 
L 247.063635 559.450221 
Q 231.863635 559.450221 231.863635 574.650221 
L 231.863635 569.063034 
Q 231.863635 584.263034 247.063635 584.263034 
z
" style="fill: #ffffff; stroke: #002f2a; stroke-width: 1.5; stroke-linejoin: miter"/>
    </g>
    <text style="font-weight: 700; font-size: 19px; font-family: 'Poppins'; text-anchor: start; fill: #10302c" x="234.713635" y="576.360221" transform="rotate(-0 234.713635 576.360221)">    0    </text>
   </g>
   <g id="text_82">
    <text style="font-weight: 600; font-size: 22px; font-family: 'Poppins'; text-anchor: start; fill: #4c6a67" x="295.604423" y="577.09194" transform="rotate(-0 295.604423 577.09194)">0.0%</text>
   </g>
   <g id="text_83">
    <g id="patch_157">
     <path d="M 247.063635 612.283269 
L 266.980978 612.283269 
Q 282.180978 612.283269 282.180978 597.083269 
L 282.180978 602.670457 
Q 282.180978 587.470457 266.980978 587.470457 
L 247.063635 587.470457 
Q 231.863635 587.470457 231.863635 602.670457 
L 231.863635 597.083269 
Q 231.863635 612.283269 247.063635 612.283269 
z
" style="fill: #ffffff; stroke: #002f2a; stroke-width: 1.5; stroke-linejoin: miter"/>
    </g>
    <text style="font-weight: 700; font-size: 19px; font-family: 'Poppins'; text-anchor: start; fill: #10302c" x="234.713635" y="604.380457" transform="rotate(-0 234.713635 604.380457)">    0    </text>
   </g>
   <g id="text_84">
    <text style="font-weight: 600; font-size: 22px; font-family: 'Poppins'; text-anchor: start; fill: #4c6a67" x="295.604423" y="605.112175" transform="rotate(-0 295.604423 605.112175)">0.0%</text>
   </g>
   <g id="text_85">
    <g id="patch_158">
     <path d="M 247.063635 640.303504 
L 266.980978 640.303504 
Q 282.180978 640.303504 282.180978 625.103504 
L 282.180978 630.690692 
Q 282.180978 615.490692 266.980978 615.490692 
L 247.063635 615.490692 
Q 231.863635 615.490692 231.863635 630.690692 
L 231.863635 625.103504 
Q 231.863635 640.303504 247.063635 640.303504 
z
" style="fill: #ffffff; stroke: #002f2a; stroke-width: 1.5; stroke-linejoin: miter"/>
    </g>
    <text style="font-weight: 700; font-size: 19px; font-family: 'Poppins'; text-anchor: start; fill: #10302c" x="234.713635" y="632.400692" transform="rotate(-0 234.713635 632.400692)">    0    </text>
   </g>
   <g id="text_86">
    <text style="font-weight: 600; font-size: 22px; font-family: 'Poppins'; text-anchor: start; fill: #4c6a67" x="295.604423" y="633.132411" transform="rotate(-0 295.604423 633.132411)">0.0%</text>
   </g>
   <g id="text_87">
    <g id="patch_159">
     <path d="M 247.063635 668.32374 
L 266.980978 668.32374 
Q 282.180978 668.32374 282.180978 653.12374 
L 282.180978 658.710927 
Q 282.180978 643.510927 266.980978 643.510927 
L 247.063635 643.510927 
Q 231.863635 643.510927 231.863635 658.710927 
L 231.863635 653.12374 
Q 231.863635 668.32374 247.063635 668.32374 
z
" style="fill: #ffffff; stroke: #002f2a; stroke-width: 1.5; stroke-linejoin: miter"/>
    </g>
    <text style="font-weight: 700; font-size: 19px; font-family: 'Poppins'; text-anchor: start; fill: #10302c" x="234.713635" y="660.420927" transform="rotate(-0 234.713635 660.420927)">    0    </text>
   </g>
   <g id="text_88">
    <text style="font-weight: 600; font-size: 22px; font-family: 'Poppins'; text-anchor: start; fill: #4c6a67" x="295.604423" y="661.152646" transform="rotate(-0 295.604423 661.152646)">0.0%</text>
   </g>
   <g id="text_89">
    <g id="patch_160">
     <path d="M 247.063635 696.343975 
L 266.980978 696.343975 
Q 282.180978 696.343975 282.180978 681.143975 
L 282.180978 686.731163 
Q 282.180978 671.531163 266.980978 671.531163 
L 247.063635 671.531163 
Q 231.863635 671.531163 231.863635 686.731163 
L 231.863635 681.143975 
Q 231.863635 696.343975 247.063635 696.343975 
z
" style="fill: #ffffff; stroke: #002f2a; stroke-width: 1.5; stroke-linejoin: miter"/>
    </g>
    <text style="font-weight: 700; font-size: 19px; font-family: 'Poppins'; text-anchor: start; fill: #10302c" x="234.713635" y="688.441163" transform="rotate(-0 234.713635 688.441163)">    0    </text>
   </g>
   <g id="text_90">
    <text style="font-weight: 600; font-size: 22px; font-family: 'Poppins'; text-anchor: start; fill: #4c6a67" x="295.604423" y="689.172881" transform="rotate(-0 295.604423 689.172881)">0.0%</text>
   </g>
   <g id="text_91">
    <g id="patch_161">
     <path d="M 247.063635 724.36421 
L 266.980978 724.36421 
Q 282.180978 724.36421 282.180978 709.16421 
L 282.180978 714.751398 
Q 282.180978 699.551398 266.980978 699.551398 
L 247.063635 699.551398 
Q 231.863635 699.551398 231.863635 714.751398 
L 231.863635 709.16421 
Q 231.863635 724.36421 247.063635 724.36421 
z
" style="fill: #ffffff; stroke: #002f2a; stroke-width: 1.5; stroke-linejoin: miter"/>
    </g>
    <text style="font-weight: 700; font-size: 19px; font-family: 'Poppins'; text-anchor: start; fill: #10302c" x="234.713635" y="716.461398" transform="rotate(-0 234.713635 716.461398)">    0    </text>
   </g>
   <g id="text_92">
    <text style="font-weight: 600; font-size: 22px; font-family: 'Poppins'; text-anchor: start; fill: #4c6a67" x="295.604423" y="717.193117" transform="rotate(-0 295.604423 717.193117)">0.0%</text>
   </g>
   <g id="text_93">
    <g id="patch_162">
     <path d="M 247.063635 752.384446 
L 266.980978 752.384446 
Q 282.180978 752.384446 282.180978 737.184446 
L 282.180978 742.771633 
Q 282.180978 727.571633 266.980978 727.571633 
L 247.063635 727.571633 
Q 231.863635 727.571633 231.863635 742.771633 
L 231.863635 737.184446 
Q 231.863635 752.384446 247.063635 752.384446 
z
" style="fill: #ffffff; stroke: #002f2a; stroke-width: 1.5; stroke-linejoin: miter"/>
    </g>
    <text style="font-weight: 700; font-size: 19px; font-family: 'Poppins'; text-anchor: start; fill: #10302c" x="234.713635" y="744.481633" transform="rotate(-0 234.713635 744.481633)">    0    </text>
   </g>
   <g id="text_94">
    <text style="font-weight: 600; font-size: 22px; font-family: 'Poppins'; text-anchor: start; fill: #4c6a67" x="295.604423" y="745.213352" transform="rotate(-0 295.604423 745.213352)">0.0%</text>
   </g>
   <g id="text_95">
    <g id="patch_163">
     <path d="M 247.063635 780.404681 
L 266.980978 780.404681 
Q 282.180978 780.404681 282.180978 765.204681 
L 282.180978 770.791868 
Q 282.180978 755.591868 266.980978 755.591868 
L 247.063635 755.591868 
Q 231.863635 755.591868 231.863635 770.791868 
L 231.863635 765.204681 
Q 231.863635 780.404681 247.063635 780.404681 
z
" style="fill: #ffffff; stroke: #002f2a; stroke-width: 1.5; stroke-linejoin: miter"/>
    </g>
    <text style="font-weight: 700; font-size: 19px; font-family: 'Poppins'; text-anchor: start; fill: #10302c" x="234.713635" y="772.501868" transform="rotate(-0 234.713635 772.501868)">    0    </text>
   </g>
   <g id="text_96">
    <text style="font-weight: 600; font-size: 22px; font-family: 'Poppins'; text-anchor: start; fill: #4c6a67" x="295.604423" y="773.233587" transform="rotate(-0 295.604423 773.233587)">0.0%</text>
   </g>
   <g id="text_97">
    <g id="patch_164">
     <path d="M 247.063635 808.424916 
L 266.980978 808.424916 
Q 282.180978 808.424916 282.180978 793.224916 
L 282.180978 798.812104 
Q 282.180978 783.612104 266.980978 783.612104 
L 247.063635 783.612104 
Q 231.863635 783.612104 231.863635 798.812104 
L 231.863635 793.224916 
Q 231.863635 808.424916 247.063635 808.424916 
z
" style="fill: #ffffff; stroke: #002f2a; stroke-width: 1.5; stroke-linejoin: miter"/>
    </g>
    <text style="font-weight: 700; font-size: 19px; font-family: 'Poppins'; text-anchor: start; fill: #10302c" x="234.713635" y="800.522104" transform="rotate(-0 234.713635 800.522104)">    0    </text>
   </g>
   <g id="text_98">
    <text style="font-weight: 600; font-size: 22px; font-family: 'Poppins'; text-anchor: start; fill: #4c6a67" x="295.604423" y="801.253823" transform="rotate(-0 295.604423 801.253823)">0.0%</text>
   </g>
   <g id="text_99">
    <g id="patch_165">
     <path d="M 247.063635 836.445152 
L 266.980978 836.445152 
Q 282.180978 836.445152 282.180978 821.245152 
L 282.180978 826.832339 
Q 282.180978 811.632339 266.980978 811.632339 
L 247.063635 811.632339 
Q 231.863635 811.632339 231.863635 826.832339 
L 231.863635 821.245152 
Q 231.863635 836.445152 247.063635 836.445152 
z
" style="fill: #ffffff; stroke: #002f2a; stroke-width: 1.5; stroke-linejoin: miter"/>
    </g>
    <text style="font-weight: 700; font-size: 19px; font-family: 'Poppins'; text-anchor: start; fill: #10302c" x="234.713635" y="828.542339" transform="rotate(-0 234.713635 828.542339)">    0    </text>
   </g>
   <g id="text_100">
    <text style="font-weight: 600; font-size: 22px; font-family: 'Poppins'; text-anchor: start; fill: #4c6a67" x="295.604423" y="829.274058" transform="rotate(-0 295.604423 829.274058)">0.0%</text>
   </g>
   <g id="text_101">
    <g id="patch_166">
     <path d="M 247.063635 864.465387 
L 266.980978 864.465387 
Q 282.180978 864.465387 282.180978 849.265387 
L 282.180978 854.852574 
Q 282.180978 839.652574 266.980978 839.652574 
L 247.063635 839.652574 
Q 231.863635 839.652574 231.863635 854.852574 
L 231.863635 849.265387 
Q 231.863635 864.465387 247.063635 864.465387 
z
" style="fill: #ffffff; stroke: #002f2a; stroke-width: 1.5; stroke-linejoin: miter"/>
    </g>
    <text style="font-weight: 700; font-size: 19px; font-family: 'Poppins'; text-anchor: start; fill: #10302c" x="234.713635" y="856.562574" transform="rotate(-0 234.713635 856.562574)">    0    </text>
   </g>
   <g id="text_102">
    <text style="font-weight: 600; font-size: 22px; font-family: 'Poppins'; text-anchor: start; fill: #4c6a67" x="295.604423" y="857.294293" transform="rotate(-0 295.604423 857.294293)">0.0%</text>
   </g>
   <g id="text_103">
    <g id="patch_167">
     <path d="M 247.063635 892.485622 
L 266.980978 892.485622 
Q 282.180978 892.485622 282.180978 877.285622 
L 282.180978 882.87281 
Q 282.180978 867.67281 266.980978 867.67281 
L 247.063635 867.67281 
Q 231.863635 867.67281 231.863635 882.87281 
L 231.863635 877.285622 
Q 231.863635 892.485622 247.063635 892.485622 
z
" style="fill: #ffffff; stroke: #002f2a; stroke-width: 1.5; stroke-linejoin: miter"/>
    </g>
    <text style="font-weight: 700; font-size: 19px; font-family: 'Poppins'; text-anchor: start; fill: #10302c" x="234.713635" y="884.58281" transform="rotate(-0 234.713635 884.58281)">    0    </text>
   </g>
   <g id="text_104">
    <text style="font-weight: 600; font-size: 22px; font-family: 'Poppins'; text-anchor: start; fill: #4c6a67" x="295.604423" y="885.314528" transform="rotate(-0 295.604423 885.314528)">0.0%</text>
   </g>
   <g id="text_105">
    <g id="patch_168">
     <path d="M 247.063635 920.505857 
L 266.980978 920.505857 
Q 282.180978 920.505857 282.180978 905.305857 
L 282.180978 910.893045 
Q 282.180978 895.693045 266.980978 895.693045 
L 247.063635 895.693045 
Q 231.863635 895.693045 231.863635 910.893045 
L 231.863635 905.305857 
Q 231.863635 920.505857 247.063635 920.505857 
z
" style="fill: #ffffff; stroke: #002f2a; stroke-width: 1.5; stroke-linejoin: miter"/>
    </g>
    <text style="font-weight: 700; font-size: 19px; font-family: 'Poppins'; text-anchor: start; fill: #10302c" x="234.713635" y="912.603045" transform="rotate(-0 234.713635 912.603045)">    0    </text>
   </g>
   <g id="text_106">
    <text style="font-weight: 600; font-size: 22px; font-family: 'Poppins'; text-anchor: start; fill: #4c6a67" x="295.604423" y="913.334764" transform="rotate(-0 295.604423 913.334764)">0.0%</text>
   </g>
   <g id="text_107">
    <g id="patch_169">
     <path d="M 247.063635 948.526093 
L 266.980978 948.526093 
Q 282.180978 948.526093 282.180978 933.326093 
L 282.180978 938.91328 
Q 282.180978 923.71328 266.980978 923.71328 
L 247.063635 923.71328 
Q 231.863635 923.71328 231.863635 938.91328 
L 231.863635 933.326093 
Q 231.863635 948.526093 247.063635 948.526093 
z
" style="fill: #ffffff; stroke: #002f2a; stroke-width: 1.5; stroke-linejoin: miter"/>
    </g>
    <text style="font-weight: 700; font-size: 19px; font-family: 'Poppins'; text-anchor: start; fill: #10302c" x="234.713635" y="940.62328" transform="rotate(-0 234.713635 940.62328)">    0    </text>
   </g>
   <g id="text_108">
    <text style="font-weight: 600; font-size: 22px; font-family: 'Poppins'; text-anchor: start; fill: #4c6a67" x="295.604423" y="941.354999" transform="rotate(-0 295.604423 941.354999)">0.0%</text>
   </g>
   <g id="text_109">
    <g id="patch_170">
     <path d="M 247.063635 976.546328 
L 266.980978 976.546328 
Q 282.180978 976.546328 282.180978 961.346328 
L 282.180978 966.933516 
Q 282.180978 951.733516 266.980978 951.733516 
L 247.063635 951.733516 
Q 231.863635 951.733516 231.863635 966.933516 
L 231.863635 961.346328 
Q 231.863635 976.546328 247.063635 976.546328 
z
" style="fill: #ffffff; stroke: #002f2a; stroke-width: 1.5; stroke-linejoin: miter"/>
    </g>
    <text style="font-weight: 700; font-size: 19px; font-family: 'Poppins'; text-anchor: start; fill: #10302c" x="234.713635" y="968.643516" transform="rotate(-0 234.713635 968.643516)">    0    </text>
   </g>
   <g id="text_110">
    <text style="font-weight: 600; font-size: 22px; font-family: 'Poppins'; text-anchor: start; fill: #4c6a67" x="295.604423" y="969.375234" transform="rotate(-0 295.604423 969.375234)">0.0%</text>
   </g>
   <g id="text_111">
    <g id="patch_171">
     <path d="M 247.063635 1004.566563 
L 266.980978 1004.566563 
Q 282.180978 1004.566563 282.180978 989.366563 
L 282.180978 994.953751 
Q 282.180978 979.753751 266.980978 979.753751 
L 247.063635 979.753751 
Q 231.863635 979.753751 231.863635 994.953751 
L 231.863635 989.366563 
Q 231.863635 1004.566563 247.063635 1004.566563 
z
" style="fill: #ffffff; stroke: #002f2a; stroke-width: 1.5; stroke-linejoin: miter"/>
    </g>
    <text style="font-weight: 700; font-size: 19px; font-family: 'Poppins'; text-anchor: start; fill: #10302c" x="234.713635" y="996.663751" transform="rotate(-0 234.713635 996.663751)">    0    </text>
   </g>
   <g id="text_112">
    <text style="font-weight: 600; font-size: 22px; font-family: 'Poppins'; text-anchor: start; fill: #4c6a67" x="295.604423" y="997.39547" transform="rotate(-0 295.604423 997.39547)">0.0%</text>
   </g>
   <g id="text_113">
    <g id="patch_172">
     <path d="M 247.063635 1032.586799 
L 266.980978 1032.586799 
Q 282.180978 1032.586799 282.180978 1017.386799 
L 282.180978 1022.973986 
Q 282.180978 1007.773986 266.980978 1007.773986 
L 247.063635 1007.773986 
Q 231.863635 1007.773986 231.863635 1022.973986 
L 231.863635 1017.386799 
Q 231.863635 1032.586799 247.063635 1032.586799 
z
" style="fill: #ffffff; stroke: #002f2a; stroke-width: 1.5; stroke-linejoin: miter"/>
    </g>
    <text style="font-weight: 700; font-size: 19px; font-family: 'Poppins'; text-anchor: start; fill: #10302c" x="234.713635" y="1024.683986" transform="rotate(-0 234.713635 1024.683986)">    0    </text>
   </g>
   <g id="text_114">
    <text style="font-weight: 600; font-size: 22px; font-family: 'Poppins'; text-anchor: start; fill: #4c6a67" x="295.604423" y="1025.415705" transform="rotate(-0 295.604423 1025.415705)">0.0%</text>
   </g>
   <g id="legend_1">
    <g id="patch_173">
     <path d="M 114.397312 34.56 
L 162.397312 34.56 
L 162.397312 17.76 
L 114.397312 17.76 
z
" style="fill: #10302c"/>
    </g>
    <g id="text_115">
     <text style="font-weight: 500; font-size: 24px; font-family: 'Poppins'; text-anchor: start; fill: #767676" x="181.597312" y="34.56" transform="rotate(-0 181.597312 34.56)">Enero</text>
    </g>
    <g id="patch_174">
     <path d="M 297.089812 34.56 
L 345.089812 34.56 
L 345.089812 17.76 
L 297.089812 17.76 
z
" style="fill: #4c6a67"/>
    </g>
    <g id="text_116">
     <text style="font-weight: 500; font-size: 24px; font-family: 'Poppins'; text-anchor: start; fill: #767676" x="364.289812" y="34.56" transform="rotate(-0 364.289812 34.56)">Febrero</text>
    </g>
    <g id="patch_175">
     <path d="M 504.284812 34.56 
L 552.284812 34.56 
L 552.284812 17.76 
L 504.284812 17.76 
z
" style="fill: #8fa8a6"/>
    </g>
    <g id="text_117">
     <text style="font-weight: 500; font-size: 24px; font-family: 'Poppins'; text-anchor: start; fill: #767676" x="571.484812" y="34.56" transform="rotate(-0 571.484812 34.56)">Marzo</text>
    </g>
    <g id="patch_176">
     <path d="M 692.756062 34.56 
L 740.756062 34.56 
L 740.756062 17.76 
L 692.756062 17.76 
z
" style="fill: #a3c9a8"/>
    </g>
    <g id="text_118">
     <text style="font-weight: 500; font-size: 24px; font-family: 'Poppins'; text-anchor: start; fill: #767676" x="759.956063" y="34.56" transform="rotate(-0 759.956063 34.56)">Abril</text>
    </g>
   </g>
  </g>
 </g>
 <defs>
  <clipPath id="p9f7c213560">
   <rect x="219.490938" y="81.50251" width="612.83" height="952.688"/>
  </clipPath>
 </defs>
</svg>
