<?xml version="1.0" encoding="utf-8" standalone="no"?>
<!DOCTYPE svg PUBLIC "-//W3C//DTD SVG 1.1//EN"
  "http://www.w3.org/Graphics/SVG/1.1/DTD/svg11.dtd">
<svg xmlns:xlink="http://www.w3.org/1999/xlink" width="1767.223437pt" height="570.121759pt" viewBox="0 0 1767.223437 570.121759" xmlns="http://www.w3.org/2000/svg" version="1.1">
 <metadata>
  <rdf:RDF xmlns:dc="http://purl.org/dc/elements/1.1/" xmlns:cc="http://creativecommons.org/ns#" xmlns:rdf="http://www.w3.org/1999/02/22-rdf-syntax-ns#">
   <cc:Work>
    <dc:type rdf:resource="http://purl.org/dc/dcmitype/StillImage"/>
    <dc:date>2025-06-03T18:06:11.850923</dc:date>
    <dc:format>image/svg+xml</dc:format>
    <dc:creator>
     <cc:Agent>
      <dc:title>Matplotlib v3.10.1, https://matplotlib.org/</dc:title>
     </cc:Agent>
    </dc:creator>
   </cc:Work>
  </rdf:RDF>
 </metadata>
 <defs>
  <style type="text/css">*{stroke-linejoin: round; stroke-linecap: butt}</style>
 </defs>
 <g id="figure_1">
  <g id="patch_1">
   <path d="M -0 570.121759 
L 1767.223437 570.121759 
L 1767.223437 0 
L -0 0 
z
" style="fill: #ffffff"/>
  </g>
  <g id="axes_1">
   <g id="patch_2">
    <path d="M 86.033438 492.117072 
L 1760.023438 492.117072 
L 1760.023438 32.008672 
L 86.033438 32.008672 
z
" style="fill: #ffffff"/>
   </g>
   <g id="matplotlib.axis_1">
    <g id="xtick_1">
     <g id="line2d_1">
      <defs>
       <path id="m004fe5a726" d="M 0 0 
L 0 3.5 
" style="stroke: #000000; stroke-width: 0.8"/>
      </defs>
      <g>
       <use xlink:href="#m004fe5a726" x="130.085806" y="492.117072" style="stroke: #000000; stroke-width: 0.8"/>
      </g>
     </g>
     <g id="text_1">
      <text style="font-weight: 500; font-size: 25px; font-family: 'Montserrat'" transform="translate(125.234243 561.769416) rotate(-90)">2007</text>
     </g>
    </g>
    <g id="xtick_2">
     <g id="line2d_2">
      <g>
       <use xlink:href="#m004fe5a726" x="218.190543" y="492.117072" style="stroke: #000000; stroke-width: 0.8"/>
      </g>
     </g>
     <g id="text_2">
      <text style="font-weight: 500; font-size: 25px; font-family: 'Montserrat'" transform="translate(213.33898 562.921759) rotate(-90)">2008</text>
     </g>
    </g>
    <g id="xtick_3">
     <g id="line2d_3">
      <g>
       <use xlink:href="#m004fe5a726" x="306.29528" y="492.117072" style="stroke: #000000; stroke-width: 0.8"/>
      </g>
     </g>
     <g id="text_3">
      <text style="font-weight: 500; font-size: 25px; font-family: 'Montserrat'" transform="translate(301.443717 562.245978) rotate(-90)">2009</text>
     </g>
    </g>
    <g id="xtick_4">
     <g id="line2d_4">
      <g>
       <use xlink:href="#m004fe5a726" x="394.400016" y="492.117072" style="stroke: #000000; stroke-width: 0.8"/>
      </g>
     </g>
     <g id="text_4">
      <text style="font-weight: 500; font-size: 25px; font-family: 'Montserrat'" transform="translate(389.548454 556.070197) rotate(-90)">2010</text>
     </g>
    </g>
    <g id="xtick_5">
     <g id="line2d_5">
      <g>
       <use xlink:href="#m004fe5a726" x="482.504753" y="492.117072" style="stroke: #000000; stroke-width: 0.8"/>
      </g>
     </g>
     <g id="text_5">
      <text style="font-weight: 500; font-size: 25px; font-family: 'Montserrat'" transform="translate(477.653191 548.644416) rotate(-90)">2011</text>
     </g>
    </g>
    <g id="xtick_6">
     <g id="line2d_6">
      <g>
       <use xlink:href="#m004fe5a726" x="570.60949" y="492.117072" style="stroke: #000000; stroke-width: 0.8"/>
      </g>
     </g>
     <g id="text_6">
      <text style="font-weight: 500; font-size: 25px; font-family: 'Montserrat'" transform="translate(565.757928 553.745978) rotate(-90)">2012</text>
     </g>
    </g>
    <g id="xtick_7">
     <g id="line2d_7">
      <g>
       <use xlink:href="#m004fe5a726" x="658.714227" y="492.117072" style="stroke: #000000; stroke-width: 0.8"/>
      </g>
     </g>
     <g id="text_7">
      <text style="font-weight: 500; font-size: 25px; font-family: 'Montserrat'" transform="translate(653.862664 553.695197) rotate(-90)">2013</text>
     </g>
    </g>
    <g id="xtick_8">
     <g id="line2d_8">
      <g>
       <use xlink:href="#m004fe5a726" x="746.818964" y="492.117072" style="stroke: #000000; stroke-width: 0.8"/>
      </g>
     </g>
     <g id="text_8">
      <text style="font-weight: 500; font-size: 25px; font-family: 'Montserrat'" transform="translate(741.967401 556.120978) rotate(-90)">2014</text>
     </g>
    </g>
    <g id="xtick_9">
     <g id="line2d_9">
      <g>
       <use xlink:href="#m004fe5a726" x="834.923701" y="492.117072" style="stroke: #000000; stroke-width: 0.8"/>
      </g>
     </g>
     <g id="text_9">
      <text style="font-weight: 500; font-size: 25px; font-family: 'Montserrat'" transform="translate(830.072138 553.745978) rotate(-90)">2015</text>
     </g>
    </g>
    <g id="xtick_10">
     <g id="line2d_10">
      <g>
       <use xlink:href="#m004fe5a726" x="923.028437" y="492.117072" style="stroke: #000000; stroke-width: 0.8"/>
      </g>
     </g>
     <g id="text_10">
      <text style="font-weight: 500; font-size: 25px; font-family: 'Montserrat'" transform="translate(918.176875 554.820197) rotate(-90)">2016</text>
     </g>
    </g>
    <g id="xtick_11">
     <g id="line2d_11">
      <g>
       <use xlink:href="#m004fe5a726" x="1011.133174" y="492.117072" style="stroke: #000000; stroke-width: 0.8"/>
      </g>
     </g>
     <g id="text_11">
      <text style="font-weight: 500; font-size: 25px; font-family: 'Montserrat'" transform="translate(1006.281612 554.343634) rotate(-90)">2017</text>
     </g>
    </g>
    <g id="xtick_12">
     <g id="line2d_12">
      <g>
       <use xlink:href="#m004fe5a726" x="1099.237911" y="492.117072" style="stroke: #000000; stroke-width: 0.8"/>
      </g>
     </g>
     <g id="text_12">
      <text style="font-weight: 500; font-size: 25px; font-family: 'Montserrat'" transform="translate(1094.386349 555.495978) rotate(-90)">2018</text>
     </g>
    </g>
    <g id="xtick_13">
     <g id="line2d_13">
      <g>
       <use xlink:href="#m004fe5a726" x="1187.342648" y="492.117072" style="stroke: #000000; stroke-width: 0.8"/>
      </g>
     </g>
     <g id="text_13">
      <text style="font-weight: 500; font-size: 25px; font-family: 'Montserrat'" transform="translate(1182.491086 554.820197) rotate(-90)">2019</text>
     </g>
    </g>
    <g id="xtick_14">
     <g id="line2d_14">
      <g>
       <use xlink:href="#m004fe5a726" x="1275.447385" y="492.117072" style="stroke: #000000; stroke-width: 0.8"/>
      </g>
     </g>
     <g id="text_14">
      <text style="font-weight: 500; font-size: 25px; font-family: 'Montserrat'" transform="translate(1270.595822 561.171759) rotate(-90)">2020</text>
     </g>
    </g>
    <g id="xtick_15">
     <g id="line2d_15">
      <g>
       <use xlink:href="#m004fe5a726" x="1363.552122" y="492.117072" style="stroke: #000000; stroke-width: 0.8"/>
      </g>
     </g>
     <g id="text_15">
      <text style="font-weight: 500; font-size: 25px; font-family: 'Montserrat'" transform="translate(1358.700559 553.745978) rotate(-90)">2021</text>
     </g>
    </g>
    <g id="xtick_16">
     <g id="line2d_16">
      <g>
       <use xlink:href="#m004fe5a726" x="1451.656859" y="492.117072" style="stroke: #000000; stroke-width: 0.8"/>
      </g>
     </g>
     <g id="text_16">
      <text style="font-weight: 500; font-size: 25px; font-family: 'Montserrat'" transform="translate(1446.805296 558.847541) rotate(-90)">2022</text>
     </g>
    </g>
    <g id="xtick_17">
     <g id="line2d_17">
      <g>
       <use xlink:href="#m004fe5a726" x="1539.761595" y="492.117072" style="stroke: #000000; stroke-width: 0.8"/>
      </g>
     </g>
     <g id="text_17">
      <text style="font-weight: 500; font-size: 25px; font-family: 'Montserrat'" transform="translate(1534.910033 558.796759) rotate(-90)">2023</text>
     </g>
    </g>
    <g id="xtick_18">
     <g id="line2d_18">
      <g>
       <use xlink:href="#m004fe5a726" x="1627.866332" y="492.117072" style="stroke: #000000; stroke-width: 0.8"/>
      </g>
     </g>
     <g id="text_18">
      <text style="font-weight: 500; font-size: 25px; font-family: 'Montserrat'" transform="translate(1623.01477 561.222541) rotate(-90)">2024</text>
     </g>
    </g>
    <g id="xtick_19">
     <g id="line2d_19">
      <g>
       <use xlink:href="#m004fe5a726" x="1715.971069" y="492.117072" style="stroke: #000000; stroke-width: 0.8"/>
      </g>
     </g>
     <g id="text_19">
      <text style="font-weight: 500; font-size: 25px; font-family: 'Montserrat'" transform="translate(1711.119507 558.847541) rotate(-90)">2025</text>
     </g>
    </g>
   </g>
   <g id="matplotlib.axis_2">
    <g id="ytick_1">
     <g id="line2d_20">
      <path d="M 86.033438 492.117072 
L 1760.023438 492.117072 
" clip-path="url(#p1ea20f568f)" style="fill: none; stroke: #b9b9b9; stroke-width: 0.75; stroke-linecap: square"/>
     </g>
     <g id="line2d_21">
      <defs>
       <path id="m0812ddd2c7" d="M 0 0 
L -3.5 0 
" style="stroke: #000000; stroke-width: 0.8"/>
      </defs>
      <g>
       <use xlink:href="#m0812ddd2c7" x="86.033438" y="492.117072" style="stroke: #000000; stroke-width: 0.8"/>
      </g>
     </g>
     <g id="text_20">
      <text style="font-weight: 500; font-size: 22px; font-family: 'Montserrat'; text-anchor: end" x="79.033438" y="500.279416" transform="rotate(-0 79.033438 500.279416)">0</text>
     </g>
    </g>
    <g id="ytick_2">
     <g id="line2d_22">
      <path d="M 86.033438 411.082861 
L 1760.023438 411.082861 
" clip-path="url(#p1ea20f568f)" style="fill: none; stroke: #b9b9b9; stroke-width: 0.75; stroke-linecap: square"/>
     </g>
     <g id="line2d_23">
      <g>
       <use xlink:href="#m0812ddd2c7" x="86.033438" y="411.082861" style="stroke: #000000; stroke-width: 0.8"/>
      </g>
     </g>
     <g id="text_21">
      <text style="font-weight: 500; font-size: 22px; font-family: 'Montserrat'; text-anchor: end" x="79.033438" y="419.245205" transform="rotate(-0 79.033438 419.245205)">2,000</text>
     </g>
    </g>
    <g id="ytick_3">
     <g id="line2d_24">
      <path d="M 86.033438 330.04865 
L 1760.023438 330.04865 
" clip-path="url(#p1ea20f568f)" style="fill: none; stroke: #b9b9b9; stroke-width: 0.75; stroke-linecap: square"/>
     </g>
     <g id="line2d_25">
      <g>
       <use xlink:href="#m0812ddd2c7" x="86.033438" y="330.04865" style="stroke: #000000; stroke-width: 0.8"/>
      </g>
     </g>
     <g id="text_22">
      <text style="font-weight: 500; font-size: 22px; font-family: 'Montserrat'; text-anchor: end" x="79.033438" y="338.210994" transform="rotate(-0 79.033438 338.210994)">4,000</text>
     </g>
    </g>
    <g id="ytick_4">
     <g id="line2d_26">
      <path d="M 86.033438 249.014439 
L 1760.023438 249.014439 
" clip-path="url(#p1ea20f568f)" style="fill: none; stroke: #b9b9b9; stroke-width: 0.75; stroke-linecap: square"/>
     </g>
     <g id="line2d_27">
      <g>
       <use xlink:href="#m0812ddd2c7" x="86.033438" y="249.014439" style="stroke: #000000; stroke-width: 0.8"/>
      </g>
     </g>
     <g id="text_23">
      <text style="font-weight: 500; font-size: 22px; font-family: 'Montserrat'; text-anchor: end" x="79.033438" y="257.176783" transform="rotate(-0 79.033438 257.176783)">6,000</text>
     </g>
    </g>
    <g id="ytick_5">
     <g id="line2d_28">
      <path d="M 86.033438 167.980229 
L 1760.023438 167.980229 
" clip-path="url(#p1ea20f568f)" style="fill: none; stroke: #b9b9b9; stroke-width: 0.75; stroke-linecap: square"/>
     </g>
     <g id="line2d_29">
      <g>
       <use xlink:href="#m0812ddd2c7" x="86.033438" y="167.980229" style="stroke: #000000; stroke-width: 0.8"/>
      </g>
     </g>
     <g id="text_24">
      <text style="font-weight: 500; font-size: 22px; font-family: 'Montserrat'; text-anchor: end" x="79.033438" y="176.142572" transform="rotate(-0 79.033438 176.142572)">8,000</text>
     </g>
    </g>
    <g id="ytick_6">
     <g id="line2d_30">
      <path d="M 86.033438 86.946018 
L 1760.023438 86.946018 
" clip-path="url(#p1ea20f568f)" style="fill: none; stroke: #b9b9b9; stroke-width: 0.75; stroke-linecap: square"/>
     </g>
     <g id="line2d_31">
      <g>
       <use xlink:href="#m0812ddd2c7" x="86.033438" y="86.946018" style="stroke: #000000; stroke-width: 0.8"/>
      </g>
     </g>
     <g id="text_25">
      <text style="font-weight: 500; font-size: 22px; font-family: 'Montserrat'; text-anchor: end" x="79.033438" y="95.108362" transform="rotate(-0 79.033438 95.108362)">10,000</text>
     </g>
    </g>
   </g>
   <g id="patch_3">
    <path d="M 94.843911 492.117072 
L 165.327701 492.117072 
L 165.327701 485.067096 
L 94.843911 485.067096 
z
" clip-path="url(#p1ea20f568f)" style="fill: #10302c"/>
   </g>
   <g id="patch_4">
    <path d="M 94.843911 485.067096 
L 165.327701 485.067096 
L 165.327701 477.571431 
L 94.843911 477.571431 
z
" clip-path="url(#p1ea20f568f)" style="fill: #4c6a67"/>
   </g>
   <g id="patch_5">
    <path d="M 182.948648 492.117072 
L 253.432437 492.117072 
L 253.432437 482.636069 
L 182.948648 482.636069 
z
" clip-path="url(#p1ea20f568f)" style="fill: #10302c"/>
   </g>
   <g id="patch_6">
    <path d="M 182.948648 482.636069 
L 253.432437 482.636069 
L 253.432437 472.628344 
L 182.948648 472.628344 
z
" clip-path="url(#p1ea20f568f)" style="fill: #4c6a67"/>
   </g>
   <g id="patch_7">
    <path d="M 271.053385 492.117072 
L 341.537174 492.117072 
L 341.537174 475.424025 
L 271.053385 475.424025 
z
" clip-path="url(#p1ea20f568f)" style="fill: #10302c"/>
   </g>
   <g id="patch_8">
    <path d="M 271.053385 475.424025 
L 341.537174 475.424025 
L 341.537174 459.217182 
L 271.053385 459.217182 
z
" clip-path="url(#p1ea20f568f)" style="fill: #4c6a67"/>
   </g>
   <g id="patch_9">
    <path d="M 359.158122 492.117072 
L 429.641911 492.117072 
L 429.641911 457.596498 
L 359.158122 457.596498 
z
" clip-path="url(#p1ea20f568f)" style="fill: #10302c"/>
   </g>
   <g id="patch_10">
    <path d="M 359.158122 457.596498 
L 429.641911 457.596498 
L 429.641911 411.042344 
L 359.158122 411.042344 
z
" clip-path="url(#p1ea20f568f)" style="fill: #4c6a67"/>
   </g>
   <g id="patch_11">
    <path d="M 447.262859 492.117072 
L 517.746648 492.117072 
L 517.746648 458.285289 
L 447.262859 458.285289 
z
" clip-path="url(#p1ea20f568f)" style="fill: #10302c"/>
   </g>
   <g id="patch_12">
    <path d="M 447.262859 458.285289 
L 517.746648 458.285289 
L 517.746648 395.078605 
L 447.262859 395.078605 
z
" clip-path="url(#p1ea20f568f)" style="fill: #4c6a67"/>
   </g>
   <g id="patch_13">
    <path d="M 535.367595 492.117072 
L 605.851385 492.117072 
L 605.851385 464.56544 
L 535.367595 464.56544 
z
" clip-path="url(#p1ea20f568f)" style="fill: #10302c"/>
   </g>
   <g id="patch_14">
    <path d="M 535.367595 464.56544 
L 605.851385 464.56544 
L 605.851385 407.112185 
L 535.367595 407.112185 
z
" clip-path="url(#p1ea20f568f)" style="fill: #4c6a67"/>
   </g>
   <g id="patch_15">
    <path d="M 623.472332 492.117072 
L 693.956122 492.117072 
L 693.956122 457.15081 
L 623.472332 457.15081 
z
" clip-path="url(#p1ea20f568f)" style="fill: #10302c"/>
   </g>
   <g id="patch_16">
    <path d="M 623.472332 457.15081 
L 693.956122 457.15081 
L 693.956122 398.968247 
L 623.472332 398.968247 
z
" clip-path="url(#p1ea20f568f)" style="fill: #4c6a67"/>
   </g>
   <g id="patch_17">
    <path d="M 711.577069 492.117072 
L 782.060859 492.117072 
L 782.060859 456.907707 
L 711.577069 456.907707 
z
" clip-path="url(#p1ea20f568f)" style="fill: #10302c"/>
   </g>
   <g id="patch_18">
    <path d="M 711.577069 456.907707 
L 782.060859 456.907707 
L 782.060859 402.00703 
L 711.577069 402.00703 
z
" clip-path="url(#p1ea20f568f)" style="fill: #4c6a67"/>
   </g>
   <g id="patch_19">
    <path d="M 799.681806 492.117072 
L 870.165595 492.117072 
L 870.165595 460.149076 
L 799.681806 460.149076 
z
" clip-path="url(#p1ea20f568f)" style="fill: #10302c"/>
   </g>
   <g id="patch_20">
    <path d="M 799.681806 460.149076 
L 870.165595 460.149076 
L 870.165595 408.651835 
L 799.681806 408.651835 
z
" clip-path="url(#p1ea20f568f)" style="fill: #4c6a67"/>
   </g>
   <g id="patch_21">
    <path d="M 887.786543 492.117072 
L 958.270332 492.117072 
L 958.270332 452.81548 
L 887.786543 452.81548 
z
" clip-path="url(#p1ea20f568f)" style="fill: #10302c"/>
   </g>
   <g id="patch_22">
    <path d="M 887.786543 452.81548 
L 958.270332 452.81548 
L 958.270332 393.782057 
L 887.786543 393.782057 
z
" clip-path="url(#p1ea20f568f)" style="fill: #4c6a67"/>
   </g>
   <g id="patch_23">
    <path d="M 975.89128 492.117072 
L 1046.375069 492.117072 
L 1046.375069 448.763769 
L 975.89128 448.763769 
z
" clip-path="url(#p1ea20f568f)" style="fill: #10302c"/>
   </g>
   <g id="patch_24">
    <path d="M 975.89128 448.763769 
L 1046.375069 448.763769 
L 1046.375069 371.011444 
L 975.89128 371.011444 
z
" clip-path="url(#p1ea20f568f)" style="fill: #4c6a67"/>
   </g>
   <g id="patch_25">
    <path d="M 1063.996016 492.117072 
L 1134.479806 492.117072 
L 1134.479806 466.67233 
L 1063.996016 466.67233 
z
" clip-path="url(#p1ea20f568f)" style="fill: #10302c"/>
   </g>
   <g id="patch_26">
    <path d="M 1063.996016 466.67233 
L 1134.479806 466.67233 
L 1134.479806 393.863091 
L 1063.996016 393.863091 
z
" clip-path="url(#p1ea20f568f)" style="fill: #4c6a67"/>
   </g>
   <g id="patch_27">
    <path d="M 1152.100753 492.117072 
L 1222.584543 492.117072 
L 1222.584543 464.362855 
L 1152.100753 464.362855 
z
" clip-path="url(#p1ea20f568f)" style="fill: #10302c"/>
   </g>
   <g id="patch_28">
    <path d="M 1152.100753 464.362855 
L 1222.584543 464.362855 
L 1222.584543 372.226957 
L 1152.100753 372.226957 
z
" clip-path="url(#p1ea20f568f)" style="fill: #4c6a67"/>
   </g>
   <g id="patch_29">
    <path d="M 1240.20549 492.117072 
L 1310.68928 492.117072 
L 1310.68928 443.982751 
L 1240.20549 443.982751 
z
" clip-path="url(#p1ea20f568f)" style="fill: #10302c"/>
   </g>
   <g id="patch_30">
    <path d="M 1240.20549 443.982751 
L 1310.68928 443.982751 
L 1310.68928 336.815007 
L 1240.20549 336.815007 
z
" clip-path="url(#p1ea20f568f)" style="fill: #4c6a67"/>
   </g>
   <g id="patch_31">
    <path d="M 1328.310227 492.117072 
L 1398.794016 492.117072 
L 1398.794016 425.709536 
L 1328.310227 425.709536 
z
" clip-path="url(#p1ea20f568f)" style="fill: #10302c"/>
   </g>
   <g id="patch_32">
    <path d="M 1328.310227 425.709536 
L 1398.794016 425.709536 
L 1398.794016 299.417719 
L 1328.310227 299.417719 
z
" clip-path="url(#p1ea20f568f)" style="fill: #4c6a67"/>
   </g>
   <g id="patch_33">
    <path d="M 1416.414964 492.117072 
L 1486.898753 492.117072 
L 1486.898753 431.017277 
L 1416.414964 431.017277 
z
" clip-path="url(#p1ea20f568f)" style="fill: #10302c"/>
   </g>
   <g id="patch_34">
    <path d="M 1416.414964 431.017277 
L 1486.898753 431.017277 
L 1486.898753 315.381458 
L 1416.414964 315.381458 
z
" clip-path="url(#p1ea20f568f)" style="fill: #4c6a67"/>
   </g>
   <g id="patch_35">
    <path d="M 1504.519701 492.117072 
L 1575.00349 492.117072 
L 1575.00349 401.15617 
L 1504.519701 401.15617 
z
" clip-path="url(#p1ea20f568f)" style="fill: #10302c"/>
   </g>
   <g id="patch_36">
    <path d="M 1504.519701 401.15617 
L 1575.00349 401.15617 
L 1575.00349 245.08428 
L 1504.519701 245.08428 
z
" clip-path="url(#p1ea20f568f)" style="fill: #4c6a67"/>
   </g>
   <g id="patch_37">
    <path d="M 1592.624438 492.117072 
L 1663.108227 492.117072 
L 1663.108227 365.258015 
L 1592.624438 365.258015 
z
" clip-path="url(#p1ea20f568f)" style="fill: #10302c"/>
   </g>
   <g id="patch_38">
    <path d="M 1592.624438 365.258015 
L 1663.108227 365.258015 
L 1663.108227 128.395017 
L 1592.624438 128.395017 
z
" clip-path="url(#p1ea20f568f)" style="fill: #4c6a67"/>
   </g>
   <g id="patch_39">
    <path d="M 1680.729174 492.117072 
L 1751.212964 492.117072 
L 1751.212964 472.385242 
L 1680.729174 472.385242 
z
" clip-path="url(#p1ea20f568f)" style="fill: #10302c"/>
   </g>
   <g id="patch_40">
    <path d="M 1680.729174 472.385242 
L 1751.212964 472.385242 
L 1751.212964 310.519406 
L 1680.729174 310.519406 
z
" clip-path="url(#p1ea20f568f)" style="fill: #4c6a67"/>
   </g>
   <g id="text_26">
    <g id="patch_41">
     <path d="M 113.526431 468.02302 
L 146.645181 468.02302 
Q 162.645181 468.02302 162.645181 452.02302 
L 162.645181 459.301145 
Q 162.645181 443.301145 146.645181 443.301145 
L 113.526431 443.301145 
Q 97.526431 443.301145 97.526431 459.301145 
L 97.526431 452.02302 
Q 97.526431 468.02302 113.526431 468.02302 
z
" style="fill: #ffffff; stroke: #002f2a; stroke-width: 1.5; stroke-linejoin: miter"/>
    </g>
    <text style="font-weight: 700; font-size: 20px; font-family: 'Montserrat'; text-anchor: middle; fill: #10302c" x="130.085806" y="461.14177" transform="rotate(-0 130.085806 461.14177)">  359  </text>
   </g>
   <g id="text_27">
    <text style="font-weight: 600; font-size: 22px; font-family: 'Montserrat'; text-anchor: middle; fill: #4c6a67" x="130.085806" y="410.560002" transform="rotate(-0 130.085806 410.560002)">0.6%</text>
   </g>
   <g id="text_28">
    <g id="patch_42">
     <path d="M 202.460855 463.079933 
L 233.92023 463.079933 
Q 249.92023 463.079933 249.92023 447.079933 
L 249.92023 454.358058 
Q 249.92023 438.358058 233.92023 438.358058 
L 202.460855 438.358058 
Q 186.460855 438.358058 186.460855 454.358058 
L 186.460855 447.079933 
Q 186.460855 463.079933 202.460855 463.079933 
z
" style="fill: #ffffff; stroke: #002f2a; stroke-width: 1.5; stroke-linejoin: miter"/>
    </g>
    <text style="font-weight: 700; font-size: 20px; font-family: 'Montserrat'; text-anchor: middle; fill: #10302c" x="218.190543" y="456.198683" transform="rotate(-0 218.190543 456.198683)">  481  </text>
   </g>
   <g id="text_29">
    <text style="font-weight: 600; font-size: 22px; font-family: 'Montserrat'; text-anchor: middle; fill: #4c6a67" x="218.190543" y="405.616915" transform="rotate(-0 218.190543 405.616915)">0.8%</text>
   </g>
   <g id="text_30">
    <g id="patch_43">
     <path d="M 291.556217 449.668771 
L 321.034342 449.668771 
Q 337.034342 449.668771 337.034342 433.668771 
L 337.034342 440.946896 
Q 337.034342 424.946896 321.034342 424.946896 
L 291.556217 424.946896 
Q 275.556217 424.946896 275.556217 440.946896 
L 275.556217 433.668771 
Q 275.556217 449.668771 291.556217 449.668771 
z
" style="fill: #ffffff; stroke: #002f2a; stroke-width: 1.5; stroke-linejoin: miter"/>
    </g>
    <text style="font-weight: 700; font-size: 20px; font-family: 'Montserrat'; text-anchor: middle; fill: #10302c" x="306.29528" y="442.787521" transform="rotate(-0 306.29528 442.787521)">  812  </text>
   </g>
   <g id="text_31">
    <text style="font-weight: 600; font-size: 22px; font-family: 'Montserrat'; text-anchor: middle; fill: #4c6a67" x="306.29528" y="392.205753" transform="rotate(-0 306.29528 392.205753)">1.4%</text>
   </g>
   <g id="text_32">
    <text style="font-weight: 500; font-size: 24px; font-family: 'Montserrat'; text-anchor: middle; fill: #ffffff" x="394.400016" y="481.43241" transform="rotate(-0 394.400016 481.43241)">852</text>
   </g>
   <g id="text_33">
    <text style="font-weight: 500; font-size: 24px; font-family: 'Montserrat'; text-anchor: middle; fill: #ffffff" x="394.400016" y="440.895046" transform="rotate(-0 394.400016 440.895046)">1,149</text>
   </g>
   <g id="text_34">
    <g id="patch_44">
     <path d="M 370.059391 401.493933 
L 418.740641 401.493933 
Q 434.740641 401.493933 434.740641 385.493933 
L 434.740641 392.772058 
Q 434.740641 376.772058 418.740641 376.772058 
L 370.059391 376.772058 
Q 354.059391 376.772058 354.059391 392.772058 
L 354.059391 385.493933 
Q 354.059391 401.493933 370.059391 401.493933 
z
" style="fill: #ffffff; stroke: #002f2a; stroke-width: 1.5; stroke-linejoin: miter"/>
    </g>
    <text style="font-weight: 700; font-size: 20px; font-family: 'Montserrat'; text-anchor: middle; fill: #10302c" x="394.400016" y="394.612683" transform="rotate(-0 394.400016 394.612683)">  2,001  </text>
   </g>
   <g id="text_35">
    <text style="font-weight: 600; font-size: 22px; font-family: 'Montserrat'; text-anchor: middle; fill: #4c6a67" x="394.400016" y="344.030915" transform="rotate(-0 394.400016 344.030915)">3.4%</text>
   </g>
   <g id="text_36">
    <text style="font-weight: 500; font-size: 24px; font-family: 'Montserrat'; text-anchor: middle; fill: #ffffff" x="482.504753" y="481.776805" transform="rotate(-0 482.504753 481.776805)">835</text>
   </g>
   <g id="text_37">
    <text style="font-weight: 500; font-size: 24px; font-family: 'Montserrat'; text-anchor: middle; fill: #ffffff" x="482.504753" y="433.257572" transform="rotate(-0 482.504753 433.257572)">1,560</text>
   </g>
   <g id="text_38">
    <g id="patch_45">
     <path d="M 457.425066 385.530194 
L 507.584441 385.530194 
Q 523.584441 385.530194 523.584441 369.530194 
L 523.584441 376.808319 
Q 523.584441 360.808319 507.584441 360.808319 
L 457.425066 360.808319 
Q 441.425066 360.808319 441.425066 376.808319 
L 441.425066 369.530194 
Q 441.425066 385.530194 457.425066 385.530194 
z
" style="fill: #ffffff; stroke: #002f2a; stroke-width: 1.5; stroke-linejoin: miter"/>
    </g>
    <text style="font-weight: 700; font-size: 20px; font-family: 'Montserrat'; text-anchor: middle; fill: #10302c" x="482.504753" y="378.648944" transform="rotate(-0 482.504753 378.648944)">  2,395  </text>
   </g>
   <g id="text_39">
    <text style="font-weight: 600; font-size: 22px; font-family: 'Montserrat'; text-anchor: middle; fill: #4c6a67" x="482.504753" y="328.067175" transform="rotate(-0 482.504753 328.067175)">4.1%</text>
   </g>
   <g id="text_40">
    <text style="font-weight: 500; font-size: 24px; font-family: 'Montserrat'; text-anchor: middle; fill: #ffffff" x="570.60949" y="484.916881" transform="rotate(-0 570.60949 484.916881)">680</text>
   </g>
   <g id="text_41">
    <text style="font-weight: 500; font-size: 24px; font-family: 'Montserrat'; text-anchor: middle; fill: #ffffff" x="570.60949" y="442.414438" transform="rotate(-0 570.60949 442.414438)">1,418</text>
   </g>
   <g id="text_42">
    <g id="patch_46">
     <path d="M 544.00949 397.563774 
L 597.20949 397.563774 
Q 613.20949 397.563774 613.20949 381.563774 
L 613.20949 388.841899 
Q 613.20949 372.841899 597.20949 372.841899 
L 544.00949 372.841899 
Q 528.00949 372.841899 528.00949 388.841899 
L 528.00949 381.563774 
Q 528.00949 397.563774 544.00949 397.563774 
z
" style="fill: #ffffff; stroke: #002f2a; stroke-width: 1.5; stroke-linejoin: miter"/>
    </g>
    <text style="font-weight: 700; font-size: 20px; font-family: 'Montserrat'; text-anchor: middle; fill: #10302c" x="570.60949" y="390.682524" transform="rotate(-0 570.60949 390.682524)">  2,098  </text>
   </g>
   <g id="text_43">
    <text style="font-weight: 600; font-size: 22px; font-family: 'Montserrat'; text-anchor: middle; fill: #4c6a67" x="570.60949" y="340.100755" transform="rotate(-0 570.60949 340.100755)">3.6%</text>
   </g>
   <g id="text_44">
    <text style="font-weight: 500; font-size: 24px; font-family: 'Montserrat'; text-anchor: middle; fill: #ffffff" x="658.714227" y="481.209566" transform="rotate(-0 658.714227 481.209566)">863</text>
   </g>
   <g id="text_45">
    <text style="font-weight: 500; font-size: 24px; font-family: 'Montserrat'; text-anchor: middle; fill: #ffffff" x="658.714227" y="434.635153" transform="rotate(-0 658.714227 434.635153)">1,436</text>
   </g>
   <g id="text_46">
    <g id="patch_47">
     <path d="M 633.234539 389.419836 
L 684.193914 389.419836 
Q 700.193914 389.419836 700.193914 373.419836 
L 700.193914 380.697961 
Q 700.193914 364.697961 684.193914 364.697961 
L 633.234539 364.697961 
Q 617.234539 364.697961 617.234539 380.697961 
L 617.234539 373.419836 
Q 617.234539 389.419836 633.234539 389.419836 
z
" style="fill: #ffffff; stroke: #002f2a; stroke-width: 1.5; stroke-linejoin: miter"/>
    </g>
    <text style="font-weight: 700; font-size: 20px; font-family: 'Montserrat'; text-anchor: middle; fill: #10302c" x="658.714227" y="382.538586" transform="rotate(-0 658.714227 382.538586)">  2,299  </text>
   </g>
   <g id="text_47">
    <text style="font-weight: 600; font-size: 22px; font-family: 'Montserrat'; text-anchor: middle; fill: #4c6a67" x="658.714227" y="331.956817" transform="rotate(-0 658.714227 331.956817)">4.0%</text>
   </g>
   <g id="text_48">
    <text style="font-weight: 500; font-size: 24px; font-family: 'Montserrat'; text-anchor: middle; fill: #ffffff" x="746.818964" y="481.088015" transform="rotate(-0 746.818964 481.088015)">869</text>
   </g>
   <g id="text_49">
    <text style="font-weight: 500; font-size: 24px; font-family: 'Montserrat'; text-anchor: middle; fill: #ffffff" x="746.818964" y="436.032993" transform="rotate(-0 746.818964 436.032993)">1,355</text>
   </g>
   <g id="text_50">
    <g id="patch_48">
     <path d="M 721.289276 392.458619 
L 772.348651 392.458619 
Q 788.348651 392.458619 788.348651 376.458619 
L 788.348651 383.736744 
Q 788.348651 367.736744 772.348651 367.736744 
L 721.289276 367.736744 
Q 705.289276 367.736744 705.289276 383.736744 
L 705.289276 376.458619 
Q 705.289276 392.458619 721.289276 392.458619 
z
" style="fill: #ffffff; stroke: #002f2a; stroke-width: 1.5; stroke-linejoin: miter"/>
    </g>
    <text style="font-weight: 700; font-size: 20px; font-family: 'Montserrat'; text-anchor: middle; fill: #10302c" x="746.818964" y="385.577369" transform="rotate(-0 746.818964 385.577369)">  2,224  </text>
   </g>
   <g id="text_51">
    <text style="font-weight: 600; font-size: 22px; font-family: 'Montserrat'; text-anchor: middle; fill: #4c6a67" x="746.818964" y="334.9956" transform="rotate(-0 746.818964 334.9956)">3.8%</text>
   </g>
   <g id="text_52">
    <text style="font-weight: 500; font-size: 24px; font-family: 'Montserrat'; text-anchor: middle; fill: #ffffff" x="834.923701" y="482.708699" transform="rotate(-0 834.923701 482.708699)">789</text>
   </g>
   <g id="text_53">
    <text style="font-weight: 500; font-size: 24px; font-family: 'Montserrat'; text-anchor: middle; fill: #ffffff" x="834.923701" y="440.97608" transform="rotate(-0 834.923701 440.97608)">1,271</text>
   </g>
   <g id="text_54">
    <g id="patch_49">
     <path d="M 808.133076 399.103424 
L 861.714326 399.103424 
Q 877.714326 399.103424 877.714326 383.103424 
L 877.714326 390.381549 
Q 877.714326 374.381549 861.714326 374.381549 
L 808.133076 374.381549 
Q 792.133076 374.381549 792.133076 390.381549 
L 792.133076 383.103424 
Q 792.133076 399.103424 808.133076 399.103424 
z
" style="fill: #ffffff; stroke: #002f2a; stroke-width: 1.5; stroke-linejoin: miter"/>
    </g>
    <text style="font-weight: 700; font-size: 20px; font-family: 'Montserrat'; text-anchor: middle; fill: #10302c" x="834.923701" y="392.222174" transform="rotate(-0 834.923701 392.222174)">  2,060  </text>
   </g>
   <g id="text_55">
    <text style="font-weight: 600; font-size: 22px; font-family: 'Montserrat'; text-anchor: middle; fill: #4c6a67" x="834.923701" y="341.640405" transform="rotate(-0 834.923701 341.640405)">3.5%</text>
   </g>
   <g id="text_56">
    <text style="font-weight: 500; font-size: 24px; font-family: 'Montserrat'; text-anchor: middle; fill: #ffffff" x="923.028437" y="479.041901" transform="rotate(-0 923.028437 479.041901)">970</text>
   </g>
   <g id="text_57">
    <text style="font-weight: 500; font-size: 24px; font-family: 'Montserrat'; text-anchor: middle; fill: #ffffff" x="923.028437" y="429.874393" transform="rotate(-0 923.028437 429.874393)">1,457</text>
   </g>
   <g id="text_58">
    <g id="patch_50">
     <path d="M 897.19875 384.233646 
L 948.858125 384.233646 
Q 964.858125 384.233646 964.858125 368.233646 
L 964.858125 375.511771 
Q 964.858125 359.511771 948.858125 359.511771 
L 897.19875 359.511771 
Q 881.19875 359.511771 881.19875 375.511771 
L 881.19875 368.233646 
Q 881.19875 384.233646 897.19875 384.233646 
z
" style="fill: #ffffff; stroke: #002f2a; stroke-width: 1.5; stroke-linejoin: miter"/>
    </g>
    <text style="font-weight: 700; font-size: 20px; font-family: 'Montserrat'; text-anchor: middle; fill: #10302c" x="923.028437" y="377.352396" transform="rotate(-0 923.028437 377.352396)">  2,427  </text>
   </g>
   <g id="text_59">
    <text style="font-weight: 600; font-size: 22px; font-family: 'Montserrat'; text-anchor: middle; fill: #4c6a67" x="923.028437" y="326.770628" transform="rotate(-0 923.028437 326.770628)">4.2%</text>
   </g>
   <g id="text_60">
    <text style="font-weight: 500; font-size: 24px; font-family: 'Montserrat'; text-anchor: middle; fill: #ffffff" x="1011.133174" y="477.016046" transform="rotate(-0 1011.133174 477.016046)">1,070</text>
   </g>
   <g id="text_61">
    <text style="font-weight: 500; font-size: 24px; font-family: 'Montserrat'; text-anchor: middle; fill: #ffffff" x="1011.133174" y="416.463232" transform="rotate(-0 1011.133174 416.463232)">1,919</text>
   </g>
   <g id="text_62">
    <g id="patch_51">
     <path d="M 984.953487 361.463033 
L 1037.312862 361.463033 
Q 1053.312862 361.463033 1053.312862 345.463033 
L 1053.312862 352.741158 
Q 1053.312862 336.741158 1037.312862 336.741158 
L 984.953487 336.741158 
Q 968.953487 336.741158 968.953487 352.741158 
L 968.953487 345.463033 
Q 968.953487 361.463033 984.953487 361.463033 
z
" style="fill: #ffffff; stroke: #002f2a; stroke-width: 1.5; stroke-linejoin: miter"/>
    </g>
    <text style="font-weight: 700; font-size: 20px; font-family: 'Montserrat'; text-anchor: middle; fill: #10302c" x="1011.133174" y="354.581783" transform="rotate(-0 1011.133174 354.581783)">  2,989  </text>
   </g>
   <g id="text_63">
    <text style="font-weight: 600; font-size: 22px; font-family: 'Montserrat'; text-anchor: middle; fill: #4c6a67" x="1011.133174" y="304.000014" transform="rotate(-0 1011.133174 304.000014)">5.2%</text>
   </g>
   <g id="text_64">
    <text style="font-weight: 500; font-size: 24px; font-family: 'Montserrat'; text-anchor: middle; fill: #ffffff" x="1099.237911" y="485.970326" transform="rotate(-0 1099.237911 485.970326)">628</text>
   </g>
   <g id="text_65">
    <text style="font-weight: 500; font-size: 24px; font-family: 'Montserrat'; text-anchor: middle; fill: #ffffff" x="1099.237911" y="436.843336" transform="rotate(-0 1099.237911 436.843336)">1,797</text>
   </g>
   <g id="text_66">
    <g id="patch_52">
     <path d="M 1073.658224 384.31468 
L 1124.817599 384.31468 
Q 1140.817599 384.31468 1140.817599 368.31468 
L 1140.817599 375.592805 
Q 1140.817599 359.592805 1124.817599 359.592805 
L 1073.658224 359.592805 
Q 1057.658224 359.592805 1057.658224 375.592805 
L 1057.658224 368.31468 
Q 1057.658224 384.31468 1073.658224 384.31468 
z
" style="fill: #ffffff; stroke: #002f2a; stroke-width: 1.5; stroke-linejoin: miter"/>
    </g>
    <text style="font-weight: 700; font-size: 20px; font-family: 'Montserrat'; text-anchor: middle; fill: #10302c" x="1099.237911" y="377.43343" transform="rotate(-0 1099.237911 377.43343)">  2,425  </text>
   </g>
   <g id="text_67">
    <text style="font-weight: 600; font-size: 22px; font-family: 'Montserrat'; text-anchor: middle; fill: #4c6a67" x="1099.237911" y="326.851662" transform="rotate(-0 1099.237911 326.851662)">4.2%</text>
   </g>
   <g id="text_68">
    <text style="font-weight: 500; font-size: 24px; font-family: 'Montserrat'; text-anchor: middle; fill: #ffffff" x="1187.342648" y="484.815588" transform="rotate(-0 1187.342648 484.815588)">685</text>
   </g>
   <g id="text_69">
    <text style="font-weight: 500; font-size: 24px; font-family: 'Montserrat'; text-anchor: middle; fill: #ffffff" x="1187.342648" y="424.870531" transform="rotate(-0 1187.342648 424.870531)">2,274</text>
   </g>
   <g id="text_70">
    <g id="patch_53">
     <path d="M 1161.812961 362.678546 
L 1212.872336 362.678546 
Q 1228.872336 362.678546 1228.872336 346.678546 
L 1228.872336 353.956671 
Q 1228.872336 337.956671 1212.872336 337.956671 
L 1161.812961 337.956671 
Q 1145.812961 337.956671 1145.812961 353.956671 
L 1145.812961 346.678546 
Q 1145.812961 362.678546 1161.812961 362.678546 
z
" style="fill: #ffffff; stroke: #002f2a; stroke-width: 1.5; stroke-linejoin: miter"/>
    </g>
    <text style="font-weight: 700; font-size: 20px; font-family: 'Montserrat'; text-anchor: middle; fill: #10302c" x="1187.342648" y="355.797296" transform="rotate(-0 1187.342648 355.797296)">  2,959  </text>
   </g>
   <g id="text_71">
    <text style="font-weight: 600; font-size: 22px; font-family: 'Montserrat'; text-anchor: middle; fill: #4c6a67" x="1187.342648" y="305.215528" transform="rotate(-0 1187.342648 305.215528)">5.1%</text>
   </g>
   <g id="text_72">
    <text style="font-weight: 500; font-size: 24px; font-family: 'Montserrat'; text-anchor: middle; fill: #ffffff" x="1275.447385" y="474.625536" transform="rotate(-0 1275.447385 474.625536)">1,188</text>
   </g>
   <g id="text_73">
    <text style="font-weight: 500; font-size: 24px; font-family: 'Montserrat'; text-anchor: middle; fill: #ffffff" x="1275.447385" y="396.974504" transform="rotate(-0 1275.447385 396.974504)">2,645</text>
   </g>
   <g id="text_74">
    <g id="patch_54">
     <path d="M 1250.147385 327.266596 
L 1300.747385 327.266596 
Q 1316.747385 327.266596 1316.747385 311.266596 
L 1316.747385 318.544721 
Q 1316.747385 302.544721 1300.747385 302.544721 
L 1250.147385 302.544721 
Q 1234.147385 302.544721 1234.147385 318.544721 
L 1234.147385 311.266596 
Q 1234.147385 327.266596 1250.147385 327.266596 
z
" style="fill: #ffffff; stroke: #002f2a; stroke-width: 1.5; stroke-linejoin: miter"/>
    </g>
    <text style="font-weight: 700; font-size: 20px; font-family: 'Montserrat'; text-anchor: middle; fill: #10302c" x="1275.447385" y="320.385346" transform="rotate(-0 1275.447385 320.385346)">  3,833  </text>
   </g>
   <g id="text_75">
    <text style="font-weight: 600; font-size: 22px; font-family: 'Montserrat'; text-anchor: middle; fill: #4c6a67" x="1275.447385" y="269.803577" transform="rotate(-0 1275.447385 269.803577)">6.6%</text>
   </g>
   <g id="text_76">
    <text style="font-weight: 500; font-size: 24px; font-family: 'Montserrat'; text-anchor: middle; fill: #ffffff" x="1363.552122" y="465.488929" transform="rotate(-0 1363.552122 465.488929)">1,639</text>
   </g>
   <g id="text_77">
    <text style="font-weight: 500; font-size: 24px; font-family: 'Montserrat'; text-anchor: middle; fill: #ffffff" x="1363.552122" y="369.139252" transform="rotate(-0 1363.552122 369.139252)">3,117</text>
   </g>
   <g id="text_78">
    <g id="patch_55">
     <path d="M 1337.202122 289.869308 
L 1389.902122 289.869308 
Q 1405.902122 289.869308 1405.902122 273.869308 
L 1405.902122 281.147433 
Q 1405.902122 265.147433 1389.902122 265.147433 
L 1337.202122 265.147433 
Q 1321.202122 265.147433 1321.202122 281.147433 
L 1321.202122 273.869308 
Q 1321.202122 289.869308 1337.202122 289.869308 
z
" style="fill: #ffffff; stroke: #002f2a; stroke-width: 1.5; stroke-linejoin: miter"/>
    </g>
    <text style="font-weight: 700; font-size: 20px; font-family: 'Montserrat'; text-anchor: middle; fill: #10302c" x="1363.552122" y="282.988058" transform="rotate(-0 1363.552122 282.988058)">  4,756  </text>
   </g>
   <g id="text_79">
    <text style="font-weight: 600; font-size: 22px; font-family: 'Montserrat'; text-anchor: middle; fill: #4c6a67" x="1363.552122" y="232.406289" transform="rotate(-0 1363.552122 232.406289)">8.2%</text>
   </g>
   <g id="text_80">
    <text style="font-weight: 500; font-size: 24px; font-family: 'Montserrat'; text-anchor: middle; fill: #ffffff" x="1451.656859" y="468.1428" transform="rotate(-0 1451.656859 468.1428)">1,508</text>
   </g>
   <g id="text_81">
    <text style="font-weight: 500; font-size: 24px; font-family: 'Montserrat'; text-anchor: middle; fill: #ffffff" x="1451.656859" y="379.774993" transform="rotate(-0 1451.656859 379.774993)">2,854</text>
   </g>
   <g id="text_82">
    <g id="patch_56">
     <path d="M 1425.636546 305.833047 
L 1477.677171 305.833047 
Q 1493.677171 305.833047 1493.677171 289.833047 
L 1493.677171 297.111172 
Q 1493.677171 281.111172 1477.677171 281.111172 
L 1425.636546 281.111172 
Q 1409.636546 281.111172 1409.636546 297.111172 
L 1409.636546 289.833047 
Q 1409.636546 305.833047 1425.636546 305.833047 
z
" style="fill: #ffffff; stroke: #002f2a; stroke-width: 1.5; stroke-linejoin: miter"/>
    </g>
    <text style="font-weight: 700; font-size: 20px; font-family: 'Montserrat'; text-anchor: middle; fill: #10302c" x="1451.656859" y="298.951797" transform="rotate(-0 1451.656859 298.951797)">  4,362  </text>
   </g>
   <g id="text_83">
    <text style="font-weight: 600; font-size: 22px; font-family: 'Montserrat'; text-anchor: middle; fill: #4c6a67" x="1451.656859" y="248.370029" transform="rotate(-0 1451.656859 248.370029)">7.5%</text>
   </g>
   <g id="text_84">
    <text style="font-weight: 500; font-size: 24px; font-family: 'Montserrat'; text-anchor: middle; fill: #ffffff" x="1539.761595" y="453.212246" transform="rotate(-0 1539.761595 453.212246)">2,245</text>
   </g>
   <g id="text_85">
    <text style="font-weight: 500; font-size: 24px; font-family: 'Montserrat'; text-anchor: middle; fill: #ffffff" x="1539.761595" y="329.69585" transform="rotate(-0 1539.761595 329.69585)">3,852</text>
   </g>
   <g id="text_86">
    <g id="patch_57">
     <path d="M 1513.091283 235.535869 
L 1566.431908 235.535869 
Q 1582.431908 235.535869 1582.431908 219.535869 
L 1582.431908 226.813994 
Q 1582.431908 210.813994 1566.431908 210.813994 
L 1513.091283 210.813994 
Q 1497.091283 210.813994 1497.091283 226.813994 
L 1497.091283 219.535869 
Q 1497.091283 235.535869 1513.091283 235.535869 
z
" style="fill: #ffffff; stroke: #002f2a; stroke-width: 1.5; stroke-linejoin: miter"/>
    </g>
    <text style="font-weight: 700; font-size: 20px; font-family: 'Montserrat'; text-anchor: middle; fill: #10302c" x="1539.761595" y="228.654619" transform="rotate(-0 1539.761595 228.654619)">  6,097  </text>
   </g>
   <g id="text_87">
    <text style="font-weight: 600; font-size: 22px; font-family: 'Montserrat'; text-anchor: middle; fill: #4c6a67" x="1539.761595" y="178.072851" transform="rotate(-0 1539.761595 178.072851)">10.5%</text>
   </g>
   <g id="text_88">
    <text style="font-weight: 500; font-size: 24px; font-family: 'Montserrat'; text-anchor: middle; fill: #ffffff" x="1627.866332" y="435.263168" transform="rotate(-0 1627.866332 435.263168)">3,131</text>
   </g>
   <g id="text_89">
    <text style="font-weight: 500; font-size: 24px; font-family: 'Montserrat'; text-anchor: middle; fill: #ffffff" x="1627.866332" y="253.402141" transform="rotate(-0 1627.866332 253.402141)">5,846</text>
   </g>
   <g id="text_90">
    <g id="patch_58">
     <path d="M 1601.556957 118.846606 
L 1654.175707 118.846606 
Q 1670.175707 118.846606 1670.175707 102.846606 
L 1670.175707 110.124731 
Q 1670.175707 94.124731 1654.175707 94.124731 
L 1601.556957 94.124731 
Q 1585.556957 94.124731 1585.556957 110.124731 
L 1585.556957 102.846606 
Q 1585.556957 118.846606 1601.556957 118.846606 
z
" style="fill: #ffffff; stroke: #002f2a; stroke-width: 1.5; stroke-linejoin: miter"/>
    </g>
    <text style="font-weight: 700; font-size: 20px; font-family: 'Montserrat'; text-anchor: middle; fill: #10302c" x="1627.866332" y="111.965356" transform="rotate(-0 1627.866332 111.965356)">  8,977  </text>
   </g>
   <g id="text_91">
    <text style="font-weight: 600; font-size: 22px; font-family: 'Montserrat'; text-anchor: middle; fill: #4c6a67" x="1627.866332" y="61.383587" transform="rotate(-0 1627.866332 61.383587)">15.5%</text>
   </g>
   <g id="text_92">
    <text style="font-weight: 500; font-size: 24px; font-family: 'Montserrat'; text-anchor: middle; fill: #ffffff" x="1715.971069" y="398.027949" transform="rotate(-0 1715.971069 398.027949)">3,995</text>
   </g>
   <g id="text_93">
    <g id="patch_59">
     <path d="M 1688.750757 300.970995 
L 1743.191382 300.970995 
Q 1759.191382 300.970995 1759.191382 284.970995 
L 1759.191382 292.24912 
Q 1759.191382 276.24912 1743.191382 276.24912 
L 1688.750757 276.24912 
Q 1672.750757 276.24912 1672.750757 292.24912 
L 1672.750757 284.970995 
Q 1672.750757 300.970995 1688.750757 300.970995 
z
" style="fill: #ffffff; stroke: #002f2a; stroke-width: 1.5; stroke-linejoin: miter"/>
    </g>
    <text style="font-weight: 700; font-size: 20px; font-family: 'Montserrat'; text-anchor: middle; fill: #10302c" x="1715.971069" y="294.089745" transform="rotate(-0 1715.971069 294.089745)">  4,482  </text>
   </g>
   <g id="text_94">
    <text style="font-weight: 600; font-size: 22px; font-family: 'Montserrat'; text-anchor: middle; fill: #4c6a67" x="1715.971069" y="243.507976" transform="rotate(-0 1715.971069 243.507976)">7.7%</text>
   </g>
   <g id="legend_1">
    <g id="patch_60">
     <path d="M 665.587188 35.03625 
L 713.587188 35.03625 
L 713.587188 18.23625 
L 665.587188 18.23625 
z
" style="fill: #10302c"/>
    </g>
    <g id="text_95">
     <text style="font-size: 24px; font-family: 'DejaVu Sans', 'Bitstream Vera Sans', 'Computer Modern Sans Serif', 'Lucida Grande', 'Verdana', 'Geneva', 'Lucid', 'Arial', 'Helvetica', 'Avant Garde', sans-serif; text-anchor: start" x="732.787188" y="35.03625" transform="rotate(-0 732.787188 35.03625)">movimiento</text>
    </g>
    <g id="patch_61">
     <path d="M 923.838438 35.03625 
L 971.838438 35.03625 
L 971.838438 18.23625 
L 923.838438 18.23625 
z
" style="fill: #4c6a67"/>
    </g>
    <g id="text_96">
     <text style="font-size: 24px; font-family: 'DejaVu Sans', 'Bitstream Vera Sans', 'Computer Modern Sans Serif', 'Lucida Grande', 'Verdana', 'Geneva', 'Lucid', 'Arial', 'Helvetica', 'Avant Garde', sans-serif; text-anchor: start" x="991.038438" y="35.03625" transform="rotate(-0 991.038438 35.03625)">sin_movimiento</text>
    </g>
   </g>
  </g>
 </g>
 <defs>
  <clipPath id="p1ea20f568f">
   <rect x="86.033438" y="32.008672" width="1673.99" height="460.1084"/>
  </clipPath>
 </defs>
</svg>
