<?xml version="1.0" encoding="UTF-8"?>
<!DOCTYPE svg  PUBLIC '-//W3C//DTD SVG 1.1//EN'  'http://www.w3.org/Graphics/SVG/1.1/DTD/svg11.dtd'>
<svg width="856.86pt" height="1084pt" version="1.1" viewBox="0 0 856.86 1084" xmlns="http://www.w3.org/2000/svg" xmlns:xlink="http://www.w3.org/1999/xlink">
 <defs>
  <style type="text/css">*{stroke-linejoin: round; stroke-linecap: butt}</style>
 </defs>
 <path d="m0 1084h856.86v-1084h-856.86z" fill="#fff"/>
 <path d="m121.34 1046.4h670.21v-973.35h-670.21z" fill="#fff"/>
 <path d="m121.34 1046.4v-973.35" clip-path="url(#a)" fill="none" stroke="#b9b9b9" stroke-linecap="square" stroke-width=".75"/>
 <defs>
  <path id="c" d="m0 0v3.5" stroke="#000" stroke-width=".8"/>
 </defs>
 <use x="121.343438" y="1046.42016" stroke="#000000" stroke-width=".8" xlink:href="#c"/>
 <text transform="rotate(-0 121.34 1072)" x="121.343438" y="1071.970941" font-family="'Montserrat'" font-size="25px" font-weight="500" text-anchor="middle">0</text>
 <path d="m239.38 1046.4v-973.35" clip-path="url(#a)" fill="none" stroke="#b9b9b9" stroke-linecap="square" stroke-width=".75"/>
 <use x="239.381527" y="1046.42016" stroke="#000000" stroke-width=".8" xlink:href="#c"/>
 <text transform="rotate(-0 239.38 1072)" x="239.381527" y="1071.970941" font-family="'Montserrat'" font-size="25px" font-weight="500" text-anchor="middle">2,000</text>
 <path d="m357.42 1046.4v-973.35" clip-path="url(#a)" fill="none" stroke="#b9b9b9" stroke-linecap="square" stroke-width=".75"/>
 <use x="357.419616" y="1046.42016" stroke="#000000" stroke-width=".8" xlink:href="#c"/>
 <text transform="rotate(-0 357.42 1072)" x="357.419616" y="1071.970941" font-family="'Montserrat'" font-size="25px" font-weight="500" text-anchor="middle">4,000</text>
 <path d="m475.46 1046.4v-973.35" clip-path="url(#a)" fill="none" stroke="#b9b9b9" stroke-linecap="square" stroke-width=".75"/>
 <use x="475.457705" y="1046.42016" stroke="#000000" stroke-width=".8" xlink:href="#c"/>
 <text transform="rotate(-0 475.46 1072)" x="475.457705" y="1071.970941" font-family="'Montserrat'" font-size="25px" font-weight="500" text-anchor="middle">6,000</text>
 <path d="m593.5 1046.4v-973.35" clip-path="url(#a)" fill="none" stroke="#b9b9b9" stroke-linecap="square" stroke-width=".75"/>
 <use x="593.495795" y="1046.42016" stroke="#000000" stroke-width=".8" xlink:href="#c"/>
 <text transform="rotate(-0 593.5 1072)" x="593.495795" y="1071.970941" font-family="'Montserrat'" font-size="25px" font-weight="500" text-anchor="middle">8,000</text>
 <path d="m711.53 1046.4v-973.35" clip-path="url(#a)" fill="none" stroke="#b9b9b9" stroke-linecap="square" stroke-width=".75"/>
 <use x="711.533884" y="1046.42016" stroke="#000000" stroke-width=".8" xlink:href="#c"/>
 <text transform="rotate(-0 711.53 1072)" x="711.533884" y="1071.970941" font-family="'Montserrat'" font-size="25px" font-weight="500" text-anchor="middle">10,000</text>
 <defs>
  <path id="b" d="m0 0h-3.5" stroke="#000" stroke-width=".8"/>
 </defs>
 <use x="121.343438" y="1013.975093" stroke="#000000" stroke-width=".8" xlink:href="#b"/>
 <text transform="rotate(-0 114.34 1022.1)" x="114.343438" y="1022.137437" font-family="'Montserrat'" font-size="22px" font-weight="500" text-anchor="end">2007-2011</text>
 <use x="121.343438" y="949.08496" stroke="#000000" stroke-width=".8" xlink:href="#b"/>
 <text transform="rotate(-0 114.34 957.25)" x="114.343438" y="957.247304" font-family="'Montserrat'" font-size="22px" font-weight="500" text-anchor="end">2012</text>
 <use x="121.343438" y="884.194827" stroke="#000000" stroke-width=".8" xlink:href="#b"/>
 <text transform="rotate(-0 114.34 892.36)" x="114.343438" y="892.35717" font-family="'Montserrat'" font-size="22px" font-weight="500" text-anchor="end">2013</text>
 <use x="121.343438" y="819.304693" stroke="#000000" stroke-width=".8" xlink:href="#b"/>
 <text transform="rotate(-0 114.34 827.47)" x="114.343438" y="827.467037" font-family="'Montserrat'" font-size="22px" font-weight="500" text-anchor="end">2014</text>
 <use x="121.343438" y="754.41456" stroke="#000000" stroke-width=".8" xlink:href="#b"/>
 <text transform="rotate(-0 114.34 762.58)" x="114.343438" y="762.576904" font-family="'Montserrat'" font-size="22px" font-weight="500" text-anchor="end">2015</text>
 <use x="121.343438" y="689.524427" stroke="#000000" stroke-width=".8" xlink:href="#b"/>
 <text transform="rotate(-0 114.34 697.69)" x="114.343438" y="697.68677" font-family="'Montserrat'" font-size="22px" font-weight="500" text-anchor="end">2016</text>
 <use x="121.343438" y="624.634293" stroke="#000000" stroke-width=".8" xlink:href="#b"/>
 <text transform="rotate(-0 114.34 632.8)" x="114.343438" y="632.796637" font-family="'Montserrat'" font-size="22px" font-weight="500" text-anchor="end">2017</text>
 <use x="121.343438" y="559.74416" stroke="#000000" stroke-width=".8" xlink:href="#b"/>
 <text transform="rotate(-0 114.34 567.91)" x="114.343438" y="567.906504" font-family="'Montserrat'" font-size="22px" font-weight="500" text-anchor="end">2018</text>
 <use x="121.343438" y="494.854027" stroke="#000000" stroke-width=".8" xlink:href="#b"/>
 <text transform="rotate(-0 114.34 503.02)" x="114.343438" y="503.01637" font-family="'Montserrat'" font-size="22px" font-weight="500" text-anchor="end">2019</text>
 <use x="121.343438" y="429.963893" stroke="#000000" stroke-width=".8" xlink:href="#b"/>
 <text transform="rotate(-0 114.34 438.13)" x="114.343438" y="438.126237" font-family="'Montserrat'" font-size="22px" font-weight="500" text-anchor="end">2020</text>
 <use x="121.343438" y="365.07376" stroke="#000000" stroke-width=".8" xlink:href="#b"/>
 <text transform="rotate(-0 114.34 373.24)" x="114.343438" y="373.236104" font-family="'Montserrat'" font-size="22px" font-weight="500" text-anchor="end">2021</text>
 <use x="121.343438" y="300.183627" stroke="#000000" stroke-width=".8" xlink:href="#b"/>
 <text transform="rotate(-0 114.34 308.35)" x="114.343438" y="308.34597" font-family="'Montserrat'" font-size="22px" font-weight="500" text-anchor="end">2022</text>
 <use x="121.343438" y="235.293493" stroke="#000000" stroke-width=".8" xlink:href="#b"/>
 <text transform="rotate(-0 114.34 243.46)" x="114.343438" y="243.455837" font-family="'Montserrat'" font-size="22px" font-weight="500" text-anchor="end">2023</text>
 <use x="121.343438" y="170.40336" stroke="#000000" stroke-width=".8" xlink:href="#b"/>
 <text transform="rotate(-0 114.34 178.57)" x="114.343438" y="178.565704" font-family="'Montserrat'" font-size="22px" font-weight="500" text-anchor="end">2024</text>
 <use x="121.343438" y="105.513227" stroke="#000000" stroke-width=".8" xlink:href="#b"/>
 <text transform="rotate(-0 114.34 113.68)" x="114.343438" y="113.67557" font-family="'Montserrat'" font-size="22px" font-weight="500" text-anchor="end">2025</text>
 <path d="m121.34 1039.9h147.96v-51.912h-147.96z" clip-path="url(#a)" fill="#10302c"/>
 <path d="m269.3 1039.9h208.99v-51.912h-208.99z" clip-path="url(#a)" fill="#4c6a67"/>
 <path d="m121.34 975.04h40.133v-51.912h-40.133z" clip-path="url(#a)" fill="#10302c"/>
 <path d="m161.48 975.04h83.689v-51.912h-83.689z" clip-path="url(#a)" fill="#4c6a67"/>
 <path d="m121.34 910.15h50.933v-51.912h-50.933z" clip-path="url(#a)" fill="#10302c"/>
 <path d="m172.28 910.15h84.751v-51.912h-84.751z" clip-path="url(#a)" fill="#4c6a67"/>
 <path d="m121.34 845.26h51.288v-51.912h-51.288z" clip-path="url(#a)" fill="#10302c"/>
 <path d="m172.63 845.26h79.971v-51.912h-79.971z" clip-path="url(#a)" fill="#4c6a67"/>
 <path d="m121.34 780.37h46.566v-51.912h-46.566z" clip-path="url(#a)" fill="#10302c"/>
 <path d="m167.91 780.37h75.013v-51.912h-75.013z" clip-path="url(#a)" fill="#4c6a67"/>
 <path d="m121.34 715.48h57.248v-51.912h-57.248z" clip-path="url(#a)" fill="#10302c"/>
 <path d="m178.59 715.48h85.991v-51.912h-85.991z" clip-path="url(#a)" fill="#4c6a67"/>
 <path d="m121.34 650.59h63.15v-51.912h-63.15z" clip-path="url(#a)" fill="#10302c"/>
 <path d="m184.49 650.59h113.26v-51.912h-113.26z" clip-path="url(#a)" fill="#4c6a67"/>
 <path d="m121.34 585.7h37.064v-51.912h-37.064z" clip-path="url(#a)" fill="#10302c"/>
 <path d="m158.41 585.7h106.06v-51.912h-106.06z" clip-path="url(#a)" fill="#4c6a67"/>
 <path d="m121.34 520.81h40.428v-51.912h-40.428z" clip-path="url(#a)" fill="#10302c"/>
 <path d="m161.77 520.81h134.21v-51.912h-134.21z" clip-path="url(#a)" fill="#4c6a67"/>
 <path d="m121.34 455.92h70.115v-51.912h-70.115z" clip-path="url(#a)" fill="#10302c"/>
 <path d="m191.46 455.92h156.11v-51.912h-156.11z" clip-path="url(#a)" fill="#4c6a67"/>
 <path d="m121.34 391.03h96.732v-51.912h-96.732z" clip-path="url(#a)" fill="#10302c"/>
 <path d="m218.08 391.03h183.96v-51.912h-183.96z" clip-path="url(#a)" fill="#4c6a67"/>
 <path d="m121.34 326.14h89.001v-51.912h-89.001z" clip-path="url(#a)" fill="#10302c"/>
 <path d="m210.34 326.14h168.44v-51.912h-168.44z" clip-path="url(#a)" fill="#4c6a67"/>
 <path d="m121.34 261.25h132.5v-51.912h-132.5z" clip-path="url(#a)" fill="#10302c"/>
 <path d="m253.84 261.25h227.34v-51.912h-227.34z" clip-path="url(#a)" fill="#4c6a67"/>
 <path d="m121.34 196.36h184.79v-51.912h-184.79z" clip-path="url(#a)" fill="#10302c"/>
 <path d="m306.13 196.36h345.03v-51.912h-345.03z" clip-path="url(#a)" fill="#4c6a67"/>
 <path d="m121.34 131.47h28.742v-51.912h-28.742z" clip-path="url(#a)" fill="#10302c"/>
 <path d="m150.09 131.47h235.78v-51.912h-235.78z" clip-path="url(#a)" fill="#4c6a67"/>
 <text transform="rotate(-0 195.32 1019.5)" x="195.32381" y="1019.454781" fill="#ffffff" font-family="'Montserrat'" font-size="20px" font-weight="500" text-anchor="middle">2,507</text>
 <text transform="rotate(-0 373.8 1019.5)" x="373.797401" y="1019.454781" fill="#ffffff" font-family="'Montserrat'" font-size="20px" font-weight="500" text-anchor="middle">3,541</text>
 <path d="m509.57 1026.3h77.819q16 0 16-16v7.2781q0-16-16-16h-77.819q-16 0-16 16v-7.2781q0 16 16 16z" fill="#fff" stroke="#002f2a" stroke-width="1.5"/>
 <text transform="rotate(-0 496.57 1019.5)" x="496.569201" y="1019.454781" fill="#10302c" font-family="'Montserrat'" font-size="20px" font-weight="700">6,048    </text>
 <text transform="rotate(-0 618.43 1020)" x="618.426413" y="1020.00275" fill="#4c6a67" font-family="'Montserrat'" font-size="22px" font-weight="600">10.4%</text>
 <text transform="rotate(-0 141.41 954.56)" x="141.409913" y="954.564647" fill="#ffffff" font-family="'Montserrat'" font-size="20px" font-weight="500" text-anchor="middle">680</text>
 <text transform="rotate(-0 203.32 954.56)" x="203.32089" y="954.564647" fill="#ffffff" font-family="'Montserrat'" font-size="20px" font-weight="500" text-anchor="middle">1,418</text>
 <path d="m276.44 961.45h75.838q16 0 16-16v7.2781q0-16-16-16h-75.838q-16 0-16 16v-7.2781q0 16 16 16z" fill="#fff" stroke="#002f2a" stroke-width="1.5"/>
 <text transform="rotate(-0 263.44 954.56)" x="263.443975" y="954.564647" fill="#10302c" font-family="'Montserrat'" font-size="20px" font-weight="700">2,098    </text>
 <text transform="rotate(-0 385.3 955.11)" x="385.301187" y="955.112616" fill="#4c6a67" font-family="'Montserrat'" font-size="22px" font-weight="600">3.6%</text>
 <text transform="rotate(-0 146.81 889.67)" x="146.810155" y="889.674514" fill="#ffffff" font-family="'Montserrat'" font-size="20px" font-weight="500" text-anchor="middle">863</text>
 <text transform="rotate(-0 214.65 889.67)" x="214.652547" y="889.674514" fill="#ffffff" font-family="'Montserrat'" font-size="20px" font-weight="500" text-anchor="middle">1,436</text>
 <path d="m288.31 896.56h73.597q16 0 16-16v7.2781q0-16-16-16h-73.597q-16 0-16 16v-7.2781q0 16 16 16z" fill="#fff" stroke="#002f2a" stroke-width="1.5"/>
 <text transform="rotate(-0 275.31 889.67)" x="275.306803" y="889.674514" fill="#10302c" font-family="'Montserrat'" font-size="20px" font-weight="700">2,299    </text>
 <text transform="rotate(-0 397.16 890.22)" x="397.164014" y="890.222483" fill="#4c6a67" font-family="'Montserrat'" font-size="22px" font-weight="600">4.0%</text>
 <text transform="rotate(-0 146.99 824.78)" x="146.987212" y="824.784381" fill="#ffffff" font-family="'Montserrat'" font-size="20px" font-weight="500" text-anchor="middle">869</text>
 <text transform="rotate(-0 212.62 824.78)" x="212.61639" y="824.784381" fill="#ffffff" font-family="'Montserrat'" font-size="20px" font-weight="500" text-anchor="middle">1,355</text>
 <path d="m283.88 831.67h73.697q16 0 16-16v7.2781q0-16-16-16h-73.697q-16 0-16 16v-7.2781q0 16 16 16z" fill="#fff" stroke="#002f2a" stroke-width="1.5"/>
 <text transform="rotate(-0 270.88 824.78)" x="270.880375" y="824.784381" fill="#10302c" font-family="'Montserrat'" font-size="20px" font-weight="700">2,224    </text>
 <text transform="rotate(-0 392.74 825.33)" x="392.737586" y="825.33235" fill="#4c6a67" font-family="'Montserrat'" font-size="22px" font-weight="600">3.8%</text>
 <text transform="rotate(-0 144.63 759.89)" x="144.626451" y="759.894248" fill="#ffffff" font-family="'Montserrat'" font-size="20px" font-weight="500" text-anchor="middle">789</text>
 <text transform="rotate(-0 205.42 759.89)" x="205.416067" y="759.894248" fill="#ffffff" font-family="'Montserrat'" font-size="20px" font-weight="500" text-anchor="middle">1,271</text>
 <path d="m274.2 766.78h76.219q16 0 16-16v7.2781q0-16-16-16h-76.219q-16 0-16 16v-7.2781q0 16 16 16z" fill="#fff" stroke="#002f2a" stroke-width="1.5"/>
 <text transform="rotate(-0 261.2 759.89)" x="261.201251" y="759.894248" fill="#10302c" font-family="'Montserrat'" font-size="20px" font-weight="700">2,060    </text>
 <text transform="rotate(-0 383.06 760.44)" x="383.058463" y="760.442216" fill="#4c6a67" font-family="'Montserrat'" font-size="22px" font-weight="600">3.5%</text>
 <text transform="rotate(-0 149.97 695)" x="149.967674" y="695.004114" fill="#ffffff" font-family="'Montserrat'" font-size="20px" font-weight="500" text-anchor="middle">970</text>
 <text transform="rotate(-0 221.59 695)" x="221.587285" y="695.004114" fill="#ffffff" font-family="'Montserrat'" font-size="20px" font-weight="500" text-anchor="middle">1,457</text>
 <path d="m295.86 701.89h74.297q16 0 16-16v7.2781q0-16-16-16h-74.297q-16 0-16 16v-7.2781q0 16 16 16z" fill="#fff" stroke="#002f2a" stroke-width="1.5"/>
 <text transform="rotate(-0 282.86 695)" x="282.861241" y="695.004114" fill="#10302c" font-family="'Montserrat'" font-size="20px" font-weight="700">2,427    </text>
 <text transform="rotate(-0 404.72 695.55)" x="404.718452" y="695.552083" fill="#4c6a67" font-family="'Montserrat'" font-size="22px" font-weight="600">4.2%</text>
 <text transform="rotate(-0 152.92 630.11)" x="152.918626" y="630.113981" fill="#ffffff" font-family="'Montserrat'" font-size="20px" font-weight="500" text-anchor="middle">1,070</text>
 <text transform="rotate(-0 241.12 630.11)" x="241.122589" y="630.113981" fill="#ffffff" font-family="'Montserrat'" font-size="20px" font-weight="500" text-anchor="middle">1,919</text>
 <path d="m329.03 637h74.997q16 0 16-16v7.2781q0-16-16-16h-74.997q-16 0-16 16v-7.2781q0 16 16 16z" fill="#fff" stroke="#002f2a" stroke-width="1.5"/>
 <text transform="rotate(-0 316.03 630.11)" x="316.029944" y="630.113981" fill="#10302c" font-family="'Montserrat'" font-size="20px" font-weight="700">2,989    </text>
 <text transform="rotate(-0 437.89 630.66)" x="437.887155" y="630.66195" fill="#4c6a67" font-family="'Montserrat'" font-size="22px" font-weight="600">5.2%</text>
 <text transform="rotate(-0 139.88 565.22)" x="139.875418" y="565.223847" fill="#ffffff" font-family="'Montserrat'" font-size="20px" font-weight="500" text-anchor="middle">628</text>
 <text transform="rotate(-0 211.44 565.22)" x="211.436009" y="565.223847" fill="#ffffff" font-family="'Montserrat'" font-size="20px" font-weight="500" text-anchor="middle">1,797</text>
 <path d="m295.74 572.11h73.797q16 0 16-16v7.2781q0-16-16-16h-73.797q-16 0-16 16v-7.2781q0 16 16 16z" fill="#fff" stroke="#002f2a" stroke-width="1.5"/>
 <text transform="rotate(-0 282.74 565.22)" x="282.743202" y="565.223847" fill="#10302c" font-family="'Montserrat'" font-size="20px" font-weight="700">2,425    </text>
 <text transform="rotate(-0 404.6 565.77)" x="404.600414" y="565.771816" fill="#4c6a67" font-family="'Montserrat'" font-size="22px" font-weight="600">4.2%</text>
 <text transform="rotate(-0 141.56 500.33)" x="141.55746" y="500.333714" fill="#ffffff" font-family="'Montserrat'" font-size="20px" font-weight="500" text-anchor="middle">685</text>
 <text transform="rotate(-0 228.88 500.33)" x="228.876137" y="500.333714" fill="#ffffff" font-family="'Montserrat'" font-size="20px" font-weight="500" text-anchor="middle">2,274</text>
 <path d="m327.26 507.21h73.697q16 0 16-16v7.2781q0-16-16-16h-73.697q-16 0-16 16v-7.2781q0 16 16 16z" fill="#fff" stroke="#002f2a" stroke-width="1.5"/>
 <text transform="rotate(-0 314.26 500.33)" x="314.259372" y="500.333714" fill="#10302c" font-family="'Montserrat'" font-size="20px" font-weight="700">2,959    </text>
 <text transform="rotate(-0 436.12 500.88)" x="436.116584" y="500.881683" fill="#4c6a67" font-family="'Montserrat'" font-size="22px" font-weight="600">5.1%</text>
 <text transform="rotate(-0 156.4 435.44)" x="156.40075" y="435.443581" fill="#ffffff" font-family="'Montserrat'" font-size="20px" font-weight="500" text-anchor="middle">1,188</text>
 <text transform="rotate(-0 269.51 435.44)" x="269.510749" y="435.443581" fill="#ffffff" font-family="'Montserrat'" font-size="20px" font-weight="500" text-anchor="middle">2,645</text>
 <path d="m378.84 442.32h73.238q16 0 16-16v7.2781q0-16-16-16h-73.238q-16 0-16 16v-7.2781q0 16 16 16z" fill="#fff" stroke="#002f2a" stroke-width="1.5"/>
 <text transform="rotate(-0 365.84 435.44)" x="365.842017" y="435.443581" fill="#10302c" font-family="'Montserrat'" font-size="20px" font-weight="700">3,833    </text>
 <text transform="rotate(-0 487.7 435.99)" x="487.699229" y="435.99155" fill="#4c6a67" font-family="'Montserrat'" font-size="22px" font-weight="600">6.6%</text>
 <text transform="rotate(-0 169.71 370.55)" x="169.709545" y="370.553447" fill="#ffffff" font-family="'Montserrat'" font-size="20px" font-weight="500" text-anchor="middle">1,639</text>
 <text transform="rotate(-0 310.06 370.55)" x="310.056833" y="370.553447" fill="#ffffff" font-family="'Montserrat'" font-size="20px" font-weight="500" text-anchor="middle">3,117</text>
 <path d="m433.32 377.43h75.338q16 0 16-16v7.2781q0-16-16-16h-75.338q-16 0-16 16v-7.2781q0 16 16 16z" fill="#fff" stroke="#002f2a" stroke-width="1.5"/>
 <text transform="rotate(-0 420.32 370.55)" x="420.316596" y="370.553447" fill="#10302c" font-family="'Montserrat'" font-size="20px" font-weight="700">4,756    </text>
 <text transform="rotate(-0 542.17 371.1)" x="542.173807" y="371.101416" fill="#4c6a67" font-family="'Montserrat'" font-size="22px" font-weight="600">8.2%</text>
 <text transform="rotate(-0 165.84 305.66)" x="165.843797" y="305.663314" fill="#ffffff" font-family="'Montserrat'" font-size="20px" font-weight="500" text-anchor="middle">1,508</text>
 <text transform="rotate(-0 294.56 305.66)" x="294.564333" y="305.663314" fill="#ffffff" font-family="'Montserrat'" font-size="20px" font-weight="500" text-anchor="middle">2,854</text>
 <path d="m410.06 312.54h74.678q16 0 16-16v7.2781q0-16-16-16h-74.678q-16 0-16 16v-7.2781q0 16 16 16z" fill="#fff" stroke="#002f2a" stroke-width="1.5"/>
 <text transform="rotate(-0 397.06 305.66)" x="397.063092" y="305.663314" fill="#10302c" font-family="'Montserrat'" font-size="20px" font-weight="700">4,362    </text>
 <text transform="rotate(-0 518.92 306.21)" x="518.920304" y="306.211283" fill="#4c6a67" font-family="'Montserrat'" font-size="22px" font-weight="600">7.5%</text>
 <text transform="rotate(-0 187.59 240.77)" x="187.592315" y="240.773181" fill="#ffffff" font-family="'Montserrat'" font-size="20px" font-weight="500" text-anchor="middle">2,245</text>
 <text transform="rotate(-0 367.51 240.77)" x="367.511873" y="240.773181" fill="#ffffff" font-family="'Montserrat'" font-size="20px" font-weight="500" text-anchor="middle">3,852</text>
 <path d="m512.46 247.65h75.978q16 0 16-16v7.2781q0-16-16-16h-75.978q-16 0-16 16v-7.2781q0 16 16 16z" fill="#fff" stroke="#002f2a" stroke-width="1.5"/>
 <text transform="rotate(-0 499.46 240.77)" x="499.461134" y="240.773181" fill="#10302c" font-family="'Montserrat'" font-size="20px" font-weight="700">6,097    </text>
 <text transform="rotate(-0 621.32 241.32)" x="621.318346" y="241.32115" fill="#4c6a67" font-family="'Montserrat'" font-size="22px" font-weight="600">10.5%</text>
 <text transform="rotate(-0 213.74 175.88)" x="213.737752" y="175.883047" fill="#ffffff" font-family="'Montserrat'" font-size="20px" font-weight="500" text-anchor="middle">3,131</text>
 <text transform="rotate(-0 478.64 175.88)" x="478.644734" y="175.883047" fill="#ffffff" font-family="'Montserrat'" font-size="20px" font-weight="500" text-anchor="middle">5,846</text>
 <path d="m682.44 182.76h75.256q16 0 16-16v7.2781q0-16-16-16h-75.256q-16 0-16 16v-7.2781q0 16 16 16z" fill="#fff" stroke="#002f2a" stroke-width="1.5"/>
 <text transform="rotate(-0 669.44 175.88)" x="669.435983" y="175.883047" fill="#10302c" font-family="'Montserrat'" font-size="20px" font-weight="700">8,977    </text>
 <text transform="rotate(-0 791.29 176.43)" x="791.293195" y="176.431016" fill="#4c6a67" font-family="'Montserrat'" font-size="22px" font-weight="600">15.5%</text>
 <text transform="rotate(-0 267.98 110.99)" x="267.976254" y="110.992914" fill="#ffffff" font-family="'Montserrat'" font-size="20px" font-weight="500" text-anchor="middle">3,995</text>
 <path d="m417.15 117.87h77.078q16 0 16-16v7.2781q0-16-16-16h-77.078q-16 0-16 16v-7.2781q0 16 16 16z" fill="#fff" stroke="#002f2a" stroke-width="1.5"/>
 <text transform="rotate(-0 404.15 110.99)" x="404.145377" y="110.992914" fill="#10302c" font-family="'Montserrat'" font-size="20px" font-weight="700">4,482    </text>
 <text transform="rotate(-0 526 111.54)" x="526.002589" y="111.540883" fill="#4c6a67" font-family="'Montserrat'" font-size="22px" font-weight="600">7.7%</text>
 <path d="m199.01 35.036h48v-16.8h-48z" fill="#10302c"/>
 <text transform="rotate(-0 266.21 35.036)" x="266.20952" y="35.03625" font-family="'DejaVu Sans', 'Bitstream Vera Sans', 'Computer Modern Sans Serif', 'Lucida Grande', 'Verdana', 'Geneva', 'Lucid', 'Arial', 'Helvetica', 'Avant Garde', sans-serif" font-size="24px">movimiento</text>
 <path d="m457.26 35.036h48v-16.8h-48z" fill="#4c6a67"/>
 <text transform="rotate(-0 524.46 35.036)" x="524.46077" y="35.03625" font-family="'DejaVu Sans', 'Bitstream Vera Sans', 'Computer Modern Sans Serif', 'Lucida Grande', 'Verdana', 'Geneva', 'Lucid', 'Arial', 'Helvetica', 'Avant Garde', sans-serif" font-size="24px">sin_movimiento</text>
 <defs>
  <clipPath id="a">
   <rect x="121.34" y="73.068" width="670.21" height="973.35"/>
  </clipPath>
 </defs>
</svg>
