<svg xmlns="http://www.w3.org/2000/svg" xmlns:xlink="http://www.w3.org/1999/xlink" width="1577pt" height="758.733" viewBox="0 0 1577 569.05"><defs><style>*{stroke-linejoin:round;stroke-linecap:butt}</style></defs><path fill="#fff" d="M0 569.05h1577V0H0z"/><path fill="#fff" d="M90.806 357.3h1479V15.34h-1479z"/><defs><path id="b" stroke="#000" stroke-width=".8" d="M0 0v3.5"/></defs><use xlink:href="#b" x="127.78" y="357.3" stroke="#000" stroke-width=".8"/><text font-family="'Poppins'" font-size="25" font-weight="500" transform="rotate(-90 317 195.77)">06-08-2015</text><use xlink:href="#b" x="201.728" y="357.3" stroke="#000" stroke-width=".8"/><text font-family="'Poppins'" font-size="25" font-weight="500" transform="rotate(-90 350.375 155.195)">18-06-2016</text><use xlink:href="#b" x="275.676" y="357.3" stroke="#000" stroke-width=".8"/><text font-family="'Poppins'" font-size="25" font-weight="500" transform="rotate(-90 390.155 121.025)">29-06-2016</text><use xlink:href="#b" x="349.624" y="357.3" stroke="#000" stroke-width=".8"/><text font-family="'Poppins'" font-size="25" font-weight="500" transform="rotate(-90 425.96 82.89)">06-07-2017</text><use xlink:href="#b" x="423.572" y="357.3" stroke="#000" stroke-width=".8"/><text font-family="'Poppins'" font-size="25" font-weight="500" transform="rotate(-90 456.835 39.815)">21-01-2018</text><use xlink:href="#b" x="497.52" y="357.3" stroke="#000" stroke-width=".8"/><text font-family="'Poppins'" font-size="25" font-weight="500" transform="rotate(-90 498.285 7.315)">18-04-2018</text><use xlink:href="#b" x="571.468" y="357.3" stroke="#000" stroke-width=".8"/><text font-family="'Poppins'" font-size="25" font-weight="500" transform="rotate(-90 536.42 -28.5)">22-02-2019</text><use xlink:href="#b" x="645.416" y="357.3" stroke="#000" stroke-width=".8"/><text font-family="'Poppins'" font-size="25" font-weight="500" transform="rotate(-90 575.885 -62.985)">04-06-2019</text><use xlink:href="#b" x="719.364" y="357.3" stroke="#000" stroke-width=".8"/><text font-family="'Poppins'" font-size="25" font-weight="500" transform="rotate(-90 614.955 -97.855)">02-04-2020</text><use xlink:href="#b" x="793.312" y="357.3" stroke="#000" stroke-width=".8"/><text font-family="'Poppins'" font-size="25" font-weight="500" transform="rotate(-90 648.405 -138.355)">05-03-2021</text><use xlink:href="#b" x="867.26" y="357.3" stroke="#000" stroke-width=".8"/><text font-family="'Poppins'" font-size="25" font-weight="500" transform="rotate(-90 683.595 -177.115)">27-03-2021</text><use xlink:href="#b" x="941.208" y="357.3" stroke="#000" stroke-width=".8"/><text font-family="'Poppins'" font-size="25" font-weight="500" transform="rotate(-90 722.155 -212.505)">26-05-2021</text><use xlink:href="#b" x="1015.156" y="357.3" stroke="#000" stroke-width=".8"/><text font-family="'Poppins'" font-size="25" font-weight="500" transform="rotate(-90 751.94 -256.66)">24-11-2021</text><use xlink:href="#b" x="1089.104" y="357.3" stroke="#000" stroke-width=".8"/><text font-family="'Poppins'" font-size="25" font-weight="500" transform="rotate(-90 795.315 -287.285)">05-12-2022</text><use xlink:href="#b" x="1163.052" y="357.3" stroke="#000" stroke-width=".8"/><text font-family="'Poppins'" font-size="25" font-weight="500" transform="rotate(-90 832.575 -323.925)">24-01-2023</text><use xlink:href="#b" x="1237" y="357.3" stroke="#000" stroke-width=".8"/><text font-family="'Poppins'" font-size="25" font-weight="500" transform="rotate(-90 868.44 -361.96)">27-01-2023</text><use xlink:href="#b" x="1310.948" y="357.3" stroke="#000" stroke-width=".8"/><text font-family="'Poppins'" font-size="25" font-weight="500" transform="rotate(-90 909.91 -394.49)">28-02-2024</text><use xlink:href="#b" x="1384.896" y="357.3" stroke="#000" stroke-width=".8"/><text font-family="'Poppins'" font-size="25" font-weight="500" transform="rotate(-90 947.19 -431.11)">23-04-2024</text><use xlink:href="#b" x="1458.844" y="357.3" stroke="#000" stroke-width=".8"/><text font-family="'Poppins'" font-size="25" font-weight="500" transform="rotate(-90 983 -469.3)">22-02-2025</text><use xlink:href="#b" x="1532.792" y="357.3" stroke="#000" stroke-width=".8"/><text font-family="'Poppins'" font-size="25" font-weight="500" transform="rotate(-90 1022.5 -503.7)">04-04-2025</text><text x="830.286" y="555.3" font-family="'Poppins'" font-size="25" font-weight="500" text-anchor="middle">Fecha</text><defs><path id="c" stroke="#000" stroke-width=".8" d="M0 0h-3.5"/></defs><use xlink:href="#c" x="90.806" y="357.3" stroke="#000" stroke-width=".8"/><text x="83.806" y="365.44" font-family="'Poppins'" font-size="22" font-weight="500" text-anchor="end">0</text><use xlink:href="#c" x="90.806" y="288.908" stroke="#000" stroke-width=".8"/><text x="83.806" y="297.048" font-family="'Poppins'" font-size="22" font-weight="500" text-anchor="end">20</text><use xlink:href="#c" x="90.806" y="220.516" stroke="#000" stroke-width=".8"/><text x="83.806" y="228.656" font-family="'Poppins'" font-size="22" font-weight="500" text-anchor="end">40</text><use xlink:href="#c" x="90.806" y="152.124" stroke="#000" stroke-width=".8"/><text x="83.806" y="160.264" font-family="'Poppins'" font-size="22" font-weight="500" text-anchor="end">60</text><use xlink:href="#c" x="90.806" y="83.732" stroke="#000" stroke-width=".8"/><text x="83.806" y="91.872" font-family="'Poppins'" font-size="22" font-weight="500" text-anchor="end">80</text><use xlink:href="#c" x="90.806" y="15.34" stroke="#000" stroke-width=".8"/><text x="83.806" y="23.48" font-family="'Poppins'" font-size="22" font-weight="500" text-anchor="end">100</text><text x="24.14" y="186.32" font-family="'Poppins'" font-size="22" font-weight="500" text-anchor="middle" transform="rotate(-90 24.14 186.32)">Porcentaje</text><path fill="#10302c" d="M94.503 357.3h66.553v-70.102H94.503z" clip-path="url(#a)"/><path fill="#4c6a67" d="M94.503 287.2h66.553V84.76H94.503z" clip-path="url(#a)"/><path fill="#8fa8a6" d="M94.503 84.758h66.553V15.34H94.503z" clip-path="url(#a)"/><path fill="#10302c" d="M168.45 357.3h66.553v-80.703H168.45z" clip-path="url(#a)"/><path fill="#4c6a67" d="M168.45 276.6h66.553V83.05H168.45z" clip-path="url(#a)"/><path fill="#8fa8a6" d="M168.45 83.048h66.553V15.34H168.45z" clip-path="url(#a)"/><path fill="#10302c" d="M242.4 357.3h66.553v-71.812H242.4z" clip-path="url(#a)"/><path fill="#4c6a67" d="M242.4 285.49h66.553v-21.202H242.4z" clip-path="url(#a)"/><path fill="#8fa8a6" d="M242.4 264.29h66.553V15.34H242.4z" clip-path="url(#a)"/><path fill="#10302c" d="M316.35 357.3h66.553V198.97H316.35z" clip-path="url(#a)"/><path fill="#4c6a67" d="M316.35 198.97h66.553v-70.102H316.35z" clip-path="url(#a)"/><path fill="#8fa8a6" d="M316.35 128.87h66.553V15.34H316.35z" clip-path="url(#a)"/><path fill="#10302c" d="M390.3 357.3h66.553V200.68H390.3z" clip-path="url(#a)"/><path fill="#4c6a67" d="M390.3 200.68h66.553v-12.653H390.3z" clip-path="url(#a)"/><path fill="#8fa8a6" d="M390.3 188.03h66.553V15.34H390.3z" clip-path="url(#a)"/><path fill="#10302c" d="M464.24 357.3h66.553V244.45H464.24z" clip-path="url(#a)"/><path fill="#4c6a67" d="M464.24 244.45h66.553V135.71H464.24z" clip-path="url(#a)"/><path fill="#8fa8a6" d="M464.24 135.71h66.553V15.34H464.24z" clip-path="url(#a)"/><path fill="#10302c" d="M538.19 357.3h66.553V232.83H538.19z" clip-path="url(#a)"/><path fill="#4c6a67" d="M538.19 232.83h66.553V123.74H538.19z" clip-path="url(#a)"/><path fill="#8fa8a6" d="M538.19 123.74h66.553V15.34H538.19z" clip-path="url(#a)"/><path fill="#10302c" d="M612.14 357.3h66.553V219.15H612.14z" clip-path="url(#a)"/><path fill="#4c6a67" d="M612.14 219.15h66.553v-82.754H612.14z" clip-path="url(#a)"/><path fill="#8fa8a6" d="M612.14 136.39h66.553V15.34H612.14z" clip-path="url(#a)"/><path fill="#10302c" d="M686.09 357.3h66.553v-86.858H686.09z" clip-path="url(#a)"/><path fill="#4c6a67" d="M686.09 270.44h66.553V161.7H686.09z" clip-path="url(#a)"/><path fill="#8fa8a6" d="M686.09 161.7h66.553V15.34H686.09z" clip-path="url(#a)"/><path fill="#10302c" d="M760.04 357.3h66.553V195.55H760.04z" clip-path="url(#a)"/><path fill="#4c6a67" d="M760.04 195.55h66.553V20.81H760.04z" clip-path="url(#a)"/><path fill="#8fa8a6" d="M760.04 20.811h66.553V15.34H760.04z" clip-path="url(#a)"/><path fill="#10302c" d="M833.98 357.3h66.553v-47.874H833.98z" clip-path="url(#a)"/><path fill="#4c6a67" d="M833.98 309.43h66.553V133.32H833.98z" clip-path="url(#a)"/><path fill="#8fa8a6" d="M833.98 133.32h66.553V15.34H833.98z" clip-path="url(#a)"/><path fill="#10302c" d="M907.93 357.3h66.553V256.08H907.93z" clip-path="url(#a)"/><path fill="#4c6a67" d="M907.93 256.08h66.553v-30.434H907.93z" clip-path="url(#a)"/><path fill="#8fa8a6" d="M907.93 225.65h66.553V15.34H907.93z" clip-path="url(#a)"/><path fill="#10302c" d="M981.88 357.3h66.553V207.52H981.88z" clip-path="url(#a)"/><path fill="#4c6a67" d="M981.88 207.52h66.553V30.04H981.88z" clip-path="url(#a)"/><path fill="#8fa8a6" d="M981.88 30.044h66.553V15.34H981.88z" clip-path="url(#a)"/><path fill="#10302c" d="M1055.8 357.3h66.553v-56.765H1055.8z" clip-path="url(#a)"/><path fill="#4c6a67" d="M1055.8 300.53h66.553V42.01H1055.8z" clip-path="url(#a)"/><path fill="#8fa8a6" d="M1055.8 42.013h66.553V15.34H1055.8z" clip-path="url(#a)"/><path fill="#10302c" d="M1129.8 357.3h66.553V138.1H1129.8z" clip-path="url(#a)"/><path fill="#4c6a67" d="M1129.8 138.1h66.553v-7.181H1129.8z" clip-path="url(#a)"/><path fill="#8fa8a6" d="M1129.8 130.92h66.553V15.34H1129.8z" clip-path="url(#a)"/><path fill="#10302c" d="M1203.7 357.3h66.553v-49.926H1203.7z" clip-path="url(#a)"/><path fill="#4c6a67" d="M1203.7 307.37h66.553V91.59H1203.7z" clip-path="url(#a)"/><path fill="#8fa8a6" d="M1203.7 91.597h66.553V15.34H1203.7z" clip-path="url(#a)"/><path fill="#10302c" d="M1277.7 357.3h66.553v-82.07H1277.7z" clip-path="url(#a)"/><path fill="#4c6a67" d="M1277.7 275.23h66.553V73.13H1277.7z" clip-path="url(#a)"/><path fill="#8fa8a6" d="M1277.7 73.131h66.553V15.34H1277.7z" clip-path="url(#a)"/><path fill="#10302c" d="M1351.6 357.3h66.553V206.5H1351.6z" clip-path="url(#a)"/><path fill="#4c6a67" d="M1351.6 206.5h66.553V92.63H1351.6z" clip-path="url(#a)"/><path fill="#8fa8a6" d="M1351.6 92.623h66.553V15.34H1351.6z" clip-path="url(#a)"/><path fill="#10302c" d="M1425.6 357.3h66.553V209.92H1425.6z" clip-path="url(#a)"/><path fill="#4c6a67" d="M1425.6 209.92h66.553V50.57H1425.6z" clip-path="url(#a)"/><path fill="#8fa8a6" d="M1425.6 50.562h66.553V15.34H1425.6z" clip-path="url(#a)"/><path fill="#10302c" d="M1499.5 357.3h66.553V159.99H1499.5z" clip-path="url(#a)"/><path fill="#4c6a67" d="M1499.5 159.99h66.553V17.73H1499.5z" clip-path="url(#a)"/><path fill="#8fa8a6" d="M1499.5 17.734h66.553V15.34H1499.5z" clip-path="url(#a)"/><text x="127.78" y="326.312" fill="#fff" font-family="'Poppins'" font-size="17" font-weight="500" text-anchor="middle">20.5%</text><text x="127.78" y="190.041" fill="#fff" font-family="'Poppins'" font-size="17" font-weight="500" text-anchor="middle">59.2%</text><text x="127.78" y="54.112" fill="#fff" font-family="'Poppins'" font-size="17" font-weight="500" text-anchor="middle">20.3%</text><text x="201.728" y="321.011" fill="#fff" font-family="'Poppins'" font-size="17" font-weight="500" text-anchor="middle">23.6%</text><text x="201.728" y="183.885" fill="#fff" font-family="'Poppins'" font-size="17" font-weight="500" text-anchor="middle">56.6%</text><text x="201.728" y="53.257" fill="#fff" font-family="'Poppins'" font-size="17" font-weight="500" text-anchor="middle">19.8%</text><text x="275.676" y="325.457" fill="#fff" font-family="'Poppins'" font-size="17" font-weight="500" text-anchor="middle">21.0%</text><text x="275.676" y="143.876" fill="#fff" font-family="'Poppins'" font-size="17" font-weight="500" text-anchor="middle">72.8%</text><text x="349.624" y="282.199" fill="#fff" font-family="'Poppins'" font-size="17" font-weight="500" text-anchor="middle">46.3%</text><text x="349.624" y="167.984" fill="#fff" font-family="'Poppins'" font-size="17" font-weight="500" text-anchor="middle">20.5%</text><text x="349.624" y="76.168" fill="#fff" font-family="'Poppins'" font-size="17" font-weight="500" text-anchor="middle">33.2%</text><text x="423.572" y="283.054" fill="#fff" font-family="'Poppins'" font-size="17" font-weight="500" text-anchor="middle">45.8%</text><text x="423.572" y="105.748" fill="#fff" font-family="'Poppins'" font-size="17" font-weight="500" text-anchor="middle">50.5%</text><text x="497.52" y="304.939" fill="#fff" font-family="'Poppins'" font-size="17" font-weight="500" text-anchor="middle">33.0%</text><text x="497.52" y="194.144" fill="#fff" font-family="'Poppins'" font-size="17" font-weight="500" text-anchor="middle">31.8%</text><text x="497.52" y="79.588" fill="#fff" font-family="'Poppins'" font-size="17" font-weight="500" text-anchor="middle">35.2%</text><text x="571.468" y="299.126" fill="#fff" font-family="'Poppins'" font-size="17" font-weight="500" text-anchor="middle">36.4%</text><text x="571.468" y="182.347" fill="#fff" font-family="'Poppins'" font-size="17" font-weight="500" text-anchor="middle">31.9%</text><text x="571.468" y="73.603" fill="#fff" font-family="'Poppins'" font-size="17" font-weight="500" text-anchor="middle">31.7%</text><text x="645.416" y="292.287" fill="#fff" font-family="'Poppins'" font-size="17" font-weight="500" text-anchor="middle">40.4%</text><text x="645.416" y="181.834" fill="#fff" font-family="'Poppins'" font-size="17" font-weight="500" text-anchor="middle">24.2%</text><text x="645.416" y="79.93" fill="#fff" font-family="'Poppins'" font-size="17" font-weight="500" text-anchor="middle">35.4%</text><text x="719.364" y="317.934" fill="#fff" font-family="'Poppins'" font-size="17" font-weight="500" text-anchor="middle">25.4%</text><text x="719.364" y="220.133" fill="#fff" font-family="'Poppins'" font-size="17" font-weight="500" text-anchor="middle">31.8%</text><text x="719.364" y="92.582" fill="#fff" font-family="'Poppins'" font-size="17" font-weight="500" text-anchor="middle">42.8%</text><text x="793.312" y="280.489" fill="#fff" font-family="'Poppins'" font-size="17" font-weight="500" text-anchor="middle">47.3%</text><text x="793.312" y="112.245" fill="#fff" font-family="'Poppins'" font-size="17" font-weight="500" text-anchor="middle">51.1%</text><text x="867.26" y="337.426" fill="#fff" font-family="'Poppins'" font-size="17" font-weight="500" text-anchor="middle">14.0%</text><text x="867.26" y="225.434" fill="#fff" font-family="'Poppins'" font-size="17" font-weight="500" text-anchor="middle">51.5%</text><text x="867.26" y="78.391" fill="#fff" font-family="'Poppins'" font-size="17" font-weight="500" text-anchor="middle">34.5%</text><text x="941.208" y="310.753" fill="#fff" font-family="'Poppins'" font-size="17" font-weight="500" text-anchor="middle">29.6%</text><text x="941.208" y="124.555" fill="#fff" font-family="'Poppins'" font-size="17" font-weight="500" text-anchor="middle">61.5%</text><text x="1015.156" y="286.473" fill="#fff" font-family="'Poppins'" font-size="17" font-weight="500" text-anchor="middle">43.8%</text><text x="1015.156" y="122.846" fill="#fff" font-family="'Poppins'" font-size="17" font-weight="500" text-anchor="middle">51.9%</text><text x="1089.104" y="332.98" fill="#fff" font-family="'Poppins'" font-size="17" font-weight="500" text-anchor="middle">16.6%</text><text x="1089.104" y="175.336" fill="#fff" font-family="'Poppins'" font-size="17" font-weight="500" text-anchor="middle">75.6%</text><text x="1163.052" y="251.765" fill="#fff" font-family="'Poppins'" font-size="17" font-weight="500" text-anchor="middle">64.1%</text><text x="1163.052" y="77.194" fill="#fff" font-family="'Poppins'" font-size="17" font-weight="500" text-anchor="middle">33.8%</text><text x="1237" y="336.4" fill="#fff" font-family="'Poppins'" font-size="17" font-weight="500" text-anchor="middle">14.6%</text><text x="1237" y="203.548" fill="#fff" font-family="'Poppins'" font-size="17" font-weight="500" text-anchor="middle">63.1%</text><text x="1237" y="57.531" fill="#fff" font-family="'Poppins'" font-size="17" font-weight="500" text-anchor="middle">22.3%</text><text x="1310.948" y="320.328" fill="#fff" font-family="'Poppins'" font-size="17" font-weight="500" text-anchor="middle">24.0%</text><text x="1310.948" y="178.243" fill="#fff" font-family="'Poppins'" font-size="17" font-weight="500" text-anchor="middle">59.1%</text><text x="1310.948" y="48.298" fill="#fff" font-family="'Poppins'" font-size="17" font-weight="500" text-anchor="middle">16.9%</text><text x="1384.896" y="285.961" fill="#fff" font-family="'Poppins'" font-size="17" font-weight="500" text-anchor="middle">44.1%</text><text x="1384.896" y="153.622" fill="#fff" font-family="'Poppins'" font-size="17" font-weight="500" text-anchor="middle">33.3%</text><text x="1384.896" y="58.044" fill="#fff" font-family="'Poppins'" font-size="17" font-weight="500" text-anchor="middle">22.6%</text><text x="1458.844" y="287.67" fill="#fff" font-family="'Poppins'" font-size="17" font-weight="500" text-anchor="middle">43.1%</text><text x="1458.844" y="134.301" fill="#fff" font-family="'Poppins'" font-size="17" font-weight="500" text-anchor="middle">46.6%</text><text x="1532.792" y="262.707" fill="#fff" font-family="'Poppins'" font-size="17" font-weight="500" text-anchor="middle">57.7%</text><text x="1532.792" y="92.924" fill="#fff" font-family="'Poppins'" font-size="17" font-weight="500" text-anchor="middle">41.6%</text><defs><clipPath id="a"><path d="M90.806 15.34h1479V357.3h-1479z"/></clipPath></defs></svg>