<?xml version="1.0" encoding="utf-8" standalone="no"?>
<!DOCTYPE svg PUBLIC "-//W3C//DTD SVG 1.1//EN"
  "http://www.w3.org/Graphics/SVG/1.1/DTD/svg11.dtd">
<svg xmlns:xlink="http://www.w3.org/1999/xlink" width="1576.965937pt" height="569.050781pt" viewBox="0 0 1576.965937 569.050781" xmlns="http://www.w3.org/2000/svg" version="1.1">
 <metadata>
  <rdf:RDF xmlns:dc="http://purl.org/dc/elements/1.1/" xmlns:cc="http://creativecommons.org/ns#" xmlns:rdf="http://www.w3.org/1999/02/22-rdf-syntax-ns#">
   <cc:Work>
    <dc:type rdf:resource="http://purl.org/dc/dcmitype/StillImage"/>
    <dc:date>2025-06-04T23:18:31.775148</dc:date>
    <dc:format>image/svg+xml</dc:format>
    <dc:creator>
     <cc:Agent>
      <dc:title>Matplotlib v3.10.1, https://matplotlib.org/</dc:title>
     </cc:Agent>
    </dc:creator>
   </cc:Work>
  </rdf:RDF>
 </metadata>
 <defs>
  <style type="text/css">*{stroke-linejoin: round; stroke-linecap: butt}</style>
 </defs>
 <g id="figure_1">
  <g id="patch_1">
   <path d="M 0 569.050781 
L 1576.965937 569.050781 
L 1576.965937 0 
L 0 0 
z
" style="fill: #ffffff"/>
  </g>
  <g id="axes_1">
   <g id="patch_2">
    <path d="M 90.805937 357.3 
L 1569.765938 357.3 
L 1569.765938 15.34 
L 90.805937 15.34 
z
" style="fill: #ffffff"/>
   </g>
   <g id="matplotlib.axis_1">
    <g id="xtick_1">
     <g id="line2d_1">
      <defs>
       <path id="mcbf6cced8a" d="M 0 0 
L 0 3.5 
" style="stroke: #000000; stroke-width: 0.8"/>
      </defs>
      <g>
       <use xlink:href="#mcbf6cced8a" x="127.779938" y="357.3" style="stroke: #000000; stroke-width: 0.8"/>
      </g>
     </g>
     <g id="text_1">
      <text style="font-weight: 500; font-size: 25px; font-family: 'Poppins'" transform="translate(121.229156 512.772656) rotate(-90)">06-08-2015</text>
     </g>
    </g>
    <g id="xtick_2">
     <g id="line2d_2">
      <g>
       <use xlink:href="#mcbf6cced8a" x="201.727937" y="357.3" style="stroke: #000000; stroke-width: 0.8"/>
      </g>
     </g>
     <g id="text_2">
      <text style="font-weight: 500; font-size: 25px; font-family: 'Poppins'" transform="translate(195.177156 505.573437) rotate(-90)">18-06-2016</text>
     </g>
    </g>
    <g id="xtick_3">
     <g id="line2d_3">
      <g>
       <use xlink:href="#mcbf6cced8a" x="275.675938" y="357.3" style="stroke: #000000; stroke-width: 0.8"/>
      </g>
     </g>
     <g id="text_3">
      <text style="font-weight: 500; font-size: 25px; font-family: 'Poppins'" transform="translate(269.125156 511.175) rotate(-90)">29-06-2016</text>
     </g>
    </g>
    <g id="xtick_4">
     <g id="line2d_4">
      <g>
       <use xlink:href="#mcbf6cced8a" x="349.623938" y="357.3" style="stroke: #000000; stroke-width: 0.8"/>
      </g>
     </g>
     <g id="text_4">
      <text style="font-weight: 500; font-size: 25px; font-family: 'Poppins'" transform="translate(343.073156 508.846875) rotate(-90)">06-07-2017</text>
     </g>
    </g>
    <g id="xtick_5">
     <g id="line2d_5">
      <g>
       <use xlink:href="#mcbf6cced8a" x="423.571938" y="357.3" style="stroke: #000000; stroke-width: 0.8"/>
      </g>
     </g>
     <g id="text_5">
      <text style="font-weight: 500; font-size: 25px; font-family: 'Poppins'" transform="translate(417.021156 496.647656) rotate(-90)">21-01-2018</text>
     </g>
    </g>
    <g id="xtick_6">
     <g id="line2d_6">
      <g>
       <use xlink:href="#mcbf6cced8a" x="497.519938" y="357.3" style="stroke: #000000; stroke-width: 0.8"/>
      </g>
     </g>
     <g id="text_6">
      <text style="font-weight: 500; font-size: 25px; font-family: 'Poppins'" transform="translate(490.969156 505.596875) rotate(-90)">18-04-2018</text>
     </g>
    </g>
    <g id="xtick_7">
     <g id="line2d_7">
      <g>
       <use xlink:href="#mcbf6cced8a" x="571.467938" y="357.3" style="stroke: #000000; stroke-width: 0.8"/>
      </g>
     </g>
     <g id="text_7">
      <text style="font-weight: 500; font-size: 25px; font-family: 'Poppins'" transform="translate(564.917156 507.925) rotate(-90)">22-02-2019</text>
     </g>
    </g>
    <g id="xtick_8">
     <g id="line2d_8">
      <g>
       <use xlink:href="#mcbf6cced8a" x="645.415938" y="357.3" style="stroke: #000000; stroke-width: 0.8"/>
      </g>
     </g>
     <g id="text_8">
      <text style="font-weight: 500; font-size: 25px; font-family: 'Poppins'" transform="translate(638.865156 512.897656) rotate(-90)">04-06-2019</text>
     </g>
    </g>
    <g id="xtick_9">
     <g id="line2d_9">
      <g>
       <use xlink:href="#mcbf6cced8a" x="719.363938" y="357.3" style="stroke: #000000; stroke-width: 0.8"/>
      </g>
     </g>
     <g id="text_9">
      <text style="font-weight: 500; font-size: 25px; font-family: 'Poppins'" transform="translate(712.813156 517.096875) rotate(-90)">02-04-2020</text>
     </g>
    </g>
    <g id="xtick_10">
     <g id="line2d_10">
      <g>
       <use xlink:href="#mcbf6cced8a" x="793.311937" y="357.3" style="stroke: #000000; stroke-width: 0.8"/>
      </g>
     </g>
     <g id="text_10">
      <text style="font-weight: 500; font-size: 25px; font-family: 'Poppins'" transform="translate(786.761156 510.05) rotate(-90)">05-03-2021</text>
     </g>
    </g>
    <g id="xtick_11">
     <g id="line2d_11">
      <g>
       <use xlink:href="#mcbf6cced8a" x="867.259937" y="357.3" style="stroke: #000000; stroke-width: 0.8"/>
      </g>
     </g>
     <g id="text_11">
      <text style="font-weight: 500; font-size: 25px; font-family: 'Poppins'" transform="translate(860.709156 506.475781) rotate(-90)">27-03-2021</text>
     </g>
    </g>
    <g id="xtick_12">
     <g id="line2d_12">
      <g>
       <use xlink:href="#mcbf6cced8a" x="941.207938" y="357.3" style="stroke: #000000; stroke-width: 0.8"/>
      </g>
     </g>
     <g id="text_12">
      <text style="font-weight: 500; font-size: 25px; font-family: 'Poppins'" transform="translate(934.657156 509.651562) rotate(-90)">26-05-2021</text>
     </g>
    </g>
    <g id="xtick_13">
     <g id="line2d_13">
      <g>
       <use xlink:href="#mcbf6cced8a" x="1015.155938" y="357.3" style="stroke: #000000; stroke-width: 0.8"/>
      </g>
     </g>
     <g id="text_13">
      <text style="font-weight: 500; font-size: 25px; font-family: 'Poppins'" transform="translate(1008.605156 495.276562) rotate(-90)">24-11-2021</text>
     </g>
    </g>
    <g id="xtick_14">
     <g id="line2d_14">
      <g>
       <use xlink:href="#mcbf6cced8a" x="1089.103938" y="357.3" style="stroke: #000000; stroke-width: 0.8"/>
      </g>
     </g>
     <g id="text_14">
      <text style="font-weight: 500; font-size: 25px; font-family: 'Poppins'" transform="translate(1082.553156 508.026562) rotate(-90)">05-12-2022</text>
     </g>
    </g>
    <g id="xtick_15">
     <g id="line2d_15">
      <g>
       <use xlink:href="#mcbf6cced8a" x="1163.051938" y="357.3" style="stroke: #000000; stroke-width: 0.8"/>
      </g>
     </g>
     <g id="text_15">
      <text style="font-weight: 500; font-size: 25px; font-family: 'Poppins'" transform="translate(1156.501156 508.651562) rotate(-90)">24-01-2023</text>
     </g>
    </g>
    <g id="xtick_16">
     <g id="line2d_16">
      <g>
       <use xlink:href="#mcbf6cced8a" x="1236.999937" y="357.3" style="stroke: #000000; stroke-width: 0.8"/>
      </g>
     </g>
     <g id="text_16">
      <text style="font-weight: 500; font-size: 25px; font-family: 'Poppins'" transform="translate(1230.449156 506.475781) rotate(-90)">27-01-2023</text>
     </g>
    </g>
    <g id="xtick_17">
     <g id="line2d_17">
      <g>
       <use xlink:href="#mcbf6cced8a" x="1310.947938" y="357.3" style="stroke: #000000; stroke-width: 0.8"/>
      </g>
     </g>
     <g id="text_17">
      <text style="font-weight: 500; font-size: 25px; font-family: 'Poppins'" transform="translate(1304.397156 515.425) rotate(-90)">28-02-2024</text>
     </g>
    </g>
    <g id="xtick_18">
     <g id="line2d_18">
      <g>
       <use xlink:href="#mcbf6cced8a" x="1384.895938" y="357.3" style="stroke: #000000; stroke-width: 0.8"/>
      </g>
     </g>
     <g id="text_18">
      <text style="font-weight: 500; font-size: 25px; font-family: 'Poppins'" transform="translate(1378.345156 516.077344) rotate(-90)">23-04-2024</text>
     </g>
    </g>
    <g id="xtick_19">
     <g id="line2d_19">
      <g>
       <use xlink:href="#mcbf6cced8a" x="1458.843938" y="357.3" style="stroke: #000000; stroke-width: 0.8"/>
      </g>
     </g>
     <g id="text_19">
      <text style="font-weight: 500; font-size: 25px; font-family: 'Poppins'" transform="translate(1452.293156 513.702344) rotate(-90)">22-02-2025</text>
     </g>
    </g>
    <g id="xtick_20">
     <g id="line2d_20">
      <g>
       <use xlink:href="#mcbf6cced8a" x="1532.791938" y="357.3" style="stroke: #000000; stroke-width: 0.8"/>
      </g>
     </g>
     <g id="text_20">
      <text style="font-weight: 500; font-size: 25px; font-family: 'Poppins'" transform="translate(1526.241156 518.8) rotate(-90)">04-04-2025</text>
     </g>
    </g>
    <g id="text_21">
     <text style="font-weight: 500; font-size: 25px; font-family: 'Poppins'; text-anchor: middle" x="830.285938" y="555.3" transform="rotate(-0 830.285938 555.3)">Fecha</text>
    </g>
   </g>
   <g id="matplotlib.axis_2">
    <g id="ytick_1">
     <g id="line2d_21">
      <defs>
       <path id="m8541c9e88e" d="M 0 0 
L -3.5 0 
" style="stroke: #000000; stroke-width: 0.8"/>
      </defs>
      <g>
       <use xlink:href="#m8541c9e88e" x="90.805937" y="357.3" style="stroke: #000000; stroke-width: 0.8"/>
      </g>
     </g>
     <g id="text_22">
      <text style="font-weight: 500; font-size: 22px; font-family: 'Poppins'; text-anchor: end" x="83.805937" y="365.44" transform="rotate(-0 83.805937 365.44)">0</text>
     </g>
    </g>
    <g id="ytick_2">
     <g id="line2d_22">
      <g>
       <use xlink:href="#m8541c9e88e" x="90.805937" y="288.908" style="stroke: #000000; stroke-width: 0.8"/>
      </g>
     </g>
     <g id="text_23">
      <text style="font-weight: 500; font-size: 22px; font-family: 'Poppins'; text-anchor: end" x="83.805937" y="297.048" transform="rotate(-0 83.805937 297.048)">20</text>
     </g>
    </g>
    <g id="ytick_3">
     <g id="line2d_23">
      <g>
       <use xlink:href="#m8541c9e88e" x="90.805937" y="220.516" style="stroke: #000000; stroke-width: 0.8"/>
      </g>
     </g>
     <g id="text_24">
      <text style="font-weight: 500; font-size: 22px; font-family: 'Poppins'; text-anchor: end" x="83.805937" y="228.656" transform="rotate(-0 83.805937 228.656)">40</text>
     </g>
    </g>
    <g id="ytick_4">
     <g id="line2d_24">
      <g>
       <use xlink:href="#m8541c9e88e" x="90.805937" y="152.124" style="stroke: #000000; stroke-width: 0.8"/>
      </g>
     </g>
     <g id="text_25">
      <text style="font-weight: 500; font-size: 22px; font-family: 'Poppins'; text-anchor: end" x="83.805937" y="160.264" transform="rotate(-0 83.805937 160.264)">60</text>
     </g>
    </g>
    <g id="ytick_5">
     <g id="line2d_25">
      <g>
       <use xlink:href="#m8541c9e88e" x="90.805937" y="83.732" style="stroke: #000000; stroke-width: 0.8"/>
      </g>
     </g>
     <g id="text_26">
      <text style="font-weight: 500; font-size: 22px; font-family: 'Poppins'; text-anchor: end" x="83.805937" y="91.872" transform="rotate(-0 83.805937 91.872)">80</text>
     </g>
    </g>
    <g id="ytick_6">
     <g id="line2d_26">
      <g>
       <use xlink:href="#m8541c9e88e" x="90.805937" y="15.34" style="stroke: #000000; stroke-width: 0.8"/>
      </g>
     </g>
     <g id="text_27">
      <text style="font-weight: 500; font-size: 22px; font-family: 'Poppins'; text-anchor: end" x="83.805937" y="23.48" transform="rotate(-0 83.805937 23.48)">100</text>
     </g>
    </g>
    <g id="text_28">
     <text style="font-weight: 500; font-size: 22px; font-family: 'Poppins'; text-anchor: middle" x="24.14" y="186.32" transform="rotate(-90 24.14 186.32)">Porcentaje</text>
    </g>
   </g>
   <g id="patch_3">
    <path d="M 94.503338 357.3 
L 161.056537 357.3 
L 161.056537 287.1982 
L 94.503338 287.1982 
z
" clip-path="url(#p2337fde31f)" style="fill: #10302c"/>
   </g>
   <g id="patch_4">
    <path d="M 94.503338 287.1982 
L 161.056537 287.1982 
L 161.056537 84.75788 
L 94.503338 84.75788 
z
" clip-path="url(#p2337fde31f)" style="fill: #4c6a67"/>
   </g>
   <g id="patch_5">
    <path d="M 94.503338 84.75788 
L 161.056537 84.75788 
L 161.056537 15.34 
L 94.503338 15.34 
z
" clip-path="url(#p2337fde31f)" style="fill: #8fa8a6"/>
   </g>
   <g id="patch_6">
    <path d="M 168.451338 357.3 
L 235.004538 357.3 
L 235.004538 276.59744 
L 168.451338 276.59744 
z
" clip-path="url(#p2337fde31f)" style="fill: #10302c"/>
   </g>
   <g id="patch_7">
    <path d="M 168.451338 276.59744 
L 235.004538 276.59744 
L 235.004538 83.04808 
L 168.451338 83.04808 
z
" clip-path="url(#p2337fde31f)" style="fill: #4c6a67"/>
   </g>
   <g id="patch_8">
    <path d="M 168.451338 83.04808 
L 235.004538 83.04808 
L 235.004538 15.34 
L 168.451338 15.34 
z
" clip-path="url(#p2337fde31f)" style="fill: #8fa8a6"/>
   </g>
   <g id="patch_9">
    <path d="M 242.399338 357.3 
L 308.952538 357.3 
L 308.952538 285.4884 
L 242.399338 285.4884 
z
" clip-path="url(#p2337fde31f)" style="fill: #10302c"/>
   </g>
   <g id="patch_10">
    <path d="M 242.399338 285.4884 
L 308.952538 285.4884 
L 308.952538 264.28688 
L 242.399338 264.28688 
z
" clip-path="url(#p2337fde31f)" style="fill: #4c6a67"/>
   </g>
   <g id="patch_11">
    <path d="M 242.399338 264.28688 
L 308.952538 264.28688 
L 308.952538 15.34 
L 242.399338 15.34 
z
" clip-path="url(#p2337fde31f)" style="fill: #8fa8a6"/>
   </g>
   <g id="patch_12">
    <path d="M 316.347337 357.3 
L 382.900537 357.3 
L 382.900537 198.97252 
L 316.347337 198.97252 
z
" clip-path="url(#p2337fde31f)" style="fill: #10302c"/>
   </g>
   <g id="patch_13">
    <path d="M 316.347337 198.97252 
L 382.900537 198.97252 
L 382.900537 128.87072 
L 316.347337 128.87072 
z
" clip-path="url(#p2337fde31f)" style="fill: #4c6a67"/>
   </g>
   <g id="patch_14">
    <path d="M 316.347337 128.87072 
L 382.900537 128.87072 
L 382.900537 15.34 
L 316.347337 15.34 
z
" clip-path="url(#p2337fde31f)" style="fill: #8fa8a6"/>
   </g>
   <g id="patch_15">
    <path d="M 390.295338 357.3 
L 456.848538 357.3 
L 456.848538 200.68232 
L 390.295338 200.68232 
z
" clip-path="url(#p2337fde31f)" style="fill: #10302c"/>
   </g>
   <g id="patch_16">
    <path d="M 390.295338 200.68232 
L 456.848538 200.68232 
L 456.848538 188.0298 
L 390.295338 188.0298 
z
" clip-path="url(#p2337fde31f)" style="fill: #4c6a67"/>
   </g>
   <g id="patch_17">
    <path d="M 390.295338 188.0298 
L 456.848538 188.0298 
L 456.848538 15.34 
L 390.295338 15.34 
z
" clip-path="url(#p2337fde31f)" style="fill: #8fa8a6"/>
   </g>
   <g id="patch_18">
    <path d="M 464.243338 357.3 
L 530.796538 357.3 
L 530.796538 244.4532 
L 464.243338 244.4532 
z
" clip-path="url(#p2337fde31f)" style="fill: #10302c"/>
   </g>
   <g id="patch_19">
    <path d="M 464.243338 244.4532 
L 530.796538 244.4532 
L 530.796538 135.70992 
L 464.243338 135.70992 
z
" clip-path="url(#p2337fde31f)" style="fill: #4c6a67"/>
   </g>
   <g id="patch_20">
    <path d="M 464.243338 135.70992 
L 530.796538 135.70992 
L 530.796538 15.34 
L 464.243338 15.34 
z
" clip-path="url(#p2337fde31f)" style="fill: #8fa8a6"/>
   </g>
   <g id="patch_21">
    <path d="M 538.191338 357.3 
L 604.744538 357.3 
L 604.744538 232.82656 
L 538.191338 232.82656 
z
" clip-path="url(#p2337fde31f)" style="fill: #10302c"/>
   </g>
   <g id="patch_22">
    <path d="M 538.191338 232.82656 
L 604.744538 232.82656 
L 604.744538 123.74132 
L 538.191338 123.74132 
z
" clip-path="url(#p2337fde31f)" style="fill: #4c6a67"/>
   </g>
   <g id="patch_23">
    <path d="M 538.191338 123.74132 
L 604.744538 123.74132 
L 604.744538 15.34 
L 538.191338 15.34 
z
" clip-path="url(#p2337fde31f)" style="fill: #8fa8a6"/>
   </g>
   <g id="patch_24">
    <path d="M 612.139338 357.3 
L 678.692538 357.3 
L 678.692538 219.14816 
L 612.139338 219.14816 
z
" clip-path="url(#p2337fde31f)" style="fill: #10302c"/>
   </g>
   <g id="patch_25">
    <path d="M 612.139338 219.14816 
L 678.692538 219.14816 
L 678.692538 136.39384 
L 612.139338 136.39384 
z
" clip-path="url(#p2337fde31f)" style="fill: #4c6a67"/>
   </g>
   <g id="patch_26">
    <path d="M 612.139338 136.39384 
L 678.692538 136.39384 
L 678.692538 15.34 
L 612.139338 15.34 
z
" clip-path="url(#p2337fde31f)" style="fill: #8fa8a6"/>
   </g>
   <g id="patch_27">
    <path d="M 686.087337 357.3 
L 752.640537 357.3 
L 752.640537 270.44216 
L 686.087337 270.44216 
z
" clip-path="url(#p2337fde31f)" style="fill: #10302c"/>
   </g>
   <g id="patch_28">
    <path d="M 686.087337 270.44216 
L 752.640537 270.44216 
L 752.640537 161.69888 
L 686.087337 161.69888 
z
" clip-path="url(#p2337fde31f)" style="fill: #4c6a67"/>
   </g>
   <g id="patch_29">
    <path d="M 686.087337 161.69888 
L 752.640537 161.69888 
L 752.640537 15.34 
L 686.087337 15.34 
z
" clip-path="url(#p2337fde31f)" style="fill: #8fa8a6"/>
   </g>
   <g id="patch_30">
    <path d="M 760.035338 357.3 
L 826.588538 357.3 
L 826.588538 195.55292 
L 760.035338 195.55292 
z
" clip-path="url(#p2337fde31f)" style="fill: #10302c"/>
   </g>
   <g id="patch_31">
    <path d="M 760.035338 195.55292 
L 826.588538 195.55292 
L 826.588538 20.81136 
L 760.035338 20.81136 
z
" clip-path="url(#p2337fde31f)" style="fill: #4c6a67"/>
   </g>
   <g id="patch_32">
    <path d="M 760.035338 20.81136 
L 826.588538 20.81136 
L 826.588538 15.34 
L 760.035338 15.34 
z
" clip-path="url(#p2337fde31f)" style="fill: #8fa8a6"/>
   </g>
   <g id="patch_33">
    <path d="M 833.983338 357.3 
L 900.536538 357.3 
L 900.536538 309.4256 
L 833.983338 309.4256 
z
" clip-path="url(#p2337fde31f)" style="fill: #10302c"/>
   </g>
   <g id="patch_34">
    <path d="M 833.983338 309.4256 
L 900.536538 309.4256 
L 900.536538 133.3162 
L 833.983338 133.3162 
z
" clip-path="url(#p2337fde31f)" style="fill: #4c6a67"/>
   </g>
   <g id="patch_35">
    <path d="M 833.983338 133.3162 
L 900.536538 133.3162 
L 900.536538 15.34 
L 833.983338 15.34 
z
" clip-path="url(#p2337fde31f)" style="fill: #8fa8a6"/>
   </g>
   <g id="patch_36">
    <path d="M 907.931338 357.3 
L 974.484538 357.3 
L 974.484538 256.07984 
L 907.931338 256.07984 
z
" clip-path="url(#p2337fde31f)" style="fill: #10302c"/>
   </g>
   <g id="patch_37">
    <path d="M 907.931338 256.07984 
L 974.484538 256.07984 
L 974.484538 225.6454 
L 907.931338 225.6454 
z
" clip-path="url(#p2337fde31f)" style="fill: #4c6a67"/>
   </g>
   <g id="patch_38">
    <path d="M 907.931338 225.6454 
L 974.484538 225.6454 
L 974.484538 15.34 
L 907.931338 15.34 
z
" clip-path="url(#p2337fde31f)" style="fill: #8fa8a6"/>
   </g>
   <g id="patch_39">
    <path d="M 981.879338 357.3 
L 1048.432538 357.3 
L 1048.432538 207.52152 
L 981.879338 207.52152 
z
" clip-path="url(#p2337fde31f)" style="fill: #10302c"/>
   </g>
   <g id="patch_40">
    <path d="M 981.879338 207.52152 
L 1048.432538 207.52152 
L 1048.432538 30.04428 
L 981.879338 30.04428 
z
" clip-path="url(#p2337fde31f)" style="fill: #4c6a67"/>
   </g>
   <g id="patch_41">
    <path d="M 981.879338 30.04428 
L 1048.432538 30.04428 
L 1048.432538 15.34 
L 981.879338 15.34 
z
" clip-path="url(#p2337fde31f)" style="fill: #8fa8a6"/>
   </g>
   <g id="patch_42">
    <path d="M 1055.827338 357.3 
L 1122.380538 357.3 
L 1122.380538 300.53464 
L 1055.827338 300.53464 
z
" clip-path="url(#p2337fde31f)" style="fill: #10302c"/>
   </g>
   <g id="patch_43">
    <path d="M 1055.827338 300.53464 
L 1122.380538 300.53464 
L 1122.380538 42.01288 
L 1055.827338 42.01288 
z
" clip-path="url(#p2337fde31f)" style="fill: #4c6a67"/>
   </g>
   <g id="patch_44">
    <path d="M 1055.827338 42.01288 
L 1122.380538 42.01288 
L 1122.380538 15.34 
L 1055.827338 15.34 
z
" clip-path="url(#p2337fde31f)" style="fill: #8fa8a6"/>
   </g>
   <g id="patch_45">
    <path d="M 1129.775338 357.3 
L 1196.328538 357.3 
L 1196.328538 138.10364 
L 1129.775338 138.10364 
z
" clip-path="url(#p2337fde31f)" style="fill: #10302c"/>
   </g>
   <g id="patch_46">
    <path d="M 1129.775338 138.10364 
L 1196.328538 138.10364 
L 1196.328538 130.92248 
L 1129.775338 130.92248 
z
" clip-path="url(#p2337fde31f)" style="fill: #4c6a67"/>
   </g>
   <g id="patch_47">
    <path d="M 1129.775338 130.92248 
L 1196.328538 130.92248 
L 1196.328538 15.34 
L 1129.775338 15.34 
z
" clip-path="url(#p2337fde31f)" style="fill: #8fa8a6"/>
   </g>
   <g id="patch_48">
    <path d="M 1203.723338 357.3 
L 1270.276538 357.3 
L 1270.276538 307.37384 
L 1203.723338 307.37384 
z
" clip-path="url(#p2337fde31f)" style="fill: #10302c"/>
   </g>
   <g id="patch_49">
    <path d="M 1203.723338 307.37384 
L 1270.276538 307.37384 
L 1270.276538 91.59708 
L 1203.723338 91.59708 
z
" clip-path="url(#p2337fde31f)" style="fill: #4c6a67"/>
   </g>
   <g id="patch_50">
    <path d="M 1203.723338 91.59708 
L 1270.276538 91.59708 
L 1270.276538 15.34 
L 1203.723338 15.34 
z
" clip-path="url(#p2337fde31f)" style="fill: #8fa8a6"/>
   </g>
   <g id="patch_51">
    <path d="M 1277.671338 357.3 
L 1344.224537 357.3 
L 1344.224537 275.2296 
L 1277.671338 275.2296 
z
" clip-path="url(#p2337fde31f)" style="fill: #10302c"/>
   </g>
   <g id="patch_52">
    <path d="M 1277.671338 275.2296 
L 1344.224537 275.2296 
L 1344.224537 73.13124 
L 1277.671338 73.13124 
z
" clip-path="url(#p2337fde31f)" style="fill: #4c6a67"/>
   </g>
   <g id="patch_53">
    <path d="M 1277.671338 73.13124 
L 1344.224537 73.13124 
L 1344.224537 15.34 
L 1277.671338 15.34 
z
" clip-path="url(#p2337fde31f)" style="fill: #8fa8a6"/>
   </g>
   <g id="patch_54">
    <path d="M 1351.619338 357.3 
L 1418.172537 357.3 
L 1418.172537 206.49564 
L 1351.619338 206.49564 
z
" clip-path="url(#p2337fde31f)" style="fill: #10302c"/>
   </g>
   <g id="patch_55">
    <path d="M 1351.619338 206.49564 
L 1418.172537 206.49564 
L 1418.172537 92.62296 
L 1351.619338 92.62296 
z
" clip-path="url(#p2337fde31f)" style="fill: #4c6a67"/>
   </g>
   <g id="patch_56">
    <path d="M 1351.619338 92.62296 
L 1418.172537 92.62296 
L 1418.172537 15.34 
L 1351.619338 15.34 
z
" clip-path="url(#p2337fde31f)" style="fill: #8fa8a6"/>
   </g>
   <g id="patch_57">
    <path d="M 1425.567338 357.3 
L 1492.120537 357.3 
L 1492.120537 209.91524 
L 1425.567338 209.91524 
z
" clip-path="url(#p2337fde31f)" style="fill: #10302c"/>
   </g>
   <g id="patch_58">
    <path d="M 1425.567338 209.91524 
L 1492.120537 209.91524 
L 1492.120537 50.56188 
L 1425.567338 50.56188 
z
" clip-path="url(#p2337fde31f)" style="fill: #4c6a67"/>
   </g>
   <g id="patch_59">
    <path d="M 1425.567338 50.56188 
L 1492.120537 50.56188 
L 1492.120537 15.34 
L 1425.567338 15.34 
z
" clip-path="url(#p2337fde31f)" style="fill: #8fa8a6"/>
   </g>
   <g id="patch_60">
    <path d="M 1499.515338 357.3 
L 1566.068538 357.3 
L 1566.068538 159.98908 
L 1499.515338 159.98908 
z
" clip-path="url(#p2337fde31f)" style="fill: #10302c"/>
   </g>
   <g id="patch_61">
    <path d="M 1499.515338 159.98908 
L 1566.068538 159.98908 
L 1566.068538 17.73372 
L 1499.515338 17.73372 
z
" clip-path="url(#p2337fde31f)" style="fill: #4c6a67"/>
   </g>
   <g id="patch_62">
    <path d="M 1499.515338 17.73372 
L 1566.068538 17.73372 
L 1566.068538 15.34 
L 1499.515338 15.34 
z
" clip-path="url(#p2337fde31f)" style="fill: #8fa8a6"/>
   </g>
   <g id="text_29">
    <text style="font-weight: 500; font-size: 17px; font-family: 'Poppins'; text-anchor: middle; fill: #ffffff" x="127.779938" y="326.311834" transform="rotate(-0 127.779938 326.311834)">20.5%</text>
   </g>
   <g id="text_30">
    <text style="font-weight: 500; font-size: 17px; font-family: 'Poppins'; text-anchor: middle; fill: #ffffff" x="127.779938" y="190.040774" transform="rotate(-0 127.779938 190.040774)">59.2%</text>
   </g>
   <g id="text_31">
    <text style="font-weight: 500; font-size: 17px; font-family: 'Poppins'; text-anchor: middle; fill: #ffffff" x="127.779938" y="54.111674" transform="rotate(-0 127.779938 54.111674)">20.3%</text>
   </g>
   <g id="text_32">
    <text style="font-weight: 500; font-size: 17px; font-family: 'Poppins'; text-anchor: middle; fill: #ffffff" x="201.727937" y="321.011454" transform="rotate(-0 201.727937 321.011454)">23.6%</text>
   </g>
   <g id="text_33">
    <text style="font-weight: 500; font-size: 17px; font-family: 'Poppins'; text-anchor: middle; fill: #ffffff" x="201.727937" y="183.885494" transform="rotate(-0 201.727937 183.885494)">56.6%</text>
   </g>
   <g id="text_34">
    <text style="font-weight: 500; font-size: 17px; font-family: 'Poppins'; text-anchor: middle; fill: #ffffff" x="201.727937" y="53.256774" transform="rotate(-0 201.727937 53.256774)">19.8%</text>
   </g>
   <g id="text_35">
    <text style="font-weight: 500; font-size: 17px; font-family: 'Poppins'; text-anchor: middle; fill: #ffffff" x="275.675938" y="325.456934" transform="rotate(-0 275.675938 325.456934)">21.0%</text>
   </g>
   <g id="text_36">
    <text style="font-weight: 500; font-size: 17px; font-family: 'Poppins'; text-anchor: middle; fill: #ffffff" x="275.675938" y="143.876174" transform="rotate(-0 275.675938 143.876174)">72.8%</text>
   </g>
   <g id="text_37">
    <text style="font-weight: 500; font-size: 17px; font-family: 'Poppins'; text-anchor: middle; fill: #ffffff" x="349.623938" y="282.198994" transform="rotate(-0 349.623938 282.198994)">46.3%</text>
   </g>
   <g id="text_38">
    <text style="font-weight: 500; font-size: 17px; font-family: 'Poppins'; text-anchor: middle; fill: #ffffff" x="349.623938" y="167.984354" transform="rotate(-0 349.623938 167.984354)">20.5%</text>
   </g>
   <g id="text_39">
    <text style="font-weight: 500; font-size: 17px; font-family: 'Poppins'; text-anchor: middle; fill: #ffffff" x="349.623938" y="76.168094" transform="rotate(-0 349.623938 76.168094)">33.2%</text>
   </g>
   <g id="text_40">
    <text style="font-weight: 500; font-size: 17px; font-family: 'Poppins'; text-anchor: middle; fill: #ffffff" x="423.571938" y="283.053894" transform="rotate(-0 423.571938 283.053894)">45.8%</text>
   </g>
   <g id="text_41">
    <text style="font-weight: 500; font-size: 17px; font-family: 'Poppins'; text-anchor: middle; fill: #ffffff" x="423.571938" y="105.747634" transform="rotate(-0 423.571938 105.747634)">50.5%</text>
   </g>
   <g id="text_42">
    <text style="font-weight: 500; font-size: 17px; font-family: 'Poppins'; text-anchor: middle; fill: #ffffff" x="497.519938" y="304.939334" transform="rotate(-0 497.519938 304.939334)">33.0%</text>
   </g>
   <g id="text_43">
    <text style="font-weight: 500; font-size: 17px; font-family: 'Poppins'; text-anchor: middle; fill: #ffffff" x="497.519938" y="194.144294" transform="rotate(-0 497.519938 194.144294)">31.8%</text>
   </g>
   <g id="text_44">
    <text style="font-weight: 500; font-size: 17px; font-family: 'Poppins'; text-anchor: middle; fill: #ffffff" x="497.519938" y="79.587694" transform="rotate(-0 497.519938 79.587694)">35.2%</text>
   </g>
   <g id="text_45">
    <text style="font-weight: 500; font-size: 17px; font-family: 'Poppins'; text-anchor: middle; fill: #ffffff" x="571.467938" y="299.126014" transform="rotate(-0 571.467938 299.126014)">36.4%</text>
   </g>
   <g id="text_46">
    <text style="font-weight: 500; font-size: 17px; font-family: 'Poppins'; text-anchor: middle; fill: #ffffff" x="571.467938" y="182.346674" transform="rotate(-0 571.467938 182.346674)">31.9%</text>
   </g>
   <g id="text_47">
    <text style="font-weight: 500; font-size: 17px; font-family: 'Poppins'; text-anchor: middle; fill: #ffffff" x="571.467938" y="73.603394" transform="rotate(-0 571.467938 73.603394)">31.7%</text>
   </g>
   <g id="text_48">
    <text style="font-weight: 500; font-size: 17px; font-family: 'Poppins'; text-anchor: middle; fill: #ffffff" x="645.415938" y="292.286814" transform="rotate(-0 645.415938 292.286814)">40.4%</text>
   </g>
   <g id="text_49">
    <text style="font-weight: 500; font-size: 17px; font-family: 'Poppins'; text-anchor: middle; fill: #ffffff" x="645.415938" y="181.833734" transform="rotate(-0 645.415938 181.833734)">24.2%</text>
   </g>
   <g id="text_50">
    <text style="font-weight: 500; font-size: 17px; font-family: 'Poppins'; text-anchor: middle; fill: #ffffff" x="645.415938" y="79.929654" transform="rotate(-0 645.415938 79.929654)">35.4%</text>
   </g>
   <g id="text_51">
    <text style="font-weight: 500; font-size: 17px; font-family: 'Poppins'; text-anchor: middle; fill: #ffffff" x="719.363938" y="317.933814" transform="rotate(-0 719.363938 317.933814)">25.4%</text>
   </g>
   <g id="text_52">
    <text style="font-weight: 500; font-size: 17px; font-family: 'Poppins'; text-anchor: middle; fill: #ffffff" x="719.363938" y="220.133254" transform="rotate(-0 719.363938 220.133254)">31.8%</text>
   </g>
   <g id="text_53">
    <text style="font-weight: 500; font-size: 17px; font-family: 'Poppins'; text-anchor: middle; fill: #ffffff" x="719.363938" y="92.582174" transform="rotate(-0 719.363938 92.582174)">42.8%</text>
   </g>
   <g id="text_54">
    <text style="font-weight: 500; font-size: 17px; font-family: 'Poppins'; text-anchor: middle; fill: #ffffff" x="793.311937" y="280.489194" transform="rotate(-0 793.311937 280.489194)">47.3%</text>
   </g>
   <g id="text_55">
    <text style="font-weight: 500; font-size: 17px; font-family: 'Poppins'; text-anchor: middle; fill: #ffffff" x="793.311937" y="112.244874" transform="rotate(-0 793.311937 112.244874)">51.1%</text>
   </g>
   <g id="text_56">
    <text style="font-weight: 500; font-size: 17px; font-family: 'Poppins'; text-anchor: middle; fill: #ffffff" x="867.259937" y="337.425534" transform="rotate(-0 867.259937 337.425534)">14.0%</text>
   </g>
   <g id="text_57">
    <text style="font-weight: 500; font-size: 17px; font-family: 'Poppins'; text-anchor: middle; fill: #ffffff" x="867.259937" y="225.433634" transform="rotate(-0 867.259937 225.433634)">51.5%</text>
   </g>
   <g id="text_58">
    <text style="font-weight: 500; font-size: 17px; font-family: 'Poppins'; text-anchor: middle; fill: #ffffff" x="867.259937" y="78.390834" transform="rotate(-0 867.259937 78.390834)">34.5%</text>
   </g>
   <g id="text_59">
    <text style="font-weight: 500; font-size: 17px; font-family: 'Poppins'; text-anchor: middle; fill: #ffffff" x="941.207938" y="310.752654" transform="rotate(-0 941.207938 310.752654)">29.6%</text>
   </g>
   <g id="text_60">
    <text style="font-weight: 500; font-size: 17px; font-family: 'Poppins'; text-anchor: middle; fill: #ffffff" x="941.207938" y="124.555434" transform="rotate(-0 941.207938 124.555434)">61.5%</text>
   </g>
   <g id="text_61">
    <text style="font-weight: 500; font-size: 17px; font-family: 'Poppins'; text-anchor: middle; fill: #ffffff" x="1015.155938" y="286.473494" transform="rotate(-0 1015.155938 286.473494)">43.8%</text>
   </g>
   <g id="text_62">
    <text style="font-weight: 500; font-size: 17px; font-family: 'Poppins'; text-anchor: middle; fill: #ffffff" x="1015.155938" y="122.845634" transform="rotate(-0 1015.155938 122.845634)">51.9%</text>
   </g>
   <g id="text_63">
    <text style="font-weight: 500; font-size: 17px; font-family: 'Poppins'; text-anchor: middle; fill: #ffffff" x="1089.103938" y="332.980054" transform="rotate(-0 1089.103938 332.980054)">16.6%</text>
   </g>
   <g id="text_64">
    <text style="font-weight: 500; font-size: 17px; font-family: 'Poppins'; text-anchor: middle; fill: #ffffff" x="1089.103938" y="175.336494" transform="rotate(-0 1089.103938 175.336494)">75.6%</text>
   </g>
   <g id="text_65">
    <text style="font-weight: 500; font-size: 17px; font-family: 'Poppins'; text-anchor: middle; fill: #ffffff" x="1163.051938" y="251.764554" transform="rotate(-0 1163.051938 251.764554)">64.1%</text>
   </g>
   <g id="text_66">
    <text style="font-weight: 500; font-size: 17px; font-family: 'Poppins'; text-anchor: middle; fill: #ffffff" x="1163.051938" y="77.193974" transform="rotate(-0 1163.051938 77.193974)">33.8%</text>
   </g>
   <g id="text_67">
    <text style="font-weight: 500; font-size: 17px; font-family: 'Poppins'; text-anchor: middle; fill: #ffffff" x="1236.999937" y="336.399654" transform="rotate(-0 1236.999937 336.399654)">14.6%</text>
   </g>
   <g id="text_68">
    <text style="font-weight: 500; font-size: 17px; font-family: 'Poppins'; text-anchor: middle; fill: #ffffff" x="1236.999937" y="203.548194" transform="rotate(-0 1236.999937 203.548194)">63.1%</text>
   </g>
   <g id="text_69">
    <text style="font-weight: 500; font-size: 17px; font-family: 'Poppins'; text-anchor: middle; fill: #ffffff" x="1236.999937" y="57.531274" transform="rotate(-0 1236.999937 57.531274)">22.3%</text>
   </g>
   <g id="text_70">
    <text style="font-weight: 500; font-size: 17px; font-family: 'Poppins'; text-anchor: middle; fill: #ffffff" x="1310.947938" y="320.327534" transform="rotate(-0 1310.947938 320.327534)">24.0%</text>
   </g>
   <g id="text_71">
    <text style="font-weight: 500; font-size: 17px; font-family: 'Poppins'; text-anchor: middle; fill: #ffffff" x="1310.947938" y="178.243154" transform="rotate(-0 1310.947938 178.243154)">59.1%</text>
   </g>
   <g id="text_72">
    <text style="font-weight: 500; font-size: 17px; font-family: 'Poppins'; text-anchor: middle; fill: #ffffff" x="1310.947938" y="48.298354" transform="rotate(-0 1310.947938 48.298354)">16.9%</text>
   </g>
   <g id="text_73">
    <text style="font-weight: 500; font-size: 17px; font-family: 'Poppins'; text-anchor: middle; fill: #ffffff" x="1384.895938" y="285.960554" transform="rotate(-0 1384.895938 285.960554)">44.1%</text>
   </g>
   <g id="text_74">
    <text style="font-weight: 500; font-size: 17px; font-family: 'Poppins'; text-anchor: middle; fill: #ffffff" x="1384.895938" y="153.622034" transform="rotate(-0 1384.895938 153.622034)">33.3%</text>
   </g>
   <g id="text_75">
    <text style="font-weight: 500; font-size: 17px; font-family: 'Poppins'; text-anchor: middle; fill: #ffffff" x="1384.895938" y="58.044214" transform="rotate(-0 1384.895938 58.044214)">22.6%</text>
   </g>
   <g id="text_76">
    <text style="font-weight: 500; font-size: 17px; font-family: 'Poppins'; text-anchor: middle; fill: #ffffff" x="1458.843938" y="287.670354" transform="rotate(-0 1458.843938 287.670354)">43.1%</text>
   </g>
   <g id="text_77">
    <text style="font-weight: 500; font-size: 17px; font-family: 'Poppins'; text-anchor: middle; fill: #ffffff" x="1458.843938" y="134.301294" transform="rotate(-0 1458.843938 134.301294)">46.6%</text>
   </g>
   <g id="text_78">
    <text style="font-weight: 500; font-size: 17px; font-family: 'Poppins'; text-anchor: middle; fill: #ffffff" x="1532.791938" y="262.707274" transform="rotate(-0 1532.791938 262.707274)">57.7%</text>
   </g>
   <g id="text_79">
    <text style="font-weight: 500; font-size: 17px; font-family: 'Poppins'; text-anchor: middle; fill: #ffffff" x="1532.791938" y="92.924134" transform="rotate(-0 1532.791938 92.924134)">41.6%</text>
   </g>
  </g>
 </g>
 <defs>
  <clipPath id="p2337fde31f">
   <rect x="90.805937" y="15.34" width="1478.96" height="341.96"/>
  </clipPath>
 </defs>
</svg>
