<svg xmlns="http://www.w3.org/2000/svg" xmlns:xlink="http://www.w3.org/1999/xlink" width="856.81pt" height="1072.7pt" viewBox="0 0 856.81 1072.7"><defs><style>*{stroke-linejoin:round;stroke-linecap:butt}</style></defs><path fill="#fff" d="M0 1072.7h856.81V0H0z"/><path fill="#fff" d="M84.978 1035.1h764.63V7.2H84.978z"/><defs><path id="c" stroke="#000" stroke-width=".8" d="M0 0v3.5"/></defs><use xlink:href="#c" x="84.978" y="1035.08" stroke="#000" stroke-width=".8"/><text x="84.978" y="1060.631" font-family="'Montserrat'" font-size="25" font-weight="500" text-anchor="middle">0</text><use xlink:href="#c" x="219.645" y="1035.08" stroke="#000" stroke-width=".8"/><text x="219.645" y="1060.631" font-family="'Montserrat'" font-size="25" font-weight="500" text-anchor="middle">2,000</text><use xlink:href="#c" x="354.311" y="1035.08" stroke="#000" stroke-width=".8"/><text x="354.311" y="1060.631" font-family="'Montserrat'" font-size="25" font-weight="500" text-anchor="middle">4,000</text><use xlink:href="#c" x="488.978" y="1035.08" stroke="#000" stroke-width=".8"/><text x="488.978" y="1060.631" font-family="'Montserrat'" font-size="25" font-weight="500" text-anchor="middle">6,000</text><use xlink:href="#c" x="623.644" y="1035.08" stroke="#000" stroke-width=".8"/><text x="623.644" y="1060.631" font-family="'Montserrat'" font-size="25" font-weight="500" text-anchor="middle">8,000</text><use xlink:href="#c" x="758.311" y="1035.08" stroke="#000" stroke-width=".8"/><text x="758.311" y="1060.631" font-family="'Montserrat'" font-size="25" font-weight="500" text-anchor="middle">10,000</text><defs><path id="b" stroke="#000" stroke-width=".8" d="M0 0h-3.5"/></defs><use xlink:href="#b" x="84.978" y="1010.607" stroke="#000" stroke-width=".8"/><text x="77.978" y="1016.634" font-family="'Montserrat'" font-size="22" font-weight="500" text-anchor="end">Previo</text><use xlink:href="#b" x="84.978" y="961.66" stroke="#000" stroke-width=".8"/><text font-family="'Montserrat'" font-size="22" font-weight="500" transform="rotate(-90 521.43 447.72)">...</text><use xlink:href="#b" x="84.978" y="912.713" stroke="#000" stroke-width=".8"/><text x="77.978" y="920.876" font-family="'Montserrat'" font-size="22" font-weight="500" text-anchor="end">2007</text><use xlink:href="#b" x="84.978" y="863.767" stroke="#000" stroke-width=".8"/><text x="77.978" y="871.929" font-family="'Montserrat'" font-size="22" font-weight="500" text-anchor="end">2008</text><use xlink:href="#b" x="84.978" y="814.82" stroke="#000" stroke-width=".8"/><text x="77.978" y="822.982" font-family="'Montserrat'" font-size="22" font-weight="500" text-anchor="end">2009</text><use xlink:href="#b" x="84.978" y="765.873" stroke="#000" stroke-width=".8"/><text x="77.978" y="774.036" font-family="'Montserrat'" font-size="22" font-weight="500" text-anchor="end">2010</text><use xlink:href="#b" x="84.978" y="716.927" stroke="#000" stroke-width=".8"/><text x="77.978" y="725.089" font-family="'Montserrat'" font-size="22" font-weight="500" text-anchor="end">2011</text><use xlink:href="#b" x="84.978" y="667.98" stroke="#000" stroke-width=".8"/><text x="77.978" y="676.142" font-family="'Montserrat'" font-size="22" font-weight="500" text-anchor="end">2012</text><use xlink:href="#b" x="84.978" y="619.033" stroke="#000" stroke-width=".8"/><text x="77.978" y="627.196" font-family="'Montserrat'" font-size="22" font-weight="500" text-anchor="end">2013</text><use xlink:href="#b" x="84.978" y="570.087" stroke="#000" stroke-width=".8"/><text x="77.978" y="578.249" font-family="'Montserrat'" font-size="22" font-weight="500" text-anchor="end">2014</text><use xlink:href="#b" x="84.978" y="521.14" stroke="#000" stroke-width=".8"/><text x="77.978" y="529.302" font-family="'Montserrat'" font-size="22" font-weight="500" text-anchor="end">2015</text><use xlink:href="#b" x="84.978" y="472.193" stroke="#000" stroke-width=".8"/><text x="77.978" y="480.356" font-family="'Montserrat'" font-size="22" font-weight="500" text-anchor="end">2016</text><use xlink:href="#b" x="84.978" y="423.247" stroke="#000" stroke-width=".8"/><text x="77.978" y="431.409" font-family="'Montserrat'" font-size="22" font-weight="500" text-anchor="end">2017</text><use xlink:href="#b" x="84.978" y="374.3" stroke="#000" stroke-width=".8"/><text x="77.978" y="382.462" font-family="'Montserrat'" font-size="22" font-weight="500" text-anchor="end">2018</text><use xlink:href="#b" x="84.978" y="325.353" stroke="#000" stroke-width=".8"/><text x="77.978" y="333.516" font-family="'Montserrat'" font-size="22" font-weight="500" text-anchor="end">2019</text><use xlink:href="#b" x="84.978" y="276.407" stroke="#000" stroke-width=".8"/><text x="77.978" y="284.569" font-family="'Montserrat'" font-size="22" font-weight="500" text-anchor="end">2020</text><use xlink:href="#b" x="84.978" y="227.46" stroke="#000" stroke-width=".8"/><text x="77.978" y="235.622" font-family="'Montserrat'" font-size="22" font-weight="500" text-anchor="end">2021</text><use xlink:href="#b" x="84.978" y="178.513" stroke="#000" stroke-width=".8"/><text x="77.978" y="186.676" font-family="'Montserrat'" font-size="22" font-weight="500" text-anchor="end">2022</text><use xlink:href="#b" x="84.978" y="129.567" stroke="#000" stroke-width=".8"/><text x="77.978" y="137.729" font-family="'Montserrat'" font-size="22" font-weight="500" text-anchor="end">2023</text><use xlink:href="#b" x="84.978" y="80.62" stroke="#000" stroke-width=".8"/><text x="77.978" y="88.782" font-family="'Montserrat'" font-size="22" font-weight="500" text-anchor="end">2024</text><use xlink:href="#b" x="84.978" y="31.673" stroke="#000" stroke-width=".8"/><text x="77.978" y="39.836" font-family="'Montserrat'" font-size="22" font-weight="500" text-anchor="end">2025</text><path fill="#10302c" d="M84.978 1032.6h12.928v-44.052H84.978z" clip-path="url(#a)"/><path fill="#e6e6e6" d="M97.906 1032.6h21.075v-44.052H97.906z" clip-path="url(#a)"/><path fill="#10302c" d="M84.978 934.74h11.716v-44.052H84.978z" clip-path="url(#a)"/><path fill="#e6e6e6" d="M96.694 934.74h12.457v-44.052H96.694z" clip-path="url(#a)"/><path fill="#10302c" d="M84.978 885.79h15.756v-44.052H84.978z" clip-path="url(#a)"/><path fill="#e6e6e6" d="M100.73 885.79h16.631v-44.052H100.73z" clip-path="url(#a)"/><path fill="#10302c" d="M84.978 836.85h27.741v-44.052H84.978z" clip-path="url(#a)"/><path fill="#e6e6e6" d="M112.72 836.85h26.933v-44.052H112.72z" clip-path="url(#a)"/><path fill="#10302c" d="M84.978 787.9h57.368v-44.052H84.978z" clip-path="url(#a)"/><path fill="#e6e6e6" d="M142.35 787.9h77.366v-44.052H142.35z" clip-path="url(#a)"/><path fill="#10302c" d="M84.978 738.95h56.223v-44.052H84.978z" clip-path="url(#a)"/><path fill="#e6e6e6" d="M141.2 738.95h105.04v-44.052H141.2z" clip-path="url(#a)"/><path fill="#10302c" d="M84.978 690.01h45.787v-44.052H84.978z" clip-path="url(#a)"/><path fill="#e6e6e6" d="M130.76 690.01h95.479v-44.052H130.76z" clip-path="url(#a)"/><path fill="#10302c" d="M84.978 641.06h58.109v-44.052H84.978z" clip-path="url(#a)"/><path fill="#e6e6e6" d="M143.09 641.06h96.691v-44.052H143.09z" clip-path="url(#a)"/><path fill="#10302c" d="M84.978 592.11h58.513v-44.052H84.978z" clip-path="url(#a)"/><path fill="#e6e6e6" d="M143.49 592.11h91.237v-44.052H143.49z" clip-path="url(#a)"/><path fill="#10302c" d="M84.978 543.17h53.126v-44.052H84.978z" clip-path="url(#a)"/><path fill="#e6e6e6" d="M138.1 543.17h85.581v-44.052H138.1z" clip-path="url(#a)"/><path fill="#10302c" d="M84.978 494.22h65.313v-44.052H84.978z" clip-path="url(#a)"/><path fill="#e6e6e6" d="M150.29 494.22h98.105v-44.052H150.29z" clip-path="url(#a)"/><path fill="#10302c" d="M84.978 445.27h72.047v-44.052H84.978z" clip-path="url(#a)"/><path fill="#e6e6e6" d="M157.02 445.27h129.21v-44.052H157.02z" clip-path="url(#a)"/><path fill="#10302c" d="M84.978 396.33h42.285v-44.052H84.978z" clip-path="url(#a)"/><path fill="#e6e6e6" d="M127.26 396.33h121v-44.052h-121z" clip-path="url(#a)"/><path fill="#10302c" d="M84.978 347.38h46.123v-44.052H84.978z" clip-path="url(#a)"/><path fill="#e6e6e6" d="M131.1 347.38h153.12v-44.052H131.1z" clip-path="url(#a)"/><path fill="#10302c" d="M84.978 298.43h79.992v-44.052H84.978z" clip-path="url(#a)"/><path fill="#e6e6e6" d="M164.97 298.43h178.1v-44.052h-178.1z" clip-path="url(#a)"/><path fill="#10302c" d="M84.978 249.49h110.36v-44.052H84.978z" clip-path="url(#a)"/><path fill="#e6e6e6" d="M195.34 249.49h209.88v-44.052H195.34z" clip-path="url(#a)"/><path fill="#10302c" d="M84.978 200.54h101.54v-44.052H84.978z" clip-path="url(#a)"/><path fill="#e6e6e6" d="M186.52 200.54h192.17v-44.052H186.52z" clip-path="url(#a)"/><path fill="#10302c" d="M84.978 151.59h151.16v-44.052H84.978z" clip-path="url(#a)"/><path fill="#e6e6e6" d="M236.14 151.59h259.37v-44.052H236.14z" clip-path="url(#a)"/><path fill="#10302c" d="M84.978 102.65h210.82V58.598H84.978z" clip-path="url(#a)"/><path fill="#e6e6e6" d="M295.8 102.65h393.63V58.598H295.8z" clip-path="url(#a)"/><path fill="#10302c" d="M84.978 53.699h32.791V9.647H84.978z" clip-path="url(#a)"/><path fill="#e6e6e6" d="M117.77 53.699h269V9.647h-269z" clip-path="url(#a)"/><text x="139.835" y="1016.086" fill="#10302c" font-family="'Montserrat'" font-size="20" font-weight="700">38%</text><text x="130.004" y="918.193" fill="#10302c" font-family="'Montserrat'" font-size="20" font-weight="700">48%</text><text x="138.219" y="869.246" fill="#10302c" font-family="'Montserrat'" font-size="20" font-weight="700">49%</text><text x="160.506" y="820.3" fill="#10302c" font-family="'Montserrat'" font-size="20" font-weight="700">51%</text><text x="240.566" y="771.353" fill="#10302c" font-family="'Montserrat'" font-size="20" font-weight="700">43%</text><text x="267.095" y="722.406" fill="#10302c" font-family="'Montserrat'" font-size="20" font-weight="700">35%</text><text x="247.097" y="673.46" fill="#10302c" font-family="'Montserrat'" font-size="20" font-weight="700">32%</text><text x="260.631" y="624.513" fill="#10302c" font-family="'Montserrat'" font-size="20" font-weight="700">38%</text><text x="255.581" y="575.566" fill="#10302c" font-family="'Montserrat'" font-size="20" font-weight="700">39%</text><text x="244.538" y="526.62" fill="#10302c" font-family="'Montserrat'" font-size="20" font-weight="700">38%</text><text x="269.249" y="477.673" fill="#10302c" font-family="'Montserrat'" font-size="20" font-weight="700">40%</text><text x="307.091" y="428.726" fill="#10302c" font-family="'Montserrat'" font-size="20" font-weight="700">36%</text><text x="269.115" y="379.78" fill="#10302c" font-family="'Montserrat'" font-size="20" font-weight="700">26%</text><text x="305.071" y="330.833" fill="#10302c" font-family="'Montserrat'" font-size="20" font-weight="700">23%</text><text x="363.92" y="281.886" fill="#10302c" font-family="'Montserrat'" font-size="20" font-weight="700">31%</text><text x="426.069" y="232.94" fill="#10302c" font-family="'Montserrat'" font-size="20" font-weight="700">34%</text><text x="399.539" y="183.993" fill="#10302c" font-family="'Montserrat'" font-size="20" font-weight="700">35%</text><text x="516.363" y="135.046" fill="#10302c" font-family="'Montserrat'" font-size="20" font-weight="700">37%</text><text x="710.282" y="86.1" fill="#10302c" font-family="'Montserrat'" font-size="20" font-weight="700">35%</text><text x="407.619" y="37.153" fill="#10302c" font-family="'Montserrat'" font-size="20" font-weight="700">11%</text><defs><clipPath id="a"><path d="M84.978 7.2h764.63v1027.9H84.978z"/></clipPath></defs></svg>