<?xml version="1.0" encoding="UTF-8"?>
<!DOCTYPE svg  PUBLIC '-//W3C//DTD SVG 1.1//EN'  'http://www.w3.org/Graphics/SVG/1.1/DTD/svg11.dtd'>
<svg width="1958.4pt" height="568.8pt" version="1.1" viewBox="0 0 1958.4 568.8" xmlns="http://www.w3.org/2000/svg" xmlns:xlink="http://www.w3.org/1999/xlink">
 <defs>
  <style type="text/css">*{stroke-linejoin: round; stroke-linecap: butt}</style>
 </defs>
 <path d="m0 568.8h1958.4v-568.8h-1958.4z" fill="#fff"/>
 <path d="m86.033 474.17h1865.2v-466.97h-1865.2z" fill="#fff"/>
 <defs>
  <path id="b" d="m0 0v3.5" stroke="#000" stroke-width=".8"/>
 </defs>
 <use x="130.442485" y="474.17" stroke="#000000" stroke-width=".8" xlink:href="#b"/>
 <text transform="translate(137.29 561.6) rotate(-90)" font-family="'Montserrat'" font-size="25px" font-weight="500">Previo</text>
 <use x="219.26058" y="474.17" stroke="#000000" stroke-width=".8" xlink:href="#b"/>
 <text transform="rotate(-0 219.26 499.72)" x="219.26058" y="499.720781" font-family="'Montserrat'" font-size="25px" font-weight="500" text-anchor="middle">...</text>
 <use x="308.078676" y="474.17" stroke="#000000" stroke-width=".8" xlink:href="#b"/>
 <text transform="translate(303.23 543.82) rotate(-90)" font-family="'Montserrat'" font-size="25px" font-weight="500">2007</text>
 <use x="396.896771" y="474.17" stroke="#000000" stroke-width=".8" xlink:href="#b"/>
 <text transform="translate(392.05 544.97) rotate(-90)" font-family="'Montserrat'" font-size="25px" font-weight="500">2008</text>
 <use x="485.714866" y="474.17" stroke="#000000" stroke-width=".8" xlink:href="#b"/>
 <text transform="translate(480.86 544.3) rotate(-90)" font-family="'Montserrat'" font-size="25px" font-weight="500">2009</text>
 <use x="574.532961" y="474.17" stroke="#000000" stroke-width=".8" xlink:href="#b"/>
 <text transform="translate(569.68 538.12) rotate(-90)" font-family="'Montserrat'" font-size="25px" font-weight="500">2010</text>
 <use x="663.351057" y="474.17" stroke="#000000" stroke-width=".8" xlink:href="#b"/>
 <text transform="translate(658.5 530.7) rotate(-90)" font-family="'Montserrat'" font-size="25px" font-weight="500">2011</text>
 <use x="752.169152" y="474.17" stroke="#000000" stroke-width=".8" xlink:href="#b"/>
 <text transform="translate(747.32 535.8) rotate(-90)" font-family="'Montserrat'" font-size="25px" font-weight="500">2012</text>
 <use x="840.987247" y="474.17" stroke="#000000" stroke-width=".8" xlink:href="#b"/>
 <text transform="translate(836.14 535.75) rotate(-90)" font-family="'Montserrat'" font-size="25px" font-weight="500">2013</text>
 <use x="929.805342" y="474.17" stroke="#000000" stroke-width=".8" xlink:href="#b"/>
 <text transform="translate(924.95 538.17) rotate(-90)" font-family="'Montserrat'" font-size="25px" font-weight="500">2014</text>
 <use x="1018.623438" y="474.17" stroke="#000000" stroke-width=".8" xlink:href="#b"/>
 <text transform="translate(1013.8 535.8) rotate(-90)" font-family="'Montserrat'" font-size="25px" font-weight="500">2015</text>
 <use x="1107.441533" y="474.17" stroke="#000000" stroke-width=".8" xlink:href="#b"/>
 <text transform="translate(1102.6 536.87) rotate(-90)" font-family="'Montserrat'" font-size="25px" font-weight="500">2016</text>
 <use x="1196.259628" y="474.17" stroke="#000000" stroke-width=".8" xlink:href="#b"/>
 <text transform="translate(1191.4 536.4) rotate(-90)" font-family="'Montserrat'" font-size="25px" font-weight="500">2017</text>
 <use x="1285.077723" y="474.17" stroke="#000000" stroke-width=".8" xlink:href="#b"/>
 <text transform="translate(1280.2 537.55) rotate(-90)" font-family="'Montserrat'" font-size="25px" font-weight="500">2018</text>
 <use x="1373.895818" y="474.17" stroke="#000000" stroke-width=".8" xlink:href="#b"/>
 <text transform="translate(1369 536.87) rotate(-90)" font-family="'Montserrat'" font-size="25px" font-weight="500">2019</text>
 <use x="1462.713914" y="474.17" stroke="#000000" stroke-width=".8" xlink:href="#b"/>
 <text transform="translate(1457.9 543.22) rotate(-90)" font-family="'Montserrat'" font-size="25px" font-weight="500">2020</text>
 <use x="1551.532009" y="474.17" stroke="#000000" stroke-width=".8" xlink:href="#b"/>
 <text transform="translate(1546.7 535.8) rotate(-90)" font-family="'Montserrat'" font-size="25px" font-weight="500">2021</text>
 <use x="1640.350104" y="474.17" stroke="#000000" stroke-width=".8" xlink:href="#b"/>
 <text transform="translate(1635.5 540.9) rotate(-90)" font-family="'Montserrat'" font-size="25px" font-weight="500">2022</text>
 <use x="1729.168199" y="474.17" stroke="#000000" stroke-width=".8" xlink:href="#b"/>
 <text transform="translate(1724.3 540.85) rotate(-90)" font-family="'Montserrat'" font-size="25px" font-weight="500">2023</text>
 <use x="1817.986295" y="474.17" stroke="#000000" stroke-width=".8" xlink:href="#b"/>
 <text transform="translate(1813.1 543.28) rotate(-90)" font-family="'Montserrat'" font-size="25px" font-weight="500">2024</text>
 <use x="1906.80439" y="474.17" stroke="#000000" stroke-width=".8" xlink:href="#b"/>
 <text transform="translate(1902 540.9) rotate(-90)" font-family="'Montserrat'" font-size="25px" font-weight="500">2025</text>
 <defs>
  <path id="c" d="m0 0h-3.5" stroke="#000" stroke-width=".8"/>
 </defs>
 <use x="86.033438" y="474.17" stroke="#000000" stroke-width=".8" xlink:href="#c"/>
 <text transform="rotate(-0 79.033 482.33)" x="79.033438" y="482.332344" font-family="'Montserrat'" font-size="22px" font-weight="500" text-anchor="end">0</text>
 <use x="86.033438" y="391.927325" stroke="#000000" stroke-width=".8" xlink:href="#c"/>
 <text transform="rotate(-0 79.033 400.09)" x="79.033438" y="400.089669" font-family="'Montserrat'" font-size="22px" font-weight="500" text-anchor="end">2,000</text>
 <use x="86.033438" y="309.684651" stroke="#000000" stroke-width=".8" xlink:href="#c"/>
 <text transform="rotate(-0 79.033 317.85)" x="79.033438" y="317.846994" font-family="'Montserrat'" font-size="22px" font-weight="500" text-anchor="end">4,000</text>
 <use x="86.033438" y="227.441976" stroke="#000000" stroke-width=".8" xlink:href="#c"/>
 <text transform="rotate(-0 79.033 235.6)" x="79.033438" y="235.60432" font-family="'Montserrat'" font-size="22px" font-weight="500" text-anchor="end">6,000</text>
 <use x="86.033438" y="145.199301" stroke="#000000" stroke-width=".8" xlink:href="#c"/>
 <text transform="rotate(-0 79.033 153.36)" x="79.033438" y="153.361645" font-family="'Montserrat'" font-size="22px" font-weight="500" text-anchor="end">8,000</text>
 <use x="86.033438" y="62.956627" stroke="#000000" stroke-width=".8" xlink:href="#c"/>
 <text transform="rotate(-0 79.033 71.119)" x="79.033438" y="71.118971" font-family="'Montserrat'" font-size="22px" font-weight="500" text-anchor="end">10,000</text>
 <path d="m90.474 474.17h79.936v-7.8953h-79.936z" clip-path="url(#a)" fill="#10302c"/>
 <path d="m90.474 466.27h79.936v-12.871h-79.936z" clip-path="url(#a)" fill="#e6e6e6"/>
 <path d="m268.11 474.17h79.936v-7.1551h-79.936z" clip-path="url(#a)" fill="#10302c"/>
 <path d="m268.11 467.01h79.936v-7.6074h-79.936z" clip-path="url(#a)" fill="#e6e6e6"/>
 <path d="m356.93 474.17h79.936v-9.6224h-79.936z" clip-path="url(#a)" fill="#10302c"/>
 <path d="m356.93 464.55h79.936v-10.157h-79.936z" clip-path="url(#a)" fill="#e6e6e6"/>
 <path d="m445.75 474.17h79.936v-16.942h-79.936z" clip-path="url(#a)" fill="#10302c"/>
 <path d="m445.75 457.23h79.936v-16.449h-79.936z" clip-path="url(#a)" fill="#e6e6e6"/>
 <path d="m534.56 474.17h79.936v-35.035h-79.936z" clip-path="url(#a)" fill="#10302c"/>
 <path d="m534.56 439.13h79.936v-47.248h-79.936z" clip-path="url(#a)" fill="#e6e6e6"/>
 <path d="m623.38 474.17h79.936v-34.336h-79.936z" clip-path="url(#a)" fill="#10302c"/>
 <path d="m623.38 439.83h79.936v-64.149h-79.936z" clip-path="url(#a)" fill="#e6e6e6"/>
 <path d="m712.2 474.17h79.936v-27.963h-79.936z" clip-path="url(#a)" fill="#10302c"/>
 <path d="m712.2 446.21h79.936v-58.31h-79.936z" clip-path="url(#a)" fill="#e6e6e6"/>
 <path d="m801.02 474.17h79.936v-35.488h-79.936z" clip-path="url(#a)" fill="#10302c"/>
 <path d="m801.02 438.68h79.936v-59.05h-79.936z" clip-path="url(#a)" fill="#e6e6e6"/>
 <path d="m889.84 474.17h79.936v-35.734h-79.936z" clip-path="url(#a)" fill="#10302c"/>
 <path d="m889.84 438.44h79.936v-55.719h-79.936z" clip-path="url(#a)" fill="#e6e6e6"/>
 <path d="m978.66 474.17h79.936v-32.445h-79.936z" clip-path="url(#a)" fill="#10302c"/>
 <path d="m978.66 441.73h79.936v-52.265h-79.936z" clip-path="url(#a)" fill="#e6e6e6"/>
 <path d="m1067.5 474.17h79.936v-39.888h-79.936z" clip-path="url(#a)" fill="#10302c"/>
 <path d="m1067.5 434.28h79.936v-59.914h-79.936z" clip-path="url(#a)" fill="#e6e6e6"/>
 <path d="m1156.3 474.17h79.936v-44h-79.936z" clip-path="url(#a)" fill="#10302c"/>
 <path d="m1156.3 430.17h79.936v-78.912h-79.936z" clip-path="url(#a)" fill="#e6e6e6"/>
 <path d="m1245.1 474.17h79.936v-25.824h-79.936z" clip-path="url(#a)" fill="#10302c"/>
 <path d="m1245.1 448.35h79.936v-73.895h-79.936z" clip-path="url(#a)" fill="#e6e6e6"/>
 <path d="m1333.9 474.17h79.936v-28.168h-79.936z" clip-path="url(#a)" fill="#10302c"/>
 <path d="m1333.9 446h79.936v-93.51h-79.936z" clip-path="url(#a)" fill="#e6e6e6"/>
 <path d="m1422.7 474.17h79.936v-48.852h-79.936z" clip-path="url(#a)" fill="#10302c"/>
 <path d="m1422.7 425.32h79.936v-108.77h-79.936z" clip-path="url(#a)" fill="#e6e6e6"/>
 <path d="m1511.6 474.17h79.936v-67.398h-79.936z" clip-path="url(#a)" fill="#10302c"/>
 <path d="m1511.6 406.77h79.936v-128.18h-79.936z" clip-path="url(#a)" fill="#e6e6e6"/>
 <path d="m1600.4 474.17h79.936v-62.011h-79.936z" clip-path="url(#a)" fill="#10302c"/>
 <path d="m1600.4 412.16h79.936v-117.36h-79.936z" clip-path="url(#a)" fill="#e6e6e6"/>
 <path d="m1689.2 474.17h79.936v-92.317h-79.936z" clip-path="url(#a)" fill="#10302c"/>
 <path d="m1689.2 381.85h79.936v-158.4h-79.936z" clip-path="url(#a)" fill="#e6e6e6"/>
 <path d="m1778 474.17h79.936v-128.75h-79.936z" clip-path="url(#a)" fill="#10302c"/>
 <path d="m1778 345.42h79.936v-240.4h-79.936z" clip-path="url(#a)" fill="#e6e6e6"/>
 <path d="m1866.8 474.17h79.936v-20.026h-79.936z" clip-path="url(#a)" fill="#10302c"/>
 <path d="m1866.8 454.14h79.936v-164.28h-79.936z" clip-path="url(#a)" fill="#e6e6e6"/>
 <text transform="rotate(-0 130.44 434.85)" x="130.442485" y="434.846304" fill="#10302c" font-family="'Montserrat'" font-size="30px" font-weight="700" text-anchor="middle">38%</text>
 <text transform="rotate(-0 308.08 440.85)" x="308.078676" y="440.850019" fill="#10302c" font-family="'Montserrat'" font-size="30px" font-weight="700" text-anchor="middle">48%</text>
 <text transform="rotate(-0 396.9 435.83)" x="396.896771" y="435.833216" fill="#10302c" font-family="'Montserrat'" font-size="30px" font-weight="700" text-anchor="middle">49%</text>
 <text transform="rotate(-0 485.71 422.22)" x="485.714866" y="422.222054" fill="#10302c" font-family="'Montserrat'" font-size="30px" font-weight="700" text-anchor="middle">51%</text>
 <text transform="rotate(-0 574.53 373.33)" x="574.532961" y="373.328784" fill="#10302c" font-family="'Montserrat'" font-size="30px" font-weight="700" text-anchor="middle">43%</text>
 <text transform="rotate(-0 663.35 357.13)" x="663.351057" y="357.126977" fill="#10302c" font-family="'Montserrat'" font-size="30px" font-weight="700" text-anchor="middle">35%</text>
 <text transform="rotate(-0 752.17 369.34)" x="752.169152" y="369.340014" fill="#10302c" font-family="'Montserrat'" font-size="30px" font-weight="700" text-anchor="middle">32%</text>
 <text transform="rotate(-0 840.99 361.07)" x="840.987247" y="361.074625" fill="#10302c" font-family="'Montserrat'" font-size="30px" font-weight="700" text-anchor="middle">38%</text>
 <text transform="rotate(-0 929.81 364.16)" x="929.805342" y="364.158725" fill="#10302c" font-family="'Montserrat'" font-size="30px" font-weight="700" text-anchor="middle">39%</text>
 <text transform="rotate(-0 1018.6 370.9)" x="1018.623438" y="370.902625" fill="#10302c" font-family="'Montserrat'" font-size="30px" font-weight="700" text-anchor="middle">38%</text>
 <text transform="rotate(-0 1107.4 355.81)" x="1107.441533" y="355.811094" fill="#10302c" font-family="'Montserrat'" font-size="30px" font-weight="700" text-anchor="middle">40%</text>
 <text transform="rotate(-0 1196.3 332.7)" x="1196.259628" y="332.700902" fill="#10302c" font-family="'Montserrat'" font-size="30px" font-weight="700" text-anchor="middle">36%</text>
 <text transform="rotate(-0 1285.1 355.89)" x="1285.077723" y="355.893337" fill="#10302c" font-family="'Montserrat'" font-size="30px" font-weight="700" text-anchor="middle">26%</text>
 <text transform="rotate(-0 1373.9 333.93)" x="1373.895818" y="333.934542" fill="#10302c" font-family="'Montserrat'" font-size="30px" font-weight="700" text-anchor="middle">23%</text>
 <text transform="rotate(-0 1462.7 297.99)" x="1462.713914" y="297.994494" fill="#10302c" font-family="'Montserrat'" font-size="30px" font-weight="700" text-anchor="middle">31%</text>
 <text transform="rotate(-0 1551.5 260.04)" x="1551.532009" y="260.039499" fill="#10302c" font-family="'Montserrat'" font-size="30px" font-weight="700" text-anchor="middle">34%</text>
 <text transform="rotate(-0 1640.4 276.24)" x="1640.350104" y="276.241306" fill="#10302c" font-family="'Montserrat'" font-size="30px" font-weight="700" text-anchor="middle">35%</text>
 <text transform="rotate(-0 1729.2 204.9)" x="1729.168199" y="204.895786" fill="#10302c" font-family="'Montserrat'" font-size="30px" font-weight="700" text-anchor="middle">37%</text>
 <text transform="rotate(-0 1818 86.466)" x="1817.986295" y="86.466334" fill="#10302c" font-family="'Montserrat'" font-size="30px" font-weight="700" text-anchor="middle">35%</text>
 <text transform="rotate(-0 1906.8 271.31)" x="1906.80439" y="271.306746" fill="#10302c" font-family="'Montserrat'" font-size="30px" font-weight="700" text-anchor="middle">11%</text>
 <defs>
  <clipPath id="a">
   <rect x="86.033" y="7.2" width="1865.2" height="466.97"/>
  </clipPath>
 </defs>
</svg>
