<?xml version="1.0" encoding="utf-8" standalone="no"?>
<!DOCTYPE svg PUBLIC "-//W3C//DTD SVG 1.1//EN"
  "http://www.w3.org/Graphics/SVG/1.1/DTD/svg11.dtd">
<svg xmlns:xlink="http://www.w3.org/1999/xlink" width="856.808125pt" height="1072.682344pt" viewBox="0 0 856.808125 1072.682344" xmlns="http://www.w3.org/2000/svg" version="1.1">
 <metadata>
  <rdf:RDF xmlns:dc="http://purl.org/dc/elements/1.1/" xmlns:cc="http://creativecommons.org/ns#" xmlns:rdf="http://www.w3.org/1999/02/22-rdf-syntax-ns#">
   <cc:Work>
    <dc:type rdf:resource="http://purl.org/dc/dcmitype/StillImage"/>
    <dc:date>2025-06-05T00:04:06.265865</dc:date>
    <dc:format>image/svg+xml</dc:format>
    <dc:creator>
     <cc:Agent>
      <dc:title>Matplotlib v3.10.1, https://matplotlib.org/</dc:title>
     </cc:Agent>
    </dc:creator>
   </cc:Work>
  </rdf:RDF>
 </metadata>
 <defs>
  <style type="text/css">*{stroke-linejoin: round; stroke-linecap: butt}</style>
 </defs>
 <g id="figure_1">
  <g id="patch_1">
   <path d="M 0 1072.682344 
L 856.808125 1072.682344 
L 856.808125 0 
L 0 0 
z
" style="fill: #ffffff"/>
  </g>
  <g id="axes_1">
   <g id="patch_2">
    <path d="M 84.978125 1035.08 
L 849.608125 1035.08 
L 849.608125 7.2 
L 84.978125 7.2 
z
" style="fill: #ffffff"/>
   </g>
   <g id="matplotlib.axis_1">
    <g id="xtick_1">
     <g id="line2d_1">
      <defs>
       <path id="mccdc21bcfa" d="M 0 0 
L 0 3.5 
" style="stroke: #000000; stroke-width: 0.8"/>
      </defs>
      <g>
       <use xlink:href="#mccdc21bcfa" x="84.978125" y="1035.08" style="stroke: #000000; stroke-width: 0.8"/>
      </g>
     </g>
     <g id="text_1">
      <text style="font-weight: 500; font-size: 25px; font-family: 'Montserrat'; text-anchor: middle" x="84.978125" y="1060.630781" transform="rotate(-0 84.978125 1060.630781)">0</text>
     </g>
    </g>
    <g id="xtick_2">
     <g id="line2d_2">
      <g>
       <use xlink:href="#mccdc21bcfa" x="219.644627" y="1035.08" style="stroke: #000000; stroke-width: 0.8"/>
      </g>
     </g>
     <g id="text_2">
      <text style="font-weight: 500; font-size: 25px; font-family: 'Montserrat'; text-anchor: middle" x="219.644627" y="1060.630781" transform="rotate(-0 219.644627 1060.630781)">2,000</text>
     </g>
    </g>
    <g id="xtick_3">
     <g id="line2d_3">
      <g>
       <use xlink:href="#mccdc21bcfa" x="354.311128" y="1035.08" style="stroke: #000000; stroke-width: 0.8"/>
      </g>
     </g>
     <g id="text_3">
      <text style="font-weight: 500; font-size: 25px; font-family: 'Montserrat'; text-anchor: middle" x="354.311128" y="1060.630781" transform="rotate(-0 354.311128 1060.630781)">4,000</text>
     </g>
    </g>
    <g id="xtick_4">
     <g id="line2d_4">
      <g>
       <use xlink:href="#mccdc21bcfa" x="488.97763" y="1035.08" style="stroke: #000000; stroke-width: 0.8"/>
      </g>
     </g>
     <g id="text_4">
      <text style="font-weight: 500; font-size: 25px; font-family: 'Montserrat'; text-anchor: middle" x="488.97763" y="1060.630781" transform="rotate(-0 488.97763 1060.630781)">6,000</text>
     </g>
    </g>
    <g id="xtick_5">
     <g id="line2d_5">
      <g>
       <use xlink:href="#mccdc21bcfa" x="623.644132" y="1035.08" style="stroke: #000000; stroke-width: 0.8"/>
      </g>
     </g>
     <g id="text_5">
      <text style="font-weight: 500; font-size: 25px; font-family: 'Montserrat'; text-anchor: middle" x="623.644132" y="1060.630781" transform="rotate(-0 623.644132 1060.630781)">8,000</text>
     </g>
    </g>
    <g id="xtick_6">
     <g id="line2d_6">
      <g>
       <use xlink:href="#mccdc21bcfa" x="758.310634" y="1035.08" style="stroke: #000000; stroke-width: 0.8"/>
      </g>
     </g>
     <g id="text_6">
      <text style="font-weight: 500; font-size: 25px; font-family: 'Montserrat'; text-anchor: middle" x="758.310634" y="1060.630781" transform="rotate(-0 758.310634 1060.630781)">10,000</text>
     </g>
    </g>
   </g>
   <g id="matplotlib.axis_2">
    <g id="ytick_1">
     <g id="line2d_7">
      <defs>
       <path id="m71481b1af4" d="M 0 0 
L -3.5 0 
" style="stroke: #000000; stroke-width: 0.8"/>
      </defs>
      <g>
       <use xlink:href="#m71481b1af4" x="84.978125" y="1010.606667" style="stroke: #000000; stroke-width: 0.8"/>
      </g>
     </g>
     <g id="text_7">
      <text style="font-weight: 500; font-size: 22px; font-family: 'Montserrat'; text-anchor: end" x="77.978125" y="1016.634323" transform="rotate(-0 77.978125 1016.634323)">Previo</text>
     </g>
    </g>
    <g id="ytick_2">
     <g id="line2d_8">
      <g>
       <use xlink:href="#m71481b1af4" x="84.978125" y="961.66" style="stroke: #000000; stroke-width: 0.8"/>
      </g>
     </g>
     <g id="text_8">
      <text style="font-weight: 500; font-size: 22px; font-family: 'Montserrat'" transform="translate(73.70875 969.152031) rotate(-90)">...</text>
     </g>
    </g>
    <g id="ytick_3">
     <g id="line2d_9">
      <g>
       <use xlink:href="#m71481b1af4" x="84.978125" y="912.713333" style="stroke: #000000; stroke-width: 0.8"/>
      </g>
     </g>
     <g id="text_9">
      <text style="font-weight: 500; font-size: 22px; font-family: 'Montserrat'; text-anchor: end" x="77.978125" y="920.875677" transform="rotate(-0 77.978125 920.875677)">2007</text>
     </g>
    </g>
    <g id="ytick_4">
     <g id="line2d_10">
      <g>
       <use xlink:href="#m71481b1af4" x="84.978125" y="863.766667" style="stroke: #000000; stroke-width: 0.8"/>
      </g>
     </g>
     <g id="text_10">
      <text style="font-weight: 500; font-size: 22px; font-family: 'Montserrat'; text-anchor: end" x="77.978125" y="871.92901" transform="rotate(-0 77.978125 871.92901)">2008</text>
     </g>
    </g>
    <g id="ytick_5">
     <g id="line2d_11">
      <g>
       <use xlink:href="#m71481b1af4" x="84.978125" y="814.82" style="stroke: #000000; stroke-width: 0.8"/>
      </g>
     </g>
     <g id="text_11">
      <text style="font-weight: 500; font-size: 22px; font-family: 'Montserrat'; text-anchor: end" x="77.978125" y="822.982344" transform="rotate(-0 77.978125 822.982344)">2009</text>
     </g>
    </g>
    <g id="ytick_6">
     <g id="line2d_12">
      <g>
       <use xlink:href="#m71481b1af4" x="84.978125" y="765.873333" style="stroke: #000000; stroke-width: 0.8"/>
      </g>
     </g>
     <g id="text_12">
      <text style="font-weight: 500; font-size: 22px; font-family: 'Montserrat'; text-anchor: end" x="77.978125" y="774.035677" transform="rotate(-0 77.978125 774.035677)">2010</text>
     </g>
    </g>
    <g id="ytick_7">
     <g id="line2d_13">
      <g>
       <use xlink:href="#m71481b1af4" x="84.978125" y="716.926667" style="stroke: #000000; stroke-width: 0.8"/>
      </g>
     </g>
     <g id="text_13">
      <text style="font-weight: 500; font-size: 22px; font-family: 'Montserrat'; text-anchor: end" x="77.978125" y="725.08901" transform="rotate(-0 77.978125 725.08901)">2011</text>
     </g>
    </g>
    <g id="ytick_8">
     <g id="line2d_14">
      <g>
       <use xlink:href="#m71481b1af4" x="84.978125" y="667.98" style="stroke: #000000; stroke-width: 0.8"/>
      </g>
     </g>
     <g id="text_14">
      <text style="font-weight: 500; font-size: 22px; font-family: 'Montserrat'; text-anchor: end" x="77.978125" y="676.142344" transform="rotate(-0 77.978125 676.142344)">2012</text>
     </g>
    </g>
    <g id="ytick_9">
     <g id="line2d_15">
      <g>
       <use xlink:href="#m71481b1af4" x="84.978125" y="619.033333" style="stroke: #000000; stroke-width: 0.8"/>
      </g>
     </g>
     <g id="text_15">
      <text style="font-weight: 500; font-size: 22px; font-family: 'Montserrat'; text-anchor: end" x="77.978125" y="627.195677" transform="rotate(-0 77.978125 627.195677)">2013</text>
     </g>
    </g>
    <g id="ytick_10">
     <g id="line2d_16">
      <g>
       <use xlink:href="#m71481b1af4" x="84.978125" y="570.086667" style="stroke: #000000; stroke-width: 0.8"/>
      </g>
     </g>
     <g id="text_16">
      <text style="font-weight: 500; font-size: 22px; font-family: 'Montserrat'; text-anchor: end" x="77.978125" y="578.24901" transform="rotate(-0 77.978125 578.24901)">2014</text>
     </g>
    </g>
    <g id="ytick_11">
     <g id="line2d_17">
      <g>
       <use xlink:href="#m71481b1af4" x="84.978125" y="521.14" style="stroke: #000000; stroke-width: 0.8"/>
      </g>
     </g>
     <g id="text_17">
      <text style="font-weight: 500; font-size: 22px; font-family: 'Montserrat'; text-anchor: end" x="77.978125" y="529.302344" transform="rotate(-0 77.978125 529.302344)">2015</text>
     </g>
    </g>
    <g id="ytick_12">
     <g id="line2d_18">
      <g>
       <use xlink:href="#m71481b1af4" x="84.978125" y="472.193333" style="stroke: #000000; stroke-width: 0.8"/>
      </g>
     </g>
     <g id="text_18">
      <text style="font-weight: 500; font-size: 22px; font-family: 'Montserrat'; text-anchor: end" x="77.978125" y="480.355677" transform="rotate(-0 77.978125 480.355677)">2016</text>
     </g>
    </g>
    <g id="ytick_13">
     <g id="line2d_19">
      <g>
       <use xlink:href="#m71481b1af4" x="84.978125" y="423.246667" style="stroke: #000000; stroke-width: 0.8"/>
      </g>
     </g>
     <g id="text_19">
      <text style="font-weight: 500; font-size: 22px; font-family: 'Montserrat'; text-anchor: end" x="77.978125" y="431.40901" transform="rotate(-0 77.978125 431.40901)">2017</text>
     </g>
    </g>
    <g id="ytick_14">
     <g id="line2d_20">
      <g>
       <use xlink:href="#m71481b1af4" x="84.978125" y="374.3" style="stroke: #000000; stroke-width: 0.8"/>
      </g>
     </g>
     <g id="text_20">
      <text style="font-weight: 500; font-size: 22px; font-family: 'Montserrat'; text-anchor: end" x="77.978125" y="382.462344" transform="rotate(-0 77.978125 382.462344)">2018</text>
     </g>
    </g>
    <g id="ytick_15">
     <g id="line2d_21">
      <g>
       <use xlink:href="#m71481b1af4" x="84.978125" y="325.353333" style="stroke: #000000; stroke-width: 0.8"/>
      </g>
     </g>
     <g id="text_21">
      <text style="font-weight: 500; font-size: 22px; font-family: 'Montserrat'; text-anchor: end" x="77.978125" y="333.515677" transform="rotate(-0 77.978125 333.515677)">2019</text>
     </g>
    </g>
    <g id="ytick_16">
     <g id="line2d_22">
      <g>
       <use xlink:href="#m71481b1af4" x="84.978125" y="276.406667" style="stroke: #000000; stroke-width: 0.8"/>
      </g>
     </g>
     <g id="text_22">
      <text style="font-weight: 500; font-size: 22px; font-family: 'Montserrat'; text-anchor: end" x="77.978125" y="284.56901" transform="rotate(-0 77.978125 284.56901)">2020</text>
     </g>
    </g>
    <g id="ytick_17">
     <g id="line2d_23">
      <g>
       <use xlink:href="#m71481b1af4" x="84.978125" y="227.46" style="stroke: #000000; stroke-width: 0.8"/>
      </g>
     </g>
     <g id="text_23">
      <text style="font-weight: 500; font-size: 22px; font-family: 'Montserrat'; text-anchor: end" x="77.978125" y="235.622344" transform="rotate(-0 77.978125 235.622344)">2021</text>
     </g>
    </g>
    <g id="ytick_18">
     <g id="line2d_24">
      <g>
       <use xlink:href="#m71481b1af4" x="84.978125" y="178.513333" style="stroke: #000000; stroke-width: 0.8"/>
      </g>
     </g>
     <g id="text_24">
      <text style="font-weight: 500; font-size: 22px; font-family: 'Montserrat'; text-anchor: end" x="77.978125" y="186.675677" transform="rotate(-0 77.978125 186.675677)">2022</text>
     </g>
    </g>
    <g id="ytick_19">
     <g id="line2d_25">
      <g>
       <use xlink:href="#m71481b1af4" x="84.978125" y="129.566667" style="stroke: #000000; stroke-width: 0.8"/>
      </g>
     </g>
     <g id="text_25">
      <text style="font-weight: 500; font-size: 22px; font-family: 'Montserrat'; text-anchor: end" x="77.978125" y="137.72901" transform="rotate(-0 77.978125 137.72901)">2023</text>
     </g>
    </g>
    <g id="ytick_20">
     <g id="line2d_26">
      <g>
       <use xlink:href="#m71481b1af4" x="84.978125" y="80.62" style="stroke: #000000; stroke-width: 0.8"/>
      </g>
     </g>
     <g id="text_26">
      <text style="font-weight: 500; font-size: 22px; font-family: 'Montserrat'; text-anchor: end" x="77.978125" y="88.782344" transform="rotate(-0 77.978125 88.782344)">2024</text>
     </g>
    </g>
    <g id="ytick_21">
     <g id="line2d_27">
      <g>
       <use xlink:href="#m71481b1af4" x="84.978125" y="31.673333" style="stroke: #000000; stroke-width: 0.8"/>
      </g>
     </g>
     <g id="text_27">
      <text style="font-weight: 500; font-size: 22px; font-family: 'Montserrat'; text-anchor: end" x="77.978125" y="39.835677" transform="rotate(-0 77.978125 39.835677)">2025</text>
     </g>
    </g>
   </g>
   <g id="patch_3">
    <path d="M 84.978125 1032.632667 
L 97.906109 1032.632667 
L 97.906109 988.580667 
L 84.978125 988.580667 
z
" clip-path="url(#p33a48eb132)" style="fill: #10302c"/>
   </g>
   <g id="patch_4">
    <path d="M 97.906109 1032.632667 
L 118.981417 1032.632667 
L 118.981417 988.580667 
L 97.906109 988.580667 
z
" clip-path="url(#p33a48eb132)" style="fill: #e6e6e6"/>
   </g>
   <g id="patch_5">
    <path d="M 84.978125 934.739333 
L 96.694111 934.739333 
L 96.694111 890.687333 
L 84.978125 890.687333 
z
" clip-path="url(#p33a48eb132)" style="fill: #10302c"/>
   </g>
   <g id="patch_6">
    <path d="M 96.694111 934.739333 
L 109.150762 934.739333 
L 109.150762 890.687333 
L 96.694111 890.687333 
z
" clip-path="url(#p33a48eb132)" style="fill: #e6e6e6"/>
   </g>
   <g id="patch_7">
    <path d="M 84.978125 885.792667 
L 100.734106 885.792667 
L 100.734106 841.740667 
L 84.978125 841.740667 
z
" clip-path="url(#p33a48eb132)" style="fill: #10302c"/>
   </g>
   <g id="patch_8">
    <path d="M 100.734106 885.792667 
L 117.365419 885.792667 
L 117.365419 841.740667 
L 100.734106 841.740667 
z
" clip-path="url(#p33a48eb132)" style="fill: #e6e6e6"/>
   </g>
   <g id="patch_9">
    <path d="M 84.978125 836.846 
L 112.719424 836.846 
L 112.719424 792.794 
L 84.978125 792.794 
z
" clip-path="url(#p33a48eb132)" style="fill: #10302c"/>
   </g>
   <g id="patch_10">
    <path d="M 112.719424 836.846 
L 139.652725 836.846 
L 139.652725 792.794 
L 112.719424 792.794 
z
" clip-path="url(#p33a48eb132)" style="fill: #e6e6e6"/>
   </g>
   <g id="patch_11">
    <path d="M 84.978125 787.899333 
L 142.346055 787.899333 
L 142.346055 743.847333 
L 84.978125 743.847333 
z
" clip-path="url(#p33a48eb132)" style="fill: #10302c"/>
   </g>
   <g id="patch_12">
    <path d="M 142.346055 787.899333 
L 219.71196 787.899333 
L 219.71196 743.847333 
L 142.346055 743.847333 
z
" clip-path="url(#p33a48eb132)" style="fill: #e6e6e6"/>
   </g>
   <g id="patch_13">
    <path d="M 84.978125 738.952667 
L 141.201389 738.952667 
L 141.201389 694.900667 
L 84.978125 694.900667 
z
" clip-path="url(#p33a48eb132)" style="fill: #10302c"/>
   </g>
   <g id="patch_14">
    <path d="M 141.201389 738.952667 
L 246.241261 738.952667 
L 246.241261 694.900667 
L 141.201389 694.900667 
z
" clip-path="url(#p33a48eb132)" style="fill: #e6e6e6"/>
   </g>
   <g id="patch_15">
    <path d="M 84.978125 690.006 
L 130.764736 690.006 
L 130.764736 645.954 
L 84.978125 645.954 
z
" clip-path="url(#p33a48eb132)" style="fill: #10302c"/>
   </g>
   <g id="patch_16">
    <path d="M 130.764736 690.006 
L 226.243285 690.006 
L 226.243285 645.954 
L 130.764736 645.954 
z
" clip-path="url(#p33a48eb132)" style="fill: #e6e6e6"/>
   </g>
   <g id="patch_17">
    <path d="M 84.978125 641.059333 
L 143.08672 641.059333 
L 143.08672 597.007333 
L 84.978125 597.007333 
z
" clip-path="url(#p33a48eb132)" style="fill: #10302c"/>
   </g>
   <g id="patch_18">
    <path d="M 143.08672 641.059333 
L 239.777269 641.059333 
L 239.777269 597.007333 
L 143.08672 597.007333 
z
" clip-path="url(#p33a48eb132)" style="fill: #e6e6e6"/>
   </g>
   <g id="patch_19">
    <path d="M 84.978125 592.112667 
L 143.49072 592.112667 
L 143.49072 548.060667 
L 84.978125 548.060667 
z
" clip-path="url(#p33a48eb132)" style="fill: #10302c"/>
   </g>
   <g id="patch_20">
    <path d="M 143.49072 592.112667 
L 234.727275 592.112667 
L 234.727275 548.060667 
L 143.49072 548.060667 
z
" clip-path="url(#p33a48eb132)" style="fill: #e6e6e6"/>
   </g>
   <g id="patch_21">
    <path d="M 84.978125 543.166 
L 138.10406 543.166 
L 138.10406 499.114 
L 84.978125 499.114 
z
" clip-path="url(#p33a48eb132)" style="fill: #10302c"/>
   </g>
   <g id="patch_22">
    <path d="M 138.10406 543.166 
L 223.684622 543.166 
L 223.684622 499.114 
L 138.10406 499.114 
z
" clip-path="url(#p33a48eb132)" style="fill: #e6e6e6"/>
   </g>
   <g id="patch_23">
    <path d="M 84.978125 494.219333 
L 150.291378 494.219333 
L 150.291378 450.167333 
L 84.978125 450.167333 
z
" clip-path="url(#p33a48eb132)" style="fill: #10302c"/>
   </g>
   <g id="patch_24">
    <path d="M 150.291378 494.219333 
L 248.395925 494.219333 
L 248.395925 450.167333 
L 150.291378 450.167333 
z
" clip-path="url(#p33a48eb132)" style="fill: #e6e6e6"/>
   </g>
   <g id="patch_25">
    <path d="M 84.978125 445.272667 
L 157.024703 445.272667 
L 157.024703 401.220667 
L 84.978125 401.220667 
z
" clip-path="url(#p33a48eb132)" style="fill: #10302c"/>
   </g>
   <g id="patch_26">
    <path d="M 157.024703 445.272667 
L 286.237212 445.272667 
L 286.237212 401.220667 
L 157.024703 401.220667 
z
" clip-path="url(#p33a48eb132)" style="fill: #e6e6e6"/>
   </g>
   <g id="patch_27">
    <path d="M 84.978125 396.326 
L 127.263407 396.326 
L 127.263407 352.274 
L 84.978125 352.274 
z
" clip-path="url(#p33a48eb132)" style="fill: #10302c"/>
   </g>
   <g id="patch_28">
    <path d="M 127.263407 396.326 
L 248.261258 396.326 
L 248.261258 352.274 
L 127.263407 352.274 
z
" clip-path="url(#p33a48eb132)" style="fill: #e6e6e6"/>
   </g>
   <g id="patch_29">
    <path d="M 84.978125 347.379333 
L 131.101402 347.379333 
L 131.101402 303.327333 
L 84.978125 303.327333 
z
" clip-path="url(#p33a48eb132)" style="fill: #10302c"/>
   </g>
   <g id="patch_30">
    <path d="M 131.101402 347.379333 
L 284.217214 347.379333 
L 284.217214 303.327333 
L 131.101402 303.327333 
z
" clip-path="url(#p33a48eb132)" style="fill: #e6e6e6"/>
   </g>
   <g id="patch_31">
    <path d="M 84.978125 298.432667 
L 164.970027 298.432667 
L 164.970027 254.380667 
L 84.978125 254.380667 
z
" clip-path="url(#p33a48eb132)" style="fill: #10302c"/>
   </g>
   <g id="patch_32">
    <path d="M 164.970027 298.432667 
L 343.066476 298.432667 
L 343.066476 254.380667 
L 164.970027 254.380667 
z
" clip-path="url(#p33a48eb132)" style="fill: #e6e6e6"/>
   </g>
   <g id="patch_33">
    <path d="M 84.978125 249.486 
L 195.337323 249.486 
L 195.337323 205.434 
L 84.978125 205.434 
z
" clip-path="url(#p33a48eb132)" style="fill: #10302c"/>
   </g>
   <g id="patch_34">
    <path d="M 195.337323 249.486 
L 405.215066 249.486 
L 405.215066 205.434 
L 195.337323 205.434 
z
" clip-path="url(#p33a48eb132)" style="fill: #e6e6e6"/>
   </g>
   <g id="patch_35">
    <path d="M 84.978125 200.539333 
L 186.516667 200.539333 
L 186.516667 156.487333 
L 84.978125 156.487333 
z
" clip-path="url(#p33a48eb132)" style="fill: #10302c"/>
   </g>
   <g id="patch_36">
    <path d="M 186.516667 200.539333 
L 378.685765 200.539333 
L 378.685765 156.487333 
L 186.516667 156.487333 
z
" clip-path="url(#p33a48eb132)" style="fill: #e6e6e6"/>
   </g>
   <g id="patch_37">
    <path d="M 84.978125 151.592667 
L 236.141273 151.592667 
L 236.141273 107.540667 
L 84.978125 107.540667 
z
" clip-path="url(#p33a48eb132)" style="fill: #10302c"/>
   </g>
   <g id="patch_38">
    <path d="M 236.141273 151.592667 
L 495.508955 151.592667 
L 495.508955 107.540667 
L 236.141273 107.540667 
z
" clip-path="url(#p33a48eb132)" style="fill: #e6e6e6"/>
   </g>
   <g id="patch_39">
    <path d="M 84.978125 102.646 
L 295.798533 102.646 
L 295.798533 58.594 
L 84.978125 58.594 
z
" clip-path="url(#p33a48eb132)" style="fill: #10302c"/>
   </g>
   <g id="patch_40">
    <path d="M 295.798533 102.646 
L 689.428718 102.646 
L 689.428718 58.594 
L 295.798533 58.594 
z
" clip-path="url(#p33a48eb132)" style="fill: #e6e6e6"/>
   </g>
   <g id="patch_41">
    <path d="M 84.978125 53.699333 
L 117.769418 53.699333 
L 117.769418 9.647333 
L 84.978125 9.647333 
z
" clip-path="url(#p33a48eb132)" style="fill: #10302c"/>
   </g>
   <g id="patch_42">
    <path d="M 117.769418 53.699333 
L 386.765755 53.699333 
L 386.765755 9.647333 
L 117.769418 9.647333 
z
" clip-path="url(#p33a48eb132)" style="fill: #e6e6e6"/>
   </g>
   <g id="text_28">
    <text style="font-weight: 700; font-size: 20px; font-family: 'Montserrat'; text-anchor: start; fill: #10302c" x="139.834962" y="1016.086354" transform="rotate(-0 139.834962 1016.086354)">38%</text>
   </g>
   <g id="text_29">
    <text style="font-weight: 700; font-size: 20px; font-family: 'Montserrat'; text-anchor: start; fill: #10302c" x="130.004308" y="918.193021" transform="rotate(-0 130.004308 918.193021)">48%</text>
   </g>
   <g id="text_30">
    <text style="font-weight: 700; font-size: 20px; font-family: 'Montserrat'; text-anchor: start; fill: #10302c" x="138.218964" y="869.246354" transform="rotate(-0 138.218964 869.246354)">49%</text>
   </g>
   <g id="text_31">
    <text style="font-weight: 700; font-size: 20px; font-family: 'Montserrat'; text-anchor: start; fill: #10302c" x="160.50627" y="820.299687" transform="rotate(-0 160.50627 820.299687)">51%</text>
   </g>
   <g id="text_32">
    <text style="font-weight: 700; font-size: 20px; font-family: 'Montserrat'; text-anchor: start; fill: #10302c" x="240.565505" y="771.353021" transform="rotate(-0 240.565505 771.353021)">43%</text>
   </g>
   <g id="text_33">
    <text style="font-weight: 700; font-size: 20px; font-family: 'Montserrat'; text-anchor: start; fill: #10302c" x="267.094806" y="722.406354" transform="rotate(-0 267.094806 722.406354)">35%</text>
   </g>
   <g id="text_34">
    <text style="font-weight: 700; font-size: 20px; font-family: 'Montserrat'; text-anchor: start; fill: #10302c" x="247.096831" y="673.459687" transform="rotate(-0 247.096831 673.459687)">32%</text>
   </g>
   <g id="text_35">
    <text style="font-weight: 700; font-size: 20px; font-family: 'Montserrat'; text-anchor: start; fill: #10302c" x="260.630814" y="624.513021" transform="rotate(-0 260.630814 624.513021)">38%</text>
   </g>
   <g id="text_36">
    <text style="font-weight: 700; font-size: 20px; font-family: 'Montserrat'; text-anchor: start; fill: #10302c" x="255.58082" y="575.566354" transform="rotate(-0 255.58082 575.566354)">39%</text>
   </g>
   <g id="text_37">
    <text style="font-weight: 700; font-size: 20px; font-family: 'Montserrat'; text-anchor: start; fill: #10302c" x="244.538167" y="526.619687" transform="rotate(-0 244.538167 526.619687)">38%</text>
   </g>
   <g id="text_38">
    <text style="font-weight: 700; font-size: 20px; font-family: 'Montserrat'; text-anchor: start; fill: #10302c" x="269.24947" y="477.673021" transform="rotate(-0 269.24947 477.673021)">40%</text>
   </g>
   <g id="text_39">
    <text style="font-weight: 700; font-size: 20px; font-family: 'Montserrat'; text-anchor: start; fill: #10302c" x="307.090757" y="428.726354" transform="rotate(-0 307.090757 428.726354)">36%</text>
   </g>
   <g id="text_40">
    <text style="font-weight: 700; font-size: 20px; font-family: 'Montserrat'; text-anchor: start; fill: #10302c" x="269.114804" y="379.779687" transform="rotate(-0 269.114804 379.779687)">26%</text>
   </g>
   <g id="text_41">
    <text style="font-weight: 700; font-size: 20px; font-family: 'Montserrat'; text-anchor: start; fill: #10302c" x="305.07076" y="330.833021" transform="rotate(-0 305.07076 330.833021)">23%</text>
   </g>
   <g id="text_42">
    <text style="font-weight: 700; font-size: 20px; font-family: 'Montserrat'; text-anchor: start; fill: #10302c" x="363.920021" y="281.886354" transform="rotate(-0 363.920021 281.886354)">31%</text>
   </g>
   <g id="text_43">
    <text style="font-weight: 700; font-size: 20px; font-family: 'Montserrat'; text-anchor: start; fill: #10302c" x="426.068611" y="232.939687" transform="rotate(-0 426.068611 232.939687)">34%</text>
   </g>
   <g id="text_44">
    <text style="font-weight: 700; font-size: 20px; font-family: 'Montserrat'; text-anchor: start; fill: #10302c" x="399.539311" y="183.993021" transform="rotate(-0 399.539311 183.993021)">35%</text>
   </g>
   <g id="text_45">
    <text style="font-weight: 700; font-size: 20px; font-family: 'Montserrat'; text-anchor: start; fill: #10302c" x="516.362501" y="135.046354" transform="rotate(-0 516.362501 135.046354)">37%</text>
   </g>
   <g id="text_46">
    <text style="font-weight: 700; font-size: 20px; font-family: 'Montserrat'; text-anchor: start; fill: #10302c" x="710.282263" y="86.099687" transform="rotate(-0 710.282263 86.099687)">35%</text>
   </g>
   <g id="text_47">
    <text style="font-weight: 700; font-size: 20px; font-family: 'Montserrat'; text-anchor: start; fill: #10302c" x="407.619301" y="37.153021" transform="rotate(-0 407.619301 37.153021)">11%</text>
   </g>
  </g>
 </g>
 <defs>
  <clipPath id="p33a48eb132">
   <rect x="84.978125" y="7.2" width="764.63" height="1027.88"/>
  </clipPath>
 </defs>
</svg>
