<svg xmlns="http://www.w3.org/2000/svg" xmlns:xlink="http://www.w3.org/1999/xlink" width="2987pt" height="758.2" viewBox="0 0 2987 568.65"><defs><style>*{stroke-linejoin:round;stroke-linecap:butt}</style></defs><path fill="#fff" d="M0 568.65h2987V0H0z"/><path fill="#fff" d="M75.848 321.5h2904V7.2h-2904z"/><defs><path id="b" stroke="#000" stroke-width=".8" d="M0 0v3.5"/></defs><use xlink:href="#b" x="121.223" y="321.5" stroke="#000" stroke-width=".8"/><text font-family="'Montserrat'" font-size="25" font-weight="500" transform="rotate(-90 319.17 202.95)">Aguascalientes</text><use xlink:href="#b" x="211.972" y="321.5" stroke="#000" stroke-width=".8"/><text font-family="'Montserrat'" font-size="25" font-weight="500" transform="rotate(-90 359.5 152.53)">Baja California</text><use xlink:href="#b" x="302.721" y="321.5" stroke="#000" stroke-width=".8"/><text font-family="'Montserrat'" font-size="25" font-weight="500" transform="rotate(-90 429.585 131.865)">Baja California Sur</text><use xlink:href="#b" x="393.47" y="321.5" stroke="#000" stroke-width=".8"/><text font-family="'Montserrat'" font-size="25" font-weight="500" transform="rotate(-90 427.76 39.14)">Campeche</text><use xlink:href="#b" x="484.22" y="321.5" stroke="#000" stroke-width=".8"/><text font-family="'Montserrat'" font-size="25" font-weight="500" transform="rotate(-90 454.71 -24.66)">Chiapas</text><use xlink:href="#b" x="574.969" y="321.5" stroke="#000" stroke-width=".8"/><text font-family="'Montserrat'" font-size="25" font-weight="500" transform="rotate(-90 519.245 -50.875)">Chihuahua</text><use xlink:href="#b" x="665.718" y="321.5" stroke="#000" stroke-width=".8"/><text font-family="'Montserrat'" font-size="25" font-weight="500" transform="rotate(-90 608.15 -52.72)">Ciudad de México</text><use xlink:href="#b" x="756.467" y="321.5" stroke="#000" stroke-width=".8"/><text font-family="'Montserrat'" font-size="25" font-weight="500" transform="rotate(-90 595.935 -155.685)">Coahuila</text><use xlink:href="#b" x="847.216" y="321.5" stroke="#000" stroke-width=".8"/><text font-family="'Montserrat'" font-size="25" font-weight="500" transform="rotate(-90 630.07 -212.29)">Colima</text><use xlink:href="#b" x="937.966" y="321.5" stroke="#000" stroke-width=".8"/><text font-family="'Montserrat'" font-size="25" font-weight="500" transform="rotate(-90 687.195 -245.775)">Durango</text><use xlink:href="#b" x="1028.715" y="321.5" stroke="#000" stroke-width=".8"/><text font-family="'Montserrat'" font-size="25" font-weight="500" transform="rotate(-90 787.905 -235.995)">Estado de México</text><use xlink:href="#b" x="1119.464" y="321.5" stroke="#000" stroke-width=".8"/><text font-family="'Montserrat'" font-size="25" font-weight="500" transform="rotate(-90 795.675 -318.825)">Guanajuato</text><use xlink:href="#b" x="1210.213" y="321.5" stroke="#000" stroke-width=".8"/><text font-family="'Montserrat'" font-size="25" font-weight="500" transform="rotate(-90 823.675 -381.725)">Guerrero</text><use xlink:href="#b" x="1300.963" y="321.5" stroke="#000" stroke-width=".8"/><text font-family="'Montserrat'" font-size="25" font-weight="500" transform="rotate(-90 861.94 -434.06)">Hidalgo</text><use xlink:href="#b" x="1391.712" y="321.5" stroke="#000" stroke-width=".8"/><text font-family="'Montserrat'" font-size="25" font-weight="500" transform="rotate(-90 899.9 -487)">Jalisco</text><use xlink:href="#b" x="1482.461" y="321.5" stroke="#000" stroke-width=".8"/><text font-family="'Montserrat'" font-size="25" font-weight="500" transform="rotate(-90 972.66 -504.94)">Michoacán</text><use xlink:href="#b" x="1573.21" y="321.5" stroke="#000" stroke-width=".8"/><text font-family="'Montserrat'" font-size="25" font-weight="500" transform="rotate(-90 998.79 -569.61)">Morelos</text><use xlink:href="#b" x="1663.959" y="321.5" stroke="#000" stroke-width=".8"/><text font-family="'Montserrat'" font-size="25" font-weight="500" transform="matrix(0 -1 1 0 1659 420.25)">Nayarit</text><use xlink:href="#b" x="1754.709" y="321.5" stroke="#000" stroke-width=".8"/><text font-family="'Montserrat'" font-size="25" font-weight="500" transform="rotate(-90 1115.28 -634.62)">Nuevo León</text><use xlink:href="#b" x="1845.458" y="321.5" stroke="#000" stroke-width=".8"/><text font-family="'Montserrat'" font-size="25" font-weight="500" transform="rotate(-90 1131.51 -709.09)">Oaxaca</text><use xlink:href="#b" x="1936.207" y="321.5" stroke="#000" stroke-width=".8"/><text font-family="'Montserrat'" font-size="25" font-weight="500" transform="rotate(-90 1174.575 -756.825)">Puebla</text><use xlink:href="#b" x="2026.956" y="321.5" stroke="#000" stroke-width=".8"/><text font-family="'Montserrat'" font-size="25" font-weight="500" transform="rotate(-90 1240.4 -781.7)">Querétaro</text><use xlink:href="#b" x="2117.706" y="321.5" stroke="#000" stroke-width=".8"/><text font-family="'Montserrat'" font-size="25" font-weight="500" transform="rotate(-90 1308.625 -804.275)">Quintana Roo</text><use xlink:href="#b" x="2208.455" y="321.5" stroke="#000" stroke-width=".8"/><text font-family="'Montserrat'" font-size="25" font-weight="500" transform="rotate(-90 1361.99 -841.61)">San Luis Potosí</text><use xlink:href="#b" x="2299.204" y="321.5" stroke="#000" stroke-width=".8"/><text font-family="'Montserrat'" font-size="25" font-weight="500" transform="rotate(-90 1357.585 -936.815)">Sinaloa</text><use xlink:href="#b" x="2389.953" y="321.5" stroke="#000" stroke-width=".8"/><text font-family="'Montserrat'" font-size="25" font-weight="500" transform="rotate(-90 1401.55 -983.55)">Sonora</text><use xlink:href="#b" x="2480.702" y="321.5" stroke="#000" stroke-width=".8"/><text font-family="'Montserrat'" font-size="25" font-weight="500" transform="rotate(-90 1454.35 -1021.55)">Tabasco</text><use xlink:href="#b" x="2571.452" y="321.5" stroke="#000" stroke-width=".8"/><text font-family="'Montserrat'" font-size="25" font-weight="500" transform="rotate(-90 1520.75 -1045.85)">Tamaulipas</text><use xlink:href="#b" x="2662.201" y="321.5" stroke="#000" stroke-width=".8"/><text font-family="'Montserrat'" font-size="25" font-weight="500" transform="rotate(-90 1543.675 -1113.625)">Tlaxcala</text><use xlink:href="#b" x="2752.95" y="321.5" stroke="#000" stroke-width=".8"/><text font-family="'Montserrat'" font-size="25" font-weight="500" transform="rotate(-90 1594.685 -1153.415)">Veracruz</text><use xlink:href="#b" x="2843.699" y="321.5" stroke="#000" stroke-width=".8"/><text font-family="'Montserrat'" font-size="25" font-weight="500" transform="rotate(-90 1635.975 -1202.825)">Yucatán</text><use xlink:href="#b" x="2934.449" y="321.5" stroke="#000" stroke-width=".8"/><text font-family="'Montserrat'" font-size="25" font-weight="500" transform="rotate(-90 1693.05 -1236.55)">Zacatecas</text><path fill="none" stroke="#b9b9b9" stroke-linecap="square" stroke-width=".75" d="M75.848 321.5h2904" clip-path="url(#a)"/><defs><path id="c" stroke="#000" stroke-width=".8" d="M0 0h-3.5"/></defs><use xlink:href="#c" x="75.848" y="321.5" stroke="#000" stroke-width=".8"/><text x="68.848" y="329.662" font-family="'Montserrat'" font-size="22" font-weight="500" text-anchor="end">0</text><path fill="none" stroke="#b9b9b9" stroke-linecap="square" stroke-width=".75" d="M75.848 253.39h2904" clip-path="url(#a)"/><use xlink:href="#c" x="75.848" y="253.392" stroke="#000" stroke-width=".8"/><text x="68.848" y="261.554" font-family="'Montserrat'" font-size="22" font-weight="500" text-anchor="end">500</text><path fill="none" stroke="#b9b9b9" stroke-linecap="square" stroke-width=".75" d="M75.848 185.28h2904" clip-path="url(#a)"/><use xlink:href="#c" x="75.848" y="185.284" stroke="#000" stroke-width=".8"/><text x="68.848" y="193.446" font-family="'Montserrat'" font-size="22" font-weight="500" text-anchor="end">1,000</text><path fill="none" stroke="#b9b9b9" stroke-linecap="square" stroke-width=".75" d="M75.848 117.18h2904" clip-path="url(#a)"/><use xlink:href="#c" x="75.848" y="117.176" stroke="#000" stroke-width=".8"/><text x="68.848" y="125.338" font-family="'Montserrat'" font-size="22" font-weight="500" text-anchor="end">1,500</text><path fill="none" stroke="#b9b9b9" stroke-linecap="square" stroke-width=".75" d="M75.848 49.067h2904" clip-path="url(#a)"/><use xlink:href="#c" x="75.848" y="49.067" stroke="#000" stroke-width=".8"/><text x="68.848" y="57.23" font-family="'Montserrat'" font-size="22" font-weight="500" text-anchor="end">2,000</text><path fill="#10302c" d="M80.386 321.5h81.674v-167H80.386zM171.13 321.5h81.674V109.14H171.13zM261.88 321.5h81.674V190.73H261.88zM352.63 321.5h81.674V131.61H352.63zM443.38 321.5h81.674V153.95H443.38zM534.13 321.5h81.674V158.72H534.13zM624.88 321.5h81.674V73.04H624.88zM715.63 321.5h81.674V165.67H715.63zM806.38 321.5h81.674V84.76H806.38zM897.13 321.5h81.674v-30.104H897.13zM987.88 321.5h81.674v-77.098H987.88zM1078.6 321.5h81.674V139.24H1078.6zM1169.4 321.5h81.674v-58.573H1169.4zM1260.1 321.5h81.674V106.01H1260.1zM1350.9 321.5h81.674v-25.472H1350.9zM1441.6 321.5h81.674V117.72H1441.6zM1532.4 321.5h81.674V154.91H1532.4zM1623.1 321.5h81.674V189.23H1623.1zM1713.9 321.5h81.674V78.08H1713.9zM1804.6 321.5h81.674v-31.33H1804.6zM1895.4 321.5h81.674V78.35H1895.4zM1986.1 321.5h81.674V126.44H1986.1zM2076.9 321.5h81.674V203.13H2076.9zM2167.6 321.5h81.674v-60.344H2167.6zM2258.4 321.5h81.674V101.51H2258.4zM2349.1 321.5h81.674V112.14H2349.1zM2439.9 321.5h81.674V198.22H2439.9zM2530.6 321.5h81.674v-66.065H2530.6zM2621.4 321.5h81.674V142.38H2621.4zM2712.1 321.5h81.674V177.79H2712.1zM2802.9 321.5h81.674v-51.217H2802.9zM2893.6 321.5h81.674V146.6H2893.6z" clip-path="url(#a)"/><path fill="#fff" stroke="#002f2a" stroke-width="1.5" d="M98.193 148.93h46.059q16 0 16-16v7.278q0-16-16-16H98.193q-16 0-16 16v-7.278q0 16 16 16z"/><text x="121.223" y="142.046" fill="#10302c" font-family="'Montserrat'" font-size="20" font-weight="700" text-anchor="middle">1,226  </text><text x="121.223" y="107.37" fill="#4c6a67" font-family="'Montserrat'" font-size="22" font-weight="600" text-anchor="middle">3.5%</text><path fill="#fff" stroke="#002f2a" stroke-width="1.5" d="M188.84 103.57h46.259q16 0 16-16v7.278q0-16-16-16H188.84q-16 0-16 16V87.57q0 16 16 16z"/><text x="211.972" y="96.686" fill="#10302c" font-family="'Montserrat'" font-size="20" font-weight="700" text-anchor="middle">1,559  </text><text x="211.972" y="62.01" fill="#4c6a67" font-family="'Montserrat'" font-size="22" font-weight="600" text-anchor="middle">4.4%</text><path fill="#fff" stroke="#002f2a" stroke-width="1.5" d="M284.87 185.16h35.7q16 0 16-16v7.278q0-16-16-16h-35.7q-16 0-16 16v-7.278q0 16 16 16z"/><text x="302.721" y="178.279" fill="#10302c" font-family="'Montserrat'" font-size="20" font-weight="700" text-anchor="middle">960  </text><text x="302.721" y="143.604" fill="#4c6a67" font-family="'Montserrat'" font-size="22" font-weight="600" text-anchor="middle">2.7%</text><path fill="#fff" stroke="#002f2a" stroke-width="1.5" d="M369.43 126.04h48.081q16 0 16-16v7.278q0-16-16-16H369.43q-16 0-16 16v-7.278q0 16 16 16z"/><text x="393.47" y="119.161" fill="#10302c" font-family="'Montserrat'" font-size="20" font-weight="700" text-anchor="middle">1,394  </text><text x="393.47" y="84.486" fill="#4c6a67" font-family="'Montserrat'" font-size="22" font-weight="600" text-anchor="middle">3.9%</text><path fill="#fff" stroke="#002f2a" stroke-width="1.5" d="M460.75 148.38h46.941q16 0 16-16v7.278q0-16-16-16H460.75q-16 0-16 16v-7.278q0 16 16 16z"/><text x="484.22" y="141.501" fill="#10302c" font-family="'Montserrat'" font-size="20" font-weight="700" text-anchor="middle">1,230  </text><text x="484.22" y="106.826" fill="#4c6a67" font-family="'Montserrat'" font-size="22" font-weight="600" text-anchor="middle">3.5%</text><path fill="#fff" stroke="#002f2a" stroke-width="1.5" d="M553.87 153.15h42.2q16 0 16-16v7.278q0-16-16-16h-42.2q-16 0-16 16v-7.278q0 16 16 16z"/><text x="574.969" y="146.268" fill="#10302c" font-family="'Montserrat'" font-size="20" font-weight="700" text-anchor="middle">1,195  </text><text x="574.969" y="111.593" fill="#4c6a67" font-family="'Montserrat'" font-size="22" font-weight="600" text-anchor="middle">3.4%</text><path fill="#fff" stroke="#002f2a" stroke-width="1.5" d="M641.47 67.47h48.5q16 0 16-16v7.278q0-16-16-16h-48.5q-16 0-16 16V51.47q0 16 16 16z"/><text x="665.718" y="60.588" fill="#10302c" font-family="'Montserrat'" font-size="20" font-weight="700" text-anchor="middle">1,824  </text><text x="665.718" y="25.913" fill="#4c6a67" font-family="'Montserrat'" font-size="22" font-weight="600" text-anchor="middle">5.2%</text><path fill="#fff" stroke="#002f2a" stroke-width="1.5" d="M733.91 160.1h45.122q16 0 16-16v7.278q0-16-16-16H733.91q-16 0-16 16V144.1q0 16 16 16z"/><text x="756.467" y="153.216" fill="#10302c" font-family="'Montserrat'" font-size="20" font-weight="700" text-anchor="middle">1,144  </text><text x="756.467" y="118.54" fill="#4c6a67" font-family="'Montserrat'" font-size="22" font-weight="600" text-anchor="middle">3.2%</text><path fill="#fff" stroke="#002f2a" stroke-width="1.5" d="M823.64 79.184h47.159q16 0 16-16v7.278q0-16-16-16H823.64q-16 0-16 16v-7.278q0 16 16 16z"/><text x="847.216" y="72.303" fill="#10302c" font-family="'Montserrat'" font-size="20" font-weight="700" text-anchor="middle">1,738  </text><text x="847.216" y="37.628" fill="#4c6a67" font-family="'Montserrat'" font-size="22" font-weight="600" text-anchor="middle">4.9%</text><path fill="#fff" stroke="#002f2a" stroke-width="1.5" d="M923.93 285.82h28.078q16 0 16-16v7.278q0-16-16-16H923.93q-16 0-16 16v-7.278q0 16 16 16z"/><text x="937.966" y="278.943" fill="#10302c" font-family="'Montserrat'" font-size="20" font-weight="700" text-anchor="middle">221  </text><text x="937.966" y="244.268" fill="#4c6a67" font-family="'Montserrat'" font-size="22" font-weight="600" text-anchor="middle">0.6%</text><path fill="#fff" stroke="#002f2a" stroke-width="1.5" d="M1011.7 238.83h34.019q16 0 16-16v7.278q0-16-16-16H1011.7q-16 0-16 16v-7.278q0 16 16 16z"/><text x="1028.715" y="231.949" fill="#10302c" font-family="'Montserrat'" font-size="20" font-weight="700" text-anchor="middle">566  </text><text x="1028.715" y="197.273" fill="#4c6a67" font-family="'Montserrat'" font-size="22" font-weight="600" text-anchor="middle">1.6%</text><path fill="#fff" stroke="#002f2a" stroke-width="1.5" d="M1096.2 133.67h46.6q16 0 16-16v7.278q0-16-16-16h-46.6q-16 0-16 16v-7.278q0 16 16 16z"/><text x="1119.464" y="126.79" fill="#10302c" font-family="'Montserrat'" font-size="20" font-weight="700" text-anchor="middle">1,338  </text><text x="1119.464" y="92.114" fill="#4c6a67" font-family="'Montserrat'" font-size="22" font-weight="600" text-anchor="middle">3.8%</text><path fill="#fff" stroke="#002f2a" stroke-width="1.5" d="M1192.3 257.36h35.841q16 0 16-16v7.278q0-16-16-16H1192.3q-16 0-16 16v-7.278q0 16 16 16z"/><text x="1210.213" y="250.474" fill="#10302c" font-family="'Montserrat'" font-size="20" font-weight="700" text-anchor="middle">430  </text><text x="1210.213" y="215.799" fill="#4c6a67" font-family="'Montserrat'" font-size="22" font-weight="600" text-anchor="middle">1.2%</text><path fill="#fff" stroke="#002f2a" stroke-width="1.5" d="M1277.7 100.43h46.619q16 0 16-16v7.278q0-16-16-16H1277.7q-16 0-16 16V84.43q0 16 16 16z"/><text x="1300.963" y="93.553" fill="#10302c" font-family="'Montserrat'" font-size="20" font-weight="700" text-anchor="middle">1,582  </text><text x="1300.963" y="58.877" fill="#4c6a67" font-family="'Montserrat'" font-size="22" font-weight="600" text-anchor="middle">4.5%</text><path fill="#fff" stroke="#002f2a" stroke-width="1.5" d="M1376.7 290.46h30.078q16 0 16-16v7.278q0-16-16-16H1376.7q-16 0-16 16v-7.278q0 16 16 16z"/><text x="1391.712" y="283.574" fill="#10302c" font-family="'Montserrat'" font-size="20" font-weight="700" text-anchor="middle">187  </text><text x="1391.712" y="248.899" fill="#4c6a67" font-family="'Montserrat'" font-size="22" font-weight="600" text-anchor="middle">0.5%</text><path fill="#fff" stroke="#002f2a" stroke-width="1.5" d="M1458 112.15h48.981q16 0 16-16v7.278q0-16-16-16H1458q-16 0-16 16V96.15q0 16 16 16z"/><text x="1482.461" y="105.267" fill="#10302c" font-family="'Montserrat'" font-size="20" font-weight="700" text-anchor="middle">1,496  </text><text x="1482.461" y="70.592" fill="#4c6a67" font-family="'Montserrat'" font-size="22" font-weight="600" text-anchor="middle">4.2%</text><path fill="#fff" stroke="#002f2a" stroke-width="1.5" d="M1550.6 149.34h45.159q16 0 16-16v7.278q0-16-16-16H1550.6q-16 0-16 16v-7.278q0 16 16 16z"/><text x="1573.21" y="142.454" fill="#10302c" font-family="'Montserrat'" font-size="20" font-weight="700" text-anchor="middle">1,223  </text><text x="1573.21" y="107.779" fill="#4c6a67" font-family="'Montserrat'" font-size="22" font-weight="600" text-anchor="middle">3.5%</text><path fill="#fff" stroke="#002f2a" stroke-width="1.5" d="M1649.2 183.66h29.619q16 0 16-16v7.278q0-16-16-16H1649.2q-16 0-16 16v-7.278q0 16 16 16z"/><text x="1663.959" y="176.781" fill="#10302c" font-family="'Montserrat'" font-size="20" font-weight="700" text-anchor="middle">971  </text><text x="1663.959" y="142.106" fill="#4c6a67" font-family="'Montserrat'" font-size="22" font-weight="600" text-anchor="middle">2.7%</text><path fill="#fff" stroke="#002f2a" stroke-width="1.5" d="M1730.8 72.51h47.719q16 0 16-16v7.278q0-16-16-16H1730.8q-16 0-16 16V56.51q0 16 16 16z"/><text x="1754.709" y="65.628" fill="#10302c" font-family="'Montserrat'" font-size="20" font-weight="700" text-anchor="middle">1,787  </text><text x="1754.709" y="30.953" fill="#4c6a67" font-family="'Montserrat'" font-size="22" font-weight="600" text-anchor="middle">5.0%</text><path fill="#fff" stroke="#002f2a" stroke-width="1.5" d="M1828.5 284.6h33.859q16 0 16-16v7.278q0-16-16-16H1828.5q-16 0-16 16V268.6q0 16 16 16z"/><text x="1845.458" y="277.717" fill="#10302c" font-family="'Montserrat'" font-size="20" font-weight="700" text-anchor="middle">230  </text><text x="1845.458" y="243.042" fill="#4c6a67" font-family="'Montserrat'" font-size="22" font-weight="600" text-anchor="middle">0.6%</text><path fill="#fff" stroke="#002f2a" stroke-width="1.5" d="M1912.6 72.782h47.219q16 0 16-16v7.278q0-16-16-16H1912.6q-16 0-16 16v-7.278q0 16 16 16z"/><text x="1936.207" y="65.901" fill="#10302c" font-family="'Montserrat'" font-size="20" font-weight="700" text-anchor="middle">1,785  </text><text x="1936.207" y="31.225" fill="#4c6a67" font-family="'Montserrat'" font-size="22" font-weight="600" text-anchor="middle">5.0%</text><path fill="#fff" stroke="#002f2a" stroke-width="1.5" d="M2003.4 120.87h47.141q16 0 16-16v7.278q0-16-16-16H2003.4q-16 0-16 16v-7.278q0 16 16 16z"/><text x="2026.956" y="113.985" fill="#10302c" font-family="'Montserrat'" font-size="20" font-weight="700" text-anchor="middle">1,432  </text><text x="2026.956" y="79.31" fill="#4c6a67" font-family="'Montserrat'" font-size="22" font-weight="600" text-anchor="middle">4.0%</text><path fill="#fff" stroke="#002f2a" stroke-width="1.5" d="M2100 197.56h35.319q16 0 16-16v7.278q0-16-16-16H2100q-16 0-16 16v-7.278q0 16 16 16z"/><text x="2117.706" y="190.675" fill="#10302c" font-family="'Montserrat'" font-size="20" font-weight="700" text-anchor="middle">869  </text><text x="2117.706" y="156" fill="#4c6a67" font-family="'Montserrat'" font-size="22" font-weight="600" text-anchor="middle">2.5%</text><path fill="#fff" stroke="#002f2a" stroke-width="1.5" d="M2190.4 255.58h36.041q16 0 16-16v7.278q0-16-16-16H2190.4q-16 0-16 16v-7.278q0 16 16 16z"/><text x="2208.455" y="248.703" fill="#10302c" font-family="'Montserrat'" font-size="20" font-weight="700" text-anchor="middle">443  </text><text x="2208.455" y="214.028" fill="#4c6a67" font-family="'Montserrat'" font-size="22" font-weight="600" text-anchor="middle">1.3%</text><path fill="#fff" stroke="#002f2a" stroke-width="1.5" d="M2278.1 95.939h42.2q16 0 16-16v7.278q0-16-16-16h-42.2q-16 0-16 16V79.94q0 16 16 16z"/><text x="2299.204" y="89.058" fill="#10302c" font-family="'Montserrat'" font-size="20" font-weight="700" text-anchor="middle">1,615  </text><text x="2299.204" y="54.382" fill="#4c6a67" font-family="'Montserrat'" font-size="22" font-weight="600" text-anchor="middle">4.6%</text><path fill="#fff" stroke="#002f2a" stroke-width="1.5" d="M2367 106.56h45.859q16 0 16-16v7.278q0-16-16-16H2367q-16 0-16 16V90.56q0 16 16 16z"/><text x="2389.953" y="99.683" fill="#10302c" font-family="'Montserrat'" font-size="20" font-weight="700" text-anchor="middle">1,537  </text><text x="2389.953" y="65.007" fill="#4c6a67" font-family="'Montserrat'" font-size="22" font-weight="600" text-anchor="middle">4.3%</text><path fill="#fff" stroke="#002f2a" stroke-width="1.5" d="M2463.3 192.65h34.859q16 0 16-16v7.278q0-16-16-16H2463.3q-16 0-16 16v-7.278q0 16 16 16z"/><text x="2480.702" y="185.771" fill="#10302c" font-family="'Montserrat'" font-size="20" font-weight="700" text-anchor="middle">905  </text><text x="2480.702" y="151.096" fill="#4c6a67" font-family="'Montserrat'" font-size="22" font-weight="600" text-anchor="middle">2.6%</text><path fill="#fff" stroke="#002f2a" stroke-width="1.5" d="M2553.7 249.86h35.519q16 0 16-16v7.278q0-16-16-16H2553.7q-16 0-16 16v-7.278q0 16 16 16z"/><text x="2571.452" y="242.982" fill="#10302c" font-family="'Montserrat'" font-size="20" font-weight="700" text-anchor="middle">485  </text><text x="2571.452" y="208.307" fill="#4c6a67" font-family="'Montserrat'" font-size="22" font-weight="600" text-anchor="middle">1.4%</text><path fill="#fff" stroke="#002f2a" stroke-width="1.5" d="M2641.6 136.8h41.3q16 0 16-16v7.278q0-16-16-16h-41.3q-16 0-16 16V120.8q0 16 16 16z"/><text x="2662.201" y="129.923" fill="#10302c" font-family="'Montserrat'" font-size="20" font-weight="700" text-anchor="middle">1,315  </text><text x="2662.201" y="95.247" fill="#4c6a67" font-family="'Montserrat'" font-size="22" font-weight="600" text-anchor="middle">3.7%</text><path fill="#fff" stroke="#002f2a" stroke-width="1.5" d="M2729.4 172.22h47.1q16 0 16-16v7.278q0-16-16-16h-47.1q-16 0-16 16v-7.278q0 16 16 16z"/><text x="2752.95" y="165.339" fill="#10302c" font-family="'Montserrat'" font-size="20" font-weight="700" text-anchor="middle">1,055  </text><text x="2752.95" y="130.663" fill="#4c6a67" font-family="'Montserrat'" font-size="22" font-weight="600" text-anchor="middle">3.0%</text><path fill="#fff" stroke="#002f2a" stroke-width="1.5" d="M2826.9 264.71h33.619q16 0 16-16v7.278q0-16-16-16H2826.9q-16 0-16 16v-7.278q0 16 16 16z"/><text x="2843.699" y="257.83" fill="#10302c" font-family="'Montserrat'" font-size="20" font-weight="700" text-anchor="middle">376  </text><text x="2843.699" y="223.154" fill="#4c6a67" font-family="'Montserrat'" font-size="22" font-weight="600" text-anchor="middle">1.1%</text><path fill="#fff" stroke="#002f2a" stroke-width="1.5" d="M2910.2 141.03h48.5q16 0 16-16v7.278q0-16-16-16h-48.5q-16 0-16 16v-7.278q0 16 16 16z"/><text x="2934.449" y="134.145" fill="#10302c" font-family="'Montserrat'" font-size="20" font-weight="700" text-anchor="middle">1,284  </text><text x="2934.449" y="99.47" fill="#4c6a67" font-family="'Montserrat'" font-size="22" font-weight="600" text-anchor="middle">3.6%</text><defs><clipPath id="a"><path d="M75.848 7.2h2904v314.3h-2904z"/></clipPath></defs></svg>