<?xml version="1.0" encoding="UTF-8"?>
<!DOCTYPE svg  PUBLIC '-//W3C//DTD SVG 1.1//EN'  'http://www.w3.org/Graphics/SVG/1.1/DTD/svg11.dtd'>
<svg width="2987pt" height="568.65pt" version="1.1" viewBox="0 0 2987 568.65" xmlns="http://www.w3.org/2000/svg" xmlns:xlink="http://www.w3.org/1999/xlink">
 <defs>
  <style type="text/css">*{stroke-linejoin: round; stroke-linecap: butt}</style>
 </defs>
 <path d="m-0 568.65h2987v-568.65h-2987z" fill="#fff"/>
 <path d="m75.848 321.5h2904v-314.3h-2904z" fill="#fff"/>
 <defs>
  <path id="b" d="m0 0v3.5" stroke="#000" stroke-width=".8"/>
 </defs>
 <use x="121.222734" y="321.5" stroke="#000000" stroke-width=".8" xlink:href="#b"/>
 <text transform="translate(116.22 522.12) rotate(-90)" font-family="'Montserrat'" font-size="25px" font-weight="500">Aguascalientes</text>
 <use x="211.971953" y="321.5" stroke="#000000" stroke-width=".8" xlink:href="#b"/>
 <text transform="translate(206.97 512.03) rotate(-90)" font-family="'Montserrat'" font-size="25px" font-weight="500">Baja California</text>
 <use x="302.721172" y="321.5" stroke="#000000" stroke-width=".8" xlink:href="#b"/>
 <text transform="translate(297.72 561.45) rotate(-90)" font-family="'Montserrat'" font-size="25px" font-weight="500">Baja California Sur</text>
 <use x="393.470391" y="321.5" stroke="#000000" stroke-width=".8" xlink:href="#b"/>
 <text transform="translate(388.62 466.9) rotate(-90)" font-family="'Montserrat'" font-size="25px" font-weight="500">Campeche</text>
 <use x="484.219609" y="321.5" stroke="#000000" stroke-width=".8" xlink:href="#b"/>
 <text transform="translate(479.37 430.05) rotate(-90)" font-family="'Montserrat'" font-size="25px" font-weight="500">Chiapas</text>
 <use x="574.968828" y="321.5" stroke="#000000" stroke-width=".8" xlink:href="#b"/>
 <text transform="translate(570.12 468.37) rotate(-90)" font-family="'Montserrat'" font-size="25px" font-weight="500">Chihuahua</text>
 <use x="665.718047" y="321.5" stroke="#000000" stroke-width=".8" xlink:href="#b"/>
 <text transform="translate(660.87 555.43) rotate(-90)" font-family="'Montserrat'" font-size="25px" font-weight="500">Ciudad de México</text>
 <use x="756.467266" y="321.5" stroke="#000000" stroke-width=".8" xlink:href="#b"/>
 <text transform="translate(751.62 440.25) rotate(-90)" font-family="'Montserrat'" font-size="25px" font-weight="500">Coahuila</text>
 <use x="847.216484" y="321.5" stroke="#000000" stroke-width=".8" xlink:href="#b"/>
 <text transform="translate(842.36 417.78) rotate(-90)" font-family="'Montserrat'" font-size="25px" font-weight="500">Colima</text>
 <use x="937.965703" y="321.5" stroke="#000000" stroke-width=".8" xlink:href="#b"/>
 <text transform="translate(932.97 441.42) rotate(-90)" font-family="'Montserrat'" font-size="25px" font-weight="500">Durango</text>
 <use x="1028.714922" y="321.5" stroke="#000000" stroke-width=".8" xlink:href="#b"/>
 <text transform="translate(1023.9 551.91) rotate(-90)" font-family="'Montserrat'" font-size="25px" font-weight="500">Estado de México</text>
 <use x="1119.464141" y="321.5" stroke="#000000" stroke-width=".8" xlink:href="#b"/>
 <text transform="translate(1114.5 476.85) rotate(-90)" font-family="'Montserrat'" font-size="25px" font-weight="500">Guanajuato</text>
 <use x="1210.213359" y="321.5" stroke="#000000" stroke-width=".8" xlink:href="#b"/>
 <text transform="translate(1205.4 441.95) rotate(-90)" font-family="'Montserrat'" font-size="25px" font-weight="500">Guerrero</text>
 <use x="1300.962578" y="321.5" stroke="#000000" stroke-width=".8" xlink:href="#b"/>
 <text transform="translate(1296 427.88) rotate(-90)" font-family="'Montserrat'" font-size="25px" font-weight="500">Hidalgo</text>
 <use x="1391.711797" y="321.5" stroke="#000000" stroke-width=".8" xlink:href="#b"/>
 <text transform="translate(1386.9 412.9) rotate(-90)" font-family="'Montserrat'" font-size="25px" font-weight="500">Jalisco</text>
 <use x="1482.461016" y="321.5" stroke="#000000" stroke-width=".8" xlink:href="#b"/>
 <text transform="translate(1477.6 467.72) rotate(-90)" font-family="'Montserrat'" font-size="25px" font-weight="500">Michoacán</text>
 <use x="1573.210234" y="321.5" stroke="#000000" stroke-width=".8" xlink:href="#b"/>
 <text transform="translate(1568.4 429.18) rotate(-90)" font-family="'Montserrat'" font-size="25px" font-weight="500">Morelos</text>
 <use x="1663.959453" y="321.5" stroke="#000000" stroke-width=".8" xlink:href="#b"/>
 <text transform="translate(1659 420.25) rotate(-90)" font-family="'Montserrat'" font-size="25px" font-weight="500">Nayarit</text>
 <use x="1754.708672" y="321.5" stroke="#000000" stroke-width=".8" xlink:href="#b"/>
 <text transform="translate(1749.9 480.66) rotate(-90)" font-family="'Montserrat'" font-size="25px" font-weight="500">Nuevo León</text>
 <use x="1845.457891" y="321.5" stroke="#000000" stroke-width=".8" xlink:href="#b"/>
 <text transform="translate(1840.6 422.42) rotate(-90)" font-family="'Montserrat'" font-size="25px" font-weight="500">Oaxaca</text>
 <use x="1936.207109" y="321.5" stroke="#000000" stroke-width=".8" xlink:href="#b"/>
 <text transform="translate(1931.4 417.75) rotate(-90)" font-family="'Montserrat'" font-size="25px" font-weight="500">Puebla</text>
 <use x="2026.956328" y="321.5" stroke="#000000" stroke-width=".8" xlink:href="#b"/>
 <text transform="translate(2022.1 458.7) rotate(-90)" font-family="'Montserrat'" font-size="25px" font-weight="500">Querétaro</text>
 <use x="2117.705547" y="321.5" stroke="#000000" stroke-width=".8" xlink:href="#b"/>
 <text transform="translate(2112.9 504.35) rotate(-90)" font-family="'Montserrat'" font-size="25px" font-weight="500">Quintana Roo</text>
 <use x="2208.454766" y="321.5" stroke="#000000" stroke-width=".8" xlink:href="#b"/>
 <text transform="translate(2203.6 520.38) rotate(-90)" font-family="'Montserrat'" font-size="25px" font-weight="500">San Luis Potosí</text>
 <use x="2299.203984" y="321.5" stroke="#000000" stroke-width=".8" xlink:href="#b"/>
 <text transform="translate(2294.4 420.77) rotate(-90)" font-family="'Montserrat'" font-size="25px" font-weight="500">Sinaloa</text>
 <use x="2389.953203" y="321.5" stroke="#000000" stroke-width=".8" xlink:href="#b"/>
 <text transform="translate(2385.1 418) rotate(-90)" font-family="'Montserrat'" font-size="25px" font-weight="500">Sonora</text>
 <use x="2480.702422" y="321.5" stroke="#000000" stroke-width=".8" xlink:href="#b"/>
 <text transform="translate(2475.9 432.8) rotate(-90)" font-family="'Montserrat'" font-size="25px" font-weight="500">Tabasco</text>
 <use x="2571.451641" y="321.5" stroke="#000000" stroke-width=".8" xlink:href="#b"/>
 <text transform="translate(2566.6 474.9) rotate(-90)" font-family="'Montserrat'" font-size="25px" font-weight="500">Tamaulipas</text>
 <use x="2662.200859" y="321.5" stroke="#000000" stroke-width=".8" xlink:href="#b"/>
 <text transform="translate(2657.3 430.05) rotate(-90)" font-family="'Montserrat'" font-size="25px" font-weight="500">Tlaxcala</text>
 <use x="2752.950078" y="321.5" stroke="#000000" stroke-width=".8" xlink:href="#b"/>
 <text transform="translate(2748.1 441.27) rotate(-90)" font-family="'Montserrat'" font-size="25px" font-weight="500">Veracruz</text>
 <use x="2843.699297" y="321.5" stroke="#000000" stroke-width=".8" xlink:href="#b"/>
 <text transform="translate(2838.8 433.15) rotate(-90)" font-family="'Montserrat'" font-size="25px" font-weight="500">Yucatán</text>
 <use x="2934.448516" y="321.5" stroke="#000000" stroke-width=".8" xlink:href="#b"/>
 <text transform="translate(2929.6 456.5) rotate(-90)" font-family="'Montserrat'" font-size="25px" font-weight="500">Zacatecas</text>
 <path d="m75.848 321.5h2904" clip-path="url(#a)" fill="none" stroke="#b9b9b9" stroke-linecap="square" stroke-width=".75"/>
 <defs>
  <path id="c" d="m0 0h-3.5" stroke="#000" stroke-width=".8"/>
 </defs>
 <use x="75.848125" y="321.5" stroke="#000000" stroke-width=".8" xlink:href="#c"/>
 <text transform="rotate(-0 68.848 329.66)" x="68.848125" y="329.662344" font-family="'Montserrat'" font-size="22px" font-weight="500" text-anchor="end">0</text>
 <path d="m75.848 253.39h2904" clip-path="url(#a)" fill="none" stroke="#b9b9b9" stroke-linecap="square" stroke-width=".75"/>
 <use x="75.848125" y="253.391859" stroke="#000000" stroke-width=".8" xlink:href="#c"/>
 <text transform="rotate(-0 68.848 261.55)" x="68.848125" y="261.554203" font-family="'Montserrat'" font-size="22px" font-weight="500" text-anchor="end">500</text>
 <path d="m75.848 185.28h2904" clip-path="url(#a)" fill="none" stroke="#b9b9b9" stroke-linecap="square" stroke-width=".75"/>
 <use x="75.848125" y="185.283718" stroke="#000000" stroke-width=".8" xlink:href="#c"/>
 <text transform="rotate(-0 68.848 193.45)" x="68.848125" y="193.446062" font-family="'Montserrat'" font-size="22px" font-weight="500" text-anchor="end">1,000</text>
 <path d="m75.848 117.18h2904" clip-path="url(#a)" fill="none" stroke="#b9b9b9" stroke-linecap="square" stroke-width=".75"/>
 <use x="75.848125" y="117.175577" stroke="#000000" stroke-width=".8" xlink:href="#c"/>
 <text transform="rotate(-0 68.848 125.34)" x="68.848125" y="125.337921" font-family="'Montserrat'" font-size="22px" font-weight="500" text-anchor="end">1,500</text>
 <path d="m75.848 49.067h2904" clip-path="url(#a)" fill="none" stroke="#b9b9b9" stroke-linecap="square" stroke-width=".75"/>
 <use x="75.848125" y="49.067436" stroke="#000000" stroke-width=".8" xlink:href="#c"/>
 <text transform="rotate(-0 68.848 57.23)" x="68.848125" y="57.22978" font-family="'Montserrat'" font-size="22px" font-weight="500" text-anchor="end">2,000</text>
 <path d="m80.386 321.5h81.674v-167h-81.674z" clip-path="url(#a)" fill="#10302c"/>
 <path d="m171.13 321.5h81.674v-212.36h-81.674z" clip-path="url(#a)" fill="#10302c"/>
 <path d="m261.88 321.5h81.674v-130.77h-81.674z" clip-path="url(#a)" fill="#10302c"/>
 <path d="m352.63 321.5h81.674v-189.89h-81.674z" clip-path="url(#a)" fill="#10302c"/>
 <path d="m443.38 321.5h81.674v-167.55h-81.674z" clip-path="url(#a)" fill="#10302c"/>
 <path d="m534.13 321.5h81.674v-162.78h-81.674z" clip-path="url(#a)" fill="#10302c"/>
 <path d="m624.88 321.5h81.674v-248.46h-81.674z" clip-path="url(#a)" fill="#10302c"/>
 <path d="m715.63 321.5h81.674v-155.83h-81.674z" clip-path="url(#a)" fill="#10302c"/>
 <path d="m806.38 321.5h81.674v-236.74h-81.674z" clip-path="url(#a)" fill="#10302c"/>
 <path d="m897.13 321.5h81.674v-30.104h-81.674z" clip-path="url(#a)" fill="#10302c"/>
 <path d="m987.88 321.5h81.674v-77.098h-81.674z" clip-path="url(#a)" fill="#10302c"/>
 <path d="m1078.6 321.5h81.674v-182.26h-81.674z" clip-path="url(#a)" fill="#10302c"/>
 <path d="m1169.4 321.5h81.674v-58.573h-81.674z" clip-path="url(#a)" fill="#10302c"/>
 <path d="m1260.1 321.5h81.674v-215.49h-81.674z" clip-path="url(#a)" fill="#10302c"/>
 <path d="m1350.9 321.5h81.674v-25.472h-81.674z" clip-path="url(#a)" fill="#10302c"/>
 <path d="m1441.6 321.5h81.674v-203.78h-81.674z" clip-path="url(#a)" fill="#10302c"/>
 <path d="m1532.4 321.5h81.674v-166.59h-81.674z" clip-path="url(#a)" fill="#10302c"/>
 <path d="m1623.1 321.5h81.674v-132.27h-81.674z" clip-path="url(#a)" fill="#10302c"/>
 <path d="m1713.9 321.5h81.674v-243.42h-81.674z" clip-path="url(#a)" fill="#10302c"/>
 <path d="m1804.6 321.5h81.674v-31.33h-81.674z" clip-path="url(#a)" fill="#10302c"/>
 <path d="m1895.4 321.5h81.674v-243.15h-81.674z" clip-path="url(#a)" fill="#10302c"/>
 <path d="m1986.1 321.5h81.674v-195.06h-81.674z" clip-path="url(#a)" fill="#10302c"/>
 <path d="m2076.9 321.5h81.674v-118.37h-81.674z" clip-path="url(#a)" fill="#10302c"/>
 <path d="m2167.6 321.5h81.674v-60.344h-81.674z" clip-path="url(#a)" fill="#10302c"/>
 <path d="m2258.4 321.5h81.674v-219.99h-81.674z" clip-path="url(#a)" fill="#10302c"/>
 <path d="m2349.1 321.5h81.674v-209.36h-81.674z" clip-path="url(#a)" fill="#10302c"/>
 <path d="m2439.9 321.5h81.674v-123.28h-81.674z" clip-path="url(#a)" fill="#10302c"/>
 <path d="m2530.6 321.5h81.674v-66.065h-81.674z" clip-path="url(#a)" fill="#10302c"/>
 <path d="m2621.4 321.5h81.674v-179.12h-81.674z" clip-path="url(#a)" fill="#10302c"/>
 <path d="m2712.1 321.5h81.674v-143.71h-81.674z" clip-path="url(#a)" fill="#10302c"/>
 <path d="m2802.9 321.5h81.674v-51.217h-81.674z" clip-path="url(#a)" fill="#10302c"/>
 <path d="m2893.6 321.5h81.674v-174.9h-81.674z" clip-path="url(#a)" fill="#10302c"/>
 <path d="m98.193 148.93h46.059q16 0 16-16v7.2781q0-16-16-16h-46.059q-16 0-16 16v-7.2781q0 16 16 16z" fill="#fff" stroke="#002f2a" stroke-width="1.5"/>
 <text transform="rotate(-0 121.22 142.05)" x="121.222734" y="142.04577" fill="#10302c" font-family="'Montserrat'" font-size="20px" font-weight="700" text-anchor="middle">1,226  </text>
 <text transform="rotate(-0 121.22 107.37)" x="121.222734" y="107.370373" fill="#4c6a67" font-family="'Montserrat'" font-size="22px" font-weight="600" text-anchor="middle">3.5%</text>
 <path d="m188.84 103.57h46.259q16 0 16-16v7.2781q0-16-16-16h-46.259q-16 0-16 16v-7.2781q0 16 16 16z" fill="#fff" stroke="#002f2a" stroke-width="1.5"/>
 <text transform="rotate(-0 211.97 96.686)" x="211.971953" y="96.685748" fill="#10302c" font-family="'Montserrat'" font-size="20px" font-weight="700" text-anchor="middle">1,559  </text>
 <text transform="rotate(-0 211.97 62.01)" x="211.971953" y="62.010351" fill="#4c6a67" font-family="'Montserrat'" font-size="22px" font-weight="600" text-anchor="middle">4.4%</text>
 <path d="m284.87 185.16h35.7q16 0 16-16v7.2781q0-16-16-16h-35.7q-16 0-16 16v-7.2781q0 16 16 16z" fill="#fff" stroke="#002f2a" stroke-width="1.5"/>
 <text transform="rotate(-0 302.72 178.28)" x="302.721172" y="178.279301" fill="#10302c" font-family="'Montserrat'" font-size="20px" font-weight="700" text-anchor="middle">960  </text>
 <text transform="rotate(-0 302.72 143.6)" x="302.721172" y="143.603904" fill="#4c6a67" font-family="'Montserrat'" font-size="22px" font-weight="600" text-anchor="middle">2.7%</text>
 <path d="m369.43 126.04h48.081q16 0 16-16v7.2781q0-16-16-16h-48.081q-16 0-16 16v-7.2781q0 16 16 16z" fill="#fff" stroke="#002f2a" stroke-width="1.5"/>
 <text transform="rotate(-0 393.47 119.16)" x="393.470391" y="119.161435" fill="#10302c" font-family="'Montserrat'" font-size="20px" font-weight="700" text-anchor="middle">1,394  </text>
 <text transform="rotate(-0 393.47 84.486)" x="393.470391" y="84.486037" fill="#4c6a67" font-family="'Montserrat'" font-size="22px" font-weight="600" text-anchor="middle">3.9%</text>
 <path d="m460.75 148.38h46.941q16 0 16-16v7.2781q0-16-16-16h-46.941q-16 0-16 16v-7.2781q0 16 16 16z" fill="#fff" stroke="#002f2a" stroke-width="1.5"/>
 <text transform="rotate(-0 484.22 141.5)" x="484.219609" y="141.500905" fill="#10302c" font-family="'Montserrat'" font-size="20px" font-weight="700" text-anchor="middle">1,230  </text>
 <text transform="rotate(-0 484.22 106.83)" x="484.219609" y="106.825507" fill="#4c6a67" font-family="'Montserrat'" font-size="22px" font-weight="600" text-anchor="middle">3.5%</text>
 <path d="m553.87 153.15h42.2q16 0 16-16v7.2781q0-16-16-16h-42.2q-16 0-16 16v-7.2781q0 16 16 16z" fill="#fff" stroke="#002f2a" stroke-width="1.5"/>
 <text transform="rotate(-0 574.97 146.27)" x="574.968828" y="146.268475" fill="#10302c" font-family="'Montserrat'" font-size="20px" font-weight="700" text-anchor="middle">1,195  </text>
 <text transform="rotate(-0 574.97 111.59)" x="574.968828" y="111.593077" fill="#4c6a67" font-family="'Montserrat'" font-size="22px" font-weight="600" text-anchor="middle">3.4%</text>
 <path d="m641.47 67.47h48.5q16 0 16-16v7.2781q0-16-16-16h-48.5q-16 0-16 16v-7.2781q0 16 16 16z" fill="#fff" stroke="#002f2a" stroke-width="1.5"/>
 <text transform="rotate(-0 665.72 60.588)" x="665.718047" y="60.588434" fill="#10302c" font-family="'Montserrat'" font-size="20px" font-weight="700" text-anchor="middle">1,824  </text>
 <text transform="rotate(-0 665.72 25.913)" x="665.718047" y="25.913036" fill="#4c6a67" font-family="'Montserrat'" font-size="22px" font-weight="600" text-anchor="middle">5.2%</text>
 <path d="m733.91 160.1h45.122q16 0 16-16v7.2781q0-16-16-16h-45.122q-16 0-16 16v-7.2781q0 16 16 16z" fill="#fff" stroke="#002f2a" stroke-width="1.5"/>
 <text transform="rotate(-0 756.47 153.22)" x="756.467266" y="153.215505" fill="#10302c" font-family="'Montserrat'" font-size="20px" font-weight="700" text-anchor="middle">1,144  </text>
 <text transform="rotate(-0 756.47 118.54)" x="756.467266" y="118.540108" fill="#4c6a67" font-family="'Montserrat'" font-size="22px" font-weight="600" text-anchor="middle">3.2%</text>
 <path d="m823.64 79.184h47.159q16 0 16-16v7.2781q0-16-16-16h-47.159q-16 0-16 16v-7.2781q0 16 16 16z" fill="#fff" stroke="#002f2a" stroke-width="1.5"/>
 <text transform="rotate(-0 847.22 72.303)" x="847.216484" y="72.303034" fill="#10302c" font-family="'Montserrat'" font-size="20px" font-weight="700" text-anchor="middle">1,738  </text>
 <text transform="rotate(-0 847.22 37.628)" x="847.216484" y="37.627636" fill="#4c6a67" font-family="'Montserrat'" font-size="22px" font-weight="600" text-anchor="middle">4.9%</text>
 <path d="m923.93 285.82h28.078q16 0 16-16v7.2781q0-16-16-16h-28.078q-16 0-16 16v-7.2781q0 16 16 16z" fill="#fff" stroke="#002f2a" stroke-width="1.5"/>
 <text transform="rotate(-0 937.97 278.94)" x="937.965703" y="278.943134" fill="#10302c" font-family="'Montserrat'" font-size="20px" font-weight="700" text-anchor="middle">221  </text>
 <text transform="rotate(-0 937.97 244.27)" x="937.965703" y="244.267736" fill="#4c6a67" font-family="'Montserrat'" font-size="22px" font-weight="600" text-anchor="middle">0.6%</text>
 <path d="m1011.7 238.83h34.019q16 0 16-16v7.2781q0-16-16-16h-34.019q-16 0-16 16v-7.2781q0 16 16 16z" fill="#fff" stroke="#002f2a" stroke-width="1.5"/>
 <text transform="rotate(-0 1028.7 231.95)" x="1028.714922" y="231.948516" fill="#10302c" font-family="'Montserrat'" font-size="20px" font-weight="700" text-anchor="middle">566  </text>
 <text transform="rotate(-0 1028.7 197.27)" x="1028.714922" y="197.273119" fill="#4c6a67" font-family="'Montserrat'" font-size="22px" font-weight="600" text-anchor="middle">1.6%</text>
 <path d="m1096.2 133.67h46.6q16 0 16-16v7.2781q0-16-16-16h-46.6q-16 0-16 16v-7.2781q0 16 16 16z" fill="#fff" stroke="#002f2a" stroke-width="1.5"/>
 <text transform="rotate(-0 1119.5 126.79)" x="1119.464141" y="126.789547" fill="#10302c" font-family="'Montserrat'" font-size="20px" font-weight="700" text-anchor="middle">1,338  </text>
 <text transform="rotate(-0 1119.5 92.114)" x="1119.464141" y="92.114149" fill="#4c6a67" font-family="'Montserrat'" font-size="22px" font-weight="600" text-anchor="middle">3.8%</text>
 <path d="m1192.3 257.36h35.841q16 0 16-16v7.2781q0-16-16-16h-35.841q-16 0-16 16v-7.2781q0 16 16 16z" fill="#fff" stroke="#002f2a" stroke-width="1.5"/>
 <text transform="rotate(-0 1210.2 250.47)" x="1210.213359" y="250.473931" fill="#10302c" font-family="'Montserrat'" font-size="20px" font-weight="700" text-anchor="middle">430  </text>
 <text transform="rotate(-0 1210.2 215.8)" x="1210.213359" y="215.798533" fill="#4c6a67" font-family="'Montserrat'" font-size="22px" font-weight="600" text-anchor="middle">1.2%</text>
 <path d="m1277.7 100.43h46.619q16 0 16-16v7.2781q0-16-16-16h-46.619q-16 0-16 16v-7.2781q0 16 16 16z" fill="#fff" stroke="#002f2a" stroke-width="1.5"/>
 <text transform="rotate(-0 1301 93.553)" x="1300.962578" y="93.552774" fill="#10302c" font-family="'Montserrat'" font-size="20px" font-weight="700" text-anchor="middle">1,582  </text>
 <text transform="rotate(-0 1301 58.877)" x="1300.962578" y="58.877376" fill="#4c6a67" font-family="'Montserrat'" font-size="22px" font-weight="600" text-anchor="middle">4.5%</text>
 <path d="m1376.7 290.46h30.078q16 0 16-16v7.2781q0-16-16-16h-30.078q-16 0-16 16v-7.2781q0 16 16 16z" fill="#fff" stroke="#002f2a" stroke-width="1.5"/>
 <text transform="rotate(-0 1391.7 283.57)" x="1391.711797" y="283.574487" fill="#10302c" font-family="'Montserrat'" font-size="20px" font-weight="700" text-anchor="middle">187  </text>
 <text transform="rotate(-0 1391.7 248.9)" x="1391.711797" y="248.899089" fill="#4c6a67" font-family="'Montserrat'" font-size="22px" font-weight="600" text-anchor="middle">0.5%</text>
 <path d="m1458 112.15h48.981q16 0 16-16v7.2781q0-16-16-16h-48.981q-16 0-16 16v-7.2781q0 16 16 16z" fill="#fff" stroke="#002f2a" stroke-width="1.5"/>
 <text transform="rotate(-0 1482.5 105.27)" x="1482.461016" y="105.267374" fill="#10302c" font-family="'Montserrat'" font-size="20px" font-weight="700" text-anchor="middle">1,496  </text>
 <text transform="rotate(-0 1482.5 70.592)" x="1482.461016" y="70.591977" fill="#4c6a67" font-family="'Montserrat'" font-size="22px" font-weight="600" text-anchor="middle">4.2%</text>
 <path d="m1550.6 149.34h45.159q16 0 16-16v7.2781q0-16-16-16h-45.159q-16 0-16 16v-7.2781q0 16 16 16z" fill="#fff" stroke="#002f2a" stroke-width="1.5"/>
 <text transform="rotate(-0 1573.2 142.45)" x="1573.210234" y="142.454419" fill="#10302c" font-family="'Montserrat'" font-size="20px" font-weight="700" text-anchor="middle">1,223  </text>
 <text transform="rotate(-0 1573.2 107.78)" x="1573.210234" y="107.779021" fill="#4c6a67" font-family="'Montserrat'" font-size="22px" font-weight="600" text-anchor="middle">3.5%</text>
 <path d="m1649.2 183.66h29.619q16 0 16-16v7.2781q0-16-16-16h-29.619q-16 0-16 16v-7.2781q0 16 16 16z" fill="#fff" stroke="#002f2a" stroke-width="1.5"/>
 <text transform="rotate(-0 1664 176.78)" x="1663.959453" y="176.780922" fill="#10302c" font-family="'Montserrat'" font-size="20px" font-weight="700" text-anchor="middle">971  </text>
 <text transform="rotate(-0 1664 142.11)" x="1663.959453" y="142.105524" fill="#4c6a67" font-family="'Montserrat'" font-size="22px" font-weight="600" text-anchor="middle">2.7%</text>
 <path d="m1730.8 72.51h47.719q16 0 16-16v7.2781q0-16-16-16h-47.719q-16 0-16 16v-7.2781q0 16 16 16z" fill="#fff" stroke="#002f2a" stroke-width="1.5"/>
 <text transform="rotate(-0 1754.7 65.628)" x="1754.708672" y="65.628436" fill="#10302c" font-family="'Montserrat'" font-size="20px" font-weight="700" text-anchor="middle">1,787  </text>
 <text transform="rotate(-0 1754.7 30.953)" x="1754.708672" y="30.953038" fill="#4c6a67" font-family="'Montserrat'" font-size="22px" font-weight="600" text-anchor="middle">5.0%</text>
 <path d="m1828.5 284.6h33.859q16 0 16-16v7.2781q0-16-16-16h-33.859q-16 0-16 16v-7.2781q0 16 16 16z" fill="#fff" stroke="#002f2a" stroke-width="1.5"/>
 <text transform="rotate(-0 1845.5 277.72)" x="1845.457891" y="277.717187" fill="#10302c" font-family="'Montserrat'" font-size="20px" font-weight="700" text-anchor="middle">230  </text>
 <text transform="rotate(-0 1845.5 243.04)" x="1845.457891" y="243.041789" fill="#4c6a67" font-family="'Montserrat'" font-size="22px" font-weight="600" text-anchor="middle">0.6%</text>
 <path d="m1912.6 72.782h47.219q16 0 16-16v7.2781q0-16-16-16h-47.219q-16 0-16 16v-7.2781q0 16 16 16z" fill="#fff" stroke="#002f2a" stroke-width="1.5"/>
 <text transform="rotate(-0 1936.2 65.901)" x="1936.207109" y="65.900869" fill="#10302c" font-family="'Montserrat'" font-size="20px" font-weight="700" text-anchor="middle">1,785  </text>
 <text transform="rotate(-0 1936.2 31.225)" x="1936.207109" y="31.225471" fill="#4c6a67" font-family="'Montserrat'" font-size="22px" font-weight="600" text-anchor="middle">5.0%</text>
 <path d="m2003.4 120.87h47.141q16 0 16-16v7.2781q0-16-16-16h-47.141q-16 0-16 16v-7.2781q0 16 16 16z" fill="#fff" stroke="#002f2a" stroke-width="1.5"/>
 <text transform="rotate(-0 2027 113.99)" x="2026.956328" y="113.985216" fill="#10302c" font-family="'Montserrat'" font-size="20px" font-weight="700" text-anchor="middle">1,432  </text>
 <text transform="rotate(-0 2027 79.31)" x="2026.956328" y="79.309819" fill="#4c6a67" font-family="'Montserrat'" font-size="22px" font-weight="600" text-anchor="middle">4.0%</text>
 <path d="m2100 197.56h35.319q16 0 16-16v7.2781q0-16-16-16h-35.319q-16 0-16 16v-7.2781q0 16 16 16z" fill="#fff" stroke="#002f2a" stroke-width="1.5"/>
 <text transform="rotate(-0 2117.7 190.67)" x="2117.705547" y="190.674983" fill="#10302c" font-family="'Montserrat'" font-size="20px" font-weight="700" text-anchor="middle">869  </text>
 <text transform="rotate(-0 2117.7 156)" x="2117.705547" y="155.999585" fill="#4c6a67" font-family="'Montserrat'" font-size="22px" font-weight="600" text-anchor="middle">2.5%</text>
 <path d="m2190.4 255.58h36.041q16 0 16-16v7.2781q0-16-16-16h-36.041q-16 0-16 16v-7.2781q0 16 16 16z" fill="#fff" stroke="#002f2a" stroke-width="1.5"/>
 <text transform="rotate(-0 2208.5 248.7)" x="2208.454766" y="248.703119" fill="#10302c" font-family="'Montserrat'" font-size="20px" font-weight="700" text-anchor="middle">443  </text>
 <text transform="rotate(-0 2208.5 214.03)" x="2208.454766" y="214.027721" fill="#4c6a67" font-family="'Montserrat'" font-size="22px" font-weight="600" text-anchor="middle">1.3%</text>
 <path d="m2278.1 95.939h42.2q16 0 16-16v7.2781q0-16-16-16h-42.2q-16 0-16 16v-7.2781q0 16 16 16z" fill="#fff" stroke="#002f2a" stroke-width="1.5"/>
 <text transform="rotate(-0 2299.2 89.058)" x="2299.203984" y="89.057637" fill="#10302c" font-family="'Montserrat'" font-size="20px" font-weight="700" text-anchor="middle">1,615  </text>
 <text transform="rotate(-0 2299.2 54.382)" x="2299.203984" y="54.382239" fill="#4c6a67" font-family="'Montserrat'" font-size="22px" font-weight="600" text-anchor="middle">4.6%</text>
 <path d="m2367 106.56h45.859q16 0 16-16v7.2781q0-16-16-16h-45.859q-16 0-16 16v-7.2781q0 16 16 16z" fill="#fff" stroke="#002f2a" stroke-width="1.5"/>
 <text transform="rotate(-0 2390 99.683)" x="2389.953203" y="99.682507" fill="#10302c" font-family="'Montserrat'" font-size="20px" font-weight="700" text-anchor="middle">1,537  </text>
 <text transform="rotate(-0 2390 65.007)" x="2389.953203" y="65.007109" fill="#4c6a67" font-family="'Montserrat'" font-size="22px" font-weight="600" text-anchor="middle">4.3%</text>
 <path d="m2463.3 192.65h34.859q16 0 16-16v7.2781q0-16-16-16h-34.859q-16 0-16 16v-7.2781q0 16 16 16z" fill="#fff" stroke="#002f2a" stroke-width="1.5"/>
 <text transform="rotate(-0 2480.7 185.77)" x="2480.702422" y="185.771197" fill="#10302c" font-family="'Montserrat'" font-size="20px" font-weight="700" text-anchor="middle">905  </text>
 <text transform="rotate(-0 2480.7 151.1)" x="2480.702422" y="151.095799" fill="#4c6a67" font-family="'Montserrat'" font-size="22px" font-weight="600" text-anchor="middle">2.6%</text>
 <path d="m2553.7 249.86h35.519q16 0 16-16v7.2781q0-16-16-16h-35.519q-16 0-16 16v-7.2781q0 16 16 16z" fill="#fff" stroke="#002f2a" stroke-width="1.5"/>
 <text transform="rotate(-0 2571.5 242.98)" x="2571.451641" y="242.982035" fill="#10302c" font-family="'Montserrat'" font-size="20px" font-weight="700" text-anchor="middle">485  </text>
 <text transform="rotate(-0 2571.5 208.31)" x="2571.451641" y="208.306637" fill="#4c6a67" font-family="'Montserrat'" font-size="22px" font-weight="600" text-anchor="middle">1.4%</text>
 <path d="m2641.6 136.8h41.3q16 0 16-16v7.2781q0-16-16-16h-41.3q-16 0-16 16v-7.2781q0 16 16 16z" fill="#fff" stroke="#002f2a" stroke-width="1.5"/>
 <text transform="rotate(-0 2662.2 129.92)" x="2662.200859" y="129.922521" fill="#10302c" font-family="'Montserrat'" font-size="20px" font-weight="700" text-anchor="middle">1,315  </text>
 <text transform="rotate(-0 2662.2 95.247)" x="2662.200859" y="95.247124" fill="#4c6a67" font-family="'Montserrat'" font-size="22px" font-weight="600" text-anchor="middle">3.7%</text>
 <path d="m2729.4 172.22h47.1q16 0 16-16v7.2781q0-16-16-16h-47.1q-16 0-16 16v-7.2781q0 16 16 16z" fill="#fff" stroke="#002f2a" stroke-width="1.5"/>
 <text transform="rotate(-0 2753 165.34)" x="2752.950078" y="165.338755" fill="#10302c" font-family="'Montserrat'" font-size="20px" font-weight="700" text-anchor="middle">1,055  </text>
 <text transform="rotate(-0 2753 130.66)" x="2752.950078" y="130.663357" fill="#4c6a67" font-family="'Montserrat'" font-size="22px" font-weight="600" text-anchor="middle">3.0%</text>
 <path d="m2826.9 264.71h33.619q16 0 16-16v7.2781q0-16-16-16h-33.619q-16 0-16 16v-7.2781q0 16 16 16z" fill="#fff" stroke="#002f2a" stroke-width="1.5"/>
 <text transform="rotate(-0 2843.7 257.83)" x="2843.699297" y="257.82961" fill="#10302c" font-family="'Montserrat'" font-size="20px" font-weight="700" text-anchor="middle">376  </text>
 <text transform="rotate(-0 2843.7 223.15)" x="2843.699297" y="223.154212" fill="#4c6a67" font-family="'Montserrat'" font-size="22px" font-weight="600" text-anchor="middle">1.1%</text>
 <path d="m2910.2 141.03h48.5q16 0 16-16v7.2781q0-16-16-16h-48.5q-16 0-16 16v-7.2781q0 16 16 16z" fill="#fff" stroke="#002f2a" stroke-width="1.5"/>
 <text transform="rotate(-0 2934.4 134.15)" x="2934.448516" y="134.145226" fill="#10302c" font-family="'Montserrat'" font-size="20px" font-weight="700" text-anchor="middle">1,284  </text>
 <text transform="rotate(-0 2934.4 99.47)" x="2934.448516" y="99.469828" fill="#4c6a67" font-family="'Montserrat'" font-size="22px" font-weight="600" text-anchor="middle">3.6%</text>
 <defs>
  <clipPath id="a">
   <rect x="75.848" y="7.2" width="2904" height="314.3"/>
  </clipPath>
 </defs>
</svg>
