<svg xmlns="http://www.w3.org/2000/svg" xmlns:xlink="http://www.w3.org/1999/xlink" width="856.87pt" height="1072.7pt" viewBox="0 0 856.87 1072.7"><defs><style>*{stroke-linejoin:round;stroke-linecap:butt}</style></defs><path fill="#fff" d="M0 1072.7h856.87V0H0z"/><path fill="#fff" d="M219.2 1035.1h580.75V7.2H219.2z"/><path fill="none" stroke="#b9b9b9" stroke-linecap="square" stroke-width=".75" d="M219.2 1035.1V7.2" clip-path="url(#a)"/><defs><path id="c" stroke="#000" stroke-width=".8" d="M0 0v3.5"/></defs><use xlink:href="#c" x="219.199" y="1035.08" stroke="#000" stroke-width=".8"/><text x="219.199" y="1060.631" font-family="'Montserrat'" font-size="25" font-weight="500" text-anchor="middle">0</text><path fill="none" stroke="#b9b9b9" stroke-linecap="square" stroke-width=".75" d="M345.05 1035.1V7.2" clip-path="url(#a)"/><use xlink:href="#c" x="345.047" y="1035.08" stroke="#000" stroke-width=".8"/><text x="345.047" y="1060.631" font-family="'Montserrat'" font-size="25" font-weight="500" text-anchor="middle">500</text><path fill="none" stroke="#b9b9b9" stroke-linecap="square" stroke-width=".75" d="M470.9 1035.1V7.2" clip-path="url(#a)"/><use xlink:href="#c" x="470.895" y="1035.08" stroke="#000" stroke-width=".8"/><text x="470.895" y="1060.631" font-family="'Montserrat'" font-size="25" font-weight="500" text-anchor="middle">1,000</text><path fill="none" stroke="#b9b9b9" stroke-linecap="square" stroke-width=".75" d="M596.74 1035.1V7.2" clip-path="url(#a)"/><use xlink:href="#c" x="596.744" y="1035.08" stroke="#000" stroke-width=".8"/><text x="596.744" y="1060.631" font-family="'Montserrat'" font-size="25" font-weight="500" text-anchor="middle">1,500</text><path fill="none" stroke="#b9b9b9" stroke-linecap="square" stroke-width=".75" d="M722.59 1035.1V7.2" clip-path="url(#a)"/><use xlink:href="#c" x="722.592" y="1035.08" stroke="#000" stroke-width=".8"/><text x="722.592" y="1060.631" font-family="'Montserrat'" font-size="25" font-weight="500" text-anchor="middle">2,000</text><defs><path id="b" stroke="#000" stroke-width=".8" d="M0 0h-3.5"/></defs><use xlink:href="#b" x="219.199" y="1019.019" stroke="#000" stroke-width=".8"/><text x="212.199" y="1027.347" font-family="'Montserrat'" font-size="22" font-weight="500" text-anchor="end">Aguascalientes</text><use xlink:href="#b" x="219.199" y="986.898" stroke="#000" stroke-width=".8"/><text x="212.199" y="995.225" font-family="'Montserrat'" font-size="22" font-weight="500" text-anchor="end">Baja California</text><use xlink:href="#b" x="219.199" y="954.777" stroke="#000" stroke-width=".8"/><text x="212.199" y="963.104" font-family="'Montserrat'" font-size="22" font-weight="500" text-anchor="end">Baja California Sur</text><use xlink:href="#b" x="219.199" y="922.656" stroke="#000" stroke-width=".8"/><text x="212.199" y="930.818" font-family="'Montserrat'" font-size="22" font-weight="500" text-anchor="end">Campeche</text><use xlink:href="#b" x="219.199" y="890.534" stroke="#000" stroke-width=".8"/><text x="212.199" y="898.862" font-family="'Montserrat'" font-size="22" font-weight="500" text-anchor="end">Chiapas</text><use xlink:href="#b" x="219.199" y="858.413" stroke="#000" stroke-width=".8"/><text x="212.199" y="866.575" font-family="'Montserrat'" font-size="22" font-weight="500" text-anchor="end">Chihuahua</text><use xlink:href="#b" x="219.199" y="826.292" stroke="#000" stroke-width=".8"/><text x="212.199" y="834.454" font-family="'Montserrat'" font-size="22" font-weight="500" text-anchor="end">Ciudad de México</text><use xlink:href="#b" x="219.199" y="794.171" stroke="#000" stroke-width=".8"/><text x="212.199" y="802.333" font-family="'Montserrat'" font-size="22" font-weight="500" text-anchor="end">Coahuila</text><use xlink:href="#b" x="219.199" y="762.049" stroke="#000" stroke-width=".8"/><text x="212.199" y="770.212" font-family="'Montserrat'" font-size="22" font-weight="500" text-anchor="end">Colima</text><use xlink:href="#b" x="219.199" y="729.928" stroke="#000" stroke-width=".8"/><text x="212.199" y="738.025" font-family="'Montserrat'" font-size="22" font-weight="500" text-anchor="end">Durango</text><use xlink:href="#b" x="219.199" y="697.807" stroke="#000" stroke-width=".8"/><text x="212.199" y="705.969" font-family="'Montserrat'" font-size="22" font-weight="500" text-anchor="end">Estado de México</text><use xlink:href="#b" x="219.199" y="665.686" stroke="#000" stroke-width=".8"/><text x="212.199" y="674.013" font-family="'Montserrat'" font-size="22" font-weight="500" text-anchor="end">Guanajuato</text><use xlink:href="#b" x="219.199" y="633.564" stroke="#000" stroke-width=".8"/><text x="212.199" y="641.727" font-family="'Montserrat'" font-size="22" font-weight="500" text-anchor="end">Guerrero</text><use xlink:href="#b" x="219.199" y="601.443" stroke="#000" stroke-width=".8"/><text x="212.199" y="609.77" font-family="'Montserrat'" font-size="22" font-weight="500" text-anchor="end">Hidalgo</text><use xlink:href="#b" x="219.199" y="569.322" stroke="#000" stroke-width=".8"/><text x="212.199" y="577.484" font-family="'Montserrat'" font-size="22" font-weight="500" text-anchor="end">Jalisco</text><use xlink:href="#b" x="219.199" y="537.201" stroke="#000" stroke-width=".8"/><text x="212.199" y="545.363" font-family="'Montserrat'" font-size="22" font-weight="500" text-anchor="end">Michoacán</text><use xlink:href="#b" x="219.199" y="505.079" stroke="#000" stroke-width=".8"/><text x="212.199" y="513.242" font-family="'Montserrat'" font-size="22" font-weight="500" text-anchor="end">Morelos</text><use xlink:href="#b" x="219.199" y="472.958" stroke="#000" stroke-width=".8"/><text x="212.199" y="481.285" font-family="'Montserrat'" font-size="22" font-weight="500" text-anchor="end">Nayarit</text><use xlink:href="#b" x="219.199" y="440.837" stroke="#000" stroke-width=".8"/><text x="212.199" y="448.999" font-family="'Montserrat'" font-size="22" font-weight="500" text-anchor="end">Nuevo León</text><use xlink:href="#b" x="219.199" y="408.716" stroke="#000" stroke-width=".8"/><text x="212.199" y="416.878" font-family="'Montserrat'" font-size="22" font-weight="500" text-anchor="end">Oaxaca</text><use xlink:href="#b" x="219.199" y="376.594" stroke="#000" stroke-width=".8"/><text x="212.199" y="384.757" font-family="'Montserrat'" font-size="22" font-weight="500" text-anchor="end">Puebla</text><use xlink:href="#b" x="219.199" y="344.473" stroke="#000" stroke-width=".8"/><text x="212.199" y="352.635" font-family="'Montserrat'" font-size="22" font-weight="500" text-anchor="end">Querétaro</text><use xlink:href="#b" x="219.199" y="312.352" stroke="#000" stroke-width=".8"/><text x="212.199" y="320.514" font-family="'Montserrat'" font-size="22" font-weight="500" text-anchor="end">Quintana Roo</text><use xlink:href="#b" x="219.199" y="280.231" stroke="#000" stroke-width=".8"/><text x="212.199" y="288.393" font-family="'Montserrat'" font-size="22" font-weight="500" text-anchor="end">San Luis Potosí</text><use xlink:href="#b" x="219.199" y="248.109" stroke="#000" stroke-width=".8"/><text x="212.199" y="256.272" font-family="'Montserrat'" font-size="22" font-weight="500" text-anchor="end">Sinaloa</text><use xlink:href="#b" x="219.199" y="215.988" stroke="#000" stroke-width=".8"/><text x="212.199" y="224.15" font-family="'Montserrat'" font-size="22" font-weight="500" text-anchor="end">Sonora</text><use xlink:href="#b" x="219.199" y="183.867" stroke="#000" stroke-width=".8"/><text x="212.199" y="192.029" font-family="'Montserrat'" font-size="22" font-weight="500" text-anchor="end">Tabasco</text><use xlink:href="#b" x="219.199" y="151.746" stroke="#000" stroke-width=".8"/><text x="212.199" y="160.073" font-family="'Montserrat'" font-size="22" font-weight="500" text-anchor="end">Tamaulipas</text><use xlink:href="#b" x="219.199" y="119.624" stroke="#000" stroke-width=".8"/><text x="212.199" y="127.787" font-family="'Montserrat'" font-size="22" font-weight="500" text-anchor="end">Tlaxcala</text><use xlink:href="#b" x="219.199" y="87.503" stroke="#000" stroke-width=".8"/><text x="212.199" y="95.665" font-family="'Montserrat'" font-size="22" font-weight="500" text-anchor="end">Veracruz</text><use xlink:href="#b" x="219.199" y="55.382" stroke="#000" stroke-width=".8"/><text x="212.199" y="63.544" font-family="'Montserrat'" font-size="22" font-weight="500" text-anchor="end">Yucatán</text><use xlink:href="#b" x="219.199" y="23.261" stroke="#000" stroke-width=".8"/><text x="212.199" y="31.423" font-family="'Montserrat'" font-size="22" font-weight="500" text-anchor="end">Zacatecas</text><path fill="#10302c" d="M219.2 1033.5h308.58v-28.909H219.2zM219.2 1001.4h392.39v-28.909H219.2zM219.2 969.23h241.63v-28.909H219.2zM219.2 937.11h350.87v-28.909H219.2zM219.2 904.99h309.59v-28.909H219.2zM219.2 872.87h300.78v-28.909H219.2zM219.2 840.75h459.09v-28.909H219.2zM219.2 808.63h287.94v-28.909H219.2zM219.2 776.5h437.45v-28.909H219.2zM219.2 744.38h55.625v-28.909H219.2zM219.2 712.26h142.46v-28.909H219.2zM219.2 680.14h336.77v-28.909H219.2zM219.2 648.02h108.23v-28.909H219.2zM219.2 615.9h398.18v-28.909H219.2zM219.2 583.78h47.067v-28.909H219.2zM219.2 551.66h376.54v-28.909H219.2zM219.2 519.53h307.82v-28.909H219.2zM219.2 487.41h244.4v-28.909H219.2zM219.2 455.29h449.78v-28.909H219.2zM219.2 423.17h57.89v-28.909H219.2zM219.2 391.05h449.28v-28.909H219.2zM219.2 358.93h360.43v-28.909H219.2zM219.2 326.81h218.72v-28.909H219.2zM219.2 294.69h111.5v-28.909H219.2zM219.2 262.56h406.49v-28.909H219.2zM219.2 230.44h386.86v-28.909H219.2zM219.2 198.32h227.79v-28.909H219.2zM219.2 166.2h122.07v-28.909H219.2zM219.2 134.08h330.98v-28.909H219.2zM219.2 101.96h265.54V73.051H219.2zM219.2 69.836h94.638V40.927H219.2zM219.2 37.715h323.18V8.806H219.2z" clip-path="url(#a)"/><path fill="#fff" stroke="#002f2a" stroke-width="1.5" d="M556.62 1031.4h68.697q16 0 16-16v7.278q0-16-16-16H556.62q-16 0-16 16v-7.278q0 16 16 16z"/><text x="543.618" y="1024.499" fill="#10302c" font-family="'Montserrat'" font-size="20" font-weight="700">1,226    </text><text x="649.209" y="1025.047" fill="#4c6a67" font-family="'Montserrat'" font-size="22" font-weight="600">3.5%</text><path fill="#fff" stroke="#002f2a" stroke-width="1.5" d="M640.43 999.26h68.897q16 0 16-16v7.278q0-16-16-16H640.43q-16 0-16 16v-7.278q0 16 16 16z"/><text x="627.433" y="992.378" fill="#10302c" font-family="'Montserrat'" font-size="20" font-weight="700">1,559    </text><text x="733.024" y="992.926" fill="#4c6a67" font-family="'Montserrat'" font-size="22" font-weight="600">4.4%</text><path fill="#fff" stroke="#002f2a" stroke-width="1.5" d="M489.67 967.14h58.338q16 0 16-16v7.278q0-16-16-16H489.67q-16 0-16 16v-7.278q0 16 16 16z"/><text x="476.666" y="960.257" fill="#10302c" font-family="'Montserrat'" font-size="20" font-weight="700">960    </text><text x="582.258" y="960.805" fill="#4c6a67" font-family="'Montserrat'" font-size="22" font-weight="600">2.7%</text><path fill="#fff" stroke="#002f2a" stroke-width="1.5" d="M598.9 935.02h70.719q16 0 16-16v7.278q0-16-16-16H598.9q-16 0-16 16v-7.278q0 16 16 16z"/><text x="585.903" y="928.135" fill="#10302c" font-family="'Montserrat'" font-size="20" font-weight="700">1,394    </text><text x="691.494" y="928.683" fill="#4c6a67" font-family="'Montserrat'" font-size="22" font-weight="600">3.9%</text><path fill="#fff" stroke="#002f2a" stroke-width="1.5" d="M557.62 902.9h69.578q16 0 16-16v7.278q0-16-16-16H557.62q-16 0-16 16V886.9q0 16 16 16z"/><text x="544.624" y="896.014" fill="#10302c" font-family="'Montserrat'" font-size="20" font-weight="700">1,230    </text><text x="650.216" y="896.562" fill="#4c6a67" font-family="'Montserrat'" font-size="22" font-weight="600">3.5%</text><path fill="#fff" stroke="#002f2a" stroke-width="1.5" d="M548.81 870.77h64.838q16 0 16-16v7.278q0-16-16-16H548.81q-16 0-16 16v-7.278q0 16 16 16z"/><text x="535.815" y="863.893" fill="#10302c" font-family="'Montserrat'" font-size="20" font-weight="700">1,195    </text><text x="641.407" y="864.441" fill="#4c6a67" font-family="'Montserrat'" font-size="22" font-weight="600">3.4%</text><path fill="#fff" stroke="#002f2a" stroke-width="1.5" d="M707.13 838.65h71.138q16 0 16-16v7.278q0-16-16-16H707.13q-16 0-16 16v-7.278q0 16 16 16z"/><text x="694.132" y="831.772" fill="#10302c" font-family="'Montserrat'" font-size="20" font-weight="700">1,824    </text><text x="799.724" y="832.32" fill="#4c6a67" font-family="'Montserrat'" font-size="22" font-weight="600">5.2%</text><path fill="#fff" stroke="#002f2a" stroke-width="1.5" d="M535.98 806.53h67.759q16 0 16-16v7.278q0-16-16-16H535.98q-16 0-16 16v-7.278q0 16 16 16z"/><text x="522.978" y="799.65" fill="#10302c" font-family="'Montserrat'" font-size="20" font-weight="700">1,144    </text><text x="628.57" y="800.198" fill="#4c6a67" font-family="'Montserrat'" font-size="22" font-weight="600">3.2%</text><path fill="#fff" stroke="#002f2a" stroke-width="1.5" d="M685.49 774.41h69.797q16 0 16-16v7.278q0-16-16-16H685.49q-16 0-16 16v-7.278q0 16 16 16z"/><text x="672.486" y="767.529" fill="#10302c" font-family="'Montserrat'" font-size="20" font-weight="700">1,738    </text><text x="778.078" y="768.077" fill="#4c6a67" font-family="'Montserrat'" font-size="22" font-weight="600">4.9%</text><path fill="#fff" stroke="#002f2a" stroke-width="1.5" d="M303.66 742.29h50.716q16 0 16-16v7.278q0-16-16-16H303.66q-16 0-16 16v-7.278q0 16 16 16z"/><text x="290.662" y="735.408" fill="#10302c" font-family="'Montserrat'" font-size="20" font-weight="700">221    </text><text x="396.254" y="735.956" fill="#4c6a67" font-family="'Montserrat'" font-size="22" font-weight="600">0.6%</text><path fill="#fff" stroke="#002f2a" stroke-width="1.5" d="M390.5 710.17h56.656q16 0 16-16v7.278q0-16-16-16H390.5q-16 0-16 16v-7.278q0 16 16 16z"/><text x="377.498" y="703.287" fill="#10302c" font-family="'Montserrat'" font-size="20" font-weight="700">566    </text><text x="483.09" y="703.835" fill="#4c6a67" font-family="'Montserrat'" font-size="22" font-weight="600">1.6%</text><path fill="#fff" stroke="#002f2a" stroke-width="1.5" d="M584.81 678.05h69.238q16 0 16-16v7.278q0-16-16-16H584.81q-16 0-16 16v-7.278q0 16 16 16z"/><text x="571.808" y="671.165" fill="#10302c" font-family="'Montserrat'" font-size="20" font-weight="700">1,338    </text><text x="677.399" y="671.713" fill="#4c6a67" font-family="'Montserrat'" font-size="22" font-weight="600">3.8%</text><path fill="#fff" stroke="#002f2a" stroke-width="1.5" d="M356.27 645.93h58.478q16 0 16-16v7.278q0-16-16-16H356.27q-16 0-16 16v-7.278q0 16 16 16z"/><text x="343.267" y="639.044" fill="#10302c" font-family="'Montserrat'" font-size="20" font-weight="700">430    </text><text x="448.859" y="639.592" fill="#4c6a67" font-family="'Montserrat'" font-size="22" font-weight="600">1.2%</text><path fill="#fff" stroke="#002f2a" stroke-width="1.5" d="M646.22 613.8h69.256q16 0 16-16v7.278q0-16-16-16H646.22q-16 0-16 16V597.8q0 16 16 16z"/><text x="633.222" y="606.923" fill="#10302c" font-family="'Montserrat'" font-size="20" font-weight="700">1,582    </text><text x="738.813" y="607.471" fill="#4c6a67" font-family="'Montserrat'" font-size="22" font-weight="600">4.5%</text><path fill="#fff" stroke="#002f2a" stroke-width="1.5" d="M295.1 581.68h52.716q16 0 16-16v7.278q0-16-16-16H295.1q-16 0-16 16v-7.278q0 16 16 16z"/><text x="282.105" y="574.802" fill="#10302c" font-family="'Montserrat'" font-size="20" font-weight="700">187    </text><text x="387.697" y="575.35" fill="#4c6a67" font-family="'Montserrat'" font-size="22" font-weight="600">0.5%</text><path fill="#fff" stroke="#002f2a" stroke-width="1.5" d="M624.58 549.56h71.619q16 0 16-16v7.278q0-16-16-16H624.58q-16 0-16 16v-7.278q0 16 16 16z"/><text x="611.576" y="542.68" fill="#10302c" font-family="'Montserrat'" font-size="20" font-weight="700">1,496    </text><text x="717.167" y="543.228" fill="#4c6a67" font-family="'Montserrat'" font-size="22" font-weight="600">4.2%</text><path fill="#fff" stroke="#002f2a" stroke-width="1.5" d="M555.86 517.44h67.797q16 0 16-16v7.278q0-16-16-16H555.86q-16 0-16 16v-7.278q0 16 16 16z"/><text x="542.862" y="510.559" fill="#10302c" font-family="'Montserrat'" font-size="20" font-weight="700">1,223    </text><text x="648.454" y="511.107" fill="#4c6a67" font-family="'Montserrat'" font-size="22" font-weight="600">3.5%</text><path fill="#fff" stroke="#002f2a" stroke-width="1.5" d="M492.43 485.32h52.256q16 0 16-16v7.278q0-16-16-16H492.43q-16 0-16 16v-7.278q0 16 16 16z"/><text x="479.435" y="478.438" fill="#10302c" font-family="'Montserrat'" font-size="20" font-weight="700">971    </text><text x="585.027" y="478.986" fill="#4c6a67" font-family="'Montserrat'" font-size="22" font-weight="600">2.7%</text><path fill="#fff" stroke="#002f2a" stroke-width="1.5" d="M697.82 453.2h70.356q16 0 16-16v7.278q0-16-16-16H697.82q-16 0-16 16V437.2q0 16 16 16z"/><text x="684.819" y="446.317" fill="#10302c" font-family="'Montserrat'" font-size="20" font-weight="700">1,787    </text><text x="790.411" y="446.865" fill="#4c6a67" font-family="'Montserrat'" font-size="22" font-weight="600">5.0%</text><path fill="#fff" stroke="#002f2a" stroke-width="1.5" d="M305.93 421.08h56.497q16 0 16-16v7.278q0-16-16-16H305.93q-16 0-16 16v-7.278q0 16 16 16z"/><text x="292.928" y="414.195" fill="#10302c" font-family="'Montserrat'" font-size="20" font-weight="700">230    </text><text x="398.519" y="414.743" fill="#4c6a67" font-family="'Montserrat'" font-size="22" font-weight="600">0.6%</text><path fill="#fff" stroke="#002f2a" stroke-width="1.5" d="M697.32 388.96h69.856q16 0 16-16v7.278q0-16-16-16H697.32q-16 0-16 16v-7.278q0 16 16 16z"/><text x="684.316" y="382.074" fill="#10302c" font-family="'Montserrat'" font-size="20" font-weight="700">1,785    </text><text x="789.908" y="382.622" fill="#4c6a67" font-family="'Montserrat'" font-size="22" font-weight="600">5.0%</text><path fill="#fff" stroke="#002f2a" stroke-width="1.5" d="M608.47 356.83h69.778q16 0 16-16v7.278q0-16-16-16H608.47q-16 0-16 16v-7.278q0 16 16 16z"/><text x="595.467" y="349.953" fill="#10302c" font-family="'Montserrat'" font-size="20" font-weight="700">1,432    </text><text x="701.059" y="350.501" fill="#4c6a67" font-family="'Montserrat'" font-size="22" font-weight="600">4.0%</text><path fill="#fff" stroke="#002f2a" stroke-width="1.5" d="M466.76 324.71h57.956q16 0 16-16v7.278q0-16-16-16H466.76q-16 0-16 16v-7.278q0 16 16 16z"/><text x="453.762" y="317.832" fill="#10302c" font-family="'Montserrat'" font-size="20" font-weight="700">869    </text><text x="559.354" y="318.38" fill="#4c6a67" font-family="'Montserrat'" font-size="22" font-weight="600">2.5%</text><path fill="#fff" stroke="#002f2a" stroke-width="1.5" d="M359.54 292.59h58.678q16 0 16-16v7.278q0-16-16-16H359.54q-16 0-16 16v-7.278q0 16 16 16z"/><text x="346.539" y="285.71" fill="#10302c" font-family="'Montserrat'" font-size="20" font-weight="700">443    </text><text x="452.131" y="286.258" fill="#4c6a67" font-family="'Montserrat'" font-size="22" font-weight="600">1.3%</text><path fill="#fff" stroke="#002f2a" stroke-width="1.5" d="M654.53 260.47h64.838q16 0 16-16v7.278q0-16-16-16H654.53q-16 0-16 16v-7.278q0 16 16 16z"/><text x="641.528" y="253.589" fill="#10302c" font-family="'Montserrat'" font-size="20" font-weight="700">1,615    </text><text x="747.119" y="254.137" fill="#4c6a67" font-family="'Montserrat'" font-size="22" font-weight="600">4.6%</text><path fill="#fff" stroke="#002f2a" stroke-width="1.5" d="M634.9 228.35h68.497q16 0 16-16v7.278q0-16-16-16H634.9q-16 0-16 16v-7.278q0 16 16 16z"/><text x="621.895" y="221.468" fill="#10302c" font-family="'Montserrat'" font-size="20" font-weight="700">1,537    </text><text x="727.487" y="222.016" fill="#4c6a67" font-family="'Montserrat'" font-size="22" font-weight="600">4.3%</text><path fill="#fff" stroke="#002f2a" stroke-width="1.5" d="M475.82 196.23h57.497q16 0 16-16v7.278q0-16-16-16H475.82q-16 0-16 16v-7.278q0 16 16 16z"/><text x="462.823" y="189.347" fill="#10302c" font-family="'Montserrat'" font-size="20" font-weight="700">905    </text><text x="568.415" y="189.895" fill="#4c6a67" font-family="'Montserrat'" font-size="22" font-weight="600">2.6%</text><path fill="#fff" stroke="#002f2a" stroke-width="1.5" d="M370.11 164.11h58.156q16 0 16-16v7.278q0-16-16-16H370.11q-16 0-16 16v-7.278q0 16 16 16z"/><text x="357.11" y="157.225" fill="#10302c" font-family="'Montserrat'" font-size="20" font-weight="700">485    </text><text x="462.702" y="157.773" fill="#4c6a67" font-family="'Montserrat'" font-size="22" font-weight="600">1.4%</text><path fill="#fff" stroke="#002f2a" stroke-width="1.5" d="M579.02 131.99h63.938q16 0 16-16v7.278q0-16-16-16H579.02q-16 0-16 16v-7.278q0 16 16 16z"/><text x="566.019" y="125.104" fill="#10302c" font-family="'Montserrat'" font-size="20" font-weight="700">1,315    </text><text x="671.61" y="125.652" fill="#4c6a67" font-family="'Montserrat'" font-size="22" font-weight="600">3.7%</text><path fill="#fff" stroke="#002f2a" stroke-width="1.5" d="M513.58 99.864h69.738q16 0 16-16v7.278q0-16-16-16H513.58q-16 0-16 16v-7.278q0 16 16 16z"/><text x="500.577" y="92.983" fill="#10302c" font-family="'Montserrat'" font-size="20" font-weight="700">1,055    </text><text x="606.169" y="93.531" fill="#4c6a67" font-family="'Montserrat'" font-size="22" font-weight="600">3.0%</text><path fill="#fff" stroke="#002f2a" stroke-width="1.5" d="M342.68 67.743h56.256q16 0 16-16v7.278q0-16-16-16H342.68q-16 0-16 16v-7.278q0 16 16 16z"/><text x="329.675" y="60.862" fill="#10302c" font-family="'Montserrat'" font-size="20" font-weight="700">376    </text><text x="435.267" y="61.41" fill="#4c6a67" font-family="'Montserrat'" font-size="22" font-weight="600">1.1%</text><path fill="#fff" stroke="#002f2a" stroke-width="1.5" d="M571.22 35.622h71.138q16 0 16-16V26.9q0-16-16-16H571.22q-16 0-16 16v-7.278q0 16 16 16z"/><text x="558.216" y="28.74" fill="#10302c" font-family="'Montserrat'" font-size="20" font-weight="700">1,284    </text><text x="663.808" y="29.288" fill="#4c6a67" font-family="'Montserrat'" font-size="22" font-weight="600">3.6%</text><defs><clipPath id="a"><path d="M219.2 7.2h580.75v1027.9H219.2z"/></clipPath></defs></svg>