<svg xmlns="http://www.w3.org/2000/svg" xmlns:xlink="http://www.w3.org/1999/xlink" width="882.28pt" height="1075.4pt" viewBox="0 0 882.28 1075.4"><defs><style>*{stroke-linejoin:round;stroke-linecap:butt}</style></defs><path fill="#fff" d="M0 1075.4h882.28V0H0z"/><path fill="#fff" d="M215.49 1036.1h627.09V82.21H215.49z"/><path fill="none" stroke="#b9b9b9" stroke-linecap="square" stroke-width=".75" d="M215.49 1036.1V82.21" clip-path="url(#a)"/><defs><path id="c" stroke="#000" stroke-width=".8" d="M0 0v3.5"/></defs><use xlink:href="#c" x="215.495" y="1036.135" stroke="#000" stroke-width=".8"/><text x="215.495" y="1061.635" font-family="'Poppins'" font-size="25" font-weight="500" text-anchor="middle">0</text><path fill="none" stroke="#b9b9b9" stroke-linecap="square" stroke-width=".75" d="M312.64 1036.1V82.21" clip-path="url(#a)"/><use xlink:href="#c" x="312.638" y="1036.135" stroke="#000" stroke-width=".8"/><text x="312.638" y="1061.635" font-family="'Poppins'" font-size="25" font-weight="500" text-anchor="middle">2,000</text><path fill="none" stroke="#b9b9b9" stroke-linecap="square" stroke-width=".75" d="M409.78 1036.1V82.21" clip-path="url(#a)"/><use xlink:href="#c" x="409.782" y="1036.135" stroke="#000" stroke-width=".8"/><text x="409.782" y="1061.635" font-family="'Poppins'" font-size="25" font-weight="500" text-anchor="middle">4,000</text><path fill="none" stroke="#b9b9b9" stroke-linecap="square" stroke-width=".75" d="M506.93 1036.1V82.21" clip-path="url(#a)"/><use xlink:href="#c" x="506.925" y="1036.135" stroke="#000" stroke-width=".8"/><text x="506.925" y="1061.635" font-family="'Poppins'" font-size="25" font-weight="500" text-anchor="middle">6,000</text><path fill="none" stroke="#b9b9b9" stroke-linecap="square" stroke-width=".75" d="M604.07 1036.1V82.21" clip-path="url(#a)"/><use xlink:href="#c" x="604.069" y="1036.135" stroke="#000" stroke-width=".8"/><text x="604.069" y="1061.635" font-family="'Poppins'" font-size="25" font-weight="500" text-anchor="middle">8,000</text><path fill="none" stroke="#b9b9b9" stroke-linecap="square" stroke-width=".75" d="M701.21 1036.1V82.21" clip-path="url(#a)"/><use xlink:href="#c" x="701.212" y="1036.135" stroke="#000" stroke-width=".8"/><text x="701.212" y="1061.635" font-family="'Poppins'" font-size="25" font-weight="500" text-anchor="middle">10,000</text><path fill="none" stroke="#b9b9b9" stroke-linecap="square" stroke-width=".75" d="M798.36 1036.1V82.21" clip-path="url(#a)"/><use xlink:href="#c" x="798.356" y="1036.135" stroke="#000" stroke-width=".8"/><text x="798.356" y="1061.635" font-family="'Poppins'" font-size="25" font-weight="500" text-anchor="middle">12,000</text><defs><path id="b" stroke="#000" stroke-width=".8" d="M0 0h-3.5"/></defs><use xlink:href="#b" x="215.495" y="121.992" stroke="#000" stroke-width=".8"/><text x="141.995" y="130.132" font-family="'Poppins'" font-size="22" font-weight="500" text-anchor="end">31-01-2025</text><use xlink:href="#b" x="215.495" y="201.483" stroke="#000" stroke-width=".8"/><text x="141.995" y="209.623" font-family="'Poppins'" font-size="22" font-weight="500" text-anchor="end">31-12-2025</text><use xlink:href="#b" x="215.495" y="280.973" stroke="#000" stroke-width=".8"/><text x="141.995" y="289.113" font-family="'Poppins'" font-size="22" font-weight="500" text-anchor="end">31-03-2025</text><use xlink:href="#b" x="215.495" y="360.464" stroke="#000" stroke-width=".8"/><text x="141.995" y="368.604" font-family="'Poppins'" font-size="22" font-weight="500" text-anchor="end">31-10-2025</text><use xlink:href="#b" x="215.495" y="439.955" stroke="#000" stroke-width=".8"/><text x="141.995" y="448.095" font-family="'Poppins'" font-size="22" font-weight="500" text-anchor="end">31-05-2025</text><use xlink:href="#b" x="215.495" y="519.445" stroke="#000" stroke-width=".8"/><text x="141.995" y="527.585" font-family="'Poppins'" font-size="22" font-weight="500" text-anchor="end">31-08-2025</text><use xlink:href="#b" x="215.495" y="598.936" stroke="#000" stroke-width=".8"/><text x="141.995" y="607.076" font-family="'Poppins'" font-size="22" font-weight="500" text-anchor="end">30-06-2025</text><use xlink:href="#b" x="215.495" y="678.427" stroke="#000" stroke-width=".8"/><text x="141.995" y="686.567" font-family="'Poppins'" font-size="22" font-weight="500" text-anchor="end">30-09-2025</text><use xlink:href="#b" x="215.495" y="757.917" stroke="#000" stroke-width=".8"/><text x="141.995" y="766.057" font-family="'Poppins'" font-size="22" font-weight="500" text-anchor="end">31-07-2025</text><use xlink:href="#b" x="215.495" y="837.408" stroke="#000" stroke-width=".8"/><text x="141.995" y="845.548" font-family="'Poppins'" font-size="22" font-weight="500" text-anchor="end">30-11-2025</text><use xlink:href="#b" x="215.495" y="916.899" stroke="#000" stroke-width=".8"/><text x="141.995" y="925.039" font-family="'Poppins'" font-size="22" font-weight="500" text-anchor="end">30-04-2025</text><use xlink:href="#b" x="215.495" y="996.389" stroke="#000" stroke-width=".8"/><text x="141.995" y="1004.529" font-family="'Poppins'" font-size="22" font-weight="500" text-anchor="end">28-02-2025</text><path fill="#8b0000" d="M215.49 86.221h166.5v71.542h-166.5z" clip-path="url(#a)"/><path fill="#b22222" d="M382 86.221h159.51v71.542H382z" clip-path="url(#a)"/><path fill="#cd5c5c" d="M541.51 86.221h169.71v71.542H541.51z" clip-path="url(#a)"/><path fill="#8b0000" d="M215.49 165.71h176.27v71.542H215.49z" clip-path="url(#a)"/><path fill="#b22222" d="M391.76 165.71h152.81v71.542H391.76z" clip-path="url(#a)"/><path fill="#cd5c5c" d="M544.57 165.71h140.91v71.542H544.57z" clip-path="url(#a)"/><path fill="#8b0000" d="M215.49 245.2h138.67v71.542H215.49z" clip-path="url(#a)"/><path fill="#b22222" d="M354.17 245.2h164.22v71.542H354.17z" clip-path="url(#a)"/><path fill="#cd5c5c" d="M518.39 245.2h157.37v71.542H518.39z" clip-path="url(#a)"/><path fill="#8b0000" d="M215.49 324.69h154.6v71.542h-154.6z" clip-path="url(#a)"/><path fill="#b22222" d="M370.1 324.69h144.16v71.542H370.1z" clip-path="url(#a)"/><path fill="#cd5c5c" d="M514.26 324.69h136.15v71.542H514.26z" clip-path="url(#a)"/><path fill="#8b0000" d="M215.49 404.18h156.35v71.542H215.49z" clip-path="url(#a)"/><path fill="#b22222" d="M371.85 404.18h125.02v71.542H371.85z" clip-path="url(#a)"/><path fill="#cd5c5c" d="M496.87 404.18h146.54v71.542H496.87z" clip-path="url(#a)"/><path fill="#8b0000" d="M215.49 483.67h148v71.542h-148z" clip-path="url(#a)"/><path fill="#b22222" d="M363.49 483.67h133.86v71.542H363.49z" clip-path="url(#a)"/><path fill="#cd5c5c" d="M497.36 483.67h120.36v71.542H497.36z" clip-path="url(#a)"/><path fill="#8b0000" d="M215.49 563.17h133.14v71.542H215.49z" clip-path="url(#a)"/><path fill="#b22222" d="M348.63 563.17h131.34v71.542H348.63z" clip-path="url(#a)"/><path fill="#cd5c5c" d="M479.97 563.17h121.14v71.542H479.97z" clip-path="url(#a)"/><path fill="#8b0000" d="M215.49 642.66h128.08v71.542H215.49z" clip-path="url(#a)"/><path fill="#b22222" d="M343.58 642.66h131.58v71.542H343.58z" clip-path="url(#a)"/><path fill="#cd5c5c" d="M475.16 642.66h119.78v71.542H475.16z" clip-path="url(#a)"/><path fill="#8b0000" d="M215.49 722.15h122.69v71.542H215.49z" clip-path="url(#a)"/><path fill="#b22222" d="M338.19 722.15h121.87v71.542H338.19z" clip-path="url(#a)"/><path fill="#cd5c5c" d="M460.05 722.15h133.91v71.542H460.05z" clip-path="url(#a)"/><path fill="#8b0000" d="M215.49 801.64h138.14v71.542H215.49z" clip-path="url(#a)"/><path fill="#b22222" d="M353.63 801.64h105.69v71.542H353.63z" clip-path="url(#a)"/><path fill="#cd5c5c" d="M459.32 801.64h118.71v71.542H459.32z" clip-path="url(#a)"/><path fill="#8b0000" d="M215.49 881.13h113.76v71.542H215.49z" clip-path="url(#a)"/><path fill="#b22222" d="M329.25 881.13h113.12v71.542H329.25z" clip-path="url(#a)"/><path fill="#cd5c5c" d="M442.37 881.13h124.15v71.542H442.37z" clip-path="url(#a)"/><path fill="#8b0000" d="M215.49 960.62h110.74v71.542H215.49z" clip-path="url(#a)"/><path fill="#b22222" d="M326.24 960.62h110.6v71.542h-110.6z" clip-path="url(#a)"/><path fill="#cd5c5c" d="M436.84 960.62h115.41v71.542H436.84z" clip-path="url(#a)"/><text x="298.747" y="126.294" fill="#fff" font-family="'Poppins'" font-size="18" font-weight="500" text-anchor="middle">3,428</text><text x="461.753" y="126.294" fill="#fff" font-family="'Poppins'" font-size="18" font-weight="500" text-anchor="middle">3,284</text><text x="626.363" y="126.294" fill="#fff" font-family="'Poppins'" font-size="18" font-weight="500" text-anchor="middle">3,494</text><text x="215.495" y="127.227" fill="#4c6a67" font-family="'Poppins'" font-size="22" font-weight="600" text-anchor="end">10.1%  </text><text x="728.32" y="127.681" fill="#10302c" font-family="'Poppins'" font-size="24" font-weight="700">10,206</text><text x="303.628" y="205.784" fill="#fff" font-family="'Poppins'" font-size="18" font-weight="500" text-anchor="middle">3,629</text><text x="468.165" y="205.784" fill="#fff" font-family="'Poppins'" font-size="18" font-weight="500" text-anchor="middle">3,146</text><text x="615.022" y="205.784" fill="#fff" font-family="'Poppins'" font-size="18" font-weight="500" text-anchor="middle">2,901</text><text x="215.495" y="206.718" fill="#4c6a67" font-family="'Poppins'" font-size="22" font-weight="600" text-anchor="end">9.6%  </text><text x="702.577" y="207.171" fill="#10302c" font-family="'Poppins'" font-size="24" font-weight="700">9,676</text><text x="284.831" y="285.275" fill="#fff" font-family="'Poppins'" font-size="18" font-weight="500" text-anchor="middle">2,855</text><text x="436.278" y="285.275" fill="#fff" font-family="'Poppins'" font-size="18" font-weight="500" text-anchor="middle">3,381</text><text x="597.074" y="285.275" fill="#fff" font-family="'Poppins'" font-size="18" font-weight="500" text-anchor="middle">3,240</text><text x="215.495" y="286.208" fill="#4c6a67" font-family="'Poppins'" font-size="22" font-weight="600" text-anchor="end">9.4%  </text><text x="692.863" y="286.662" fill="#10302c" font-family="'Poppins'" font-size="24" font-weight="700">9,476</text><text x="292.797" y="364.766" fill="#fff" font-family="'Poppins'" font-size="18" font-weight="500" text-anchor="middle">3,183</text><text x="442.179" y="364.766" fill="#fff" font-family="'Poppins'" font-size="18" font-weight="500" text-anchor="middle">2,968</text><text x="582.333" y="364.766" fill="#fff" font-family="'Poppins'" font-size="18" font-weight="500" text-anchor="middle">2,803</text><text x="215.495" y="365.699" fill="#4c6a67" font-family="'Poppins'" font-size="22" font-weight="600" text-anchor="end">8.9%  </text><text x="667.509" y="366.153" fill="#10302c" font-family="'Poppins'" font-size="24" font-weight="700">8,954</text><text x="293.671" y="444.256" fill="#fff" font-family="'Poppins'" font-size="18" font-weight="500" text-anchor="middle">3,219</text><text x="434.359" y="444.256" fill="#fff" font-family="'Poppins'" font-size="18" font-weight="500" text-anchor="middle">2,574</text><text x="570.141" y="444.256" fill="#fff" font-family="'Poppins'" font-size="18" font-weight="500" text-anchor="middle">3,017</text><text x="215.495" y="445.19" fill="#4c6a67" font-family="'Poppins'" font-size="22" font-weight="600" text-anchor="end">8.8%  </text><text x="660.514" y="445.643" fill="#10302c" font-family="'Poppins'" font-size="24" font-weight="700">8,810</text><text x="289.494" y="523.747" fill="#fff" font-family="'Poppins'" font-size="18" font-weight="500" text-anchor="middle">3,047</text><text x="430.425" y="523.747" fill="#fff" font-family="'Poppins'" font-size="18" font-weight="500" text-anchor="middle">2,756</text><text x="557.537" y="523.747" fill="#fff" font-family="'Poppins'" font-size="18" font-weight="500" text-anchor="middle">2,478</text><text x="215.495" y="524.68" fill="#4c6a67" font-family="'Poppins'" font-size="22" font-weight="600" text-anchor="end">8.2%  </text><text x="634.82" y="525.134" fill="#10302c" font-family="'Poppins'" font-size="24" font-weight="700">8,281</text><text x="282.062" y="603.238" fill="#fff" font-family="'Poppins'" font-size="18" font-weight="500" text-anchor="middle">2,741</text><text x="414.299" y="603.238" fill="#fff" font-family="'Poppins'" font-size="18" font-weight="500" text-anchor="middle">2,704</text><text x="540.537" y="603.238" fill="#fff" font-family="'Poppins'" font-size="18" font-weight="500" text-anchor="middle">2,494</text><text x="215.495" y="604.171" fill="#4c6a67" font-family="'Poppins'" font-size="22" font-weight="600" text-anchor="end">7.9%  </text><text x="618.208" y="604.625" fill="#10302c" font-family="'Poppins'" font-size="24" font-weight="700">7,939</text><text x="279.537" y="682.728" fill="#fff" font-family="'Poppins'" font-size="18" font-weight="500" text-anchor="middle">2,637</text><text x="409.369" y="682.728" fill="#fff" font-family="'Poppins'" font-size="18" font-weight="500" text-anchor="middle">2,709</text><text x="535.048" y="682.728" fill="#fff" font-family="'Poppins'" font-size="18" font-weight="500" text-anchor="middle">2,466</text><text x="215.495" y="683.662" fill="#4c6a67" font-family="'Poppins'" font-size="22" font-weight="600" text-anchor="end">7.8%  </text><text x="612.04" y="684.115" fill="#10302c" font-family="'Poppins'" font-size="24" font-weight="700">7,812</text><text x="276.841" y="762.219" fill="#fff" font-family="'Poppins'" font-size="18" font-weight="500" text-anchor="middle">2,526</text><text x="399.12" y="762.219" fill="#fff" font-family="'Poppins'" font-size="18" font-weight="500" text-anchor="middle">2,509</text><text x="527.01" y="762.219" fill="#fff" font-family="'Poppins'" font-size="18" font-weight="500" text-anchor="middle">2,757</text><text x="215.495" y="763.152" fill="#4c6a67" font-family="'Poppins'" font-size="22" font-weight="600" text-anchor="end">7.7%  </text><text x="611.068" y="763.606" fill="#10302c" font-family="'Poppins'" font-size="24" font-weight="700">7,792</text><text x="284.564" y="841.71" fill="#fff" font-family="'Poppins'" font-size="18" font-weight="500" text-anchor="middle">2,844</text><text x="406.479" y="841.71" fill="#fff" font-family="'Poppins'" font-size="18" font-weight="500" text-anchor="middle">2,176</text><text x="518.68" y="841.71" fill="#fff" font-family="'Poppins'" font-size="18" font-weight="500" text-anchor="middle">2,444</text><text x="215.495" y="842.643" fill="#4c6a67" font-family="'Poppins'" font-size="22" font-weight="600" text-anchor="end">7.4%  </text><text x="595.137" y="843.097" fill="#10302c" font-family="'Poppins'" font-size="24" font-weight="700">7,464</text><text x="272.372" y="921.2" fill="#fff" font-family="'Poppins'" font-size="18" font-weight="500" text-anchor="middle">2,342</text><text x="385.812" y="921.2" fill="#fff" font-family="'Poppins'" font-size="18" font-weight="500" text-anchor="middle">2,329</text><text x="504.448" y="921.2" fill="#fff" font-family="'Poppins'" font-size="18" font-weight="500" text-anchor="middle">2,556</text><text x="215.495" y="922.134" fill="#4c6a67" font-family="'Poppins'" font-size="22" font-weight="600" text-anchor="end">7.2%  </text><text x="583.625" y="922.587" fill="#10302c" font-family="'Poppins'" font-size="24" font-weight="700">7,227</text><text x="270.866" y="1000.691" fill="#fff" font-family="'Poppins'" font-size="18" font-weight="500" text-anchor="middle">2,280</text><text x="381.537" y="1000.691" fill="#fff" font-family="'Poppins'" font-size="18" font-weight="500" text-anchor="middle">2,277</text><text x="494.539" y="1000.691" fill="#fff" font-family="'Poppins'" font-size="18" font-weight="500" text-anchor="middle">2,376</text><text x="215.495" y="1001.624" fill="#4c6a67" font-family="'Poppins'" font-size="22" font-weight="600" text-anchor="end">6.9%  </text><text x="569.345" y="1002.078" fill="#10302c" font-family="'Poppins'" font-size="24" font-weight="700">6,933</text><path fill="#8b0000" d="M67.184 35.28h48v-16.8h-48z"/><text x="134.384" y="35.28" fill="#767676" font-family="'Poppins'" font-size="24" font-weight="500">Desaparecidos</text><path fill="#b22222" d="M365.01 35.28h48v-16.8h-48z"/><text x="432.206" y="35.28" fill="#767676" font-family="'Poppins'" font-size="24" font-weight="500">Localizados</text><path fill="#cd5c5c" d="M621.49 35.28h48v-16.8h-48z"/><text x="688.694" y="35.28" fill="#767676" font-family="'Poppins'" font-size="24" font-weight="500">No localizados</text><defs><clipPath id="a"><path d="M215.49 82.247h627.09v953.89H215.49z"/></clipPath></defs></svg>