<svg xmlns="http://www.w3.org/2000/svg" xmlns:xlink="http://www.w3.org/1999/xlink" width="1142.48" height="713.987" viewBox="0 0 856.86 535.49"><defs><style>*{stroke-linejoin:round;stroke-linecap:butt}</style></defs><path fill="#fff" d="M0 535.49h856.86V0H0z"/><path fill="#fff" d="M121.34 497.89h670.21V64.54H121.34z"/><path fill="none" stroke="#b9b9b9" stroke-linecap="square" stroke-width=".75" d="M121.34 497.89V64.54" clip-path="url(#a)"/><defs><path id="c" stroke="#000" stroke-width=".8" d="M0 0v3.5"/></defs><use xlink:href="#c" x="121.343" y="497.888" stroke="#000" stroke-width=".8"/><text x="121.343" y="523.439" font-family="'Montserrat'" font-size="25" font-weight="500" text-anchor="middle">0</text><path fill="none" stroke="#b9b9b9" stroke-linecap="square" stroke-width=".75" d="M239.38 497.89V64.54" clip-path="url(#a)"/><use xlink:href="#c" x="239.382" y="497.888" stroke="#000" stroke-width=".8"/><text x="239.382" y="523.439" font-family="'Montserrat'" font-size="25" font-weight="500" text-anchor="middle">2,000</text><path fill="none" stroke="#b9b9b9" stroke-linecap="square" stroke-width=".75" d="M357.42 497.89V64.54" clip-path="url(#a)"/><use xlink:href="#c" x="357.42" y="497.888" stroke="#000" stroke-width=".8"/><text x="357.42" y="523.439" font-family="'Montserrat'" font-size="25" font-weight="500" text-anchor="middle">4,000</text><path fill="none" stroke="#b9b9b9" stroke-linecap="square" stroke-width=".75" d="M475.46 497.89V64.54" clip-path="url(#a)"/><use xlink:href="#c" x="475.458" y="497.888" stroke="#000" stroke-width=".8"/><text x="475.458" y="523.439" font-family="'Montserrat'" font-size="25" font-weight="500" text-anchor="middle">6,000</text><path fill="none" stroke="#b9b9b9" stroke-linecap="square" stroke-width=".75" d="M593.5 497.89V64.54" clip-path="url(#a)"/><use xlink:href="#c" x="593.496" y="497.888" stroke="#000" stroke-width=".8"/><text x="593.496" y="523.439" font-family="'Montserrat'" font-size="25" font-weight="500" text-anchor="middle">8,000</text><path fill="none" stroke="#b9b9b9" stroke-linecap="square" stroke-width=".75" d="M711.53 497.89V64.54" clip-path="url(#a)"/><use xlink:href="#c" x="711.534" y="497.888" stroke="#000" stroke-width=".8"/><text x="711.534" y="523.439" font-family="'Montserrat'" font-size="25" font-weight="500" text-anchor="middle">10,000</text><defs><path id="b" stroke="#000" stroke-width=".8" d="M0 0h-3.5"/></defs><use xlink:href="#b" x="121.343" y="483.443" stroke="#000" stroke-width=".8"/><text x="114.343" y="491.606" font-family="'Montserrat'" font-size="22" font-weight="500" text-anchor="end">2007-2011</text><use xlink:href="#b" x="121.343" y="454.553" stroke="#000" stroke-width=".8"/><text x="114.343" y="462.715" font-family="'Montserrat'" font-size="22" font-weight="500" text-anchor="end">2012</text><use xlink:href="#b" x="121.343" y="425.663" stroke="#000" stroke-width=".8"/><text x="114.343" y="433.825" font-family="'Montserrat'" font-size="22" font-weight="500" text-anchor="end">2013</text><use xlink:href="#b" x="121.343" y="396.773" stroke="#000" stroke-width=".8"/><text x="114.343" y="404.935" font-family="'Montserrat'" font-size="22" font-weight="500" text-anchor="end">2014</text><use xlink:href="#b" x="121.343" y="367.883" stroke="#000" stroke-width=".8"/><text x="114.343" y="376.045" font-family="'Montserrat'" font-size="22" font-weight="500" text-anchor="end">2015</text><use xlink:href="#b" x="121.343" y="338.993" stroke="#000" stroke-width=".8"/><text x="114.343" y="347.155" font-family="'Montserrat'" font-size="22" font-weight="500" text-anchor="end">2016</text><use xlink:href="#b" x="121.343" y="310.102" stroke="#000" stroke-width=".8"/><text x="114.343" y="318.265" font-family="'Montserrat'" font-size="22" font-weight="500" text-anchor="end">2017</text><use xlink:href="#b" x="121.343" y="281.212" stroke="#000" stroke-width=".8"/><text x="114.343" y="289.375" font-family="'Montserrat'" font-size="22" font-weight="500" text-anchor="end">2018</text><use xlink:href="#b" x="121.343" y="252.322" stroke="#000" stroke-width=".8"/><text x="114.343" y="260.485" font-family="'Montserrat'" font-size="22" font-weight="500" text-anchor="end">2019</text><use xlink:href="#b" x="121.343" y="223.432" stroke="#000" stroke-width=".8"/><text x="114.343" y="231.594" font-family="'Montserrat'" font-size="22" font-weight="500" text-anchor="end">2020</text><use xlink:href="#b" x="121.343" y="194.542" stroke="#000" stroke-width=".8"/><text x="114.343" y="202.704" font-family="'Montserrat'" font-size="22" font-weight="500" text-anchor="end">2021</text><use xlink:href="#b" x="121.343" y="165.652" stroke="#000" stroke-width=".8"/><text x="114.343" y="173.814" font-family="'Montserrat'" font-size="22" font-weight="500" text-anchor="end">2022</text><use xlink:href="#b" x="121.343" y="136.762" stroke="#000" stroke-width=".8"/><text x="114.343" y="144.924" font-family="'Montserrat'" font-size="22" font-weight="500" text-anchor="end">2023</text><use xlink:href="#b" x="121.343" y="107.872" stroke="#000" stroke-width=".8"/><text x="114.343" y="116.034" font-family="'Montserrat'" font-size="22" font-weight="500" text-anchor="end">2024</text><use xlink:href="#b" x="121.343" y="78.981" stroke="#000" stroke-width=".8"/><text x="114.343" y="87.144" font-family="'Montserrat'" font-size="22" font-weight="500" text-anchor="end">2025</text><path fill="#10302c" d="M121.34 496.44H269.3v-26.001H121.34z" clip-path="url(#a)"/><path fill="#4c6a67" d="M269.3 496.44h208.99v-26.001H269.3z" clip-path="url(#a)"/><path fill="#10302c" d="M121.34 467.55h40.133v-26.001H121.34z" clip-path="url(#a)"/><path fill="#4c6a67" d="M161.48 467.55h83.689v-26.001H161.48z" clip-path="url(#a)"/><path fill="#10302c" d="M121.34 438.66h50.933v-26.001H121.34z" clip-path="url(#a)"/><path fill="#4c6a67" d="M172.28 438.66h84.751v-26.001H172.28z" clip-path="url(#a)"/><path fill="#10302c" d="M121.34 409.77h51.288v-26.001H121.34z" clip-path="url(#a)"/><path fill="#4c6a67" d="M172.63 409.77h79.971v-26.001H172.63z" clip-path="url(#a)"/><path fill="#10302c" d="M121.34 380.88h46.566v-26.001H121.34z" clip-path="url(#a)"/><path fill="#4c6a67" d="M167.91 380.88h75.013v-26.001H167.91z" clip-path="url(#a)"/><path fill="#10302c" d="M121.34 351.99h57.248v-26.001H121.34z" clip-path="url(#a)"/><path fill="#4c6a67" d="M178.59 351.99h85.991v-26.001H178.59z" clip-path="url(#a)"/><path fill="#10302c" d="M121.34 323.1h63.15v-26.001h-63.15z" clip-path="url(#a)"/><path fill="#4c6a67" d="M184.49 323.1h113.26v-26.001H184.49z" clip-path="url(#a)"/><path fill="#10302c" d="M121.34 294.21h37.064v-26.001H121.34z" clip-path="url(#a)"/><path fill="#4c6a67" d="M158.41 294.21h106.06v-26.001H158.41z" clip-path="url(#a)"/><path fill="#10302c" d="M121.34 265.32h40.428v-26.001H121.34z" clip-path="url(#a)"/><path fill="#4c6a67" d="M161.77 265.32h134.21v-26.001H161.77z" clip-path="url(#a)"/><path fill="#10302c" d="M121.34 236.43h70.115v-26.001H121.34z" clip-path="url(#a)"/><path fill="#4c6a67" d="M191.46 236.43h156.11v-26.001H191.46z" clip-path="url(#a)"/><path fill="#10302c" d="M121.34 207.54h96.732v-26.001H121.34z" clip-path="url(#a)"/><path fill="#4c6a67" d="M218.08 207.54h183.96v-26.001H218.08z" clip-path="url(#a)"/><path fill="#10302c" d="M121.34 178.65h89.001v-26.001H121.34z" clip-path="url(#a)"/><path fill="#4c6a67" d="M210.34 178.65h168.44v-26.001H210.34z" clip-path="url(#a)"/><path fill="#10302c" d="M121.34 149.76h132.5v-26.001h-132.5z" clip-path="url(#a)"/><path fill="#4c6a67" d="M253.84 149.76h227.34v-26.001H253.84z" clip-path="url(#a)"/><path fill="#10302c" d="M121.34 120.87h184.79V94.869H121.34z" clip-path="url(#a)"/><path fill="#4c6a67" d="M306.13 120.87h345.03V94.869H306.13z" clip-path="url(#a)"/><path fill="#10302c" d="M121.34 91.982h28.742V65.981H121.34z" clip-path="url(#a)"/><path fill="#4c6a67" d="M150.09 91.982h235.78V65.981H150.09z" clip-path="url(#a)"/><text x="195.324" y="488.923" fill="#fff" font-family="'Montserrat'" font-size="20" font-weight="500" text-anchor="middle">2,507</text><text x="373.797" y="488.923" fill="#fff" font-family="'Montserrat'" font-size="20" font-weight="500" text-anchor="middle">3,541</text><path fill="#fff" stroke="#002f2a" stroke-width="1.5" d="M509.57 495.8h77.819q16 0 16-16v7.278q0-16-16-16H509.57q-16 0-16 16V479.8q0 16 16 16z"/><text x="496.569" y="488.923" fill="#10302c" font-family="'Montserrat'" font-size="20" font-weight="700">6,048    </text><text x="618.426" y="489.471" fill="#4c6a67" font-family="'Montserrat'" font-size="22" font-weight="600">10.4%</text><text x="141.41" y="460.033" fill="#fff" font-family="'Montserrat'" font-size="20" font-weight="500" text-anchor="middle">680</text><text x="203.321" y="460.033" fill="#fff" font-family="'Montserrat'" font-size="20" font-weight="500" text-anchor="middle">1,418</text><path fill="#fff" stroke="#002f2a" stroke-width="1.5" d="M276.44 466.91h75.838q16 0 16-16v7.278q0-16-16-16H276.44q-16 0-16 16v-7.278q0 16 16 16z"/><text x="263.444" y="460.033" fill="#10302c" font-family="'Montserrat'" font-size="20" font-weight="700">2,098    </text><text x="385.301" y="460.581" fill="#4c6a67" font-family="'Montserrat'" font-size="22" font-weight="600">3.6%</text><text x="146.81" y="431.143" fill="#fff" font-family="'Montserrat'" font-size="20" font-weight="500" text-anchor="middle">863</text><text x="214.653" y="431.143" fill="#fff" font-family="'Montserrat'" font-size="20" font-weight="500" text-anchor="middle">1,436</text><path fill="#fff" stroke="#002f2a" stroke-width="1.5" d="M288.31 438.02h73.597q16 0 16-16v7.278q0-16-16-16H288.31q-16 0-16 16v-7.278q0 16 16 16z"/><text x="275.307" y="431.143" fill="#10302c" font-family="'Montserrat'" font-size="20" font-weight="700">2,299    </text><text x="397.164" y="431.691" fill="#4c6a67" font-family="'Montserrat'" font-size="22" font-weight="600">4.0%</text><text x="146.987" y="402.253" fill="#fff" font-family="'Montserrat'" font-size="20" font-weight="500" text-anchor="middle">869</text><text x="212.616" y="402.253" fill="#fff" font-family="'Montserrat'" font-size="20" font-weight="500" text-anchor="middle">1,355</text><path fill="#fff" stroke="#002f2a" stroke-width="1.5" d="M283.88 409.13h73.697q16 0 16-16v7.278q0-16-16-16H283.88q-16 0-16 16v-7.278q0 16 16 16z"/><text x="270.88" y="402.253" fill="#10302c" font-family="'Montserrat'" font-size="20" font-weight="700">2,224    </text><text x="392.738" y="402.801" fill="#4c6a67" font-family="'Montserrat'" font-size="22" font-weight="600">3.8%</text><text x="144.626" y="373.362" fill="#fff" font-family="'Montserrat'" font-size="20" font-weight="500" text-anchor="middle">789</text><text x="205.416" y="373.362" fill="#fff" font-family="'Montserrat'" font-size="20" font-weight="500" text-anchor="middle">1,271</text><path fill="#fff" stroke="#002f2a" stroke-width="1.5" d="M274.2 380.24h76.219q16 0 16-16v7.278q0-16-16-16H274.2q-16 0-16 16v-7.278q0 16 16 16z"/><text x="261.201" y="373.362" fill="#10302c" font-family="'Montserrat'" font-size="20" font-weight="700">2,060    </text><text x="383.058" y="373.91" fill="#4c6a67" font-family="'Montserrat'" font-size="22" font-weight="600">3.5%</text><text x="149.968" y="344.472" fill="#fff" font-family="'Montserrat'" font-size="20" font-weight="500" text-anchor="middle">970</text><text x="221.587" y="344.472" fill="#fff" font-family="'Montserrat'" font-size="20" font-weight="500" text-anchor="middle">1,457</text><path fill="#fff" stroke="#002f2a" stroke-width="1.5" d="M295.86 351.35h74.297q16 0 16-16v7.278q0-16-16-16H295.86q-16 0-16 16v-7.278q0 16 16 16z"/><text x="282.861" y="344.472" fill="#10302c" font-family="'Montserrat'" font-size="20" font-weight="700">2,427    </text><text x="404.718" y="345.02" fill="#4c6a67" font-family="'Montserrat'" font-size="22" font-weight="600">4.2%</text><text x="152.919" y="315.582" fill="#fff" font-family="'Montserrat'" font-size="20" font-weight="500" text-anchor="middle">1,070</text><text x="241.123" y="315.582" fill="#fff" font-family="'Montserrat'" font-size="20" font-weight="500" text-anchor="middle">1,919</text><path fill="#fff" stroke="#002f2a" stroke-width="1.5" d="M329.03 322.46h74.997q16 0 16-16v7.278q0-16-16-16H329.03q-16 0-16 16v-7.278q0 16 16 16z"/><text x="316.03" y="315.582" fill="#10302c" font-family="'Montserrat'" font-size="20" font-weight="700">2,989    </text><text x="437.887" y="316.13" fill="#4c6a67" font-family="'Montserrat'" font-size="22" font-weight="600">5.2%</text><text x="139.875" y="286.692" fill="#fff" font-family="'Montserrat'" font-size="20" font-weight="500" text-anchor="middle">628</text><text x="211.436" y="286.692" fill="#fff" font-family="'Montserrat'" font-size="20" font-weight="500" text-anchor="middle">1,797</text><path fill="#fff" stroke="#002f2a" stroke-width="1.5" d="M295.74 293.57h73.797q16 0 16-16v7.278q0-16-16-16H295.74q-16 0-16 16v-7.278q0 16 16 16z"/><text x="282.743" y="286.692" fill="#10302c" font-family="'Montserrat'" font-size="20" font-weight="700">2,425    </text><text x="404.6" y="287.24" fill="#4c6a67" font-family="'Montserrat'" font-size="22" font-weight="600">4.2%</text><text x="141.557" y="257.802" fill="#fff" font-family="'Montserrat'" font-size="20" font-weight="500" text-anchor="middle">685</text><text x="228.876" y="257.802" fill="#fff" font-family="'Montserrat'" font-size="20" font-weight="500" text-anchor="middle">2,274</text><path fill="#fff" stroke="#002f2a" stroke-width="1.5" d="M327.26 264.68h73.697q16 0 16-16v7.278q0-16-16-16H327.26q-16 0-16 16v-7.278q0 16 16 16z"/><text x="314.259" y="257.802" fill="#10302c" font-family="'Montserrat'" font-size="20" font-weight="700">2,959    </text><text x="436.117" y="258.35" fill="#4c6a67" font-family="'Montserrat'" font-size="22" font-weight="600">5.1%</text><text x="156.401" y="228.912" fill="#fff" font-family="'Montserrat'" font-size="20" font-weight="500" text-anchor="middle">1,188</text><text x="269.511" y="228.912" fill="#fff" font-family="'Montserrat'" font-size="20" font-weight="500" text-anchor="middle">2,645</text><path fill="#fff" stroke="#002f2a" stroke-width="1.5" d="M378.84 235.79h73.238q16 0 16-16v7.278q0-16-16-16H378.84q-16 0-16 16v-7.278q0 16 16 16z"/><text x="365.842" y="228.912" fill="#10302c" font-family="'Montserrat'" font-size="20" font-weight="700">3,833    </text><text x="487.699" y="229.46" fill="#4c6a67" font-family="'Montserrat'" font-size="22" font-weight="600">6.6%</text><text x="169.71" y="200.022" fill="#fff" font-family="'Montserrat'" font-size="20" font-weight="500" text-anchor="middle">1,639</text><text x="310.057" y="200.022" fill="#fff" font-family="'Montserrat'" font-size="20" font-weight="500" text-anchor="middle">3,117</text><path fill="#fff" stroke="#002f2a" stroke-width="1.5" d="M433.32 206.9h75.338q16 0 16-16v7.278q0-16-16-16H433.32q-16 0-16 16V190.9q0 16 16 16z"/><text x="420.317" y="200.022" fill="#10302c" font-family="'Montserrat'" font-size="20" font-weight="700">4,756    </text><text x="542.174" y="200.57" fill="#4c6a67" font-family="'Montserrat'" font-size="22" font-weight="600">8.2%</text><text x="165.844" y="171.131" fill="#fff" font-family="'Montserrat'" font-size="20" font-weight="500" text-anchor="middle">1,508</text><text x="294.564" y="171.131" fill="#fff" font-family="'Montserrat'" font-size="20" font-weight="500" text-anchor="middle">2,854</text><path fill="#fff" stroke="#002f2a" stroke-width="1.5" d="M410.06 178.01h74.678q16 0 16-16v7.278q0-16-16-16H410.06q-16 0-16 16v-7.278q0 16 16 16z"/><text x="397.063" y="171.131" fill="#10302c" font-family="'Montserrat'" font-size="20" font-weight="700">4,362    </text><text x="518.92" y="171.679" fill="#4c6a67" font-family="'Montserrat'" font-size="22" font-weight="600">7.5%</text><text x="187.592" y="142.241" fill="#fff" font-family="'Montserrat'" font-size="20" font-weight="500" text-anchor="middle">2,245</text><text x="367.512" y="142.241" fill="#fff" font-family="'Montserrat'" font-size="20" font-weight="500" text-anchor="middle">3,852</text><path fill="#fff" stroke="#002f2a" stroke-width="1.5" d="M512.46 149.12h75.978q16 0 16-16v7.278q0-16-16-16H512.46q-16 0-16 16v-7.278q0 16 16 16z"/><text x="499.461" y="142.241" fill="#10302c" font-family="'Montserrat'" font-size="20" font-weight="700">6,097    </text><text x="621.318" y="142.789" fill="#4c6a67" font-family="'Montserrat'" font-size="22" font-weight="600">10.5%</text><text x="213.738" y="113.351" fill="#fff" font-family="'Montserrat'" font-size="20" font-weight="500" text-anchor="middle">3,131</text><text x="478.645" y="113.351" fill="#fff" font-family="'Montserrat'" font-size="20" font-weight="500" text-anchor="middle">5,846</text><path fill="#fff" stroke="#002f2a" stroke-width="1.5" d="M682.44 120.23h75.256q16 0 16-16v7.278q0-16-16-16H682.44q-16 0-16 16v-7.278q0 16 16 16z"/><text x="669.436" y="113.351" fill="#10302c" font-family="'Montserrat'" font-size="20" font-weight="700">8,977    </text><text x="791.293" y="113.899" fill="#4c6a67" font-family="'Montserrat'" font-size="22" font-weight="600">15.5%</text><text x="267.976" y="84.461" fill="#fff" font-family="'Montserrat'" font-size="20" font-weight="500" text-anchor="middle">3,995</text><path fill="#fff" stroke="#002f2a" stroke-width="1.5" d="M417.15 91.342h77.078q16 0 16-16v7.278q0-16-16-16H417.15q-16 0-16 16v-7.278q0 16 16 16z"/><text x="404.145" y="84.461" fill="#10302c" font-family="'Montserrat'" font-size="20" font-weight="700">4,482    </text><text x="526.003" y="85.009" fill="#4c6a67" font-family="'Montserrat'" font-size="22" font-weight="600">7.7%</text><path fill="#10302c" d="M199.01 35.036h48v-16.8h-48z"/><text x="266.21" y="35.036" font-family="'DejaVu Sans', 'Bitstream Vera Sans', 'Computer Modern Sans Serif', 'Lucida Grande', 'Verdana', 'Geneva', 'Lucid', 'Arial', 'Helvetica', 'Avant Garde', sans-serif" font-size="24">movimiento</text><path fill="#4c6a67" d="M457.26 35.036h48v-16.8h-48z"/><text x="524.461" y="35.036" font-family="'DejaVu Sans', 'Bitstream Vera Sans', 'Computer Modern Sans Serif', 'Lucida Grande', 'Verdana', 'Geneva', 'Lucid', 'Arial', 'Helvetica', 'Avant Garde', sans-serif" font-size="24">sin_movimiento</text><defs><clipPath id="a"><path d="M121.34 64.536h670.21v433.35H121.34z"/></clipPath></defs></svg>