<svg xmlns="http://www.w3.org/2000/svg" xmlns:xlink="http://www.w3.org/1999/xlink" width="857.2pt" height="1072.9pt" viewBox="0 0 857.2 1072.9"><defs><style>*{stroke-linejoin:round;stroke-linecap:butt}</style></defs><path fill="#fff" d="M0 1072.9h857.2V0H0z"/><path fill="#fff" d="M153.73 1033.6h696.28V7.2H153.73z"/><path fill="none" stroke="#b9b9b9" stroke-linecap="square" stroke-width=".75" d="M153.73 1033.6V7.2" clip-path="url(#a)"/><defs><path id="c" stroke="#000" stroke-width=".8" d="M0 0v3.5"/></defs><use xlink:href="#c" x="153.726" y="1033.64" stroke="#000" stroke-width=".8"/><text x="153.726" y="1059.14" font-family="'Poppins'" font-size="25" font-weight="500" text-anchor="middle">0</text><path fill="none" stroke="#b9b9b9" stroke-linecap="square" stroke-width=".75" d="M276.35 1033.6V7.2" clip-path="url(#a)"/><use xlink:href="#c" x="276.354" y="1033.64" stroke="#000" stroke-width=".8"/><text x="276.354" y="1059.14" font-family="'Poppins'" font-size="25" font-weight="500" text-anchor="middle">2,000</text><path fill="none" stroke="#b9b9b9" stroke-linecap="square" stroke-width=".75" d="M398.98 1033.6V7.2" clip-path="url(#a)"/><use xlink:href="#c" x="398.982" y="1033.64" stroke="#000" stroke-width=".8"/><text x="398.982" y="1059.14" font-family="'Poppins'" font-size="25" font-weight="500" text-anchor="middle">4,000</text><path fill="none" stroke="#b9b9b9" stroke-linecap="square" stroke-width=".75" d="M521.61 1033.6V7.2" clip-path="url(#a)"/><use xlink:href="#c" x="521.61" y="1033.64" stroke="#000" stroke-width=".8"/><text x="521.61" y="1059.14" font-family="'Poppins'" font-size="25" font-weight="500" text-anchor="middle">6,000</text><path fill="none" stroke="#b9b9b9" stroke-linecap="square" stroke-width=".75" d="M644.24 1033.6V7.2" clip-path="url(#a)"/><use xlink:href="#c" x="644.238" y="1033.64" stroke="#000" stroke-width=".8"/><text x="644.238" y="1059.14" font-family="'Poppins'" font-size="25" font-weight="500" text-anchor="middle">8,000</text><path fill="none" stroke="#b9b9b9" stroke-linecap="square" stroke-width=".75" d="M766.87 1033.6V7.2" clip-path="url(#a)"/><use xlink:href="#c" x="766.866" y="1033.64" stroke="#000" stroke-width=".8"/><text x="766.866" y="1059.14" font-family="'Poppins'" font-size="25" font-weight="500" text-anchor="middle">10,000</text><defs><path id="b" stroke="#000" stroke-width=".8" d="M0 0h-3.5"/></defs><use xlink:href="#b" x="153.726" y="1006.628" stroke="#000" stroke-width=".8"/><text x="85.226" y="1014.768" font-family="'Poppins'" font-size="22" font-weight="500" text-anchor="end">2007</text><use xlink:href="#b" x="153.726" y="952.605" stroke="#000" stroke-width=".8"/><text x="85.226" y="960.745" font-family="'Poppins'" font-size="22" font-weight="500" text-anchor="end">2008</text><use xlink:href="#b" x="153.726" y="898.582" stroke="#000" stroke-width=".8"/><text x="85.226" y="906.722" font-family="'Poppins'" font-size="22" font-weight="500" text-anchor="end">2009</text><use xlink:href="#b" x="153.726" y="844.559" stroke="#000" stroke-width=".8"/><text x="85.226" y="852.699" font-family="'Poppins'" font-size="22" font-weight="500" text-anchor="end">2010</text><use xlink:href="#b" x="153.726" y="790.536" stroke="#000" stroke-width=".8"/><text x="85.226" y="798.676" font-family="'Poppins'" font-size="22" font-weight="500" text-anchor="end">2011</text><use xlink:href="#b" x="153.726" y="736.513" stroke="#000" stroke-width=".8"/><text x="85.226" y="744.653" font-family="'Poppins'" font-size="22" font-weight="500" text-anchor="end">2012</text><use xlink:href="#b" x="153.726" y="682.489" stroke="#000" stroke-width=".8"/><text x="85.226" y="690.629" font-family="'Poppins'" font-size="22" font-weight="500" text-anchor="end">2013</text><use xlink:href="#b" x="153.726" y="628.466" stroke="#000" stroke-width=".8"/><text x="85.226" y="636.606" font-family="'Poppins'" font-size="22" font-weight="500" text-anchor="end">2014</text><use xlink:href="#b" x="153.726" y="574.443" stroke="#000" stroke-width=".8"/><text x="85.226" y="582.583" font-family="'Poppins'" font-size="22" font-weight="500" text-anchor="end">2015</text><use xlink:href="#b" x="153.726" y="520.42" stroke="#000" stroke-width=".8"/><text x="85.226" y="528.56" font-family="'Poppins'" font-size="22" font-weight="500" text-anchor="end">2016</text><use xlink:href="#b" x="153.726" y="466.397" stroke="#000" stroke-width=".8"/><text x="85.226" y="474.537" font-family="'Poppins'" font-size="22" font-weight="500" text-anchor="end">2017</text><use xlink:href="#b" x="153.726" y="412.374" stroke="#000" stroke-width=".8"/><text x="85.226" y="420.514" font-family="'Poppins'" font-size="22" font-weight="500" text-anchor="end">2018</text><use xlink:href="#b" x="153.726" y="358.351" stroke="#000" stroke-width=".8"/><text x="85.226" y="366.491" font-family="'Poppins'" font-size="22" font-weight="500" text-anchor="end">2019</text><use xlink:href="#b" x="153.726" y="304.327" stroke="#000" stroke-width=".8"/><use xlink:href="#b" x="153.726" y="250.304" stroke="#000" stroke-width=".8"/><text x="85.226" y="258.444" font-family="'Poppins'" font-size="22" font-weight="500" text-anchor="end">2021</text><use xlink:href="#b" x="153.726" y="196.281" stroke="#000" stroke-width=".8"/><text x="85.226" y="204.421" font-family="'Poppins'" font-size="22" font-weight="500" text-anchor="end">2022</text><use xlink:href="#b" x="153.726" y="142.258" stroke="#000" stroke-width=".8"/><text x="85.226" y="150.398" font-family="'Poppins'" font-size="22" font-weight="500" text-anchor="end">2023</text><use xlink:href="#b" x="153.726" y="88.235" stroke="#000" stroke-width=".8"/><text x="85.226" y="96.375" font-family="'Poppins'" font-size="22" font-weight="500" text-anchor="end">2024</text><use xlink:href="#b" x="153.726" y="34.212" stroke="#000" stroke-width=".8"/><path fill="#10302c" d="M153.73 1025.5h10.669v-37.816H153.73z" clip-path="url(#a)"/><path fill="#4c6a67" d="M164.39 1025.5h11.343v-37.816H164.39z" clip-path="url(#a)"/><path fill="#10302c" d="M153.73 971.51h14.347v-37.816H153.73z" clip-path="url(#a)"/><path fill="#4c6a67" d="M168.07 971.51h15.145v-37.816H168.07z" clip-path="url(#a)"/><path fill="#10302c" d="M153.73 917.49h25.261v-37.816H153.73z" clip-path="url(#a)"/><path fill="#4c6a67" d="M178.99 917.49h24.526v-37.816H178.99z" clip-path="url(#a)"/><path fill="#10302c" d="M153.73 863.47h52.239v-37.816H153.73z" clip-path="url(#a)"/><path fill="#4c6a67" d="M205.97 863.47h70.45v-37.816h-70.45z" clip-path="url(#a)"/><path fill="#10302c" d="M153.73 809.44h51.197v-37.816H153.73z" clip-path="url(#a)"/><path fill="#4c6a67" d="M204.92 809.44h95.65v-37.816h-95.65z" clip-path="url(#a)"/><path fill="#10302c" d="M153.73 755.42h41.693v-37.816H153.73z" clip-path="url(#a)"/><path fill="#4c6a67" d="M195.42 755.42h86.943v-37.816H195.42z" clip-path="url(#a)"/><path fill="#10302c" d="M153.73 701.4h52.914v-37.816H153.73z" clip-path="url(#a)"/><path fill="#4c6a67" d="M206.64 701.4h88.047v-37.816H206.64z" clip-path="url(#a)"/><path fill="#10302c" d="M153.73 647.37h53.282v-37.816H153.73z" clip-path="url(#a)"/><path fill="#4c6a67" d="M207.01 647.37h83.08v-37.816h-83.08z" clip-path="url(#a)"/><path fill="#10302c" d="M153.73 593.35h48.377v-37.816H153.73z" clip-path="url(#a)"/><path fill="#4c6a67" d="M202.1 593.35h77.93v-37.816H202.1z" clip-path="url(#a)"/><path fill="#10302c" d="M153.73 539.33h59.475v-37.816H153.73z" clip-path="url(#a)"/><path fill="#4c6a67" d="M213.2 539.33h89.334v-37.816H213.2z" clip-path="url(#a)"/><path fill="#10302c" d="M153.73 485.3h65.606v-37.816H153.73z" clip-path="url(#a)"/><path fill="#4c6a67" d="M219.33 485.3h117.66v-37.816H219.33z" clip-path="url(#a)"/><path fill="#10302c" d="M153.73 431.28h38.505v-37.816H153.73z" clip-path="url(#a)"/><path fill="#4c6a67" d="M192.23 431.28h110.18v-37.816H192.23z" clip-path="url(#a)"/><path fill="#10302c" d="M153.73 377.26h42v-37.816h-42z" clip-path="url(#a)"/><path fill="#4c6a67" d="M195.73 377.26h139.43v-37.816H195.73z" clip-path="url(#a)"/><path fill="#10302c" d="M153.73 323.24h72.841v-37.816H153.73z" clip-path="url(#a)"/><path fill="#4c6a67" d="M226.57 323.24h162.18v-37.816H226.57z" clip-path="url(#a)"/><path fill="#10302c" d="M153.73 269.21h100.49v-37.816H153.73z" clip-path="url(#a)"/><path fill="#4c6a67" d="M254.22 269.21h191.12v-37.816H254.22z" clip-path="url(#a)"/><path fill="#10302c" d="M153.73 215.19h92.461v-37.816H153.73z" clip-path="url(#a)"/><path fill="#4c6a67" d="M246.19 215.19h174.99v-37.816H246.19z" clip-path="url(#a)"/><path fill="#10302c" d="M153.73 161.17h137.65v-37.816H153.73z" clip-path="url(#a)"/><path fill="#4c6a67" d="M291.38 161.17h236.18v-37.816H291.38z" clip-path="url(#a)"/><path fill="#10302c" d="M153.73 107.14H345.7V69.324H153.73z" clip-path="url(#a)"/><path fill="#4c6a67" d="M345.7 107.14h358.44V69.324H345.7z" clip-path="url(#a)"/><path fill="#10302c" d="M153.73 53.12h29.86V15.304h-29.86z" clip-path="url(#a)"/><path fill="#4c6a67" d="M183.59 53.12h244.95V15.304H183.59z" clip-path="url(#a)"/><text x="194.727" y="1012.317" fill="#10302c" font-family="'Poppins'" font-size="24" font-weight="700">359</text><text x="153.726" y="1011.864" fill="#4c6a67" font-family="'Poppins'" font-size="22" font-weight="600" text-anchor="end">0.6% </text><text x="202.207" y="958.294" fill="#10302c" font-family="'Poppins'" font-size="24" font-weight="700">481</text><text x="153.726" y="957.841" fill="#4c6a67" font-family="'Poppins'" font-size="22" font-weight="600" text-anchor="end">0.8% </text><text x="222.502" y="904.271" fill="#10302c" font-family="'Poppins'" font-size="24" font-weight="700">812</text><text x="153.726" y="903.817" fill="#4c6a67" font-family="'Poppins'" font-size="22" font-weight="600" text-anchor="end">1.4% </text><text x="179.846" y="848.861" fill="#fff" font-family="'Poppins'" font-size="18" font-weight="500" text-anchor="middle">852</text><text x="241.19" y="848.861" fill="#fff" font-family="'Poppins'" font-size="18" font-weight="500" text-anchor="middle">1,149</text><text x="295.405" y="850.248" fill="#10302c" font-family="'Poppins'" font-size="24" font-weight="700">2,001</text><text x="153.726" y="849.794" fill="#4c6a67" font-family="'Poppins'" font-size="22" font-weight="600" text-anchor="end">3.4% </text><text x="179.325" y="794.838" fill="#fff" font-family="'Poppins'" font-size="18" font-weight="500" text-anchor="middle">835</text><text x="252.748" y="794.838" fill="#fff" font-family="'Poppins'" font-size="18" font-weight="500" text-anchor="middle">1,560</text><text x="319.562" y="796.225" fill="#10302c" font-family="'Poppins'" font-size="24" font-weight="700">2,395</text><text x="153.726" y="795.771" fill="#4c6a67" font-family="'Poppins'" font-size="22" font-weight="600" text-anchor="end">4.1% </text><text x="174.573" y="740.814" fill="#fff" font-family="'Poppins'" font-size="18" font-weight="500" text-anchor="middle">680</text><text x="238.891" y="740.814" fill="#fff" font-family="'Poppins'" font-size="18" font-weight="500" text-anchor="middle">1,418</text><text x="301.352" y="742.201" fill="#10302c" font-family="'Poppins'" font-size="24" font-weight="700">2,098</text><text x="153.726" y="741.748" fill="#4c6a67" font-family="'Poppins'" font-size="22" font-weight="600" text-anchor="end">3.6% </text><text x="180.183" y="686.791" fill="#fff" font-family="'Poppins'" font-size="18" font-weight="500" text-anchor="middle">863</text><text x="250.663" y="686.791" fill="#fff" font-family="'Poppins'" font-size="18" font-weight="500" text-anchor="middle">1,436</text><text x="313.676" y="688.178" fill="#10302c" font-family="'Poppins'" font-size="24" font-weight="700">2,299</text><text x="153.726" y="687.725" fill="#4c6a67" font-family="'Poppins'" font-size="22" font-weight="600" text-anchor="end">4.0% </text><text x="180.367" y="632.768" fill="#fff" font-family="'Poppins'" font-size="18" font-weight="500" text-anchor="middle">869</text><text x="248.548" y="632.768" fill="#fff" font-family="'Poppins'" font-size="18" font-weight="500" text-anchor="middle">1,355</text><text x="309.078" y="634.155" fill="#10302c" font-family="'Poppins'" font-size="24" font-weight="700">2,224</text><text x="153.726" y="633.702" fill="#4c6a67" font-family="'Poppins'" font-size="22" font-weight="600" text-anchor="end">3.8% </text><text x="177.914" y="578.745" fill="#fff" font-family="'Poppins'" font-size="18" font-weight="500" text-anchor="middle">789</text><text x="241.068" y="578.745" fill="#fff" font-family="'Poppins'" font-size="18" font-weight="500" text-anchor="middle">1,271</text><text x="299.022" y="580.132" fill="#10302c" font-family="'Poppins'" font-size="24" font-weight="700">2,060</text><text x="153.726" y="579.678" fill="#4c6a67" font-family="'Poppins'" font-size="22" font-weight="600" text-anchor="end">3.5% </text><text x="183.463" y="524.722" fill="#fff" font-family="'Poppins'" font-size="18" font-weight="500" text-anchor="middle">970</text><text x="257.868" y="524.722" fill="#fff" font-family="'Poppins'" font-size="18" font-weight="500" text-anchor="middle">1,457</text><text x="321.524" y="526.109" fill="#10302c" font-family="'Poppins'" font-size="24" font-weight="700">2,427</text><text x="153.726" y="525.655" fill="#4c6a67" font-family="'Poppins'" font-size="22" font-weight="600" text-anchor="end">4.2% </text><text x="186.529" y="470.699" fill="#fff" font-family="'Poppins'" font-size="18" font-weight="500" text-anchor="middle">1,070</text><text x="278.163" y="470.699" fill="#fff" font-family="'Poppins'" font-size="18" font-weight="500" text-anchor="middle">1,919</text><text x="355.983" y="472.086" fill="#10302c" font-family="'Poppins'" font-size="24" font-weight="700">2,989</text><text x="153.726" y="471.632" fill="#4c6a67" font-family="'Poppins'" font-size="22" font-weight="600" text-anchor="end">5.2% </text><text x="172.979" y="416.675" fill="#fff" font-family="'Poppins'" font-size="18" font-weight="500" text-anchor="middle">628</text><text x="247.322" y="416.675" fill="#fff" font-family="'Poppins'" font-size="18" font-weight="500" text-anchor="middle">1,797</text><text x="321.402" y="418.062" fill="#10302c" font-family="'Poppins'" font-size="24" font-weight="700">2,425</text><text x="153.726" y="417.609" fill="#4c6a67" font-family="'Poppins'" font-size="22" font-weight="600" text-anchor="end">4.2% </text><text x="174.726" y="362.652" fill="#fff" font-family="'Poppins'" font-size="18" font-weight="500" text-anchor="middle">685</text><text x="265.44" y="362.652" fill="#fff" font-family="'Poppins'" font-size="18" font-weight="500" text-anchor="middle">2,274</text><text x="354.143" y="364.039" fill="#10302c" font-family="'Poppins'" font-size="24" font-weight="700">2,959</text><text x="153.726" y="363.586" fill="#4c6a67" font-family="'Poppins'" font-size="22" font-weight="600" text-anchor="end">5.1% </text><text x="190.147" y="308.629" fill="#fff" font-family="'Poppins'" font-size="18" font-weight="500" text-anchor="middle">1,188</text><text x="307.655" y="308.629" fill="#fff" font-family="'Poppins'" font-size="18" font-weight="500" text-anchor="middle">2,645</text><text x="407.732" y="310.016" fill="#10302c" font-family="'Poppins'" font-size="24" font-weight="700">3,833</text><path fill="#a3173e" d="M21.5 318.67h105.27q17.6 0 17.6-17.6v6.51q0-17.6-17.6-17.6H21.5q-17.6 0-17.6 17.6v-6.51q0 17.6 17.6 17.6"/><text x="141.067" y="309.563" fill="#fff" font-family="'Poppins'" font-size="22" font-weight="600" text-anchor="end">2020 6.6% </text><text x="203.973" y="254.606" fill="#fff" font-family="'Poppins'" font-size="18" font-weight="500" text-anchor="middle">1,639</text><text x="349.777" y="254.606" fill="#fff" font-family="'Poppins'" font-size="18" font-weight="500" text-anchor="middle">3,117</text><text x="464.325" y="255.993" fill="#10302c" font-family="'Poppins'" font-size="24" font-weight="700">4,756</text><text x="153.726" y="255.54" fill="#4c6a67" font-family="'Poppins'" font-size="22" font-weight="600" text-anchor="end">8.2% </text><text x="199.957" y="200.583" fill="#fff" font-family="'Poppins'" font-size="18" font-weight="500" text-anchor="middle">1,508</text><text x="333.683" y="200.583" fill="#fff" font-family="'Poppins'" font-size="18" font-weight="500" text-anchor="middle">2,854</text><text x="440.167" y="201.97" fill="#10302c" font-family="'Poppins'" font-size="24" font-weight="700">4,362</text><text x="153.726" y="201.516" fill="#4c6a67" font-family="'Poppins'" font-size="22" font-weight="600" text-anchor="end">7.5% </text><text x="222.551" y="146.56" fill="#fff" font-family="'Poppins'" font-size="18" font-weight="500" text-anchor="middle">2,245</text><text x="409.467" y="146.56" fill="#fff" font-family="'Poppins'" font-size="18" font-weight="500" text-anchor="middle">3,852</text><text x="546.547" y="147.947" fill="#10302c" font-family="'Poppins'" font-size="24" font-weight="700">6,097</text><text x="153.726" y="147.493" fill="#4c6a67" font-family="'Poppins'" font-size="22" font-weight="600" text-anchor="end">10.5% </text><text x="249.713" y="92.536" fill="#fff" font-family="'Poppins'" font-size="18" font-weight="500" text-anchor="middle">3,131</text><text x="524.921" y="92.536" fill="#fff" font-family="'Poppins'" font-size="18" font-weight="500" text-anchor="middle">5,846</text><text x="723.131" y="93.923" fill="#10302c" font-family="'Poppins'" font-size="24" font-weight="700">8,977</text><text x="153.726" y="93.47" fill="#4c6a67" font-family="'Poppins'" font-size="22" font-weight="600" text-anchor="end">15.5% </text><text x="306.061" y="38.513" fill="#fff" font-family="'Poppins'" font-size="18" font-weight="500" text-anchor="middle">3,995</text><text x="447.525" y="39.9" fill="#10302c" font-family="'Poppins'" font-size="24" font-weight="700">4,482</text><path fill="#a3173e" d="M25.591 48.556h101.18q17.6 0 17.6-17.6v6.51q0-17.6-17.6-17.6H25.591q-17.6 0-17.6 17.6v-6.51q0 17.6 17.6 17.6"/><text x="141.067" y="39.447" fill="#fff" font-family="'Poppins'" font-size="22" font-weight="600" text-anchor="end">2025 7.7% </text><defs><clipPath id="a"><path d="M153.73 7.2h696.28v1026.4H153.73z"/></clipPath></defs></svg>