<svg xmlns="http://www.w3.org/2000/svg" xmlns:xlink="http://www.w3.org/1999/xlink" width="1577.8pt" height="739.573" viewBox="0 0 1577.8 554.68"><defs><style>*{stroke-linejoin:round;stroke-linecap:butt}</style></defs><path fill="#fff" d="M0 554.68h1577.8V0H0z"/><path fill="#fff" d="M90.523 283.14h1480.1V16.53H90.523z"/><defs><path id="b" stroke="#000" stroke-width=".8" d="M0 0v3.5"/></defs><use xlink:href="#b" x="134.055" y="283.137" stroke="#000" stroke-width=".8"/><text font-family="'Montserrat'" font-size="25" font-weight="500" transform="rotate(-90 269.96 140.76)">Año 2007</text><use xlink:href="#b" x="221.12" y="283.137" stroke="#000" stroke-width=".8"/><text font-family="'Montserrat'" font-size="25" font-weight="500" transform="rotate(-90 314.07 97.8)">Año 2008</text><use xlink:href="#b" x="308.185" y="283.137" stroke="#000" stroke-width=".8"/><text font-family="'Montserrat'" font-size="25" font-weight="500" transform="rotate(-90 357.26 53.93)">Año 2009</text><use xlink:href="#b" x="395.249" y="283.137" stroke="#000" stroke-width=".8"/><text font-family="'Montserrat'" font-size="25" font-weight="500" transform="rotate(-90 397.71 7.31)">Año 2010</text><use xlink:href="#b" x="482.314" y="283.137" stroke="#000" stroke-width=".8"/><text font-family="'Montserrat'" font-size="25" font-weight="500" transform="rotate(-90 437.525 -39.935)">Año 2011</text><use xlink:href="#b" x="569.379" y="283.137" stroke="#000" stroke-width=".8"/><text font-family="'Montserrat'" font-size="25" font-weight="500" transform="rotate(-90 483.61 -80.92)">Año 2012</text><use xlink:href="#b" x="656.443" y="283.137" stroke="#000" stroke-width=".8"/><text font-family="'Montserrat'" font-size="25" font-weight="500" transform="rotate(-90 527.115 -124.475)">Año 2013</text><use xlink:href="#b" x="743.508" y="283.137" stroke="#000" stroke-width=".8"/><text font-family="'Montserrat'" font-size="25" font-weight="500" transform="rotate(-90 571.865 -166.795)">Año 2014</text><use xlink:href="#b" x="830.573" y="283.137" stroke="#000" stroke-width=".8"/><text font-family="'Montserrat'" font-size="25" font-weight="500" transform="rotate(-90 614.205 -211.515)">Año 2015</text><use xlink:href="#b" x="917.638" y="283.137" stroke="#000" stroke-width=".8"/><text font-family="'Montserrat'" font-size="25" font-weight="500" transform="rotate(-90 658.28 -254.51)">Año 2016</text><use xlink:href="#b" x="1004.702" y="283.137" stroke="#000" stroke-width=".8"/><text font-family="'Montserrat'" font-size="25" font-weight="500" transform="rotate(-90 701.57 -298.28)">Año 2017</text><use xlink:href="#b" x="1091.767" y="283.137" stroke="#000" stroke-width=".8"/><text font-family="'Montserrat'" font-size="25" font-weight="500" transform="rotate(-90 745.67 -341.23)">Año 2018</text><use xlink:href="#b" x="1178.832" y="283.137" stroke="#000" stroke-width=".8"/><text font-family="'Montserrat'" font-size="25" font-weight="500" transform="rotate(-90 788.885 -385.115)">Año 2019</text><use xlink:href="#b" x="1265.896" y="283.137" stroke="#000" stroke-width=".8"/><text font-family="'Montserrat'" font-size="25" font-weight="500" transform="rotate(-90 835.56 -425.44)">Año 2020</text><use xlink:href="#b" x="1352.961" y="283.137" stroke="#000" stroke-width=".8"/><text font-family="'Montserrat'" font-size="25" font-weight="500" transform="rotate(-90 875.395 -472.705)">Año 2021</text><use xlink:href="#b" x="1440.026" y="283.137" stroke="#000" stroke-width=".8"/><text font-family="'Montserrat'" font-size="25" font-weight="500" transform="rotate(-90 921.495 -513.705)">Año 2022</text><use xlink:href="#b" x="1527.09" y="283.137" stroke="#000" stroke-width=".8"/><text font-family="'Montserrat'" font-size="25" font-weight="500" transform="rotate(-90 1034.84 -487.36)">Años de 2023 a 2025</text><path fill="none" stroke="#b9b9b9" stroke-linecap="square" stroke-width=".75" d="M90.523 283.14h1480.1" clip-path="url(#a)"/><defs><path id="c" stroke="#000" stroke-width=".8" d="M0 0h-3.5"/></defs><use xlink:href="#c" x="90.523" y="283.137" stroke="#000" stroke-width=".8"/><text x="83.523" y="291.299" font-family="'Montserrat'" font-size="22" font-weight="500" text-anchor="end">0</text><path fill="none" stroke="#b9b9b9" stroke-linecap="square" stroke-width=".75" d="M90.523 229.25h1480.1" clip-path="url(#a)"/><use xlink:href="#c" x="90.523" y="229.251" stroke="#000" stroke-width=".8"/><text x="83.523" y="237.414" font-family="'Montserrat'" font-size="22" font-weight="500" text-anchor="end">5,000</text><path fill="none" stroke="#b9b9b9" stroke-linecap="square" stroke-width=".75" d="M90.523 175.37h1480.1" clip-path="url(#a)"/><use xlink:href="#c" x="90.523" y="175.366" stroke="#000" stroke-width=".8"/><text x="83.523" y="183.528" font-family="'Montserrat'" font-size="22" font-weight="500" text-anchor="end">10,000</text><path fill="none" stroke="#b9b9b9" stroke-linecap="square" stroke-width=".75" d="M90.523 121.48h1480.1" clip-path="url(#a)"/><use xlink:href="#c" x="90.523" y="121.48" stroke="#000" stroke-width=".8"/><text x="83.523" y="129.642" font-family="'Montserrat'" font-size="22" font-weight="500" text-anchor="end">15,000</text><path fill="none" stroke="#b9b9b9" stroke-linecap="square" stroke-width=".75" d="M90.523 67.594h1480.1" clip-path="url(#a)"/><use xlink:href="#c" x="90.523" y="67.594" stroke="#000" stroke-width=".8"/><text x="83.523" y="75.757" font-family="'Montserrat'" font-size="22" font-weight="500" text-anchor="end">20,000</text><path fill="#10302c" d="M99.229 283.14h69.652v-1.875H99.229z" clip-path="url(#a)"/><path fill="#4c6a67" d="M99.229 281.26h69.652v-1.994H99.229z" clip-path="url(#a)"/><path fill="#10302c" d="M186.29 283.14h69.652v-2.522H186.29z" clip-path="url(#a)"/><path fill="#4c6a67" d="M186.29 280.62h69.652v-2.662H186.29z" clip-path="url(#a)"/><path fill="#10302c" d="M273.36 283.14h69.652v-4.44H273.36z" clip-path="url(#a)"/><path fill="#4c6a67" d="M273.36 278.7h69.652v-4.31H273.36z" clip-path="url(#a)"/><path fill="#10302c" d="M360.42 283.14h69.652v-9.182H360.42z" clip-path="url(#a)"/><path fill="#4c6a67" d="M360.42 273.95h69.652v-12.383H360.42z" clip-path="url(#a)"/><path fill="#10302c" d="M447.49 283.14h69.652v-8.999H447.49z" clip-path="url(#a)"/><path fill="#4c6a67" d="M447.49 274.14h69.652v-16.812H447.49z" clip-path="url(#a)"/><path fill="#10302c" d="M534.55 283.14h69.652v-7.328H534.55z" clip-path="url(#a)"/><path fill="#4c6a67" d="M534.55 275.81h69.652v-15.282H534.55z" clip-path="url(#a)"/><path fill="#10302c" d="M621.62 283.14h69.652v-9.3H621.62z" clip-path="url(#a)"/><path fill="#4c6a67" d="M621.62 273.84h69.652v-15.476H621.62z" clip-path="url(#a)"/><path fill="#10302c" d="M708.68 283.14h69.652v-9.365H708.68z" clip-path="url(#a)"/><path fill="#4c6a67" d="M708.68 273.77h69.652v-14.603H708.68z" clip-path="url(#a)"/><path fill="#10302c" d="M795.75 283.14h69.652v-8.503H795.75z" clip-path="url(#a)"/><path fill="#4c6a67" d="M795.75 274.63h69.652v-13.698H795.75z" clip-path="url(#a)"/><path fill="#10302c" d="M882.81 283.14h69.652v-10.454H882.81z" clip-path="url(#a)"/><path fill="#4c6a67" d="M882.81 272.68h69.652v-15.702H882.81z" clip-path="url(#a)"/><path fill="#10302c" d="M969.88 283.14h69.652v-11.532H969.88z" clip-path="url(#a)"/><path fill="#4c6a67" d="M969.88 271.61h69.652v-20.681H969.88z" clip-path="url(#a)"/><path fill="#10302c" d="M1056.9 283.14h69.652v-6.768H1056.9z" clip-path="url(#a)"/><path fill="#4c6a67" d="M1056.9 276.37h69.652v-19.367H1056.9z" clip-path="url(#a)"/><path fill="#10302c" d="M1144 283.14h69.652v-7.382H1144z" clip-path="url(#a)"/><path fill="#4c6a67" d="M1144 275.75h69.652v-24.507H1144z" clip-path="url(#a)"/><path fill="#10302c" d="M1231.1 283.14h69.652v-12.803H1231.1z" clip-path="url(#a)"/><path fill="#4c6a67" d="M1231.1 270.33h69.652v-28.506H1231.1z" clip-path="url(#a)"/><path fill="#10302c" d="M1318.1 283.14h69.652v-17.664H1318.1z" clip-path="url(#a)"/><path fill="#4c6a67" d="M1318.1 265.47h69.652v-33.592H1318.1z" clip-path="url(#a)"/><path fill="#10302c" d="M1405.2 283.14h69.652v-16.252H1405.2z" clip-path="url(#a)"/><path fill="#4c6a67" d="M1405.2 266.89h69.652v-30.758H1405.2z" clip-path="url(#a)"/><path fill="#10302c" d="M1492.3 283.14h69.652v-63.186H1492.3z" clip-path="url(#a)"/><path fill="#4c6a67" d="M1492.3 219.95h69.652V72.38H1492.3z" clip-path="url(#a)"/><path fill="#fff" stroke="#002f2a" stroke-width="1.5" d="M117.5 275h33.119q16 0 16-16v7.278q0-16-16-16H117.5q-16 0-16 16V259q0 16 16 16z"/><text x="134.055" y="268.116" fill="#10302c" font-family="'Montserrat'" font-size="20" font-weight="700" text-anchor="middle">359  </text><text x="134.055" y="238.643" fill="#4c6a67" font-family="'Montserrat'" font-size="22" font-weight="600" text-anchor="middle">0.6%</text><path fill="#fff" stroke="#002f2a" stroke-width="1.5" d="M205.39 273.68h31.459q16 0 16-16v7.278q0-16-16-16H205.39q-16 0-16 16v-7.278q0 16 16 16z"/><text x="221.12" y="266.801" fill="#10302c" font-family="'Montserrat'" font-size="20" font-weight="700" text-anchor="middle">481  </text><text x="221.12" y="237.328" fill="#4c6a67" font-family="'Montserrat'" font-size="22" font-weight="600" text-anchor="middle">0.8%</text><path fill="#fff" stroke="#002f2a" stroke-width="1.5" d="M293.45 270.11h29.478q16 0 16-16v7.278q0-16-16-16H293.45q-16 0-16 16v-7.278q0 16 16 16z"/><text x="308.185" y="263.234" fill="#10302c" font-family="'Montserrat'" font-size="20" font-weight="700" text-anchor="middle">812  </text><text x="308.185" y="233.761" fill="#4c6a67" font-family="'Montserrat'" font-size="22" font-weight="600" text-anchor="middle">1.4%</text><text x="395.249" y="272.695" fill="#fff" font-family="'Montserrat'" font-size="18" font-weight="500" text-anchor="middle">1,149</text><path fill="#fff" stroke="#002f2a" stroke-width="1.5" d="M370.91 257.3h48.681q16 0 16-16v7.278q0-16-16-16H370.91q-16 0-16 16V241.3q0 16 16 16z"/><text x="395.249" y="250.42" fill="#10302c" font-family="'Montserrat'" font-size="20" font-weight="700" text-anchor="middle">2,001  </text><text x="395.249" y="220.947" fill="#4c6a67" font-family="'Montserrat'" font-size="22" font-weight="600" text-anchor="middle">3.4%</text><text x="482.314" y="270.664" fill="#fff" font-family="'Montserrat'" font-size="18" font-weight="500" text-anchor="middle">1,560</text><path fill="#fff" stroke="#002f2a" stroke-width="1.5" d="M457.23 253.05h50.159q16 0 16-16v7.278q0-16-16-16H457.23q-16 0-16 16v-7.278q0 16 16 16z"/><text x="482.314" y="246.173" fill="#10302c" font-family="'Montserrat'" font-size="20" font-weight="700" text-anchor="middle">2,395  </text><text x="482.314" y="216.701" fill="#4c6a67" font-family="'Montserrat'" font-size="22" font-weight="600" text-anchor="middle">4.1%</text><text x="569.379" y="273.099" fill="#fff" font-family="'Montserrat'" font-size="18" font-weight="500" text-anchor="middle">1,418</text><path fill="#fff" stroke="#002f2a" stroke-width="1.5" d="M542.78 256.26h53.2q16 0 16-16v7.278q0-16-16-16h-53.2q-16 0-16 16v-7.278q0 16 16 16z"/><text x="569.379" y="249.374" fill="#10302c" font-family="'Montserrat'" font-size="20" font-weight="700" text-anchor="middle">2,098  </text><text x="569.379" y="219.902" fill="#4c6a67" font-family="'Montserrat'" font-size="22" font-weight="600" text-anchor="middle">3.6%</text><text x="656.443" y="271.03" fill="#fff" font-family="'Montserrat'" font-size="18" font-weight="500" text-anchor="middle">1,436</text><path fill="#fff" stroke="#002f2a" stroke-width="1.5" d="M630.96 254.09h50.959q16 0 16-16v7.278q0-16-16-16H630.96q-16 0-16 16v-7.278q0 16 16 16z"/><text x="656.443" y="247.208" fill="#10302c" font-family="'Montserrat'" font-size="20" font-weight="700" text-anchor="middle">2,299  </text><text x="656.443" y="217.735" fill="#4c6a67" font-family="'Montserrat'" font-size="22" font-weight="600" text-anchor="middle">4.0%</text><text x="743.508" y="271.402" fill="#fff" font-family="'Montserrat'" font-size="18" font-weight="500" text-anchor="middle">1,355</text><path fill="#fff" stroke="#002f2a" stroke-width="1.5" d="M717.98 254.9h51.059q16 0 16-16v7.278q0-16-16-16H717.98q-16 0-16 16V238.9q0 16 16 16z"/><text x="743.508" y="248.016" fill="#10302c" font-family="'Montserrat'" font-size="20" font-weight="700" text-anchor="middle">2,224  </text><text x="743.508" y="218.544" fill="#4c6a67" font-family="'Montserrat'" font-size="22" font-weight="600" text-anchor="middle">3.8%</text><text x="830.573" y="272.717" fill="#fff" font-family="'Montserrat'" font-size="18" font-weight="500" text-anchor="middle">1,271</text><path fill="#fff" stroke="#002f2a" stroke-width="1.5" d="M803.78 256.67h53.581q16 0 16-16v7.278q0-16-16-16H803.78q-16 0-16 16v-7.278q0 16 16 16z"/><text x="830.573" y="249.784" fill="#10302c" font-family="'Montserrat'" font-size="20" font-weight="700" text-anchor="middle">2,060  </text><text x="830.573" y="220.311" fill="#4c6a67" font-family="'Montserrat'" font-size="22" font-weight="600" text-anchor="middle">3.5%</text><text x="917.638" y="269.764" fill="#fff" font-family="'Montserrat'" font-size="18" font-weight="500" text-anchor="middle">1,457</text><path fill="#fff" stroke="#002f2a" stroke-width="1.5" d="M891.81 252.71h51.659q16 0 16-16v7.278q0-16-16-16H891.81q-16 0-16 16v-7.278q0 16 16 16z"/><text x="917.638" y="245.829" fill="#10302c" font-family="'Montserrat'" font-size="20" font-weight="700" text-anchor="middle">2,427  </text><text x="917.638" y="216.356" fill="#4c6a67" font-family="'Montserrat'" font-size="22" font-weight="600" text-anchor="middle">4.2%</text><text x="1004.702" y="266.197" fill="#fff" font-family="'Montserrat'" font-size="18" font-weight="500" text-anchor="middle">1,919</text><path fill="#fff" stroke="#002f2a" stroke-width="1.5" d="M978.52 246.65h52.359q16 0 16-16v7.278q0-16-16-16H978.52q-16 0-16 16v-7.278q0 16 16 16z"/><text x="1004.702" y="239.772" fill="#10302c" font-family="'Montserrat'" font-size="20" font-weight="700" text-anchor="middle">2,989  </text><text x="1004.702" y="210.299" fill="#4c6a67" font-family="'Montserrat'" font-size="22" font-weight="600" text-anchor="middle">5.2%</text><text x="1091.767" y="271.617" fill="#fff" font-family="'Montserrat'" font-size="18" font-weight="500" text-anchor="middle">1,797</text><path fill="#fff" stroke="#002f2a" stroke-width="1.5" d="M1066.2 252.73h51.159q16 0 16-16v7.278q0-16-16-16H1066.2q-16 0-16 16v-7.278q0 16 16 16z"/><text x="1091.767" y="245.85" fill="#10302c" font-family="'Montserrat'" font-size="20" font-weight="700" text-anchor="middle">2,425  </text><text x="1091.767" y="216.377" fill="#4c6a67" font-family="'Montserrat'" font-size="22" font-weight="600" text-anchor="middle">4.2%</text><text x="1178.832" y="268.433" fill="#fff" font-family="'Montserrat'" font-size="18" font-weight="500" text-anchor="middle">2,274</text><path fill="#fff" stroke="#002f2a" stroke-width="1.5" d="M1153.3 246.98h51.059q16 0 16-16v7.278q0-16-16-16H1153.3q-16 0-16 16v-7.278q0 16 16 16z"/><text x="1178.832" y="240.095" fill="#10302c" font-family="'Montserrat'" font-size="20" font-weight="700" text-anchor="middle">2,959  </text><text x="1178.832" y="210.622" fill="#4c6a67" font-family="'Montserrat'" font-size="22" font-weight="600" text-anchor="middle">5.1%</text><text x="1265.896" y="281.667" fill="#fff" font-family="'Montserrat'" font-size="18" font-weight="500" text-anchor="middle">1,188</text><text x="1265.896" y="261.013" fill="#fff" font-family="'Montserrat'" font-size="18" font-weight="500" text-anchor="middle">2,645</text><path fill="#fff" stroke="#002f2a" stroke-width="1.5" d="M1240.6 237.56h50.6q16 0 16-16v7.278q0-16-16-16h-50.6q-16 0-16 16v-7.278q0 16 16 16z"/><text x="1265.896" y="230.676" fill="#10302c" font-family="'Montserrat'" font-size="20" font-weight="700" text-anchor="middle">3,833  </text><text x="1265.896" y="201.203" fill="#4c6a67" font-family="'Montserrat'" font-size="22" font-weight="600" text-anchor="middle">6.6%</text><text x="1352.961" y="279.237" fill="#fff" font-family="'Montserrat'" font-size="18" font-weight="500" text-anchor="middle">1,639</text><text x="1352.961" y="253.609" fill="#fff" font-family="'Montserrat'" font-size="18" font-weight="500" text-anchor="middle">3,117</text><path fill="#fff" stroke="#002f2a" stroke-width="1.5" d="M1326.6 227.61h52.7q16 0 16-16v7.278q0-16-16-16h-52.7q-16 0-16 16v-7.278q0 16 16 16z"/><text x="1352.961" y="220.729" fill="#10302c" font-family="'Montserrat'" font-size="20" font-weight="700" text-anchor="middle">4,756  </text><text x="1352.961" y="191.256" fill="#4c6a67" font-family="'Montserrat'" font-size="22" font-weight="600" text-anchor="middle">8.2%</text><text x="1440.026" y="279.943" fill="#fff" font-family="'Montserrat'" font-size="18" font-weight="500" text-anchor="middle">1,508</text><text x="1440.026" y="256.438" fill="#fff" font-family="'Montserrat'" font-size="18" font-weight="500" text-anchor="middle">2,854</text><path fill="#fff" stroke="#002f2a" stroke-width="1.5" d="M1414 231.86h52.041q16 0 16-16v7.278q0-16-16-16H1414q-16 0-16 16v-7.278q0 16 16 16z"/><text x="1440.026" y="224.975" fill="#10302c" font-family="'Montserrat'" font-size="20" font-weight="700" text-anchor="middle">4,362  </text><text x="1440.026" y="195.502" fill="#4c6a67" font-family="'Montserrat'" font-size="22" font-weight="600" text-anchor="middle">7.5%</text><text x="1527.09" y="256.476" fill="#fff" font-family="'Montserrat'" font-size="18" font-weight="500" text-anchor="middle">5,863</text><text x="1527.09" y="151.097" fill="#fff" font-family="'Montserrat'" font-size="18" font-weight="500" text-anchor="middle">13,693</text><path fill="#fff" stroke="#002f2a" stroke-width="1.5" d="M1497.6 68.108h59q16 0 16-16v7.278q0-16-16-16h-59q-16 0-16 16v-7.278q0 16 16 16z"/><text x="1527.09" y="61.227" fill="#10302c" font-family="'Montserrat'" font-size="20" font-weight="700" text-anchor="middle">19,556  </text><text x="1527.09" y="31.754" fill="#4c6a67" font-family="'Montserrat'" font-size="22" font-weight="600" text-anchor="middle">33.7%</text><path fill="#10302c" d="M573.13 35.036h48v-16.8h-48z"/><text x="640.332" y="35.036" font-family="'DejaVu Sans', 'Bitstream Vera Sans', 'Computer Modern Sans Serif', 'Lucida Grande', 'Verdana', 'Geneva', 'Lucid', 'Arial', 'Helvetica', 'Avant Garde', sans-serif" font-size="24">movimiento</text><path fill="#4c6a67" d="M831.38 35.036h48v-16.8h-48z"/><text x="898.583" y="35.036" font-family="'DejaVu Sans', 'Bitstream Vera Sans', 'Computer Modern Sans Serif', 'Lucida Grande', 'Verdana', 'Geneva', 'Lucid', 'Arial', 'Helvetica', 'Avant Garde', sans-serif" font-size="24">sin_movimiento</text><defs><clipPath id="a"><path d="M90.523 16.529h1480.1v266.61H90.523z"/></clipPath></defs></svg>