<?xml version="1.0" encoding="UTF-8"?>
<!DOCTYPE svg  PUBLIC '-//W3C//DTD SVG 1.1//EN'  'http://www.w3.org/Graphics/SVG/1.1/DTD/svg11.dtd'>
<svg width="1392.8pt" height="565.47pt" version="1.1" viewBox="0 0 1392.8 565.47" xmlns="http://www.w3.org/2000/svg" xmlns:xlink="http://www.w3.org/1999/xlink">
 <defs>
  <style type="text/css">*{stroke-linejoin: round; stroke-linecap: butt}</style>
 </defs>
 <path d="m0 565.47h1392.8v-565.47h-1392.8z" fill="#fff"/>
 <path d="m86.033 429.52h1299.6v-402.15h-1299.6z" fill="#fff"/>
 <defs>
  <path id="b" d="m0 0v3.5" stroke="#000" stroke-width=".8"/>
 </defs>
 <use x="129.353104" y="429.520272" stroke="#000000" stroke-width=".8" xlink:href="#b"/>
 <text transform="translate(124.5 558.27) rotate(-90)" font-family="'Montserrat'" font-size="25px" font-weight="500">2007-2011</text>
 <use x="215.992437" y="429.520272" stroke="#000000" stroke-width=".8" xlink:href="#b"/>
 <text transform="translate(211.14 491.15) rotate(-90)" font-family="'Montserrat'" font-size="25px" font-weight="500">2012</text>
 <use x="302.631771" y="429.520272" stroke="#000000" stroke-width=".8" xlink:href="#b"/>
 <text transform="translate(297.78 491.1) rotate(-90)" font-family="'Montserrat'" font-size="25px" font-weight="500">2013</text>
 <use x="389.271104" y="429.520272" stroke="#000000" stroke-width=".8" xlink:href="#b"/>
 <text transform="translate(384.42 493.52) rotate(-90)" font-family="'Montserrat'" font-size="25px" font-weight="500">2014</text>
 <use x="475.910438" y="429.520272" stroke="#000000" stroke-width=".8" xlink:href="#b"/>
 <text transform="translate(471.06 491.15) rotate(-90)" font-family="'Montserrat'" font-size="25px" font-weight="500">2015</text>
 <use x="562.549771" y="429.520272" stroke="#000000" stroke-width=".8" xlink:href="#b"/>
 <text transform="translate(557.7 492.22) rotate(-90)" font-family="'Montserrat'" font-size="25px" font-weight="500">2016</text>
 <use x="649.189104" y="429.520272" stroke="#000000" stroke-width=".8" xlink:href="#b"/>
 <text transform="translate(644.34 491.75) rotate(-90)" font-family="'Montserrat'" font-size="25px" font-weight="500">2017</text>
 <use x="735.828438" y="429.520272" stroke="#000000" stroke-width=".8" xlink:href="#b"/>
 <text transform="translate(730.98 492.9) rotate(-90)" font-family="'Montserrat'" font-size="25px" font-weight="500">2018</text>
 <use x="822.467771" y="429.520272" stroke="#000000" stroke-width=".8" xlink:href="#b"/>
 <text transform="translate(817.62 492.22) rotate(-90)" font-family="'Montserrat'" font-size="25px" font-weight="500">2019</text>
 <use x="909.107104" y="429.520272" stroke="#000000" stroke-width=".8" xlink:href="#b"/>
 <text transform="translate(904.26 498.57) rotate(-90)" font-family="'Montserrat'" font-size="25px" font-weight="500">2020</text>
 <use x="995.746438" y="429.520272" stroke="#000000" stroke-width=".8" xlink:href="#b"/>
 <text transform="translate(990.89 491.15) rotate(-90)" font-family="'Montserrat'" font-size="25px" font-weight="500">2021</text>
 <use x="1082.385771" y="429.520272" stroke="#000000" stroke-width=".8" xlink:href="#b"/>
 <text transform="translate(1077.5 496.25) rotate(-90)" font-family="'Montserrat'" font-size="25px" font-weight="500">2022</text>
 <use x="1169.025104" y="429.520272" stroke="#000000" stroke-width=".8" xlink:href="#b"/>
 <text transform="translate(1164.2 496.2) rotate(-90)" font-family="'Montserrat'" font-size="25px" font-weight="500">2023</text>
 <use x="1255.664438" y="429.520272" stroke="#000000" stroke-width=".8" xlink:href="#b"/>
 <text transform="translate(1250.8 498.63) rotate(-90)" font-family="'Montserrat'" font-size="25px" font-weight="500">2024</text>
 <use x="1342.303771" y="429.520272" stroke="#000000" stroke-width=".8" xlink:href="#b"/>
 <text transform="translate(1337.5 496.25) rotate(-90)" font-family="'Montserrat'" font-size="25px" font-weight="500">2025</text>
 <path d="m86.033 429.52h1299.6" clip-path="url(#a)" fill="none" stroke="#b9b9b9" stroke-linecap="square" stroke-width=".75"/>
 <defs>
  <path id="c" d="m0 0h-3.5" stroke="#000" stroke-width=".8"/>
 </defs>
 <use x="86.033438" y="429.520272" stroke="#000000" stroke-width=".8" xlink:href="#c"/>
 <text transform="rotate(-0 79.033 437.68)" x="79.033438" y="437.682616" font-family="'Montserrat'" font-size="22px" font-weight="500" text-anchor="end">0</text>
 <path d="m86.033 358.69h1299.6" clip-path="url(#a)" fill="none" stroke="#b9b9b9" stroke-linecap="square" stroke-width=".75"/>
 <use x="86.033438" y="358.693966" stroke="#000000" stroke-width=".8" xlink:href="#c"/>
 <text transform="rotate(-0 79.033 366.86)" x="79.033438" y="366.85631" font-family="'Montserrat'" font-size="22px" font-weight="500" text-anchor="end">2,000</text>
 <path d="m86.033 287.87h1299.6" clip-path="url(#a)" fill="none" stroke="#b9b9b9" stroke-linecap="square" stroke-width=".75"/>
 <use x="86.033438" y="287.86766" stroke="#000000" stroke-width=".8" xlink:href="#c"/>
 <text transform="rotate(-0 79.033 296.03)" x="79.033438" y="296.030004" font-family="'Montserrat'" font-size="22px" font-weight="500" text-anchor="end">4,000</text>
 <path d="m86.033 217.04h1299.6" clip-path="url(#a)" fill="none" stroke="#b9b9b9" stroke-linecap="square" stroke-width=".75"/>
 <use x="86.033438" y="217.041355" stroke="#000000" stroke-width=".8" xlink:href="#c"/>
 <text transform="rotate(-0 79.033 225.2)" x="79.033438" y="225.203698" font-family="'Montserrat'" font-size="22px" font-weight="500" text-anchor="end">6,000</text>
 <path d="m86.033 146.22h1299.6" clip-path="url(#a)" fill="none" stroke="#b9b9b9" stroke-linecap="square" stroke-width=".75"/>
 <use x="86.033438" y="146.215049" stroke="#000000" stroke-width=".8" xlink:href="#c"/>
 <text transform="rotate(-0 79.033 154.38)" x="79.033438" y="154.377393" font-family="'Montserrat'" font-size="22px" font-weight="500" text-anchor="end">8,000</text>
 <path d="m86.033 75.389h1299.6" clip-path="url(#a)" fill="none" stroke="#b9b9b9" stroke-linecap="square" stroke-width=".75"/>
 <use x="86.033438" y="75.388743" stroke="#000000" stroke-width=".8" xlink:href="#c"/>
 <text transform="rotate(-0 79.033 83.551)" x="79.033438" y="83.551087" font-family="'Montserrat'" font-size="22px" font-weight="500" text-anchor="end">10,000</text>
 <path d="m94.697 429.52h69.311v-88.781h-69.311z" clip-path="url(#a)" fill="#10302c"/>
 <path d="m94.697 340.74h69.311v-125.4h-69.311z" clip-path="url(#a)" fill="#4c6a67"/>
 <path d="m181.34 429.52h69.311v-24.081h-69.311z" clip-path="url(#a)" fill="#10302c"/>
 <path d="m181.34 405.44h69.311v-50.216h-69.311z" clip-path="url(#a)" fill="#4c6a67"/>
 <path d="m267.98 429.52h69.311v-30.562h-69.311z" clip-path="url(#a)" fill="#10302c"/>
 <path d="m267.98 398.96h69.311v-50.853h-69.311z" clip-path="url(#a)" fill="#4c6a67"/>
 <path d="m354.62 429.52h69.311v-30.774h-69.311z" clip-path="url(#a)" fill="#10302c"/>
 <path d="m354.62 398.75h69.311v-47.985h-69.311z" clip-path="url(#a)" fill="#4c6a67"/>
 <path d="m441.25 429.52h69.311v-27.941h-69.311z" clip-path="url(#a)" fill="#10302c"/>
 <path d="m441.25 401.58h69.311v-45.01h-69.311z" clip-path="url(#a)" fill="#4c6a67"/>
 <path d="m527.89 429.52h69.311v-34.351h-69.311z" clip-path="url(#a)" fill="#10302c"/>
 <path d="m527.89 395.17h69.311v-51.597h-69.311z" clip-path="url(#a)" fill="#4c6a67"/>
 <path d="m614.53 429.52h69.311v-37.892h-69.311z" clip-path="url(#a)" fill="#10302c"/>
 <path d="m614.53 391.63h69.311v-67.958h-69.311z" clip-path="url(#a)" fill="#4c6a67"/>
 <path d="m701.17 429.52h69.311v-22.239h-69.311z" clip-path="url(#a)" fill="#10302c"/>
 <path d="m701.17 407.28h69.311v-63.637h-69.311z" clip-path="url(#a)" fill="#4c6a67"/>
 <path d="m787.81 429.52h69.311v-24.258h-69.311z" clip-path="url(#a)" fill="#10302c"/>
 <path d="m787.81 405.26h69.311v-80.53h-69.311z" clip-path="url(#a)" fill="#4c6a67"/>
 <path d="m874.45 429.52h69.311v-42.071h-69.311z" clip-path="url(#a)" fill="#10302c"/>
 <path d="m874.45 387.45h69.311v-93.668h-69.311z" clip-path="url(#a)" fill="#4c6a67"/>
 <path d="m961.09 429.52h69.311v-58.042h-69.311z" clip-path="url(#a)" fill="#10302c"/>
 <path d="m961.09 371.48h69.311v-110.38h-69.311z" clip-path="url(#a)" fill="#4c6a67"/>
 <path d="m1047.7 429.52h69.311v-53.403h-69.311z" clip-path="url(#a)" fill="#10302c"/>
 <path d="m1047.7 376.12h69.311v-101.07h-69.311z" clip-path="url(#a)" fill="#4c6a67"/>
 <path d="m1134.4 429.52h69.311v-79.503h-69.311z" clip-path="url(#a)" fill="#10302c"/>
 <path d="m1134.4 350.02h69.311v-136.41h-69.311z" clip-path="url(#a)" fill="#4c6a67"/>
 <path d="m1221 429.52h69.311v-110.88h-69.311z" clip-path="url(#a)" fill="#10302c"/>
 <path d="m1221 318.64h69.311v-207.03h-69.311z" clip-path="url(#a)" fill="#4c6a67"/>
 <path d="m1307.6 429.52h69.311v-17.246h-69.311z" clip-path="url(#a)" fill="#10302c"/>
 <path d="m1307.6 412.27h69.311v-141.48h-69.311z" clip-path="url(#a)" fill="#4c6a67"/>
 <text transform="rotate(-0 129.35 391.71)" x="129.353104" y="391.70551" fill="#ffffff" font-family="'Montserrat'" font-size="24px" font-weight="500" text-anchor="middle">2,507</text>
 <text transform="rotate(-0 129.35 284.62)" x="129.353104" y="284.616136" fill="#ffffff" font-family="'Montserrat'" font-size="24px" font-weight="500" text-anchor="middle">3,541</text>
 <path d="m101.76 207.37h55.181q16 0 16-16v7.2781q0-16-16-16h-55.181q-16 0-16 16v-7.2781q0 16 16 16z" fill="#fff" stroke="#002f2a" stroke-width="1.5"/>
 <text transform="rotate(-0 129.35 200.49)" x="129.353104" y="200.49259" fill="#10302c" font-family="'Montserrat'" font-size="20px" font-weight="700" text-anchor="middle">6,048  </text>
 <text transform="rotate(-0 129.35 156.23)" x="129.353104" y="156.23373" fill="#4c6a67" font-family="'Montserrat'" font-size="22px" font-weight="600" text-anchor="middle">10.4%</text>
 <text transform="rotate(-0 215.99 424.06)" x="215.992437" y="424.055425" fill="#ffffff" font-family="'Montserrat'" font-size="24px" font-weight="500" text-anchor="middle">680</text>
 <text transform="rotate(-0 215.99 386.91)" x="215.992437" y="386.907028" fill="#ffffff" font-family="'Montserrat'" font-size="24px" font-weight="500" text-anchor="middle">1,418</text>
 <path d="m189.39 347.26h53.2q16 0 16-16v7.2781q0-16-16-16h-53.2q-16 0-16 16v-7.2781q0 16 16 16z" fill="#fff" stroke="#002f2a" stroke-width="1.5"/>
 <text transform="rotate(-0 215.99 340.37)" x="215.992437" y="340.374544" fill="#10302c" font-family="'Montserrat'" font-size="20px" font-weight="700" text-anchor="middle">2,098  </text>
 <text transform="rotate(-0 215.99 296.12)" x="215.992437" y="296.115684" fill="#4c6a67" font-family="'Montserrat'" font-size="22px" font-weight="600" text-anchor="middle">3.6%</text>
 <text transform="rotate(-0 302.63 420.82)" x="302.631771" y="420.815122" fill="#ffffff" font-family="'Montserrat'" font-size="24px" font-weight="500" text-anchor="middle">863</text>
 <text transform="rotate(-0 302.63 380.11)" x="302.631771" y="380.107702" fill="#ffffff" font-family="'Montserrat'" font-size="24px" font-weight="500" text-anchor="middle">1,436</text>
 <path d="m277.15 340.14h50.959q16 0 16-16v7.2781q0-16-16-16h-50.959q-16 0-16 16v-7.2781q0 16 16 16z" fill="#fff" stroke="#002f2a" stroke-width="1.5"/>
 <text transform="rotate(-0 302.63 333.26)" x="302.631771" y="333.2565" fill="#10302c" font-family="'Montserrat'" font-size="20px" font-weight="700" text-anchor="middle">2,299  </text>
 <text transform="rotate(-0 302.63 289)" x="302.631771" y="288.99764" fill="#4c6a67" font-family="'Montserrat'" font-size="22px" font-weight="600" text-anchor="middle">4.0%</text>
 <text transform="rotate(-0 389.27 420.71)" x="389.271104" y="420.708882" fill="#ffffff" font-family="'Montserrat'" font-size="24px" font-weight="500" text-anchor="middle">869</text>
 <text transform="rotate(-0 389.27 381.33)" x="389.271104" y="381.329456" fill="#ffffff" font-family="'Montserrat'" font-size="24px" font-weight="500" text-anchor="middle">1,355</text>
 <path d="m363.74 342.79h51.059q16 0 16-16v7.2781q0-16-16-16h-51.059q-16 0-16 16v-7.2781q0 16 16 16z" fill="#fff" stroke="#002f2a" stroke-width="1.5"/>
 <text transform="rotate(-0 389.27 335.91)" x="389.271104" y="335.912486" fill="#10302c" font-family="'Montserrat'" font-size="20px" font-weight="700" text-anchor="middle">2,224  </text>
 <text transform="rotate(-0 389.27 291.65)" x="389.271104" y="291.653627" fill="#4c6a67" font-family="'Montserrat'" font-size="22px" font-weight="600" text-anchor="middle">3.8%</text>
 <text transform="rotate(-0 475.91 422.13)" x="475.910438" y="422.125408" fill="#ffffff" font-family="'Montserrat'" font-size="24px" font-weight="500" text-anchor="middle">789</text>
 <text transform="rotate(-0 475.91 385.65)" x="475.910438" y="385.649861" fill="#ffffff" font-family="'Montserrat'" font-size="24px" font-weight="500" text-anchor="middle">1,271</text>
 <path d="m449.12 348.6h53.581q16 0 16-16v7.2781q0-16-16-16h-53.581q-16 0-16 16v-7.2781q0 16 16 16z" fill="#fff" stroke="#002f2a" stroke-width="1.5"/>
 <text transform="rotate(-0 475.91 341.72)" x="475.910438" y="341.720243" fill="#10302c" font-family="'Montserrat'" font-size="20px" font-weight="700" text-anchor="middle">2,060  </text>
 <text transform="rotate(-0 475.91 297.46)" x="475.910438" y="297.461384" fill="#4c6a67" font-family="'Montserrat'" font-size="22px" font-weight="600" text-anchor="middle">3.5%</text>
 <text transform="rotate(-0 562.55 418.92)" x="562.549771" y="418.920518" fill="#ffffff" font-family="'Montserrat'" font-size="24px" font-weight="500" text-anchor="middle">970</text>
 <text transform="rotate(-0 562.55 375.95)" x="562.549771" y="375.946657" fill="#ffffff" font-family="'Montserrat'" font-size="24px" font-weight="500" text-anchor="middle">1,457</text>
 <path d="m536.72 335.6h51.659q16 0 16-16v7.2781q0-16-16-16h-51.659q-16 0-16 16v-7.2781q0 16 16 16z" fill="#fff" stroke="#002f2a" stroke-width="1.5"/>
 <text transform="rotate(-0 562.55 328.72)" x="562.549771" y="328.723616" fill="#10302c" font-family="'Montserrat'" font-size="20px" font-weight="700" text-anchor="middle">2,427  </text>
 <text transform="rotate(-0 562.55 284.46)" x="562.549771" y="284.464757" fill="#4c6a67" font-family="'Montserrat'" font-size="22px" font-weight="600" text-anchor="middle">4.2%</text>
 <text transform="rotate(-0 649.19 417.15)" x="649.189104" y="417.14986" fill="#ffffff" font-family="'Montserrat'" font-size="24px" font-weight="500" text-anchor="middle">1,070</text>
 <text transform="rotate(-0 649.19 364.22)" x="649.189104" y="364.224903" fill="#ffffff" font-family="'Montserrat'" font-size="24px" font-weight="500" text-anchor="middle">1,919</text>
 <path d="m623.01 315.7h52.359q16 0 16-16v7.2781q0-16-16-16h-52.359q-16 0-16 16v-7.2781q0 16 16 16z" fill="#fff" stroke="#002f2a" stroke-width="1.5"/>
 <text transform="rotate(-0 649.19 308.82)" x="649.189104" y="308.821424" fill="#10302c" font-family="'Montserrat'" font-size="20px" font-weight="700" text-anchor="middle">2,989  </text>
 <text transform="rotate(-0 649.19 264.56)" x="649.189104" y="264.562565" fill="#4c6a67" font-family="'Montserrat'" font-size="22px" font-weight="600" text-anchor="middle">5.2%</text>
 <text transform="rotate(-0 735.83 424.98)" x="735.828438" y="424.976167" fill="#ffffff" font-family="'Montserrat'" font-size="24px" font-weight="500" text-anchor="middle">628</text>
 <text transform="rotate(-0 735.83 382.04)" x="735.828438" y="382.037719" fill="#ffffff" font-family="'Montserrat'" font-size="24px" font-weight="500" text-anchor="middle">1,797</text>
 <path d="m710.25 335.68h51.159q16 0 16-16v7.2781q0-16-16-16h-51.159q-16 0-16 16v-7.2781q0 16 16 16z" fill="#fff" stroke="#002f2a" stroke-width="1.5"/>
 <text transform="rotate(-0 735.83 328.79)" x="735.828438" y="328.794443" fill="#10302c" font-family="'Montserrat'" font-size="20px" font-weight="700" text-anchor="middle">2,425  </text>
 <text transform="rotate(-0 735.83 284.54)" x="735.828438" y="284.535583" fill="#4c6a67" font-family="'Montserrat'" font-size="22px" font-weight="600" text-anchor="middle">4.2%</text>
 <text transform="rotate(-0 822.47 423.97)" x="822.467771" y="423.966892" fill="#ffffff" font-family="'Montserrat'" font-size="24px" font-weight="500" text-anchor="middle">685</text>
 <text transform="rotate(-0 822.47 371.57)" x="822.467771" y="371.573132" fill="#ffffff" font-family="'Montserrat'" font-size="24px" font-weight="500" text-anchor="middle">2,274</text>
 <path d="m796.94 316.77h51.059q16 0 16-16v7.2781q0-16-16-16h-51.059q-16 0-16 16v-7.2781q0 16 16 16z" fill="#fff" stroke="#002f2a" stroke-width="1.5"/>
 <text transform="rotate(-0 822.47 309.88)" x="822.467771" y="309.883819" fill="#10302c" font-family="'Montserrat'" font-size="20px" font-weight="700" text-anchor="middle">2,959  </text>
 <text transform="rotate(-0 822.47 265.62)" x="822.467771" y="265.624959" fill="#4c6a67" font-family="'Montserrat'" font-size="22px" font-weight="600" text-anchor="middle">5.1%</text>
 <text transform="rotate(-0 909.11 415.06)" x="909.107104" y="415.060484" fill="#ffffff" font-family="'Montserrat'" font-size="24px" font-weight="500" text-anchor="middle">1,188</text>
 <text transform="rotate(-0 909.11 347.19)" x="909.107104" y="347.191177" fill="#ffffff" font-family="'Montserrat'" font-size="24px" font-weight="500" text-anchor="middle">2,645</text>
 <path d="m883.81 285.81h50.6q16 0 16-16v7.2781q0-16-16-16h-50.6q-16 0-16 16v-7.2781q0 16 16 16z" fill="#fff" stroke="#002f2a" stroke-width="1.5"/>
 <text transform="rotate(-0 909.11 278.93)" x="909.107104" y="278.932723" fill="#10302c" font-family="'Montserrat'" font-size="20px" font-weight="700" text-anchor="middle">3,833  </text>
 <text transform="rotate(-0 909.11 234.67)" x="909.107104" y="234.673864" fill="#4c6a67" font-family="'Montserrat'" font-size="22px" font-weight="600" text-anchor="middle">6.6%</text>
 <text transform="rotate(-0 995.75 407.07)" x="995.746438" y="407.074818" fill="#ffffff" font-family="'Montserrat'" font-size="24px" font-weight="500" text-anchor="middle">1,639</text>
 <text transform="rotate(-0 995.75 322.86)" x="995.746438" y="322.862341" fill="#ffffff" font-family="'Montserrat'" font-size="24px" font-weight="500" text-anchor="middle">3,117</text>
 <path d="m969.4 253.13h52.7q16 0 16-16v7.2781q0-16-16-16h-52.7q-16 0-16 16v-7.2781q0 16 16 16z" fill="#fff" stroke="#002f2a" stroke-width="1.5"/>
 <text transform="rotate(-0 995.75 246.25)" x="995.746438" y="246.246383" fill="#10302c" font-family="'Montserrat'" font-size="20px" font-weight="700" text-anchor="middle">4,756  </text>
 <text transform="rotate(-0 995.75 201.99)" x="995.746438" y="201.987524" fill="#4c6a67" font-family="'Montserrat'" font-size="22px" font-weight="600" text-anchor="middle">8.2%</text>
 <text transform="rotate(-0 1082.4 409.39)" x="1082.385771" y="409.39438" fill="#ffffff" font-family="'Montserrat'" font-size="24px" font-weight="500" text-anchor="middle">1,508</text>
 <text transform="rotate(-0 1082.4 332.16)" x="1082.385771" y="332.158293" fill="#ffffff" font-family="'Montserrat'" font-size="24px" font-weight="500" text-anchor="middle">2,854</text>
 <path d="m1056.4 267.08h52.041q16 0 16-16v7.2781q0-16-16-16h-52.041q-16 0-16 16v-7.2781q0 16 16 16z" fill="#fff" stroke="#002f2a" stroke-width="1.5"/>
 <text transform="rotate(-0 1082.4 260.2)" x="1082.385771" y="260.199165" fill="#10302c" font-family="'Montserrat'" font-size="20px" font-weight="700" text-anchor="middle">4,362  </text>
 <text transform="rotate(-0 1082.4 215.94)" x="1082.385771" y="215.940306" fill="#4c6a67" font-family="'Montserrat'" font-size="22px" font-weight="600" text-anchor="middle">7.5%</text>
 <text transform="rotate(-0 1169 396.34)" x="1169.025104" y="396.344633" fill="#ffffff" font-family="'Montserrat'" font-size="24px" font-weight="500" text-anchor="middle">2,245</text>
 <text transform="rotate(-0 1169 288.39)" x="1169.025104" y="288.387636" fill="#ffffff" font-family="'Montserrat'" font-size="24px" font-weight="500" text-anchor="middle">3,852</text>
 <path d="m1142.4 205.64h53.341q16 0 16-16v7.2781q0-16-16-16h-53.341q-16 0-16 16v-7.2781q0 16 16 16z" fill="#fff" stroke="#002f2a" stroke-width="1.5"/>
 <text transform="rotate(-0 1169 198.76)" x="1169.025104" y="198.757345" fill="#10302c" font-family="'Montserrat'" font-size="20px" font-weight="700" text-anchor="middle">6,097  </text>
 <text transform="rotate(-0 1169 154.5)" x="1169.025104" y="154.498486" fill="#4c6a67" font-family="'Montserrat'" font-size="22px" font-weight="600" text-anchor="middle">10.5%</text>
 <text transform="rotate(-0 1255.7 380.66)" x="1255.664438" y="380.656606" fill="#ffffff" font-family="'Montserrat'" font-size="24px" font-weight="500" text-anchor="middle">3,131</text>
 <text transform="rotate(-0 1255.7 221.7)" x="1255.664438" y="221.704669" fill="#ffffff" font-family="'Montserrat'" font-size="24px" font-weight="500" text-anchor="middle">5,846</text>
 <path d="m1229.4 103.65h52.619q16 0 16-16v7.2781q0-16-16-16h-52.619q-16 0-16 16v-7.2781q0 16 16 16z" fill="#fff" stroke="#002f2a" stroke-width="1.5"/>
 <text transform="rotate(-0 1255.7 96.767)" x="1255.664438" y="96.767465" fill="#10302c" font-family="'Montserrat'" font-size="20px" font-weight="700" text-anchor="middle">8,977  </text>
 <text transform="rotate(-0 1255.7 52.509)" x="1255.664438" y="52.508605" fill="#4c6a67" font-family="'Montserrat'" font-size="22px" font-weight="600" text-anchor="middle">15.5%</text>
 <text transform="rotate(-0 1342.3 348.11)" x="1342.303771" y="348.111919" fill="#ffffff" font-family="'Montserrat'" font-size="24px" font-weight="500" text-anchor="middle">3,995</text>
 <path d="m1315.1 262.83h54.441q16 0 16-16v7.2781q0-16-16-16h-54.441q-16 0-16 16v-7.2781q0 16 16 16z" fill="#fff" stroke="#002f2a" stroke-width="1.5"/>
 <text transform="rotate(-0 1342.3 255.95)" x="1342.303771" y="255.949587" fill="#10302c" font-family="'Montserrat'" font-size="20px" font-weight="700" text-anchor="middle">4,482  </text>
 <text transform="rotate(-0 1342.3 211.69)" x="1342.303771" y="211.690728" fill="#4c6a67" font-family="'Montserrat'" font-size="22px" font-weight="600" text-anchor="middle">7.7%</text>
 <path d="m478.39 35.036h48v-16.8h-48z" fill="#10302c"/>
 <text transform="rotate(-0 545.59 35.036)" x="545.587188" y="35.03625" font-family="'DejaVu Sans', 'Bitstream Vera Sans', 'Computer Modern Sans Serif', 'Lucida Grande', 'Verdana', 'Geneva', 'Lucid', 'Arial', 'Helvetica', 'Avant Garde', sans-serif" font-size="24px">movimiento</text>
 <path d="m736.64 35.036h48v-16.8h-48z" fill="#4c6a67"/>
 <text transform="rotate(-0 803.84 35.036)" x="803.838438" y="35.03625" font-family="'DejaVu Sans', 'Bitstream Vera Sans', 'Computer Modern Sans Serif', 'Lucida Grande', 'Verdana', 'Geneva', 'Lucid', 'Arial', 'Helvetica', 'Avant Garde', sans-serif" font-size="24px">sin_movimiento</text>
 <defs>
  <clipPath id="a">
   <rect x="86.033" y="27.372" width="1299.6" height="402.15"/>
  </clipPath>
 </defs>
</svg>
