<svg xmlns="http://www.w3.org/2000/svg" xmlns:xlink="http://www.w3.org/1999/xlink" width="1577.8pt" height="753.28" viewBox="0 0 1577.8 564.96"><defs><style>*{stroke-linejoin:round;stroke-linecap:butt}</style></defs><path fill="#fff" d="M0 564.96h1577.8V0H0z"/><path fill="#fff" d="M90.523 421.78h1480.1V26.8H90.523z"/><defs><path id="b" stroke="#000" stroke-width=".8" d="M0 0v3.5"/></defs><use xlink:href="#b" x="134.055" y="421.777" stroke="#000" stroke-width=".8"/><text font-family="'Montserrat'" font-size="25" font-weight="500" transform="rotate(-90 310.315 181.115)">2007</text><use xlink:href="#b" x="221.12" y="421.777" stroke="#000" stroke-width=".8"/><text font-family="'Montserrat'" font-size="25" font-weight="500" transform="rotate(-90 354.425 138.155)">2008</text><use xlink:href="#b" x="308.185" y="421.777" stroke="#000" stroke-width=".8"/><text font-family="'Montserrat'" font-size="25" font-weight="500" transform="rotate(-90 397.62 94.29)">2009</text><use xlink:href="#b" x="395.249" y="421.777" stroke="#000" stroke-width=".8"/><text font-family="'Montserrat'" font-size="25" font-weight="500" transform="rotate(-90 438.065 47.665)">2010</text><use xlink:href="#b" x="482.314" y="421.777" stroke="#000" stroke-width=".8"/><text font-family="'Montserrat'" font-size="25" font-weight="500" transform="rotate(-90 477.88 .42)">2011</text><use xlink:href="#b" x="569.379" y="421.777" stroke="#000" stroke-width=".8"/><text font-family="'Montserrat'" font-size="25" font-weight="500" transform="rotate(-90 523.97 -40.56)">2012</text><use xlink:href="#b" x="656.443" y="421.777" stroke="#000" stroke-width=".8"/><text font-family="'Montserrat'" font-size="25" font-weight="500" transform="rotate(-90 567.47 -84.12)">2013</text><use xlink:href="#b" x="743.508" y="421.777" stroke="#000" stroke-width=".8"/><text font-family="'Montserrat'" font-size="25" font-weight="500" transform="rotate(-90 612.22 -126.44)">2014</text><use xlink:href="#b" x="830.573" y="421.777" stroke="#000" stroke-width=".8"/><text font-family="'Montserrat'" font-size="25" font-weight="500" transform="rotate(-90 654.565 -171.155)">2015</text><use xlink:href="#b" x="917.638" y="421.777" stroke="#000" stroke-width=".8"/><text font-family="'Montserrat'" font-size="25" font-weight="500" transform="rotate(-90 698.635 -214.155)">2016</text><use xlink:href="#b" x="1004.702" y="421.777" stroke="#000" stroke-width=".8"/><text font-family="'Montserrat'" font-size="25" font-weight="500" transform="matrix(0 -1 1 0 999.85 484)">2017</text><use xlink:href="#b" x="1091.767" y="421.777" stroke="#000" stroke-width=".8"/><text font-family="'Montserrat'" font-size="25" font-weight="500" transform="rotate(-90 786.03 -300.87)">2018</text><use xlink:href="#b" x="1178.832" y="421.777" stroke="#000" stroke-width=".8"/><text font-family="'Montserrat'" font-size="25" font-weight="500" transform="rotate(-90 829.24 -344.76)">2019</text><use xlink:href="#b" x="1265.896" y="421.777" stroke="#000" stroke-width=".8"/><text font-family="'Montserrat'" font-size="25" font-weight="500" transform="rotate(-90 875.915 -385.085)">2020</text><use xlink:href="#b" x="1352.961" y="421.777" stroke="#000" stroke-width=".8"/><text font-family="'Montserrat'" font-size="25" font-weight="500" transform="rotate(-90 915.755 -432.345)">2021</text><use xlink:href="#b" x="1440.026" y="421.777" stroke="#000" stroke-width=".8"/><text font-family="'Montserrat'" font-size="25" font-weight="500" transform="rotate(-90 961.855 -473.345)">2022</text><use xlink:href="#b" x="1527.09" y="421.777" stroke="#000" stroke-width=".8"/><text font-family="'Montserrat'" font-size="25" font-weight="500" transform="rotate(-90 1039.98 -482.22)">2023-2025</text><path fill="none" stroke="#b9b9b9" stroke-linecap="square" stroke-width=".75" d="M90.523 421.78h1480.1" clip-path="url(#a)"/><defs><path id="c" stroke="#000" stroke-width=".8" d="M0 0h-3.5"/></defs><use xlink:href="#c" x="90.523" y="421.777" stroke="#000" stroke-width=".8"/><text x="83.523" y="429.939" font-family="'Montserrat'" font-size="22" font-weight="500" text-anchor="end">0</text><path fill="none" stroke="#b9b9b9" stroke-linecap="square" stroke-width=".75" d="M90.523 341.95h1480.1" clip-path="url(#a)"/><use xlink:href="#c" x="90.523" y="341.945" stroke="#000" stroke-width=".8"/><text x="83.523" y="350.108" font-family="'Montserrat'" font-size="22" font-weight="500" text-anchor="end">5,000</text><path fill="none" stroke="#b9b9b9" stroke-linecap="square" stroke-width=".75" d="M90.523 262.11h1480.1" clip-path="url(#a)"/><use xlink:href="#c" x="90.523" y="262.114" stroke="#000" stroke-width=".8"/><text x="83.523" y="270.277" font-family="'Montserrat'" font-size="22" font-weight="500" text-anchor="end">10,000</text><path fill="none" stroke="#b9b9b9" stroke-linecap="square" stroke-width=".75" d="M90.523 182.28h1480.1" clip-path="url(#a)"/><use xlink:href="#c" x="90.523" y="182.283" stroke="#000" stroke-width=".8"/><text x="83.523" y="190.445" font-family="'Montserrat'" font-size="22" font-weight="500" text-anchor="end">15,000</text><path fill="none" stroke="#b9b9b9" stroke-linecap="square" stroke-width=".75" d="M90.523 102.45h1480.1" clip-path="url(#a)"/><use xlink:href="#c" x="90.523" y="102.452" stroke="#000" stroke-width=".8"/><text x="83.523" y="110.614" font-family="'Montserrat'" font-size="22" font-weight="500" text-anchor="end">20,000</text><path fill="#10302c" d="M99.229 421.78h69.652v-2.778H99.229z" clip-path="url(#a)"/><path fill="#4c6a67" d="M99.229 419h69.652v-2.954H99.229z" clip-path="url(#a)"/><path fill="#10302c" d="M186.29 421.78h69.652v-3.736H186.29z" clip-path="url(#a)"/><path fill="#4c6a67" d="M186.29 418.04h69.652v-3.944H186.29z" clip-path="url(#a)"/><path fill="#10302c" d="M273.36 421.78h69.652v-6.578H273.36z" clip-path="url(#a)"/><path fill="#4c6a67" d="M273.36 415.2h69.652v-6.386H273.36z" clip-path="url(#a)"/><path fill="#10302c" d="M360.42 421.78h69.652v-13.603H360.42z" clip-path="url(#a)"/><path fill="#4c6a67" d="M360.42 408.17h69.652v-18.345H360.42z" clip-path="url(#a)"/><path fill="#10302c" d="M447.49 421.78h69.652v-13.332H447.49z" clip-path="url(#a)"/><path fill="#4c6a67" d="M447.49 408.44h69.652v-24.907H447.49z" clip-path="url(#a)"/><path fill="#10302c" d="M534.55 421.78h69.652v-10.857H534.55z" clip-path="url(#a)"/><path fill="#4c6a67" d="M534.55 410.92h69.652v-22.64H534.55z" clip-path="url(#a)"/><path fill="#10302c" d="M621.62 421.78h69.652v-13.779H621.62z" clip-path="url(#a)"/><path fill="#4c6a67" d="M621.62 408h69.652v-22.928H621.62z" clip-path="url(#a)"/><path fill="#10302c" d="M708.68 421.78h69.652v-13.875H708.68z" clip-path="url(#a)"/><path fill="#4c6a67" d="M708.68 407.9h69.652v-21.634H708.68z" clip-path="url(#a)"/><path fill="#10302c" d="M795.75 421.78h69.652v-12.597H795.75z" clip-path="url(#a)"/><path fill="#4c6a67" d="M795.75 409.18h69.652v-20.293H795.75z" clip-path="url(#a)"/><path fill="#10302c" d="M882.81 421.78h69.652v-15.487H882.81z" clip-path="url(#a)"/><path fill="#4c6a67" d="M882.81 406.29h69.652v-23.263H882.81z" clip-path="url(#a)"/><path fill="#10302c" d="M969.88 421.78h69.652v-17.084H969.88z" clip-path="url(#a)"/><path fill="#4c6a67" d="M969.88 404.69h69.652v-30.639H969.88z" clip-path="url(#a)"/><path fill="#10302c" d="M1056.9 421.78h69.652v-10.027H1056.9z" clip-path="url(#a)"/><path fill="#4c6a67" d="M1056.9 411.75h69.652v-28.691H1056.9z" clip-path="url(#a)"/><path fill="#10302c" d="M1144 421.78h69.652v-10.937H1144z" clip-path="url(#a)"/><path fill="#4c6a67" d="M1144 410.84h69.652v-36.307H1144z" clip-path="url(#a)"/><path fill="#10302c" d="M1231.1 421.78h69.652v-18.968H1231.1z" clip-path="url(#a)"/><path fill="#4c6a67" d="M1231.1 402.81h69.652v-42.231H1231.1z" clip-path="url(#a)"/><path fill="#10302c" d="M1318.1 421.78h69.652v-26.169H1318.1z" clip-path="url(#a)"/><path fill="#4c6a67" d="M1318.1 395.61h69.652v-49.767H1318.1z" clip-path="url(#a)"/><path fill="#10302c" d="M1405.2 421.78h69.652v-24.077H1405.2z" clip-path="url(#a)"/><path fill="#4c6a67" d="M1405.2 397.7h69.652v-45.568H1405.2z" clip-path="url(#a)"/><path fill="#10302c" d="M1492.3 421.78h69.652v-93.61H1492.3z" clip-path="url(#a)"/><path fill="#4c6a67" d="M1492.3 328.17h69.652V109.54H1492.3z" clip-path="url(#a)"/><path fill="#fff" stroke="#002f2a" stroke-width="1.5" d="M117.5 408.27h33.119q16 0 16-16v7.278q0-16-16-16H117.5q-16 0-16 16v-7.278q0 16 16 16z"/><text x="134.055" y="401.391" fill="#10302c" font-family="'Montserrat'" font-size="20" font-weight="700" text-anchor="middle">359  </text><text x="134.055" y="357.915" fill="#4c6a67" font-family="'Montserrat'" font-size="22" font-weight="600" text-anchor="middle">0.6%</text><path fill="#fff" stroke="#002f2a" stroke-width="1.5" d="M205.39 406.32h31.459q16 0 16-16v7.278q0-16-16-16H205.39q-16 0-16 16v-7.278q0 16 16 16z"/><text x="221.12" y="399.444" fill="#10302c" font-family="'Montserrat'" font-size="20" font-weight="700" text-anchor="middle">481  </text><text x="221.12" y="355.967" fill="#4c6a67" font-family="'Montserrat'" font-size="22" font-weight="600" text-anchor="middle">0.8%</text><path fill="#fff" stroke="#002f2a" stroke-width="1.5" d="M293.45 401.04h29.478q16 0 16-16v7.278q0-16-16-16H293.45q-16 0-16 16v-7.278q0 16 16 16z"/><text x="308.185" y="394.159" fill="#10302c" font-family="'Montserrat'" font-size="20" font-weight="700" text-anchor="middle">812  </text><text x="308.185" y="350.682" fill="#4c6a67" font-family="'Montserrat'" font-size="22" font-weight="600" text-anchor="middle">1.4%</text><text x="395.249" y="405.576" fill="#fff" font-family="'Montserrat'" font-size="24" font-weight="500" text-anchor="middle">1,149</text><path fill="#fff" stroke="#002f2a" stroke-width="1.5" d="M370.91 382.06h48.681q16 0 16-16v7.278q0-16-16-16H370.91q-16 0-16 16v-7.278q0 16 16 16z"/><text x="395.249" y="375.175" fill="#10302c" font-family="'Montserrat'" font-size="20" font-weight="700" text-anchor="middle">2,001  </text><text x="395.249" y="331.698" fill="#4c6a67" font-family="'Montserrat'" font-size="22" font-weight="600" text-anchor="middle">3.4%</text><text x="482.314" y="402.567" fill="#fff" font-family="'Montserrat'" font-size="24" font-weight="500" text-anchor="middle">1,560</text><path fill="#fff" stroke="#002f2a" stroke-width="1.5" d="M457.23 375.77h50.159q16 0 16-16v7.278q0-16-16-16H457.23q-16 0-16 16v-7.278q0 16 16 16z"/><text x="482.314" y="368.884" fill="#10302c" font-family="'Montserrat'" font-size="20" font-weight="700" text-anchor="middle">2,395  </text><text x="482.314" y="325.407" fill="#4c6a67" font-family="'Montserrat'" font-size="22" font-weight="600" text-anchor="middle">4.1%</text><text x="569.379" y="406.175" fill="#fff" font-family="'Montserrat'" font-size="24" font-weight="500" text-anchor="middle">1,418</text><path fill="#fff" stroke="#002f2a" stroke-width="1.5" d="M542.78 380.51h53.2q16 0 16-16v7.278q0-16-16-16h-53.2q-16 0-16 16v-7.278q0 16 16 16z"/><text x="569.379" y="373.626" fill="#10302c" font-family="'Montserrat'" font-size="20" font-weight="700" text-anchor="middle">2,098  </text><text x="569.379" y="330.149" fill="#4c6a67" font-family="'Montserrat'" font-size="22" font-weight="600" text-anchor="middle">3.6%</text><text x="656.443" y="403.11" fill="#fff" font-family="'Montserrat'" font-size="24" font-weight="500" text-anchor="middle">1,436</text><path fill="#fff" stroke="#002f2a" stroke-width="1.5" d="M630.96 377.3h50.959q16 0 16-16v7.278q0-16-16-16H630.96q-16 0-16 16V361.3q0 16 16 16z"/><text x="656.443" y="370.417" fill="#10302c" font-family="'Montserrat'" font-size="20" font-weight="700" text-anchor="middle">2,299  </text><text x="656.443" y="326.94" fill="#4c6a67" font-family="'Montserrat'" font-size="22" font-weight="600" text-anchor="middle">4.0%</text><text x="743.508" y="403.66" fill="#fff" font-family="'Montserrat'" font-size="24" font-weight="500" text-anchor="middle">1,355</text><path fill="#fff" stroke="#002f2a" stroke-width="1.5" d="M717.98 378.5h51.059q16 0 16-16v7.278q0-16-16-16H717.98q-16 0-16 16V362.5q0 16 16 16z"/><text x="743.508" y="371.614" fill="#10302c" font-family="'Montserrat'" font-size="20" font-weight="700" text-anchor="middle">2,224  </text><text x="743.508" y="328.138" fill="#4c6a67" font-family="'Montserrat'" font-size="22" font-weight="600" text-anchor="middle">3.8%</text><text x="830.573" y="405.608" fill="#fff" font-family="'Montserrat'" font-size="24" font-weight="500" text-anchor="middle">1,271</text><path fill="#fff" stroke="#002f2a" stroke-width="1.5" d="M803.78 381.11h53.581q16 0 16-16v7.278q0-16-16-16H803.78q-16 0-16 16v-7.278q0 16 16 16z"/><text x="830.573" y="374.233" fill="#10302c" font-family="'Montserrat'" font-size="20" font-weight="700" text-anchor="middle">2,060  </text><text x="830.573" y="330.756" fill="#4c6a67" font-family="'Montserrat'" font-size="22" font-weight="600" text-anchor="middle">3.5%</text><text x="917.638" y="401.234" fill="#fff" font-family="'Montserrat'" font-size="24" font-weight="500" text-anchor="middle">1,457</text><path fill="#fff" stroke="#002f2a" stroke-width="1.5" d="M891.81 375.25h51.659q16 0 16-16v7.278q0-16-16-16H891.81q-16 0-16 16v-7.278q0 16 16 16z"/><text x="917.638" y="368.373" fill="#10302c" font-family="'Montserrat'" font-size="20" font-weight="700" text-anchor="middle">2,427  </text><text x="917.638" y="324.897" fill="#4c6a67" font-family="'Montserrat'" font-size="22" font-weight="600" text-anchor="middle">4.2%</text><text x="1004.702" y="395.949" fill="#fff" font-family="'Montserrat'" font-size="24" font-weight="500" text-anchor="middle">1,919</text><path fill="#fff" stroke="#002f2a" stroke-width="1.5" d="M978.52 366.28h52.359q16 0 16-16v7.278q0-16-16-16H978.52q-16 0-16 16v-7.278q0 16 16 16z"/><text x="1004.702" y="359.4" fill="#10302c" font-family="'Montserrat'" font-size="20" font-weight="700" text-anchor="middle">2,989  </text><text x="1004.702" y="315.923" fill="#4c6a67" font-family="'Montserrat'" font-size="22" font-weight="600" text-anchor="middle">5.2%</text><text x="1091.767" y="403.98" fill="#fff" font-family="'Montserrat'" font-size="24" font-weight="500" text-anchor="middle">1,797</text><path fill="#fff" stroke="#002f2a" stroke-width="1.5" d="M1066.2 375.29h51.159q16 0 16-16v7.278q0-16-16-16H1066.2q-16 0-16 16v-7.278q0 16 16 16z"/><text x="1091.767" y="368.405" fill="#10302c" font-family="'Montserrat'" font-size="20" font-weight="700" text-anchor="middle">2,425  </text><text x="1091.767" y="324.928" fill="#4c6a67" font-family="'Montserrat'" font-size="22" font-weight="600" text-anchor="middle">4.2%</text><text x="1178.832" y="399.262" fill="#fff" font-family="'Montserrat'" font-size="24" font-weight="500" text-anchor="middle">2,274</text><path fill="#fff" stroke="#002f2a" stroke-width="1.5" d="M1153.3 366.76h51.059q16 0 16-16v7.278q0-16-16-16H1153.3q-16 0-16 16v-7.278q0 16 16 16z"/><text x="1178.832" y="359.879" fill="#10302c" font-family="'Montserrat'" font-size="20" font-weight="700" text-anchor="middle">2,959  </text><text x="1178.832" y="316.402" fill="#4c6a67" font-family="'Montserrat'" font-size="22" font-weight="600" text-anchor="middle">5.1%</text><text x="1265.896" y="418.868" fill="#fff" font-family="'Montserrat'" font-size="24" font-weight="500" text-anchor="middle">1,188</text><text x="1265.896" y="388.269" fill="#fff" font-family="'Montserrat'" font-size="24" font-weight="500" text-anchor="middle">2,645</text><path fill="#fff" stroke="#002f2a" stroke-width="1.5" d="M1240.6 352.81h50.6q16 0 16-16v7.278q0-16-16-16h-50.6q-16 0-16 16v-7.278q0 16 16 16z"/><text x="1265.896" y="345.925" fill="#10302c" font-family="'Montserrat'" font-size="20" font-weight="700" text-anchor="middle">3,833  </text><text x="1265.896" y="302.448" fill="#4c6a67" font-family="'Montserrat'" font-size="22" font-weight="600" text-anchor="middle">6.6%</text><text x="1352.961" y="415.268" fill="#fff" font-family="'Montserrat'" font-size="24" font-weight="500" text-anchor="middle">1,639</text><text x="1352.961" y="377.3" fill="#fff" font-family="'Montserrat'" font-size="24" font-weight="500" text-anchor="middle">3,117</text><path fill="#fff" stroke="#002f2a" stroke-width="1.5" d="M1326.6 338.07h52.7q16 0 16-16v7.278q0-16-16-16h-52.7q-16 0-16 16v-7.278q0 16 16 16z"/><text x="1352.961" y="331.188" fill="#10302c" font-family="'Montserrat'" font-size="20" font-weight="700" text-anchor="middle">4,756  </text><text x="1352.961" y="287.711" fill="#4c6a67" font-family="'Montserrat'" font-size="22" font-weight="600" text-anchor="middle">8.2%</text><text x="1440.026" y="416.314" fill="#fff" font-family="'Montserrat'" font-size="24" font-weight="500" text-anchor="middle">1,508</text><text x="1440.026" y="381.491" fill="#fff" font-family="'Montserrat'" font-size="24" font-weight="500" text-anchor="middle">2,854</text><path fill="#fff" stroke="#002f2a" stroke-width="1.5" d="M1414 344.36h52.041q16 0 16-16v7.278q0-16-16-16H1414q-16 0-16 16v-7.278q0 16 16 16z"/><text x="1440.026" y="337.479" fill="#10302c" font-family="'Montserrat'" font-size="20" font-weight="700" text-anchor="middle">4,362  </text><text x="1440.026" y="294.002" fill="#4c6a67" font-family="'Montserrat'" font-size="22" font-weight="600" text-anchor="middle">7.5%</text><text x="1527.09" y="381.547" fill="#fff" font-family="'Montserrat'" font-size="24" font-weight="500" text-anchor="middle">5,863</text><text x="1527.09" y="225.429" fill="#fff" font-family="'Montserrat'" font-size="24" font-weight="500" text-anchor="middle">13,693</text><path fill="#fff" stroke="#002f2a" stroke-width="1.5" d="M1497.6 101.77h59q16 0 16-16v7.278q0-16-16-16h-59q-16 0-16 16V85.77q0 16 16 16z"/><text x="1527.09" y="94.887" fill="#10302c" font-family="'Montserrat'" font-size="20" font-weight="700" text-anchor="middle">19,556  </text><text x="1527.09" y="51.411" fill="#4c6a67" font-family="'Montserrat'" font-size="22" font-weight="600" text-anchor="middle">33.7%</text><path fill="#10302c" d="M573.13 35.036h48v-16.8h-48z"/><text x="640.332" y="35.036" font-family="'DejaVu Sans', 'Bitstream Vera Sans', 'Computer Modern Sans Serif', 'Lucida Grande', 'Verdana', 'Geneva', 'Lucid', 'Arial', 'Helvetica', 'Avant Garde', sans-serif" font-size="24">movimiento</text><path fill="#4c6a67" d="M831.38 35.036h48v-16.8h-48z"/><text x="898.583" y="35.036" font-family="'DejaVu Sans', 'Bitstream Vera Sans', 'Computer Modern Sans Serif', 'Lucida Grande', 'Verdana', 'Geneva', 'Lucid', 'Arial', 'Helvetica', 'Avant Garde', sans-serif" font-size="24">sin_movimiento</text><defs><clipPath id="a"><path d="M90.523 26.798h1480.1v394.98H90.523z"/></clipPath></defs></svg>