<?xml version="1.0" encoding="utf-8" standalone="no"?>
<!DOCTYPE svg PUBLIC "-//W3C//DTD SVG 1.1//EN"
  "http://www.w3.org/Graphics/SVG/1.1/DTD/svg11.dtd">
<svg xmlns:xlink="http://www.w3.org/1999/xlink" width="1144.12125pt" height="558.580062pt" viewBox="0 0 1144.12125 558.580062" xmlns="http://www.w3.org/2000/svg" version="1.1">
 <metadata>
  <rdf:RDF xmlns:dc="http://purl.org/dc/elements/1.1/" xmlns:cc="http://creativecommons.org/ns#" xmlns:rdf="http://www.w3.org/1999/02/22-rdf-syntax-ns#">
   <cc:Work>
    <dc:type rdf:resource="http://purl.org/dc/dcmitype/StillImage"/>
    <dc:date>2025-05-21T14:53:12.148890</dc:date>
    <dc:format>image/svg+xml</dc:format>
    <dc:creator>
     <cc:Agent>
      <dc:title>Matplotlib v3.10.0, https://matplotlib.org/</dc:title>
     </cc:Agent>
    </dc:creator>
   </cc:Work>
  </rdf:RDF>
 </metadata>
 <defs>
  <style type="text/css">*{stroke-linejoin: round; stroke-linecap: butt}</style>
 </defs>
 <g id="figure_1">
  <g id="patch_1">
   <path d="M 0 558.580062 
L 1144.12125 558.580062 
L 1144.12125 0 
L 0 0 
z
" style="fill: #ffffff"/>
  </g>
  <g id="axes_1">
   <g id="patch_2">
    <path d="M 110.04125 400.901312 
L 1136.92125 400.901312 
L 1136.92125 40.453712 
L 110.04125 40.453712 
z
" style="fill: #ffffff"/>
   </g>
   <g id="FillBetweenPolyCollection_1">
    <path d="M 137.064408 294.56491 
L 137.064408 400.901312 
L 140.318032 400.901312 
L 143.571657 400.901312 
L 146.825281 400.901312 
L 150.078905 400.901312 
L 153.33253 400.901312 
L 156.586154 400.901312 
L 159.839778 400.901312 
L 163.093403 400.901312 
L 166.347027 400.901312 
L 169.600652 400.901312 
L 172.854276 400.901312 
L 176.1079 400.901312 
L 179.361525 400.901312 
L 182.615149 400.901312 
L 185.868773 400.901312 
L 189.122398 400.901312 
L 192.376022 400.901312 
L 195.629646 400.901312 
L 198.883271 400.901312 
L 202.136895 400.901312 
L 205.390519 400.901312 
L 208.644144 400.901312 
L 211.897768 400.901312 
L 215.151393 400.901312 
L 218.405017 400.901312 
L 221.658641 400.901312 
L 224.912266 400.901312 
L 228.16589 400.901312 
L 231.419514 400.901312 
L 234.673139 400.901312 
L 237.926763 400.901312 
L 241.180387 400.901312 
L 244.434012 400.901312 
L 247.687636 400.901312 
L 250.941261 400.901312 
L 254.194885 400.901312 
L 257.448509 400.901312 
L 260.702134 400.901312 
L 263.955758 400.901312 
L 267.209382 400.901312 
L 270.463007 400.901312 
L 273.716631 400.901312 
L 276.970255 400.901312 
L 280.22388 400.901312 
L 283.477504 400.901312 
L 286.731129 400.901312 
L 289.984753 400.901312 
L 293.238377 400.901312 
L 296.492002 400.901312 
L 299.745626 400.901312 
L 302.99925 400.901312 
L 306.252875 400.901312 
L 309.506499 400.901312 
L 312.760123 400.901312 
L 316.013748 400.901312 
L 319.267372 400.901312 
L 322.520997 400.901312 
L 325.774621 400.901312 
L 329.028245 400.901312 
L 332.28187 400.901312 
L 335.535494 400.901312 
L 338.789118 400.901312 
L 342.042743 400.901312 
L 345.296367 400.901312 
L 348.549991 400.901312 
L 351.803616 400.901312 
L 355.05724 400.901312 
L 358.310865 400.901312 
L 361.564489 400.901312 
L 364.818113 400.901312 
L 368.071738 400.901312 
L 371.325362 400.901312 
L 374.578986 400.901312 
L 377.832611 400.901312 
L 381.086235 400.901312 
L 384.339859 400.901312 
L 387.593484 400.901312 
L 390.847108 400.901312 
L 394.100732 400.901312 
L 397.354357 400.901312 
L 400.607981 400.901312 
L 403.861606 400.901312 
L 407.11523 400.901312 
L 410.368854 400.901312 
L 413.622479 400.901312 
L 416.876103 400.901312 
L 420.129727 400.901312 
L 423.383352 400.901312 
L 426.636976 400.901312 
L 429.8906 400.901312 
L 433.144225 400.901312 
L 436.397849 400.901312 
L 439.651474 400.901312 
L 442.905098 400.901312 
L 446.158722 400.901312 
L 449.412347 400.901312 
L 452.665971 400.901312 
L 455.919595 400.901312 
L 459.17322 400.901312 
L 462.426844 400.901312 
L 465.680468 400.901312 
L 468.934093 400.901312 
L 472.187717 400.901312 
L 475.441342 400.901312 
L 478.694966 400.901312 
L 481.94859 400.901312 
L 485.202215 400.901312 
L 488.455839 400.901312 
L 491.709463 400.901312 
L 494.963088 400.901312 
L 498.216712 400.901312 
L 501.470336 400.901312 
L 504.723961 400.901312 
L 507.977585 400.901312 
L 511.23121 400.901312 
L 514.484834 400.901312 
L 517.738458 400.901312 
L 520.992083 400.901312 
L 524.245707 400.901312 
L 527.499331 400.901312 
L 530.752956 400.901312 
L 534.00658 400.901312 
L 537.260204 400.901312 
L 540.513829 400.901312 
L 543.767453 400.901312 
L 547.021077 400.901312 
L 550.274702 400.901312 
L 553.528326 400.901312 
L 556.781951 400.901312 
L 560.035575 400.901312 
L 563.289199 400.901312 
L 566.542824 400.901312 
L 569.796448 400.901312 
L 573.050072 400.901312 
L 576.303697 400.901312 
L 579.557321 400.901312 
L 582.810945 400.901312 
L 586.06457 400.901312 
L 589.318194 400.901312 
L 592.571819 400.901312 
L 595.825443 400.901312 
L 599.079067 400.901312 
L 602.332692 400.901312 
L 605.586316 400.901312 
L 608.83994 400.901312 
L 612.093565 400.901312 
L 615.347189 400.901312 
L 618.600813 400.901312 
L 621.854438 400.901312 
L 625.108062 400.901312 
L 628.361687 400.901312 
L 631.615311 400.901312 
L 634.868935 400.901312 
L 638.12256 400.901312 
L 641.376184 400.901312 
L 644.629808 400.901312 
L 647.883433 400.901312 
L 651.137057 400.901312 
L 654.390681 400.901312 
L 657.644306 400.901312 
L 660.89793 400.901312 
L 664.151555 400.901312 
L 667.405179 400.901312 
L 670.658803 400.901312 
L 673.912428 400.901312 
L 677.166052 400.901312 
L 680.419676 400.901312 
L 683.673301 400.901312 
L 686.926925 400.901312 
L 690.180549 400.901312 
L 693.434174 400.901312 
L 696.687798 400.901312 
L 699.941423 400.901312 
L 703.195047 400.901312 
L 706.448671 400.901312 
L 709.702296 400.901312 
L 712.95592 400.901312 
L 716.209544 400.901312 
L 719.463169 400.901312 
L 722.716793 400.901312 
L 725.970417 400.901312 
L 729.224042 400.901312 
L 732.477666 400.901312 
L 735.73129 400.901312 
L 738.984915 400.901312 
L 742.238539 400.901312 
L 745.492164 400.901312 
L 748.745788 400.901312 
L 751.999412 400.901312 
L 755.253037 400.901312 
L 758.506661 400.901312 
L 761.760285 400.901312 
L 765.01391 400.901312 
L 768.267534 400.901312 
L 771.521158 400.901312 
L 774.774783 400.901312 
L 778.028407 400.901312 
L 781.282032 400.901312 
L 784.535656 400.901312 
L 787.78928 400.901312 
L 791.042905 400.901312 
L 794.296529 400.901312 
L 797.550153 400.901312 
L 800.803778 400.901312 
L 804.057402 400.901312 
L 807.311026 400.901312 
L 810.564651 400.901312 
L 813.818275 400.901312 
L 817.0719 400.901312 
L 820.325524 400.901312 
L 823.579148 400.901312 
L 826.832773 400.901312 
L 830.086397 400.901312 
L 833.340021 400.901312 
L 836.593646 400.901312 
L 839.84727 400.901312 
L 843.100894 400.901312 
L 846.354519 400.901312 
L 849.608143 400.901312 
L 852.861768 400.901312 
L 856.115392 400.901312 
L 859.369016 400.901312 
L 862.622641 400.901312 
L 865.876265 400.901312 
L 869.129889 400.901312 
L 872.383514 400.901312 
L 875.637138 400.901312 
L 878.890762 400.901312 
L 882.144387 400.901312 
L 885.398011 400.901312 
L 888.651635 400.901312 
L 891.90526 400.901312 
L 895.158884 400.901312 
L 898.412509 400.901312 
L 901.666133 400.901312 
L 904.919757 400.901312 
L 908.173382 400.901312 
L 911.427006 400.901312 
L 914.68063 400.901312 
L 917.934255 400.901312 
L 921.187879 400.901312 
L 924.441503 400.901312 
L 927.695128 400.901312 
L 930.948752 400.901312 
L 934.202377 400.901312 
L 937.456001 400.901312 
L 940.709625 400.901312 
L 943.96325 400.901312 
L 947.216874 400.901312 
L 950.470498 400.901312 
L 953.724123 400.901312 
L 956.977747 400.901312 
L 960.231371 400.901312 
L 963.484996 400.901312 
L 966.73862 400.901312 
L 969.992245 400.901312 
L 973.245869 400.901312 
L 976.499493 400.901312 
L 979.753118 400.901312 
L 983.006742 400.901312 
L 986.260366 400.901312 
L 989.513991 400.901312 
L 992.767615 400.901312 
L 996.021239 400.901312 
L 999.274864 400.901312 
L 1002.528488 400.901312 
L 1005.782113 400.901312 
L 1009.035737 400.901312 
L 1012.289361 400.901312 
L 1015.542986 400.901312 
L 1018.79661 400.901312 
L 1022.050234 400.901312 
L 1025.303859 400.901312 
L 1028.557483 400.901312 
L 1031.811107 400.901312 
L 1035.064732 400.901312 
L 1038.318356 400.901312 
L 1041.571981 400.901312 
L 1044.825605 400.901312 
L 1048.079229 400.901312 
L 1051.332854 400.901312 
L 1054.586478 400.901312 
L 1057.840102 400.901312 
L 1061.093727 400.901312 
L 1064.347351 400.901312 
L 1067.600975 400.901312 
L 1070.8546 400.901312 
L 1074.108224 400.901312 
L 1077.361848 400.901312 
L 1080.615473 400.901312 
L 1083.869097 400.901312 
L 1087.122722 400.901312 
L 1090.376346 400.901312 
L 1093.62997 400.901312 
L 1096.883595 400.901312 
L 1100.137219 400.901312 
L 1103.390843 400.901312 
L 1106.644468 400.901312 
L 1109.898092 400.901312 
L 1109.898092 278.818963 
L 1109.898092 278.818963 
L 1106.644468 273.534703 
L 1103.390843 269.094686 
L 1100.137219 265.45865 
L 1096.883595 262.586332 
L 1093.62997 260.437469 
L 1090.376346 258.971797 
L 1087.122722 258.149054 
L 1083.869097 257.928976 
L 1080.615473 258.271301 
L 1077.361848 259.135766 
L 1074.108224 260.482107 
L 1070.8546 262.270061 
L 1067.600975 264.459367 
L 1064.347351 267.00976 
L 1061.093727 269.880977 
L 1057.840102 273.032756 
L 1054.586478 276.424833 
L 1051.332854 280.016946 
L 1048.079229 283.768831 
L 1044.825605 287.640226 
L 1041.571981 291.590867 
L 1038.318356 295.580492 
L 1035.064732 299.568837 
L 1031.811107 303.515639 
L 1028.557483 307.380636 
L 1025.303859 311.123565 
L 1022.050234 314.704161 
L 1018.79661 318.082163 
L 1015.542986 321.217308 
L 1012.289361 324.069331 
L 1009.035737 326.597971 
L 1005.782113 328.762965 
L 1002.528488 330.524048 
L 999.274864 331.847597 
L 996.021239 332.752696 
L 992.767615 333.283569 
L 989.513991 333.484593 
L 986.260366 333.400146 
L 983.006742 333.074606 
L 979.753118 332.552351 
L 976.499493 331.877758 
L 973.245869 331.095205 
L 969.992245 330.24907 
L 966.73862 329.383731 
L 963.484996 328.543565 
L 960.231371 327.772949 
L 956.977747 327.116263 
L 953.724123 326.617882 
L 950.470498 326.322186 
L 947.216874 326.273479 
L 943.96325 326.491178 
L 940.709625 326.933701 
L 937.456001 327.550288 
L 934.202377 328.290178 
L 930.948752 329.102613 
L 927.695128 329.936831 
L 924.441503 330.742073 
L 921.187879 331.467579 
L 917.934255 332.06259 
L 914.68063 332.476346 
L 911.427006 332.658085 
L 908.173382 332.55705 
L 904.919757 332.122479 
L 901.666133 331.303614 
L 898.412509 330.049693 
L 895.158884 328.309958 
L 891.90526 326.037184 
L 888.651635 323.247614 
L 885.398011 320.01239 
L 882.144387 316.404464 
L 878.890762 312.496788 
L 875.637138 308.362315 
L 872.383514 304.073995 
L 869.129889 299.704781 
L 865.876265 295.327625 
L 862.622641 291.015478 
L 859.369016 286.841293 
L 856.115392 282.878022 
L 852.861768 279.198616 
L 849.608143 275.876027 
L 846.354519 272.983208 
L 843.100894 270.59311 
L 839.84727 268.778685 
L 836.593646 267.595081 
L 833.340021 267.013283 
L 830.086397 266.979437 
L 826.832773 267.439682 
L 823.579148 268.340159 
L 820.325524 269.627008 
L 817.0719 271.24637 
L 813.818275 273.144385 
L 810.564651 275.267194 
L 807.311026 277.560937 
L 804.057402 279.971754 
L 800.803778 282.445786 
L 797.550153 284.929173 
L 794.296529 287.368056 
L 791.042905 289.708576 
L 787.78928 291.896871 
L 784.535656 293.879447 
L 781.282032 295.624581 
L 778.028407 297.1343 
L 774.774783 298.413537 
L 771.521158 299.467224 
L 768.267534 300.300291 
L 765.01391 300.917671 
L 761.760285 301.324295 
L 758.506661 301.525095 
L 755.253037 301.525002 
L 751.999412 301.328947 
L 748.745788 300.941864 
L 745.492164 300.368682 
L 742.238539 299.614334 
L 738.984915 298.683752 
L 735.73129 297.581866 
L 732.477666 296.313609 
L 729.224042 294.885838 
L 725.970417 293.323824 
L 722.716793 291.663068 
L 719.463169 289.939177 
L 716.209544 288.187761 
L 712.95592 286.44443 
L 709.702296 284.744792 
L 706.448671 283.124457 
L 703.195047 281.619034 
L 699.941423 280.264132 
L 696.687798 279.095359 
L 693.434174 278.148326 
L 690.180549 277.458642 
L 686.926925 277.061915 
L 683.673301 276.993754 
L 680.419676 277.28977 
L 677.166052 277.985548 
L 673.912428 279.094926 
L 670.658803 280.569173 
L 667.405179 282.348378 
L 664.151555 284.372629 
L 660.89793 286.582014 
L 657.644306 288.916621 
L 654.390681 291.31654 
L 651.137057 293.721858 
L 647.883433 296.072664 
L 644.629808 298.309046 
L 641.376184 300.371092 
L 638.12256 302.198892 
L 634.868935 303.732533 
L 631.615311 304.912103 
L 628.361687 305.677692 
L 625.108062 305.969387 
L 621.854438 305.729669 
L 618.600813 304.956021 
L 615.347189 303.700931 
L 612.093565 302.019278 
L 608.83994 299.965943 
L 605.586316 297.595804 
L 602.332692 294.963741 
L 599.079067 292.124633 
L 595.825443 289.133359 
L 592.571819 286.0448 
L 589.318194 282.913834 
L 586.06457 279.795341 
L 582.810945 276.7442 
L 579.557321 273.815291 
L 576.303697 271.063493 
L 573.050072 268.543685 
L 569.796448 266.310747 
L 566.542824 264.411712 
L 563.289199 262.849703 
L 560.035575 261.612579 
L 556.781951 260.688186 
L 553.528326 260.064366 
L 550.274702 259.728964 
L 547.021077 259.669824 
L 543.767453 259.87479 
L 540.513829 260.331706 
L 537.260204 261.028416 
L 534.00658 261.952764 
L 530.752956 263.092593 
L 527.499331 264.43575 
L 524.245707 265.970076 
L 520.992083 267.683416 
L 517.738458 269.563615 
L 514.484834 271.59845 
L 511.23121 273.769583 
L 507.977585 276.04766 
L 504.723961 278.402176 
L 501.470336 280.802626 
L 498.216712 283.218504 
L 494.963088 285.619307 
L 491.709463 287.974527 
L 488.455839 290.253661 
L 485.202215 292.426204 
L 481.94859 294.461649 
L 478.694966 296.329493 
L 475.441342 297.999229 
L 472.187717 299.440353 
L 468.934093 300.622359 
L 465.680468 301.514743 
L 462.426844 302.086999 
L 459.17322 302.312117 
L 455.919595 302.203722 
L 452.665971 301.801653 
L 449.412347 301.146186 
L 446.158722 300.277598 
L 442.905098 299.236165 
L 439.651474 298.062162 
L 436.397849 296.795868 
L 433.144225 295.477557 
L 429.8906 294.147506 
L 426.636976 292.845992 
L 423.383352 291.61329 
L 420.129727 290.489678 
L 416.876103 289.515431 
L 413.622479 288.730826 
L 410.368854 288.176138 
L 407.11523 287.891643 
L 403.861606 287.903384 
L 400.607981 288.189197 
L 397.354357 288.716718 
L 394.100732 289.453584 
L 390.847108 290.367431 
L 387.593484 291.425896 
L 384.339859 292.596616 
L 381.086235 293.847226 
L 377.832611 295.145364 
L 374.578986 296.458666 
L 371.325362 297.754769 
L 368.071738 299.001309 
L 364.818113 300.165923 
L 361.564489 301.216247 
L 358.310865 302.119917 
L 355.05724 302.844572 
L 351.803616 303.358606 
L 348.549991 303.653483 
L 345.296367 303.747331 
L 342.042743 303.659762 
L 338.789118 303.410389 
L 335.535494 303.018826 
L 332.28187 302.504686 
L 329.028245 301.887582 
L 325.774621 301.187127 
L 322.520997 300.422934 
L 319.267372 299.614616 
L 316.013748 298.781787 
L 312.760123 297.944058 
L 309.506499 297.121045 
L 306.252875 296.332359 
L 302.99925 295.597614 
L 299.745626 294.936423 
L 296.492002 294.365589 
L 293.238377 293.883229 
L 289.984753 293.479839 
L 286.731129 293.145894 
L 283.477504 292.871867 
L 280.22388 292.64823 
L 276.970255 292.465458 
L 273.716631 292.314024 
L 270.463007 292.184402 
L 267.209382 292.067065 
L 263.955758 291.952487 
L 260.702134 291.83114 
L 257.448509 291.693499 
L 254.194885 291.530037 
L 250.941261 291.331228 
L 247.687636 291.087544 
L 244.434012 290.789492 
L 241.180387 290.432752 
L 237.926763 290.023853 
L 234.673139 289.570694 
L 231.419514 289.081172 
L 228.16589 288.563183 
L 224.912266 288.024625 
L 221.658641 287.473396 
L 218.405017 286.917392 
L 215.151393 286.36451 
L 211.897768 285.822649 
L 208.644144 285.299704 
L 205.390519 284.803574 
L 202.136895 284.342156 
L 198.883271 283.923346 
L 195.629646 283.555042 
L 192.376022 283.245141 
L 189.122398 283.001541 
L 185.868773 282.832138 
L 182.615149 282.74483 
L 179.361525 282.747514 
L 176.1079 282.848087 
L 172.854276 283.054446 
L 169.600652 283.37449 
L 166.347027 283.816114 
L 163.093403 284.387216 
L 159.839778 285.095694 
L 156.586154 285.949444 
L 153.33253 286.956363 
L 150.078905 288.12435 
L 146.825281 289.461301 
L 143.571657 290.975113 
L 140.318032 292.673684 
L 137.064408 294.56491 
z
" clip-path="url(#p58e46bf582)" style="fill: #215f53"/>
   </g>
   <g id="FillBetweenPolyCollection_2">
    <path d="M 137.064408 166.176074 
L 137.064408 294.56491 
L 140.318032 292.673684 
L 143.571657 290.975113 
L 146.825281 289.461301 
L 150.078905 288.12435 
L 153.33253 286.956363 
L 156.586154 285.949444 
L 159.839778 285.095694 
L 163.093403 284.387216 
L 166.347027 283.816114 
L 169.600652 283.37449 
L 172.854276 283.054446 
L 176.1079 282.848087 
L 179.361525 282.747514 
L 182.615149 282.74483 
L 185.868773 282.832138 
L 189.122398 283.001541 
L 192.376022 283.245141 
L 195.629646 283.555042 
L 198.883271 283.923346 
L 202.136895 284.342156 
L 205.390519 284.803574 
L 208.644144 285.299704 
L 211.897768 285.822649 
L 215.151393 286.36451 
L 218.405017 286.917392 
L 221.658641 287.473396 
L 224.912266 288.024625 
L 228.16589 288.563183 
L 231.419514 289.081172 
L 234.673139 289.570694 
L 237.926763 290.023853 
L 241.180387 290.432752 
L 244.434012 290.789492 
L 247.687636 291.087544 
L 250.941261 291.331228 
L 254.194885 291.530037 
L 257.448509 291.693499 
L 260.702134 291.83114 
L 263.955758 291.952487 
L 267.209382 292.067065 
L 270.463007 292.184402 
L 273.716631 292.314024 
L 276.970255 292.465458 
L 280.22388 292.64823 
L 283.477504 292.871867 
L 286.731129 293.145894 
L 289.984753 293.479839 
L 293.238377 293.883229 
L 296.492002 294.365589 
L 299.745626 294.936423 
L 302.99925 295.597614 
L 306.252875 296.332359 
L 309.506499 297.121045 
L 312.760123 297.944058 
L 316.013748 298.781787 
L 319.267372 299.614616 
L 322.520997 300.422934 
L 325.774621 301.187127 
L 329.028245 301.887582 
L 332.28187 302.504686 
L 335.535494 303.018826 
L 338.789118 303.410389 
L 342.042743 303.659762 
L 345.296367 303.747331 
L 348.549991 303.653483 
L 351.803616 303.358606 
L 355.05724 302.844572 
L 358.310865 302.119917 
L 361.564489 301.216247 
L 364.818113 300.165923 
L 368.071738 299.001309 
L 371.325362 297.754769 
L 374.578986 296.458666 
L 377.832611 295.145364 
L 381.086235 293.847226 
L 384.339859 292.596616 
L 387.593484 291.425896 
L 390.847108 290.367431 
L 394.100732 289.453584 
L 397.354357 288.716718 
L 400.607981 288.189197 
L 403.861606 287.903384 
L 407.11523 287.891643 
L 410.368854 288.176138 
L 413.622479 288.730826 
L 416.876103 289.515431 
L 420.129727 290.489678 
L 423.383352 291.61329 
L 426.636976 292.845992 
L 429.8906 294.147506 
L 433.144225 295.477557 
L 436.397849 296.795868 
L 439.651474 298.062162 
L 442.905098 299.236165 
L 446.158722 300.277598 
L 449.412347 301.146186 
L 452.665971 301.801653 
L 455.919595 302.203722 
L 459.17322 302.312117 
L 462.426844 302.086999 
L 465.680468 301.514743 
L 468.934093 300.622359 
L 472.187717 299.440353 
L 475.441342 297.999229 
L 478.694966 296.329493 
L 481.94859 294.461649 
L 485.202215 292.426204 
L 488.455839 290.253661 
L 491.709463 287.974527 
L 494.963088 285.619307 
L 498.216712 283.218504 
L 501.470336 280.802626 
L 504.723961 278.402176 
L 507.977585 276.04766 
L 511.23121 273.769583 
L 514.484834 271.59845 
L 517.738458 269.563615 
L 520.992083 267.683416 
L 524.245707 265.970076 
L 527.499331 264.43575 
L 530.752956 263.092593 
L 534.00658 261.952764 
L 537.260204 261.028416 
L 540.513829 260.331706 
L 543.767453 259.87479 
L 547.021077 259.669824 
L 550.274702 259.728964 
L 553.528326 260.064366 
L 556.781951 260.688186 
L 560.035575 261.612579 
L 563.289199 262.849703 
L 566.542824 264.411712 
L 569.796448 266.310747 
L 573.050072 268.543685 
L 576.303697 271.063493 
L 579.557321 273.815291 
L 582.810945 276.7442 
L 586.06457 279.795341 
L 589.318194 282.913834 
L 592.571819 286.0448 
L 595.825443 289.133359 
L 599.079067 292.124633 
L 602.332692 294.963741 
L 605.586316 297.595804 
L 608.83994 299.965943 
L 612.093565 302.019278 
L 615.347189 303.700931 
L 618.600813 304.956021 
L 621.854438 305.729669 
L 625.108062 305.969387 
L 628.361687 305.677692 
L 631.615311 304.912103 
L 634.868935 303.732533 
L 638.12256 302.198892 
L 641.376184 300.371092 
L 644.629808 298.309046 
L 647.883433 296.072664 
L 651.137057 293.721858 
L 654.390681 291.31654 
L 657.644306 288.916621 
L 660.89793 286.582014 
L 664.151555 284.372629 
L 667.405179 282.348378 
L 670.658803 280.569173 
L 673.912428 279.094926 
L 677.166052 277.985548 
L 680.419676 277.28977 
L 683.673301 276.993754 
L 686.926925 277.061915 
L 690.180549 277.458642 
L 693.434174 278.148326 
L 696.687798 279.095359 
L 699.941423 280.264132 
L 703.195047 281.619034 
L 706.448671 283.124457 
L 709.702296 284.744792 
L 712.95592 286.44443 
L 716.209544 288.187761 
L 719.463169 289.939177 
L 722.716793 291.663068 
L 725.970417 293.323824 
L 729.224042 294.885838 
L 732.477666 296.313609 
L 735.73129 297.581866 
L 738.984915 298.683752 
L 742.238539 299.614334 
L 745.492164 300.368682 
L 748.745788 300.941864 
L 751.999412 301.328947 
L 755.253037 301.525002 
L 758.506661 301.525095 
L 761.760285 301.324295 
L 765.01391 300.917671 
L 768.267534 300.300291 
L 771.521158 299.467224 
L 774.774783 298.413537 
L 778.028407 297.1343 
L 781.282032 295.624581 
L 784.535656 293.879447 
L 787.78928 291.896871 
L 791.042905 289.708576 
L 794.296529 287.368056 
L 797.550153 284.929173 
L 800.803778 282.445786 
L 804.057402 279.971754 
L 807.311026 277.560937 
L 810.564651 275.267194 
L 813.818275 273.144385 
L 817.0719 271.24637 
L 820.325524 269.627008 
L 823.579148 268.340159 
L 826.832773 267.439682 
L 830.086397 266.979437 
L 833.340021 267.013283 
L 836.593646 267.595081 
L 839.84727 268.778685 
L 843.100894 270.59311 
L 846.354519 272.983208 
L 849.608143 275.876027 
L 852.861768 279.198616 
L 856.115392 282.878022 
L 859.369016 286.841293 
L 862.622641 291.015478 
L 865.876265 295.327625 
L 869.129889 299.704781 
L 872.383514 304.073995 
L 875.637138 308.362315 
L 878.890762 312.496788 
L 882.144387 316.404464 
L 885.398011 320.01239 
L 888.651635 323.247614 
L 891.90526 326.037184 
L 895.158884 328.309958 
L 898.412509 330.049693 
L 901.666133 331.303614 
L 904.919757 332.122479 
L 908.173382 332.55705 
L 911.427006 332.658085 
L 914.68063 332.476346 
L 917.934255 332.06259 
L 921.187879 331.467579 
L 924.441503 330.742073 
L 927.695128 329.936831 
L 930.948752 329.102613 
L 934.202377 328.290178 
L 937.456001 327.550288 
L 940.709625 326.933701 
L 943.96325 326.491178 
L 947.216874 326.273479 
L 950.470498 326.322186 
L 953.724123 326.617882 
L 956.977747 327.116263 
L 960.231371 327.772949 
L 963.484996 328.543565 
L 966.73862 329.383731 
L 969.992245 330.24907 
L 973.245869 331.095205 
L 976.499493 331.877758 
L 979.753118 332.552351 
L 983.006742 333.074606 
L 986.260366 333.400146 
L 989.513991 333.484593 
L 992.767615 333.283569 
L 996.021239 332.752696 
L 999.274864 331.847597 
L 1002.528488 330.524048 
L 1005.782113 328.762965 
L 1009.035737 326.597971 
L 1012.289361 324.069331 
L 1015.542986 321.217308 
L 1018.79661 318.082163 
L 1022.050234 314.704161 
L 1025.303859 311.123565 
L 1028.557483 307.380636 
L 1031.811107 303.515639 
L 1035.064732 299.568837 
L 1038.318356 295.580492 
L 1041.571981 291.590867 
L 1044.825605 287.640226 
L 1048.079229 283.768831 
L 1051.332854 280.016946 
L 1054.586478 276.424833 
L 1057.840102 273.032756 
L 1061.093727 269.880977 
L 1064.347351 267.00976 
L 1067.600975 264.459367 
L 1070.8546 262.270061 
L 1074.108224 260.482107 
L 1077.361848 259.135766 
L 1080.615473 258.271301 
L 1083.869097 257.928976 
L 1087.122722 258.149054 
L 1090.376346 258.971797 
L 1093.62997 260.437469 
L 1096.883595 262.586332 
L 1100.137219 265.45865 
L 1103.390843 269.094686 
L 1106.644468 273.534703 
L 1109.898092 278.818963 
L 1109.898092 167.805634 
L 1109.898092 167.805634 
L 1106.644468 164.542899 
L 1103.390843 161.752881 
L 1100.137219 159.41895 
L 1096.883595 157.524476 
L 1093.62997 156.052829 
L 1090.376346 154.987381 
L 1087.122722 154.311501 
L 1083.869097 154.008561 
L 1080.615473 154.06193 
L 1077.361848 154.454979 
L 1074.108224 155.171079 
L 1070.8546 156.1936 
L 1067.600975 157.505912 
L 1064.347351 159.091387 
L 1061.093727 160.933394 
L 1057.840102 163.015304 
L 1054.586478 165.320488 
L 1051.332854 167.832316 
L 1048.079229 170.534158 
L 1044.825605 173.409385 
L 1041.571981 176.441368 
L 1038.318356 179.613477 
L 1035.064732 182.909082 
L 1031.811107 186.311554 
L 1028.557483 189.804264 
L 1025.303859 193.370581 
L 1022.050234 196.993877 
L 1018.79661 200.657522 
L 1015.542986 204.344887 
L 1012.289361 208.039341 
L 1009.035737 211.724255 
L 1005.782113 215.383001 
L 1002.528488 218.998947 
L 999.274864 222.555316 
L 996.021239 226.03414 
L 992.767615 229.416883 
L 989.513991 232.685008 
L 986.260366 235.819977 
L 983.006742 238.803252 
L 979.753118 241.616295 
L 976.499493 244.240568 
L 973.245869 246.657533 
L 969.992245 248.848651 
L 966.73862 250.795385 
L 963.484996 252.479197 
L 960.231371 253.881549 
L 956.977747 254.983902 
L 953.724123 255.767719 
L 950.470498 256.214462 
L 947.216874 256.305622 
L 943.96325 256.032701 
L 940.709625 255.411738 
L 937.456001 254.462463 
L 934.202377 253.204606 
L 930.948752 251.657898 
L 927.695128 249.84207 
L 924.441503 247.77685 
L 921.187879 245.48197 
L 917.934255 242.977159 
L 914.68063 240.282148 
L 911.427006 237.416668 
L 908.173382 234.400448 
L 904.919757 231.253218 
L 901.666133 227.994709 
L 898.412509 224.644652 
L 895.158884 221.222776 
L 891.90526 217.748722 
L 888.651635 214.240536 
L 885.398011 210.714881 
L 882.144387 207.188375 
L 878.890762 203.677637 
L 875.637138 200.199284 
L 872.383514 196.769935 
L 869.129889 193.406208 
L 865.876265 190.124721 
L 862.622641 186.942092 
L 859.369016 183.874939 
L 856.115392 180.939882 
L 852.861768 178.153536 
L 849.608143 175.532522 
L 846.354519 173.093457 
L 843.100894 170.852959 
L 839.84727 168.827647 
L 836.593646 167.0322 
L 833.340021 165.472139 
L 830.086397 164.15028 
L 826.832773 163.069437 
L 823.579148 162.232427 
L 820.325524 161.642066 
L 817.0719 161.301168 
L 813.818275 161.212549 
L 810.564651 161.379025 
L 807.311026 161.803412 
L 804.057402 162.488524 
L 800.803778 163.437178 
L 797.550153 164.65219 
L 794.296529 166.136374 
L 791.042905 167.892546 
L 787.78928 169.923522 
L 784.535656 172.231776 
L 781.282032 174.799349 
L 778.028407 177.576603 
L 774.774783 180.511177 
L 771.521158 183.550711 
L 768.267534 186.642843 
L 765.01391 189.735212 
L 761.760285 192.775458 
L 758.506661 195.711218 
L 755.253037 198.490132 
L 751.999412 201.059839 
L 748.745788 203.367977 
L 745.492164 205.362186 
L 742.238539 206.990105 
L 738.984915 208.199372 
L 735.73129 208.937626 
L 732.477666 209.152506 
L 729.224042 208.799611 
L 725.970417 207.910631 
L 722.716793 206.559525 
L 719.463169 204.820705 
L 716.209544 202.768583 
L 712.95592 200.477571 
L 709.702296 198.022081 
L 706.448671 195.476524 
L 703.195047 192.915314 
L 699.941423 190.41286 
L 696.687798 188.043577 
L 693.434174 185.881874 
L 690.180549 184.002165 
L 686.926925 182.478861 
L 683.673301 181.386375 
L 680.419676 180.799117 
L 677.166052 180.791462 
L 673.912428 181.39928 
L 670.658803 182.547689 
L 667.405179 184.142014 
L 664.151555 186.087581 
L 660.89793 188.289715 
L 657.644306 190.653742 
L 654.390681 193.084988 
L 651.137057 195.488777 
L 647.883433 197.770435 
L 644.629808 199.835288 
L 641.376184 201.588661 
L 638.12256 202.93588 
L 634.868935 203.782269 
L 631.615311 204.033155 
L 628.361687 203.593863 
L 625.108062 202.369718 
L 621.854438 200.270579 
L 618.600813 197.31056 
L 615.347189 193.608032 
L 612.093565 189.285897 
L 608.83994 184.46706 
L 605.586316 179.274424 
L 602.332692 173.830891 
L 599.079067 168.259366 
L 595.825443 162.682752 
L 592.571819 157.223952 
L 589.318194 152.005869 
L 586.06457 147.151407 
L 582.810945 142.78347 
L 579.557321 139.02496 
L 576.303697 135.998781 
L 573.050072 133.827836 
L 569.796448 132.635029 
L 566.542824 132.515871 
L 563.289199 133.4126 
L 560.035575 135.214165 
L 556.781951 137.809465 
L 553.528326 141.087398 
L 550.274702 144.936861 
L 547.021077 149.246752 
L 543.767453 153.905969 
L 540.513829 158.80341 
L 537.260204 163.827971 
L 534.00658 168.868552 
L 530.752956 173.814049 
L 527.499331 178.553361 
L 524.245707 182.975384 
L 520.992083 186.969018 
L 517.738458 190.423159 
L 514.484834 193.227354 
L 511.23121 195.33173 
L 507.977585 196.79547 
L 504.723961 197.689163 
L 501.470336 198.083399 
L 498.216712 198.048768 
L 494.963088 197.655862 
L 491.709463 196.975269 
L 488.455839 196.07758 
L 485.202215 195.033384 
L 481.94859 193.913273 
L 478.694966 192.787836 
L 475.441342 191.727664 
L 472.187717 190.803345 
L 468.934093 190.085471 
L 465.680468 189.644632 
L 462.426844 189.551417 
L 459.17322 189.870117 
L 455.919595 190.591774 
L 452.665971 191.660176 
L 449.412347 193.018325 
L 446.158722 194.609221 
L 442.905098 196.375864 
L 439.651474 198.261254 
L 436.397849 200.208393 
L 433.144225 202.160281 
L 429.8906 204.059918 
L 426.636976 205.850305 
L 423.383352 207.474443 
L 420.129727 208.875331 
L 416.876103 209.995971 
L 413.622479 210.779362 
L 410.368854 211.168507 
L 407.11523 211.106407 
L 403.861606 210.558543 
L 400.607981 209.566537 
L 397.354357 208.188117 
L 394.100732 206.481014 
L 390.847108 204.502957 
L 387.593484 202.311676 
L 384.339859 199.9649 
L 381.086235 197.520361 
L 377.832611 195.035786 
L 374.578986 192.568906 
L 371.325362 190.177451 
L 368.071738 187.919151 
L 364.818113 185.851734 
L 361.564489 184.032932 
L 358.310865 182.520473 
L 355.05724 181.372087 
L 351.803616 180.643944 
L 348.549991 180.344902 
L 345.296367 180.429122 
L 342.042743 180.847717 
L 338.789118 181.551801 
L 335.535494 182.492488 
L 332.28187 183.62089 
L 329.028245 184.888123 
L 325.774621 186.2453 
L 322.520997 187.643534 
L 319.267372 189.033939 
L 316.013748 190.367629 
L 312.760123 191.595718 
L 309.506499 192.669319 
L 306.252875 193.539545 
L 302.99925 194.157511 
L 299.745626 194.474331 
L 296.492002 194.448452 
L 293.238377 194.087085 
L 289.984753 193.41733 
L 286.731129 192.466348 
L 283.477504 191.261299 
L 280.22388 189.829342 
L 276.970255 188.197638 
L 273.716631 186.393347 
L 270.463007 184.443628 
L 267.209382 182.375642 
L 263.955758 180.216549 
L 260.702134 177.993509 
L 257.448509 175.733681 
L 254.194885 173.464226 
L 250.941261 171.212304 
L 247.687636 169.005075 
L 244.434012 166.869654 
L 241.180387 164.825951 
L 237.926763 162.878762 
L 234.673139 161.030981 
L 231.419514 159.285502 
L 228.16589 157.64522 
L 224.912266 156.113026 
L 221.658641 154.691817 
L 218.405017 153.384485 
L 215.151393 152.193925 
L 211.897768 151.123031 
L 208.644144 150.174695 
L 205.390519 149.351813 
L 202.136895 148.657278 
L 198.883271 148.093984 
L 195.629646 147.664825 
L 192.376022 147.372695 
L 189.122398 147.220487 
L 185.868773 147.211096 
L 182.615149 147.347416 
L 179.361525 147.63234 
L 176.1079 148.068762 
L 172.854276 148.659576 
L 169.600652 149.407677 
L 166.347027 150.315957 
L 163.093403 151.387312 
L 159.839778 152.624634 
L 156.586154 154.030817 
L 153.33253 155.608757 
L 150.078905 157.361346 
L 146.825281 159.291478 
L 143.571657 161.402047 
L 140.318032 163.695948 
L 137.064408 166.176074 
z
" clip-path="url(#p58e46bf582)" style="fill: #7570b3"/>
   </g>
   <g id="FillBetweenPolyCollection_3">
    <path d="M 137.064408 57.617883 
L 137.064408 166.176074 
L 140.318032 163.695948 
L 143.571657 161.402047 
L 146.825281 159.291478 
L 150.078905 157.361346 
L 153.33253 155.608757 
L 156.586154 154.030817 
L 159.839778 152.624634 
L 163.093403 151.387312 
L 166.347027 150.315957 
L 169.600652 149.407677 
L 172.854276 148.659576 
L 176.1079 148.068762 
L 179.361525 147.63234 
L 182.615149 147.347416 
L 185.868773 147.211096 
L 189.122398 147.220487 
L 192.376022 147.372695 
L 195.629646 147.664825 
L 198.883271 148.093984 
L 202.136895 148.657278 
L 205.390519 149.351813 
L 208.644144 150.174695 
L 211.897768 151.123031 
L 215.151393 152.193925 
L 218.405017 153.384485 
L 221.658641 154.691817 
L 224.912266 156.113026 
L 228.16589 157.64522 
L 231.419514 159.285502 
L 234.673139 161.030981 
L 237.926763 162.878762 
L 241.180387 164.825951 
L 244.434012 166.869654 
L 247.687636 169.005075 
L 250.941261 171.212304 
L 254.194885 173.464226 
L 257.448509 175.733681 
L 260.702134 177.993509 
L 263.955758 180.216549 
L 267.209382 182.375642 
L 270.463007 184.443628 
L 273.716631 186.393347 
L 276.970255 188.197638 
L 280.22388 189.829342 
L 283.477504 191.261299 
L 286.731129 192.466348 
L 289.984753 193.41733 
L 293.238377 194.087085 
L 296.492002 194.448452 
L 299.745626 194.474331 
L 302.99925 194.157511 
L 306.252875 193.539545 
L 309.506499 192.669319 
L 312.760123 191.595718 
L 316.013748 190.367629 
L 319.267372 189.033939 
L 322.520997 187.643534 
L 325.774621 186.2453 
L 329.028245 184.888123 
L 332.28187 183.62089 
L 335.535494 182.492488 
L 338.789118 181.551801 
L 342.042743 180.847717 
L 345.296367 180.429122 
L 348.549991 180.344902 
L 351.803616 180.643944 
L 355.05724 181.372087 
L 358.310865 182.520473 
L 361.564489 184.032932 
L 364.818113 185.851734 
L 368.071738 187.919151 
L 371.325362 190.177451 
L 374.578986 192.568906 
L 377.832611 195.035786 
L 381.086235 197.520361 
L 384.339859 199.9649 
L 387.593484 202.311676 
L 390.847108 204.502957 
L 394.100732 206.481014 
L 397.354357 208.188117 
L 400.607981 209.566537 
L 403.861606 210.558543 
L 407.11523 211.106407 
L 410.368854 211.168507 
L 413.622479 210.779362 
L 416.876103 209.995971 
L 420.129727 208.875331 
L 423.383352 207.474443 
L 426.636976 205.850305 
L 429.8906 204.059918 
L 433.144225 202.160281 
L 436.397849 200.208393 
L 439.651474 198.261254 
L 442.905098 196.375864 
L 446.158722 194.609221 
L 449.412347 193.018325 
L 452.665971 191.660176 
L 455.919595 190.591774 
L 459.17322 189.870117 
L 462.426844 189.551417 
L 465.680468 189.644632 
L 468.934093 190.085471 
L 472.187717 190.803345 
L 475.441342 191.727664 
L 478.694966 192.787836 
L 481.94859 193.913273 
L 485.202215 195.033384 
L 488.455839 196.07758 
L 491.709463 196.975269 
L 494.963088 197.655862 
L 498.216712 198.048768 
L 501.470336 198.083399 
L 504.723961 197.689163 
L 507.977585 196.79547 
L 511.23121 195.33173 
L 514.484834 193.227354 
L 517.738458 190.423159 
L 520.992083 186.969018 
L 524.245707 182.975384 
L 527.499331 178.553361 
L 530.752956 173.814049 
L 534.00658 168.868552 
L 537.260204 163.827971 
L 540.513829 158.80341 
L 543.767453 153.905969 
L 547.021077 149.246752 
L 550.274702 144.936861 
L 553.528326 141.087398 
L 556.781951 137.809465 
L 560.035575 135.214165 
L 563.289199 133.4126 
L 566.542824 132.515871 
L 569.796448 132.635029 
L 573.050072 133.827836 
L 576.303697 135.998781 
L 579.557321 139.02496 
L 582.810945 142.78347 
L 586.06457 147.151407 
L 589.318194 152.005869 
L 592.571819 157.223952 
L 595.825443 162.682752 
L 599.079067 168.259366 
L 602.332692 173.830891 
L 605.586316 179.274424 
L 608.83994 184.46706 
L 612.093565 189.285897 
L 615.347189 193.608032 
L 618.600813 197.31056 
L 621.854438 200.270579 
L 625.108062 202.369718 
L 628.361687 203.593863 
L 631.615311 204.033155 
L 634.868935 203.782269 
L 638.12256 202.93588 
L 641.376184 201.588661 
L 644.629808 199.835288 
L 647.883433 197.770435 
L 651.137057 195.488777 
L 654.390681 193.084988 
L 657.644306 190.653742 
L 660.89793 188.289715 
L 664.151555 186.087581 
L 667.405179 184.142014 
L 670.658803 182.547689 
L 673.912428 181.39928 
L 677.166052 180.791462 
L 680.419676 180.799117 
L 683.673301 181.386375 
L 686.926925 182.478861 
L 690.180549 184.002165 
L 693.434174 185.881874 
L 696.687798 188.043577 
L 699.941423 190.41286 
L 703.195047 192.915314 
L 706.448671 195.476524 
L 709.702296 198.022081 
L 712.95592 200.477571 
L 716.209544 202.768583 
L 719.463169 204.820705 
L 722.716793 206.559525 
L 725.970417 207.910631 
L 729.224042 208.799611 
L 732.477666 209.152506 
L 735.73129 208.937626 
L 738.984915 208.199372 
L 742.238539 206.990105 
L 745.492164 205.362186 
L 748.745788 203.367977 
L 751.999412 201.059839 
L 755.253037 198.490132 
L 758.506661 195.711218 
L 761.760285 192.775458 
L 765.01391 189.735212 
L 768.267534 186.642843 
L 771.521158 183.550711 
L 774.774783 180.511177 
L 778.028407 177.576603 
L 781.282032 174.799349 
L 784.535656 172.231776 
L 787.78928 169.923522 
L 791.042905 167.892546 
L 794.296529 166.136374 
L 797.550153 164.65219 
L 800.803778 163.437178 
L 804.057402 162.488524 
L 807.311026 161.803412 
L 810.564651 161.379025 
L 813.818275 161.212549 
L 817.0719 161.301168 
L 820.325524 161.642066 
L 823.579148 162.232427 
L 826.832773 163.069437 
L 830.086397 164.15028 
L 833.340021 165.472139 
L 836.593646 167.0322 
L 839.84727 168.827647 
L 843.100894 170.852959 
L 846.354519 173.093457 
L 849.608143 175.532522 
L 852.861768 178.153536 
L 856.115392 180.939882 
L 859.369016 183.874939 
L 862.622641 186.942092 
L 865.876265 190.124721 
L 869.129889 193.406208 
L 872.383514 196.769935 
L 875.637138 200.199284 
L 878.890762 203.677637 
L 882.144387 207.188375 
L 885.398011 210.714881 
L 888.651635 214.240536 
L 891.90526 217.748722 
L 895.158884 221.222776 
L 898.412509 224.644652 
L 901.666133 227.994709 
L 904.919757 231.253218 
L 908.173382 234.400448 
L 911.427006 237.416668 
L 914.68063 240.282148 
L 917.934255 242.977159 
L 921.187879 245.48197 
L 924.441503 247.77685 
L 927.695128 249.84207 
L 930.948752 251.657898 
L 934.202377 253.204606 
L 937.456001 254.462463 
L 940.709625 255.411738 
L 943.96325 256.032701 
L 947.216874 256.305622 
L 950.470498 256.214462 
L 953.724123 255.767719 
L 956.977747 254.983902 
L 960.231371 253.881549 
L 963.484996 252.479197 
L 966.73862 250.795385 
L 969.992245 248.848651 
L 973.245869 246.657533 
L 976.499493 244.240568 
L 979.753118 241.616295 
L 983.006742 238.803252 
L 986.260366 235.819977 
L 989.513991 232.685008 
L 992.767615 229.416883 
L 996.021239 226.03414 
L 999.274864 222.555316 
L 1002.528488 218.998947 
L 1005.782113 215.383001 
L 1009.035737 211.724255 
L 1012.289361 208.039341 
L 1015.542986 204.344887 
L 1018.79661 200.657522 
L 1022.050234 196.993877 
L 1025.303859 193.370581 
L 1028.557483 189.804264 
L 1031.811107 186.311554 
L 1035.064732 182.909082 
L 1038.318356 179.613477 
L 1041.571981 176.441368 
L 1044.825605 173.409385 
L 1048.079229 170.534158 
L 1051.332854 167.832316 
L 1054.586478 165.320488 
L 1057.840102 163.015304 
L 1061.093727 160.933394 
L 1064.347351 159.091387 
L 1067.600975 157.505912 
L 1070.8546 156.1936 
L 1074.108224 155.171079 
L 1077.361848 154.454979 
L 1080.615473 154.06193 
L 1083.869097 154.008561 
L 1087.122722 154.311501 
L 1090.376346 154.987381 
L 1093.62997 156.052829 
L 1096.883595 157.524476 
L 1100.137219 159.41895 
L 1103.390843 161.752881 
L 1106.644468 164.542899 
L 1109.898092 167.805634 
L 1109.898092 57.617883 
L 1109.898092 57.617883 
L 1106.644468 57.617883 
L 1103.390843 57.617883 
L 1100.137219 57.617883 
L 1096.883595 57.617883 
L 1093.62997 57.617883 
L 1090.376346 57.617883 
L 1087.122722 57.617883 
L 1083.869097 57.617883 
L 1080.615473 57.617883 
L 1077.361848 57.617883 
L 1074.108224 57.617883 
L 1070.8546 57.617883 
L 1067.600975 57.617883 
L 1064.347351 57.617883 
L 1061.093727 57.617883 
L 1057.840102 57.617883 
L 1054.586478 57.617883 
L 1051.332854 57.617883 
L 1048.079229 57.617883 
L 1044.825605 57.617883 
L 1041.571981 57.617883 
L 1038.318356 57.617883 
L 1035.064732 57.617883 
L 1031.811107 57.617883 
L 1028.557483 57.617883 
L 1025.303859 57.617883 
L 1022.050234 57.617883 
L 1018.79661 57.617883 
L 1015.542986 57.617883 
L 1012.289361 57.617883 
L 1009.035737 57.617883 
L 1005.782113 57.617883 
L 1002.528488 57.617883 
L 999.274864 57.617883 
L 996.021239 57.617883 
L 992.767615 57.617883 
L 989.513991 57.617883 
L 986.260366 57.617883 
L 983.006742 57.617883 
L 979.753118 57.617883 
L 976.499493 57.617883 
L 973.245869 57.617883 
L 969.992245 57.617883 
L 966.73862 57.617883 
L 963.484996 57.617883 
L 960.231371 57.617883 
L 956.977747 57.617883 
L 953.724123 57.617883 
L 950.470498 57.617883 
L 947.216874 57.617883 
L 943.96325 57.617883 
L 940.709625 57.617883 
L 937.456001 57.617883 
L 934.202377 57.617883 
L 930.948752 57.617883 
L 927.695128 57.617883 
L 924.441503 57.617883 
L 921.187879 57.617883 
L 917.934255 57.617883 
L 914.68063 57.617883 
L 911.427006 57.617883 
L 908.173382 57.617883 
L 904.919757 57.617883 
L 901.666133 57.617883 
L 898.412509 57.617883 
L 895.158884 57.617883 
L 891.90526 57.617883 
L 888.651635 57.617883 
L 885.398011 57.617883 
L 882.144387 57.617883 
L 878.890762 57.617883 
L 875.637138 57.617883 
L 872.383514 57.617883 
L 869.129889 57.617883 
L 865.876265 57.617883 
L 862.622641 57.617883 
L 859.369016 57.617883 
L 856.115392 57.617883 
L 852.861768 57.617883 
L 849.608143 57.617883 
L 846.354519 57.617883 
L 843.100894 57.617883 
L 839.84727 57.617883 
L 836.593646 57.617883 
L 833.340021 57.617883 
L 830.086397 57.617883 
L 826.832773 57.617883 
L 823.579148 57.617883 
L 820.325524 57.617883 
L 817.0719 57.617883 
L 813.818275 57.617883 
L 810.564651 57.617883 
L 807.311026 57.617883 
L 804.057402 57.617883 
L 800.803778 57.617883 
L 797.550153 57.617883 
L 794.296529 57.617883 
L 791.042905 57.617883 
L 787.78928 57.617883 
L 784.535656 57.617883 
L 781.282032 57.617883 
L 778.028407 57.617883 
L 774.774783 57.617883 
L 771.521158 57.617883 
L 768.267534 57.617883 
L 765.01391 57.617883 
L 761.760285 57.617883 
L 758.506661 57.617883 
L 755.253037 57.617883 
L 751.999412 57.617883 
L 748.745788 57.617883 
L 745.492164 57.617883 
L 742.238539 57.617883 
L 738.984915 57.617883 
L 735.73129 57.617883 
L 732.477666 57.617883 
L 729.224042 57.617883 
L 725.970417 57.617883 
L 722.716793 57.617883 
L 719.463169 57.617883 
L 716.209544 57.617883 
L 712.95592 57.617883 
L 709.702296 57.617883 
L 706.448671 57.617883 
L 703.195047 57.617883 
L 699.941423 57.617883 
L 696.687798 57.617883 
L 693.434174 57.617883 
L 690.180549 57.617883 
L 686.926925 57.617883 
L 683.673301 57.617883 
L 680.419676 57.617883 
L 677.166052 57.617883 
L 673.912428 57.617883 
L 670.658803 57.617883 
L 667.405179 57.617883 
L 664.151555 57.617883 
L 660.89793 57.617883 
L 657.644306 57.617883 
L 654.390681 57.617883 
L 651.137057 57.617883 
L 647.883433 57.617883 
L 644.629808 57.617883 
L 641.376184 57.617883 
L 638.12256 57.617883 
L 634.868935 57.617883 
L 631.615311 57.617883 
L 628.361687 57.617883 
L 625.108062 57.617883 
L 621.854438 57.617883 
L 618.600813 57.617883 
L 615.347189 57.617883 
L 612.093565 57.617883 
L 608.83994 57.617883 
L 605.586316 57.617883 
L 602.332692 57.617883 
L 599.079067 57.617883 
L 595.825443 57.617883 
L 592.571819 57.617883 
L 589.318194 57.617883 
L 586.06457 57.617883 
L 582.810945 57.617883 
L 579.557321 57.617883 
L 576.303697 57.617883 
L 573.050072 57.617883 
L 569.796448 57.617883 
L 566.542824 57.617883 
L 563.289199 57.617883 
L 560.035575 57.617883 
L 556.781951 57.617883 
L 553.528326 57.617883 
L 550.274702 57.617883 
L 547.021077 57.617883 
L 543.767453 57.617883 
L 540.513829 57.617883 
L 537.260204 57.617883 
L 534.00658 57.617883 
L 530.752956 57.617883 
L 527.499331 57.617883 
L 524.245707 57.617883 
L 520.992083 57.617883 
L 517.738458 57.617883 
L 514.484834 57.617883 
L 511.23121 57.617883 
L 507.977585 57.617883 
L 504.723961 57.617883 
L 501.470336 57.617883 
L 498.216712 57.617883 
L 494.963088 57.617883 
L 491.709463 57.617883 
L 488.455839 57.617883 
L 485.202215 57.617883 
L 481.94859 57.617883 
L 478.694966 57.617883 
L 475.441342 57.617883 
L 472.187717 57.617883 
L 468.934093 57.617883 
L 465.680468 57.617883 
L 462.426844 57.617883 
L 459.17322 57.617883 
L 455.919595 57.617883 
L 452.665971 57.617883 
L 449.412347 57.617883 
L 446.158722 57.617883 
L 442.905098 57.617883 
L 439.651474 57.617883 
L 436.397849 57.617883 
L 433.144225 57.617883 
L 429.8906 57.617883 
L 426.636976 57.617883 
L 423.383352 57.617883 
L 420.129727 57.617883 
L 416.876103 57.617883 
L 413.622479 57.617883 
L 410.368854 57.617883 
L 407.11523 57.617883 
L 403.861606 57.617883 
L 400.607981 57.617883 
L 397.354357 57.617883 
L 394.100732 57.617883 
L 390.847108 57.617883 
L 387.593484 57.617883 
L 384.339859 57.617883 
L 381.086235 57.617883 
L 377.832611 57.617883 
L 374.578986 57.617883 
L 371.325362 57.617883 
L 368.071738 57.617883 
L 364.818113 57.617883 
L 361.564489 57.617883 
L 358.310865 57.617883 
L 355.05724 57.617883 
L 351.803616 57.617883 
L 348.549991 57.617883 
L 345.296367 57.617883 
L 342.042743 57.617883 
L 338.789118 57.617883 
L 335.535494 57.617883 
L 332.28187 57.617883 
L 329.028245 57.617883 
L 325.774621 57.617883 
L 322.520997 57.617883 
L 319.267372 57.617883 
L 316.013748 57.617883 
L 312.760123 57.617883 
L 309.506499 57.617883 
L 306.252875 57.617883 
L 302.99925 57.617883 
L 299.745626 57.617883 
L 296.492002 57.617883 
L 293.238377 57.617883 
L 289.984753 57.617883 
L 286.731129 57.617883 
L 283.477504 57.617883 
L 280.22388 57.617883 
L 276.970255 57.617883 
L 273.716631 57.617883 
L 270.463007 57.617883 
L 267.209382 57.617883 
L 263.955758 57.617883 
L 260.702134 57.617883 
L 257.448509 57.617883 
L 254.194885 57.617883 
L 250.941261 57.617883 
L 247.687636 57.617883 
L 244.434012 57.617883 
L 241.180387 57.617883 
L 237.926763 57.617883 
L 234.673139 57.617883 
L 231.419514 57.617883 
L 228.16589 57.617883 
L 224.912266 57.617883 
L 221.658641 57.617883 
L 218.405017 57.617883 
L 215.151393 57.617883 
L 211.897768 57.617883 
L 208.644144 57.617883 
L 205.390519 57.617883 
L 202.136895 57.617883 
L 198.883271 57.617883 
L 195.629646 57.617883 
L 192.376022 57.617883 
L 189.122398 57.617883 
L 185.868773 57.617883 
L 182.615149 57.617883 
L 179.361525 57.617883 
L 176.1079 57.617883 
L 172.854276 57.617883 
L 169.600652 57.617883 
L 166.347027 57.617883 
L 163.093403 57.617883 
L 159.839778 57.617883 
L 156.586154 57.617883 
L 153.33253 57.617883 
L 150.078905 57.617883 
L 146.825281 57.617883 
L 143.571657 57.617883 
L 140.318032 57.617883 
L 137.064408 57.617883 
z
" clip-path="url(#p58e46bf582)" style="fill: #c7eae5"/>
   </g>
   <g id="matplotlib.axis_1">
    <g id="xtick_1">
     <g id="line2d_1">
      <path d="M 137.064408 400.901312 
L 137.064408 40.453712 
" clip-path="url(#p58e46bf582)" style="fill: none; stroke: #ffffff; stroke-opacity: 0.3; stroke-width: 0.75; stroke-linecap: square"/>
     </g>
     <g id="line2d_2">
      <defs>
       <path id="mf180cca592" d="M 0 0 
L 0 3.5 
" style="stroke: #000000; stroke-width: 0.8"/>
      </defs>
      <g>
       <use xlink:href="#mf180cca592" x="137.064408" y="400.901312" style="stroke: #000000; stroke-width: 0.8"/>
      </g>
     </g>
     <g id="text_1">
      <text style="font-weight: 600; font-size: 24px; font-family: 'DejaVu Sans', 'Bitstream Vera Sans', 'Computer Modern Sans Serif', 'Lucida Grande', 'Verdana', 'Geneva', 'Lucid', 'Arial', 'Helvetica', 'Avant Garde', sans-serif; fill: #767676" transform="translate(143.686908 551.380062) rotate(-90)">sept. 2006</text>
     </g>
    </g>
    <g id="xtick_2">
     <g id="line2d_3">
      <path d="M 191.110724 400.901312 
L 191.110724 40.453712 
" clip-path="url(#p58e46bf582)" style="fill: none; stroke: #ffffff; stroke-opacity: 0.3; stroke-width: 0.75; stroke-linecap: square"/>
     </g>
     <g id="line2d_4">
      <g>
       <use xlink:href="#mf180cca592" x="191.110724" y="400.901312" style="stroke: #000000; stroke-width: 0.8"/>
      </g>
     </g>
     <g id="text_2">
      <text style="font-weight: 600; font-size: 24px; font-family: 'DejaVu Sans', 'Bitstream Vera Sans', 'Computer Modern Sans Serif', 'Lucida Grande', 'Verdana', 'Geneva', 'Lucid', 'Arial', 'Helvetica', 'Avant Garde', sans-serif; fill: #767676" transform="translate(197.733224 551.380062) rotate(-90)">sept. 2007</text>
     </g>
    </g>
    <g id="xtick_3">
     <g id="line2d_5">
      <path d="M 245.157039 400.901312 
L 245.157039 40.453712 
" clip-path="url(#p58e46bf582)" style="fill: none; stroke: #ffffff; stroke-opacity: 0.3; stroke-width: 0.75; stroke-linecap: square"/>
     </g>
     <g id="line2d_6">
      <g>
       <use xlink:href="#mf180cca592" x="245.157039" y="400.901312" style="stroke: #000000; stroke-width: 0.8"/>
      </g>
     </g>
     <g id="text_3">
      <text style="font-weight: 600; font-size: 24px; font-family: 'DejaVu Sans', 'Bitstream Vera Sans', 'Computer Modern Sans Serif', 'Lucida Grande', 'Verdana', 'Geneva', 'Lucid', 'Arial', 'Helvetica', 'Avant Garde', sans-serif; fill: #767676" transform="translate(251.779539 551.380062) rotate(-90)">sept. 2008</text>
     </g>
    </g>
    <g id="xtick_4">
     <g id="line2d_7">
      <path d="M 299.203355 400.901312 
L 299.203355 40.453712 
" clip-path="url(#p58e46bf582)" style="fill: none; stroke: #ffffff; stroke-opacity: 0.3; stroke-width: 0.75; stroke-linecap: square"/>
     </g>
     <g id="line2d_8">
      <g>
       <use xlink:href="#mf180cca592" x="299.203355" y="400.901312" style="stroke: #000000; stroke-width: 0.8"/>
      </g>
     </g>
     <g id="text_4">
      <text style="font-weight: 600; font-size: 24px; font-family: 'DejaVu Sans', 'Bitstream Vera Sans', 'Computer Modern Sans Serif', 'Lucida Grande', 'Verdana', 'Geneva', 'Lucid', 'Arial', 'Helvetica', 'Avant Garde', sans-serif; fill: #767676" transform="translate(305.825855 551.380062) rotate(-90)">sept. 2009</text>
     </g>
    </g>
    <g id="xtick_5">
     <g id="line2d_9">
      <path d="M 353.249671 400.901312 
L 353.249671 40.453712 
" clip-path="url(#p58e46bf582)" style="fill: none; stroke: #ffffff; stroke-opacity: 0.3; stroke-width: 0.75; stroke-linecap: square"/>
     </g>
     <g id="line2d_10">
      <g>
       <use xlink:href="#mf180cca592" x="353.249671" y="400.901312" style="stroke: #000000; stroke-width: 0.8"/>
      </g>
     </g>
     <g id="text_5">
      <text style="font-weight: 600; font-size: 24px; font-family: 'DejaVu Sans', 'Bitstream Vera Sans', 'Computer Modern Sans Serif', 'Lucida Grande', 'Verdana', 'Geneva', 'Lucid', 'Arial', 'Helvetica', 'Avant Garde', sans-serif; fill: #767676" transform="translate(359.872171 551.380062) rotate(-90)">sept. 2010</text>
     </g>
    </g>
    <g id="xtick_6">
     <g id="line2d_11">
      <path d="M 407.295987 400.901312 
L 407.295987 40.453712 
" clip-path="url(#p58e46bf582)" style="fill: none; stroke: #ffffff; stroke-opacity: 0.3; stroke-width: 0.75; stroke-linecap: square"/>
     </g>
     <g id="line2d_12">
      <g>
       <use xlink:href="#mf180cca592" x="407.295987" y="400.901312" style="stroke: #000000; stroke-width: 0.8"/>
      </g>
     </g>
     <g id="text_6">
      <text style="font-weight: 600; font-size: 24px; font-family: 'DejaVu Sans', 'Bitstream Vera Sans', 'Computer Modern Sans Serif', 'Lucida Grande', 'Verdana', 'Geneva', 'Lucid', 'Arial', 'Helvetica', 'Avant Garde', sans-serif; fill: #767676" transform="translate(413.918487 551.380062) rotate(-90)">sept. 2011</text>
     </g>
    </g>
    <g id="xtick_7">
     <g id="line2d_13">
      <path d="M 461.342303 400.901312 
L 461.342303 40.453712 
" clip-path="url(#p58e46bf582)" style="fill: none; stroke: #ffffff; stroke-opacity: 0.3; stroke-width: 0.75; stroke-linecap: square"/>
     </g>
     <g id="line2d_14">
      <g>
       <use xlink:href="#mf180cca592" x="461.342303" y="400.901312" style="stroke: #000000; stroke-width: 0.8"/>
      </g>
     </g>
     <g id="text_7">
      <text style="font-weight: 600; font-size: 24px; font-family: 'DejaVu Sans', 'Bitstream Vera Sans', 'Computer Modern Sans Serif', 'Lucida Grande', 'Verdana', 'Geneva', 'Lucid', 'Arial', 'Helvetica', 'Avant Garde', sans-serif; fill: #767676" transform="translate(467.964803 551.380062) rotate(-90)">sept. 2012</text>
     </g>
    </g>
    <g id="xtick_8">
     <g id="line2d_15">
      <path d="M 515.388618 400.901312 
L 515.388618 40.453712 
" clip-path="url(#p58e46bf582)" style="fill: none; stroke: #ffffff; stroke-opacity: 0.3; stroke-width: 0.75; stroke-linecap: square"/>
     </g>
     <g id="line2d_16">
      <g>
       <use xlink:href="#mf180cca592" x="515.388618" y="400.901312" style="stroke: #000000; stroke-width: 0.8"/>
      </g>
     </g>
     <g id="text_8">
      <text style="font-weight: 600; font-size: 24px; font-family: 'DejaVu Sans', 'Bitstream Vera Sans', 'Computer Modern Sans Serif', 'Lucida Grande', 'Verdana', 'Geneva', 'Lucid', 'Arial', 'Helvetica', 'Avant Garde', sans-serif; fill: #767676" transform="translate(522.011118 551.380062) rotate(-90)">sept. 2013</text>
     </g>
    </g>
    <g id="xtick_9">
     <g id="line2d_17">
      <path d="M 569.434934 400.901312 
L 569.434934 40.453712 
" clip-path="url(#p58e46bf582)" style="fill: none; stroke: #ffffff; stroke-opacity: 0.3; stroke-width: 0.75; stroke-linecap: square"/>
     </g>
     <g id="line2d_18">
      <g>
       <use xlink:href="#mf180cca592" x="569.434934" y="400.901312" style="stroke: #000000; stroke-width: 0.8"/>
      </g>
     </g>
     <g id="text_9">
      <text style="font-weight: 600; font-size: 24px; font-family: 'DejaVu Sans', 'Bitstream Vera Sans', 'Computer Modern Sans Serif', 'Lucida Grande', 'Verdana', 'Geneva', 'Lucid', 'Arial', 'Helvetica', 'Avant Garde', sans-serif; fill: #767676" transform="translate(576.057434 551.380062) rotate(-90)">sept. 2014</text>
     </g>
    </g>
    <g id="xtick_10">
     <g id="line2d_19">
      <path d="M 623.48125 400.901312 
L 623.48125 40.453712 
" clip-path="url(#p58e46bf582)" style="fill: none; stroke: #ffffff; stroke-opacity: 0.3; stroke-width: 0.75; stroke-linecap: square"/>
     </g>
     <g id="line2d_20">
      <g>
       <use xlink:href="#mf180cca592" x="623.48125" y="400.901312" style="stroke: #000000; stroke-width: 0.8"/>
      </g>
     </g>
     <g id="text_10">
      <text style="font-weight: 600; font-size: 24px; font-family: 'DejaVu Sans', 'Bitstream Vera Sans', 'Computer Modern Sans Serif', 'Lucida Grande', 'Verdana', 'Geneva', 'Lucid', 'Arial', 'Helvetica', 'Avant Garde', sans-serif; fill: #767676" transform="translate(630.10375 551.380062) rotate(-90)">sept. 2015</text>
     </g>
    </g>
    <g id="xtick_11">
     <g id="line2d_21">
      <path d="M 677.527566 400.901312 
L 677.527566 40.453712 
" clip-path="url(#p58e46bf582)" style="fill: none; stroke: #ffffff; stroke-opacity: 0.3; stroke-width: 0.75; stroke-linecap: square"/>
     </g>
     <g id="line2d_22">
      <g>
       <use xlink:href="#mf180cca592" x="677.527566" y="400.901312" style="stroke: #000000; stroke-width: 0.8"/>
      </g>
     </g>
     <g id="text_11">
      <text style="font-weight: 600; font-size: 24px; font-family: 'DejaVu Sans', 'Bitstream Vera Sans', 'Computer Modern Sans Serif', 'Lucida Grande', 'Verdana', 'Geneva', 'Lucid', 'Arial', 'Helvetica', 'Avant Garde', sans-serif; fill: #767676" transform="translate(684.150066 551.380062) rotate(-90)">sept. 2016</text>
     </g>
    </g>
    <g id="xtick_12">
     <g id="line2d_23">
      <path d="M 731.573882 400.901312 
L 731.573882 40.453712 
" clip-path="url(#p58e46bf582)" style="fill: none; stroke: #ffffff; stroke-opacity: 0.3; stroke-width: 0.75; stroke-linecap: square"/>
     </g>
     <g id="line2d_24">
      <g>
       <use xlink:href="#mf180cca592" x="731.573882" y="400.901312" style="stroke: #000000; stroke-width: 0.8"/>
      </g>
     </g>
     <g id="text_12">
      <text style="font-weight: 600; font-size: 24px; font-family: 'DejaVu Sans', 'Bitstream Vera Sans', 'Computer Modern Sans Serif', 'Lucida Grande', 'Verdana', 'Geneva', 'Lucid', 'Arial', 'Helvetica', 'Avant Garde', sans-serif; fill: #767676" transform="translate(738.196382 551.380062) rotate(-90)">sept. 2017</text>
     </g>
    </g>
    <g id="xtick_13">
     <g id="line2d_25">
      <path d="M 785.620197 400.901312 
L 785.620197 40.453712 
" clip-path="url(#p58e46bf582)" style="fill: none; stroke: #ffffff; stroke-opacity: 0.3; stroke-width: 0.75; stroke-linecap: square"/>
     </g>
     <g id="line2d_26">
      <g>
       <use xlink:href="#mf180cca592" x="785.620197" y="400.901312" style="stroke: #000000; stroke-width: 0.8"/>
      </g>
     </g>
     <g id="text_13">
      <text style="font-weight: 600; font-size: 24px; font-family: 'DejaVu Sans', 'Bitstream Vera Sans', 'Computer Modern Sans Serif', 'Lucida Grande', 'Verdana', 'Geneva', 'Lucid', 'Arial', 'Helvetica', 'Avant Garde', sans-serif; fill: #767676" transform="translate(792.242697 551.380062) rotate(-90)">sept. 2018</text>
     </g>
    </g>
    <g id="xtick_14">
     <g id="line2d_27">
      <path d="M 839.666513 400.901312 
L 839.666513 40.453712 
" clip-path="url(#p58e46bf582)" style="fill: none; stroke: #ffffff; stroke-opacity: 0.3; stroke-width: 0.75; stroke-linecap: square"/>
     </g>
     <g id="line2d_28">
      <g>
       <use xlink:href="#mf180cca592" x="839.666513" y="400.901312" style="stroke: #000000; stroke-width: 0.8"/>
      </g>
     </g>
     <g id="text_14">
      <text style="font-weight: 600; font-size: 24px; font-family: 'DejaVu Sans', 'Bitstream Vera Sans', 'Computer Modern Sans Serif', 'Lucida Grande', 'Verdana', 'Geneva', 'Lucid', 'Arial', 'Helvetica', 'Avant Garde', sans-serif; fill: #767676" transform="translate(846.289013 541.787562) rotate(-90)">mar. 2020</text>
     </g>
    </g>
    <g id="xtick_15">
     <g id="line2d_29">
      <path d="M 893.712829 400.901312 
L 893.712829 40.453712 
" clip-path="url(#p58e46bf582)" style="fill: none; stroke: #ffffff; stroke-opacity: 0.3; stroke-width: 0.75; stroke-linecap: square"/>
     </g>
     <g id="line2d_30">
      <g>
       <use xlink:href="#mf180cca592" x="893.712829" y="400.901312" style="stroke: #000000; stroke-width: 0.8"/>
      </g>
     </g>
     <g id="text_15">
      <text style="font-weight: 600; font-size: 24px; font-family: 'DejaVu Sans', 'Bitstream Vera Sans', 'Computer Modern Sans Serif', 'Lucida Grande', 'Verdana', 'Geneva', 'Lucid', 'Arial', 'Helvetica', 'Avant Garde', sans-serif; fill: #767676" transform="translate(900.335329 551.380062) rotate(-90)">sept. 2020</text>
     </g>
    </g>
    <g id="xtick_16">
     <g id="line2d_31">
      <path d="M 947.759145 400.901312 
L 947.759145 40.453712 
" clip-path="url(#p58e46bf582)" style="fill: none; stroke: #ffffff; stroke-opacity: 0.3; stroke-width: 0.75; stroke-linecap: square"/>
     </g>
     <g id="line2d_32">
      <g>
       <use xlink:href="#mf180cca592" x="947.759145" y="400.901312" style="stroke: #000000; stroke-width: 0.8"/>
      </g>
     </g>
     <g id="text_16">
      <text style="font-weight: 600; font-size: 24px; font-family: 'DejaVu Sans', 'Bitstream Vera Sans', 'Computer Modern Sans Serif', 'Lucida Grande', 'Verdana', 'Geneva', 'Lucid', 'Arial', 'Helvetica', 'Avant Garde', sans-serif; fill: #767676" transform="translate(954.381645 551.380062) rotate(-90)">sept. 2021</text>
     </g>
    </g>
    <g id="xtick_17">
     <g id="line2d_33">
      <path d="M 1001.805461 400.901312 
L 1001.805461 40.453712 
" clip-path="url(#p58e46bf582)" style="fill: none; stroke: #ffffff; stroke-opacity: 0.3; stroke-width: 0.75; stroke-linecap: square"/>
     </g>
     <g id="line2d_34">
      <g>
       <use xlink:href="#mf180cca592" x="1001.805461" y="400.901312" style="stroke: #000000; stroke-width: 0.8"/>
      </g>
     </g>
     <g id="text_17">
      <text style="font-weight: 600; font-size: 24px; font-family: 'DejaVu Sans', 'Bitstream Vera Sans', 'Computer Modern Sans Serif', 'Lucida Grande', 'Verdana', 'Geneva', 'Lucid', 'Arial', 'Helvetica', 'Avant Garde', sans-serif; fill: #767676" transform="translate(1008.427961 551.380062) rotate(-90)">sept. 2022</text>
     </g>
    </g>
    <g id="xtick_18">
     <g id="line2d_35">
      <path d="M 1055.851776 400.901312 
L 1055.851776 40.453712 
" clip-path="url(#p58e46bf582)" style="fill: none; stroke: #ffffff; stroke-opacity: 0.3; stroke-width: 0.75; stroke-linecap: square"/>
     </g>
     <g id="line2d_36">
      <g>
       <use xlink:href="#mf180cca592" x="1055.851776" y="400.901312" style="stroke: #000000; stroke-width: 0.8"/>
      </g>
     </g>
     <g id="text_18">
      <text style="font-weight: 600; font-size: 24px; font-family: 'DejaVu Sans', 'Bitstream Vera Sans', 'Computer Modern Sans Serif', 'Lucida Grande', 'Verdana', 'Geneva', 'Lucid', 'Arial', 'Helvetica', 'Avant Garde', sans-serif; fill: #767676" transform="translate(1062.474276 551.380062) rotate(-90)">sept. 2023</text>
     </g>
    </g>
    <g id="xtick_19">
     <g id="line2d_37">
      <path d="M 1109.898092 400.901312 
L 1109.898092 40.453712 
" clip-path="url(#p58e46bf582)" style="fill: none; stroke: #ffffff; stroke-opacity: 0.3; stroke-width: 0.75; stroke-linecap: square"/>
     </g>
     <g id="line2d_38">
      <g>
       <use xlink:href="#mf180cca592" x="1109.898092" y="400.901312" style="stroke: #000000; stroke-width: 0.8"/>
      </g>
     </g>
     <g id="text_19">
      <text style="font-weight: 600; font-size: 24px; font-family: 'DejaVu Sans', 'Bitstream Vera Sans', 'Computer Modern Sans Serif', 'Lucida Grande', 'Verdana', 'Geneva', 'Lucid', 'Arial', 'Helvetica', 'Avant Garde', sans-serif; fill: #767676" transform="translate(1116.520592 551.380062) rotate(-90)">sept. 2024</text>
     </g>
    </g>
   </g>
   <g id="matplotlib.axis_2">
    <g id="ytick_1">
     <g id="line2d_39">
      <path d="M 110.04125 400.901312 
L 1136.92125 400.901312 
" clip-path="url(#p58e46bf582)" style="fill: none; stroke: #ffffff; stroke-opacity: 0.8; stroke-width: 1.25; stroke-linecap: square"/>
     </g>
     <g id="line2d_40">
      <defs>
       <path id="m2e4dccf8d5" d="M 0 0 
L -3.5 0 
" style="stroke: #000000; stroke-width: 0.8"/>
      </defs>
      <g>
       <use xlink:href="#m2e4dccf8d5" x="110.04125" y="400.901312" style="stroke: #000000; stroke-width: 0.8"/>
      </g>
     </g>
     <g id="text_20">
      <text style="font-weight: 500; font-size: 24px; font-family: 'DejaVu Sans', 'Bitstream Vera Sans', 'Computer Modern Sans Serif', 'Lucida Grande', 'Verdana', 'Geneva', 'Lucid', 'Arial', 'Helvetica', 'Avant Garde', sans-serif; text-anchor: end; fill: #767676" x="103.04125" y="410.019437" transform="rotate(-0 103.04125 410.019437)">0%</text>
     </g>
    </g>
    <g id="ytick_2">
     <g id="line2d_41">
      <path d="M 110.04125 315.080455 
L 1136.92125 315.080455 
" clip-path="url(#p58e46bf582)" style="fill: none; stroke: #ffffff; stroke-opacity: 0.8; stroke-width: 1.25; stroke-linecap: square"/>
     </g>
     <g id="line2d_42">
      <g>
       <use xlink:href="#m2e4dccf8d5" x="110.04125" y="315.080455" style="stroke: #000000; stroke-width: 0.8"/>
      </g>
     </g>
     <g id="text_21">
      <text style="font-weight: 500; font-size: 24px; font-family: 'DejaVu Sans', 'Bitstream Vera Sans', 'Computer Modern Sans Serif', 'Lucida Grande', 'Verdana', 'Geneva', 'Lucid', 'Arial', 'Helvetica', 'Avant Garde', sans-serif; text-anchor: end; fill: #767676" x="103.04125" y="324.19858" transform="rotate(-0 103.04125 324.19858)">25%</text>
     </g>
    </g>
    <g id="ytick_3">
     <g id="line2d_43">
      <path d="M 110.04125 229.259598 
L 1136.92125 229.259598 
" clip-path="url(#p58e46bf582)" style="fill: none; stroke: #ffffff; stroke-opacity: 0.8; stroke-width: 1.25; stroke-linecap: square"/>
     </g>
     <g id="line2d_44">
      <g>
       <use xlink:href="#m2e4dccf8d5" x="110.04125" y="229.259598" style="stroke: #000000; stroke-width: 0.8"/>
      </g>
     </g>
     <g id="text_22">
      <text style="font-weight: 500; font-size: 24px; font-family: 'DejaVu Sans', 'Bitstream Vera Sans', 'Computer Modern Sans Serif', 'Lucida Grande', 'Verdana', 'Geneva', 'Lucid', 'Arial', 'Helvetica', 'Avant Garde', sans-serif; text-anchor: end; fill: #767676" x="103.04125" y="238.377723" transform="rotate(-0 103.04125 238.377723)">50%</text>
     </g>
    </g>
    <g id="ytick_4">
     <g id="line2d_45">
      <path d="M 110.04125 143.438741 
L 1136.92125 143.438741 
" clip-path="url(#p58e46bf582)" style="fill: none; stroke: #ffffff; stroke-opacity: 0.8; stroke-width: 1.25; stroke-linecap: square"/>
     </g>
     <g id="line2d_46">
      <g>
       <use xlink:href="#m2e4dccf8d5" x="110.04125" y="143.438741" style="stroke: #000000; stroke-width: 0.8"/>
      </g>
     </g>
     <g id="text_23">
      <text style="font-weight: 500; font-size: 24px; font-family: 'DejaVu Sans', 'Bitstream Vera Sans', 'Computer Modern Sans Serif', 'Lucida Grande', 'Verdana', 'Geneva', 'Lucid', 'Arial', 'Helvetica', 'Avant Garde', sans-serif; text-anchor: end; fill: #767676" x="103.04125" y="152.556866" transform="rotate(-0 103.04125 152.556866)">75%</text>
     </g>
    </g>
    <g id="ytick_5">
     <g id="line2d_47">
      <path d="M 110.04125 57.617883 
L 1136.92125 57.617883 
" clip-path="url(#p58e46bf582)" style="fill: none; stroke: #ffffff; stroke-opacity: 0.8; stroke-width: 1.25; stroke-linecap: square"/>
     </g>
     <g id="line2d_48">
      <g>
       <use xlink:href="#m2e4dccf8d5" x="110.04125" y="57.617883" style="stroke: #000000; stroke-width: 0.8"/>
      </g>
     </g>
     <g id="text_24">
      <text style="font-weight: 500; font-size: 24px; font-family: 'DejaVu Sans', 'Bitstream Vera Sans', 'Computer Modern Sans Serif', 'Lucida Grande', 'Verdana', 'Geneva', 'Lucid', 'Arial', 'Helvetica', 'Avant Garde', sans-serif; text-anchor: end; fill: #767676" x="103.04125" y="66.736008" transform="rotate(-0 103.04125 66.736008)">100%</text>
     </g>
    </g>
    <g id="text_25">
     <text style="font-weight: 500; font-size: 24px; font-family: 'DejaVu Sans', 'Bitstream Vera Sans', 'Computer Modern Sans Serif', 'Lucida Grande', 'Verdana', 'Geneva', 'Lucid', 'Arial', 'Helvetica', 'Avant Garde', sans-serif; text-anchor: middle; fill: #767676" x="25.43625" y="220.677512" transform="rotate(-90 25.43625 220.677512)">Porcentaje</text>
    </g>
   </g>
   <g id="patch_3">
    <path d="M 110.04125 400.901312 
L 1136.92125 400.901312 
" style="fill: none; stroke: #000000; stroke-width: 2; stroke-linejoin: miter; stroke-linecap: square"/>
   </g>
   <g id="text_26">
    <g id="patch_4">
     <path d="M 203.868257 371.086923 
L 232.399507 371.086923 
Q 252.399507 371.086923 252.399507 351.086923 
L 252.399507 347.730673 
Q 252.399507 327.730673 232.399507 327.730673 
L 203.868257 327.730673 
Q 183.868257 327.730673 183.868257 347.730673 
L 183.868257 351.086923 
Q 183.868257 371.086923 203.868257 371.086923 
z
" style="fill: #ffffff; stroke: #d9d9d9; stroke-width: 1.8; stroke-linejoin: miter"/>
    </g>
    <text style="font-weight: 500; font-size: 20px; font-family: 'DejaVu Sans', 'Bitstream Vera Sans', 'Computer Modern Sans Serif', 'Lucida Grande', 'Verdana', 'Geneva', 'Lucid', 'Arial', 'Helvetica', 'Avant Garde', sans-serif; text-anchor: middle; fill: #10302c" x="218.133882" y="354.927548" transform="rotate(-0 218.133882 354.927548)">5.95</text>
   </g>
   <g id="text_27">
    <g id="patch_5">
     <path d="M 528.146151 268.101894 
L 556.677401 268.101894 
Q 576.677401 268.101894 576.677401 248.101894 
L 576.677401 244.745644 
Q 576.677401 224.745644 556.677401 224.745644 
L 528.146151 224.745644 
Q 508.146151 224.745644 508.146151 244.745644 
L 508.146151 248.101894 
Q 508.146151 268.101894 528.146151 268.101894 
z
" style="fill: #ffffff; stroke: #d9d9d9; stroke-width: 1.8; stroke-linejoin: miter"/>
    </g>
    <text style="font-weight: 500; font-size: 20px; font-family: 'DejaVu Sans', 'Bitstream Vera Sans', 'Computer Modern Sans Serif', 'Lucida Grande', 'Verdana', 'Geneva', 'Lucid', 'Arial', 'Helvetica', 'Avant Garde', sans-serif; text-anchor: middle; fill: #10302c" x="542.411776" y="251.942519" transform="rotate(-0 542.411776 251.942519)">5.92</text>
   </g>
   <g id="text_28">
    <g id="patch_6">
     <path d="M 852.424046 130.788523 
L 880.955296 130.788523 
Q 900.955296 130.788523 900.955296 110.788523 
L 900.955296 107.432273 
Q 900.955296 87.432273 880.955296 87.432273 
L 852.424046 87.432273 
Q 832.424046 87.432273 832.424046 107.432273 
L 832.424046 110.788523 
Q 832.424046 130.788523 852.424046 130.788523 
z
" style="fill: #ffffff; stroke: #d9d9d9; stroke-width: 1.8; stroke-linejoin: miter"/>
    </g>
    <text style="font-weight: 500; font-size: 20px; font-family: 'DejaVu Sans', 'Bitstream Vera Sans', 'Computer Modern Sans Serif', 'Lucida Grande', 'Verdana', 'Geneva', 'Lucid', 'Arial', 'Helvetica', 'Avant Garde', sans-serif; text-anchor: middle; fill: #10302c" x="866.689671" y="114.629148" transform="rotate(-0 866.689671 114.629148)">7.13</text>
   </g>
   <g id="legend_1">
    <g id="patch_7">
     <path d="M 290.675 31.196875 
L 330.675 31.196875 
L 330.675 17.196875 
L 290.675 17.196875 
z
" style="fill: #215f53"/>
    </g>
    <g id="text_29">
     <text style="font-weight: 500; font-size: 20px; font-family: 'DejaVu Sans', 'Bitstream Vera Sans', 'Computer Modern Sans Serif', 'Lucida Grande', 'Verdana', 'Geneva', 'Lucid', 'Arial', 'Helvetica', 'Avant Garde', sans-serif; text-anchor: start" x="346.675" y="31.196875" transform="rotate(-0 346.675 31.196875)">Comisiones</text>
    </g>
    <g id="patch_8">
     <path d="M 501.528125 31.196875 
L 541.528125 31.196875 
L 541.528125 17.196875 
L 501.528125 17.196875 
z
" style="fill: #7570b3"/>
    </g>
    <g id="text_30">
     <text style="font-weight: 500; font-size: 20px; font-family: 'DejaVu Sans', 'Bitstream Vera Sans', 'Computer Modern Sans Serif', 'Lucida Grande', 'Verdana', 'Geneva', 'Lucid', 'Arial', 'Helvetica', 'Avant Garde', sans-serif; text-anchor: start" x="557.528125" y="31.196875" transform="rotate(-0 557.528125 31.196875)">Fiscalas y Procuraduras</text>
    </g>
    <g id="patch_9">
     <path d="M 842.840625 31.196875 
L 882.840625 31.196875 
L 882.840625 17.196875 
L 842.840625 17.196875 
z
" style="fill: #c7eae5"/>
    </g>
    <g id="text_31">
     <text style="font-weight: 500; font-size: 20px; font-family: 'DejaVu Sans', 'Bitstream Vera Sans', 'Computer Modern Sans Serif', 'Lucida Grande', 'Verdana', 'Geneva', 'Lucid', 'Arial', 'Helvetica', 'Avant Garde', sans-serif; text-anchor: start" x="898.840625" y="31.196875" transform="rotate(-0 898.840625 31.196875)">Portal</text>
    </g>
   </g>
  </g>
 </g>
 <defs>
  <clipPath id="p58e46bf582">
   <rect x="110.04125" y="40.453712" width="1026.88" height="360.4476"/>
  </clipPath>
 </defs>
</svg>
