<?xml version="1.0" encoding="UTF-8"?>
<!DOCTYPE svg  PUBLIC '-//W3C//DTD SVG 1.1//EN'  'http://www.w3.org/Graphics/SVG/1.1/DTD/svg11.dtd'>
<svg width="1010pt" height="651.62pt" version="1.1" viewBox="0 0 1010 651.62" xmlns="http://www.w3.org/2000/svg" xmlns:xlink="http://www.w3.org/1999/xlink">
 <defs>
  <style type="text/css">*{stroke-linejoin: round; stroke-linecap: butt}</style>
 </defs>
 <path d="m0 651.62h1010v-651.62h-1010z" fill="#fff"/>
 <path d="m110.04 493.94h892.8v-443.52h-892.8z" fill="#fff"/>
 <path d="m133.54 363.1v130.84h2.8288 2.8288 2.8288 2.8288 2.8288 2.8288 2.8288 2.8288 2.8288 2.8288 2.8288 2.8288 2.8288 2.8288 2.8288 2.8288 2.8288 2.8288 2.8288 2.8288 2.8288 2.8288 2.8288 2.8288 2.8288 2.8288 2.8288 2.8288 2.8288 2.8288 2.8288 2.8288 2.8288 2.8288 2.8288 2.8288 2.8288 2.8288 2.8288 2.8288 2.8288 2.8288 2.8288 2.8288 2.8288 2.8288 2.8288 2.8288 2.8288 2.8288 2.8288 2.8288 2.8288 2.8288 2.8288 2.8288 2.8288 2.8288 2.8288 2.8288 2.8288 2.8288 2.8288 2.8288 2.8288 2.8288 2.8288 2.8288 2.8288 2.8288 2.8288 2.8288 2.8288 2.8288 2.8288 2.8288 2.8288 2.8288 2.8288 2.8288 2.8288 2.8288 2.8288 2.8288 2.8288 2.8288 2.8288 2.8288 2.8288 2.8288 2.8288 2.8288 2.8288 2.8288 2.8288 2.8288 2.8288 2.8288 2.8288 2.8288 2.8288 2.8288 2.8288 2.8288 2.8288 2.8288 2.8288 2.8288 2.8288 2.8288 2.8288 2.8288 2.8288 2.8288 2.8288 2.8288 2.8288 2.8288 2.8288 2.8288 2.8288 2.8288 2.8288 2.8288 2.8288 2.8288 2.8288 2.8288 2.8288 2.8288 2.8288 2.8288 2.8288 2.8288 2.8288 2.8288 2.8288 2.8288 2.8288 2.8288 2.8288 2.8288 2.8288 2.8288 2.8288 2.8288 2.8288 2.8288 2.8288 2.8288 2.8288 2.8288 2.8288 2.8288 2.8288 2.8288 2.8288 2.8288 2.8288 2.8288 2.8288 2.8288 2.8288 2.8288 2.8288 2.8288 2.8288 2.8288 2.8288 2.8288 2.8288 2.8288 2.8288 2.8288 2.8288 2.8288 2.8288 2.8288 2.8288 2.8288 2.8288 2.8288 2.8288 2.8288 2.8288 2.8288 2.8288 2.8288 2.8288 2.8288 2.8288 2.8288 2.8288 2.8288 2.8288 2.8288 2.8288 2.8288 2.8288 2.8288 2.8288 2.8288 2.8288 2.8288 2.8288 2.8288 2.8288 2.8288 2.8288 2.8288 2.8288 2.8288 2.8288 2.8288 2.8288 2.8288 2.8288 2.8288 2.8288 2.8288 2.8288 2.8288 2.8288 2.8288 2.8288 2.8288 2.8288 2.8288 2.8288 2.8288 2.8288 2.8288 2.8288 2.8288 2.8288 2.8288 2.8288 2.8288 2.8288 2.8288 2.8288 2.8288 2.8288 2.8288 2.8288 2.8288 2.8288 2.8288 2.8288 2.8288 2.8288 2.8288 2.8288 2.8288 2.8288 2.8288 2.8288 2.8288 2.8288 2.8288 2.8288 2.8288 2.8288 2.8288 2.8288 2.8288 2.8288 2.8288 2.8288 2.8288 2.8288 2.8288 2.8288 2.8288 2.8288 2.8288 2.8288 2.8288 2.8288 2.8288 2.8288 2.8288 2.8288 2.8288 2.8288 2.8288 2.8288 2.8288 2.8288 2.8288 2.8288 2.8288 2.8288 2.8288 2.8288 2.8288 2.8288 2.8288 2.8288v-150.22l-2.8288-6.5021-2.8288-5.4633-2.8288-4.474-2.8288-3.5343-2.8288-2.6441-2.8288-1.8035-2.8288-1.0124-2.8288-0.2708-2.8288 0.42122-2.8288 1.0637-2.8288 1.6566-2.8288 2.2-2.8288 2.6939-2.8288 3.1382-2.8288 3.5329-2.8288 3.8782-2.8288 4.1738-2.8288 4.42-2.8288 4.6166-2.8288 4.7636-2.8288 4.8611-2.8288 4.9091-2.8288 4.9075-2.8288 4.8564-2.8288 4.7558-2.8288 4.6056-2.8288 4.4058-2.8288 4.1565-2.8288 3.8577-2.8288 3.5093-2.8288 3.1114-2.8288 2.664-2.8288 2.167-2.8288 1.6286-2.8288 1.1137-2.8288 0.65322-2.8288 0.24736-2.8288-0.10391-2.8288-0.40057-2.8288-0.64262-2.8288-0.83007-2.8288-0.96291-2.8288-1.0411-2.8288-1.0648-2.8288-1.0338-2.8288-0.94822-2.8288-0.80803-2.8288-0.61324-2.8288-0.36384-2.8288-0.059934-2.8288 0.26787-2.8288 0.54451-2.8288 0.75869-2.8288 0.91041-2.8288 0.99968-2.8288 1.0265-2.8288 0.99083-2.8288 0.89271-2.8288 0.73214-2.8288 0.50911-2.8288 0.22362-2.8288-0.12432-2.8288-0.53473-2.8288-1.0076-2.8288-1.5429-2.8288-2.1407-2.8288-2.7966-2.8288-3.4325-2.8288-3.9808-2.8288-4.4394-2.8288-4.8083-2.8288-5.0873-2.8288-5.2766-2.8288-5.3762-2.8288-5.386-2.8288-5.306-2.8288-5.1362-2.8288-4.8767-2.8288-4.5274-2.8288-4.0883-2.8288-3.5595-2.8288-2.9409-2.8288-2.2326-2.8288-1.4564-2.8288-0.71588-2.8288-0.041647-2.8288 0.56632-2.8288 1.108-2.8288 1.5834-2.8288 1.9926-2.8288 2.3355-2.8288 2.6121-2.8288 2.8224-2.8288 2.9664-2.8288 3.0442-2.8288 3.0557-2.8288 3.001-2.8288 2.8799-2.8288 2.6926-2.8288 2.4395-2.8288 2.1473-2.8288 1.8577-2.8288 1.5741-2.8288 1.2965-2.8288 1.0251-2.8288 0.75967-2.8288 0.50034-2.8288 0.24708-2.8288-1.14e-4 -2.8288-0.24124-2.8288-0.4763-2.8288-0.70528-2.8288-0.9282-2.8288-1.1451-2.8288-1.3558-2.8288-1.5606-2.8288-1.7568-2.8288-1.922-2.8288-2.0435-2.8288-2.1212-2.8288-2.1551-2.8288-2.1451-2.8288-2.0914-2.8288-1.9938-2.8288-1.8524-2.8288-1.6672-2.8288-1.4381-2.8288-1.1653-2.8288-0.84864-2.8288-0.48816-2.8288-0.083869-2.8288 0.36424-2.8288 0.85614-2.8288 1.3651-2.8288 1.814-2.8288 2.1893-2.8288 2.4908-2.8288 2.7186-2.8288 2.8727-2.8288 2.953-2.8288 2.9597-2.8288 2.8926-2.8288 2.7518-2.8288 2.5373-2.8288 2.2491-2.8288 1.8871-2.8288 1.4514-2.8288 0.94203-2.8288 0.35892-2.8288-0.29497-2.8288-0.95195-2.8288-1.5444-2.8288-2.0692-2.8288-2.5266-2.8288-2.9164-2.8288-3.2387-2.8288-3.4934-2.8288-3.6807-2.8288-3.8004-2.8288-3.8526-2.8288-3.8372-2.8288-3.7543-2.8288-3.6039-2.8288-3.386-2.8288-3.1005-2.8288-2.7476-2.8288-2.3367-2.8288-1.922-2.8288-1.5222-2.8288-1.1374-2.8288-0.76759-2.8288-0.4127-2.8288-0.07277-2.8288 0.2522-2.8288 0.56222-2.8288 0.85728-2.8288 1.1374-2.8288 1.4025-2.8288 1.6527-2.8288 1.8879-2.8288 2.1082-2.8288 2.3135-2.8288 2.5038-2.8288 2.6715-2.8288 2.8031-2.8288 2.8972-2.8288 2.9537-2.8288 2.9727-2.8288 2.9541-2.8288 2.898-2.8288 2.8044-2.8288 2.6732-2.8288 2.5046-2.8288 2.2983-2.8288 2.0546-2.8288 1.7733-2.8288 1.4544-2.8288 1.0981-2.8288 0.70414-2.8288 0.277-2.8288-0.13338-2.8288-0.49473-2.8288-0.80653-2.8288-1.0688-2.8288-1.2815-2.8288-1.4446-2.8288-1.5581-2.8288-1.6221-2.8288-1.6366-2.8288-1.6015-2.8288-1.5168-2.8288-1.3826-2.8288-1.1988-2.8288-0.96543-2.8288-0.68253-2.8288-0.35006-2.8288 0.014447-2.8288 0.35168-2.8288 0.6491-2.8288 0.90669-2.8288 1.1245-2.8288 1.3024-2.8288 1.4405-2.8288 1.5388-2.8288 1.5973-2.8288 1.616-2.8288 1.5948-2.8288 1.5338-2.8288 1.433-2.8288 1.2924-2.8288 1.1119-2.8288 0.89166-2.8288 0.6325-2.8288 0.36284-2.8288 0.11548-2.8288-0.10775-2.8288-0.30685-2.8288-0.48181-2.8288-0.63263-2.8288-0.75933-2.8288-0.86189-2.8288-0.94032-2.8288-0.99461-2.8288-1.0248-2.8288-1.0308-2.8288-1.0127-2.8288-0.97045-2.8288-0.90408-2.8288-0.81358-2.8288-0.7024-2.8288-0.59353-2.8288-0.49636-2.8288-0.41091-2.8288-0.33718-2.8288-0.27518-2.8288-0.2249-2.8288-0.18634-2.8288-0.1595-2.8288-0.14438-2.8288-0.14099-2.8288-0.14931-2.8288-0.16936-2.8288-0.20114-2.8288-0.24463-2.8288-0.29984-2.8288-0.36674-2.8288-0.43896-2.8288-0.50314-2.8288-0.5576-2.8288-0.60234-2.8288-0.63737-2.8288-0.66268-2.8288-0.67827-2.8288-0.68415-2.8288-0.6803-2.8288-0.66674-2.8288-0.64347-2.8288-0.61047-2.8288-0.56776-2.8288-0.51533-2.8288-0.45319-2.8288-0.38132-2.8288-0.29974-2.8288-0.20845-2.8288-0.10743-2.8288 0.003302-2.8288 0.12375-2.8288 0.25392-2.8288 0.3938-2.8288 0.54341-2.8288 0.70272-2.8288 0.87176-2.8288 1.0505-2.8288 1.239-2.8288 1.4372-2.8288 1.6451-2.8288 1.8627-2.8288 2.09-2.8288 2.3271z" clip-path="url(#a)" fill="#215f53"/>
 <path d="m133.54 205.12v157.98l2.8288-2.3271 2.8288-2.09 2.8288-1.8627 2.8288-1.6451 2.8288-1.4372 2.8288-1.239 2.8288-1.0505 2.8288-0.87176 2.8288-0.70272 2.8288-0.54341 2.8288-0.3938 2.8288-0.25392 2.8288-0.12375 2.8288-0.003302 2.8288 0.10743 2.8288 0.20845 2.8288 0.29974 2.8288 0.38132 2.8288 0.45319 2.8288 0.51533 2.8288 0.56776 2.8288 0.61047 2.8288 0.64347 2.8288 0.66674 2.8288 0.6803 2.8288 0.68415 2.8288 0.67827 2.8288 0.66268 2.8288 0.63737 2.8288 0.60234 2.8288 0.5576 2.8288 0.50314 2.8288 0.43896 2.8288 0.36674 2.8288 0.29984 2.8288 0.24463 2.8288 0.20114 2.8288 0.16936 2.8288 0.14931 2.8288 0.14099 2.8288 0.14438 2.8288 0.1595 2.8288 0.18634 2.8288 0.2249 2.8288 0.27518 2.8288 0.33718 2.8288 0.41091 2.8288 0.49636 2.8288 0.59353 2.8288 0.7024 2.8288 0.81358 2.8288 0.90408 2.8288 0.97045 2.8288 1.0127 2.8288 1.0308 2.8288 1.0248 2.8288 0.99461 2.8288 0.94032 2.8288 0.86189 2.8288 0.75933 2.8288 0.63263 2.8288 0.48181 2.8288 0.30685 2.8288 0.10775 2.8288-0.11548 2.8288-0.36284 2.8288-0.6325 2.8288-0.89166 2.8288-1.1119 2.8288-1.2924 2.8288-1.433 2.8288-1.5338 2.8288-1.5948 2.8288-1.616 2.8288-1.5973 2.8288-1.5388 2.8288-1.4405 2.8288-1.3024 2.8288-1.1245 2.8288-0.90669 2.8288-0.6491 2.8288-0.35168 2.8288-0.014447 2.8288 0.35006 2.8288 0.68253 2.8288 0.96543 2.8288 1.1988 2.8288 1.3826 2.8288 1.5168 2.8288 1.6015 2.8288 1.6366 2.8288 1.6221 2.8288 1.5581 2.8288 1.4446 2.8288 1.2815 2.8288 1.0688 2.8288 0.80653 2.8288 0.49473 2.8288 0.13338 2.8288-0.277 2.8288-0.70414 2.8288-1.0981 2.8288-1.4544 2.8288-1.7733 2.8288-2.0546 2.8288-2.2983 2.8288-2.5046 2.8288-2.6732 2.8288-2.8044 2.8288-2.898 2.8288-2.9541 2.8288-2.9727 2.8288-2.9537 2.8288-2.8972 2.8288-2.8031 2.8288-2.6715 2.8288-2.5038 2.8288-2.3135 2.8288-2.1082 2.8288-1.8879 2.8288-1.6527 2.8288-1.4025 2.8288-1.1374 2.8288-0.85728 2.8288-0.56222 2.8288-0.2522 2.8288 0.07277 2.8288 0.4127 2.8288 0.76759 2.8288 1.1374 2.8288 1.5222 2.8288 1.922 2.8288 2.3367 2.8288 2.7476 2.8288 3.1005 2.8288 3.386 2.8288 3.6039 2.8288 3.7543 2.8288 3.8372 2.8288 3.8526 2.8288 3.8004 2.8288 3.6807 2.8288 3.4934 2.8288 3.2387 2.8288 2.9164 2.8288 2.5266 2.8288 2.0692 2.8288 1.5444 2.8288 0.95195 2.8288 0.29497 2.8288-0.35892 2.8288-0.94203 2.8288-1.4514 2.8288-1.8871 2.8288-2.2491 2.8288-2.5373 2.8288-2.7518 2.8288-2.8926 2.8288-2.9597 2.8288-2.953 2.8288-2.8727 2.8288-2.7186 2.8288-2.4908 2.8288-2.1893 2.8288-1.814 2.8288-1.3651 2.8288-0.85614 2.8288-0.36424 2.8288 0.083869 2.8288 0.48816 2.8288 0.84864 2.8288 1.1653 2.8288 1.4381 2.8288 1.6672 2.8288 1.8524 2.8288 1.9938 2.8288 2.0914 2.8288 2.1451 2.8288 2.1551 2.8288 2.1212 2.8288 2.0435 2.8288 1.922 2.8288 1.7568 2.8288 1.5606 2.8288 1.3558 2.8288 1.1451 2.8288 0.9282 2.8288 0.70528 2.8288 0.4763 2.8288 0.24124 2.8288 1.14e-4 2.8288-0.24708 2.8288-0.50034 2.8288-0.75967 2.8288-1.0251 2.8288-1.2965 2.8288-1.5741 2.8288-1.8577 2.8288-2.1473 2.8288-2.4395 2.8288-2.6926 2.8288-2.8799 2.8288-3.001 2.8288-3.0557 2.8288-3.0442 2.8288-2.9664 2.8288-2.8224 2.8288-2.6121 2.8288-2.3355 2.8288-1.9926 2.8288-1.5834 2.8288-1.108 2.8288-0.56632 2.8288 0.041647 2.8288 0.71588 2.8288 1.4564 2.8288 2.2326 2.8288 2.9409 2.8288 3.5595 2.8288 4.0883 2.8288 4.5274 2.8288 4.8767 2.8288 5.1362 2.8288 5.306 2.8288 5.386 2.8288 5.3762 2.8288 5.2766 2.8288 5.0873 2.8288 4.8083 2.8288 4.4394 2.8288 3.9808 2.8288 3.4325 2.8288 2.7966 2.8288 2.1407 2.8288 1.5429 2.8288 1.0076 2.8288 0.53473 2.8288 0.12432 2.8288-0.22362 2.8288-0.50911 2.8288-0.73214 2.8288-0.89271 2.8288-0.99083 2.8288-1.0265 2.8288-0.99968 2.8288-0.91041 2.8288-0.75869 2.8288-0.54451 2.8288-0.26787 2.8288 0.059934 2.8288 0.36384 2.8288 0.61324 2.8288 0.80803 2.8288 0.94822 2.8288 1.0338 2.8288 1.0648 2.8288 1.0411 2.8288 0.96291 2.8288 0.83007 2.8288 0.64262 2.8288 0.40057 2.8288 0.10391 2.8288-0.24736 2.8288-0.65322 2.8288-1.1137 2.8288-1.6286 2.8288-2.167 2.8288-2.664 2.8288-3.1114 2.8288-3.5093 2.8288-3.8577 2.8288-4.1565 2.8288-4.4058 2.8288-4.6056 2.8288-4.7558 2.8288-4.8564 2.8288-4.9075 2.8288-4.9091 2.8288-4.8611 2.8288-4.7636 2.8288-4.6166 2.8288-4.42 2.8288-4.1738 2.8288-3.8782 2.8288-3.5329 2.8288-3.1382 2.8288-2.6939 2.8288-2.2 2.8288-1.6566 2.8288-1.0637 2.8288-0.42122 2.8288 0.2708 2.8288 1.0124 2.8288 1.8035 2.8288 2.6441 2.8288 3.5343 2.8288 4.474 2.8288 5.4633 2.8288 6.5021v-136.6l-2.8288-4.0147-2.8288-3.433-2.8288-2.8718-2.8288-2.3311-2.8288-1.8108-2.8288-1.311-2.8288-0.83165-2.8288-0.37276-2.8288 0.065669-2.8288 0.48364-2.8288 0.88114-2.8288 1.2582-2.8288 1.6148-2.8288 1.9509-2.8288 2.2665-2.8288 2.5617-2.8288 2.8365-2.8288 3.0907-2.8288 3.3245-2.8288 3.5379-2.8288 3.7308-2.8288 3.9032-2.8288 4.0551-2.8288 4.1866-2.8288 4.2977-2.8288 4.3882-2.8288 4.4584-2.8288 4.508-2.8288 4.5372-2.8288 4.5459-2.8288 4.5342-2.8288 4.502-2.8288 4.4493-2.8288 4.376-2.8288 4.2806-2.8288 4.1624-2.8288 4.0213-2.8288 3.8575-2.8288 3.6708-2.8288 3.4614-2.8288 3.2291-2.8288 2.974-2.8288 2.6961-2.8288 2.3954-2.8288 2.0719-2.8288 1.7256-2.8288 1.3564-2.8288 0.96446-2.8288 0.5497-2.8288 0.11217-2.8288-0.33582-2.8288-0.76408-2.8288-1.1681-2.8288-1.5478-2.8288-1.9032-2.8288-2.2343-2.8288-2.5412-2.8288-2.8238-2.8288-3.0821-2.8288-3.3161-2.8288-3.5259-2.8288-3.7114-2.8288-3.8726-2.8288-4.0095-2.8288-4.1221-2.8288-4.2105-2.8288-4.2747-2.8288-4.3167-2.8288-4.3382-2.8288-4.3393-2.8288-4.3199-2.8288-4.28-2.8288-4.2197-2.8288-4.139-2.8288-4.0378-2.8288-3.9161-2.8288-3.774-2.8288-3.6115-2.8288-3.4285-2.8288-3.2251-2.8288-3.0012-2.8288-2.7569-2.8288-2.4921-2.8288-2.2092-2.8288-1.9196-2.8288-1.6265-2.8288-1.3299-2.8288-1.0299-2.8288-0.72642-2.8288-0.41946-2.8288-0.10904-2.8288 0.20484-2.8288 0.5222-2.8288 0.84301-2.8288 1.1673-2.8288 1.495-2.8288 1.8262-2.8288 2.1609-2.8288 2.4991-2.8288 2.8402-2.8288 3.1593-2.8288 3.4173-2.8288 3.6109-2.8288 3.7401-2.8288 3.8048-2.8288 3.8051-2.8288 3.7409-2.8288 3.6124-2.8288 3.4194-2.8288 3.1619-2.8288 2.8401-2.8288 2.4538-2.8288 2.0031-2.8288 1.488-2.8288 0.9084-2.8288 0.2644-2.8288-0.43423-2.8288-1.0939-2.8288-1.6625-2.8288-2.1396-2.8288-2.5251-2.8288-2.819-2.8288-3.0214-2.8288-3.1322-2.8288-3.1515-2.8288-3.0792-2.8288-2.9153-2.8288-2.6599-2.8288-2.3129-2.8288-1.8744-2.8288-1.3443-2.8288-0.7226-2.8288-0.00942-2.8288 0.7479-2.8288 1.4131-2.8288 1.9618-2.8288 2.394-2.8288 2.7097-2.8288 2.9089-2.8288 2.9916-2.8288 2.9578-2.8288 2.8075-2.8288 2.5407-2.8288 2.1575-2.8288 1.6577-2.8288 1.0415-2.8288 0.30871-2.8288-0.54054-2.8288-1.5063-2.8288-2.5829-2.8288-3.6422-2.8288-4.5558-2.8288-5.3183-2.8288-5.9294-2.8288-6.3894-2.8288-6.6981-2.8288-6.8556-2.8288-6.8619-2.8288-6.7169-2.8288-6.4207-2.8288-5.9733-2.8288-5.3746-2.8288-4.6247-2.8288-3.7236-2.8288-2.6713-2.8288-1.4677-2.8288-0.14662-2.8288 1.1034-2.8288 2.2168-2.8288 3.1934-2.8288 4.0334-2.8288 4.7366-2.8288 5.3032-2.8288 5.733-2.8288 6.0262-2.8288 6.1826-2.8288 6.2023-2.8288 6.0853-2.8288 5.8316-2.8288 5.4412-2.8288 4.914-2.8288 4.2502-2.8288 3.4505-2.8288 2.5894-2.8288 1.8011-2.8288 1.0997-2.8288 0.4851-2.8288-0.042612-2.8288-0.48346-2.8288-0.83745-2.8288-1.1046-2.8288-1.2849-2.8288-1.3783-2.8288-1.3848-2.8288-1.3045-2.8288-1.1373-2.8288-0.88332-2.8288-0.54244-2.8288-0.1147-2.8288 0.39215-2.8288 0.88798-2.8288 1.3146-2.8288 1.6712-2.8288 1.9576-2.8288 2.1738-2.8288 2.3199-2.8288 2.3959-2.8288 2.4017-2.8288 2.3374-2.8288 2.203-2.8288 1.9985-2.8288 1.7238-2.8288 1.3789-2.8288 0.96394-2.8288 0.47883-2.8288-0.076412-2.8288-0.67413-2.8288-1.2206-2.8288-1.6961-2.8288-2.1005-2.8288-2.4339-2.8288-2.6963-2.8288-2.8876-2.8288-3.0079-2.8288-3.0572-2.8288-3.0354-2.8288-2.9426-2.8288-2.7788-2.8288-2.5439-2.8288-2.238-2.8288-1.861-2.8288-1.4131-2.8288-0.89596-2.8288-0.36796-2.8288 0.10363-2.8288 0.51507-2.8288 0.86635-2.8288 1.1575-2.8288 1.3885-2.8288 1.5593-2.8288 1.67-2.8288 1.7205-2.8288 1.7109-2.8288 1.6411-2.8288 1.5111-2.8288 1.321-2.8288 1.0708-2.8288 0.76039-2.8288 0.38984-2.8288-0.031843-2.8288-0.44465-2.8288-0.82411-2.8288-1.1702-2.8288-1.4828-2.8288-1.762-2.8288-2.0078-2.8288-2.2201-2.8288-2.3991-2.8288-2.5446-2.8288-2.6567-2.8288-2.7354-2.8288-2.7807-2.8288-2.7925-2.8288-2.7709-2.8288-2.7159-2.8288-2.6276-2.8288-2.5147-2.8288-2.396-2.8288-2.2736-2.8288-2.1478-2.8288-2.0183-2.8288-1.8853-2.8288-1.7488-2.8288-1.6086-2.8288-1.4649-2.8288-1.3177-2.8288-1.1669-2.8288-1.0125-2.8288-0.8546-2.8288-0.69312-2.8288-0.52807-2.8288-0.35946-2.8288-0.18729-2.8288-0.011555-2.8288 0.16774-2.8288 0.35059-2.8288 0.537-2.8288 0.72698-2.8288 0.92052-2.8288 1.1176-2.8288 1.3183-2.8288 1.5225-2.8288 1.7303-2.8288 1.9416-2.8288 2.1565-2.8288 2.375-2.8288 2.597-2.8288 2.8226-2.8288 3.0517z" clip-path="url(#a)" fill="#7570b3"/>
 <path d="m133.54 71.542v133.58l2.8288-3.0517 2.8288-2.8226 2.8288-2.597 2.8288-2.375 2.8288-2.1565 2.8288-1.9416 2.8288-1.7303 2.8288-1.5225 2.8288-1.3183 2.8288-1.1176 2.8288-0.92052 2.8288-0.72698 2.8288-0.537 2.8288-0.35059 2.8288-0.16774 2.8288 0.011555 2.8288 0.18729 2.8288 0.35946 2.8288 0.52807 2.8288 0.69312 2.8288 0.8546 2.8288 1.0125 2.8288 1.1669 2.8288 1.3177 2.8288 1.4649 2.8288 1.6086 2.8288 1.7488 2.8288 1.8853 2.8288 2.0183 2.8288 2.1478 2.8288 2.2736 2.8288 2.396 2.8288 2.5147 2.8288 2.6276 2.8288 2.7159 2.8288 2.7709 2.8288 2.7925 2.8288 2.7807 2.8288 2.7354 2.8288 2.6567 2.8288 2.5446 2.8288 2.3991 2.8288 2.2201 2.8288 2.0078 2.8288 1.762 2.8288 1.4828 2.8288 1.1702 2.8288 0.82411 2.8288 0.44465 2.8288 0.031843 2.8288-0.38984 2.8288-0.76039 2.8288-1.0708 2.8288-1.321 2.8288-1.5111 2.8288-1.6411 2.8288-1.7109 2.8288-1.7205 2.8288-1.67 2.8288-1.5593 2.8288-1.3885 2.8288-1.1575 2.8288-0.86635 2.8288-0.51507 2.8288-0.10363 2.8288 0.36796 2.8288 0.89596 2.8288 1.4131 2.8288 1.861 2.8288 2.238 2.8288 2.5439 2.8288 2.7788 2.8288 2.9426 2.8288 3.0354 2.8288 3.0572 2.8288 3.0079 2.8288 2.8876 2.8288 2.6963 2.8288 2.4339 2.8288 2.1005 2.8288 1.6961 2.8288 1.2206 2.8288 0.67413 2.8288 0.076412 2.8288-0.47883 2.8288-0.96394 2.8288-1.3789 2.8288-1.7238 2.8288-1.9985 2.8288-2.203 2.8288-2.3374 2.8288-2.4017 2.8288-2.3959 2.8288-2.3199 2.8288-2.1738 2.8288-1.9576 2.8288-1.6712 2.8288-1.3146 2.8288-0.88798 2.8288-0.39215 2.8288 0.1147 2.8288 0.54244 2.8288 0.88332 2.8288 1.1373 2.8288 1.3045 2.8288 1.3848 2.8288 1.3783 2.8288 1.2849 2.8288 1.1046 2.8288 0.83745 2.8288 0.48346 2.8288 0.042612 2.8288-0.4851 2.8288-1.0997 2.8288-1.8011 2.8288-2.5894 2.8288-3.4505 2.8288-4.2502 2.8288-4.914 2.8288-5.4412 2.8288-5.8316 2.8288-6.0853 2.8288-6.2023 2.8288-6.1826 2.8288-6.0262 2.8288-5.733 2.8288-5.3032 2.8288-4.7366 2.8288-4.0334 2.8288-3.1934 2.8288-2.2168 2.8288-1.1034 2.8288 0.14662 2.8288 1.4677 2.8288 2.6713 2.8288 3.7236 2.8288 4.6247 2.8288 5.3746 2.8288 5.9733 2.8288 6.4207 2.8288 6.7169 2.8288 6.8619 2.8288 6.8556 2.8288 6.6981 2.8288 6.3894 2.8288 5.9294 2.8288 5.3183 2.8288 4.5558 2.8288 3.6422 2.8288 2.5829 2.8288 1.5063 2.8288 0.54054 2.8288-0.30871 2.8288-1.0415 2.8288-1.6577 2.8288-2.1575 2.8288-2.5407 2.8288-2.8075 2.8288-2.9578 2.8288-2.9916 2.8288-2.9089 2.8288-2.7097 2.8288-2.394 2.8288-1.9618 2.8288-1.4131 2.8288-0.7479 2.8288 0.00942 2.8288 0.7226 2.8288 1.3443 2.8288 1.8744 2.8288 2.3129 2.8288 2.6599 2.8288 2.9153 2.8288 3.0792 2.8288 3.1515 2.8288 3.1322 2.8288 3.0214 2.8288 2.819 2.8288 2.5251 2.8288 2.1396 2.8288 1.6625 2.8288 1.0939 2.8288 0.43423 2.8288-0.2644 2.8288-0.9084 2.8288-1.488 2.8288-2.0031 2.8288-2.4538 2.8288-2.8401 2.8288-3.1619 2.8288-3.4194 2.8288-3.6124 2.8288-3.7409 2.8288-3.8051 2.8288-3.8048 2.8288-3.7401 2.8288-3.6109 2.8288-3.4173 2.8288-3.1593 2.8288-2.8402 2.8288-2.4991 2.8288-2.1609 2.8288-1.8262 2.8288-1.495 2.8288-1.1673 2.8288-0.84301 2.8288-0.5222 2.8288-0.20484 2.8288 0.10904 2.8288 0.41946 2.8288 0.72642 2.8288 1.0299 2.8288 1.3299 2.8288 1.6265 2.8288 1.9196 2.8288 2.2092 2.8288 2.4921 2.8288 2.7569 2.8288 3.0012 2.8288 3.2251 2.8288 3.4285 2.8288 3.6115 2.8288 3.774 2.8288 3.9161 2.8288 4.0378 2.8288 4.139 2.8288 4.2197 2.8288 4.28 2.8288 4.3199 2.8288 4.3393 2.8288 4.3382 2.8288 4.3167 2.8288 4.2747 2.8288 4.2105 2.8288 4.1221 2.8288 4.0095 2.8288 3.8726 2.8288 3.7114 2.8288 3.5259 2.8288 3.3161 2.8288 3.0821 2.8288 2.8238 2.8288 2.5412 2.8288 2.2343 2.8288 1.9032 2.8288 1.5478 2.8288 1.1681 2.8288 0.76408 2.8288 0.33582 2.8288-0.11217 2.8288-0.5497 2.8288-0.96446 2.8288-1.3564 2.8288-1.7256 2.8288-2.0719 2.8288-2.3954 2.8288-2.6961 2.8288-2.974 2.8288-3.2291 2.8288-3.4614 2.8288-3.6708 2.8288-3.8575 2.8288-4.0213 2.8288-4.1624 2.8288-4.2806 2.8288-4.376 2.8288-4.4493 2.8288-4.502 2.8288-4.5342 2.8288-4.5459 2.8288-4.5372 2.8288-4.508 2.8288-4.4584 2.8288-4.3882 2.8288-4.2977 2.8288-4.1866 2.8288-4.0551 2.8288-3.9032 2.8288-3.7308 2.8288-3.5379 2.8288-3.3245 2.8288-3.0907 2.8288-2.8365 2.8288-2.5617 2.8288-2.2665 2.8288-1.9509 2.8288-1.6148 2.8288-1.2582 2.8288-0.88114 2.8288-0.48364 2.8288-0.065669 2.8288 0.37276 2.8288 0.83165 2.8288 1.311 2.8288 1.8108 2.8288 2.3311 2.8288 2.8718 2.8288 3.433 2.8288 4.0147v-135.58h-2.8288-2.8288-2.8288-2.8288-2.8288-2.8288-2.8288-2.8288-2.8288-2.8288-2.8288-2.8288-2.8288-2.8288-2.8288-2.8288-2.8288-2.8288-2.8288-2.8288-2.8288-2.8288-2.8288-2.8288-2.8288-2.8288-2.8288-2.8288-2.8288-2.8288-2.8288-2.8288-2.8288-2.8288-2.8288-2.8288-2.8288-2.8288-2.8288-2.8288-2.8288-2.8288-2.8288-2.8288-2.8288-2.8288-2.8288-2.8288-2.8288-2.8288-2.8288-2.8288-2.8288-2.8288-2.8288-2.8288-2.8288-2.8288-2.8288-2.8288-2.8288-2.8288-2.8288-2.8288-2.8288-2.8288-2.8288-2.8288-2.8288-2.8288-2.8288-2.8288-2.8288-2.8288-2.8288-2.8288-2.8288-2.8288-2.8288-2.8288-2.8288-2.8288-2.8288-2.8288-2.8288-2.8288-2.8288-2.8288-2.8288-2.8288-2.8288-2.8288-2.8288-2.8288-2.8288-2.8288-2.8288-2.8288-2.8288-2.8288-2.8288-2.8288-2.8288-2.8288-2.8288-2.8288-2.8288-2.8288-2.8288-2.8288-2.8288-2.8288-2.8288-2.8288-2.8288-2.8288-2.8288-2.8288-2.8288-2.8288-2.8288-2.8288-2.8288-2.8288-2.8288-2.8288-2.8288-2.8288-2.8288-2.8288-2.8288-2.8288-2.8288-2.8288-2.8288-2.8288-2.8288-2.8288-2.8288-2.8288-2.8288-2.8288-2.8288-2.8288-2.8288-2.8288-2.8288-2.8288-2.8288-2.8288-2.8288-2.8288-2.8288-2.8288-2.8288-2.8288-2.8288-2.8288-2.8288-2.8288-2.8288-2.8288-2.8288-2.8288-2.8288-2.8288-2.8288-2.8288-2.8288-2.8288-2.8288-2.8288-2.8288-2.8288-2.8288-2.8288-2.8288-2.8288-2.8288-2.8288-2.8288-2.8288-2.8288-2.8288-2.8288-2.8288-2.8288-2.8288-2.8288-2.8288-2.8288-2.8288-2.8288-2.8288-2.8288-2.8288-2.8288-2.8288-2.8288-2.8288-2.8288-2.8288-2.8288-2.8288-2.8288-2.8288-2.8288-2.8288-2.8288-2.8288-2.8288-2.8288-2.8288-2.8288-2.8288-2.8288-2.8288-2.8288-2.8288-2.8288-2.8288-2.8288-2.8288-2.8288-2.8288-2.8288-2.8288-2.8288-2.8288-2.8288-2.8288-2.8288-2.8288-2.8288-2.8288-2.8288-2.8288-2.8288-2.8288-2.8288-2.8288-2.8288-2.8288-2.8288-2.8288-2.8288-2.8288-2.8288-2.8288-2.8288-2.8288-2.8288-2.8288-2.8288-2.8288-2.8288-2.8288-2.8288-2.8288-2.8288-2.8288-2.8288-2.8288-2.8288-2.8288-2.8288-2.8288-2.8288-2.8288-2.8288-2.8288-2.8288-2.8288-2.8288-2.8288-2.8288-2.8288-2.8288-2.8288-2.8288-2.8288-2.8288-2.8288-2.8288-2.8288-2.8288-2.8288-2.8288-2.8288-2.8288-2.8288-2.8288-2.8288-2.8288-2.8288-2.8288-2.8288-2.8288-2.8288z" clip-path="url(#a)" fill="#c7eae5"/>
 <path d="m133.54 493.94v-443.52" clip-path="url(#a)" fill="none" stroke="#fff" stroke-linecap="square" stroke-opacity=".3" stroke-width=".75"/>
 <defs>
  <path id="b" d="m0 0v3.5" stroke="#000" stroke-width=".8"/>
 </defs>
 <use x="133.535987" y="493.9424" stroke="#000000" stroke-width=".8" xlink:href="#b"/>
 <text transform="translate(140.16 644.42) rotate(-90)" fill="#767676" font-family="'DejaVu Sans', 'Bitstream Vera Sans', 'Computer Modern Sans Serif', 'Lucida Grande', 'Verdana', 'Geneva', 'Lucid', 'Arial', 'Helvetica', 'Avant Garde', sans-serif" font-size="24px" font-weight="600">sept. 2006</text>
 <path d="m180.53 493.94v-443.52" clip-path="url(#a)" fill="none" stroke="#fff" stroke-linecap="square" stroke-opacity=".3" stroke-width=".75"/>
 <use x="180.525461" y="493.9424" stroke="#000000" stroke-width=".8" xlink:href="#b"/>
 <text transform="translate(187.15 644.42) rotate(-90)" fill="#767676" font-family="'DejaVu Sans', 'Bitstream Vera Sans', 'Computer Modern Sans Serif', 'Lucida Grande', 'Verdana', 'Geneva', 'Lucid', 'Arial', 'Helvetica', 'Avant Garde', sans-serif" font-size="24px" font-weight="600">sept. 2007</text>
 <path d="m227.51 493.94v-443.52" clip-path="url(#a)" fill="none" stroke="#fff" stroke-linecap="square" stroke-opacity=".3" stroke-width=".75"/>
 <use x="227.514934" y="493.9424" stroke="#000000" stroke-width=".8" xlink:href="#b"/>
 <text transform="translate(234.14 644.42) rotate(-90)" fill="#767676" font-family="'DejaVu Sans', 'Bitstream Vera Sans', 'Computer Modern Sans Serif', 'Lucida Grande', 'Verdana', 'Geneva', 'Lucid', 'Arial', 'Helvetica', 'Avant Garde', sans-serif" font-size="24px" font-weight="600">sept. 2008</text>
 <path d="m274.5 493.94v-443.52" clip-path="url(#a)" fill="none" stroke="#fff" stroke-linecap="square" stroke-opacity=".3" stroke-width=".75"/>
 <use x="274.504408" y="493.9424" stroke="#000000" stroke-width=".8" xlink:href="#b"/>
 <text transform="translate(281.13 644.42) rotate(-90)" fill="#767676" font-family="'DejaVu Sans', 'Bitstream Vera Sans', 'Computer Modern Sans Serif', 'Lucida Grande', 'Verdana', 'Geneva', 'Lucid', 'Arial', 'Helvetica', 'Avant Garde', sans-serif" font-size="24px" font-weight="600">sept. 2009</text>
 <path d="m321.49 493.94v-443.52" clip-path="url(#a)" fill="none" stroke="#fff" stroke-linecap="square" stroke-opacity=".3" stroke-width=".75"/>
 <use x="321.493882" y="493.9424" stroke="#000000" stroke-width=".8" xlink:href="#b"/>
 <text transform="translate(328.12 644.42) rotate(-90)" fill="#767676" font-family="'DejaVu Sans', 'Bitstream Vera Sans', 'Computer Modern Sans Serif', 'Lucida Grande', 'Verdana', 'Geneva', 'Lucid', 'Arial', 'Helvetica', 'Avant Garde', sans-serif" font-size="24px" font-weight="600">sept. 2010</text>
 <path d="m368.48 493.94v-443.52" clip-path="url(#a)" fill="none" stroke="#fff" stroke-linecap="square" stroke-opacity=".3" stroke-width=".75"/>
 <use x="368.483355" y="493.9424" stroke="#000000" stroke-width=".8" xlink:href="#b"/>
 <text transform="translate(375.11 644.42) rotate(-90)" fill="#767676" font-family="'DejaVu Sans', 'Bitstream Vera Sans', 'Computer Modern Sans Serif', 'Lucida Grande', 'Verdana', 'Geneva', 'Lucid', 'Arial', 'Helvetica', 'Avant Garde', sans-serif" font-size="24px" font-weight="600">sept. 2011</text>
 <path d="m415.47 493.94v-443.52" clip-path="url(#a)" fill="none" stroke="#fff" stroke-linecap="square" stroke-opacity=".3" stroke-width=".75"/>
 <use x="415.472829" y="493.9424" stroke="#000000" stroke-width=".8" xlink:href="#b"/>
 <text transform="translate(422.1 644.42) rotate(-90)" fill="#767676" font-family="'DejaVu Sans', 'Bitstream Vera Sans', 'Computer Modern Sans Serif', 'Lucida Grande', 'Verdana', 'Geneva', 'Lucid', 'Arial', 'Helvetica', 'Avant Garde', sans-serif" font-size="24px" font-weight="600">sept. 2012</text>
 <path d="m462.46 493.94v-443.52" clip-path="url(#a)" fill="none" stroke="#fff" stroke-linecap="square" stroke-opacity=".3" stroke-width=".75"/>
 <use x="462.462303" y="493.9424" stroke="#000000" stroke-width=".8" xlink:href="#b"/>
 <text transform="translate(469.08 644.42) rotate(-90)" fill="#767676" font-family="'DejaVu Sans', 'Bitstream Vera Sans', 'Computer Modern Sans Serif', 'Lucida Grande', 'Verdana', 'Geneva', 'Lucid', 'Arial', 'Helvetica', 'Avant Garde', sans-serif" font-size="24px" font-weight="600">sept. 2013</text>
 <path d="m509.45 493.94v-443.52" clip-path="url(#a)" fill="none" stroke="#fff" stroke-linecap="square" stroke-opacity=".3" stroke-width=".75"/>
 <use x="509.451776" y="493.9424" stroke="#000000" stroke-width=".8" xlink:href="#b"/>
 <text transform="translate(516.07 644.42) rotate(-90)" fill="#767676" font-family="'DejaVu Sans', 'Bitstream Vera Sans', 'Computer Modern Sans Serif', 'Lucida Grande', 'Verdana', 'Geneva', 'Lucid', 'Arial', 'Helvetica', 'Avant Garde', sans-serif" font-size="24px" font-weight="600">sept. 2014</text>
 <path d="m556.44 493.94v-443.52" clip-path="url(#a)" fill="none" stroke="#fff" stroke-linecap="square" stroke-opacity=".3" stroke-width=".75"/>
 <use x="556.44125" y="493.9424" stroke="#000000" stroke-width=".8" xlink:href="#b"/>
 <text transform="translate(563.06 644.42) rotate(-90)" fill="#767676" font-family="'DejaVu Sans', 'Bitstream Vera Sans', 'Computer Modern Sans Serif', 'Lucida Grande', 'Verdana', 'Geneva', 'Lucid', 'Arial', 'Helvetica', 'Avant Garde', sans-serif" font-size="24px" font-weight="600">sept. 2015</text>
 <path d="m603.43 493.94v-443.52" clip-path="url(#a)" fill="none" stroke="#fff" stroke-linecap="square" stroke-opacity=".3" stroke-width=".75"/>
 <use x="603.430724" y="493.9424" stroke="#000000" stroke-width=".8" xlink:href="#b"/>
 <text transform="translate(610.05 644.42) rotate(-90)" fill="#767676" font-family="'DejaVu Sans', 'Bitstream Vera Sans', 'Computer Modern Sans Serif', 'Lucida Grande', 'Verdana', 'Geneva', 'Lucid', 'Arial', 'Helvetica', 'Avant Garde', sans-serif" font-size="24px" font-weight="600">sept. 2016</text>
 <path d="m650.42 493.94v-443.52" clip-path="url(#a)" fill="none" stroke="#fff" stroke-linecap="square" stroke-opacity=".3" stroke-width=".75"/>
 <use x="650.420197" y="493.9424" stroke="#000000" stroke-width=".8" xlink:href="#b"/>
 <text transform="translate(657.04 644.42) rotate(-90)" fill="#767676" font-family="'DejaVu Sans', 'Bitstream Vera Sans', 'Computer Modern Sans Serif', 'Lucida Grande', 'Verdana', 'Geneva', 'Lucid', 'Arial', 'Helvetica', 'Avant Garde', sans-serif" font-size="24px" font-weight="600">sept. 2017</text>
 <path d="m697.41 493.94v-443.52" clip-path="url(#a)" fill="none" stroke="#fff" stroke-linecap="square" stroke-opacity=".3" stroke-width=".75"/>
 <use x="697.409671" y="493.9424" stroke="#000000" stroke-width=".8" xlink:href="#b"/>
 <text transform="translate(704.03 644.42) rotate(-90)" fill="#767676" font-family="'DejaVu Sans', 'Bitstream Vera Sans', 'Computer Modern Sans Serif', 'Lucida Grande', 'Verdana', 'Geneva', 'Lucid', 'Arial', 'Helvetica', 'Avant Garde', sans-serif" font-size="24px" font-weight="600">sept. 2018</text>
 <path d="m744.4 493.94v-443.52" clip-path="url(#a)" fill="none" stroke="#fff" stroke-linecap="square" stroke-opacity=".3" stroke-width=".75"/>
 <use x="744.399145" y="493.9424" stroke="#000000" stroke-width=".8" xlink:href="#b"/>
 <text transform="translate(751.02 634.83) rotate(-90)" fill="#767676" font-family="'DejaVu Sans', 'Bitstream Vera Sans', 'Computer Modern Sans Serif', 'Lucida Grande', 'Verdana', 'Geneva', 'Lucid', 'Arial', 'Helvetica', 'Avant Garde', sans-serif" font-size="24px" font-weight="600">mar. 2020</text>
 <path d="m791.39 493.94v-443.52" clip-path="url(#a)" fill="none" stroke="#fff" stroke-linecap="square" stroke-opacity=".3" stroke-width=".75"/>
 <use x="791.388618" y="493.9424" stroke="#000000" stroke-width=".8" xlink:href="#b"/>
 <text transform="translate(798.01 644.42) rotate(-90)" fill="#767676" font-family="'DejaVu Sans', 'Bitstream Vera Sans', 'Computer Modern Sans Serif', 'Lucida Grande', 'Verdana', 'Geneva', 'Lucid', 'Arial', 'Helvetica', 'Avant Garde', sans-serif" font-size="24px" font-weight="600">sept. 2020</text>
 <path d="m838.38 493.94v-443.52" clip-path="url(#a)" fill="none" stroke="#fff" stroke-linecap="square" stroke-opacity=".3" stroke-width=".75"/>
 <use x="838.378092" y="493.9424" stroke="#000000" stroke-width=".8" xlink:href="#b"/>
 <text transform="translate(845 644.42) rotate(-90)" fill="#767676" font-family="'DejaVu Sans', 'Bitstream Vera Sans', 'Computer Modern Sans Serif', 'Lucida Grande', 'Verdana', 'Geneva', 'Lucid', 'Arial', 'Helvetica', 'Avant Garde', sans-serif" font-size="24px" font-weight="600">sept. 2021</text>
 <path d="m885.37 493.94v-443.52" clip-path="url(#a)" fill="none" stroke="#fff" stroke-linecap="square" stroke-opacity=".3" stroke-width=".75"/>
 <use x="885.367566" y="493.9424" stroke="#000000" stroke-width=".8" xlink:href="#b"/>
 <text transform="translate(891.99 644.42) rotate(-90)" fill="#767676" font-family="'DejaVu Sans', 'Bitstream Vera Sans', 'Computer Modern Sans Serif', 'Lucida Grande', 'Verdana', 'Geneva', 'Lucid', 'Arial', 'Helvetica', 'Avant Garde', sans-serif" font-size="24px" font-weight="600">sept. 2022</text>
 <path d="m932.36 493.94v-443.52" clip-path="url(#a)" fill="none" stroke="#fff" stroke-linecap="square" stroke-opacity=".3" stroke-width=".75"/>
 <use x="932.357039" y="493.9424" stroke="#000000" stroke-width=".8" xlink:href="#b"/>
 <text transform="translate(938.98 644.42) rotate(-90)" fill="#767676" font-family="'DejaVu Sans', 'Bitstream Vera Sans', 'Computer Modern Sans Serif', 'Lucida Grande', 'Verdana', 'Geneva', 'Lucid', 'Arial', 'Helvetica', 'Avant Garde', sans-serif" font-size="24px" font-weight="600">sept. 2023</text>
 <path d="m979.35 493.94v-443.52" clip-path="url(#a)" fill="none" stroke="#fff" stroke-linecap="square" stroke-opacity=".3" stroke-width=".75"/>
 <use x="979.346513" y="493.9424" stroke="#000000" stroke-width=".8" xlink:href="#b"/>
 <text transform="translate(985.97 644.42) rotate(-90)" fill="#767676" font-family="'DejaVu Sans', 'Bitstream Vera Sans', 'Computer Modern Sans Serif', 'Lucida Grande', 'Verdana', 'Geneva', 'Lucid', 'Arial', 'Helvetica', 'Avant Garde', sans-serif" font-size="24px" font-weight="600">sept. 2024</text>
 <path d="m110.04 493.94h892.8" clip-path="url(#a)" fill="none" stroke="#fff" stroke-linecap="square" stroke-opacity=".8" stroke-width="1.25"/>
 <defs>
  <path id="c" d="m0 0h-3.5" stroke="#000" stroke-width=".8"/>
 </defs>
 <use x="110.04125" y="493.9424" stroke="#000000" stroke-width=".8" xlink:href="#c"/>
 <text transform="rotate(-0 103.04 503.06)" x="103.04125" y="503.060525" fill="#767676" font-family="'DejaVu Sans', 'Bitstream Vera Sans', 'Computer Modern Sans Serif', 'Lucida Grande', 'Verdana', 'Geneva', 'Lucid', 'Arial', 'Helvetica', 'Avant Garde', sans-serif" font-size="24px" font-weight="500" text-anchor="end">0%</text>
 <path d="m110.04 388.34h892.8" clip-path="url(#a)" fill="none" stroke="#fff" stroke-linecap="square" stroke-opacity=".8" stroke-width="1.25"/>
 <use x="110.04125" y="388.3424" stroke="#000000" stroke-width=".8" xlink:href="#c"/>
 <text transform="rotate(-0 103.04 397.46)" x="103.04125" y="397.460525" fill="#767676" font-family="'DejaVu Sans', 'Bitstream Vera Sans', 'Computer Modern Sans Serif', 'Lucida Grande', 'Verdana', 'Geneva', 'Lucid', 'Arial', 'Helvetica', 'Avant Garde', sans-serif" font-size="24px" font-weight="500" text-anchor="end">25%</text>
 <path d="m110.04 282.74h892.8" clip-path="url(#a)" fill="none" stroke="#fff" stroke-linecap="square" stroke-opacity=".8" stroke-width="1.25"/>
 <use x="110.04125" y="282.7424" stroke="#000000" stroke-width=".8" xlink:href="#c"/>
 <text transform="rotate(-0 103.04 291.86)" x="103.04125" y="291.860525" fill="#767676" font-family="'DejaVu Sans', 'Bitstream Vera Sans', 'Computer Modern Sans Serif', 'Lucida Grande', 'Verdana', 'Geneva', 'Lucid', 'Arial', 'Helvetica', 'Avant Garde', sans-serif" font-size="24px" font-weight="500" text-anchor="end">50%</text>
 <path d="m110.04 177.14h892.8" clip-path="url(#a)" fill="none" stroke="#fff" stroke-linecap="square" stroke-opacity=".8" stroke-width="1.25"/>
 <use x="110.04125" y="177.1424" stroke="#000000" stroke-width=".8" xlink:href="#c"/>
 <text transform="rotate(-0 103.04 186.26)" x="103.04125" y="186.260525" fill="#767676" font-family="'DejaVu Sans', 'Bitstream Vera Sans', 'Computer Modern Sans Serif', 'Lucida Grande', 'Verdana', 'Geneva', 'Lucid', 'Arial', 'Helvetica', 'Avant Garde', sans-serif" font-size="24px" font-weight="500" text-anchor="end">75%</text>
 <path d="m110.04 71.542h892.8" clip-path="url(#a)" fill="none" stroke="#fff" stroke-linecap="square" stroke-opacity=".8" stroke-width="1.25"/>
 <use x="110.04125" y="71.5424" stroke="#000000" stroke-width=".8" xlink:href="#c"/>
 <text transform="rotate(-0 103.04 80.661)" x="103.04125" y="80.660525" fill="#767676" font-family="'DejaVu Sans', 'Bitstream Vera Sans', 'Computer Modern Sans Serif', 'Lucida Grande', 'Verdana', 'Geneva', 'Lucid', 'Arial', 'Helvetica', 'Avant Garde', sans-serif" font-size="24px" font-weight="500" text-anchor="end">100%</text>
 <text transform="rotate(-90 25.436 272.18)" x="25.43625" y="272.1824" fill="#767676" font-family="'DejaVu Sans', 'Bitstream Vera Sans', 'Computer Modern Sans Serif', 'Lucida Grande', 'Verdana', 'Geneva', 'Lucid', 'Arial', 'Helvetica', 'Avant Garde', sans-serif" font-size="24px" font-weight="500" text-anchor="middle">Porcentaje</text>
 <path d="m110.04 493.94h892.8" fill="none" stroke="#000" stroke-linecap="square" stroke-width="2"/>
 <path d="m189.75 452.26h28.531q20 0 20-20v-3.3562q0-20-20-20h-28.531q-20 0-20 20v3.3562q0 20 20 20z" fill="#fff" stroke="#d9d9d9" stroke-width="1.8"/>
 <text transform="rotate(-0 204.02 436.1)" x="204.020197" y="436.10115" fill="#10302c" font-family="'DejaVu Sans', 'Bitstream Vera Sans', 'Computer Modern Sans Serif', 'Lucida Grande', 'Verdana', 'Geneva', 'Lucid', 'Arial', 'Helvetica', 'Avant Garde', sans-serif" font-size="20px" font-weight="500" text-anchor="middle">5.95</text>
 <path d="m471.69 325.54h28.531q20 0 20-20v-3.3562q0-20-20-20h-28.531q-20 0-20 20v3.3562q0 20 20 20z" fill="#fff" stroke="#d9d9d9" stroke-width="1.8"/>
 <text transform="rotate(-0 485.96 309.38)" x="485.957039" y="309.38115" fill="#10302c" font-family="'DejaVu Sans', 'Bitstream Vera Sans', 'Computer Modern Sans Serif', 'Lucida Grande', 'Verdana', 'Geneva', 'Lucid', 'Arial', 'Helvetica', 'Avant Garde', sans-serif" font-size="20px" font-weight="500" text-anchor="middle">5.92</text>
 <path d="m753.63 156.58h28.531q20 0 20-20v-3.3562q0-20-20-20h-28.531q-20 0-20 20v3.3562q0 20 20 20z" fill="#fff" stroke="#d9d9d9" stroke-width="1.8"/>
 <text transform="rotate(-0 767.89 140.42)" x="767.893882" y="140.42115" fill="#10302c" font-family="'DejaVu Sans', 'Bitstream Vera Sans', 'Computer Modern Sans Serif', 'Lucida Grande', 'Verdana', 'Geneva', 'Lucid', 'Arial', 'Helvetica', 'Avant Garde', sans-serif" font-size="20px" font-weight="500" text-anchor="middle">7.13</text>
 <path d="m223.64 31.197h40v-14h-40z" fill="#215f53"/>
 <text transform="rotate(-0 279.64 31.197)" x="279.635" y="31.196875" font-family="'DejaVu Sans', 'Bitstream Vera Sans', 'Computer Modern Sans Serif', 'Lucida Grande', 'Verdana', 'Geneva', 'Lucid', 'Arial', 'Helvetica', 'Avant Garde', sans-serif" font-size="20px" font-weight="500">Comisiones</text>
 <path d="m434.49 31.197h40v-14h-40z" fill="#7570b3"/>
 <text transform="rotate(-0 490.49 31.197)" x="490.488125" y="31.196875" font-family="'DejaVu Sans', 'Bitstream Vera Sans', 'Computer Modern Sans Serif', 'Lucida Grande', 'Verdana', 'Geneva', 'Lucid', 'Arial', 'Helvetica', 'Avant Garde', sans-serif" font-size="20px" font-weight="500">Fiscalías y Procuradurías</text>
 <path d="m775.8 31.197h40v-14h-40z" fill="#c7eae5"/>
 <text transform="rotate(-0 831.8 31.197)" x="831.800625" y="31.196875" font-family="'DejaVu Sans', 'Bitstream Vera Sans', 'Computer Modern Sans Serif', 'Lucida Grande', 'Verdana', 'Geneva', 'Lucid', 'Arial', 'Helvetica', 'Avant Garde', sans-serif" font-size="20px" font-weight="500">Portal</text>
 <defs>
  <clipPath id="a">
   <rect x="110.04" y="50.422" width="892.8" height="443.52"/>
  </clipPath>
 </defs>
</svg>
