<?xml version="1.0" encoding="utf-8" standalone="no"?>
<!DOCTYPE svg PUBLIC "-//W3C//DTD SVG 1.1//EN"
  "http://www.w3.org/Graphics/SVG/1.1/DTD/svg11.dtd">
<svg xmlns:xlink="http://www.w3.org/1999/xlink" width="1010.04125pt" height="651.62115pt" viewBox="0 0 1010.04125 651.62115" xmlns="http://www.w3.org/2000/svg" version="1.1">
 <metadata>
  <rdf:RDF xmlns:dc="http://purl.org/dc/elements/1.1/" xmlns:cc="http://creativecommons.org/ns#" xmlns:rdf="http://www.w3.org/1999/02/22-rdf-syntax-ns#">
   <cc:Work>
    <dc:type rdf:resource="http://purl.org/dc/dcmitype/StillImage"/>
    <dc:date>2025-05-28T14:06:24.367446</dc:date>
    <dc:format>image/svg+xml</dc:format>
    <dc:creator>
     <cc:Agent>
      <dc:title>Matplotlib v3.10.0, https://matplotlib.org/</dc:title>
     </cc:Agent>
    </dc:creator>
   </cc:Work>
  </rdf:RDF>
 </metadata>
 <defs>
  <style type="text/css">*{stroke-linejoin: round; stroke-linecap: butt}</style>
 </defs>
 <g id="figure_1">
  <g id="patch_1">
   <path d="M 0 651.62115 
L 1010.04125 651.62115 
L 1010.04125 0 
L 0 0 
z
" style="fill: #ffffff"/>
  </g>
  <g id="axes_1">
   <g id="patch_2">
    <path d="M 110.04125 493.9424 
L 1002.84125 493.9424 
L 1002.84125 50.4224 
L 110.04125 50.4224 
z
" style="fill: #ffffff"/>
   </g>
   <g id="FillBetweenPolyCollection_1">
    <path d="M 133.535987 363.098635 
L 133.535987 493.9424 
L 136.364785 493.9424 
L 139.193582 493.9424 
L 142.02238 493.9424 
L 144.851178 493.9424 
L 147.679976 493.9424 
L 150.508773 493.9424 
L 153.337571 493.9424 
L 156.166369 493.9424 
L 158.995167 493.9424 
L 161.823964 493.9424 
L 164.652762 493.9424 
L 167.48156 493.9424 
L 170.310358 493.9424 
L 173.139155 493.9424 
L 175.967953 493.9424 
L 178.796751 493.9424 
L 181.625549 493.9424 
L 184.454346 493.9424 
L 187.283144 493.9424 
L 190.111942 493.9424 
L 192.94074 493.9424 
L 195.769537 493.9424 
L 198.598335 493.9424 
L 201.427133 493.9424 
L 204.255931 493.9424 
L 207.084728 493.9424 
L 209.913526 493.9424 
L 212.742324 493.9424 
L 215.571122 493.9424 
L 218.399919 493.9424 
L 221.228717 493.9424 
L 224.057515 493.9424 
L 226.886312 493.9424 
L 229.71511 493.9424 
L 232.543908 493.9424 
L 235.372706 493.9424 
L 238.201503 493.9424 
L 241.030301 493.9424 
L 243.859099 493.9424 
L 246.687897 493.9424 
L 249.516694 493.9424 
L 252.345492 493.9424 
L 255.17429 493.9424 
L 258.003088 493.9424 
L 260.831885 493.9424 
L 263.660683 493.9424 
L 266.489481 493.9424 
L 269.318279 493.9424 
L 272.147076 493.9424 
L 274.975874 493.9424 
L 277.804672 493.9424 
L 280.63347 493.9424 
L 283.462267 493.9424 
L 286.291065 493.9424 
L 289.119863 493.9424 
L 291.948661 493.9424 
L 294.777458 493.9424 
L 297.606256 493.9424 
L 300.435054 493.9424 
L 303.263852 493.9424 
L 306.092649 493.9424 
L 308.921447 493.9424 
L 311.750245 493.9424 
L 314.579043 493.9424 
L 317.40784 493.9424 
L 320.236638 493.9424 
L 323.065436 493.9424 
L 325.894234 493.9424 
L 328.723031 493.9424 
L 331.551829 493.9424 
L 334.380627 493.9424 
L 337.209425 493.9424 
L 340.038222 493.9424 
L 342.86702 493.9424 
L 345.695818 493.9424 
L 348.524616 493.9424 
L 351.353413 493.9424 
L 354.182211 493.9424 
L 357.011009 493.9424 
L 359.839807 493.9424 
L 362.668604 493.9424 
L 365.497402 493.9424 
L 368.3262 493.9424 
L 371.154998 493.9424 
L 373.983795 493.9424 
L 376.812593 493.9424 
L 379.641391 493.9424 
L 382.470189 493.9424 
L 385.298986 493.9424 
L 388.127784 493.9424 
L 390.956582 493.9424 
L 393.78538 493.9424 
L 396.614177 493.9424 
L 399.442975 493.9424 
L 402.271773 493.9424 
L 405.100571 493.9424 
L 407.929368 493.9424 
L 410.758166 493.9424 
L 413.586964 493.9424 
L 416.415762 493.9424 
L 419.244559 493.9424 
L 422.073357 493.9424 
L 424.902155 493.9424 
L 427.730953 493.9424 
L 430.55975 493.9424 
L 433.388548 493.9424 
L 436.217346 493.9424 
L 439.046144 493.9424 
L 441.874941 493.9424 
L 444.703739 493.9424 
L 447.532537 493.9424 
L 450.361334 493.9424 
L 453.190132 493.9424 
L 456.01893 493.9424 
L 458.847728 493.9424 
L 461.676525 493.9424 
L 464.505323 493.9424 
L 467.334121 493.9424 
L 470.162919 493.9424 
L 472.991716 493.9424 
L 475.820514 493.9424 
L 478.649312 493.9424 
L 481.47811 493.9424 
L 484.306907 493.9424 
L 487.135705 493.9424 
L 489.964503 493.9424 
L 492.793301 493.9424 
L 495.622098 493.9424 
L 498.450896 493.9424 
L 501.279694 493.9424 
L 504.108492 493.9424 
L 506.937289 493.9424 
L 509.766087 493.9424 
L 512.594885 493.9424 
L 515.423683 493.9424 
L 518.25248 493.9424 
L 521.081278 493.9424 
L 523.910076 493.9424 
L 526.738874 493.9424 
L 529.567671 493.9424 
L 532.396469 493.9424 
L 535.225267 493.9424 
L 538.054065 493.9424 
L 540.882862 493.9424 
L 543.71166 493.9424 
L 546.540458 493.9424 
L 549.369256 493.9424 
L 552.198053 493.9424 
L 555.026851 493.9424 
L 557.855649 493.9424 
L 560.684447 493.9424 
L 563.513244 493.9424 
L 566.342042 493.9424 
L 569.17084 493.9424 
L 571.999638 493.9424 
L 574.828435 493.9424 
L 577.657233 493.9424 
L 580.486031 493.9424 
L 583.314829 493.9424 
L 586.143626 493.9424 
L 588.972424 493.9424 
L 591.801222 493.9424 
L 594.63002 493.9424 
L 597.458817 493.9424 
L 600.287615 493.9424 
L 603.116413 493.9424 
L 605.945211 493.9424 
L 608.774008 493.9424 
L 611.602806 493.9424 
L 614.431604 493.9424 
L 617.260402 493.9424 
L 620.089199 493.9424 
L 622.917997 493.9424 
L 625.746795 493.9424 
L 628.575593 493.9424 
L 631.40439 493.9424 
L 634.233188 493.9424 
L 637.061986 493.9424 
L 639.890784 493.9424 
L 642.719581 493.9424 
L 645.548379 493.9424 
L 648.377177 493.9424 
L 651.205975 493.9424 
L 654.034772 493.9424 
L 656.86357 493.9424 
L 659.692368 493.9424 
L 662.521166 493.9424 
L 665.349963 493.9424 
L 668.178761 493.9424 
L 671.007559 493.9424 
L 673.836356 493.9424 
L 676.665154 493.9424 
L 679.493952 493.9424 
L 682.32275 493.9424 
L 685.151547 493.9424 
L 687.980345 493.9424 
L 690.809143 493.9424 
L 693.637941 493.9424 
L 696.466738 493.9424 
L 699.295536 493.9424 
L 702.124334 493.9424 
L 704.953132 493.9424 
L 707.781929 493.9424 
L 710.610727 493.9424 
L 713.439525 493.9424 
L 716.268323 493.9424 
L 719.09712 493.9424 
L 721.925918 493.9424 
L 724.754716 493.9424 
L 727.583514 493.9424 
L 730.412311 493.9424 
L 733.241109 493.9424 
L 736.069907 493.9424 
L 738.898705 493.9424 
L 741.727502 493.9424 
L 744.5563 493.9424 
L 747.385098 493.9424 
L 750.213896 493.9424 
L 753.042693 493.9424 
L 755.871491 493.9424 
L 758.700289 493.9424 
L 761.529087 493.9424 
L 764.357884 493.9424 
L 767.186682 493.9424 
L 770.01548 493.9424 
L 772.844278 493.9424 
L 775.673075 493.9424 
L 778.501873 493.9424 
L 781.330671 493.9424 
L 784.159469 493.9424 
L 786.988266 493.9424 
L 789.817064 493.9424 
L 792.645862 493.9424 
L 795.47466 493.9424 
L 798.303457 493.9424 
L 801.132255 493.9424 
L 803.961053 493.9424 
L 806.789851 493.9424 
L 809.618648 493.9424 
L 812.447446 493.9424 
L 815.276244 493.9424 
L 818.105042 493.9424 
L 820.933839 493.9424 
L 823.762637 493.9424 
L 826.591435 493.9424 
L 829.420233 493.9424 
L 832.24903 493.9424 
L 835.077828 493.9424 
L 837.906626 493.9424 
L 840.735424 493.9424 
L 843.564221 493.9424 
L 846.393019 493.9424 
L 849.221817 493.9424 
L 852.050615 493.9424 
L 854.879412 493.9424 
L 857.70821 493.9424 
L 860.537008 493.9424 
L 863.365806 493.9424 
L 866.194603 493.9424 
L 869.023401 493.9424 
L 871.852199 493.9424 
L 874.680997 493.9424 
L 877.509794 493.9424 
L 880.338592 493.9424 
L 883.16739 493.9424 
L 885.996188 493.9424 
L 888.824985 493.9424 
L 891.653783 493.9424 
L 894.482581 493.9424 
L 897.311378 493.9424 
L 900.140176 493.9424 
L 902.968974 493.9424 
L 905.797772 493.9424 
L 908.626569 493.9424 
L 911.455367 493.9424 
L 914.284165 493.9424 
L 917.112963 493.9424 
L 919.94176 493.9424 
L 922.770558 493.9424 
L 925.599356 493.9424 
L 928.428154 493.9424 
L 931.256951 493.9424 
L 934.085749 493.9424 
L 936.914547 493.9424 
L 939.743345 493.9424 
L 942.572142 493.9424 
L 945.40094 493.9424 
L 948.229738 493.9424 
L 951.058536 493.9424 
L 953.887333 493.9424 
L 956.716131 493.9424 
L 959.544929 493.9424 
L 962.373727 493.9424 
L 965.202524 493.9424 
L 968.031322 493.9424 
L 970.86012 493.9424 
L 973.688918 493.9424 
L 976.517715 493.9424 
L 979.346513 493.9424 
L 979.346513 343.723718 
L 979.346513 343.723718 
L 976.517715 337.221593 
L 973.688918 331.758286 
L 970.86012 327.284253 
L 968.031322 323.749951 
L 965.202524 321.105839 
L 962.373727 319.302373 
L 959.544929 318.290012 
L 956.716131 318.019213 
L 953.887333 318.440434 
L 951.058536 319.504132 
L 948.229738 321.160764 
L 945.40094 323.360789 
L 942.572142 326.054664 
L 939.743345 329.192846 
L 936.914547 332.725793 
L 934.085749 336.603963 
L 931.256951 340.777813 
L 928.428154 345.1978 
L 925.599356 349.814383 
L 922.770558 354.578018 
L 919.94176 359.439164 
L 917.112963 364.348278 
L 914.284165 369.255818 
L 911.455367 374.11224 
L 908.626569 378.868003 
L 905.797772 383.473565 
L 902.968974 387.879382 
L 900.140176 392.035912 
L 897.311378 395.893614 
L 894.482581 399.402944 
L 891.653783 402.51436 
L 888.824985 405.178319 
L 885.996188 407.34528 
L 883.16739 408.973867 
L 880.338592 410.087564 
L 877.509794 410.740787 
L 874.680997 410.988142 
L 871.852199 410.884233 
L 869.023401 410.483666 
L 866.194603 409.841046 
L 863.365806 409.01098 
L 860.537008 408.048072 
L 857.70821 407.006928 
L 854.879412 405.942154 
L 852.050615 404.908354 
L 849.221817 403.960135 
L 846.393019 403.152102 
L 843.564221 402.53886 
L 840.735424 402.175015 
L 837.906626 402.115081 
L 835.077828 402.382954 
L 832.24903 402.927466 
L 829.420233 403.686157 
L 826.591435 404.59657 
L 823.762637 405.596246 
L 820.933839 406.622727 
L 818.105042 407.613553 
L 815.276244 408.506267 
L 812.447446 409.23841 
L 809.618648 409.747524 
L 806.789851 409.971149 
L 803.961053 409.846828 
L 801.132255 409.312102 
L 798.303457 408.304512 
L 795.47466 406.761601 
L 792.645862 404.620908 
L 789.817064 401.824327 
L 786.988266 398.391845 
L 784.159469 394.410999 
L 781.330671 389.971554 
L 778.501873 385.163276 
L 775.673075 380.075929 
L 772.844278 374.79928 
L 770.01548 369.423093 
L 767.186682 364.037133 
L 764.357884 358.731165 
L 761.529087 353.594955 
L 758.700289 348.718268 
L 755.871491 344.190869 
L 753.042693 340.102523 
L 750.213896 336.542996 
L 747.385098 333.602052 
L 744.5563 331.369456 
L 741.727502 329.913066 
L 738.898705 329.197182 
L 736.069907 329.155535 
L 733.241109 329.721853 
L 730.412311 330.829863 
L 727.583514 332.413292 
L 724.754716 334.405869 
L 721.925918 336.74132 
L 719.09712 339.353372 
L 716.268323 342.175754 
L 713.439525 345.142193 
L 710.610727 348.186415 
L 707.781929 351.242149 
L 704.953132 354.243122 
L 702.124334 357.123061 
L 699.295536 359.815693 
L 696.466738 362.255194 
L 693.637941 364.402528 
L 690.809143 366.260193 
L 687.980345 367.834256 
L 685.151547 369.130786 
L 682.32275 370.15585 
L 679.493952 370.915518 
L 676.665154 371.415856 
L 673.836356 371.662934 
L 671.007559 371.66282 
L 668.178761 371.421581 
L 665.349963 370.945286 
L 662.521166 370.240003 
L 659.692368 369.311801 
L 656.86357 368.166747 
L 654.034772 366.810909 
L 651.205975 365.250357 
L 648.377177 363.493528 
L 645.548379 361.571516 
L 642.719581 359.528005 
L 639.890784 357.406809 
L 637.061986 355.251744 
L 634.233188 353.106627 
L 631.40439 351.015274 
L 628.575593 349.0215 
L 625.746795 347.169122 
L 622.917997 345.501955 
L 620.089199 344.063815 
L 617.260402 342.89852 
L 614.431604 342.049883 
L 611.602806 341.561722 
L 608.774008 341.477853 
L 605.945211 341.842091 
L 603.116413 342.698226 
L 600.287615 344.063282 
L 597.458817 345.8773 
L 594.63002 348.066558 
L 591.801222 350.557338 
L 588.972424 353.27592 
L 586.143626 356.148585 
L 583.314829 359.101613 
L 580.486031 362.061285 
L 577.657233 364.953881 
L 574.828435 367.705682 
L 571.999638 370.242969 
L 569.17084 372.492022 
L 566.342042 374.379121 
L 563.513244 375.830547 
L 560.684447 376.772581 
L 557.855649 377.131504 
L 555.026851 376.836537 
L 552.198053 375.884586 
L 549.369256 374.340236 
L 546.540458 372.271013 
L 543.71166 369.744445 
L 540.882862 366.82806 
L 538.054065 363.589384 
L 535.225267 360.095947 
L 532.396469 356.415274 
L 529.567671 352.614894 
L 526.738874 348.762334 
L 523.910076 344.925122 
L 521.081278 341.170784 
L 518.25248 337.566849 
L 515.423683 334.180844 
L 512.594885 331.080296 
L 509.766087 328.332732 
L 506.937289 325.996026 
L 504.108492 324.074021 
L 501.279694 322.551777 
L 498.450896 321.414339 
L 495.622098 320.646747 
L 492.793301 320.234045 
L 489.964503 320.161275 
L 487.135705 320.413479 
L 484.306907 320.9757 
L 481.47811 321.832981 
L 478.649312 322.970364 
L 475.820514 324.37289 
L 472.991716 326.025604 
L 470.162919 327.913546 
L 467.334121 330.02176 
L 464.505323 332.335289 
L 461.676525 334.839093 
L 458.847728 337.510607 
L 456.01893 340.313712 
L 453.190132 343.210874 
L 450.361334 346.164556 
L 447.532537 349.137222 
L 444.703739 352.091337 
L 441.874941 354.989366 
L 439.046144 357.793773 
L 436.217346 360.467021 
L 433.388548 362.971576 
L 430.55975 365.269901 
L 427.730953 367.324462 
L 424.902155 369.097721 
L 422.073357 370.552145 
L 419.244559 371.650197 
L 416.415762 372.35434 
L 413.586964 372.631342 
L 410.758166 372.497965 
L 407.929368 372.003231 
L 405.100571 371.196699 
L 402.271773 370.127927 
L 399.442975 368.846474 
L 396.614177 367.4019 
L 393.78538 365.843762 
L 390.956582 364.22162 
L 388.127784 362.585032 
L 385.298986 360.983558 
L 382.470189 359.466755 
L 379.641391 358.084184 
L 376.812593 356.885402 
L 373.983795 355.919969 
L 371.154998 355.237442 
L 368.3262 354.88738 
L 365.497402 354.901827 
L 362.668604 355.253511 
L 359.839807 355.90261 
L 357.011009 356.809302 
L 354.182211 357.933763 
L 351.353413 359.236173 
L 348.524616 360.676708 
L 345.695818 362.215547 
L 342.86702 363.812867 
L 340.038222 365.428846 
L 337.209425 367.023662 
L 334.380627 368.557492 
L 331.551829 369.990514 
L 328.723031 371.282906 
L 325.894234 372.394846 
L 323.065436 373.286511 
L 320.236638 373.919016 
L 317.40784 374.281853 
L 314.579043 374.39733 
L 311.750245 374.289579 
L 308.921447 373.982733 
L 306.092649 373.500927 
L 303.263852 372.868293 
L 300.435054 372.108964 
L 297.606256 371.247075 
L 294.777458 370.306758 
L 291.948661 369.312148 
L 289.119863 368.287376 
L 286.291065 367.256576 
L 283.462267 366.243883 
L 280.63347 365.273429 
L 277.804672 364.369347 
L 274.975874 363.555771 
L 272.147076 362.853376 
L 269.318279 362.259847 
L 266.489481 361.763488 
L 263.660683 361.352579 
L 260.831885 361.015396 
L 258.003088 360.740218 
L 255.17429 360.515323 
L 252.345492 360.328988 
L 249.516694 360.169492 
L 246.687897 360.025112 
L 243.859099 359.884126 
L 241.030301 359.734813 
L 238.201503 359.56545 
L 235.372706 359.364315 
L 232.543908 359.119686 
L 229.71511 358.819841 
L 226.886312 358.453097 
L 224.057515 358.014138 
L 221.228717 357.511001 
L 218.399919 356.953402 
L 215.571122 356.351059 
L 212.742324 355.713689 
L 209.913526 355.05101 
L 207.084728 354.372739 
L 204.255931 353.688592 
L 201.427133 353.008288 
L 198.598335 352.341544 
L 195.769537 351.698076 
L 192.94074 351.087603 
L 190.111942 350.519841 
L 187.283144 350.004508 
L 184.454346 349.551321 
L 181.625549 349.169998 
L 178.796751 348.870255 
L 175.967953 348.661809 
L 173.139155 348.55438 
L 170.310358 348.557682 
L 167.48156 348.681434 
L 164.652762 348.935354 
L 161.823964 349.329157 
L 158.995167 349.872563 
L 156.166369 350.575287 
L 153.337571 351.447047 
L 150.508773 352.497561 
L 147.679976 353.736546 
L 144.851178 355.173718 
L 142.02238 356.818796 
L 139.193582 358.681497 
L 136.364785 360.771538 
L 133.535987 363.098635 
z
" clip-path="url(#pc81632c471)" style="fill: #215f53"/>
   </g>
   <g id="FillBetweenPolyCollection_2">
    <path d="M 133.535987 205.120009 
L 133.535987 363.098635 
L 136.364785 360.771538 
L 139.193582 358.681497 
L 142.02238 356.818796 
L 144.851178 355.173718 
L 147.679976 353.736546 
L 150.508773 352.497561 
L 153.337571 351.447047 
L 156.166369 350.575287 
L 158.995167 349.872563 
L 161.823964 349.329157 
L 164.652762 348.935354 
L 167.48156 348.681434 
L 170.310358 348.557682 
L 173.139155 348.55438 
L 175.967953 348.661809 
L 178.796751 348.870255 
L 181.625549 349.169998 
L 184.454346 349.551321 
L 187.283144 350.004508 
L 190.111942 350.519841 
L 192.94074 351.087603 
L 195.769537 351.698076 
L 198.598335 352.341544 
L 201.427133 353.008288 
L 204.255931 353.688592 
L 207.084728 354.372739 
L 209.913526 355.05101 
L 212.742324 355.713689 
L 215.571122 356.351059 
L 218.399919 356.953402 
L 221.228717 357.511001 
L 224.057515 358.014138 
L 226.886312 358.453097 
L 229.71511 358.819841 
L 232.543908 359.119686 
L 235.372706 359.364315 
L 238.201503 359.56545 
L 241.030301 359.734813 
L 243.859099 359.884126 
L 246.687897 360.025112 
L 249.516694 360.169492 
L 252.345492 360.328988 
L 255.17429 360.515323 
L 258.003088 360.740218 
L 260.831885 361.015396 
L 263.660683 361.352579 
L 266.489481 361.763488 
L 269.318279 362.259847 
L 272.147076 362.853376 
L 274.975874 363.555771 
L 277.804672 364.369347 
L 280.63347 365.273429 
L 283.462267 366.243883 
L 286.291065 367.256576 
L 289.119863 368.287376 
L 291.948661 369.312148 
L 294.777458 370.306758 
L 297.606256 371.247075 
L 300.435054 372.108964 
L 303.263852 372.868293 
L 306.092649 373.500927 
L 308.921447 373.982733 
L 311.750245 374.289579 
L 314.579043 374.39733 
L 317.40784 374.281853 
L 320.236638 373.919016 
L 323.065436 373.286511 
L 325.894234 372.394846 
L 328.723031 371.282906 
L 331.551829 369.990514 
L 334.380627 368.557492 
L 337.209425 367.023662 
L 340.038222 365.428846 
L 342.86702 363.812867 
L 345.695818 362.215547 
L 348.524616 360.676708 
L 351.353413 359.236173 
L 354.182211 357.933763 
L 357.011009 356.809302 
L 359.839807 355.90261 
L 362.668604 355.253511 
L 365.497402 354.901827 
L 368.3262 354.88738 
L 371.154998 355.237442 
L 373.983795 355.919969 
L 376.812593 356.885402 
L 379.641391 358.084184 
L 382.470189 359.466755 
L 385.298986 360.983558 
L 388.127784 362.585032 
L 390.956582 364.22162 
L 393.78538 365.843762 
L 396.614177 367.4019 
L 399.442975 368.846474 
L 402.271773 370.127927 
L 405.100571 371.196699 
L 407.929368 372.003231 
L 410.758166 372.497965 
L 413.586964 372.631342 
L 416.415762 372.35434 
L 419.244559 371.650197 
L 422.073357 370.552145 
L 424.902155 369.097721 
L 427.730953 367.324462 
L 430.55975 365.269901 
L 433.388548 362.971576 
L 436.217346 360.467021 
L 439.046144 357.793773 
L 441.874941 354.989366 
L 444.703739 352.091337 
L 447.532537 349.137222 
L 450.361334 346.164556 
L 453.190132 343.210874 
L 456.01893 340.313712 
L 458.847728 337.510607 
L 461.676525 334.839093 
L 464.505323 332.335289 
L 467.334121 330.02176 
L 470.162919 327.913546 
L 472.991716 326.025604 
L 475.820514 324.37289 
L 478.649312 322.970364 
L 481.47811 321.832981 
L 484.306907 320.9757 
L 487.135705 320.413479 
L 489.964503 320.161275 
L 492.793301 320.234045 
L 495.622098 320.646747 
L 498.450896 321.414339 
L 501.279694 322.551777 
L 504.108492 324.074021 
L 506.937289 325.996026 
L 509.766087 328.332732 
L 512.594885 331.080296 
L 515.423683 334.180844 
L 518.25248 337.566849 
L 521.081278 341.170784 
L 523.910076 344.925122 
L 526.738874 348.762334 
L 529.567671 352.614894 
L 532.396469 356.415274 
L 535.225267 360.095947 
L 538.054065 363.589384 
L 540.882862 366.82806 
L 543.71166 369.744445 
L 546.540458 372.271013 
L 549.369256 374.340236 
L 552.198053 375.884586 
L 555.026851 376.836537 
L 557.855649 377.131504 
L 560.684447 376.772581 
L 563.513244 375.830547 
L 566.342042 374.379121 
L 569.17084 372.492022 
L 571.999638 370.242969 
L 574.828435 367.705682 
L 577.657233 364.953881 
L 580.486031 362.061285 
L 583.314829 359.101613 
L 586.143626 356.148585 
L 588.972424 353.27592 
L 591.801222 350.557338 
L 594.63002 348.066558 
L 597.458817 345.8773 
L 600.287615 344.063282 
L 603.116413 342.698226 
L 605.945211 341.842091 
L 608.774008 341.477853 
L 611.602806 341.561722 
L 614.431604 342.049883 
L 617.260402 342.89852 
L 620.089199 344.063815 
L 622.917997 345.501955 
L 625.746795 347.169122 
L 628.575593 349.0215 
L 631.40439 351.015274 
L 634.233188 353.106627 
L 637.061986 355.251744 
L 639.890784 357.406809 
L 642.719581 359.528005 
L 645.548379 361.571516 
L 648.377177 363.493528 
L 651.205975 365.250357 
L 654.034772 366.810909 
L 656.86357 368.166747 
L 659.692368 369.311801 
L 662.521166 370.240003 
L 665.349963 370.945286 
L 668.178761 371.421581 
L 671.007559 371.66282 
L 673.836356 371.662934 
L 676.665154 371.415856 
L 679.493952 370.915518 
L 682.32275 370.15585 
L 685.151547 369.130786 
L 687.980345 367.834256 
L 690.809143 366.260193 
L 693.637941 364.402528 
L 696.466738 362.255194 
L 699.295536 359.815693 
L 702.124334 357.123061 
L 704.953132 354.243122 
L 707.781929 351.242149 
L 710.610727 348.186415 
L 713.439525 345.142193 
L 716.268323 342.175754 
L 719.09712 339.353372 
L 721.925918 336.74132 
L 724.754716 334.405869 
L 727.583514 332.413292 
L 730.412311 330.829863 
L 733.241109 329.721853 
L 736.069907 329.155535 
L 738.898705 329.197182 
L 741.727502 329.913066 
L 744.5563 331.369456 
L 747.385098 333.602052 
L 750.213896 336.542996 
L 753.042693 340.102523 
L 755.871491 344.190869 
L 758.700289 348.718268 
L 761.529087 353.594955 
L 764.357884 358.731165 
L 767.186682 364.037133 
L 770.01548 369.423093 
L 772.844278 374.79928 
L 775.673075 380.075929 
L 778.501873 385.163276 
L 781.330671 389.971554 
L 784.159469 394.410999 
L 786.988266 398.391845 
L 789.817064 401.824327 
L 792.645862 404.620908 
L 795.47466 406.761601 
L 798.303457 408.304512 
L 801.132255 409.312102 
L 803.961053 409.846828 
L 806.789851 409.971149 
L 809.618648 409.747524 
L 812.447446 409.23841 
L 815.276244 408.506267 
L 818.105042 407.613553 
L 820.933839 406.622727 
L 823.762637 405.596246 
L 826.591435 404.59657 
L 829.420233 403.686157 
L 832.24903 402.927466 
L 835.077828 402.382954 
L 837.906626 402.115081 
L 840.735424 402.175015 
L 843.564221 402.53886 
L 846.393019 403.152102 
L 849.221817 403.960135 
L 852.050615 404.908354 
L 854.879412 405.942154 
L 857.70821 407.006928 
L 860.537008 408.048072 
L 863.365806 409.01098 
L 866.194603 409.841046 
L 869.023401 410.483666 
L 871.852199 410.884233 
L 874.680997 410.988142 
L 877.509794 410.740787 
L 880.338592 410.087564 
L 883.16739 408.973867 
L 885.996188 407.34528 
L 888.824985 405.178319 
L 891.653783 402.51436 
L 894.482581 399.402944 
L 897.311378 395.893614 
L 900.140176 392.035912 
L 902.968974 387.879382 
L 905.797772 383.473565 
L 908.626569 378.868003 
L 911.455367 374.11224 
L 914.284165 369.255818 
L 917.112963 364.348278 
L 919.94176 359.439164 
L 922.770558 354.578018 
L 925.599356 349.814383 
L 928.428154 345.1978 
L 931.256951 340.777813 
L 934.085749 336.603963 
L 936.914547 332.725793 
L 939.743345 329.192846 
L 942.572142 326.054664 
L 945.40094 323.360789 
L 948.229738 321.160764 
L 951.058536 319.504132 
L 953.887333 318.440434 
L 956.716131 318.019213 
L 959.544929 318.290012 
L 962.373727 319.302373 
L 965.202524 321.105839 
L 968.031322 323.749951 
L 970.86012 327.284253 
L 973.688918 331.758286 
L 976.517715 337.221593 
L 979.346513 343.723718 
L 979.346513 207.125134 
L 979.346513 207.125134 
L 976.517715 203.110437 
L 973.688918 199.677403 
L 970.86012 196.80557 
L 968.031322 194.474476 
L 965.202524 192.663659 
L 962.373727 191.352657 
L 959.544929 190.521007 
L 956.716131 190.148248 
L 953.887333 190.213917 
L 951.058536 190.697552 
L 948.229738 191.578692 
L 945.40094 192.836873 
L 942.572142 194.451634 
L 939.743345 196.402513 
L 936.914547 198.669048 
L 934.085749 201.230777 
L 931.256951 204.067236 
L 928.428154 207.157965 
L 925.599356 210.482501 
L 922.770558 214.020383 
L 919.94176 217.751147 
L 917.112963 221.654332 
L 914.284165 225.709476 
L 911.455367 229.896116 
L 908.626569 234.193791 
L 905.797772 238.582038 
L 902.968974 243.040395 
L 900.140176 247.548401 
L 897.311378 252.085592 
L 894.482581 256.631508 
L 891.653783 261.165685 
L 888.824985 265.667662 
L 885.996188 270.116977 
L 883.16739 274.492982 
L 880.338592 278.77357 
L 877.509794 282.935935 
L 874.680997 286.957265 
L 871.852199 290.814751 
L 869.023401 294.485582 
L 866.194603 297.946947 
L 863.365806 301.176036 
L 860.537008 304.150039 
L 857.70821 306.846144 
L 854.879412 309.241543 
L 852.050615 311.313423 
L 849.221817 313.038975 
L 846.393019 314.395388 
L 843.564221 315.359851 
L 840.735424 315.909555 
L 837.906626 316.021725 
L 835.077828 315.685903 
L 832.24903 314.921827 
L 829.420233 313.753772 
L 826.591435 312.206017 
L 823.762637 310.30284 
L 820.933839 308.068517 
L 818.105042 305.527325 
L 815.276244 302.703544 
L 812.447446 299.621449 
L 809.618648 296.305319 
L 806.789851 292.779431 
L 803.961053 289.068062 
L 801.132255 285.19549 
L 798.303457 281.185993 
L 795.47466 277.063847 
L 792.645862 272.853331 
L 789.817064 268.578612 
L 786.988266 264.261893 
L 784.159469 259.92368 
L 781.330671 255.58442 
L 778.501873 251.264561 
L 775.673075 246.984552 
L 772.844278 242.764841 
L 770.01548 238.625875 
L 767.186682 234.588103 
L 764.357884 230.671974 
L 761.529087 226.897934 
L 758.700289 223.286433 
L 755.871491 219.857919 
L 753.042693 216.632839 
L 750.213896 213.631643 
L 747.385098 210.874777 
L 744.5563 208.382691 
L 741.727502 206.173447 
L 738.898705 204.253839 
L 736.069907 202.62733 
L 733.241109 201.297385 
L 730.412311 200.26747 
L 727.583514 199.541047 
L 724.754716 199.121583 
L 721.925918 199.01254 
L 719.09712 199.217384 
L 716.268323 199.739579 
L 713.439525 200.58259 
L 710.610727 201.74988 
L 707.781929 203.244915 
L 704.953132 205.071159 
L 702.124334 207.232076 
L 699.295536 209.731131 
L 696.466738 212.57137 
L 693.637941 215.730691 
L 690.809143 219.148019 
L 687.980345 222.758925 
L 685.151547 226.498981 
L 682.32275 230.303757 
L 679.493952 234.108825 
L 676.665154 237.849756 
L 673.836356 241.462121 
L 671.007559 244.881492 
L 668.178761 248.043439 
L 665.349963 250.883535 
L 662.521166 253.337349 
L 659.692368 255.340454 
L 656.86357 256.828421 
L 654.034772 257.736821 
L 651.205975 258.001224 
L 648.377177 257.566997 
L 645.548379 256.473134 
L 642.719581 254.810639 
L 639.890784 252.671073 
L 637.061986 250.145998 
L 634.233188 247.326976 
L 631.40439 244.305569 
L 628.575593 241.173338 
L 625.746795 238.021844 
L 622.917997 234.942651 
L 620.089199 232.027318 
L 617.260402 229.367408 
L 614.431604 227.054482 
L 611.602806 225.180102 
L 608.774008 223.83583 
L 605.945211 223.113227 
L 603.116413 223.103807 
L 600.287615 223.851709 
L 597.458817 225.264792 
L 594.63002 227.226561 
L 591.801222 229.620523 
L 588.972424 232.330184 
L 586.143626 235.239049 
L 583.314829 238.230624 
L 580.486031 241.188414 
L 577.657233 243.995927 
L 574.828435 246.536667 
L 571.999638 248.69414 
L 569.17084 250.351852 
L 566.342042 251.393309 
L 563.513244 251.702017 
L 560.684447 251.161481 
L 557.855649 249.655207 
L 555.026851 247.072279 
L 552.198053 243.430064 
L 549.369256 238.874214 
L 546.540458 233.555956 
L 543.71166 227.626521 
L 540.882862 221.237137 
L 538.054065 214.539033 
L 535.225267 207.683438 
L 532.396469 200.821581 
L 529.567671 194.10469 
L 526.738874 187.683996 
L 523.910076 181.710725 
L 521.081278 176.336109 
L 518.25248 171.711374 
L 515.423683 167.987752 
L 512.594885 165.316469 
L 509.766087 163.848756 
L 506.937289 163.702136 
L 504.108492 164.805533 
L 501.279694 167.022306 
L 498.450896 170.215745 
L 495.622098 174.249143 
L 492.793301 178.985793 
L 489.964503 184.288985 
L 487.135705 190.022012 
L 484.306907 196.048166 
L 481.47811 202.230739 
L 478.649312 208.433023 
L 475.820514 214.518309 
L 472.991716 220.349891 
L 470.162919 225.791059 
L 467.334121 230.705105 
L 464.505323 234.955323 
L 461.676525 238.405801 
L 458.847728 240.995173 
L 456.01893 242.796261 
L 453.190132 243.895923 
L 450.361334 244.381019 
L 447.532537 244.338407 
L 444.703739 243.854947 
L 441.874941 243.017498 
L 439.046144 241.912918 
L 436.217346 240.628067 
L 433.388548 239.249804 
L 430.55975 237.864987 
L 427.730953 236.560477 
L 424.902155 235.423131 
L 422.073357 234.539808 
L 419.244559 233.997369 
L 416.415762 233.882671 
L 413.586964 234.274821 
L 410.758166 235.162798 
L 407.929368 236.477436 
L 405.100571 238.148597 
L 402.271773 240.106147 
L 399.442975 242.279948 
L 396.614177 244.599865 
L 393.78538 246.995761 
L 390.956582 249.397501 
L 388.127784 251.734947 
L 385.298986 253.937965 
L 382.470189 255.936418 
L 379.641391 257.660169 
L 376.812593 259.039083 
L 373.983795 260.003023 
L 371.154998 260.481853 
L 368.3262 260.405441 
L 365.497402 259.731311 
L 362.668604 258.510677 
L 359.839807 256.814572 
L 357.011009 254.714033 
L 354.182211 252.280093 
L 351.353413 249.583787 
L 348.524616 246.69615 
L 345.695818 243.688217 
L 342.86702 240.631023 
L 340.038222 237.595601 
L 337.209425 234.652987 
L 334.380627 231.874216 
L 331.551829 229.330321 
L 328.723031 227.092339 
L 325.894234 225.231303 
L 323.065436 223.818249 
L 320.236638 222.922291 
L 317.40784 222.554329 
L 314.579043 222.657959 
L 311.750245 223.173028 
L 308.921447 224.039382 
L 306.092649 225.196869 
L 303.263852 226.585335 
L 300.435054 228.144627 
L 297.606256 229.814592 
L 294.777458 231.535077 
L 291.948661 233.245929 
L 289.119863 234.886995 
L 286.291065 236.398121 
L 283.462267 237.719155 
L 280.63347 238.789943 
L 277.804672 239.550332 
L 274.975874 239.940169 
L 272.147076 239.908326 
L 269.318279 239.463674 
L 266.489481 238.639561 
L 263.660683 237.469406 
L 260.831885 235.986629 
L 258.003088 234.224649 
L 255.17429 232.216886 
L 252.345492 229.996759 
L 249.516694 227.597689 
L 246.687897 225.053094 
L 243.859099 222.396394 
L 241.030301 219.66101 
L 238.201503 216.880359 
L 235.372706 214.087863 
L 232.543908 211.31694 
L 229.71511 208.601011 
L 226.886312 205.973439 
L 224.057515 203.458723 
L 221.228717 201.062766 
L 218.399919 198.789126 
L 215.571122 196.641367 
L 212.742324 194.623048 
L 209.913526 192.73773 
L 207.084728 190.988974 
L 204.255931 189.380342 
L 201.427133 187.915393 
L 198.598335 186.597689 
L 195.769537 185.430791 
L 192.94074 184.418259 
L 190.111942 183.563654 
L 187.283144 182.870538 
L 184.454346 182.342471 
L 181.625549 181.983013 
L 178.796751 181.795726 
L 175.967953 181.784171 
L 173.139155 181.951908 
L 170.310358 182.302498 
L 167.48156 182.839503 
L 164.652762 183.566482 
L 161.823964 184.486998 
L 158.995167 185.60461 
L 156.166369 186.922879 
L 153.337571 188.445367 
L 150.508773 190.175634 
L 147.679976 192.117241 
L 144.851178 194.27375 
L 142.02238 196.64872 
L 139.193582 199.245712 
L 136.364785 202.068288 
L 133.535987 205.120009 
z
" clip-path="url(#pc81632c471)" style="fill: #7570b3"/>
   </g>
   <g id="FillBetweenPolyCollection_3">
    <path d="M 133.535987 71.5424 
L 133.535987 205.120009 
L 136.364785 202.068288 
L 139.193582 199.245712 
L 142.02238 196.64872 
L 144.851178 194.27375 
L 147.679976 192.117241 
L 150.508773 190.175634 
L 153.337571 188.445367 
L 156.166369 186.922879 
L 158.995167 185.60461 
L 161.823964 184.486998 
L 164.652762 183.566482 
L 167.48156 182.839503 
L 170.310358 182.302498 
L 173.139155 181.951908 
L 175.967953 181.784171 
L 178.796751 181.795726 
L 181.625549 181.983013 
L 184.454346 182.342471 
L 187.283144 182.870538 
L 190.111942 183.563654 
L 192.94074 184.418259 
L 195.769537 185.430791 
L 198.598335 186.597689 
L 201.427133 187.915393 
L 204.255931 189.380342 
L 207.084728 190.988974 
L 209.913526 192.73773 
L 212.742324 194.623048 
L 215.571122 196.641367 
L 218.399919 198.789126 
L 221.228717 201.062766 
L 224.057515 203.458723 
L 226.886312 205.973439 
L 229.71511 208.601011 
L 232.543908 211.31694 
L 235.372706 214.087863 
L 238.201503 216.880359 
L 241.030301 219.66101 
L 243.859099 222.396394 
L 246.687897 225.053094 
L 249.516694 227.597689 
L 252.345492 229.996759 
L 255.17429 232.216886 
L 258.003088 234.224649 
L 260.831885 235.986629 
L 263.660683 237.469406 
L 266.489481 238.639561 
L 269.318279 239.463674 
L 272.147076 239.908326 
L 274.975874 239.940169 
L 277.804672 239.550332 
L 280.63347 238.789943 
L 283.462267 237.719155 
L 286.291065 236.398121 
L 289.119863 234.886995 
L 291.948661 233.245929 
L 294.777458 231.535077 
L 297.606256 229.814592 
L 300.435054 228.144627 
L 303.263852 226.585335 
L 306.092649 225.196869 
L 308.921447 224.039382 
L 311.750245 223.173028 
L 314.579043 222.657959 
L 317.40784 222.554329 
L 320.236638 222.922291 
L 323.065436 223.818249 
L 325.894234 225.231303 
L 328.723031 227.092339 
L 331.551829 229.330321 
L 334.380627 231.874216 
L 337.209425 234.652987 
L 340.038222 237.595601 
L 342.86702 240.631023 
L 345.695818 243.688217 
L 348.524616 246.69615 
L 351.353413 249.583787 
L 354.182211 252.280093 
L 357.011009 254.714033 
L 359.839807 256.814572 
L 362.668604 258.510677 
L 365.497402 259.731311 
L 368.3262 260.405441 
L 371.154998 260.481853 
L 373.983795 260.003023 
L 376.812593 259.039083 
L 379.641391 257.660169 
L 382.470189 255.936418 
L 385.298986 253.937965 
L 388.127784 251.734947 
L 390.956582 249.397501 
L 393.78538 246.995761 
L 396.614177 244.599865 
L 399.442975 242.279948 
L 402.271773 240.106147 
L 405.100571 238.148597 
L 407.929368 236.477436 
L 410.758166 235.162798 
L 413.586964 234.274821 
L 416.415762 233.882671 
L 419.244559 233.997369 
L 422.073357 234.539808 
L 424.902155 235.423131 
L 427.730953 236.560477 
L 430.55975 237.864987 
L 433.388548 239.249804 
L 436.217346 240.628067 
L 439.046144 241.912918 
L 441.874941 243.017498 
L 444.703739 243.854947 
L 447.532537 244.338407 
L 450.361334 244.381019 
L 453.190132 243.895923 
L 456.01893 242.796261 
L 458.847728 240.995173 
L 461.676525 238.405801 
L 464.505323 234.955323 
L 467.334121 230.705105 
L 470.162919 225.791059 
L 472.991716 220.349891 
L 475.820514 214.518309 
L 478.649312 208.433023 
L 481.47811 202.230739 
L 484.306907 196.048166 
L 487.135705 190.022012 
L 489.964503 184.288985 
L 492.793301 178.985793 
L 495.622098 174.249143 
L 498.450896 170.215745 
L 501.279694 167.022306 
L 504.108492 164.805533 
L 506.937289 163.702136 
L 509.766087 163.848756 
L 512.594885 165.316469 
L 515.423683 167.987752 
L 518.25248 171.711374 
L 521.081278 176.336109 
L 523.910076 181.710725 
L 526.738874 187.683996 
L 529.567671 194.10469 
L 532.396469 200.821581 
L 535.225267 207.683438 
L 538.054065 214.539033 
L 540.882862 221.237137 
L 543.71166 227.626521 
L 546.540458 233.555956 
L 549.369256 238.874214 
L 552.198053 243.430064 
L 555.026851 247.072279 
L 557.855649 249.655207 
L 560.684447 251.161481 
L 563.513244 251.702017 
L 566.342042 251.393309 
L 569.17084 250.351852 
L 571.999638 248.69414 
L 574.828435 246.536667 
L 577.657233 243.995927 
L 580.486031 241.188414 
L 583.314829 238.230624 
L 586.143626 235.239049 
L 588.972424 232.330184 
L 591.801222 229.620523 
L 594.63002 227.226561 
L 597.458817 225.264792 
L 600.287615 223.851709 
L 603.116413 223.103807 
L 605.945211 223.113227 
L 608.774008 223.83583 
L 611.602806 225.180102 
L 614.431604 227.054482 
L 617.260402 229.367408 
L 620.089199 232.027318 
L 622.917997 234.942651 
L 625.746795 238.021844 
L 628.575593 241.173338 
L 631.40439 244.305569 
L 634.233188 247.326976 
L 637.061986 250.145998 
L 639.890784 252.671073 
L 642.719581 254.810639 
L 645.548379 256.473134 
L 648.377177 257.566997 
L 651.205975 258.001224 
L 654.034772 257.736821 
L 656.86357 256.828421 
L 659.692368 255.340454 
L 662.521166 253.337349 
L 665.349963 250.883535 
L 668.178761 248.043439 
L 671.007559 244.881492 
L 673.836356 241.462121 
L 676.665154 237.849756 
L 679.493952 234.108825 
L 682.32275 230.303757 
L 685.151547 226.498981 
L 687.980345 222.758925 
L 690.809143 219.148019 
L 693.637941 215.730691 
L 696.466738 212.57137 
L 699.295536 209.731131 
L 702.124334 207.232076 
L 704.953132 205.071159 
L 707.781929 203.244915 
L 710.610727 201.74988 
L 713.439525 200.58259 
L 716.268323 199.739579 
L 719.09712 199.217384 
L 721.925918 199.01254 
L 724.754716 199.121583 
L 727.583514 199.541047 
L 730.412311 200.26747 
L 733.241109 201.297385 
L 736.069907 202.62733 
L 738.898705 204.253839 
L 741.727502 206.173447 
L 744.5563 208.382691 
L 747.385098 210.874777 
L 750.213896 213.631643 
L 753.042693 216.632839 
L 755.871491 219.857919 
L 758.700289 223.286433 
L 761.529087 226.897934 
L 764.357884 230.671974 
L 767.186682 234.588103 
L 770.01548 238.625875 
L 772.844278 242.764841 
L 775.673075 246.984552 
L 778.501873 251.264561 
L 781.330671 255.58442 
L 784.159469 259.92368 
L 786.988266 264.261893 
L 789.817064 268.578612 
L 792.645862 272.853331 
L 795.47466 277.063847 
L 798.303457 281.185993 
L 801.132255 285.19549 
L 803.961053 289.068062 
L 806.789851 292.779431 
L 809.618648 296.305319 
L 812.447446 299.621449 
L 815.276244 302.703544 
L 818.105042 305.527325 
L 820.933839 308.068517 
L 823.762637 310.30284 
L 826.591435 312.206017 
L 829.420233 313.753772 
L 832.24903 314.921827 
L 835.077828 315.685903 
L 837.906626 316.021725 
L 840.735424 315.909555 
L 843.564221 315.359851 
L 846.393019 314.395388 
L 849.221817 313.038975 
L 852.050615 311.313423 
L 854.879412 309.241543 
L 857.70821 306.846144 
L 860.537008 304.150039 
L 863.365806 301.176036 
L 866.194603 297.946947 
L 869.023401 294.485582 
L 871.852199 290.814751 
L 874.680997 286.957265 
L 877.509794 282.935935 
L 880.338592 278.77357 
L 883.16739 274.492982 
L 885.996188 270.116977 
L 888.824985 265.667662 
L 891.653783 261.165685 
L 894.482581 256.631508 
L 897.311378 252.085592 
L 900.140176 247.548401 
L 902.968974 243.040395 
L 905.797772 238.582038 
L 908.626569 234.193791 
L 911.455367 229.896116 
L 914.284165 225.709476 
L 917.112963 221.654332 
L 919.94176 217.751147 
L 922.770558 214.020383 
L 925.599356 210.482501 
L 928.428154 207.157965 
L 931.256951 204.067236 
L 934.085749 201.230777 
L 936.914547 198.669048 
L 939.743345 196.402513 
L 942.572142 194.451634 
L 945.40094 192.836873 
L 948.229738 191.578692 
L 951.058536 190.697552 
L 953.887333 190.213917 
L 956.716131 190.148248 
L 959.544929 190.521007 
L 962.373727 191.352657 
L 965.202524 192.663659 
L 968.031322 194.474476 
L 970.86012 196.80557 
L 973.688918 199.677403 
L 976.517715 203.110437 
L 979.346513 207.125134 
L 979.346513 71.5424 
L 979.346513 71.5424 
L 976.517715 71.5424 
L 973.688918 71.5424 
L 970.86012 71.5424 
L 968.031322 71.5424 
L 965.202524 71.5424 
L 962.373727 71.5424 
L 959.544929 71.5424 
L 956.716131 71.5424 
L 953.887333 71.5424 
L 951.058536 71.5424 
L 948.229738 71.5424 
L 945.40094 71.5424 
L 942.572142 71.5424 
L 939.743345 71.5424 
L 936.914547 71.5424 
L 934.085749 71.5424 
L 931.256951 71.5424 
L 928.428154 71.5424 
L 925.599356 71.5424 
L 922.770558 71.5424 
L 919.94176 71.5424 
L 917.112963 71.5424 
L 914.284165 71.5424 
L 911.455367 71.5424 
L 908.626569 71.5424 
L 905.797772 71.5424 
L 902.968974 71.5424 
L 900.140176 71.5424 
L 897.311378 71.5424 
L 894.482581 71.5424 
L 891.653783 71.5424 
L 888.824985 71.5424 
L 885.996188 71.5424 
L 883.16739 71.5424 
L 880.338592 71.5424 
L 877.509794 71.5424 
L 874.680997 71.5424 
L 871.852199 71.5424 
L 869.023401 71.5424 
L 866.194603 71.5424 
L 863.365806 71.5424 
L 860.537008 71.5424 
L 857.70821 71.5424 
L 854.879412 71.5424 
L 852.050615 71.5424 
L 849.221817 71.5424 
L 846.393019 71.5424 
L 843.564221 71.5424 
L 840.735424 71.5424 
L 837.906626 71.5424 
L 835.077828 71.5424 
L 832.24903 71.5424 
L 829.420233 71.5424 
L 826.591435 71.5424 
L 823.762637 71.5424 
L 820.933839 71.5424 
L 818.105042 71.5424 
L 815.276244 71.5424 
L 812.447446 71.5424 
L 809.618648 71.5424 
L 806.789851 71.5424 
L 803.961053 71.5424 
L 801.132255 71.5424 
L 798.303457 71.5424 
L 795.47466 71.5424 
L 792.645862 71.5424 
L 789.817064 71.5424 
L 786.988266 71.5424 
L 784.159469 71.5424 
L 781.330671 71.5424 
L 778.501873 71.5424 
L 775.673075 71.5424 
L 772.844278 71.5424 
L 770.01548 71.5424 
L 767.186682 71.5424 
L 764.357884 71.5424 
L 761.529087 71.5424 
L 758.700289 71.5424 
L 755.871491 71.5424 
L 753.042693 71.5424 
L 750.213896 71.5424 
L 747.385098 71.5424 
L 744.5563 71.5424 
L 741.727502 71.5424 
L 738.898705 71.5424 
L 736.069907 71.5424 
L 733.241109 71.5424 
L 730.412311 71.5424 
L 727.583514 71.5424 
L 724.754716 71.5424 
L 721.925918 71.5424 
L 719.09712 71.5424 
L 716.268323 71.5424 
L 713.439525 71.5424 
L 710.610727 71.5424 
L 707.781929 71.5424 
L 704.953132 71.5424 
L 702.124334 71.5424 
L 699.295536 71.5424 
L 696.466738 71.5424 
L 693.637941 71.5424 
L 690.809143 71.5424 
L 687.980345 71.5424 
L 685.151547 71.5424 
L 682.32275 71.5424 
L 679.493952 71.5424 
L 676.665154 71.5424 
L 673.836356 71.5424 
L 671.007559 71.5424 
L 668.178761 71.5424 
L 665.349963 71.5424 
L 662.521166 71.5424 
L 659.692368 71.5424 
L 656.86357 71.5424 
L 654.034772 71.5424 
L 651.205975 71.5424 
L 648.377177 71.5424 
L 645.548379 71.5424 
L 642.719581 71.5424 
L 639.890784 71.5424 
L 637.061986 71.5424 
L 634.233188 71.5424 
L 631.40439 71.5424 
L 628.575593 71.5424 
L 625.746795 71.5424 
L 622.917997 71.5424 
L 620.089199 71.5424 
L 617.260402 71.5424 
L 614.431604 71.5424 
L 611.602806 71.5424 
L 608.774008 71.5424 
L 605.945211 71.5424 
L 603.116413 71.5424 
L 600.287615 71.5424 
L 597.458817 71.5424 
L 594.63002 71.5424 
L 591.801222 71.5424 
L 588.972424 71.5424 
L 586.143626 71.5424 
L 583.314829 71.5424 
L 580.486031 71.5424 
L 577.657233 71.5424 
L 574.828435 71.5424 
L 571.999638 71.5424 
L 569.17084 71.5424 
L 566.342042 71.5424 
L 563.513244 71.5424 
L 560.684447 71.5424 
L 557.855649 71.5424 
L 555.026851 71.5424 
L 552.198053 71.5424 
L 549.369256 71.5424 
L 546.540458 71.5424 
L 543.71166 71.5424 
L 540.882862 71.5424 
L 538.054065 71.5424 
L 535.225267 71.5424 
L 532.396469 71.5424 
L 529.567671 71.5424 
L 526.738874 71.5424 
L 523.910076 71.5424 
L 521.081278 71.5424 
L 518.25248 71.5424 
L 515.423683 71.5424 
L 512.594885 71.5424 
L 509.766087 71.5424 
L 506.937289 71.5424 
L 504.108492 71.5424 
L 501.279694 71.5424 
L 498.450896 71.5424 
L 495.622098 71.5424 
L 492.793301 71.5424 
L 489.964503 71.5424 
L 487.135705 71.5424 
L 484.306907 71.5424 
L 481.47811 71.5424 
L 478.649312 71.5424 
L 475.820514 71.5424 
L 472.991716 71.5424 
L 470.162919 71.5424 
L 467.334121 71.5424 
L 464.505323 71.5424 
L 461.676525 71.5424 
L 458.847728 71.5424 
L 456.01893 71.5424 
L 453.190132 71.5424 
L 450.361334 71.5424 
L 447.532537 71.5424 
L 444.703739 71.5424 
L 441.874941 71.5424 
L 439.046144 71.5424 
L 436.217346 71.5424 
L 433.388548 71.5424 
L 430.55975 71.5424 
L 427.730953 71.5424 
L 424.902155 71.5424 
L 422.073357 71.5424 
L 419.244559 71.5424 
L 416.415762 71.5424 
L 413.586964 71.5424 
L 410.758166 71.5424 
L 407.929368 71.5424 
L 405.100571 71.5424 
L 402.271773 71.5424 
L 399.442975 71.5424 
L 396.614177 71.5424 
L 393.78538 71.5424 
L 390.956582 71.5424 
L 388.127784 71.5424 
L 385.298986 71.5424 
L 382.470189 71.5424 
L 379.641391 71.5424 
L 376.812593 71.5424 
L 373.983795 71.5424 
L 371.154998 71.5424 
L 368.3262 71.5424 
L 365.497402 71.5424 
L 362.668604 71.5424 
L 359.839807 71.5424 
L 357.011009 71.5424 
L 354.182211 71.5424 
L 351.353413 71.5424 
L 348.524616 71.5424 
L 345.695818 71.5424 
L 342.86702 71.5424 
L 340.038222 71.5424 
L 337.209425 71.5424 
L 334.380627 71.5424 
L 331.551829 71.5424 
L 328.723031 71.5424 
L 325.894234 71.5424 
L 323.065436 71.5424 
L 320.236638 71.5424 
L 317.40784 71.5424 
L 314.579043 71.5424 
L 311.750245 71.5424 
L 308.921447 71.5424 
L 306.092649 71.5424 
L 303.263852 71.5424 
L 300.435054 71.5424 
L 297.606256 71.5424 
L 294.777458 71.5424 
L 291.948661 71.5424 
L 289.119863 71.5424 
L 286.291065 71.5424 
L 283.462267 71.5424 
L 280.63347 71.5424 
L 277.804672 71.5424 
L 274.975874 71.5424 
L 272.147076 71.5424 
L 269.318279 71.5424 
L 266.489481 71.5424 
L 263.660683 71.5424 
L 260.831885 71.5424 
L 258.003088 71.5424 
L 255.17429 71.5424 
L 252.345492 71.5424 
L 249.516694 71.5424 
L 246.687897 71.5424 
L 243.859099 71.5424 
L 241.030301 71.5424 
L 238.201503 71.5424 
L 235.372706 71.5424 
L 232.543908 71.5424 
L 229.71511 71.5424 
L 226.886312 71.5424 
L 224.057515 71.5424 
L 221.228717 71.5424 
L 218.399919 71.5424 
L 215.571122 71.5424 
L 212.742324 71.5424 
L 209.913526 71.5424 
L 207.084728 71.5424 
L 204.255931 71.5424 
L 201.427133 71.5424 
L 198.598335 71.5424 
L 195.769537 71.5424 
L 192.94074 71.5424 
L 190.111942 71.5424 
L 187.283144 71.5424 
L 184.454346 71.5424 
L 181.625549 71.5424 
L 178.796751 71.5424 
L 175.967953 71.5424 
L 173.139155 71.5424 
L 170.310358 71.5424 
L 167.48156 71.5424 
L 164.652762 71.5424 
L 161.823964 71.5424 
L 158.995167 71.5424 
L 156.166369 71.5424 
L 153.337571 71.5424 
L 150.508773 71.5424 
L 147.679976 71.5424 
L 144.851178 71.5424 
L 142.02238 71.5424 
L 139.193582 71.5424 
L 136.364785 71.5424 
L 133.535987 71.5424 
z
" clip-path="url(#pc81632c471)" style="fill: #c7eae5"/>
   </g>
   <g id="matplotlib.axis_1">
    <g id="xtick_1">
     <g id="line2d_1">
      <path d="M 133.535987 493.9424 
L 133.535987 50.4224 
" clip-path="url(#pc81632c471)" style="fill: none; stroke: #ffffff; stroke-opacity: 0.3; stroke-width: 0.75; stroke-linecap: square"/>
     </g>
     <g id="line2d_2">
      <defs>
       <path id="m74ef4f928b" d="M 0 0 
L 0 3.5 
" style="stroke: #000000; stroke-width: 0.8"/>
      </defs>
      <g>
       <use xlink:href="#m74ef4f928b" x="133.535987" y="493.9424" style="stroke: #000000; stroke-width: 0.8"/>
      </g>
     </g>
     <g id="text_1">
      <text style="font-weight: 600; font-size: 24px; font-family: 'DejaVu Sans', 'Bitstream Vera Sans', 'Computer Modern Sans Serif', 'Lucida Grande', 'Verdana', 'Geneva', 'Lucid', 'Arial', 'Helvetica', 'Avant Garde', sans-serif; fill: #767676" transform="translate(140.158487 644.42115) rotate(-90)">sept. 2006</text>
     </g>
    </g>
    <g id="xtick_2">
     <g id="line2d_3">
      <path d="M 180.525461 493.9424 
L 180.525461 50.4224 
" clip-path="url(#pc81632c471)" style="fill: none; stroke: #ffffff; stroke-opacity: 0.3; stroke-width: 0.75; stroke-linecap: square"/>
     </g>
     <g id="line2d_4">
      <g>
       <use xlink:href="#m74ef4f928b" x="180.525461" y="493.9424" style="stroke: #000000; stroke-width: 0.8"/>
      </g>
     </g>
     <g id="text_2">
      <text style="font-weight: 600; font-size: 24px; font-family: 'DejaVu Sans', 'Bitstream Vera Sans', 'Computer Modern Sans Serif', 'Lucida Grande', 'Verdana', 'Geneva', 'Lucid', 'Arial', 'Helvetica', 'Avant Garde', sans-serif; fill: #767676" transform="translate(187.147961 644.42115) rotate(-90)">sept. 2007</text>
     </g>
    </g>
    <g id="xtick_3">
     <g id="line2d_5">
      <path d="M 227.514934 493.9424 
L 227.514934 50.4224 
" clip-path="url(#pc81632c471)" style="fill: none; stroke: #ffffff; stroke-opacity: 0.3; stroke-width: 0.75; stroke-linecap: square"/>
     </g>
     <g id="line2d_6">
      <g>
       <use xlink:href="#m74ef4f928b" x="227.514934" y="493.9424" style="stroke: #000000; stroke-width: 0.8"/>
      </g>
     </g>
     <g id="text_3">
      <text style="font-weight: 600; font-size: 24px; font-family: 'DejaVu Sans', 'Bitstream Vera Sans', 'Computer Modern Sans Serif', 'Lucida Grande', 'Verdana', 'Geneva', 'Lucid', 'Arial', 'Helvetica', 'Avant Garde', sans-serif; fill: #767676" transform="translate(234.137434 644.42115) rotate(-90)">sept. 2008</text>
     </g>
    </g>
    <g id="xtick_4">
     <g id="line2d_7">
      <path d="M 274.504408 493.9424 
L 274.504408 50.4224 
" clip-path="url(#pc81632c471)" style="fill: none; stroke: #ffffff; stroke-opacity: 0.3; stroke-width: 0.75; stroke-linecap: square"/>
     </g>
     <g id="line2d_8">
      <g>
       <use xlink:href="#m74ef4f928b" x="274.504408" y="493.9424" style="stroke: #000000; stroke-width: 0.8"/>
      </g>
     </g>
     <g id="text_4">
      <text style="font-weight: 600; font-size: 24px; font-family: 'DejaVu Sans', 'Bitstream Vera Sans', 'Computer Modern Sans Serif', 'Lucida Grande', 'Verdana', 'Geneva', 'Lucid', 'Arial', 'Helvetica', 'Avant Garde', sans-serif; fill: #767676" transform="translate(281.126908 644.42115) rotate(-90)">sept. 2009</text>
     </g>
    </g>
    <g id="xtick_5">
     <g id="line2d_9">
      <path d="M 321.493882 493.9424 
L 321.493882 50.4224 
" clip-path="url(#pc81632c471)" style="fill: none; stroke: #ffffff; stroke-opacity: 0.3; stroke-width: 0.75; stroke-linecap: square"/>
     </g>
     <g id="line2d_10">
      <g>
       <use xlink:href="#m74ef4f928b" x="321.493882" y="493.9424" style="stroke: #000000; stroke-width: 0.8"/>
      </g>
     </g>
     <g id="text_5">
      <text style="font-weight: 600; font-size: 24px; font-family: 'DejaVu Sans', 'Bitstream Vera Sans', 'Computer Modern Sans Serif', 'Lucida Grande', 'Verdana', 'Geneva', 'Lucid', 'Arial', 'Helvetica', 'Avant Garde', sans-serif; fill: #767676" transform="translate(328.116382 644.42115) rotate(-90)">sept. 2010</text>
     </g>
    </g>
    <g id="xtick_6">
     <g id="line2d_11">
      <path d="M 368.483355 493.9424 
L 368.483355 50.4224 
" clip-path="url(#pc81632c471)" style="fill: none; stroke: #ffffff; stroke-opacity: 0.3; stroke-width: 0.75; stroke-linecap: square"/>
     </g>
     <g id="line2d_12">
      <g>
       <use xlink:href="#m74ef4f928b" x="368.483355" y="493.9424" style="stroke: #000000; stroke-width: 0.8"/>
      </g>
     </g>
     <g id="text_6">
      <text style="font-weight: 600; font-size: 24px; font-family: 'DejaVu Sans', 'Bitstream Vera Sans', 'Computer Modern Sans Serif', 'Lucida Grande', 'Verdana', 'Geneva', 'Lucid', 'Arial', 'Helvetica', 'Avant Garde', sans-serif; fill: #767676" transform="translate(375.105855 644.42115) rotate(-90)">sept. 2011</text>
     </g>
    </g>
    <g id="xtick_7">
     <g id="line2d_13">
      <path d="M 415.472829 493.9424 
L 415.472829 50.4224 
" clip-path="url(#pc81632c471)" style="fill: none; stroke: #ffffff; stroke-opacity: 0.3; stroke-width: 0.75; stroke-linecap: square"/>
     </g>
     <g id="line2d_14">
      <g>
       <use xlink:href="#m74ef4f928b" x="415.472829" y="493.9424" style="stroke: #000000; stroke-width: 0.8"/>
      </g>
     </g>
     <g id="text_7">
      <text style="font-weight: 600; font-size: 24px; font-family: 'DejaVu Sans', 'Bitstream Vera Sans', 'Computer Modern Sans Serif', 'Lucida Grande', 'Verdana', 'Geneva', 'Lucid', 'Arial', 'Helvetica', 'Avant Garde', sans-serif; fill: #767676" transform="translate(422.095329 644.42115) rotate(-90)">sept. 2012</text>
     </g>
    </g>
    <g id="xtick_8">
     <g id="line2d_15">
      <path d="M 462.462303 493.9424 
L 462.462303 50.4224 
" clip-path="url(#pc81632c471)" style="fill: none; stroke: #ffffff; stroke-opacity: 0.3; stroke-width: 0.75; stroke-linecap: square"/>
     </g>
     <g id="line2d_16">
      <g>
       <use xlink:href="#m74ef4f928b" x="462.462303" y="493.9424" style="stroke: #000000; stroke-width: 0.8"/>
      </g>
     </g>
     <g id="text_8">
      <text style="font-weight: 600; font-size: 24px; font-family: 'DejaVu Sans', 'Bitstream Vera Sans', 'Computer Modern Sans Serif', 'Lucida Grande', 'Verdana', 'Geneva', 'Lucid', 'Arial', 'Helvetica', 'Avant Garde', sans-serif; fill: #767676" transform="translate(469.084803 644.42115) rotate(-90)">sept. 2013</text>
     </g>
    </g>
    <g id="xtick_9">
     <g id="line2d_17">
      <path d="M 509.451776 493.9424 
L 509.451776 50.4224 
" clip-path="url(#pc81632c471)" style="fill: none; stroke: #ffffff; stroke-opacity: 0.3; stroke-width: 0.75; stroke-linecap: square"/>
     </g>
     <g id="line2d_18">
      <g>
       <use xlink:href="#m74ef4f928b" x="509.451776" y="493.9424" style="stroke: #000000; stroke-width: 0.8"/>
      </g>
     </g>
     <g id="text_9">
      <text style="font-weight: 600; font-size: 24px; font-family: 'DejaVu Sans', 'Bitstream Vera Sans', 'Computer Modern Sans Serif', 'Lucida Grande', 'Verdana', 'Geneva', 'Lucid', 'Arial', 'Helvetica', 'Avant Garde', sans-serif; fill: #767676" transform="translate(516.074276 644.42115) rotate(-90)">sept. 2014</text>
     </g>
    </g>
    <g id="xtick_10">
     <g id="line2d_19">
      <path d="M 556.44125 493.9424 
L 556.44125 50.4224 
" clip-path="url(#pc81632c471)" style="fill: none; stroke: #ffffff; stroke-opacity: 0.3; stroke-width: 0.75; stroke-linecap: square"/>
     </g>
     <g id="line2d_20">
      <g>
       <use xlink:href="#m74ef4f928b" x="556.44125" y="493.9424" style="stroke: #000000; stroke-width: 0.8"/>
      </g>
     </g>
     <g id="text_10">
      <text style="font-weight: 600; font-size: 24px; font-family: 'DejaVu Sans', 'Bitstream Vera Sans', 'Computer Modern Sans Serif', 'Lucida Grande', 'Verdana', 'Geneva', 'Lucid', 'Arial', 'Helvetica', 'Avant Garde', sans-serif; fill: #767676" transform="translate(563.06375 644.42115) rotate(-90)">sept. 2015</text>
     </g>
    </g>
    <g id="xtick_11">
     <g id="line2d_21">
      <path d="M 603.430724 493.9424 
L 603.430724 50.4224 
" clip-path="url(#pc81632c471)" style="fill: none; stroke: #ffffff; stroke-opacity: 0.3; stroke-width: 0.75; stroke-linecap: square"/>
     </g>
     <g id="line2d_22">
      <g>
       <use xlink:href="#m74ef4f928b" x="603.430724" y="493.9424" style="stroke: #000000; stroke-width: 0.8"/>
      </g>
     </g>
     <g id="text_11">
      <text style="font-weight: 600; font-size: 24px; font-family: 'DejaVu Sans', 'Bitstream Vera Sans', 'Computer Modern Sans Serif', 'Lucida Grande', 'Verdana', 'Geneva', 'Lucid', 'Arial', 'Helvetica', 'Avant Garde', sans-serif; fill: #767676" transform="translate(610.053224 644.42115) rotate(-90)">sept. 2016</text>
     </g>
    </g>
    <g id="xtick_12">
     <g id="line2d_23">
      <path d="M 650.420197 493.9424 
L 650.420197 50.4224 
" clip-path="url(#pc81632c471)" style="fill: none; stroke: #ffffff; stroke-opacity: 0.3; stroke-width: 0.75; stroke-linecap: square"/>
     </g>
     <g id="line2d_24">
      <g>
       <use xlink:href="#m74ef4f928b" x="650.420197" y="493.9424" style="stroke: #000000; stroke-width: 0.8"/>
      </g>
     </g>
     <g id="text_12">
      <text style="font-weight: 600; font-size: 24px; font-family: 'DejaVu Sans', 'Bitstream Vera Sans', 'Computer Modern Sans Serif', 'Lucida Grande', 'Verdana', 'Geneva', 'Lucid', 'Arial', 'Helvetica', 'Avant Garde', sans-serif; fill: #767676" transform="translate(657.042697 644.42115) rotate(-90)">sept. 2017</text>
     </g>
    </g>
    <g id="xtick_13">
     <g id="line2d_25">
      <path d="M 697.409671 493.9424 
L 697.409671 50.4224 
" clip-path="url(#pc81632c471)" style="fill: none; stroke: #ffffff; stroke-opacity: 0.3; stroke-width: 0.75; stroke-linecap: square"/>
     </g>
     <g id="line2d_26">
      <g>
       <use xlink:href="#m74ef4f928b" x="697.409671" y="493.9424" style="stroke: #000000; stroke-width: 0.8"/>
      </g>
     </g>
     <g id="text_13">
      <text style="font-weight: 600; font-size: 24px; font-family: 'DejaVu Sans', 'Bitstream Vera Sans', 'Computer Modern Sans Serif', 'Lucida Grande', 'Verdana', 'Geneva', 'Lucid', 'Arial', 'Helvetica', 'Avant Garde', sans-serif; fill: #767676" transform="translate(704.032171 644.42115) rotate(-90)">sept. 2018</text>
     </g>
    </g>
    <g id="xtick_14">
     <g id="line2d_27">
      <path d="M 744.399145 493.9424 
L 744.399145 50.4224 
" clip-path="url(#pc81632c471)" style="fill: none; stroke: #ffffff; stroke-opacity: 0.3; stroke-width: 0.75; stroke-linecap: square"/>
     </g>
     <g id="line2d_28">
      <g>
       <use xlink:href="#m74ef4f928b" x="744.399145" y="493.9424" style="stroke: #000000; stroke-width: 0.8"/>
      </g>
     </g>
     <g id="text_14">
      <text style="font-weight: 600; font-size: 24px; font-family: 'DejaVu Sans', 'Bitstream Vera Sans', 'Computer Modern Sans Serif', 'Lucida Grande', 'Verdana', 'Geneva', 'Lucid', 'Arial', 'Helvetica', 'Avant Garde', sans-serif; fill: #767676" transform="translate(751.021645 634.82865) rotate(-90)">mar. 2020</text>
     </g>
    </g>
    <g id="xtick_15">
     <g id="line2d_29">
      <path d="M 791.388618 493.9424 
L 791.388618 50.4224 
" clip-path="url(#pc81632c471)" style="fill: none; stroke: #ffffff; stroke-opacity: 0.3; stroke-width: 0.75; stroke-linecap: square"/>
     </g>
     <g id="line2d_30">
      <g>
       <use xlink:href="#m74ef4f928b" x="791.388618" y="493.9424" style="stroke: #000000; stroke-width: 0.8"/>
      </g>
     </g>
     <g id="text_15">
      <text style="font-weight: 600; font-size: 24px; font-family: 'DejaVu Sans', 'Bitstream Vera Sans', 'Computer Modern Sans Serif', 'Lucida Grande', 'Verdana', 'Geneva', 'Lucid', 'Arial', 'Helvetica', 'Avant Garde', sans-serif; fill: #767676" transform="translate(798.011118 644.42115) rotate(-90)">sept. 2020</text>
     </g>
    </g>
    <g id="xtick_16">
     <g id="line2d_31">
      <path d="M 838.378092 493.9424 
L 838.378092 50.4224 
" clip-path="url(#pc81632c471)" style="fill: none; stroke: #ffffff; stroke-opacity: 0.3; stroke-width: 0.75; stroke-linecap: square"/>
     </g>
     <g id="line2d_32">
      <g>
       <use xlink:href="#m74ef4f928b" x="838.378092" y="493.9424" style="stroke: #000000; stroke-width: 0.8"/>
      </g>
     </g>
     <g id="text_16">
      <text style="font-weight: 600; font-size: 24px; font-family: 'DejaVu Sans', 'Bitstream Vera Sans', 'Computer Modern Sans Serif', 'Lucida Grande', 'Verdana', 'Geneva', 'Lucid', 'Arial', 'Helvetica', 'Avant Garde', sans-serif; fill: #767676" transform="translate(845.000592 644.42115) rotate(-90)">sept. 2021</text>
     </g>
    </g>
    <g id="xtick_17">
     <g id="line2d_33">
      <path d="M 885.367566 493.9424 
L 885.367566 50.4224 
" clip-path="url(#pc81632c471)" style="fill: none; stroke: #ffffff; stroke-opacity: 0.3; stroke-width: 0.75; stroke-linecap: square"/>
     </g>
     <g id="line2d_34">
      <g>
       <use xlink:href="#m74ef4f928b" x="885.367566" y="493.9424" style="stroke: #000000; stroke-width: 0.8"/>
      </g>
     </g>
     <g id="text_17">
      <text style="font-weight: 600; font-size: 24px; font-family: 'DejaVu Sans', 'Bitstream Vera Sans', 'Computer Modern Sans Serif', 'Lucida Grande', 'Verdana', 'Geneva', 'Lucid', 'Arial', 'Helvetica', 'Avant Garde', sans-serif; fill: #767676" transform="translate(891.990066 644.42115) rotate(-90)">sept. 2022</text>
     </g>
    </g>
    <g id="xtick_18">
     <g id="line2d_35">
      <path d="M 932.357039 493.9424 
L 932.357039 50.4224 
" clip-path="url(#pc81632c471)" style="fill: none; stroke: #ffffff; stroke-opacity: 0.3; stroke-width: 0.75; stroke-linecap: square"/>
     </g>
     <g id="line2d_36">
      <g>
       <use xlink:href="#m74ef4f928b" x="932.357039" y="493.9424" style="stroke: #000000; stroke-width: 0.8"/>
      </g>
     </g>
     <g id="text_18">
      <text style="font-weight: 600; font-size: 24px; font-family: 'DejaVu Sans', 'Bitstream Vera Sans', 'Computer Modern Sans Serif', 'Lucida Grande', 'Verdana', 'Geneva', 'Lucid', 'Arial', 'Helvetica', 'Avant Garde', sans-serif; fill: #767676" transform="translate(938.979539 644.42115) rotate(-90)">sept. 2023</text>
     </g>
    </g>
    <g id="xtick_19">
     <g id="line2d_37">
      <path d="M 979.346513 493.9424 
L 979.346513 50.4224 
" clip-path="url(#pc81632c471)" style="fill: none; stroke: #ffffff; stroke-opacity: 0.3; stroke-width: 0.75; stroke-linecap: square"/>
     </g>
     <g id="line2d_38">
      <g>
       <use xlink:href="#m74ef4f928b" x="979.346513" y="493.9424" style="stroke: #000000; stroke-width: 0.8"/>
      </g>
     </g>
     <g id="text_19">
      <text style="font-weight: 600; font-size: 24px; font-family: 'DejaVu Sans', 'Bitstream Vera Sans', 'Computer Modern Sans Serif', 'Lucida Grande', 'Verdana', 'Geneva', 'Lucid', 'Arial', 'Helvetica', 'Avant Garde', sans-serif; fill: #767676" transform="translate(985.969013 644.42115) rotate(-90)">sept. 2024</text>
     </g>
    </g>
   </g>
   <g id="matplotlib.axis_2">
    <g id="ytick_1">
     <g id="line2d_39">
      <path d="M 110.04125 493.9424 
L 1002.84125 493.9424 
" clip-path="url(#pc81632c471)" style="fill: none; stroke: #ffffff; stroke-opacity: 0.8; stroke-width: 1.25; stroke-linecap: square"/>
     </g>
     <g id="line2d_40">
      <defs>
       <path id="m9daef243eb" d="M 0 0 
L -3.5 0 
" style="stroke: #000000; stroke-width: 0.8"/>
      </defs>
      <g>
       <use xlink:href="#m9daef243eb" x="110.04125" y="493.9424" style="stroke: #000000; stroke-width: 0.8"/>
      </g>
     </g>
     <g id="text_20">
      <text style="font-weight: 500; font-size: 24px; font-family: 'DejaVu Sans', 'Bitstream Vera Sans', 'Computer Modern Sans Serif', 'Lucida Grande', 'Verdana', 'Geneva', 'Lucid', 'Arial', 'Helvetica', 'Avant Garde', sans-serif; text-anchor: end; fill: #767676" x="103.04125" y="503.060525" transform="rotate(-0 103.04125 503.060525)">0%</text>
     </g>
    </g>
    <g id="ytick_2">
     <g id="line2d_41">
      <path d="M 110.04125 388.3424 
L 1002.84125 388.3424 
" clip-path="url(#pc81632c471)" style="fill: none; stroke: #ffffff; stroke-opacity: 0.8; stroke-width: 1.25; stroke-linecap: square"/>
     </g>
     <g id="line2d_42">
      <g>
       <use xlink:href="#m9daef243eb" x="110.04125" y="388.3424" style="stroke: #000000; stroke-width: 0.8"/>
      </g>
     </g>
     <g id="text_21">
      <text style="font-weight: 500; font-size: 24px; font-family: 'DejaVu Sans', 'Bitstream Vera Sans', 'Computer Modern Sans Serif', 'Lucida Grande', 'Verdana', 'Geneva', 'Lucid', 'Arial', 'Helvetica', 'Avant Garde', sans-serif; text-anchor: end; fill: #767676" x="103.04125" y="397.460525" transform="rotate(-0 103.04125 397.460525)">25%</text>
     </g>
    </g>
    <g id="ytick_3">
     <g id="line2d_43">
      <path d="M 110.04125 282.7424 
L 1002.84125 282.7424 
" clip-path="url(#pc81632c471)" style="fill: none; stroke: #ffffff; stroke-opacity: 0.8; stroke-width: 1.25; stroke-linecap: square"/>
     </g>
     <g id="line2d_44">
      <g>
       <use xlink:href="#m9daef243eb" x="110.04125" y="282.7424" style="stroke: #000000; stroke-width: 0.8"/>
      </g>
     </g>
     <g id="text_22">
      <text style="font-weight: 500; font-size: 24px; font-family: 'DejaVu Sans', 'Bitstream Vera Sans', 'Computer Modern Sans Serif', 'Lucida Grande', 'Verdana', 'Geneva', 'Lucid', 'Arial', 'Helvetica', 'Avant Garde', sans-serif; text-anchor: end; fill: #767676" x="103.04125" y="291.860525" transform="rotate(-0 103.04125 291.860525)">50%</text>
     </g>
    </g>
    <g id="ytick_4">
     <g id="line2d_45">
      <path d="M 110.04125 177.1424 
L 1002.84125 177.1424 
" clip-path="url(#pc81632c471)" style="fill: none; stroke: #ffffff; stroke-opacity: 0.8; stroke-width: 1.25; stroke-linecap: square"/>
     </g>
     <g id="line2d_46">
      <g>
       <use xlink:href="#m9daef243eb" x="110.04125" y="177.1424" style="stroke: #000000; stroke-width: 0.8"/>
      </g>
     </g>
     <g id="text_23">
      <text style="font-weight: 500; font-size: 24px; font-family: 'DejaVu Sans', 'Bitstream Vera Sans', 'Computer Modern Sans Serif', 'Lucida Grande', 'Verdana', 'Geneva', 'Lucid', 'Arial', 'Helvetica', 'Avant Garde', sans-serif; text-anchor: end; fill: #767676" x="103.04125" y="186.260525" transform="rotate(-0 103.04125 186.260525)">75%</text>
     </g>
    </g>
    <g id="ytick_5">
     <g id="line2d_47">
      <path d="M 110.04125 71.5424 
L 1002.84125 71.5424 
" clip-path="url(#pc81632c471)" style="fill: none; stroke: #ffffff; stroke-opacity: 0.8; stroke-width: 1.25; stroke-linecap: square"/>
     </g>
     <g id="line2d_48">
      <g>
       <use xlink:href="#m9daef243eb" x="110.04125" y="71.5424" style="stroke: #000000; stroke-width: 0.8"/>
      </g>
     </g>
     <g id="text_24">
      <text style="font-weight: 500; font-size: 24px; font-family: 'DejaVu Sans', 'Bitstream Vera Sans', 'Computer Modern Sans Serif', 'Lucida Grande', 'Verdana', 'Geneva', 'Lucid', 'Arial', 'Helvetica', 'Avant Garde', sans-serif; text-anchor: end; fill: #767676" x="103.04125" y="80.660525" transform="rotate(-0 103.04125 80.660525)">100%</text>
     </g>
    </g>
    <g id="text_25">
     <text style="font-weight: 500; font-size: 24px; font-family: 'DejaVu Sans', 'Bitstream Vera Sans', 'Computer Modern Sans Serif', 'Lucida Grande', 'Verdana', 'Geneva', 'Lucid', 'Arial', 'Helvetica', 'Avant Garde', sans-serif; text-anchor: middle; fill: #767676" x="25.43625" y="272.1824" transform="rotate(-90 25.43625 272.1824)">Porcentaje</text>
    </g>
   </g>
   <g id="patch_3">
    <path d="M 110.04125 493.9424 
L 1002.84125 493.9424 
" style="fill: none; stroke: #000000; stroke-width: 2; stroke-linejoin: miter; stroke-linecap: square"/>
   </g>
   <g id="text_26">
    <g id="patch_4">
     <path d="M 189.754572 452.260525 
L 218.285822 452.260525 
Q 238.285822 452.260525 238.285822 432.260525 
L 238.285822 428.904275 
Q 238.285822 408.904275 218.285822 408.904275 
L 189.754572 408.904275 
Q 169.754572 408.904275 169.754572 428.904275 
L 169.754572 432.260525 
Q 169.754572 452.260525 189.754572 452.260525 
z
" style="fill: #ffffff; stroke: #d9d9d9; stroke-width: 1.8; stroke-linejoin: miter"/>
    </g>
    <text style="font-weight: 500; font-size: 20px; font-family: 'DejaVu Sans', 'Bitstream Vera Sans', 'Computer Modern Sans Serif', 'Lucida Grande', 'Verdana', 'Geneva', 'Lucid', 'Arial', 'Helvetica', 'Avant Garde', sans-serif; text-anchor: middle; fill: #10302c" x="204.020197" y="436.10115" transform="rotate(-0 204.020197 436.10115)">5.95</text>
   </g>
   <g id="text_27">
    <g id="patch_5">
     <path d="M 471.691414 325.540525 
L 500.222664 325.540525 
Q 520.222664 325.540525 520.222664 305.540525 
L 520.222664 302.184275 
Q 520.222664 282.184275 500.222664 282.184275 
L 471.691414 282.184275 
Q 451.691414 282.184275 451.691414 302.184275 
L 451.691414 305.540525 
Q 451.691414 325.540525 471.691414 325.540525 
z
" style="fill: #ffffff; stroke: #d9d9d9; stroke-width: 1.8; stroke-linejoin: miter"/>
    </g>
    <text style="font-weight: 500; font-size: 20px; font-family: 'DejaVu Sans', 'Bitstream Vera Sans', 'Computer Modern Sans Serif', 'Lucida Grande', 'Verdana', 'Geneva', 'Lucid', 'Arial', 'Helvetica', 'Avant Garde', sans-serif; text-anchor: middle; fill: #10302c" x="485.957039" y="309.38115" transform="rotate(-0 485.957039 309.38115)">5.92</text>
   </g>
   <g id="text_28">
    <g id="patch_6">
     <path d="M 753.628257 156.580525 
L 782.159507 156.580525 
Q 802.159507 156.580525 802.159507 136.580525 
L 802.159507 133.224275 
Q 802.159507 113.224275 782.159507 113.224275 
L 753.628257 113.224275 
Q 733.628257 113.224275 733.628257 133.224275 
L 733.628257 136.580525 
Q 733.628257 156.580525 753.628257 156.580525 
z
" style="fill: #ffffff; stroke: #d9d9d9; stroke-width: 1.8; stroke-linejoin: miter"/>
    </g>
    <text style="font-weight: 500; font-size: 20px; font-family: 'DejaVu Sans', 'Bitstream Vera Sans', 'Computer Modern Sans Serif', 'Lucida Grande', 'Verdana', 'Geneva', 'Lucid', 'Arial', 'Helvetica', 'Avant Garde', sans-serif; text-anchor: middle; fill: #10302c" x="767.893882" y="140.42115" transform="rotate(-0 767.893882 140.42115)">7.13</text>
   </g>
   <g id="legend_1">
    <g id="patch_7">
     <path d="M 223.635 31.196875 
L 263.635 31.196875 
L 263.635 17.196875 
L 223.635 17.196875 
z
" style="fill: #215f53"/>
    </g>
    <g id="text_29">
     <text style="font-weight: 500; font-size: 20px; font-family: 'DejaVu Sans', 'Bitstream Vera Sans', 'Computer Modern Sans Serif', 'Lucida Grande', 'Verdana', 'Geneva', 'Lucid', 'Arial', 'Helvetica', 'Avant Garde', sans-serif; text-anchor: start" x="279.635" y="31.196875" transform="rotate(-0 279.635 31.196875)">Comisiones</text>
    </g>
    <g id="patch_8">
     <path d="M 434.488125 31.196875 
L 474.488125 31.196875 
L 474.488125 17.196875 
L 434.488125 17.196875 
z
" style="fill: #7570b3"/>
    </g>
    <g id="text_30">
     <text style="font-weight: 500; font-size: 20px; font-family: 'DejaVu Sans', 'Bitstream Vera Sans', 'Computer Modern Sans Serif', 'Lucida Grande', 'Verdana', 'Geneva', 'Lucid', 'Arial', 'Helvetica', 'Avant Garde', sans-serif; text-anchor: start" x="490.488125" y="31.196875" transform="rotate(-0 490.488125 31.196875)">Fiscalas y Procuraduras</text>
    </g>
    <g id="patch_9">
     <path d="M 775.800625 31.196875 
L 815.800625 31.196875 
L 815.800625 17.196875 
L 775.800625 17.196875 
z
" style="fill: #c7eae5"/>
    </g>
    <g id="text_31">
     <text style="font-weight: 500; font-size: 20px; font-family: 'DejaVu Sans', 'Bitstream Vera Sans', 'Computer Modern Sans Serif', 'Lucida Grande', 'Verdana', 'Geneva', 'Lucid', 'Arial', 'Helvetica', 'Avant Garde', sans-serif; text-anchor: start" x="831.800625" y="31.196875" transform="rotate(-0 831.800625 31.196875)">Portal</text>
    </g>
   </g>
  </g>
 </g>
 <defs>
  <clipPath id="pc81632c471">
   <rect x="110.04125" y="50.4224" width="892.8" height="443.52"/>
  </clipPath>
 </defs>
</svg>
