<svg xmlns="http://www.w3.org/2000/svg" xmlns:xlink="http://www.w3.org/1999/xlink" width="1010pt" height="868.827" viewBox="0 0 1010 651.62"><defs><style>*{stroke-linejoin:round;stroke-linecap:butt}</style></defs><path fill="#fff" d="M0 651.62h1010V0H0z"/><path fill="#fff" d="M110.04 493.94h892.8V50.42h-892.8z"/><path fill="#215f53" d="M133.54 363.1v130.84h845.812V343.72l-2.83-6.502-2.828-5.463-2.83-4.474-2.828-3.535-2.829-2.644-2.829-1.803-2.828-1.013-2.83-.27-2.828.42-2.829 1.064-2.829 1.657-2.828 2.2-2.83 2.694-2.828 3.138-2.829 3.533-2.829 3.878-2.828 4.174-2.83 4.42-2.828 4.617-2.829 4.763-2.829 4.861-2.828 4.91-2.83 4.907-2.828 4.856-2.829 4.756-2.829 4.606-2.828 4.406-2.83 4.156-2.828 3.858-2.829 3.509-2.829 3.111-2.828 2.664-2.83 2.167-2.828 1.629-2.829 1.114-2.829.653-2.828.247-2.83-.104-2.828-.4-2.829-.643-2.829-.83-2.828-.963-2.83-1.04-2.828-1.066-2.829-1.033-2.829-.949-2.828-.808-2.83-.613-2.828-.364-2.829-.06-2.829.268-2.828.545-2.83.758-2.828.91-2.829 1-2.829 1.027-2.828.99-2.83.893-2.828.733-2.829.509-2.829.223-2.828-.124-2.83-.535-2.828-1.007-2.829-1.543-2.829-2.14-2.828-2.798-2.83-3.432-2.828-3.98-2.829-4.44-2.829-4.809-2.828-5.087-2.83-5.276-2.828-5.377-2.829-5.386-2.829-5.306-2.828-5.136-2.83-4.877-2.828-4.527-2.829-4.088-2.829-3.56-2.828-2.94-2.83-2.233-2.828-1.457-2.829-.716-2.829-.041-2.828.566-2.83 1.108-2.828 1.584-2.829 1.992-2.829 2.336-2.828 2.612-2.83 2.822-2.828 2.967-2.829 3.044-2.829 3.055-2.828 3.001-2.83 2.88-2.828 2.693-2.829 2.44-2.829 2.147-2.828 1.857-2.83 1.575-2.828 1.296-2.829 1.025-2.829.76-2.828.5-2.83.247h-2.828l-2.829-.241-2.829-.476-2.828-.706-2.83-.928-2.828-1.145-2.829-1.356-2.829-1.56-2.828-1.757-2.83-1.922-2.828-2.044-2.829-2.12-2.829-2.156-2.828-2.145-2.83-2.091-2.828-1.994-2.829-1.853-2.829-1.667-2.828-1.438-2.83-1.165-2.828-.849-2.829-.488-2.829-.084-2.828.364-2.83.856-2.828 1.366-2.829 1.814-2.829 2.189-2.828 2.49-2.83 2.72-2.828 2.872-2.829 2.953-2.829 2.96-2.828 2.892-2.83 2.752-2.828 2.537-2.829 2.25-2.829 1.887-2.828 1.45-2.83.943-2.828.359-2.829-.295-2.829-.952-2.828-1.544-2.83-2.07-2.828-2.526-2.829-2.917-2.829-3.238-2.828-3.494-2.83-3.68-2.828-3.8-2.829-3.853-2.829-3.838-2.828-3.754-2.83-3.604-2.828-3.386-2.829-3.1-2.829-2.748-2.828-2.337-2.83-1.922-2.828-1.522-2.829-1.137-2.829-.768-2.828-.413-2.83-.072-2.828.252-2.829.562-2.829.857-2.828 1.138-2.83 1.402-2.828 1.653-2.829 1.888-2.829 2.108-2.828 2.314-2.83 2.503-2.828 2.672-2.829 2.803-2.829 2.897-2.828 2.954-2.83 2.973-2.828 2.954-2.829 2.898-2.829 2.804-2.828 2.673-2.83 2.505-2.828 2.298-2.829 2.055-2.829 1.773-2.828 1.455-2.83 1.098-2.828.704-2.829.277-2.829-.134-2.828-.494-2.83-.807-2.828-1.069-2.829-1.281-2.829-1.445-2.828-1.558-2.83-1.622-2.828-1.637-2.829-1.601-2.829-1.517-2.828-1.382-2.83-1.2-2.828-.965-2.829-.682-2.829-.35-2.828.014-2.83.352-2.828.649-2.829.907-2.829 1.124-2.828 1.303-2.83 1.44-2.828 1.539-2.829 1.597-2.829 1.616-2.828 1.595-2.83 1.534-2.828 1.433-2.829 1.292-2.829 1.112-2.828.892-2.83.632-2.828.363-2.829.115-2.829-.107-2.828-.307-2.83-.482-2.828-.633-2.829-.759-2.829-.862-2.828-.94-2.83-.995-2.828-1.025-2.829-1.03-2.829-1.013-2.828-.97-2.83-.905-2.828-.813-2.829-.703-2.829-.593-2.828-.496-2.83-.411-2.828-.337-2.829-.276-2.829-.225-2.828-.186-2.83-.16-2.828-.144-2.829-.14-2.829-.15-2.828-.17-2.83-.2-2.828-.245-2.829-.3-2.829-.367-2.828-.439-2.83-.503-2.828-.558-2.829-.602-2.829-.637-2.828-.663-2.83-.678-2.828-.684-2.829-.68-2.829-.667-2.828-.644-2.83-.61-2.828-.568-2.829-.515-2.829-.454-2.828-.38-2.83-.3-2.828-.21-2.829-.107-2.829.004-2.828.124-2.83.253-2.828.394-2.829.544-2.829.702-2.828.872-2.83 1.05-2.828 1.24-2.829 1.437-2.829 1.645-2.828 1.863-2.83 2.09-2.828 2.327z" clip-path="url(#a)"/><path fill="#7570b3" d="M133.54 205.12V363.1l2.829-2.327 2.829-2.09 2.828-1.863 2.83-1.645 2.828-1.437 2.829-1.24 2.829-1.05 2.828-.871 2.83-.703 2.828-.543 2.829-.394 2.829-.254 2.828-.124 2.83-.003 2.828.107 2.829.209 2.829.3 2.828.38 2.83.454 2.828.515 2.829.568 2.829.61 2.828.644 2.83.667 2.828.68 2.829.684 2.829.678 2.828.663 2.83.637 2.828.603 2.829.557 2.829.503 2.828.44 2.83.366 2.828.3 2.829.245 2.829.2 2.828.17 2.83.15 2.828.14 2.829.145 2.829.16 2.828.186 2.83.225 2.828.275 2.829.337 2.829.41 2.828.497 2.83.594 2.828.702 2.829.814 2.829.904 2.828.97 2.83 1.013 2.828 1.03 2.829 1.026 2.829.994 2.828.94 2.83.862 2.828.76 2.829.632 2.829.482 2.828.307 2.83.108 2.828-.116 2.829-.363 2.829-.632 2.828-.892 2.83-1.112 2.828-1.292 2.829-1.433 2.829-1.534 2.828-1.595 2.83-1.616 2.828-1.597 2.829-1.539 2.829-1.44 2.828-1.303 2.83-1.124 2.828-.907 2.829-.649 2.829-.352 2.828-.014 2.83.35 2.828.683 2.829.965 2.829 1.199 2.828 1.382 2.83 1.517 2.828 1.602 2.829 1.636 2.829 1.622 2.828 1.558 2.83 1.445 2.828 1.282 2.829 1.068 2.829.807 2.828.495 2.83.133 2.828-.277 2.829-.704 2.829-1.098 2.828-1.455 2.83-1.773 2.828-2.055 2.829-2.298 2.829-2.504 2.828-2.674 2.83-2.804 2.828-2.898 2.829-2.954 2.829-2.973 2.828-2.954 2.83-2.897 2.828-2.803 2.829-2.671 2.829-2.504 2.828-2.314 2.83-2.108 2.828-1.888 2.829-1.652 2.829-1.403 2.828-1.137 2.83-.858 2.828-.562 2.829-.252 2.829.073 2.828.412 2.83.768 2.828 1.137 2.829 1.523 2.829 1.922 2.828 2.336 2.83 2.748 2.828 3.1 2.829 3.386 2.829 3.604 2.828 3.755 2.83 3.837 2.828 3.852 2.829 3.8 2.829 3.682 2.828 3.493 2.83 3.239 2.828 2.916 2.829 2.527 2.829 2.069 2.828 1.544 2.83.952 2.828.295 2.829-.359 2.829-.942 2.828-1.451 2.83-1.887 2.828-2.25 2.829-2.537 2.829-2.752 2.828-2.892 2.83-2.96 2.828-2.953 2.829-2.873 2.829-2.718 2.828-2.49 2.83-2.19 2.828-1.814 2.829-1.365 2.829-.856 2.828-.365 2.83.084 2.828.488 2.829.849 2.829 1.165 2.828 1.438 2.83 1.668 2.828 1.852 2.829 1.994 2.829 2.091 2.828 2.145 2.83 2.155 2.828 2.122 2.829 2.043 2.829 1.922 2.828 1.757 2.83 1.56 2.828 1.356 2.829 1.145 2.829.929 2.828.705 2.83.476 2.828.241h2.829l2.829-.247 2.828-.5 2.83-.76 2.828-1.025 2.829-1.296 2.829-1.574 2.828-1.858 2.83-2.147 2.828-2.44 2.829-2.692 2.829-2.88 2.828-3.001 2.83-3.056 2.828-3.044 2.829-2.967 2.829-2.822 2.828-2.612 2.83-2.336 2.828-1.992 2.829-1.584 2.829-1.108 2.828-.566 2.83.042 2.828.716 2.829 1.456 2.829 2.233 2.828 2.94 2.83 3.56 2.828 4.088 2.829 4.528 2.829 4.876 2.828 5.137 2.83 5.306 2.828 5.386 2.829 5.376 2.829 5.276 2.828 5.088 2.83 4.808 2.828 4.44 2.829 3.98 2.829 3.433 2.828 2.796 2.83 2.141 2.828 1.543 2.829 1.008 2.829.534 2.828.125 2.83-.224 2.828-.51 2.829-.731 2.829-.893 2.828-.99 2.83-1.027 2.828-1 2.829-.91 2.829-.76 2.828-.544 2.83-.267 2.828.06 2.829.363 2.829.614 2.828.808 2.83.948 2.828 1.034 2.829 1.064 2.829 1.041 2.828.963 2.83.83 2.828.643 2.829.4 2.829.105 2.828-.248 2.83-.653 2.828-1.114 2.829-1.628 2.829-2.167 2.828-2.664 2.83-3.112 2.828-3.509 2.829-3.858 2.829-4.156 2.828-4.406 2.83-4.606 2.828-4.755 2.829-4.857 2.829-4.907 2.828-4.91 2.83-4.86 2.828-4.764 2.829-4.617 2.829-4.42 2.828-4.174 2.83-3.878 2.828-3.533 2.829-3.138 2.829-2.694 2.828-2.2 2.83-1.656 2.828-1.064 2.829-.421 2.829.27 2.828 1.013 2.83 1.803 2.828 2.645 2.829 3.534 2.829 4.474 2.828 5.463 2.83 6.502v-136.6l-2.83-4.014-2.828-3.433-2.83-2.872-2.828-2.331-2.829-1.811-2.829-1.311-2.828-.832-2.83-.373-2.828.066-2.829.484-2.829.88-2.828 1.26-2.83 1.614-2.828 1.95-2.829 2.267-2.829 2.562-2.828 2.836-2.83 3.091-2.828 3.325-2.829 3.538-2.829 3.73-2.828 3.904-2.83 4.055-2.828 4.186-2.829 4.298-2.829 4.388-2.828 4.459-2.83 4.508-2.828 4.537-2.829 4.546-2.829 4.534-2.828 4.502-2.83 4.45-2.828 4.375-2.829 4.28-2.829 4.163-2.828 4.021-2.83 3.858-2.828 3.67-2.829 3.462-2.829 3.23-2.828 2.973-2.83 2.696-2.828 2.396-2.829 2.072-2.829 1.725-2.828 1.357-2.83.964-2.828.55-2.829.112-2.829-.336-2.828-.764-2.83-1.168-2.828-1.548-2.829-1.903-2.829-2.234-2.828-2.541-2.83-2.824-2.828-3.082-2.829-3.316-2.829-3.526-2.828-3.712-2.83-3.872-2.828-4.01-2.829-4.122-2.829-4.21-2.828-4.275-2.83-4.317-2.828-4.338-2.829-4.34-2.829-4.32-2.828-4.28-2.83-4.219-2.828-4.139-2.829-4.038-2.829-3.916-2.828-3.774-2.83-3.611-2.828-3.429-2.829-3.225-2.829-3.001-2.828-2.757-2.83-2.492-2.828-2.21-2.829-1.919-2.829-1.626-2.828-1.33-2.83-1.03-2.828-.727-2.829-.42-2.829-.108-2.828.205-2.83.522-2.828.843-2.829 1.167-2.829 1.495-2.828 1.826-2.83 2.161-2.828 2.5-2.829 2.84-2.829 3.159-2.828 3.417-2.83 3.611-2.828 3.74-2.829 3.805-2.829 3.805-2.828 3.741-2.83 3.612-2.828 3.42-2.829 3.162-2.829 2.84-2.828 2.454-2.83 2.003-2.828 1.488-2.829.908-2.829.264-2.828-.434-2.83-1.094-2.828-1.662-2.829-2.14-2.829-2.525-2.828-2.819-2.83-3.021-2.828-3.132-2.829-3.152-2.829-3.08-2.828-2.914-2.83-2.66-2.828-2.313-2.829-1.875-2.829-1.344-2.828-.723-2.83-.009-2.828.748-2.829 1.413-2.829 1.962-2.828 2.394-2.83 2.71-2.828 2.908-2.829 2.992-2.829 2.958-2.828 2.807-2.83 2.541-2.828 2.158-2.829 1.657-2.829 1.042-2.828.308-2.83-.54-2.828-1.506-2.829-2.583-2.829-3.643-2.828-4.555-2.83-5.319-2.828-5.929-2.829-6.39-2.829-6.698-2.828-6.855-2.83-6.862-2.828-6.717-2.829-6.42-2.829-5.974-2.828-5.375-2.83-4.624-2.828-3.724-2.829-2.671-2.829-1.468-2.828-.146-2.83 1.103-2.828 2.217-2.829 3.193-2.829 4.034-2.828 4.736-2.83 5.303-2.828 5.733-2.829 6.027-2.829 6.182-2.828 6.202-2.83 6.086-2.828 5.831-2.829 5.442-2.829 4.914-2.828 4.25-2.83 3.45-2.828 2.59-2.829 1.8-2.829 1.1-2.828.486-2.83-.043-2.828-.484-2.829-.837-2.829-1.105-2.828-1.284-2.83-1.379-2.828-1.385-2.829-1.304-2.829-1.137-2.828-.884-2.83-.542-2.828-.115-2.829.392-2.829.888-2.828 1.315-2.83 1.671-2.828 1.958-2.829 2.174-2.829 2.32-2.828 2.395-2.83 2.402-2.828 2.337-2.829 2.203-2.829 1.999-2.828 1.724-2.83 1.379-2.828.964-2.829.478-2.829-.076-2.828-.674-2.83-1.22-2.828-1.697-2.829-2.1-2.829-2.434-2.828-2.697-2.83-2.887-2.828-3.008-2.829-3.057-2.829-3.036-2.828-2.942-2.83-2.78-2.828-2.543-2.829-2.238-2.829-1.861-2.828-1.413-2.83-.896-2.828-.368-2.829.104-2.829.515-2.828.866-2.83 1.158-2.828 1.388-2.829 1.56-2.829 1.67-2.828 1.72-2.83 1.71-2.828 1.642-2.829 1.511-2.829 1.321-2.828 1.07-2.83.761-2.828.39-2.829-.032-2.829-.445-2.828-.824-2.83-1.17-2.828-1.483-2.829-1.762-2.829-2.007-2.828-2.22-2.83-2.4-2.828-2.544-2.829-2.657-2.829-2.735-2.828-2.781-2.83-2.793-2.828-2.77-2.829-2.716-2.829-2.628-2.828-2.515-2.83-2.396-2.828-2.273-2.829-2.148-2.829-2.018-2.828-1.886-2.83-1.748-2.828-1.609-2.829-1.465-2.829-1.318-2.828-1.167-2.83-1.012-2.828-.855-2.829-.693-2.829-.528-2.828-.36-2.83-.187-2.828-.011-2.829.168-2.829.35-2.828.537-2.83.727-2.828.92-2.829 1.118-2.829 1.319-2.828 1.522-2.83 1.73-2.828 1.942-2.829 2.157-2.829 2.375-2.828 2.597-2.83 2.822z" clip-path="url(#a)"/><path fill="#c7eae5" d="M133.54 71.542v133.58l2.829-3.052 2.829-2.822 2.828-2.597 2.83-2.375 2.828-2.157 2.829-1.941 2.829-1.73 2.828-1.523 2.83-1.319 2.828-1.117 2.829-.92 2.829-.728 2.828-.537 2.83-.35 2.828-.168 2.829.012 2.829.187 2.828.36 2.83.527 2.828.694 2.829.854 2.829 1.013 2.828 1.167 2.83 1.317 2.828 1.465 2.829 1.609 2.829 1.749 2.828 1.885 2.83 2.018 2.828 2.148 2.829 2.274 2.829 2.396 2.828 2.514 2.83 2.628 2.828 2.716 2.829 2.77 2.829 2.793 2.828 2.78 2.83 2.736 2.828 2.657 2.829 2.545 2.829 2.399 2.828 2.22 2.83 2.008 2.828 1.762 2.829 1.482 2.829 1.17 2.828.825 2.83.444 2.828.032 2.829-.39 2.829-.76 2.828-1.07 2.83-1.322 2.828-1.511 2.829-1.641 2.829-1.711 2.828-1.72 2.83-1.67 2.828-1.56 2.829-1.388 2.829-1.158 2.828-.866 2.83-.515 2.828-.104 2.829.368 2.829.896 2.828 1.413 2.83 1.861 2.828 2.238 2.829 2.544 2.829 2.779 2.828 2.943 2.83 3.035 2.828 3.057 2.829 3.008 2.829 2.888 2.828 2.696 2.83 2.434 2.828 2.1 2.829 1.696 2.829 1.221 2.828.674 2.83.077 2.828-.48 2.829-.963 2.829-1.38 2.828-1.723 2.83-1.998 2.828-2.203 2.829-2.338 2.829-2.402 2.828-2.395 2.83-2.32 2.828-2.174 2.829-1.958 2.829-1.67 2.828-1.316 2.83-.888 2.828-.392 2.829.115 2.829.542 2.828.884 2.83 1.137 2.828 1.305 2.829 1.384 2.829 1.379 2.828 1.285 2.83 1.104 2.828.838 2.829.483 2.829.043 2.828-.485 2.83-1.1 2.828-1.801 2.829-2.59 2.829-3.45 2.828-4.25 2.83-4.914 2.828-5.441 2.829-5.832 2.829-6.085 2.828-6.203 2.83-6.182 2.828-6.026 2.829-5.733 2.829-5.304 2.828-4.736 2.83-4.034 2.828-3.193 2.829-2.217 2.829-1.103 2.828.146 2.83 1.468 2.828 2.671 2.829 3.724 2.829 4.625 2.828 5.374 2.83 5.974 2.828 6.42 2.829 6.717 2.829 6.862 2.828 6.856 2.83 6.698 2.828 6.39 2.829 5.929 2.829 5.318 2.828 4.556 2.83 3.642 2.828 2.583 2.829 1.506 2.829.54 2.828-.308 2.83-1.042 2.828-1.657 2.829-2.158 2.829-2.54 2.828-2.808 2.83-2.958 2.828-2.991 2.829-2.91 2.829-2.709 2.828-2.394 2.83-1.962 2.828-1.413 2.829-.748 2.829.01 2.828.722 2.83 1.345 2.828 1.874 2.829 2.313 2.829 2.66 2.828 2.915 2.83 3.08 2.828 3.15 2.829 3.133 2.829 3.021 2.828 2.82 2.83 2.524 2.828 2.14 2.829 1.663 2.829 1.093 2.828.435 2.83-.265 2.828-.908 2.829-1.488 2.829-2.003 2.828-2.454 2.83-2.84 2.828-3.162 2.829-3.42 2.829-3.612 2.828-3.74 2.83-3.806 2.828-3.805 2.829-3.74 2.829-3.61 2.828-3.418 2.83-3.16 2.828-2.84 2.829-2.499 2.829-2.16 2.828-1.827 2.83-1.495 2.828-1.167 2.829-.843 2.829-.522 2.828-.205 2.83.109 2.828.42 2.829.726 2.829 1.03 2.828 1.33 2.83 1.626 2.828 1.92 2.829 2.209 2.829 2.492 2.828 2.757 2.83 3.001 2.828 3.225 2.829 3.429 2.829 3.611 2.828 3.774 2.83 3.916 2.828 4.038 2.829 4.14 2.829 4.219 2.828 4.28 2.83 4.32 2.828 4.34 2.829 4.337 2.829 4.317 2.828 4.275 2.83 4.21 2.828 4.122 2.829 4.01 2.829 3.872 2.828 3.712 2.83 3.526 2.828 3.316 2.829 3.082 2.829 2.824 2.828 2.54 2.83 2.235 2.828 1.903 2.829 1.548 2.829 1.168 2.828.764 2.83.336 2.828-.112 2.829-.55 2.829-.964 2.828-1.357 2.83-1.725 2.828-2.072 2.829-2.395 2.829-2.697 2.828-2.974 2.83-3.229 2.828-3.461 2.829-3.67 2.829-3.858 2.828-4.022 2.83-4.162 2.828-4.28 2.829-4.377 2.829-4.449 2.828-4.502 2.83-4.534 2.828-4.546 2.829-4.537 2.829-4.508 2.828-4.459 2.83-4.388 2.828-4.298 2.829-4.186 2.829-4.055 2.828-3.903 2.83-3.731 2.828-3.538 2.829-3.325 2.829-3.09 2.828-2.837 2.83-2.562 2.828-2.266 2.829-1.95 2.829-1.616 2.828-1.258 2.83-.881 2.828-.484 2.829-.065 2.829.372 2.828.832 2.83 1.311 2.828 1.81 2.829 2.332 2.829 2.872 2.828 3.433 2.83 4.014V71.546H133.54z" clip-path="url(#a)"/><path fill="none" stroke="#fff" stroke-linecap="square" stroke-opacity=".3" stroke-width=".75" d="M133.54 493.94V50.42" clip-path="url(#a)"/><defs><path id="b" stroke="#000" stroke-width=".8" d="M0 0v3.5"/></defs><use xlink:href="#b" x="133.536" y="493.942" stroke="#000" stroke-width=".8"/><text fill="#767676" font-family="'DejaVu Sans', 'Bitstream Vera Sans', 'Computer Modern Sans Serif', 'Lucida Grande', 'Verdana', 'Geneva', 'Lucid', 'Arial', 'Helvetica', 'Avant Garde', sans-serif" font-size="24" font-weight="600" transform="rotate(-90 392.29 252.13)">sept. 2006</text><path fill="none" stroke="#fff" stroke-linecap="square" stroke-opacity=".3" stroke-width=".75" d="M180.53 493.94V50.42" clip-path="url(#a)"/><use xlink:href="#b" x="180.525" y="493.942" stroke="#000" stroke-width=".8"/><text fill="#767676" font-family="'DejaVu Sans', 'Bitstream Vera Sans', 'Computer Modern Sans Serif', 'Lucida Grande', 'Verdana', 'Geneva', 'Lucid', 'Arial', 'Helvetica', 'Avant Garde', sans-serif" font-size="24" font-weight="600" transform="rotate(-90 415.785 228.635)">sept. 2007</text><path fill="none" stroke="#fff" stroke-linecap="square" stroke-opacity=".3" stroke-width=".75" d="M227.51 493.94V50.42" clip-path="url(#a)"/><use xlink:href="#b" x="227.515" y="493.942" stroke="#000" stroke-width=".8"/><text fill="#767676" font-family="'DejaVu Sans', 'Bitstream Vera Sans', 'Computer Modern Sans Serif', 'Lucida Grande', 'Verdana', 'Geneva', 'Lucid', 'Arial', 'Helvetica', 'Avant Garde', sans-serif" font-size="24" font-weight="600" transform="rotate(-90 439.28 205.14)">sept. 2008</text><path fill="none" stroke="#fff" stroke-linecap="square" stroke-opacity=".3" stroke-width=".75" d="M274.5 493.94V50.42" clip-path="url(#a)"/><use xlink:href="#b" x="274.504" y="493.942" stroke="#000" stroke-width=".8"/><text fill="#767676" font-family="'DejaVu Sans', 'Bitstream Vera Sans', 'Computer Modern Sans Serif', 'Lucida Grande', 'Verdana', 'Geneva', 'Lucid', 'Arial', 'Helvetica', 'Avant Garde', sans-serif" font-size="24" font-weight="600" transform="rotate(-90 462.775 181.645)">sept. 2009</text><path fill="none" stroke="#fff" stroke-linecap="square" stroke-opacity=".3" stroke-width=".75" d="M321.49 493.94V50.42" clip-path="url(#a)"/><use xlink:href="#b" x="321.494" y="493.942" stroke="#000" stroke-width=".8"/><text fill="#767676" font-family="'DejaVu Sans', 'Bitstream Vera Sans', 'Computer Modern Sans Serif', 'Lucida Grande', 'Verdana', 'Geneva', 'Lucid', 'Arial', 'Helvetica', 'Avant Garde', sans-serif" font-size="24" font-weight="600" transform="rotate(-90 486.27 158.15)">sept. 2010</text><path fill="none" stroke="#fff" stroke-linecap="square" stroke-opacity=".3" stroke-width=".75" d="M368.48 493.94V50.42" clip-path="url(#a)"/><use xlink:href="#b" x="368.483" y="493.942" stroke="#000" stroke-width=".8"/><text fill="#767676" font-family="'DejaVu Sans', 'Bitstream Vera Sans', 'Computer Modern Sans Serif', 'Lucida Grande', 'Verdana', 'Geneva', 'Lucid', 'Arial', 'Helvetica', 'Avant Garde', sans-serif" font-size="24" font-weight="600" transform="rotate(-90 509.765 134.655)">sept. 2011</text><path fill="none" stroke="#fff" stroke-linecap="square" stroke-opacity=".3" stroke-width=".75" d="M415.47 493.94V50.42" clip-path="url(#a)"/><use xlink:href="#b" x="415.473" y="493.942" stroke="#000" stroke-width=".8"/><text fill="#767676" font-family="'DejaVu Sans', 'Bitstream Vera Sans', 'Computer Modern Sans Serif', 'Lucida Grande', 'Verdana', 'Geneva', 'Lucid', 'Arial', 'Helvetica', 'Avant Garde', sans-serif" font-size="24" font-weight="600" transform="rotate(-90 533.26 111.16)">sept. 2012</text><path fill="none" stroke="#fff" stroke-linecap="square" stroke-opacity=".3" stroke-width=".75" d="M462.46 493.94V50.42" clip-path="url(#a)"/><use xlink:href="#b" x="462.462" y="493.942" stroke="#000" stroke-width=".8"/><text fill="#767676" font-family="'DejaVu Sans', 'Bitstream Vera Sans', 'Computer Modern Sans Serif', 'Lucida Grande', 'Verdana', 'Geneva', 'Lucid', 'Arial', 'Helvetica', 'Avant Garde', sans-serif" font-size="24" font-weight="600" transform="rotate(-90 556.75 87.67)">sept. 2013</text><path fill="none" stroke="#fff" stroke-linecap="square" stroke-opacity=".3" stroke-width=".75" d="M509.45 493.94V50.42" clip-path="url(#a)"/><use xlink:href="#b" x="509.452" y="493.942" stroke="#000" stroke-width=".8"/><text fill="#767676" font-family="'DejaVu Sans', 'Bitstream Vera Sans', 'Computer Modern Sans Serif', 'Lucida Grande', 'Verdana', 'Geneva', 'Lucid', 'Arial', 'Helvetica', 'Avant Garde', sans-serif" font-size="24" font-weight="600" transform="rotate(-90 580.245 64.175)">sept. 2014</text><path fill="none" stroke="#fff" stroke-linecap="square" stroke-opacity=".3" stroke-width=".75" d="M556.44 493.94V50.42" clip-path="url(#a)"/><use xlink:href="#b" x="556.441" y="493.942" stroke="#000" stroke-width=".8"/><text fill="#767676" font-family="'DejaVu Sans', 'Bitstream Vera Sans', 'Computer Modern Sans Serif', 'Lucida Grande', 'Verdana', 'Geneva', 'Lucid', 'Arial', 'Helvetica', 'Avant Garde', sans-serif" font-size="24" font-weight="600" transform="rotate(-90 603.74 40.68)">sept. 2015</text><path fill="none" stroke="#fff" stroke-linecap="square" stroke-opacity=".3" stroke-width=".75" d="M603.43 493.94V50.42" clip-path="url(#a)"/><use xlink:href="#b" x="603.431" y="493.942" stroke="#000" stroke-width=".8"/><text fill="#767676" font-family="'DejaVu Sans', 'Bitstream Vera Sans', 'Computer Modern Sans Serif', 'Lucida Grande', 'Verdana', 'Geneva', 'Lucid', 'Arial', 'Helvetica', 'Avant Garde', sans-serif" font-size="24" font-weight="600" transform="rotate(-90 627.235 17.185)">sept. 2016</text><path fill="none" stroke="#fff" stroke-linecap="square" stroke-opacity=".3" stroke-width=".75" d="M650.42 493.94V50.42" clip-path="url(#a)"/><use xlink:href="#b" x="650.42" y="493.942" stroke="#000" stroke-width=".8"/><text fill="#767676" font-family="'DejaVu Sans', 'Bitstream Vera Sans', 'Computer Modern Sans Serif', 'Lucida Grande', 'Verdana', 'Geneva', 'Lucid', 'Arial', 'Helvetica', 'Avant Garde', sans-serif" font-size="24" font-weight="600" transform="rotate(-90 650.73 -6.31)">sept. 2017</text><path fill="none" stroke="#fff" stroke-linecap="square" stroke-opacity=".3" stroke-width=".75" d="M697.41 493.94V50.42" clip-path="url(#a)"/><use xlink:href="#b" x="697.41" y="493.942" stroke="#000" stroke-width=".8"/><text fill="#767676" font-family="'DejaVu Sans', 'Bitstream Vera Sans', 'Computer Modern Sans Serif', 'Lucida Grande', 'Verdana', 'Geneva', 'Lucid', 'Arial', 'Helvetica', 'Avant Garde', sans-serif" font-size="24" font-weight="600" transform="rotate(-90 674.225 -29.805)">sept. 2018</text><path fill="none" stroke="#fff" stroke-linecap="square" stroke-opacity=".3" stroke-width=".75" d="M744.4 493.94V50.42" clip-path="url(#a)"/><use xlink:href="#b" x="744.399" y="493.942" stroke="#000" stroke-width=".8"/><text fill="#767676" font-family="'DejaVu Sans', 'Bitstream Vera Sans', 'Computer Modern Sans Serif', 'Lucida Grande', 'Verdana', 'Geneva', 'Lucid', 'Arial', 'Helvetica', 'Avant Garde', sans-serif" font-size="24" font-weight="600" transform="rotate(-90 692.925 -58.095)">mar. 2020</text><path fill="none" stroke="#fff" stroke-linecap="square" stroke-opacity=".3" stroke-width=".75" d="M791.39 493.94V50.42" clip-path="url(#a)"/><use xlink:href="#b" x="791.389" y="493.942" stroke="#000" stroke-width=".8"/><text fill="#767676" font-family="'DejaVu Sans', 'Bitstream Vera Sans', 'Computer Modern Sans Serif', 'Lucida Grande', 'Verdana', 'Geneva', 'Lucid', 'Arial', 'Helvetica', 'Avant Garde', sans-serif" font-size="24" font-weight="600" transform="rotate(-90 721.215 -76.795)">sept. 2020</text><path fill="none" stroke="#fff" stroke-linecap="square" stroke-opacity=".3" stroke-width=".75" d="M838.38 493.94V50.42" clip-path="url(#a)"/><use xlink:href="#b" x="838.378" y="493.942" stroke="#000" stroke-width=".8"/><text fill="#767676" font-family="'DejaVu Sans', 'Bitstream Vera Sans', 'Computer Modern Sans Serif', 'Lucida Grande', 'Verdana', 'Geneva', 'Lucid', 'Arial', 'Helvetica', 'Avant Garde', sans-serif" font-size="24" font-weight="600" transform="rotate(-90 744.71 -100.29)">sept. 2021</text><path fill="none" stroke="#fff" stroke-linecap="square" stroke-opacity=".3" stroke-width=".75" d="M885.37 493.94V50.42" clip-path="url(#a)"/><use xlink:href="#b" x="885.368" y="493.942" stroke="#000" stroke-width=".8"/><text fill="#767676" font-family="'DejaVu Sans', 'Bitstream Vera Sans', 'Computer Modern Sans Serif', 'Lucida Grande', 'Verdana', 'Geneva', 'Lucid', 'Arial', 'Helvetica', 'Avant Garde', sans-serif" font-size="24" font-weight="600" transform="rotate(-90 768.205 -123.785)">sept. 2022</text><path fill="none" stroke="#fff" stroke-linecap="square" stroke-opacity=".3" stroke-width=".75" d="M932.36 493.94V50.42" clip-path="url(#a)"/><use xlink:href="#b" x="932.357" y="493.942" stroke="#000" stroke-width=".8"/><text fill="#767676" font-family="'DejaVu Sans', 'Bitstream Vera Sans', 'Computer Modern Sans Serif', 'Lucida Grande', 'Verdana', 'Geneva', 'Lucid', 'Arial', 'Helvetica', 'Avant Garde', sans-serif" font-size="24" font-weight="600" transform="rotate(-90 791.7 -147.28)">sept. 2023</text><path fill="none" stroke="#fff" stroke-linecap="square" stroke-opacity=".3" stroke-width=".75" d="M979.35 493.94V50.42" clip-path="url(#a)"/><use xlink:href="#b" x="979.347" y="493.942" stroke="#000" stroke-width=".8"/><text fill="#767676" font-family="'DejaVu Sans', 'Bitstream Vera Sans', 'Computer Modern Sans Serif', 'Lucida Grande', 'Verdana', 'Geneva', 'Lucid', 'Arial', 'Helvetica', 'Avant Garde', sans-serif" font-size="24" font-weight="600" transform="rotate(-90 815.195 -170.775)">sept. 2024</text><path fill="none" stroke="#fff" stroke-linecap="square" stroke-opacity=".8" stroke-width="1.25" d="M110.04 493.94h892.8" clip-path="url(#a)"/><defs><path id="c" stroke="#000" stroke-width=".8" d="M0 0h-3.5"/></defs><use xlink:href="#c" x="110.041" y="493.942" stroke="#000" stroke-width=".8"/><text x="103.041" y="503.061" fill="#767676" font-family="'DejaVu Sans', 'Bitstream Vera Sans', 'Computer Modern Sans Serif', 'Lucida Grande', 'Verdana', 'Geneva', 'Lucid', 'Arial', 'Helvetica', 'Avant Garde', sans-serif" font-size="24" font-weight="500" text-anchor="end">0%</text><path fill="none" stroke="#fff" stroke-linecap="square" stroke-opacity=".8" stroke-width="1.25" d="M110.04 388.34h892.8" clip-path="url(#a)"/><use xlink:href="#c" x="110.041" y="388.342" stroke="#000" stroke-width=".8"/><text x="103.041" y="397.461" fill="#767676" font-family="'DejaVu Sans', 'Bitstream Vera Sans', 'Computer Modern Sans Serif', 'Lucida Grande', 'Verdana', 'Geneva', 'Lucid', 'Arial', 'Helvetica', 'Avant Garde', sans-serif" font-size="24" font-weight="500" text-anchor="end">25%</text><path fill="none" stroke="#fff" stroke-linecap="square" stroke-opacity=".8" stroke-width="1.25" d="M110.04 282.74h892.8" clip-path="url(#a)"/><use xlink:href="#c" x="110.041" y="282.742" stroke="#000" stroke-width=".8"/><text x="103.041" y="291.861" fill="#767676" font-family="'DejaVu Sans', 'Bitstream Vera Sans', 'Computer Modern Sans Serif', 'Lucida Grande', 'Verdana', 'Geneva', 'Lucid', 'Arial', 'Helvetica', 'Avant Garde', sans-serif" font-size="24" font-weight="500" text-anchor="end">50%</text><path fill="none" stroke="#fff" stroke-linecap="square" stroke-opacity=".8" stroke-width="1.25" d="M110.04 177.14h892.8" clip-path="url(#a)"/><use xlink:href="#c" x="110.041" y="177.142" stroke="#000" stroke-width=".8"/><text x="103.041" y="186.261" fill="#767676" font-family="'DejaVu Sans', 'Bitstream Vera Sans', 'Computer Modern Sans Serif', 'Lucida Grande', 'Verdana', 'Geneva', 'Lucid', 'Arial', 'Helvetica', 'Avant Garde', sans-serif" font-size="24" font-weight="500" text-anchor="end">75%</text><path fill="none" stroke="#fff" stroke-linecap="square" stroke-opacity=".8" stroke-width="1.25" d="M110.04 71.542h892.8" clip-path="url(#a)"/><use xlink:href="#c" x="110.041" y="71.542" stroke="#000" stroke-width=".8"/><text x="103.041" y="80.661" fill="#767676" font-family="'DejaVu Sans', 'Bitstream Vera Sans', 'Computer Modern Sans Serif', 'Lucida Grande', 'Verdana', 'Geneva', 'Lucid', 'Arial', 'Helvetica', 'Avant Garde', sans-serif" font-size="24" font-weight="500" text-anchor="end">100%</text><text x="25.436" y="272.182" fill="#767676" font-family="'DejaVu Sans', 'Bitstream Vera Sans', 'Computer Modern Sans Serif', 'Lucida Grande', 'Verdana', 'Geneva', 'Lucid', 'Arial', 'Helvetica', 'Avant Garde', sans-serif" font-size="24" font-weight="500" text-anchor="middle" transform="rotate(-90 25.436 272.18)">Porcentaje</text><path fill="none" stroke="#000" stroke-linecap="square" stroke-width="2" d="M110.04 493.94h892.8"/><path fill="#fff" stroke="#d9d9d9" stroke-width="1.8" d="M189.75 452.26h28.531q20 0 20-20v-3.356q0-20-20-20H189.75q-20 0-20 20v3.356q0 20 20 20z"/><text x="204.02" y="436.101" fill="#10302c" font-family="'DejaVu Sans', 'Bitstream Vera Sans', 'Computer Modern Sans Serif', 'Lucida Grande', 'Verdana', 'Geneva', 'Lucid', 'Arial', 'Helvetica', 'Avant Garde', sans-serif" font-size="20" font-weight="500" text-anchor="middle">5.95</text><path fill="#fff" stroke="#d9d9d9" stroke-width="1.8" d="M471.69 325.54h28.531q20 0 20-20v-3.356q0-20-20-20H471.69q-20 0-20 20v3.356q0 20 20 20z"/><text x="485.957" y="309.381" fill="#10302c" font-family="'DejaVu Sans', 'Bitstream Vera Sans', 'Computer Modern Sans Serif', 'Lucida Grande', 'Verdana', 'Geneva', 'Lucid', 'Arial', 'Helvetica', 'Avant Garde', sans-serif" font-size="20" font-weight="500" text-anchor="middle">5.92</text><path fill="#fff" stroke="#d9d9d9" stroke-width="1.8" d="M753.63 156.58h28.531q20 0 20-20v-3.356q0-20-20-20H753.63q-20 0-20 20v3.356q0 20 20 20z"/><text x="767.894" y="140.421" fill="#10302c" font-family="'DejaVu Sans', 'Bitstream Vera Sans', 'Computer Modern Sans Serif', 'Lucida Grande', 'Verdana', 'Geneva', 'Lucid', 'Arial', 'Helvetica', 'Avant Garde', sans-serif" font-size="20" font-weight="500" text-anchor="middle">7.13</text><path fill="#215f53" d="M223.64 31.197h40v-14h-40z"/><text x="279.635" y="31.197" font-family="'DejaVu Sans', 'Bitstream Vera Sans', 'Computer Modern Sans Serif', 'Lucida Grande', 'Verdana', 'Geneva', 'Lucid', 'Arial', 'Helvetica', 'Avant Garde', sans-serif" font-size="20" font-weight="500">Comisiones</text><path fill="#7570b3" d="M434.49 31.197h40v-14h-40z"/><text x="490.488" y="31.197" font-family="'DejaVu Sans', 'Bitstream Vera Sans', 'Computer Modern Sans Serif', 'Lucida Grande', 'Verdana', 'Geneva', 'Lucid', 'Arial', 'Helvetica', 'Avant Garde', sans-serif" font-size="20" font-weight="500">Fiscalías y Procuradurías</text><path fill="#c7eae5" d="M775.8 31.197h40v-14h-40z"/><text x="831.801" y="31.197" font-family="'DejaVu Sans', 'Bitstream Vera Sans', 'Computer Modern Sans Serif', 'Lucida Grande', 'Verdana', 'Geneva', 'Lucid', 'Arial', 'Helvetica', 'Avant Garde', sans-serif" font-size="20" font-weight="500">Portal</text><defs><clipPath id="a"><path d="M110.04 50.422h892.8v443.52h-892.8z"/></clipPath></defs></svg>