<?xml version="1.0" encoding="utf-8" standalone="no"?>
<!DOCTYPE svg PUBLIC "-//W3C//DTD SVG 1.1//EN"
  "http://www.w3.org/Graphics/SVG/1.1/DTD/svg11.dtd">
<svg xmlns:xlink="http://www.w3.org/1999/xlink" width="1144.12125pt" height="558.680862pt" viewBox="0 0 1144.12125 558.680862" xmlns="http://www.w3.org/2000/svg" version="1.1">
 <metadata>
  <rdf:RDF xmlns:dc="http://purl.org/dc/elements/1.1/" xmlns:cc="http://creativecommons.org/ns#" xmlns:rdf="http://www.w3.org/1999/02/22-rdf-syntax-ns#">
   <cc:Work>
    <dc:type rdf:resource="http://purl.org/dc/dcmitype/StillImage"/>
    <dc:date>2025-04-17T14:01:26.839048</dc:date>
    <dc:format>image/svg+xml</dc:format>
    <dc:creator>
     <cc:Agent>
      <dc:title>Matplotlib v3.10.1, https://matplotlib.org/</dc:title>
     </cc:Agent>
    </dc:creator>
   </cc:Work>
  </rdf:RDF>
 </metadata>
 <defs>
  <style type="text/css">*{stroke-linejoin: round; stroke-linecap: butt}</style>
 </defs>
 <g id="figure_1">
  <g id="patch_1">
   <path d="M 0 558.680862 
L 1144.12125 558.680862 
L 1144.12125 0 
L 0 0 
z
" style="fill: #ffffff"/>
  </g>
  <g id="axes_1">
   <g id="patch_2">
    <path d="M 110.04125 401.002112 
L 1136.92125 401.002112 
L 1136.92125 40.464512 
L 110.04125 40.464512 
z
" style="fill: #ffffff"/>
   </g>
   <g id="FillBetweenPolyCollection_1">
    <path d="M 137.064408 294.639159 
L 137.064408 401.002112 
L 140.318032 401.002112 
L 143.571657 401.002112 
L 146.825281 401.002112 
L 150.078905 401.002112 
L 153.33253 401.002112 
L 156.586154 401.002112 
L 159.839778 401.002112 
L 163.093403 401.002112 
L 166.347027 401.002112 
L 169.600652 401.002112 
L 172.854276 401.002112 
L 176.1079 401.002112 
L 179.361525 401.002112 
L 182.615149 401.002112 
L 185.868773 401.002112 
L 189.122398 401.002112 
L 192.376022 401.002112 
L 195.629646 401.002112 
L 198.883271 401.002112 
L 202.136895 401.002112 
L 205.390519 401.002112 
L 208.644144 401.002112 
L 211.897768 401.002112 
L 215.151393 401.002112 
L 218.405017 401.002112 
L 221.658641 401.002112 
L 224.912266 401.002112 
L 228.16589 401.002112 
L 231.419514 401.002112 
L 234.673139 401.002112 
L 237.926763 401.002112 
L 241.180387 401.002112 
L 244.434012 401.002112 
L 247.687636 401.002112 
L 250.941261 401.002112 
L 254.194885 401.002112 
L 257.448509 401.002112 
L 260.702134 401.002112 
L 263.955758 401.002112 
L 267.209382 401.002112 
L 270.463007 401.002112 
L 273.716631 401.002112 
L 276.970255 401.002112 
L 280.22388 401.002112 
L 283.477504 401.002112 
L 286.731129 401.002112 
L 289.984753 401.002112 
L 293.238377 401.002112 
L 296.492002 401.002112 
L 299.745626 401.002112 
L 302.99925 401.002112 
L 306.252875 401.002112 
L 309.506499 401.002112 
L 312.760123 401.002112 
L 316.013748 401.002112 
L 319.267372 401.002112 
L 322.520997 401.002112 
L 325.774621 401.002112 
L 329.028245 401.002112 
L 332.28187 401.002112 
L 335.535494 401.002112 
L 338.789118 401.002112 
L 342.042743 401.002112 
L 345.296367 401.002112 
L 348.549991 401.002112 
L 351.803616 401.002112 
L 355.05724 401.002112 
L 358.310865 401.002112 
L 361.564489 401.002112 
L 364.818113 401.002112 
L 368.071738 401.002112 
L 371.325362 401.002112 
L 374.578986 401.002112 
L 377.832611 401.002112 
L 381.086235 401.002112 
L 384.339859 401.002112 
L 387.593484 401.002112 
L 390.847108 401.002112 
L 394.100732 401.002112 
L 397.354357 401.002112 
L 400.607981 401.002112 
L 403.861606 401.002112 
L 407.11523 401.002112 
L 410.368854 401.002112 
L 413.622479 401.002112 
L 416.876103 401.002112 
L 420.129727 401.002112 
L 423.383352 401.002112 
L 426.636976 401.002112 
L 429.8906 401.002112 
L 433.144225 401.002112 
L 436.397849 401.002112 
L 439.651474 401.002112 
L 442.905098 401.002112 
L 446.158722 401.002112 
L 449.412347 401.002112 
L 452.665971 401.002112 
L 455.919595 401.002112 
L 459.17322 401.002112 
L 462.426844 401.002112 
L 465.680468 401.002112 
L 468.934093 401.002112 
L 472.187717 401.002112 
L 475.441342 401.002112 
L 478.694966 401.002112 
L 481.94859 401.002112 
L 485.202215 401.002112 
L 488.455839 401.002112 
L 491.709463 401.002112 
L 494.963088 401.002112 
L 498.216712 401.002112 
L 501.470336 401.002112 
L 504.723961 401.002112 
L 507.977585 401.002112 
L 511.23121 401.002112 
L 514.484834 401.002112 
L 517.738458 401.002112 
L 520.992083 401.002112 
L 524.245707 401.002112 
L 527.499331 401.002112 
L 530.752956 401.002112 
L 534.00658 401.002112 
L 537.260204 401.002112 
L 540.513829 401.002112 
L 543.767453 401.002112 
L 547.021077 401.002112 
L 550.274702 401.002112 
L 553.528326 401.002112 
L 556.781951 401.002112 
L 560.035575 401.002112 
L 563.289199 401.002112 
L 566.542824 401.002112 
L 569.796448 401.002112 
L 573.050072 401.002112 
L 576.303697 401.002112 
L 579.557321 401.002112 
L 582.810945 401.002112 
L 586.06457 401.002112 
L 589.318194 401.002112 
L 592.571819 401.002112 
L 595.825443 401.002112 
L 599.079067 401.002112 
L 602.332692 401.002112 
L 605.586316 401.002112 
L 608.83994 401.002112 
L 612.093565 401.002112 
L 615.347189 401.002112 
L 618.600813 401.002112 
L 621.854438 401.002112 
L 625.108062 401.002112 
L 628.361687 401.002112 
L 631.615311 401.002112 
L 634.868935 401.002112 
L 638.12256 401.002112 
L 641.376184 401.002112 
L 644.629808 401.002112 
L 647.883433 401.002112 
L 651.137057 401.002112 
L 654.390681 401.002112 
L 657.644306 401.002112 
L 660.89793 401.002112 
L 664.151555 401.002112 
L 667.405179 401.002112 
L 670.658803 401.002112 
L 673.912428 401.002112 
L 677.166052 401.002112 
L 680.419676 401.002112 
L 683.673301 401.002112 
L 686.926925 401.002112 
L 690.180549 401.002112 
L 693.434174 401.002112 
L 696.687798 401.002112 
L 699.941423 401.002112 
L 703.195047 401.002112 
L 706.448671 401.002112 
L 709.702296 401.002112 
L 712.95592 401.002112 
L 716.209544 401.002112 
L 719.463169 401.002112 
L 722.716793 401.002112 
L 725.970417 401.002112 
L 729.224042 401.002112 
L 732.477666 401.002112 
L 735.73129 401.002112 
L 738.984915 401.002112 
L 742.238539 401.002112 
L 745.492164 401.002112 
L 748.745788 401.002112 
L 751.999412 401.002112 
L 755.253037 401.002112 
L 758.506661 401.002112 
L 761.760285 401.002112 
L 765.01391 401.002112 
L 768.267534 401.002112 
L 771.521158 401.002112 
L 774.774783 401.002112 
L 778.028407 401.002112 
L 781.282032 401.002112 
L 784.535656 401.002112 
L 787.78928 401.002112 
L 791.042905 401.002112 
L 794.296529 401.002112 
L 797.550153 401.002112 
L 800.803778 401.002112 
L 804.057402 401.002112 
L 807.311026 401.002112 
L 810.564651 401.002112 
L 813.818275 401.002112 
L 817.0719 401.002112 
L 820.325524 401.002112 
L 823.579148 401.002112 
L 826.832773 401.002112 
L 830.086397 401.002112 
L 833.340021 401.002112 
L 836.593646 401.002112 
L 839.84727 401.002112 
L 843.100894 401.002112 
L 846.354519 401.002112 
L 849.608143 401.002112 
L 852.861768 401.002112 
L 856.115392 401.002112 
L 859.369016 401.002112 
L 862.622641 401.002112 
L 865.876265 401.002112 
L 869.129889 401.002112 
L 872.383514 401.002112 
L 875.637138 401.002112 
L 878.890762 401.002112 
L 882.144387 401.002112 
L 885.398011 401.002112 
L 888.651635 401.002112 
L 891.90526 401.002112 
L 895.158884 401.002112 
L 898.412509 401.002112 
L 901.666133 401.002112 
L 904.919757 401.002112 
L 908.173382 401.002112 
L 911.427006 401.002112 
L 914.68063 401.002112 
L 917.934255 401.002112 
L 921.187879 401.002112 
L 924.441503 401.002112 
L 927.695128 401.002112 
L 930.948752 401.002112 
L 934.202377 401.002112 
L 937.456001 401.002112 
L 940.709625 401.002112 
L 943.96325 401.002112 
L 947.216874 401.002112 
L 950.470498 401.002112 
L 953.724123 401.002112 
L 956.977747 401.002112 
L 960.231371 401.002112 
L 963.484996 401.002112 
L 966.73862 401.002112 
L 969.992245 401.002112 
L 973.245869 401.002112 
L 976.499493 401.002112 
L 979.753118 401.002112 
L 983.006742 401.002112 
L 986.260366 401.002112 
L 989.513991 401.002112 
L 992.767615 401.002112 
L 996.021239 401.002112 
L 999.274864 401.002112 
L 1002.528488 401.002112 
L 1005.782113 401.002112 
L 1009.035737 401.002112 
L 1012.289361 401.002112 
L 1015.542986 401.002112 
L 1018.79661 401.002112 
L 1022.050234 401.002112 
L 1025.303859 401.002112 
L 1028.557483 401.002112 
L 1031.811107 401.002112 
L 1035.064732 401.002112 
L 1038.318356 401.002112 
L 1041.571981 401.002112 
L 1044.825605 401.002112 
L 1048.079229 401.002112 
L 1051.332854 401.002112 
L 1054.586478 401.002112 
L 1057.840102 401.002112 
L 1061.093727 401.002112 
L 1064.347351 401.002112 
L 1067.600975 401.002112 
L 1070.8546 401.002112 
L 1074.108224 401.002112 
L 1077.361848 401.002112 
L 1080.615473 401.002112 
L 1083.869097 401.002112 
L 1087.122722 401.002112 
L 1090.376346 401.002112 
L 1093.62997 401.002112 
L 1096.883595 401.002112 
L 1100.137219 401.002112 
L 1103.390843 401.002112 
L 1106.644468 401.002112 
L 1109.898092 401.002112 
L 1109.898092 278.88928 
L 1109.898092 278.88928 
L 1106.644468 273.603701 
L 1103.390843 269.162575 
L 1100.137219 265.525632 
L 1096.883595 262.652596 
L 1093.62997 260.503196 
L 1090.376346 259.037159 
L 1087.122722 258.21421 
L 1083.869097 257.994077 
L 1080.615473 258.336488 
L 1077.361848 259.201168 
L 1074.108224 260.547846 
L 1070.8546 262.336247 
L 1067.600975 264.526099 
L 1064.347351 267.077128 
L 1061.093727 269.949062 
L 1057.840102 273.101628 
L 1054.586478 276.494553 
L 1051.332854 280.087562 
L 1048.079229 283.840384 
L 1044.825605 287.712746 
L 1041.571981 291.664373 
L 1038.318356 295.654994 
L 1035.064732 299.644335 
L 1031.811107 303.592123 
L 1028.557483 307.458085 
L 1025.303859 311.201948 
L 1022.050234 314.783439 
L 1018.79661 318.162284 
L 1015.542986 321.298211 
L 1012.289361 324.150947 
L 1009.035737 326.680219 
L 1005.782113 328.845753 
L 1002.528488 330.607276 
L 999.274864 331.931155 
L 996.021239 332.83648 
L 992.767615 333.367485 
L 989.513991 333.568559 
L 986.260366 333.484092 
L 983.006742 333.158471 
L 979.753118 332.636085 
L 976.499493 331.961324 
L 973.245869 331.178576 
L 969.992245 330.332229 
L 966.73862 329.466674 
L 963.484996 328.626298 
L 960.231371 327.85549 
L 956.977747 327.198639 
L 953.724123 326.700135 
L 950.470498 326.404365 
L 947.216874 326.355645 
L 943.96325 326.573399 
L 940.709625 327.016032 
L 937.456001 327.632773 
L 934.202377 328.372848 
L 930.948752 329.185485 
L 927.695128 330.019912 
L 924.441503 330.825355 
L 921.187879 331.551043 
L 917.934255 332.146202 
L 914.68063 332.560061 
L 911.427006 332.741846 
L 908.173382 332.640785 
L 904.919757 332.206106 
L 901.666133 331.387036 
L 898.412509 330.132803 
L 895.158884 328.392633 
L 891.90526 326.119291 
L 888.651635 323.329024 
L 885.398011 320.092993 
L 882.144387 316.484166 
L 878.890762 312.575515 
L 875.637138 308.440009 
L 872.383514 304.150618 
L 869.129889 299.780313 
L 865.876265 295.402064 
L 862.622641 291.088841 
L 859.369016 286.913614 
L 856.115392 282.949353 
L 852.861768 279.269028 
L 849.608143 275.94561 
L 846.354519 273.052068 
L 843.100894 270.661373 
L 839.84727 268.846496 
L 836.593646 267.662596 
L 833.340021 267.080653 
L 830.086397 267.046798 
L 826.832773 267.507158 
L 823.579148 268.40786 
L 820.325524 269.69503 
L 817.0719 271.314797 
L 813.818275 273.213286 
L 810.564651 275.336624 
L 807.311026 277.63094 
L 804.057402 280.042359 
L 800.803778 282.517009 
L 797.550153 285.001016 
L 794.296529 287.440508 
L 791.042905 289.781612 
L 787.78928 291.970454 
L 784.535656 293.953525 
L 781.282032 295.699094 
L 778.028407 297.209191 
L 774.774783 298.488747 
L 771.521158 299.542697 
L 768.267534 300.375972 
L 765.01391 300.993506 
L 761.760285 301.400232 
L 758.506661 301.601081 
L 755.253037 301.600988 
L 751.999412 301.404885 
L 748.745788 301.017705 
L 745.492164 300.44438 
L 742.238539 299.689844 
L 738.984915 298.759029 
L 735.73129 297.656868 
L 732.477666 296.388294 
L 729.224042 294.960167 
L 725.970417 293.397763 
L 722.716793 291.736592 
L 719.463169 290.012271 
L 716.209544 288.260418 
L 712.95592 286.516652 
L 709.702296 284.816589 
L 706.448671 283.19585 
L 703.195047 281.690051 
L 699.941423 280.33481 
L 696.687798 279.165746 
L 693.434174 278.218476 
L 690.180549 277.528619 
L 686.926925 277.131793 
L 683.673301 277.063616 
L 680.419676 277.359705 
L 677.166052 278.055657 
L 673.912428 279.165312 
L 670.658803 280.639928 
L 667.405179 282.419577 
L 664.151555 284.444333 
L 660.89793 286.654269 
L 657.644306 288.98946 
L 654.390681 291.389978 
L 651.137057 293.795896 
L 647.883433 296.147289 
L 644.629808 298.384229 
L 641.376184 300.446791 
L 638.12256 302.275047 
L 634.868935 303.809071 
L 631.615311 304.988936 
L 628.361687 305.754716 
L 625.108062 306.046484 
L 621.854438 305.806705 
L 618.600813 305.032864 
L 615.347189 303.777461 
L 612.093565 302.095389 
L 608.83994 300.04154 
L 605.586316 297.67081 
L 602.332692 295.038089 
L 599.079067 292.198272 
L 595.825443 289.206252 
L 592.571819 286.116922 
L 589.318194 282.985174 
L 586.06457 279.865902 
L 582.810945 276.813999 
L 579.557321 273.884359 
L 576.303697 271.131874 
L 573.050072 268.611437 
L 569.796448 266.377941 
L 566.542824 264.478432 
L 563.289199 262.916033 
L 560.035575 261.678601 
L 556.781951 260.753976 
L 553.528326 260.130001 
L 550.274702 259.794515 
L 547.021077 259.73536 
L 543.767453 259.940377 
L 540.513829 260.397407 
L 537.260204 261.094291 
L 534.00658 262.01887 
L 530.752956 263.158984 
L 527.499331 264.502476 
L 524.245707 266.037185 
L 520.992083 267.750953 
L 517.738458 269.631621 
L 514.484834 271.666965 
L 511.23121 273.83864 
L 507.977585 276.117285 
L 504.723961 278.472389 
L 501.470336 280.873438 
L 498.216712 283.28992 
L 494.963088 285.691322 
L 491.709463 288.047131 
L 488.455839 290.326834 
L 485.202215 292.499919 
L 481.94859 294.535872 
L 478.694966 296.404182 
L 475.441342 298.074335 
L 472.187717 299.515819 
L 468.934093 300.69812 
L 465.680468 301.590727 
L 462.426844 302.163126 
L 459.17322 302.3883 
L 455.919595 302.279878 
L 452.665971 301.877709 
L 449.412347 301.222078 
L 446.158722 300.353273 
L 442.905098 299.31158 
L 439.651474 298.137285 
L 436.397849 296.870674 
L 433.144225 295.552034 
L 429.8906 294.221651 
L 426.636976 292.919812 
L 423.383352 291.686802 
L 420.129727 290.562909 
L 416.876103 289.588419 
L 413.622479 288.803618 
L 410.368854 288.248792 
L 407.11523 287.964226 
L 403.861606 287.97597 
L 400.607981 288.261854 
L 397.354357 288.789507 
L 394.100732 289.526557 
L 390.847108 290.440632 
L 387.593484 291.499362 
L 384.339859 292.670373 
L 381.086235 293.921296 
L 377.832611 295.219758 
L 374.578986 296.533388 
L 371.325362 297.829815 
L 368.071738 299.076666 
L 364.818113 300.24157 
L 361.564489 301.292156 
L 358.310865 302.196053 
L 355.05724 302.920888 
L 351.803616 303.435051 
L 348.549991 303.730002 
L 345.296367 303.823873 
L 342.042743 303.736282 
L 338.789118 303.486847 
L 335.535494 303.095186 
L 332.28187 302.580918 
L 329.028245 301.963659 
L 325.774621 301.263029 
L 322.520997 300.498645 
L 319.267372 299.690126 
L 316.013748 298.857088 
L 312.760123 298.019151 
L 309.506499 297.195932 
L 306.252875 296.407049 
L 302.99925 295.672121 
L 299.745626 295.010765 
L 296.492002 294.439788 
L 293.238377 293.957307 
L 289.984753 293.553817 
L 286.731129 293.219789 
L 283.477504 292.945693 
L 280.22388 292.722 
L 276.970255 292.539183 
L 273.716631 292.387711 
L 270.463007 292.258057 
L 267.209382 292.14069 
L 263.955758 292.026083 
L 260.702134 291.904706 
L 257.448509 291.767031 
L 254.194885 291.603528 
L 250.941261 291.404669 
L 247.687636 291.160925 
L 244.434012 290.862799 
L 241.180387 290.505969 
L 237.926763 290.096968 
L 234.673139 289.643696 
L 231.419514 289.154051 
L 228.16589 288.635933 
L 224.912266 288.097241 
L 221.658641 287.545874 
L 218.405017 286.989731 
L 215.151393 286.436712 
L 211.897768 285.894715 
L 208.644144 285.37164 
L 205.390519 284.875386 
L 202.136895 284.413852 
L 198.883271 283.994938 
L 195.629646 283.626542 
L 192.376022 283.316563 
L 189.122398 283.072902 
L 185.868773 282.903457 
L 182.615149 282.816127 
L 179.361525 282.818812 
L 176.1079 282.91941 
L 172.854276 283.125821 
L 169.600652 283.445944 
L 166.347027 283.887679 
L 163.093403 284.458924 
L 159.839778 285.167578 
L 156.586154 286.021541 
L 153.33253 287.028712 
L 150.078905 288.196991 
L 146.825281 289.534275 
L 143.571657 291.048465 
L 140.318032 292.74746 
L 137.064408 294.639159 
z
" clip-path="url(#p5ff24138eb)" style="fill: #215f53"/>
   </g>
   <g id="FillBetweenPolyCollection_2">
    <path d="M 137.064408 166.218265 
L 137.064408 294.639159 
L 140.318032 292.74746 
L 143.571657 291.048465 
L 146.825281 289.534275 
L 150.078905 288.196991 
L 153.33253 287.028712 
L 156.586154 286.021541 
L 159.839778 285.167578 
L 163.093403 284.458924 
L 166.347027 283.887679 
L 169.600652 283.445944 
L 172.854276 283.125821 
L 176.1079 282.91941 
L 179.361525 282.818812 
L 182.615149 282.816127 
L 185.868773 282.903457 
L 189.122398 283.072902 
L 192.376022 283.316563 
L 195.629646 283.626542 
L 198.883271 283.994938 
L 202.136895 284.413852 
L 205.390519 284.875386 
L 208.644144 285.37164 
L 211.897768 285.894715 
L 215.151393 286.436712 
L 218.405017 286.989731 
L 221.658641 287.545874 
L 224.912266 288.097241 
L 228.16589 288.635933 
L 231.419514 289.154051 
L 234.673139 289.643696 
L 237.926763 290.096968 
L 241.180387 290.505969 
L 244.434012 290.862799 
L 247.687636 291.160925 
L 250.941261 291.404669 
L 254.194885 291.603528 
L 257.448509 291.767031 
L 260.702134 291.904706 
L 263.955758 292.026083 
L 267.209382 292.14069 
L 270.463007 292.258057 
L 273.716631 292.387711 
L 276.970255 292.539183 
L 280.22388 292.722 
L 283.477504 292.945693 
L 286.731129 293.219789 
L 289.984753 293.553817 
L 293.238377 293.957307 
L 296.492002 294.439788 
L 299.745626 295.010765 
L 302.99925 295.672121 
L 306.252875 296.407049 
L 309.506499 297.195932 
L 312.760123 298.019151 
L 316.013748 298.857088 
L 319.267372 299.690126 
L 322.520997 300.498645 
L 325.774621 301.263029 
L 329.028245 301.963659 
L 332.28187 302.580918 
L 335.535494 303.095186 
L 338.789118 303.486847 
L 342.042743 303.736282 
L 345.296367 303.823873 
L 348.549991 303.730002 
L 351.803616 303.435051 
L 355.05724 302.920888 
L 358.310865 302.196053 
L 361.564489 301.292156 
L 364.818113 300.24157 
L 368.071738 299.076666 
L 371.325362 297.829815 
L 374.578986 296.533388 
L 377.832611 295.219758 
L 381.086235 293.921296 
L 384.339859 292.670373 
L 387.593484 291.499362 
L 390.847108 290.440632 
L 394.100732 289.526557 
L 397.354357 288.789507 
L 400.607981 288.261854 
L 403.861606 287.97597 
L 407.11523 287.964226 
L 410.368854 288.248792 
L 413.622479 288.803618 
L 416.876103 289.588419 
L 420.129727 290.562909 
L 423.383352 291.686802 
L 426.636976 292.919812 
L 429.8906 294.221651 
L 433.144225 295.552034 
L 436.397849 296.870674 
L 439.651474 298.137285 
L 442.905098 299.31158 
L 446.158722 300.353273 
L 449.412347 301.222078 
L 452.665971 301.877709 
L 455.919595 302.279878 
L 459.17322 302.3883 
L 462.426844 302.163126 
L 465.680468 301.590727 
L 468.934093 300.69812 
L 472.187717 299.515819 
L 475.441342 298.074335 
L 478.694966 296.404182 
L 481.94859 294.535872 
L 485.202215 292.499919 
L 488.455839 290.326834 
L 491.709463 288.047131 
L 494.963088 285.691322 
L 498.216712 283.28992 
L 501.470336 280.873438 
L 504.723961 278.472389 
L 507.977585 276.117285 
L 511.23121 273.83864 
L 514.484834 271.666965 
L 517.738458 269.631621 
L 520.992083 267.750953 
L 524.245707 266.037185 
L 527.499331 264.502476 
L 530.752956 263.158984 
L 534.00658 262.01887 
L 537.260204 261.094291 
L 540.513829 260.397407 
L 543.767453 259.940377 
L 547.021077 259.73536 
L 550.274702 259.794515 
L 553.528326 260.130001 
L 556.781951 260.753976 
L 560.035575 261.678601 
L 563.289199 262.916033 
L 566.542824 264.478432 
L 569.796448 266.377941 
L 573.050072 268.611437 
L 576.303697 271.131874 
L 579.557321 273.884359 
L 582.810945 276.813999 
L 586.06457 279.865902 
L 589.318194 282.985174 
L 592.571819 286.116922 
L 595.825443 289.206252 
L 599.079067 292.198272 
L 602.332692 295.038089 
L 605.586316 297.67081 
L 608.83994 300.04154 
L 612.093565 302.095389 
L 615.347189 303.777461 
L 618.600813 305.032864 
L 621.854438 305.806705 
L 625.108062 306.046484 
L 628.361687 305.754716 
L 631.615311 304.988936 
L 634.868935 303.809071 
L 638.12256 302.275047 
L 641.376184 300.446791 
L 644.629808 298.384229 
L 647.883433 296.147289 
L 651.137057 293.795896 
L 654.390681 291.389978 
L 657.644306 288.98946 
L 660.89793 286.654269 
L 664.151555 284.444333 
L 667.405179 282.419577 
L 670.658803 280.639928 
L 673.912428 279.165312 
L 677.166052 278.055657 
L 680.419676 277.359705 
L 683.673301 277.063616 
L 686.926925 277.131793 
L 690.180549 277.528619 
L 693.434174 278.218476 
L 696.687798 279.165746 
L 699.941423 280.33481 
L 703.195047 281.690051 
L 706.448671 283.19585 
L 709.702296 284.816589 
L 712.95592 286.516652 
L 716.209544 288.260418 
L 719.463169 290.012271 
L 722.716793 291.736592 
L 725.970417 293.397763 
L 729.224042 294.960167 
L 732.477666 296.388294 
L 735.73129 297.656868 
L 738.984915 298.759029 
L 742.238539 299.689844 
L 745.492164 300.44438 
L 748.745788 301.017705 
L 751.999412 301.404885 
L 755.253037 301.600988 
L 758.506661 301.601081 
L 761.760285 301.400232 
L 765.01391 300.993506 
L 768.267534 300.375972 
L 771.521158 299.542697 
L 774.774783 298.488747 
L 778.028407 297.209191 
L 781.282032 295.699094 
L 784.535656 293.953525 
L 787.78928 291.970454 
L 791.042905 289.781612 
L 794.296529 287.440508 
L 797.550153 285.001016 
L 800.803778 282.517009 
L 804.057402 280.042359 
L 807.311026 277.63094 
L 810.564651 275.336624 
L 813.818275 273.213286 
L 817.0719 271.314797 
L 820.325524 269.69503 
L 823.579148 268.40786 
L 826.832773 267.507158 
L 830.086397 267.046798 
L 833.340021 267.080653 
L 836.593646 267.662596 
L 839.84727 268.846496 
L 843.100894 270.661373 
L 846.354519 273.052068 
L 849.608143 275.94561 
L 852.861768 279.269028 
L 856.115392 282.949353 
L 859.369016 286.913614 
L 862.622641 291.088841 
L 865.876265 295.402064 
L 869.129889 299.780313 
L 872.383514 304.150618 
L 875.637138 308.440009 
L 878.890762 312.575515 
L 882.144387 316.484166 
L 885.398011 320.092993 
L 888.651635 323.329024 
L 891.90526 326.119291 
L 895.158884 328.392633 
L 898.412509 330.132803 
L 901.666133 331.387036 
L 904.919757 332.206106 
L 908.173382 332.640785 
L 911.427006 332.741846 
L 914.68063 332.560061 
L 917.934255 332.146202 
L 921.187879 331.551043 
L 924.441503 330.825355 
L 927.695128 330.019912 
L 930.948752 329.185485 
L 934.202377 328.372848 
L 937.456001 327.632773 
L 940.709625 327.016032 
L 943.96325 326.573399 
L 947.216874 326.355645 
L 950.470498 326.404365 
L 953.724123 326.700135 
L 956.977747 327.198639 
L 960.231371 327.85549 
L 963.484996 328.626298 
L 966.73862 329.466674 
L 969.992245 330.332229 
L 973.245869 331.178576 
L 976.499493 331.961324 
L 979.753118 332.636085 
L 983.006742 333.158471 
L 986.260366 333.484092 
L 989.513991 333.568559 
L 992.767615 333.367485 
L 996.021239 332.83648 
L 999.274864 331.931155 
L 1002.528488 330.607276 
L 1005.782113 328.845753 
L 1009.035737 326.680219 
L 1012.289361 324.150947 
L 1015.542986 321.298211 
L 1018.79661 318.162284 
L 1022.050234 314.783439 
L 1025.303859 311.201948 
L 1028.557483 307.458085 
L 1031.811107 303.592123 
L 1035.064732 299.644335 
L 1038.318356 295.654994 
L 1041.571981 291.664373 
L 1044.825605 287.712746 
L 1048.079229 283.840384 
L 1051.332854 280.087562 
L 1054.586478 276.494553 
L 1057.840102 273.101628 
L 1061.093727 269.949062 
L 1064.347351 267.077128 
L 1067.600975 264.526099 
L 1070.8546 262.336247 
L 1074.108224 260.547846 
L 1077.361848 259.201168 
L 1080.615473 258.336488 
L 1083.869097 257.994077 
L 1087.122722 258.21421 
L 1090.376346 259.037159 
L 1093.62997 260.503196 
L 1096.883595 262.652596 
L 1100.137219 265.525632 
L 1103.390843 269.162575 
L 1106.644468 273.603701 
L 1109.898092 278.88928 
L 1109.898092 167.848232 
L 1109.898092 167.848232 
L 1106.644468 164.584683 
L 1103.390843 161.793968 
L 1100.137219 159.459454 
L 1096.883595 157.564507 
L 1093.62997 156.092493 
L 1090.376346 155.026779 
L 1087.122722 154.35073 
L 1083.869097 154.047714 
L 1080.615473 154.101097 
L 1077.361848 154.494244 
L 1074.108224 155.210523 
L 1070.8546 156.233299 
L 1067.600975 157.545939 
L 1064.347351 159.131809 
L 1061.093727 160.974277 
L 1057.840102 163.056707 
L 1054.586478 165.362466 
L 1051.332854 167.874921 
L 1048.079229 170.577438 
L 1044.825605 173.453383 
L 1041.571981 176.486123 
L 1038.318356 179.659024 
L 1035.064732 182.955452 
L 1031.811107 186.358773 
L 1028.557483 189.852355 
L 1025.303859 193.419563 
L 1022.050234 197.043764 
L 1018.79661 200.708323 
L 1015.542986 204.396608 
L 1012.289361 208.091985 
L 1009.035737 211.77782 
L 1005.782113 215.437479 
L 1002.528488 219.054328 
L 999.274864 222.611585 
L 996.021239 226.091277 
L 992.767615 229.474865 
L 989.513991 232.743807 
L 986.260366 235.879558 
L 983.006742 238.863578 
L 979.753118 241.677324 
L 976.499493 244.302251 
L 973.245869 246.719819 
L 969.992245 248.911485 
L 966.73862 250.858705 
L 963.484996 252.542937 
L 960.231371 253.945639 
L 956.977747 255.048268 
L 953.724123 255.832281 
L 950.470498 256.279135 
L 947.216874 256.370318 
L 943.96325 256.097329 
L 940.709625 255.476211 
L 937.456001 254.526699 
L 934.202377 253.268528 
L 930.948752 251.721434 
L 927.695128 249.905152 
L 924.441503 247.839416 
L 921.187879 245.543963 
L 917.934255 243.038527 
L 914.68063 240.342843 
L 911.427006 237.476647 
L 908.173382 234.459674 
L 904.919757 231.311659 
L 901.666133 228.052336 
L 898.412509 224.701442 
L 895.158884 221.278712 
L 891.90526 217.803791 
L 888.651635 214.294729 
L 885.398011 210.768193 
L 882.144387 207.240807 
L 878.890762 203.729192 
L 875.637138 200.249971 
L 872.383514 196.819765 
L 869.129889 193.455198 
L 865.876265 190.172892 
L 862.622641 186.989468 
L 859.369016 183.92155 
L 856.115392 180.985759 
L 852.861768 178.198719 
L 849.608143 175.57705 
L 846.354519 173.137376 
L 843.100894 170.896319 
L 839.84727 168.870501 
L 836.593646 167.074606 
L 833.340021 165.514155 
L 830.086397 164.191965 
L 826.832773 163.110853 
L 823.579148 162.273634 
L 820.325524 161.683125 
L 817.0719 161.342142 
L 813.818275 161.253501 
L 810.564651 161.420019 
L 807.311026 161.844511 
L 804.057402 162.529795 
L 800.803778 163.478686 
L 797.550153 164.694001 
L 794.296529 166.178555 
L 791.042905 167.935166 
L 787.78928 169.966649 
L 784.535656 172.27548 
L 781.282032 174.843693 
L 778.028407 177.621641 
L 774.774783 180.556948 
L 771.521158 183.597241 
L 768.267534 186.690145 
L 765.01391 189.783286 
L 761.760285 192.824291 
L 758.506661 195.760784 
L 755.253037 198.540392 
L 751.999412 201.11074 
L 748.745788 203.419455 
L 745.492164 205.414162 
L 742.238539 207.042487 
L 738.984915 208.252056 
L 735.73129 208.990494 
L 732.477666 209.205428 
L 729.224042 208.852445 
L 725.970417 207.963243 
L 722.716793 206.6118 
L 719.463169 204.872546 
L 716.209544 202.819911 
L 712.95592 200.528327 
L 709.702296 198.072224 
L 706.448671 195.526032 
L 703.195047 192.964182 
L 699.941423 190.461104 
L 696.687798 188.091228 
L 693.434174 185.928986 
L 690.180549 184.048808 
L 686.926925 182.525124 
L 683.673301 181.432364 
L 680.419676 180.84496 
L 677.166052 180.837303 
L 673.912428 181.445272 
L 670.658803 182.593968 
L 667.405179 184.188691 
L 664.151555 186.134744 
L 660.89793 188.337428 
L 657.644306 190.702046 
L 654.390681 193.133898 
L 651.137057 195.538288 
L 647.883433 197.820516 
L 644.629808 199.885884 
L 641.376184 201.639695 
L 638.12256 202.98725 
L 634.868935 203.833851 
L 631.615311 204.084799 
L 628.361687 203.645398 
L 625.108062 202.420947 
L 621.854438 200.321284 
L 618.600813 197.360526 
L 615.347189 193.657073 
L 612.093565 189.333859 
L 608.83994 184.513819 
L 605.586316 179.319886 
L 602.332692 173.874994 
L 599.079067 168.302078 
L 595.825443 162.724071 
L 592.571819 157.263908 
L 589.318194 152.044522 
L 586.06457 147.188849 
L 582.810945 142.81982 
L 579.557321 139.060372 
L 576.303697 136.033437 
L 573.050072 133.86195 
L 569.796448 132.668846 
L 566.542824 132.549658 
L 563.289199 133.44661 
L 560.035575 135.248626 
L 556.781951 137.844574 
L 553.528326 141.123325 
L 550.274702 144.97375 
L 547.021077 149.284717 
L 543.767453 153.945097 
L 540.513829 158.84376 
L 537.260204 163.869577 
L 534.00658 168.911416 
L 530.752956 173.858148 
L 527.499331 178.598643 
L 524.245707 183.02177 
L 520.992083 187.016401 
L 517.738458 190.471405 
L 514.484834 193.2763 
L 511.23121 195.381202 
L 507.977585 196.845307 
L 504.723961 197.739223 
L 501.470336 198.133557 
L 498.216712 198.098918 
L 494.963088 197.705913 
L 491.709463 197.02515 
L 488.455839 196.127237 
L 485.202215 195.082781 
L 481.94859 193.962391 
L 478.694966 192.836673 
L 475.441342 191.776235 
L 472.187717 190.851686 
L 468.934093 190.133633 
L 465.680468 189.692683 
L 462.426844 189.599445 
L 459.17322 189.918224 
L 455.919595 190.640062 
L 452.665971 191.708731 
L 449.412347 193.067219 
L 446.158722 194.658512 
L 442.905098 196.425596 
L 439.651474 198.311457 
L 436.397849 200.259082 
L 433.144225 202.211458 
L 429.8906 204.111569 
L 426.636976 205.902403 
L 423.383352 207.526946 
L 420.129727 208.928184 
L 416.876103 210.049104 
L 413.622479 210.832691 
L 410.368854 211.221932 
L 407.11523 211.159817 
L 403.861606 210.611817 
L 400.607981 209.619562 
L 397.354357 208.240798 
L 394.100732 206.533269 
L 390.847108 204.554718 
L 387.593484 202.36289 
L 384.339859 200.015529 
L 381.086235 197.570379 
L 377.832611 195.085184 
L 374.578986 192.617688 
L 371.325362 190.225636 
L 368.071738 187.966771 
L 364.818113 185.898839 
L 361.564489 184.079582 
L 358.310865 182.566745 
L 355.05724 181.418073 
L 351.803616 180.689748 
L 348.549991 180.390632 
L 345.296367 180.474872 
L 342.042743 180.893572 
L 338.789118 181.597832 
L 335.535494 182.538753 
L 332.28187 183.667438 
L 329.028245 184.934987 
L 325.774621 186.292503 
L 322.520997 187.691086 
L 319.267372 189.081838 
L 316.013748 190.415861 
L 312.760123 191.644256 
L 309.506499 192.718125 
L 306.252875 193.588569 
L 302.99925 194.20669 
L 299.745626 194.523588 
L 296.492002 194.497703 
L 293.238377 194.136246 
L 289.984753 193.466324 
L 286.731129 192.515104 
L 283.477504 191.309754 
L 280.22388 189.87744 
L 276.970255 188.245328 
L 273.716631 186.440586 
L 270.463007 184.490381 
L 267.209382 182.421879 
L 263.955758 180.262247 
L 260.702134 178.038651 
L 257.448509 175.778259 
L 254.194885 173.508238 
L 250.941261 171.255753 
L 247.687636 169.047973 
L 244.434012 166.912019 
L 241.180387 164.867806 
L 237.926763 162.92013 
L 234.673139 161.071888 
L 231.419514 159.325973 
L 228.16589 157.685281 
L 224.912266 156.152705 
L 221.658641 154.731141 
L 218.405017 153.423483 
L 215.151393 152.232626 
L 211.897768 151.161464 
L 208.644144 150.212891 
L 205.390519 149.389804 
L 202.136895 148.695095 
L 198.883271 148.131661 
L 195.629646 147.702394 
L 192.376022 147.410191 
L 189.122398 147.257946 
L 185.868773 147.248552 
L 182.615149 147.384906 
L 179.361525 147.669901 
L 176.1079 148.106432 
L 172.854276 148.697394 
L 169.600652 149.445681 
L 166.347027 150.354189 
L 163.093403 151.425811 
L 159.839778 152.663442 
L 156.586154 154.069977 
L 153.33253 155.64831 
L 150.078905 157.401336 
L 146.825281 159.33195 
L 143.571657 161.443047 
L 140.318032 163.73752 
L 137.064408 166.218265 
z
" clip-path="url(#p5ff24138eb)" style="fill: #7570b3"/>
   </g>
   <g id="FillBetweenPolyCollection_3">
    <path d="M 137.064408 57.632969 
L 137.064408 166.218265 
L 140.318032 163.73752 
L 143.571657 161.443047 
L 146.825281 159.33195 
L 150.078905 157.401336 
L 153.33253 155.64831 
L 156.586154 154.069977 
L 159.839778 152.663442 
L 163.093403 151.425811 
L 166.347027 150.354189 
L 169.600652 149.445681 
L 172.854276 148.697394 
L 176.1079 148.106432 
L 179.361525 147.669901 
L 182.615149 147.384906 
L 185.868773 147.248552 
L 189.122398 147.257946 
L 192.376022 147.410191 
L 195.629646 147.702394 
L 198.883271 148.131661 
L 202.136895 148.695095 
L 205.390519 149.389804 
L 208.644144 150.212891 
L 211.897768 151.161464 
L 215.151393 152.232626 
L 218.405017 153.423483 
L 221.658641 154.731141 
L 224.912266 156.152705 
L 228.16589 157.685281 
L 231.419514 159.325973 
L 234.673139 161.071888 
L 237.926763 162.92013 
L 241.180387 164.867806 
L 244.434012 166.912019 
L 247.687636 169.047973 
L 250.941261 171.255753 
L 254.194885 173.508238 
L 257.448509 175.778259 
L 260.702134 178.038651 
L 263.955758 180.262247 
L 267.209382 182.421879 
L 270.463007 184.490381 
L 273.716631 186.440586 
L 276.970255 188.245328 
L 280.22388 189.87744 
L 283.477504 191.309754 
L 286.731129 192.515104 
L 289.984753 193.466324 
L 293.238377 194.136246 
L 296.492002 194.497703 
L 299.745626 194.523588 
L 302.99925 194.20669 
L 306.252875 193.588569 
L 309.506499 192.718125 
L 312.760123 191.644256 
L 316.013748 190.415861 
L 319.267372 189.081838 
L 322.520997 187.691086 
L 325.774621 186.292503 
L 329.028245 184.934987 
L 332.28187 183.667438 
L 335.535494 182.538753 
L 338.789118 181.597832 
L 342.042743 180.893572 
L 345.296367 180.474872 
L 348.549991 180.390632 
L 351.803616 180.689748 
L 355.05724 181.418073 
L 358.310865 182.566745 
L 361.564489 184.079582 
L 364.818113 185.898839 
L 368.071738 187.966771 
L 371.325362 190.225636 
L 374.578986 192.617688 
L 377.832611 195.085184 
L 381.086235 197.570379 
L 384.339859 200.015529 
L 387.593484 202.36289 
L 390.847108 204.554718 
L 394.100732 206.533269 
L 397.354357 208.240798 
L 400.607981 209.619562 
L 403.861606 210.611817 
L 407.11523 211.159817 
L 410.368854 211.221932 
L 413.622479 210.832691 
L 416.876103 210.049104 
L 420.129727 208.928184 
L 423.383352 207.526946 
L 426.636976 205.902403 
L 429.8906 204.111569 
L 433.144225 202.211458 
L 436.397849 200.259082 
L 439.651474 198.311457 
L 442.905098 196.425596 
L 446.158722 194.658512 
L 449.412347 193.067219 
L 452.665971 191.708731 
L 455.919595 190.640062 
L 459.17322 189.918224 
L 462.426844 189.599445 
L 465.680468 189.692683 
L 468.934093 190.133633 
L 472.187717 190.851686 
L 475.441342 191.776235 
L 478.694966 192.836673 
L 481.94859 193.962391 
L 485.202215 195.082781 
L 488.455839 196.127237 
L 491.709463 197.02515 
L 494.963088 197.705913 
L 498.216712 198.098918 
L 501.470336 198.133557 
L 504.723961 197.739223 
L 507.977585 196.845307 
L 511.23121 195.381202 
L 514.484834 193.2763 
L 517.738458 190.471405 
L 520.992083 187.016401 
L 524.245707 183.02177 
L 527.499331 178.598643 
L 530.752956 173.858148 
L 534.00658 168.911416 
L 537.260204 163.869577 
L 540.513829 158.84376 
L 543.767453 153.945097 
L 547.021077 149.284717 
L 550.274702 144.97375 
L 553.528326 141.123325 
L 556.781951 137.844574 
L 560.035575 135.248626 
L 563.289199 133.44661 
L 566.542824 132.549658 
L 569.796448 132.668846 
L 573.050072 133.86195 
L 576.303697 136.033437 
L 579.557321 139.060372 
L 582.810945 142.81982 
L 586.06457 147.188849 
L 589.318194 152.044522 
L 592.571819 157.263908 
L 595.825443 162.724071 
L 599.079067 168.302078 
L 602.332692 173.874994 
L 605.586316 179.319886 
L 608.83994 184.513819 
L 612.093565 189.333859 
L 615.347189 193.657073 
L 618.600813 197.360526 
L 621.854438 200.321284 
L 625.108062 202.420947 
L 628.361687 203.645398 
L 631.615311 204.084799 
L 634.868935 203.833851 
L 638.12256 202.98725 
L 641.376184 201.639695 
L 644.629808 199.885884 
L 647.883433 197.820516 
L 651.137057 195.538288 
L 654.390681 193.133898 
L 657.644306 190.702046 
L 660.89793 188.337428 
L 664.151555 186.134744 
L 667.405179 184.188691 
L 670.658803 182.593968 
L 673.912428 181.445272 
L 677.166052 180.837303 
L 680.419676 180.84496 
L 683.673301 181.432364 
L 686.926925 182.525124 
L 690.180549 184.048808 
L 693.434174 185.928986 
L 696.687798 188.091228 
L 699.941423 190.461104 
L 703.195047 192.964182 
L 706.448671 195.526032 
L 709.702296 198.072224 
L 712.95592 200.528327 
L 716.209544 202.819911 
L 719.463169 204.872546 
L 722.716793 206.6118 
L 725.970417 207.963243 
L 729.224042 208.852445 
L 732.477666 209.205428 
L 735.73129 208.990494 
L 738.984915 208.252056 
L 742.238539 207.042487 
L 745.492164 205.414162 
L 748.745788 203.419455 
L 751.999412 201.11074 
L 755.253037 198.540392 
L 758.506661 195.760784 
L 761.760285 192.824291 
L 765.01391 189.783286 
L 768.267534 186.690145 
L 771.521158 183.597241 
L 774.774783 180.556948 
L 778.028407 177.621641 
L 781.282032 174.843693 
L 784.535656 172.27548 
L 787.78928 169.966649 
L 791.042905 167.935166 
L 794.296529 166.178555 
L 797.550153 164.694001 
L 800.803778 163.478686 
L 804.057402 162.529795 
L 807.311026 161.844511 
L 810.564651 161.420019 
L 813.818275 161.253501 
L 817.0719 161.342142 
L 820.325524 161.683125 
L 823.579148 162.273634 
L 826.832773 163.110853 
L 830.086397 164.191965 
L 833.340021 165.514155 
L 836.593646 167.074606 
L 839.84727 168.870501 
L 843.100894 170.896319 
L 846.354519 173.137376 
L 849.608143 175.57705 
L 852.861768 178.198719 
L 856.115392 180.985759 
L 859.369016 183.92155 
L 862.622641 186.989468 
L 865.876265 190.172892 
L 869.129889 193.455198 
L 872.383514 196.819765 
L 875.637138 200.249971 
L 878.890762 203.729192 
L 882.144387 207.240807 
L 885.398011 210.768193 
L 888.651635 214.294729 
L 891.90526 217.803791 
L 895.158884 221.278712 
L 898.412509 224.701442 
L 901.666133 228.052336 
L 904.919757 231.311659 
L 908.173382 234.459674 
L 911.427006 237.476647 
L 914.68063 240.342843 
L 917.934255 243.038527 
L 921.187879 245.543963 
L 924.441503 247.839416 
L 927.695128 249.905152 
L 930.948752 251.721434 
L 934.202377 253.268528 
L 937.456001 254.526699 
L 940.709625 255.476211 
L 943.96325 256.097329 
L 947.216874 256.370318 
L 950.470498 256.279135 
L 953.724123 255.832281 
L 956.977747 255.048268 
L 960.231371 253.945639 
L 963.484996 252.542937 
L 966.73862 250.858705 
L 969.992245 248.911485 
L 973.245869 246.719819 
L 976.499493 244.302251 
L 979.753118 241.677324 
L 983.006742 238.863578 
L 986.260366 235.879558 
L 989.513991 232.743807 
L 992.767615 229.474865 
L 996.021239 226.091277 
L 999.274864 222.611585 
L 1002.528488 219.054328 
L 1005.782113 215.437479 
L 1009.035737 211.77782 
L 1012.289361 208.091985 
L 1015.542986 204.396608 
L 1018.79661 200.708323 
L 1022.050234 197.043764 
L 1025.303859 193.419563 
L 1028.557483 189.852355 
L 1031.811107 186.358773 
L 1035.064732 182.955452 
L 1038.318356 179.659024 
L 1041.571981 176.486123 
L 1044.825605 173.453383 
L 1048.079229 170.577438 
L 1051.332854 167.874921 
L 1054.586478 165.362466 
L 1057.840102 163.056707 
L 1061.093727 160.974277 
L 1064.347351 159.131809 
L 1067.600975 157.545939 
L 1070.8546 156.233299 
L 1074.108224 155.210523 
L 1077.361848 154.494244 
L 1080.615473 154.101097 
L 1083.869097 154.047714 
L 1087.122722 154.35073 
L 1090.376346 155.026779 
L 1093.62997 156.092493 
L 1096.883595 157.564507 
L 1100.137219 159.459454 
L 1103.390843 161.793968 
L 1106.644468 164.584683 
L 1109.898092 167.848232 
L 1109.898092 57.632969 
L 1109.898092 57.632969 
L 1106.644468 57.632969 
L 1103.390843 57.632969 
L 1100.137219 57.632969 
L 1096.883595 57.632969 
L 1093.62997 57.632969 
L 1090.376346 57.632969 
L 1087.122722 57.632969 
L 1083.869097 57.632969 
L 1080.615473 57.632969 
L 1077.361848 57.632969 
L 1074.108224 57.632969 
L 1070.8546 57.632969 
L 1067.600975 57.632969 
L 1064.347351 57.632969 
L 1061.093727 57.632969 
L 1057.840102 57.632969 
L 1054.586478 57.632969 
L 1051.332854 57.632969 
L 1048.079229 57.632969 
L 1044.825605 57.632969 
L 1041.571981 57.632969 
L 1038.318356 57.632969 
L 1035.064732 57.632969 
L 1031.811107 57.632969 
L 1028.557483 57.632969 
L 1025.303859 57.632969 
L 1022.050234 57.632969 
L 1018.79661 57.632969 
L 1015.542986 57.632969 
L 1012.289361 57.632969 
L 1009.035737 57.632969 
L 1005.782113 57.632969 
L 1002.528488 57.632969 
L 999.274864 57.632969 
L 996.021239 57.632969 
L 992.767615 57.632969 
L 989.513991 57.632969 
L 986.260366 57.632969 
L 983.006742 57.632969 
L 979.753118 57.632969 
L 976.499493 57.632969 
L 973.245869 57.632969 
L 969.992245 57.632969 
L 966.73862 57.632969 
L 963.484996 57.632969 
L 960.231371 57.632969 
L 956.977747 57.632969 
L 953.724123 57.632969 
L 950.470498 57.632969 
L 947.216874 57.632969 
L 943.96325 57.632969 
L 940.709625 57.632969 
L 937.456001 57.632969 
L 934.202377 57.632969 
L 930.948752 57.632969 
L 927.695128 57.632969 
L 924.441503 57.632969 
L 921.187879 57.632969 
L 917.934255 57.632969 
L 914.68063 57.632969 
L 911.427006 57.632969 
L 908.173382 57.632969 
L 904.919757 57.632969 
L 901.666133 57.632969 
L 898.412509 57.632969 
L 895.158884 57.632969 
L 891.90526 57.632969 
L 888.651635 57.632969 
L 885.398011 57.632969 
L 882.144387 57.632969 
L 878.890762 57.632969 
L 875.637138 57.632969 
L 872.383514 57.632969 
L 869.129889 57.632969 
L 865.876265 57.632969 
L 862.622641 57.632969 
L 859.369016 57.632969 
L 856.115392 57.632969 
L 852.861768 57.632969 
L 849.608143 57.632969 
L 846.354519 57.632969 
L 843.100894 57.632969 
L 839.84727 57.632969 
L 836.593646 57.632969 
L 833.340021 57.632969 
L 830.086397 57.632969 
L 826.832773 57.632969 
L 823.579148 57.632969 
L 820.325524 57.632969 
L 817.0719 57.632969 
L 813.818275 57.632969 
L 810.564651 57.632969 
L 807.311026 57.632969 
L 804.057402 57.632969 
L 800.803778 57.632969 
L 797.550153 57.632969 
L 794.296529 57.632969 
L 791.042905 57.632969 
L 787.78928 57.632969 
L 784.535656 57.632969 
L 781.282032 57.632969 
L 778.028407 57.632969 
L 774.774783 57.632969 
L 771.521158 57.632969 
L 768.267534 57.632969 
L 765.01391 57.632969 
L 761.760285 57.632969 
L 758.506661 57.632969 
L 755.253037 57.632969 
L 751.999412 57.632969 
L 748.745788 57.632969 
L 745.492164 57.632969 
L 742.238539 57.632969 
L 738.984915 57.632969 
L 735.73129 57.632969 
L 732.477666 57.632969 
L 729.224042 57.632969 
L 725.970417 57.632969 
L 722.716793 57.632969 
L 719.463169 57.632969 
L 716.209544 57.632969 
L 712.95592 57.632969 
L 709.702296 57.632969 
L 706.448671 57.632969 
L 703.195047 57.632969 
L 699.941423 57.632969 
L 696.687798 57.632969 
L 693.434174 57.632969 
L 690.180549 57.632969 
L 686.926925 57.632969 
L 683.673301 57.632969 
L 680.419676 57.632969 
L 677.166052 57.632969 
L 673.912428 57.632969 
L 670.658803 57.632969 
L 667.405179 57.632969 
L 664.151555 57.632969 
L 660.89793 57.632969 
L 657.644306 57.632969 
L 654.390681 57.632969 
L 651.137057 57.632969 
L 647.883433 57.632969 
L 644.629808 57.632969 
L 641.376184 57.632969 
L 638.12256 57.632969 
L 634.868935 57.632969 
L 631.615311 57.632969 
L 628.361687 57.632969 
L 625.108062 57.632969 
L 621.854438 57.632969 
L 618.600813 57.632969 
L 615.347189 57.632969 
L 612.093565 57.632969 
L 608.83994 57.632969 
L 605.586316 57.632969 
L 602.332692 57.632969 
L 599.079067 57.632969 
L 595.825443 57.632969 
L 592.571819 57.632969 
L 589.318194 57.632969 
L 586.06457 57.632969 
L 582.810945 57.632969 
L 579.557321 57.632969 
L 576.303697 57.632969 
L 573.050072 57.632969 
L 569.796448 57.632969 
L 566.542824 57.632969 
L 563.289199 57.632969 
L 560.035575 57.632969 
L 556.781951 57.632969 
L 553.528326 57.632969 
L 550.274702 57.632969 
L 547.021077 57.632969 
L 543.767453 57.632969 
L 540.513829 57.632969 
L 537.260204 57.632969 
L 534.00658 57.632969 
L 530.752956 57.632969 
L 527.499331 57.632969 
L 524.245707 57.632969 
L 520.992083 57.632969 
L 517.738458 57.632969 
L 514.484834 57.632969 
L 511.23121 57.632969 
L 507.977585 57.632969 
L 504.723961 57.632969 
L 501.470336 57.632969 
L 498.216712 57.632969 
L 494.963088 57.632969 
L 491.709463 57.632969 
L 488.455839 57.632969 
L 485.202215 57.632969 
L 481.94859 57.632969 
L 478.694966 57.632969 
L 475.441342 57.632969 
L 472.187717 57.632969 
L 468.934093 57.632969 
L 465.680468 57.632969 
L 462.426844 57.632969 
L 459.17322 57.632969 
L 455.919595 57.632969 
L 452.665971 57.632969 
L 449.412347 57.632969 
L 446.158722 57.632969 
L 442.905098 57.632969 
L 439.651474 57.632969 
L 436.397849 57.632969 
L 433.144225 57.632969 
L 429.8906 57.632969 
L 426.636976 57.632969 
L 423.383352 57.632969 
L 420.129727 57.632969 
L 416.876103 57.632969 
L 413.622479 57.632969 
L 410.368854 57.632969 
L 407.11523 57.632969 
L 403.861606 57.632969 
L 400.607981 57.632969 
L 397.354357 57.632969 
L 394.100732 57.632969 
L 390.847108 57.632969 
L 387.593484 57.632969 
L 384.339859 57.632969 
L 381.086235 57.632969 
L 377.832611 57.632969 
L 374.578986 57.632969 
L 371.325362 57.632969 
L 368.071738 57.632969 
L 364.818113 57.632969 
L 361.564489 57.632969 
L 358.310865 57.632969 
L 355.05724 57.632969 
L 351.803616 57.632969 
L 348.549991 57.632969 
L 345.296367 57.632969 
L 342.042743 57.632969 
L 338.789118 57.632969 
L 335.535494 57.632969 
L 332.28187 57.632969 
L 329.028245 57.632969 
L 325.774621 57.632969 
L 322.520997 57.632969 
L 319.267372 57.632969 
L 316.013748 57.632969 
L 312.760123 57.632969 
L 309.506499 57.632969 
L 306.252875 57.632969 
L 302.99925 57.632969 
L 299.745626 57.632969 
L 296.492002 57.632969 
L 293.238377 57.632969 
L 289.984753 57.632969 
L 286.731129 57.632969 
L 283.477504 57.632969 
L 280.22388 57.632969 
L 276.970255 57.632969 
L 273.716631 57.632969 
L 270.463007 57.632969 
L 267.209382 57.632969 
L 263.955758 57.632969 
L 260.702134 57.632969 
L 257.448509 57.632969 
L 254.194885 57.632969 
L 250.941261 57.632969 
L 247.687636 57.632969 
L 244.434012 57.632969 
L 241.180387 57.632969 
L 237.926763 57.632969 
L 234.673139 57.632969 
L 231.419514 57.632969 
L 228.16589 57.632969 
L 224.912266 57.632969 
L 221.658641 57.632969 
L 218.405017 57.632969 
L 215.151393 57.632969 
L 211.897768 57.632969 
L 208.644144 57.632969 
L 205.390519 57.632969 
L 202.136895 57.632969 
L 198.883271 57.632969 
L 195.629646 57.632969 
L 192.376022 57.632969 
L 189.122398 57.632969 
L 185.868773 57.632969 
L 182.615149 57.632969 
L 179.361525 57.632969 
L 176.1079 57.632969 
L 172.854276 57.632969 
L 169.600652 57.632969 
L 166.347027 57.632969 
L 163.093403 57.632969 
L 159.839778 57.632969 
L 156.586154 57.632969 
L 153.33253 57.632969 
L 150.078905 57.632969 
L 146.825281 57.632969 
L 143.571657 57.632969 
L 140.318032 57.632969 
L 137.064408 57.632969 
z
" clip-path="url(#p5ff24138eb)" style="fill: #c7eae5"/>
   </g>
   <g id="matplotlib.axis_1">
    <g id="xtick_1">
     <g id="line2d_1">
      <path d="M 137.064408 401.002112 
L 137.064408 40.464512 
" clip-path="url(#p5ff24138eb)" style="fill: none; stroke: #ffffff; stroke-opacity: 0.3; stroke-width: 0.75; stroke-linecap: square"/>
     </g>
     <g id="line2d_2">
      <defs>
       <path id="m606073f231" d="M 0 0 
L 0 3.5 
" style="stroke: #000000; stroke-width: 0.8"/>
      </defs>
      <g>
       <use xlink:href="#m606073f231" x="137.064408" y="401.002112" style="stroke: #000000; stroke-width: 0.8"/>
      </g>
     </g>
     <g id="text_1">
      <text style="font-weight: 600; font-size: 24px; font-family: 'DejaVu Sans', 'Bitstream Vera Sans', 'Computer Modern Sans Serif', 'Lucida Grande', 'Verdana', 'Geneva', 'Lucid', 'Arial', 'Helvetica', 'Avant Garde', sans-serif; fill: #767676" transform="translate(143.686908 551.480862) rotate(-90)">sept. 2006</text>
     </g>
    </g>
    <g id="xtick_2">
     <g id="line2d_3">
      <path d="M 191.110724 401.002112 
L 191.110724 40.464512 
" clip-path="url(#p5ff24138eb)" style="fill: none; stroke: #ffffff; stroke-opacity: 0.3; stroke-width: 0.75; stroke-linecap: square"/>
     </g>
     <g id="line2d_4">
      <g>
       <use xlink:href="#m606073f231" x="191.110724" y="401.002112" style="stroke: #000000; stroke-width: 0.8"/>
      </g>
     </g>
     <g id="text_2">
      <text style="font-weight: 600; font-size: 24px; font-family: 'DejaVu Sans', 'Bitstream Vera Sans', 'Computer Modern Sans Serif', 'Lucida Grande', 'Verdana', 'Geneva', 'Lucid', 'Arial', 'Helvetica', 'Avant Garde', sans-serif; fill: #767676" transform="translate(197.733224 551.480862) rotate(-90)">sept. 2007</text>
     </g>
    </g>
    <g id="xtick_3">
     <g id="line2d_5">
      <path d="M 245.157039 401.002112 
L 245.157039 40.464512 
" clip-path="url(#p5ff24138eb)" style="fill: none; stroke: #ffffff; stroke-opacity: 0.3; stroke-width: 0.75; stroke-linecap: square"/>
     </g>
     <g id="line2d_6">
      <g>
       <use xlink:href="#m606073f231" x="245.157039" y="401.002112" style="stroke: #000000; stroke-width: 0.8"/>
      </g>
     </g>
     <g id="text_3">
      <text style="font-weight: 600; font-size: 24px; font-family: 'DejaVu Sans', 'Bitstream Vera Sans', 'Computer Modern Sans Serif', 'Lucida Grande', 'Verdana', 'Geneva', 'Lucid', 'Arial', 'Helvetica', 'Avant Garde', sans-serif; fill: #767676" transform="translate(251.779539 551.480862) rotate(-90)">sept. 2008</text>
     </g>
    </g>
    <g id="xtick_4">
     <g id="line2d_7">
      <path d="M 299.203355 401.002112 
L 299.203355 40.464512 
" clip-path="url(#p5ff24138eb)" style="fill: none; stroke: #ffffff; stroke-opacity: 0.3; stroke-width: 0.75; stroke-linecap: square"/>
     </g>
     <g id="line2d_8">
      <g>
       <use xlink:href="#m606073f231" x="299.203355" y="401.002112" style="stroke: #000000; stroke-width: 0.8"/>
      </g>
     </g>
     <g id="text_4">
      <text style="font-weight: 600; font-size: 24px; font-family: 'DejaVu Sans', 'Bitstream Vera Sans', 'Computer Modern Sans Serif', 'Lucida Grande', 'Verdana', 'Geneva', 'Lucid', 'Arial', 'Helvetica', 'Avant Garde', sans-serif; fill: #767676" transform="translate(305.825855 551.480862) rotate(-90)">sept. 2009</text>
     </g>
    </g>
    <g id="xtick_5">
     <g id="line2d_9">
      <path d="M 353.249671 401.002112 
L 353.249671 40.464512 
" clip-path="url(#p5ff24138eb)" style="fill: none; stroke: #ffffff; stroke-opacity: 0.3; stroke-width: 0.75; stroke-linecap: square"/>
     </g>
     <g id="line2d_10">
      <g>
       <use xlink:href="#m606073f231" x="353.249671" y="401.002112" style="stroke: #000000; stroke-width: 0.8"/>
      </g>
     </g>
     <g id="text_5">
      <text style="font-weight: 600; font-size: 24px; font-family: 'DejaVu Sans', 'Bitstream Vera Sans', 'Computer Modern Sans Serif', 'Lucida Grande', 'Verdana', 'Geneva', 'Lucid', 'Arial', 'Helvetica', 'Avant Garde', sans-serif; fill: #767676" transform="translate(359.872171 551.480862) rotate(-90)">sept. 2010</text>
     </g>
    </g>
    <g id="xtick_6">
     <g id="line2d_11">
      <path d="M 407.295987 401.002112 
L 407.295987 40.464512 
" clip-path="url(#p5ff24138eb)" style="fill: none; stroke: #ffffff; stroke-opacity: 0.3; stroke-width: 0.75; stroke-linecap: square"/>
     </g>
     <g id="line2d_12">
      <g>
       <use xlink:href="#m606073f231" x="407.295987" y="401.002112" style="stroke: #000000; stroke-width: 0.8"/>
      </g>
     </g>
     <g id="text_6">
      <text style="font-weight: 600; font-size: 24px; font-family: 'DejaVu Sans', 'Bitstream Vera Sans', 'Computer Modern Sans Serif', 'Lucida Grande', 'Verdana', 'Geneva', 'Lucid', 'Arial', 'Helvetica', 'Avant Garde', sans-serif; fill: #767676" transform="translate(413.918487 551.480862) rotate(-90)">sept. 2011</text>
     </g>
    </g>
    <g id="xtick_7">
     <g id="line2d_13">
      <path d="M 461.342303 401.002112 
L 461.342303 40.464512 
" clip-path="url(#p5ff24138eb)" style="fill: none; stroke: #ffffff; stroke-opacity: 0.3; stroke-width: 0.75; stroke-linecap: square"/>
     </g>
     <g id="line2d_14">
      <g>
       <use xlink:href="#m606073f231" x="461.342303" y="401.002112" style="stroke: #000000; stroke-width: 0.8"/>
      </g>
     </g>
     <g id="text_7">
      <text style="font-weight: 600; font-size: 24px; font-family: 'DejaVu Sans', 'Bitstream Vera Sans', 'Computer Modern Sans Serif', 'Lucida Grande', 'Verdana', 'Geneva', 'Lucid', 'Arial', 'Helvetica', 'Avant Garde', sans-serif; fill: #767676" transform="translate(467.964803 551.480862) rotate(-90)">sept. 2012</text>
     </g>
    </g>
    <g id="xtick_8">
     <g id="line2d_15">
      <path d="M 515.388618 401.002112 
L 515.388618 40.464512 
" clip-path="url(#p5ff24138eb)" style="fill: none; stroke: #ffffff; stroke-opacity: 0.3; stroke-width: 0.75; stroke-linecap: square"/>
     </g>
     <g id="line2d_16">
      <g>
       <use xlink:href="#m606073f231" x="515.388618" y="401.002112" style="stroke: #000000; stroke-width: 0.8"/>
      </g>
     </g>
     <g id="text_8">
      <text style="font-weight: 600; font-size: 24px; font-family: 'DejaVu Sans', 'Bitstream Vera Sans', 'Computer Modern Sans Serif', 'Lucida Grande', 'Verdana', 'Geneva', 'Lucid', 'Arial', 'Helvetica', 'Avant Garde', sans-serif; fill: #767676" transform="translate(522.011118 551.480862) rotate(-90)">sept. 2013</text>
     </g>
    </g>
    <g id="xtick_9">
     <g id="line2d_17">
      <path d="M 569.434934 401.002112 
L 569.434934 40.464512 
" clip-path="url(#p5ff24138eb)" style="fill: none; stroke: #ffffff; stroke-opacity: 0.3; stroke-width: 0.75; stroke-linecap: square"/>
     </g>
     <g id="line2d_18">
      <g>
       <use xlink:href="#m606073f231" x="569.434934" y="401.002112" style="stroke: #000000; stroke-width: 0.8"/>
      </g>
     </g>
     <g id="text_9">
      <text style="font-weight: 600; font-size: 24px; font-family: 'DejaVu Sans', 'Bitstream Vera Sans', 'Computer Modern Sans Serif', 'Lucida Grande', 'Verdana', 'Geneva', 'Lucid', 'Arial', 'Helvetica', 'Avant Garde', sans-serif; fill: #767676" transform="translate(576.057434 551.480862) rotate(-90)">sept. 2014</text>
     </g>
    </g>
    <g id="xtick_10">
     <g id="line2d_19">
      <path d="M 623.48125 401.002112 
L 623.48125 40.464512 
" clip-path="url(#p5ff24138eb)" style="fill: none; stroke: #ffffff; stroke-opacity: 0.3; stroke-width: 0.75; stroke-linecap: square"/>
     </g>
     <g id="line2d_20">
      <g>
       <use xlink:href="#m606073f231" x="623.48125" y="401.002112" style="stroke: #000000; stroke-width: 0.8"/>
      </g>
     </g>
     <g id="text_10">
      <text style="font-weight: 600; font-size: 24px; font-family: 'DejaVu Sans', 'Bitstream Vera Sans', 'Computer Modern Sans Serif', 'Lucida Grande', 'Verdana', 'Geneva', 'Lucid', 'Arial', 'Helvetica', 'Avant Garde', sans-serif; fill: #767676" transform="translate(630.10375 551.480862) rotate(-90)">sept. 2015</text>
     </g>
    </g>
    <g id="xtick_11">
     <g id="line2d_21">
      <path d="M 677.527566 401.002112 
L 677.527566 40.464512 
" clip-path="url(#p5ff24138eb)" style="fill: none; stroke: #ffffff; stroke-opacity: 0.3; stroke-width: 0.75; stroke-linecap: square"/>
     </g>
     <g id="line2d_22">
      <g>
       <use xlink:href="#m606073f231" x="677.527566" y="401.002112" style="stroke: #000000; stroke-width: 0.8"/>
      </g>
     </g>
     <g id="text_11">
      <text style="font-weight: 600; font-size: 24px; font-family: 'DejaVu Sans', 'Bitstream Vera Sans', 'Computer Modern Sans Serif', 'Lucida Grande', 'Verdana', 'Geneva', 'Lucid', 'Arial', 'Helvetica', 'Avant Garde', sans-serif; fill: #767676" transform="translate(684.150066 551.480862) rotate(-90)">sept. 2016</text>
     </g>
    </g>
    <g id="xtick_12">
     <g id="line2d_23">
      <path d="M 731.573882 401.002112 
L 731.573882 40.464512 
" clip-path="url(#p5ff24138eb)" style="fill: none; stroke: #ffffff; stroke-opacity: 0.3; stroke-width: 0.75; stroke-linecap: square"/>
     </g>
     <g id="line2d_24">
      <g>
       <use xlink:href="#m606073f231" x="731.573882" y="401.002112" style="stroke: #000000; stroke-width: 0.8"/>
      </g>
     </g>
     <g id="text_12">
      <text style="font-weight: 600; font-size: 24px; font-family: 'DejaVu Sans', 'Bitstream Vera Sans', 'Computer Modern Sans Serif', 'Lucida Grande', 'Verdana', 'Geneva', 'Lucid', 'Arial', 'Helvetica', 'Avant Garde', sans-serif; fill: #767676" transform="translate(738.196382 551.480862) rotate(-90)">sept. 2017</text>
     </g>
    </g>
    <g id="xtick_13">
     <g id="line2d_25">
      <path d="M 785.620197 401.002112 
L 785.620197 40.464512 
" clip-path="url(#p5ff24138eb)" style="fill: none; stroke: #ffffff; stroke-opacity: 0.3; stroke-width: 0.75; stroke-linecap: square"/>
     </g>
     <g id="line2d_26">
      <g>
       <use xlink:href="#m606073f231" x="785.620197" y="401.002112" style="stroke: #000000; stroke-width: 0.8"/>
      </g>
     </g>
     <g id="text_13">
      <text style="font-weight: 600; font-size: 24px; font-family: 'DejaVu Sans', 'Bitstream Vera Sans', 'Computer Modern Sans Serif', 'Lucida Grande', 'Verdana', 'Geneva', 'Lucid', 'Arial', 'Helvetica', 'Avant Garde', sans-serif; fill: #767676" transform="translate(792.242697 551.480862) rotate(-90)">sept. 2018</text>
     </g>
    </g>
    <g id="xtick_14">
     <g id="line2d_27">
      <path d="M 839.666513 401.002112 
L 839.666513 40.464512 
" clip-path="url(#p5ff24138eb)" style="fill: none; stroke: #ffffff; stroke-opacity: 0.3; stroke-width: 0.75; stroke-linecap: square"/>
     </g>
     <g id="line2d_28">
      <g>
       <use xlink:href="#m606073f231" x="839.666513" y="401.002112" style="stroke: #000000; stroke-width: 0.8"/>
      </g>
     </g>
     <g id="text_14">
      <text style="font-weight: 600; font-size: 24px; font-family: 'DejaVu Sans', 'Bitstream Vera Sans', 'Computer Modern Sans Serif', 'Lucida Grande', 'Verdana', 'Geneva', 'Lucid', 'Arial', 'Helvetica', 'Avant Garde', sans-serif; fill: #767676" transform="translate(846.289013 541.888362) rotate(-90)">mar. 2020</text>
     </g>
    </g>
    <g id="xtick_15">
     <g id="line2d_29">
      <path d="M 893.712829 401.002112 
L 893.712829 40.464512 
" clip-path="url(#p5ff24138eb)" style="fill: none; stroke: #ffffff; stroke-opacity: 0.3; stroke-width: 0.75; stroke-linecap: square"/>
     </g>
     <g id="line2d_30">
      <g>
       <use xlink:href="#m606073f231" x="893.712829" y="401.002112" style="stroke: #000000; stroke-width: 0.8"/>
      </g>
     </g>
     <g id="text_15">
      <text style="font-weight: 600; font-size: 24px; font-family: 'DejaVu Sans', 'Bitstream Vera Sans', 'Computer Modern Sans Serif', 'Lucida Grande', 'Verdana', 'Geneva', 'Lucid', 'Arial', 'Helvetica', 'Avant Garde', sans-serif; fill: #767676" transform="translate(900.335329 551.480862) rotate(-90)">sept. 2020</text>
     </g>
    </g>
    <g id="xtick_16">
     <g id="line2d_31">
      <path d="M 947.759145 401.002112 
L 947.759145 40.464512 
" clip-path="url(#p5ff24138eb)" style="fill: none; stroke: #ffffff; stroke-opacity: 0.3; stroke-width: 0.75; stroke-linecap: square"/>
     </g>
     <g id="line2d_32">
      <g>
       <use xlink:href="#m606073f231" x="947.759145" y="401.002112" style="stroke: #000000; stroke-width: 0.8"/>
      </g>
     </g>
     <g id="text_16">
      <text style="font-weight: 600; font-size: 24px; font-family: 'DejaVu Sans', 'Bitstream Vera Sans', 'Computer Modern Sans Serif', 'Lucida Grande', 'Verdana', 'Geneva', 'Lucid', 'Arial', 'Helvetica', 'Avant Garde', sans-serif; fill: #767676" transform="translate(954.381645 551.480862) rotate(-90)">sept. 2021</text>
     </g>
    </g>
    <g id="xtick_17">
     <g id="line2d_33">
      <path d="M 1001.805461 401.002112 
L 1001.805461 40.464512 
" clip-path="url(#p5ff24138eb)" style="fill: none; stroke: #ffffff; stroke-opacity: 0.3; stroke-width: 0.75; stroke-linecap: square"/>
     </g>
     <g id="line2d_34">
      <g>
       <use xlink:href="#m606073f231" x="1001.805461" y="401.002112" style="stroke: #000000; stroke-width: 0.8"/>
      </g>
     </g>
     <g id="text_17">
      <text style="font-weight: 600; font-size: 24px; font-family: 'DejaVu Sans', 'Bitstream Vera Sans', 'Computer Modern Sans Serif', 'Lucida Grande', 'Verdana', 'Geneva', 'Lucid', 'Arial', 'Helvetica', 'Avant Garde', sans-serif; fill: #767676" transform="translate(1008.427961 551.480862) rotate(-90)">sept. 2022</text>
     </g>
    </g>
    <g id="xtick_18">
     <g id="line2d_35">
      <path d="M 1055.851776 401.002112 
L 1055.851776 40.464512 
" clip-path="url(#p5ff24138eb)" style="fill: none; stroke: #ffffff; stroke-opacity: 0.3; stroke-width: 0.75; stroke-linecap: square"/>
     </g>
     <g id="line2d_36">
      <g>
       <use xlink:href="#m606073f231" x="1055.851776" y="401.002112" style="stroke: #000000; stroke-width: 0.8"/>
      </g>
     </g>
     <g id="text_18">
      <text style="font-weight: 600; font-size: 24px; font-family: 'DejaVu Sans', 'Bitstream Vera Sans', 'Computer Modern Sans Serif', 'Lucida Grande', 'Verdana', 'Geneva', 'Lucid', 'Arial', 'Helvetica', 'Avant Garde', sans-serif; fill: #767676" transform="translate(1062.474276 551.480862) rotate(-90)">sept. 2023</text>
     </g>
    </g>
    <g id="xtick_19">
     <g id="line2d_37">
      <path d="M 1109.898092 401.002112 
L 1109.898092 40.464512 
" clip-path="url(#p5ff24138eb)" style="fill: none; stroke: #ffffff; stroke-opacity: 0.3; stroke-width: 0.75; stroke-linecap: square"/>
     </g>
     <g id="line2d_38">
      <g>
       <use xlink:href="#m606073f231" x="1109.898092" y="401.002112" style="stroke: #000000; stroke-width: 0.8"/>
      </g>
     </g>
     <g id="text_19">
      <text style="font-weight: 600; font-size: 24px; font-family: 'DejaVu Sans', 'Bitstream Vera Sans', 'Computer Modern Sans Serif', 'Lucida Grande', 'Verdana', 'Geneva', 'Lucid', 'Arial', 'Helvetica', 'Avant Garde', sans-serif; fill: #767676" transform="translate(1116.520592 551.480862) rotate(-90)">sept. 2024</text>
     </g>
    </g>
   </g>
   <g id="matplotlib.axis_2">
    <g id="ytick_1">
     <g id="line2d_39">
      <path d="M 110.04125 401.002112 
L 1136.92125 401.002112 
" clip-path="url(#p5ff24138eb)" style="fill: none; stroke: #ffffff; stroke-opacity: 0.8; stroke-width: 1.25; stroke-linecap: square"/>
     </g>
     <g id="line2d_40">
      <defs>
       <path id="m9d73616fdd" d="M 0 0 
L -3.5 0 
" style="stroke: #000000; stroke-width: 0.8"/>
      </defs>
      <g>
       <use xlink:href="#m9d73616fdd" x="110.04125" y="401.002112" style="stroke: #000000; stroke-width: 0.8"/>
      </g>
     </g>
     <g id="text_20">
      <text style="font-weight: 500; font-size: 24px; font-family: 'DejaVu Sans', 'Bitstream Vera Sans', 'Computer Modern Sans Serif', 'Lucida Grande', 'Verdana', 'Geneva', 'Lucid', 'Arial', 'Helvetica', 'Avant Garde', sans-serif; text-anchor: end; fill: #767676" x="103.04125" y="410.120237" transform="rotate(-0 103.04125 410.120237)">0%</text>
     </g>
    </g>
    <g id="ytick_2">
     <g id="line2d_41">
      <path d="M 110.04125 315.159826 
L 1136.92125 315.159826 
" clip-path="url(#p5ff24138eb)" style="fill: none; stroke: #ffffff; stroke-opacity: 0.8; stroke-width: 1.25; stroke-linecap: square"/>
     </g>
     <g id="line2d_42">
      <g>
       <use xlink:href="#m9d73616fdd" x="110.04125" y="315.159826" style="stroke: #000000; stroke-width: 0.8"/>
      </g>
     </g>
     <g id="text_21">
      <text style="font-weight: 500; font-size: 24px; font-family: 'DejaVu Sans', 'Bitstream Vera Sans', 'Computer Modern Sans Serif', 'Lucida Grande', 'Verdana', 'Geneva', 'Lucid', 'Arial', 'Helvetica', 'Avant Garde', sans-serif; text-anchor: end; fill: #767676" x="103.04125" y="324.277951" transform="rotate(-0 103.04125 324.277951)">25%</text>
     </g>
    </g>
    <g id="ytick_3">
     <g id="line2d_43">
      <path d="M 110.04125 229.317541 
L 1136.92125 229.317541 
" clip-path="url(#p5ff24138eb)" style="fill: none; stroke: #ffffff; stroke-opacity: 0.8; stroke-width: 1.25; stroke-linecap: square"/>
     </g>
     <g id="line2d_44">
      <g>
       <use xlink:href="#m9d73616fdd" x="110.04125" y="229.317541" style="stroke: #000000; stroke-width: 0.8"/>
      </g>
     </g>
     <g id="text_22">
      <text style="font-weight: 500; font-size: 24px; font-family: 'DejaVu Sans', 'Bitstream Vera Sans', 'Computer Modern Sans Serif', 'Lucida Grande', 'Verdana', 'Geneva', 'Lucid', 'Arial', 'Helvetica', 'Avant Garde', sans-serif; text-anchor: end; fill: #767676" x="103.04125" y="238.435666" transform="rotate(-0 103.04125 238.435666)">50%</text>
     </g>
    </g>
    <g id="ytick_4">
     <g id="line2d_45">
      <path d="M 110.04125 143.475255 
L 1136.92125 143.475255 
" clip-path="url(#p5ff24138eb)" style="fill: none; stroke: #ffffff; stroke-opacity: 0.8; stroke-width: 1.25; stroke-linecap: square"/>
     </g>
     <g id="line2d_46">
      <g>
       <use xlink:href="#m9d73616fdd" x="110.04125" y="143.475255" style="stroke: #000000; stroke-width: 0.8"/>
      </g>
     </g>
     <g id="text_23">
      <text style="font-weight: 500; font-size: 24px; font-family: 'DejaVu Sans', 'Bitstream Vera Sans', 'Computer Modern Sans Serif', 'Lucida Grande', 'Verdana', 'Geneva', 'Lucid', 'Arial', 'Helvetica', 'Avant Garde', sans-serif; text-anchor: end; fill: #767676" x="103.04125" y="152.59338" transform="rotate(-0 103.04125 152.59338)">75%</text>
     </g>
    </g>
    <g id="ytick_5">
     <g id="line2d_47">
      <path d="M 110.04125 57.632969 
L 1136.92125 57.632969 
" clip-path="url(#p5ff24138eb)" style="fill: none; stroke: #ffffff; stroke-opacity: 0.8; stroke-width: 1.25; stroke-linecap: square"/>
     </g>
     <g id="line2d_48">
      <g>
       <use xlink:href="#m9d73616fdd" x="110.04125" y="57.632969" style="stroke: #000000; stroke-width: 0.8"/>
      </g>
     </g>
     <g id="text_24">
      <text style="font-weight: 500; font-size: 24px; font-family: 'DejaVu Sans', 'Bitstream Vera Sans', 'Computer Modern Sans Serif', 'Lucida Grande', 'Verdana', 'Geneva', 'Lucid', 'Arial', 'Helvetica', 'Avant Garde', sans-serif; text-anchor: end; fill: #767676" x="103.04125" y="66.751094" transform="rotate(-0 103.04125 66.751094)">100%</text>
     </g>
    </g>
    <g id="text_25">
     <text style="font-weight: 500; font-size: 24px; font-family: 'DejaVu Sans', 'Bitstream Vera Sans', 'Computer Modern Sans Serif', 'Lucida Grande', 'Verdana', 'Geneva', 'Lucid', 'Arial', 'Helvetica', 'Avant Garde', sans-serif; text-anchor: middle; fill: #767676" x="25.43625" y="220.733312" transform="rotate(-90 25.43625 220.733312)">Porcentaje</text>
    </g>
   </g>
   <g id="patch_3">
    <path d="M 110.04125 401.002112 
L 1136.92125 401.002112 
" style="fill: none; stroke: #000000; stroke-width: 2; stroke-linejoin: miter; stroke-linecap: square"/>
   </g>
   <g id="text_26">
    <g id="patch_4">
     <path d="M 203.868257 371.174866 
L 232.399507 371.174866 
Q 252.399507 371.174866 252.399507 351.174866 
L 252.399507 347.818616 
Q 252.399507 327.818616 232.399507 327.818616 
L 203.868257 327.818616 
Q 183.868257 327.818616 183.868257 347.818616 
L 183.868257 351.174866 
Q 183.868257 371.174866 203.868257 371.174866 
z
" style="fill: #ffffff; stroke: #d9d9d9; stroke-width: 1.8; stroke-linejoin: miter"/>
    </g>
    <text style="font-weight: 500; font-size: 20px; font-family: 'DejaVu Sans', 'Bitstream Vera Sans', 'Computer Modern Sans Serif', 'Lucida Grande', 'Verdana', 'Geneva', 'Lucid', 'Arial', 'Helvetica', 'Avant Garde', sans-serif; text-anchor: middle; fill: #10302c" x="218.133882" y="355.015491" transform="rotate(-0 218.133882 355.015491)">5.95</text>
   </g>
   <g id="text_27">
    <g id="patch_5">
     <path d="M 528.146151 268.164123 
L 556.677401 268.164123 
Q 576.677401 268.164123 576.677401 248.164123 
L 576.677401 244.807873 
Q 576.677401 224.807873 556.677401 224.807873 
L 528.146151 224.807873 
Q 508.146151 224.807873 508.146151 244.807873 
L 508.146151 248.164123 
Q 508.146151 268.164123 528.146151 268.164123 
z
" style="fill: #ffffff; stroke: #d9d9d9; stroke-width: 1.8; stroke-linejoin: miter"/>
    </g>
    <text style="font-weight: 500; font-size: 20px; font-family: 'DejaVu Sans', 'Bitstream Vera Sans', 'Computer Modern Sans Serif', 'Lucida Grande', 'Verdana', 'Geneva', 'Lucid', 'Arial', 'Helvetica', 'Avant Garde', sans-serif; text-anchor: middle; fill: #10302c" x="542.411776" y="252.004748" transform="rotate(-0 542.411776 252.004748)">5.92</text>
   </g>
   <g id="text_28">
    <g id="patch_6">
     <path d="M 852.424046 130.816466 
L 880.955296 130.816466 
Q 900.955296 130.816466 900.955296 110.816466 
L 900.955296 107.460216 
Q 900.955296 87.460216 880.955296 87.460216 
L 852.424046 87.460216 
Q 832.424046 87.460216 832.424046 107.460216 
L 832.424046 110.816466 
Q 832.424046 130.816466 852.424046 130.816466 
z
" style="fill: #ffffff; stroke: #d9d9d9; stroke-width: 1.8; stroke-linejoin: miter"/>
    </g>
    <text style="font-weight: 500; font-size: 20px; font-family: 'DejaVu Sans', 'Bitstream Vera Sans', 'Computer Modern Sans Serif', 'Lucida Grande', 'Verdana', 'Geneva', 'Lucid', 'Arial', 'Helvetica', 'Avant Garde', sans-serif; text-anchor: middle; fill: #10302c" x="866.689671" y="114.657091" transform="rotate(-0 866.689671 114.657091)">7.13</text>
   </g>
   <g id="legend_1">
    <g id="patch_7">
     <path d="M 290.675 31.196875 
L 330.675 31.196875 
L 330.675 17.196875 
L 290.675 17.196875 
z
" style="fill: #215f53"/>
    </g>
    <g id="text_29">
     <text style="font-weight: 500; font-size: 20px; font-family: 'DejaVu Sans', 'Bitstream Vera Sans', 'Computer Modern Sans Serif', 'Lucida Grande', 'Verdana', 'Geneva', 'Lucid', 'Arial', 'Helvetica', 'Avant Garde', sans-serif; text-anchor: start" x="346.675" y="31.196875" transform="rotate(-0 346.675 31.196875)">Comisiones</text>
    </g>
    <g id="patch_8">
     <path d="M 501.528125 31.196875 
L 541.528125 31.196875 
L 541.528125 17.196875 
L 501.528125 17.196875 
z
" style="fill: #7570b3"/>
    </g>
    <g id="text_30">
     <text style="font-weight: 500; font-size: 20px; font-family: 'DejaVu Sans', 'Bitstream Vera Sans', 'Computer Modern Sans Serif', 'Lucida Grande', 'Verdana', 'Geneva', 'Lucid', 'Arial', 'Helvetica', 'Avant Garde', sans-serif; text-anchor: start" x="557.528125" y="31.196875" transform="rotate(-0 557.528125 31.196875)">Fiscalas y Procuraduras</text>
    </g>
    <g id="patch_9">
     <path d="M 842.840625 31.196875 
L 882.840625 31.196875 
L 882.840625 17.196875 
L 842.840625 17.196875 
z
" style="fill: #c7eae5"/>
    </g>
    <g id="text_31">
     <text style="font-weight: 500; font-size: 20px; font-family: 'DejaVu Sans', 'Bitstream Vera Sans', 'Computer Modern Sans Serif', 'Lucida Grande', 'Verdana', 'Geneva', 'Lucid', 'Arial', 'Helvetica', 'Avant Garde', sans-serif; text-anchor: start" x="898.840625" y="31.196875" transform="rotate(-0 898.840625 31.196875)">Portal</text>
    </g>
   </g>
  </g>
 </g>
 <defs>
  <clipPath id="p5ff24138eb">
   <rect x="110.04125" y="40.464512" width="1026.88" height="360.5376"/>
  </clipPath>
 </defs>
</svg>
