<svg xmlns="http://www.w3.org/2000/svg" xmlns:xlink="http://www.w3.org/1999/xlink" width="871.15pt" height="758.16" viewBox="0 0 871.15 568.62"><defs><style>*{stroke-linejoin:round;stroke-linecap:butt}</style></defs><path fill="#fff" d="M0 568.62h871.15V0H0z"/><path fill="#fff" d="M75.329 420.14h788.62V7.2H75.329z"/><path fill="#215f53" d="M108.19 142v278.14h722.892V193.07l-2.417 12.865-2.418 11.805-2.418 10.778-2.418 9.784-2.417 8.823-2.418 7.893-2.418 6.998-2.417 6.133-2.418 5.303-2.418 4.504-2.417 3.738-2.418 3.005-2.418 2.305-2.418 1.637-2.417 1.002-2.418.399-2.418-.171-2.417-.708-2.418-1.213-2.418-1.684-2.417-2.124-2.418-2.531-2.418-2.905-2.418-3.246-2.417-3.555-2.418-3.831-2.418-4.075-2.417-4.285-2.418-4.464-2.418-4.61-2.417-4.721-2.418-4.803-2.418-4.85-2.418-4.865-2.417-4.847-2.418-4.797-2.418-4.714-2.417-4.599-2.418-4.45-2.418-4.27-2.417-4.056-2.418-3.81-2.418-3.53-2.418-3.22-2.417-2.876-2.418-2.499-2.418-2.09-2.417-1.647-2.418-1.173-2.418-.665-2.417-.126-2.418.447-2.418 1.052-2.418 1.69-2.417 2.357-2.418 3.006-2.418 3.605-2.417 4.152-2.418 4.648-2.418 5.093-2.417 5.487-2.418 5.83-2.418 6.121-2.417 6.362-2.418 6.55-2.418 6.689-2.418 6.775-2.417 6.81-2.418 6.796-2.418 6.728-2.417 6.61-2.418 6.44-2.418 6.221-2.417 5.949-2.418 5.626-2.418 5.252-2.418 4.826-2.417 4.35-2.418 3.823-2.418 3.244-2.417 2.614-2.418 1.934-2.418 1.247-2.417.6-2.418-.004-2.418-.567-2.418-1.086-2.417-1.563-2.418-1.997-2.418-2.388-2.417-2.738-2.418-3.044-2.418-3.308-2.417-3.53-2.418-3.707-2.418-3.844-2.418-3.937-2.417-3.989-2.418-3.996-2.418-3.963-2.417-3.885-2.418-3.767-2.418-3.604-2.417-3.4-2.418-3.151-2.418-2.863-2.418-2.53-2.417-2.155-2.418-1.738-2.418-1.304-2.417-.898-2.418-.528-2.418-.19-2.417.111-2.418.38-2.418.616-2.418.816-2.417.981-2.418 1.114-2.418 1.212-2.417 1.276-2.418 1.305-2.418 1.302-2.417 1.262-2.418 1.19-2.418 1.084-2.418.943-2.417.768-2.418.558-2.418.316-2.417.038-2.418-.273-2.418-.62-2.417-.997-2.418-1.413-2.418-1.86-2.418-2.324-2.417-2.748-2.418-3.124-2.418-3.448-2.417-3.724-2.418-3.949-2.418-4.125-2.417-4.25-2.418-4.327-2.418-4.353-2.418-4.33-2.417-4.257-2.418-4.133-2.418-3.96-2.417-3.739-2.418-3.466-2.418-3.143-2.417-2.772-2.418-2.35-2.418-1.878-2.418-1.357-2.417-.786-2.418-.166-2.418.506-2.417 1.226-2.418 1.996-2.418 2.816-2.417 3.671-2.418 4.484-2.418 5.227-2.418 5.905-2.417 6.512-2.418 7.052-2.418 7.525-2.417 7.928-2.418 8.265-2.418 8.532-2.417 8.732-2.418 8.864-2.418 8.927-2.418 8.923-2.417 8.85-2.418 8.71-2.418 8.502-2.417 8.225-2.418 7.88-2.418 7.466-2.417 6.986-2.418 6.437-2.418 5.82-2.418 5.135-2.417 4.381-2.418 3.56-2.418 2.672-2.417 1.72-2.418.783-2.418-.106-2.417-.943-2.418-1.73-2.418-2.465-2.418-3.15-2.417-3.785-2.418-4.368-2.418-4.9-2.417-5.382-2.418-5.813-2.418-6.193-2.417-6.522-2.418-6.8-2.418-7.028-2.418-7.205-2.417-7.33-2.418-7.407-2.418-7.43-2.417-7.404-2.418-7.326-2.418-7.198-2.417-7.02-2.418-6.789-2.418-6.509-2.418-6.177-2.417-5.797-2.418-5.394-2.418-4.994-2.417-4.6-2.418-4.206-2.418-3.818-2.417-3.434-2.418-3.053-2.418-2.677-2.418-2.302-2.417-1.933-2.418-1.568-2.418-1.205-2.417-.847-2.418-.493-2.418-.141-2.418.205-2.417.55-2.418.888-2.418 1.224-2.417 1.556-2.418 1.885-2.418 2.21-2.417 2.53-2.418 2.847-2.418 3.16-2.418 3.47-2.417 3.776-2.418 4.068-2.418 4.334-2.417 4.573-2.418 4.783-2.418 4.966-2.417 5.122-2.418 5.25-2.418 5.35-2.418 5.423-2.417 5.469-2.418 5.486-2.418 5.476-2.417 5.439-2.418 5.374-2.418 5.281-2.417 5.161-2.418 5.013-2.418 4.839-2.418 4.635-2.417 4.405-2.418 4.146-2.418 3.862-2.417 3.548-2.418 3.207-2.418 2.839-2.417 2.443-2.418 2.02-2.418 1.568-2.418 1.09-2.417.584-2.418.05-2.418-.51-2.417-1.1-2.418-1.717-2.418-2.36-2.417-3.033-2.418-3.731-2.418-4.458-2.418-5.212-2.417-5.994-2.418-6.804-2.418-7.64-2.417-8.506-2.418-9.398-2.418-10.317-2.417-11.265-2.418-12.239-2.418-13.242-2.418-14.272-2.417-15.33-2.418-16.415-2.418-17.528-2.417-18.668-2.418-19.836z" clip-path="url(#a)"/><path fill="#7570b3" d="M108.19 129.03v12.973l2.418 19.836 2.417 18.668 2.418 17.528 2.418 16.415 2.417 15.33 2.418 14.272 2.418 13.242 2.418 12.239 2.417 11.265 2.418 10.317 2.418 9.397 2.417 8.506 2.418 7.64 2.418 6.804 2.417 5.994 2.418 5.213 2.418 4.458 2.418 3.731 2.417 3.032 2.418 2.36 2.418 1.717 2.417 1.1 2.418.511 2.418-.05 2.417-.584 2.418-1.09 2.418-1.569 2.418-2.02 2.417-2.442 2.418-2.84 2.418-3.207 2.417-3.548 2.418-3.86 2.418-4.148 2.417-4.405 2.418-4.635 2.418-4.838 2.418-5.013 2.417-5.161 2.418-5.282 2.418-5.373 2.417-5.44 2.418-5.476 2.418-5.486 2.417-5.468 2.418-5.423 2.418-5.35 2.418-5.25 2.417-5.122 2.418-4.966 2.418-4.783 2.417-4.573 2.418-4.334 2.418-4.068 2.417-3.776 2.418-3.47 2.418-3.16 2.418-2.848 2.417-2.53 2.418-2.21 2.418-1.884 2.417-1.556 2.418-1.225 2.418-.888 2.417-.549 2.418-.205 2.418.141 2.418.493 2.417.847 2.418 1.205 2.418 1.567 2.417 1.933 2.418 2.303 2.418 2.676 2.418 3.053 2.417 3.434 2.418 3.819 2.418 4.207 2.417 4.598 2.418 4.995 2.418 5.394 2.417 5.797 2.418 6.177 2.418 6.509 2.418 6.79 2.417 7.019 2.418 7.198 2.418 7.326 2.417 7.404 2.418 7.43 2.418 7.406 2.417 7.33 2.418 7.205 2.418 7.029 2.418 6.8 2.417 6.522 2.418 6.193 2.418 5.813 2.417 5.382 2.418 4.9 2.418 4.368 2.417 3.784 2.418 3.15 2.418 2.466 2.418 1.73 2.417.943 2.418.106 2.418-.783 2.417-1.72 2.418-2.672 2.418-3.56 2.417-4.381 2.418-5.135 2.418-5.82 2.418-6.437 2.417-6.986 2.418-7.467 2.418-7.88 2.417-8.224 2.418-8.502 2.418-8.71 2.417-8.85 2.418-8.923 2.418-8.927 2.418-8.864 2.417-8.732 2.418-8.533 2.418-8.264 2.417-7.928 2.418-7.525 2.418-7.052 2.417-6.513 2.418-5.904 2.418-5.228 2.418-4.483 2.417-3.671 2.418-2.816 2.418-1.996 2.417-1.226 2.418-.506 2.418.165 2.417.786 2.418 1.357 2.418 1.879 2.418 2.35 2.417 2.771 2.418 3.144 2.418 3.466 2.417 3.738 2.418 3.96 2.418 4.134 2.417 4.256 2.418 4.33 2.418 4.353 2.418 4.327 2.417 4.25 2.418 4.126 2.418 3.949 2.417 3.723 2.418 3.449 2.418 3.123 2.417 2.749 2.418 2.324 2.418 1.86 2.418 1.412 2.417.999 2.418.618 2.418.274 2.417-.039 2.418-.315 2.418-.559 2.417-.767 2.418-.943 2.418-1.084 2.418-1.19 2.417-1.263 2.418-1.3 2.418-1.306 2.417-1.276 2.418-1.212 2.418-1.114 2.417-.982 2.418-.815 2.418-.615 2.418-.381 2.417-.112 2.418.19 2.418.528 2.417.899 2.418 1.303 2.418 1.738 2.417 2.156 2.418 2.53 2.418 2.862 2.418 3.153 2.417 3.399 2.418 3.604 2.418 3.766 2.417 3.886 2.418 3.962 2.418 3.997 2.417 3.988 2.418 3.938 2.418 3.844 2.418 3.708 2.417 3.529 2.418 3.308 2.418 3.044 2.417 2.737 2.418 2.389 2.418 1.997 2.417 1.563 2.418 1.086 2.418.566 2.418.005 2.417-.6 2.418-1.247 2.418-1.934 2.417-2.614 2.418-3.244 2.418-3.823 2.417-4.35 2.418-4.827 2.418-5.251 2.418-5.626 2.417-5.95 2.418-6.22 2.418-6.44 2.417-6.61 2.418-6.728 2.418-6.795 2.417-6.811 2.418-6.775 2.418-6.689 2.418-6.55 2.417-6.362 2.418-6.121 2.418-5.83 2.417-5.487 2.418-5.093 2.418-4.649 2.417-4.152 2.418-3.604 2.418-3.006 2.417-2.357 2.418-1.69 2.418-1.052 2.418-.447 2.417.125 2.418.666 2.418 1.173 2.417 1.647 2.418 2.09 2.418 2.499 2.417 2.875 2.418 3.22 2.418 3.53 2.418 3.81 2.417 4.057 2.418 4.27 2.418 4.45 2.417 4.598 2.418 4.714 2.418 4.798 2.417 4.847 2.418 4.865 2.418 4.85 2.418 4.802 2.417 4.723 2.418 4.609 2.418 4.463 2.417 4.286 2.418 4.074 2.418 3.832 2.417 3.555 2.418 3.246 2.418 2.905 2.418 2.53 2.417 2.124 2.418 1.685 2.418 1.213 2.417.708 2.418.17 2.418-.399 2.417-1.001 2.418-1.637 2.418-2.305 2.418-3.005 2.417-3.738 2.418-4.505 2.418-5.302 2.417-6.134 2.418-6.997 2.418-7.894 2.417-8.822 2.418-9.784 2.418-10.778 2.418-11.805 2.417-12.865v-54.736l-2.417 1.323-2.418 1.158-2.418.997-2.418.84-2.417.686-2.418.537-2.418.391-2.417.25-2.418.112-2.418-.022-2.417-.152-2.418-.278-2.418-.4-2.418-.52-2.417-.633-2.418-.744-2.418-.85-2.417-.954-2.418-1.053-2.418-1.147-2.417-1.24-2.418-1.326-2.418-1.41-2.418-1.49-2.417-1.565-2.418-1.637-2.418-1.706-2.417-1.77-2.418-1.829-2.418-1.886-2.417-1.938-2.418-1.987-2.418-2.032-2.418-2.073-2.417-2.11-2.418-2.142-2.418-2.172-2.417-2.198-2.418-2.218-2.418-2.237-2.417-2.25-2.418-2.26-2.418-2.266-2.418-2.268-2.417-2.266-2.418-2.26-2.418-2.251-2.417-2.238-2.418-2.22-2.418-2.2-2.417-2.173-2.418-2.145-2.418-2.112-2.418-2.076-2.417-2.035-2.418-1.99-2.418-1.938-2.417-1.882-2.418-1.821-2.418-1.754-2.417-1.681-2.418-1.603-2.418-1.52-2.417-1.432-2.418-1.337-2.418-1.238-2.418-1.133-2.417-1.023-2.418-.907-2.418-.786-2.417-.66-2.418-.527-2.418-.39-2.417-.248-2.418-.1-2.418.055-2.418.213-2.417.377-2.418.548-2.418.722-2.417.903-2.418 1.089-2.418 1.274-2.417 1.454-2.418 1.628-2.418 1.795-2.418 1.957-2.417 2.11-2.418 2.26-2.418 2.402-2.417 2.539-2.418 2.668-2.418 2.791-2.417 2.91-2.418 3.02-2.418 3.125-2.418 3.224-2.417 3.316-2.418 3.402-2.418 3.482-2.417 3.556-2.418 3.623-2.418 3.684-2.417 3.74-2.418 3.788-2.418 3.83-2.418 3.867-2.417 3.896-2.418 3.92-2.418 3.933-2.417 3.927-2.418 3.9-2.418 3.855-2.417 3.789-2.418 3.702-2.418 3.597-2.418 3.47-2.417 3.325-2.418 3.159-2.418 2.973-2.417 2.768-2.418 2.542-2.418 2.297-2.417 2.031-2.418 1.746-2.418 1.44-2.418 1.116-2.417.77-2.418.405-2.418.02-2.417-.386-2.418-.81-2.418-1.255-2.417-1.72-2.418-2.205-2.418-2.71-2.418-3.22-2.417-3.698-2.418-4.132-2.418-4.523-2.417-4.873-2.418-5.18-2.418-5.444-2.417-5.667-2.418-5.846-2.418-5.984-2.418-6.08-2.417-6.13-2.418-6.143-2.418-6.11-2.417-6.034-2.418-5.918-2.418-5.759-2.417-5.557-2.418-5.313-2.418-5.026-2.418-4.697-2.417-4.326-2.418-3.912-2.418-3.456-2.417-2.958-2.418-2.416-2.418-1.833-2.417-1.218-2.418-.624-2.418-.069-2.418.446-2.417.922-2.418 1.359-2.418 1.756-2.417 2.114-2.418 2.433-2.418 2.712-2.417 2.952-2.418 3.153-2.418 3.314-2.418 3.436-2.417 3.52-2.418 3.562-2.418 3.567-2.417 3.532-2.418 3.458-2.418 3.344-2.417 3.19-2.418 2.999-2.418 2.767-2.418 2.495-2.417 2.186-2.418 1.836-2.418 1.447-2.417 1.023-2.418.605-2.418.216-2.417-.145-2.418-.477-2.418-.78-2.418-1.056-2.417-1.302-2.418-1.52-2.418-1.708-2.417-1.868-2.418-2-2.418-2.103-2.417-2.178-2.418-2.223-2.418-2.24-2.418-2.23-2.417-2.188-2.418-2.12-2.418-2.021-2.417-1.896-2.418-1.741-2.418-1.558-2.417-1.345-2.418-1.105-2.418-.835-2.418-.537-2.417-.212-2.418.118-2.418.433-2.417.73-2.418 1.013-2.418 1.278-2.417 1.526-2.418 1.759-2.418 1.974-2.418 2.175-2.417 2.357-2.418 2.524-2.418 2.675-2.417 2.809-2.418 2.926-2.418 3.028-2.418 3.112-2.417 3.181-2.418 3.233-2.418 3.268-2.417 3.288-2.418 3.29-2.418 3.278-2.417 3.247-2.418 3.2-2.418 3.139-2.418 3.059-2.417 2.963-2.418 2.858-2.418 2.752-2.417 2.645-2.418 2.539-2.418 2.431-2.417 2.324-2.418 2.217-2.418 2.108-2.418 2-2.417 1.893-2.418 1.783-2.418 1.675-2.417 1.565-2.418 1.456-2.418 1.347-2.417 1.237-2.418 1.126-2.418 1.016-2.418.906-2.417.794-2.418.683-2.418.572-2.417.46-2.418.349-2.418.236-2.417.124-2.418.01-2.418-.102-2.418-.215-2.417-.328-2.418-.443-2.418-.556-2.417-.67-2.418-.786-2.418-.9-2.417-1.015-2.418-1.13-2.418-1.245-2.418-1.362-2.417-1.477-2.418-1.594-2.418-1.71-2.417-1.827-2.418-1.944-2.418-2.062-2.417-2.179-2.418-2.296-2.418-2.415-2.418-2.533-2.417-2.652-2.418-2.77-2.418-2.89-2.417-3.009-2.418-3.129z" clip-path="url(#a)"/><path fill="#c7eae5" d="M108.19 26.864v102.16l2.418 3.129 2.417 3.009 2.418 2.89 2.418 2.77 2.417 2.651 2.418 2.533 2.418 2.415 2.418 2.297 2.417 2.179 2.418 2.061 2.418 1.944 2.417 1.827 2.418 1.71 2.418 1.594 2.417 1.478 2.418 1.361 2.418 1.246 2.418 1.13 2.417 1.015 2.418.9 2.418.785 2.417.67 2.418.557 2.418.442 2.417.329 2.418.215 2.418.102 2.418-.01 2.417-.125 2.418-.236 2.418-.348 2.417-.46 2.418-.572 2.418-.683 2.417-.795 2.418-.905 2.418-1.016 2.418-1.127 2.417-1.237 2.418-1.346 2.418-1.456 2.417-1.566 2.418-1.674 2.418-1.784 2.417-1.892 2.418-2 2.418-2.109 2.418-2.216 2.417-2.324 2.418-2.432 2.418-2.538 2.417-2.645 2.418-2.752 2.418-2.858 2.417-2.964 2.418-3.059 2.418-3.138 2.418-3.2 2.417-3.248 2.418-3.277 2.418-3.29 2.417-3.288 2.418-3.269 2.418-3.233 2.417-3.18 2.418-3.113 2.418-3.027 2.418-2.927 2.417-2.808 2.418-2.675 2.418-2.524 2.417-2.358 2.418-2.174 2.418-1.975 2.418-1.759 2.417-1.526 2.418-1.277 2.418-1.013 2.417-.73 2.418-.433 2.418-.118 2.417.211 2.418.538 2.418.835 2.418 1.105 2.417 1.345 2.418 1.558 2.418 1.74 2.417 1.896 2.418 2.022 2.418 2.12 2.417 2.188 2.418 2.23 2.418 2.24 2.418 2.223 2.417 2.177 2.418 2.103 2.418 2 2.417 1.869 2.418 1.708 2.418 1.52 2.417 1.301 2.418 1.056 2.418.78 2.418.478 2.417.145 2.418-.216 2.418-.606 2.417-1.023 2.418-1.447 2.418-1.836 2.417-2.185 2.418-2.496 2.418-2.767 2.418-2.998 2.417-3.19 2.418-3.345 2.418-3.457 2.417-3.532 2.418-3.567 2.418-3.563 2.417-3.52 2.418-3.436 2.418-3.314 2.418-3.153 2.417-2.952 2.418-2.712 2.418-2.433 2.417-2.114 2.418-1.756 2.418-1.358 2.417-.922 2.418-.446 2.418.069 2.418.624 2.417 1.217 2.418 1.833 2.418 2.417 2.417 2.957 2.418 3.456 2.418 3.912 2.417 4.326 2.418 4.697 2.418 5.027 2.418 5.312 2.417 5.557 2.418 5.76 2.418 5.917 2.417 6.035 2.418 6.11 2.418 6.142 2.417 6.131 2.418 6.08 2.418 5.983 2.418 5.847 2.417 5.666 2.418 5.445 2.418 5.18 2.417 4.873 2.418 4.523 2.418 4.132 2.417 3.697 2.418 3.22 2.418 2.71 2.418 2.205 2.417 1.72 2.418 1.255 2.418.81 2.417.386 2.418-.02 2.418-.405 2.417-.77 2.418-1.115 2.418-1.44 2.418-1.746 2.417-2.031 2.418-2.297 2.418-2.542 2.417-2.768 2.418-2.973 2.418-3.16 2.417-3.324 2.418-3.471 2.418-3.596 2.418-3.703 2.417-3.788 2.418-3.855 2.418-3.9 2.417-3.927 2.418-3.933 2.418-3.92 2.417-3.897 2.418-3.866 2.418-3.83 2.418-3.789 2.417-3.74 2.418-3.684 2.418-3.623 2.417-3.556 2.418-3.482 2.418-3.402 2.417-3.316 2.418-3.224 2.418-3.125 2.418-3.02 2.417-2.91 2.418-2.79 2.418-2.669 2.417-2.538 2.418-2.402 2.418-2.26 2.417-2.111 2.418-1.956 2.418-1.795 2.418-1.628 2.417-1.455 2.418-1.274 2.418-1.089 2.417-.903 2.418-.722 2.418-.547 2.417-.377 2.418-.214 2.418-.054 2.418.1 2.417.247 2.418.39 2.418.528 2.417.66 2.418.785 2.418.907 2.417 1.023 2.418 1.133 2.418 1.238 2.418 1.338 2.417 1.431 2.418 1.52 2.418 1.604 2.417 1.68 2.418 1.755 2.418 1.82 2.417 1.883 2.418 1.938 2.418 1.99 2.417 2.035 2.418 2.075 2.418 2.112 2.418 2.145 2.417 2.174 2.418 2.2 2.418 2.22 2.417 2.237 2.418 2.251 2.418 2.26 2.417 2.267 2.418 2.268 2.418 2.266 2.418 2.26 2.417 2.25 2.418 2.236 2.418 2.219 2.417 2.197 2.418 2.172 2.418 2.143 2.417 2.11 2.418 2.072 2.418 2.032 2.418 1.987 2.417 1.939 2.418 1.886 2.418 1.83 2.417 1.769 2.418 1.705 2.418 1.637 2.417 1.566 2.418 1.49 2.418 1.41 2.418 1.326 2.417 1.239 2.418 1.148 2.418 1.053 2.417.953 2.418.851 2.418.744 2.417.633 2.418.52 2.418.4 2.418.278 2.417.152 2.418.022 2.418-.112 2.417-.25 2.418-.392 2.418-.537 2.417-.686 2.418-.84 2.418-.997 2.418-1.158 2.417-1.323V26.861H108.19z" clip-path="url(#a)"/><path fill="none" stroke="#fff" stroke-linecap="square" stroke-opacity=".3" stroke-width=".75" d="M108.19 420.14V7.2" clip-path="url(#a)"/><defs><path id="b" stroke="#000" stroke-width=".8" d="M0 0v3.5"/></defs><use xlink:href="#b" x="108.188" y="420.14" stroke="#000" stroke-width=".8"/><text fill="#767676" font-family="'Montserrat'" font-size="24" font-weight="600" transform="rotate(-90 334.51 219.75)">01-01-2023</text><path fill="none" stroke="#fff" stroke-linecap="square" stroke-opacity=".3" stroke-width=".75" d="M173.91 420.14V7.2" clip-path="url(#a)"/><use xlink:href="#b" x="173.906" y="420.14" stroke="#000" stroke-width=".8"/><text fill="#767676" font-family="'Montserrat'" font-size="24" font-weight="600" transform="rotate(-90 369.785 189.305)">01-02-2023</text><path fill="none" stroke="#fff" stroke-linecap="square" stroke-opacity=".3" stroke-width=".75" d="M239.62 420.14V7.2" clip-path="url(#a)"/><use xlink:href="#b" x="239.624" y="420.14" stroke="#000" stroke-width=".8"/><text fill="#767676" font-family="'Montserrat'" font-size="24" font-weight="600" transform="rotate(-90 402.645 156.445)">01-03-2023</text><path fill="none" stroke="#fff" stroke-linecap="square" stroke-opacity=".3" stroke-width=".75" d="M305.34 420.14V7.2" clip-path="url(#a)"/><use xlink:href="#b" x="305.342" y="420.14" stroke="#000" stroke-width=".8"/><text fill="#767676" font-family="'Montserrat'" font-size="24" font-weight="600" transform="rotate(-90 436.67 124.75)">01-04-2023</text><path fill="none" stroke="#fff" stroke-linecap="square" stroke-opacity=".3" stroke-width=".75" d="M371.06 420.14V7.2" clip-path="url(#a)"/><use xlink:href="#b" x="371.06" y="420.14" stroke="#000" stroke-width=".8"/><text fill="#767676" font-family="'Montserrat'" font-size="24" font-weight="600" transform="rotate(-90 468.39 90.75)">01-05-2023</text><path fill="none" stroke="#fff" stroke-linecap="square" stroke-opacity=".3" stroke-width=".75" d="M436.78 420.14V7.2" clip-path="url(#a)"/><use xlink:href="#b" x="436.778" y="420.14" stroke="#000" stroke-width=".8"/><text fill="#767676" font-family="'Montserrat'" font-size="24" font-weight="600" transform="rotate(-90 501.76 58.41)">01-06-2023</text><path fill="none" stroke="#fff" stroke-linecap="square" stroke-opacity=".3" stroke-width=".75" d="M502.5 420.14V7.2" clip-path="url(#a)"/><use xlink:href="#b" x="502.497" y="420.14" stroke="#000" stroke-width=".8"/><text fill="#767676" font-family="'Montserrat'" font-size="24" font-weight="600" transform="rotate(-90 534.39 25.32)">01-07-2023</text><path fill="none" stroke="#fff" stroke-linecap="square" stroke-opacity=".3" stroke-width=".75" d="M568.21 420.14V7.2" clip-path="url(#a)"/><use xlink:href="#b" x="568.215" y="420.14" stroke="#000" stroke-width=".8"/><text fill="#767676" font-family="'Montserrat'" font-size="24" font-weight="600" transform="rotate(-90 567.78 -7.01)">01-08-2023</text><path fill="none" stroke="#fff" stroke-linecap="square" stroke-opacity=".3" stroke-width=".75" d="M633.93 420.14V7.2" clip-path="url(#a)"/><use xlink:href="#b" x="633.933" y="420.14" stroke="#000" stroke-width=".8"/><text fill="#767676" font-family="'Montserrat'" font-size="24" font-weight="600" transform="rotate(-90 600.34 -40.17)">01-09-2023</text><path fill="none" stroke="#fff" stroke-linecap="square" stroke-opacity=".3" stroke-width=".75" d="M699.65 420.14V7.2" clip-path="url(#a)"/><use xlink:href="#b" x="699.651" y="420.14" stroke="#000" stroke-width=".8"/><text fill="#767676" font-family="'Montserrat'" font-size="24" font-weight="600" transform="rotate(-90 630.245 -75.985)">01-10-2023</text><path fill="none" stroke="#fff" stroke-linecap="square" stroke-opacity=".3" stroke-width=".75" d="M765.37 420.14V7.2" clip-path="url(#a)"/><use xlink:href="#b" x="765.369" y="420.14" stroke="#000" stroke-width=".8"/><text fill="#767676" font-family="'Montserrat'" font-size="24" font-weight="600" transform="rotate(-90 659.6 -112.34)">01-11-2023</text><path fill="none" stroke="#fff" stroke-linecap="square" stroke-opacity=".3" stroke-width=".75" d="M831.09 420.14V7.2" clip-path="url(#a)"/><use xlink:href="#b" x="831.087" y="420.14" stroke="#000" stroke-width=".8"/><text fill="#767676" font-family="'Montserrat'" font-size="24" font-weight="600" transform="rotate(-90 694.87 -142.79)">01-12-2023</text><path fill="none" stroke="#fff" stroke-linecap="square" stroke-opacity=".8" stroke-width="1.25" d="M75.329 420.14h788.62" clip-path="url(#a)"/><defs><path id="c" stroke="#000" stroke-width=".8" d="M0 0h-3.5"/></defs><use xlink:href="#c" x="75.329" y="420.14" stroke="#000" stroke-width=".8"/><text x="68.329" y="429.044" fill="#767676" font-family="'Montserrat'" font-size="24" font-weight="500" text-anchor="end">0%</text><path fill="none" stroke="#fff" stroke-linecap="square" stroke-opacity=".8" stroke-width="1.25" d="M75.329 321.82h788.62" clip-path="url(#a)"/><use xlink:href="#c" x="75.329" y="321.821" stroke="#000" stroke-width=".8"/><text x="68.329" y="330.725" fill="#767676" font-family="'Montserrat'" font-size="24" font-weight="500" text-anchor="end">25%</text><path fill="none" stroke="#fff" stroke-linecap="square" stroke-opacity=".8" stroke-width="1.25" d="M75.329 223.5h788.62" clip-path="url(#a)"/><use xlink:href="#c" x="75.329" y="223.502" stroke="#000" stroke-width=".8"/><text x="68.329" y="232.406" fill="#767676" font-family="'Montserrat'" font-size="24" font-weight="500" text-anchor="end">50%</text><path fill="none" stroke="#fff" stroke-linecap="square" stroke-opacity=".8" stroke-width="1.25" d="M75.329 125.18h788.62" clip-path="url(#a)"/><use xlink:href="#c" x="75.329" y="125.183" stroke="#000" stroke-width=".8"/><text x="68.329" y="134.087" fill="#767676" font-family="'Montserrat'" font-size="24" font-weight="500" text-anchor="end">75%</text><path fill="none" stroke="#fff" stroke-linecap="square" stroke-opacity=".8" stroke-width="1.25" d="M75.329 26.864h788.62" clip-path="url(#a)"/><use xlink:href="#c" x="75.329" y="26.864" stroke="#000" stroke-width=".8"/><text x="68.329" y="35.768" fill="#767676" font-family="'Montserrat'" font-size="24" font-weight="500" text-anchor="end">100%</text><path fill="none" stroke="#000" stroke-linecap="square" stroke-width="2" d="M75.329 420.14h788.62"/><path fill="#fff" stroke="#215f53" stroke-width="1.8" d="M164.47 382.51h18.862q20 0 20-20v-2.722q0-20-20-20H164.47q-20 0-20 20v2.722q0 20 20 20z"/><text x="173.906" y="366.628" fill="#767676" font-family="'Montserrat'" font-size="20" font-weight="500" text-anchor="middle">5.13</text><path fill="#fff" stroke="#7570b3" stroke-width="1.8" d="M459.26 244.86h20.762q20 0 20-20v-2.722q0-20-20-20H459.26q-20 0-20 20v2.722q0 20 20 20z"/><text x="469.637" y="228.982" fill="#767676" font-family="'Montserrat'" font-size="20" font-weight="500" text-anchor="middle">4.31</text><path fill="#fff" stroke="#c7eae5" stroke-width="1.8" d="M753.45 107.22h23.844q20 0 20-20v-2.722q0-20-20-20H753.45q-20 0-20 20v2.722q0 20 20 20z"/><text x="765.369" y="91.335" fill="#767676" font-family="'Montserrat'" font-size="20" font-weight="500" text-anchor="middle">2.56</text><defs><clipPath id="a"><path d="M75.329 7.2h788.62v412.94H75.329z"/></clipPath></defs></svg>