<?xml version="1.0" encoding="UTF-8"?>
<!DOCTYPE svg  PUBLIC '-//W3C//DTD SVG 1.1//EN'  'http://www.w3.org/Graphics/SVG/1.1/DTD/svg11.dtd'>
<svg width="871.15pt" height="568.62pt" version="1.1" viewBox="0 0 871.15 568.62" xmlns="http://www.w3.org/2000/svg" xmlns:xlink="http://www.w3.org/1999/xlink">
 <defs>
  <style type="text/css">*{stroke-linejoin: round; stroke-linecap: butt}</style>
 </defs>
 <path d="m0 568.62h871.15v-568.62h-871.15z" fill="#fff"/>
 <path d="m75.329 420.14h788.62v-412.94h-788.62z" fill="#fff"/>
 <path d="m108.19 142v278.14h2.4177 2.4177 2.4177 2.4177 2.4177 2.4177 2.4177 2.4177 2.4177 2.4177 2.4177 2.4177 2.4177 2.4177 2.4177 2.4177 2.4177 2.4177 2.4177 2.4177 2.4177 2.4177 2.4177 2.4177 2.4177 2.4177 2.4177 2.4177 2.4177 2.4177 2.4177 2.4177 2.4177 2.4177 2.4177 2.4177 2.4177 2.4177 2.4177 2.4177 2.4177 2.4177 2.4177 2.4177 2.4177 2.4177 2.4177 2.4177 2.4177 2.4177 2.4177 2.4177 2.4177 2.4177 2.4177 2.4177 2.4177 2.4177 2.4177 2.4177 2.4177 2.4177 2.4177 2.4177 2.4177 2.4177 2.4177 2.4177 2.4177 2.4177 2.4177 2.4177 2.4177 2.4177 2.4177 2.4177 2.4177 2.4177 2.4177 2.4177 2.4177 2.4177 2.4177 2.4177 2.4177 2.4177 2.4177 2.4177 2.4177 2.4177 2.4177 2.4177 2.4177 2.4177 2.4177 2.4177 2.4177 2.4177 2.4177 2.4177 2.4177 2.4177 2.4177 2.4177 2.4177 2.4177 2.4177 2.4177 2.4177 2.4177 2.4177 2.4177 2.4177 2.4177 2.4177 2.4177 2.4177 2.4177 2.4177 2.4177 2.4177 2.4177 2.4177 2.4177 2.4177 2.4177 2.4177 2.4177 2.4177 2.4177 2.4177 2.4177 2.4177 2.4177 2.4177 2.4177 2.4177 2.4177 2.4177 2.4177 2.4177 2.4177 2.4177 2.4177 2.4177 2.4177 2.4177 2.4177 2.4177 2.4177 2.4177 2.4177 2.4177 2.4177 2.4177 2.4177 2.4177 2.4177 2.4177 2.4177 2.4177 2.4177 2.4177 2.4177 2.4177 2.4177 2.4177 2.4177 2.4177 2.4177 2.4177 2.4177 2.4177 2.4177 2.4177 2.4177 2.4177 2.4177 2.4177 2.4177 2.4177 2.4177 2.4177 2.4177 2.4177 2.4177 2.4177 2.4177 2.4177 2.4177 2.4177 2.4177 2.4177 2.4177 2.4177 2.4177 2.4177 2.4177 2.4177 2.4177 2.4177 2.4177 2.4177 2.4177 2.4177 2.4177 2.4177 2.4177 2.4177 2.4177 2.4177 2.4177 2.4177 2.4177 2.4177 2.4177 2.4177 2.4177 2.4177 2.4177 2.4177 2.4177 2.4177 2.4177 2.4177 2.4177 2.4177 2.4177 2.4177 2.4177 2.4177 2.4177 2.4177 2.4177 2.4177 2.4177 2.4177 2.4177 2.4177 2.4177 2.4177 2.4177 2.4177 2.4177 2.4177 2.4177 2.4177 2.4177 2.4177 2.4177 2.4177 2.4177 2.4177 2.4177 2.4177 2.4177 2.4177 2.4177 2.4177 2.4177 2.4177 2.4177 2.4177 2.4177 2.4177 2.4177 2.4177 2.4177 2.4177 2.4177 2.4177 2.4177 2.4177 2.4177 2.4177 2.4177 2.4177 2.4177 2.4177 2.4177 2.4177 2.4177 2.4177 2.4177 2.4177 2.4177 2.4177 2.4177 2.4177 2.4177 2.4177 2.4177 2.4177 2.4177 2.4177 2.4177 2.4177 2.4177 2.4177v-227.07l-2.4177 12.865-2.4177 11.805-2.4177 10.778-2.4177 9.7842-2.4177 8.8226-2.4177 7.8936-2.4177 6.9973-2.4177 6.1336-2.4177 5.3025-2.4177 4.5041-2.4177 3.7383-2.4177 3.0052-2.4177 2.3047-2.4177 1.6369-2.4177 1.0017-2.4177 0.39912-2.4177-0.17079-2.4177-0.70806-2.4177-1.2127-2.4177-1.6847-2.4177-2.124-2.4177-2.5307-2.4177-2.9048-2.4177-3.2462-2.4177-3.555-2.4177-3.8311-2.4177-4.0746-2.4177-4.2854-2.4177-4.4637-2.4177-4.6092-2.4177-4.7221-2.4177-4.8024-2.4177-4.8501-2.4177-4.865-2.4177-4.8474-2.4177-4.7971-2.4177-4.7142-2.4177-4.5986-2.4177-4.4504-2.4177-4.2695-2.4177-4.056-2.4177-3.8099-2.4177-3.5311-2.4177-3.2196-2.4177-2.8756-2.4177-2.4989-2.4177-2.0895-2.4177-1.6475-2.4177-1.1728-2.4177-0.66556-2.4177-0.12563-2.4177 0.44694-2.4177 1.0522-2.4177 1.69-2.4177 2.3569-2.4177 3.006-2.4177 3.6046-2.4177 4.152-2.4177 4.6483-2.4177 5.0933-2.4177 5.4871-2.4177 5.8298-2.4177 6.1212-2.4177 6.3615-2.4177 6.5506-2.4177 6.6885-2.4177 6.7752-2.4177 6.8107-2.4177 6.795-2.4177 6.7281-2.4177 6.6101-2.4177 6.4408-2.4177 6.2204-2.4177 5.9487-2.4177 5.6259-2.4177 5.2519-2.4177 4.8267-2.4177 4.3503-2.4177 3.8227-2.4177 3.2439-2.4177 2.6139-2.4177 1.9342-2.4177 1.247-2.4177 0.5999-2.4177-0.004645-2.4177-0.56661-2.4177-1.086-2.4177-1.5628-2.4177-1.997-2.4177-2.3886-2.4177-2.7376-2.4177-3.0441-2.4177-3.3079-2.4177-3.5292-2.4177-3.7078-2.4177-3.8439-2.4177-3.9374-2.4177-3.9884-2.4177-3.9967-2.4177-3.9624-2.4177-3.8856-2.4177-3.7662-2.4177-3.6041-2.4177-3.3995-2.4177-3.1523-2.4177-2.8625-2.4177-2.5302-2.4177-2.1552-2.4177-1.7379-2.4177-1.3036-2.4177-0.89855-2.4177-0.52758-2.4177-0.19073-2.4177 0.11201-2.4177 0.38062-2.4177 0.61512-2.4177 0.81549-2.4177 0.98174-2.4177 1.1139-2.4177 1.2119-2.4177 1.2758-2.4177 1.3056-2.4177 1.3012-2.4177 1.2628-2.4177 1.1902-2.4177 1.0835-2.4177 0.94267-2.4177 0.76772-2.4177 0.55867-2.4177 0.31549-2.4177 0.038189-2.4177-0.27323-2.4177-0.61876-2.4177-0.99842-2.4177-1.4122-2.4177-1.8601-2.4177-2.324-2.4177-2.7486-2.4177-3.1234-2.4177-3.4484-2.4177-3.7237-2.4177-3.9491-2.4177-4.1248-2.4177-4.2507-2.4177-4.3268-2.4177-4.3532-2.4177-4.3297-2.4177-4.2565-2.4177-4.1335-2.4177-3.9607-2.4177-3.7381-2.4177-3.4657-2.4177-3.1436-2.4177-2.7716-2.4177-2.3499-2.4177-1.8784-2.4177-1.3571-2.4177-0.78604-2.4177-0.16518-2.4177 0.50546-2.4177 1.2259-2.4177 1.9961-2.4177 2.8161-2.4177 3.6711-2.4177 4.4835-2.4177 5.2278-2.4177 5.9041-2.4177 6.5123-2.4177 7.0525-2.4177 7.5245-2.4177 7.9285-2.4177 8.2644-2.4177 8.5323-2.4177 8.7321-2.4177 8.8638-2.4177 8.9274-2.4177 8.923-2.4177 8.8505-2.4177 8.7099-2.4177 8.5013-2.4177 8.2245-2.4177 7.8798-2.4177 7.4669-2.4177 6.986-2.4177 6.437-2.4177 5.8199-2.4177 5.1348-2.4177 4.3815-2.4177 3.5603-2.4177 2.6709-2.4177 1.7211-2.4177 0.78247-2.4177-0.10574-2.4177-0.94314-2.4177-1.7297-2.4177-2.4655-2.4177-3.1504-2.4177-3.7845-2.4177-4.3678-2.4177-4.9003-2.4177-5.382-2.4177-5.8128-2.4177-6.1929-2.4177-6.5221-2.4177-6.8005-2.4177-7.0281-2.4177-7.2048-2.4177-7.3308-2.4177-7.4059-2.4177-7.4302-2.4177-7.4037-2.4177-7.3263-2.4177-7.1982-2.4177-7.0192-2.4177-6.7894-2.4177-6.5088-2.4177-6.1774-2.4177-5.7966-2.4177-5.3942-2.4177-4.9946-2.4177-4.5988-2.4177-4.2068-2.4177-3.8185-2.4177-3.4339-2.4177-3.0531-2.4177-2.6761-2.4177-2.3027-2.4177-1.9332-2.4177-1.5674-2.4177-1.2053-2.4177-0.84697-2.4177-0.4924-2.4177-0.14157-2.4177 0.20551-2.4177 0.54884-2.4177 0.88842-2.4177 1.2243-2.4177 1.5563-2.4177 1.8847-2.4177 2.2093-2.4177 2.5301-2.4177 2.8472-2.4177 3.1606-2.4177 3.4702-2.4177 3.7758-2.4177 4.0682-2.4177 4.3341-2.4177 4.5724-2.4177 4.7831-2.4177 4.9663-2.4177 5.1218-2.4177 5.2498-2.4177 5.3503-2.4177 5.4231-2.4177 5.4684-2.4177 5.4861-2.4177 5.4763-2.4177 5.4388-2.4177 5.3738-2.4177 5.2813-2.4177 5.1611-2.4177 5.0134-2.4177 4.8381-2.4177 4.6352-2.4177 4.4048-2.4177 4.1468-2.4177 3.8612-2.4177 3.548-2.4177 3.2073-2.4177 2.839-2.4177 2.4431-2.4177 2.0197-2.4177 1.5687-2.4177 1.0901-2.4177 0.58391-2.4177 0.050175-2.4177-0.51114-2.4177-1.1-2.4177-1.7165-2.4177-2.3605-2.4177-3.0321-2.4177-3.7313-2.4177-4.458-2.4177-5.2123-2.4177-5.9942-2.4177-6.8037-2.4177-7.6407-2.4177-8.5053-2.4177-9.3975-2.4177-10.317-2.4177-11.265-2.4177-12.239-2.4177-13.242-2.4177-14.272-2.4177-15.33-2.4177-16.415-2.4177-17.528-2.4177-18.668-2.4177-19.836z" clip-path="url(#a)" fill="#215f53"/>
 <path d="m108.19 129.03v12.973l2.4177 19.836 2.4177 18.668 2.4177 17.528 2.4177 16.415 2.4177 15.33 2.4177 14.272 2.4177 13.242 2.4177 12.239 2.4177 11.265 2.4177 10.317 2.4177 9.3975 2.4177 8.5053 2.4177 7.6407 2.4177 6.8037 2.4177 5.9942 2.4177 5.2123 2.4177 4.458 2.4177 3.7313 2.4177 3.0321 2.4177 2.3605 2.4177 1.7165 2.4177 1.1 2.4177 0.51114 2.4177-0.050175 2.4177-0.58391 2.4177-1.0901 2.4177-1.5687 2.4177-2.0197 2.4177-2.4431 2.4177-2.839 2.4177-3.2073 2.4177-3.548 2.4177-3.8612 2.4177-4.1468 2.4177-4.4048 2.4177-4.6352 2.4177-4.8381 2.4177-5.0134 2.4177-5.1611 2.4177-5.2813 2.4177-5.3738 2.4177-5.4388 2.4177-5.4763 2.4177-5.4861 2.4177-5.4684 2.4177-5.4231 2.4177-5.3503 2.4177-5.2498 2.4177-5.1218 2.4177-4.9663 2.4177-4.7831 2.4177-4.5724 2.4177-4.3341 2.4177-4.0682 2.4177-3.7758 2.4177-3.4702 2.4177-3.1606 2.4177-2.8472 2.4177-2.5301 2.4177-2.2093 2.4177-1.8847 2.4177-1.5563 2.4177-1.2243 2.4177-0.88842 2.4177-0.54884 2.4177-0.20551 2.4177 0.14157 2.4177 0.4924 2.4177 0.84697 2.4177 1.2053 2.4177 1.5674 2.4177 1.9332 2.4177 2.3027 2.4177 2.6761 2.4177 3.0531 2.4177 3.4339 2.4177 3.8185 2.4177 4.2068 2.4177 4.5988 2.4177 4.9946 2.4177 5.3942 2.4177 5.7966 2.4177 6.1774 2.4177 6.5088 2.4177 6.7894 2.4177 7.0192 2.4177 7.1982 2.4177 7.3263 2.4177 7.4037 2.4177 7.4302 2.4177 7.4059 2.4177 7.3308 2.4177 7.2048 2.4177 7.0281 2.4177 6.8005 2.4177 6.5221 2.4177 6.1929 2.4177 5.8128 2.4177 5.382 2.4177 4.9003 2.4177 4.3678 2.4177 3.7845 2.4177 3.1504 2.4177 2.4655 2.4177 1.7297 2.4177 0.94314 2.4177 0.10574 2.4177-0.78247 2.4177-1.7211 2.4177-2.6709 2.4177-3.5603 2.4177-4.3815 2.4177-5.1348 2.4177-5.8199 2.4177-6.437 2.4177-6.986 2.4177-7.4669 2.4177-7.8798 2.4177-8.2245 2.4177-8.5013 2.4177-8.7099 2.4177-8.8505 2.4177-8.923 2.4177-8.9274 2.4177-8.8638 2.4177-8.7321 2.4177-8.5323 2.4177-8.2644 2.4177-7.9285 2.4177-7.5245 2.4177-7.0525 2.4177-6.5123 2.4177-5.9041 2.4177-5.2278 2.4177-4.4835 2.4177-3.6711 2.4177-2.8161 2.4177-1.9961 2.4177-1.2259 2.4177-0.50546 2.4177 0.16518 2.4177 0.78604 2.4177 1.3571 2.4177 1.8784 2.4177 2.3499 2.4177 2.7716 2.4177 3.1436 2.4177 3.4657 2.4177 3.7381 2.4177 3.9607 2.4177 4.1335 2.4177 4.2565 2.4177 4.3297 2.4177 4.3532 2.4177 4.3268 2.4177 4.2507 2.4177 4.1248 2.4177 3.9491 2.4177 3.7237 2.4177 3.4484 2.4177 3.1234 2.4177 2.7486 2.4177 2.324 2.4177 1.8601 2.4177 1.4122 2.4177 0.99842 2.4177 0.61876 2.4177 0.27323 2.4177-0.038189 2.4177-0.31549 2.4177-0.55867 2.4177-0.76772 2.4177-0.94267 2.4177-1.0835 2.4177-1.1902 2.4177-1.2628 2.4177-1.3012 2.4177-1.3056 2.4177-1.2758 2.4177-1.2119 2.4177-1.1139 2.4177-0.98174 2.4177-0.81549 2.4177-0.61512 2.4177-0.38062 2.4177-0.11201 2.4177 0.19073 2.4177 0.52758 2.4177 0.89855 2.4177 1.3036 2.4177 1.7379 2.4177 2.1552 2.4177 2.5302 2.4177 2.8625 2.4177 3.1523 2.4177 3.3995 2.4177 3.6041 2.4177 3.7662 2.4177 3.8856 2.4177 3.9624 2.4177 3.9967 2.4177 3.9884 2.4177 3.9374 2.4177 3.8439 2.4177 3.7078 2.4177 3.5292 2.4177 3.3079 2.4177 3.0441 2.4177 2.7376 2.4177 2.3886 2.4177 1.997 2.4177 1.5628 2.4177 1.086 2.4177 0.56661 2.4177 0.004645 2.4177-0.5999 2.4177-1.247 2.4177-1.9342 2.4177-2.6139 2.4177-3.2439 2.4177-3.8227 2.4177-4.3503 2.4177-4.8267 2.4177-5.2519 2.4177-5.6259 2.4177-5.9487 2.4177-6.2204 2.4177-6.4408 2.4177-6.6101 2.4177-6.7281 2.4177-6.795 2.4177-6.8107 2.4177-6.7752 2.4177-6.6885 2.4177-6.5506 2.4177-6.3615 2.4177-6.1212 2.4177-5.8298 2.4177-5.4871 2.4177-5.0933 2.4177-4.6483 2.4177-4.152 2.4177-3.6046 2.4177-3.006 2.4177-2.3569 2.4177-1.69 2.4177-1.0522 2.4177-0.44694 2.4177 0.12563 2.4177 0.66556 2.4177 1.1728 2.4177 1.6475 2.4177 2.0895 2.4177 2.4989 2.4177 2.8756 2.4177 3.2196 2.4177 3.5311 2.4177 3.8099 2.4177 4.056 2.4177 4.2695 2.4177 4.4504 2.4177 4.5986 2.4177 4.7142 2.4177 4.7971 2.4177 4.8474 2.4177 4.865 2.4177 4.8501 2.4177 4.8024 2.4177 4.7221 2.4177 4.6092 2.4177 4.4637 2.4177 4.2854 2.4177 4.0746 2.4177 3.8311 2.4177 3.555 2.4177 3.2462 2.4177 2.9048 2.4177 2.5307 2.4177 2.124 2.4177 1.6847 2.4177 1.2127 2.4177 0.70806 2.4177 0.17079 2.4177-0.39912 2.4177-1.0017 2.4177-1.6369 2.4177-2.3047 2.4177-3.0052 2.4177-3.7383 2.4177-4.5041 2.4177-5.3025 2.4177-6.1336 2.4177-6.9973 2.4177-7.8936 2.4177-8.8226 2.4177-9.7842 2.4177-10.778 2.4177-11.805 2.4177-12.865v-54.736l-2.4177 1.3229-2.4177 1.158-2.4177 0.99694-2.4177 0.83976-2.4177 0.68645-2.4177 0.53702-2.4177 0.39147-2.4177 0.2498-2.4177 0.112-2.4177-0.021916-2.4177-0.15196-2.4177-0.27812-2.4177-0.40041-2.4177-0.51881-2.4177-0.63334-2.4177-0.744-2.4177-0.85077-2.4177-0.95367-2.4177-1.0527-2.4177-1.1478-2.4177-1.2391-2.4177-1.3265-2.4177-1.41-2.4177-1.4896-2.4177-1.5654-2.4177-1.6373-2.4177-1.7053-2.4177-1.7694-2.4177-1.8296-2.4177-1.886-2.4177-1.9385-2.4177-1.9871-2.4177-2.0318-2.4177-2.0727-2.4177-2.1097-2.4177-2.1428-2.4177-2.172-2.4177-2.1973-2.4177-2.2188-2.4177-2.2364-2.4177-2.2501-2.4177-2.2599-2.4177-2.2659-2.4177-2.268-2.4177-2.2662-2.4177-2.2605-2.4177-2.251-2.4177-2.2375-2.4177-2.2202-2.4177-2.199-2.4177-2.174-2.4177-2.145-2.4177-2.1122-2.4177-2.0755-2.4177-2.0349-2.4177-1.9895-2.4177-1.9386-2.4177-1.8824-2.4177-1.8208-2.4177-1.7537-2.4177-1.6813-2.4177-1.6034-2.4177-1.5201-2.4177-1.4315-2.4177-1.3374-2.4177-1.2379-2.4177-1.133-2.4177-1.0228-2.4177-0.90706-2.4177-0.78596-2.4177-0.65946-2.4177-0.52755-2.4177-0.39023-2.4177-0.24751-2.4177-0.099383-2.4177 0.05415-2.4177 0.21309-2.4177 0.37743-2.4177 0.54718-2.4177 0.72233-2.4177 0.90289-2.4177 1.0887-2.4177 1.2744-2.4177 1.4543-2.4177 1.6278-2.4177 1.7952-2.4177 1.9563-2.4177 2.1111-2.4177 2.2597-2.4177 2.4021-2.4177 2.5382-2.4177 2.6681-2.4177 2.7917-2.4177 2.9091-2.4177 3.0202-2.4177 3.1251-2.4177 3.2237-2.4177 3.3161-2.4177 3.4022-2.4177 3.4821-2.4177 3.5558-2.4177 3.6232-2.4177 3.6844-2.4177 3.7393-2.4177 3.788-2.4177 3.8304-2.4177 3.8666-2.4177 3.8965-2.4177 3.9202-2.4177 3.933-2.4177 3.9268-2.4177 3.9006-2.4177 3.8545-2.4177 3.7884-2.4177 3.7024-2.4177 3.5965-2.4177 3.4706-2.4177 3.3248-2.4177 3.1591-2.4177 2.9734-2.4177 2.7678-2.4177 2.5422-2.4177 2.2967-2.4177 2.0312-2.4177 1.7458-2.4177 1.4405-2.4177 1.1152-2.4177 0.77-2.4177 0.40484-2.4177 0.019745-2.4177-0.38529-2.4177-0.81027-2.4177-1.2552-2.4177-1.72-2.4177-2.2048-2.4177-2.7096-2.4177-3.2208-2.4177-3.6974-2.4177-4.1316-2.4177-4.5234-2.4177-4.8728-2.4177-5.1798-2.4177-5.4445-2.4177-5.6667-2.4177-5.8465-2.4177-5.9839-2.4177-6.079-2.4177-6.1316-2.4177-6.1418-2.4177-6.1096-2.4177-6.0351-2.4177-5.9181-2.4177-5.7587-2.4177-5.557-2.4177-5.3128-2.4177-5.0262-2.4177-4.6973-2.4177-4.3259-2.4177-3.9121-2.4177-3.456-2.4177-2.9574-2.4177-2.4165-2.4177-1.8331-2.4177-1.2176-2.4177-0.62373-2.4177-0.069172-2.4177 0.44608-2.4177 0.92202-2.4177 1.3586-2.4177 1.756-2.4177 2.114-2.4177 2.4327-2.4177 2.712-2.4177 2.9521-2.4177 3.1529-2.4177 3.3143-2.4177 3.4365-2.4177 3.5193-2.4177 3.5628-2.4177 3.567-2.4177 3.5319-2.4177 3.4575-2.4177 3.3438-2.4177 3.1908-2.4177 2.9984-2.4177 2.7667-2.4177 2.4958-2.4177 2.1855-2.4177 1.8359-2.4177 1.447-2.4177 1.0232-2.4177 0.60528-2.4177 0.21583-2.4177-0.14498-2.4177-0.47714-2.4177-0.78066-2.4177-1.0555-2.4177-1.3017-2.4177-1.5193-2.4177-1.7083-2.4177-1.8685-2.4177-2.0002-2.4177-2.1032-2.4177-2.1775-2.4177-2.2232-2.4177-2.2403-2.4177-2.2287-2.4177-2.1884-2.4177-2.1196-2.4177-2.022-2.4177-1.8959-2.4177-1.741-2.4177-1.5576-2.4177-1.3454-2.4177-1.1047-2.4177-0.83528-2.4177-0.53722-2.4177-0.21174-2.4177 0.11833-2.4177 0.43271-2.4177 0.73069-2.4177 1.0123-2.4177 1.2775-2.4177 1.5263-2.4177 1.7587-2.4177 1.9747-2.4177 2.1743-2.4177 2.3575-2.4177 2.5243-2.4177 2.6747-2.4177 2.8087-2.4177 2.9264-2.4177 3.0276-2.4177 3.1124-2.4177 3.1808-2.4177 3.2329-2.4177 3.2685-2.4177 3.2878-2.4177 3.2906-2.4177 3.2771-2.4177 3.2471-2.4177 3.2008-2.4177 3.138-2.4177 3.0589-2.4177 2.9635-2.4177 2.8581-2.4177 2.7518-2.4177 2.6453-2.4177 2.5384-2.4177 2.4314-2.4177 2.324-2.4177 2.2164-2.4177 2.1086-2.4177 2.0005-2.4177 1.8921-2.4177 1.7835-2.4177 1.6746-2.4177 1.5655-2.4177 1.4561-2.4177 1.3465-2.4177 1.2366-2.4177 1.1265-2.4177 1.0161-2.4177 0.9054-2.4177 0.79449-2.4177 0.68332-2.4177 0.5719-2.4177 0.46022-2.4177 0.34829-2.4177 0.2361-2.4177 0.12365-2.4177 0.010949-2.4177-0.10201-2.4177-0.21522-2.4177-0.32869-2.4177-0.44241-2.4177-0.55639-2.4177-0.67062-2.4177-0.78511-2.4177-0.89986-2.4177-1.0149-2.4177-1.1301-2.4177-1.2456-2.4177-1.3614-2.4177-1.4774-2.4177-1.5937-2.4177-1.7102-2.4177-1.827-2.4177-1.9441-2.4177-2.0614-2.4177-2.1789-2.4177-2.2967-2.4177-2.4148-2.4177-2.5331-2.4177-2.6517-2.4177-2.7705-2.4177-2.8896-2.4177-3.009-2.4177-3.1286z" clip-path="url(#a)" fill="#7570b3"/>
 <path d="m108.19 26.864v102.16l2.4177 3.1286 2.4177 3.009 2.4177 2.8896 2.4177 2.7705 2.4177 2.6517 2.4177 2.5331 2.4177 2.4148 2.4177 2.2967 2.4177 2.1789 2.4177 2.0614 2.4177 1.9441 2.4177 1.827 2.4177 1.7102 2.4177 1.5937 2.4177 1.4774 2.4177 1.3614 2.4177 1.2456 2.4177 1.1301 2.4177 1.0149 2.4177 0.89986 2.4177 0.78511 2.4177 0.67062 2.4177 0.55639 2.4177 0.44241 2.4177 0.32869 2.4177 0.21522 2.4177 0.10201 2.4177-0.010949 2.4177-0.12365 2.4177-0.2361 2.4177-0.34829 2.4177-0.46022 2.4177-0.5719 2.4177-0.68332 2.4177-0.79449 2.4177-0.9054 2.4177-1.0161 2.4177-1.1265 2.4177-1.2366 2.4177-1.3465 2.4177-1.4561 2.4177-1.5655 2.4177-1.6746 2.4177-1.7835 2.4177-1.8921 2.4177-2.0005 2.4177-2.1086 2.4177-2.2164 2.4177-2.324 2.4177-2.4314 2.4177-2.5384 2.4177-2.6453 2.4177-2.7518 2.4177-2.8581 2.4177-2.9635 2.4177-3.0589 2.4177-3.138 2.4177-3.2008 2.4177-3.2471 2.4177-3.2771 2.4177-3.2906 2.4177-3.2878 2.4177-3.2685 2.4177-3.2329 2.4177-3.1808 2.4177-3.1124 2.4177-3.0276 2.4177-2.9264 2.4177-2.8087 2.4177-2.6747 2.4177-2.5243 2.4177-2.3575 2.4177-2.1743 2.4177-1.9747 2.4177-1.7587 2.4177-1.5263 2.4177-1.2775 2.4177-1.0123 2.4177-0.73069 2.4177-0.43271 2.4177-0.11833 2.4177 0.21174 2.4177 0.53722 2.4177 0.83528 2.4177 1.1047 2.4177 1.3454 2.4177 1.5576 2.4177 1.741 2.4177 1.8959 2.4177 2.022 2.4177 2.1196 2.4177 2.1884 2.4177 2.2287 2.4177 2.2403 2.4177 2.2232 2.4177 2.1775 2.4177 2.1032 2.4177 2.0002 2.4177 1.8685 2.4177 1.7083 2.4177 1.5193 2.4177 1.3017 2.4177 1.0555 2.4177 0.78066 2.4177 0.47714 2.4177 0.14498 2.4177-0.21583 2.4177-0.60528 2.4177-1.0232 2.4177-1.447 2.4177-1.8359 2.4177-2.1855 2.4177-2.4958 2.4177-2.7667 2.4177-2.9984 2.4177-3.1908 2.4177-3.3438 2.4177-3.4575 2.4177-3.5319 2.4177-3.567 2.4177-3.5628 2.4177-3.5193 2.4177-3.4365 2.4177-3.3143 2.4177-3.1529 2.4177-2.9521 2.4177-2.712 2.4177-2.4327 2.4177-2.114 2.4177-1.756 2.4177-1.3586 2.4177-0.92202 2.4177-0.44608 2.4177 0.069172 2.4177 0.62373 2.4177 1.2176 2.4177 1.8331 2.4177 2.4165 2.4177 2.9574 2.4177 3.456 2.4177 3.9121 2.4177 4.3259 2.4177 4.6973 2.4177 5.0262 2.4177 5.3128 2.4177 5.557 2.4177 5.7587 2.4177 5.9181 2.4177 6.0351 2.4177 6.1096 2.4177 6.1418 2.4177 6.1316 2.4177 6.079 2.4177 5.9839 2.4177 5.8465 2.4177 5.6667 2.4177 5.4445 2.4177 5.1798 2.4177 4.8728 2.4177 4.5234 2.4177 4.1316 2.4177 3.6974 2.4177 3.2208 2.4177 2.7096 2.4177 2.2048 2.4177 1.72 2.4177 1.2552 2.4177 0.81027 2.4177 0.38529 2.4177-0.019745 2.4177-0.40484 2.4177-0.77 2.4177-1.1152 2.4177-1.4405 2.4177-1.7458 2.4177-2.0312 2.4177-2.2967 2.4177-2.5422 2.4177-2.7678 2.4177-2.9734 2.4177-3.1591 2.4177-3.3248 2.4177-3.4706 2.4177-3.5965 2.4177-3.7024 2.4177-3.7884 2.4177-3.8545 2.4177-3.9006 2.4177-3.9268 2.4177-3.933 2.4177-3.9202 2.4177-3.8965 2.4177-3.8666 2.4177-3.8304 2.4177-3.788 2.4177-3.7393 2.4177-3.6844 2.4177-3.6232 2.4177-3.5558 2.4177-3.4821 2.4177-3.4022 2.4177-3.3161 2.4177-3.2237 2.4177-3.1251 2.4177-3.0202 2.4177-2.9091 2.4177-2.7917 2.4177-2.6681 2.4177-2.5382 2.4177-2.4021 2.4177-2.2597 2.4177-2.1111 2.4177-1.9563 2.4177-1.7952 2.4177-1.6278 2.4177-1.4543 2.4177-1.2744 2.4177-1.0887 2.4177-0.90289 2.4177-0.72233 2.4177-0.54718 2.4177-0.37743 2.4177-0.21309 2.4177-0.05415 2.4177 0.099383 2.4177 0.24751 2.4177 0.39023 2.4177 0.52755 2.4177 0.65946 2.4177 0.78596 2.4177 0.90706 2.4177 1.0228 2.4177 1.133 2.4177 1.2379 2.4177 1.3374 2.4177 1.4315 2.4177 1.5201 2.4177 1.6034 2.4177 1.6813 2.4177 1.7537 2.4177 1.8208 2.4177 1.8824 2.4177 1.9386 2.4177 1.9895 2.4177 2.0349 2.4177 2.0755 2.4177 2.1122 2.4177 2.145 2.4177 2.174 2.4177 2.199 2.4177 2.2202 2.4177 2.2375 2.4177 2.251 2.4177 2.2605 2.4177 2.2662 2.4177 2.268 2.4177 2.2659 2.4177 2.2599 2.4177 2.2501 2.4177 2.2364 2.4177 2.2188 2.4177 2.1973 2.4177 2.172 2.4177 2.1428 2.4177 2.1097 2.4177 2.0727 2.4177 2.0318 2.4177 1.9871 2.4177 1.9385 2.4177 1.886 2.4177 1.8296 2.4177 1.7694 2.4177 1.7053 2.4177 1.6373 2.4177 1.5654 2.4177 1.4896 2.4177 1.41 2.4177 1.3265 2.4177 1.2391 2.4177 1.1478 2.4177 1.0527 2.4177 0.95367 2.4177 0.85077 2.4177 0.744 2.4177 0.63334 2.4177 0.51881 2.4177 0.40041 2.4177 0.27812 2.4177 0.15196 2.4177 0.021916 2.4177-0.112 2.4177-0.2498 2.4177-0.39147 2.4177-0.53702 2.4177-0.68645 2.4177-0.83976 2.4177-0.99694 2.4177-1.158 2.4177-1.3229v-111.47h-2.4177-2.4177-2.4177-2.4177-2.4177-2.4177-2.4177-2.4177-2.4177-2.4177-2.4177-2.4177-2.4177-2.4177-2.4177-2.4177-2.4177-2.4177-2.4177-2.4177-2.4177-2.4177-2.4177-2.4177-2.4177-2.4177-2.4177-2.4177-2.4177-2.4177-2.4177-2.4177-2.4177-2.4177-2.4177-2.4177-2.4177-2.4177-2.4177-2.4177-2.4177-2.4177-2.4177-2.4177-2.4177-2.4177-2.4177-2.4177-2.4177-2.4177-2.4177-2.4177-2.4177-2.4177-2.4177-2.4177-2.4177-2.4177-2.4177-2.4177-2.4177-2.4177-2.4177-2.4177-2.4177-2.4177-2.4177-2.4177-2.4177-2.4177-2.4177-2.4177-2.4177-2.4177-2.4177-2.4177-2.4177-2.4177-2.4177-2.4177-2.4177-2.4177-2.4177-2.4177-2.4177-2.4177-2.4177-2.4177-2.4177-2.4177-2.4177-2.4177-2.4177-2.4177-2.4177-2.4177-2.4177-2.4177-2.4177-2.4177-2.4177-2.4177-2.4177-2.4177-2.4177-2.4177-2.4177-2.4177-2.4177-2.4177-2.4177-2.4177-2.4177-2.4177-2.4177-2.4177-2.4177-2.4177-2.4177-2.4177-2.4177-2.4177-2.4177-2.4177-2.4177-2.4177-2.4177-2.4177-2.4177-2.4177-2.4177-2.4177-2.4177-2.4177-2.4177-2.4177-2.4177-2.4177-2.4177-2.4177-2.4177-2.4177-2.4177-2.4177-2.4177-2.4177-2.4177-2.4177-2.4177-2.4177-2.4177-2.4177-2.4177-2.4177-2.4177-2.4177-2.4177-2.4177-2.4177-2.4177-2.4177-2.4177-2.4177-2.4177-2.4177-2.4177-2.4177-2.4177-2.4177-2.4177-2.4177-2.4177-2.4177-2.4177-2.4177-2.4177-2.4177-2.4177-2.4177-2.4177-2.4177-2.4177-2.4177-2.4177-2.4177-2.4177-2.4177-2.4177-2.4177-2.4177-2.4177-2.4177-2.4177-2.4177-2.4177-2.4177-2.4177-2.4177-2.4177-2.4177-2.4177-2.4177-2.4177-2.4177-2.4177-2.4177-2.4177-2.4177-2.4177-2.4177-2.4177-2.4177-2.4177-2.4177-2.4177-2.4177-2.4177-2.4177-2.4177-2.4177-2.4177-2.4177-2.4177-2.4177-2.4177-2.4177-2.4177-2.4177-2.4177-2.4177-2.4177-2.4177-2.4177-2.4177-2.4177-2.4177-2.4177-2.4177-2.4177-2.4177-2.4177-2.4177-2.4177-2.4177-2.4177-2.4177-2.4177-2.4177-2.4177-2.4177-2.4177-2.4177-2.4177-2.4177-2.4177-2.4177-2.4177-2.4177-2.4177-2.4177-2.4177-2.4177-2.4177-2.4177-2.4177-2.4177-2.4177-2.4177-2.4177-2.4177-2.4177-2.4177-2.4177-2.4177-2.4177-2.4177-2.4177-2.4177-2.4177-2.4177-2.4177-2.4177-2.4177-2.4177-2.4177-2.4177-2.4177-2.4177-2.4177-2.4177-2.4177-2.4177-2.4177-2.4177-2.4177-2.4177-2.4177-2.4177-2.4177z" clip-path="url(#a)" fill="#c7eae5"/>
 <path d="m108.19 420.14v-412.94" clip-path="url(#a)" fill="none" stroke="#fff" stroke-linecap="square" stroke-opacity=".3" stroke-width=".75"/>
 <defs>
  <path id="b" d="m0 0v3.5" stroke="#000" stroke-width=".8"/>
 </defs>
 <use x="108.187813" y="420.14" stroke="#000000" stroke-width=".8" xlink:href="#b"/>
 <text transform="translate(114.76 554.26) rotate(-90)" fill="#767676" font-family="'Montserrat'" font-size="24px" font-weight="600">01-01-2023</text>
 <path d="m173.91 420.14v-412.94" clip-path="url(#a)" fill="none" stroke="#fff" stroke-linecap="square" stroke-opacity=".3" stroke-width=".75"/>
 <use x="173.905937" y="420.14" stroke="#000000" stroke-width=".8" xlink:href="#b"/>
 <text transform="translate(180.48 559.09) rotate(-90)" fill="#767676" font-family="'Montserrat'" font-size="24px" font-weight="600">01-02-2023</text>
 <path d="m239.62 420.14v-412.94" clip-path="url(#a)" fill="none" stroke="#fff" stroke-linecap="square" stroke-opacity=".3" stroke-width=".75"/>
 <use x="239.624062" y="420.14" stroke="#000000" stroke-width=".8" xlink:href="#b"/>
 <text transform="translate(246.2 559.09) rotate(-90)" fill="#767676" font-family="'Montserrat'" font-size="24px" font-weight="600">01-03-2023</text>
 <path d="m305.34 420.14v-412.94" clip-path="url(#a)" fill="none" stroke="#fff" stroke-linecap="square" stroke-opacity=".3" stroke-width=".75"/>
 <use x="305.342188" y="420.14" stroke="#000000" stroke-width=".8" xlink:href="#b"/>
 <text transform="translate(311.92 561.42) rotate(-90)" fill="#767676" font-family="'Montserrat'" font-size="24px" font-weight="600">01-04-2023</text>
 <path d="m371.06 420.14v-412.94" clip-path="url(#a)" fill="none" stroke="#fff" stroke-linecap="square" stroke-opacity=".3" stroke-width=".75"/>
 <use x="371.060313" y="420.14" stroke="#000000" stroke-width=".8" xlink:href="#b"/>
 <text transform="translate(377.64 559.14) rotate(-90)" fill="#767676" font-family="'Montserrat'" font-size="24px" font-weight="600">01-05-2023</text>
 <path d="m436.78 420.14v-412.94" clip-path="url(#a)" fill="none" stroke="#fff" stroke-linecap="square" stroke-opacity=".3" stroke-width=".75"/>
 <use x="436.778437" y="420.14" stroke="#000000" stroke-width=".8" xlink:href="#b"/>
 <text transform="translate(443.35 560.17) rotate(-90)" fill="#767676" font-family="'Montserrat'" font-size="24px" font-weight="600">01-06-2023</text>
 <path d="m502.5 420.14v-412.94" clip-path="url(#a)" fill="none" stroke="#fff" stroke-linecap="square" stroke-opacity=".3" stroke-width=".75"/>
 <use x="502.496563" y="420.14" stroke="#000000" stroke-width=".8" xlink:href="#b"/>
 <text transform="translate(509.07 559.71) rotate(-90)" fill="#767676" font-family="'Montserrat'" font-size="24px" font-weight="600">01-07-2023</text>
 <path d="m568.21 420.14v-412.94" clip-path="url(#a)" fill="none" stroke="#fff" stroke-linecap="square" stroke-opacity=".3" stroke-width=".75"/>
 <use x="568.214687" y="420.14" stroke="#000000" stroke-width=".8" xlink:href="#b"/>
 <text transform="translate(574.79 560.77) rotate(-90)" fill="#767676" font-family="'Montserrat'" font-size="24px" font-weight="600">01-08-2023</text>
 <path d="m633.93 420.14v-412.94" clip-path="url(#a)" fill="none" stroke="#fff" stroke-linecap="square" stroke-opacity=".3" stroke-width=".75"/>
 <use x="633.932813" y="420.14" stroke="#000000" stroke-width=".8" xlink:href="#b"/>
 <text transform="translate(640.51 560.17) rotate(-90)" fill="#767676" font-family="'Montserrat'" font-size="24px" font-weight="600">01-09-2023</text>
 <path d="m699.65 420.14v-412.94" clip-path="url(#a)" fill="none" stroke="#fff" stroke-linecap="square" stroke-opacity=".3" stroke-width=".75"/>
 <use x="699.650938" y="420.14" stroke="#000000" stroke-width=".8" xlink:href="#b"/>
 <text transform="translate(706.23 554.26) rotate(-90)" fill="#767676" font-family="'Montserrat'" font-size="24px" font-weight="600">01-10-2023</text>
 <path d="m765.37 420.14v-412.94" clip-path="url(#a)" fill="none" stroke="#fff" stroke-linecap="square" stroke-opacity=".3" stroke-width=".75"/>
 <use x="765.369063" y="420.14" stroke="#000000" stroke-width=".8" xlink:href="#b"/>
 <text transform="translate(771.94 547.26) rotate(-90)" fill="#767676" font-family="'Montserrat'" font-size="24px" font-weight="600">01-11-2023</text>
 <path d="m831.09 420.14v-412.94" clip-path="url(#a)" fill="none" stroke="#fff" stroke-linecap="square" stroke-opacity=".3" stroke-width=".75"/>
 <use x="831.087188" y="420.14" stroke="#000000" stroke-width=".8" xlink:href="#b"/>
 <text transform="translate(837.66 552.08) rotate(-90)" fill="#767676" font-family="'Montserrat'" font-size="24px" font-weight="600">01-12-2023</text>
 <path d="m75.329 420.14h788.62" clip-path="url(#a)" fill="none" stroke="#fff" stroke-linecap="square" stroke-opacity=".8" stroke-width="1.25"/>
 <defs>
  <path id="c" d="m0 0h-3.5" stroke="#000" stroke-width=".8"/>
 </defs>
 <use x="75.32875" y="420.14" stroke="#000000" stroke-width=".8" xlink:href="#c"/>
 <text transform="rotate(-0 68.329 429.04)" x="68.32875" y="429.044375" fill="#767676" font-family="'Montserrat'" font-size="24px" font-weight="500" text-anchor="end">0%</text>
 <path d="m75.329 321.82h788.62" clip-path="url(#a)" fill="none" stroke="#fff" stroke-linecap="square" stroke-opacity=".8" stroke-width="1.25"/>
 <use x="75.32875" y="321.820952" stroke="#000000" stroke-width=".8" xlink:href="#c"/>
 <text transform="rotate(-0 68.329 330.73)" x="68.32875" y="330.725327" fill="#767676" font-family="'Montserrat'" font-size="24px" font-weight="500" text-anchor="end">25%</text>
 <path d="m75.329 223.5h788.62" clip-path="url(#a)" fill="none" stroke="#fff" stroke-linecap="square" stroke-opacity=".8" stroke-width="1.25"/>
 <use x="75.32875" y="223.501905" stroke="#000000" stroke-width=".8" xlink:href="#c"/>
 <text transform="rotate(-0 68.329 232.41)" x="68.32875" y="232.40628" fill="#767676" font-family="'Montserrat'" font-size="24px" font-weight="500" text-anchor="end">50%</text>
 <path d="m75.329 125.18h788.62" clip-path="url(#a)" fill="none" stroke="#fff" stroke-linecap="square" stroke-opacity=".8" stroke-width="1.25"/>
 <use x="75.32875" y="125.182857" stroke="#000000" stroke-width=".8" xlink:href="#c"/>
 <text transform="rotate(-0 68.329 134.09)" x="68.32875" y="134.087232" fill="#767676" font-family="'Montserrat'" font-size="24px" font-weight="500" text-anchor="end">75%</text>
 <path d="m75.329 26.864h788.62" clip-path="url(#a)" fill="none" stroke="#fff" stroke-linecap="square" stroke-opacity=".8" stroke-width="1.25"/>
 <use x="75.32875" y="26.86381" stroke="#000000" stroke-width=".8" xlink:href="#c"/>
 <text transform="rotate(-0 68.329 35.768)" x="68.32875" y="35.768185" fill="#767676" font-family="'Montserrat'" font-size="24px" font-weight="500" text-anchor="end">100%</text>
 <path d="m75.329 420.14h788.62" fill="none" stroke="#000" stroke-linecap="square" stroke-width="2"/>
 <path d="m164.47 382.51h18.862q20 0 20-20v-2.7219q0-20-20-20h-18.862q-20 0-20 20v2.7219q0 20 20 20z" fill="#fff" stroke="#215f53" stroke-width="1.8"/>
 <text transform="rotate(-0 173.91 366.63)" x="173.905937" y="366.628259" fill="#767676" font-family="'Montserrat'" font-size="20px" font-weight="500" text-anchor="middle">5.13</text>
 <path d="m459.26 244.86h20.762q20 0 20-20v-2.7219q0-20-20-20h-20.762q-20 0-20 20v2.7219q0 20 20 20z" fill="#fff" stroke="#7570b3" stroke-width="1.8"/>
 <text transform="rotate(-0 469.64 228.98)" x="469.6375" y="228.981592" fill="#767676" font-family="'Montserrat'" font-size="20px" font-weight="500" text-anchor="middle">4.31</text>
 <path d="m753.45 107.22h23.844q20 0 20-20v-2.7219q0-20-20-20h-23.844q-20 0-20 20v2.7219q0 20 20 20z" fill="#fff" stroke="#c7eae5" stroke-width="1.8"/>
 <text transform="rotate(-0 765.37 91.335)" x="765.369063" y="91.334926" fill="#767676" font-family="'Montserrat'" font-size="20px" font-weight="500" text-anchor="middle">2.56</text>
 <defs>
  <clipPath id="a">
   <rect x="75.329" y="7.2" width="788.62" height="412.94"/>
  </clipPath>
 </defs>
</svg>
