<?xml version="1.0" encoding="utf-8" standalone="no"?>
<!DOCTYPE svg PUBLIC "-//W3C//DTD SVG 1.1//EN"
  "http://www.w3.org/Graphics/SVG/1.1/DTD/svg11.dtd">
<svg xmlns:xlink="http://www.w3.org/1999/xlink" width="871.14625pt" height="568.62pt" viewBox="0 0 871.14625 568.62" xmlns="http://www.w3.org/2000/svg" version="1.1">
 <metadata>
  <rdf:RDF xmlns:dc="http://purl.org/dc/elements/1.1/" xmlns:cc="http://creativecommons.org/ns#" xmlns:rdf="http://www.w3.org/1999/02/22-rdf-syntax-ns#">
   <cc:Work>
    <dc:type rdf:resource="http://purl.org/dc/dcmitype/StillImage"/>
    <dc:date>2025-06-03T18:05:26.881602</dc:date>
    <dc:format>image/svg+xml</dc:format>
    <dc:creator>
     <cc:Agent>
      <dc:title>Matplotlib v3.10.1, https://matplotlib.org/</dc:title>
     </cc:Agent>
    </dc:creator>
   </cc:Work>
  </rdf:RDF>
 </metadata>
 <defs>
  <style type="text/css">*{stroke-linejoin: round; stroke-linecap: butt}</style>
 </defs>
 <g id="figure_1">
  <g id="patch_1">
   <path d="M 0 568.62 
L 871.14625 568.62 
L 871.14625 0 
L 0 0 
z
" style="fill: #ffffff"/>
  </g>
  <g id="axes_1">
   <g id="patch_2">
    <path d="M 75.32875 420.14 
L 863.94625 420.14 
L 863.94625 7.2 
L 75.32875 7.2 
z
" style="fill: #ffffff"/>
   </g>
   <g id="FillBetweenPolyCollection_1">
    <path d="M 108.187813 141.999117 
L 108.187813 420.14 
L 110.605536 420.14 
L 113.02326 420.14 
L 115.440983 420.14 
L 117.858707 420.14 
L 120.276431 420.14 
L 122.694154 420.14 
L 125.111878 420.14 
L 127.529602 420.14 
L 129.947325 420.14 
L 132.365049 420.14 
L 134.782773 420.14 
L 137.200496 420.14 
L 139.61822 420.14 
L 142.035944 420.14 
L 144.453667 420.14 
L 146.871391 420.14 
L 149.289115 420.14 
L 151.706838 420.14 
L 154.124562 420.14 
L 156.542286 420.14 
L 158.960009 420.14 
L 161.377733 420.14 
L 163.795457 420.14 
L 166.21318 420.14 
L 168.630904 420.14 
L 171.048628 420.14 
L 173.466351 420.14 
L 175.884075 420.14 
L 178.301799 420.14 
L 180.719522 420.14 
L 183.137246 420.14 
L 185.55497 420.14 
L 187.972693 420.14 
L 190.390417 420.14 
L 192.808141 420.14 
L 195.225864 420.14 
L 197.643588 420.14 
L 200.061312 420.14 
L 202.479035 420.14 
L 204.896759 420.14 
L 207.314483 420.14 
L 209.732206 420.14 
L 212.14993 420.14 
L 214.567654 420.14 
L 216.985377 420.14 
L 219.403101 420.14 
L 221.820825 420.14 
L 224.238548 420.14 
L 226.656272 420.14 
L 229.073996 420.14 
L 231.491719 420.14 
L 233.909443 420.14 
L 236.327167 420.14 
L 238.74489 420.14 
L 241.162614 420.14 
L 243.580338 420.14 
L 245.998061 420.14 
L 248.415785 420.14 
L 250.833509 420.14 
L 253.251232 420.14 
L 255.668956 420.14 
L 258.08668 420.14 
L 260.504403 420.14 
L 262.922127 420.14 
L 265.339851 420.14 
L 267.757574 420.14 
L 270.175298 420.14 
L 272.593022 420.14 
L 275.010745 420.14 
L 277.428469 420.14 
L 279.846193 420.14 
L 282.263916 420.14 
L 284.68164 420.14 
L 287.099364 420.14 
L 289.517087 420.14 
L 291.934811 420.14 
L 294.352534 420.14 
L 296.770258 420.14 
L 299.187982 420.14 
L 301.605705 420.14 
L 304.023429 420.14 
L 306.441153 420.14 
L 308.858876 420.14 
L 311.2766 420.14 
L 313.694324 420.14 
L 316.112047 420.14 
L 318.529771 420.14 
L 320.947495 420.14 
L 323.365218 420.14 
L 325.782942 420.14 
L 328.200666 420.14 
L 330.618389 420.14 
L 333.036113 420.14 
L 335.453837 420.14 
L 337.87156 420.14 
L 340.289284 420.14 
L 342.707008 420.14 
L 345.124731 420.14 
L 347.542455 420.14 
L 349.960179 420.14 
L 352.377902 420.14 
L 354.795626 420.14 
L 357.21335 420.14 
L 359.631073 420.14 
L 362.048797 420.14 
L 364.466521 420.14 
L 366.884244 420.14 
L 369.301968 420.14 
L 371.719692 420.14 
L 374.137415 420.14 
L 376.555139 420.14 
L 378.972863 420.14 
L 381.390586 420.14 
L 383.80831 420.14 
L 386.226034 420.14 
L 388.643757 420.14 
L 391.061481 420.14 
L 393.479205 420.14 
L 395.896928 420.14 
L 398.314652 420.14 
L 400.732376 420.14 
L 403.150099 420.14 
L 405.567823 420.14 
L 407.985547 420.14 
L 410.40327 420.14 
L 412.820994 420.14 
L 415.238718 420.14 
L 417.656441 420.14 
L 420.074165 420.14 
L 422.491889 420.14 
L 424.909612 420.14 
L 427.327336 420.14 
L 429.74506 420.14 
L 432.162783 420.14 
L 434.580507 420.14 
L 436.998231 420.14 
L 439.415954 420.14 
L 441.833678 420.14 
L 444.251402 420.14 
L 446.669125 420.14 
L 449.086849 420.14 
L 451.504573 420.14 
L 453.922296 420.14 
L 456.34002 420.14 
L 458.757744 420.14 
L 461.175467 420.14 
L 463.593191 420.14 
L 466.010915 420.14 
L 468.428638 420.14 
L 470.846362 420.14 
L 473.264085 420.14 
L 475.681809 420.14 
L 478.099533 420.14 
L 480.517256 420.14 
L 482.93498 420.14 
L 485.352704 420.14 
L 487.770427 420.14 
L 490.188151 420.14 
L 492.605875 420.14 
L 495.023598 420.14 
L 497.441322 420.14 
L 499.859046 420.14 
L 502.276769 420.14 
L 504.694493 420.14 
L 507.112217 420.14 
L 509.52994 420.14 
L 511.947664 420.14 
L 514.365388 420.14 
L 516.783111 420.14 
L 519.200835 420.14 
L 521.618559 420.14 
L 524.036282 420.14 
L 526.454006 420.14 
L 528.87173 420.14 
L 531.289453 420.14 
L 533.707177 420.14 
L 536.124901 420.14 
L 538.542624 420.14 
L 540.960348 420.14 
L 543.378072 420.14 
L 545.795795 420.14 
L 548.213519 420.14 
L 550.631243 420.14 
L 553.048966 420.14 
L 555.46669 420.14 
L 557.884414 420.14 
L 560.302137 420.14 
L 562.719861 420.14 
L 565.137585 420.14 
L 567.555308 420.14 
L 569.973032 420.14 
L 572.390756 420.14 
L 574.808479 420.14 
L 577.226203 420.14 
L 579.643927 420.14 
L 582.06165 420.14 
L 584.479374 420.14 
L 586.897098 420.14 
L 589.314821 420.14 
L 591.732545 420.14 
L 594.150269 420.14 
L 596.567992 420.14 
L 598.985716 420.14 
L 601.40344 420.14 
L 603.821163 420.14 
L 606.238887 420.14 
L 608.656611 420.14 
L 611.074334 420.14 
L 613.492058 420.14 
L 615.909782 420.14 
L 618.327505 420.14 
L 620.745229 420.14 
L 623.162953 420.14 
L 625.580676 420.14 
L 627.9984 420.14 
L 630.416124 420.14 
L 632.833847 420.14 
L 635.251571 420.14 
L 637.669295 420.14 
L 640.087018 420.14 
L 642.504742 420.14 
L 644.922466 420.14 
L 647.340189 420.14 
L 649.757913 420.14 
L 652.175636 420.14 
L 654.59336 420.14 
L 657.011084 420.14 
L 659.428807 420.14 
L 661.846531 420.14 
L 664.264255 420.14 
L 666.681978 420.14 
L 669.099702 420.14 
L 671.517426 420.14 
L 673.935149 420.14 
L 676.352873 420.14 
L 678.770597 420.14 
L 681.18832 420.14 
L 683.606044 420.14 
L 686.023768 420.14 
L 688.441491 420.14 
L 690.859215 420.14 
L 693.276939 420.14 
L 695.694662 420.14 
L 698.112386 420.14 
L 700.53011 420.14 
L 702.947833 420.14 
L 705.365557 420.14 
L 707.783281 420.14 
L 710.201004 420.14 
L 712.618728 420.14 
L 715.036452 420.14 
L 717.454175 420.14 
L 719.871899 420.14 
L 722.289623 420.14 
L 724.707346 420.14 
L 727.12507 420.14 
L 729.542794 420.14 
L 731.960517 420.14 
L 734.378241 420.14 
L 736.795965 420.14 
L 739.213688 420.14 
L 741.631412 420.14 
L 744.049136 420.14 
L 746.466859 420.14 
L 748.884583 420.14 
L 751.302307 420.14 
L 753.72003 420.14 
L 756.137754 420.14 
L 758.555478 420.14 
L 760.973201 420.14 
L 763.390925 420.14 
L 765.808649 420.14 
L 768.226372 420.14 
L 770.644096 420.14 
L 773.06182 420.14 
L 775.479543 420.14 
L 777.897267 420.14 
L 780.314991 420.14 
L 782.732714 420.14 
L 785.150438 420.14 
L 787.568162 420.14 
L 789.985885 420.14 
L 792.403609 420.14 
L 794.821333 420.14 
L 797.239056 420.14 
L 799.65678 420.14 
L 802.074504 420.14 
L 804.492227 420.14 
L 806.909951 420.14 
L 809.327675 420.14 
L 811.745398 420.14 
L 814.163122 420.14 
L 816.580846 420.14 
L 818.998569 420.14 
L 821.416293 420.14 
L 823.834017 420.14 
L 826.25174 420.14 
L 828.669464 420.14 
L 831.087188 420.14 
L 831.087188 193.069595 
L 831.087188 193.069595 
L 828.669464 205.934529 
L 826.25174 217.739912 
L 823.834017 228.518385 
L 821.416293 238.302593 
L 818.998569 247.125176 
L 816.580846 255.018779 
L 814.163122 262.016042 
L 811.745398 268.149609 
L 809.327675 273.452121 
L 806.909951 277.956223 
L 804.492227 281.694555 
L 802.074504 284.69976 
L 799.65678 287.004481 
L 797.239056 288.64136 
L 794.821333 289.64304 
L 792.403609 290.042162 
L 789.985885 289.871371 
L 787.568162 289.163307 
L 785.150438 287.950613 
L 782.732714 286.265933 
L 780.314991 284.141907 
L 777.897267 281.611179 
L 775.479543 278.706392 
L 773.06182 275.460187 
L 770.644096 271.905207 
L 768.226372 268.074095 
L 765.808649 263.999492 
L 763.390925 259.714042 
L 760.973201 255.250386 
L 758.555478 250.641168 
L 756.137754 245.91903 
L 753.72003 241.116613 
L 751.302307 236.266562 
L 748.884583 231.401517 
L 746.466859 226.554121 
L 744.049136 221.757018 
L 741.631412 217.042849 
L 739.213688 212.444257 
L 736.795965 207.993884 
L 734.378241 203.724372 
L 731.960517 199.668365 
L 729.542794 195.858504 
L 727.12507 192.327432 
L 724.707346 189.107792 
L 722.289623 186.232226 
L 719.871899 183.733375 
L 717.454175 181.643884 
L 715.036452 179.996394 
L 712.618728 178.823547 
L 710.201004 178.157987 
L 707.783281 178.032355 
L 705.365557 178.479294 
L 702.947833 179.531447 
L 700.53011 181.221455 
L 698.112386 183.578361 
L 695.694662 186.584388 
L 693.276939 190.189017 
L 690.859215 194.341057 
L 688.441491 198.989318 
L 686.023768 204.08261 
L 683.606044 209.569742 
L 681.18832 215.399523 
L 678.770597 221.520763 
L 676.352873 227.882271 
L 673.935149 234.432858 
L 671.517426 241.121332 
L 669.099702 247.896502 
L 666.681978 254.70718 
L 664.264255 261.502173 
L 661.846531 268.230291 
L 659.428807 274.840345 
L 657.011084 281.281142 
L 654.59336 287.501494 
L 652.175636 293.450209 
L 649.757913 299.076097 
L 647.340189 304.327967 
L 644.922466 309.154629 
L 642.504742 313.504892 
L 640.087018 317.327566 
L 637.669295 320.571461 
L 635.251571 323.185385 
L 632.833847 325.119616 
L 630.416124 326.366659 
L 627.9984 326.966564 
L 625.580676 326.961919 
L 623.162953 326.395311 
L 620.745229 325.309326 
L 618.327505 323.746553 
L 615.909782 321.749579 
L 613.492058 319.360991 
L 611.074334 316.623375 
L 608.656611 313.57932 
L 606.238887 310.271413 
L 603.821163 306.742241 
L 601.40344 303.034391 
L 598.985716 299.19045 
L 596.567992 295.253006 
L 594.150269 291.264646 
L 591.732545 287.267957 
L 589.314821 283.305527 
L 586.897098 279.419943 
L 584.479374 275.653791 
L 582.06165 272.04966 
L 579.643927 268.650137 
L 577.226203 265.497808 
L 574.808479 262.635262 
L 572.390756 260.105084 
L 569.973032 257.949864 
L 567.555308 256.211928 
L 565.137585 254.908285 
L 562.719861 254.009734 
L 560.302137 253.482155 
L 557.884414 253.291428 
L 555.46669 253.403435 
L 553.048966 253.784056 
L 550.631243 254.399171 
L 548.213519 255.21466 
L 545.795795 256.196405 
L 543.378072 257.310285 
L 540.960348 258.522182 
L 538.542624 259.797976 
L 536.124901 261.103546 
L 533.707177 262.404775 
L 531.289453 263.667542 
L 528.87173 264.857728 
L 526.454006 265.941213 
L 524.036282 266.883879 
L 521.618559 267.651604 
L 519.200835 268.210271 
L 516.783111 268.525759 
L 514.365388 268.563948 
L 511.947664 268.290721 
L 509.52994 267.671956 
L 507.112217 266.673535 
L 504.694493 265.261338 
L 502.276769 263.401256 
L 499.859046 261.077293 
L 497.441322 258.328726 
L 495.023598 255.205339 
L 492.605875 251.756917 
L 490.188151 248.033242 
L 487.770427 244.084099 
L 485.352704 239.959271 
L 482.93498 235.708542 
L 480.517256 231.381697 
L 478.099533 227.028518 
L 475.681809 222.69879 
L 473.264085 218.442296 
L 470.846362 214.308821 
L 468.428638 210.348147 
L 466.010915 206.61006 
L 463.593191 203.144341 
L 461.175467 200.000777 
L 458.757744 197.229149 
L 456.34002 194.879242 
L 453.922296 193.000841 
L 451.504573 191.643727 
L 449.086849 190.857686 
L 446.669125 190.692502 
L 444.251402 191.197957 
L 441.833678 192.423836 
L 439.415954 194.419923 
L 436.998231 197.236001 
L 434.580507 200.907096 
L 432.162783 205.390595 
L 429.74506 210.618441 
L 427.327336 216.522564 
L 424.909612 223.034893 
L 422.491889 230.087356 
L 420.074165 237.611883 
L 417.656441 245.540402 
L 415.238718 253.804843 
L 412.820994 262.337136 
L 410.40327 271.069208 
L 407.985547 279.932989 
L 405.567823 288.860409 
L 403.150099 297.783396 
L 400.732376 306.633879 
L 398.314652 315.343787 
L 395.896928 323.84505 
L 393.479205 332.069597 
L 391.061481 339.949356 
L 388.643757 347.416257 
L 386.226034 354.402229 
L 383.80831 360.8392 
L 381.390586 366.659101 
L 378.972863 371.793859 
L 376.555139 376.175405 
L 374.137415 379.735667 
L 371.719692 382.406574 
L 369.301968 384.127677 
L 366.884244 384.910151 
L 364.466521 384.804411 
L 362.048797 383.861276 
L 359.631073 382.131564 
L 357.21335 379.666093 
L 354.795626 376.515681 
L 352.377902 372.731147 
L 349.960179 368.363308 
L 347.542455 363.462984 
L 345.124731 358.080991 
L 342.707008 352.268149 
L 340.289284 346.075276 
L 337.87156 339.553189 
L 335.453837 332.752708 
L 333.036113 325.72465 
L 330.618389 318.519833 
L 328.200666 311.189075 
L 325.782942 303.783196 
L 323.365218 296.353013 
L 320.947495 288.949344 
L 318.529771 281.623008 
L 316.112047 274.424822 
L 313.694324 267.405605 
L 311.2766 260.616176 
L 308.858876 254.107352 
L 306.441153 247.929951 
L 304.023429 242.133316 
L 301.605705 236.739124 
L 299.187982 231.744481 
L 296.770258 227.145639 
L 294.352534 222.938849 
L 291.934811 219.120365 
L 289.517087 215.686438 
L 287.099364 212.63332 
L 284.68164 209.957263 
L 282.263916 207.65452 
L 279.846193 205.721342 
L 277.428469 204.153981 
L 275.010745 202.948691 
L 272.593022 202.101722 
L 270.175298 201.609326 
L 267.757574 201.467757 
L 265.339851 201.673266 
L 262.922127 202.222105 
L 260.504403 203.110526 
L 258.08668 204.334781 
L 255.668956 205.891122 
L 253.251232 207.775802 
L 250.833509 209.985073 
L 248.415785 212.515186 
L 245.998061 215.362394 
L 243.580338 218.522948 
L 241.162614 221.993102 
L 238.74489 225.768915 
L 236.327167 229.837145 
L 233.909443 234.171242 
L 231.491719 238.743633 
L 229.073996 243.526746 
L 226.656272 248.493008 
L 224.238548 253.614847 
L 221.820825 258.86469 
L 219.403101 264.214965 
L 216.985377 269.638098 
L 214.567654 275.106518 
L 212.14993 280.592653 
L 209.732206 286.068928 
L 207.314483 291.507772 
L 204.896759 296.881613 
L 202.479035 302.162877 
L 200.061312 307.323992 
L 197.643588 312.337385 
L 195.225864 317.175485 
L 192.808141 321.810718 
L 190.390417 326.215512 
L 187.972693 330.362294 
L 185.55497 334.223492 
L 183.137246 337.771533 
L 180.719522 340.978845 
L 178.301799 343.817855 
L 175.884075 346.26099 
L 173.466351 348.280678 
L 171.048628 349.849347 
L 168.630904 350.939423 
L 166.21318 351.523334 
L 163.795457 351.573509 
L 161.377733 351.062373 
L 158.960009 349.962355 
L 156.542286 348.245881 
L 154.124562 345.885381 
L 151.706838 342.85328 
L 149.289115 339.122006 
L 146.871391 334.663987 
L 144.453667 329.45165 
L 142.035944 323.457423 
L 139.61822 316.653733 
L 137.200496 309.013007 
L 134.782773 300.507674 
L 132.365049 291.110159 
L 129.947325 280.792892 
L 127.529602 269.528298 
L 125.111878 257.288807 
L 122.694154 244.046844 
L 120.276431 229.774838 
L 117.858707 214.445216 
L 115.440983 198.030405 
L 113.02326 180.502834 
L 110.605536 161.834928 
L 108.187813 141.999117 
z
" clip-path="url(#p86bd9b9493)" style="fill: #215f53"/>
   </g>
   <g id="FillBetweenPolyCollection_2">
    <path d="M 108.187813 129.026297 
L 108.187813 141.999117 
L 110.605536 161.834928 
L 113.02326 180.502834 
L 115.440983 198.030405 
L 117.858707 214.445216 
L 120.276431 229.774838 
L 122.694154 244.046844 
L 125.111878 257.288807 
L 127.529602 269.528298 
L 129.947325 280.792892 
L 132.365049 291.110159 
L 134.782773 300.507674 
L 137.200496 309.013007 
L 139.61822 316.653733 
L 142.035944 323.457423 
L 144.453667 329.45165 
L 146.871391 334.663987 
L 149.289115 339.122006 
L 151.706838 342.85328 
L 154.124562 345.885381 
L 156.542286 348.245881 
L 158.960009 349.962355 
L 161.377733 351.062373 
L 163.795457 351.573509 
L 166.21318 351.523334 
L 168.630904 350.939423 
L 171.048628 349.849347 
L 173.466351 348.280678 
L 175.884075 346.26099 
L 178.301799 343.817855 
L 180.719522 340.978845 
L 183.137246 337.771533 
L 185.55497 334.223492 
L 187.972693 330.362294 
L 190.390417 326.215512 
L 192.808141 321.810718 
L 195.225864 317.175485 
L 197.643588 312.337385 
L 200.061312 307.323992 
L 202.479035 302.162877 
L 204.896759 296.881613 
L 207.314483 291.507772 
L 209.732206 286.068928 
L 212.14993 280.592653 
L 214.567654 275.106518 
L 216.985377 269.638098 
L 219.403101 264.214965 
L 221.820825 258.86469 
L 224.238548 253.614847 
L 226.656272 248.493008 
L 229.073996 243.526746 
L 231.491719 238.743633 
L 233.909443 234.171242 
L 236.327167 229.837145 
L 238.74489 225.768915 
L 241.162614 221.993102 
L 243.580338 218.522948 
L 245.998061 215.362394 
L 248.415785 212.515186 
L 250.833509 209.985073 
L 253.251232 207.775802 
L 255.668956 205.891122 
L 258.08668 204.334781 
L 260.504403 203.110526 
L 262.922127 202.222105 
L 265.339851 201.673266 
L 267.757574 201.467757 
L 270.175298 201.609326 
L 272.593022 202.101722 
L 275.010745 202.948691 
L 277.428469 204.153981 
L 279.846193 205.721342 
L 282.263916 207.65452 
L 284.68164 209.957263 
L 287.099364 212.63332 
L 289.517087 215.686438 
L 291.934811 219.120365 
L 294.352534 222.938849 
L 296.770258 227.145639 
L 299.187982 231.744481 
L 301.605705 236.739124 
L 304.023429 242.133316 
L 306.441153 247.929951 
L 308.858876 254.107352 
L 311.2766 260.616176 
L 313.694324 267.405605 
L 316.112047 274.424822 
L 318.529771 281.623008 
L 320.947495 288.949344 
L 323.365218 296.353013 
L 325.782942 303.783196 
L 328.200666 311.189075 
L 330.618389 318.519833 
L 333.036113 325.72465 
L 335.453837 332.752708 
L 337.87156 339.553189 
L 340.289284 346.075276 
L 342.707008 352.268149 
L 345.124731 358.080991 
L 347.542455 363.462984 
L 349.960179 368.363308 
L 352.377902 372.731147 
L 354.795626 376.515681 
L 357.21335 379.666093 
L 359.631073 382.131564 
L 362.048797 383.861276 
L 364.466521 384.804411 
L 366.884244 384.910151 
L 369.301968 384.127677 
L 371.719692 382.406574 
L 374.137415 379.735667 
L 376.555139 376.175405 
L 378.972863 371.793859 
L 381.390586 366.659101 
L 383.80831 360.8392 
L 386.226034 354.402229 
L 388.643757 347.416257 
L 391.061481 339.949356 
L 393.479205 332.069597 
L 395.896928 323.84505 
L 398.314652 315.343787 
L 400.732376 306.633879 
L 403.150099 297.783396 
L 405.567823 288.860409 
L 407.985547 279.932989 
L 410.40327 271.069208 
L 412.820994 262.337136 
L 415.238718 253.804843 
L 417.656441 245.540402 
L 420.074165 237.611883 
L 422.491889 230.087356 
L 424.909612 223.034893 
L 427.327336 216.522564 
L 429.74506 210.618441 
L 432.162783 205.390595 
L 434.580507 200.907096 
L 436.998231 197.236001 
L 439.415954 194.419923 
L 441.833678 192.423836 
L 444.251402 191.197957 
L 446.669125 190.692502 
L 449.086849 190.857686 
L 451.504573 191.643727 
L 453.922296 193.000841 
L 456.34002 194.879242 
L 458.757744 197.229149 
L 461.175467 200.000777 
L 463.593191 203.144341 
L 466.010915 206.61006 
L 468.428638 210.348147 
L 470.846362 214.308821 
L 473.264085 218.442296 
L 475.681809 222.69879 
L 478.099533 227.028518 
L 480.517256 231.381697 
L 482.93498 235.708542 
L 485.352704 239.959271 
L 487.770427 244.084099 
L 490.188151 248.033242 
L 492.605875 251.756917 
L 495.023598 255.205339 
L 497.441322 258.328726 
L 499.859046 261.077293 
L 502.276769 263.401256 
L 504.694493 265.261338 
L 507.112217 266.673535 
L 509.52994 267.671956 
L 511.947664 268.290721 
L 514.365388 268.563948 
L 516.783111 268.525759 
L 519.200835 268.210271 
L 521.618559 267.651604 
L 524.036282 266.883879 
L 526.454006 265.941213 
L 528.87173 264.857728 
L 531.289453 263.667542 
L 533.707177 262.404775 
L 536.124901 261.103546 
L 538.542624 259.797976 
L 540.960348 258.522182 
L 543.378072 257.310285 
L 545.795795 256.196405 
L 548.213519 255.21466 
L 550.631243 254.399171 
L 553.048966 253.784056 
L 555.46669 253.403435 
L 557.884414 253.291428 
L 560.302137 253.482155 
L 562.719861 254.009734 
L 565.137585 254.908285 
L 567.555308 256.211928 
L 569.973032 257.949864 
L 572.390756 260.105084 
L 574.808479 262.635262 
L 577.226203 265.497808 
L 579.643927 268.650137 
L 582.06165 272.04966 
L 584.479374 275.653791 
L 586.897098 279.419943 
L 589.314821 283.305527 
L 591.732545 287.267957 
L 594.150269 291.264646 
L 596.567992 295.253006 
L 598.985716 299.19045 
L 601.40344 303.034391 
L 603.821163 306.742241 
L 606.238887 310.271413 
L 608.656611 313.57932 
L 611.074334 316.623375 
L 613.492058 319.360991 
L 615.909782 321.749579 
L 618.327505 323.746553 
L 620.745229 325.309326 
L 623.162953 326.395311 
L 625.580676 326.961919 
L 627.9984 326.966564 
L 630.416124 326.366659 
L 632.833847 325.119616 
L 635.251571 323.185385 
L 637.669295 320.571461 
L 640.087018 317.327566 
L 642.504742 313.504892 
L 644.922466 309.154629 
L 647.340189 304.327967 
L 649.757913 299.076097 
L 652.175636 293.450209 
L 654.59336 287.501494 
L 657.011084 281.281142 
L 659.428807 274.840345 
L 661.846531 268.230291 
L 664.264255 261.502173 
L 666.681978 254.70718 
L 669.099702 247.896502 
L 671.517426 241.121332 
L 673.935149 234.432858 
L 676.352873 227.882271 
L 678.770597 221.520763 
L 681.18832 215.399523 
L 683.606044 209.569742 
L 686.023768 204.08261 
L 688.441491 198.989318 
L 690.859215 194.341057 
L 693.276939 190.189017 
L 695.694662 186.584388 
L 698.112386 183.578361 
L 700.53011 181.221455 
L 702.947833 179.531447 
L 705.365557 178.479294 
L 707.783281 178.032355 
L 710.201004 178.157987 
L 712.618728 178.823547 
L 715.036452 179.996394 
L 717.454175 181.643884 
L 719.871899 183.733375 
L 722.289623 186.232226 
L 724.707346 189.107792 
L 727.12507 192.327432 
L 729.542794 195.858504 
L 731.960517 199.668365 
L 734.378241 203.724372 
L 736.795965 207.993884 
L 739.213688 212.444257 
L 741.631412 217.042849 
L 744.049136 221.757018 
L 746.466859 226.554121 
L 748.884583 231.401517 
L 751.302307 236.266562 
L 753.72003 241.116613 
L 756.137754 245.91903 
L 758.555478 250.641168 
L 760.973201 255.250386 
L 763.390925 259.714042 
L 765.808649 263.999492 
L 768.226372 268.074095 
L 770.644096 271.905207 
L 773.06182 275.460187 
L 775.479543 278.706392 
L 777.897267 281.611179 
L 780.314991 284.141907 
L 782.732714 286.265933 
L 785.150438 287.950613 
L 787.568162 289.163307 
L 789.985885 289.871371 
L 792.403609 290.042162 
L 794.821333 289.64304 
L 797.239056 288.64136 
L 799.65678 287.004481 
L 802.074504 284.69976 
L 804.492227 281.694555 
L 806.909951 277.956223 
L 809.327675 273.452121 
L 811.745398 268.149609 
L 814.163122 262.016042 
L 816.580846 255.018779 
L 818.998569 247.125176 
L 821.416293 238.302593 
L 823.834017 228.518385 
L 826.25174 217.739912 
L 828.669464 205.934529 
L 831.087188 193.069595 
L 831.087188 138.333839 
L 831.087188 138.333839 
L 828.669464 139.656781 
L 826.25174 140.814783 
L 823.834017 141.811724 
L 821.416293 142.651482 
L 818.998569 143.337933 
L 816.580846 143.874956 
L 814.163122 144.266427 
L 811.745398 144.516225 
L 809.327675 144.628228 
L 806.909951 144.606312 
L 804.492227 144.454355 
L 802.074504 144.176235 
L 799.65678 143.775829 
L 797.239056 143.257016 
L 794.821333 142.623672 
L 792.403609 141.879675 
L 789.985885 141.028903 
L 787.568162 140.075233 
L 785.150438 139.022543 
L 782.732714 137.87471 
L 780.314991 136.635613 
L 777.897267 135.309127 
L 775.479543 133.899133 
L 773.06182 132.409505 
L 770.644096 130.844124 
L 768.226372 129.206865 
L 765.808649 127.501606 
L 763.390925 125.732225 
L 760.973201 123.9026 
L 758.555478 122.016609 
L 756.137754 120.078128 
L 753.72003 118.091035 
L 751.302307 116.059208 
L 748.884583 113.986525 
L 746.466859 111.876862 
L 744.049136 109.734098 
L 741.631412 107.562111 
L 739.213688 105.364777 
L 736.795965 103.145974 
L 734.378241 100.909581 
L 731.960517 98.659474 
L 729.542794 96.39953 
L 727.12507 94.133629 
L 724.707346 91.865647 
L 722.289623 89.599461 
L 719.871899 87.33895 
L 717.454175 85.087991 
L 715.036452 82.850461 
L 712.618728 80.630238 
L 710.201004 78.4312 
L 707.783281 76.257224 
L 705.365557 74.112188 
L 702.947833 71.999969 
L 700.53011 69.924445 
L 698.112386 67.88956 
L 695.694662 65.900109 
L 693.276939 63.961486 
L 690.859215 62.079096 
L 688.441491 60.258345 
L 686.023768 58.504638 
L 683.606044 56.823381 
L 681.18832 55.21998 
L 678.770597 53.699839 
L 676.352873 52.268365 
L 673.935149 50.930962 
L 671.517426 49.693037 
L 669.099702 48.559995 
L 666.681978 47.53724 
L 664.264255 46.63018 
L 661.846531 45.844219 
L 659.428807 45.184762 
L 657.011084 44.657216 
L 654.59336 44.266985 
L 652.175636 44.019476 
L 649.757913 43.920093 
L 647.340189 43.974243 
L 644.922466 44.18733 
L 642.504742 44.56476 
L 640.087018 45.111939 
L 637.669295 45.834272 
L 635.251571 46.737165 
L 632.833847 47.825841 
L 630.416124 49.100276 
L 627.9984 50.55454 
L 625.580676 52.182388 
L 623.162953 53.977574 
L 620.745229 55.933853 
L 618.327505 58.044979 
L 615.909782 60.304707 
L 613.492058 62.706791 
L 611.074334 65.244985 
L 608.656611 67.913045 
L 606.238887 70.704725 
L 603.821163 73.613779 
L 601.40344 76.633961 
L 598.985716 79.759027 
L 596.567992 82.982731 
L 594.150269 86.298826 
L 591.732545 89.701069 
L 589.314821 93.183212 
L 586.897098 96.739012 
L 584.479374 100.362221 
L 582.06165 104.046595 
L 579.643927 107.785889 
L 577.226203 111.573856 
L 574.808479 115.404252 
L 572.390756 119.27083 
L 569.973032 123.167345 
L 567.555308 127.087506 
L 565.137585 131.0205 
L 562.719861 134.947265 
L 560.302137 138.847861 
L 557.884414 142.702346 
L 555.46669 146.490782 
L 553.048966 150.193227 
L 550.631243 153.789741 
L 548.213519 157.260384 
L 545.795795 160.585216 
L 543.378072 163.744295 
L 540.960348 166.717683 
L 538.542624 169.485437 
L 536.124901 172.027619 
L 533.707177 174.324287 
L 531.289453 176.355502 
L 528.87173 178.101323 
L 526.454006 179.541809 
L 524.036282 180.65702 
L 521.618559 181.427017 
L 519.200835 181.831858 
L 516.783111 181.851603 
L 514.365388 181.466312 
L 511.947664 180.656044 
L 509.52994 179.40086 
L 507.112217 177.680818 
L 504.694493 175.475979 
L 502.276769 172.76641 
L 499.859046 169.545635 
L 497.441322 165.848249 
L 495.023598 161.716648 
L 492.605875 157.193233 
L 490.188151 152.320401 
L 487.770427 147.140552 
L 485.352704 141.696084 
L 482.93498 136.029396 
L 480.517256 130.182886 
L 478.099533 124.198954 
L 475.681809 118.119998 
L 473.264085 111.988416 
L 470.846362 105.846608 
L 468.428638 99.736972 
L 466.010915 93.701906 
L 463.593191 87.783811 
L 461.175467 82.025083 
L 458.757744 76.468122 
L 456.34002 71.155328 
L 453.922296 66.129097 
L 451.504573 61.431829 
L 449.086849 57.105924 
L 446.669125 53.193779 
L 444.251402 49.737793 
L 441.833678 46.780364 
L 439.415954 44.363893 
L 436.998231 42.530777 
L 434.580507 41.313183 
L 432.162783 40.68945 
L 429.74506 40.620278 
L 427.327336 41.066355 
L 424.909612 41.988371 
L 422.491889 43.347014 
L 420.074165 45.102974 
L 417.656441 47.21694 
L 415.238718 49.649601 
L 412.820994 52.361646 
L 410.40327 55.313764 
L 407.985547 58.466644 
L 405.567823 61.780976 
L 403.150099 65.217448 
L 400.732376 68.73675 
L 398.314652 72.299571 
L 395.896928 75.866599 
L 393.479205 79.398524 
L 391.061481 82.856035 
L 388.643757 86.199821 
L 386.226034 89.390571 
L 383.80831 92.388975 
L 381.390586 95.155721 
L 378.972863 97.651498 
L 376.555139 99.836996 
L 374.137415 101.672903 
L 371.719692 103.11991 
L 369.301968 104.14306 
L 366.884244 104.748341 
L 364.466521 104.964169 
L 362.048797 104.819189 
L 359.631073 104.342047 
L 357.21335 103.56139 
L 354.795626 102.505864 
L 352.377902 101.204115 
L 349.960179 99.684789 
L 347.542455 97.976532 
L 345.124731 96.10799 
L 342.707008 94.10781 
L 340.289284 92.004638 
L 337.87156 89.827119 
L 335.453837 87.6039 
L 333.036113 85.363627 
L 330.618389 83.134946 
L 328.200666 80.946503 
L 325.782942 78.826944 
L 323.365218 76.804916 
L 320.947495 74.909064 
L 318.529771 73.168035 
L 316.112047 71.610475 
L 313.694324 70.265029 
L 311.2766 69.160345 
L 308.858876 68.325068 
L 306.441153 67.787844 
L 304.023429 67.576101 
L 301.605705 67.69443 
L 299.187982 68.127139 
L 296.770258 68.857832 
L 294.352534 69.870113 
L 291.934811 71.147585 
L 289.517087 72.673851 
L 287.099364 74.432515 
L 284.68164 76.407181 
L 282.263916 78.581453 
L 279.846193 80.938933 
L 277.428469 83.463225 
L 275.010745 86.137934 
L 272.593022 88.946661 
L 270.175298 91.873012 
L 267.757574 94.90059 
L 265.339851 98.012997 
L 262.922127 101.193838 
L 260.504403 104.426717 
L 258.08668 107.695236 
L 255.668956 110.982999 
L 253.251232 114.273611 
L 250.833509 117.550674 
L 248.415785 120.797791 
L 245.998061 123.998568 
L 243.580338 127.136606 
L 241.162614 130.19551 
L 238.74489 133.159013 
L 236.327167 136.017151 
L 233.909443 138.768975 
L 231.491719 141.414231 
L 229.073996 143.952663 
L 226.656272 146.384014 
L 224.238548 148.70803 
L 221.820825 150.924456 
L 219.403101 153.033035 
L 216.985377 155.033512 
L 214.567654 156.925631 
L 212.14993 158.709138 
L 209.732206 160.383776 
L 207.314483 161.94929 
L 204.896759 163.405424 
L 202.479035 164.751924 
L 200.061312 165.988532 
L 197.643588 167.114995 
L 195.225864 168.131057 
L 192.808141 169.036461 
L 190.390417 169.830953 
L 187.972693 170.514276 
L 185.55497 171.086176 
L 183.137246 171.546397 
L 180.719522 171.894683 
L 178.301799 172.130779 
L 175.884075 172.254429 
L 173.466351 172.265378 
L 171.048628 172.16337 
L 168.630904 171.94815 
L 166.21318 171.619463 
L 163.795457 171.177052 
L 161.377733 170.620662 
L 158.960009 169.950038 
L 156.542286 169.164924 
L 154.124562 168.265065 
L 151.706838 167.250205 
L 149.289115 166.120089 
L 146.871391 164.874461 
L 144.453667 163.513065 
L 142.035944 162.035647 
L 139.61822 160.44195 
L 137.200496 158.731719 
L 134.782773 156.904699 
L 132.365049 154.960634 
L 129.947325 152.899268 
L 127.529602 150.720347 
L 125.111878 148.423614 
L 122.694154 146.008814 
L 120.276431 143.475691 
L 117.858707 140.82399 
L 115.440983 138.053456 
L 113.02326 135.163833 
L 110.605536 132.154865 
L 108.187813 129.026297 
z
" clip-path="url(#p86bd9b9493)" style="fill: #7570b3"/>
   </g>
   <g id="FillBetweenPolyCollection_3">
    <path d="M 108.187813 26.86381 
L 108.187813 129.026297 
L 110.605536 132.154865 
L 113.02326 135.163833 
L 115.440983 138.053456 
L 117.858707 140.82399 
L 120.276431 143.475691 
L 122.694154 146.008814 
L 125.111878 148.423614 
L 127.529602 150.720347 
L 129.947325 152.899268 
L 132.365049 154.960634 
L 134.782773 156.904699 
L 137.200496 158.731719 
L 139.61822 160.44195 
L 142.035944 162.035647 
L 144.453667 163.513065 
L 146.871391 164.874461 
L 149.289115 166.120089 
L 151.706838 167.250205 
L 154.124562 168.265065 
L 156.542286 169.164924 
L 158.960009 169.950038 
L 161.377733 170.620662 
L 163.795457 171.177052 
L 166.21318 171.619463 
L 168.630904 171.94815 
L 171.048628 172.16337 
L 173.466351 172.265378 
L 175.884075 172.254429 
L 178.301799 172.130779 
L 180.719522 171.894683 
L 183.137246 171.546397 
L 185.55497 171.086176 
L 187.972693 170.514276 
L 190.390417 169.830953 
L 192.808141 169.036461 
L 195.225864 168.131057 
L 197.643588 167.114995 
L 200.061312 165.988532 
L 202.479035 164.751924 
L 204.896759 163.405424 
L 207.314483 161.94929 
L 209.732206 160.383776 
L 212.14993 158.709138 
L 214.567654 156.925631 
L 216.985377 155.033512 
L 219.403101 153.033035 
L 221.820825 150.924456 
L 224.238548 148.70803 
L 226.656272 146.384014 
L 229.073996 143.952663 
L 231.491719 141.414231 
L 233.909443 138.768975 
L 236.327167 136.017151 
L 238.74489 133.159013 
L 241.162614 130.19551 
L 243.580338 127.136606 
L 245.998061 123.998568 
L 248.415785 120.797791 
L 250.833509 117.550674 
L 253.251232 114.273611 
L 255.668956 110.982999 
L 258.08668 107.695236 
L 260.504403 104.426717 
L 262.922127 101.193838 
L 265.339851 98.012997 
L 267.757574 94.90059 
L 270.175298 91.873012 
L 272.593022 88.946661 
L 275.010745 86.137934 
L 277.428469 83.463225 
L 279.846193 80.938933 
L 282.263916 78.581453 
L 284.68164 76.407181 
L 287.099364 74.432515 
L 289.517087 72.673851 
L 291.934811 71.147585 
L 294.352534 69.870113 
L 296.770258 68.857832 
L 299.187982 68.127139 
L 301.605705 67.69443 
L 304.023429 67.576101 
L 306.441153 67.787844 
L 308.858876 68.325068 
L 311.2766 69.160345 
L 313.694324 70.265029 
L 316.112047 71.610475 
L 318.529771 73.168035 
L 320.947495 74.909064 
L 323.365218 76.804916 
L 325.782942 78.826944 
L 328.200666 80.946503 
L 330.618389 83.134946 
L 333.036113 85.363627 
L 335.453837 87.6039 
L 337.87156 89.827119 
L 340.289284 92.004638 
L 342.707008 94.10781 
L 345.124731 96.10799 
L 347.542455 97.976532 
L 349.960179 99.684789 
L 352.377902 101.204115 
L 354.795626 102.505864 
L 357.21335 103.56139 
L 359.631073 104.342047 
L 362.048797 104.819189 
L 364.466521 104.964169 
L 366.884244 104.748341 
L 369.301968 104.14306 
L 371.719692 103.11991 
L 374.137415 101.672903 
L 376.555139 99.836996 
L 378.972863 97.651498 
L 381.390586 95.155721 
L 383.80831 92.388975 
L 386.226034 89.390571 
L 388.643757 86.199821 
L 391.061481 82.856035 
L 393.479205 79.398524 
L 395.896928 75.866599 
L 398.314652 72.299571 
L 400.732376 68.73675 
L 403.150099 65.217448 
L 405.567823 61.780976 
L 407.985547 58.466644 
L 410.40327 55.313764 
L 412.820994 52.361646 
L 415.238718 49.649601 
L 417.656441 47.21694 
L 420.074165 45.102974 
L 422.491889 43.347014 
L 424.909612 41.988371 
L 427.327336 41.066355 
L 429.74506 40.620278 
L 432.162783 40.68945 
L 434.580507 41.313183 
L 436.998231 42.530777 
L 439.415954 44.363893 
L 441.833678 46.780364 
L 444.251402 49.737793 
L 446.669125 53.193779 
L 449.086849 57.105924 
L 451.504573 61.431829 
L 453.922296 66.129097 
L 456.34002 71.155328 
L 458.757744 76.468122 
L 461.175467 82.025083 
L 463.593191 87.783811 
L 466.010915 93.701906 
L 468.428638 99.736972 
L 470.846362 105.846608 
L 473.264085 111.988416 
L 475.681809 118.119998 
L 478.099533 124.198954 
L 480.517256 130.182886 
L 482.93498 136.029396 
L 485.352704 141.696084 
L 487.770427 147.140552 
L 490.188151 152.320401 
L 492.605875 157.193233 
L 495.023598 161.716648 
L 497.441322 165.848249 
L 499.859046 169.545635 
L 502.276769 172.76641 
L 504.694493 175.475979 
L 507.112217 177.680818 
L 509.52994 179.40086 
L 511.947664 180.656044 
L 514.365388 181.466312 
L 516.783111 181.851603 
L 519.200835 181.831858 
L 521.618559 181.427017 
L 524.036282 180.65702 
L 526.454006 179.541809 
L 528.87173 178.101323 
L 531.289453 176.355502 
L 533.707177 174.324287 
L 536.124901 172.027619 
L 538.542624 169.485437 
L 540.960348 166.717683 
L 543.378072 163.744295 
L 545.795795 160.585216 
L 548.213519 157.260384 
L 550.631243 153.789741 
L 553.048966 150.193227 
L 555.46669 146.490782 
L 557.884414 142.702346 
L 560.302137 138.847861 
L 562.719861 134.947265 
L 565.137585 131.0205 
L 567.555308 127.087506 
L 569.973032 123.167345 
L 572.390756 119.27083 
L 574.808479 115.404252 
L 577.226203 111.573856 
L 579.643927 107.785889 
L 582.06165 104.046595 
L 584.479374 100.362221 
L 586.897098 96.739012 
L 589.314821 93.183212 
L 591.732545 89.701069 
L 594.150269 86.298826 
L 596.567992 82.982731 
L 598.985716 79.759027 
L 601.40344 76.633961 
L 603.821163 73.613779 
L 606.238887 70.704725 
L 608.656611 67.913045 
L 611.074334 65.244985 
L 613.492058 62.706791 
L 615.909782 60.304707 
L 618.327505 58.044979 
L 620.745229 55.933853 
L 623.162953 53.977574 
L 625.580676 52.182388 
L 627.9984 50.55454 
L 630.416124 49.100276 
L 632.833847 47.825841 
L 635.251571 46.737165 
L 637.669295 45.834272 
L 640.087018 45.111939 
L 642.504742 44.56476 
L 644.922466 44.18733 
L 647.340189 43.974243 
L 649.757913 43.920093 
L 652.175636 44.019476 
L 654.59336 44.266985 
L 657.011084 44.657216 
L 659.428807 45.184762 
L 661.846531 45.844219 
L 664.264255 46.63018 
L 666.681978 47.53724 
L 669.099702 48.559995 
L 671.517426 49.693037 
L 673.935149 50.930962 
L 676.352873 52.268365 
L 678.770597 53.699839 
L 681.18832 55.21998 
L 683.606044 56.823381 
L 686.023768 58.504638 
L 688.441491 60.258345 
L 690.859215 62.079096 
L 693.276939 63.961486 
L 695.694662 65.900109 
L 698.112386 67.88956 
L 700.53011 69.924445 
L 702.947833 71.999969 
L 705.365557 74.112188 
L 707.783281 76.257224 
L 710.201004 78.4312 
L 712.618728 80.630238 
L 715.036452 82.850461 
L 717.454175 85.087991 
L 719.871899 87.33895 
L 722.289623 89.599461 
L 724.707346 91.865647 
L 727.12507 94.133629 
L 729.542794 96.39953 
L 731.960517 98.659474 
L 734.378241 100.909581 
L 736.795965 103.145974 
L 739.213688 105.364777 
L 741.631412 107.562111 
L 744.049136 109.734098 
L 746.466859 111.876862 
L 748.884583 113.986525 
L 751.302307 116.059208 
L 753.72003 118.091035 
L 756.137754 120.078128 
L 758.555478 122.016609 
L 760.973201 123.9026 
L 763.390925 125.732225 
L 765.808649 127.501606 
L 768.226372 129.206865 
L 770.644096 130.844124 
L 773.06182 132.409505 
L 775.479543 133.899133 
L 777.897267 135.309127 
L 780.314991 136.635613 
L 782.732714 137.87471 
L 785.150438 139.022543 
L 787.568162 140.075233 
L 789.985885 141.028903 
L 792.403609 141.879675 
L 794.821333 142.623672 
L 797.239056 143.257016 
L 799.65678 143.775829 
L 802.074504 144.176235 
L 804.492227 144.454355 
L 806.909951 144.606312 
L 809.327675 144.628228 
L 811.745398 144.516225 
L 814.163122 144.266427 
L 816.580846 143.874956 
L 818.998569 143.337933 
L 821.416293 142.651482 
L 823.834017 141.811724 
L 826.25174 140.814783 
L 828.669464 139.656781 
L 831.087188 138.333839 
L 831.087188 26.86381 
L 831.087188 26.86381 
L 828.669464 26.86381 
L 826.25174 26.86381 
L 823.834017 26.86381 
L 821.416293 26.86381 
L 818.998569 26.86381 
L 816.580846 26.86381 
L 814.163122 26.86381 
L 811.745398 26.86381 
L 809.327675 26.86381 
L 806.909951 26.86381 
L 804.492227 26.86381 
L 802.074504 26.86381 
L 799.65678 26.86381 
L 797.239056 26.86381 
L 794.821333 26.86381 
L 792.403609 26.86381 
L 789.985885 26.86381 
L 787.568162 26.86381 
L 785.150438 26.86381 
L 782.732714 26.86381 
L 780.314991 26.86381 
L 777.897267 26.86381 
L 775.479543 26.86381 
L 773.06182 26.86381 
L 770.644096 26.86381 
L 768.226372 26.86381 
L 765.808649 26.86381 
L 763.390925 26.86381 
L 760.973201 26.86381 
L 758.555478 26.86381 
L 756.137754 26.86381 
L 753.72003 26.86381 
L 751.302307 26.86381 
L 748.884583 26.86381 
L 746.466859 26.86381 
L 744.049136 26.86381 
L 741.631412 26.86381 
L 739.213688 26.86381 
L 736.795965 26.86381 
L 734.378241 26.86381 
L 731.960517 26.86381 
L 729.542794 26.86381 
L 727.12507 26.86381 
L 724.707346 26.86381 
L 722.289623 26.86381 
L 719.871899 26.86381 
L 717.454175 26.86381 
L 715.036452 26.86381 
L 712.618728 26.86381 
L 710.201004 26.86381 
L 707.783281 26.86381 
L 705.365557 26.86381 
L 702.947833 26.86381 
L 700.53011 26.86381 
L 698.112386 26.86381 
L 695.694662 26.86381 
L 693.276939 26.86381 
L 690.859215 26.86381 
L 688.441491 26.86381 
L 686.023768 26.86381 
L 683.606044 26.86381 
L 681.18832 26.86381 
L 678.770597 26.86381 
L 676.352873 26.86381 
L 673.935149 26.86381 
L 671.517426 26.86381 
L 669.099702 26.86381 
L 666.681978 26.86381 
L 664.264255 26.86381 
L 661.846531 26.86381 
L 659.428807 26.86381 
L 657.011084 26.86381 
L 654.59336 26.86381 
L 652.175636 26.86381 
L 649.757913 26.86381 
L 647.340189 26.86381 
L 644.922466 26.86381 
L 642.504742 26.86381 
L 640.087018 26.86381 
L 637.669295 26.86381 
L 635.251571 26.86381 
L 632.833847 26.86381 
L 630.416124 26.86381 
L 627.9984 26.86381 
L 625.580676 26.86381 
L 623.162953 26.86381 
L 620.745229 26.86381 
L 618.327505 26.86381 
L 615.909782 26.86381 
L 613.492058 26.86381 
L 611.074334 26.86381 
L 608.656611 26.86381 
L 606.238887 26.86381 
L 603.821163 26.86381 
L 601.40344 26.86381 
L 598.985716 26.86381 
L 596.567992 26.86381 
L 594.150269 26.86381 
L 591.732545 26.86381 
L 589.314821 26.86381 
L 586.897098 26.86381 
L 584.479374 26.86381 
L 582.06165 26.86381 
L 579.643927 26.86381 
L 577.226203 26.86381 
L 574.808479 26.86381 
L 572.390756 26.86381 
L 569.973032 26.86381 
L 567.555308 26.86381 
L 565.137585 26.86381 
L 562.719861 26.86381 
L 560.302137 26.86381 
L 557.884414 26.86381 
L 555.46669 26.86381 
L 553.048966 26.86381 
L 550.631243 26.86381 
L 548.213519 26.86381 
L 545.795795 26.86381 
L 543.378072 26.86381 
L 540.960348 26.86381 
L 538.542624 26.86381 
L 536.124901 26.86381 
L 533.707177 26.86381 
L 531.289453 26.86381 
L 528.87173 26.86381 
L 526.454006 26.86381 
L 524.036282 26.86381 
L 521.618559 26.86381 
L 519.200835 26.86381 
L 516.783111 26.86381 
L 514.365388 26.86381 
L 511.947664 26.86381 
L 509.52994 26.86381 
L 507.112217 26.86381 
L 504.694493 26.86381 
L 502.276769 26.86381 
L 499.859046 26.86381 
L 497.441322 26.86381 
L 495.023598 26.86381 
L 492.605875 26.86381 
L 490.188151 26.86381 
L 487.770427 26.86381 
L 485.352704 26.86381 
L 482.93498 26.86381 
L 480.517256 26.86381 
L 478.099533 26.86381 
L 475.681809 26.86381 
L 473.264085 26.86381 
L 470.846362 26.86381 
L 468.428638 26.86381 
L 466.010915 26.86381 
L 463.593191 26.86381 
L 461.175467 26.86381 
L 458.757744 26.86381 
L 456.34002 26.86381 
L 453.922296 26.86381 
L 451.504573 26.86381 
L 449.086849 26.86381 
L 446.669125 26.86381 
L 444.251402 26.86381 
L 441.833678 26.86381 
L 439.415954 26.86381 
L 436.998231 26.86381 
L 434.580507 26.86381 
L 432.162783 26.86381 
L 429.74506 26.86381 
L 427.327336 26.86381 
L 424.909612 26.86381 
L 422.491889 26.86381 
L 420.074165 26.86381 
L 417.656441 26.86381 
L 415.238718 26.86381 
L 412.820994 26.86381 
L 410.40327 26.86381 
L 407.985547 26.86381 
L 405.567823 26.86381 
L 403.150099 26.86381 
L 400.732376 26.86381 
L 398.314652 26.86381 
L 395.896928 26.86381 
L 393.479205 26.86381 
L 391.061481 26.86381 
L 388.643757 26.86381 
L 386.226034 26.86381 
L 383.80831 26.86381 
L 381.390586 26.86381 
L 378.972863 26.86381 
L 376.555139 26.86381 
L 374.137415 26.86381 
L 371.719692 26.86381 
L 369.301968 26.86381 
L 366.884244 26.86381 
L 364.466521 26.86381 
L 362.048797 26.86381 
L 359.631073 26.86381 
L 357.21335 26.86381 
L 354.795626 26.86381 
L 352.377902 26.86381 
L 349.960179 26.86381 
L 347.542455 26.86381 
L 345.124731 26.86381 
L 342.707008 26.86381 
L 340.289284 26.86381 
L 337.87156 26.86381 
L 335.453837 26.86381 
L 333.036113 26.86381 
L 330.618389 26.86381 
L 328.200666 26.86381 
L 325.782942 26.86381 
L 323.365218 26.86381 
L 320.947495 26.86381 
L 318.529771 26.86381 
L 316.112047 26.86381 
L 313.694324 26.86381 
L 311.2766 26.86381 
L 308.858876 26.86381 
L 306.441153 26.86381 
L 304.023429 26.86381 
L 301.605705 26.86381 
L 299.187982 26.86381 
L 296.770258 26.86381 
L 294.352534 26.86381 
L 291.934811 26.86381 
L 289.517087 26.86381 
L 287.099364 26.86381 
L 284.68164 26.86381 
L 282.263916 26.86381 
L 279.846193 26.86381 
L 277.428469 26.86381 
L 275.010745 26.86381 
L 272.593022 26.86381 
L 270.175298 26.86381 
L 267.757574 26.86381 
L 265.339851 26.86381 
L 262.922127 26.86381 
L 260.504403 26.86381 
L 258.08668 26.86381 
L 255.668956 26.86381 
L 253.251232 26.86381 
L 250.833509 26.86381 
L 248.415785 26.86381 
L 245.998061 26.86381 
L 243.580338 26.86381 
L 241.162614 26.86381 
L 238.74489 26.86381 
L 236.327167 26.86381 
L 233.909443 26.86381 
L 231.491719 26.86381 
L 229.073996 26.86381 
L 226.656272 26.86381 
L 224.238548 26.86381 
L 221.820825 26.86381 
L 219.403101 26.86381 
L 216.985377 26.86381 
L 214.567654 26.86381 
L 212.14993 26.86381 
L 209.732206 26.86381 
L 207.314483 26.86381 
L 204.896759 26.86381 
L 202.479035 26.86381 
L 200.061312 26.86381 
L 197.643588 26.86381 
L 195.225864 26.86381 
L 192.808141 26.86381 
L 190.390417 26.86381 
L 187.972693 26.86381 
L 185.55497 26.86381 
L 183.137246 26.86381 
L 180.719522 26.86381 
L 178.301799 26.86381 
L 175.884075 26.86381 
L 173.466351 26.86381 
L 171.048628 26.86381 
L 168.630904 26.86381 
L 166.21318 26.86381 
L 163.795457 26.86381 
L 161.377733 26.86381 
L 158.960009 26.86381 
L 156.542286 26.86381 
L 154.124562 26.86381 
L 151.706838 26.86381 
L 149.289115 26.86381 
L 146.871391 26.86381 
L 144.453667 26.86381 
L 142.035944 26.86381 
L 139.61822 26.86381 
L 137.200496 26.86381 
L 134.782773 26.86381 
L 132.365049 26.86381 
L 129.947325 26.86381 
L 127.529602 26.86381 
L 125.111878 26.86381 
L 122.694154 26.86381 
L 120.276431 26.86381 
L 117.858707 26.86381 
L 115.440983 26.86381 
L 113.02326 26.86381 
L 110.605536 26.86381 
L 108.187813 26.86381 
z
" clip-path="url(#p86bd9b9493)" style="fill: #c7eae5"/>
   </g>
   <g id="matplotlib.axis_1">
    <g id="xtick_1">
     <g id="line2d_1">
      <path d="M 108.187813 420.14 
L 108.187813 7.2 
" clip-path="url(#p86bd9b9493)" style="fill: none; stroke: #ffffff; stroke-opacity: 0.3; stroke-width: 0.75; stroke-linecap: square"/>
     </g>
     <g id="line2d_2">
      <defs>
       <path id="m230e3f37e5" d="M 0 0 
L 0 3.5 
" style="stroke: #000000; stroke-width: 0.8"/>
      </defs>
      <g>
       <use xlink:href="#m230e3f37e5" x="108.187813" y="420.14" style="stroke: #000000; stroke-width: 0.8"/>
      </g>
     </g>
     <g id="text_1">
      <text style="font-weight: 600; font-size: 24px; font-family: 'Montserrat'; fill: #767676" transform="translate(114.763438 554.265) rotate(-90)">01-01-2023</text>
     </g>
    </g>
    <g id="xtick_2">
     <g id="line2d_3">
      <path d="M 173.905937 420.14 
L 173.905937 7.2 
" clip-path="url(#p86bd9b9493)" style="fill: none; stroke: #ffffff; stroke-opacity: 0.3; stroke-width: 0.75; stroke-linecap: square"/>
     </g>
     <g id="line2d_4">
      <g>
       <use xlink:href="#m230e3f37e5" x="173.905937" y="420.14" style="stroke: #000000; stroke-width: 0.8"/>
      </g>
     </g>
     <g id="text_2">
      <text style="font-weight: 600; font-size: 24px; font-family: 'Montserrat'; fill: #767676" transform="translate(180.481562 559.09125) rotate(-90)">01-02-2023</text>
     </g>
    </g>
    <g id="xtick_3">
     <g id="line2d_5">
      <path d="M 239.624062 420.14 
L 239.624062 7.2 
" clip-path="url(#p86bd9b9493)" style="fill: none; stroke: #ffffff; stroke-opacity: 0.3; stroke-width: 0.75; stroke-linecap: square"/>
     </g>
     <g id="line2d_6">
      <g>
       <use xlink:href="#m230e3f37e5" x="239.624062" y="420.14" style="stroke: #000000; stroke-width: 0.8"/>
      </g>
     </g>
     <g id="text_3">
      <text style="font-weight: 600; font-size: 24px; font-family: 'Montserrat'; fill: #767676" transform="translate(246.199687 559.09125) rotate(-90)">01-03-2023</text>
     </g>
    </g>
    <g id="xtick_4">
     <g id="line2d_7">
      <path d="M 305.342188 420.14 
L 305.342188 7.2 
" clip-path="url(#p86bd9b9493)" style="fill: none; stroke: #ffffff; stroke-opacity: 0.3; stroke-width: 0.75; stroke-linecap: square"/>
     </g>
     <g id="line2d_8">
      <g>
       <use xlink:href="#m230e3f37e5" x="305.342188" y="420.14" style="stroke: #000000; stroke-width: 0.8"/>
      </g>
     </g>
     <g id="text_4">
      <text style="font-weight: 600; font-size: 24px; font-family: 'Montserrat'; fill: #767676" transform="translate(311.917813 561.42) rotate(-90)">01-04-2023</text>
     </g>
    </g>
    <g id="xtick_5">
     <g id="line2d_9">
      <path d="M 371.060313 420.14 
L 371.060313 7.2 
" clip-path="url(#p86bd9b9493)" style="fill: none; stroke: #ffffff; stroke-opacity: 0.3; stroke-width: 0.75; stroke-linecap: square"/>
     </g>
     <g id="line2d_10">
      <g>
       <use xlink:href="#m230e3f37e5" x="371.060313" y="420.14" style="stroke: #000000; stroke-width: 0.8"/>
      </g>
     </g>
     <g id="text_5">
      <text style="font-weight: 600; font-size: 24px; font-family: 'Montserrat'; fill: #767676" transform="translate(377.635938 559.14) rotate(-90)">01-05-2023</text>
     </g>
    </g>
    <g id="xtick_6">
     <g id="line2d_11">
      <path d="M 436.778437 420.14 
L 436.778437 7.2 
" clip-path="url(#p86bd9b9493)" style="fill: none; stroke: #ffffff; stroke-opacity: 0.3; stroke-width: 0.75; stroke-linecap: square"/>
     </g>
     <g id="line2d_12">
      <g>
       <use xlink:href="#m230e3f37e5" x="436.778437" y="420.14" style="stroke: #000000; stroke-width: 0.8"/>
      </g>
     </g>
     <g id="text_6">
      <text style="font-weight: 600; font-size: 24px; font-family: 'Montserrat'; fill: #767676" transform="translate(443.354062 560.17125) rotate(-90)">01-06-2023</text>
     </g>
    </g>
    <g id="xtick_7">
     <g id="line2d_13">
      <path d="M 502.496563 420.14 
L 502.496563 7.2 
" clip-path="url(#p86bd9b9493)" style="fill: none; stroke: #ffffff; stroke-opacity: 0.3; stroke-width: 0.75; stroke-linecap: square"/>
     </g>
     <g id="line2d_14">
      <g>
       <use xlink:href="#m230e3f37e5" x="502.496563" y="420.14" style="stroke: #000000; stroke-width: 0.8"/>
      </g>
     </g>
     <g id="text_7">
      <text style="font-weight: 600; font-size: 24px; font-family: 'Montserrat'; fill: #767676" transform="translate(509.072188 559.71375) rotate(-90)">01-07-2023</text>
     </g>
    </g>
    <g id="xtick_8">
     <g id="line2d_15">
      <path d="M 568.214687 420.14 
L 568.214687 7.2 
" clip-path="url(#p86bd9b9493)" style="fill: none; stroke: #ffffff; stroke-opacity: 0.3; stroke-width: 0.75; stroke-linecap: square"/>
     </g>
     <g id="line2d_16">
      <g>
       <use xlink:href="#m230e3f37e5" x="568.214687" y="420.14" style="stroke: #000000; stroke-width: 0.8"/>
      </g>
     </g>
     <g id="text_8">
      <text style="font-weight: 600; font-size: 24px; font-family: 'Montserrat'; fill: #767676" transform="translate(574.790312 560.77125) rotate(-90)">01-08-2023</text>
     </g>
    </g>
    <g id="xtick_9">
     <g id="line2d_17">
      <path d="M 633.932813 420.14 
L 633.932813 7.2 
" clip-path="url(#p86bd9b9493)" style="fill: none; stroke: #ffffff; stroke-opacity: 0.3; stroke-width: 0.75; stroke-linecap: square"/>
     </g>
     <g id="line2d_18">
      <g>
       <use xlink:href="#m230e3f37e5" x="633.932813" y="420.14" style="stroke: #000000; stroke-width: 0.8"/>
      </g>
     </g>
     <g id="text_9">
      <text style="font-weight: 600; font-size: 24px; font-family: 'Montserrat'; fill: #767676" transform="translate(640.508438 560.17125) rotate(-90)">01-09-2023</text>
     </g>
    </g>
    <g id="xtick_10">
     <g id="line2d_19">
      <path d="M 699.650938 420.14 
L 699.650938 7.2 
" clip-path="url(#p86bd9b9493)" style="fill: none; stroke: #ffffff; stroke-opacity: 0.3; stroke-width: 0.75; stroke-linecap: square"/>
     </g>
     <g id="line2d_20">
      <g>
       <use xlink:href="#m230e3f37e5" x="699.650938" y="420.14" style="stroke: #000000; stroke-width: 0.8"/>
      </g>
     </g>
     <g id="text_10">
      <text style="font-weight: 600; font-size: 24px; font-family: 'Montserrat'; fill: #767676" transform="translate(706.226562 554.265) rotate(-90)">01-10-2023</text>
     </g>
    </g>
    <g id="xtick_11">
     <g id="line2d_21">
      <path d="M 765.369063 420.14 
L 765.369063 7.2 
" clip-path="url(#p86bd9b9493)" style="fill: none; stroke: #ffffff; stroke-opacity: 0.3; stroke-width: 0.75; stroke-linecap: square"/>
     </g>
     <g id="line2d_22">
      <g>
       <use xlink:href="#m230e3f37e5" x="765.369063" y="420.14" style="stroke: #000000; stroke-width: 0.8"/>
      </g>
     </g>
     <g id="text_11">
      <text style="font-weight: 600; font-size: 24px; font-family: 'Montserrat'; fill: #767676" transform="translate(771.944687 547.25625) rotate(-90)">01-11-2023</text>
     </g>
    </g>
    <g id="xtick_12">
     <g id="line2d_23">
      <path d="M 831.087188 420.14 
L 831.087188 7.2 
" clip-path="url(#p86bd9b9493)" style="fill: none; stroke: #ffffff; stroke-opacity: 0.3; stroke-width: 0.75; stroke-linecap: square"/>
     </g>
     <g id="line2d_24">
      <g>
       <use xlink:href="#m230e3f37e5" x="831.087188" y="420.14" style="stroke: #000000; stroke-width: 0.8"/>
      </g>
     </g>
     <g id="text_12">
      <text style="font-weight: 600; font-size: 24px; font-family: 'Montserrat'; fill: #767676" transform="translate(837.662812 552.0825) rotate(-90)">01-12-2023</text>
     </g>
    </g>
   </g>
   <g id="matplotlib.axis_2">
    <g id="ytick_1">
     <g id="line2d_25">
      <path d="M 75.32875 420.14 
L 863.94625 420.14 
" clip-path="url(#p86bd9b9493)" style="fill: none; stroke: #ffffff; stroke-opacity: 0.8; stroke-width: 1.25; stroke-linecap: square"/>
     </g>
     <g id="line2d_26">
      <defs>
       <path id="m3fbac616f2" d="M 0 0 
L -3.5 0 
" style="stroke: #000000; stroke-width: 0.8"/>
      </defs>
      <g>
       <use xlink:href="#m3fbac616f2" x="75.32875" y="420.14" style="stroke: #000000; stroke-width: 0.8"/>
      </g>
     </g>
     <g id="text_13">
      <text style="font-weight: 500; font-size: 24px; font-family: 'Montserrat'; text-anchor: end; fill: #767676" x="68.32875" y="429.044375" transform="rotate(-0 68.32875 429.044375)">0%</text>
     </g>
    </g>
    <g id="ytick_2">
     <g id="line2d_27">
      <path d="M 75.32875 321.820952 
L 863.94625 321.820952 
" clip-path="url(#p86bd9b9493)" style="fill: none; stroke: #ffffff; stroke-opacity: 0.8; stroke-width: 1.25; stroke-linecap: square"/>
     </g>
     <g id="line2d_28">
      <g>
       <use xlink:href="#m3fbac616f2" x="75.32875" y="321.820952" style="stroke: #000000; stroke-width: 0.8"/>
      </g>
     </g>
     <g id="text_14">
      <text style="font-weight: 500; font-size: 24px; font-family: 'Montserrat'; text-anchor: end; fill: #767676" x="68.32875" y="330.725327" transform="rotate(-0 68.32875 330.725327)">25%</text>
     </g>
    </g>
    <g id="ytick_3">
     <g id="line2d_29">
      <path d="M 75.32875 223.501905 
L 863.94625 223.501905 
" clip-path="url(#p86bd9b9493)" style="fill: none; stroke: #ffffff; stroke-opacity: 0.8; stroke-width: 1.25; stroke-linecap: square"/>
     </g>
     <g id="line2d_30">
      <g>
       <use xlink:href="#m3fbac616f2" x="75.32875" y="223.501905" style="stroke: #000000; stroke-width: 0.8"/>
      </g>
     </g>
     <g id="text_15">
      <text style="font-weight: 500; font-size: 24px; font-family: 'Montserrat'; text-anchor: end; fill: #767676" x="68.32875" y="232.40628" transform="rotate(-0 68.32875 232.40628)">50%</text>
     </g>
    </g>
    <g id="ytick_4">
     <g id="line2d_31">
      <path d="M 75.32875 125.182857 
L 863.94625 125.182857 
" clip-path="url(#p86bd9b9493)" style="fill: none; stroke: #ffffff; stroke-opacity: 0.8; stroke-width: 1.25; stroke-linecap: square"/>
     </g>
     <g id="line2d_32">
      <g>
       <use xlink:href="#m3fbac616f2" x="75.32875" y="125.182857" style="stroke: #000000; stroke-width: 0.8"/>
      </g>
     </g>
     <g id="text_16">
      <text style="font-weight: 500; font-size: 24px; font-family: 'Montserrat'; text-anchor: end; fill: #767676" x="68.32875" y="134.087232" transform="rotate(-0 68.32875 134.087232)">75%</text>
     </g>
    </g>
    <g id="ytick_5">
     <g id="line2d_33">
      <path d="M 75.32875 26.86381 
L 863.94625 26.86381 
" clip-path="url(#p86bd9b9493)" style="fill: none; stroke: #ffffff; stroke-opacity: 0.8; stroke-width: 1.25; stroke-linecap: square"/>
     </g>
     <g id="line2d_34">
      <g>
       <use xlink:href="#m3fbac616f2" x="75.32875" y="26.86381" style="stroke: #000000; stroke-width: 0.8"/>
      </g>
     </g>
     <g id="text_17">
      <text style="font-weight: 500; font-size: 24px; font-family: 'Montserrat'; text-anchor: end; fill: #767676" x="68.32875" y="35.768185" transform="rotate(-0 68.32875 35.768185)">100%</text>
     </g>
    </g>
   </g>
   <g id="patch_3">
    <path d="M 75.32875 420.14 
L 863.94625 420.14 
" style="fill: none; stroke: #000000; stroke-width: 2; stroke-linejoin: miter; stroke-linecap: square"/>
   </g>
   <g id="text_18">
    <g id="patch_4">
     <path d="M 164.474687 382.509509 
L 183.337187 382.509509 
Q 203.337187 382.509509 203.337187 362.509509 
L 203.337187 359.787634 
Q 203.337187 339.787634 183.337187 339.787634 
L 164.474687 339.787634 
Q 144.474687 339.787634 144.474687 359.787634 
L 144.474687 362.509509 
Q 144.474687 382.509509 164.474687 382.509509 
z
" style="fill: #ffffff; stroke: #215f53; stroke-width: 1.8; stroke-linejoin: miter"/>
    </g>
    <text style="font-weight: 500; font-size: 20px; font-family: 'Montserrat'; text-anchor: middle; fill: #767676" x="173.905937" y="366.628259" transform="rotate(-0 173.905937 366.628259)">5.13</text>
   </g>
   <g id="text_19">
    <g id="patch_5">
     <path d="M 459.25625 244.862842 
L 480.01875 244.862842 
Q 500.01875 244.862842 500.01875 224.862842 
L 500.01875 222.140967 
Q 500.01875 202.140967 480.01875 202.140967 
L 459.25625 202.140967 
Q 439.25625 202.140967 439.25625 222.140967 
L 439.25625 224.862842 
Q 439.25625 244.862842 459.25625 244.862842 
z
" style="fill: #ffffff; stroke: #7570b3; stroke-width: 1.8; stroke-linejoin: miter"/>
    </g>
    <text style="font-weight: 500; font-size: 20px; font-family: 'Montserrat'; text-anchor: middle; fill: #767676" x="469.6375" y="228.981592" transform="rotate(-0 469.6375 228.981592)">4.31</text>
   </g>
   <g id="text_20">
    <g id="patch_6">
     <path d="M 753.447188 107.216176 
L 777.290938 107.216176 
Q 797.290938 107.216176 797.290938 87.216176 
L 797.290938 84.494301 
Q 797.290938 64.494301 777.290938 64.494301 
L 753.447188 64.494301 
Q 733.447188 64.494301 733.447188 84.494301 
L 733.447188 87.216176 
Q 733.447188 107.216176 753.447188 107.216176 
z
" style="fill: #ffffff; stroke: #c7eae5; stroke-width: 1.8; stroke-linejoin: miter"/>
    </g>
    <text style="font-weight: 500; font-size: 20px; font-family: 'Montserrat'; text-anchor: middle; fill: #767676" x="765.369063" y="91.334926" transform="rotate(-0 765.369063 91.334926)">2.56</text>
   </g>
  </g>
 </g>
 <defs>
  <clipPath id="p86bd9b9493">
   <rect x="75.32875" y="7.2" width="788.6175" height="412.94"/>
  </clipPath>
 </defs>
</svg>
