<?xml version="1.0" encoding="utf-8" standalone="no"?>
<!DOCTYPE svg PUBLIC "-//W3C//DTD SVG 1.1//EN"
  "http://www.w3.org/Graphics/SVG/1.1/DTD/svg11.dtd">
<svg xmlns:xlink="http://www.w3.org/1999/xlink" width="871.14625pt" height="568.62pt" viewBox="0 0 871.14625 568.62" xmlns="http://www.w3.org/2000/svg" version="1.1">
 <metadata>
  <rdf:RDF xmlns:dc="http://purl.org/dc/elements/1.1/" xmlns:cc="http://creativecommons.org/ns#" xmlns:rdf="http://www.w3.org/1999/02/22-rdf-syntax-ns#">
   <cc:Work>
    <dc:type rdf:resource="http://purl.org/dc/dcmitype/StillImage"/>
    <dc:date>2025-06-03T14:30:35.411694</dc:date>
    <dc:format>image/svg+xml</dc:format>
    <dc:creator>
     <cc:Agent>
      <dc:title>Matplotlib v3.10.1, https://matplotlib.org/</dc:title>
     </cc:Agent>
    </dc:creator>
   </cc:Work>
  </rdf:RDF>
 </metadata>
 <defs>
  <style type="text/css">*{stroke-linejoin: round; stroke-linecap: butt}</style>
 </defs>
 <g id="figure_1">
  <g id="patch_1">
   <path d="M 0 568.62 
L 871.14625 568.62 
L 871.14625 0 
L 0 0 
z
" style="fill: #ffffff"/>
  </g>
  <g id="axes_1">
   <g id="patch_2">
    <path d="M 75.32875 420.14 
L 863.94625 420.14 
L 863.94625 7.2 
L 75.32875 7.2 
z
" style="fill: #ffffff"/>
   </g>
   <g id="FillBetweenPolyCollection_1">
    <path d="M 108.187813 147.70397 
L 108.187813 420.14 
L 110.605536 420.14 
L 113.02326 420.14 
L 115.440983 420.14 
L 117.858707 420.14 
L 120.276431 420.14 
L 122.694154 420.14 
L 125.111878 420.14 
L 127.529602 420.14 
L 129.947325 420.14 
L 132.365049 420.14 
L 134.782773 420.14 
L 137.200496 420.14 
L 139.61822 420.14 
L 142.035944 420.14 
L 144.453667 420.14 
L 146.871391 420.14 
L 149.289115 420.14 
L 151.706838 420.14 
L 154.124562 420.14 
L 156.542286 420.14 
L 158.960009 420.14 
L 161.377733 420.14 
L 163.795457 420.14 
L 166.21318 420.14 
L 168.630904 420.14 
L 171.048628 420.14 
L 173.466351 420.14 
L 175.884075 420.14 
L 178.301799 420.14 
L 180.719522 420.14 
L 183.137246 420.14 
L 185.55497 420.14 
L 187.972693 420.14 
L 190.390417 420.14 
L 192.808141 420.14 
L 195.225864 420.14 
L 197.643588 420.14 
L 200.061312 420.14 
L 202.479035 420.14 
L 204.896759 420.14 
L 207.314483 420.14 
L 209.732206 420.14 
L 212.14993 420.14 
L 214.567654 420.14 
L 216.985377 420.14 
L 219.403101 420.14 
L 221.820825 420.14 
L 224.238548 420.14 
L 226.656272 420.14 
L 229.073996 420.14 
L 231.491719 420.14 
L 233.909443 420.14 
L 236.327167 420.14 
L 238.74489 420.14 
L 241.162614 420.14 
L 243.580338 420.14 
L 245.998061 420.14 
L 248.415785 420.14 
L 250.833509 420.14 
L 253.251232 420.14 
L 255.668956 420.14 
L 258.08668 420.14 
L 260.504403 420.14 
L 262.922127 420.14 
L 265.339851 420.14 
L 267.757574 420.14 
L 270.175298 420.14 
L 272.593022 420.14 
L 275.010745 420.14 
L 277.428469 420.14 
L 279.846193 420.14 
L 282.263916 420.14 
L 284.68164 420.14 
L 287.099364 420.14 
L 289.517087 420.14 
L 291.934811 420.14 
L 294.352534 420.14 
L 296.770258 420.14 
L 299.187982 420.14 
L 301.605705 420.14 
L 304.023429 420.14 
L 306.441153 420.14 
L 308.858876 420.14 
L 311.2766 420.14 
L 313.694324 420.14 
L 316.112047 420.14 
L 318.529771 420.14 
L 320.947495 420.14 
L 323.365218 420.14 
L 325.782942 420.14 
L 328.200666 420.14 
L 330.618389 420.14 
L 333.036113 420.14 
L 335.453837 420.14 
L 337.87156 420.14 
L 340.289284 420.14 
L 342.707008 420.14 
L 345.124731 420.14 
L 347.542455 420.14 
L 349.960179 420.14 
L 352.377902 420.14 
L 354.795626 420.14 
L 357.21335 420.14 
L 359.631073 420.14 
L 362.048797 420.14 
L 364.466521 420.14 
L 366.884244 420.14 
L 369.301968 420.14 
L 371.719692 420.14 
L 374.137415 420.14 
L 376.555139 420.14 
L 378.972863 420.14 
L 381.390586 420.14 
L 383.80831 420.14 
L 386.226034 420.14 
L 388.643757 420.14 
L 391.061481 420.14 
L 393.479205 420.14 
L 395.896928 420.14 
L 398.314652 420.14 
L 400.732376 420.14 
L 403.150099 420.14 
L 405.567823 420.14 
L 407.985547 420.14 
L 410.40327 420.14 
L 412.820994 420.14 
L 415.238718 420.14 
L 417.656441 420.14 
L 420.074165 420.14 
L 422.491889 420.14 
L 424.909612 420.14 
L 427.327336 420.14 
L 429.74506 420.14 
L 432.162783 420.14 
L 434.580507 420.14 
L 436.998231 420.14 
L 439.415954 420.14 
L 441.833678 420.14 
L 444.251402 420.14 
L 446.669125 420.14 
L 449.086849 420.14 
L 451.504573 420.14 
L 453.922296 420.14 
L 456.34002 420.14 
L 458.757744 420.14 
L 461.175467 420.14 
L 463.593191 420.14 
L 466.010915 420.14 
L 468.428638 420.14 
L 470.846362 420.14 
L 473.264085 420.14 
L 475.681809 420.14 
L 478.099533 420.14 
L 480.517256 420.14 
L 482.93498 420.14 
L 485.352704 420.14 
L 487.770427 420.14 
L 490.188151 420.14 
L 492.605875 420.14 
L 495.023598 420.14 
L 497.441322 420.14 
L 499.859046 420.14 
L 502.276769 420.14 
L 504.694493 420.14 
L 507.112217 420.14 
L 509.52994 420.14 
L 511.947664 420.14 
L 514.365388 420.14 
L 516.783111 420.14 
L 519.200835 420.14 
L 521.618559 420.14 
L 524.036282 420.14 
L 526.454006 420.14 
L 528.87173 420.14 
L 531.289453 420.14 
L 533.707177 420.14 
L 536.124901 420.14 
L 538.542624 420.14 
L 540.960348 420.14 
L 543.378072 420.14 
L 545.795795 420.14 
L 548.213519 420.14 
L 550.631243 420.14 
L 553.048966 420.14 
L 555.46669 420.14 
L 557.884414 420.14 
L 560.302137 420.14 
L 562.719861 420.14 
L 565.137585 420.14 
L 567.555308 420.14 
L 569.973032 420.14 
L 572.390756 420.14 
L 574.808479 420.14 
L 577.226203 420.14 
L 579.643927 420.14 
L 582.06165 420.14 
L 584.479374 420.14 
L 586.897098 420.14 
L 589.314821 420.14 
L 591.732545 420.14 
L 594.150269 420.14 
L 596.567992 420.14 
L 598.985716 420.14 
L 601.40344 420.14 
L 603.821163 420.14 
L 606.238887 420.14 
L 608.656611 420.14 
L 611.074334 420.14 
L 613.492058 420.14 
L 615.909782 420.14 
L 618.327505 420.14 
L 620.745229 420.14 
L 623.162953 420.14 
L 625.580676 420.14 
L 627.9984 420.14 
L 630.416124 420.14 
L 632.833847 420.14 
L 635.251571 420.14 
L 637.669295 420.14 
L 640.087018 420.14 
L 642.504742 420.14 
L 644.922466 420.14 
L 647.340189 420.14 
L 649.757913 420.14 
L 652.175636 420.14 
L 654.59336 420.14 
L 657.011084 420.14 
L 659.428807 420.14 
L 661.846531 420.14 
L 664.264255 420.14 
L 666.681978 420.14 
L 669.099702 420.14 
L 671.517426 420.14 
L 673.935149 420.14 
L 676.352873 420.14 
L 678.770597 420.14 
L 681.18832 420.14 
L 683.606044 420.14 
L 686.023768 420.14 
L 688.441491 420.14 
L 690.859215 420.14 
L 693.276939 420.14 
L 695.694662 420.14 
L 698.112386 420.14 
L 700.53011 420.14 
L 702.947833 420.14 
L 705.365557 420.14 
L 707.783281 420.14 
L 710.201004 420.14 
L 712.618728 420.14 
L 715.036452 420.14 
L 717.454175 420.14 
L 719.871899 420.14 
L 722.289623 420.14 
L 724.707346 420.14 
L 727.12507 420.14 
L 729.542794 420.14 
L 731.960517 420.14 
L 734.378241 420.14 
L 736.795965 420.14 
L 739.213688 420.14 
L 741.631412 420.14 
L 744.049136 420.14 
L 746.466859 420.14 
L 748.884583 420.14 
L 751.302307 420.14 
L 753.72003 420.14 
L 756.137754 420.14 
L 758.555478 420.14 
L 760.973201 420.14 
L 763.390925 420.14 
L 765.808649 420.14 
L 768.226372 420.14 
L 770.644096 420.14 
L 773.06182 420.14 
L 775.479543 420.14 
L 777.897267 420.14 
L 780.314991 420.14 
L 782.732714 420.14 
L 785.150438 420.14 
L 787.568162 420.14 
L 789.985885 420.14 
L 792.403609 420.14 
L 794.821333 420.14 
L 797.239056 420.14 
L 799.65678 420.14 
L 802.074504 420.14 
L 804.492227 420.14 
L 806.909951 420.14 
L 809.327675 420.14 
L 811.745398 420.14 
L 814.163122 420.14 
L 816.580846 420.14 
L 818.998569 420.14 
L 821.416293 420.14 
L 823.834017 420.14 
L 826.25174 420.14 
L 828.669464 420.14 
L 831.087188 420.14 
L 831.087188 352.036771 
L 831.087188 352.036771 
L 828.669464 347.10731 
L 826.25174 342.5101 
L 823.834017 338.235961 
L 821.416293 334.275711 
L 818.998569 330.62017 
L 816.580846 327.260159 
L 814.163122 324.186495 
L 811.745398 321.39 
L 809.327675 318.861492 
L 806.909951 316.591792 
L 804.492227 314.953863 
L 802.074504 316.046624 
L 799.65678 316.840459 
L 797.239056 317.374556 
L 794.821333 317.67815 
L 792.403609 317.772974 
L 789.985885 317.674957 
L 787.568162 317.395416 
L 785.150438 316.941902 
L 782.732714 316.318797 
L 780.314991 315.527739 
L 777.897267 314.567903 
L 775.479543 313.436188 
L 773.06182 312.12732 
L 770.644096 310.633883 
L 768.226372 308.946304 
L 765.808649 308.708495 
L 763.390925 309.527463 
L 760.973201 310.43081 
L 758.555478 311.409354 
L 756.137754 312.453916 
L 753.72003 313.555314 
L 751.302307 314.704369 
L 748.884583 315.891901 
L 746.466859 317.108727 
L 744.049136 318.345669 
L 741.631412 319.593546 
L 739.213688 320.843177 
L 736.795965 322.085382 
L 734.378241 323.31098 
L 731.960517 324.51079 
L 729.542794 325.675634 
L 727.12507 326.796329 
L 724.707346 327.863696 
L 722.289623 328.868553 
L 719.871899 329.801722 
L 717.454175 330.65402 
L 715.036452 331.416268 
L 712.618728 332.079285 
L 710.201004 332.633891 
L 707.783281 333.070906 
L 705.365557 333.381148 
L 702.947833 333.555437 
L 700.53011 333.584594 
L 698.112386 333.459747 
L 695.694662 333.176071 
L 693.276939 332.731563 
L 690.859215 332.124282 
L 688.441491 331.352284 
L 686.023768 330.413626 
L 683.606044 329.306366 
L 681.18832 328.028562 
L 678.770597 326.578269 
L 676.352873 324.953545 
L 673.935149 323.152449 
L 671.517426 321.173035 
L 669.099702 319.013363 
L 666.681978 316.671489 
L 664.264255 314.14547 
L 661.846531 311.433363 
L 659.428807 308.533227 
L 657.011084 305.443117 
L 654.59336 302.161091 
L 652.175636 298.685206 
L 649.757913 295.01352 
L 647.340189 291.144089 
L 644.922466 287.074971 
L 642.504742 282.804224 
L 640.087018 278.329903 
L 637.669295 273.650067 
L 635.251571 268.762772 
L 632.833847 263.666696 
L 630.416124 258.378333 
L 627.9984 252.934244 
L 625.580676 247.372058 
L 623.162953 241.729404 
L 620.745229 236.043912 
L 618.327505 230.353213 
L 615.909782 224.694935 
L 613.492058 219.106708 
L 611.074334 213.626163 
L 608.656611 208.290928 
L 606.238887 203.138634 
L 603.821163 198.206911 
L 601.40344 193.533387 
L 598.985716 189.155693 
L 596.567992 185.111458 
L 594.150269 181.438312 
L 591.732545 178.173885 
L 589.314821 175.355807 
L 586.897098 173.021706 
L 584.479374 171.209214 
L 582.06165 169.955959 
L 579.643927 169.299571 
L 577.226203 169.277681 
L 574.808479 169.927917 
L 572.390756 171.287909 
L 569.973032 173.395288 
L 567.555308 176.287346 
L 565.137585 179.968586 
L 562.719861 184.383661 
L 560.302137 189.470853 
L 557.884414 195.168446 
L 555.46669 201.414723 
L 553.048966 208.147967 
L 550.631243 215.306461 
L 548.213519 222.82849 
L 545.795795 230.652335 
L 543.378072 238.716281 
L 540.960348 246.958611 
L 538.542624 255.317607 
L 536.124901 263.731553 
L 533.707177 272.138732 
L 531.289453 280.477429 
L 528.87173 288.685925 
L 526.454006 296.702504 
L 524.036282 304.465449 
L 521.618559 311.913044 
L 519.200835 318.983572 
L 516.783111 325.615315 
L 514.365388 331.746559 
L 511.947664 337.315584 
L 509.52994 342.260676 
L 507.112217 346.520117 
L 504.694493 350.03219 
L 502.276769 352.735193 
L 499.859046 354.591642 
L 497.441322 355.637963 
L 495.023598 355.92463 
L 492.605875 355.502117 
L 490.188151 354.420897 
L 487.770427 352.731446 
L 485.352704 350.484236 
L 482.93498 347.729742 
L 480.517256 344.518437 
L 478.099533 340.900796 
L 475.681809 336.927292 
L 473.264085 332.6484 
L 470.846362 328.114593 
L 468.428638 323.376345 
L 466.010915 318.48413 
L 463.593191 313.488423 
L 461.175467 308.439697 
L 458.757744 303.388426 
L 456.34002 298.385084 
L 453.922296 293.480145 
L 451.504573 288.724083 
L 449.086849 284.167372 
L 446.669125 279.860485 
L 444.251402 275.853897 
L 441.833678 272.198082 
L 439.415954 268.943514 
L 436.998231 266.140666 
L 434.580507 263.830089 
L 432.162783 262.000122 
L 429.74506 260.621997 
L 427.327336 259.666935 
L 424.909612 259.106156 
L 422.491889 258.910883 
L 420.074165 259.052336 
L 417.656441 259.501736 
L 415.238718 260.230304 
L 412.820994 261.209262 
L 410.40327 262.40983 
L 407.985547 263.803231 
L 405.567823 265.360684 
L 403.150099 267.053411 
L 400.732376 268.852634 
L 398.314652 270.729573 
L 395.896928 272.65545 
L 393.479205 274.601485 
L 391.061481 276.5389 
L 388.643757 278.438915 
L 386.226034 280.272753 
L 383.80831 282.011634 
L 381.390586 283.62678 
L 378.972863 285.08941 
L 376.555139 286.370748 
L 374.137415 287.442013 
L 371.719692 288.274426 
L 369.301968 288.841677 
L 366.884244 289.140627 
L 364.466521 289.18084 
L 362.048797 288.972008 
L 359.631073 288.523824 
L 357.21335 287.845979 
L 354.795626 286.948166 
L 352.377902 285.840078 
L 349.960179 284.531406 
L 347.542455 283.031844 
L 345.124731 281.351084 
L 342.707008 279.498817 
L 340.289284 277.484737 
L 337.87156 275.318535 
L 335.453837 273.009905 
L 333.036113 270.568538 
L 330.618389 268.004127 
L 328.200666 265.326364 
L 325.782942 262.544941 
L 323.365218 259.669552 
L 320.947495 256.709888 
L 318.529771 253.675642 
L 316.112047 250.576506 
L 313.694324 247.422173 
L 311.2766 244.222334 
L 308.858876 240.986683 
L 306.441153 237.724912 
L 304.023429 234.446805 
L 301.605705 231.163891 
L 299.187982 227.889246 
L 296.770258 224.635998 
L 294.352534 221.417276 
L 291.934811 218.24621 
L 289.517087 215.13593 
L 287.099364 212.099563 
L 284.68164 209.15024 
L 282.263916 206.301089 
L 279.846193 203.565241 
L 277.428469 200.955823 
L 275.010745 198.485965 
L 272.593022 196.168797 
L 270.175298 194.017447 
L 267.757574 192.045045 
L 265.339851 190.26472 
L 262.922127 188.689601 
L 260.504403 187.332817 
L 258.08668 186.207498 
L 255.668956 185.326772 
L 253.251232 184.70377 
L 250.833509 184.351619 
L 248.415785 184.28345 
L 245.998061 184.512391 
L 243.580338 185.051572 
L 241.162614 185.914121 
L 238.74489 187.112879 
L 236.327167 188.64657 
L 233.909443 190.493732 
L 231.491719 192.631354 
L 229.073996 195.036423 
L 226.656272 197.685925 
L 224.238548 200.556849 
L 221.820825 203.626182 
L 219.403101 206.87091 
L 216.985377 210.268022 
L 214.567654 213.794504 
L 212.14993 217.427344 
L 209.732206 221.143529 
L 207.314483 224.920047 
L 204.896759 228.733884 
L 202.479035 232.562029 
L 200.061312 236.381468 
L 197.643588 240.169188 
L 195.225864 243.902178 
L 192.808141 247.557424 
L 190.390417 251.111914 
L 187.972693 254.542635 
L 185.55497 257.826574 
L 183.137246 260.940719 
L 180.719522 263.862056 
L 178.301799 266.567574 
L 175.884075 269.03426 
L 173.466351 271.2391 
L 171.048628 273.159083 
L 168.630904 274.771195 
L 166.21318 276.052423 
L 163.795457 276.979756 
L 161.377733 277.530181 
L 158.960009 277.680684 
L 156.542286 277.408253 
L 154.124562 276.689875 
L 151.706838 275.502539 
L 149.289115 273.82323 
L 146.871391 271.628936 
L 144.453667 268.896645 
L 142.035944 265.603345 
L 139.61822 261.726021 
L 137.200496 257.241662 
L 134.782773 252.127254 
L 132.365049 246.359786 
L 129.947325 239.916245 
L 127.529602 232.773617 
L 125.111878 224.908891 
L 122.694154 216.299052 
L 120.276431 206.92109 
L 117.858707 196.751991 
L 115.440983 185.768742 
L 113.02326 173.94833 
L 110.605536 161.267744 
L 108.187813 147.70397 
z
" clip-path="url(#p080db91461)" style="fill: #215f53"/>
   </g>
   <g id="FillBetweenPolyCollection_2">
    <path d="M 108.187813 50.104179 
L 108.187813 147.70397 
L 110.605536 161.267744 
L 113.02326 173.94833 
L 115.440983 185.768742 
L 117.858707 196.751991 
L 120.276431 206.92109 
L 122.694154 216.299052 
L 125.111878 224.908891 
L 127.529602 232.773617 
L 129.947325 239.916245 
L 132.365049 246.359786 
L 134.782773 252.127254 
L 137.200496 257.241662 
L 139.61822 261.726021 
L 142.035944 265.603345 
L 144.453667 268.896645 
L 146.871391 271.628936 
L 149.289115 273.82323 
L 151.706838 275.502539 
L 154.124562 276.689875 
L 156.542286 277.408253 
L 158.960009 277.680684 
L 161.377733 277.530181 
L 163.795457 276.979756 
L 166.21318 276.052423 
L 168.630904 274.771195 
L 171.048628 273.159083 
L 173.466351 271.2391 
L 175.884075 269.03426 
L 178.301799 266.567574 
L 180.719522 263.862056 
L 183.137246 260.940719 
L 185.55497 257.826574 
L 187.972693 254.542635 
L 190.390417 251.111914 
L 192.808141 247.557424 
L 195.225864 243.902178 
L 197.643588 240.169188 
L 200.061312 236.381468 
L 202.479035 232.562029 
L 204.896759 228.733884 
L 207.314483 224.920047 
L 209.732206 221.143529 
L 212.14993 217.427344 
L 214.567654 213.794504 
L 216.985377 210.268022 
L 219.403101 206.87091 
L 221.820825 203.626182 
L 224.238548 200.556849 
L 226.656272 197.685925 
L 229.073996 195.036423 
L 231.491719 192.631354 
L 233.909443 190.493732 
L 236.327167 188.64657 
L 238.74489 187.112879 
L 241.162614 185.914121 
L 243.580338 185.051572 
L 245.998061 184.512391 
L 248.415785 184.28345 
L 250.833509 184.351619 
L 253.251232 184.70377 
L 255.668956 185.326772 
L 258.08668 186.207498 
L 260.504403 187.332817 
L 262.922127 188.689601 
L 265.339851 190.26472 
L 267.757574 192.045045 
L 270.175298 194.017447 
L 272.593022 196.168797 
L 275.010745 198.485965 
L 277.428469 200.955823 
L 279.846193 203.565241 
L 282.263916 206.301089 
L 284.68164 209.15024 
L 287.099364 212.099563 
L 289.517087 215.13593 
L 291.934811 218.24621 
L 294.352534 221.417276 
L 296.770258 224.635998 
L 299.187982 227.889246 
L 301.605705 231.163891 
L 304.023429 234.446805 
L 306.441153 237.724912 
L 308.858876 240.986683 
L 311.2766 244.222334 
L 313.694324 247.422173 
L 316.112047 250.576506 
L 318.529771 253.675642 
L 320.947495 256.709888 
L 323.365218 259.669552 
L 325.782942 262.544941 
L 328.200666 265.326364 
L 330.618389 268.004127 
L 333.036113 270.568538 
L 335.453837 273.009905 
L 337.87156 275.318535 
L 340.289284 277.484737 
L 342.707008 279.498817 
L 345.124731 281.351084 
L 347.542455 283.031844 
L 349.960179 284.531406 
L 352.377902 285.840078 
L 354.795626 286.948166 
L 357.21335 287.845979 
L 359.631073 288.523824 
L 362.048797 288.972008 
L 364.466521 289.18084 
L 366.884244 289.140627 
L 369.301968 288.841677 
L 371.719692 288.274426 
L 374.137415 287.442013 
L 376.555139 286.370748 
L 378.972863 285.08941 
L 381.390586 283.62678 
L 383.80831 282.011634 
L 386.226034 280.272753 
L 388.643757 278.438915 
L 391.061481 276.5389 
L 393.479205 274.601485 
L 395.896928 272.65545 
L 398.314652 270.729573 
L 400.732376 268.852634 
L 403.150099 267.053411 
L 405.567823 265.360684 
L 407.985547 263.803231 
L 410.40327 262.40983 
L 412.820994 261.209262 
L 415.238718 260.230304 
L 417.656441 259.501736 
L 420.074165 259.052336 
L 422.491889 258.910883 
L 424.909612 259.106156 
L 427.327336 259.666935 
L 429.74506 260.621997 
L 432.162783 262.000122 
L 434.580507 263.830089 
L 436.998231 266.140666 
L 439.415954 268.943514 
L 441.833678 272.198082 
L 444.251402 275.853897 
L 446.669125 279.860485 
L 449.086849 284.167372 
L 451.504573 288.724083 
L 453.922296 293.480145 
L 456.34002 298.385084 
L 458.757744 303.388426 
L 461.175467 308.439697 
L 463.593191 313.488423 
L 466.010915 318.48413 
L 468.428638 323.376345 
L 470.846362 328.114593 
L 473.264085 332.6484 
L 475.681809 336.927292 
L 478.099533 340.900796 
L 480.517256 344.518437 
L 482.93498 347.729742 
L 485.352704 350.484236 
L 487.770427 352.731446 
L 490.188151 354.420897 
L 492.605875 355.502117 
L 495.023598 355.92463 
L 497.441322 355.637963 
L 499.859046 354.591642 
L 502.276769 352.735193 
L 504.694493 350.03219 
L 507.112217 346.520117 
L 509.52994 342.260676 
L 511.947664 337.315584 
L 514.365388 331.746559 
L 516.783111 325.615315 
L 519.200835 318.983572 
L 521.618559 311.913044 
L 524.036282 304.465449 
L 526.454006 296.702504 
L 528.87173 288.685925 
L 531.289453 280.477429 
L 533.707177 272.138732 
L 536.124901 263.731553 
L 538.542624 255.317607 
L 540.960348 246.958611 
L 543.378072 238.716281 
L 545.795795 230.652335 
L 548.213519 222.82849 
L 550.631243 215.306461 
L 553.048966 208.147967 
L 555.46669 201.414723 
L 557.884414 195.168446 
L 560.302137 189.470853 
L 562.719861 184.383661 
L 565.137585 179.968586 
L 567.555308 176.287346 
L 569.973032 173.395288 
L 572.390756 171.287909 
L 574.808479 169.927917 
L 577.226203 169.277681 
L 579.643927 169.299571 
L 582.06165 169.955959 
L 584.479374 171.209214 
L 586.897098 173.021706 
L 589.314821 175.355807 
L 591.732545 178.173885 
L 594.150269 181.438312 
L 596.567992 185.111458 
L 598.985716 189.155693 
L 601.40344 193.533387 
L 603.821163 198.206911 
L 606.238887 203.138634 
L 608.656611 208.290928 
L 611.074334 213.626163 
L 613.492058 219.106708 
L 615.909782 224.694935 
L 618.327505 230.353213 
L 620.745229 236.043912 
L 623.162953 241.729404 
L 625.580676 247.372058 
L 627.9984 252.934244 
L 630.416124 258.378333 
L 632.833847 263.666696 
L 635.251571 268.762772 
L 637.669295 273.650067 
L 640.087018 278.329903 
L 642.504742 282.804224 
L 644.922466 287.074971 
L 647.340189 291.144089 
L 649.757913 295.01352 
L 652.175636 298.685206 
L 654.59336 302.161091 
L 657.011084 305.443117 
L 659.428807 308.533227 
L 661.846531 311.433363 
L 664.264255 314.14547 
L 666.681978 316.671489 
L 669.099702 319.013363 
L 671.517426 321.173035 
L 673.935149 323.152449 
L 676.352873 324.953545 
L 678.770597 326.578269 
L 681.18832 328.028562 
L 683.606044 329.306366 
L 686.023768 330.413626 
L 688.441491 331.352284 
L 690.859215 332.124282 
L 693.276939 332.731563 
L 695.694662 333.176071 
L 698.112386 333.459747 
L 700.53011 333.584594 
L 702.947833 333.555437 
L 705.365557 333.381148 
L 707.783281 333.070906 
L 710.201004 332.633891 
L 712.618728 332.079285 
L 715.036452 331.416268 
L 717.454175 330.65402 
L 719.871899 329.801722 
L 722.289623 328.868553 
L 724.707346 327.863696 
L 727.12507 326.796329 
L 729.542794 325.675634 
L 731.960517 324.51079 
L 734.378241 323.31098 
L 736.795965 322.085382 
L 739.213688 320.843177 
L 741.631412 319.593546 
L 744.049136 318.345669 
L 746.466859 317.108727 
L 748.884583 315.891901 
L 751.302307 314.704369 
L 753.72003 313.555314 
L 756.137754 312.453916 
L 758.555478 311.409354 
L 760.973201 310.43081 
L 763.390925 309.527463 
L 765.808649 308.708495 
L 768.226372 308.946304 
L 770.644096 310.633883 
L 773.06182 312.12732 
L 775.479543 313.436188 
L 777.897267 314.567903 
L 780.314991 315.527739 
L 782.732714 316.318797 
L 785.150438 316.941902 
L 787.568162 317.395416 
L 789.985885 317.674957 
L 792.403609 317.772974 
L 794.821333 317.67815 
L 797.239056 317.374556 
L 799.65678 316.840459 
L 802.074504 316.046624 
L 804.492227 314.953863 
L 806.909951 316.591792 
L 809.327675 318.861492 
L 811.745398 321.39 
L 814.163122 324.186495 
L 816.580846 327.260159 
L 818.998569 330.62017 
L 821.416293 334.275711 
L 823.834017 338.235961 
L 826.25174 342.5101 
L 828.669464 347.10731 
L 831.087188 352.036771 
L 831.087188 288.697591 
L 831.087188 288.697591 
L 828.669464 252.51417 
L 826.25174 219.003767 
L 823.834017 188.092074 
L 821.416293 159.704781 
L 818.998569 133.76758 
L 816.580846 110.206162 
L 814.163122 88.946219 
L 811.745398 69.913442 
L 809.327675 53.033523 
L 806.909951 38.232152 
L 804.492227 26.86381 
L 802.074504 26.86381 
L 799.65678 26.86381 
L 797.239056 26.86381 
L 794.821333 26.86381 
L 792.403609 26.86381 
L 789.985885 26.86381 
L 787.568162 26.86381 
L 785.150438 26.86381 
L 782.732714 26.86381 
L 780.314991 26.86381 
L 777.897267 26.86381 
L 775.479543 26.86381 
L 773.06182 26.86381 
L 770.644096 26.86381 
L 768.226372 26.86381 
L 765.808649 32.621788 
L 763.390925 42.527524 
L 760.973201 53.099947 
L 758.555478 64.264745 
L 756.137754 75.947612 
L 753.72003 88.074238 
L 751.302307 100.570315 
L 748.884583 113.361534 
L 746.466859 126.373587 
L 744.049136 139.532165 
L 741.631412 152.762959 
L 739.213688 165.99166 
L 736.795965 179.143961 
L 734.378241 192.145553 
L 731.960517 204.922126 
L 729.542794 217.399373 
L 727.12507 229.502984 
L 724.707346 241.158652 
L 722.289623 252.292067 
L 719.871899 262.828921 
L 717.454175 272.694905 
L 715.036452 281.81571 
L 712.618728 290.117029 
L 710.201004 297.524552 
L 707.783281 303.963971 
L 705.365557 309.360977 
L 702.947833 313.641262 
L 700.53011 316.730516 
L 698.112386 318.560499 
L 695.694662 319.141852 
L 693.276939 318.540386 
L 690.859215 316.823039 
L 688.441491 314.056755 
L 686.023768 310.308473 
L 683.606044 305.645135 
L 681.18832 300.133681 
L 678.770597 293.841053 
L 676.352873 286.834192 
L 673.935149 279.180037 
L 671.517426 270.945531 
L 669.099702 262.197615 
L 666.681978 253.003228 
L 664.264255 243.429313 
L 661.846531 233.54281 
L 659.428807 223.41066 
L 657.011084 213.099804 
L 654.59336 202.677183 
L 652.175636 192.209738 
L 649.757913 181.76441 
L 647.340189 171.40814 
L 644.922466 161.207869 
L 642.504742 151.230537 
L 640.087018 141.543086 
L 637.669295 132.212457 
L 635.251571 123.30559 
L 632.833847 114.888187 
L 630.416124 106.990267 
L 627.9984 99.601677 
L 625.580676 92.710116 
L 623.162953 86.303289 
L 620.745229 80.368896 
L 618.327505 74.894639 
L 615.909782 69.868221 
L 613.492058 65.277343 
L 611.074334 61.109708 
L 608.656611 57.353016 
L 606.238887 53.994971 
L 603.821163 51.023274 
L 601.40344 48.425627 
L 598.985716 46.189733 
L 596.567992 44.303292 
L 594.150269 42.754007 
L 591.732545 41.529579 
L 589.314821 40.617712 
L 586.897098 40.006106 
L 584.479374 39.682464 
L 582.06165 39.634487 
L 579.643927 39.849878 
L 577.226203 40.316338 
L 574.808479 41.02157 
L 572.390756 41.953275 
L 569.973032 43.099155 
L 567.555308 44.446896 
L 565.137585 45.982533 
L 562.719861 47.689091 
L 560.302137 49.549276 
L 557.884414 51.545794 
L 555.46669 53.661348 
L 553.048966 55.878646 
L 550.631243 58.180391 
L 548.213519 60.54929 
L 545.795795 62.968047 
L 543.378072 65.419367 
L 540.960348 67.885957 
L 538.542624 70.35052 
L 536.124901 72.795764 
L 533.707177 75.204391 
L 531.289453 77.559109 
L 528.87173 79.842622 
L 526.454006 82.037636 
L 524.036282 84.126855 
L 521.618559 86.092985 
L 519.200835 87.918731 
L 516.783111 89.586798 
L 514.365388 91.079893 
L 511.947664 92.380719 
L 509.52994 93.471983 
L 507.112217 94.336389 
L 504.694493 94.956642 
L 502.276769 95.315454 
L 499.859046 95.404109 
L 497.441322 95.240065 
L 495.023598 94.84575 
L 492.605875 94.243595 
L 490.188151 93.45603 
L 487.770427 92.505486 
L 485.352704 91.414393 
L 482.93498 90.20518 
L 480.517256 88.900278 
L 478.099533 87.522117 
L 475.681809 86.093127 
L 473.264085 84.635739 
L 470.846362 83.172382 
L 468.428638 81.725487 
L 466.010915 80.317484 
L 463.593191 78.970803 
L 461.175467 77.707875 
L 458.757744 76.551128 
L 456.34002 75.522994 
L 453.922296 74.645903 
L 451.504573 73.942285 
L 449.086849 73.43457 
L 446.669125 73.145188 
L 444.251402 73.09657 
L 441.833678 73.311145 
L 439.415954 73.811344 
L 436.998231 74.619596 
L 434.580507 75.752202 
L 432.162783 77.193204 
L 429.74506 78.916076 
L 427.327336 80.894286 
L 424.909612 83.101301 
L 422.491889 85.510588 
L 420.074165 88.095615 
L 417.656441 90.829849 
L 415.238718 93.686758 
L 412.820994 96.639809 
L 410.40327 99.66247 
L 407.985547 102.728207 
L 405.567823 105.810489 
L 403.150099 108.882783 
L 400.732376 111.918556 
L 398.314652 114.891275 
L 395.896928 117.774409 
L 393.479205 120.541425 
L 391.061481 123.165789 
L 388.643757 125.62097 
L 386.226034 127.880435 
L 383.80831 129.917651 
L 381.390586 131.706085 
L 378.972863 133.219206 
L 376.555139 134.430481 
L 374.137415 135.313376 
L 371.719692 135.84136 
L 369.301968 135.991315 
L 366.884244 135.772208 
L 364.466521 135.210589 
L 362.048797 134.333185 
L 359.631073 133.166727 
L 357.21335 131.737942 
L 354.795626 130.073558 
L 352.377902 128.200306 
L 349.960179 126.144913 
L 347.542455 123.934107 
L 345.124731 121.594618 
L 342.707008 119.153175 
L 340.289284 116.636505 
L 337.87156 114.071338 
L 335.453837 111.484402 
L 333.036113 108.902426 
L 330.618389 106.352138 
L 328.200666 103.860267 
L 325.782942 101.453542 
L 323.365218 99.158692 
L 320.947495 97.002444 
L 318.529771 95.011528 
L 316.112047 93.212673 
L 313.694324 91.632607 
L 311.2766 90.298058 
L 308.858876 89.235755 
L 306.441153 88.472428 
L 304.023429 88.033549 
L 301.605705 87.921079 
L 299.187982 88.116093 
L 296.770258 88.598941 
L 294.352534 89.349972 
L 291.934811 90.349535 
L 289.517087 91.577981 
L 287.099364 93.015658 
L 284.68164 94.642916 
L 282.263916 96.440105 
L 279.846193 98.387575 
L 277.428469 100.465674 
L 275.010745 102.654752 
L 272.593022 104.93516 
L 270.175298 107.287245 
L 267.757574 109.691359 
L 265.339851 112.12785 
L 262.922127 114.577067 
L 260.504403 117.019361 
L 258.08668 119.435082 
L 255.668956 121.804577 
L 253.251232 124.108198 
L 250.833509 126.326293 
L 248.415785 128.439212 
L 245.998061 130.427305 
L 243.580338 132.270921 
L 241.162614 133.95041 
L 238.74489 135.446316 
L 236.327167 136.748686 
L 233.909443 137.861154 
L 231.491719 138.788402 
L 229.073996 139.535108 
L 226.656272 140.105952 
L 224.238548 140.505615 
L 221.820825 140.738775 
L 219.403101 140.810114 
L 216.985377 140.72431 
L 214.567654 140.486043 
L 212.14993 140.099994 
L 209.732206 139.570842 
L 207.314483 138.903267 
L 204.896759 138.101949 
L 202.479035 137.171568 
L 200.061312 136.116803 
L 197.643588 134.942334 
L 195.225864 133.652841 
L 192.808141 132.253004 
L 190.390417 130.747503 
L 187.972693 129.141017 
L 185.55497 127.438227 
L 183.137246 125.643812 
L 180.719522 123.762452 
L 178.301799 121.798827 
L 175.884075 119.757617 
L 173.466351 117.643501 
L 171.048628 115.46116 
L 168.630904 113.215272 
L 166.21318 110.910519 
L 163.795457 108.551579 
L 161.377733 106.143134 
L 158.960009 103.689861 
L 156.542286 101.196442 
L 154.124562 98.667556 
L 151.706838 96.107883 
L 149.289115 93.522102 
L 146.871391 90.914895 
L 144.453667 88.290939 
L 142.035944 85.654916 
L 139.61822 83.011505 
L 137.200496 80.365386 
L 134.782773 77.721238 
L 132.365049 75.083742 
L 129.947325 72.457578 
L 127.529602 69.847424 
L 125.111878 67.257962 
L 122.694154 64.693871 
L 120.276431 62.15983 
L 117.858707 59.660519 
L 115.440983 57.200619 
L 113.02326 54.784809 
L 110.605536 52.417769 
L 108.187813 50.104179 
z
" clip-path="url(#p080db91461)" style="fill: #7570b3"/>
   </g>
   <g id="FillBetweenPolyCollection_3">
    <path d="M 108.187813 26.86381 
L 108.187813 50.104179 
L 110.605536 52.417769 
L 113.02326 54.784809 
L 115.440983 57.200619 
L 117.858707 59.660519 
L 120.276431 62.15983 
L 122.694154 64.693871 
L 125.111878 67.257962 
L 127.529602 69.847424 
L 129.947325 72.457578 
L 132.365049 75.083742 
L 134.782773 77.721238 
L 137.200496 80.365386 
L 139.61822 83.011505 
L 142.035944 85.654916 
L 144.453667 88.290939 
L 146.871391 90.914895 
L 149.289115 93.522102 
L 151.706838 96.107883 
L 154.124562 98.667556 
L 156.542286 101.196442 
L 158.960009 103.689861 
L 161.377733 106.143134 
L 163.795457 108.551579 
L 166.21318 110.910519 
L 168.630904 113.215272 
L 171.048628 115.46116 
L 173.466351 117.643501 
L 175.884075 119.757617 
L 178.301799 121.798827 
L 180.719522 123.762452 
L 183.137246 125.643812 
L 185.55497 127.438227 
L 187.972693 129.141017 
L 190.390417 130.747503 
L 192.808141 132.253004 
L 195.225864 133.652841 
L 197.643588 134.942334 
L 200.061312 136.116803 
L 202.479035 137.171568 
L 204.896759 138.101949 
L 207.314483 138.903267 
L 209.732206 139.570842 
L 212.14993 140.099994 
L 214.567654 140.486043 
L 216.985377 140.72431 
L 219.403101 140.810114 
L 221.820825 140.738775 
L 224.238548 140.505615 
L 226.656272 140.105952 
L 229.073996 139.535108 
L 231.491719 138.788402 
L 233.909443 137.861154 
L 236.327167 136.748686 
L 238.74489 135.446316 
L 241.162614 133.95041 
L 243.580338 132.270921 
L 245.998061 130.427305 
L 248.415785 128.439212 
L 250.833509 126.326293 
L 253.251232 124.108198 
L 255.668956 121.804577 
L 258.08668 119.435082 
L 260.504403 117.019361 
L 262.922127 114.577067 
L 265.339851 112.12785 
L 267.757574 109.691359 
L 270.175298 107.287245 
L 272.593022 104.93516 
L 275.010745 102.654752 
L 277.428469 100.465674 
L 279.846193 98.387575 
L 282.263916 96.440105 
L 284.68164 94.642916 
L 287.099364 93.015658 
L 289.517087 91.577981 
L 291.934811 90.349535 
L 294.352534 89.349972 
L 296.770258 88.598941 
L 299.187982 88.116093 
L 301.605705 87.921079 
L 304.023429 88.033549 
L 306.441153 88.472428 
L 308.858876 89.235755 
L 311.2766 90.298058 
L 313.694324 91.632607 
L 316.112047 93.212673 
L 318.529771 95.011528 
L 320.947495 97.002444 
L 323.365218 99.158692 
L 325.782942 101.453542 
L 328.200666 103.860267 
L 330.618389 106.352138 
L 333.036113 108.902426 
L 335.453837 111.484402 
L 337.87156 114.071338 
L 340.289284 116.636505 
L 342.707008 119.153175 
L 345.124731 121.594618 
L 347.542455 123.934107 
L 349.960179 126.144913 
L 352.377902 128.200306 
L 354.795626 130.073558 
L 357.21335 131.737942 
L 359.631073 133.166727 
L 362.048797 134.333185 
L 364.466521 135.210589 
L 366.884244 135.772208 
L 369.301968 135.991315 
L 371.719692 135.84136 
L 374.137415 135.313376 
L 376.555139 134.430481 
L 378.972863 133.219206 
L 381.390586 131.706085 
L 383.80831 129.917651 
L 386.226034 127.880435 
L 388.643757 125.62097 
L 391.061481 123.165789 
L 393.479205 120.541425 
L 395.896928 117.774409 
L 398.314652 114.891275 
L 400.732376 111.918556 
L 403.150099 108.882783 
L 405.567823 105.810489 
L 407.985547 102.728207 
L 410.40327 99.66247 
L 412.820994 96.639809 
L 415.238718 93.686758 
L 417.656441 90.829849 
L 420.074165 88.095615 
L 422.491889 85.510588 
L 424.909612 83.101301 
L 427.327336 80.894286 
L 429.74506 78.916076 
L 432.162783 77.193204 
L 434.580507 75.752202 
L 436.998231 74.619596 
L 439.415954 73.811344 
L 441.833678 73.311145 
L 444.251402 73.09657 
L 446.669125 73.145188 
L 449.086849 73.43457 
L 451.504573 73.942285 
L 453.922296 74.645903 
L 456.34002 75.522994 
L 458.757744 76.551128 
L 461.175467 77.707875 
L 463.593191 78.970803 
L 466.010915 80.317484 
L 468.428638 81.725487 
L 470.846362 83.172382 
L 473.264085 84.635739 
L 475.681809 86.093127 
L 478.099533 87.522117 
L 480.517256 88.900278 
L 482.93498 90.20518 
L 485.352704 91.414393 
L 487.770427 92.505486 
L 490.188151 93.45603 
L 492.605875 94.243595 
L 495.023598 94.84575 
L 497.441322 95.240065 
L 499.859046 95.404109 
L 502.276769 95.315454 
L 504.694493 94.956642 
L 507.112217 94.336389 
L 509.52994 93.471983 
L 511.947664 92.380719 
L 514.365388 91.079893 
L 516.783111 89.586798 
L 519.200835 87.918731 
L 521.618559 86.092985 
L 524.036282 84.126855 
L 526.454006 82.037636 
L 528.87173 79.842622 
L 531.289453 77.559109 
L 533.707177 75.204391 
L 536.124901 72.795764 
L 538.542624 70.35052 
L 540.960348 67.885957 
L 543.378072 65.419367 
L 545.795795 62.968047 
L 548.213519 60.54929 
L 550.631243 58.180391 
L 553.048966 55.878646 
L 555.46669 53.661348 
L 557.884414 51.545794 
L 560.302137 49.549276 
L 562.719861 47.689091 
L 565.137585 45.982533 
L 567.555308 44.446896 
L 569.973032 43.099155 
L 572.390756 41.953275 
L 574.808479 41.02157 
L 577.226203 40.316338 
L 579.643927 39.849878 
L 582.06165 39.634487 
L 584.479374 39.682464 
L 586.897098 40.006106 
L 589.314821 40.617712 
L 591.732545 41.529579 
L 594.150269 42.754007 
L 596.567992 44.303292 
L 598.985716 46.189733 
L 601.40344 48.425627 
L 603.821163 51.023274 
L 606.238887 53.994971 
L 608.656611 57.353016 
L 611.074334 61.109708 
L 613.492058 65.277343 
L 615.909782 69.868221 
L 618.327505 74.894639 
L 620.745229 80.368896 
L 623.162953 86.303289 
L 625.580676 92.710116 
L 627.9984 99.601677 
L 630.416124 106.990267 
L 632.833847 114.888187 
L 635.251571 123.30559 
L 637.669295 132.212457 
L 640.087018 141.543086 
L 642.504742 151.230537 
L 644.922466 161.207869 
L 647.340189 171.40814 
L 649.757913 181.76441 
L 652.175636 192.209738 
L 654.59336 202.677183 
L 657.011084 213.099804 
L 659.428807 223.41066 
L 661.846531 233.54281 
L 664.264255 243.429313 
L 666.681978 253.003228 
L 669.099702 262.197615 
L 671.517426 270.945531 
L 673.935149 279.180037 
L 676.352873 286.834192 
L 678.770597 293.841053 
L 681.18832 300.133681 
L 683.606044 305.645135 
L 686.023768 310.308473 
L 688.441491 314.056755 
L 690.859215 316.823039 
L 693.276939 318.540386 
L 695.694662 319.141852 
L 698.112386 318.560499 
L 700.53011 316.730516 
L 702.947833 313.641262 
L 705.365557 309.360977 
L 707.783281 303.963971 
L 710.201004 297.524552 
L 712.618728 290.117029 
L 715.036452 281.81571 
L 717.454175 272.694905 
L 719.871899 262.828921 
L 722.289623 252.292067 
L 724.707346 241.158652 
L 727.12507 229.502984 
L 729.542794 217.399373 
L 731.960517 204.922126 
L 734.378241 192.145553 
L 736.795965 179.143961 
L 739.213688 165.99166 
L 741.631412 152.762959 
L 744.049136 139.532165 
L 746.466859 126.373587 
L 748.884583 113.361534 
L 751.302307 100.570315 
L 753.72003 88.074238 
L 756.137754 75.947612 
L 758.555478 64.264745 
L 760.973201 53.099947 
L 763.390925 42.527524 
L 765.808649 32.621788 
L 768.226372 26.86381 
L 770.644096 26.86381 
L 773.06182 26.86381 
L 775.479543 26.86381 
L 777.897267 26.86381 
L 780.314991 26.86381 
L 782.732714 26.86381 
L 785.150438 26.86381 
L 787.568162 26.86381 
L 789.985885 26.86381 
L 792.403609 26.86381 
L 794.821333 26.86381 
L 797.239056 26.86381 
L 799.65678 26.86381 
L 802.074504 26.86381 
L 804.492227 26.86381 
L 806.909951 38.232152 
L 809.327675 53.033523 
L 811.745398 69.913442 
L 814.163122 88.946219 
L 816.580846 110.206162 
L 818.998569 133.76758 
L 821.416293 159.704781 
L 823.834017 188.092074 
L 826.25174 219.003767 
L 828.669464 252.51417 
L 831.087188 288.697591 
L 831.087188 26.86381 
L 831.087188 26.86381 
L 828.669464 26.86381 
L 826.25174 26.86381 
L 823.834017 26.86381 
L 821.416293 26.86381 
L 818.998569 26.86381 
L 816.580846 26.86381 
L 814.163122 26.86381 
L 811.745398 26.86381 
L 809.327675 26.86381 
L 806.909951 26.86381 
L 804.492227 26.86381 
L 802.074504 26.86381 
L 799.65678 26.86381 
L 797.239056 26.86381 
L 794.821333 26.86381 
L 792.403609 26.86381 
L 789.985885 26.86381 
L 787.568162 26.86381 
L 785.150438 26.86381 
L 782.732714 26.86381 
L 780.314991 26.86381 
L 777.897267 26.86381 
L 775.479543 26.86381 
L 773.06182 26.86381 
L 770.644096 26.86381 
L 768.226372 26.86381 
L 765.808649 26.86381 
L 763.390925 26.86381 
L 760.973201 26.86381 
L 758.555478 26.86381 
L 756.137754 26.86381 
L 753.72003 26.86381 
L 751.302307 26.86381 
L 748.884583 26.86381 
L 746.466859 26.86381 
L 744.049136 26.86381 
L 741.631412 26.86381 
L 739.213688 26.86381 
L 736.795965 26.86381 
L 734.378241 26.86381 
L 731.960517 26.86381 
L 729.542794 26.86381 
L 727.12507 26.86381 
L 724.707346 26.86381 
L 722.289623 26.86381 
L 719.871899 26.86381 
L 717.454175 26.86381 
L 715.036452 26.86381 
L 712.618728 26.86381 
L 710.201004 26.86381 
L 707.783281 26.86381 
L 705.365557 26.86381 
L 702.947833 26.86381 
L 700.53011 26.86381 
L 698.112386 26.86381 
L 695.694662 26.86381 
L 693.276939 26.86381 
L 690.859215 26.86381 
L 688.441491 26.86381 
L 686.023768 26.86381 
L 683.606044 26.86381 
L 681.18832 26.86381 
L 678.770597 26.86381 
L 676.352873 26.86381 
L 673.935149 26.86381 
L 671.517426 26.86381 
L 669.099702 26.86381 
L 666.681978 26.86381 
L 664.264255 26.86381 
L 661.846531 26.86381 
L 659.428807 26.86381 
L 657.011084 26.86381 
L 654.59336 26.86381 
L 652.175636 26.86381 
L 649.757913 26.86381 
L 647.340189 26.86381 
L 644.922466 26.86381 
L 642.504742 26.86381 
L 640.087018 26.86381 
L 637.669295 26.86381 
L 635.251571 26.86381 
L 632.833847 26.86381 
L 630.416124 26.86381 
L 627.9984 26.86381 
L 625.580676 26.86381 
L 623.162953 26.86381 
L 620.745229 26.86381 
L 618.327505 26.86381 
L 615.909782 26.86381 
L 613.492058 26.86381 
L 611.074334 26.86381 
L 608.656611 26.86381 
L 606.238887 26.86381 
L 603.821163 26.86381 
L 601.40344 26.86381 
L 598.985716 26.86381 
L 596.567992 26.86381 
L 594.150269 26.86381 
L 591.732545 26.86381 
L 589.314821 26.86381 
L 586.897098 26.86381 
L 584.479374 26.86381 
L 582.06165 26.86381 
L 579.643927 26.86381 
L 577.226203 26.86381 
L 574.808479 26.86381 
L 572.390756 26.86381 
L 569.973032 26.86381 
L 567.555308 26.86381 
L 565.137585 26.86381 
L 562.719861 26.86381 
L 560.302137 26.86381 
L 557.884414 26.86381 
L 555.46669 26.86381 
L 553.048966 26.86381 
L 550.631243 26.86381 
L 548.213519 26.86381 
L 545.795795 26.86381 
L 543.378072 26.86381 
L 540.960348 26.86381 
L 538.542624 26.86381 
L 536.124901 26.86381 
L 533.707177 26.86381 
L 531.289453 26.86381 
L 528.87173 26.86381 
L 526.454006 26.86381 
L 524.036282 26.86381 
L 521.618559 26.86381 
L 519.200835 26.86381 
L 516.783111 26.86381 
L 514.365388 26.86381 
L 511.947664 26.86381 
L 509.52994 26.86381 
L 507.112217 26.86381 
L 504.694493 26.86381 
L 502.276769 26.86381 
L 499.859046 26.86381 
L 497.441322 26.86381 
L 495.023598 26.86381 
L 492.605875 26.86381 
L 490.188151 26.86381 
L 487.770427 26.86381 
L 485.352704 26.86381 
L 482.93498 26.86381 
L 480.517256 26.86381 
L 478.099533 26.86381 
L 475.681809 26.86381 
L 473.264085 26.86381 
L 470.846362 26.86381 
L 468.428638 26.86381 
L 466.010915 26.86381 
L 463.593191 26.86381 
L 461.175467 26.86381 
L 458.757744 26.86381 
L 456.34002 26.86381 
L 453.922296 26.86381 
L 451.504573 26.86381 
L 449.086849 26.86381 
L 446.669125 26.86381 
L 444.251402 26.86381 
L 441.833678 26.86381 
L 439.415954 26.86381 
L 436.998231 26.86381 
L 434.580507 26.86381 
L 432.162783 26.86381 
L 429.74506 26.86381 
L 427.327336 26.86381 
L 424.909612 26.86381 
L 422.491889 26.86381 
L 420.074165 26.86381 
L 417.656441 26.86381 
L 415.238718 26.86381 
L 412.820994 26.86381 
L 410.40327 26.86381 
L 407.985547 26.86381 
L 405.567823 26.86381 
L 403.150099 26.86381 
L 400.732376 26.86381 
L 398.314652 26.86381 
L 395.896928 26.86381 
L 393.479205 26.86381 
L 391.061481 26.86381 
L 388.643757 26.86381 
L 386.226034 26.86381 
L 383.80831 26.86381 
L 381.390586 26.86381 
L 378.972863 26.86381 
L 376.555139 26.86381 
L 374.137415 26.86381 
L 371.719692 26.86381 
L 369.301968 26.86381 
L 366.884244 26.86381 
L 364.466521 26.86381 
L 362.048797 26.86381 
L 359.631073 26.86381 
L 357.21335 26.86381 
L 354.795626 26.86381 
L 352.377902 26.86381 
L 349.960179 26.86381 
L 347.542455 26.86381 
L 345.124731 26.86381 
L 342.707008 26.86381 
L 340.289284 26.86381 
L 337.87156 26.86381 
L 335.453837 26.86381 
L 333.036113 26.86381 
L 330.618389 26.86381 
L 328.200666 26.86381 
L 325.782942 26.86381 
L 323.365218 26.86381 
L 320.947495 26.86381 
L 318.529771 26.86381 
L 316.112047 26.86381 
L 313.694324 26.86381 
L 311.2766 26.86381 
L 308.858876 26.86381 
L 306.441153 26.86381 
L 304.023429 26.86381 
L 301.605705 26.86381 
L 299.187982 26.86381 
L 296.770258 26.86381 
L 294.352534 26.86381 
L 291.934811 26.86381 
L 289.517087 26.86381 
L 287.099364 26.86381 
L 284.68164 26.86381 
L 282.263916 26.86381 
L 279.846193 26.86381 
L 277.428469 26.86381 
L 275.010745 26.86381 
L 272.593022 26.86381 
L 270.175298 26.86381 
L 267.757574 26.86381 
L 265.339851 26.86381 
L 262.922127 26.86381 
L 260.504403 26.86381 
L 258.08668 26.86381 
L 255.668956 26.86381 
L 253.251232 26.86381 
L 250.833509 26.86381 
L 248.415785 26.86381 
L 245.998061 26.86381 
L 243.580338 26.86381 
L 241.162614 26.86381 
L 238.74489 26.86381 
L 236.327167 26.86381 
L 233.909443 26.86381 
L 231.491719 26.86381 
L 229.073996 26.86381 
L 226.656272 26.86381 
L 224.238548 26.86381 
L 221.820825 26.86381 
L 219.403101 26.86381 
L 216.985377 26.86381 
L 214.567654 26.86381 
L 212.14993 26.86381 
L 209.732206 26.86381 
L 207.314483 26.86381 
L 204.896759 26.86381 
L 202.479035 26.86381 
L 200.061312 26.86381 
L 197.643588 26.86381 
L 195.225864 26.86381 
L 192.808141 26.86381 
L 190.390417 26.86381 
L 187.972693 26.86381 
L 185.55497 26.86381 
L 183.137246 26.86381 
L 180.719522 26.86381 
L 178.301799 26.86381 
L 175.884075 26.86381 
L 173.466351 26.86381 
L 171.048628 26.86381 
L 168.630904 26.86381 
L 166.21318 26.86381 
L 163.795457 26.86381 
L 161.377733 26.86381 
L 158.960009 26.86381 
L 156.542286 26.86381 
L 154.124562 26.86381 
L 151.706838 26.86381 
L 149.289115 26.86381 
L 146.871391 26.86381 
L 144.453667 26.86381 
L 142.035944 26.86381 
L 139.61822 26.86381 
L 137.200496 26.86381 
L 134.782773 26.86381 
L 132.365049 26.86381 
L 129.947325 26.86381 
L 127.529602 26.86381 
L 125.111878 26.86381 
L 122.694154 26.86381 
L 120.276431 26.86381 
L 117.858707 26.86381 
L 115.440983 26.86381 
L 113.02326 26.86381 
L 110.605536 26.86381 
L 108.187813 26.86381 
z
" clip-path="url(#p080db91461)" style="fill: #c7eae5"/>
   </g>
   <g id="matplotlib.axis_1">
    <g id="xtick_1">
     <g id="line2d_1">
      <path d="M 108.187813 420.14 
L 108.187813 7.2 
" clip-path="url(#p080db91461)" style="fill: none; stroke: #ffffff; stroke-opacity: 0.3; stroke-width: 0.75; stroke-linecap: square"/>
     </g>
     <g id="line2d_2">
      <defs>
       <path id="m6cf59470fb" d="M 0 0 
L 0 3.5 
" style="stroke: #000000; stroke-width: 0.8"/>
      </defs>
      <g>
       <use xlink:href="#m6cf59470fb" x="108.187813" y="420.14" style="stroke: #000000; stroke-width: 0.8"/>
      </g>
     </g>
     <g id="text_1">
      <text style="font-weight: 600; font-size: 24px; font-family: 'Montserrat'; fill: #767676" transform="translate(114.763438 554.265) rotate(-90)">01-01-2023</text>
     </g>
    </g>
    <g id="xtick_2">
     <g id="line2d_3">
      <path d="M 173.905937 420.14 
L 173.905937 7.2 
" clip-path="url(#p080db91461)" style="fill: none; stroke: #ffffff; stroke-opacity: 0.3; stroke-width: 0.75; stroke-linecap: square"/>
     </g>
     <g id="line2d_4">
      <g>
       <use xlink:href="#m6cf59470fb" x="173.905937" y="420.14" style="stroke: #000000; stroke-width: 0.8"/>
      </g>
     </g>
     <g id="text_2">
      <text style="font-weight: 600; font-size: 24px; font-family: 'Montserrat'; fill: #767676" transform="translate(180.481562 559.09125) rotate(-90)">01-02-2023</text>
     </g>
    </g>
    <g id="xtick_3">
     <g id="line2d_5">
      <path d="M 239.624062 420.14 
L 239.624062 7.2 
" clip-path="url(#p080db91461)" style="fill: none; stroke: #ffffff; stroke-opacity: 0.3; stroke-width: 0.75; stroke-linecap: square"/>
     </g>
     <g id="line2d_6">
      <g>
       <use xlink:href="#m6cf59470fb" x="239.624062" y="420.14" style="stroke: #000000; stroke-width: 0.8"/>
      </g>
     </g>
     <g id="text_3">
      <text style="font-weight: 600; font-size: 24px; font-family: 'Montserrat'; fill: #767676" transform="translate(246.199687 559.09125) rotate(-90)">01-03-2023</text>
     </g>
    </g>
    <g id="xtick_4">
     <g id="line2d_7">
      <path d="M 305.342188 420.14 
L 305.342188 7.2 
" clip-path="url(#p080db91461)" style="fill: none; stroke: #ffffff; stroke-opacity: 0.3; stroke-width: 0.75; stroke-linecap: square"/>
     </g>
     <g id="line2d_8">
      <g>
       <use xlink:href="#m6cf59470fb" x="305.342188" y="420.14" style="stroke: #000000; stroke-width: 0.8"/>
      </g>
     </g>
     <g id="text_4">
      <text style="font-weight: 600; font-size: 24px; font-family: 'Montserrat'; fill: #767676" transform="translate(311.917813 561.42) rotate(-90)">01-04-2023</text>
     </g>
    </g>
    <g id="xtick_5">
     <g id="line2d_9">
      <path d="M 371.060313 420.14 
L 371.060313 7.2 
" clip-path="url(#p080db91461)" style="fill: none; stroke: #ffffff; stroke-opacity: 0.3; stroke-width: 0.75; stroke-linecap: square"/>
     </g>
     <g id="line2d_10">
      <g>
       <use xlink:href="#m6cf59470fb" x="371.060313" y="420.14" style="stroke: #000000; stroke-width: 0.8"/>
      </g>
     </g>
     <g id="text_5">
      <text style="font-weight: 600; font-size: 24px; font-family: 'Montserrat'; fill: #767676" transform="translate(377.635938 559.14) rotate(-90)">01-05-2023</text>
     </g>
    </g>
    <g id="xtick_6">
     <g id="line2d_11">
      <path d="M 436.778437 420.14 
L 436.778437 7.2 
" clip-path="url(#p080db91461)" style="fill: none; stroke: #ffffff; stroke-opacity: 0.3; stroke-width: 0.75; stroke-linecap: square"/>
     </g>
     <g id="line2d_12">
      <g>
       <use xlink:href="#m6cf59470fb" x="436.778437" y="420.14" style="stroke: #000000; stroke-width: 0.8"/>
      </g>
     </g>
     <g id="text_6">
      <text style="font-weight: 600; font-size: 24px; font-family: 'Montserrat'; fill: #767676" transform="translate(443.354062 560.17125) rotate(-90)">01-06-2023</text>
     </g>
    </g>
    <g id="xtick_7">
     <g id="line2d_13">
      <path d="M 502.496563 420.14 
L 502.496563 7.2 
" clip-path="url(#p080db91461)" style="fill: none; stroke: #ffffff; stroke-opacity: 0.3; stroke-width: 0.75; stroke-linecap: square"/>
     </g>
     <g id="line2d_14">
      <g>
       <use xlink:href="#m6cf59470fb" x="502.496563" y="420.14" style="stroke: #000000; stroke-width: 0.8"/>
      </g>
     </g>
     <g id="text_7">
      <text style="font-weight: 600; font-size: 24px; font-family: 'Montserrat'; fill: #767676" transform="translate(509.072188 559.71375) rotate(-90)">01-07-2023</text>
     </g>
    </g>
    <g id="xtick_8">
     <g id="line2d_15">
      <path d="M 568.214687 420.14 
L 568.214687 7.2 
" clip-path="url(#p080db91461)" style="fill: none; stroke: #ffffff; stroke-opacity: 0.3; stroke-width: 0.75; stroke-linecap: square"/>
     </g>
     <g id="line2d_16">
      <g>
       <use xlink:href="#m6cf59470fb" x="568.214687" y="420.14" style="stroke: #000000; stroke-width: 0.8"/>
      </g>
     </g>
     <g id="text_8">
      <text style="font-weight: 600; font-size: 24px; font-family: 'Montserrat'; fill: #767676" transform="translate(574.790312 560.77125) rotate(-90)">01-08-2023</text>
     </g>
    </g>
    <g id="xtick_9">
     <g id="line2d_17">
      <path d="M 633.932813 420.14 
L 633.932813 7.2 
" clip-path="url(#p080db91461)" style="fill: none; stroke: #ffffff; stroke-opacity: 0.3; stroke-width: 0.75; stroke-linecap: square"/>
     </g>
     <g id="line2d_18">
      <g>
       <use xlink:href="#m6cf59470fb" x="633.932813" y="420.14" style="stroke: #000000; stroke-width: 0.8"/>
      </g>
     </g>
     <g id="text_9">
      <text style="font-weight: 600; font-size: 24px; font-family: 'Montserrat'; fill: #767676" transform="translate(640.508438 560.17125) rotate(-90)">01-09-2023</text>
     </g>
    </g>
    <g id="xtick_10">
     <g id="line2d_19">
      <path d="M 699.650938 420.14 
L 699.650938 7.2 
" clip-path="url(#p080db91461)" style="fill: none; stroke: #ffffff; stroke-opacity: 0.3; stroke-width: 0.75; stroke-linecap: square"/>
     </g>
     <g id="line2d_20">
      <g>
       <use xlink:href="#m6cf59470fb" x="699.650938" y="420.14" style="stroke: #000000; stroke-width: 0.8"/>
      </g>
     </g>
     <g id="text_10">
      <text style="font-weight: 600; font-size: 24px; font-family: 'Montserrat'; fill: #767676" transform="translate(706.226562 554.265) rotate(-90)">01-10-2023</text>
     </g>
    </g>
    <g id="xtick_11">
     <g id="line2d_21">
      <path d="M 765.369063 420.14 
L 765.369063 7.2 
" clip-path="url(#p080db91461)" style="fill: none; stroke: #ffffff; stroke-opacity: 0.3; stroke-width: 0.75; stroke-linecap: square"/>
     </g>
     <g id="line2d_22">
      <g>
       <use xlink:href="#m6cf59470fb" x="765.369063" y="420.14" style="stroke: #000000; stroke-width: 0.8"/>
      </g>
     </g>
     <g id="text_11">
      <text style="font-weight: 600; font-size: 24px; font-family: 'Montserrat'; fill: #767676" transform="translate(771.944687 547.25625) rotate(-90)">01-11-2023</text>
     </g>
    </g>
    <g id="xtick_12">
     <g id="line2d_23">
      <path d="M 831.087188 420.14 
L 831.087188 7.2 
" clip-path="url(#p080db91461)" style="fill: none; stroke: #ffffff; stroke-opacity: 0.3; stroke-width: 0.75; stroke-linecap: square"/>
     </g>
     <g id="line2d_24">
      <g>
       <use xlink:href="#m6cf59470fb" x="831.087188" y="420.14" style="stroke: #000000; stroke-width: 0.8"/>
      </g>
     </g>
     <g id="text_12">
      <text style="font-weight: 600; font-size: 24px; font-family: 'Montserrat'; fill: #767676" transform="translate(837.662812 552.0825) rotate(-90)">01-12-2023</text>
     </g>
    </g>
   </g>
   <g id="matplotlib.axis_2">
    <g id="ytick_1">
     <g id="line2d_25">
      <path d="M 75.32875 420.14 
L 863.94625 420.14 
" clip-path="url(#p080db91461)" style="fill: none; stroke: #ffffff; stroke-opacity: 0.8; stroke-width: 1.25; stroke-linecap: square"/>
     </g>
     <g id="line2d_26">
      <defs>
       <path id="mf7710d65bd" d="M 0 0 
L -3.5 0 
" style="stroke: #000000; stroke-width: 0.8"/>
      </defs>
      <g>
       <use xlink:href="#mf7710d65bd" x="75.32875" y="420.14" style="stroke: #000000; stroke-width: 0.8"/>
      </g>
     </g>
     <g id="text_13">
      <text style="font-weight: 500; font-size: 24px; font-family: 'Montserrat'; text-anchor: end; fill: #767676" x="68.32875" y="429.044375" transform="rotate(-0 68.32875 429.044375)">0%</text>
     </g>
    </g>
    <g id="ytick_2">
     <g id="line2d_27">
      <path d="M 75.32875 321.820952 
L 863.94625 321.820952 
" clip-path="url(#p080db91461)" style="fill: none; stroke: #ffffff; stroke-opacity: 0.8; stroke-width: 1.25; stroke-linecap: square"/>
     </g>
     <g id="line2d_28">
      <g>
       <use xlink:href="#mf7710d65bd" x="75.32875" y="321.820952" style="stroke: #000000; stroke-width: 0.8"/>
      </g>
     </g>
     <g id="text_14">
      <text style="font-weight: 500; font-size: 24px; font-family: 'Montserrat'; text-anchor: end; fill: #767676" x="68.32875" y="330.725327" transform="rotate(-0 68.32875 330.725327)">25%</text>
     </g>
    </g>
    <g id="ytick_3">
     <g id="line2d_29">
      <path d="M 75.32875 223.501905 
L 863.94625 223.501905 
" clip-path="url(#p080db91461)" style="fill: none; stroke: #ffffff; stroke-opacity: 0.8; stroke-width: 1.25; stroke-linecap: square"/>
     </g>
     <g id="line2d_30">
      <g>
       <use xlink:href="#mf7710d65bd" x="75.32875" y="223.501905" style="stroke: #000000; stroke-width: 0.8"/>
      </g>
     </g>
     <g id="text_15">
      <text style="font-weight: 500; font-size: 24px; font-family: 'Montserrat'; text-anchor: end; fill: #767676" x="68.32875" y="232.40628" transform="rotate(-0 68.32875 232.40628)">50%</text>
     </g>
    </g>
    <g id="ytick_4">
     <g id="line2d_31">
      <path d="M 75.32875 125.182857 
L 863.94625 125.182857 
" clip-path="url(#p080db91461)" style="fill: none; stroke: #ffffff; stroke-opacity: 0.8; stroke-width: 1.25; stroke-linecap: square"/>
     </g>
     <g id="line2d_32">
      <g>
       <use xlink:href="#mf7710d65bd" x="75.32875" y="125.182857" style="stroke: #000000; stroke-width: 0.8"/>
      </g>
     </g>
     <g id="text_16">
      <text style="font-weight: 500; font-size: 24px; font-family: 'Montserrat'; text-anchor: end; fill: #767676" x="68.32875" y="134.087232" transform="rotate(-0 68.32875 134.087232)">75%</text>
     </g>
    </g>
    <g id="ytick_5">
     <g id="line2d_33">
      <path d="M 75.32875 26.86381 
L 863.94625 26.86381 
" clip-path="url(#p080db91461)" style="fill: none; stroke: #ffffff; stroke-opacity: 0.8; stroke-width: 1.25; stroke-linecap: square"/>
     </g>
     <g id="line2d_34">
      <g>
       <use xlink:href="#mf7710d65bd" x="75.32875" y="26.86381" style="stroke: #000000; stroke-width: 0.8"/>
      </g>
     </g>
     <g id="text_17">
      <text style="font-weight: 500; font-size: 24px; font-family: 'Montserrat'; text-anchor: end; fill: #767676" x="68.32875" y="35.768185" transform="rotate(-0 68.32875 35.768185)">100%</text>
     </g>
    </g>
   </g>
   <g id="patch_3">
    <path d="M 75.32875 420.14 
L 863.94625 420.14 
" style="fill: none; stroke: #000000; stroke-width: 2; stroke-linejoin: miter; stroke-linecap: square"/>
   </g>
   <g id="text_18">
    <g id="patch_4">
     <path d="M 161.224687 382.509509 
L 186.587187 382.509509 
Q 206.587187 382.509509 206.587187 362.509509 
L 206.587187 359.787634 
Q 206.587187 339.787634 186.587187 339.787634 
L 161.224687 339.787634 
Q 141.224687 339.787634 141.224687 359.787634 
L 141.224687 362.509509 
Q 141.224687 382.509509 161.224687 382.509509 
z
" style="fill: #ffffff; stroke: #215f53; stroke-width: 1.8; stroke-linejoin: miter"/>
    </g>
    <text style="font-weight: 500; font-size: 20px; font-family: 'Montserrat'; text-anchor: middle; fill: #767676" x="173.905937" y="366.628259" transform="rotate(-0 173.905937 366.628259)">4.72</text>
   </g>
   <g id="text_19">
    <g id="patch_5">
     <path d="M 456.495313 244.862842 
L 482.779688 244.862842 
Q 502.779688 244.862842 502.779688 224.862842 
L 502.779688 222.140967 
Q 502.779688 202.140967 482.779688 202.140967 
L 456.495313 202.140967 
Q 436.495313 202.140967 436.495313 222.140967 
L 436.495313 224.862842 
Q 436.495313 244.862842 456.495313 244.862842 
z
" style="fill: #ffffff; stroke: #7570b3; stroke-width: 1.8; stroke-linejoin: miter"/>
    </g>
    <text style="font-weight: 500; font-size: 20px; font-family: 'Montserrat'; text-anchor: middle; fill: #767676" x="469.6375" y="228.981592" transform="rotate(-0 469.6375 228.981592)">4.28</text>
   </g>
   <g id="text_20">
    <g id="patch_6">
     <path d="M 752.037813 107.216176 
L 778.700313 107.216176 
Q 798.700313 107.216176 798.700313 87.216176 
L 798.700313 84.494301 
Q 798.700313 64.494301 778.700313 64.494301 
L 752.037813 64.494301 
Q 732.037813 64.494301 732.037813 84.494301 
L 732.037813 87.216176 
Q 732.037813 107.216176 752.037813 107.216176 
z
" style="fill: #ffffff; stroke: #c7eae5; stroke-width: 1.8; stroke-linejoin: miter"/>
    </g>
    <text style="font-weight: 500; font-size: 20px; font-family: 'Montserrat'; text-anchor: middle; fill: #767676" x="765.369063" y="91.334926" transform="rotate(-0 765.369063 91.334926)">3.00</text>
   </g>
  </g>
 </g>
 <defs>
  <clipPath id="p080db91461">
   <rect x="75.32875" y="7.2" width="788.6175" height="412.94"/>
  </clipPath>
 </defs>
</svg>
