<?xml version="1.0" encoding="utf-8" standalone="no"?>
<!DOCTYPE svg PUBLIC "-//W3C//DTD SVG 1.1//EN"
  "http://www.w3.org/Graphics/SVG/1.1/DTD/svg11.dtd">
<svg xmlns:xlink="http://www.w3.org/1999/xlink" width="1144.3875pt" height="568.04625pt" viewBox="0 0 1144.3875 568.04625" xmlns="http://www.w3.org/2000/svg" version="1.1">
 <metadata>
  <rdf:RDF xmlns:dc="http://purl.org/dc/elements/1.1/" xmlns:cc="http://creativecommons.org/ns#" xmlns:rdf="http://www.w3.org/1999/02/22-rdf-syntax-ns#">
   <cc:Work>
    <dc:type rdf:resource="http://purl.org/dc/dcmitype/StillImage"/>
    <dc:date>2025-06-03T14:30:34.544755</dc:date>
    <dc:format>image/svg+xml</dc:format>
    <dc:creator>
     <cc:Agent>
      <dc:title>Matplotlib v3.10.1, https://matplotlib.org/</dc:title>
     </cc:Agent>
    </dc:creator>
   </cc:Work>
  </rdf:RDF>
 </metadata>
 <defs>
  <style type="text/css">*{stroke-linejoin: round; stroke-linecap: butt}</style>
 </defs>
 <g id="figure_1">
  <g id="patch_1">
   <path d="M 0 568.04625 
L 1144.3875 568.04625 
L 1144.3875 0 
L 0 0 
z
" style="fill: #ffffff"/>
  </g>
  <g id="axes_1">
   <g id="patch_2">
    <path d="M 102.2975 381.1 
L 870.365 381.1 
L 870.365 7.2 
L 102.2975 7.2 
z
" style="fill: #ffffff"/>
   </g>
   <g id="FillBetweenPolyCollection_1">
    <path d="M 134.300312 134.420503 
L 134.300312 381.1 
L 136.655034 381.1 
L 139.009756 381.1 
L 141.364478 381.1 
L 143.7192 381.1 
L 146.073922 381.1 
L 148.428644 381.1 
L 150.783366 381.1 
L 153.138088 381.1 
L 155.49281 381.1 
L 157.847532 381.1 
L 160.202254 381.1 
L 162.556976 381.1 
L 164.911698 381.1 
L 167.26642 381.1 
L 169.621142 381.1 
L 171.975864 381.1 
L 174.330586 381.1 
L 176.685308 381.1 
L 179.04003 381.1 
L 181.394752 381.1 
L 183.749474 381.1 
L 186.104196 381.1 
L 188.458918 381.1 
L 190.81364 381.1 
L 193.168362 381.1 
L 195.523084 381.1 
L 197.877806 381.1 
L 200.232528 381.1 
L 202.58725 381.1 
L 204.941972 381.1 
L 207.296694 381.1 
L 209.651416 381.1 
L 212.006138 381.1 
L 214.36086 381.1 
L 216.715582 381.1 
L 219.070304 381.1 
L 221.425026 381.1 
L 223.779748 381.1 
L 226.13447 381.1 
L 228.489192 381.1 
L 230.843914 381.1 
L 233.198636 381.1 
L 235.553358 381.1 
L 237.90808 381.1 
L 240.262802 381.1 
L 242.617524 381.1 
L 244.972246 381.1 
L 247.326968 381.1 
L 249.68169 381.1 
L 252.036412 381.1 
L 254.391134 381.1 
L 256.745856 381.1 
L 259.100578 381.1 
L 261.4553 381.1 
L 263.810022 381.1 
L 266.164744 381.1 
L 268.519466 381.1 
L 270.874188 381.1 
L 273.22891 381.1 
L 275.583632 381.1 
L 277.938354 381.1 
L 280.293076 381.1 
L 282.647798 381.1 
L 285.00252 381.1 
L 287.357242 381.1 
L 289.711964 381.1 
L 292.066686 381.1 
L 294.421408 381.1 
L 296.77613 381.1 
L 299.130852 381.1 
L 301.485574 381.1 
L 303.840296 381.1 
L 306.195018 381.1 
L 308.54974 381.1 
L 310.904462 381.1 
L 313.259184 381.1 
L 315.613906 381.1 
L 317.968628 381.1 
L 320.32335 381.1 
L 322.678072 381.1 
L 325.032794 381.1 
L 327.387516 381.1 
L 329.742238 381.1 
L 332.09696 381.1 
L 334.451682 381.1 
L 336.806404 381.1 
L 339.161126 381.1 
L 341.515848 381.1 
L 343.87057 381.1 
L 346.225292 381.1 
L 348.580014 381.1 
L 350.934736 381.1 
L 353.289458 381.1 
L 355.64418 381.1 
L 357.998902 381.1 
L 360.353624 381.1 
L 362.708346 381.1 
L 365.063068 381.1 
L 367.41779 381.1 
L 369.772511 381.1 
L 372.127233 381.1 
L 374.481955 381.1 
L 376.836677 381.1 
L 379.191399 381.1 
L 381.546121 381.1 
L 383.900843 381.1 
L 386.255565 381.1 
L 388.610287 381.1 
L 390.965009 381.1 
L 393.319731 381.1 
L 395.674453 381.1 
L 398.029175 381.1 
L 400.383897 381.1 
L 402.738619 381.1 
L 405.093341 381.1 
L 407.448063 381.1 
L 409.802785 381.1 
L 412.157507 381.1 
L 414.512229 381.1 
L 416.866951 381.1 
L 419.221673 381.1 
L 421.576395 381.1 
L 423.931117 381.1 
L 426.285839 381.1 
L 428.640561 381.1 
L 430.995283 381.1 
L 433.350005 381.1 
L 435.704727 381.1 
L 438.059449 381.1 
L 440.414171 381.1 
L 442.768893 381.1 
L 445.123615 381.1 
L 447.478337 381.1 
L 449.833059 381.1 
L 452.187781 381.1 
L 454.542503 381.1 
L 456.897225 381.1 
L 459.251947 381.1 
L 461.606669 381.1 
L 463.961391 381.1 
L 466.316113 381.1 
L 468.670835 381.1 
L 471.025557 381.1 
L 473.380279 381.1 
L 475.735001 381.1 
L 478.089723 381.1 
L 480.444445 381.1 
L 482.799167 381.1 
L 485.153889 381.1 
L 487.508611 381.1 
L 489.863333 381.1 
L 492.218055 381.1 
L 494.572777 381.1 
L 496.927499 381.1 
L 499.282221 381.1 
L 501.636943 381.1 
L 503.991665 381.1 
L 506.346387 381.1 
L 508.701109 381.1 
L 511.055831 381.1 
L 513.410553 381.1 
L 515.765275 381.1 
L 518.119997 381.1 
L 520.474719 381.1 
L 522.829441 381.1 
L 525.184163 381.1 
L 527.538885 381.1 
L 529.893607 381.1 
L 532.248329 381.1 
L 534.603051 381.1 
L 536.957773 381.1 
L 539.312495 381.1 
L 541.667217 381.1 
L 544.021939 381.1 
L 546.376661 381.1 
L 548.731383 381.1 
L 551.086105 381.1 
L 553.440827 381.1 
L 555.795549 381.1 
L 558.150271 381.1 
L 560.504993 381.1 
L 562.859715 381.1 
L 565.214437 381.1 
L 567.569159 381.1 
L 569.923881 381.1 
L 572.278603 381.1 
L 574.633325 381.1 
L 576.988047 381.1 
L 579.342769 381.1 
L 581.697491 381.1 
L 584.052213 381.1 
L 586.406935 381.1 
L 588.761657 381.1 
L 591.116379 381.1 
L 593.471101 381.1 
L 595.825823 381.1 
L 598.180545 381.1 
L 600.535267 381.1 
L 602.889989 381.1 
L 605.24471 381.1 
L 607.599432 381.1 
L 609.954154 381.1 
L 612.308876 381.1 
L 614.663598 381.1 
L 617.01832 381.1 
L 619.373042 381.1 
L 621.727764 381.1 
L 624.082486 381.1 
L 626.437208 381.1 
L 628.79193 381.1 
L 631.146652 381.1 
L 633.501374 381.1 
L 635.856096 381.1 
L 638.210818 381.1 
L 640.56554 381.1 
L 642.920262 381.1 
L 645.274984 381.1 
L 647.629706 381.1 
L 649.984428 381.1 
L 652.33915 381.1 
L 654.693872 381.1 
L 657.048594 381.1 
L 659.403316 381.1 
L 661.758038 381.1 
L 664.11276 381.1 
L 666.467482 381.1 
L 668.822204 381.1 
L 671.176926 381.1 
L 673.531648 381.1 
L 675.88637 381.1 
L 678.241092 381.1 
L 680.595814 381.1 
L 682.950536 381.1 
L 685.305258 381.1 
L 687.65998 381.1 
L 690.014702 381.1 
L 692.369424 381.1 
L 694.724146 381.1 
L 697.078868 381.1 
L 699.43359 381.1 
L 701.788312 381.1 
L 704.143034 381.1 
L 706.497756 381.1 
L 708.852478 381.1 
L 711.2072 381.1 
L 713.561922 381.1 
L 715.916644 381.1 
L 718.271366 381.1 
L 720.626088 381.1 
L 722.98081 381.1 
L 725.335532 381.1 
L 727.690254 381.1 
L 730.044976 381.1 
L 732.399698 381.1 
L 734.75442 381.1 
L 737.109142 381.1 
L 739.463864 381.1 
L 741.818586 381.1 
L 744.173308 381.1 
L 746.52803 381.1 
L 748.882752 381.1 
L 751.237474 381.1 
L 753.592196 381.1 
L 755.946918 381.1 
L 758.30164 381.1 
L 760.656362 381.1 
L 763.011084 381.1 
L 765.365806 381.1 
L 767.720528 381.1 
L 770.07525 381.1 
L 772.429972 381.1 
L 774.784694 381.1 
L 777.139416 381.1 
L 779.494138 381.1 
L 781.84886 381.1 
L 784.203582 381.1 
L 786.558304 381.1 
L 788.913026 381.1 
L 791.267748 381.1 
L 793.62247 381.1 
L 795.977192 381.1 
L 798.331914 381.1 
L 800.686636 381.1 
L 803.041358 381.1 
L 805.39608 381.1 
L 807.750802 381.1 
L 810.105524 381.1 
L 812.460246 381.1 
L 814.814968 381.1 
L 817.16969 381.1 
L 819.524412 381.1 
L 821.879134 381.1 
L 824.233856 381.1 
L 826.588578 381.1 
L 828.9433 381.1 
L 831.298022 381.1 
L 833.652744 381.1 
L 836.007466 381.1 
L 838.362187 381.1 
L 838.362187 319.435358 
L 838.362187 319.435358 
L 836.007466 314.971936 
L 833.652744 310.809354 
L 831.298022 306.939298 
L 828.9433 303.353456 
L 826.588578 300.043516 
L 824.233856 297.001166 
L 821.879134 294.218091 
L 819.524412 291.685981 
L 817.16969 289.396523 
L 814.814968 287.341403 
L 812.460246 285.858327 
L 810.105524 286.847776 
L 807.750802 287.566561 
L 805.39608 288.050163 
L 803.041358 288.325055 
L 800.686636 288.410914 
L 798.331914 288.322164 
L 795.977192 288.069051 
L 793.62247 287.658413 
L 791.267748 287.094218 
L 788.913026 286.377948 
L 786.558304 285.508856 
L 784.203582 284.484135 
L 781.84886 283.299009 
L 779.494138 281.946764 
L 777.139416 280.418732 
L 774.784694 280.203406 
L 772.429972 280.944947 
L 770.07525 281.76289 
L 767.720528 282.648921 
L 765.365806 283.594728 
L 763.011084 284.591999 
L 760.656362 285.63242 
L 758.30164 286.707681 
L 755.946918 287.809467 
L 753.592196 288.929466 
L 751.237474 290.059367 
L 748.882752 291.190855 
L 746.52803 292.31562 
L 744.173308 293.425348 
L 741.818586 294.511727 
L 739.463864 295.566444 
L 737.109142 296.581187 
L 734.75442 297.547643 
L 732.399698 298.4575 
L 730.044976 299.302445 
L 727.690254 300.074166 
L 725.335532 300.76435 
L 722.98081 301.364684 
L 720.626088 301.866857 
L 718.271366 302.262555 
L 715.916644 302.543467 
L 713.561922 302.701279 
L 711.2072 302.727678 
L 708.852478 302.614635 
L 706.497756 302.357778 
L 704.143034 301.955295 
L 701.788312 301.405427 
L 699.43359 300.706415 
L 697.078868 299.856499 
L 694.724146 298.853922 
L 692.369424 297.696923 
L 690.014702 296.383743 
L 687.65998 294.912623 
L 685.305258 293.281805 
L 682.950536 291.489529 
L 680.595814 289.534035 
L 678.241092 287.413565 
L 675.88637 285.12636 
L 673.531648 282.670661 
L 671.176926 280.044707 
L 668.822204 277.246741 
L 666.467482 274.275003 
L 664.11276 271.127734 
L 661.758038 267.803175 
L 659.403316 264.299566 
L 657.048594 260.615149 
L 654.693872 256.748165 
L 652.33915 252.696854 
L 649.984428 248.459457 
L 647.629706 244.034215 
L 645.274984 239.419929 
L 642.920262 234.631537 
L 640.56554 229.70214 
L 638.210818 224.665812 
L 635.856096 219.556623 
L 633.501374 214.408647 
L 631.146652 209.255955 
L 628.79193 204.13262 
L 626.437208 199.072713 
L 624.082486 194.110307 
L 621.727764 189.279474 
L 619.373042 184.614286 
L 617.01832 180.148816 
L 614.663598 175.917134 
L 612.308876 171.953314 
L 609.954154 168.291428 
L 607.599432 164.965547 
L 605.24471 162.009744 
L 602.889989 159.458091 
L 600.535267 157.34466 
L 598.180545 155.703524 
L 595.825823 154.568753 
L 593.471101 153.974422 
L 591.116379 153.954601 
L 588.761657 154.543362 
L 586.406935 155.774779 
L 584.052213 157.682923 
L 581.697491 160.301561 
L 579.342769 163.634771 
L 576.988047 167.632438 
L 574.633325 172.238679 
L 572.278603 177.397612 
L 569.923881 183.053356 
L 567.569159 189.150028 
L 565.214437 195.631748 
L 562.859715 202.442632 
L 560.504993 209.526799 
L 558.150271 216.828366 
L 555.795549 224.291453 
L 553.440827 231.860176 
L 551.086105 239.478655 
L 548.731383 247.091006 
L 546.376661 254.641349 
L 544.021939 262.073801 
L 541.667217 269.33248 
L 539.312495 276.361504 
L 536.957773 283.104991 
L 534.603051 289.50706 
L 532.248329 295.511828 
L 529.893607 301.063414 
L 527.538885 306.105936 
L 525.184163 310.58351 
L 522.829441 314.440257 
L 520.474719 317.620293 
L 518.119997 320.06775 
L 515.765275 321.748687 
L 513.410553 322.696087 
L 511.055831 322.955652 
L 508.701109 322.573084 
L 506.346387 321.594085 
L 503.991665 320.064357 
L 501.636943 318.029602 
L 499.282221 315.535522 
L 496.927499 312.627819 
L 494.572777 309.352195 
L 492.218055 305.754353 
L 489.863333 301.879994 
L 487.508611 297.77482 
L 485.153889 293.484534 
L 482.799167 289.054837 
L 480.444445 284.531432 
L 478.089723 279.96002 
L 475.735001 275.386304 
L 473.380279 270.855986 
L 471.025557 266.414768 
L 468.670835 262.108351 
L 466.316113 257.982439 
L 463.961391 254.082732 
L 461.606669 250.454934 
L 459.251947 247.144745 
L 456.897225 244.197869 
L 454.542503 241.660007 
L 452.187781 239.567875 
L 449.833059 237.910916 
L 447.478337 236.663081 
L 445.123615 235.798312 
L 442.768893 235.29055 
L 440.414171 235.113738 
L 438.059449 235.241818 
L 435.704727 235.648731 
L 433.350005 236.308419 
L 430.995283 237.194825 
L 428.640561 238.28189 
L 426.285839 239.543556 
L 423.931117 240.953765 
L 421.576395 242.486459 
L 419.221673 244.115581 
L 416.866951 245.815071 
L 414.512229 247.558872 
L 412.157507 249.320926 
L 409.802785 251.075175 
L 407.448063 252.79556 
L 405.093341 254.456024 
L 402.738619 256.030508 
L 400.383897 257.492955 
L 398.029175 258.817306 
L 395.674453 259.977504 
L 393.319731 260.94749 
L 390.965009 261.701206 
L 388.610287 262.214828 
L 386.255565 262.485515 
L 383.900843 262.521926 
L 381.546121 262.332838 
L 379.191399 261.927025 
L 376.836677 261.313265 
L 374.481955 260.500333 
L 372.127233 259.497005 
L 369.772511 258.312057 
L 367.41779 256.954266 
L 365.063068 255.432407 
L 362.708346 253.755257 
L 360.353624 251.931591 
L 357.998902 249.970185 
L 355.64418 247.879816 
L 353.289458 245.66926 
L 350.934736 243.347292 
L 348.580014 240.922689 
L 346.225292 238.404227 
L 343.87057 235.800682 
L 341.515848 233.120829 
L 339.161126 230.373446 
L 336.806404 227.567307 
L 334.451682 224.711189 
L 332.09696 221.813869 
L 329.742238 218.884121 
L 327.387516 215.930722 
L 325.032794 212.962533 
L 322.678072 209.989991 
L 320.32335 207.024936 
L 317.968628 204.079255 
L 315.613906 201.164836 
L 313.259184 198.293568 
L 310.904462 195.477338 
L 308.54974 192.728035 
L 306.195018 190.057545 
L 303.840296 187.477758 
L 301.485574 185.000561 
L 299.130852 182.637841 
L 296.77613 180.401488 
L 294.421408 178.303388 
L 292.066686 176.35543 
L 289.711964 174.569502 
L 287.357242 172.957492 
L 285.00252 171.531287 
L 282.647798 170.302776 
L 280.293076 169.283846 
L 277.938354 168.486386 
L 275.583632 167.922283 
L 273.22891 167.603425 
L 270.874188 167.541701 
L 268.519466 167.748997 
L 266.164744 168.237203 
L 263.810022 169.018206 
L 261.4553 170.103632 
L 259.100578 171.492324 
L 256.745856 173.164853 
L 254.391134 175.100381 
L 252.036412 177.278071 
L 249.68169 179.677085 
L 247.326968 182.276587 
L 244.972246 185.05574 
L 242.617524 187.993707 
L 240.262802 191.06965 
L 237.90808 194.262733 
L 235.553358 197.552119 
L 233.198636 200.91697 
L 230.843914 204.336449 
L 228.489192 207.789721 
L 226.13447 211.255946 
L 223.779748 214.71429 
L 221.425026 218.143913 
L 219.070304 221.52398 
L 216.715582 224.833654 
L 214.36086 228.052096 
L 212.006138 231.158471 
L 209.651416 234.131942 
L 207.296694 236.95167 
L 204.941972 239.59682 
L 202.58725 242.046554 
L 200.232528 244.280035 
L 197.877806 246.276426 
L 195.523084 248.014891 
L 193.168362 249.474591 
L 190.81364 250.63469 
L 188.458918 251.474352 
L 186.104196 251.972738 
L 183.749474 252.109013 
L 181.394752 251.862338 
L 179.04003 251.211877 
L 176.685308 250.136793 
L 174.330586 248.616248 
L 171.975864 246.629407 
L 169.621142 244.155431 
L 167.26642 241.173484 
L 164.911698 237.662729 
L 162.556976 233.602328 
L 160.202254 228.971445 
L 157.847532 223.749242 
L 155.49281 217.914883 
L 153.138088 211.447531 
L 150.783366 204.326348 
L 148.428644 196.530498 
L 146.073922 188.039143 
L 143.7192 178.831446 
L 141.364478 168.886571 
L 139.009756 158.18368 
L 136.655034 146.701936 
L 134.300312 134.420503 
z
" clip-path="url(#p7e23d1dd35)" style="fill: #215f53"/>
   </g>
   <g id="FillBetweenPolyCollection_2">
    <path d="M 134.300312 46.04795 
L 134.300312 134.420503 
L 136.655034 146.701936 
L 139.009756 158.18368 
L 141.364478 168.886571 
L 143.7192 178.831446 
L 146.073922 188.039143 
L 148.428644 196.530498 
L 150.783366 204.326348 
L 153.138088 211.447531 
L 155.49281 217.914883 
L 157.847532 223.749242 
L 160.202254 228.971445 
L 162.556976 233.602328 
L 164.911698 237.662729 
L 167.26642 241.173484 
L 169.621142 244.155431 
L 171.975864 246.629407 
L 174.330586 248.616248 
L 176.685308 250.136793 
L 179.04003 251.211877 
L 181.394752 251.862338 
L 183.749474 252.109013 
L 186.104196 251.972738 
L 188.458918 251.474352 
L 190.81364 250.63469 
L 193.168362 249.474591 
L 195.523084 248.014891 
L 197.877806 246.276426 
L 200.232528 244.280035 
L 202.58725 242.046554 
L 204.941972 239.59682 
L 207.296694 236.95167 
L 209.651416 234.131942 
L 212.006138 231.158471 
L 214.36086 228.052096 
L 216.715582 224.833654 
L 219.070304 221.52398 
L 221.425026 218.143913 
L 223.779748 214.71429 
L 226.13447 211.255946 
L 228.489192 207.789721 
L 230.843914 204.336449 
L 233.198636 200.91697 
L 235.553358 197.552119 
L 237.90808 194.262733 
L 240.262802 191.06965 
L 242.617524 187.993707 
L 244.972246 185.05574 
L 247.326968 182.276587 
L 249.68169 179.677085 
L 252.036412 177.278071 
L 254.391134 175.100381 
L 256.745856 173.164853 
L 259.100578 171.492324 
L 261.4553 170.103632 
L 263.810022 169.018206 
L 266.164744 168.237203 
L 268.519466 167.748997 
L 270.874188 167.541701 
L 273.22891 167.603425 
L 275.583632 167.922283 
L 277.938354 168.486386 
L 280.293076 169.283846 
L 282.647798 170.302776 
L 285.00252 171.531287 
L 287.357242 172.957492 
L 289.711964 174.569502 
L 292.066686 176.35543 
L 294.421408 178.303388 
L 296.77613 180.401488 
L 299.130852 182.637841 
L 301.485574 185.000561 
L 303.840296 187.477758 
L 306.195018 190.057545 
L 308.54974 192.728035 
L 310.904462 195.477338 
L 313.259184 198.293568 
L 315.613906 201.164836 
L 317.968628 204.079255 
L 320.32335 207.024936 
L 322.678072 209.989991 
L 325.032794 212.962533 
L 327.387516 215.930722 
L 329.742238 218.884121 
L 332.09696 221.813869 
L 334.451682 224.711189 
L 336.806404 227.567307 
L 339.161126 230.373446 
L 341.515848 233.120829 
L 343.87057 235.800682 
L 346.225292 238.404227 
L 348.580014 240.922689 
L 350.934736 243.347292 
L 353.289458 245.66926 
L 355.64418 247.879816 
L 357.998902 249.970185 
L 360.353624 251.931591 
L 362.708346 253.755257 
L 365.063068 255.432407 
L 367.41779 256.954266 
L 369.772511 258.312057 
L 372.127233 259.497005 
L 374.481955 260.500333 
L 376.836677 261.313265 
L 379.191399 261.927025 
L 381.546121 262.332838 
L 383.900843 262.521926 
L 386.255565 262.485515 
L 388.610287 262.214828 
L 390.965009 261.701206 
L 393.319731 260.94749 
L 395.674453 259.977504 
L 398.029175 258.817306 
L 400.383897 257.492955 
L 402.738619 256.030508 
L 405.093341 254.456024 
L 407.448063 252.79556 
L 409.802785 251.075175 
L 412.157507 249.320926 
L 414.512229 247.558872 
L 416.866951 245.815071 
L 419.221673 244.115581 
L 421.576395 242.486459 
L 423.931117 240.953765 
L 426.285839 239.543556 
L 428.640561 238.28189 
L 430.995283 237.194825 
L 433.350005 236.308419 
L 435.704727 235.648731 
L 438.059449 235.241818 
L 440.414171 235.113738 
L 442.768893 235.29055 
L 445.123615 235.798312 
L 447.478337 236.663081 
L 449.833059 237.910916 
L 452.187781 239.567875 
L 454.542503 241.660007 
L 456.897225 244.197869 
L 459.251947 247.144745 
L 461.606669 250.454934 
L 463.961391 254.082732 
L 466.316113 257.982439 
L 468.670835 262.108351 
L 471.025557 266.414768 
L 473.380279 270.855986 
L 475.735001 275.386304 
L 478.089723 279.96002 
L 480.444445 284.531432 
L 482.799167 289.054837 
L 485.153889 293.484534 
L 487.508611 297.77482 
L 489.863333 301.879994 
L 492.218055 305.754353 
L 494.572777 309.352195 
L 496.927499 312.627819 
L 499.282221 315.535522 
L 501.636943 318.029602 
L 503.991665 320.064357 
L 506.346387 321.594085 
L 508.701109 322.573084 
L 511.055831 322.955652 
L 513.410553 322.696087 
L 515.765275 321.748687 
L 518.119997 320.06775 
L 520.474719 317.620293 
L 522.829441 314.440257 
L 525.184163 310.58351 
L 527.538885 306.105936 
L 529.893607 301.063414 
L 532.248329 295.511828 
L 534.603051 289.50706 
L 536.957773 283.104991 
L 539.312495 276.361504 
L 541.667217 269.33248 
L 544.021939 262.073801 
L 546.376661 254.641349 
L 548.731383 247.091006 
L 551.086105 239.478655 
L 553.440827 231.860176 
L 555.795549 224.291453 
L 558.150271 216.828366 
L 560.504993 209.526799 
L 562.859715 202.442632 
L 565.214437 195.631748 
L 567.569159 189.150028 
L 569.923881 183.053356 
L 572.278603 177.397612 
L 574.633325 172.238679 
L 576.988047 167.632438 
L 579.342769 163.634771 
L 581.697491 160.301561 
L 584.052213 157.682923 
L 586.406935 155.774779 
L 588.761657 154.543362 
L 591.116379 153.954601 
L 593.471101 153.974422 
L 595.825823 154.568753 
L 598.180545 155.703524 
L 600.535267 157.34466 
L 602.889989 159.458091 
L 605.24471 162.009744 
L 607.599432 164.965547 
L 609.954154 168.291428 
L 612.308876 171.953314 
L 614.663598 175.917134 
L 617.01832 180.148816 
L 619.373042 184.614286 
L 621.727764 189.279474 
L 624.082486 194.110307 
L 626.437208 199.072713 
L 628.79193 204.13262 
L 631.146652 209.255955 
L 633.501374 214.408647 
L 635.856096 219.556623 
L 638.210818 224.665812 
L 640.56554 229.70214 
L 642.920262 234.631537 
L 645.274984 239.419929 
L 647.629706 244.034215 
L 649.984428 248.459457 
L 652.33915 252.696854 
L 654.693872 256.748165 
L 657.048594 260.615149 
L 659.403316 264.299566 
L 661.758038 267.803175 
L 664.11276 271.127734 
L 666.467482 274.275003 
L 668.822204 277.246741 
L 671.176926 280.044707 
L 673.531648 282.670661 
L 675.88637 285.12636 
L 678.241092 287.413565 
L 680.595814 289.534035 
L 682.950536 291.489529 
L 685.305258 293.281805 
L 687.65998 294.912623 
L 690.014702 296.383743 
L 692.369424 297.696923 
L 694.724146 298.853922 
L 697.078868 299.856499 
L 699.43359 300.706415 
L 701.788312 301.405427 
L 704.143034 301.955295 
L 706.497756 302.357778 
L 708.852478 302.614635 
L 711.2072 302.727678 
L 713.561922 302.701279 
L 715.916644 302.543467 
L 718.271366 302.262555 
L 720.626088 301.866857 
L 722.98081 301.364684 
L 725.335532 300.76435 
L 727.690254 300.074166 
L 730.044976 299.302445 
L 732.399698 298.4575 
L 734.75442 297.547643 
L 737.109142 296.581187 
L 739.463864 295.566444 
L 741.818586 294.511727 
L 744.173308 293.425348 
L 746.52803 292.31562 
L 748.882752 291.190855 
L 751.237474 290.059367 
L 753.592196 288.929466 
L 755.946918 287.809467 
L 758.30164 286.707681 
L 760.656362 285.63242 
L 763.011084 284.591999 
L 765.365806 283.594728 
L 767.720528 282.648921 
L 770.07525 281.76289 
L 772.429972 280.944947 
L 774.784694 280.203406 
L 777.139416 280.418732 
L 779.494138 281.946764 
L 781.84886 283.299009 
L 784.203582 284.484135 
L 786.558304 285.508856 
L 788.913026 286.377948 
L 791.267748 287.094218 
L 793.62247 287.658413 
L 795.977192 288.069051 
L 798.331914 288.322164 
L 800.686636 288.410914 
L 803.041358 288.325055 
L 805.39608 288.050163 
L 807.750802 287.566561 
L 810.105524 286.847776 
L 812.460246 285.858327 
L 814.814968 287.341403 
L 817.16969 289.396523 
L 819.524412 291.685981 
L 821.879134 294.218091 
L 824.233856 297.001166 
L 826.588578 300.043516 
L 828.9433 303.353456 
L 831.298022 306.939298 
L 833.652744 310.809354 
L 836.007466 314.971936 
L 838.362187 319.435358 
L 838.362187 262.084364 
L 838.362187 262.084364 
L 836.007466 229.321781 
L 833.652744 198.979505 
L 831.298022 170.990251 
L 828.9433 145.286738 
L 826.588578 121.801681 
L 824.233856 100.467797 
L 821.879134 81.217802 
L 819.524412 63.984414 
L 817.16969 48.700349 
L 814.814968 35.298323 
L 812.460246 25.004762 
L 810.105524 25.004762 
L 807.750802 25.004762 
L 805.39608 25.004762 
L 803.041358 25.004762 
L 800.686636 25.004762 
L 798.331914 25.004762 
L 795.977192 25.004762 
L 793.62247 25.004762 
L 791.267748 25.004762 
L 788.913026 25.004762 
L 786.558304 25.004762 
L 784.203582 25.004762 
L 781.84886 25.004762 
L 779.494138 25.004762 
L 777.139416 25.004762 
L 774.784694 30.218372 
L 772.429972 39.187605 
L 770.07525 48.760493 
L 767.720528 58.869754 
L 765.365806 69.448104 
L 763.011084 80.42826 
L 760.656362 91.742938 
L 758.30164 103.324855 
L 755.946918 115.106728 
L 753.592196 127.021273 
L 751.237474 139.001207 
L 748.882752 150.979246 
L 746.52803 162.888108 
L 744.173308 174.660508 
L 741.818586 186.229164 
L 739.463864 197.526792 
L 737.109142 208.486109 
L 734.75442 219.039831 
L 732.399698 229.120676 
L 730.044976 238.661359 
L 727.690254 247.594597 
L 725.335532 255.853107 
L 722.98081 263.369606 
L 720.626088 270.07681 
L 718.271366 275.907436 
L 715.916644 280.794201 
L 713.561922 284.669821 
L 711.2072 287.467012 
L 708.852478 289.123985 
L 706.497756 289.650377 
L 704.143034 289.105774 
L 701.788312 287.550788 
L 699.43359 285.046033 
L 697.078868 281.652119 
L 694.724146 277.429661 
L 692.369424 272.439268 
L 690.014702 266.741555 
L 687.65998 260.397133 
L 685.305258 253.466615 
L 682.950536 246.010612 
L 680.595814 238.089737 
L 678.241092 229.764603 
L 675.88637 221.09582 
L 673.531648 212.144003 
L 671.176926 202.969762 
L 668.822204 193.633711 
L 666.467482 184.196461 
L 664.11276 174.718625 
L 661.758038 165.260815 
L 659.403316 155.883643 
L 657.048594 146.647721 
L 654.693872 137.613662 
L 652.33915 128.842078 
L 649.984428 120.393582 
L 647.629706 112.328784 
L 645.274984 104.707176 
L 642.920262 97.555938 
L 640.56554 90.865876 
L 638.210818 84.625855 
L 635.856096 78.824739 
L 633.501374 73.451393 
L 631.146652 68.494681 
L 628.79193 63.943468 
L 626.437208 59.786619 
L 624.082486 56.012999 
L 621.727764 52.611471 
L 619.373042 49.570901 
L 617.01832 46.880153 
L 614.663598 44.528092 
L 612.308876 42.503582 
L 609.954154 40.795488 
L 607.599432 39.392675 
L 605.24471 38.284007 
L 602.889989 37.458349 
L 600.535267 36.904565 
L 598.180545 36.61152 
L 595.825823 36.56808 
L 593.471101 36.763107 
L 591.116379 37.185467 
L 588.761657 37.824025 
L 586.406935 38.667646 
L 584.052213 39.705193 
L 581.697491 40.925516 
L 579.342769 42.315971 
L 576.988047 43.861188 
L 574.633325 45.545509 
L 572.278603 47.353272 
L 569.923881 49.268819 
L 567.569159 51.27649 
L 565.214437 53.360624 
L 562.859715 55.505563 
L 560.504993 57.695647 
L 558.150271 59.915216 
L 555.795549 62.14861 
L 553.440827 64.38017 
L 551.086105 66.594236 
L 548.731383 68.775149 
L 546.376661 70.907248 
L 544.021939 72.974874 
L 541.667217 74.962367 
L 539.312495 76.854068 
L 536.957773 78.634317 
L 534.603051 80.287454 
L 532.248329 81.79782 
L 529.893607 83.149755 
L 527.538885 84.327599 
L 525.184163 85.315693 
L 522.829441 86.098377 
L 520.474719 86.659991 
L 518.119997 86.98488 
L 515.765275 87.065154 
L 513.410553 86.916618 
L 511.055831 86.559582 
L 508.701109 86.014356 
L 506.346387 85.301249 
L 503.991665 84.440571 
L 501.636943 83.452631 
L 499.282221 82.357739 
L 496.927499 81.176205 
L 494.572777 79.928337 
L 492.218055 78.634446 
L 489.863333 77.314842 
L 487.508611 75.989833 
L 485.153889 74.67973 
L 482.799167 73.404842 
L 480.444445 72.185478 
L 478.089723 71.041949 
L 475.735001 69.994563 
L 473.380279 69.063631 
L 471.025557 68.269461 
L 468.670835 67.632364 
L 466.316113 67.172649 
L 463.961391 66.910626 
L 461.606669 66.866604 
L 459.251947 67.060893 
L 456.897225 67.513802 
L 454.542503 68.245641 
L 452.187781 69.271168 
L 449.833059 70.575936 
L 447.478337 72.135925 
L 445.123615 73.927112 
L 442.768893 75.925472 
L 440.414171 78.106981 
L 438.059449 80.447616 
L 435.704727 82.923351 
L 433.350005 85.510163 
L 430.995283 88.184028 
L 428.640561 90.920922 
L 426.285839 93.69682 
L 423.931117 96.487698 
L 421.576395 99.269532 
L 419.221673 102.018298 
L 416.866951 104.709972 
L 414.512229 107.32053 
L 412.157507 109.825947 
L 409.802785 112.2022 
L 407.448063 114.425264 
L 405.093341 116.471116 
L 402.738619 118.31573 
L 400.383897 119.935083 
L 398.029175 121.305151 
L 395.674453 122.40191 
L 393.319731 123.201335 
L 390.965009 123.679403 
L 388.610287 123.81518 
L 386.255565 123.616788 
L 383.900843 123.108265 
L 381.546121 122.313813 
L 379.191399 121.257634 
L 376.836677 119.963928 
L 374.481955 118.456898 
L 372.127233 116.760746 
L 369.772511 114.899673 
L 367.41779 112.89788 
L 365.063068 110.77957 
L 362.708346 108.568945 
L 360.353624 106.290205 
L 357.998902 103.967553 
L 355.64418 101.62519 
L 353.289458 99.287318 
L 350.934736 96.978138 
L 348.580014 94.721853 
L 346.225292 92.542663 
L 343.87057 90.464772 
L 341.515848 88.512379 
L 339.161126 86.709688 
L 336.806404 85.080899 
L 334.451682 83.650215 
L 332.09696 82.441836 
L 329.742238 81.479965 
L 327.387516 80.788804 
L 325.032794 80.391418 
L 322.678072 80.289581 
L 320.32335 80.466158 
L 317.968628 80.903356 
L 315.613906 81.583384 
L 313.259184 82.488447 
L 310.904462 83.600753 
L 308.54974 84.90251 
L 306.195018 86.375925 
L 303.840296 88.003205 
L 301.485574 89.766557 
L 299.130852 91.64819 
L 296.77613 93.630309 
L 294.421408 95.695123 
L 292.066686 97.824839 
L 289.711964 100.001664 
L 287.357242 102.207805 
L 285.00252 104.42547 
L 282.647798 106.636866 
L 280.293076 108.8242 
L 277.938354 110.96968 
L 275.583632 113.055512 
L 273.22891 115.063905 
L 270.874188 116.977066 
L 268.519466 118.777201 
L 266.164744 120.446519 
L 263.810022 121.967226 
L 261.4553 123.321706 
L 259.100578 124.500948 
L 256.745856 125.508242 
L 254.391134 126.347826 
L 252.036412 127.023938 
L 249.68169 127.540813 
L 247.326968 127.902691 
L 244.972246 128.113809 
L 242.617524 128.178402 
L 240.262802 128.100711 
L 237.90808 127.88497 
L 235.553358 127.535419 
L 233.198636 127.056294 
L 230.843914 126.451832 
L 228.489192 125.726272 
L 226.13447 124.88385 
L 223.779748 123.928804 
L 221.425026 122.865372 
L 219.070304 121.69779 
L 216.715582 120.430295 
L 214.36086 119.067127 
L 212.006138 117.612521 
L 209.651416 116.070715 
L 207.296694 114.445947 
L 204.941972 112.742454 
L 202.58725 110.964473 
L 200.232528 109.116242 
L 197.877806 107.201998 
L 195.523084 105.225979 
L 193.168362 103.192421 
L 190.81364 101.105563 
L 188.458918 98.969641 
L 186.104196 96.788893 
L 183.749474 94.567557 
L 181.394752 92.30987 
L 179.04003 90.020069 
L 176.685308 87.702391 
L 174.330586 85.361074 
L 171.975864 83.000356 
L 169.621142 80.624474 
L 167.26642 78.237664 
L 164.911698 75.844166 
L 162.556976 73.448215 
L 160.202254 71.054049 
L 157.847532 68.665906 
L 155.49281 66.288023 
L 153.138088 63.924638 
L 150.783366 61.579987 
L 148.428644 59.258309 
L 146.073922 56.96384 
L 143.7192 54.700819 
L 141.364478 52.473482 
L 139.009756 50.286066 
L 136.655034 48.14281 
L 134.300312 46.04795 
z
" clip-path="url(#p7e23d1dd35)" style="fill: #7570b3"/>
   </g>
   <g id="FillBetweenPolyCollection_3">
    <path d="M 134.300312 25.004762 
L 134.300312 46.04795 
L 136.655034 48.14281 
L 139.009756 50.286066 
L 141.364478 52.473482 
L 143.7192 54.700819 
L 146.073922 56.96384 
L 148.428644 59.258309 
L 150.783366 61.579987 
L 153.138088 63.924638 
L 155.49281 66.288023 
L 157.847532 68.665906 
L 160.202254 71.054049 
L 162.556976 73.448215 
L 164.911698 75.844166 
L 167.26642 78.237664 
L 169.621142 80.624474 
L 171.975864 83.000356 
L 174.330586 85.361074 
L 176.685308 87.702391 
L 179.04003 90.020069 
L 181.394752 92.30987 
L 183.749474 94.567557 
L 186.104196 96.788893 
L 188.458918 98.969641 
L 190.81364 101.105563 
L 193.168362 103.192421 
L 195.523084 105.225979 
L 197.877806 107.201998 
L 200.232528 109.116242 
L 202.58725 110.964473 
L 204.941972 112.742454 
L 207.296694 114.445947 
L 209.651416 116.070715 
L 212.006138 117.612521 
L 214.36086 119.067127 
L 216.715582 120.430295 
L 219.070304 121.69779 
L 221.425026 122.865372 
L 223.779748 123.928804 
L 226.13447 124.88385 
L 228.489192 125.726272 
L 230.843914 126.451832 
L 233.198636 127.056294 
L 235.553358 127.535419 
L 237.90808 127.88497 
L 240.262802 128.100711 
L 242.617524 128.178402 
L 244.972246 128.113809 
L 247.326968 127.902691 
L 249.68169 127.540813 
L 252.036412 127.023938 
L 254.391134 126.347826 
L 256.745856 125.508242 
L 259.100578 124.500948 
L 261.4553 123.321706 
L 263.810022 121.967226 
L 266.164744 120.446519 
L 268.519466 118.777201 
L 270.874188 116.977066 
L 273.22891 115.063905 
L 275.583632 113.055512 
L 277.938354 110.96968 
L 280.293076 108.8242 
L 282.647798 106.636866 
L 285.00252 104.42547 
L 287.357242 102.207805 
L 289.711964 100.001664 
L 292.066686 97.824839 
L 294.421408 95.695123 
L 296.77613 93.630309 
L 299.130852 91.64819 
L 301.485574 89.766557 
L 303.840296 88.003205 
L 306.195018 86.375925 
L 308.54974 84.90251 
L 310.904462 83.600753 
L 313.259184 82.488447 
L 315.613906 81.583384 
L 317.968628 80.903356 
L 320.32335 80.466158 
L 322.678072 80.289581 
L 325.032794 80.391418 
L 327.387516 80.788804 
L 329.742238 81.479965 
L 332.09696 82.441836 
L 334.451682 83.650215 
L 336.806404 85.080899 
L 339.161126 86.709688 
L 341.515848 88.512379 
L 343.87057 90.464772 
L 346.225292 92.542663 
L 348.580014 94.721853 
L 350.934736 96.978138 
L 353.289458 99.287318 
L 355.64418 101.62519 
L 357.998902 103.967553 
L 360.353624 106.290205 
L 362.708346 108.568945 
L 365.063068 110.77957 
L 367.41779 112.89788 
L 369.772511 114.899673 
L 372.127233 116.760746 
L 374.481955 118.456898 
L 376.836677 119.963928 
L 379.191399 121.257634 
L 381.546121 122.313813 
L 383.900843 123.108265 
L 386.255565 123.616788 
L 388.610287 123.81518 
L 390.965009 123.679403 
L 393.319731 123.201335 
L 395.674453 122.40191 
L 398.029175 121.305151 
L 400.383897 119.935083 
L 402.738619 118.31573 
L 405.093341 116.471116 
L 407.448063 114.425264 
L 409.802785 112.2022 
L 412.157507 109.825947 
L 414.512229 107.32053 
L 416.866951 104.709972 
L 419.221673 102.018298 
L 421.576395 99.269532 
L 423.931117 96.487698 
L 426.285839 93.69682 
L 428.640561 90.920922 
L 430.995283 88.184028 
L 433.350005 85.510163 
L 435.704727 82.923351 
L 438.059449 80.447616 
L 440.414171 78.106981 
L 442.768893 75.925472 
L 445.123615 73.927112 
L 447.478337 72.135925 
L 449.833059 70.575936 
L 452.187781 69.271168 
L 454.542503 68.245641 
L 456.897225 67.513802 
L 459.251947 67.060893 
L 461.606669 66.866604 
L 463.961391 66.910626 
L 466.316113 67.172649 
L 468.670835 67.632364 
L 471.025557 68.269461 
L 473.380279 69.063631 
L 475.735001 69.994563 
L 478.089723 71.041949 
L 480.444445 72.185478 
L 482.799167 73.404842 
L 485.153889 74.67973 
L 487.508611 75.989833 
L 489.863333 77.314842 
L 492.218055 78.634446 
L 494.572777 79.928337 
L 496.927499 81.176205 
L 499.282221 82.357739 
L 501.636943 83.452631 
L 503.991665 84.440571 
L 506.346387 85.301249 
L 508.701109 86.014356 
L 511.055831 86.559582 
L 513.410553 86.916618 
L 515.765275 87.065154 
L 518.119997 86.98488 
L 520.474719 86.659991 
L 522.829441 86.098377 
L 525.184163 85.315693 
L 527.538885 84.327599 
L 529.893607 83.149755 
L 532.248329 81.79782 
L 534.603051 80.287454 
L 536.957773 78.634317 
L 539.312495 76.854068 
L 541.667217 74.962367 
L 544.021939 72.974874 
L 546.376661 70.907248 
L 548.731383 68.775149 
L 551.086105 66.594236 
L 553.440827 64.38017 
L 555.795549 62.14861 
L 558.150271 59.915216 
L 560.504993 57.695647 
L 562.859715 55.505563 
L 565.214437 53.360624 
L 567.569159 51.27649 
L 569.923881 49.268819 
L 572.278603 47.353272 
L 574.633325 45.545509 
L 576.988047 43.861188 
L 579.342769 42.315971 
L 581.697491 40.925516 
L 584.052213 39.705193 
L 586.406935 38.667646 
L 588.761657 37.824025 
L 591.116379 37.185467 
L 593.471101 36.763107 
L 595.825823 36.56808 
L 598.180545 36.61152 
L 600.535267 36.904565 
L 602.889989 37.458349 
L 605.24471 38.284007 
L 607.599432 39.392675 
L 609.954154 40.795488 
L 612.308876 42.503582 
L 614.663598 44.528092 
L 617.01832 46.880153 
L 619.373042 49.570901 
L 621.727764 52.611471 
L 624.082486 56.012999 
L 626.437208 59.786619 
L 628.79193 63.943468 
L 631.146652 68.494681 
L 633.501374 73.451393 
L 635.856096 78.824739 
L 638.210818 84.625855 
L 640.56554 90.865876 
L 642.920262 97.555938 
L 645.274984 104.707176 
L 647.629706 112.328784 
L 649.984428 120.393582 
L 652.33915 128.842078 
L 654.693872 137.613662 
L 657.048594 146.647721 
L 659.403316 155.883643 
L 661.758038 165.260815 
L 664.11276 174.718625 
L 666.467482 184.196461 
L 668.822204 193.633711 
L 671.176926 202.969762 
L 673.531648 212.144003 
L 675.88637 221.09582 
L 678.241092 229.764603 
L 680.595814 238.089737 
L 682.950536 246.010612 
L 685.305258 253.466615 
L 687.65998 260.397133 
L 690.014702 266.741555 
L 692.369424 272.439268 
L 694.724146 277.429661 
L 697.078868 281.652119 
L 699.43359 285.046033 
L 701.788312 287.550788 
L 704.143034 289.105774 
L 706.497756 289.650377 
L 708.852478 289.123985 
L 711.2072 287.467012 
L 713.561922 284.669821 
L 715.916644 280.794201 
L 718.271366 275.907436 
L 720.626088 270.07681 
L 722.98081 263.369606 
L 725.335532 255.853107 
L 727.690254 247.594597 
L 730.044976 238.661359 
L 732.399698 229.120676 
L 734.75442 219.039831 
L 737.109142 208.486109 
L 739.463864 197.526792 
L 741.818586 186.229164 
L 744.173308 174.660508 
L 746.52803 162.888108 
L 748.882752 150.979246 
L 751.237474 139.001207 
L 753.592196 127.021273 
L 755.946918 115.106728 
L 758.30164 103.324855 
L 760.656362 91.742938 
L 763.011084 80.42826 
L 765.365806 69.448104 
L 767.720528 58.869754 
L 770.07525 48.760493 
L 772.429972 39.187605 
L 774.784694 30.218372 
L 777.139416 25.004762 
L 779.494138 25.004762 
L 781.84886 25.004762 
L 784.203582 25.004762 
L 786.558304 25.004762 
L 788.913026 25.004762 
L 791.267748 25.004762 
L 793.62247 25.004762 
L 795.977192 25.004762 
L 798.331914 25.004762 
L 800.686636 25.004762 
L 803.041358 25.004762 
L 805.39608 25.004762 
L 807.750802 25.004762 
L 810.105524 25.004762 
L 812.460246 25.004762 
L 814.814968 35.298323 
L 817.16969 48.700349 
L 819.524412 63.984414 
L 821.879134 81.217802 
L 824.233856 100.467797 
L 826.588578 121.801681 
L 828.9433 145.286738 
L 831.298022 170.990251 
L 833.652744 198.979505 
L 836.007466 229.321781 
L 838.362187 262.084364 
L 838.362187 25.004762 
L 838.362187 25.004762 
L 836.007466 25.004762 
L 833.652744 25.004762 
L 831.298022 25.004762 
L 828.9433 25.004762 
L 826.588578 25.004762 
L 824.233856 25.004762 
L 821.879134 25.004762 
L 819.524412 25.004762 
L 817.16969 25.004762 
L 814.814968 25.004762 
L 812.460246 25.004762 
L 810.105524 25.004762 
L 807.750802 25.004762 
L 805.39608 25.004762 
L 803.041358 25.004762 
L 800.686636 25.004762 
L 798.331914 25.004762 
L 795.977192 25.004762 
L 793.62247 25.004762 
L 791.267748 25.004762 
L 788.913026 25.004762 
L 786.558304 25.004762 
L 784.203582 25.004762 
L 781.84886 25.004762 
L 779.494138 25.004762 
L 777.139416 25.004762 
L 774.784694 25.004762 
L 772.429972 25.004762 
L 770.07525 25.004762 
L 767.720528 25.004762 
L 765.365806 25.004762 
L 763.011084 25.004762 
L 760.656362 25.004762 
L 758.30164 25.004762 
L 755.946918 25.004762 
L 753.592196 25.004762 
L 751.237474 25.004762 
L 748.882752 25.004762 
L 746.52803 25.004762 
L 744.173308 25.004762 
L 741.818586 25.004762 
L 739.463864 25.004762 
L 737.109142 25.004762 
L 734.75442 25.004762 
L 732.399698 25.004762 
L 730.044976 25.004762 
L 727.690254 25.004762 
L 725.335532 25.004762 
L 722.98081 25.004762 
L 720.626088 25.004762 
L 718.271366 25.004762 
L 715.916644 25.004762 
L 713.561922 25.004762 
L 711.2072 25.004762 
L 708.852478 25.004762 
L 706.497756 25.004762 
L 704.143034 25.004762 
L 701.788312 25.004762 
L 699.43359 25.004762 
L 697.078868 25.004762 
L 694.724146 25.004762 
L 692.369424 25.004762 
L 690.014702 25.004762 
L 687.65998 25.004762 
L 685.305258 25.004762 
L 682.950536 25.004762 
L 680.595814 25.004762 
L 678.241092 25.004762 
L 675.88637 25.004762 
L 673.531648 25.004762 
L 671.176926 25.004762 
L 668.822204 25.004762 
L 666.467482 25.004762 
L 664.11276 25.004762 
L 661.758038 25.004762 
L 659.403316 25.004762 
L 657.048594 25.004762 
L 654.693872 25.004762 
L 652.33915 25.004762 
L 649.984428 25.004762 
L 647.629706 25.004762 
L 645.274984 25.004762 
L 642.920262 25.004762 
L 640.56554 25.004762 
L 638.210818 25.004762 
L 635.856096 25.004762 
L 633.501374 25.004762 
L 631.146652 25.004762 
L 628.79193 25.004762 
L 626.437208 25.004762 
L 624.082486 25.004762 
L 621.727764 25.004762 
L 619.373042 25.004762 
L 617.01832 25.004762 
L 614.663598 25.004762 
L 612.308876 25.004762 
L 609.954154 25.004762 
L 607.599432 25.004762 
L 605.24471 25.004762 
L 602.889989 25.004762 
L 600.535267 25.004762 
L 598.180545 25.004762 
L 595.825823 25.004762 
L 593.471101 25.004762 
L 591.116379 25.004762 
L 588.761657 25.004762 
L 586.406935 25.004762 
L 584.052213 25.004762 
L 581.697491 25.004762 
L 579.342769 25.004762 
L 576.988047 25.004762 
L 574.633325 25.004762 
L 572.278603 25.004762 
L 569.923881 25.004762 
L 567.569159 25.004762 
L 565.214437 25.004762 
L 562.859715 25.004762 
L 560.504993 25.004762 
L 558.150271 25.004762 
L 555.795549 25.004762 
L 553.440827 25.004762 
L 551.086105 25.004762 
L 548.731383 25.004762 
L 546.376661 25.004762 
L 544.021939 25.004762 
L 541.667217 25.004762 
L 539.312495 25.004762 
L 536.957773 25.004762 
L 534.603051 25.004762 
L 532.248329 25.004762 
L 529.893607 25.004762 
L 527.538885 25.004762 
L 525.184163 25.004762 
L 522.829441 25.004762 
L 520.474719 25.004762 
L 518.119997 25.004762 
L 515.765275 25.004762 
L 513.410553 25.004762 
L 511.055831 25.004762 
L 508.701109 25.004762 
L 506.346387 25.004762 
L 503.991665 25.004762 
L 501.636943 25.004762 
L 499.282221 25.004762 
L 496.927499 25.004762 
L 494.572777 25.004762 
L 492.218055 25.004762 
L 489.863333 25.004762 
L 487.508611 25.004762 
L 485.153889 25.004762 
L 482.799167 25.004762 
L 480.444445 25.004762 
L 478.089723 25.004762 
L 475.735001 25.004762 
L 473.380279 25.004762 
L 471.025557 25.004762 
L 468.670835 25.004762 
L 466.316113 25.004762 
L 463.961391 25.004762 
L 461.606669 25.004762 
L 459.251947 25.004762 
L 456.897225 25.004762 
L 454.542503 25.004762 
L 452.187781 25.004762 
L 449.833059 25.004762 
L 447.478337 25.004762 
L 445.123615 25.004762 
L 442.768893 25.004762 
L 440.414171 25.004762 
L 438.059449 25.004762 
L 435.704727 25.004762 
L 433.350005 25.004762 
L 430.995283 25.004762 
L 428.640561 25.004762 
L 426.285839 25.004762 
L 423.931117 25.004762 
L 421.576395 25.004762 
L 419.221673 25.004762 
L 416.866951 25.004762 
L 414.512229 25.004762 
L 412.157507 25.004762 
L 409.802785 25.004762 
L 407.448063 25.004762 
L 405.093341 25.004762 
L 402.738619 25.004762 
L 400.383897 25.004762 
L 398.029175 25.004762 
L 395.674453 25.004762 
L 393.319731 25.004762 
L 390.965009 25.004762 
L 388.610287 25.004762 
L 386.255565 25.004762 
L 383.900843 25.004762 
L 381.546121 25.004762 
L 379.191399 25.004762 
L 376.836677 25.004762 
L 374.481955 25.004762 
L 372.127233 25.004762 
L 369.772511 25.004762 
L 367.41779 25.004762 
L 365.063068 25.004762 
L 362.708346 25.004762 
L 360.353624 25.004762 
L 357.998902 25.004762 
L 355.64418 25.004762 
L 353.289458 25.004762 
L 350.934736 25.004762 
L 348.580014 25.004762 
L 346.225292 25.004762 
L 343.87057 25.004762 
L 341.515848 25.004762 
L 339.161126 25.004762 
L 336.806404 25.004762 
L 334.451682 25.004762 
L 332.09696 25.004762 
L 329.742238 25.004762 
L 327.387516 25.004762 
L 325.032794 25.004762 
L 322.678072 25.004762 
L 320.32335 25.004762 
L 317.968628 25.004762 
L 315.613906 25.004762 
L 313.259184 25.004762 
L 310.904462 25.004762 
L 308.54974 25.004762 
L 306.195018 25.004762 
L 303.840296 25.004762 
L 301.485574 25.004762 
L 299.130852 25.004762 
L 296.77613 25.004762 
L 294.421408 25.004762 
L 292.066686 25.004762 
L 289.711964 25.004762 
L 287.357242 25.004762 
L 285.00252 25.004762 
L 282.647798 25.004762 
L 280.293076 25.004762 
L 277.938354 25.004762 
L 275.583632 25.004762 
L 273.22891 25.004762 
L 270.874188 25.004762 
L 268.519466 25.004762 
L 266.164744 25.004762 
L 263.810022 25.004762 
L 261.4553 25.004762 
L 259.100578 25.004762 
L 256.745856 25.004762 
L 254.391134 25.004762 
L 252.036412 25.004762 
L 249.68169 25.004762 
L 247.326968 25.004762 
L 244.972246 25.004762 
L 242.617524 25.004762 
L 240.262802 25.004762 
L 237.90808 25.004762 
L 235.553358 25.004762 
L 233.198636 25.004762 
L 230.843914 25.004762 
L 228.489192 25.004762 
L 226.13447 25.004762 
L 223.779748 25.004762 
L 221.425026 25.004762 
L 219.070304 25.004762 
L 216.715582 25.004762 
L 214.36086 25.004762 
L 212.006138 25.004762 
L 209.651416 25.004762 
L 207.296694 25.004762 
L 204.941972 25.004762 
L 202.58725 25.004762 
L 200.232528 25.004762 
L 197.877806 25.004762 
L 195.523084 25.004762 
L 193.168362 25.004762 
L 190.81364 25.004762 
L 188.458918 25.004762 
L 186.104196 25.004762 
L 183.749474 25.004762 
L 181.394752 25.004762 
L 179.04003 25.004762 
L 176.685308 25.004762 
L 174.330586 25.004762 
L 171.975864 25.004762 
L 169.621142 25.004762 
L 167.26642 25.004762 
L 164.911698 25.004762 
L 162.556976 25.004762 
L 160.202254 25.004762 
L 157.847532 25.004762 
L 155.49281 25.004762 
L 153.138088 25.004762 
L 150.783366 25.004762 
L 148.428644 25.004762 
L 146.073922 25.004762 
L 143.7192 25.004762 
L 141.364478 25.004762 
L 139.009756 25.004762 
L 136.655034 25.004762 
L 134.300312 25.004762 
z
" clip-path="url(#p7e23d1dd35)" style="fill: #c7eae5"/>
   </g>
   <g id="matplotlib.axis_1">
    <g id="xtick_1">
     <g id="line2d_1">
      <path d="M 134.300312 381.1 
L 134.300312 7.2 
" clip-path="url(#p7e23d1dd35)" style="fill: none; stroke: #ffffff; stroke-opacity: 0.3; stroke-width: 0.75; stroke-linecap: square"/>
     </g>
     <g id="line2d_2">
      <defs>
       <path id="m7a61e52947" d="M 0 0 
L 0 3.5 
" style="stroke: #000000; stroke-width: 0.8"/>
      </defs>
      <g>
       <use xlink:href="#m7a61e52947" x="134.300312" y="381.1" style="stroke: #000000; stroke-width: 0.8"/>
      </g>
     </g>
     <g id="text_1">
      <text style="font-weight: 600; font-size: 24px; font-family: 'Montserrat'; fill: #767676" transform="translate(140.875937 515.225) rotate(-90)">01-01-2023</text>
     </g>
    </g>
    <g id="xtick_2">
     <g id="line2d_3">
      <path d="M 198.305937 381.1 
L 198.305937 7.2 
" clip-path="url(#p7e23d1dd35)" style="fill: none; stroke: #ffffff; stroke-opacity: 0.3; stroke-width: 0.75; stroke-linecap: square"/>
     </g>
     <g id="line2d_4">
      <g>
       <use xlink:href="#m7a61e52947" x="198.305937" y="381.1" style="stroke: #000000; stroke-width: 0.8"/>
      </g>
     </g>
     <g id="text_2">
      <text style="font-weight: 600; font-size: 24px; font-family: 'Montserrat'; fill: #767676" transform="translate(204.881562 520.05125) rotate(-90)">01-02-2023</text>
     </g>
    </g>
    <g id="xtick_3">
     <g id="line2d_5">
      <path d="M 262.311562 381.1 
L 262.311562 7.2 
" clip-path="url(#p7e23d1dd35)" style="fill: none; stroke: #ffffff; stroke-opacity: 0.3; stroke-width: 0.75; stroke-linecap: square"/>
     </g>
     <g id="line2d_6">
      <g>
       <use xlink:href="#m7a61e52947" x="262.311562" y="381.1" style="stroke: #000000; stroke-width: 0.8"/>
      </g>
     </g>
     <g id="text_3">
      <text style="font-weight: 600; font-size: 24px; font-family: 'Montserrat'; fill: #767676" transform="translate(268.887187 520.05125) rotate(-90)">01-03-2023</text>
     </g>
    </g>
    <g id="xtick_4">
     <g id="line2d_7">
      <path d="M 326.317187 381.1 
L 326.317187 7.2 
" clip-path="url(#p7e23d1dd35)" style="fill: none; stroke: #ffffff; stroke-opacity: 0.3; stroke-width: 0.75; stroke-linecap: square"/>
     </g>
     <g id="line2d_8">
      <g>
       <use xlink:href="#m7a61e52947" x="326.317187" y="381.1" style="stroke: #000000; stroke-width: 0.8"/>
      </g>
     </g>
     <g id="text_4">
      <text style="font-weight: 600; font-size: 24px; font-family: 'Montserrat'; fill: #767676" transform="translate(332.892812 522.38) rotate(-90)">01-04-2023</text>
     </g>
    </g>
    <g id="xtick_5">
     <g id="line2d_9">
      <path d="M 390.322812 381.1 
L 390.322812 7.2 
" clip-path="url(#p7e23d1dd35)" style="fill: none; stroke: #ffffff; stroke-opacity: 0.3; stroke-width: 0.75; stroke-linecap: square"/>
     </g>
     <g id="line2d_10">
      <g>
       <use xlink:href="#m7a61e52947" x="390.322812" y="381.1" style="stroke: #000000; stroke-width: 0.8"/>
      </g>
     </g>
     <g id="text_5">
      <text style="font-weight: 600; font-size: 24px; font-family: 'Montserrat'; fill: #767676" transform="translate(396.898437 520.1) rotate(-90)">01-05-2023</text>
     </g>
    </g>
    <g id="xtick_6">
     <g id="line2d_11">
      <path d="M 454.328437 381.1 
L 454.328437 7.2 
" clip-path="url(#p7e23d1dd35)" style="fill: none; stroke: #ffffff; stroke-opacity: 0.3; stroke-width: 0.75; stroke-linecap: square"/>
     </g>
     <g id="line2d_12">
      <g>
       <use xlink:href="#m7a61e52947" x="454.328437" y="381.1" style="stroke: #000000; stroke-width: 0.8"/>
      </g>
     </g>
     <g id="text_6">
      <text style="font-weight: 600; font-size: 24px; font-family: 'Montserrat'; fill: #767676" transform="translate(460.904062 521.13125) rotate(-90)">01-06-2023</text>
     </g>
    </g>
    <g id="xtick_7">
     <g id="line2d_13">
      <path d="M 518.334062 381.1 
L 518.334062 7.2 
" clip-path="url(#p7e23d1dd35)" style="fill: none; stroke: #ffffff; stroke-opacity: 0.3; stroke-width: 0.75; stroke-linecap: square"/>
     </g>
     <g id="line2d_14">
      <g>
       <use xlink:href="#m7a61e52947" x="518.334062" y="381.1" style="stroke: #000000; stroke-width: 0.8"/>
      </g>
     </g>
     <g id="text_7">
      <text style="font-weight: 600; font-size: 24px; font-family: 'Montserrat'; fill: #767676" transform="translate(524.909687 520.67375) rotate(-90)">01-07-2023</text>
     </g>
    </g>
    <g id="xtick_8">
     <g id="line2d_15">
      <path d="M 582.339687 381.1 
L 582.339687 7.2 
" clip-path="url(#p7e23d1dd35)" style="fill: none; stroke: #ffffff; stroke-opacity: 0.3; stroke-width: 0.75; stroke-linecap: square"/>
     </g>
     <g id="line2d_16">
      <g>
       <use xlink:href="#m7a61e52947" x="582.339687" y="381.1" style="stroke: #000000; stroke-width: 0.8"/>
      </g>
     </g>
     <g id="text_8">
      <text style="font-weight: 600; font-size: 24px; font-family: 'Montserrat'; fill: #767676" transform="translate(588.915312 521.73125) rotate(-90)">01-08-2023</text>
     </g>
    </g>
    <g id="xtick_9">
     <g id="line2d_17">
      <path d="M 646.345312 381.1 
L 646.345312 7.2 
" clip-path="url(#p7e23d1dd35)" style="fill: none; stroke: #ffffff; stroke-opacity: 0.3; stroke-width: 0.75; stroke-linecap: square"/>
     </g>
     <g id="line2d_18">
      <g>
       <use xlink:href="#m7a61e52947" x="646.345312" y="381.1" style="stroke: #000000; stroke-width: 0.8"/>
      </g>
     </g>
     <g id="text_9">
      <text style="font-weight: 600; font-size: 24px; font-family: 'Montserrat'; fill: #767676" transform="translate(652.920937 521.13125) rotate(-90)">01-09-2023</text>
     </g>
    </g>
    <g id="xtick_10">
     <g id="line2d_19">
      <path d="M 710.350937 381.1 
L 710.350937 7.2 
" clip-path="url(#p7e23d1dd35)" style="fill: none; stroke: #ffffff; stroke-opacity: 0.3; stroke-width: 0.75; stroke-linecap: square"/>
     </g>
     <g id="line2d_20">
      <g>
       <use xlink:href="#m7a61e52947" x="710.350937" y="381.1" style="stroke: #000000; stroke-width: 0.8"/>
      </g>
     </g>
     <g id="text_10">
      <text style="font-weight: 600; font-size: 24px; font-family: 'Montserrat'; fill: #767676" transform="translate(716.926562 515.225) rotate(-90)">01-10-2023</text>
     </g>
    </g>
    <g id="xtick_11">
     <g id="line2d_21">
      <path d="M 774.356562 381.1 
L 774.356562 7.2 
" clip-path="url(#p7e23d1dd35)" style="fill: none; stroke: #ffffff; stroke-opacity: 0.3; stroke-width: 0.75; stroke-linecap: square"/>
     </g>
     <g id="line2d_22">
      <g>
       <use xlink:href="#m7a61e52947" x="774.356562" y="381.1" style="stroke: #000000; stroke-width: 0.8"/>
      </g>
     </g>
     <g id="text_11">
      <text style="font-weight: 600; font-size: 24px; font-family: 'Montserrat'; fill: #767676" transform="translate(780.932187 508.21625) rotate(-90)">01-11-2023</text>
     </g>
    </g>
    <g id="xtick_12">
     <g id="line2d_23">
      <path d="M 838.362187 381.1 
L 838.362187 7.2 
" clip-path="url(#p7e23d1dd35)" style="fill: none; stroke: #ffffff; stroke-opacity: 0.3; stroke-width: 0.75; stroke-linecap: square"/>
     </g>
     <g id="line2d_24">
      <g>
       <use xlink:href="#m7a61e52947" x="838.362187" y="381.1" style="stroke: #000000; stroke-width: 0.8"/>
      </g>
     </g>
     <g id="text_12">
      <text style="font-weight: 600; font-size: 24px; font-family: 'Montserrat'; fill: #767676" transform="translate(844.937812 513.0425) rotate(-90)">01-12-2023</text>
     </g>
    </g>
    <g id="text_13">
     <text style="font-weight: 500; font-size: 24px; font-family: 'Montserrat'; text-anchor: middle" x="486.33125" y="556.18875" transform="rotate(-0 486.33125 556.18875)">Fecha</text>
    </g>
   </g>
   <g id="matplotlib.axis_2">
    <g id="ytick_1">
     <g id="line2d_25">
      <path d="M 102.2975 381.1 
L 870.365 381.1 
" clip-path="url(#p7e23d1dd35)" style="fill: none; stroke: #ffffff; stroke-opacity: 0.8; stroke-width: 1.25; stroke-linecap: square"/>
     </g>
     <g id="line2d_26">
      <defs>
       <path id="m6fb470e0e2" d="M 0 0 
L -3.5 0 
" style="stroke: #000000; stroke-width: 0.8"/>
      </defs>
      <g>
       <use xlink:href="#m6fb470e0e2" x="102.2975" y="381.1" style="stroke: #000000; stroke-width: 0.8"/>
      </g>
     </g>
     <g id="text_14">
      <text style="font-weight: 500; font-size: 24px; font-family: 'Montserrat'; text-anchor: end; fill: #767676" x="95.2975" y="390.004375" transform="rotate(-0 95.2975 390.004375)">0%</text>
     </g>
    </g>
    <g id="ytick_2">
     <g id="line2d_27">
      <path d="M 102.2975 292.07619 
L 870.365 292.07619 
" clip-path="url(#p7e23d1dd35)" style="fill: none; stroke: #ffffff; stroke-opacity: 0.8; stroke-width: 1.25; stroke-linecap: square"/>
     </g>
     <g id="line2d_28">
      <g>
       <use xlink:href="#m6fb470e0e2" x="102.2975" y="292.07619" style="stroke: #000000; stroke-width: 0.8"/>
      </g>
     </g>
     <g id="text_15">
      <text style="font-weight: 500; font-size: 24px; font-family: 'Montserrat'; text-anchor: end; fill: #767676" x="95.2975" y="300.980565" transform="rotate(-0 95.2975 300.980565)">25%</text>
     </g>
    </g>
    <g id="ytick_3">
     <g id="line2d_29">
      <path d="M 102.2975 203.052381 
L 870.365 203.052381 
" clip-path="url(#p7e23d1dd35)" style="fill: none; stroke: #ffffff; stroke-opacity: 0.8; stroke-width: 1.25; stroke-linecap: square"/>
     </g>
     <g id="line2d_30">
      <g>
       <use xlink:href="#m6fb470e0e2" x="102.2975" y="203.052381" style="stroke: #000000; stroke-width: 0.8"/>
      </g>
     </g>
     <g id="text_16">
      <text style="font-weight: 500; font-size: 24px; font-family: 'Montserrat'; text-anchor: end; fill: #767676" x="95.2975" y="211.956756" transform="rotate(-0 95.2975 211.956756)">50%</text>
     </g>
    </g>
    <g id="ytick_4">
     <g id="line2d_31">
      <path d="M 102.2975 114.028571 
L 870.365 114.028571 
" clip-path="url(#p7e23d1dd35)" style="fill: none; stroke: #ffffff; stroke-opacity: 0.8; stroke-width: 1.25; stroke-linecap: square"/>
     </g>
     <g id="line2d_32">
      <g>
       <use xlink:href="#m6fb470e0e2" x="102.2975" y="114.028571" style="stroke: #000000; stroke-width: 0.8"/>
      </g>
     </g>
     <g id="text_17">
      <text style="font-weight: 500; font-size: 24px; font-family: 'Montserrat'; text-anchor: end; fill: #767676" x="95.2975" y="122.932946" transform="rotate(-0 95.2975 122.932946)">75%</text>
     </g>
    </g>
    <g id="ytick_5">
     <g id="line2d_33">
      <path d="M 102.2975 25.004762 
L 870.365 25.004762 
" clip-path="url(#p7e23d1dd35)" style="fill: none; stroke: #ffffff; stroke-opacity: 0.8; stroke-width: 1.25; stroke-linecap: square"/>
     </g>
     <g id="line2d_34">
      <g>
       <use xlink:href="#m6fb470e0e2" x="102.2975" y="25.004762" style="stroke: #000000; stroke-width: 0.8"/>
      </g>
     </g>
     <g id="text_18">
      <text style="font-weight: 500; font-size: 24px; font-family: 'Montserrat'; text-anchor: end; fill: #767676" x="95.2975" y="33.909137" transform="rotate(-0 95.2975 33.909137)">100%</text>
     </g>
    </g>
    <g id="text_19">
     <text style="font-weight: 500; font-size: 24px; font-family: 'Montserrat'; text-anchor: middle" x="25.36875" y="194.15" transform="rotate(-90 25.36875 194.15)">Porcentaje</text>
    </g>
   </g>
   <g id="patch_3">
    <path d="M 102.2975 381.1 
L 870.365 381.1 
" style="fill: none; stroke: #000000; stroke-width: 2; stroke-linejoin: miter; stroke-linecap: square"/>
   </g>
   <g id="text_20">
    <g id="patch_4">
     <path d="M 185.624687 349.046652 
L 210.987187 349.046652 
Q 230.987187 349.046652 230.987187 329.046652 
L 230.987187 326.324777 
Q 230.987187 306.324777 210.987187 306.324777 
L 185.624687 306.324777 
Q 165.624687 306.324777 165.624687 326.324777 
L 165.624687 329.046652 
Q 165.624687 349.046652 185.624687 349.046652 
z
" style="fill: #ffffff; stroke: #215f53; stroke-width: 1.8; stroke-linejoin: miter"/>
    </g>
    <text style="font-weight: 500; font-size: 20px; font-family: 'Montserrat'; text-anchor: middle; fill: #767676" x="198.305937" y="333.165402" transform="rotate(-0 198.305937 333.165402)">4.72</text>
   </g>
   <g id="text_21">
    <g id="patch_5">
     <path d="M 473.189062 224.413318 
L 499.473437 224.413318 
Q 519.473437 224.413318 519.473437 204.413318 
L 519.473437 201.691443 
Q 519.473437 181.691443 499.473437 181.691443 
L 473.189062 181.691443 
Q 453.189062 181.691443 453.189062 201.691443 
L 453.189062 204.413318 
Q 453.189062 224.413318 473.189062 224.413318 
z
" style="fill: #ffffff; stroke: #7570b3; stroke-width: 1.8; stroke-linejoin: miter"/>
    </g>
    <text style="font-weight: 500; font-size: 20px; font-family: 'Montserrat'; text-anchor: middle; fill: #767676" x="486.33125" y="208.532068" transform="rotate(-0 486.33125 208.532068)">4.28</text>
   </g>
   <g id="text_22">
    <g id="patch_6">
     <path d="M 761.025312 99.779985 
L 787.687812 99.779985 
Q 807.687812 99.779985 807.687812 79.779985 
L 807.687812 77.05811 
Q 807.687812 57.05811 787.687812 57.05811 
L 761.025312 57.05811 
Q 741.025312 57.05811 741.025312 77.05811 
L 741.025312 79.779985 
Q 741.025312 99.779985 761.025312 99.779985 
z
" style="fill: #ffffff; stroke: #c7eae5; stroke-width: 1.8; stroke-linejoin: miter"/>
    </g>
    <text style="font-weight: 500; font-size: 20px; font-family: 'Montserrat'; text-anchor: middle; fill: #767676" x="774.356562" y="83.898735" transform="rotate(-0 774.356562 83.898735)">3.00</text>
   </g>
  </g>
  <g id="axes_2">
   <g id="patch_7">
    <path d="M 881.165 381.1 
L 1137.1875 381.1 
L 1137.1875 7.2 
L 881.165 7.2 
z
" style="fill: #ffffff"/>
   </g>
   <g id="patch_8">
    <path d="M 945.170625 381.1 
L 1073.181875 381.1 
L 1073.181875 233.7834 
L 945.170625 233.7834 
z
" clip-path="url(#pa3bbbb089b)" style="fill: #215f53; stroke: #ffffff; stroke-width: 0.5; stroke-linejoin: miter"/>
   </g>
   <g id="patch_9">
    <path d="M 945.170625 233.7834 
L 1073.181875 233.7834 
L 1073.181875 100.3011 
L 945.170625 100.3011 
z
" clip-path="url(#pa3bbbb089b)" style="fill: #7570b3; stroke: #ffffff; stroke-width: 0.5; stroke-linejoin: miter"/>
   </g>
   <g id="patch_10">
    <path d="M 945.170625 100.3011 
L 1073.181875 100.3011 
L 1073.181875 7.2 
L 945.170625 7.2 
z
" clip-path="url(#pa3bbbb089b)" style="fill: #c7eae5; stroke: #ffffff; stroke-width: 0.5; stroke-linejoin: miter"/>
   </g>
   <g id="matplotlib.axis_3"/>
   <g id="matplotlib.axis_4"/>
   <g id="text_23">
    <text style="font-weight: 500; font-size: 20px; font-family: 'Montserrat'; text-anchor: middle; fill: #ffffff" x="1009.17625" y="312.921387" transform="rotate(-0 1009.17625 312.921387)">39.4%</text>
   </g>
   <g id="text_24">
    <text style="font-weight: 500; font-size: 20px; font-family: 'Montserrat'; text-anchor: middle; fill: #ffffff" x="1009.17625" y="172.521937" transform="rotate(-0 1009.17625 172.521937)">35.7%</text>
   </g>
   <g id="text_25">
    <text style="font-weight: 500; font-size: 20px; font-family: 'Montserrat'; text-anchor: middle; fill: #ffffff" x="1009.17625" y="59.230237" transform="rotate(-0 1009.17625 59.230237)">24.9%</text>
   </g>
  </g>
 </g>
 <defs>
  <clipPath id="p7e23d1dd35">
   <rect x="102.2975" y="7.2" width="768.0675" height="373.9"/>
  </clipPath>
  <clipPath id="pa3bbbb089b">
   <rect x="881.165" y="7.2" width="256.0225" height="373.9"/>
  </clipPath>
 </defs>
</svg>
