<?xml version="1.0" encoding="utf-8" standalone="no"?>
<!DOCTYPE svg PUBLIC "-//W3C//DTD SVG 1.1//EN"
  "http://www.w3.org/Graphics/SVG/1.1/DTD/svg11.dtd">
<svg xmlns:xlink="http://www.w3.org/1999/xlink" width="856.3875pt" height="609.92625pt" viewBox="0 0 856.3875 609.92625" xmlns="http://www.w3.org/2000/svg" version="1.1">
 <metadata>
  <rdf:RDF xmlns:dc="http://purl.org/dc/elements/1.1/" xmlns:cc="http://creativecommons.org/ns#" xmlns:rdf="http://www.w3.org/1999/02/22-rdf-syntax-ns#">
   <cc:Work>
    <dc:type rdf:resource="http://purl.org/dc/dcmitype/StillImage"/>
    <dc:date>2025-06-03T11:23:36.081398</dc:date>
    <dc:format>image/svg+xml</dc:format>
    <dc:creator>
     <cc:Agent>
      <dc:title>Matplotlib v3.10.1, https://matplotlib.org/</dc:title>
     </cc:Agent>
    </dc:creator>
   </cc:Work>
  </rdf:RDF>
 </metadata>
 <defs>
  <style type="text/css">*{stroke-linejoin: round; stroke-linecap: butt}</style>
 </defs>
 <g id="figure_1">
  <g id="patch_1">
   <path d="M 0 609.92625 
L 856.3875 609.92625 
L 856.3875 0 
L 0 0 
z
" style="fill: #ffffff"/>
  </g>
  <g id="axes_1">
   <g id="patch_2">
    <path d="M 102.2975 434.98 
L 849.1875 434.98 
L 849.1875 49.08 
L 102.2975 49.08 
z
" style="fill: #ffffff"/>
   </g>
   <g id="FillBetweenPolyCollection_1">
    <path d="M 133.417917 385.460943 
L 133.417917 434.98 
L 135.707713 434.98 
L 137.99751 434.98 
L 140.287306 434.98 
L 142.577103 434.98 
L 144.866899 434.98 
L 147.156696 434.98 
L 149.446492 434.98 
L 151.736289 434.98 
L 154.026086 434.98 
L 156.315882 434.98 
L 158.605679 434.98 
L 160.895475 434.98 
L 163.185272 434.98 
L 165.475068 434.98 
L 167.764865 434.98 
L 170.054661 434.98 
L 172.344458 434.98 
L 174.634254 434.98 
L 176.924051 434.98 
L 179.213848 434.98 
L 181.503644 434.98 
L 183.793441 434.98 
L 186.083237 434.98 
L 188.373034 434.98 
L 190.66283 434.98 
L 192.952627 434.98 
L 195.242423 434.98 
L 197.53222 434.98 
L 199.822016 434.98 
L 202.111813 434.98 
L 204.40161 434.98 
L 206.691406 434.98 
L 208.981203 434.98 
L 211.270999 434.98 
L 213.560796 434.98 
L 215.850592 434.98 
L 218.140389 434.98 
L 220.430185 434.98 
L 222.719982 434.98 
L 225.009778 434.98 
L 227.299575 434.98 
L 229.589372 434.98 
L 231.879168 434.98 
L 234.168965 434.98 
L 236.458761 434.98 
L 238.748558 434.98 
L 241.038354 434.98 
L 243.328151 434.98 
L 245.617947 434.98 
L 247.907744 434.98 
L 250.19754 434.98 
L 252.487337 434.98 
L 254.777134 434.98 
L 257.06693 434.98 
L 259.356727 434.98 
L 261.646523 434.98 
L 263.93632 434.98 
L 266.226116 434.98 
L 268.515913 434.98 
L 270.805709 434.98 
L 273.095506 434.98 
L 275.385302 434.98 
L 277.675099 434.98 
L 279.964895 434.98 
L 282.254692 434.98 
L 284.544489 434.98 
L 286.834285 434.98 
L 289.124082 434.98 
L 291.413878 434.98 
L 293.703675 434.98 
L 295.993471 434.98 
L 298.283268 434.98 
L 300.573064 434.98 
L 302.862861 434.98 
L 305.152657 434.98 
L 307.442454 434.98 
L 309.732251 434.98 
L 312.022047 434.98 
L 314.311844 434.98 
L 316.60164 434.98 
L 318.891437 434.98 
L 321.181233 434.98 
L 323.47103 434.98 
L 325.760826 434.98 
L 328.050623 434.98 
L 330.340419 434.98 
L 332.630216 434.98 
L 334.920013 434.98 
L 337.209809 434.98 
L 339.499606 434.98 
L 341.789402 434.98 
L 344.079199 434.98 
L 346.368995 434.98 
L 348.658792 434.98 
L 350.948588 434.98 
L 353.238385 434.98 
L 355.528181 434.98 
L 357.817978 434.98 
L 360.107775 434.98 
L 362.397571 434.98 
L 364.687368 434.98 
L 366.977164 434.98 
L 369.266961 434.98 
L 371.556757 434.98 
L 373.846554 434.98 
L 376.13635 434.98 
L 378.426147 434.98 
L 380.715943 434.98 
L 383.00574 434.98 
L 385.295537 434.98 
L 387.585333 434.98 
L 389.87513 434.98 
L 392.164926 434.98 
L 394.454723 434.98 
L 396.744519 434.98 
L 399.034316 434.98 
L 401.324112 434.98 
L 403.613909 434.98 
L 405.903705 434.98 
L 408.193502 434.98 
L 410.483298 434.98 
L 412.773095 434.98 
L 415.062892 434.98 
L 417.352688 434.98 
L 419.642485 434.98 
L 421.932281 434.98 
L 424.222078 434.98 
L 426.511874 434.98 
L 428.801671 434.98 
L 431.091467 434.98 
L 433.381264 434.98 
L 435.67106 434.98 
L 437.960857 434.98 
L 440.250654 434.98 
L 442.54045 434.98 
L 444.830247 434.98 
L 447.120043 434.98 
L 449.40984 434.98 
L 451.699636 434.98 
L 453.989433 434.98 
L 456.279229 434.98 
L 458.569026 434.98 
L 460.858822 434.98 
L 463.148619 434.98 
L 465.438416 434.98 
L 467.728212 434.98 
L 470.018009 434.98 
L 472.307805 434.98 
L 474.597602 434.98 
L 476.887398 434.98 
L 479.177195 434.98 
L 481.466991 434.98 
L 483.756788 434.98 
L 486.046584 434.98 
L 488.336381 434.98 
L 490.626178 434.98 
L 492.915974 434.98 
L 495.205771 434.98 
L 497.495567 434.98 
L 499.785364 434.98 
L 502.07516 434.98 
L 504.364957 434.98 
L 506.654753 434.98 
L 508.94455 434.98 
L 511.234346 434.98 
L 513.524143 434.98 
L 515.81394 434.98 
L 518.103736 434.98 
L 520.393533 434.98 
L 522.683329 434.98 
L 524.973126 434.98 
L 527.262922 434.98 
L 529.552719 434.98 
L 531.842515 434.98 
L 534.132312 434.98 
L 536.422108 434.98 
L 538.711905 434.98 
L 541.001702 434.98 
L 543.291498 434.98 
L 545.581295 434.98 
L 547.871091 434.98 
L 550.160888 434.98 
L 552.450684 434.98 
L 554.740481 434.98 
L 557.030277 434.98 
L 559.320074 434.98 
L 561.60987 434.98 
L 563.899667 434.98 
L 566.189463 434.98 
L 568.47926 434.98 
L 570.769057 434.98 
L 573.058853 434.98 
L 575.34865 434.98 
L 577.638446 434.98 
L 579.928243 434.98 
L 582.218039 434.98 
L 584.507836 434.98 
L 586.797632 434.98 
L 589.087429 434.98 
L 591.377225 434.98 
L 593.667022 434.98 
L 595.956819 434.98 
L 598.246615 434.98 
L 600.536412 434.98 
L 602.826208 434.98 
L 605.116005 434.98 
L 607.405801 434.98 
L 609.695598 434.98 
L 611.985394 434.98 
L 614.275191 434.98 
L 616.564987 434.98 
L 618.854784 434.98 
L 621.144581 434.98 
L 623.434377 434.98 
L 625.724174 434.98 
L 628.01397 434.98 
L 630.303767 434.98 
L 632.593563 434.98 
L 634.88336 434.98 
L 637.173156 434.98 
L 639.462953 434.98 
L 641.752749 434.98 
L 644.042546 434.98 
L 646.332343 434.98 
L 648.622139 434.98 
L 650.911936 434.98 
L 653.201732 434.98 
L 655.491529 434.98 
L 657.781325 434.98 
L 660.071122 434.98 
L 662.360918 434.98 
L 664.650715 434.98 
L 666.940511 434.98 
L 669.230308 434.98 
L 671.520105 434.98 
L 673.809901 434.98 
L 676.099698 434.98 
L 678.389494 434.98 
L 680.679291 434.98 
L 682.969087 434.98 
L 685.258884 434.98 
L 687.54868 434.98 
L 689.838477 434.98 
L 692.128273 434.98 
L 694.41807 434.98 
L 696.707866 434.98 
L 698.997663 434.98 
L 701.28746 434.98 
L 703.577256 434.98 
L 705.867053 434.98 
L 708.156849 434.98 
L 710.446646 434.98 
L 712.736442 434.98 
L 715.026239 434.98 
L 717.316035 434.98 
L 719.605832 434.98 
L 721.895628 434.98 
L 724.185425 434.98 
L 726.475222 434.98 
L 728.765018 434.98 
L 731.054815 434.98 
L 733.344611 434.98 
L 735.634408 434.98 
L 737.924204 434.98 
L 740.214001 434.98 
L 742.503797 434.98 
L 744.793594 434.98 
L 747.08339 434.98 
L 749.373187 434.98 
L 751.662984 434.98 
L 753.95278 434.98 
L 756.242577 434.98 
L 758.532373 434.98 
L 760.82217 434.98 
L 763.111966 434.98 
L 765.401763 434.98 
L 767.691559 434.98 
L 769.981356 434.98 
L 772.271152 434.98 
L 774.560949 434.98 
L 776.850746 434.98 
L 779.140542 434.98 
L 781.430339 434.98 
L 783.720135 434.98 
L 786.009932 434.98 
L 788.299728 434.98 
L 790.589525 434.98 
L 792.879321 434.98 
L 795.169118 434.98 
L 797.458914 434.98 
L 799.748711 434.98 
L 802.038508 434.98 
L 804.328304 434.98 
L 806.618101 434.98 
L 808.907897 434.98 
L 811.197694 434.98 
L 813.48749 434.98 
L 815.777287 434.98 
L 818.067083 434.98 
L 818.067083 267.545922 
L 818.067083 267.545922 
L 815.777287 262.750354 
L 813.48749 258.444977 
L 811.197694 254.614899 
L 808.907897 251.24523 
L 806.618101 248.32108 
L 804.328304 245.827559 
L 802.038508 243.749776 
L 799.748711 242.072841 
L 797.458914 240.781864 
L 795.169118 239.861953 
L 792.879321 239.29822 
L 790.589525 239.075773 
L 788.299728 239.179721 
L 786.009932 239.595176 
L 783.720135 240.307246 
L 781.430339 241.30104 
L 779.140542 242.56167 
L 776.850746 244.074243 
L 774.560949 245.82387 
L 772.271152 247.795661 
L 769.981356 249.974725 
L 767.691559 252.346172 
L 765.401763 254.89511 
L 763.111966 257.606651 
L 760.82217 260.465904 
L 758.532373 263.457977 
L 756.242577 266.567982 
L 753.95278 269.781027 
L 751.662984 273.082222 
L 749.373187 276.456677 
L 747.08339 279.889502 
L 744.793594 283.365805 
L 742.503797 286.870697 
L 740.214001 290.389287 
L 737.924204 293.906686 
L 735.634408 297.408001 
L 733.344611 300.878344 
L 731.054815 304.302824 
L 728.765018 307.66655 
L 726.475222 310.954633 
L 724.185425 314.152181 
L 721.895628 317.244304 
L 719.605832 320.216113 
L 717.316035 323.052715 
L 715.026239 325.739223 
L 712.736442 328.260744 
L 710.446646 330.602388 
L 708.156849 332.749266 
L 705.867053 334.686486 
L 703.577256 336.399159 
L 701.28746 337.872394 
L 698.997663 339.0913 
L 696.707866 340.040988 
L 694.41807 340.706567 
L 692.128273 341.074775 
L 689.838477 341.153531 
L 687.54868 340.965567 
L 685.258884 340.533916 
L 682.969087 339.881613 
L 680.679291 339.031694 
L 678.389494 338.007192 
L 676.099698 336.831143 
L 673.809901 335.526581 
L 671.520105 334.116541 
L 669.230308 332.624057 
L 666.940511 331.072165 
L 664.650715 329.483899 
L 662.360918 327.882293 
L 660.071122 326.290383 
L 657.781325 324.731202 
L 655.491529 323.227787 
L 653.201732 321.803171 
L 650.911936 320.480389 
L 648.622139 319.282476 
L 646.332343 318.232466 
L 644.042546 317.353395 
L 641.752749 316.668296 
L 639.462953 316.200206 
L 637.173156 315.972157 
L 634.88336 316.007186 
L 632.593563 316.328326 
L 630.303767 316.957784 
L 628.01397 317.893924 
L 625.724174 319.108266 
L 623.434377 320.570899 
L 621.144581 322.25191 
L 618.854784 324.121387 
L 616.564987 326.149418 
L 614.275191 328.306091 
L 611.985394 330.561494 
L 609.695598 332.885715 
L 607.405801 335.248842 
L 605.116005 337.620962 
L 602.826208 339.972164 
L 600.536412 342.272535 
L 598.246615 344.492164 
L 595.956819 346.601139 
L 593.667022 348.569547 
L 591.377225 350.367476 
L 589.087429 351.965014 
L 586.797632 353.33225 
L 584.507836 354.439271 
L 582.218039 355.256164 
L 579.928243 355.753019 
L 577.638446 355.899923 
L 575.34865 355.666963 
L 573.058853 355.024228 
L 570.769057 353.941806 
L 568.47926 352.390045 
L 566.189463 350.364744 
L 563.899667 347.90815 
L 561.60987 345.067454 
L 559.320074 341.889845 
L 557.030277 338.422515 
L 554.740481 334.712654 
L 552.450684 330.807452 
L 550.160888 326.7541 
L 547.871091 322.599788 
L 545.581295 318.391707 
L 543.291498 314.177048 
L 541.001702 310.003 
L 538.711905 305.916754 
L 536.422108 301.965501 
L 534.132312 298.196432 
L 531.842515 294.656736 
L 529.552719 291.393604 
L 527.262922 288.454226 
L 524.973126 285.885794 
L 522.683329 283.735498 
L 520.393533 282.050527 
L 518.103736 280.878073 
L 515.81394 280.265326 
L 513.524143 280.259477 
L 511.234346 280.907715 
L 508.94455 282.257232 
L 506.654753 284.355204 
L 504.364957 287.224728 
L 502.07516 290.815424 
L 499.785364 295.062942 
L 497.495567 299.902936 
L 495.205771 305.271056 
L 492.915974 311.102954 
L 490.626178 317.334283 
L 488.336381 323.900693 
L 486.046584 330.737837 
L 483.756788 337.781367 
L 481.466991 344.966934 
L 479.177195 352.230189 
L 476.887398 359.506785 
L 474.597602 366.732374 
L 472.307805 373.842607 
L 470.018009 380.773136 
L 467.728212 387.459613 
L 465.438416 393.837689 
L 463.148619 399.843017 
L 460.858822 405.411248 
L 458.569026 410.478034 
L 456.279229 414.979026 
L 453.989433 418.849877 
L 451.699636 422.026237 
L 449.40984 424.44376 
L 447.120043 426.038097 
L 444.830247 426.744899 
L 442.54045 426.515619 
L 440.250654 425.384837 
L 437.960857 423.414373 
L 435.67106 420.666065 
L 433.381264 417.201748 
L 431.091467 413.083259 
L 428.801671 408.372434 
L 426.511874 403.131109 
L 424.222078 397.421122 
L 421.932281 391.304307 
L 419.642485 384.842503 
L 417.352688 378.097544 
L 415.062892 371.131267 
L 412.773095 364.00551 
L 410.483298 356.782107 
L 408.193502 349.522896 
L 405.903705 342.289712 
L 403.613909 335.144393 
L 401.324112 328.148775 
L 399.034316 321.364693 
L 396.744519 314.853985 
L 394.454723 308.678486 
L 392.164926 302.900034 
L 389.87513 297.580464 
L 387.585333 292.781612 
L 385.295537 288.565316 
L 383.00574 284.993411 
L 380.715943 282.121062 
L 378.426147 279.940727 
L 376.13635 278.410511 
L 373.846554 277.488166 
L 371.556757 277.131445 
L 369.266961 277.2981 
L 366.977164 277.945883 
L 364.687368 279.032546 
L 362.397571 280.515842 
L 360.107775 282.353523 
L 357.817978 284.503342 
L 355.528181 286.92305 
L 353.238385 289.570399 
L 350.948588 292.403143 
L 348.658792 295.379033 
L 346.368995 298.455822 
L 344.079199 301.591261 
L 341.789402 304.743104 
L 339.499606 307.869102 
L 337.209809 310.927008 
L 334.920013 313.874575 
L 332.630216 316.669553 
L 330.340419 319.269696 
L 328.050623 321.632756 
L 325.760826 323.716485 
L 323.47103 325.478635 
L 321.181233 326.876959 
L 318.891437 327.870771 
L 316.60164 328.448656 
L 314.311844 328.625199 
L 312.022047 328.415886 
L 309.732251 327.836205 
L 307.442454 326.901642 
L 305.152657 325.627687 
L 302.862861 324.029824 
L 300.573064 322.123543 
L 298.283268 319.924329 
L 295.993471 317.447671 
L 293.703675 314.709055 
L 291.413878 311.723968 
L 289.124082 308.507899 
L 286.834285 305.076334 
L 284.544489 301.44476 
L 282.254692 297.628665 
L 279.964895 293.643536 
L 277.675099 289.50486 
L 275.385302 285.228124 
L 273.095506 280.828816 
L 270.805709 276.322423 
L 268.515913 271.724432 
L 266.226116 267.050331 
L 263.93632 262.315606 
L 261.646523 257.535745 
L 259.356727 252.726234 
L 257.06693 247.90256 
L 254.777134 243.080055 
L 252.487337 238.273841 
L 250.19754 233.499024 
L 247.907744 228.770708 
L 245.617947 224.103998 
L 243.328151 219.513998 
L 241.038354 215.015815 
L 238.748558 210.624551 
L 236.458761 206.355313 
L 234.168965 202.223205 
L 231.879168 198.243332 
L 229.589372 194.430799 
L 227.299575 190.800711 
L 225.009778 187.368172 
L 222.719982 184.148288 
L 220.430185 181.156163 
L 218.140389 178.406902 
L 215.850592 175.91561 
L 213.560796 173.697392 
L 211.270999 171.767352 
L 208.981203 170.140596 
L 206.691406 168.832229 
L 204.40161 167.857354 
L 202.111813 167.231078 
L 199.822016 166.968504 
L 197.53222 167.084739 
L 195.242423 167.594886 
L 192.952627 168.51405 
L 190.66283 169.857337 
L 188.373034 171.63985 
L 186.083237 173.876696 
L 183.793441 176.582979 
L 181.503644 179.773804 
L 179.213848 183.464275 
L 176.924051 187.669497 
L 174.634254 192.404576 
L 172.344458 197.684616 
L 170.054661 203.524721 
L 167.764865 209.939998 
L 165.475068 216.94555 
L 163.185272 224.556483 
L 160.895475 232.787901 
L 158.605679 241.654909 
L 156.315882 251.172613 
L 154.026086 261.356116 
L 151.736289 272.220524 
L 149.446492 283.780942 
L 147.156696 296.052474 
L 144.866899 309.050226 
L 142.577103 322.789301 
L 140.287306 337.284806 
L 137.99751 352.551845 
L 135.707713 368.605522 
L 133.417917 385.460943 
z
" clip-path="url(#pb33f70ff73)" style="fill: #215f53"/>
   </g>
   <g id="FillBetweenPolyCollection_2">
    <path d="M 133.417917 166.791531 
L 133.417917 385.460943 
L 135.707713 368.605522 
L 137.99751 352.551845 
L 140.287306 337.284806 
L 142.577103 322.789301 
L 144.866899 309.050226 
L 147.156696 296.052474 
L 149.446492 283.780942 
L 151.736289 272.220524 
L 154.026086 261.356116 
L 156.315882 251.172613 
L 158.605679 241.654909 
L 160.895475 232.787901 
L 163.185272 224.556483 
L 165.475068 216.94555 
L 167.764865 209.939998 
L 170.054661 203.524721 
L 172.344458 197.684616 
L 174.634254 192.404576 
L 176.924051 187.669497 
L 179.213848 183.464275 
L 181.503644 179.773804 
L 183.793441 176.582979 
L 186.083237 173.876696 
L 188.373034 171.63985 
L 190.66283 169.857337 
L 192.952627 168.51405 
L 195.242423 167.594886 
L 197.53222 167.084739 
L 199.822016 166.968504 
L 202.111813 167.231078 
L 204.40161 167.857354 
L 206.691406 168.832229 
L 208.981203 170.140596 
L 211.270999 171.767352 
L 213.560796 173.697392 
L 215.850592 175.91561 
L 218.140389 178.406902 
L 220.430185 181.156163 
L 222.719982 184.148288 
L 225.009778 187.368172 
L 227.299575 190.800711 
L 229.589372 194.430799 
L 231.879168 198.243332 
L 234.168965 202.223205 
L 236.458761 206.355313 
L 238.748558 210.624551 
L 241.038354 215.015815 
L 243.328151 219.513998 
L 245.617947 224.103998 
L 247.907744 228.770708 
L 250.19754 233.499024 
L 252.487337 238.273841 
L 254.777134 243.080055 
L 257.06693 247.90256 
L 259.356727 252.726234 
L 261.646523 257.535745 
L 263.93632 262.315606 
L 266.226116 267.050331 
L 268.515913 271.724432 
L 270.805709 276.322423 
L 273.095506 280.828816 
L 275.385302 285.228124 
L 277.675099 289.50486 
L 279.964895 293.643536 
L 282.254692 297.628665 
L 284.544489 301.44476 
L 286.834285 305.076334 
L 289.124082 308.507899 
L 291.413878 311.723968 
L 293.703675 314.709055 
L 295.993471 317.447671 
L 298.283268 319.924329 
L 300.573064 322.123543 
L 302.862861 324.029824 
L 305.152657 325.627687 
L 307.442454 326.901642 
L 309.732251 327.836205 
L 312.022047 328.415886 
L 314.311844 328.625199 
L 316.60164 328.448656 
L 318.891437 327.870771 
L 321.181233 326.876959 
L 323.47103 325.478635 
L 325.760826 323.716485 
L 328.050623 321.632756 
L 330.340419 319.269696 
L 332.630216 316.669553 
L 334.920013 313.874575 
L 337.209809 310.927008 
L 339.499606 307.869102 
L 341.789402 304.743104 
L 344.079199 301.591261 
L 346.368995 298.455822 
L 348.658792 295.379033 
L 350.948588 292.403143 
L 353.238385 289.570399 
L 355.528181 286.92305 
L 357.817978 284.503342 
L 360.107775 282.353523 
L 362.397571 280.515842 
L 364.687368 279.032546 
L 366.977164 277.945883 
L 369.266961 277.2981 
L 371.556757 277.131445 
L 373.846554 277.488166 
L 376.13635 278.410511 
L 378.426147 279.940727 
L 380.715943 282.121062 
L 383.00574 284.993411 
L 385.295537 288.565316 
L 387.585333 292.781612 
L 389.87513 297.580464 
L 392.164926 302.900034 
L 394.454723 308.678486 
L 396.744519 314.853985 
L 399.034316 321.364693 
L 401.324112 328.148775 
L 403.613909 335.144393 
L 405.903705 342.289712 
L 408.193502 349.522896 
L 410.483298 356.782107 
L 412.773095 364.00551 
L 415.062892 371.131267 
L 417.352688 378.097544 
L 419.642485 384.842503 
L 421.932281 391.304307 
L 424.222078 397.421122 
L 426.511874 403.131109 
L 428.801671 408.372434 
L 431.091467 413.083259 
L 433.381264 417.201748 
L 435.67106 420.666065 
L 437.960857 423.414373 
L 440.250654 425.384837 
L 442.54045 426.515619 
L 444.830247 426.744899 
L 447.120043 426.038097 
L 449.40984 424.44376 
L 451.699636 422.026237 
L 453.989433 418.849877 
L 456.279229 414.979026 
L 458.569026 410.478034 
L 460.858822 405.411248 
L 463.148619 399.843017 
L 465.438416 393.837689 
L 467.728212 387.459613 
L 470.018009 380.773136 
L 472.307805 373.842607 
L 474.597602 366.732374 
L 476.887398 359.506785 
L 479.177195 352.230189 
L 481.466991 344.966934 
L 483.756788 337.781367 
L 486.046584 330.737837 
L 488.336381 323.900693 
L 490.626178 317.334283 
L 492.915974 311.102954 
L 495.205771 305.271056 
L 497.495567 299.902936 
L 499.785364 295.062942 
L 502.07516 290.815424 
L 504.364957 287.224728 
L 506.654753 284.355204 
L 508.94455 282.257232 
L 511.234346 280.907715 
L 513.524143 280.259477 
L 515.81394 280.265326 
L 518.103736 280.878073 
L 520.393533 282.050527 
L 522.683329 283.735498 
L 524.973126 285.885794 
L 527.262922 288.454226 
L 529.552719 291.393604 
L 531.842515 294.656736 
L 534.132312 298.196432 
L 536.422108 301.965501 
L 538.711905 305.916754 
L 541.001702 310.003 
L 543.291498 314.177048 
L 545.581295 318.391707 
L 547.871091 322.599788 
L 550.160888 326.7541 
L 552.450684 330.807452 
L 554.740481 334.712654 
L 557.030277 338.422515 
L 559.320074 341.889845 
L 561.60987 345.067454 
L 563.899667 347.90815 
L 566.189463 350.364744 
L 568.47926 352.390045 
L 570.769057 353.941806 
L 573.058853 355.024228 
L 575.34865 355.666963 
L 577.638446 355.899923 
L 579.928243 355.753019 
L 582.218039 355.256164 
L 584.507836 354.439271 
L 586.797632 353.33225 
L 589.087429 351.965014 
L 591.377225 350.367476 
L 593.667022 348.569547 
L 595.956819 346.601139 
L 598.246615 344.492164 
L 600.536412 342.272535 
L 602.826208 339.972164 
L 605.116005 337.620962 
L 607.405801 335.248842 
L 609.695598 332.885715 
L 611.985394 330.561494 
L 614.275191 328.306091 
L 616.564987 326.149418 
L 618.854784 324.121387 
L 621.144581 322.25191 
L 623.434377 320.570899 
L 625.724174 319.108266 
L 628.01397 317.893924 
L 630.303767 316.957784 
L 632.593563 316.328326 
L 634.88336 316.007186 
L 637.173156 315.972157 
L 639.462953 316.200206 
L 641.752749 316.668296 
L 644.042546 317.353395 
L 646.332343 318.232466 
L 648.622139 319.282476 
L 650.911936 320.480389 
L 653.201732 321.803171 
L 655.491529 323.227787 
L 657.781325 324.731202 
L 660.071122 326.290383 
L 662.360918 327.882293 
L 664.650715 329.483899 
L 666.940511 331.072165 
L 669.230308 332.624057 
L 671.520105 334.116541 
L 673.809901 335.526581 
L 676.099698 336.831143 
L 678.389494 338.007192 
L 680.679291 339.031694 
L 682.969087 339.881613 
L 685.258884 340.533916 
L 687.54868 340.965567 
L 689.838477 341.153531 
L 692.128273 341.074775 
L 694.41807 340.706567 
L 696.707866 340.040988 
L 698.997663 339.0913 
L 701.28746 337.872394 
L 703.577256 336.399159 
L 705.867053 334.686486 
L 708.156849 332.749266 
L 710.446646 330.602388 
L 712.736442 328.260744 
L 715.026239 325.739223 
L 717.316035 323.052715 
L 719.605832 320.216113 
L 721.895628 317.244304 
L 724.185425 314.152181 
L 726.475222 310.954633 
L 728.765018 307.66655 
L 731.054815 304.302824 
L 733.344611 300.878344 
L 735.634408 297.408001 
L 737.924204 293.906686 
L 740.214001 290.389287 
L 742.503797 286.870697 
L 744.793594 283.365805 
L 747.08339 279.889502 
L 749.373187 276.456677 
L 751.662984 273.082222 
L 753.95278 269.781027 
L 756.242577 266.567982 
L 758.532373 263.457977 
L 760.82217 260.465904 
L 763.111966 257.606651 
L 765.401763 254.89511 
L 767.691559 252.346172 
L 769.981356 249.974725 
L 772.271152 247.795661 
L 774.560949 245.82387 
L 776.850746 244.074243 
L 779.140542 242.56167 
L 781.430339 241.30104 
L 783.720135 240.307246 
L 786.009932 239.595176 
L 788.299728 239.179721 
L 790.589525 239.075773 
L 792.879321 239.29822 
L 795.169118 239.861953 
L 797.458914 240.781864 
L 799.748711 242.072841 
L 802.038508 243.749776 
L 804.328304 245.827559 
L 806.618101 248.32108 
L 808.907897 251.24523 
L 811.197694 254.614899 
L 813.48749 258.444977 
L 815.777287 262.750354 
L 818.067083 267.545922 
L 818.067083 136.718687 
L 818.067083 136.718687 
L 815.777287 141.979627 
L 813.48749 146.873642 
L 811.197694 151.410748 
L 808.907897 155.60096 
L 806.618101 159.454294 
L 804.328304 162.980768 
L 802.038508 166.190395 
L 799.748711 169.093194 
L 797.458914 171.699178 
L 795.169118 174.018366 
L 792.879321 176.060772 
L 790.589525 177.836412 
L 788.299728 179.355303 
L 786.009932 180.62746 
L 783.720135 181.6629 
L 781.430339 182.471638 
L 779.140542 183.063691 
L 776.850746 183.449074 
L 774.560949 183.637804 
L 772.271152 183.639896 
L 769.981356 183.465367 
L 767.691559 183.124232 
L 765.401763 182.626507 
L 763.111966 181.982209 
L 760.82217 181.201353 
L 758.532373 180.293956 
L 756.242577 179.270033 
L 753.95278 178.1396 
L 751.662984 176.912674 
L 749.373187 175.59927 
L 747.08339 174.209405 
L 744.793594 172.753094 
L 742.503797 171.240353 
L 740.214001 169.681198 
L 737.924204 168.085646 
L 735.634408 166.463712 
L 733.344611 164.825413 
L 731.054815 163.180764 
L 728.765018 161.539781 
L 726.475222 159.91248 
L 724.185425 158.308878 
L 721.895628 156.73899 
L 719.605832 155.212832 
L 717.316035 153.74042 
L 715.026239 152.331771 
L 712.736442 150.9969 
L 710.446646 149.745823 
L 708.156849 148.588556 
L 705.867053 147.535116 
L 703.577256 146.595517 
L 701.28746 145.779777 
L 698.997663 145.097912 
L 696.707866 144.559936 
L 694.41807 144.175866 
L 692.128273 143.954482 
L 689.838477 143.888476 
L 687.54868 143.959293 
L 685.258884 144.148147 
L 682.969087 144.436251 
L 680.679291 144.804819 
L 678.389494 145.235065 
L 676.099698 145.708201 
L 673.809901 146.205443 
L 671.520105 146.708003 
L 669.230308 147.197096 
L 666.940511 147.653934 
L 664.650715 148.059731 
L 662.360918 148.395702 
L 660.071122 148.643059 
L 657.781325 148.783017 
L 655.491529 148.796789 
L 653.201732 148.665588 
L 650.911936 148.370628 
L 648.622139 147.893124 
L 646.332343 147.214288 
L 644.042546 146.315334 
L 641.752749 145.177476 
L 639.462953 143.781927 
L 637.173156 142.109902 
L 634.88336 140.142613 
L 632.593563 137.861275 
L 630.303767 135.248029 
L 628.01397 132.311734 
L 625.724174 129.091327 
L 623.434377 125.627352 
L 621.144581 121.960352 
L 618.854784 118.13087 
L 616.564987 114.179449 
L 614.275191 110.146632 
L 611.985394 106.072963 
L 609.695598 101.998984 
L 607.405801 97.965238 
L 605.116005 94.012269 
L 602.826208 90.18062 
L 600.536412 86.510833 
L 598.246615 83.043452 
L 595.956819 79.819021 
L 593.667022 76.878081 
L 591.377225 74.261177 
L 589.087429 72.00885 
L 586.797632 70.161646 
L 584.507836 68.760105 
L 582.218039 67.844773 
L 579.928243 67.45619 
L 577.638446 67.634902 
L 575.34865 68.421451 
L 573.058853 69.856379 
L 570.769057 71.980231 
L 568.47926 74.833244 
L 566.189463 78.425933 
L 563.899667 82.71456 
L 561.60987 87.649614 
L 559.320074 93.181584 
L 557.030277 99.26096 
L 554.740481 105.838231 
L 552.450684 112.863885 
L 550.160888 120.288411 
L 547.871091 128.0623 
L 545.581295 136.136039 
L 543.291498 144.460118 
L 541.001702 152.985026 
L 538.711905 161.661252 
L 536.422108 170.439285 
L 534.132312 179.269614 
L 531.842515 188.102729 
L 529.552719 196.889118 
L 527.262922 205.579271 
L 524.973126 214.123676 
L 522.683329 222.472822 
L 520.393533 230.5772 
L 518.103736 238.387297 
L 515.81394 245.853603 
L 513.524143 252.926607 
L 511.234346 259.556798 
L 508.94455 265.694665 
L 506.654753 271.290705 
L 504.364957 276.30973 
L 502.07516 280.76023 
L 499.785364 284.658997 
L 497.495567 288.022824 
L 495.205771 290.868504 
L 492.915974 293.212829 
L 490.626178 295.072593 
L 488.336381 296.464588 
L 486.046584 297.405606 
L 483.756788 297.912442 
L 481.466991 298.001886 
L 479.177195 297.690733 
L 476.887398 296.995774 
L 474.597602 295.933803 
L 472.307805 294.521612 
L 470.018009 292.775994 
L 467.728212 290.713741 
L 465.438416 288.351648 
L 463.148619 285.706505 
L 460.858822 282.795106 
L 458.569026 279.634244 
L 456.279229 276.240712 
L 453.989433 272.631301 
L 451.699636 268.822806 
L 449.40984 264.832018 
L 447.120043 260.675731 
L 444.830247 256.370737 
L 442.54045 251.933347 
L 440.250654 247.377345 
L 437.960857 242.715683 
L 435.67106 237.961314 
L 433.381264 233.12719 
L 431.091467 228.226263 
L 428.801671 223.271487 
L 426.511874 218.275814 
L 424.222078 213.252197 
L 421.932281 208.213588 
L 419.642485 203.172939 
L 417.352688 198.143203 
L 415.062892 193.137333 
L 412.773095 188.168282 
L 410.483298 183.249001 
L 408.193502 178.392444 
L 405.903705 173.611563 
L 403.613909 168.91931 
L 401.324112 164.328639 
L 399.034316 159.852501 
L 396.744519 155.50385 
L 394.454723 151.295637 
L 392.164926 147.240816 
L 389.87513 143.352339 
L 387.585333 139.643158 
L 385.295537 136.126227 
L 383.00574 132.814497 
L 380.715943 129.720108 
L 378.426147 126.847556 
L 376.13635 124.197149 
L 373.846554 121.769154 
L 371.556757 119.563834 
L 369.266961 117.581457 
L 366.977164 115.822286 
L 364.687368 114.286589 
L 362.397571 112.97463 
L 360.107775 111.886675 
L 357.817978 111.022989 
L 355.528181 110.383838 
L 353.238385 109.969488 
L 350.948588 109.780204 
L 348.658792 109.81625 
L 346.368995 110.077894 
L 344.079199 110.565401 
L 341.789402 111.279035 
L 339.499606 112.219062 
L 337.209809 113.385749 
L 334.920013 114.77936 
L 332.630216 116.400161 
L 330.340419 118.248417 
L 328.050623 120.324394 
L 325.760826 122.628358 
L 323.47103 125.160574 
L 321.181233 127.921307 
L 318.891437 130.91011 
L 316.60164 134.11316 
L 314.311844 137.504759 
L 312.022047 141.058793 
L 309.732251 144.749151 
L 307.442454 148.54972 
L 305.152657 152.434388 
L 302.862861 156.377042 
L 300.573064 160.35157 
L 298.283268 164.33186 
L 295.993471 168.2918 
L 293.703675 172.205276 
L 291.413878 176.046177 
L 289.124082 179.78839 
L 286.834285 183.405803 
L 284.544489 186.872304 
L 282.254692 190.16178 
L 279.964895 193.248118 
L 277.675099 196.105208 
L 275.385302 198.706935 
L 273.095506 201.027188 
L 270.805709 203.039855 
L 268.515913 204.718822 
L 266.226116 206.037979 
L 263.93632 206.971211 
L 261.646523 207.492408 
L 259.356727 207.575456 
L 257.06693 207.194661 
L 254.777134 206.34465 
L 252.487337 205.049114 
L 250.19754 203.333977 
L 247.907744 201.225166 
L 245.617947 198.748604 
L 243.328151 195.930216 
L 241.038354 192.795929 
L 238.748558 189.371666 
L 236.458761 185.683353 
L 234.168965 181.756914 
L 231.879168 177.618276 
L 229.589372 173.293362 
L 227.299575 168.808099 
L 225.009778 164.18841 
L 222.719982 159.460221 
L 220.430185 154.649457 
L 218.140389 149.782043 
L 215.850592 144.883904 
L 213.560796 139.980965 
L 211.270999 135.099151 
L 208.981203 130.264387 
L 206.691406 125.502598 
L 204.40161 120.83971 
L 202.111813 116.301646 
L 199.822016 111.914333 
L 197.53222 107.703694 
L 195.242423 103.695656 
L 192.952627 99.916143 
L 190.66283 96.391081 
L 188.373034 93.146393 
L 186.083237 90.208006 
L 183.793441 87.601844 
L 181.503644 85.353833 
L 179.213848 83.489897 
L 176.924051 82.035961 
L 174.634254 81.017951 
L 172.344458 80.461791 
L 170.054661 80.393406 
L 167.764865 80.838722 
L 165.475068 81.823663 
L 163.185272 83.374155 
L 160.895475 85.516123 
L 158.605679 88.275491 
L 156.315882 91.678184 
L 154.026086 95.750128 
L 151.736289 100.517248 
L 149.446492 106.005469 
L 147.156696 112.240715 
L 144.866899 119.248911 
L 142.577103 127.055984 
L 140.287306 135.687857 
L 137.99751 145.170456 
L 135.707713 155.529705 
L 133.417917 166.791531 
z
" clip-path="url(#pb33f70ff73)" style="fill: #7570b3"/>
   </g>
   <g id="FillBetweenPolyCollection_3">
    <path d="M 133.417917 73.007765 
L 133.417917 166.791531 
L 135.707713 155.529705 
L 137.99751 145.170456 
L 140.287306 135.687857 
L 142.577103 127.055984 
L 144.866899 119.248911 
L 147.156696 112.240715 
L 149.446492 106.005469 
L 151.736289 100.517248 
L 154.026086 95.750128 
L 156.315882 91.678184 
L 158.605679 88.275491 
L 160.895475 85.516123 
L 163.185272 83.374155 
L 165.475068 81.823663 
L 167.764865 80.838722 
L 170.054661 80.393406 
L 172.344458 80.461791 
L 174.634254 81.017951 
L 176.924051 82.035961 
L 179.213848 83.489897 
L 181.503644 85.353833 
L 183.793441 87.601844 
L 186.083237 90.208006 
L 188.373034 93.146393 
L 190.66283 96.391081 
L 192.952627 99.916143 
L 195.242423 103.695656 
L 197.53222 107.703694 
L 199.822016 111.914333 
L 202.111813 116.301646 
L 204.40161 120.83971 
L 206.691406 125.502598 
L 208.981203 130.264387 
L 211.270999 135.099151 
L 213.560796 139.980965 
L 215.850592 144.883904 
L 218.140389 149.782043 
L 220.430185 154.649457 
L 222.719982 159.460221 
L 225.009778 164.18841 
L 227.299575 168.808099 
L 229.589372 173.293362 
L 231.879168 177.618276 
L 234.168965 181.756914 
L 236.458761 185.683353 
L 238.748558 189.371666 
L 241.038354 192.795929 
L 243.328151 195.930216 
L 245.617947 198.748604 
L 247.907744 201.225166 
L 250.19754 203.333977 
L 252.487337 205.049114 
L 254.777134 206.34465 
L 257.06693 207.194661 
L 259.356727 207.575456 
L 261.646523 207.492408 
L 263.93632 206.971211 
L 266.226116 206.037979 
L 268.515913 204.718822 
L 270.805709 203.039855 
L 273.095506 201.027188 
L 275.385302 198.706935 
L 277.675099 196.105208 
L 279.964895 193.248118 
L 282.254692 190.16178 
L 284.544489 186.872304 
L 286.834285 183.405803 
L 289.124082 179.78839 
L 291.413878 176.046177 
L 293.703675 172.205276 
L 295.993471 168.2918 
L 298.283268 164.33186 
L 300.573064 160.35157 
L 302.862861 156.377042 
L 305.152657 152.434388 
L 307.442454 148.54972 
L 309.732251 144.749151 
L 312.022047 141.058793 
L 314.311844 137.504759 
L 316.60164 134.11316 
L 318.891437 130.91011 
L 321.181233 127.921307 
L 323.47103 125.160574 
L 325.760826 122.628358 
L 328.050623 120.324394 
L 330.340419 118.248417 
L 332.630216 116.400161 
L 334.920013 114.77936 
L 337.209809 113.385749 
L 339.499606 112.219062 
L 341.789402 111.279035 
L 344.079199 110.565401 
L 346.368995 110.077894 
L 348.658792 109.81625 
L 350.948588 109.780204 
L 353.238385 109.969488 
L 355.528181 110.383838 
L 357.817978 111.022989 
L 360.107775 111.886675 
L 362.397571 112.97463 
L 364.687368 114.286589 
L 366.977164 115.822286 
L 369.266961 117.581457 
L 371.556757 119.563834 
L 373.846554 121.769154 
L 376.13635 124.197149 
L 378.426147 126.847556 
L 380.715943 129.720108 
L 383.00574 132.814497 
L 385.295537 136.126227 
L 387.585333 139.643158 
L 389.87513 143.352339 
L 392.164926 147.240816 
L 394.454723 151.295637 
L 396.744519 155.50385 
L 399.034316 159.852501 
L 401.324112 164.328639 
L 403.613909 168.91931 
L 405.903705 173.611563 
L 408.193502 178.392444 
L 410.483298 183.249001 
L 412.773095 188.168282 
L 415.062892 193.137333 
L 417.352688 198.143203 
L 419.642485 203.172939 
L 421.932281 208.213588 
L 424.222078 213.252197 
L 426.511874 218.275814 
L 428.801671 223.271487 
L 431.091467 228.226263 
L 433.381264 233.12719 
L 435.67106 237.961314 
L 437.960857 242.715683 
L 440.250654 247.377345 
L 442.54045 251.933347 
L 444.830247 256.370737 
L 447.120043 260.675731 
L 449.40984 264.832018 
L 451.699636 268.822806 
L 453.989433 272.631301 
L 456.279229 276.240712 
L 458.569026 279.634244 
L 460.858822 282.795106 
L 463.148619 285.706505 
L 465.438416 288.351648 
L 467.728212 290.713741 
L 470.018009 292.775994 
L 472.307805 294.521612 
L 474.597602 295.933803 
L 476.887398 296.995774 
L 479.177195 297.690733 
L 481.466991 298.001886 
L 483.756788 297.912442 
L 486.046584 297.405606 
L 488.336381 296.464588 
L 490.626178 295.072593 
L 492.915974 293.212829 
L 495.205771 290.868504 
L 497.495567 288.022824 
L 499.785364 284.658997 
L 502.07516 280.76023 
L 504.364957 276.30973 
L 506.654753 271.290705 
L 508.94455 265.694665 
L 511.234346 259.556798 
L 513.524143 252.926607 
L 515.81394 245.853603 
L 518.103736 238.387297 
L 520.393533 230.5772 
L 522.683329 222.472822 
L 524.973126 214.123676 
L 527.262922 205.579271 
L 529.552719 196.889118 
L 531.842515 188.102729 
L 534.132312 179.269614 
L 536.422108 170.439285 
L 538.711905 161.661252 
L 541.001702 152.985026 
L 543.291498 144.460118 
L 545.581295 136.136039 
L 547.871091 128.0623 
L 550.160888 120.288411 
L 552.450684 112.863885 
L 554.740481 105.838231 
L 557.030277 99.26096 
L 559.320074 93.181584 
L 561.60987 87.649614 
L 563.899667 82.71456 
L 566.189463 78.425933 
L 568.47926 74.833244 
L 570.769057 71.980231 
L 573.058853 69.856379 
L 575.34865 68.421451 
L 577.638446 67.634902 
L 579.928243 67.45619 
L 582.218039 67.844773 
L 584.507836 68.760105 
L 586.797632 70.161646 
L 589.087429 72.00885 
L 591.377225 74.261177 
L 593.667022 76.878081 
L 595.956819 79.819021 
L 598.246615 83.043452 
L 600.536412 86.510833 
L 602.826208 90.18062 
L 605.116005 94.012269 
L 607.405801 97.965238 
L 609.695598 101.998984 
L 611.985394 106.072963 
L 614.275191 110.146632 
L 616.564987 114.179449 
L 618.854784 118.13087 
L 621.144581 121.960352 
L 623.434377 125.627352 
L 625.724174 129.091327 
L 628.01397 132.311734 
L 630.303767 135.248029 
L 632.593563 137.861275 
L 634.88336 140.142613 
L 637.173156 142.109902 
L 639.462953 143.781927 
L 641.752749 145.177476 
L 644.042546 146.315334 
L 646.332343 147.214288 
L 648.622139 147.893124 
L 650.911936 148.370628 
L 653.201732 148.665588 
L 655.491529 148.796789 
L 657.781325 148.783017 
L 660.071122 148.643059 
L 662.360918 148.395702 
L 664.650715 148.059731 
L 666.940511 147.653934 
L 669.230308 147.197096 
L 671.520105 146.708003 
L 673.809901 146.205443 
L 676.099698 145.708201 
L 678.389494 145.235065 
L 680.679291 144.804819 
L 682.969087 144.436251 
L 685.258884 144.148147 
L 687.54868 143.959293 
L 689.838477 143.888476 
L 692.128273 143.954482 
L 694.41807 144.175866 
L 696.707866 144.559936 
L 698.997663 145.097912 
L 701.28746 145.779777 
L 703.577256 146.595517 
L 705.867053 147.535116 
L 708.156849 148.588556 
L 710.446646 149.745823 
L 712.736442 150.9969 
L 715.026239 152.331771 
L 717.316035 153.74042 
L 719.605832 155.212832 
L 721.895628 156.73899 
L 724.185425 158.308878 
L 726.475222 159.91248 
L 728.765018 161.539781 
L 731.054815 163.180764 
L 733.344611 164.825413 
L 735.634408 166.463712 
L 737.924204 168.085646 
L 740.214001 169.681198 
L 742.503797 171.240353 
L 744.793594 172.753094 
L 747.08339 174.209405 
L 749.373187 175.59927 
L 751.662984 176.912674 
L 753.95278 178.1396 
L 756.242577 179.270033 
L 758.532373 180.293956 
L 760.82217 181.201353 
L 763.111966 181.982209 
L 765.401763 182.626507 
L 767.691559 183.124232 
L 769.981356 183.465367 
L 772.271152 183.639896 
L 774.560949 183.637804 
L 776.850746 183.449074 
L 779.140542 183.063691 
L 781.430339 182.471638 
L 783.720135 181.6629 
L 786.009932 180.62746 
L 788.299728 179.355303 
L 790.589525 177.836412 
L 792.879321 176.060772 
L 795.169118 174.018366 
L 797.458914 171.699178 
L 799.748711 169.093194 
L 802.038508 166.190395 
L 804.328304 162.980768 
L 806.618101 159.454294 
L 808.907897 155.60096 
L 811.197694 151.410748 
L 813.48749 146.873642 
L 815.777287 141.979627 
L 818.067083 136.718687 
L 818.067083 73.007765 
L 818.067083 73.007765 
L 815.777287 73.007765 
L 813.48749 73.007765 
L 811.197694 73.007765 
L 808.907897 73.007765 
L 806.618101 73.007765 
L 804.328304 73.007765 
L 802.038508 73.007765 
L 799.748711 73.007765 
L 797.458914 73.007765 
L 795.169118 73.007765 
L 792.879321 73.007765 
L 790.589525 73.007765 
L 788.299728 73.007765 
L 786.009932 73.007765 
L 783.720135 73.007765 
L 781.430339 73.007765 
L 779.140542 73.007765 
L 776.850746 73.007765 
L 774.560949 73.007765 
L 772.271152 73.007765 
L 769.981356 73.007765 
L 767.691559 73.007765 
L 765.401763 73.007765 
L 763.111966 73.007765 
L 760.82217 73.007765 
L 758.532373 73.007765 
L 756.242577 73.007765 
L 753.95278 73.007765 
L 751.662984 73.007765 
L 749.373187 73.007765 
L 747.08339 73.007765 
L 744.793594 73.007765 
L 742.503797 73.007765 
L 740.214001 73.007765 
L 737.924204 73.007765 
L 735.634408 73.007765 
L 733.344611 73.007765 
L 731.054815 73.007765 
L 728.765018 73.007765 
L 726.475222 73.007765 
L 724.185425 73.007765 
L 721.895628 73.007765 
L 719.605832 73.007765 
L 717.316035 73.007765 
L 715.026239 73.007765 
L 712.736442 73.007765 
L 710.446646 73.007765 
L 708.156849 73.007765 
L 705.867053 73.007765 
L 703.577256 73.007765 
L 701.28746 73.007765 
L 698.997663 73.007765 
L 696.707866 73.007765 
L 694.41807 73.007765 
L 692.128273 73.007765 
L 689.838477 73.007765 
L 687.54868 73.007765 
L 685.258884 73.007765 
L 682.969087 73.007765 
L 680.679291 73.007765 
L 678.389494 73.007765 
L 676.099698 73.007765 
L 673.809901 73.007765 
L 671.520105 73.007765 
L 669.230308 73.007765 
L 666.940511 73.007765 
L 664.650715 73.007765 
L 662.360918 73.007765 
L 660.071122 73.007765 
L 657.781325 73.007765 
L 655.491529 73.007765 
L 653.201732 73.007765 
L 650.911936 73.007765 
L 648.622139 73.007765 
L 646.332343 73.007765 
L 644.042546 73.007765 
L 641.752749 73.007765 
L 639.462953 73.007765 
L 637.173156 73.007765 
L 634.88336 73.007765 
L 632.593563 73.007765 
L 630.303767 73.007765 
L 628.01397 73.007765 
L 625.724174 73.007765 
L 623.434377 73.007765 
L 621.144581 73.007765 
L 618.854784 73.007765 
L 616.564987 73.007765 
L 614.275191 73.007765 
L 611.985394 73.007765 
L 609.695598 73.007765 
L 607.405801 73.007765 
L 605.116005 73.007765 
L 602.826208 73.007765 
L 600.536412 73.007765 
L 598.246615 73.007765 
L 595.956819 73.007765 
L 593.667022 73.007765 
L 591.377225 73.007765 
L 589.087429 73.007765 
L 586.797632 73.007765 
L 584.507836 73.007765 
L 582.218039 73.007765 
L 579.928243 73.007765 
L 577.638446 73.007765 
L 575.34865 73.007765 
L 573.058853 73.007765 
L 570.769057 73.007765 
L 568.47926 73.007765 
L 566.189463 73.007765 
L 563.899667 73.007765 
L 561.60987 73.007765 
L 559.320074 73.007765 
L 557.030277 73.007765 
L 554.740481 73.007765 
L 552.450684 73.007765 
L 550.160888 73.007765 
L 547.871091 73.007765 
L 545.581295 73.007765 
L 543.291498 73.007765 
L 541.001702 73.007765 
L 538.711905 73.007765 
L 536.422108 73.007765 
L 534.132312 73.007765 
L 531.842515 73.007765 
L 529.552719 73.007765 
L 527.262922 73.007765 
L 524.973126 73.007765 
L 522.683329 73.007765 
L 520.393533 73.007765 
L 518.103736 73.007765 
L 515.81394 73.007765 
L 513.524143 73.007765 
L 511.234346 73.007765 
L 508.94455 73.007765 
L 506.654753 73.007765 
L 504.364957 73.007765 
L 502.07516 73.007765 
L 499.785364 73.007765 
L 497.495567 73.007765 
L 495.205771 73.007765 
L 492.915974 73.007765 
L 490.626178 73.007765 
L 488.336381 73.007765 
L 486.046584 73.007765 
L 483.756788 73.007765 
L 481.466991 73.007765 
L 479.177195 73.007765 
L 476.887398 73.007765 
L 474.597602 73.007765 
L 472.307805 73.007765 
L 470.018009 73.007765 
L 467.728212 73.007765 
L 465.438416 73.007765 
L 463.148619 73.007765 
L 460.858822 73.007765 
L 458.569026 73.007765 
L 456.279229 73.007765 
L 453.989433 73.007765 
L 451.699636 73.007765 
L 449.40984 73.007765 
L 447.120043 73.007765 
L 444.830247 73.007765 
L 442.54045 73.007765 
L 440.250654 73.007765 
L 437.960857 73.007765 
L 435.67106 73.007765 
L 433.381264 73.007765 
L 431.091467 73.007765 
L 428.801671 73.007765 
L 426.511874 73.007765 
L 424.222078 73.007765 
L 421.932281 73.007765 
L 419.642485 73.007765 
L 417.352688 73.007765 
L 415.062892 73.007765 
L 412.773095 73.007765 
L 410.483298 73.007765 
L 408.193502 73.007765 
L 405.903705 73.007765 
L 403.613909 73.007765 
L 401.324112 73.007765 
L 399.034316 73.007765 
L 396.744519 73.007765 
L 394.454723 73.007765 
L 392.164926 73.007765 
L 389.87513 73.007765 
L 387.585333 73.007765 
L 385.295537 73.007765 
L 383.00574 73.007765 
L 380.715943 73.007765 
L 378.426147 73.007765 
L 376.13635 73.007765 
L 373.846554 73.007765 
L 371.556757 73.007765 
L 369.266961 73.007765 
L 366.977164 73.007765 
L 364.687368 73.007765 
L 362.397571 73.007765 
L 360.107775 73.007765 
L 357.817978 73.007765 
L 355.528181 73.007765 
L 353.238385 73.007765 
L 350.948588 73.007765 
L 348.658792 73.007765 
L 346.368995 73.007765 
L 344.079199 73.007765 
L 341.789402 73.007765 
L 339.499606 73.007765 
L 337.209809 73.007765 
L 334.920013 73.007765 
L 332.630216 73.007765 
L 330.340419 73.007765 
L 328.050623 73.007765 
L 325.760826 73.007765 
L 323.47103 73.007765 
L 321.181233 73.007765 
L 318.891437 73.007765 
L 316.60164 73.007765 
L 314.311844 73.007765 
L 312.022047 73.007765 
L 309.732251 73.007765 
L 307.442454 73.007765 
L 305.152657 73.007765 
L 302.862861 73.007765 
L 300.573064 73.007765 
L 298.283268 73.007765 
L 295.993471 73.007765 
L 293.703675 73.007765 
L 291.413878 73.007765 
L 289.124082 73.007765 
L 286.834285 73.007765 
L 284.544489 73.007765 
L 282.254692 73.007765 
L 279.964895 73.007765 
L 277.675099 73.007765 
L 275.385302 73.007765 
L 273.095506 73.007765 
L 270.805709 73.007765 
L 268.515913 73.007765 
L 266.226116 73.007765 
L 263.93632 73.007765 
L 261.646523 73.007765 
L 259.356727 73.007765 
L 257.06693 73.007765 
L 254.777134 73.007765 
L 252.487337 73.007765 
L 250.19754 73.007765 
L 247.907744 73.007765 
L 245.617947 73.007765 
L 243.328151 73.007765 
L 241.038354 73.007765 
L 238.748558 73.007765 
L 236.458761 73.007765 
L 234.168965 73.007765 
L 231.879168 73.007765 
L 229.589372 73.007765 
L 227.299575 73.007765 
L 225.009778 73.007765 
L 222.719982 73.007765 
L 220.430185 73.007765 
L 218.140389 73.007765 
L 215.850592 73.007765 
L 213.560796 73.007765 
L 211.270999 73.007765 
L 208.981203 73.007765 
L 206.691406 73.007765 
L 204.40161 73.007765 
L 202.111813 73.007765 
L 199.822016 73.007765 
L 197.53222 73.007765 
L 195.242423 73.007765 
L 192.952627 73.007765 
L 190.66283 73.007765 
L 188.373034 73.007765 
L 186.083237 73.007765 
L 183.793441 73.007765 
L 181.503644 73.007765 
L 179.213848 73.007765 
L 176.924051 73.007765 
L 174.634254 73.007765 
L 172.344458 73.007765 
L 170.054661 73.007765 
L 167.764865 73.007765 
L 165.475068 73.007765 
L 163.185272 73.007765 
L 160.895475 73.007765 
L 158.605679 73.007765 
L 156.315882 73.007765 
L 154.026086 73.007765 
L 151.736289 73.007765 
L 149.446492 73.007765 
L 147.156696 73.007765 
L 144.866899 73.007765 
L 142.577103 73.007765 
L 140.287306 73.007765 
L 137.99751 73.007765 
L 135.707713 73.007765 
L 133.417917 73.007765 
z
" clip-path="url(#pb33f70ff73)" style="fill: #c7eae5"/>
   </g>
   <g id="matplotlib.axis_1">
    <g id="xtick_1">
     <g id="line2d_1">
      <path d="M 133.417917 434.98 
L 133.417917 49.08 
" clip-path="url(#pb33f70ff73)" style="fill: none; stroke: #ffffff; stroke-opacity: 0.3; stroke-width: 0.75; stroke-linecap: square"/>
     </g>
     <g id="line2d_2">
      <defs>
       <path id="m2947aa94a5" d="M 0 0 
L 0 3.5 
" style="stroke: #000000; stroke-width: 0.8"/>
      </defs>
      <g>
       <use xlink:href="#m2947aa94a5" x="133.417917" y="434.98" style="stroke: #000000; stroke-width: 0.8"/>
      </g>
     </g>
     <g id="text_1">
      <text style="font-weight: 600; font-size: 24px; font-family: 'Montserrat'; fill: #767676" transform="translate(139.993542 569.105) rotate(-90)">01-01-2023</text>
     </g>
    </g>
    <g id="xtick_2">
     <g id="line2d_3">
      <path d="M 195.65875 434.98 
L 195.65875 49.08 
" clip-path="url(#pb33f70ff73)" style="fill: none; stroke: #ffffff; stroke-opacity: 0.3; stroke-width: 0.75; stroke-linecap: square"/>
     </g>
     <g id="line2d_4">
      <g>
       <use xlink:href="#m2947aa94a5" x="195.65875" y="434.98" style="stroke: #000000; stroke-width: 0.8"/>
      </g>
     </g>
     <g id="text_2">
      <text style="font-weight: 600; font-size: 24px; font-family: 'Montserrat'; fill: #767676" transform="translate(202.234375 573.93125) rotate(-90)">01-02-2023</text>
     </g>
    </g>
    <g id="xtick_3">
     <g id="line2d_5">
      <path d="M 257.899583 434.98 
L 257.899583 49.08 
" clip-path="url(#pb33f70ff73)" style="fill: none; stroke: #ffffff; stroke-opacity: 0.3; stroke-width: 0.75; stroke-linecap: square"/>
     </g>
     <g id="line2d_6">
      <g>
       <use xlink:href="#m2947aa94a5" x="257.899583" y="434.98" style="stroke: #000000; stroke-width: 0.8"/>
      </g>
     </g>
     <g id="text_3">
      <text style="font-weight: 600; font-size: 24px; font-family: 'Montserrat'; fill: #767676" transform="translate(264.475208 573.93125) rotate(-90)">01-03-2023</text>
     </g>
    </g>
    <g id="xtick_4">
     <g id="line2d_7">
      <path d="M 320.140417 434.98 
L 320.140417 49.08 
" clip-path="url(#pb33f70ff73)" style="fill: none; stroke: #ffffff; stroke-opacity: 0.3; stroke-width: 0.75; stroke-linecap: square"/>
     </g>
     <g id="line2d_8">
      <g>
       <use xlink:href="#m2947aa94a5" x="320.140417" y="434.98" style="stroke: #000000; stroke-width: 0.8"/>
      </g>
     </g>
     <g id="text_4">
      <text style="font-weight: 600; font-size: 24px; font-family: 'Montserrat'; fill: #767676" transform="translate(326.716042 576.26) rotate(-90)">01-04-2023</text>
     </g>
    </g>
    <g id="xtick_5">
     <g id="line2d_9">
      <path d="M 382.38125 434.98 
L 382.38125 49.08 
" clip-path="url(#pb33f70ff73)" style="fill: none; stroke: #ffffff; stroke-opacity: 0.3; stroke-width: 0.75; stroke-linecap: square"/>
     </g>
     <g id="line2d_10">
      <g>
       <use xlink:href="#m2947aa94a5" x="382.38125" y="434.98" style="stroke: #000000; stroke-width: 0.8"/>
      </g>
     </g>
     <g id="text_5">
      <text style="font-weight: 600; font-size: 24px; font-family: 'Montserrat'; fill: #767676" transform="translate(388.956875 573.98) rotate(-90)">01-05-2023</text>
     </g>
    </g>
    <g id="xtick_6">
     <g id="line2d_11">
      <path d="M 444.622083 434.98 
L 444.622083 49.08 
" clip-path="url(#pb33f70ff73)" style="fill: none; stroke: #ffffff; stroke-opacity: 0.3; stroke-width: 0.75; stroke-linecap: square"/>
     </g>
     <g id="line2d_12">
      <g>
       <use xlink:href="#m2947aa94a5" x="444.622083" y="434.98" style="stroke: #000000; stroke-width: 0.8"/>
      </g>
     </g>
     <g id="text_6">
      <text style="font-weight: 600; font-size: 24px; font-family: 'Montserrat'; fill: #767676" transform="translate(451.197708 575.01125) rotate(-90)">01-06-2023</text>
     </g>
    </g>
    <g id="xtick_7">
     <g id="line2d_13">
      <path d="M 506.862917 434.98 
L 506.862917 49.08 
" clip-path="url(#pb33f70ff73)" style="fill: none; stroke: #ffffff; stroke-opacity: 0.3; stroke-width: 0.75; stroke-linecap: square"/>
     </g>
     <g id="line2d_14">
      <g>
       <use xlink:href="#m2947aa94a5" x="506.862917" y="434.98" style="stroke: #000000; stroke-width: 0.8"/>
      </g>
     </g>
     <g id="text_7">
      <text style="font-weight: 600; font-size: 24px; font-family: 'Montserrat'; fill: #767676" transform="translate(513.438542 574.55375) rotate(-90)">01-07-2023</text>
     </g>
    </g>
    <g id="xtick_8">
     <g id="line2d_15">
      <path d="M 569.10375 434.98 
L 569.10375 49.08 
" clip-path="url(#pb33f70ff73)" style="fill: none; stroke: #ffffff; stroke-opacity: 0.3; stroke-width: 0.75; stroke-linecap: square"/>
     </g>
     <g id="line2d_16">
      <g>
       <use xlink:href="#m2947aa94a5" x="569.10375" y="434.98" style="stroke: #000000; stroke-width: 0.8"/>
      </g>
     </g>
     <g id="text_8">
      <text style="font-weight: 600; font-size: 24px; font-family: 'Montserrat'; fill: #767676" transform="translate(575.679375 575.61125) rotate(-90)">01-08-2023</text>
     </g>
    </g>
    <g id="xtick_9">
     <g id="line2d_17">
      <path d="M 631.344583 434.98 
L 631.344583 49.08 
" clip-path="url(#pb33f70ff73)" style="fill: none; stroke: #ffffff; stroke-opacity: 0.3; stroke-width: 0.75; stroke-linecap: square"/>
     </g>
     <g id="line2d_18">
      <g>
       <use xlink:href="#m2947aa94a5" x="631.344583" y="434.98" style="stroke: #000000; stroke-width: 0.8"/>
      </g>
     </g>
     <g id="text_9">
      <text style="font-weight: 600; font-size: 24px; font-family: 'Montserrat'; fill: #767676" transform="translate(637.920208 575.01125) rotate(-90)">01-09-2023</text>
     </g>
    </g>
    <g id="xtick_10">
     <g id="line2d_19">
      <path d="M 693.585417 434.98 
L 693.585417 49.08 
" clip-path="url(#pb33f70ff73)" style="fill: none; stroke: #ffffff; stroke-opacity: 0.3; stroke-width: 0.75; stroke-linecap: square"/>
     </g>
     <g id="line2d_20">
      <g>
       <use xlink:href="#m2947aa94a5" x="693.585417" y="434.98" style="stroke: #000000; stroke-width: 0.8"/>
      </g>
     </g>
     <g id="text_10">
      <text style="font-weight: 600; font-size: 24px; font-family: 'Montserrat'; fill: #767676" transform="translate(700.161042 569.105) rotate(-90)">01-10-2023</text>
     </g>
    </g>
    <g id="xtick_11">
     <g id="line2d_21">
      <path d="M 755.82625 434.98 
L 755.82625 49.08 
" clip-path="url(#pb33f70ff73)" style="fill: none; stroke: #ffffff; stroke-opacity: 0.3; stroke-width: 0.75; stroke-linecap: square"/>
     </g>
     <g id="line2d_22">
      <g>
       <use xlink:href="#m2947aa94a5" x="755.82625" y="434.98" style="stroke: #000000; stroke-width: 0.8"/>
      </g>
     </g>
     <g id="text_11">
      <text style="font-weight: 600; font-size: 24px; font-family: 'Montserrat'; fill: #767676" transform="translate(762.401875 562.09625) rotate(-90)">01-11-2023</text>
     </g>
    </g>
    <g id="xtick_12">
     <g id="line2d_23">
      <path d="M 818.067083 434.98 
L 818.067083 49.08 
" clip-path="url(#pb33f70ff73)" style="fill: none; stroke: #ffffff; stroke-opacity: 0.3; stroke-width: 0.75; stroke-linecap: square"/>
     </g>
     <g id="line2d_24">
      <g>
       <use xlink:href="#m2947aa94a5" x="818.067083" y="434.98" style="stroke: #000000; stroke-width: 0.8"/>
      </g>
     </g>
     <g id="text_12">
      <text style="font-weight: 600; font-size: 24px; font-family: 'Montserrat'; fill: #767676" transform="translate(824.642708 566.9225) rotate(-90)">01-12-2023</text>
     </g>
    </g>
    <g id="text_13">
     <text style="font-weight: 500; font-size: 24px; font-family: 'Montserrat'; text-anchor: middle" x="475.7425" y="598.06875" transform="rotate(-0 475.7425 598.06875)">Fecha</text>
    </g>
   </g>
   <g id="matplotlib.axis_2">
    <g id="ytick_1">
     <g id="line2d_25">
      <path d="M 102.2975 434.98 
L 849.1875 434.98 
" clip-path="url(#pb33f70ff73)" style="fill: none; stroke: #ffffff; stroke-opacity: 0.8; stroke-width: 1.25; stroke-linecap: square"/>
     </g>
     <g id="line2d_26">
      <defs>
       <path id="md7c1b5b898" d="M 0 0 
L -3.5 0 
" style="stroke: #000000; stroke-width: 0.8"/>
      </defs>
      <g>
       <use xlink:href="#md7c1b5b898" x="102.2975" y="434.98" style="stroke: #000000; stroke-width: 0.8"/>
      </g>
     </g>
     <g id="text_14">
      <text style="font-weight: 500; font-size: 24px; font-family: 'Montserrat'; text-anchor: end; fill: #767676" x="95.2975" y="443.884375" transform="rotate(-0 95.2975 443.884375)">0%</text>
     </g>
    </g>
    <g id="ytick_2">
     <g id="line2d_27">
      <path d="M 102.2975 344.486941 
L 849.1875 344.486941 
" clip-path="url(#pb33f70ff73)" style="fill: none; stroke: #ffffff; stroke-opacity: 0.8; stroke-width: 1.25; stroke-linecap: square"/>
     </g>
     <g id="line2d_28">
      <g>
       <use xlink:href="#md7c1b5b898" x="102.2975" y="344.486941" style="stroke: #000000; stroke-width: 0.8"/>
      </g>
     </g>
     <g id="text_15">
      <text style="font-weight: 500; font-size: 24px; font-family: 'Montserrat'; text-anchor: end; fill: #767676" x="95.2975" y="353.391316" transform="rotate(-0 95.2975 353.391316)">25%</text>
     </g>
    </g>
    <g id="ytick_3">
     <g id="line2d_29">
      <path d="M 102.2975 253.993882 
L 849.1875 253.993882 
" clip-path="url(#pb33f70ff73)" style="fill: none; stroke: #ffffff; stroke-opacity: 0.8; stroke-width: 1.25; stroke-linecap: square"/>
     </g>
     <g id="line2d_30">
      <g>
       <use xlink:href="#md7c1b5b898" x="102.2975" y="253.993882" style="stroke: #000000; stroke-width: 0.8"/>
      </g>
     </g>
     <g id="text_16">
      <text style="font-weight: 500; font-size: 24px; font-family: 'Montserrat'; text-anchor: end; fill: #767676" x="95.2975" y="262.898257" transform="rotate(-0 95.2975 262.898257)">50%</text>
     </g>
    </g>
    <g id="ytick_4">
     <g id="line2d_31">
      <path d="M 102.2975 163.500823 
L 849.1875 163.500823 
" clip-path="url(#pb33f70ff73)" style="fill: none; stroke: #ffffff; stroke-opacity: 0.8; stroke-width: 1.25; stroke-linecap: square"/>
     </g>
     <g id="line2d_32">
      <g>
       <use xlink:href="#md7c1b5b898" x="102.2975" y="163.500823" style="stroke: #000000; stroke-width: 0.8"/>
      </g>
     </g>
     <g id="text_17">
      <text style="font-weight: 500; font-size: 24px; font-family: 'Montserrat'; text-anchor: end; fill: #767676" x="95.2975" y="172.405198" transform="rotate(-0 95.2975 172.405198)">75%</text>
     </g>
    </g>
    <g id="ytick_5">
     <g id="line2d_33">
      <path d="M 102.2975 73.007765 
L 849.1875 73.007765 
" clip-path="url(#pb33f70ff73)" style="fill: none; stroke: #ffffff; stroke-opacity: 0.8; stroke-width: 1.25; stroke-linecap: square"/>
     </g>
     <g id="line2d_34">
      <g>
       <use xlink:href="#md7c1b5b898" x="102.2975" y="73.007765" style="stroke: #000000; stroke-width: 0.8"/>
      </g>
     </g>
     <g id="text_18">
      <text style="font-weight: 500; font-size: 24px; font-family: 'Montserrat'; text-anchor: end; fill: #767676" x="95.2975" y="81.91214" transform="rotate(-0 95.2975 81.91214)">100%</text>
     </g>
    </g>
    <g id="text_19">
     <text style="font-weight: 500; font-size: 24px; font-family: 'Montserrat'; text-anchor: middle" x="25.36875" y="242.03" transform="rotate(-90 25.36875 242.03)">Porcentaje</text>
    </g>
   </g>
   <g id="patch_3">
    <path d="M 102.2975 434.98 
L 849.1875 434.98 
" style="fill: none; stroke: #000000; stroke-width: 2; stroke-linejoin: miter; stroke-linecap: square"/>
   </g>
   <g id="text_20">
    <g id="patch_4">
     <path d="M 120.275729 402.045102 
L 146.560104 402.045102 
Q 166.560104 402.045102 166.560104 382.045102 
L 166.560104 379.323227 
Q 166.560104 359.323227 146.560104 359.323227 
L 120.275729 359.323227 
Q 100.275729 359.323227 100.275729 379.323227 
L 100.275729 382.045102 
Q 100.275729 402.045102 120.275729 402.045102 
z
" style="fill: #ffffff; stroke: #d9d9d9; stroke-width: 1.8; stroke-linejoin: miter"/>
    </g>
    <text style="font-weight: 500; font-size: 20px; font-family: 'Montserrat'; text-anchor: middle; fill: #10302c" x="133.417917" y="386.163852" transform="rotate(-0 133.417917 386.163852)">4.28</text>
   </g>
   <g id="text_21">
    <g id="patch_5">
     <path d="M 462.631562 275.35482 
L 488.853437 275.35482 
Q 508.853437 275.35482 508.853437 255.35482 
L 508.853437 252.632945 
Q 508.853437 232.632945 488.853437 232.632945 
L 462.631562 232.632945 
Q 442.631562 232.632945 442.631562 252.632945 
L 442.631562 255.35482 
Q 442.631562 275.35482 462.631562 275.35482 
z
" style="fill: #ffffff; stroke: #d9d9d9; stroke-width: 1.8; stroke-linejoin: miter"/>
    </g>
    <text style="font-weight: 500; font-size: 20px; font-family: 'Montserrat'; text-anchor: middle; fill: #10302c" x="475.7425" y="259.47357" transform="rotate(-0 475.7425 259.47357)">4.79</text>
   </g>
   <g id="text_22">
    <g id="patch_6">
     <path d="M 806.165521 148.664537 
L 829.968646 148.664537 
Q 849.968646 148.664537 849.968646 128.664537 
L 849.968646 125.942662 
Q 849.968646 105.942662 829.968646 105.942662 
L 806.165521 105.942662 
Q 786.165521 105.942662 786.165521 125.942662 
L 786.165521 128.664537 
Q 786.165521 148.664537 806.165521 148.664537 
z
" style="fill: #ffffff; stroke: #d9d9d9; stroke-width: 1.8; stroke-linejoin: miter"/>
    </g>
    <text style="font-weight: 500; font-size: 20px; font-family: 'Montserrat'; text-anchor: middle; fill: #10302c" x="818.067083" y="132.783287" transform="rotate(-0 818.067083 132.783287)">2.93</text>
   </g>
  </g>
  <g id="legend_1">
   <g id="patch_7">
    <path d="M 43.957031 41.460937 
L 103.957031 41.460937 
L 103.957031 20.460937 
L 43.957031 20.460937 
z
" style="fill: #215f53"/>
   </g>
   <g id="text_23">
    <text style="font-weight: 500; font-size: 30px; font-family: 'Montserrat'; text-anchor: start" x="127.957031" y="41.460937" transform="rotate(-0 127.957031 41.460937)">Comisiones</text>
   </g>
   <g id="patch_8">
    <path d="M 365.046094 41.460937 
L 425.046094 41.460937 
L 425.046094 20.460937 
L 365.046094 20.460937 
z
" style="fill: #7570b3"/>
   </g>
   <g id="text_24">
    <text style="font-weight: 500; font-size: 30px; font-family: 'Montserrat'; text-anchor: start" x="449.046094" y="41.460937" transform="rotate(-0 449.046094 41.460937)">Fiscalas</text>
   </g>
   <g id="patch_9">
    <path d="M 636.274219 41.460937 
L 696.274219 41.460937 
L 696.274219 20.460937 
L 636.274219 20.460937 
z
" style="fill: #c7eae5"/>
   </g>
   <g id="text_25">
    <text style="font-weight: 500; font-size: 30px; font-family: 'Montserrat'; text-anchor: start" x="720.274219" y="41.460937" transform="rotate(-0 720.274219 41.460937)">Portal</text>
   </g>
  </g>
 </g>
 <defs>
  <clipPath id="pb33f70ff73">
   <rect x="102.2975" y="49.08" width="746.89" height="385.9"/>
  </clipPath>
 </defs>
</svg>
