<?xml version="1.0" encoding="utf-8" standalone="no"?>
<!DOCTYPE svg PUBLIC "-//W3C//DTD SVG 1.1//EN"
  "http://www.w3.org/Graphics/SVG/1.1/DTD/svg11.dtd">
<svg xmlns:xlink="http://www.w3.org/1999/xlink" width="1144.65375pt" height="593.2125pt" viewBox="0 0 1144.65375 593.2125" xmlns="http://www.w3.org/2000/svg" version="1.1">
 <metadata>
  <rdf:RDF xmlns:dc="http://purl.org/dc/elements/1.1/" xmlns:cc="http://creativecommons.org/ns#" xmlns:rdf="http://www.w3.org/1999/02/22-rdf-syntax-ns#">
   <cc:Work>
    <dc:type rdf:resource="http://purl.org/dc/dcmitype/StillImage"/>
    <dc:date>2025-05-29T16:38:37.013624</dc:date>
    <dc:format>image/svg+xml</dc:format>
    <dc:creator>
     <cc:Agent>
      <dc:title>Matplotlib v3.10.0, https://matplotlib.org/</dc:title>
     </cc:Agent>
    </dc:creator>
   </cc:Work>
  </rdf:RDF>
 </metadata>
 <defs>
  <style type="text/css">*{stroke-linejoin: round; stroke-linecap: butt}</style>
 </defs>
 <g id="figure_1">
  <g id="patch_1">
   <path d="M 0 593.2125 
L 1144.65375 593.2125 
L 1144.65375 0 
L 0 0 
z
" style="fill: #ffffff"/>
  </g>
  <g id="axes_1">
   <g id="patch_2">
    <path d="M 82.81375 468.86 
L 865.69375 468.86 
L 865.69375 31.8 
L 82.81375 31.8 
z
" style="fill: #ffffff"/>
   </g>
   <g id="FillBetweenPolyCollection_1">
    <path d="M 115.43375 278.135898 
L 115.43375 431.019042 
L 117.833884 431.019042 
L 120.234018 431.019042 
L 122.634151 431.019042 
L 125.034285 431.019042 
L 127.434419 431.019042 
L 129.834553 431.019042 
L 132.234686 431.019042 
L 134.63482 431.019042 
L 137.034954 431.019042 
L 139.435088 431.019042 
L 141.835222 431.019042 
L 144.235355 431.019042 
L 146.635489 431.019042 
L 149.035623 431.019042 
L 151.435757 431.019042 
L 153.83589 431.019042 
L 156.236024 431.019042 
L 158.636158 431.019042 
L 161.036292 431.019042 
L 163.436426 431.019042 
L 165.836559 431.019042 
L 168.236693 431.019042 
L 170.636827 431.019042 
L 173.036961 431.019042 
L 175.437094 431.019042 
L 177.837228 431.019042 
L 180.237362 431.019042 
L 182.637496 431.019042 
L 185.03763 431.019042 
L 187.437763 431.019042 
L 189.837897 431.019042 
L 192.238031 431.019042 
L 194.638165 431.019042 
L 197.038298 431.019042 
L 199.438432 431.019042 
L 201.838566 431.019042 
L 204.2387 431.019042 
L 206.638834 431.019042 
L 209.038967 431.019042 
L 211.439101 431.019042 
L 213.839235 431.019042 
L 216.239369 431.019042 
L 218.639503 431.019042 
L 221.039636 431.019042 
L 223.43977 431.019042 
L 225.839904 431.019042 
L 228.240038 431.019042 
L 230.640171 431.019042 
L 233.040305 431.019042 
L 235.440439 431.019042 
L 237.840573 431.019042 
L 240.240707 431.019042 
L 242.64084 431.019042 
L 245.040974 431.019042 
L 247.441108 431.019042 
L 249.841242 431.019042 
L 252.241375 431.019042 
L 254.641509 431.019042 
L 257.041643 431.019042 
L 259.441777 431.019042 
L 261.841911 431.019042 
L 264.242044 431.019042 
L 266.642178 431.019042 
L 269.042312 431.019042 
L 271.442446 431.019042 
L 273.842579 431.019042 
L 276.242713 431.019042 
L 278.642847 431.019042 
L 281.042981 431.019042 
L 283.443115 431.019042 
L 285.843248 431.019042 
L 288.243382 431.019042 
L 290.643516 431.019042 
L 293.04365 431.019042 
L 295.443783 431.019042 
L 297.843917 431.019042 
L 300.244051 431.019042 
L 302.644185 431.019042 
L 305.044319 431.019042 
L 307.444452 431.019042 
L 309.844586 431.019042 
L 312.24472 431.019042 
L 314.644854 431.019042 
L 317.044987 431.019042 
L 319.445121 431.019042 
L 321.845255 431.019042 
L 324.245389 431.019042 
L 326.645523 431.019042 
L 329.045656 431.019042 
L 331.44579 431.019042 
L 333.845924 431.019042 
L 336.246058 431.019042 
L 338.646191 431.019042 
L 341.046325 431.019042 
L 343.446459 431.019042 
L 345.846593 431.019042 
L 348.246727 431.019042 
L 350.64686 431.019042 
L 353.046994 431.019042 
L 355.447128 431.019042 
L 357.847262 431.019042 
L 360.247395 431.019042 
L 362.647529 431.019042 
L 365.047663 431.019042 
L 367.447797 431.019042 
L 369.847931 431.019042 
L 372.248064 431.019042 
L 374.648198 431.019042 
L 377.048332 431.019042 
L 379.448466 431.019042 
L 381.848599 431.019042 
L 384.248733 431.019042 
L 386.648867 431.019042 
L 389.049001 431.019042 
L 391.449135 431.019042 
L 393.849268 431.019042 
L 396.249402 431.019042 
L 398.649536 431.019042 
L 401.04967 431.019042 
L 403.449804 431.019042 
L 405.849937 431.019042 
L 408.250071 431.019042 
L 410.650205 431.019042 
L 413.050339 431.019042 
L 415.450472 431.019042 
L 417.850606 431.019042 
L 420.25074 431.019042 
L 422.650874 431.019042 
L 425.051008 431.019042 
L 427.451141 431.019042 
L 429.851275 431.019042 
L 432.251409 431.019042 
L 434.651543 431.019042 
L 437.051676 431.019042 
L 439.45181 431.019042 
L 441.851944 431.019042 
L 444.252078 431.019042 
L 446.652212 431.019042 
L 449.052345 431.019042 
L 451.452479 431.019042 
L 453.852613 431.019042 
L 456.252747 431.019042 
L 458.65288 431.019042 
L 461.053014 431.019042 
L 463.453148 431.019042 
L 465.853282 431.019042 
L 468.253416 431.019042 
L 470.653549 431.019042 
L 473.053683 431.019042 
L 475.453817 431.019042 
L 477.853951 431.019042 
L 480.254084 431.019042 
L 482.654218 431.019042 
L 485.054352 431.019042 
L 487.454486 431.019042 
L 489.85462 431.019042 
L 492.254753 431.019042 
L 494.654887 431.019042 
L 497.055021 431.019042 
L 499.455155 431.019042 
L 501.855288 431.019042 
L 504.255422 431.019042 
L 506.655556 431.019042 
L 509.05569 431.019042 
L 511.455824 431.019042 
L 513.855957 431.019042 
L 516.256091 431.019042 
L 518.656225 431.019042 
L 521.056359 431.019042 
L 523.456492 431.019042 
L 525.856626 431.019042 
L 528.25676 431.019042 
L 530.656894 431.019042 
L 533.057028 431.019042 
L 535.457161 431.019042 
L 537.857295 431.019042 
L 540.257429 431.019042 
L 542.657563 431.019042 
L 545.057696 431.019042 
L 547.45783 431.019042 
L 549.857964 431.019042 
L 552.258098 431.019042 
L 554.658232 431.019042 
L 557.058365 431.019042 
L 559.458499 431.019042 
L 561.858633 431.019042 
L 564.258767 431.019042 
L 566.658901 431.019042 
L 569.059034 431.019042 
L 571.459168 431.019042 
L 573.859302 431.019042 
L 576.259436 431.019042 
L 578.659569 431.019042 
L 581.059703 431.019042 
L 583.459837 431.019042 
L 585.859971 431.019042 
L 588.260105 431.019042 
L 590.660238 431.019042 
L 593.060372 431.019042 
L 595.460506 431.019042 
L 597.86064 431.019042 
L 600.260773 431.019042 
L 602.660907 431.019042 
L 605.061041 431.019042 
L 607.461175 431.019042 
L 609.861309 431.019042 
L 612.261442 431.019042 
L 614.661576 431.019042 
L 617.06171 431.019042 
L 619.461844 431.019042 
L 621.861977 431.019042 
L 624.262111 431.019042 
L 626.662245 431.019042 
L 629.062379 431.019042 
L 631.462513 431.019042 
L 633.862646 431.019042 
L 636.26278 431.019042 
L 638.662914 431.019042 
L 641.063048 431.019042 
L 643.463181 431.019042 
L 645.863315 431.019042 
L 648.263449 431.019042 
L 650.663583 431.019042 
L 653.063717 431.019042 
L 655.46385 431.019042 
L 657.863984 431.019042 
L 660.264118 431.019042 
L 662.664252 431.019042 
L 665.064385 431.019042 
L 667.464519 431.019042 
L 669.864653 431.019042 
L 672.264787 431.019042 
L 674.664921 431.019042 
L 677.065054 431.019042 
L 679.465188 431.019042 
L 681.865322 431.019042 
L 684.265456 431.019042 
L 686.665589 431.019042 
L 689.065723 431.019042 
L 691.465857 431.019042 
L 693.865991 431.019042 
L 696.266125 431.019042 
L 698.666258 431.019042 
L 701.066392 431.019042 
L 703.466526 431.019042 
L 705.86666 431.019042 
L 708.266793 431.019042 
L 710.666927 431.019042 
L 713.067061 431.019042 
L 715.467195 431.019042 
L 717.867329 431.019042 
L 720.267462 431.019042 
L 722.667596 431.019042 
L 725.06773 431.019042 
L 727.467864 431.019042 
L 729.867997 431.019042 
L 732.268131 431.019042 
L 734.668265 431.019042 
L 737.068399 431.019042 
L 739.468533 431.019042 
L 741.868666 431.019042 
L 744.2688 431.019042 
L 746.668934 431.019042 
L 749.069068 431.019042 
L 751.469202 431.019042 
L 753.869335 431.019042 
L 756.269469 431.019042 
L 758.669603 431.019042 
L 761.069737 431.019042 
L 763.46987 431.019042 
L 765.870004 431.019042 
L 768.270138 431.019042 
L 770.670272 431.019042 
L 773.070406 431.019042 
L 775.470539 431.019042 
L 777.870673 431.019042 
L 780.270807 431.019042 
L 782.670941 431.019042 
L 785.071074 431.019042 
L 787.471208 431.019042 
L 789.871342 431.019042 
L 792.271476 431.019042 
L 794.67161 431.019042 
L 797.071743 431.019042 
L 799.471877 431.019042 
L 801.872011 431.019042 
L 804.272145 431.019042 
L 806.672278 431.019042 
L 809.072412 431.019042 
L 811.472546 431.019042 
L 813.87268 431.019042 
L 816.272814 431.019042 
L 818.672947 431.019042 
L 821.073081 431.019042 
L 823.473215 431.019042 
L 825.873349 431.019042 
L 828.273482 431.019042 
L 830.673616 431.019042 
L 833.07375 431.019042 
L 833.07375 258.547798 
L 833.07375 258.547798 
L 830.673616 268.239032 
L 828.273482 277.053212 
L 825.873349 285.016479 
L 823.473215 292.154976 
L 821.073081 298.494843 
L 818.672947 304.062223 
L 816.272814 308.883257 
L 813.87268 312.984087 
L 811.472546 316.390856 
L 809.072412 319.129704 
L 806.672278 321.226774 
L 804.272145 322.708207 
L 801.872011 323.600145 
L 799.471877 323.92873 
L 797.071743 323.720104 
L 794.67161 323.000408 
L 792.271476 321.795784 
L 789.871342 320.132375 
L 787.471208 318.036321 
L 785.071074 315.533764 
L 782.670941 312.650847 
L 780.270807 309.413711 
L 777.870673 305.848498 
L 775.470539 301.98135 
L 773.070406 297.838408 
L 770.670272 293.445814 
L 768.270138 288.82971 
L 765.870004 284.016238 
L 763.46987 279.031539 
L 761.069737 273.901756 
L 758.669603 268.65303 
L 756.269469 263.311502 
L 753.869335 257.903316 
L 751.469202 252.454612 
L 749.069068 246.991531 
L 746.668934 241.540217 
L 744.2688 236.126811 
L 741.868666 230.777454 
L 739.468533 225.518289 
L 737.068399 220.375457 
L 734.668265 215.375099 
L 732.268131 210.543358 
L 729.867997 205.906376 
L 727.467864 201.490294 
L 725.06773 197.321254 
L 722.667596 193.425397 
L 720.267462 189.828866 
L 717.867329 186.557803 
L 715.467195 183.638348 
L 713.067061 181.096644 
L 710.666927 178.958833 
L 708.266793 177.251057 
L 705.86666 175.999457 
L 703.466526 175.230174 
L 701.066392 174.966846 
L 698.666258 175.200531 
L 696.266125 175.899505 
L 693.865991 177.031576 
L 691.465857 178.564553 
L 689.065723 180.466244 
L 686.665589 182.704458 
L 684.265456 185.247004 
L 681.865322 188.06169 
L 679.465188 191.116324 
L 677.065054 194.378714 
L 674.664921 197.816671 
L 672.264787 201.398001 
L 669.864653 205.090514 
L 667.464519 208.862017 
L 665.064385 212.68032 
L 662.664252 216.513231 
L 660.264118 220.328559 
L 657.863984 224.094111 
L 655.46385 227.777697 
L 653.063717 231.347125 
L 650.663583 234.770204 
L 648.263449 238.014741 
L 645.863315 241.048546 
L 643.463181 243.839427 
L 641.063048 246.355192 
L 638.662914 248.563651 
L 636.26278 250.4335 
L 633.862646 251.959015 
L 631.462513 253.163274 
L 629.062379 254.070888 
L 626.662245 254.70647 
L 624.262111 255.094633 
L 621.861977 255.259991 
L 619.461844 255.227154 
L 617.06171 255.020738 
L 614.661576 254.665353 
L 612.261442 254.185612 
L 609.861309 253.60613 
L 607.461175 252.951517 
L 605.061041 252.246388 
L 602.660907 251.515354 
L 600.260773 250.783028 
L 597.86064 250.074024 
L 595.460506 249.412953 
L 593.060372 248.82443 
L 590.660238 248.333065 
L 588.260105 247.963473 
L 585.859971 247.740265 
L 583.459837 247.688055 
L 581.059703 247.831455 
L 578.659569 248.195079 
L 576.259436 248.803538 
L 573.859302 249.681445 
L 571.459168 250.853241 
L 569.059034 252.326458 
L 566.658901 254.077776 
L 564.258767 256.080589 
L 561.858633 258.308291 
L 559.458499 260.734279 
L 557.058365 263.331947 
L 554.658232 266.074689 
L 552.258098 268.935901 
L 549.857964 271.888977 
L 547.45783 274.907313 
L 545.057696 277.964302 
L 542.657563 281.033341 
L 540.257429 284.087823 
L 537.857295 287.101144 
L 535.457161 290.046699 
L 533.057028 292.897882 
L 530.656894 295.628089 
L 528.25676 298.210714 
L 525.856626 300.619151 
L 523.456492 302.826797 
L 521.056359 304.807046 
L 518.656225 306.533292 
L 516.256091 307.978931 
L 513.855957 309.117357 
L 511.455824 309.921965 
L 509.05569 310.366151 
L 506.655556 310.423315 
L 504.255422 310.0785 
L 501.855288 309.352266 
L 499.455155 308.271929 
L 497.055021 306.864801 
L 494.654887 305.158196 
L 492.254753 303.179428 
L 489.85462 300.95581 
L 487.454486 298.514655 
L 485.054352 295.883279 
L 482.654218 293.088993 
L 480.254084 290.159112 
L 477.853951 287.12095 
L 475.453817 284.001819 
L 473.053683 280.829034 
L 470.653549 277.629908 
L 468.253416 274.431755 
L 465.853282 271.261888 
L 463.453148 268.147621 
L 461.053014 265.116268 
L 458.65288 262.195142 
L 456.252747 259.411557 
L 453.852613 256.792827 
L 451.452479 254.366264 
L 449.052345 252.159183 
L 446.652212 250.198898 
L 444.252078 248.512721 
L 441.851944 247.127967 
L 439.45181 246.067772 
L 437.051676 245.333292 
L 434.651543 244.918484 
L 432.251409 244.817297 
L 429.851275 245.023684 
L 427.451141 245.531594 
L 425.051008 246.33498 
L 422.650874 247.427791 
L 420.25074 248.803979 
L 417.850606 250.457496 
L 415.450472 252.382291 
L 413.050339 254.572316 
L 410.650205 257.021521 
L 408.250071 259.723859 
L 405.849937 262.673279 
L 403.449804 265.863734 
L 401.04967 269.289172 
L 398.649536 272.943547 
L 396.249402 276.820808 
L 393.849268 280.914907 
L 391.449135 285.219795 
L 389.049001 289.729422 
L 386.648867 294.43774 
L 384.248733 299.338699 
L 381.848599 304.426251 
L 379.448466 309.694347 
L 377.048332 315.136937 
L 374.648198 320.746093 
L 372.248064 326.496227 
L 369.847931 332.352074 
L 367.447797 338.278271 
L 365.047663 344.239455 
L 362.647529 350.200262 
L 360.247395 356.125329 
L 357.847262 361.979292 
L 355.447128 367.726788 
L 353.046994 373.332454 
L 350.64686 378.760925 
L 348.246727 383.976839 
L 345.846593 388.944832 
L 343.446459 393.629541 
L 341.046325 397.995602 
L 338.646191 402.007652 
L 336.246058 405.630327 
L 333.845924 408.828264 
L 331.44579 411.5661 
L 329.045656 413.80847 
L 326.645523 415.520013 
L 324.245389 416.665363 
L 321.845255 417.209159 
L 319.445121 417.116035 
L 317.044987 416.35063 
L 314.644854 414.877579 
L 312.24472 412.661519 
L 309.844586 409.669775 
L 307.444452 405.920058 
L 305.044319 401.474829 
L 302.644185 396.398105 
L 300.244051 390.753903 
L 297.843917 384.606239 
L 295.443783 378.01913 
L 293.04365 371.056593 
L 290.643516 363.782645 
L 288.243382 356.261302 
L 285.843248 348.55658 
L 283.443115 340.732498 
L 281.042981 332.85307 
L 278.642847 324.982315 
L 276.242713 317.184248 
L 273.842579 309.522887 
L 271.442446 302.062248 
L 269.042312 294.866349 
L 266.642178 287.999204 
L 264.242044 281.524832 
L 261.841911 275.507249 
L 259.441777 270.010472 
L 257.041643 265.098517 
L 254.641509 260.835402 
L 252.241375 257.285142 
L 249.841242 254.511755 
L 247.441108 252.579257 
L 245.040974 251.550757 
L 242.64084 251.445077 
L 240.240707 252.217718 
L 237.840573 253.81931 
L 235.440439 256.20048 
L 233.040305 259.31186 
L 230.640171 263.104079 
L 228.240038 267.527766 
L 225.839904 272.533551 
L 223.43977 278.072063 
L 221.039636 284.093932 
L 218.639503 290.549788 
L 216.239369 297.390259 
L 213.839235 304.565976 
L 211.439101 312.027568 
L 209.038967 319.725665 
L 206.638834 327.610895 
L 204.2387 335.63389 
L 201.838566 343.745277 
L 199.438432 351.895687 
L 197.038298 360.03575 
L 194.638165 368.116094 
L 192.238031 376.08735 
L 189.837897 383.900147 
L 187.437763 391.505114 
L 185.03763 398.852881 
L 182.637496 405.894077 
L 180.237362 412.579333 
L 177.837228 418.859277 
L 175.437094 424.68454 
L 173.036961 430.00575 
L 170.636827 434.773537 
L 168.236693 438.938531 
L 165.836559 442.451361 
L 163.436426 445.262657 
L 161.036292 447.323049 
L 158.636158 448.583165 
L 156.236024 448.993636 
L 153.83589 448.505091 
L 151.435757 447.06816 
L 149.035623 444.633471 
L 146.635489 441.151655 
L 144.235355 436.573342 
L 141.835222 430.84916 
L 139.435088 423.929739 
L 137.034954 415.765709 
L 134.63482 406.307699 
L 132.234686 395.506339 
L 129.834553 383.312259 
L 127.434419 369.676087 
L 125.034285 354.548454 
L 122.634151 337.879989 
L 120.234018 319.621322 
L 117.833884 299.723082 
L 115.43375 278.135898 
z
" clip-path="url(#p696cb8a338)" style="fill: #215f53"/>
   </g>
   <g id="FillBetweenPolyCollection_2">
    <path d="M 115.43375 146.959341 
L 115.43375 278.135898 
L 117.833884 299.723082 
L 120.234018 319.621322 
L 122.634151 337.879989 
L 125.034285 354.548454 
L 127.434419 369.676087 
L 129.834553 383.312259 
L 132.234686 395.506339 
L 134.63482 406.307699 
L 137.034954 415.765709 
L 139.435088 423.929739 
L 141.835222 430.84916 
L 144.235355 436.573342 
L 146.635489 441.151655 
L 149.035623 444.633471 
L 151.435757 447.06816 
L 153.83589 448.505091 
L 156.236024 448.993636 
L 158.636158 448.583165 
L 161.036292 447.323049 
L 163.436426 445.262657 
L 165.836559 442.451361 
L 168.236693 438.938531 
L 170.636827 434.773537 
L 173.036961 430.00575 
L 175.437094 424.68454 
L 177.837228 418.859277 
L 180.237362 412.579333 
L 182.637496 405.894077 
L 185.03763 398.852881 
L 187.437763 391.505114 
L 189.837897 383.900147 
L 192.238031 376.08735 
L 194.638165 368.116094 
L 197.038298 360.03575 
L 199.438432 351.895687 
L 201.838566 343.745277 
L 204.2387 335.63389 
L 206.638834 327.610895 
L 209.038967 319.725665 
L 211.439101 312.027568 
L 213.839235 304.565976 
L 216.239369 297.390259 
L 218.639503 290.549788 
L 221.039636 284.093932 
L 223.43977 278.072063 
L 225.839904 272.533551 
L 228.240038 267.527766 
L 230.640171 263.104079 
L 233.040305 259.31186 
L 235.440439 256.20048 
L 237.840573 253.81931 
L 240.240707 252.217718 
L 242.64084 251.445077 
L 245.040974 251.550757 
L 247.441108 252.579257 
L 249.841242 254.511755 
L 252.241375 257.285142 
L 254.641509 260.835402 
L 257.041643 265.098517 
L 259.441777 270.010472 
L 261.841911 275.507249 
L 264.242044 281.524832 
L 266.642178 287.999204 
L 269.042312 294.866349 
L 271.442446 302.062248 
L 273.842579 309.522887 
L 276.242713 317.184248 
L 278.642847 324.982315 
L 281.042981 332.85307 
L 283.443115 340.732498 
L 285.843248 348.55658 
L 288.243382 356.261302 
L 290.643516 363.782645 
L 293.04365 371.056593 
L 295.443783 378.01913 
L 297.843917 384.606239 
L 300.244051 390.753903 
L 302.644185 396.398105 
L 305.044319 401.474829 
L 307.444452 405.920058 
L 309.844586 409.669775 
L 312.24472 412.661519 
L 314.644854 414.877579 
L 317.044987 416.35063 
L 319.445121 417.116035 
L 321.845255 417.209159 
L 324.245389 416.665363 
L 326.645523 415.520013 
L 329.045656 413.80847 
L 331.44579 411.5661 
L 333.845924 408.828264 
L 336.246058 405.630327 
L 338.646191 402.007652 
L 341.046325 397.995602 
L 343.446459 393.629541 
L 345.846593 388.944832 
L 348.246727 383.976839 
L 350.64686 378.760925 
L 353.046994 373.332454 
L 355.447128 367.726788 
L 357.847262 361.979292 
L 360.247395 356.125329 
L 362.647529 350.200262 
L 365.047663 344.239455 
L 367.447797 338.278271 
L 369.847931 332.352074 
L 372.248064 326.496227 
L 374.648198 320.746093 
L 377.048332 315.136937 
L 379.448466 309.694347 
L 381.848599 304.426251 
L 384.248733 299.338699 
L 386.648867 294.43774 
L 389.049001 289.729422 
L 391.449135 285.219795 
L 393.849268 280.914907 
L 396.249402 276.820808 
L 398.649536 272.943547 
L 401.04967 269.289172 
L 403.449804 265.863734 
L 405.849937 262.673279 
L 408.250071 259.723859 
L 410.650205 257.021521 
L 413.050339 254.572316 
L 415.450472 252.382291 
L 417.850606 250.457496 
L 420.25074 248.803979 
L 422.650874 247.427791 
L 425.051008 246.33498 
L 427.451141 245.531594 
L 429.851275 245.023684 
L 432.251409 244.817297 
L 434.651543 244.918484 
L 437.051676 245.333292 
L 439.45181 246.067772 
L 441.851944 247.127967 
L 444.252078 248.512721 
L 446.652212 250.198898 
L 449.052345 252.159183 
L 451.452479 254.366264 
L 453.852613 256.792827 
L 456.252747 259.411557 
L 458.65288 262.195142 
L 461.053014 265.116268 
L 463.453148 268.147621 
L 465.853282 271.261888 
L 468.253416 274.431755 
L 470.653549 277.629908 
L 473.053683 280.829034 
L 475.453817 284.001819 
L 477.853951 287.12095 
L 480.254084 290.159112 
L 482.654218 293.088993 
L 485.054352 295.883279 
L 487.454486 298.514655 
L 489.85462 300.95581 
L 492.254753 303.179428 
L 494.654887 305.158196 
L 497.055021 306.864801 
L 499.455155 308.271929 
L 501.855288 309.352266 
L 504.255422 310.0785 
L 506.655556 310.423315 
L 509.05569 310.366151 
L 511.455824 309.921965 
L 513.855957 309.117357 
L 516.256091 307.978931 
L 518.656225 306.533292 
L 521.056359 304.807046 
L 523.456492 302.826797 
L 525.856626 300.619151 
L 528.25676 298.210714 
L 530.656894 295.628089 
L 533.057028 292.897882 
L 535.457161 290.046699 
L 537.857295 287.101144 
L 540.257429 284.087823 
L 542.657563 281.033341 
L 545.057696 277.964302 
L 547.45783 274.907313 
L 549.857964 271.888977 
L 552.258098 268.935901 
L 554.658232 266.074689 
L 557.058365 263.331947 
L 559.458499 260.734279 
L 561.858633 258.308291 
L 564.258767 256.080589 
L 566.658901 254.077776 
L 569.059034 252.326458 
L 571.459168 250.853241 
L 573.859302 249.681445 
L 576.259436 248.803538 
L 578.659569 248.195079 
L 581.059703 247.831455 
L 583.459837 247.688055 
L 585.859971 247.740265 
L 588.260105 247.963473 
L 590.660238 248.333065 
L 593.060372 248.82443 
L 595.460506 249.412953 
L 597.86064 250.074024 
L 600.260773 250.783028 
L 602.660907 251.515354 
L 605.061041 252.246388 
L 607.461175 252.951517 
L 609.861309 253.60613 
L 612.261442 254.185612 
L 614.661576 254.665353 
L 617.06171 255.020738 
L 619.461844 255.227154 
L 621.861977 255.259991 
L 624.262111 255.094633 
L 626.662245 254.70647 
L 629.062379 254.070888 
L 631.462513 253.163274 
L 633.862646 251.959015 
L 636.26278 250.4335 
L 638.662914 248.563651 
L 641.063048 246.355192 
L 643.463181 243.839427 
L 645.863315 241.048546 
L 648.263449 238.014741 
L 650.663583 234.770204 
L 653.063717 231.347125 
L 655.46385 227.777697 
L 657.863984 224.094111 
L 660.264118 220.328559 
L 662.664252 216.513231 
L 665.064385 212.68032 
L 667.464519 208.862017 
L 669.864653 205.090514 
L 672.264787 201.398001 
L 674.664921 197.816671 
L 677.065054 194.378714 
L 679.465188 191.116324 
L 681.865322 188.06169 
L 684.265456 185.247004 
L 686.665589 182.704458 
L 689.065723 180.466244 
L 691.465857 178.564553 
L 693.865991 177.031576 
L 696.266125 175.899505 
L 698.666258 175.200531 
L 701.066392 174.966846 
L 703.466526 175.230174 
L 705.86666 175.999457 
L 708.266793 177.251057 
L 710.666927 178.958833 
L 713.067061 181.096644 
L 715.467195 183.638348 
L 717.867329 186.557803 
L 720.267462 189.828866 
L 722.667596 193.425397 
L 725.06773 197.321254 
L 727.467864 201.490294 
L 729.867997 205.906376 
L 732.268131 210.543358 
L 734.668265 215.375099 
L 737.068399 220.375457 
L 739.468533 225.518289 
L 741.868666 230.777454 
L 744.2688 236.126811 
L 746.668934 241.540217 
L 749.069068 246.991531 
L 751.469202 252.454612 
L 753.869335 257.903316 
L 756.269469 263.311502 
L 758.669603 268.65303 
L 761.069737 273.901756 
L 763.46987 279.031539 
L 765.870004 284.016238 
L 768.270138 288.82971 
L 770.670272 293.445814 
L 773.070406 297.838408 
L 775.470539 301.98135 
L 777.870673 305.848498 
L 780.270807 309.413711 
L 782.670941 312.650847 
L 785.071074 315.533764 
L 787.471208 318.036321 
L 789.871342 320.132375 
L 792.271476 321.795784 
L 794.67161 323.000408 
L 797.071743 323.720104 
L 799.471877 323.92873 
L 801.872011 323.600145 
L 804.272145 322.708207 
L 806.672278 321.226774 
L 809.072412 319.129704 
L 811.472546 316.390856 
L 813.87268 312.984087 
L 816.272814 308.883257 
L 818.672947 304.062223 
L 821.073081 298.494843 
L 823.473215 292.154976 
L 825.873349 285.016479 
L 828.273482 277.053212 
L 830.673616 268.239032 
L 833.07375 258.547798 
L 833.07375 135.020252 
L 833.07375 135.020252 
L 830.673616 147.436041 
L 828.273482 159.098015 
L 825.873349 170.023487 
L 823.473215 180.229767 
L 821.073081 189.734169 
L 818.672947 198.554003 
L 816.272814 206.70658 
L 813.87268 214.209213 
L 811.472546 221.079213 
L 809.072412 227.333891 
L 806.672278 232.990558 
L 804.272145 238.066528 
L 801.872011 242.57911 
L 799.471877 246.545617 
L 797.071743 249.98336 
L 794.67161 252.909651 
L 792.271476 255.3418 
L 789.871342 257.297121 
L 787.471208 258.792924 
L 785.071074 259.84652 
L 782.670941 260.475222 
L 780.270807 260.696341 
L 777.870673 260.527189 
L 775.470539 259.985076 
L 773.070406 259.087315 
L 770.670272 257.851217 
L 768.270138 256.294094 
L 765.870004 254.433257 
L 763.46987 252.286017 
L 761.069737 249.869687 
L 758.669603 247.201578 
L 756.269469 244.299001 
L 753.869335 241.179268 
L 751.469202 237.859691 
L 749.069068 234.35758 
L 746.668934 230.690248 
L 744.2688 226.875006 
L 741.868666 222.929166 
L 739.468533 218.870039 
L 737.068399 214.714937 
L 734.668265 210.481171 
L 732.268131 206.186052 
L 729.867997 201.846893 
L 727.467864 197.481005 
L 725.06773 193.1057 
L 722.667596 188.738289 
L 720.267462 184.396083 
L 717.867329 180.096394 
L 715.467195 175.856534 
L 713.067061 171.693813 
L 710.666927 167.625545 
L 708.266793 163.66904 
L 705.86666 159.84161 
L 703.466526 156.160566 
L 701.066392 152.642578 
L 698.666258 149.295972 
L 696.266125 146.123234 
L 693.865991 143.126736 
L 691.465857 140.308845 
L 689.065723 137.67193 
L 686.665589 135.218362 
L 684.265456 132.950508 
L 681.865322 130.870738 
L 679.465188 128.98142 
L 677.065054 127.284925 
L 674.664921 125.78362 
L 672.264787 124.479875 
L 669.864653 123.376059 
L 667.464519 122.474541 
L 665.064385 121.77769 
L 662.664252 121.287875 
L 660.264118 121.007464 
L 657.863984 120.938828 
L 655.46385 121.084335 
L 653.063717 121.446354 
L 650.663583 122.027254 
L 648.263449 122.829404 
L 645.863315 123.855173 
L 643.463181 125.10693 
L 641.063048 126.587044 
L 638.662914 128.297885 
L 636.26278 130.241407 
L 633.862646 132.407679 
L 631.462513 134.773379 
L 629.062379 137.314474 
L 626.662245 140.00693 
L 624.262111 142.826713 
L 621.861977 145.749788 
L 619.461844 148.752123 
L 617.06171 151.809683 
L 614.661576 154.898433 
L 612.261442 157.994341 
L 609.861309 161.073371 
L 607.461175 164.111491 
L 605.061041 167.084665 
L 602.660907 169.96886 
L 600.260773 172.740043 
L 597.86064 175.374178 
L 595.460506 177.847232 
L 593.060372 180.135172 
L 590.660238 182.213962 
L 588.260105 184.05957 
L 585.859971 185.64796 
L 583.459837 186.9551 
L 581.059703 187.956954 
L 578.659569 188.62949 
L 576.259436 188.948672 
L 573.859302 188.890468 
L 571.459168 188.431037 
L 569.059034 187.565517 
L 566.658901 186.323676 
L 564.258767 184.738971 
L 561.858633 182.844859 
L 559.458499 180.674795 
L 557.058365 178.262235 
L 554.658232 175.640635 
L 552.258098 172.84345 
L 549.857964 169.904138 
L 547.45783 166.856154 
L 545.057696 163.732954 
L 542.657563 160.567994 
L 540.257429 157.39473 
L 537.857295 154.246618 
L 535.457161 151.157114 
L 533.057028 148.159674 
L 530.656894 145.287753 
L 528.25676 142.574809 
L 525.856626 140.054296 
L 523.456492 137.759671 
L 521.056359 135.72439 
L 518.656225 133.981908 
L 516.256091 132.565683 
L 513.855957 131.509169 
L 511.455824 130.845823 
L 509.05569 130.609101 
L 506.655556 130.832449 
L 504.255422 131.533381 
L 501.855288 132.680792 
L 499.455155 134.234333 
L 497.055021 136.153656 
L 494.654887 138.398413 
L 492.254753 140.928256 
L 489.85462 143.702837 
L 487.454486 146.681808 
L 485.054352 149.824821 
L 482.654218 153.091527 
L 480.254084 156.441579 
L 477.853951 159.834629 
L 475.453817 163.230329 
L 473.053683 166.58833 
L 470.653549 169.868284 
L 468.253416 173.029844 
L 465.853282 176.032662 
L 463.453148 178.836389 
L 461.053014 181.400677 
L 458.65288 183.685178 
L 456.252747 185.649545 
L 453.852613 187.253429 
L 451.452479 188.456482 
L 449.052345 189.218356 
L 446.652212 189.498704 
L 444.252078 189.257176 
L 441.851944 188.453425 
L 439.45181 187.060155 
L 437.051676 185.118739 
L 434.651543 182.69305 
L 432.251409 179.846976 
L 429.851275 176.644404 
L 427.451141 173.149222 
L 425.051008 169.425317 
L 422.650874 165.536576 
L 420.25074 161.546886 
L 417.850606 157.520134 
L 415.450472 153.520209 
L 413.050339 149.610998 
L 410.650205 145.856386 
L 408.250071 142.320263 
L 405.849937 139.066515 
L 403.449804 136.15903 
L 401.04967 133.661695 
L 398.649536 131.638396 
L 396.249402 130.153023 
L 393.849268 129.269461 
L 391.449135 129.051598 
L 389.049001 129.563322 
L 386.648867 130.868519 
L 384.248733 133.031077 
L 381.848599 136.114884 
L 379.448466 140.183826 
L 377.048332 145.301792 
L 374.648198 151.522163 
L 372.248064 158.799618 
L 369.847931 167.034752 
L 367.447797 176.127608 
L 365.047663 185.978228 
L 362.647529 196.486655 
L 360.247395 207.552929 
L 357.847262 219.077094 
L 355.447128 230.959192 
L 353.046994 243.099265 
L 350.64686 255.397354 
L 348.246727 267.753502 
L 345.846593 280.067752 
L 343.446459 292.240146 
L 341.046325 304.170724 
L 338.646191 315.759531 
L 336.246058 326.906608 
L 333.845924 337.511996 
L 331.44579 347.475739 
L 329.045656 356.697879 
L 326.645523 365.078457 
L 324.245389 372.517516 
L 321.845255 378.915097 
L 319.445121 384.171244 
L 317.044987 388.185998 
L 314.644854 390.859402 
L 312.24472 392.091497 
L 309.844586 391.787687 
L 307.444452 389.953889 
L 305.044319 386.685282 
L 302.644185 382.08015 
L 300.244051 376.236777 
L 297.843917 369.253447 
L 295.443783 361.228444 
L 293.04365 352.260051 
L 290.643516 342.446553 
L 288.243382 331.886232 
L 285.843248 320.677373 
L 283.443115 308.91826 
L 281.042981 296.707177 
L 278.642847 284.142406 
L 276.242713 271.322233 
L 273.842579 258.34494 
L 271.442446 245.308812 
L 269.042312 232.312132 
L 266.642178 219.453184 
L 264.242044 206.830253 
L 261.841911 194.541621 
L 259.441777 182.685572 
L 257.041643 171.360391 
L 254.641509 160.664361 
L 252.241375 150.695766 
L 249.841242 141.55289 
L 247.441108 133.334016 
L 245.040974 126.136281 
L 242.64084 120.000916 
L 240.240707 114.889207 
L 237.840573 110.756295 
L 235.440439 107.55732 
L 233.040305 105.247419 
L 230.640171 103.781734 
L 228.240038 103.115403 
L 225.839904 103.203566 
L 223.43977 104.001363 
L 221.039636 105.463932 
L 218.639503 107.546413 
L 216.239369 110.203947 
L 213.839235 113.391672 
L 211.439101 117.064727 
L 209.038967 121.178253 
L 206.638834 125.687388 
L 204.2387 130.547273 
L 201.838566 135.713046 
L 199.438432 141.139847 
L 197.038298 146.782816 
L 194.638165 152.597092 
L 192.238031 158.537815 
L 189.837897 164.560123 
L 187.437763 170.619157 
L 185.03763 176.670057 
L 182.637496 182.66796 
L 180.237362 188.568008 
L 177.837228 194.325339 
L 175.437094 199.895092 
L 173.036961 205.232409 
L 170.636827 210.292427 
L 168.236693 215.030286 
L 165.836559 219.401126 
L 163.436426 223.360086 
L 161.036292 226.862307 
L 158.636158 229.862926 
L 156.236024 232.317084 
L 153.83589 234.17992 
L 151.435757 235.406574 
L 149.035623 235.952185 
L 146.635489 235.771892 
L 144.235355 234.820836 
L 141.835222 233.054155 
L 139.435088 230.426989 
L 137.034954 226.894478 
L 134.63482 222.41176 
L 132.234686 216.933976 
L 129.834553 210.416265 
L 127.434419 202.813767 
L 125.034285 194.08162 
L 122.634151 184.174965 
L 120.234018 173.04894 
L 117.833884 160.658686 
L 115.43375 146.959341 
z
" clip-path="url(#p696cb8a338)" style="fill: #7570b3"/>
   </g>
   <g id="FillBetweenPolyCollection_3">
    <path d="M 115.43375 51.666364 
L 115.43375 146.959341 
L 117.833884 160.658686 
L 120.234018 173.04894 
L 122.634151 184.174965 
L 125.034285 194.08162 
L 127.434419 202.813767 
L 129.834553 210.416265 
L 132.234686 216.933976 
L 134.63482 222.41176 
L 137.034954 226.894478 
L 139.435088 230.426989 
L 141.835222 233.054155 
L 144.235355 234.820836 
L 146.635489 235.771892 
L 149.035623 235.952185 
L 151.435757 235.406574 
L 153.83589 234.17992 
L 156.236024 232.317084 
L 158.636158 229.862926 
L 161.036292 226.862307 
L 163.436426 223.360086 
L 165.836559 219.401126 
L 168.236693 215.030286 
L 170.636827 210.292427 
L 173.036961 205.232409 
L 175.437094 199.895092 
L 177.837228 194.325339 
L 180.237362 188.568008 
L 182.637496 182.66796 
L 185.03763 176.670057 
L 187.437763 170.619157 
L 189.837897 164.560123 
L 192.238031 158.537815 
L 194.638165 152.597092 
L 197.038298 146.782816 
L 199.438432 141.139847 
L 201.838566 135.713046 
L 204.2387 130.547273 
L 206.638834 125.687388 
L 209.038967 121.178253 
L 211.439101 117.064727 
L 213.839235 113.391672 
L 216.239369 110.203947 
L 218.639503 107.546413 
L 221.039636 105.463932 
L 223.43977 104.001363 
L 225.839904 103.203566 
L 228.240038 103.115403 
L 230.640171 103.781734 
L 233.040305 105.247419 
L 235.440439 107.55732 
L 237.840573 110.756295 
L 240.240707 114.889207 
L 242.64084 120.000916 
L 245.040974 126.136281 
L 247.441108 133.334016 
L 249.841242 141.55289 
L 252.241375 150.695766 
L 254.641509 160.664361 
L 257.041643 171.360391 
L 259.441777 182.685572 
L 261.841911 194.541621 
L 264.242044 206.830253 
L 266.642178 219.453184 
L 269.042312 232.312132 
L 271.442446 245.308812 
L 273.842579 258.34494 
L 276.242713 271.322233 
L 278.642847 284.142406 
L 281.042981 296.707177 
L 283.443115 308.91826 
L 285.843248 320.677373 
L 288.243382 331.886232 
L 290.643516 342.446553 
L 293.04365 352.260051 
L 295.443783 361.228444 
L 297.843917 369.253447 
L 300.244051 376.236777 
L 302.644185 382.08015 
L 305.044319 386.685282 
L 307.444452 389.953889 
L 309.844586 391.787687 
L 312.24472 392.091497 
L 314.644854 390.859402 
L 317.044987 388.185998 
L 319.445121 384.171244 
L 321.845255 378.915097 
L 324.245389 372.517516 
L 326.645523 365.078457 
L 329.045656 356.697879 
L 331.44579 347.475739 
L 333.845924 337.511996 
L 336.246058 326.906608 
L 338.646191 315.759531 
L 341.046325 304.170724 
L 343.446459 292.240146 
L 345.846593 280.067752 
L 348.246727 267.753502 
L 350.64686 255.397354 
L 353.046994 243.099265 
L 355.447128 230.959192 
L 357.847262 219.077094 
L 360.247395 207.552929 
L 362.647529 196.486655 
L 365.047663 185.978228 
L 367.447797 176.127608 
L 369.847931 167.034752 
L 372.248064 158.799618 
L 374.648198 151.522163 
L 377.048332 145.301792 
L 379.448466 140.183826 
L 381.848599 136.114884 
L 384.248733 133.031077 
L 386.648867 130.868519 
L 389.049001 129.563322 
L 391.449135 129.051598 
L 393.849268 129.269461 
L 396.249402 130.153023 
L 398.649536 131.638396 
L 401.04967 133.661695 
L 403.449804 136.15903 
L 405.849937 139.066515 
L 408.250071 142.320263 
L 410.650205 145.856386 
L 413.050339 149.610998 
L 415.450472 153.520209 
L 417.850606 157.520134 
L 420.25074 161.546886 
L 422.650874 165.536576 
L 425.051008 169.425317 
L 427.451141 173.149222 
L 429.851275 176.644404 
L 432.251409 179.846976 
L 434.651543 182.69305 
L 437.051676 185.118739 
L 439.45181 187.060155 
L 441.851944 188.453425 
L 444.252078 189.257176 
L 446.652212 189.498704 
L 449.052345 189.218356 
L 451.452479 188.456482 
L 453.852613 187.253429 
L 456.252747 185.649545 
L 458.65288 183.685178 
L 461.053014 181.400677 
L 463.453148 178.836389 
L 465.853282 176.032662 
L 468.253416 173.029844 
L 470.653549 169.868284 
L 473.053683 166.58833 
L 475.453817 163.230329 
L 477.853951 159.834629 
L 480.254084 156.441579 
L 482.654218 153.091527 
L 485.054352 149.824821 
L 487.454486 146.681808 
L 489.85462 143.702837 
L 492.254753 140.928256 
L 494.654887 138.398413 
L 497.055021 136.153656 
L 499.455155 134.234333 
L 501.855288 132.680792 
L 504.255422 131.533381 
L 506.655556 130.832449 
L 509.05569 130.609101 
L 511.455824 130.845823 
L 513.855957 131.509169 
L 516.256091 132.565683 
L 518.656225 133.981908 
L 521.056359 135.72439 
L 523.456492 137.759671 
L 525.856626 140.054296 
L 528.25676 142.574809 
L 530.656894 145.287753 
L 533.057028 148.159674 
L 535.457161 151.157114 
L 537.857295 154.246618 
L 540.257429 157.39473 
L 542.657563 160.567994 
L 545.057696 163.732954 
L 547.45783 166.856154 
L 549.857964 169.904138 
L 552.258098 172.84345 
L 554.658232 175.640635 
L 557.058365 178.262235 
L 559.458499 180.674795 
L 561.858633 182.844859 
L 564.258767 184.738971 
L 566.658901 186.323676 
L 569.059034 187.565517 
L 571.459168 188.431037 
L 573.859302 188.890468 
L 576.259436 188.948672 
L 578.659569 188.62949 
L 581.059703 187.956954 
L 583.459837 186.9551 
L 585.859971 185.64796 
L 588.260105 184.05957 
L 590.660238 182.213962 
L 593.060372 180.135172 
L 595.460506 177.847232 
L 597.86064 175.374178 
L 600.260773 172.740043 
L 602.660907 169.96886 
L 605.061041 167.084665 
L 607.461175 164.111491 
L 609.861309 161.073371 
L 612.261442 157.994341 
L 614.661576 154.898433 
L 617.06171 151.809683 
L 619.461844 148.752123 
L 621.861977 145.749788 
L 624.262111 142.826713 
L 626.662245 140.00693 
L 629.062379 137.314474 
L 631.462513 134.773379 
L 633.862646 132.407679 
L 636.26278 130.241407 
L 638.662914 128.297885 
L 641.063048 126.587044 
L 643.463181 125.10693 
L 645.863315 123.855173 
L 648.263449 122.829404 
L 650.663583 122.027254 
L 653.063717 121.446354 
L 655.46385 121.084335 
L 657.863984 120.938828 
L 660.264118 121.007464 
L 662.664252 121.287875 
L 665.064385 121.77769 
L 667.464519 122.474541 
L 669.864653 123.376059 
L 672.264787 124.479875 
L 674.664921 125.78362 
L 677.065054 127.284925 
L 679.465188 128.98142 
L 681.865322 130.870738 
L 684.265456 132.950508 
L 686.665589 135.218362 
L 689.065723 137.67193 
L 691.465857 140.308845 
L 693.865991 143.126736 
L 696.266125 146.123234 
L 698.666258 149.295972 
L 701.066392 152.642578 
L 703.466526 156.160566 
L 705.86666 159.84161 
L 708.266793 163.66904 
L 710.666927 167.625545 
L 713.067061 171.693813 
L 715.467195 175.856534 
L 717.867329 180.096394 
L 720.267462 184.396083 
L 722.667596 188.738289 
L 725.06773 193.1057 
L 727.467864 197.481005 
L 729.867997 201.846893 
L 732.268131 206.186052 
L 734.668265 210.481171 
L 737.068399 214.714937 
L 739.468533 218.870039 
L 741.868666 222.929166 
L 744.2688 226.875006 
L 746.668934 230.690248 
L 749.069068 234.35758 
L 751.469202 237.859691 
L 753.869335 241.179268 
L 756.269469 244.299001 
L 758.669603 247.201578 
L 761.069737 249.869687 
L 763.46987 252.286017 
L 765.870004 254.433257 
L 768.270138 256.294094 
L 770.670272 257.851217 
L 773.070406 259.087315 
L 775.470539 259.985076 
L 777.870673 260.527189 
L 780.270807 260.696341 
L 782.670941 260.475222 
L 785.071074 259.84652 
L 787.471208 258.792924 
L 789.871342 257.297121 
L 792.271476 255.3418 
L 794.67161 252.909651 
L 797.071743 249.98336 
L 799.471877 246.545617 
L 801.872011 242.57911 
L 804.272145 238.066528 
L 806.672278 232.990558 
L 809.072412 227.333891 
L 811.472546 221.079213 
L 813.87268 214.209213 
L 816.272814 206.70658 
L 818.672947 198.554003 
L 821.073081 189.734169 
L 823.473215 180.229767 
L 825.873349 170.023487 
L 828.273482 159.098015 
L 830.673616 147.436041 
L 833.07375 135.020252 
L 833.07375 51.666364 
L 833.07375 51.666364 
L 830.673616 51.666364 
L 828.273482 51.666364 
L 825.873349 51.666364 
L 823.473215 51.666364 
L 821.073081 51.666364 
L 818.672947 51.666364 
L 816.272814 51.666364 
L 813.87268 51.666364 
L 811.472546 51.666364 
L 809.072412 51.666364 
L 806.672278 51.666364 
L 804.272145 51.666364 
L 801.872011 51.666364 
L 799.471877 51.666364 
L 797.071743 51.666364 
L 794.67161 51.666364 
L 792.271476 51.666364 
L 789.871342 51.666364 
L 787.471208 51.666364 
L 785.071074 51.666364 
L 782.670941 51.666364 
L 780.270807 51.666364 
L 777.870673 51.666364 
L 775.470539 51.666364 
L 773.070406 51.666364 
L 770.670272 51.666364 
L 768.270138 51.666364 
L 765.870004 51.666364 
L 763.46987 51.666364 
L 761.069737 51.666364 
L 758.669603 51.666364 
L 756.269469 51.666364 
L 753.869335 51.666364 
L 751.469202 51.666364 
L 749.069068 51.666364 
L 746.668934 51.666364 
L 744.2688 51.666364 
L 741.868666 51.666364 
L 739.468533 51.666364 
L 737.068399 51.666364 
L 734.668265 51.666364 
L 732.268131 51.666364 
L 729.867997 51.666364 
L 727.467864 51.666364 
L 725.06773 51.666364 
L 722.667596 51.666364 
L 720.267462 51.666364 
L 717.867329 51.666364 
L 715.467195 51.666364 
L 713.067061 51.666364 
L 710.666927 51.666364 
L 708.266793 51.666364 
L 705.86666 51.666364 
L 703.466526 51.666364 
L 701.066392 51.666364 
L 698.666258 51.666364 
L 696.266125 51.666364 
L 693.865991 51.666364 
L 691.465857 51.666364 
L 689.065723 51.666364 
L 686.665589 51.666364 
L 684.265456 51.666364 
L 681.865322 51.666364 
L 679.465188 51.666364 
L 677.065054 51.666364 
L 674.664921 51.666364 
L 672.264787 51.666364 
L 669.864653 51.666364 
L 667.464519 51.666364 
L 665.064385 51.666364 
L 662.664252 51.666364 
L 660.264118 51.666364 
L 657.863984 51.666364 
L 655.46385 51.666364 
L 653.063717 51.666364 
L 650.663583 51.666364 
L 648.263449 51.666364 
L 645.863315 51.666364 
L 643.463181 51.666364 
L 641.063048 51.666364 
L 638.662914 51.666364 
L 636.26278 51.666364 
L 633.862646 51.666364 
L 631.462513 51.666364 
L 629.062379 51.666364 
L 626.662245 51.666364 
L 624.262111 51.666364 
L 621.861977 51.666364 
L 619.461844 51.666364 
L 617.06171 51.666364 
L 614.661576 51.666364 
L 612.261442 51.666364 
L 609.861309 51.666364 
L 607.461175 51.666364 
L 605.061041 51.666364 
L 602.660907 51.666364 
L 600.260773 51.666364 
L 597.86064 51.666364 
L 595.460506 51.666364 
L 593.060372 51.666364 
L 590.660238 51.666364 
L 588.260105 51.666364 
L 585.859971 51.666364 
L 583.459837 51.666364 
L 581.059703 51.666364 
L 578.659569 51.666364 
L 576.259436 51.666364 
L 573.859302 51.666364 
L 571.459168 51.666364 
L 569.059034 51.666364 
L 566.658901 51.666364 
L 564.258767 51.666364 
L 561.858633 51.666364 
L 559.458499 51.666364 
L 557.058365 51.666364 
L 554.658232 51.666364 
L 552.258098 51.666364 
L 549.857964 51.666364 
L 547.45783 51.666364 
L 545.057696 51.666364 
L 542.657563 51.666364 
L 540.257429 51.666364 
L 537.857295 51.666364 
L 535.457161 51.666364 
L 533.057028 51.666364 
L 530.656894 51.666364 
L 528.25676 51.666364 
L 525.856626 51.666364 
L 523.456492 51.666364 
L 521.056359 51.666364 
L 518.656225 51.666364 
L 516.256091 51.666364 
L 513.855957 51.666364 
L 511.455824 51.666364 
L 509.05569 51.666364 
L 506.655556 51.666364 
L 504.255422 51.666364 
L 501.855288 51.666364 
L 499.455155 51.666364 
L 497.055021 51.666364 
L 494.654887 51.666364 
L 492.254753 51.666364 
L 489.85462 51.666364 
L 487.454486 51.666364 
L 485.054352 51.666364 
L 482.654218 51.666364 
L 480.254084 51.666364 
L 477.853951 51.666364 
L 475.453817 51.666364 
L 473.053683 51.666364 
L 470.653549 51.666364 
L 468.253416 51.666364 
L 465.853282 51.666364 
L 463.453148 51.666364 
L 461.053014 51.666364 
L 458.65288 51.666364 
L 456.252747 51.666364 
L 453.852613 51.666364 
L 451.452479 51.666364 
L 449.052345 51.666364 
L 446.652212 51.666364 
L 444.252078 51.666364 
L 441.851944 51.666364 
L 439.45181 51.666364 
L 437.051676 51.666364 
L 434.651543 51.666364 
L 432.251409 51.666364 
L 429.851275 51.666364 
L 427.451141 51.666364 
L 425.051008 51.666364 
L 422.650874 51.666364 
L 420.25074 51.666364 
L 417.850606 51.666364 
L 415.450472 51.666364 
L 413.050339 51.666364 
L 410.650205 51.666364 
L 408.250071 51.666364 
L 405.849937 51.666364 
L 403.449804 51.666364 
L 401.04967 51.666364 
L 398.649536 51.666364 
L 396.249402 51.666364 
L 393.849268 51.666364 
L 391.449135 51.666364 
L 389.049001 51.666364 
L 386.648867 51.666364 
L 384.248733 51.666364 
L 381.848599 51.666364 
L 379.448466 51.666364 
L 377.048332 51.666364 
L 374.648198 51.666364 
L 372.248064 51.666364 
L 369.847931 51.666364 
L 367.447797 51.666364 
L 365.047663 51.666364 
L 362.647529 51.666364 
L 360.247395 51.666364 
L 357.847262 51.666364 
L 355.447128 51.666364 
L 353.046994 51.666364 
L 350.64686 51.666364 
L 348.246727 51.666364 
L 345.846593 51.666364 
L 343.446459 51.666364 
L 341.046325 51.666364 
L 338.646191 51.666364 
L 336.246058 51.666364 
L 333.845924 51.666364 
L 331.44579 51.666364 
L 329.045656 51.666364 
L 326.645523 51.666364 
L 324.245389 51.666364 
L 321.845255 51.666364 
L 319.445121 51.666364 
L 317.044987 51.666364 
L 314.644854 51.666364 
L 312.24472 51.666364 
L 309.844586 51.666364 
L 307.444452 51.666364 
L 305.044319 51.666364 
L 302.644185 51.666364 
L 300.244051 51.666364 
L 297.843917 51.666364 
L 295.443783 51.666364 
L 293.04365 51.666364 
L 290.643516 51.666364 
L 288.243382 51.666364 
L 285.843248 51.666364 
L 283.443115 51.666364 
L 281.042981 51.666364 
L 278.642847 51.666364 
L 276.242713 51.666364 
L 273.842579 51.666364 
L 271.442446 51.666364 
L 269.042312 51.666364 
L 266.642178 51.666364 
L 264.242044 51.666364 
L 261.841911 51.666364 
L 259.441777 51.666364 
L 257.041643 51.666364 
L 254.641509 51.666364 
L 252.241375 51.666364 
L 249.841242 51.666364 
L 247.441108 51.666364 
L 245.040974 51.666364 
L 242.64084 51.666364 
L 240.240707 51.666364 
L 237.840573 51.666364 
L 235.440439 51.666364 
L 233.040305 51.666364 
L 230.640171 51.666364 
L 228.240038 51.666364 
L 225.839904 51.666364 
L 223.43977 51.666364 
L 221.039636 51.666364 
L 218.639503 51.666364 
L 216.239369 51.666364 
L 213.839235 51.666364 
L 211.439101 51.666364 
L 209.038967 51.666364 
L 206.638834 51.666364 
L 204.2387 51.666364 
L 201.838566 51.666364 
L 199.438432 51.666364 
L 197.038298 51.666364 
L 194.638165 51.666364 
L 192.238031 51.666364 
L 189.837897 51.666364 
L 187.437763 51.666364 
L 185.03763 51.666364 
L 182.637496 51.666364 
L 180.237362 51.666364 
L 177.837228 51.666364 
L 175.437094 51.666364 
L 173.036961 51.666364 
L 170.636827 51.666364 
L 168.236693 51.666364 
L 165.836559 51.666364 
L 163.436426 51.666364 
L 161.036292 51.666364 
L 158.636158 51.666364 
L 156.236024 51.666364 
L 153.83589 51.666364 
L 151.435757 51.666364 
L 149.035623 51.666364 
L 146.635489 51.666364 
L 144.235355 51.666364 
L 141.835222 51.666364 
L 139.435088 51.666364 
L 137.034954 51.666364 
L 134.63482 51.666364 
L 132.234686 51.666364 
L 129.834553 51.666364 
L 127.434419 51.666364 
L 125.034285 51.666364 
L 122.634151 51.666364 
L 120.234018 51.666364 
L 117.833884 51.666364 
L 115.43375 51.666364 
z
" clip-path="url(#p696cb8a338)" style="fill: #c7eae5"/>
   </g>
   <g id="matplotlib.axis_1">
    <g id="xtick_1">
     <g id="line2d_1">
      <path d="M 115.43375 468.86 
L 115.43375 31.8 
" clip-path="url(#p696cb8a338)" style="fill: none; stroke: #ffffff; stroke-opacity: 0.3; stroke-width: 0.75; stroke-linecap: square"/>
     </g>
     <g id="line2d_2">
      <defs>
       <path id="m9f32c5bdfb" d="M 0 0 
L 0 3.5 
" style="stroke: #000000; stroke-width: 0.8"/>
      </defs>
      <g>
       <use xlink:href="#m9f32c5bdfb" x="115.43375" y="468.86" style="stroke: #000000; stroke-width: 0.8"/>
      </g>
     </g>
     <g id="text_1">
      <text style="font-weight: 600; font-size: 24px; font-family: 'DejaVu Sans', 'Bitstream Vera Sans', 'Computer Modern Sans Serif', 'Lucida Grande', 'Verdana', 'Geneva', 'Lucid', 'Arial', 'Helvetica', 'Avant Garde', sans-serif; fill: #767676" transform="translate(122.05625 586.0125) rotate(-90)">2023-01</text>
     </g>
    </g>
    <g id="xtick_2">
     <g id="line2d_3">
      <path d="M 180.67375 468.86 
L 180.67375 31.8 
" clip-path="url(#p696cb8a338)" style="fill: none; stroke: #ffffff; stroke-opacity: 0.3; stroke-width: 0.75; stroke-linecap: square"/>
     </g>
     <g id="line2d_4">
      <g>
       <use xlink:href="#m9f32c5bdfb" x="180.67375" y="468.86" style="stroke: #000000; stroke-width: 0.8"/>
      </g>
     </g>
     <g id="text_2">
      <text style="font-weight: 600; font-size: 24px; font-family: 'DejaVu Sans', 'Bitstream Vera Sans', 'Computer Modern Sans Serif', 'Lucida Grande', 'Verdana', 'Geneva', 'Lucid', 'Arial', 'Helvetica', 'Avant Garde', sans-serif; fill: #767676" transform="translate(187.29625 586.0125) rotate(-90)">2023-02</text>
     </g>
    </g>
    <g id="xtick_3">
     <g id="line2d_5">
      <path d="M 245.91375 468.86 
L 245.91375 31.8 
" clip-path="url(#p696cb8a338)" style="fill: none; stroke: #ffffff; stroke-opacity: 0.3; stroke-width: 0.75; stroke-linecap: square"/>
     </g>
     <g id="line2d_6">
      <g>
       <use xlink:href="#m9f32c5bdfb" x="245.91375" y="468.86" style="stroke: #000000; stroke-width: 0.8"/>
      </g>
     </g>
     <g id="text_3">
      <text style="font-weight: 600; font-size: 24px; font-family: 'DejaVu Sans', 'Bitstream Vera Sans', 'Computer Modern Sans Serif', 'Lucida Grande', 'Verdana', 'Geneva', 'Lucid', 'Arial', 'Helvetica', 'Avant Garde', sans-serif; fill: #767676" transform="translate(252.53625 586.0125) rotate(-90)">2023-03</text>
     </g>
    </g>
    <g id="xtick_4">
     <g id="line2d_7">
      <path d="M 311.15375 468.86 
L 311.15375 31.8 
" clip-path="url(#p696cb8a338)" style="fill: none; stroke: #ffffff; stroke-opacity: 0.3; stroke-width: 0.75; stroke-linecap: square"/>
     </g>
     <g id="line2d_8">
      <g>
       <use xlink:href="#m9f32c5bdfb" x="311.15375" y="468.86" style="stroke: #000000; stroke-width: 0.8"/>
      </g>
     </g>
     <g id="text_4">
      <text style="font-weight: 600; font-size: 24px; font-family: 'DejaVu Sans', 'Bitstream Vera Sans', 'Computer Modern Sans Serif', 'Lucida Grande', 'Verdana', 'Geneva', 'Lucid', 'Arial', 'Helvetica', 'Avant Garde', sans-serif; fill: #767676" transform="translate(317.77625 586.0125) rotate(-90)">2023-04</text>
     </g>
    </g>
    <g id="xtick_5">
     <g id="line2d_9">
      <path d="M 376.39375 468.86 
L 376.39375 31.8 
" clip-path="url(#p696cb8a338)" style="fill: none; stroke: #ffffff; stroke-opacity: 0.3; stroke-width: 0.75; stroke-linecap: square"/>
     </g>
     <g id="line2d_10">
      <g>
       <use xlink:href="#m9f32c5bdfb" x="376.39375" y="468.86" style="stroke: #000000; stroke-width: 0.8"/>
      </g>
     </g>
     <g id="text_5">
      <text style="font-weight: 600; font-size: 24px; font-family: 'DejaVu Sans', 'Bitstream Vera Sans', 'Computer Modern Sans Serif', 'Lucida Grande', 'Verdana', 'Geneva', 'Lucid', 'Arial', 'Helvetica', 'Avant Garde', sans-serif; fill: #767676" transform="translate(383.01625 586.0125) rotate(-90)">2023-05</text>
     </g>
    </g>
    <g id="xtick_6">
     <g id="line2d_11">
      <path d="M 441.63375 468.86 
L 441.63375 31.8 
" clip-path="url(#p696cb8a338)" style="fill: none; stroke: #ffffff; stroke-opacity: 0.3; stroke-width: 0.75; stroke-linecap: square"/>
     </g>
     <g id="line2d_12">
      <g>
       <use xlink:href="#m9f32c5bdfb" x="441.63375" y="468.86" style="stroke: #000000; stroke-width: 0.8"/>
      </g>
     </g>
     <g id="text_6">
      <text style="font-weight: 600; font-size: 24px; font-family: 'DejaVu Sans', 'Bitstream Vera Sans', 'Computer Modern Sans Serif', 'Lucida Grande', 'Verdana', 'Geneva', 'Lucid', 'Arial', 'Helvetica', 'Avant Garde', sans-serif; fill: #767676" transform="translate(448.25625 586.0125) rotate(-90)">2023-06</text>
     </g>
    </g>
    <g id="xtick_7">
     <g id="line2d_13">
      <path d="M 506.87375 468.86 
L 506.87375 31.8 
" clip-path="url(#p696cb8a338)" style="fill: none; stroke: #ffffff; stroke-opacity: 0.3; stroke-width: 0.75; stroke-linecap: square"/>
     </g>
     <g id="line2d_14">
      <g>
       <use xlink:href="#m9f32c5bdfb" x="506.87375" y="468.86" style="stroke: #000000; stroke-width: 0.8"/>
      </g>
     </g>
     <g id="text_7">
      <text style="font-weight: 600; font-size: 24px; font-family: 'DejaVu Sans', 'Bitstream Vera Sans', 'Computer Modern Sans Serif', 'Lucida Grande', 'Verdana', 'Geneva', 'Lucid', 'Arial', 'Helvetica', 'Avant Garde', sans-serif; fill: #767676" transform="translate(513.49625 586.0125) rotate(-90)">2023-07</text>
     </g>
    </g>
    <g id="xtick_8">
     <g id="line2d_15">
      <path d="M 572.11375 468.86 
L 572.11375 31.8 
" clip-path="url(#p696cb8a338)" style="fill: none; stroke: #ffffff; stroke-opacity: 0.3; stroke-width: 0.75; stroke-linecap: square"/>
     </g>
     <g id="line2d_16">
      <g>
       <use xlink:href="#m9f32c5bdfb" x="572.11375" y="468.86" style="stroke: #000000; stroke-width: 0.8"/>
      </g>
     </g>
     <g id="text_8">
      <text style="font-weight: 600; font-size: 24px; font-family: 'DejaVu Sans', 'Bitstream Vera Sans', 'Computer Modern Sans Serif', 'Lucida Grande', 'Verdana', 'Geneva', 'Lucid', 'Arial', 'Helvetica', 'Avant Garde', sans-serif; fill: #767676" transform="translate(578.73625 586.0125) rotate(-90)">2023-08</text>
     </g>
    </g>
    <g id="xtick_9">
     <g id="line2d_17">
      <path d="M 637.35375 468.86 
L 637.35375 31.8 
" clip-path="url(#p696cb8a338)" style="fill: none; stroke: #ffffff; stroke-opacity: 0.3; stroke-width: 0.75; stroke-linecap: square"/>
     </g>
     <g id="line2d_18">
      <g>
       <use xlink:href="#m9f32c5bdfb" x="637.35375" y="468.86" style="stroke: #000000; stroke-width: 0.8"/>
      </g>
     </g>
     <g id="text_9">
      <text style="font-weight: 600; font-size: 24px; font-family: 'DejaVu Sans', 'Bitstream Vera Sans', 'Computer Modern Sans Serif', 'Lucida Grande', 'Verdana', 'Geneva', 'Lucid', 'Arial', 'Helvetica', 'Avant Garde', sans-serif; fill: #767676" transform="translate(643.97625 586.0125) rotate(-90)">2023-09</text>
     </g>
    </g>
    <g id="xtick_10">
     <g id="line2d_19">
      <path d="M 702.59375 468.86 
L 702.59375 31.8 
" clip-path="url(#p696cb8a338)" style="fill: none; stroke: #ffffff; stroke-opacity: 0.3; stroke-width: 0.75; stroke-linecap: square"/>
     </g>
     <g id="line2d_20">
      <g>
       <use xlink:href="#m9f32c5bdfb" x="702.59375" y="468.86" style="stroke: #000000; stroke-width: 0.8"/>
      </g>
     </g>
     <g id="text_10">
      <text style="font-weight: 600; font-size: 24px; font-family: 'DejaVu Sans', 'Bitstream Vera Sans', 'Computer Modern Sans Serif', 'Lucida Grande', 'Verdana', 'Geneva', 'Lucid', 'Arial', 'Helvetica', 'Avant Garde', sans-serif; fill: #767676" transform="translate(709.21625 586.0125) rotate(-90)">2023-10</text>
     </g>
    </g>
    <g id="xtick_11">
     <g id="line2d_21">
      <path d="M 767.83375 468.86 
L 767.83375 31.8 
" clip-path="url(#p696cb8a338)" style="fill: none; stroke: #ffffff; stroke-opacity: 0.3; stroke-width: 0.75; stroke-linecap: square"/>
     </g>
     <g id="line2d_22">
      <g>
       <use xlink:href="#m9f32c5bdfb" x="767.83375" y="468.86" style="stroke: #000000; stroke-width: 0.8"/>
      </g>
     </g>
     <g id="text_11">
      <text style="font-weight: 600; font-size: 24px; font-family: 'DejaVu Sans', 'Bitstream Vera Sans', 'Computer Modern Sans Serif', 'Lucida Grande', 'Verdana', 'Geneva', 'Lucid', 'Arial', 'Helvetica', 'Avant Garde', sans-serif; fill: #767676" transform="translate(774.45625 586.0125) rotate(-90)">2023-11</text>
     </g>
    </g>
    <g id="xtick_12">
     <g id="line2d_23">
      <path d="M 833.07375 468.86 
L 833.07375 31.8 
" clip-path="url(#p696cb8a338)" style="fill: none; stroke: #ffffff; stroke-opacity: 0.3; stroke-width: 0.75; stroke-linecap: square"/>
     </g>
     <g id="line2d_24">
      <g>
       <use xlink:href="#m9f32c5bdfb" x="833.07375" y="468.86" style="stroke: #000000; stroke-width: 0.8"/>
      </g>
     </g>
     <g id="text_12">
      <text style="font-weight: 600; font-size: 24px; font-family: 'DejaVu Sans', 'Bitstream Vera Sans', 'Computer Modern Sans Serif', 'Lucida Grande', 'Verdana', 'Geneva', 'Lucid', 'Arial', 'Helvetica', 'Avant Garde', sans-serif; fill: #767676" transform="translate(839.69625 586.0125) rotate(-90)">2023-12</text>
     </g>
    </g>
   </g>
   <g id="matplotlib.axis_2">
    <g id="ytick_1">
     <g id="line2d_25">
      <path d="M 82.81375 431.019042 
L 865.69375 431.019042 
" clip-path="url(#p696cb8a338)" style="fill: none; stroke: #ffffff; stroke-opacity: 0.8; stroke-width: 1.25; stroke-linecap: square"/>
     </g>
     <g id="line2d_26">
      <defs>
       <path id="mb3af59b399" d="M 0 0 
L -3.5 0 
" style="stroke: #000000; stroke-width: 0.8"/>
      </defs>
      <g>
       <use xlink:href="#mb3af59b399" x="82.81375" y="431.019042" style="stroke: #000000; stroke-width: 0.8"/>
      </g>
     </g>
     <g id="text_13">
      <text style="font-weight: 500; font-size: 24px; font-family: 'DejaVu Sans', 'Bitstream Vera Sans', 'Computer Modern Sans Serif', 'Lucida Grande', 'Verdana', 'Geneva', 'Lucid', 'Arial', 'Helvetica', 'Avant Garde', sans-serif; text-anchor: end; fill: #767676" x="75.81375" y="440.137167" transform="rotate(-0 75.81375 440.137167)">0%</text>
     </g>
    </g>
    <g id="ytick_2">
     <g id="line2d_27">
      <path d="M 82.81375 336.180873 
L 865.69375 336.180873 
" clip-path="url(#p696cb8a338)" style="fill: none; stroke: #ffffff; stroke-opacity: 0.8; stroke-width: 1.25; stroke-linecap: square"/>
     </g>
     <g id="line2d_28">
      <g>
       <use xlink:href="#mb3af59b399" x="82.81375" y="336.180873" style="stroke: #000000; stroke-width: 0.8"/>
      </g>
     </g>
     <g id="text_14">
      <text style="font-weight: 500; font-size: 24px; font-family: 'DejaVu Sans', 'Bitstream Vera Sans', 'Computer Modern Sans Serif', 'Lucida Grande', 'Verdana', 'Geneva', 'Lucid', 'Arial', 'Helvetica', 'Avant Garde', sans-serif; text-anchor: end; fill: #767676" x="75.81375" y="345.298998" transform="rotate(-0 75.81375 345.298998)">25%</text>
     </g>
    </g>
    <g id="ytick_3">
     <g id="line2d_29">
      <path d="M 82.81375 241.342703 
L 865.69375 241.342703 
" clip-path="url(#p696cb8a338)" style="fill: none; stroke: #ffffff; stroke-opacity: 0.8; stroke-width: 1.25; stroke-linecap: square"/>
     </g>
     <g id="line2d_30">
      <g>
       <use xlink:href="#mb3af59b399" x="82.81375" y="241.342703" style="stroke: #000000; stroke-width: 0.8"/>
      </g>
     </g>
     <g id="text_15">
      <text style="font-weight: 500; font-size: 24px; font-family: 'DejaVu Sans', 'Bitstream Vera Sans', 'Computer Modern Sans Serif', 'Lucida Grande', 'Verdana', 'Geneva', 'Lucid', 'Arial', 'Helvetica', 'Avant Garde', sans-serif; text-anchor: end; fill: #767676" x="75.81375" y="250.460828" transform="rotate(-0 75.81375 250.460828)">50%</text>
     </g>
    </g>
    <g id="ytick_4">
     <g id="line2d_31">
      <path d="M 82.81375 146.504533 
L 865.69375 146.504533 
" clip-path="url(#p696cb8a338)" style="fill: none; stroke: #ffffff; stroke-opacity: 0.8; stroke-width: 1.25; stroke-linecap: square"/>
     </g>
     <g id="line2d_32">
      <g>
       <use xlink:href="#mb3af59b399" x="82.81375" y="146.504533" style="stroke: #000000; stroke-width: 0.8"/>
      </g>
     </g>
     <g id="text_16">
      <text style="font-weight: 500; font-size: 24px; font-family: 'DejaVu Sans', 'Bitstream Vera Sans', 'Computer Modern Sans Serif', 'Lucida Grande', 'Verdana', 'Geneva', 'Lucid', 'Arial', 'Helvetica', 'Avant Garde', sans-serif; text-anchor: end; fill: #767676" x="75.81375" y="155.622658" transform="rotate(-0 75.81375 155.622658)">75%</text>
     </g>
    </g>
    <g id="ytick_5">
     <g id="line2d_33">
      <path d="M 82.81375 51.666364 
L 865.69375 51.666364 
" clip-path="url(#p696cb8a338)" style="fill: none; stroke: #ffffff; stroke-opacity: 0.8; stroke-width: 1.25; stroke-linecap: square"/>
     </g>
     <g id="line2d_34">
      <g>
       <use xlink:href="#mb3af59b399" x="82.81375" y="51.666364" style="stroke: #000000; stroke-width: 0.8"/>
      </g>
     </g>
     <g id="text_17">
      <text style="font-weight: 500; font-size: 24px; font-family: 'DejaVu Sans', 'Bitstream Vera Sans', 'Computer Modern Sans Serif', 'Lucida Grande', 'Verdana', 'Geneva', 'Lucid', 'Arial', 'Helvetica', 'Avant Garde', sans-serif; text-anchor: end; fill: #767676" x="75.81375" y="60.784489" transform="rotate(-0 75.81375 60.784489)">100%</text>
     </g>
    </g>
   </g>
   <g id="patch_3">
    <path d="M 82.81375 468.86 
L 865.69375 468.86 
" style="fill: none; stroke: #000000; stroke-width: 2; stroke-linejoin: miter; stroke-linecap: square"/>
   </g>
   <g id="text_18">
    <g id="patch_4">
     <path d="M 166.408125 395.794266 
L 194.939375 395.794266 
Q 214.939375 395.794266 214.939375 375.794266 
L 214.939375 372.438016 
Q 214.939375 352.438016 194.939375 352.438016 
L 166.408125 352.438016 
Q 146.408125 352.438016 146.408125 372.438016 
L 146.408125 375.794266 
Q 146.408125 395.794266 166.408125 395.794266 
z
" style="fill: #ffffff; stroke: #d9d9d9; stroke-width: 1.8; stroke-linejoin: miter"/>
    </g>
    <text style="font-size: 20px; font-family: 'DejaVu Sans', 'Bitstream Vera Sans', 'Computer Modern Sans Serif', 'Lucida Grande', 'Verdana', 'Geneva', 'Lucid', 'Arial', 'Helvetica', 'Avant Garde', sans-serif; text-anchor: middle; fill: #10302c" x="180.67375" y="379.634891" transform="rotate(-0 180.67375 379.634891)">4.54</text>
   </g>
   <g id="text_19">
    <g id="patch_5">
     <path d="M 459.988125 281.988462 
L 488.519375 281.988462 
Q 508.519375 281.988462 508.519375 261.988462 
L 508.519375 258.632212 
Q 508.519375 238.632212 488.519375 238.632212 
L 459.988125 238.632212 
Q 439.988125 238.632212 439.988125 258.632212 
L 439.988125 261.988462 
Q 439.988125 281.988462 459.988125 281.988462 
z
" style="fill: #ffffff; stroke: #d9d9d9; stroke-width: 1.8; stroke-linejoin: miter"/>
    </g>
    <text style="font-size: 20px; font-family: 'DejaVu Sans', 'Bitstream Vera Sans', 'Computer Modern Sans Serif', 'Lucida Grande', 'Verdana', 'Geneva', 'Lucid', 'Arial', 'Helvetica', 'Avant Garde', sans-serif; text-anchor: middle; fill: #10302c" x="474.25375" y="265.829087" transform="rotate(-0 474.25375 265.829087)">3.33</text>
   </g>
   <g id="text_20">
    <g id="patch_6">
     <path d="M 753.568125 130.24739 
L 782.099375 130.24739 
Q 802.099375 130.24739 802.099375 110.24739 
L 802.099375 106.89114 
Q 802.099375 86.89114 782.099375 86.89114 
L 753.568125 86.89114 
Q 733.568125 86.89114 733.568125 106.89114 
L 733.568125 110.24739 
Q 733.568125 130.24739 753.568125 130.24739 
z
" style="fill: #ffffff; stroke: #d9d9d9; stroke-width: 1.8; stroke-linejoin: miter"/>
    </g>
    <text style="font-size: 20px; font-family: 'DejaVu Sans', 'Bitstream Vera Sans', 'Computer Modern Sans Serif', 'Lucida Grande', 'Verdana', 'Geneva', 'Lucid', 'Arial', 'Helvetica', 'Avant Garde', sans-serif; text-anchor: middle; fill: #10302c" x="767.83375" y="114.088015" transform="rotate(-0 767.83375 114.088015)">4.13</text>
   </g>
  </g>
  <g id="axes_2">
   <g id="patch_7">
    <path d="M 876.49375 468.86 
L 1137.45375 468.86 
L 1137.45375 31.8 
L 876.49375 31.8 
z
" style="fill: #ffffff"/>
   </g>
   <g id="patch_8">
    <path d="M 941.73375 468.86 
L 1072.21375 468.86 
L 1072.21375 292.720194 
L 941.73375 292.720194 
z
" clip-path="url(#p087f4905f0)" style="fill: #215f53; stroke: #ffffff; stroke-width: 0.5; stroke-linejoin: miter"/>
   </g>
   <g id="patch_9">
    <path d="M 941.73375 292.720194 
L 1072.21375 292.720194 
L 1072.21375 141.588993 
L 941.73375 141.588993 
z
" clip-path="url(#p087f4905f0)" style="fill: #7570b3; stroke: #ffffff; stroke-width: 0.5; stroke-linejoin: miter"/>
   </g>
   <g id="patch_10">
    <path d="M 941.73375 141.588993 
L 1072.21375 141.588993 
L 1072.21375 31.8 
L 941.73375 31.8 
z
" clip-path="url(#p087f4905f0)" style="fill: #c7eae5; stroke: #ffffff; stroke-width: 0.5; stroke-linejoin: miter"/>
   </g>
   <g id="matplotlib.axis_3"/>
   <g id="matplotlib.axis_4"/>
   <g id="text_21">
    <text style="font-weight: 500; font-size: 20px; font-family: 'DejaVu Sans', 'Bitstream Vera Sans', 'Computer Modern Sans Serif', 'Lucida Grande', 'Verdana', 'Geneva', 'Lucid', 'Arial', 'Helvetica', 'Avant Garde', sans-serif; text-anchor: middle; fill: #ffffff" x="1006.97375" y="386.308847" transform="rotate(-0 1006.97375 386.308847)">40.3%</text>
   </g>
   <g id="text_22">
    <text style="font-weight: 500; font-size: 20px; font-family: 'DejaVu Sans', 'Bitstream Vera Sans', 'Computer Modern Sans Serif', 'Lucida Grande', 'Verdana', 'Geneva', 'Lucid', 'Arial', 'Helvetica', 'Avant Garde', sans-serif; text-anchor: middle; fill: #ffffff" x="1006.97375" y="222.673344" transform="rotate(-0 1006.97375 222.673344)">34.6%</text>
   </g>
   <g id="text_23">
    <text style="font-weight: 500; font-size: 20px; font-family: 'DejaVu Sans', 'Bitstream Vera Sans', 'Computer Modern Sans Serif', 'Lucida Grande', 'Verdana', 'Geneva', 'Lucid', 'Arial', 'Helvetica', 'Avant Garde', sans-serif; text-anchor: middle; fill: #ffffff" x="1006.97375" y="92.213247" transform="rotate(-0 1006.97375 92.213247)">25.1%</text>
   </g>
  </g>
  <g id="legend_1">
   <g id="patch_11">
    <path d="M 209.535 40.673437 
L 269.535 40.673437 
L 269.535 19.673437 
L 209.535 19.673437 
z
" style="fill: #215f53"/>
   </g>
   <g id="text_24">
    <text style="font-weight: 500; font-size: 30px; font-family: 'Arial'; text-anchor: start" x="293.535" y="40.673437" transform="rotate(-0 293.535 40.673437)">Comisiones</text>
   </g>
   <g id="patch_12">
    <path d="M 510.252187 40.673437 
L 570.252187 40.673437 
L 570.252187 19.673437 
L 510.252187 19.673437 
z
" style="fill: #7570b3"/>
   </g>
   <g id="text_25">
    <text style="font-weight: 500; font-size: 30px; font-family: 'Arial'; text-anchor: start" x="594.252187" y="40.673437" transform="rotate(-0 594.252187 40.673437)">Fiscalas</text>
   </g>
   <g id="patch_13">
    <path d="M 772.606875 40.673437 
L 832.606875 40.673437 
L 832.606875 19.673437 
L 772.606875 19.673437 
z
" style="fill: #c7eae5"/>
   </g>
   <g id="text_26">
    <text style="font-weight: 500; font-size: 30px; font-family: 'Arial'; text-anchor: start" x="856.606875" y="40.673437" transform="rotate(-0 856.606875 40.673437)">Portal</text>
   </g>
  </g>
 </g>
 <defs>
  <clipPath id="p696cb8a338">
   <rect x="82.81375" y="31.8" width="782.88" height="437.06"/>
  </clipPath>
  <clipPath id="p087f4905f0">
   <rect x="876.49375" y="31.8" width="260.96" height="437.06"/>
  </clipPath>
 </defs>
</svg>
