<?xml version="1.0" encoding="utf-8" standalone="no"?>
<!DOCTYPE svg PUBLIC "-//W3C//DTD SVG 1.1//EN"
  "http://www.w3.org/Graphics/SVG/1.1/DTD/svg11.dtd">
<svg xmlns:xlink="http://www.w3.org/1999/xlink" width="1144.3875pt" height="650.24625pt" viewBox="0 0 1144.3875 650.24625" xmlns="http://www.w3.org/2000/svg" version="1.1">
 <metadata>
  <rdf:RDF xmlns:dc="http://purl.org/dc/elements/1.1/" xmlns:cc="http://creativecommons.org/ns#" xmlns:rdf="http://www.w3.org/1999/02/22-rdf-syntax-ns#">
   <cc:Work>
    <dc:type rdf:resource="http://purl.org/dc/dcmitype/StillImage"/>
    <dc:date>2025-06-03T13:29:27.189903</dc:date>
    <dc:format>image/svg+xml</dc:format>
    <dc:creator>
     <cc:Agent>
      <dc:title>Matplotlib v3.10.1, https://matplotlib.org/</dc:title>
     </cc:Agent>
    </dc:creator>
   </cc:Work>
  </rdf:RDF>
 </metadata>
 <defs>
  <style type="text/css">*{stroke-linejoin: round; stroke-linecap: butt}</style>
 </defs>
 <g id="figure_1">
  <g id="patch_1">
   <path d="M 0 650.24625 
L 1144.3875 650.24625 
L 1144.3875 0 
L 0 0 
z
" style="fill: #ffffff"/>
  </g>
  <g id="axes_1">
   <g id="patch_2">
    <path d="M 102.2975 463.3 
L 870.365 463.3 
L 870.365 89.4 
L 102.2975 89.4 
z
" style="fill: #ffffff"/>
   </g>
   <g id="FillBetweenPolyCollection_1">
    <path d="M 134.300312 273.993392 
L 134.300312 463.3 
L 136.655034 463.3 
L 139.009756 463.3 
L 141.364478 463.3 
L 143.7192 463.3 
L 146.073922 463.3 
L 148.428644 463.3 
L 150.783366 463.3 
L 153.138088 463.3 
L 155.49281 463.3 
L 157.847532 463.3 
L 160.202254 463.3 
L 162.556976 463.3 
L 164.911698 463.3 
L 167.26642 463.3 
L 169.621142 463.3 
L 171.975864 463.3 
L 174.330586 463.3 
L 176.685308 463.3 
L 179.04003 463.3 
L 181.394752 463.3 
L 183.749474 463.3 
L 186.104196 463.3 
L 188.458918 463.3 
L 190.81364 463.3 
L 193.168362 463.3 
L 195.523084 463.3 
L 197.877806 463.3 
L 200.232528 463.3 
L 202.58725 463.3 
L 204.941972 463.3 
L 207.296694 463.3 
L 209.651416 463.3 
L 212.006138 463.3 
L 214.36086 463.3 
L 216.715582 463.3 
L 219.070304 463.3 
L 221.425026 463.3 
L 223.779748 463.3 
L 226.13447 463.3 
L 228.489192 463.3 
L 230.843914 463.3 
L 233.198636 463.3 
L 235.553358 463.3 
L 237.90808 463.3 
L 240.262802 463.3 
L 242.617524 463.3 
L 244.972246 463.3 
L 247.326968 463.3 
L 249.68169 463.3 
L 252.036412 463.3 
L 254.391134 463.3 
L 256.745856 463.3 
L 259.100578 463.3 
L 261.4553 463.3 
L 263.810022 463.3 
L 266.164744 463.3 
L 268.519466 463.3 
L 270.874188 463.3 
L 273.22891 463.3 
L 275.583632 463.3 
L 277.938354 463.3 
L 280.293076 463.3 
L 282.647798 463.3 
L 285.00252 463.3 
L 287.357242 463.3 
L 289.711964 463.3 
L 292.066686 463.3 
L 294.421408 463.3 
L 296.77613 463.3 
L 299.130852 463.3 
L 301.485574 463.3 
L 303.840296 463.3 
L 306.195018 463.3 
L 308.54974 463.3 
L 310.904462 463.3 
L 313.259184 463.3 
L 315.613906 463.3 
L 317.968628 463.3 
L 320.32335 463.3 
L 322.678072 463.3 
L 325.032794 463.3 
L 327.387516 463.3 
L 329.742238 463.3 
L 332.09696 463.3 
L 334.451682 463.3 
L 336.806404 463.3 
L 339.161126 463.3 
L 341.515848 463.3 
L 343.87057 463.3 
L 346.225292 463.3 
L 348.580014 463.3 
L 350.934736 463.3 
L 353.289458 463.3 
L 355.64418 463.3 
L 357.998902 463.3 
L 360.353624 463.3 
L 362.708346 463.3 
L 365.063068 463.3 
L 367.41779 463.3 
L 369.772511 463.3 
L 372.127233 463.3 
L 374.481955 463.3 
L 376.836677 463.3 
L 379.191399 463.3 
L 381.546121 463.3 
L 383.900843 463.3 
L 386.255565 463.3 
L 388.610287 463.3 
L 390.965009 463.3 
L 393.319731 463.3 
L 395.674453 463.3 
L 398.029175 463.3 
L 400.383897 463.3 
L 402.738619 463.3 
L 405.093341 463.3 
L 407.448063 463.3 
L 409.802785 463.3 
L 412.157507 463.3 
L 414.512229 463.3 
L 416.866951 463.3 
L 419.221673 463.3 
L 421.576395 463.3 
L 423.931117 463.3 
L 426.285839 463.3 
L 428.640561 463.3 
L 430.995283 463.3 
L 433.350005 463.3 
L 435.704727 463.3 
L 438.059449 463.3 
L 440.414171 463.3 
L 442.768893 463.3 
L 445.123615 463.3 
L 447.478337 463.3 
L 449.833059 463.3 
L 452.187781 463.3 
L 454.542503 463.3 
L 456.897225 463.3 
L 459.251947 463.3 
L 461.606669 463.3 
L 463.961391 463.3 
L 466.316113 463.3 
L 468.670835 463.3 
L 471.025557 463.3 
L 473.380279 463.3 
L 475.735001 463.3 
L 478.089723 463.3 
L 480.444445 463.3 
L 482.799167 463.3 
L 485.153889 463.3 
L 487.508611 463.3 
L 489.863333 463.3 
L 492.218055 463.3 
L 494.572777 463.3 
L 496.927499 463.3 
L 499.282221 463.3 
L 501.636943 463.3 
L 503.991665 463.3 
L 506.346387 463.3 
L 508.701109 463.3 
L 511.055831 463.3 
L 513.410553 463.3 
L 515.765275 463.3 
L 518.119997 463.3 
L 520.474719 463.3 
L 522.829441 463.3 
L 525.184163 463.3 
L 527.538885 463.3 
L 529.893607 463.3 
L 532.248329 463.3 
L 534.603051 463.3 
L 536.957773 463.3 
L 539.312495 463.3 
L 541.667217 463.3 
L 544.021939 463.3 
L 546.376661 463.3 
L 548.731383 463.3 
L 551.086105 463.3 
L 553.440827 463.3 
L 555.795549 463.3 
L 558.150271 463.3 
L 560.504993 463.3 
L 562.859715 463.3 
L 565.214437 463.3 
L 567.569159 463.3 
L 569.923881 463.3 
L 572.278603 463.3 
L 574.633325 463.3 
L 576.988047 463.3 
L 579.342769 463.3 
L 581.697491 463.3 
L 584.052213 463.3 
L 586.406935 463.3 
L 588.761657 463.3 
L 591.116379 463.3 
L 593.471101 463.3 
L 595.825823 463.3 
L 598.180545 463.3 
L 600.535267 463.3 
L 602.889989 463.3 
L 605.24471 463.3 
L 607.599432 463.3 
L 609.954154 463.3 
L 612.308876 463.3 
L 614.663598 463.3 
L 617.01832 463.3 
L 619.373042 463.3 
L 621.727764 463.3 
L 624.082486 463.3 
L 626.437208 463.3 
L 628.79193 463.3 
L 631.146652 463.3 
L 633.501374 463.3 
L 635.856096 463.3 
L 638.210818 463.3 
L 640.56554 463.3 
L 642.920262 463.3 
L 645.274984 463.3 
L 647.629706 463.3 
L 649.984428 463.3 
L 652.33915 463.3 
L 654.693872 463.3 
L 657.048594 463.3 
L 659.403316 463.3 
L 661.758038 463.3 
L 664.11276 463.3 
L 666.467482 463.3 
L 668.822204 463.3 
L 671.176926 463.3 
L 673.531648 463.3 
L 675.88637 463.3 
L 678.241092 463.3 
L 680.595814 463.3 
L 682.950536 463.3 
L 685.305258 463.3 
L 687.65998 463.3 
L 690.014702 463.3 
L 692.369424 463.3 
L 694.724146 463.3 
L 697.078868 463.3 
L 699.43359 463.3 
L 701.788312 463.3 
L 704.143034 463.3 
L 706.497756 463.3 
L 708.852478 463.3 
L 711.2072 463.3 
L 713.561922 463.3 
L 715.916644 463.3 
L 718.271366 463.3 
L 720.626088 463.3 
L 722.98081 463.3 
L 725.335532 463.3 
L 727.690254 463.3 
L 730.044976 463.3 
L 732.399698 463.3 
L 734.75442 463.3 
L 737.109142 463.3 
L 739.463864 463.3 
L 741.818586 463.3 
L 744.173308 463.3 
L 746.52803 463.3 
L 748.882752 463.3 
L 751.237474 463.3 
L 753.592196 463.3 
L 755.946918 463.3 
L 758.30164 463.3 
L 760.656362 463.3 
L 763.011084 463.3 
L 765.365806 463.3 
L 767.720528 463.3 
L 770.07525 463.3 
L 772.429972 463.3 
L 774.784694 463.3 
L 777.139416 463.3 
L 779.494138 463.3 
L 781.84886 463.3 
L 784.203582 463.3 
L 786.558304 463.3 
L 788.913026 463.3 
L 791.267748 463.3 
L 793.62247 463.3 
L 795.977192 463.3 
L 798.331914 463.3 
L 800.686636 463.3 
L 803.041358 463.3 
L 805.39608 463.3 
L 807.750802 463.3 
L 810.105524 463.3 
L 812.460246 463.3 
L 814.814968 463.3 
L 817.16969 463.3 
L 819.524412 463.3 
L 821.879134 463.3 
L 824.233856 463.3 
L 826.588578 463.3 
L 828.9433 463.3 
L 831.298022 463.3 
L 833.652744 463.3 
L 836.007466 463.3 
L 838.362187 463.3 
L 838.362187 305.86074 
L 838.362187 305.86074 
L 836.007466 298.856141 
L 833.652744 292.423486 
L 831.298022 286.545095 
L 828.9433 281.203284 
L 826.588578 276.380372 
L 824.233856 272.058676 
L 821.879134 268.220514 
L 819.524412 264.848204 
L 817.16969 261.924065 
L 814.814968 259.430412 
L 812.460246 257.349565 
L 810.105524 255.663842 
L 807.750802 254.355559 
L 805.39608 255.040915 
L 803.041358 256.490844 
L 800.686636 257.804962 
L 798.331914 258.996565 
L 795.977192 260.076691 
L 793.62247 261.054501 
L 791.267748 261.937584 
L 788.913026 262.732194 
L 786.558304 263.443442 
L 784.203582 264.07545 
L 781.84886 264.631471 
L 779.494138 265.113996 
L 777.139416 265.524831 
L 774.784694 265.865172 
L 772.429972 268.000362 
L 770.07525 270.326359 
L 767.720528 272.7292 
L 765.365806 275.191203 
L 763.011084 277.694685 
L 760.656362 280.221965 
L 758.30164 282.75536 
L 755.946918 285.277188 
L 753.592196 287.769766 
L 751.237474 290.215413 
L 748.882752 292.596447 
L 746.52803 294.895185 
L 744.173308 297.093945 
L 741.818586 299.175045 
L 739.463864 301.120802 
L 737.109142 302.913535 
L 734.75442 304.535561 
L 732.399698 305.969199 
L 730.044976 307.196765 
L 727.690254 308.200578 
L 725.335532 308.962956 
L 722.98081 309.466216 
L 720.626088 309.692676 
L 718.271366 309.624654 
L 715.916644 309.244468 
L 713.561922 308.534436 
L 711.2072 307.476875 
L 708.852478 306.056042 
L 706.497756 304.281402 
L 704.143034 302.18005 
L 701.788312 299.77944 
L 699.43359 297.10703 
L 697.078868 294.190274 
L 694.724146 291.056629 
L 692.369424 287.733551 
L 690.014702 284.248496 
L 687.65998 280.628919 
L 685.305258 276.902276 
L 682.950536 273.096024 
L 680.595814 269.237618 
L 678.241092 265.354514 
L 675.88637 261.474168 
L 673.531648 257.624036 
L 671.176926 253.831574 
L 668.822204 250.124237 
L 666.467482 246.529482 
L 664.11276 243.074765 
L 661.758038 239.787541 
L 659.403316 236.695266 
L 657.048594 233.825396 
L 654.693872 231.205388 
L 652.33915 228.862696 
L 649.984428 226.824778 
L 647.629706 225.119088 
L 645.274984 223.772298 
L 642.920262 222.788504 
L 640.56554 222.146382 
L 638.210818 221.823253 
L 635.856096 221.796437 
L 633.501374 222.043255 
L 631.146652 222.541027 
L 628.79193 223.267073 
L 626.437208 224.198715 
L 624.082486 225.313273 
L 621.727764 226.588066 
L 619.373042 228.000416 
L 617.01832 229.527644 
L 614.663598 231.147069 
L 612.308876 232.836012 
L 609.954154 234.571793 
L 607.599432 236.331734 
L 605.24471 238.093154 
L 602.889989 239.833374 
L 600.535267 241.529715 
L 598.180545 243.159496 
L 595.825823 244.700039 
L 593.471101 246.128665 
L 591.116379 247.422692 
L 588.761657 248.559443 
L 586.406935 249.516237 
L 584.052213 250.270394 
L 581.697491 250.799382 
L 579.342769 251.094863 
L 576.988047 251.174411 
L 574.633325 251.058359 
L 572.278603 250.76704 
L 569.923881 250.320786 
L 567.569159 249.739928 
L 565.214437 249.044801 
L 562.859715 248.255734 
L 560.504993 247.393062 
L 558.150271 246.477116 
L 555.795549 245.528229 
L 553.440827 244.566733 
L 551.086105 243.612961 
L 548.731383 242.687244 
L 546.376661 241.809916 
L 544.021939 241.001307 
L 541.667217 240.281752 
L 539.312495 239.671582 
L 536.957773 239.191129 
L 534.603051 238.860726 
L 532.248329 238.700705 
L 529.893607 238.731398 
L 527.538885 238.973138 
L 525.184163 239.446258 
L 522.829441 240.171088 
L 520.474719 241.167963 
L 518.119997 242.457208 
L 515.765275 244.049422 
L 513.410553 245.925515 
L 511.055831 248.060756 
L 508.701109 250.430411 
L 506.346387 253.00975 
L 503.991665 255.774039 
L 501.636943 258.698546 
L 499.282221 261.758539 
L 496.927499 264.929287 
L 494.572777 268.186056 
L 492.218055 271.504115 
L 489.863333 274.858731 
L 487.508611 278.225172 
L 485.153889 281.578706 
L 482.799167 284.894601 
L 480.444445 288.148124 
L 478.089723 291.314543 
L 475.735001 294.369126 
L 473.380279 297.287141 
L 471.025557 300.043856 
L 468.670835 302.614538 
L 466.316113 304.974455 
L 463.961391 307.098875 
L 461.606669 308.963066 
L 459.251947 310.542295 
L 456.897225 311.811831 
L 454.542503 312.74694 
L 452.187781 313.328029 
L 449.833059 313.562535 
L 447.478337 313.46675 
L 445.123615 313.056974 
L 442.768893 312.349506 
L 440.414171 311.360645 
L 438.059449 310.106691 
L 435.704727 308.603942 
L 433.350005 306.868697 
L 430.995283 304.917256 
L 428.640561 302.765917 
L 426.285839 300.430981 
L 423.931117 297.928744 
L 421.576395 295.275508 
L 419.221673 292.487571 
L 416.866951 289.581231 
L 414.512229 286.572789 
L 412.157507 283.478543 
L 409.802785 280.314793 
L 407.448063 277.097836 
L 405.093341 273.843974 
L 402.738619 270.569503 
L 400.383897 267.290725 
L 398.029175 264.023937 
L 395.674453 260.785439 
L 393.319731 257.59153 
L 390.965009 254.458509 
L 388.610287 251.401429 
L 386.255565 248.423641 
L 383.900843 245.52208 
L 381.546121 242.69362 
L 379.191399 239.935129 
L 376.836677 237.243481 
L 374.481955 234.615545 
L 372.127233 232.048194 
L 369.772511 229.538299 
L 367.41779 227.082731 
L 365.063068 224.67836 
L 362.708346 222.32206 
L 360.353624 220.010699 
L 357.998902 217.741151 
L 355.64418 215.510286 
L 353.289458 213.314976 
L 350.934736 211.152091 
L 348.580014 209.018503 
L 346.225292 206.911083 
L 343.87057 204.826702 
L 341.515848 202.762233 
L 339.161126 200.714545 
L 336.806404 198.680511 
L 334.451682 196.657001 
L 332.09696 194.640887 
L 329.742238 192.62904 
L 327.387516 190.618331 
L 325.032794 188.606222 
L 322.678072 187.345437 
L 320.32335 186.614956 
L 317.968628 185.67576 
L 315.613906 184.556851 
L 313.259184 183.286074 
L 310.904462 181.890442 
L 308.54974 180.39642 
L 306.195018 178.830184 
L 303.840296 177.217846 
L 301.485574 175.585672 
L 299.130852 173.960267 
L 296.77613 172.368753 
L 294.421408 170.838934 
L 292.066686 169.659398 
L 289.711964 169.712223 
L 287.357242 170.052236 
L 285.00252 170.698132 
L 282.647798 171.668604 
L 280.293076 172.982345 
L 277.938354 174.65805 
L 275.583632 176.714412 
L 273.22891 179.170125 
L 270.874188 182.043881 
L 268.519466 185.354376 
L 266.164744 189.120303 
L 263.810022 193.360354 
L 261.4553 198.092797 
L 259.100578 203.315044 
L 256.745856 208.994692 
L 254.391134 215.097041 
L 252.036412 221.587395 
L 249.68169 228.431056 
L 247.326968 235.593327 
L 244.972246 243.039509 
L 242.617524 250.734906 
L 240.262802 258.644819 
L 237.90808 266.734551 
L 235.553358 274.969404 
L 233.198636 283.31468 
L 230.843914 291.735683 
L 228.489192 300.197714 
L 226.13447 308.666076 
L 223.779748 317.106071 
L 221.425026 325.483001 
L 219.070304 333.76217 
L 216.715582 341.908878 
L 214.36086 349.888429 
L 212.006138 357.666125 
L 209.651416 365.207268 
L 207.296694 372.477161 
L 204.941972 379.441106 
L 202.58725 386.064405 
L 200.232528 392.312361 
L 197.877806 398.150276 
L 195.523084 403.543453 
L 193.168362 408.457194 
L 190.81364 412.8568 
L 188.458918 416.707576 
L 186.104196 419.974822 
L 183.749474 422.623842 
L 181.394752 424.619937 
L 179.04003 425.928411 
L 176.685308 426.514565 
L 174.330586 426.343702 
L 171.975864 425.381124 
L 169.621142 423.592133 
L 167.26642 420.942033 
L 164.911698 417.396124 
L 162.556976 412.919711 
L 160.202254 407.478094 
L 157.847532 401.036577 
L 155.49281 393.560461 
L 153.138088 385.01505 
L 150.783366 375.365645 
L 148.428644 364.577549 
L 146.073922 352.616064 
L 143.7192 339.446493 
L 141.364478 325.034138 
L 139.009756 309.344301 
L 136.655034 292.342285 
L 134.300312 273.993392 
z
" clip-path="url(#p0dc30eab3b)" style="fill: #215f53"/>
   </g>
   <g id="FillBetweenPolyCollection_2">
    <path d="M 134.300312 134.656325 
L 134.300312 273.993392 
L 136.655034 292.342285 
L 139.009756 309.344301 
L 141.364478 325.034138 
L 143.7192 339.446493 
L 146.073922 352.616064 
L 148.428644 364.577549 
L 150.783366 375.365645 
L 153.138088 385.01505 
L 155.49281 393.560461 
L 157.847532 401.036577 
L 160.202254 407.478094 
L 162.556976 412.919711 
L 164.911698 417.396124 
L 167.26642 420.942033 
L 169.621142 423.592133 
L 171.975864 425.381124 
L 174.330586 426.343702 
L 176.685308 426.514565 
L 179.04003 425.928411 
L 181.394752 424.619937 
L 183.749474 422.623842 
L 186.104196 419.974822 
L 188.458918 416.707576 
L 190.81364 412.8568 
L 193.168362 408.457194 
L 195.523084 403.543453 
L 197.877806 398.150276 
L 200.232528 392.312361 
L 202.58725 386.064405 
L 204.941972 379.441106 
L 207.296694 372.477161 
L 209.651416 365.207268 
L 212.006138 357.666125 
L 214.36086 349.888429 
L 216.715582 341.908878 
L 219.070304 333.76217 
L 221.425026 325.483001 
L 223.779748 317.106071 
L 226.13447 308.666076 
L 228.489192 300.197714 
L 230.843914 291.735683 
L 233.198636 283.31468 
L 235.553358 274.969404 
L 237.90808 266.734551 
L 240.262802 258.644819 
L 242.617524 250.734906 
L 244.972246 243.039509 
L 247.326968 235.593327 
L 249.68169 228.431056 
L 252.036412 221.587395 
L 254.391134 215.097041 
L 256.745856 208.994692 
L 259.100578 203.315044 
L 261.4553 198.092797 
L 263.810022 193.360354 
L 266.164744 189.120303 
L 268.519466 185.354376 
L 270.874188 182.043881 
L 273.22891 179.170125 
L 275.583632 176.714412 
L 277.938354 174.65805 
L 280.293076 172.982345 
L 282.647798 171.668604 
L 285.00252 170.698132 
L 287.357242 170.052236 
L 289.711964 169.712223 
L 292.066686 169.659398 
L 294.421408 170.838934 
L 296.77613 172.368753 
L 299.130852 173.960267 
L 301.485574 175.585672 
L 303.840296 177.217846 
L 306.195018 178.830184 
L 308.54974 180.39642 
L 310.904462 181.890442 
L 313.259184 183.286074 
L 315.613906 184.556851 
L 317.968628 185.67576 
L 320.32335 186.614956 
L 322.678072 187.345437 
L 325.032794 188.606222 
L 327.387516 190.618331 
L 329.742238 192.62904 
L 332.09696 194.640887 
L 334.451682 196.657001 
L 336.806404 198.680511 
L 339.161126 200.714545 
L 341.515848 202.762233 
L 343.87057 204.826702 
L 346.225292 206.911083 
L 348.580014 209.018503 
L 350.934736 211.152091 
L 353.289458 213.314976 
L 355.64418 215.510286 
L 357.998902 217.741151 
L 360.353624 220.010699 
L 362.708346 222.32206 
L 365.063068 224.67836 
L 367.41779 227.082731 
L 369.772511 229.538299 
L 372.127233 232.048194 
L 374.481955 234.615545 
L 376.836677 237.243481 
L 379.191399 239.935129 
L 381.546121 242.69362 
L 383.900843 245.52208 
L 386.255565 248.423641 
L 388.610287 251.401429 
L 390.965009 254.458509 
L 393.319731 257.59153 
L 395.674453 260.785439 
L 398.029175 264.023937 
L 400.383897 267.290725 
L 402.738619 270.569503 
L 405.093341 273.843974 
L 407.448063 277.097836 
L 409.802785 280.314793 
L 412.157507 283.478543 
L 414.512229 286.572789 
L 416.866951 289.581231 
L 419.221673 292.487571 
L 421.576395 295.275508 
L 423.931117 297.928744 
L 426.285839 300.430981 
L 428.640561 302.765917 
L 430.995283 304.917256 
L 433.350005 306.868697 
L 435.704727 308.603942 
L 438.059449 310.106691 
L 440.414171 311.360645 
L 442.768893 312.349506 
L 445.123615 313.056974 
L 447.478337 313.46675 
L 449.833059 313.562535 
L 452.187781 313.328029 
L 454.542503 312.74694 
L 456.897225 311.811831 
L 459.251947 310.542295 
L 461.606669 308.963066 
L 463.961391 307.098875 
L 466.316113 304.974455 
L 468.670835 302.614538 
L 471.025557 300.043856 
L 473.380279 297.287141 
L 475.735001 294.369126 
L 478.089723 291.314543 
L 480.444445 288.148124 
L 482.799167 284.894601 
L 485.153889 281.578706 
L 487.508611 278.225172 
L 489.863333 274.858731 
L 492.218055 271.504115 
L 494.572777 268.186056 
L 496.927499 264.929287 
L 499.282221 261.758539 
L 501.636943 258.698546 
L 503.991665 255.774039 
L 506.346387 253.00975 
L 508.701109 250.430411 
L 511.055831 248.060756 
L 513.410553 245.925515 
L 515.765275 244.049422 
L 518.119997 242.457208 
L 520.474719 241.167963 
L 522.829441 240.171088 
L 525.184163 239.446258 
L 527.538885 238.973138 
L 529.893607 238.731398 
L 532.248329 238.700705 
L 534.603051 238.860726 
L 536.957773 239.191129 
L 539.312495 239.671582 
L 541.667217 240.281752 
L 544.021939 241.001307 
L 546.376661 241.809916 
L 548.731383 242.687244 
L 551.086105 243.612961 
L 553.440827 244.566733 
L 555.795549 245.528229 
L 558.150271 246.477116 
L 560.504993 247.393062 
L 562.859715 248.255734 
L 565.214437 249.044801 
L 567.569159 249.739928 
L 569.923881 250.320786 
L 572.278603 250.76704 
L 574.633325 251.058359 
L 576.988047 251.174411 
L 579.342769 251.094863 
L 581.697491 250.799382 
L 584.052213 250.270394 
L 586.406935 249.516237 
L 588.761657 248.559443 
L 591.116379 247.422692 
L 593.471101 246.128665 
L 595.825823 244.700039 
L 598.180545 243.159496 
L 600.535267 241.529715 
L 602.889989 239.833374 
L 605.24471 238.093154 
L 607.599432 236.331734 
L 609.954154 234.571793 
L 612.308876 232.836012 
L 614.663598 231.147069 
L 617.01832 229.527644 
L 619.373042 228.000416 
L 621.727764 226.588066 
L 624.082486 225.313273 
L 626.437208 224.198715 
L 628.79193 223.267073 
L 631.146652 222.541027 
L 633.501374 222.043255 
L 635.856096 221.796437 
L 638.210818 221.823253 
L 640.56554 222.146382 
L 642.920262 222.788504 
L 645.274984 223.772298 
L 647.629706 225.119088 
L 649.984428 226.824778 
L 652.33915 228.862696 
L 654.693872 231.205388 
L 657.048594 233.825396 
L 659.403316 236.695266 
L 661.758038 239.787541 
L 664.11276 243.074765 
L 666.467482 246.529482 
L 668.822204 250.124237 
L 671.176926 253.831574 
L 673.531648 257.624036 
L 675.88637 261.474168 
L 678.241092 265.354514 
L 680.595814 269.237618 
L 682.950536 273.096024 
L 685.305258 276.902276 
L 687.65998 280.628919 
L 690.014702 284.248496 
L 692.369424 287.733551 
L 694.724146 291.056629 
L 697.078868 294.190274 
L 699.43359 297.10703 
L 701.788312 299.77944 
L 704.143034 302.18005 
L 706.497756 304.281402 
L 708.852478 306.056042 
L 711.2072 307.476875 
L 713.561922 308.534436 
L 715.916644 309.244468 
L 718.271366 309.624654 
L 720.626088 309.692676 
L 722.98081 309.466216 
L 725.335532 308.962956 
L 727.690254 308.200578 
L 730.044976 307.196765 
L 732.399698 305.969199 
L 734.75442 304.535561 
L 737.109142 302.913535 
L 739.463864 301.120802 
L 741.818586 299.175045 
L 744.173308 297.093945 
L 746.52803 294.895185 
L 748.882752 292.596447 
L 751.237474 290.215413 
L 753.592196 287.769766 
L 755.946918 285.277188 
L 758.30164 282.75536 
L 760.656362 280.221965 
L 763.011084 277.694685 
L 765.365806 275.191203 
L 767.720528 272.7292 
L 770.07525 270.326359 
L 772.429972 268.000362 
L 774.784694 265.865172 
L 777.139416 265.524831 
L 779.494138 265.113996 
L 781.84886 264.631471 
L 784.203582 264.07545 
L 786.558304 263.443442 
L 788.913026 262.732194 
L 791.267748 261.937584 
L 793.62247 261.054501 
L 795.977192 260.076691 
L 798.331914 258.996565 
L 800.686636 257.804962 
L 803.041358 256.490844 
L 805.39608 255.040915 
L 807.750802 254.355559 
L 810.105524 255.663842 
L 812.460246 257.349565 
L 814.814968 259.430412 
L 817.16969 261.924065 
L 819.524412 264.848204 
L 821.879134 268.220514 
L 824.233856 272.058676 
L 826.588578 276.380372 
L 828.9433 281.203284 
L 831.298022 286.545095 
L 833.652744 292.423486 
L 836.007466 298.856141 
L 838.362187 305.86074 
L 838.362187 252.769026 
L 838.362187 252.769026 
L 836.007466 235.024642 
L 833.652744 218.518182 
L 831.298022 203.215063 
L 828.9433 189.080705 
L 826.588578 176.080527 
L 824.233856 164.179946 
L 821.879134 153.344381 
L 819.524412 143.539251 
L 817.16969 134.729975 
L 814.814968 126.881971 
L 812.460246 119.960657 
L 810.105524 113.931453 
L 807.750802 108.759776 
L 805.39608 107.204762 
L 803.041358 107.204762 
L 800.686636 107.204762 
L 798.331914 107.204762 
L 795.977192 107.204762 
L 793.62247 107.204762 
L 791.267748 107.204762 
L 788.913026 107.204762 
L 786.558304 107.204762 
L 784.203582 107.204762 
L 781.84886 107.204762 
L 779.494138 107.204762 
L 777.139416 107.204762 
L 774.784694 107.204762 
L 772.429972 110.572576 
L 770.07525 114.418268 
L 767.720528 118.533603 
L 765.365806 122.884001 
L 763.011084 127.434878 
L 760.656362 132.151655 
L 758.30164 136.99975 
L 755.946918 141.94458 
L 753.592196 146.951566 
L 751.237474 151.986125 
L 748.882752 157.013675 
L 746.52803 161.999636 
L 744.173308 166.909427 
L 741.818586 171.708464 
L 739.463864 176.362169 
L 737.109142 180.835957 
L 734.75442 185.095249 
L 732.399698 189.105463 
L 730.044976 192.832018 
L 727.690254 196.240331 
L 725.335532 199.295822 
L 722.98081 201.963909 
L 720.626088 204.210011 
L 718.271366 205.999546 
L 715.916644 207.297933 
L 713.561922 208.070591 
L 711.2072 208.282937 
L 708.852478 207.903975 
L 706.497756 206.949303 
L 704.143034 205.467109 
L 701.788312 203.506247 
L 699.43359 201.115573 
L 697.078868 198.343941 
L 694.724146 195.240207 
L 692.369424 191.853226 
L 690.014702 188.231853 
L 687.65998 184.424943 
L 685.305258 180.481352 
L 682.950536 176.449934 
L 680.595814 172.379545 
L 678.241092 168.319039 
L 675.88637 164.317273 
L 673.531648 160.4231 
L 671.176926 156.685376 
L 668.822204 153.152957 
L 666.467482 149.874698 
L 664.11276 146.899452 
L 661.758038 144.276077 
L 659.403316 142.053426 
L 657.048594 140.280355 
L 654.693872 139.00572 
L 652.33915 138.278374 
L 649.984428 138.147174 
L 647.629706 138.660975 
L 645.274984 139.866972 
L 642.920262 141.764648 
L 640.56554 144.299757 
L 638.210818 147.415188 
L 635.856096 151.05383 
L 633.501374 155.158572 
L 631.146652 159.672303 
L 628.79193 164.537911 
L 626.437208 169.698286 
L 624.082486 175.096317 
L 621.727764 180.674892 
L 619.373042 186.3769 
L 617.01832 192.145231 
L 614.663598 197.922773 
L 612.308876 203.652414 
L 609.954154 209.277045 
L 607.599432 214.739553 
L 605.24471 219.982829 
L 602.889989 224.949759 
L 600.535267 229.583235 
L 598.180545 233.826143 
L 595.825823 237.621375 
L 593.471101 240.911817 
L 591.116379 243.640359 
L 588.761657 245.749891 
L 586.406935 247.1833 
L 584.052213 247.883477 
L 581.697491 247.793691 
L 579.342769 246.894575 
L 576.988047 245.234945 
L 574.633325 242.870872 
L 572.278603 239.858429 
L 569.923881 236.25369 
L 567.569159 232.112726 
L 565.214437 227.491609 
L 562.859715 222.446413 
L 560.504993 217.033209 
L 558.150271 211.308071 
L 555.795549 205.327071 
L 553.440827 199.14628 
L 551.086105 192.821773 
L 548.731383 186.409621 
L 546.376661 179.965896 
L 544.021939 173.546671 
L 541.667217 167.208019 
L 539.312495 161.006013 
L 536.957773 154.996724 
L 534.603051 149.236224 
L 532.248329 143.780588 
L 529.893607 138.685887 
L 527.538885 134.008193 
L 525.184163 129.803579 
L 522.829441 126.128118 
L 520.474719 123.037881 
L 518.119997 120.58893 
L 515.765275 118.816038 
L 513.410553 117.68902 
L 511.055831 117.165344 
L 508.701109 117.20248 
L 506.346387 117.757896 
L 503.991665 118.789059 
L 501.636943 120.253439 
L 499.282221 122.108503 
L 496.927499 124.31172 
L 494.572777 126.820559 
L 492.218055 129.592488 
L 489.863333 132.584975 
L 487.508611 135.755488 
L 485.153889 139.061497 
L 482.799167 142.460469 
L 480.444445 145.909873 
L 478.089723 149.367177 
L 475.735001 152.789849 
L 473.380279 156.135359 
L 471.025557 159.361174 
L 468.670835 162.424763 
L 466.316113 165.283593 
L 463.961391 167.895135 
L 461.606669 170.216855 
L 459.251947 172.206223 
L 456.897225 173.820706 
L 454.542503 175.017773 
L 452.187781 175.764186 
L 449.833059 176.075592 
L 447.478337 175.983663 
L 445.123615 175.520075 
L 442.768893 174.716509 
L 440.414171 173.604644 
L 438.059449 172.216157 
L 435.704727 170.582728 
L 433.350005 168.736035 
L 430.995283 166.707758 
L 428.640561 164.529575 
L 426.285839 162.233165 
L 423.931117 159.850206 
L 421.576395 157.412379 
L 419.221673 154.95136 
L 416.866951 152.49883 
L 414.512229 150.086467 
L 412.157507 147.74595 
L 409.802785 145.508957 
L 407.448063 143.407168 
L 405.093341 141.472261 
L 402.738619 139.735915 
L 400.383897 138.229809 
L 398.029175 136.985622 
L 395.674453 136.035032 
L 393.319731 135.409719 
L 390.965009 135.14136 
L 388.610287 135.257782 
L 386.255565 135.750597 
L 383.900843 136.591578 
L 381.546121 137.752294 
L 379.191399 139.204314 
L 376.836677 140.919207 
L 374.481955 142.868543 
L 372.127233 145.02389 
L 369.772511 147.356818 
L 367.41779 149.838895 
L 365.063068 152.441692 
L 362.708346 155.136777 
L 360.353624 157.895719 
L 357.998902 160.690088 
L 355.64418 163.491453 
L 353.289458 166.271382 
L 350.934736 169.001445 
L 348.580014 171.653212 
L 346.225292 174.198251 
L 343.87057 176.608131 
L 341.515848 178.854422 
L 339.161126 180.908692 
L 336.806404 182.742512 
L 334.451682 184.327449 
L 332.09696 185.635074 
L 329.742238 186.636955 
L 327.387516 187.304662 
L 325.032794 187.611423 
L 322.678072 187.345437 
L 320.32335 186.614956 
L 317.968628 185.67576 
L 315.613906 184.556851 
L 313.259184 183.286074 
L 310.904462 181.890442 
L 308.54974 180.39642 
L 306.195018 178.830184 
L 303.840296 177.217846 
L 301.485574 175.585672 
L 299.130852 173.960267 
L 296.77613 172.368753 
L 294.421408 170.838934 
L 292.066686 169.344425 
L 289.711964 167.743261 
L 287.357242 166.278062 
L 285.00252 164.981733 
L 282.647798 163.887177 
L 280.293076 163.027297 
L 277.938354 162.434996 
L 275.583632 162.143177 
L 273.22891 162.184743 
L 270.874188 162.592598 
L 268.519466 163.399645 
L 266.164744 164.638786 
L 263.810022 166.342926 
L 261.4553 168.544427 
L 259.100578 171.249337 
L 256.745856 174.426074 
L 254.391134 178.040162 
L 252.036412 182.057126 
L 249.68169 186.44249 
L 247.326968 191.161777 
L 244.972246 196.180513 
L 242.617524 201.464221 
L 240.262802 206.978426 
L 237.90808 212.688651 
L 235.553358 218.560421 
L 233.198636 224.55926 
L 230.843914 230.650693 
L 228.489192 236.800243 
L 226.13447 242.973435 
L 223.779748 249.135792 
L 221.425026 255.25284 
L 219.070304 261.290102 
L 216.715582 267.213102 
L 214.36086 272.987365 
L 212.006138 278.578415 
L 209.651416 283.951776 
L 207.296694 289.072972 
L 204.941972 293.907527 
L 202.58725 298.420966 
L 200.232528 302.578813 
L 197.877806 306.346592 
L 195.523084 309.689827 
L 193.168362 312.574043 
L 190.81364 314.964763 
L 188.458918 316.827512 
L 186.104196 318.127814 
L 183.749474 318.831193 
L 181.394752 318.903173 
L 179.04003 318.309279 
L 176.685308 317.015035 
L 174.330586 314.985965 
L 171.975864 312.187592 
L 169.621142 308.585442 
L 167.26642 304.145039 
L 164.911698 298.831906 
L 162.556976 292.611569 
L 160.202254 285.44955 
L 157.847532 277.311375 
L 155.49281 268.162567 
L 153.138088 257.968651 
L 150.783366 246.69515 
L 148.428644 234.30759 
L 146.073922 220.771494 
L 143.7192 206.052387 
L 141.364478 190.115792 
L 139.009756 172.927234 
L 136.655034 154.452237 
L 134.300312 134.656325 
z
" clip-path="url(#p0dc30eab3b)" style="fill: #7570b3"/>
   </g>
   <g id="FillBetweenPolyCollection_3">
    <path d="M 134.300312 107.204762 
L 134.300312 134.656325 
L 136.655034 154.452237 
L 139.009756 172.927234 
L 141.364478 190.115792 
L 143.7192 206.052387 
L 146.073922 220.771494 
L 148.428644 234.30759 
L 150.783366 246.69515 
L 153.138088 257.968651 
L 155.49281 268.162567 
L 157.847532 277.311375 
L 160.202254 285.44955 
L 162.556976 292.611569 
L 164.911698 298.831906 
L 167.26642 304.145039 
L 169.621142 308.585442 
L 171.975864 312.187592 
L 174.330586 314.985965 
L 176.685308 317.015035 
L 179.04003 318.309279 
L 181.394752 318.903173 
L 183.749474 318.831193 
L 186.104196 318.127814 
L 188.458918 316.827512 
L 190.81364 314.964763 
L 193.168362 312.574043 
L 195.523084 309.689827 
L 197.877806 306.346592 
L 200.232528 302.578813 
L 202.58725 298.420966 
L 204.941972 293.907527 
L 207.296694 289.072972 
L 209.651416 283.951776 
L 212.006138 278.578415 
L 214.36086 272.987365 
L 216.715582 267.213102 
L 219.070304 261.290102 
L 221.425026 255.25284 
L 223.779748 249.135792 
L 226.13447 242.973435 
L 228.489192 236.800243 
L 230.843914 230.650693 
L 233.198636 224.55926 
L 235.553358 218.560421 
L 237.90808 212.688651 
L 240.262802 206.978426 
L 242.617524 201.464221 
L 244.972246 196.180513 
L 247.326968 191.161777 
L 249.68169 186.44249 
L 252.036412 182.057126 
L 254.391134 178.040162 
L 256.745856 174.426074 
L 259.100578 171.249337 
L 261.4553 168.544427 
L 263.810022 166.342926 
L 266.164744 164.638786 
L 268.519466 163.399645 
L 270.874188 162.592598 
L 273.22891 162.184743 
L 275.583632 162.143177 
L 277.938354 162.434996 
L 280.293076 163.027297 
L 282.647798 163.887177 
L 285.00252 164.981733 
L 287.357242 166.278062 
L 289.711964 167.743261 
L 292.066686 169.344425 
L 294.421408 170.838934 
L 296.77613 172.368753 
L 299.130852 173.960267 
L 301.485574 175.585672 
L 303.840296 177.217846 
L 306.195018 178.830184 
L 308.54974 180.39642 
L 310.904462 181.890442 
L 313.259184 183.286074 
L 315.613906 184.556851 
L 317.968628 185.67576 
L 320.32335 186.614956 
L 322.678072 187.345437 
L 325.032794 187.611423 
L 327.387516 187.304662 
L 329.742238 186.636955 
L 332.09696 185.635074 
L 334.451682 184.327449 
L 336.806404 182.742512 
L 339.161126 180.908692 
L 341.515848 178.854422 
L 343.87057 176.608131 
L 346.225292 174.198251 
L 348.580014 171.653212 
L 350.934736 169.001445 
L 353.289458 166.271382 
L 355.64418 163.491453 
L 357.998902 160.690088 
L 360.353624 157.895719 
L 362.708346 155.136777 
L 365.063068 152.441692 
L 367.41779 149.838895 
L 369.772511 147.356818 
L 372.127233 145.02389 
L 374.481955 142.868543 
L 376.836677 140.919207 
L 379.191399 139.204314 
L 381.546121 137.752294 
L 383.900843 136.591578 
L 386.255565 135.750597 
L 388.610287 135.257782 
L 390.965009 135.14136 
L 393.319731 135.409719 
L 395.674453 136.035032 
L 398.029175 136.985622 
L 400.383897 138.229809 
L 402.738619 139.735915 
L 405.093341 141.472261 
L 407.448063 143.407168 
L 409.802785 145.508957 
L 412.157507 147.74595 
L 414.512229 150.086467 
L 416.866951 152.49883 
L 419.221673 154.95136 
L 421.576395 157.412379 
L 423.931117 159.850206 
L 426.285839 162.233165 
L 428.640561 164.529575 
L 430.995283 166.707758 
L 433.350005 168.736035 
L 435.704727 170.582728 
L 438.059449 172.216157 
L 440.414171 173.604644 
L 442.768893 174.716509 
L 445.123615 175.520075 
L 447.478337 175.983663 
L 449.833059 176.075592 
L 452.187781 175.764186 
L 454.542503 175.017773 
L 456.897225 173.820706 
L 459.251947 172.206223 
L 461.606669 170.216855 
L 463.961391 167.895135 
L 466.316113 165.283593 
L 468.670835 162.424763 
L 471.025557 159.361174 
L 473.380279 156.135359 
L 475.735001 152.789849 
L 478.089723 149.367177 
L 480.444445 145.909873 
L 482.799167 142.460469 
L 485.153889 139.061497 
L 487.508611 135.755488 
L 489.863333 132.584975 
L 492.218055 129.592488 
L 494.572777 126.820559 
L 496.927499 124.31172 
L 499.282221 122.108503 
L 501.636943 120.253439 
L 503.991665 118.789059 
L 506.346387 117.757896 
L 508.701109 117.20248 
L 511.055831 117.165344 
L 513.410553 117.68902 
L 515.765275 118.816038 
L 518.119997 120.58893 
L 520.474719 123.037881 
L 522.829441 126.128118 
L 525.184163 129.803579 
L 527.538885 134.008193 
L 529.893607 138.685887 
L 532.248329 143.780588 
L 534.603051 149.236224 
L 536.957773 154.996724 
L 539.312495 161.006013 
L 541.667217 167.208019 
L 544.021939 173.546671 
L 546.376661 179.965896 
L 548.731383 186.409621 
L 551.086105 192.821773 
L 553.440827 199.14628 
L 555.795549 205.327071 
L 558.150271 211.308071 
L 560.504993 217.033209 
L 562.859715 222.446413 
L 565.214437 227.491609 
L 567.569159 232.112726 
L 569.923881 236.25369 
L 572.278603 239.858429 
L 574.633325 242.870872 
L 576.988047 245.234945 
L 579.342769 246.894575 
L 581.697491 247.793691 
L 584.052213 247.883477 
L 586.406935 247.1833 
L 588.761657 245.749891 
L 591.116379 243.640359 
L 593.471101 240.911817 
L 595.825823 237.621375 
L 598.180545 233.826143 
L 600.535267 229.583235 
L 602.889989 224.949759 
L 605.24471 219.982829 
L 607.599432 214.739553 
L 609.954154 209.277045 
L 612.308876 203.652414 
L 614.663598 197.922773 
L 617.01832 192.145231 
L 619.373042 186.3769 
L 621.727764 180.674892 
L 624.082486 175.096317 
L 626.437208 169.698286 
L 628.79193 164.537911 
L 631.146652 159.672303 
L 633.501374 155.158572 
L 635.856096 151.05383 
L 638.210818 147.415188 
L 640.56554 144.299757 
L 642.920262 141.764648 
L 645.274984 139.866972 
L 647.629706 138.660975 
L 649.984428 138.147174 
L 652.33915 138.278374 
L 654.693872 139.00572 
L 657.048594 140.280355 
L 659.403316 142.053426 
L 661.758038 144.276077 
L 664.11276 146.899452 
L 666.467482 149.874698 
L 668.822204 153.152957 
L 671.176926 156.685376 
L 673.531648 160.4231 
L 675.88637 164.317273 
L 678.241092 168.319039 
L 680.595814 172.379545 
L 682.950536 176.449934 
L 685.305258 180.481352 
L 687.65998 184.424943 
L 690.014702 188.231853 
L 692.369424 191.853226 
L 694.724146 195.240207 
L 697.078868 198.343941 
L 699.43359 201.115573 
L 701.788312 203.506247 
L 704.143034 205.467109 
L 706.497756 206.949303 
L 708.852478 207.903975 
L 711.2072 208.282937 
L 713.561922 208.070591 
L 715.916644 207.297933 
L 718.271366 205.999546 
L 720.626088 204.210011 
L 722.98081 201.963909 
L 725.335532 199.295822 
L 727.690254 196.240331 
L 730.044976 192.832018 
L 732.399698 189.105463 
L 734.75442 185.095249 
L 737.109142 180.835957 
L 739.463864 176.362169 
L 741.818586 171.708464 
L 744.173308 166.909427 
L 746.52803 161.999636 
L 748.882752 157.013675 
L 751.237474 151.986125 
L 753.592196 146.951566 
L 755.946918 141.94458 
L 758.30164 136.99975 
L 760.656362 132.151655 
L 763.011084 127.434878 
L 765.365806 122.884001 
L 767.720528 118.533603 
L 770.07525 114.418268 
L 772.429972 110.572576 
L 774.784694 107.204762 
L 777.139416 107.204762 
L 779.494138 107.204762 
L 781.84886 107.204762 
L 784.203582 107.204762 
L 786.558304 107.204762 
L 788.913026 107.204762 
L 791.267748 107.204762 
L 793.62247 107.204762 
L 795.977192 107.204762 
L 798.331914 107.204762 
L 800.686636 107.204762 
L 803.041358 107.204762 
L 805.39608 107.204762 
L 807.750802 108.759776 
L 810.105524 113.931453 
L 812.460246 119.960657 
L 814.814968 126.881971 
L 817.16969 134.729975 
L 819.524412 143.539251 
L 821.879134 153.344381 
L 824.233856 164.179946 
L 826.588578 176.080527 
L 828.9433 189.080705 
L 831.298022 203.215063 
L 833.652744 218.518182 
L 836.007466 235.024642 
L 838.362187 252.769026 
L 838.362187 107.204762 
L 838.362187 107.204762 
L 836.007466 107.204762 
L 833.652744 107.204762 
L 831.298022 107.204762 
L 828.9433 107.204762 
L 826.588578 107.204762 
L 824.233856 107.204762 
L 821.879134 107.204762 
L 819.524412 107.204762 
L 817.16969 107.204762 
L 814.814968 107.204762 
L 812.460246 107.204762 
L 810.105524 107.204762 
L 807.750802 107.204762 
L 805.39608 107.204762 
L 803.041358 107.204762 
L 800.686636 107.204762 
L 798.331914 107.204762 
L 795.977192 107.204762 
L 793.62247 107.204762 
L 791.267748 107.204762 
L 788.913026 107.204762 
L 786.558304 107.204762 
L 784.203582 107.204762 
L 781.84886 107.204762 
L 779.494138 107.204762 
L 777.139416 107.204762 
L 774.784694 107.204762 
L 772.429972 107.204762 
L 770.07525 107.204762 
L 767.720528 107.204762 
L 765.365806 107.204762 
L 763.011084 107.204762 
L 760.656362 107.204762 
L 758.30164 107.204762 
L 755.946918 107.204762 
L 753.592196 107.204762 
L 751.237474 107.204762 
L 748.882752 107.204762 
L 746.52803 107.204762 
L 744.173308 107.204762 
L 741.818586 107.204762 
L 739.463864 107.204762 
L 737.109142 107.204762 
L 734.75442 107.204762 
L 732.399698 107.204762 
L 730.044976 107.204762 
L 727.690254 107.204762 
L 725.335532 107.204762 
L 722.98081 107.204762 
L 720.626088 107.204762 
L 718.271366 107.204762 
L 715.916644 107.204762 
L 713.561922 107.204762 
L 711.2072 107.204762 
L 708.852478 107.204762 
L 706.497756 107.204762 
L 704.143034 107.204762 
L 701.788312 107.204762 
L 699.43359 107.204762 
L 697.078868 107.204762 
L 694.724146 107.204762 
L 692.369424 107.204762 
L 690.014702 107.204762 
L 687.65998 107.204762 
L 685.305258 107.204762 
L 682.950536 107.204762 
L 680.595814 107.204762 
L 678.241092 107.204762 
L 675.88637 107.204762 
L 673.531648 107.204762 
L 671.176926 107.204762 
L 668.822204 107.204762 
L 666.467482 107.204762 
L 664.11276 107.204762 
L 661.758038 107.204762 
L 659.403316 107.204762 
L 657.048594 107.204762 
L 654.693872 107.204762 
L 652.33915 107.204762 
L 649.984428 107.204762 
L 647.629706 107.204762 
L 645.274984 107.204762 
L 642.920262 107.204762 
L 640.56554 107.204762 
L 638.210818 107.204762 
L 635.856096 107.204762 
L 633.501374 107.204762 
L 631.146652 107.204762 
L 628.79193 107.204762 
L 626.437208 107.204762 
L 624.082486 107.204762 
L 621.727764 107.204762 
L 619.373042 107.204762 
L 617.01832 107.204762 
L 614.663598 107.204762 
L 612.308876 107.204762 
L 609.954154 107.204762 
L 607.599432 107.204762 
L 605.24471 107.204762 
L 602.889989 107.204762 
L 600.535267 107.204762 
L 598.180545 107.204762 
L 595.825823 107.204762 
L 593.471101 107.204762 
L 591.116379 107.204762 
L 588.761657 107.204762 
L 586.406935 107.204762 
L 584.052213 107.204762 
L 581.697491 107.204762 
L 579.342769 107.204762 
L 576.988047 107.204762 
L 574.633325 107.204762 
L 572.278603 107.204762 
L 569.923881 107.204762 
L 567.569159 107.204762 
L 565.214437 107.204762 
L 562.859715 107.204762 
L 560.504993 107.204762 
L 558.150271 107.204762 
L 555.795549 107.204762 
L 553.440827 107.204762 
L 551.086105 107.204762 
L 548.731383 107.204762 
L 546.376661 107.204762 
L 544.021939 107.204762 
L 541.667217 107.204762 
L 539.312495 107.204762 
L 536.957773 107.204762 
L 534.603051 107.204762 
L 532.248329 107.204762 
L 529.893607 107.204762 
L 527.538885 107.204762 
L 525.184163 107.204762 
L 522.829441 107.204762 
L 520.474719 107.204762 
L 518.119997 107.204762 
L 515.765275 107.204762 
L 513.410553 107.204762 
L 511.055831 107.204762 
L 508.701109 107.204762 
L 506.346387 107.204762 
L 503.991665 107.204762 
L 501.636943 107.204762 
L 499.282221 107.204762 
L 496.927499 107.204762 
L 494.572777 107.204762 
L 492.218055 107.204762 
L 489.863333 107.204762 
L 487.508611 107.204762 
L 485.153889 107.204762 
L 482.799167 107.204762 
L 480.444445 107.204762 
L 478.089723 107.204762 
L 475.735001 107.204762 
L 473.380279 107.204762 
L 471.025557 107.204762 
L 468.670835 107.204762 
L 466.316113 107.204762 
L 463.961391 107.204762 
L 461.606669 107.204762 
L 459.251947 107.204762 
L 456.897225 107.204762 
L 454.542503 107.204762 
L 452.187781 107.204762 
L 449.833059 107.204762 
L 447.478337 107.204762 
L 445.123615 107.204762 
L 442.768893 107.204762 
L 440.414171 107.204762 
L 438.059449 107.204762 
L 435.704727 107.204762 
L 433.350005 107.204762 
L 430.995283 107.204762 
L 428.640561 107.204762 
L 426.285839 107.204762 
L 423.931117 107.204762 
L 421.576395 107.204762 
L 419.221673 107.204762 
L 416.866951 107.204762 
L 414.512229 107.204762 
L 412.157507 107.204762 
L 409.802785 107.204762 
L 407.448063 107.204762 
L 405.093341 107.204762 
L 402.738619 107.204762 
L 400.383897 107.204762 
L 398.029175 107.204762 
L 395.674453 107.204762 
L 393.319731 107.204762 
L 390.965009 107.204762 
L 388.610287 107.204762 
L 386.255565 107.204762 
L 383.900843 107.204762 
L 381.546121 107.204762 
L 379.191399 107.204762 
L 376.836677 107.204762 
L 374.481955 107.204762 
L 372.127233 107.204762 
L 369.772511 107.204762 
L 367.41779 107.204762 
L 365.063068 107.204762 
L 362.708346 107.204762 
L 360.353624 107.204762 
L 357.998902 107.204762 
L 355.64418 107.204762 
L 353.289458 107.204762 
L 350.934736 107.204762 
L 348.580014 107.204762 
L 346.225292 107.204762 
L 343.87057 107.204762 
L 341.515848 107.204762 
L 339.161126 107.204762 
L 336.806404 107.204762 
L 334.451682 107.204762 
L 332.09696 107.204762 
L 329.742238 107.204762 
L 327.387516 107.204762 
L 325.032794 107.204762 
L 322.678072 107.204762 
L 320.32335 107.204762 
L 317.968628 107.204762 
L 315.613906 107.204762 
L 313.259184 107.204762 
L 310.904462 107.204762 
L 308.54974 107.204762 
L 306.195018 107.204762 
L 303.840296 107.204762 
L 301.485574 107.204762 
L 299.130852 107.204762 
L 296.77613 107.204762 
L 294.421408 107.204762 
L 292.066686 107.204762 
L 289.711964 107.204762 
L 287.357242 107.204762 
L 285.00252 107.204762 
L 282.647798 107.204762 
L 280.293076 107.204762 
L 277.938354 107.204762 
L 275.583632 107.204762 
L 273.22891 107.204762 
L 270.874188 107.204762 
L 268.519466 107.204762 
L 266.164744 107.204762 
L 263.810022 107.204762 
L 261.4553 107.204762 
L 259.100578 107.204762 
L 256.745856 107.204762 
L 254.391134 107.204762 
L 252.036412 107.204762 
L 249.68169 107.204762 
L 247.326968 107.204762 
L 244.972246 107.204762 
L 242.617524 107.204762 
L 240.262802 107.204762 
L 237.90808 107.204762 
L 235.553358 107.204762 
L 233.198636 107.204762 
L 230.843914 107.204762 
L 228.489192 107.204762 
L 226.13447 107.204762 
L 223.779748 107.204762 
L 221.425026 107.204762 
L 219.070304 107.204762 
L 216.715582 107.204762 
L 214.36086 107.204762 
L 212.006138 107.204762 
L 209.651416 107.204762 
L 207.296694 107.204762 
L 204.941972 107.204762 
L 202.58725 107.204762 
L 200.232528 107.204762 
L 197.877806 107.204762 
L 195.523084 107.204762 
L 193.168362 107.204762 
L 190.81364 107.204762 
L 188.458918 107.204762 
L 186.104196 107.204762 
L 183.749474 107.204762 
L 181.394752 107.204762 
L 179.04003 107.204762 
L 176.685308 107.204762 
L 174.330586 107.204762 
L 171.975864 107.204762 
L 169.621142 107.204762 
L 167.26642 107.204762 
L 164.911698 107.204762 
L 162.556976 107.204762 
L 160.202254 107.204762 
L 157.847532 107.204762 
L 155.49281 107.204762 
L 153.138088 107.204762 
L 150.783366 107.204762 
L 148.428644 107.204762 
L 146.073922 107.204762 
L 143.7192 107.204762 
L 141.364478 107.204762 
L 139.009756 107.204762 
L 136.655034 107.204762 
L 134.300312 107.204762 
z
" clip-path="url(#p0dc30eab3b)" style="fill: #c7eae5"/>
   </g>
   <g id="matplotlib.axis_1">
    <g id="xtick_1">
     <g id="line2d_1">
      <path d="M 134.300312 463.3 
L 134.300312 89.4 
" clip-path="url(#p0dc30eab3b)" style="fill: none; stroke: #ffffff; stroke-opacity: 0.3; stroke-width: 0.75; stroke-linecap: square"/>
     </g>
     <g id="line2d_2">
      <defs>
       <path id="m8b9d8cc35f" d="M 0 0 
L 0 3.5 
" style="stroke: #000000; stroke-width: 0.8"/>
      </defs>
      <g>
       <use xlink:href="#m8b9d8cc35f" x="134.300312" y="463.3" style="stroke: #000000; stroke-width: 0.8"/>
      </g>
     </g>
     <g id="text_1">
      <text style="font-weight: 600; font-size: 24px; font-family: 'Montserrat'; fill: #767676" transform="translate(140.875937 597.425) rotate(-90)">01-01-2023</text>
     </g>
    </g>
    <g id="xtick_2">
     <g id="line2d_3">
      <path d="M 198.305937 463.3 
L 198.305937 89.4 
" clip-path="url(#p0dc30eab3b)" style="fill: none; stroke: #ffffff; stroke-opacity: 0.3; stroke-width: 0.75; stroke-linecap: square"/>
     </g>
     <g id="line2d_4">
      <g>
       <use xlink:href="#m8b9d8cc35f" x="198.305937" y="463.3" style="stroke: #000000; stroke-width: 0.8"/>
      </g>
     </g>
     <g id="text_2">
      <text style="font-weight: 600; font-size: 24px; font-family: 'Montserrat'; fill: #767676" transform="translate(204.881562 602.25125) rotate(-90)">01-02-2023</text>
     </g>
    </g>
    <g id="xtick_3">
     <g id="line2d_5">
      <path d="M 262.311562 463.3 
L 262.311562 89.4 
" clip-path="url(#p0dc30eab3b)" style="fill: none; stroke: #ffffff; stroke-opacity: 0.3; stroke-width: 0.75; stroke-linecap: square"/>
     </g>
     <g id="line2d_6">
      <g>
       <use xlink:href="#m8b9d8cc35f" x="262.311562" y="463.3" style="stroke: #000000; stroke-width: 0.8"/>
      </g>
     </g>
     <g id="text_3">
      <text style="font-weight: 600; font-size: 24px; font-family: 'Montserrat'; fill: #767676" transform="translate(268.887187 602.25125) rotate(-90)">01-03-2023</text>
     </g>
    </g>
    <g id="xtick_4">
     <g id="line2d_7">
      <path d="M 326.317187 463.3 
L 326.317187 89.4 
" clip-path="url(#p0dc30eab3b)" style="fill: none; stroke: #ffffff; stroke-opacity: 0.3; stroke-width: 0.75; stroke-linecap: square"/>
     </g>
     <g id="line2d_8">
      <g>
       <use xlink:href="#m8b9d8cc35f" x="326.317187" y="463.3" style="stroke: #000000; stroke-width: 0.8"/>
      </g>
     </g>
     <g id="text_4">
      <text style="font-weight: 600; font-size: 24px; font-family: 'Montserrat'; fill: #767676" transform="translate(332.892812 604.58) rotate(-90)">01-04-2023</text>
     </g>
    </g>
    <g id="xtick_5">
     <g id="line2d_9">
      <path d="M 390.322812 463.3 
L 390.322812 89.4 
" clip-path="url(#p0dc30eab3b)" style="fill: none; stroke: #ffffff; stroke-opacity: 0.3; stroke-width: 0.75; stroke-linecap: square"/>
     </g>
     <g id="line2d_10">
      <g>
       <use xlink:href="#m8b9d8cc35f" x="390.322812" y="463.3" style="stroke: #000000; stroke-width: 0.8"/>
      </g>
     </g>
     <g id="text_5">
      <text style="font-weight: 600; font-size: 24px; font-family: 'Montserrat'; fill: #767676" transform="translate(396.898437 602.3) rotate(-90)">01-05-2023</text>
     </g>
    </g>
    <g id="xtick_6">
     <g id="line2d_11">
      <path d="M 454.328437 463.3 
L 454.328437 89.4 
" clip-path="url(#p0dc30eab3b)" style="fill: none; stroke: #ffffff; stroke-opacity: 0.3; stroke-width: 0.75; stroke-linecap: square"/>
     </g>
     <g id="line2d_12">
      <g>
       <use xlink:href="#m8b9d8cc35f" x="454.328437" y="463.3" style="stroke: #000000; stroke-width: 0.8"/>
      </g>
     </g>
     <g id="text_6">
      <text style="font-weight: 600; font-size: 24px; font-family: 'Montserrat'; fill: #767676" transform="translate(460.904062 603.33125) rotate(-90)">01-06-2023</text>
     </g>
    </g>
    <g id="xtick_7">
     <g id="line2d_13">
      <path d="M 518.334062 463.3 
L 518.334062 89.4 
" clip-path="url(#p0dc30eab3b)" style="fill: none; stroke: #ffffff; stroke-opacity: 0.3; stroke-width: 0.75; stroke-linecap: square"/>
     </g>
     <g id="line2d_14">
      <g>
       <use xlink:href="#m8b9d8cc35f" x="518.334062" y="463.3" style="stroke: #000000; stroke-width: 0.8"/>
      </g>
     </g>
     <g id="text_7">
      <text style="font-weight: 600; font-size: 24px; font-family: 'Montserrat'; fill: #767676" transform="translate(524.909687 602.87375) rotate(-90)">01-07-2023</text>
     </g>
    </g>
    <g id="xtick_8">
     <g id="line2d_15">
      <path d="M 582.339687 463.3 
L 582.339687 89.4 
" clip-path="url(#p0dc30eab3b)" style="fill: none; stroke: #ffffff; stroke-opacity: 0.3; stroke-width: 0.75; stroke-linecap: square"/>
     </g>
     <g id="line2d_16">
      <g>
       <use xlink:href="#m8b9d8cc35f" x="582.339687" y="463.3" style="stroke: #000000; stroke-width: 0.8"/>
      </g>
     </g>
     <g id="text_8">
      <text style="font-weight: 600; font-size: 24px; font-family: 'Montserrat'; fill: #767676" transform="translate(588.915312 603.93125) rotate(-90)">01-08-2023</text>
     </g>
    </g>
    <g id="xtick_9">
     <g id="line2d_17">
      <path d="M 646.345312 463.3 
L 646.345312 89.4 
" clip-path="url(#p0dc30eab3b)" style="fill: none; stroke: #ffffff; stroke-opacity: 0.3; stroke-width: 0.75; stroke-linecap: square"/>
     </g>
     <g id="line2d_18">
      <g>
       <use xlink:href="#m8b9d8cc35f" x="646.345312" y="463.3" style="stroke: #000000; stroke-width: 0.8"/>
      </g>
     </g>
     <g id="text_9">
      <text style="font-weight: 600; font-size: 24px; font-family: 'Montserrat'; fill: #767676" transform="translate(652.920937 603.33125) rotate(-90)">01-09-2023</text>
     </g>
    </g>
    <g id="xtick_10">
     <g id="line2d_19">
      <path d="M 710.350937 463.3 
L 710.350937 89.4 
" clip-path="url(#p0dc30eab3b)" style="fill: none; stroke: #ffffff; stroke-opacity: 0.3; stroke-width: 0.75; stroke-linecap: square"/>
     </g>
     <g id="line2d_20">
      <g>
       <use xlink:href="#m8b9d8cc35f" x="710.350937" y="463.3" style="stroke: #000000; stroke-width: 0.8"/>
      </g>
     </g>
     <g id="text_10">
      <text style="font-weight: 600; font-size: 24px; font-family: 'Montserrat'; fill: #767676" transform="translate(716.926562 597.425) rotate(-90)">01-10-2023</text>
     </g>
    </g>
    <g id="xtick_11">
     <g id="line2d_21">
      <path d="M 774.356562 463.3 
L 774.356562 89.4 
" clip-path="url(#p0dc30eab3b)" style="fill: none; stroke: #ffffff; stroke-opacity: 0.3; stroke-width: 0.75; stroke-linecap: square"/>
     </g>
     <g id="line2d_22">
      <g>
       <use xlink:href="#m8b9d8cc35f" x="774.356562" y="463.3" style="stroke: #000000; stroke-width: 0.8"/>
      </g>
     </g>
     <g id="text_11">
      <text style="font-weight: 600; font-size: 24px; font-family: 'Montserrat'; fill: #767676" transform="translate(780.932187 590.41625) rotate(-90)">01-11-2023</text>
     </g>
    </g>
    <g id="xtick_12">
     <g id="line2d_23">
      <path d="M 838.362187 463.3 
L 838.362187 89.4 
" clip-path="url(#p0dc30eab3b)" style="fill: none; stroke: #ffffff; stroke-opacity: 0.3; stroke-width: 0.75; stroke-linecap: square"/>
     </g>
     <g id="line2d_24">
      <g>
       <use xlink:href="#m8b9d8cc35f" x="838.362187" y="463.3" style="stroke: #000000; stroke-width: 0.8"/>
      </g>
     </g>
     <g id="text_12">
      <text style="font-weight: 600; font-size: 24px; font-family: 'Montserrat'; fill: #767676" transform="translate(844.937812 595.2425) rotate(-90)">01-12-2023</text>
     </g>
    </g>
    <g id="text_13">
     <text style="font-weight: 500; font-size: 24px; font-family: 'Montserrat'; text-anchor: middle" x="486.33125" y="638.38875" transform="rotate(-0 486.33125 638.38875)">Fecha</text>
    </g>
   </g>
   <g id="matplotlib.axis_2">
    <g id="ytick_1">
     <g id="line2d_25">
      <path d="M 102.2975 463.3 
L 870.365 463.3 
" clip-path="url(#p0dc30eab3b)" style="fill: none; stroke: #ffffff; stroke-opacity: 0.8; stroke-width: 1.25; stroke-linecap: square"/>
     </g>
     <g id="line2d_26">
      <defs>
       <path id="m515a7f3f1a" d="M 0 0 
L -3.5 0 
" style="stroke: #000000; stroke-width: 0.8"/>
      </defs>
      <g>
       <use xlink:href="#m515a7f3f1a" x="102.2975" y="463.3" style="stroke: #000000; stroke-width: 0.8"/>
      </g>
     </g>
     <g id="text_14">
      <text style="font-weight: 500; font-size: 24px; font-family: 'Montserrat'; text-anchor: end; fill: #767676" x="95.2975" y="472.204375" transform="rotate(-0 95.2975 472.204375)">0%</text>
     </g>
    </g>
    <g id="ytick_2">
     <g id="line2d_27">
      <path d="M 102.2975 374.27619 
L 870.365 374.27619 
" clip-path="url(#p0dc30eab3b)" style="fill: none; stroke: #ffffff; stroke-opacity: 0.8; stroke-width: 1.25; stroke-linecap: square"/>
     </g>
     <g id="line2d_28">
      <g>
       <use xlink:href="#m515a7f3f1a" x="102.2975" y="374.27619" style="stroke: #000000; stroke-width: 0.8"/>
      </g>
     </g>
     <g id="text_15">
      <text style="font-weight: 500; font-size: 24px; font-family: 'Montserrat'; text-anchor: end; fill: #767676" x="95.2975" y="383.180565" transform="rotate(-0 95.2975 383.180565)">25%</text>
     </g>
    </g>
    <g id="ytick_3">
     <g id="line2d_29">
      <path d="M 102.2975 285.252381 
L 870.365 285.252381 
" clip-path="url(#p0dc30eab3b)" style="fill: none; stroke: #ffffff; stroke-opacity: 0.8; stroke-width: 1.25; stroke-linecap: square"/>
     </g>
     <g id="line2d_30">
      <g>
       <use xlink:href="#m515a7f3f1a" x="102.2975" y="285.252381" style="stroke: #000000; stroke-width: 0.8"/>
      </g>
     </g>
     <g id="text_16">
      <text style="font-weight: 500; font-size: 24px; font-family: 'Montserrat'; text-anchor: end; fill: #767676" x="95.2975" y="294.156756" transform="rotate(-0 95.2975 294.156756)">50%</text>
     </g>
    </g>
    <g id="ytick_4">
     <g id="line2d_31">
      <path d="M 102.2975 196.228571 
L 870.365 196.228571 
" clip-path="url(#p0dc30eab3b)" style="fill: none; stroke: #ffffff; stroke-opacity: 0.8; stroke-width: 1.25; stroke-linecap: square"/>
     </g>
     <g id="line2d_32">
      <g>
       <use xlink:href="#m515a7f3f1a" x="102.2975" y="196.228571" style="stroke: #000000; stroke-width: 0.8"/>
      </g>
     </g>
     <g id="text_17">
      <text style="font-weight: 500; font-size: 24px; font-family: 'Montserrat'; text-anchor: end; fill: #767676" x="95.2975" y="205.132946" transform="rotate(-0 95.2975 205.132946)">75%</text>
     </g>
    </g>
    <g id="ytick_5">
     <g id="line2d_33">
      <path d="M 102.2975 107.204762 
L 870.365 107.204762 
" clip-path="url(#p0dc30eab3b)" style="fill: none; stroke: #ffffff; stroke-opacity: 0.8; stroke-width: 1.25; stroke-linecap: square"/>
     </g>
     <g id="line2d_34">
      <g>
       <use xlink:href="#m515a7f3f1a" x="102.2975" y="107.204762" style="stroke: #000000; stroke-width: 0.8"/>
      </g>
     </g>
     <g id="text_18">
      <text style="font-weight: 500; font-size: 24px; font-family: 'Montserrat'; text-anchor: end; fill: #767676" x="95.2975" y="116.109137" transform="rotate(-0 95.2975 116.109137)">100%</text>
     </g>
    </g>
    <g id="text_19">
     <text style="font-weight: 500; font-size: 24px; font-family: 'Montserrat'; text-anchor: middle" x="25.36875" y="276.35" transform="rotate(-90 25.36875 276.35)">Porcentaje</text>
    </g>
   </g>
   <g id="patch_3">
    <path d="M 102.2975 463.3 
L 870.365 463.3 
" style="fill: none; stroke: #000000; stroke-width: 2; stroke-linejoin: miter; stroke-linecap: square"/>
   </g>
   <g id="text_20">
    <g id="patch_4">
     <path d="M 186.145 431.246652 
L 210.466875 431.246652 
Q 230.466875 431.246652 230.466875 411.246652 
L 230.466875 408.524777 
Q 230.466875 388.524777 210.466875 388.524777 
L 186.145 388.524777 
Q 166.145 388.524777 166.145 408.524777 
L 166.145 411.246652 
Q 166.145 431.246652 186.145 431.246652 
z
" style="fill: #ffffff; stroke: #215f53; stroke-width: 1.8; stroke-linejoin: miter"/>
    </g>
    <text style="font-weight: 500; font-size: 20px; font-family: 'Montserrat'; text-anchor: middle; fill: #767676" x="198.305937" y="415.365402" transform="rotate(-0 198.305937 415.365402)">6.57</text>
   </g>
   <g id="text_21">
    <g id="patch_5">
     <path d="M 476.45 306.613318 
L 496.2125 306.613318 
Q 516.2125 306.613318 516.2125 286.613318 
L 516.2125 283.891443 
Q 516.2125 263.891443 496.2125 263.891443 
L 476.45 263.891443 
Q 456.45 263.891443 456.45 283.891443 
L 456.45 286.613318 
Q 456.45 306.613318 476.45 306.613318 
z
" style="fill: #ffffff; stroke: #7570b3; stroke-width: 1.8; stroke-linejoin: miter"/>
    </g>
    <text style="font-weight: 500; font-size: 20px; font-family: 'Montserrat'; text-anchor: middle; fill: #767676" x="486.33125" y="290.732068" transform="rotate(-0 486.33125 290.732068)">2.91</text>
   </g>
   <g id="text_22">
    <g id="patch_6">
     <path d="M 762.864375 181.979985 
L 785.84875 181.979985 
Q 805.84875 181.979985 805.84875 161.979985 
L 805.84875 159.25811 
Q 805.84875 139.25811 785.84875 139.25811 
L 762.864375 139.25811 
Q 742.864375 139.25811 742.864375 159.25811 
L 742.864375 161.979985 
Q 742.864375 181.979985 762.864375 181.979985 
z
" style="fill: #ffffff; stroke: #c7eae5; stroke-width: 1.8; stroke-linejoin: miter"/>
    </g>
    <text style="font-weight: 500; font-size: 20px; font-family: 'Montserrat'; text-anchor: middle; fill: #767676" x="774.356562" y="166.098735" transform="rotate(-0 774.356562 166.098735)">2.52</text>
   </g>
  </g>
  <g id="axes_2">
   <g id="patch_7">
    <path d="M 881.165 463.3 
L 1137.1875 463.3 
L 1137.1875 89.4 
L 881.165 89.4 
z
" style="fill: #ffffff"/>
   </g>
   <g id="patch_8">
    <path d="M 945.170625 463.3 
L 1073.181875 463.3 
L 1073.181875 264.528061 
L 945.170625 264.528061 
z
" clip-path="url(#p9ef274161d)" style="fill: #215f53; stroke: #ffffff; stroke-width: 0.5; stroke-linejoin: miter"/>
   </g>
   <g id="patch_9">
    <path d="M 945.170625 264.528061 
L 1073.181875 264.528061 
L 1073.181875 118.224141 
L 945.170625 118.224141 
z
" clip-path="url(#p9ef274161d)" style="fill: #7570b3; stroke: #ffffff; stroke-width: 0.5; stroke-linejoin: miter"/>
   </g>
   <g id="patch_10">
    <path d="M 945.170625 118.224141 
L 1073.181875 118.224141 
L 1073.181875 89.4 
L 945.170625 89.4 
z
" clip-path="url(#p9ef274161d)" style="fill: #c7eae5; stroke: #ffffff; stroke-width: 0.5; stroke-linejoin: miter"/>
   </g>
   <g id="matplotlib.axis_3"/>
   <g id="matplotlib.axis_4"/>
   <g id="text_23">
    <text style="font-weight: 500; font-size: 20px; font-family: 'Montserrat'; text-anchor: middle; fill: #ffffff" x="1009.17625" y="369.393718" transform="rotate(-0 1009.17625 369.393718)">53.2%</text>
   </g>
   <g id="text_24">
    <text style="font-weight: 500; font-size: 20px; font-family: 'Montserrat'; text-anchor: middle; fill: #ffffff" x="1009.17625" y="196.855789" transform="rotate(-0 1009.17625 196.855789)">39.1%</text>
   </g>
   <g id="text_25">
    <text style="font-weight: 500; font-size: 20px; font-family: 'Montserrat'; text-anchor: middle; fill: #ffffff" x="1009.17625" y="109.291758" transform="rotate(-0 1009.17625 109.291758)">7.7%</text>
   </g>
  </g>
  <g id="legend_1">
   <g id="patch_11">
    <path d="M 187.957031 41.460937 
L 247.957031 41.460937 
L 247.957031 20.460937 
L 187.957031 20.460937 
z
" style="fill: #215f53"/>
   </g>
   <g id="text_26">
    <text style="font-weight: 500; font-size: 30px; font-family: 'Montserrat'; text-anchor: start" x="271.957031" y="41.460937" transform="rotate(-0 271.957031 41.460937)">Comisiones</text>
   </g>
   <g id="patch_12">
    <path d="M 509.046094 41.460937 
L 569.046094 41.460937 
L 569.046094 20.460937 
L 509.046094 20.460937 
z
" style="fill: #7570b3"/>
   </g>
   <g id="text_27">
    <text style="font-weight: 500; font-size: 30px; font-family: 'Montserrat'; text-anchor: start" x="593.046094" y="41.460937" transform="rotate(-0 593.046094 41.460937)">Fiscalas</text>
   </g>
   <g id="patch_13">
    <path d="M 780.274219 41.460937 
L 840.274219 41.460937 
L 840.274219 20.460937 
L 780.274219 20.460937 
z
" style="fill: #c7eae5"/>
   </g>
   <g id="text_28">
    <text style="font-weight: 500; font-size: 30px; font-family: 'Montserrat'; text-anchor: start" x="864.274219" y="41.460937" transform="rotate(-0 864.274219 41.460937)">Portal</text>
   </g>
  </g>
 </g>
 <defs>
  <clipPath id="p0dc30eab3b">
   <rect x="102.2975" y="89.4" width="768.0675" height="373.9"/>
  </clipPath>
  <clipPath id="p9ef274161d">
   <rect x="881.165" y="89.4" width="256.0225" height="373.9"/>
  </clipPath>
 </defs>
</svg>
