<?xml version="1.0" encoding="UTF-8"?>
<!DOCTYPE svg  PUBLIC '-//W3C//DTD SVG 1.1//EN'  'http://www.w3.org/Graphics/SVG/1.1/DTD/svg11.dtd'>
<svg width="1144.4pt" height="568.05pt" version="1.1" viewBox="0 0 1144.4 568.05" xmlns="http://www.w3.org/2000/svg" xmlns:xlink="http://www.w3.org/1999/xlink">
 <defs>
  <style type="text/css">*{stroke-linejoin: round; stroke-linecap: butt}</style>
 </defs>
 <path d="m0 568.05h1144.4v-568.05h-1144.4z" fill="#fff"/>
 <path d="m102.3 381.1h768.07v-373.9h-768.07z" fill="#fff"/>
 <path d="m134.3 129.25v251.85h2.3547 2.3547 2.3547 2.3547 2.3547 2.3547 2.3547 2.3547 2.3547 2.3547 2.3547 2.3547 2.3547 2.3547 2.3547 2.3547 2.3547 2.3547 2.3547 2.3547 2.3547 2.3547 2.3547 2.3547 2.3547 2.3547 2.3547 2.3547 2.3547 2.3547 2.3547 2.3547 2.3547 2.3547 2.3547 2.3547 2.3547 2.3547 2.3547 2.3547 2.3547 2.3547 2.3547 2.3547 2.3547 2.3547 2.3547 2.3547 2.3547 2.3547 2.3547 2.3547 2.3547 2.3547 2.3547 2.3547 2.3547 2.3547 2.3547 2.3547 2.3547 2.3547 2.3547 2.3547 2.3547 2.3547 2.3547 2.3547 2.3547 2.3547 2.3547 2.3547 2.3547 2.3547 2.3547 2.3547 2.3547 2.3547 2.3547 2.3547 2.3547 2.3547 2.3547 2.3547 2.3547 2.3547 2.3547 2.3547 2.3547 2.3547 2.3547 2.3547 2.3547 2.3547 2.3547 2.3547 2.3547 2.3547 2.3547 2.3547 2.3547 2.3547 2.3547 2.3547 2.3547 2.3547 2.3547 2.3547 2.3547 2.3547 2.3547 2.3547 2.3547 2.3547 2.3547 2.3547 2.3547 2.3547 2.3547 2.3547 2.3547 2.3547 2.3547 2.3547 2.3547 2.3547 2.3547 2.3547 2.3547 2.3547 2.3547 2.3547 2.3547 2.3547 2.3547 2.3547 2.3547 2.3547 2.3547 2.3547 2.3547 2.3547 2.3547 2.3547 2.3547 2.3547 2.3547 2.3547 2.3547 2.3547 2.3547 2.3547 2.3547 2.3547 2.3547 2.3547 2.3547 2.3547 2.3547 2.3547 2.3547 2.3547 2.3547 2.3547 2.3547 2.3547 2.3547 2.3547 2.3547 2.3547 2.3547 2.3547 2.3547 2.3547 2.3547 2.3547 2.3547 2.3547 2.3547 2.3547 2.3547 2.3547 2.3547 2.3547 2.3547 2.3547 2.3547 2.3547 2.3547 2.3547 2.3547 2.3547 2.3547 2.3547 2.3547 2.3547 2.3547 2.3547 2.3547 2.3547 2.3547 2.3547 2.3547 2.3547 2.3547 2.3547 2.3547 2.3547 2.3547 2.3547 2.3547 2.3547 2.3547 2.3547 2.3547 2.3547 2.3547 2.3547 2.3547 2.3547 2.3547 2.3547 2.3547 2.3547 2.3547 2.3547 2.3547 2.3547 2.3547 2.3547 2.3547 2.3547 2.3547 2.3547 2.3547 2.3547 2.3547 2.3547 2.3547 2.3547 2.3547 2.3547 2.3547 2.3547 2.3547 2.3547 2.3547 2.3547 2.3547 2.3547 2.3547 2.3547 2.3547 2.3547 2.3547 2.3547 2.3547 2.3547 2.3547 2.3547 2.3547 2.3547 2.3547 2.3547 2.3547 2.3547 2.3547 2.3547 2.3547 2.3547 2.3547 2.3547 2.3547 2.3547 2.3547 2.3547 2.3547 2.3547 2.3547 2.3547 2.3547 2.3547 2.3547 2.3547 2.3547 2.3547 2.3547 2.3547 2.3547 2.3547 2.3547 2.3547 2.3547 2.3547 2.3547 2.3547 2.3547 2.3547 2.3547v-205.6l-2.3547 11.649-2.3547 10.689-2.3547 9.7595-2.3547 8.8592-2.3547 7.9885-2.3547 7.1473-2.3547 6.3357-2.3547 5.5537-2.3547 4.8012-2.3547 4.0783-2.3547 3.3849-2.3547 2.7211-2.3547 2.0868-2.3547 1.4821-2.3547 0.90698-2.3547 0.36139-2.3547-0.15464-2.3547-0.64112-2.3547-1.098-2.3547-1.5254-2.3547-1.9232-2.3547-2.2915-2.3547-2.6302-2.3547-2.9393-2.3547-3.2189-2.3547-3.4689-2.3547-3.6894-2.3547-3.8803-2.3547-4.0417-2.3547-4.1735-2.3547-4.2757-2.3547-4.3484-2.3547-4.3915-2.3547-4.4051-2.3547-4.3891-2.3547-4.3436-2.3547-4.2685-2.3547-4.1638-2.3547-4.0296-2.3547-3.8659-2.3547-3.6725-2.3547-3.4497-2.3547-3.1972-2.3547-2.9152-2.3547-2.6037-2.3547-2.2626-2.3547-1.8919-2.3547-1.4917-2.3547-1.062-2.3547-0.60264-2.3547-0.11376-2.3547 0.40468-2.3547 0.95268-2.3547 1.5302-2.3547 2.1341-2.3547 2.7218-2.3547 3.2638-2.3547 3.7595-2.3547 4.2088-2.3547 4.6118-2.3547 4.9684-2.3547 5.2786-2.3547 5.5425-2.3547 5.7601-2.3547 5.9313-2.3547 6.0561-2.3547 6.1346-2.3547 6.1668-2.3547 6.1526-2.3547 6.092-2.3547 5.9851-2.3547 5.8319-2.3547 5.6323-2.3547 5.3863-2.3547 5.094-2.3547 4.7554-2.3547 4.3703-2.3547 3.939-2.3547 3.4613-2.3547 2.9372-2.3547 2.3668-2.3547 1.7514-2.3547 1.1291-2.3547 0.54319-2.3547-0.004206-2.3547-0.51304-2.3547-0.98331-2.3547-1.415-2.3547-1.8082-2.3547-2.1628-2.3547-2.4788-2.3547-2.7563-2.3547-2.9952-2.3547-3.1955-2.3547-3.3573-2.3547-3.4805-2.3547-3.5652-2.3547-3.6113-2.3547-3.6188-2.3547-3.5878-2.3547-3.5182-2.3547-3.4101-2.3547-3.2634-2.3547-3.0781-2.3547-2.8543-2.3547-2.5919-2.3547-2.291-2.3547-1.9515-2.3547-1.5736-2.3547-1.1804-2.3547-0.8136-2.3547-0.4777-2.3547-0.1727-2.3547 0.10142-2.3547 0.34464-2.3547 0.55696-2.3547 0.73839-2.3547 0.88893-2.3547 1.0086-2.3547 1.0973-2.3547 1.1552-2.3547 1.1821-2.3547 1.1782-2.3547 1.1434-2.3547 1.0777-2.3547 0.98105-2.3547 0.85354-2.3547 0.69514-2.3547 0.50585-2.3547 0.28566-2.3547 0.034579-2.3547-0.2474-2.3547-0.56027-2.3547-0.90403-2.3547-1.2787-2.3547-1.6842-2.3547-2.1043-2.3547-2.4887-2.3547-2.8281-2.3547-3.1224-2.3547-3.3716-2.3547-3.5758-2.3547-3.7349-2.3547-3.8489-2.3547-3.9178-2.3547-3.9416-2.3547-3.9204-2.3547-3.8541-2.3547-3.7427-2.3547-3.5862-2.3547-3.3847-2.3547-3.1381-2.3547-2.8464-2.3547-2.5096-2.3547-2.1277-2.3547-1.7008-2.3547-1.2288-2.3547-0.71173-2.3547-0.14957-2.3547 0.45767-2.3547 1.11-2.3547 1.8074-2.3547 2.5498-2.3547 3.324-2.3547 4.0596-2.3547 4.7336-2.3547 5.3459-2.3547 5.8966-2.3547 6.3857-2.3547 6.8131-2.3547 7.1789-2.3547 7.4831-2.3547 7.7256-2.3547 7.9065-2.3547 8.0258-2.3547 8.0834-2.3547 8.0794-2.3547 8.0137-2.3547 7.8865-2.3547 7.6975-2.3547 7.447-2.3547 7.1348-2.3547 6.761-2.3547 6.3255-2.3547 5.8284-2.3547 5.2697-2.3547 4.6493-2.3547 3.9673-2.3547 3.2237-2.3547 2.4184-2.3547 1.5584-2.3547 0.7085-2.3547-0.095743-2.3547-0.85397-2.3547-1.5662-2.3547-2.2324-2.3547-2.8526-2.3547-3.4267-2.3547-3.9549-2.3547-4.437-2.3547-4.8732-2.3547-5.2633-2.3547-5.6074-2.3547-5.9055-2.3547-6.1576-2.3547-6.3636-2.3547-6.5237-2.3547-6.6377-2.3547-6.7057-2.3547-6.7277-2.3547-6.7037-2.3547-6.6337-2.3547-6.5177-2.3547-6.3556-2.3547-6.1475-2.3547-5.8935-2.3547-5.5934-2.3547-5.2486-2.3547-4.8842-2.3547-4.5224-2.3547-4.1641-2.3547-3.8091-2.3547-3.4575-2.3547-3.1093-2.3547-2.7645-2.3547-2.4231-2.3547-2.085-2.3547-1.7504-2.3547-1.4192-2.3547-1.0913-2.3547-0.7669-2.3547-0.44584-2.3547-0.12819-2.3547 0.18608-2.3547 0.49695-2.3547 0.80443-2.3547 1.1085-2.3547 1.4092-2.3547 1.7065-2.3547 2.0004-2.3547 2.2909-2.3547 2.578-2.3547 2.8618-2.3547 3.1421-2.3547 3.4188-2.3547 3.6836-2.3547 3.9243-2.3547 4.1401-2.3547 4.3309-2.3547 4.4967-2.3547 4.6376-2.3547 4.7535-2.3547 4.8445-2.3547 4.9104-2.3547 4.9514-2.3547 4.9675-2.3547 4.9585-2.3547 4.9246-2.3547 4.8658-2.3547 4.782-2.3547 4.6732-2.3547 4.5394-2.3547 4.3807-2.3547 4.197-2.3547 3.9884-2.3547 3.7547-2.3547 3.4962-2.3547 3.2126-2.3547 2.9041-2.3547 2.5706-2.3547 2.2122-2.3547 1.8287-2.3547 1.4204-2.3547 0.98702-2.3547 0.52871-2.3547 0.045431-2.3547-0.46281-2.3547-0.99602-2.3547-1.5542-2.3547-2.1373-2.3547-2.7454-2.3547-3.3785-2.3547-4.0366-2.3547-4.7196-2.3547-5.4275-2.3547-6.1605-2.3547-6.9184-2.3547-7.7012-2.3547-8.5091-2.3547-9.3419-2.3547-10.2-2.3547-11.082-2.3547-11.99-2.3547-12.923-2.3547-13.88-2.3547-14.863-2.3547-15.87-2.3547-16.903-2.3547-17.961z" clip-path="url(#a)" fill="#215f53"/>
 <path d="m134.3 117.51v11.746l2.3547 17.961 2.3547 16.903 2.3547 15.87 2.3547 14.863 2.3547 13.88 2.3547 12.923 2.3547 11.99 2.3547 11.082 2.3547 10.2 2.3547 9.3419 2.3547 8.5091 2.3547 7.7012 2.3547 6.9184 2.3547 6.1605 2.3547 5.4275 2.3547 4.7196 2.3547 4.0366 2.3547 3.3785 2.3547 2.7454 2.3547 2.1373 2.3547 1.5542 2.3547 0.99602 2.3547 0.46281 2.3547-0.045431 2.3547-0.52871 2.3547-0.98702 2.3547-1.4204 2.3547-1.8287 2.3547-2.2122 2.3547-2.5706 2.3547-2.9041 2.3547-3.2126 2.3547-3.4962 2.3547-3.7547 2.3547-3.9884 2.3547-4.197 2.3547-4.3807 2.3547-4.5394 2.3547-4.6732 2.3547-4.782 2.3547-4.8658 2.3547-4.9246 2.3547-4.9585 2.3547-4.9675 2.3547-4.9514 2.3547-4.9104 2.3547-4.8445 2.3547-4.7535 2.3547-4.6376 2.3547-4.4967 2.3547-4.3309 2.3547-4.1401 2.3547-3.9243 2.3547-3.6836 2.3547-3.4188 2.3547-3.1421 2.3547-2.8618 2.3547-2.578 2.3547-2.2909 2.3547-2.0004 2.3547-1.7065 2.3547-1.4092 2.3547-1.1085 2.3547-0.80443 2.3547-0.49695 2.3547-0.18608 2.3547 0.12819 2.3547 0.44584 2.3547 0.7669 2.3547 1.0913 2.3547 1.4192 2.3547 1.7504 2.3547 2.085 2.3547 2.4231 2.3547 2.7645 2.3547 3.1093 2.3547 3.4575 2.3547 3.8091 2.3547 4.1641 2.3547 4.5224 2.3547 4.8842 2.3547 5.2486 2.3547 5.5934 2.3547 5.8935 2.3547 6.1475 2.3547 6.3556 2.3547 6.5177 2.3547 6.6337 2.3547 6.7037 2.3547 6.7277 2.3547 6.7057 2.3547 6.6377 2.3547 6.5237 2.3547 6.3636 2.3547 6.1576 2.3547 5.9055 2.3547 5.6074 2.3547 5.2633 2.3547 4.8732 2.3547 4.437 2.3547 3.9549 2.3547 3.4267 2.3547 2.8526 2.3547 2.2324 2.3547 1.5662 2.3547 0.85397 2.3547 0.095743 2.3547-0.7085 2.3547-1.5584 2.3547-2.4184 2.3547-3.2237 2.3547-3.9673 2.3547-4.6493 2.3547-5.2697 2.3547-5.8284 2.3547-6.3255 2.3547-6.761 2.3547-7.1348 2.3547-7.447 2.3547-7.6975 2.3547-7.8865 2.3547-8.0137 2.3547-8.0794 2.3547-8.0834 2.3547-8.0258 2.3547-7.9065 2.3547-7.7256 2.3547-7.4831 2.3547-7.1789 2.3547-6.8131 2.3547-6.3857 2.3547-5.8966 2.3547-5.3459 2.3547-4.7336 2.3547-4.0596 2.3547-3.324 2.3547-2.5498 2.3547-1.8074 2.3547-1.11 2.3547-0.45767 2.3547 0.14957 2.3547 0.71173 2.3547 1.2288 2.3547 1.7008 2.3547 2.1277 2.3547 2.5096 2.3547 2.8464 2.3547 3.1381 2.3547 3.3847 2.3547 3.5862 2.3547 3.7427 2.3547 3.8541 2.3547 3.9204 2.3547 3.9416 2.3547 3.9178 2.3547 3.8489 2.3547 3.7349 2.3547 3.5758 2.3547 3.3716 2.3547 3.1224 2.3547 2.8281 2.3547 2.4887 2.3547 2.1043 2.3547 1.6842 2.3547 1.2787 2.3547 0.90403 2.3547 0.56027 2.3547 0.2474 2.3547-0.034579 2.3547-0.28566 2.3547-0.50585 2.3547-0.69514 2.3547-0.85354 2.3547-0.98105 2.3547-1.0777 2.3547-1.1434 2.3547-1.1782 2.3547-1.1821 2.3547-1.1552 2.3547-1.0973 2.3547-1.0086 2.3547-0.88893 2.3547-0.73839 2.3547-0.55696 2.3547-0.34464 2.3547-0.10142 2.3547 0.1727 2.3547 0.4777 2.3547 0.8136 2.3547 1.1804 2.3547 1.5736 2.3547 1.9515 2.3547 2.291 2.3547 2.5919 2.3547 2.8543 2.3547 3.0781 2.3547 3.2634 2.3547 3.4101 2.3547 3.5182 2.3547 3.5878 2.3547 3.6188 2.3547 3.6113 2.3547 3.5652 2.3547 3.4805 2.3547 3.3573 2.3547 3.1955 2.3547 2.9952 2.3547 2.7563 2.3547 2.4788 2.3547 2.1628 2.3547 1.8082 2.3547 1.415 2.3547 0.98331 2.3547 0.51304 2.3547 0.004206 2.3547-0.54319 2.3547-1.1291 2.3547-1.7514 2.3547-2.3668 2.3547-2.9372 2.3547-3.4613 2.3547-3.939 2.3547-4.3703 2.3547-4.7554 2.3547-5.094 2.3547-5.3863 2.3547-5.6323 2.3547-5.8319 2.3547-5.9851 2.3547-6.092 2.3547-6.1526 2.3547-6.1668 2.3547-6.1346 2.3547-6.0561 2.3547-5.9313 2.3547-5.7601 2.3547-5.5425 2.3547-5.2786 2.3547-4.9684 2.3547-4.6118 2.3547-4.2088 2.3547-3.7595 2.3547-3.2638 2.3547-2.7218 2.3547-2.1341 2.3547-1.5302 2.3547-0.95268 2.3547-0.40468 2.3547 0.11376 2.3547 0.60264 2.3547 1.062 2.3547 1.4917 2.3547 1.8919 2.3547 2.2626 2.3547 2.6037 2.3547 2.9152 2.3547 3.1972 2.3547 3.4497 2.3547 3.6725 2.3547 3.8659 2.3547 4.0296 2.3547 4.1638 2.3547 4.2685 2.3547 4.3436 2.3547 4.3891 2.3547 4.4051 2.3547 4.3915 2.3547 4.3484 2.3547 4.2757 2.3547 4.1735 2.3547 4.0417 2.3547 3.8803 2.3547 3.6894 2.3547 3.4689 2.3547 3.2189 2.3547 2.9393 2.3547 2.6302 2.3547 2.2915 2.3547 1.9232 2.3547 1.5254 2.3547 1.098 2.3547 0.64112 2.3547 0.15464 2.3547-0.36139 2.3547-0.90698 2.3547-1.4821 2.3547-2.0868 2.3547-2.7211 2.3547-3.3849 2.3547-4.0783 2.3547-4.8012 2.3547-5.5537 2.3547-6.3357 2.3547-7.1473 2.3547-7.9885 2.3547-8.8592 2.3547-9.7595 2.3547-10.689 2.3547-11.649v-49.561l-2.3547 1.1979-2.3547 1.0485-2.3547 0.90269-2.3547 0.76037-2.3547 0.62155-2.3547 0.48625-2.3547 0.35446-2.3547 0.22618-2.3547 0.10141-2.3547-0.019844-2.3547-0.13759-2.3547-0.25183-2.3547-0.36255-2.3547-0.46976-2.3547-0.57347-2.3547-0.67366-2.3547-0.77034-2.3547-0.86351-2.3547-0.95317-2.3547-1.0393-2.3547-1.122-2.3547-1.2011-2.3547-1.2767-2.3547-1.3488-2.3547-1.4174-2.3547-1.4825-2.3547-1.544-2.3547-1.6021-2.3547-1.6566-2.3547-1.7077-2.3547-1.7552-2.3547-1.7992-2.3547-1.8397-2.3547-1.8767-2.3547-1.9102-2.3547-1.9402-2.3547-1.9666-2.3547-1.9896-2.3547-2.009-2.3547-2.025-2.3547-2.0374-2.3547-2.0463-2.3547-2.0517-2.3547-2.0536-2.3547-2.0519-2.3547-2.0468-2.3547-2.0382-2.3547-2.026-2.3547-2.0103-2.3547-1.9911-2.3547-1.9684-2.3547-1.9422-2.3547-1.9125-2.3547-1.8793-2.3547-1.8425-2.3547-1.8014-2.3547-1.7553-2.3547-1.7044-2.3547-1.6486-2.3547-1.5879-2.3547-1.5223-2.3547-1.4518-2.3547-1.3764-2.3547-1.2961-2.3547-1.211-2.3547-1.1209-2.3547-1.0259-2.3547-0.92606-2.3547-0.82131-2.3547-0.71166-2.3547-0.59711-2.3547-0.47767-2.3547-0.35334-2.3547-0.22411-2.3547-0.089987-2.3547 0.04903-2.3547 0.19294-2.3547 0.34175-2.3547 0.49545-2.3547 0.65404-2.3547 0.81753-2.3547 0.98575-2.3547 1.1539-2.3547 1.3168-2.3547 1.4739-2.3547 1.6255-2.3547 1.7713-2.3547 1.9115-2.3547 2.0461-2.3547 2.175-2.3547 2.2982-2.3547 2.4158-2.3547 2.5278-2.3547 2.634-2.3547 2.7346-2.3547 2.8296-2.3547 2.9189-2.3547 3.0026-2.3547 3.0806-2.3547 3.1529-2.3547 3.2196-2.3547 3.2807-2.3547 3.336-2.3547 3.3858-2.3547 3.4298-2.3547 3.4683-2.3547 3.501-2.3547 3.5281-2.3547 3.5495-2.3547 3.5612-2.3547 3.5555-2.3547 3.5318-2.3547 3.4901-2.3547 3.4303-2.3547 3.3524-2.3547 3.2565-2.3547 3.1425-2.3547 3.0105-2.3547 2.8604-2.3547 2.6923-2.3547 2.5061-2.3547 2.3018-2.3547 2.0795-2.3547 1.8392-2.3547 1.5808-2.3547 1.3043-2.3547 1.0098-2.3547 0.6972-2.3547 0.36657-2.3547 0.017878-2.3547-0.34886-2.3547-0.73366-2.3547-1.1365-2.3547-1.5574-2.3547-1.9964-2.3547-2.4534-2.3547-2.9163-2.3547-3.3478-2.3547-3.741-2.3547-4.0958-2.3547-4.4121-2.3547-4.6901-2.3547-4.9297-2.3547-5.131-2.3547-5.2938-2.3547-5.4182-2.3547-5.5042-2.3547-5.5519-2.3547-5.5612-2.3547-5.532-2.3547-5.4645-2.3547-5.3586-2.3547-5.2143-2.3547-5.0316-2.3547-4.8105-2.3547-4.551-2.3547-4.2532-2.3547-3.9169-2.3547-3.5423-2.3547-3.1293-2.3547-2.6778-2.3547-2.188-2.3547-1.6598-2.3547-1.1025-2.3547-0.56476-2.3547-0.062633-2.3547 0.4039-2.3547 0.83485-2.3547 1.2302-2.3547 1.5899-2.3547 1.9141-2.3547 2.2027-2.3547 2.4556-2.3547 2.673-2.3547 2.8548-2.3547 3.001-2.3547 3.1116-2.3547 3.1866-2.3547 3.226-2.3547 3.2298-2.3547 3.198-2.3547 3.1306-2.3547 3.0277-2.3547 2.8891-2.3547 2.7149-2.3547 2.5052-2.3547 2.2598-2.3547 1.9789-2.3547 1.6623-2.3547 1.3102-2.3547 0.92642-2.3547 0.54806-2.3547 0.19542-2.3547-0.13127-2.3547-0.43203-2.3547-0.70685-2.3547-0.95574-2.3547-1.1787-2.3547-1.3757-2.3547-1.5468-2.3547-1.6919-2.3547-1.8111-2.3547-1.9043-2.3547-1.9717-2.3547-2.013-2.3547-2.0285-2.3547-2.018-2.3547-1.9815-2.3547-1.9192-2.3547-1.8309-2.3547-1.7166-2.3547-1.5764-2.3547-1.4103-2.3547-1.2182-2.3547-1.0002-2.3547-0.75631-2.3547-0.48643-2.3547-0.19172-2.3547 0.10714-2.3547 0.3918-2.3547 0.66161-2.3547 0.91658-2.3547 1.1567-2.3547 1.382-2.3547 1.5924-2.3547 1.788-2.3547 1.9687-2.3547 2.1346-2.3547 2.2856-2.3547 2.4218-2.3547 2.5432-2.3547 2.6497-2.3547 2.7413-2.3547 2.8182-2.3547 2.8801-2.3547 2.9272-2.3547 2.9595-2.3547 2.9769-2.3547 2.9795-2.3547 2.9672-2.3547 2.9401-2.3547 2.8982-2.3547 2.8414-2.3547 2.7697-2.3547 2.6833-2.3547 2.5879-2.3547 2.4917-2.3547 2.3952-2.3547 2.2984-2.3547 2.2015-2.3547 2.1043-2.3547 2.0069-2.3547 1.9092-2.3547 1.8113-2.3547 1.7132-2.3547 1.6149-2.3547 1.5163-2.3547 1.4175-2.3547 1.3185-2.3547 1.2192-2.3547 1.1197-2.3547 1.02-2.3547 0.92-2.3547 0.81981-2.3547 0.71938-2.3547 0.61872-2.3547 0.51783-2.3547 0.41671-2.3547 0.31536-2.3547 0.21378-2.3547 0.11196-2.3547 0.009914-2.3547-0.092363-2.3547-0.19487-2.3547-0.29761-2.3547-0.40058-2.3547-0.50379-2.3547-0.60722-2.3547-0.71089-2.3547-0.81478-2.3547-0.91891-2.3547-1.0233-2.3547-1.1279-2.3547-1.2327-2.3547-1.3377-2.3547-1.443-2.3547-1.5485-2.3547-1.6543-2.3547-1.7603-2.3547-1.8665-2.3547-1.9729-2.3547-2.0796-2.3547-2.1865-2.3547-2.2936-2.3547-2.401-2.3547-2.5086-2.3547-2.6164-2.3547-2.7245-2.3547-2.8328z" clip-path="url(#a)" fill="#7570b3"/>
 <path d="m134.3 25.005v92.504l2.3547 2.8328 2.3547 2.7245 2.3547 2.6164 2.3547 2.5086 2.3547 2.401 2.3547 2.2936 2.3547 2.1865 2.3547 2.0796 2.3547 1.9729 2.3547 1.8665 2.3547 1.7603 2.3547 1.6543 2.3547 1.5485 2.3547 1.443 2.3547 1.3377 2.3547 1.2327 2.3547 1.1279 2.3547 1.0233 2.3547 0.91891 2.3547 0.81478 2.3547 0.71089 2.3547 0.60722 2.3547 0.50379 2.3547 0.40058 2.3547 0.29761 2.3547 0.19487 2.3547 0.092363 2.3547-0.009914 2.3547-0.11196 2.3547-0.21378 2.3547-0.31536 2.3547-0.41671 2.3547-0.51783 2.3547-0.61872 2.3547-0.71938 2.3547-0.81981 2.3547-0.92 2.3547-1.02 2.3547-1.1197 2.3547-1.2192 2.3547-1.3185 2.3547-1.4175 2.3547-1.5163 2.3547-1.6149 2.3547-1.7132 2.3547-1.8113 2.3547-1.9092 2.3547-2.0069 2.3547-2.1043 2.3547-2.2015 2.3547-2.2984 2.3547-2.3952 2.3547-2.4917 2.3547-2.5879 2.3547-2.6833 2.3547-2.7697 2.3547-2.8414 2.3547-2.8982 2.3547-2.9401 2.3547-2.9672 2.3547-2.9795 2.3547-2.9769 2.3547-2.9595 2.3547-2.9272 2.3547-2.8801 2.3547-2.8182 2.3547-2.7413 2.3547-2.6497 2.3547-2.5432 2.3547-2.4218 2.3547-2.2856 2.3547-2.1346 2.3547-1.9687 2.3547-1.788 2.3547-1.5924 2.3547-1.382 2.3547-1.1567 2.3547-0.91658 2.3547-0.66161 2.3547-0.3918 2.3547-0.10714 2.3547 0.19172 2.3547 0.48643 2.3547 0.75631 2.3547 1.0002 2.3547 1.2182 2.3547 1.4103 2.3547 1.5764 2.3547 1.7166 2.3547 1.8309 2.3547 1.9192 2.3547 1.9815 2.3547 2.018 2.3547 2.0285 2.3547 2.013 2.3547 1.9717 2.3547 1.9043 2.3547 1.8111 2.3547 1.6919 2.3547 1.5468 2.3547 1.3757 2.3547 1.1787 2.3547 0.95574 2.3547 0.70685 2.3547 0.43203 2.3547 0.13127 2.3547-0.19542 2.3547-0.54806 2.3547-0.92642 2.3547-1.3102 2.3547-1.6623 2.3547-1.9789 2.3547-2.2598 2.3547-2.5052 2.3547-2.7149 2.3547-2.8891 2.3547-3.0277 2.3547-3.1306 2.3547-3.198 2.3547-3.2298 2.3547-3.226 2.3547-3.1866 2.3547-3.1116 2.3547-3.001 2.3547-2.8548 2.3547-2.673 2.3547-2.4556 2.3547-2.2027 2.3547-1.9141 2.3547-1.5899 2.3547-1.2302 2.3547-0.83485 2.3547-0.4039 2.3547 0.062633 2.3547 0.56476 2.3547 1.1025 2.3547 1.6598 2.3547 2.188 2.3547 2.6778 2.3547 3.1293 2.3547 3.5423 2.3547 3.9169 2.3547 4.2532 2.3547 4.551 2.3547 4.8105 2.3547 5.0316 2.3547 5.2143 2.3547 5.3586 2.3547 5.4645 2.3547 5.532 2.3547 5.5612 2.3547 5.5519 2.3547 5.5042 2.3547 5.4182 2.3547 5.2938 2.3547 5.131 2.3547 4.9297 2.3547 4.6901 2.3547 4.4121 2.3547 4.0958 2.3547 3.741 2.3547 3.3478 2.3547 2.9163 2.3547 2.4534 2.3547 1.9964 2.3547 1.5574 2.3547 1.1365 2.3547 0.73366 2.3547 0.34886 2.3547-0.017878 2.3547-0.36657 2.3547-0.6972 2.3547-1.0098 2.3547-1.3043 2.3547-1.5808 2.3547-1.8392 2.3547-2.0795 2.3547-2.3018 2.3547-2.5061 2.3547-2.6923 2.3547-2.8604 2.3547-3.0105 2.3547-3.1425 2.3547-3.2565 2.3547-3.3524 2.3547-3.4303 2.3547-3.4901 2.3547-3.5318 2.3547-3.5555 2.3547-3.5612 2.3547-3.5495 2.3547-3.5281 2.3547-3.501 2.3547-3.4683 2.3547-3.4298 2.3547-3.3858 2.3547-3.336 2.3547-3.2807 2.3547-3.2196 2.3547-3.1529 2.3547-3.0806 2.3547-3.0026 2.3547-2.9189 2.3547-2.8296 2.3547-2.7346 2.3547-2.634 2.3547-2.5278 2.3547-2.4158 2.3547-2.2982 2.3547-2.175 2.3547-2.0461 2.3547-1.9115 2.3547-1.7713 2.3547-1.6255 2.3547-1.4739 2.3547-1.3168 2.3547-1.1539 2.3547-0.98575 2.3547-0.81753 2.3547-0.65404 2.3547-0.49545 2.3547-0.34175 2.3547-0.19294 2.3547-0.04903 2.3547 0.089987 2.3547 0.22411 2.3547 0.35334 2.3547 0.47767 2.3547 0.59711 2.3547 0.71166 2.3547 0.82131 2.3547 0.92606 2.3547 1.0259 2.3547 1.1209 2.3547 1.211 2.3547 1.2961 2.3547 1.3764 2.3547 1.4518 2.3547 1.5223 2.3547 1.5879 2.3547 1.6486 2.3547 1.7044 2.3547 1.7553 2.3547 1.8014 2.3547 1.8425 2.3547 1.8793 2.3547 1.9125 2.3547 1.9422 2.3547 1.9684 2.3547 1.9911 2.3547 2.0103 2.3547 2.026 2.3547 2.0382 2.3547 2.0468 2.3547 2.0519 2.3547 2.0536 2.3547 2.0517 2.3547 2.0463 2.3547 2.0374 2.3547 2.025 2.3547 2.009 2.3547 1.9896 2.3547 1.9666 2.3547 1.9402 2.3547 1.9102 2.3547 1.8767 2.3547 1.8397 2.3547 1.7992 2.3547 1.7552 2.3547 1.7077 2.3547 1.6566 2.3547 1.6021 2.3547 1.544 2.3547 1.4825 2.3547 1.4174 2.3547 1.3488 2.3547 1.2767 2.3547 1.2011 2.3547 1.122 2.3547 1.0393 2.3547 0.95317 2.3547 0.86351 2.3547 0.77034 2.3547 0.67366 2.3547 0.57347 2.3547 0.46976 2.3547 0.36255 2.3547 0.25183 2.3547 0.13759 2.3547 0.019844 2.3547-0.10141 2.3547-0.22618 2.3547-0.35446 2.3547-0.48625 2.3547-0.62155 2.3547-0.76037 2.3547-0.90269 2.3547-1.0485 2.3547-1.1979v-100.93h-2.3547-2.3547-2.3547-2.3547-2.3547-2.3547-2.3547-2.3547-2.3547-2.3547-2.3547-2.3547-2.3547-2.3547-2.3547-2.3547-2.3547-2.3547-2.3547-2.3547-2.3547-2.3547-2.3547-2.3547-2.3547-2.3547-2.3547-2.3547-2.3547-2.3547-2.3547-2.3547-2.3547-2.3547-2.3547-2.3547-2.3547-2.3547-2.3547-2.3547-2.3547-2.3547-2.3547-2.3547-2.3547-2.3547-2.3547-2.3547-2.3547-2.3547-2.3547-2.3547-2.3547-2.3547-2.3547-2.3547-2.3547-2.3547-2.3547-2.3547-2.3547-2.3547-2.3547-2.3547-2.3547-2.3547-2.3547-2.3547-2.3547-2.3547-2.3547-2.3547-2.3547-2.3547-2.3547-2.3547-2.3547-2.3547-2.3547-2.3547-2.3547-2.3547-2.3547-2.3547-2.3547-2.3547-2.3547-2.3547-2.3547-2.3547-2.3547-2.3547-2.3547-2.3547-2.3547-2.3547-2.3547-2.3547-2.3547-2.3547-2.3547-2.3547-2.3547-2.3547-2.3547-2.3547-2.3547-2.3547-2.3547-2.3547-2.3547-2.3547-2.3547-2.3547-2.3547-2.3547-2.3547-2.3547-2.3547-2.3547-2.3547-2.3547-2.3547-2.3547-2.3547-2.3547-2.3547-2.3547-2.3547-2.3547-2.3547-2.3547-2.3547-2.3547-2.3547-2.3547-2.3547-2.3547-2.3547-2.3547-2.3547-2.3547-2.3547-2.3547-2.3547-2.3547-2.3547-2.3547-2.3547-2.3547-2.3547-2.3547-2.3547-2.3547-2.3547-2.3547-2.3547-2.3547-2.3547-2.3547-2.3547-2.3547-2.3547-2.3547-2.3547-2.3547-2.3547-2.3547-2.3547-2.3547-2.3547-2.3547-2.3547-2.3547-2.3547-2.3547-2.3547-2.3547-2.3547-2.3547-2.3547-2.3547-2.3547-2.3547-2.3547-2.3547-2.3547-2.3547-2.3547-2.3547-2.3547-2.3547-2.3547-2.3547-2.3547-2.3547-2.3547-2.3547-2.3547-2.3547-2.3547-2.3547-2.3547-2.3547-2.3547-2.3547-2.3547-2.3547-2.3547-2.3547-2.3547-2.3547-2.3547-2.3547-2.3547-2.3547-2.3547-2.3547-2.3547-2.3547-2.3547-2.3547-2.3547-2.3547-2.3547-2.3547-2.3547-2.3547-2.3547-2.3547-2.3547-2.3547-2.3547-2.3547-2.3547-2.3547-2.3547-2.3547-2.3547-2.3547-2.3547-2.3547-2.3547-2.3547-2.3547-2.3547-2.3547-2.3547-2.3547-2.3547-2.3547-2.3547-2.3547-2.3547-2.3547-2.3547-2.3547-2.3547-2.3547-2.3547-2.3547-2.3547-2.3547-2.3547-2.3547-2.3547-2.3547-2.3547-2.3547-2.3547-2.3547-2.3547-2.3547-2.3547-2.3547-2.3547-2.3547-2.3547-2.3547-2.3547-2.3547-2.3547-2.3547-2.3547-2.3547-2.3547-2.3547-2.3547-2.3547-2.3547-2.3547-2.3547-2.3547-2.3547-2.3547-2.3547-2.3547-2.3547-2.3547z" clip-path="url(#a)" fill="#c7eae5"/>
 <path d="m134.3 381.1v-373.9" clip-path="url(#a)" fill="none" stroke="#fff" stroke-linecap="square" stroke-opacity=".3" stroke-width=".75"/>
 <defs>
  <path id="b" d="m0 0v3.5" stroke="#000" stroke-width=".8"/>
 </defs>
 <use x="134.300312" y="381.1" stroke="#000000" stroke-width=".8" xlink:href="#b"/>
 <text transform="translate(140.88 515.22) rotate(-90)" fill="#767676" font-family="'Montserrat'" font-size="24px" font-weight="600">01-01-2023</text>
 <path d="m198.31 381.1v-373.9" clip-path="url(#a)" fill="none" stroke="#fff" stroke-linecap="square" stroke-opacity=".3" stroke-width=".75"/>
 <use x="198.305937" y="381.1" stroke="#000000" stroke-width=".8" xlink:href="#b"/>
 <text transform="translate(204.88 520.05) rotate(-90)" fill="#767676" font-family="'Montserrat'" font-size="24px" font-weight="600">01-02-2023</text>
 <path d="m262.31 381.1v-373.9" clip-path="url(#a)" fill="none" stroke="#fff" stroke-linecap="square" stroke-opacity=".3" stroke-width=".75"/>
 <use x="262.311562" y="381.1" stroke="#000000" stroke-width=".8" xlink:href="#b"/>
 <text transform="translate(268.89 520.05) rotate(-90)" fill="#767676" font-family="'Montserrat'" font-size="24px" font-weight="600">01-03-2023</text>
 <path d="m326.32 381.1v-373.9" clip-path="url(#a)" fill="none" stroke="#fff" stroke-linecap="square" stroke-opacity=".3" stroke-width=".75"/>
 <use x="326.317187" y="381.1" stroke="#000000" stroke-width=".8" xlink:href="#b"/>
 <text transform="translate(332.89 522.38) rotate(-90)" fill="#767676" font-family="'Montserrat'" font-size="24px" font-weight="600">01-04-2023</text>
 <path d="m390.32 381.1v-373.9" clip-path="url(#a)" fill="none" stroke="#fff" stroke-linecap="square" stroke-opacity=".3" stroke-width=".75"/>
 <use x="390.322812" y="381.1" stroke="#000000" stroke-width=".8" xlink:href="#b"/>
 <text transform="translate(396.9 520.1) rotate(-90)" fill="#767676" font-family="'Montserrat'" font-size="24px" font-weight="600">01-05-2023</text>
 <path d="m454.33 381.1v-373.9" clip-path="url(#a)" fill="none" stroke="#fff" stroke-linecap="square" stroke-opacity=".3" stroke-width=".75"/>
 <use x="454.328437" y="381.1" stroke="#000000" stroke-width=".8" xlink:href="#b"/>
 <text transform="translate(460.9 521.13) rotate(-90)" fill="#767676" font-family="'Montserrat'" font-size="24px" font-weight="600">01-06-2023</text>
 <path d="m518.33 381.1v-373.9" clip-path="url(#a)" fill="none" stroke="#fff" stroke-linecap="square" stroke-opacity=".3" stroke-width=".75"/>
 <use x="518.334062" y="381.1" stroke="#000000" stroke-width=".8" xlink:href="#b"/>
 <text transform="translate(524.91 520.67) rotate(-90)" fill="#767676" font-family="'Montserrat'" font-size="24px" font-weight="600">01-07-2023</text>
 <path d="m582.34 381.1v-373.9" clip-path="url(#a)" fill="none" stroke="#fff" stroke-linecap="square" stroke-opacity=".3" stroke-width=".75"/>
 <use x="582.339687" y="381.1" stroke="#000000" stroke-width=".8" xlink:href="#b"/>
 <text transform="translate(588.92 521.73) rotate(-90)" fill="#767676" font-family="'Montserrat'" font-size="24px" font-weight="600">01-08-2023</text>
 <path d="m646.35 381.1v-373.9" clip-path="url(#a)" fill="none" stroke="#fff" stroke-linecap="square" stroke-opacity=".3" stroke-width=".75"/>
 <use x="646.345312" y="381.1" stroke="#000000" stroke-width=".8" xlink:href="#b"/>
 <text transform="translate(652.92 521.13) rotate(-90)" fill="#767676" font-family="'Montserrat'" font-size="24px" font-weight="600">01-09-2023</text>
 <path d="m710.35 381.1v-373.9" clip-path="url(#a)" fill="none" stroke="#fff" stroke-linecap="square" stroke-opacity=".3" stroke-width=".75"/>
 <use x="710.350937" y="381.1" stroke="#000000" stroke-width=".8" xlink:href="#b"/>
 <text transform="translate(716.93 515.22) rotate(-90)" fill="#767676" font-family="'Montserrat'" font-size="24px" font-weight="600">01-10-2023</text>
 <path d="m774.36 381.1v-373.9" clip-path="url(#a)" fill="none" stroke="#fff" stroke-linecap="square" stroke-opacity=".3" stroke-width=".75"/>
 <use x="774.356562" y="381.1" stroke="#000000" stroke-width=".8" xlink:href="#b"/>
 <text transform="translate(780.93 508.22) rotate(-90)" fill="#767676" font-family="'Montserrat'" font-size="24px" font-weight="600">01-11-2023</text>
 <path d="m838.36 381.1v-373.9" clip-path="url(#a)" fill="none" stroke="#fff" stroke-linecap="square" stroke-opacity=".3" stroke-width=".75"/>
 <use x="838.362187" y="381.1" stroke="#000000" stroke-width=".8" xlink:href="#b"/>
 <text transform="translate(844.94 513.04) rotate(-90)" fill="#767676" font-family="'Montserrat'" font-size="24px" font-weight="600">01-12-2023</text>
 <text transform="rotate(-0 486.33 556.19)" x="486.33125" y="556.18875" font-family="'Montserrat'" font-size="24px" font-weight="500" text-anchor="middle">Fecha</text>
 <path d="m102.3 381.1h768.07" clip-path="url(#a)" fill="none" stroke="#fff" stroke-linecap="square" stroke-opacity=".8" stroke-width="1.25"/>
 <defs>
  <path id="c" d="m0 0h-3.5" stroke="#000" stroke-width=".8"/>
 </defs>
 <use x="102.2975" y="381.1" stroke="#000000" stroke-width=".8" xlink:href="#c"/>
 <text transform="rotate(-0 95.298 390)" x="95.2975" y="390.004375" fill="#767676" font-family="'Montserrat'" font-size="24px" font-weight="500" text-anchor="end">0%</text>
 <path d="m102.3 292.08h768.07" clip-path="url(#a)" fill="none" stroke="#fff" stroke-linecap="square" stroke-opacity=".8" stroke-width="1.25"/>
 <use x="102.2975" y="292.07619" stroke="#000000" stroke-width=".8" xlink:href="#c"/>
 <text transform="rotate(-0 95.298 300.98)" x="95.2975" y="300.980565" fill="#767676" font-family="'Montserrat'" font-size="24px" font-weight="500" text-anchor="end">25%</text>
 <path d="m102.3 203.05h768.07" clip-path="url(#a)" fill="none" stroke="#fff" stroke-linecap="square" stroke-opacity=".8" stroke-width="1.25"/>
 <use x="102.2975" y="203.052381" stroke="#000000" stroke-width=".8" xlink:href="#c"/>
 <text transform="rotate(-0 95.298 211.96)" x="95.2975" y="211.956756" fill="#767676" font-family="'Montserrat'" font-size="24px" font-weight="500" text-anchor="end">50%</text>
 <path d="m102.3 114.03h768.07" clip-path="url(#a)" fill="none" stroke="#fff" stroke-linecap="square" stroke-opacity=".8" stroke-width="1.25"/>
 <use x="102.2975" y="114.028571" stroke="#000000" stroke-width=".8" xlink:href="#c"/>
 <text transform="rotate(-0 95.298 122.93)" x="95.2975" y="122.932946" fill="#767676" font-family="'Montserrat'" font-size="24px" font-weight="500" text-anchor="end">75%</text>
 <path d="m102.3 25.005h768.07" clip-path="url(#a)" fill="none" stroke="#fff" stroke-linecap="square" stroke-opacity=".8" stroke-width="1.25"/>
 <use x="102.2975" y="25.004762" stroke="#000000" stroke-width=".8" xlink:href="#c"/>
 <text transform="rotate(-0 95.298 33.909)" x="95.2975" y="33.909137" fill="#767676" font-family="'Montserrat'" font-size="24px" font-weight="500" text-anchor="end">100%</text>
 <text transform="rotate(-90 25.369 194.15)" x="25.36875" y="194.15" font-family="'Montserrat'" font-size="24px" font-weight="500" text-anchor="middle">Porcentaje</text>
 <path d="m102.3 381.1h768.07" fill="none" stroke="#000" stroke-linecap="square" stroke-width="2"/>
 <path d="m188.87 349.05h18.862q20 0 20-20v-2.7219q0-20-20-20h-18.862q-20 0-20 20v2.7219q0 20 20 20z" fill="#fff" stroke="#215f53" stroke-width="1.8"/>
 <text transform="rotate(-0 198.31 333.17)" x="198.305937" y="333.165402" fill="#767676" font-family="'Montserrat'" font-size="20px" font-weight="500" text-anchor="middle">5.13</text>
 <path d="m475.95 224.41h20.762q20 0 20-20v-2.7219q0-20-20-20h-20.762q-20 0-20 20v2.7219q0 20 20 20z" fill="#fff" stroke="#7570b3" stroke-width="1.8"/>
 <text transform="rotate(-0 486.33 208.53)" x="486.33125" y="208.532068" fill="#767676" font-family="'Montserrat'" font-size="20px" font-weight="500" text-anchor="middle">4.31</text>
 <path d="m762.43 99.78h23.844q20 0 20-20v-2.7219q0-20-20-20h-23.844q-20 0-20 20v2.7219q0 20 20 20z" fill="#fff" stroke="#c7eae5" stroke-width="1.8"/>
 <text transform="rotate(-0 774.36 83.899)" x="774.356562" y="83.898735" fill="#767676" font-family="'Montserrat'" font-size="20px" font-weight="500" text-anchor="middle">2.56</text>
 <path d="m881.16 381.1h256.02v-373.9h-256.02z" fill="#fff"/>
 <path d="m945.17 381.1h128.01v-160.03h-128.01z" clip-path="url(#d)" fill="#215f53" stroke="#fff" stroke-width=".5"/>
 <path d="m945.17 221.07h128.01v-134.23h-128.01z" clip-path="url(#d)" fill="#7570b3" stroke="#fff" stroke-width=".5"/>
 <path d="m945.17 86.841h128.01v-79.641h-128.01z" clip-path="url(#d)" fill="#c7eae5" stroke="#fff" stroke-width=".5"/>
 <text transform="rotate(-0 1009.2 306.57)" x="1009.17625" y="306.565087" fill="#ffffff" font-family="'Montserrat'" font-size="20px" font-weight="500" text-anchor="middle">42.8%</text>
 <text transform="rotate(-0 1009.2 159.44)" x="1009.17625" y="159.435437" fill="#ffffff" font-family="'Montserrat'" font-size="20px" font-weight="500" text-anchor="middle">35.9%</text>
 <text transform="rotate(-0 1009.2 52.5)" x="1009.17625" y="52.500037" fill="#ffffff" font-family="'Montserrat'" font-size="20px" font-weight="500" text-anchor="middle">21.3%</text>
 <defs>
  <clipPath id="a">
   <rect x="102.3" y="7.2" width="768.07" height="373.9"/>
  </clipPath>
  <clipPath id="d">
   <rect x="881.16" y="7.2" width="256.02" height="373.9"/>
  </clipPath>
 </defs>
</svg>
