<?xml version="1.0" encoding="utf-8" standalone="no"?>
<!DOCTYPE svg PUBLIC "-//W3C//DTD SVG 1.1//EN"
  "http://www.w3.org/Graphics/SVG/1.1/DTD/svg11.dtd">
<svg xmlns:xlink="http://www.w3.org/1999/xlink" width="1144.3875pt" height="650.24625pt" viewBox="0 0 1144.3875 650.24625" xmlns="http://www.w3.org/2000/svg" version="1.1">
 <metadata>
  <rdf:RDF xmlns:dc="http://purl.org/dc/elements/1.1/" xmlns:cc="http://creativecommons.org/ns#" xmlns:rdf="http://www.w3.org/1999/02/22-rdf-syntax-ns#">
   <cc:Work>
    <dc:type rdf:resource="http://purl.org/dc/dcmitype/StillImage"/>
    <dc:date>2025-05-29T17:50:33.327806</dc:date>
    <dc:format>image/svg+xml</dc:format>
    <dc:creator>
     <cc:Agent>
      <dc:title>Matplotlib v3.10.1, https://matplotlib.org/</dc:title>
     </cc:Agent>
    </dc:creator>
   </cc:Work>
  </rdf:RDF>
 </metadata>
 <defs>
  <style type="text/css">*{stroke-linejoin: round; stroke-linecap: butt}</style>
 </defs>
 <g id="figure_1">
  <g id="patch_1">
   <path d="M 0 650.24625 
L 1144.3875 650.24625 
L 1144.3875 0 
L 0 0 
z
" style="fill: #ffffff"/>
  </g>
  <g id="axes_1">
   <g id="patch_2">
    <path d="M 102.2975 475.3 
L 870.365 475.3 
L 870.365 89.4 
L 102.2975 89.4 
z
" style="fill: #ffffff"/>
   </g>
   <g id="FillBetweenPolyCollection_1">
    <path d="M 134.300312 270.04176 
L 134.300312 475.3 
L 136.655034 475.3 
L 139.009756 475.3 
L 141.364478 475.3 
L 143.7192 475.3 
L 146.073922 475.3 
L 148.428644 475.3 
L 150.783366 475.3 
L 153.138088 475.3 
L 155.49281 475.3 
L 157.847532 475.3 
L 160.202254 475.3 
L 162.556976 475.3 
L 164.911698 475.3 
L 167.26642 475.3 
L 169.621142 475.3 
L 171.975864 475.3 
L 174.330586 475.3 
L 176.685308 475.3 
L 179.04003 475.3 
L 181.394752 475.3 
L 183.749474 475.3 
L 186.104196 475.3 
L 188.458918 475.3 
L 190.81364 475.3 
L 193.168362 475.3 
L 195.523084 475.3 
L 197.877806 475.3 
L 200.232528 475.3 
L 202.58725 475.3 
L 204.941972 475.3 
L 207.296694 475.3 
L 209.651416 475.3 
L 212.006138 475.3 
L 214.36086 475.3 
L 216.715582 475.3 
L 219.070304 475.3 
L 221.425026 475.3 
L 223.779748 475.3 
L 226.13447 475.3 
L 228.489192 475.3 
L 230.843914 475.3 
L 233.198636 475.3 
L 235.553358 475.3 
L 237.90808 475.3 
L 240.262802 475.3 
L 242.617524 475.3 
L 244.972246 475.3 
L 247.326968 475.3 
L 249.68169 475.3 
L 252.036412 475.3 
L 254.391134 475.3 
L 256.745856 475.3 
L 259.100578 475.3 
L 261.4553 475.3 
L 263.810022 475.3 
L 266.164744 475.3 
L 268.519466 475.3 
L 270.874188 475.3 
L 273.22891 475.3 
L 275.583632 475.3 
L 277.938354 475.3 
L 280.293076 475.3 
L 282.647798 475.3 
L 285.00252 475.3 
L 287.357242 475.3 
L 289.711964 475.3 
L 292.066686 475.3 
L 294.421408 475.3 
L 296.77613 475.3 
L 299.130852 475.3 
L 301.485574 475.3 
L 303.840296 475.3 
L 306.195018 475.3 
L 308.54974 475.3 
L 310.904462 475.3 
L 313.259184 475.3 
L 315.613906 475.3 
L 317.968628 475.3 
L 320.32335 475.3 
L 322.678072 475.3 
L 325.032794 475.3 
L 327.387516 475.3 
L 329.742238 475.3 
L 332.09696 475.3 
L 334.451682 475.3 
L 336.806404 475.3 
L 339.161126 475.3 
L 341.515848 475.3 
L 343.87057 475.3 
L 346.225292 475.3 
L 348.580014 475.3 
L 350.934736 475.3 
L 353.289458 475.3 
L 355.64418 475.3 
L 357.998902 475.3 
L 360.353624 475.3 
L 362.708346 475.3 
L 365.063068 475.3 
L 367.41779 475.3 
L 369.772511 475.3 
L 372.127233 475.3 
L 374.481955 475.3 
L 376.836677 475.3 
L 379.191399 475.3 
L 381.546121 475.3 
L 383.900843 475.3 
L 386.255565 475.3 
L 388.610287 475.3 
L 390.965009 475.3 
L 393.319731 475.3 
L 395.674453 475.3 
L 398.029175 475.3 
L 400.383897 475.3 
L 402.738619 475.3 
L 405.093341 475.3 
L 407.448063 475.3 
L 409.802785 475.3 
L 412.157507 475.3 
L 414.512229 475.3 
L 416.866951 475.3 
L 419.221673 475.3 
L 421.576395 475.3 
L 423.931117 475.3 
L 426.285839 475.3 
L 428.640561 475.3 
L 430.995283 475.3 
L 433.350005 475.3 
L 435.704727 475.3 
L 438.059449 475.3 
L 440.414171 475.3 
L 442.768893 475.3 
L 445.123615 475.3 
L 447.478337 475.3 
L 449.833059 475.3 
L 452.187781 475.3 
L 454.542503 475.3 
L 456.897225 475.3 
L 459.251947 475.3 
L 461.606669 475.3 
L 463.961391 475.3 
L 466.316113 475.3 
L 468.670835 475.3 
L 471.025557 475.3 
L 473.380279 475.3 
L 475.735001 475.3 
L 478.089723 475.3 
L 480.444445 475.3 
L 482.799167 475.3 
L 485.153889 475.3 
L 487.508611 475.3 
L 489.863333 475.3 
L 492.218055 475.3 
L 494.572777 475.3 
L 496.927499 475.3 
L 499.282221 475.3 
L 501.636943 475.3 
L 503.991665 475.3 
L 506.346387 475.3 
L 508.701109 475.3 
L 511.055831 475.3 
L 513.410553 475.3 
L 515.765275 475.3 
L 518.119997 475.3 
L 520.474719 475.3 
L 522.829441 475.3 
L 525.184163 475.3 
L 527.538885 475.3 
L 529.893607 475.3 
L 532.248329 475.3 
L 534.603051 475.3 
L 536.957773 475.3 
L 539.312495 475.3 
L 541.667217 475.3 
L 544.021939 475.3 
L 546.376661 475.3 
L 548.731383 475.3 
L 551.086105 475.3 
L 553.440827 475.3 
L 555.795549 475.3 
L 558.150271 475.3 
L 560.504993 475.3 
L 562.859715 475.3 
L 565.214437 475.3 
L 567.569159 475.3 
L 569.923881 475.3 
L 572.278603 475.3 
L 574.633325 475.3 
L 576.988047 475.3 
L 579.342769 475.3 
L 581.697491 475.3 
L 584.052213 475.3 
L 586.406935 475.3 
L 588.761657 475.3 
L 591.116379 475.3 
L 593.471101 475.3 
L 595.825823 475.3 
L 598.180545 475.3 
L 600.535267 475.3 
L 602.889989 475.3 
L 605.24471 475.3 
L 607.599432 475.3 
L 609.954154 475.3 
L 612.308876 475.3 
L 614.663598 475.3 
L 617.01832 475.3 
L 619.373042 475.3 
L 621.727764 475.3 
L 624.082486 475.3 
L 626.437208 475.3 
L 628.79193 475.3 
L 631.146652 475.3 
L 633.501374 475.3 
L 635.856096 475.3 
L 638.210818 475.3 
L 640.56554 475.3 
L 642.920262 475.3 
L 645.274984 475.3 
L 647.629706 475.3 
L 649.984428 475.3 
L 652.33915 475.3 
L 654.693872 475.3 
L 657.048594 475.3 
L 659.403316 475.3 
L 661.758038 475.3 
L 664.11276 475.3 
L 666.467482 475.3 
L 668.822204 475.3 
L 671.176926 475.3 
L 673.531648 475.3 
L 675.88637 475.3 
L 678.241092 475.3 
L 680.595814 475.3 
L 682.950536 475.3 
L 685.305258 475.3 
L 687.65998 475.3 
L 690.014702 475.3 
L 692.369424 475.3 
L 694.724146 475.3 
L 697.078868 475.3 
L 699.43359 475.3 
L 701.788312 475.3 
L 704.143034 475.3 
L 706.497756 475.3 
L 708.852478 475.3 
L 711.2072 475.3 
L 713.561922 475.3 
L 715.916644 475.3 
L 718.271366 475.3 
L 720.626088 475.3 
L 722.98081 475.3 
L 725.335532 475.3 
L 727.690254 475.3 
L 730.044976 475.3 
L 732.399698 475.3 
L 734.75442 475.3 
L 737.109142 475.3 
L 739.463864 475.3 
L 741.818586 475.3 
L 744.173308 475.3 
L 746.52803 475.3 
L 748.882752 475.3 
L 751.237474 475.3 
L 753.592196 475.3 
L 755.946918 475.3 
L 758.30164 475.3 
L 760.656362 475.3 
L 763.011084 475.3 
L 765.365806 475.3 
L 767.720528 475.3 
L 770.07525 475.3 
L 772.429972 475.3 
L 774.784694 475.3 
L 777.139416 475.3 
L 779.494138 475.3 
L 781.84886 475.3 
L 784.203582 475.3 
L 786.558304 475.3 
L 788.913026 475.3 
L 791.267748 475.3 
L 793.62247 475.3 
L 795.977192 475.3 
L 798.331914 475.3 
L 800.686636 475.3 
L 803.041358 475.3 
L 805.39608 475.3 
L 807.750802 475.3 
L 810.105524 475.3 
L 812.460246 475.3 
L 814.814968 475.3 
L 817.16969 475.3 
L 819.524412 475.3 
L 821.879134 475.3 
L 824.233856 475.3 
L 826.588578 475.3 
L 828.9433 475.3 
L 831.298022 475.3 
L 833.652744 475.3 
L 836.007466 475.3 
L 838.362187 475.3 
L 838.362187 452.792323 
L 838.362187 452.792323 
L 836.007466 445.419397 
L 833.652744 438.565441 
L 831.298022 432.214517 
L 828.9433 426.350688 
L 826.588578 420.958016 
L 824.233856 416.020563 
L 821.879134 411.522393 
L 819.524412 407.447567 
L 817.16969 403.780149 
L 814.814968 400.5042 
L 812.460246 397.603783 
L 810.105524 395.062961 
L 807.750802 392.865797 
L 805.39608 390.996352 
L 803.041358 389.438689 
L 800.686636 388.176871 
L 798.331914 387.194961 
L 795.977192 386.47702 
L 793.62247 386.007112 
L 791.267748 385.769298 
L 788.913026 385.747641 
L 786.558304 385.926205 
L 784.203582 386.289051 
L 781.84886 386.820241 
L 779.494138 387.503839 
L 777.139416 388.323907 
L 774.784694 389.264507 
L 772.429972 390.309702 
L 770.07525 391.443555 
L 767.720528 392.650127 
L 765.365806 393.913482 
L 763.011084 395.217682 
L 760.656362 396.546789 
L 758.30164 397.884866 
L 755.946918 399.215975 
L 753.592196 400.52418 
L 751.237474 401.793542 
L 748.882752 403.008124 
L 746.52803 404.151988 
L 744.173308 405.209198 
L 741.818586 406.163815 
L 739.463864 406.999902 
L 737.109142 407.701521 
L 734.75442 408.252736 
L 732.399698 408.637608 
L 730.044976 408.840201 
L 727.690254 408.844575 
L 725.335532 408.634795 
L 722.98081 408.194923 
L 720.626088 407.509021 
L 718.271366 406.561151 
L 715.916644 405.335376 
L 713.561922 403.815759 
L 711.2072 401.986362 
L 708.852478 399.83295 
L 706.497756 397.363411 
L 704.143034 394.601108 
L 701.788312 391.569721 
L 699.43359 388.29293 
L 697.078868 384.794413 
L 694.724146 381.097853 
L 692.369424 377.226927 
L 690.014702 373.205316 
L 687.65998 369.056699 
L 685.305258 364.804757 
L 682.950536 360.473169 
L 680.595814 356.085616 
L 678.241092 351.665776 
L 675.88637 347.23733 
L 673.531648 342.823957 
L 671.176926 338.449337 
L 668.822204 334.137151 
L 666.467482 329.911077 
L 664.11276 325.794797 
L 661.758038 321.811988 
L 659.403316 317.986332 
L 657.048594 314.341508 
L 654.693872 310.901196 
L 652.33915 307.689076 
L 649.984428 304.728827 
L 647.629706 302.044129 
L 645.274984 299.658117 
L 642.920262 297.578228 
L 640.56554 295.794223 
L 638.210818 294.294921 
L 635.856096 293.069143 
L 633.501374 292.105707 
L 631.146652 291.393432 
L 628.79193 290.921138 
L 626.437208 290.677645 
L 624.082486 290.651771 
L 621.727764 290.832335 
L 619.373042 291.208157 
L 617.01832 291.768057 
L 614.663598 292.500852 
L 612.308876 293.395364 
L 609.954154 294.44041 
L 607.599432 295.624811 
L 605.24471 296.937385 
L 602.889989 298.366952 
L 600.535267 299.902331 
L 598.180545 301.532341 
L 595.825823 303.245802 
L 593.471101 305.031532 
L 591.116379 306.878352 
L 588.761657 308.775079 
L 586.406935 310.710535 
L 584.052213 312.673537 
L 581.697491 314.652939 
L 579.342769 316.640857 
L 576.988047 318.635363 
L 574.633325 320.635164 
L 572.278603 322.638968 
L 569.923881 324.64548 
L 567.569159 326.653406 
L 565.214437 328.661455 
L 562.859715 330.668332 
L 560.504993 332.672744 
L 558.150271 334.673397 
L 555.795549 336.668999 
L 553.440827 338.658256 
L 551.086105 340.639874 
L 548.731383 342.61256 
L 546.376661 344.575021 
L 544.021939 346.525964 
L 541.667217 348.464094 
L 539.312495 350.388119 
L 536.957773 352.296746 
L 534.603051 354.18868 
L 532.248329 356.062629 
L 529.893607 357.917299 
L 527.538885 359.751397 
L 525.184163 361.563629 
L 522.829441 363.352702 
L 520.474719 365.117323 
L 518.119997 366.856198 
L 515.765275 368.566178 
L 513.410553 370.238465 
L 511.055831 371.863184 
L 508.701109 373.430459 
L 506.346387 374.930417 
L 503.991665 376.353183 
L 501.636943 377.688882 
L 499.282221 378.92764 
L 496.927499 380.059581 
L 494.572777 381.074832 
L 492.218055 381.963518 
L 489.863333 382.715764 
L 487.508611 383.321696 
L 485.153889 383.771439 
L 482.799167 384.055118 
L 480.444445 384.162859 
L 478.089723 384.084787 
L 475.735001 383.811027 
L 473.380279 383.331706 
L 471.025557 382.636948 
L 468.670835 381.716879 
L 466.316113 380.561624 
L 463.961391 379.161308 
L 461.606669 377.506058 
L 459.251947 375.585997 
L 456.897225 373.391253 
L 454.542503 370.91195 
L 452.187781 368.143128 
L 449.833059 365.105686 
L 447.478337 361.828997 
L 445.123615 358.342437 
L 442.768893 354.675383 
L 440.414171 350.857212 
L 438.059449 346.917301 
L 435.704727 342.885028 
L 433.350005 338.789769 
L 430.995283 334.6609 
L 428.640561 330.5278 
L 426.285839 326.419846 
L 423.931117 322.366413 
L 421.576395 318.396879 
L 419.221673 314.540622 
L 416.866951 310.827017 
L 414.512229 307.285443 
L 412.157507 303.945276 
L 409.802785 300.835892 
L 407.448063 297.98667 
L 405.093341 295.426986 
L 402.738619 293.186217 
L 400.383897 291.29374 
L 398.029175 289.778932 
L 395.674453 288.67117 
L 393.319731 287.999832 
L 390.965009 287.794293 
L 388.610287 288.080205 
L 386.255565 288.848214 
L 383.900843 290.069783 
L 381.546121 291.71618 
L 379.191399 293.758673 
L 376.836677 296.168529 
L 374.481955 298.917016 
L 372.127233 301.975401 
L 369.772511 305.314953 
L 367.41779 308.906938 
L 365.063068 312.722625 
L 362.708346 316.733281 
L 360.353624 320.910174 
L 357.998902 325.224571 
L 355.64418 329.64774 
L 353.289458 334.150949 
L 350.934736 338.705465 
L 348.580014 343.282556 
L 346.225292 347.85349 
L 343.87057 352.389534 
L 341.515848 356.861957 
L 339.161126 361.242024 
L 336.806404 365.501005 
L 334.451682 369.610167 
L 332.09696 373.540777 
L 329.742238 377.264104 
L 327.387516 380.751414 
L 325.032794 383.974925 
L 322.678072 386.924644 
L 320.32335 389.60638 
L 317.968628 392.02649 
L 315.613906 394.19133 
L 313.259184 396.10726 
L 310.904462 397.780636 
L 308.54974 399.217816 
L 306.195018 400.425156 
L 303.840296 401.409016 
L 301.485574 402.175751 
L 299.130852 402.73172 
L 296.77613 403.08328 
L 294.421408 403.236788 
L 292.066686 403.198603 
L 289.711964 402.97508 
L 287.357242 402.572578 
L 285.00252 401.997455 
L 282.647798 401.256067 
L 280.293076 400.354772 
L 277.938354 399.299927 
L 275.583632 398.097891 
L 273.22891 396.75502 
L 270.874188 395.277672 
L 268.519466 393.672205 
L 266.164744 391.944975 
L 263.810022 390.10234 
L 261.4553 388.15065 
L 259.100578 386.09586 
L 256.745856 383.943362 
L 254.391134 381.698505 
L 252.036412 379.366637 
L 249.68169 376.953108 
L 247.326968 374.463265 
L 244.972246 371.902459 
L 242.617524 369.276036 
L 240.262802 366.589347 
L 237.90808 363.84774 
L 235.553358 361.056563 
L 233.198636 358.221166 
L 230.843914 355.346897 
L 228.489192 352.439104 
L 226.13447 349.503137 
L 223.779748 346.544345 
L 221.425026 343.568075 
L 219.070304 340.579677 
L 216.715582 337.584499 
L 214.36086 334.587891 
L 212.006138 331.5952 
L 209.651416 328.611776 
L 207.296694 325.642967 
L 204.941972 322.694123 
L 202.58725 319.770591 
L 200.232528 316.877721 
L 197.877806 314.020861 
L 195.523084 311.205359 
L 193.168362 308.436566 
L 190.81364 305.719829 
L 188.458918 303.060497 
L 186.104196 300.463919 
L 183.749474 297.935444 
L 181.394752 295.48042 
L 179.04003 293.104196 
L 176.685308 290.812121 
L 174.330586 288.609543 
L 171.975864 286.501812 
L 169.621142 284.494275 
L 167.26642 282.592283 
L 164.911698 280.801182 
L 162.556976 279.126323 
L 160.202254 277.573054 
L 157.847532 276.146723 
L 155.49281 274.85268 
L 153.138088 273.696273 
L 150.783366 272.68285 
L 148.428644 271.817761 
L 146.073922 271.106354 
L 143.7192 270.553979 
L 141.364478 270.165983 
L 139.009756 269.947715 
L 136.655034 269.904524 
L 134.300312 270.04176 
z
" clip-path="url(#p14a8c250c3)" style="fill: #215f53"/>
   </g>
   <g id="FillBetweenPolyCollection_2">
    <path d="M 134.300312 211.27541 
L 134.300312 270.04176 
L 136.655034 269.904524 
L 139.009756 269.947715 
L 141.364478 270.165983 
L 143.7192 270.553979 
L 146.073922 271.106354 
L 148.428644 271.817761 
L 150.783366 272.68285 
L 153.138088 273.696273 
L 155.49281 274.85268 
L 157.847532 276.146723 
L 160.202254 277.573054 
L 162.556976 279.126323 
L 164.911698 280.801182 
L 167.26642 282.592283 
L 169.621142 284.494275 
L 171.975864 286.501812 
L 174.330586 288.609543 
L 176.685308 290.812121 
L 179.04003 293.104196 
L 181.394752 295.48042 
L 183.749474 297.935444 
L 186.104196 300.463919 
L 188.458918 303.060497 
L 190.81364 305.719829 
L 193.168362 308.436566 
L 195.523084 311.205359 
L 197.877806 314.020861 
L 200.232528 316.877721 
L 202.58725 319.770591 
L 204.941972 322.694123 
L 207.296694 325.642967 
L 209.651416 328.611776 
L 212.006138 331.5952 
L 214.36086 334.587891 
L 216.715582 337.584499 
L 219.070304 340.579677 
L 221.425026 343.568075 
L 223.779748 346.544345 
L 226.13447 349.503137 
L 228.489192 352.439104 
L 230.843914 355.346897 
L 233.198636 358.221166 
L 235.553358 361.056563 
L 237.90808 363.84774 
L 240.262802 366.589347 
L 242.617524 369.276036 
L 244.972246 371.902459 
L 247.326968 374.463265 
L 249.68169 376.953108 
L 252.036412 379.366637 
L 254.391134 381.698505 
L 256.745856 383.943362 
L 259.100578 386.09586 
L 261.4553 388.15065 
L 263.810022 390.10234 
L 266.164744 391.944975 
L 268.519466 393.672205 
L 270.874188 395.277672 
L 273.22891 396.75502 
L 275.583632 398.097891 
L 277.938354 399.299927 
L 280.293076 400.354772 
L 282.647798 401.256067 
L 285.00252 401.997455 
L 287.357242 402.572578 
L 289.711964 402.97508 
L 292.066686 403.198603 
L 294.421408 403.236788 
L 296.77613 403.08328 
L 299.130852 402.73172 
L 301.485574 402.175751 
L 303.840296 401.409016 
L 306.195018 400.425156 
L 308.54974 399.217816 
L 310.904462 397.780636 
L 313.259184 396.10726 
L 315.613906 394.19133 
L 317.968628 392.02649 
L 320.32335 389.60638 
L 322.678072 386.924644 
L 325.032794 383.974925 
L 327.387516 380.751414 
L 329.742238 377.264104 
L 332.09696 373.540777 
L 334.451682 369.610167 
L 336.806404 365.501005 
L 339.161126 361.242024 
L 341.515848 356.861957 
L 343.87057 352.389534 
L 346.225292 347.85349 
L 348.580014 343.282556 
L 350.934736 338.705465 
L 353.289458 334.150949 
L 355.64418 329.64774 
L 357.998902 325.224571 
L 360.353624 320.910174 
L 362.708346 316.733281 
L 365.063068 312.722625 
L 367.41779 308.906938 
L 369.772511 305.314953 
L 372.127233 301.975401 
L 374.481955 298.917016 
L 376.836677 296.168529 
L 379.191399 293.758673 
L 381.546121 291.71618 
L 383.900843 290.069783 
L 386.255565 288.848214 
L 388.610287 288.080205 
L 390.965009 287.794293 
L 393.319731 287.999832 
L 395.674453 288.67117 
L 398.029175 289.778932 
L 400.383897 291.29374 
L 402.738619 293.186217 
L 405.093341 295.426986 
L 407.448063 297.98667 
L 409.802785 300.835892 
L 412.157507 303.945276 
L 414.512229 307.285443 
L 416.866951 310.827017 
L 419.221673 314.540622 
L 421.576395 318.396879 
L 423.931117 322.366413 
L 426.285839 326.419846 
L 428.640561 330.5278 
L 430.995283 334.6609 
L 433.350005 338.789769 
L 435.704727 342.885028 
L 438.059449 346.917301 
L 440.414171 350.857212 
L 442.768893 354.675383 
L 445.123615 358.342437 
L 447.478337 361.828997 
L 449.833059 365.105686 
L 452.187781 368.143128 
L 454.542503 370.91195 
L 456.897225 373.391253 
L 459.251947 375.585997 
L 461.606669 377.506058 
L 463.961391 379.161308 
L 466.316113 380.561624 
L 468.670835 381.716879 
L 471.025557 382.636948 
L 473.380279 383.331706 
L 475.735001 383.811027 
L 478.089723 384.084787 
L 480.444445 384.162859 
L 482.799167 384.055118 
L 485.153889 383.771439 
L 487.508611 383.321696 
L 489.863333 382.715764 
L 492.218055 381.963518 
L 494.572777 381.074832 
L 496.927499 380.059581 
L 499.282221 378.92764 
L 501.636943 377.688882 
L 503.991665 376.353183 
L 506.346387 374.930417 
L 508.701109 373.430459 
L 511.055831 371.863184 
L 513.410553 370.238465 
L 515.765275 368.566178 
L 518.119997 366.856198 
L 520.474719 365.117323 
L 522.829441 363.352702 
L 525.184163 361.563629 
L 527.538885 359.751397 
L 529.893607 357.917299 
L 532.248329 356.062629 
L 534.603051 354.18868 
L 536.957773 352.296746 
L 539.312495 350.388119 
L 541.667217 348.464094 
L 544.021939 346.525964 
L 546.376661 344.575021 
L 548.731383 342.61256 
L 551.086105 340.639874 
L 553.440827 338.658256 
L 555.795549 336.668999 
L 558.150271 334.673397 
L 560.504993 332.672744 
L 562.859715 330.668332 
L 565.214437 328.661455 
L 567.569159 326.653406 
L 569.923881 324.64548 
L 572.278603 322.638968 
L 574.633325 320.635164 
L 576.988047 318.635363 
L 579.342769 316.640857 
L 581.697491 314.652939 
L 584.052213 312.673537 
L 586.406935 310.710535 
L 588.761657 308.775079 
L 591.116379 306.878352 
L 593.471101 305.031532 
L 595.825823 303.245802 
L 598.180545 301.532341 
L 600.535267 299.902331 
L 602.889989 298.366952 
L 605.24471 296.937385 
L 607.599432 295.624811 
L 609.954154 294.44041 
L 612.308876 293.395364 
L 614.663598 292.500852 
L 617.01832 291.768057 
L 619.373042 291.208157 
L 621.727764 290.832335 
L 624.082486 290.651771 
L 626.437208 290.677645 
L 628.79193 290.921138 
L 631.146652 291.393432 
L 633.501374 292.105707 
L 635.856096 293.069143 
L 638.210818 294.294921 
L 640.56554 295.794223 
L 642.920262 297.578228 
L 645.274984 299.658117 
L 647.629706 302.044129 
L 649.984428 304.728827 
L 652.33915 307.689076 
L 654.693872 310.901196 
L 657.048594 314.341508 
L 659.403316 317.986332 
L 661.758038 321.811988 
L 664.11276 325.794797 
L 666.467482 329.911077 
L 668.822204 334.137151 
L 671.176926 338.449337 
L 673.531648 342.823957 
L 675.88637 347.23733 
L 678.241092 351.665776 
L 680.595814 356.085616 
L 682.950536 360.473169 
L 685.305258 364.804757 
L 687.65998 369.056699 
L 690.014702 373.205316 
L 692.369424 377.226927 
L 694.724146 381.097853 
L 697.078868 384.794413 
L 699.43359 388.29293 
L 701.788312 391.569721 
L 704.143034 394.601108 
L 706.497756 397.363411 
L 708.852478 399.83295 
L 711.2072 401.986362 
L 713.561922 403.815759 
L 715.916644 405.335376 
L 718.271366 406.561151 
L 720.626088 407.509021 
L 722.98081 408.194923 
L 725.335532 408.634795 
L 727.690254 408.844575 
L 730.044976 408.840201 
L 732.399698 408.637608 
L 734.75442 408.252736 
L 737.109142 407.701521 
L 739.463864 406.999902 
L 741.818586 406.163815 
L 744.173308 405.209198 
L 746.52803 404.151988 
L 748.882752 403.008124 
L 751.237474 401.793542 
L 753.592196 400.52418 
L 755.946918 399.215975 
L 758.30164 397.884866 
L 760.656362 396.546789 
L 763.011084 395.217682 
L 765.365806 393.913482 
L 767.720528 392.650127 
L 770.07525 391.443555 
L 772.429972 390.309702 
L 774.784694 389.264507 
L 777.139416 388.323907 
L 779.494138 387.503839 
L 781.84886 386.820241 
L 784.203582 386.289051 
L 786.558304 385.926205 
L 788.913026 385.747641 
L 791.267748 385.769298 
L 793.62247 386.007112 
L 795.977192 386.47702 
L 798.331914 387.194961 
L 800.686636 388.176871 
L 803.041358 389.438689 
L 805.39608 390.996352 
L 807.750802 392.865797 
L 810.105524 395.062961 
L 812.460246 397.603783 
L 814.814968 400.5042 
L 817.16969 403.780149 
L 819.524412 407.447567 
L 821.879134 411.522393 
L 824.233856 416.020563 
L 826.588578 420.958016 
L 828.9433 426.350688 
L 831.298022 432.214517 
L 833.652744 438.565441 
L 836.007466 445.419397 
L 838.362187 452.792323 
L 838.362187 422.892513 
L 838.362187 422.892513 
L 836.007466 404.10496 
L 833.652744 386.240684 
L 831.298022 369.278459 
L 828.9433 353.197059 
L 826.588578 337.975256 
L 824.233856 323.591826 
L 821.879134 310.02554 
L 819.524412 297.255174 
L 817.16969 285.2595 
L 814.814968 274.017292 
L 812.460246 263.507323 
L 810.105524 253.708367 
L 807.750802 244.599199 
L 805.39608 236.15859 
L 803.041358 228.365316 
L 800.686636 221.198149 
L 798.331914 214.635863 
L 795.977192 208.657231 
L 793.62247 203.241028 
L 791.267748 198.366026 
L 788.913026 194.011 
L 786.558304 190.154723 
L 784.203582 186.775968 
L 781.84886 183.85351 
L 779.494138 181.366121 
L 777.139416 179.292575 
L 774.784694 177.611646 
L 772.429972 176.302107 
L 770.07525 175.342733 
L 767.720528 174.712296 
L 765.365806 174.38957 
L 763.011084 174.353329 
L 760.656362 174.582346 
L 758.30164 175.055395 
L 755.946918 175.751249 
L 753.592196 176.648682 
L 751.237474 177.726468 
L 748.882752 178.963381 
L 746.52803 180.338193 
L 744.173308 181.829678 
L 741.818586 183.41661 
L 739.463864 185.077763 
L 737.109142 186.791909 
L 734.75442 188.537824 
L 732.399698 190.294279 
L 730.044976 192.04005 
L 727.690254 193.753909 
L 725.335532 195.414629 
L 722.98081 197.000986 
L 720.626088 198.491751 
L 718.271366 199.865699 
L 715.916644 201.101604 
L 713.561922 202.178238 
L 711.2072 203.074375 
L 708.852478 203.770135 
L 706.497756 204.263131 
L 704.143034 204.563209 
L 701.788312 204.680468 
L 699.43359 204.625006 
L 697.078868 204.40692 
L 694.724146 204.036311 
L 692.369424 203.523274 
L 690.014702 202.877909 
L 687.65998 202.110314 
L 685.305258 201.230587 
L 682.950536 200.248826 
L 680.595814 199.175129 
L 678.241092 198.019595 
L 675.88637 196.792321 
L 673.531648 195.503406 
L 671.176926 194.162948 
L 668.822204 192.781045 
L 666.467482 191.367795 
L 664.11276 189.933297 
L 661.758038 188.487648 
L 659.403316 187.040948 
L 657.048594 185.603293 
L 654.693872 184.184782 
L 652.33915 182.795514 
L 649.984428 181.445586 
L 647.629706 180.145097 
L 645.274984 178.904113 
L 642.920262 177.731819 
L 640.56554 176.636401 
L 638.210818 175.625994 
L 635.856096 174.70873 
L 633.501374 173.892746 
L 631.146652 173.186173 
L 628.79193 172.597148 
L 626.437208 172.133803 
L 624.082486 171.804272 
L 621.727764 171.616691 
L 619.373042 171.579192 
L 617.01832 171.69991 
L 614.663598 171.98698 
L 612.308876 172.448534 
L 609.954154 173.092707 
L 607.599432 173.927633 
L 605.24471 174.961447 
L 602.889989 176.202282 
L 600.535267 177.658272 
L 598.180545 179.337552 
L 595.825823 181.248255 
L 593.471101 183.398515 
L 591.116379 185.796468 
L 588.761657 188.450245 
L 586.406935 191.367983 
L 584.052213 194.557814 
L 581.697491 198.027749 
L 579.342769 201.773653 
L 576.988047 205.769228 
L 574.633325 209.985817 
L 572.278603 214.394763 
L 569.923881 218.967409 
L 567.569159 223.675098 
L 565.214437 228.489172 
L 562.859715 233.380976 
L 560.504993 238.321851 
L 558.150271 243.283142 
L 555.795549 248.23619 
L 553.440827 253.152339 
L 551.086105 258.002931 
L 548.731383 262.759311 
L 546.376661 267.39282 
L 544.021939 271.874802 
L 541.667217 276.1766 
L 539.312495 280.269557 
L 536.957773 284.125015 
L 534.603051 287.714318 
L 532.248329 291.008809 
L 529.893607 293.979831 
L 527.538885 296.598726 
L 525.184163 298.836838 
L 522.829441 300.665509 
L 520.474719 302.056083 
L 518.119997 302.97991 
L 515.765275 303.420173 
L 513.410553 303.396172 
L 511.055831 302.93407 
L 508.701109 302.06003 
L 506.346387 300.800215 
L 503.991665 299.180789 
L 501.636943 297.227915 
L 499.282221 294.967756 
L 496.927499 292.426476 
L 494.572777 289.630237 
L 492.218055 286.605203 
L 489.863333 283.377537 
L 487.508611 279.973403 
L 485.153889 276.418963 
L 482.799167 272.740382 
L 480.444445 268.963822 
L 478.089723 265.115446 
L 475.735001 261.221419 
L 473.380279 257.307902 
L 471.025557 253.40106 
L 468.670835 249.527055 
L 466.316113 245.712052 
L 463.961391 241.982212 
L 461.606669 238.3637 
L 459.251947 234.882679 
L 456.897225 231.565312 
L 454.542503 228.437762 
L 452.187781 225.52119 
L 449.833059 222.810441 
L 447.478337 220.291733 
L 445.123615 217.951282 
L 442.768893 215.775303 
L 440.414171 213.75001 
L 438.059449 211.861619 
L 435.704727 210.096344 
L 433.350005 208.4404 
L 430.995283 206.880002 
L 428.640561 205.401365 
L 426.285839 203.990703 
L 423.931117 202.634232 
L 421.576395 201.318167 
L 419.221673 200.028722 
L 416.866951 198.752112 
L 414.512229 197.474551 
L 412.157507 196.182256 
L 409.802785 194.861441 
L 407.448063 193.49832 
L 405.093341 192.079109 
L 402.738619 190.590022 
L 400.383897 189.017274 
L 398.029175 187.34708 
L 395.674453 185.565655 
L 393.319731 183.659214 
L 390.965009 181.613971 
L 388.610287 179.418752 
L 386.255565 177.086897 
L 383.900843 174.645182 
L 381.546121 172.12052 
L 379.191399 169.539824 
L 376.836677 166.930008 
L 374.481955 164.317984 
L 372.127233 161.730665 
L 369.772511 159.194964 
L 367.41779 156.737796 
L 365.063068 154.386071 
L 362.708346 152.166705 
L 360.353624 150.106608 
L 357.998902 148.232696 
L 355.64418 146.57188 
L 353.289458 145.151074 
L 350.934736 143.997191 
L 348.580014 143.137144 
L 346.225292 142.597846 
L 343.87057 142.406209 
L 341.515848 142.589148 
L 339.161126 143.173575 
L 336.806404 144.186403 
L 334.451682 145.654545 
L 332.09696 147.604914 
L 329.742238 150.064424 
L 327.387516 153.059987 
L 325.032794 156.616434 
L 322.678072 160.719553 
L 320.32335 165.320461 
L 317.968628 170.369066 
L 315.613906 175.81528 
L 313.259184 181.609012 
L 310.904462 187.700173 
L 308.54974 194.038673 
L 306.195018 200.574421 
L 303.840296 207.257328 
L 301.485574 214.037305 
L 299.130852 220.86426 
L 296.77613 227.688106 
L 294.421408 234.45875 
L 292.066686 241.126104 
L 289.711964 247.640078 
L 287.357242 253.950582 
L 285.00252 260.007526 
L 282.647798 265.76082 
L 280.293076 271.160375 
L 277.938354 276.1561 
L 275.583632 280.697905 
L 273.22891 284.735702 
L 270.874188 288.219399 
L 268.519466 291.098907 
L 266.164744 293.324136 
L 263.810022 294.844997 
L 261.4553 295.612112 
L 259.100578 295.610864 
L 256.745856 294.876337 
L 254.391134 293.447439 
L 252.036412 291.363076 
L 249.68169 288.662155 
L 247.326968 285.383585 
L 244.972246 281.566271 
L 242.617524 277.249121 
L 240.262802 272.471043 
L 237.90808 267.270943 
L 235.553358 261.687728 
L 233.198636 255.760306 
L 230.843914 249.527584 
L 228.489192 243.028469 
L 226.13447 236.301867 
L 223.779748 229.386687 
L 221.425026 222.321835 
L 219.070304 215.146219 
L 216.715582 207.898745 
L 214.36086 200.61832 
L 212.006138 193.343853 
L 209.651416 186.114249 
L 207.296694 178.968417 
L 204.941972 171.945263 
L 202.58725 165.083694 
L 200.232528 158.422618 
L 197.877806 152.000941 
L 195.523084 145.857571 
L 193.168362 140.031415 
L 190.81364 134.56138 
L 188.458918 129.486373 
L 186.104196 124.845302 
L 183.749474 120.677073 
L 181.394752 117.020594 
L 179.04003 113.914771 
L 176.685308 111.398512 
L 174.330586 109.510725 
L 171.975864 108.290315 
L 169.621142 107.77619 
L 167.26642 108.007259 
L 164.911698 109.022426 
L 162.556976 110.8606 
L 160.202254 113.560688 
L 157.847532 117.161597 
L 155.49281 121.702234 
L 153.138088 127.221507 
L 150.783366 133.758321 
L 148.428644 141.351586 
L 146.073922 150.040206 
L 143.7192 159.863091 
L 141.364478 170.859146 
L 139.009756 183.06728 
L 136.655034 196.526399 
L 134.300312 211.27541 
z
" clip-path="url(#p14a8c250c3)" style="fill: #7570b3"/>
   </g>
   <g id="FillBetweenPolyCollection_3">
    <path d="M 134.300312 134.367887 
L 134.300312 211.27541 
L 136.655034 196.526399 
L 139.009756 183.06728 
L 141.364478 170.859146 
L 143.7192 159.863091 
L 146.073922 150.040206 
L 148.428644 141.351586 
L 150.783366 133.758321 
L 153.138088 127.221507 
L 155.49281 121.702234 
L 157.847532 117.161597 
L 160.202254 113.560688 
L 162.556976 110.8606 
L 164.911698 109.022426 
L 167.26642 108.007259 
L 169.621142 107.77619 
L 171.975864 108.290315 
L 174.330586 109.510725 
L 176.685308 111.398512 
L 179.04003 113.914771 
L 181.394752 117.020594 
L 183.749474 120.677073 
L 186.104196 124.845302 
L 188.458918 129.486373 
L 190.81364 134.56138 
L 193.168362 140.031415 
L 195.523084 145.857571 
L 197.877806 152.000941 
L 200.232528 158.422618 
L 202.58725 165.083694 
L 204.941972 171.945263 
L 207.296694 178.968417 
L 209.651416 186.114249 
L 212.006138 193.343853 
L 214.36086 200.61832 
L 216.715582 207.898745 
L 219.070304 215.146219 
L 221.425026 222.321835 
L 223.779748 229.386687 
L 226.13447 236.301867 
L 228.489192 243.028469 
L 230.843914 249.527584 
L 233.198636 255.760306 
L 235.553358 261.687728 
L 237.90808 267.270943 
L 240.262802 272.471043 
L 242.617524 277.249121 
L 244.972246 281.566271 
L 247.326968 285.383585 
L 249.68169 288.662155 
L 252.036412 291.363076 
L 254.391134 293.447439 
L 256.745856 294.876337 
L 259.100578 295.610864 
L 261.4553 295.612112 
L 263.810022 294.844997 
L 266.164744 293.324136 
L 268.519466 291.098907 
L 270.874188 288.219399 
L 273.22891 284.735702 
L 275.583632 280.697905 
L 277.938354 276.1561 
L 280.293076 271.160375 
L 282.647798 265.76082 
L 285.00252 260.007526 
L 287.357242 253.950582 
L 289.711964 247.640078 
L 292.066686 241.126104 
L 294.421408 234.45875 
L 296.77613 227.688106 
L 299.130852 220.86426 
L 301.485574 214.037305 
L 303.840296 207.257328 
L 306.195018 200.574421 
L 308.54974 194.038673 
L 310.904462 187.700173 
L 313.259184 181.609012 
L 315.613906 175.81528 
L 317.968628 170.369066 
L 320.32335 165.320461 
L 322.678072 160.719553 
L 325.032794 156.616434 
L 327.387516 153.059987 
L 329.742238 150.064424 
L 332.09696 147.604914 
L 334.451682 145.654545 
L 336.806404 144.186403 
L 339.161126 143.173575 
L 341.515848 142.589148 
L 343.87057 142.406209 
L 346.225292 142.597846 
L 348.580014 143.137144 
L 350.934736 143.997191 
L 353.289458 145.151074 
L 355.64418 146.57188 
L 357.998902 148.232696 
L 360.353624 150.106608 
L 362.708346 152.166705 
L 365.063068 154.386071 
L 367.41779 156.737796 
L 369.772511 159.194964 
L 372.127233 161.730665 
L 374.481955 164.317984 
L 376.836677 166.930008 
L 379.191399 169.539824 
L 381.546121 172.12052 
L 383.900843 174.645182 
L 386.255565 177.086897 
L 388.610287 179.418752 
L 390.965009 181.613971 
L 393.319731 183.659214 
L 395.674453 185.565655 
L 398.029175 187.34708 
L 400.383897 189.017274 
L 402.738619 190.590022 
L 405.093341 192.079109 
L 407.448063 193.49832 
L 409.802785 194.861441 
L 412.157507 196.182256 
L 414.512229 197.474551 
L 416.866951 198.752112 
L 419.221673 200.028722 
L 421.576395 201.318167 
L 423.931117 202.634232 
L 426.285839 203.990703 
L 428.640561 205.401365 
L 430.995283 206.880002 
L 433.350005 208.4404 
L 435.704727 210.096344 
L 438.059449 211.861619 
L 440.414171 213.75001 
L 442.768893 215.775303 
L 445.123615 217.951282 
L 447.478337 220.291733 
L 449.833059 222.810441 
L 452.187781 225.52119 
L 454.542503 228.437762 
L 456.897225 231.565312 
L 459.251947 234.882679 
L 461.606669 238.3637 
L 463.961391 241.982212 
L 466.316113 245.712052 
L 468.670835 249.527055 
L 471.025557 253.40106 
L 473.380279 257.307902 
L 475.735001 261.221419 
L 478.089723 265.115446 
L 480.444445 268.963822 
L 482.799167 272.740382 
L 485.153889 276.418963 
L 487.508611 279.973403 
L 489.863333 283.377537 
L 492.218055 286.605203 
L 494.572777 289.630237 
L 496.927499 292.426476 
L 499.282221 294.967756 
L 501.636943 297.227915 
L 503.991665 299.180789 
L 506.346387 300.800215 
L 508.701109 302.06003 
L 511.055831 302.93407 
L 513.410553 303.396172 
L 515.765275 303.420173 
L 518.119997 302.97991 
L 520.474719 302.056083 
L 522.829441 300.665509 
L 525.184163 298.836838 
L 527.538885 296.598726 
L 529.893607 293.979831 
L 532.248329 291.008809 
L 534.603051 287.714318 
L 536.957773 284.125015 
L 539.312495 280.269557 
L 541.667217 276.1766 
L 544.021939 271.874802 
L 546.376661 267.39282 
L 548.731383 262.759311 
L 551.086105 258.002931 
L 553.440827 253.152339 
L 555.795549 248.23619 
L 558.150271 243.283142 
L 560.504993 238.321851 
L 562.859715 233.380976 
L 565.214437 228.489172 
L 567.569159 223.675098 
L 569.923881 218.967409 
L 572.278603 214.394763 
L 574.633325 209.985817 
L 576.988047 205.769228 
L 579.342769 201.773653 
L 581.697491 198.027749 
L 584.052213 194.557814 
L 586.406935 191.367983 
L 588.761657 188.450245 
L 591.116379 185.796468 
L 593.471101 183.398515 
L 595.825823 181.248255 
L 598.180545 179.337552 
L 600.535267 177.658272 
L 602.889989 176.202282 
L 605.24471 174.961447 
L 607.599432 173.927633 
L 609.954154 173.092707 
L 612.308876 172.448534 
L 614.663598 171.98698 
L 617.01832 171.69991 
L 619.373042 171.579192 
L 621.727764 171.616691 
L 624.082486 171.804272 
L 626.437208 172.133803 
L 628.79193 172.597148 
L 631.146652 173.186173 
L 633.501374 173.892746 
L 635.856096 174.70873 
L 638.210818 175.625994 
L 640.56554 176.636401 
L 642.920262 177.731819 
L 645.274984 178.904113 
L 647.629706 180.145097 
L 649.984428 181.445586 
L 652.33915 182.795514 
L 654.693872 184.184782 
L 657.048594 185.603293 
L 659.403316 187.040948 
L 661.758038 188.487648 
L 664.11276 189.933297 
L 666.467482 191.367795 
L 668.822204 192.781045 
L 671.176926 194.162948 
L 673.531648 195.503406 
L 675.88637 196.792321 
L 678.241092 198.019595 
L 680.595814 199.175129 
L 682.950536 200.248826 
L 685.305258 201.230587 
L 687.65998 202.110314 
L 690.014702 202.877909 
L 692.369424 203.523274 
L 694.724146 204.036311 
L 697.078868 204.40692 
L 699.43359 204.625006 
L 701.788312 204.680468 
L 704.143034 204.563209 
L 706.497756 204.263131 
L 708.852478 203.770135 
L 711.2072 203.074375 
L 713.561922 202.178238 
L 715.916644 201.101604 
L 718.271366 199.865699 
L 720.626088 198.491751 
L 722.98081 197.000986 
L 725.335532 195.414629 
L 727.690254 193.753909 
L 730.044976 192.04005 
L 732.399698 190.294279 
L 734.75442 188.537824 
L 737.109142 186.791909 
L 739.463864 185.077763 
L 741.818586 183.41661 
L 744.173308 181.829678 
L 746.52803 180.338193 
L 748.882752 178.963381 
L 751.237474 177.726468 
L 753.592196 176.648682 
L 755.946918 175.751249 
L 758.30164 175.055395 
L 760.656362 174.582346 
L 763.011084 174.353329 
L 765.365806 174.38957 
L 767.720528 174.712296 
L 770.07525 175.342733 
L 772.429972 176.302107 
L 774.784694 177.611646 
L 777.139416 179.292575 
L 779.494138 181.366121 
L 781.84886 183.85351 
L 784.203582 186.775968 
L 786.558304 190.154723 
L 788.913026 194.011 
L 791.267748 198.366026 
L 793.62247 203.241028 
L 795.977192 208.657231 
L 798.331914 214.635863 
L 800.686636 221.198149 
L 803.041358 228.365316 
L 805.39608 236.15859 
L 807.750802 244.599199 
L 810.105524 253.708367 
L 812.460246 263.507323 
L 814.814968 274.017292 
L 817.16969 285.2595 
L 819.524412 297.255174 
L 821.879134 310.02554 
L 824.233856 323.591826 
L 826.588578 337.975256 
L 828.9433 353.197059 
L 831.298022 369.278459 
L 833.652744 386.240684 
L 836.007466 404.10496 
L 838.362187 422.892513 
L 838.362187 134.367887 
L 838.362187 134.367887 
L 836.007466 134.367887 
L 833.652744 134.367887 
L 831.298022 134.367887 
L 828.9433 134.367887 
L 826.588578 134.367887 
L 824.233856 134.367887 
L 821.879134 134.367887 
L 819.524412 134.367887 
L 817.16969 134.367887 
L 814.814968 134.367887 
L 812.460246 134.367887 
L 810.105524 134.367887 
L 807.750802 134.367887 
L 805.39608 134.367887 
L 803.041358 134.367887 
L 800.686636 134.367887 
L 798.331914 134.367887 
L 795.977192 134.367887 
L 793.62247 134.367887 
L 791.267748 134.367887 
L 788.913026 134.367887 
L 786.558304 134.367887 
L 784.203582 134.367887 
L 781.84886 134.367887 
L 779.494138 134.367887 
L 777.139416 134.367887 
L 774.784694 134.367887 
L 772.429972 134.367887 
L 770.07525 134.367887 
L 767.720528 134.367887 
L 765.365806 134.367887 
L 763.011084 134.367887 
L 760.656362 134.367887 
L 758.30164 134.367887 
L 755.946918 134.367887 
L 753.592196 134.367887 
L 751.237474 134.367887 
L 748.882752 134.367887 
L 746.52803 134.367887 
L 744.173308 134.367887 
L 741.818586 134.367887 
L 739.463864 134.367887 
L 737.109142 134.367887 
L 734.75442 134.367887 
L 732.399698 134.367887 
L 730.044976 134.367887 
L 727.690254 134.367887 
L 725.335532 134.367887 
L 722.98081 134.367887 
L 720.626088 134.367887 
L 718.271366 134.367887 
L 715.916644 134.367887 
L 713.561922 134.367887 
L 711.2072 134.367887 
L 708.852478 134.367887 
L 706.497756 134.367887 
L 704.143034 134.367887 
L 701.788312 134.367887 
L 699.43359 134.367887 
L 697.078868 134.367887 
L 694.724146 134.367887 
L 692.369424 134.367887 
L 690.014702 134.367887 
L 687.65998 134.367887 
L 685.305258 134.367887 
L 682.950536 134.367887 
L 680.595814 134.367887 
L 678.241092 134.367887 
L 675.88637 134.367887 
L 673.531648 134.367887 
L 671.176926 134.367887 
L 668.822204 134.367887 
L 666.467482 134.367887 
L 664.11276 134.367887 
L 661.758038 134.367887 
L 659.403316 134.367887 
L 657.048594 134.367887 
L 654.693872 134.367887 
L 652.33915 134.367887 
L 649.984428 134.367887 
L 647.629706 134.367887 
L 645.274984 134.367887 
L 642.920262 134.367887 
L 640.56554 134.367887 
L 638.210818 134.367887 
L 635.856096 134.367887 
L 633.501374 134.367887 
L 631.146652 134.367887 
L 628.79193 134.367887 
L 626.437208 134.367887 
L 624.082486 134.367887 
L 621.727764 134.367887 
L 619.373042 134.367887 
L 617.01832 134.367887 
L 614.663598 134.367887 
L 612.308876 134.367887 
L 609.954154 134.367887 
L 607.599432 134.367887 
L 605.24471 134.367887 
L 602.889989 134.367887 
L 600.535267 134.367887 
L 598.180545 134.367887 
L 595.825823 134.367887 
L 593.471101 134.367887 
L 591.116379 134.367887 
L 588.761657 134.367887 
L 586.406935 134.367887 
L 584.052213 134.367887 
L 581.697491 134.367887 
L 579.342769 134.367887 
L 576.988047 134.367887 
L 574.633325 134.367887 
L 572.278603 134.367887 
L 569.923881 134.367887 
L 567.569159 134.367887 
L 565.214437 134.367887 
L 562.859715 134.367887 
L 560.504993 134.367887 
L 558.150271 134.367887 
L 555.795549 134.367887 
L 553.440827 134.367887 
L 551.086105 134.367887 
L 548.731383 134.367887 
L 546.376661 134.367887 
L 544.021939 134.367887 
L 541.667217 134.367887 
L 539.312495 134.367887 
L 536.957773 134.367887 
L 534.603051 134.367887 
L 532.248329 134.367887 
L 529.893607 134.367887 
L 527.538885 134.367887 
L 525.184163 134.367887 
L 522.829441 134.367887 
L 520.474719 134.367887 
L 518.119997 134.367887 
L 515.765275 134.367887 
L 513.410553 134.367887 
L 511.055831 134.367887 
L 508.701109 134.367887 
L 506.346387 134.367887 
L 503.991665 134.367887 
L 501.636943 134.367887 
L 499.282221 134.367887 
L 496.927499 134.367887 
L 494.572777 134.367887 
L 492.218055 134.367887 
L 489.863333 134.367887 
L 487.508611 134.367887 
L 485.153889 134.367887 
L 482.799167 134.367887 
L 480.444445 134.367887 
L 478.089723 134.367887 
L 475.735001 134.367887 
L 473.380279 134.367887 
L 471.025557 134.367887 
L 468.670835 134.367887 
L 466.316113 134.367887 
L 463.961391 134.367887 
L 461.606669 134.367887 
L 459.251947 134.367887 
L 456.897225 134.367887 
L 454.542503 134.367887 
L 452.187781 134.367887 
L 449.833059 134.367887 
L 447.478337 134.367887 
L 445.123615 134.367887 
L 442.768893 134.367887 
L 440.414171 134.367887 
L 438.059449 134.367887 
L 435.704727 134.367887 
L 433.350005 134.367887 
L 430.995283 134.367887 
L 428.640561 134.367887 
L 426.285839 134.367887 
L 423.931117 134.367887 
L 421.576395 134.367887 
L 419.221673 134.367887 
L 416.866951 134.367887 
L 414.512229 134.367887 
L 412.157507 134.367887 
L 409.802785 134.367887 
L 407.448063 134.367887 
L 405.093341 134.367887 
L 402.738619 134.367887 
L 400.383897 134.367887 
L 398.029175 134.367887 
L 395.674453 134.367887 
L 393.319731 134.367887 
L 390.965009 134.367887 
L 388.610287 134.367887 
L 386.255565 134.367887 
L 383.900843 134.367887 
L 381.546121 134.367887 
L 379.191399 134.367887 
L 376.836677 134.367887 
L 374.481955 134.367887 
L 372.127233 134.367887 
L 369.772511 134.367887 
L 367.41779 134.367887 
L 365.063068 134.367887 
L 362.708346 134.367887 
L 360.353624 134.367887 
L 357.998902 134.367887 
L 355.64418 134.367887 
L 353.289458 134.367887 
L 350.934736 134.367887 
L 348.580014 134.367887 
L 346.225292 134.367887 
L 343.87057 134.367887 
L 341.515848 134.367887 
L 339.161126 134.367887 
L 336.806404 134.367887 
L 334.451682 134.367887 
L 332.09696 134.367887 
L 329.742238 134.367887 
L 327.387516 134.367887 
L 325.032794 134.367887 
L 322.678072 134.367887 
L 320.32335 134.367887 
L 317.968628 134.367887 
L 315.613906 134.367887 
L 313.259184 134.367887 
L 310.904462 134.367887 
L 308.54974 134.367887 
L 306.195018 134.367887 
L 303.840296 134.367887 
L 301.485574 134.367887 
L 299.130852 134.367887 
L 296.77613 134.367887 
L 294.421408 134.367887 
L 292.066686 134.367887 
L 289.711964 134.367887 
L 287.357242 134.367887 
L 285.00252 134.367887 
L 282.647798 134.367887 
L 280.293076 134.367887 
L 277.938354 134.367887 
L 275.583632 134.367887 
L 273.22891 134.367887 
L 270.874188 134.367887 
L 268.519466 134.367887 
L 266.164744 134.367887 
L 263.810022 134.367887 
L 261.4553 134.367887 
L 259.100578 134.367887 
L 256.745856 134.367887 
L 254.391134 134.367887 
L 252.036412 134.367887 
L 249.68169 134.367887 
L 247.326968 134.367887 
L 244.972246 134.367887 
L 242.617524 134.367887 
L 240.262802 134.367887 
L 237.90808 134.367887 
L 235.553358 134.367887 
L 233.198636 134.367887 
L 230.843914 134.367887 
L 228.489192 134.367887 
L 226.13447 134.367887 
L 223.779748 134.367887 
L 221.425026 134.367887 
L 219.070304 134.367887 
L 216.715582 134.367887 
L 214.36086 134.367887 
L 212.006138 134.367887 
L 209.651416 134.367887 
L 207.296694 134.367887 
L 204.941972 134.367887 
L 202.58725 134.367887 
L 200.232528 134.367887 
L 197.877806 134.367887 
L 195.523084 134.367887 
L 193.168362 134.367887 
L 190.81364 134.367887 
L 188.458918 129.486373 
L 186.104196 124.845302 
L 183.749474 120.677073 
L 181.394752 117.020594 
L 179.04003 113.914771 
L 176.685308 111.398512 
L 174.330586 109.510725 
L 171.975864 108.290315 
L 169.621142 107.77619 
L 167.26642 108.007259 
L 164.911698 109.022426 
L 162.556976 110.8606 
L 160.202254 113.560688 
L 157.847532 117.161597 
L 155.49281 121.702234 
L 153.138088 127.221507 
L 150.783366 133.758321 
L 148.428644 134.367887 
L 146.073922 134.367887 
L 143.7192 134.367887 
L 141.364478 134.367887 
L 139.009756 134.367887 
L 136.655034 134.367887 
L 134.300312 134.367887 
z
" clip-path="url(#p14a8c250c3)" style="fill: #c7eae5"/>
   </g>
   <g id="matplotlib.axis_1">
    <g id="xtick_1">
     <g id="line2d_1">
      <path d="M 134.300312 475.3 
L 134.300312 89.4 
" clip-path="url(#p14a8c250c3)" style="fill: none; stroke: #ffffff; stroke-opacity: 0.3; stroke-width: 0.75; stroke-linecap: square"/>
     </g>
     <g id="line2d_2">
      <defs>
       <path id="ma8519723a8" d="M 0 0 
L 0 3.5 
" style="stroke: #000000; stroke-width: 0.8"/>
      </defs>
      <g>
       <use xlink:href="#ma8519723a8" x="134.300312" y="475.3" style="stroke: #000000; stroke-width: 0.8"/>
      </g>
     </g>
     <g id="text_1">
      <text style="font-weight: 600; font-size: 24px; font-family: 'Montserrat'; fill: #767676" transform="translate(140.875937 609.425) rotate(-90)">01-01-2023</text>
     </g>
    </g>
    <g id="xtick_2">
     <g id="line2d_3">
      <path d="M 198.305937 475.3 
L 198.305937 89.4 
" clip-path="url(#p14a8c250c3)" style="fill: none; stroke: #ffffff; stroke-opacity: 0.3; stroke-width: 0.75; stroke-linecap: square"/>
     </g>
     <g id="line2d_4">
      <g>
       <use xlink:href="#ma8519723a8" x="198.305937" y="475.3" style="stroke: #000000; stroke-width: 0.8"/>
      </g>
     </g>
     <g id="text_2">
      <text style="font-weight: 600; font-size: 24px; font-family: 'Montserrat'; fill: #767676" transform="translate(204.881562 614.25125) rotate(-90)">01-02-2023</text>
     </g>
    </g>
    <g id="xtick_3">
     <g id="line2d_5">
      <path d="M 262.311562 475.3 
L 262.311562 89.4 
" clip-path="url(#p14a8c250c3)" style="fill: none; stroke: #ffffff; stroke-opacity: 0.3; stroke-width: 0.75; stroke-linecap: square"/>
     </g>
     <g id="line2d_6">
      <g>
       <use xlink:href="#ma8519723a8" x="262.311562" y="475.3" style="stroke: #000000; stroke-width: 0.8"/>
      </g>
     </g>
     <g id="text_3">
      <text style="font-weight: 600; font-size: 24px; font-family: 'Montserrat'; fill: #767676" transform="translate(268.887187 614.25125) rotate(-90)">01-03-2023</text>
     </g>
    </g>
    <g id="xtick_4">
     <g id="line2d_7">
      <path d="M 326.317187 475.3 
L 326.317187 89.4 
" clip-path="url(#p14a8c250c3)" style="fill: none; stroke: #ffffff; stroke-opacity: 0.3; stroke-width: 0.75; stroke-linecap: square"/>
     </g>
     <g id="line2d_8">
      <g>
       <use xlink:href="#ma8519723a8" x="326.317187" y="475.3" style="stroke: #000000; stroke-width: 0.8"/>
      </g>
     </g>
     <g id="text_4">
      <text style="font-weight: 600; font-size: 24px; font-family: 'Montserrat'; fill: #767676" transform="translate(332.892812 616.58) rotate(-90)">01-04-2023</text>
     </g>
    </g>
    <g id="xtick_5">
     <g id="line2d_9">
      <path d="M 390.322812 475.3 
L 390.322812 89.4 
" clip-path="url(#p14a8c250c3)" style="fill: none; stroke: #ffffff; stroke-opacity: 0.3; stroke-width: 0.75; stroke-linecap: square"/>
     </g>
     <g id="line2d_10">
      <g>
       <use xlink:href="#ma8519723a8" x="390.322812" y="475.3" style="stroke: #000000; stroke-width: 0.8"/>
      </g>
     </g>
     <g id="text_5">
      <text style="font-weight: 600; font-size: 24px; font-family: 'Montserrat'; fill: #767676" transform="translate(396.898437 614.3) rotate(-90)">01-05-2023</text>
     </g>
    </g>
    <g id="xtick_6">
     <g id="line2d_11">
      <path d="M 454.328437 475.3 
L 454.328437 89.4 
" clip-path="url(#p14a8c250c3)" style="fill: none; stroke: #ffffff; stroke-opacity: 0.3; stroke-width: 0.75; stroke-linecap: square"/>
     </g>
     <g id="line2d_12">
      <g>
       <use xlink:href="#ma8519723a8" x="454.328437" y="475.3" style="stroke: #000000; stroke-width: 0.8"/>
      </g>
     </g>
     <g id="text_6">
      <text style="font-weight: 600; font-size: 24px; font-family: 'Montserrat'; fill: #767676" transform="translate(460.904062 615.33125) rotate(-90)">01-06-2023</text>
     </g>
    </g>
    <g id="xtick_7">
     <g id="line2d_13">
      <path d="M 518.334062 475.3 
L 518.334062 89.4 
" clip-path="url(#p14a8c250c3)" style="fill: none; stroke: #ffffff; stroke-opacity: 0.3; stroke-width: 0.75; stroke-linecap: square"/>
     </g>
     <g id="line2d_14">
      <g>
       <use xlink:href="#ma8519723a8" x="518.334062" y="475.3" style="stroke: #000000; stroke-width: 0.8"/>
      </g>
     </g>
     <g id="text_7">
      <text style="font-weight: 600; font-size: 24px; font-family: 'Montserrat'; fill: #767676" transform="translate(524.909687 614.87375) rotate(-90)">01-07-2023</text>
     </g>
    </g>
    <g id="xtick_8">
     <g id="line2d_15">
      <path d="M 582.339687 475.3 
L 582.339687 89.4 
" clip-path="url(#p14a8c250c3)" style="fill: none; stroke: #ffffff; stroke-opacity: 0.3; stroke-width: 0.75; stroke-linecap: square"/>
     </g>
     <g id="line2d_16">
      <g>
       <use xlink:href="#ma8519723a8" x="582.339687" y="475.3" style="stroke: #000000; stroke-width: 0.8"/>
      </g>
     </g>
     <g id="text_8">
      <text style="font-weight: 600; font-size: 24px; font-family: 'Montserrat'; fill: #767676" transform="translate(588.915312 615.93125) rotate(-90)">01-08-2023</text>
     </g>
    </g>
    <g id="xtick_9">
     <g id="line2d_17">
      <path d="M 646.345312 475.3 
L 646.345312 89.4 
" clip-path="url(#p14a8c250c3)" style="fill: none; stroke: #ffffff; stroke-opacity: 0.3; stroke-width: 0.75; stroke-linecap: square"/>
     </g>
     <g id="line2d_18">
      <g>
       <use xlink:href="#ma8519723a8" x="646.345312" y="475.3" style="stroke: #000000; stroke-width: 0.8"/>
      </g>
     </g>
     <g id="text_9">
      <text style="font-weight: 600; font-size: 24px; font-family: 'Montserrat'; fill: #767676" transform="translate(652.920937 615.33125) rotate(-90)">01-09-2023</text>
     </g>
    </g>
    <g id="xtick_10">
     <g id="line2d_19">
      <path d="M 710.350937 475.3 
L 710.350937 89.4 
" clip-path="url(#p14a8c250c3)" style="fill: none; stroke: #ffffff; stroke-opacity: 0.3; stroke-width: 0.75; stroke-linecap: square"/>
     </g>
     <g id="line2d_20">
      <g>
       <use xlink:href="#ma8519723a8" x="710.350937" y="475.3" style="stroke: #000000; stroke-width: 0.8"/>
      </g>
     </g>
     <g id="text_10">
      <text style="font-weight: 600; font-size: 24px; font-family: 'Montserrat'; fill: #767676" transform="translate(716.926562 609.425) rotate(-90)">01-10-2023</text>
     </g>
    </g>
    <g id="xtick_11">
     <g id="line2d_21">
      <path d="M 774.356562 475.3 
L 774.356562 89.4 
" clip-path="url(#p14a8c250c3)" style="fill: none; stroke: #ffffff; stroke-opacity: 0.3; stroke-width: 0.75; stroke-linecap: square"/>
     </g>
     <g id="line2d_22">
      <g>
       <use xlink:href="#ma8519723a8" x="774.356562" y="475.3" style="stroke: #000000; stroke-width: 0.8"/>
      </g>
     </g>
     <g id="text_11">
      <text style="font-weight: 600; font-size: 24px; font-family: 'Montserrat'; fill: #767676" transform="translate(780.932187 602.41625) rotate(-90)">01-11-2023</text>
     </g>
    </g>
    <g id="xtick_12">
     <g id="line2d_23">
      <path d="M 838.362187 475.3 
L 838.362187 89.4 
" clip-path="url(#p14a8c250c3)" style="fill: none; stroke: #ffffff; stroke-opacity: 0.3; stroke-width: 0.75; stroke-linecap: square"/>
     </g>
     <g id="line2d_24">
      <g>
       <use xlink:href="#ma8519723a8" x="838.362187" y="475.3" style="stroke: #000000; stroke-width: 0.8"/>
      </g>
     </g>
     <g id="text_12">
      <text style="font-weight: 600; font-size: 24px; font-family: 'Montserrat'; fill: #767676" transform="translate(844.937812 607.2425) rotate(-90)">01-12-2023</text>
     </g>
    </g>
    <g id="text_13">
     <text style="font-weight: 500; font-size: 24px; font-family: 'Montserrat'; text-anchor: middle" x="486.33125" y="638.38875" transform="rotate(-0 486.33125 638.38875)">Fecha</text>
    </g>
   </g>
   <g id="matplotlib.axis_2">
    <g id="ytick_1">
     <g id="line2d_25">
      <path d="M 102.2975 475.3 
L 870.365 475.3 
" clip-path="url(#p14a8c250c3)" style="fill: none; stroke: #ffffff; stroke-opacity: 0.8; stroke-width: 1.25; stroke-linecap: square"/>
     </g>
     <g id="line2d_26">
      <defs>
       <path id="m09e6436d78" d="M 0 0 
L -3.5 0 
" style="stroke: #000000; stroke-width: 0.8"/>
      </defs>
      <g>
       <use xlink:href="#m09e6436d78" x="102.2975" y="475.3" style="stroke: #000000; stroke-width: 0.8"/>
      </g>
     </g>
     <g id="text_14">
      <text style="font-weight: 500; font-size: 24px; font-family: 'Montserrat'; text-anchor: end; fill: #767676" x="95.2975" y="484.204375" transform="rotate(-0 95.2975 484.204375)">0%</text>
     </g>
    </g>
    <g id="ytick_2">
     <g id="line2d_27">
      <path d="M 102.2975 390.066972 
L 870.365 390.066972 
" clip-path="url(#p14a8c250c3)" style="fill: none; stroke: #ffffff; stroke-opacity: 0.8; stroke-width: 1.25; stroke-linecap: square"/>
     </g>
     <g id="line2d_28">
      <g>
       <use xlink:href="#m09e6436d78" x="102.2975" y="390.066972" style="stroke: #000000; stroke-width: 0.8"/>
      </g>
     </g>
     <g id="text_15">
      <text style="font-weight: 500; font-size: 24px; font-family: 'Montserrat'; text-anchor: end; fill: #767676" x="95.2975" y="398.971347" transform="rotate(-0 95.2975 398.971347)">25%</text>
     </g>
    </g>
    <g id="ytick_3">
     <g id="line2d_29">
      <path d="M 102.2975 304.833944 
L 870.365 304.833944 
" clip-path="url(#p14a8c250c3)" style="fill: none; stroke: #ffffff; stroke-opacity: 0.8; stroke-width: 1.25; stroke-linecap: square"/>
     </g>
     <g id="line2d_30">
      <g>
       <use xlink:href="#m09e6436d78" x="102.2975" y="304.833944" style="stroke: #000000; stroke-width: 0.8"/>
      </g>
     </g>
     <g id="text_16">
      <text style="font-weight: 500; font-size: 24px; font-family: 'Montserrat'; text-anchor: end; fill: #767676" x="95.2975" y="313.738319" transform="rotate(-0 95.2975 313.738319)">50%</text>
     </g>
    </g>
    <g id="ytick_4">
     <g id="line2d_31">
      <path d="M 102.2975 219.600916 
L 870.365 219.600916 
" clip-path="url(#p14a8c250c3)" style="fill: none; stroke: #ffffff; stroke-opacity: 0.8; stroke-width: 1.25; stroke-linecap: square"/>
     </g>
     <g id="line2d_32">
      <g>
       <use xlink:href="#m09e6436d78" x="102.2975" y="219.600916" style="stroke: #000000; stroke-width: 0.8"/>
      </g>
     </g>
     <g id="text_17">
      <text style="font-weight: 500; font-size: 24px; font-family: 'Montserrat'; text-anchor: end; fill: #767676" x="95.2975" y="228.505291" transform="rotate(-0 95.2975 228.505291)">75%</text>
     </g>
    </g>
    <g id="ytick_5">
     <g id="line2d_33">
      <path d="M 102.2975 134.367887 
L 870.365 134.367887 
" clip-path="url(#p14a8c250c3)" style="fill: none; stroke: #ffffff; stroke-opacity: 0.8; stroke-width: 1.25; stroke-linecap: square"/>
     </g>
     <g id="line2d_34">
      <g>
       <use xlink:href="#m09e6436d78" x="102.2975" y="134.367887" style="stroke: #000000; stroke-width: 0.8"/>
      </g>
     </g>
     <g id="text_18">
      <text style="font-weight: 500; font-size: 24px; font-family: 'Montserrat'; text-anchor: end; fill: #767676" x="95.2975" y="143.272262" transform="rotate(-0 95.2975 143.272262)">100%</text>
     </g>
    </g>
    <g id="text_19">
     <text style="font-weight: 500; font-size: 24px; font-family: 'Montserrat'; text-anchor: middle" x="25.36875" y="282.35" transform="rotate(-90 25.36875 282.35)">Porcentaje</text>
    </g>
   </g>
   <g id="patch_3">
    <path d="M 102.2975 475.3 
L 870.365 475.3 
" style="fill: none; stroke: #000000; stroke-width: 2; stroke-linejoin: miter; stroke-linecap: square"/>
   </g>
   <g id="text_20">
    <g id="patch_4">
     <path d="M 122.828437 445.521121 
L 145.772188 445.521121 
Q 165.772188 445.521121 165.772188 425.521121 
L 165.772188 422.799246 
Q 165.772188 402.799246 145.772188 402.799246 
L 122.828437 402.799246 
Q 102.828437 402.799246 102.828437 422.799246 
L 102.828437 425.521121 
Q 102.828437 445.521121 122.828437 445.521121 
z
" style="fill: #ffffff; stroke: #d9d9d9; stroke-width: 1.8; stroke-linejoin: miter"/>
    </g>
    <text style="font-weight: 500; font-size: 20px; font-family: 'Montserrat'; text-anchor: middle; fill: #10302c" x="134.300312" y="429.639871" transform="rotate(-0 134.300312 429.639871)">2.23</text>
   </g>
   <g id="text_21">
    <g id="patch_5">
     <path d="M 474.6 326.194881 
L 498.0625 326.194881 
Q 518.0625 326.194881 518.0625 306.194881 
L 518.0625 303.473006 
Q 518.0625 283.473006 498.0625 283.473006 
L 474.6 283.473006 
Q 454.6 283.473006 454.6 303.473006 
L 454.6 306.194881 
Q 454.6 326.194881 474.6 326.194881 
z
" style="fill: #ffffff; stroke: #d9d9d9; stroke-width: 1.8; stroke-linejoin: miter"/>
    </g>
    <text style="font-weight: 500; font-size: 20px; font-family: 'Montserrat'; text-anchor: middle; fill: #10302c" x="486.33125" y="310.313631" transform="rotate(-0 486.33125 310.313631)">2.27</text>
   </g>
   <g id="text_22">
    <g id="patch_6">
     <path d="M 827.980937 206.868642 
L 848.743437 206.868642 
Q 868.743437 206.868642 868.743437 186.868642 
L 868.743437 184.146767 
Q 868.743437 164.146767 848.743437 164.146767 
L 827.980937 164.146767 
Q 807.980937 164.146767 807.980937 184.146767 
L 807.980937 186.868642 
Q 807.980937 206.868642 827.980937 206.868642 
z
" style="fill: #ffffff; stroke: #d9d9d9; stroke-width: 1.8; stroke-linejoin: miter"/>
    </g>
    <text style="font-weight: 500; font-size: 20px; font-family: 'Montserrat'; text-anchor: middle; fill: #10302c" x="838.362187" y="190.987392" transform="rotate(-0 838.362187 190.987392)">1.20</text>
   </g>
  </g>
  <g id="axes_2">
   <g id="patch_7">
    <path d="M 881.165 475.3 
L 1137.1875 475.3 
L 1137.1875 89.4 
L 881.165 89.4 
z
" style="fill: #ffffff"/>
   </g>
   <g id="patch_8">
    <path d="M 945.170625 475.3 
L 1073.181875 475.3 
L 1073.181875 242.968835 
L 945.170625 242.968835 
z
" clip-path="url(#p4d5849e34f)" style="fill: #215f53; stroke: #ffffff; stroke-width: 0.5; stroke-linejoin: miter"/>
   </g>
   <g id="patch_9">
    <path d="M 945.170625 242.968835 
L 1073.181875 242.968835 
L 1073.181875 176.451386 
L 945.170625 176.451386 
z
" clip-path="url(#p4d5849e34f)" style="fill: #7570b3; stroke: #ffffff; stroke-width: 0.5; stroke-linejoin: miter"/>
   </g>
   <g id="patch_10">
    <path d="M 945.170625 176.451386 
L 1073.181875 176.451386 
L 1073.181875 89.4 
L 945.170625 89.4 
z
" clip-path="url(#p4d5849e34f)" style="fill: #c7eae5; stroke: #ffffff; stroke-width: 0.5; stroke-linejoin: miter"/>
   </g>
   <g id="matplotlib.axis_3"/>
   <g id="matplotlib.axis_4"/>
   <g id="text_23">
    <text style="font-weight: 500; font-size: 20px; font-family: 'Montserrat'; text-anchor: middle; fill: #ffffff" x="1009.17625" y="364.614105" transform="rotate(-0 1009.17625 364.614105)">60.2%</text>
   </g>
   <g id="text_24">
    <text style="font-weight: 500; font-size: 20px; font-family: 'Montserrat'; text-anchor: middle; fill: #ffffff" x="1009.17625" y="215.189798" transform="rotate(-0 1009.17625 215.189798)">17.2%</text>
   </g>
   <g id="text_25">
    <text style="font-weight: 500; font-size: 20px; font-family: 'Montserrat'; text-anchor: middle; fill: #ffffff" x="1009.17625" y="138.40538" transform="rotate(-0 1009.17625 138.40538)">22.6%</text>
   </g>
  </g>
  <g id="legend_1">
   <g id="patch_11">
    <path d="M 187.957031 41.460937 
L 247.957031 41.460937 
L 247.957031 20.460937 
L 187.957031 20.460937 
z
" style="fill: #215f53"/>
   </g>
   <g id="text_26">
    <text style="font-weight: 500; font-size: 30px; font-family: 'Montserrat'; text-anchor: start" x="271.957031" y="41.460937" transform="rotate(-0 271.957031 41.460937)">Comisiones</text>
   </g>
   <g id="patch_12">
    <path d="M 509.046094 41.460937 
L 569.046094 41.460937 
L 569.046094 20.460937 
L 509.046094 20.460937 
z
" style="fill: #7570b3"/>
   </g>
   <g id="text_27">
    <text style="font-weight: 500; font-size: 30px; font-family: 'Montserrat'; text-anchor: start" x="593.046094" y="41.460937" transform="rotate(-0 593.046094 41.460937)">Fiscalas</text>
   </g>
   <g id="patch_13">
    <path d="M 780.274219 41.460937 
L 840.274219 41.460937 
L 840.274219 20.460937 
L 780.274219 20.460937 
z
" style="fill: #c7eae5"/>
   </g>
   <g id="text_28">
    <text style="font-weight: 500; font-size: 30px; font-family: 'Montserrat'; text-anchor: start" x="864.274219" y="41.460937" transform="rotate(-0 864.274219 41.460937)">Portal</text>
   </g>
  </g>
 </g>
 <defs>
  <clipPath id="p14a8c250c3">
   <rect x="102.2975" y="89.4" width="768.0675" height="385.9"/>
  </clipPath>
  <clipPath id="p4d5849e34f">
   <rect x="881.165" y="89.4" width="256.0225" height="385.9"/>
  </clipPath>
 </defs>
</svg>
