<svg xmlns="http://www.w3.org/2000/svg" xmlns:xlink="http://www.w3.org/1999/xlink" width="1144.4pt" height="757.4" viewBox="0 0 1144.4 568.05"><defs><style>*{stroke-linejoin:round;stroke-linecap:butt}</style></defs><path fill="#fff" d="M0 568.05h1144.4V0H0z"/><path fill="#fff" d="M102.3 381.1h768.07V7.2H102.3z"/><path fill="#215f53" d="M134.3 129.25V381.1h704.055V175.5l-2.354 11.649-2.355 10.689-2.355 9.76-2.355 8.859-2.354 7.988-2.355 7.148-2.355 6.335-2.354 5.554-2.355 4.801-2.355 4.078-2.354 3.385-2.355 2.721-2.355 2.087-2.355 1.482-2.354.907-2.355.362-2.355-.155-2.354-.641-2.355-1.098-2.355-1.525-2.354-1.924-2.355-2.291-2.355-2.63-2.355-2.94-2.354-3.219-2.355-3.468-2.355-3.69-2.354-3.88-2.355-4.042-2.355-4.173-2.354-4.276-2.355-4.348-2.355-4.392-2.355-4.405-2.354-4.39-2.355-4.343-2.355-4.268-2.354-4.164-2.355-4.03-2.355-3.866-2.354-3.672-2.355-3.45-2.355-3.197-2.355-2.915-2.354-2.604-2.355-2.262-2.355-1.892-2.354-1.492-2.355-1.062-2.355-.603-2.354-.113-2.355.404-2.355.953-2.355 1.53-2.354 2.134-2.355 2.722-2.355 3.264-2.354 3.76-2.355 4.208-2.355 4.612-2.354 4.968-2.355 5.279-2.355 5.542-2.355 5.76-2.354 5.932-2.355 6.056-2.355 6.134-2.354 6.167-2.355 6.153-2.355 6.092-2.354 5.985-2.355 5.832-2.355 5.632-2.355 5.386-2.354 5.094-2.355 4.756-2.355 4.37-2.354 3.94-2.355 3.46-2.355 2.938-2.354 2.366-2.355 1.752-2.355 1.129-2.355.543-2.354-.004-2.355-.513-2.355-.983-2.354-1.415-2.355-1.809-2.355-2.162-2.354-2.48-2.355-2.755-2.355-2.996-2.355-3.195-2.354-3.357-2.355-3.481-2.355-3.565-2.354-3.611-2.355-3.62-2.355-3.587-2.354-3.518-2.355-3.41-2.355-3.264-2.355-3.078-2.354-2.854-2.355-2.592-2.355-2.291-2.354-1.952-2.355-1.573-2.355-1.18-2.354-.814-2.355-.478-2.355-.173-2.355.102-2.354.344-2.355.557-2.355.739-2.354.889-2.355 1.008-2.355 1.098-2.354 1.155-2.355 1.182-2.355 1.178-2.355 1.144-2.354 1.077-2.355.981-2.355.854-2.354.695-2.355.506-2.355.285-2.354.035-2.355-.247-2.355-.56-2.355-.905-2.354-1.278-2.355-1.685-2.355-2.104-2.354-2.489-2.355-2.828-2.355-3.122-2.354-3.372-2.355-3.575-2.355-3.735-2.355-3.85-2.354-3.917-2.355-3.942-2.355-3.92-2.354-3.854-2.355-3.743-2.355-3.586-2.354-3.385-2.355-3.138-2.355-2.846-2.355-2.51-2.354-2.128-2.355-1.7-2.355-1.23-2.354-.71-2.355-.15-2.355.457-2.354 1.11-2.355 1.808-2.355 2.55-2.355 3.323-2.354 4.06-2.355 4.734-2.355 5.346-2.354 5.896-2.355 6.386-2.355 6.813-2.354 7.179-2.355 7.483-2.355 7.726-2.355 7.906-2.354 8.026-2.355 8.083-2.355 8.08-2.354 8.013-2.355 7.887-2.355 7.697-2.354 7.447-2.355 7.135-2.355 6.761-2.355 6.326-2.354 5.828-2.355 5.27-2.355 4.649-2.354 3.967-2.355 3.224-2.355 2.418-2.354 1.559-2.355.708-2.355-.095-2.355-.854-2.354-1.567-2.355-2.232-2.355-2.853-2.354-3.426-2.355-3.955-2.355-4.437-2.354-4.873-2.355-5.264-2.355-5.607-2.355-5.906-2.354-6.157-2.355-6.364-2.355-6.523-2.354-6.638-2.355-6.706-2.355-6.728-2.354-6.703-2.355-6.634-2.355-6.518-2.355-6.355-2.354-6.148-2.355-5.893-2.355-5.594-2.354-5.248-2.355-4.884-2.355-4.523-2.354-4.164-2.355-3.81-2.355-3.457-2.354-3.109-2.355-2.764-2.355-2.423-2.355-2.085-2.354-1.75-2.355-1.42-2.355-1.091-2.354-.767-2.355-.446-2.355-.128-2.354.186-2.355.497-2.355.804-2.355 1.109-2.354 1.409-2.355 1.706-2.355 2-2.354 2.292-2.355 2.578-2.355 2.861-2.354 3.143-2.355 3.418-2.355 3.684-2.355 3.924-2.354 4.14-2.355 4.331-2.355 4.497-2.354 4.638-2.355 4.753-2.355 4.845-2.354 4.91-2.355 4.951-2.355 4.968-2.355 4.958-2.354 4.925-2.355 4.866-2.355 4.782-2.354 4.673-2.355 4.54-2.355 4.38-2.354 4.197-2.355 3.988-2.355 3.755-2.355 3.496-2.354 3.213-2.355 2.904-2.355 2.57-2.354 2.213-2.355 1.829-2.355 1.42-2.354.987-2.355.529-2.355.045-2.355-.463-2.354-.996-2.355-1.554-2.355-2.137-2.354-2.746-2.355-3.378-2.355-4.037-2.354-4.72-2.355-5.427-2.355-6.16-2.355-6.919-2.354-7.7-2.355-8.51-2.355-9.342-2.354-10.2-2.355-11.082-2.355-11.99-2.354-12.923-2.355-13.88-2.355-14.863-2.355-15.87-2.354-16.903-2.355-17.96z" clip-path="url(#a)"/><path fill="#7570b3" d="M134.3 117.51v11.746l2.355 17.961 2.354 16.903 2.355 15.87 2.355 14.863 2.355 13.88 2.354 12.923 2.355 11.99 2.355 11.082 2.354 10.2 2.355 9.342 2.355 8.509 2.354 7.701 2.355 6.919 2.355 6.16 2.355 5.428 2.354 4.72 2.355 4.036 2.355 3.378 2.354 2.746 2.355 2.137 2.355 1.554 2.354.996 2.355.463 2.355-.045 2.355-.53 2.354-.986 2.355-1.42 2.355-1.83 2.354-2.211 2.355-2.571 2.355-2.904 2.354-3.213 2.355-3.496 2.355-3.755 2.355-3.988 2.354-4.197 2.355-4.38 2.355-4.54 2.354-4.673 2.355-4.782 2.355-4.866 2.354-4.925 2.355-4.958 2.355-4.968 2.355-4.951 2.354-4.91 2.355-4.845 2.355-4.754 2.354-4.637 2.355-4.497 2.355-4.33 2.354-4.14 2.355-3.925 2.355-3.684 2.355-3.419 2.354-3.142 2.355-2.861 2.355-2.578 2.354-2.291 2.355-2 2.355-1.707 2.354-1.41 2.355-1.108 2.355-.804 2.355-.497 2.354-.186 2.355.128 2.355.446 2.354.767 2.355 1.09 2.355 1.42 2.354 1.75 2.355 2.085 2.355 2.424 2.354 2.764 2.355 3.11 2.355 3.457 2.355 3.809 2.354 4.164 2.355 4.522 2.355 4.885 2.354 5.248 2.355 5.594 2.355 5.893 2.354 6.148 2.355 6.355 2.355 6.518 2.355 6.634 2.354 6.703 2.355 6.728 2.355 6.706 2.354 6.637 2.355 6.524 2.355 6.364 2.354 6.157 2.355 5.906 2.355 5.607 2.355 5.264 2.354 4.873 2.355 4.437 2.355 3.955 2.354 3.426 2.355 2.853 2.355 2.232 2.354 1.567 2.355.854 2.355.095 2.355-.708 2.354-1.559 2.355-2.418 2.355-3.224 2.354-3.967 2.355-4.65 2.355-5.269 2.354-5.828 2.355-6.326 2.355-6.76 2.355-7.136 2.354-7.447 2.355-7.697 2.355-7.887 2.354-8.013 2.355-8.08 2.355-8.083 2.354-8.026 2.355-7.907 2.355-7.725 2.355-7.483 2.354-7.18 2.355-6.812 2.355-6.386 2.354-5.897 2.355-5.345 2.355-4.734 2.354-4.06 2.355-3.324 2.355-2.55 2.355-1.807 2.354-1.11 2.355-.458 2.355.15 2.354.712 2.355 1.229 2.355 1.7 2.354 2.128 2.355 2.51 2.355 2.846 2.355 3.138 2.354 3.385 2.355 3.586 2.355 3.743 2.354 3.854 2.355 3.92 2.355 3.942 2.354 3.918 2.355 3.849 2.355 3.734 2.355 3.576 2.354 3.372 2.355 3.122 2.355 2.828 2.354 2.49 2.355 2.103 2.355 1.685 2.354 1.278 2.355.904 2.355.56 2.355.248 2.354-.035 2.355-.285 2.355-.506 2.354-.695 2.355-.854 2.355-.98 2.354-1.079 2.355-1.143 2.355-1.178 2.355-1.182 2.354-1.155 2.355-1.098 2.355-1.008 2.354-.89 2.355-.738 2.355-.557 2.354-.344 2.355-.102 2.355.173 2.355.478 2.354.813 2.355 1.18 2.355 1.574 2.354 1.952 2.355 2.29 2.355 2.593 2.354 2.854 2.355 3.078 2.355 3.264 2.355 3.41 2.354 3.518 2.355 3.588 2.355 3.618 2.354 3.612 2.355 3.565 2.355 3.48 2.354 3.358 2.355 3.195 2.355 2.995 2.355 2.757 2.354 2.479 2.355 2.162 2.355 1.809 2.354 1.415 2.355.983 2.355.513 2.354.004 2.355-.543 2.355-1.13 2.355-1.75 2.354-2.367 2.355-2.938 2.355-3.46 2.354-3.94 2.355-4.37 2.355-4.756 2.354-5.094 2.355-5.386 2.355-5.632 2.355-5.832 2.354-5.985 2.355-6.092 2.355-6.153 2.354-6.167 2.355-6.134 2.355-6.056 2.354-5.932 2.355-5.76 2.355-5.542 2.355-5.279 2.354-4.968 2.355-4.612 2.355-4.209 2.354-3.76 2.355-3.263 2.355-2.722 2.354-2.134 2.355-1.53 2.355-.953 2.355-.405 2.354.114 2.355.603 2.355 1.062 2.354 1.492 2.355 1.891 2.355 2.263 2.354 2.604 2.355 2.915 2.355 3.197 2.355 3.45 2.354 3.672 2.355 3.866 2.355 4.03 2.354 4.164 2.355 4.268 2.355 4.344 2.354 4.389 2.355 4.405 2.355 4.391 2.355 4.349 2.354 4.276 2.355 4.173 2.355 4.042 2.354 3.88 2.355 3.69 2.355 3.468 2.354 3.22 2.355 2.939 2.355 2.63 2.355 2.291 2.354 1.923 2.355 1.526 2.355 1.098 2.354.64 2.355.156 2.355-.362 2.354-.907 2.355-1.482 2.355-2.087 2.355-2.72 2.354-3.386 2.355-4.078 2.355-4.801 2.354-5.554 2.355-6.336 2.355-7.147 2.354-7.988 2.355-8.86 2.355-9.76L836 187.149l2.354-11.65v-49.56l-2.354 1.198-2.355 1.048-2.355.903-2.355.76-2.354.622-2.355.486-2.355.355-2.354.226-2.355.101-2.355-.02-2.354-.137-2.355-.252-2.355-.363-2.355-.47-2.354-.573-2.355-.673-2.355-.77-2.354-.864-2.355-.953-2.355-1.04-2.354-1.122-2.355-1.2-2.355-1.278-2.355-1.348-2.354-1.418-2.355-1.482-2.355-1.544-2.354-1.602-2.355-1.657-2.355-1.708-2.354-1.755-2.355-1.8-2.355-1.839-2.355-1.876-2.354-1.91-2.355-1.94-2.355-1.967-2.354-1.99-2.355-2.01-2.355-2.024-2.354-2.037-2.355-2.047-2.355-2.051-2.355-2.054-2.354-2.052-2.355-2.047-2.355-2.038-2.354-2.026-2.355-2.01-2.355-1.991-2.354-1.969-2.355-1.942-2.355-1.912-2.355-1.88-2.354-1.842-2.355-1.802-2.355-1.755-2.354-1.704-2.355-1.649-2.355-1.588-2.354-1.522-2.355-1.452-2.355-1.376-2.355-1.296-2.354-1.211-2.355-1.121-2.355-1.026-2.354-.926-2.355-.822-2.355-.711-2.354-.597-2.355-.478-2.355-.353-2.355-.225-2.354-.09-2.355.05-2.355.192-2.354.342-2.355.496-2.355.654-2.354.817-2.355.986-2.355 1.154-2.355 1.317-2.354 1.474-2.355 1.625-2.355 1.771-2.354 1.912-2.355 2.046-2.355 2.175-2.354 2.298-2.355 2.416-2.355 2.528-2.355 2.634-2.354 2.734-2.355 2.83-2.355 2.919-2.354 3.002-2.355 3.081-2.355 3.153-2.354 3.22-2.355 3.28-2.355 3.336-2.355 3.386-2.354 3.43-2.355 3.468-2.355 3.501-2.354 3.528-2.355 3.55-2.355 3.56-2.354 3.556-2.355 3.532-2.355 3.49-2.355 3.43-2.354 3.353-2.355 3.257-2.355 3.142-2.354 3.01-2.355 2.86-2.355 2.693-2.354 2.506-2.355 2.302-2.355 2.08-2.355 1.839-2.354 1.58-2.355 1.305-2.355 1.01-2.354.697-2.355.367-2.355.017-2.354-.348-2.355-.734-2.355-1.137-2.355-1.557-2.354-1.996-2.355-2.454-2.355-2.916-2.354-3.348-2.355-3.74-2.355-4.097-2.354-4.412-2.355-4.69-2.355-4.93-2.355-5.13-2.354-5.294-2.355-5.419-2.355-5.504-2.354-5.552-2.355-5.56-2.355-5.533-2.354-5.464-2.355-5.359-2.355-5.214-2.355-5.032-2.354-4.81-2.355-4.551-2.355-4.254-2.354-3.917-2.355-3.542-2.355-3.13-2.354-2.677-2.355-2.188-2.355-1.66-2.355-1.102-2.354-.565-2.355-.063-2.355.404-2.354.835-2.355 1.23-2.355 1.59-2.354 1.914-2.355 2.203-2.355 2.456-2.355 2.673-2.354 2.854-2.355 3.001-2.355 3.112-2.354 3.187-2.355 3.226-2.355 3.23-2.354 3.197-2.355 3.131-2.355 3.028-2.355 2.889-2.354 2.715-2.355 2.505-2.355 2.26-2.354 1.979-2.355 1.662-2.355 1.31-2.354.927-2.355.548-2.355.195-2.355-.131-2.354-.432-2.355-.707-2.355-.956-2.354-1.179-2.355-1.375-2.355-1.547-2.354-1.692-2.355-1.811-2.355-1.904-2.355-1.972-2.354-2.013-2.355-2.029-2.355-2.018-2.354-1.981-2.355-1.92-2.355-1.83-2.354-1.717-2.355-1.576-2.355-1.41-2.355-1.219-2.354-1-2.355-.756-2.355-.487-2.354-.191-2.355.107-2.355.392-2.354.661-2.355.917-2.355 1.157-2.354 1.382-2.355 1.592-2.355 1.788-2.355 1.969-2.354 2.134-2.355 2.286-2.355 2.422-2.354 2.543-2.355 2.65-2.355 2.74-2.354 2.819-2.355 2.88-2.355 2.927-2.355 2.96-2.354 2.977-2.355 2.98-2.355 2.966-2.354 2.94-2.355 2.899-2.355 2.841-2.354 2.77-2.355 2.683-2.355 2.588-2.355 2.492-2.354 2.395-2.355 2.298-2.355 2.202-2.354 2.104-2.355 2.007-2.355 1.91-2.354 1.81-2.355 1.714-2.355 1.615-2.355 1.516-2.354 1.417-2.355 1.319-2.355 1.22-2.354 1.119-2.355 1.02-2.355.92-2.354.82-2.355.719-2.355.619-2.355.518-2.354.416-2.355.316-2.355.213-2.354.112-2.355.01-2.355-.092-2.354-.195-2.355-.298-2.355-.4-2.355-.504-2.354-.607-2.355-.711-2.355-.815-2.354-.919-2.355-1.023-2.355-1.128-2.354-1.233-2.355-1.337-2.355-1.443-2.355-1.549-2.354-1.654-2.355-1.76-2.355-1.867-2.354-1.973-2.355-2.08-2.355-2.186-2.354-2.294-2.355-2.4-2.355-2.51-2.355-2.616-2.354-2.724z" clip-path="url(#a)"/><path fill="#c7eae5" d="M134.3 25.005v92.504l2.355 2.833 2.354 2.724 2.355 2.617 2.355 2.508 2.355 2.401 2.354 2.294 2.355 2.186 2.355 2.08 2.354 1.973 2.355 1.866 2.355 1.76 2.354 1.655 2.355 1.549 2.355 1.443 2.355 1.337 2.354 1.233 2.355 1.128 2.355 1.023 2.354.919 2.355.815 2.355.71 2.354.608 2.355.504 2.355.4 2.355.298 2.354.195 2.355.092 2.355-.01 2.354-.112 2.355-.214 2.355-.315 2.354-.417 2.355-.517 2.355-.62 2.355-.719 2.354-.82 2.355-.92 2.355-1.02 2.354-1.12 2.355-1.218 2.355-1.319 2.354-1.417 2.355-1.517 2.355-1.614 2.355-1.714 2.354-1.811 2.355-1.91 2.355-2.006 2.354-2.104 2.355-2.202 2.355-2.298 2.354-2.395 2.355-2.492 2.355-2.588 2.355-2.683 2.354-2.77 2.355-2.841 2.355-2.899 2.354-2.94 2.355-2.967 2.355-2.98 2.354-2.976 2.355-2.96 2.355-2.927 2.355-2.88 2.354-2.818 2.355-2.742 2.355-2.65 2.354-2.543 2.355-2.421 2.355-2.286 2.354-2.135 2.355-1.968 2.355-1.788 2.354-1.593 2.355-1.382 2.355-1.156 2.355-.917 2.354-.662 2.355-.391 2.355-.107 2.354.191 2.355.487 2.355.756 2.354 1 2.355 1.218 2.355 1.41 2.355 1.577 2.354 1.717 2.355 1.83 2.355 1.92 2.354 1.981 2.355 2.018 2.355 2.029 2.354 2.013 2.355 1.971 2.355 1.905 2.355 1.81 2.354 1.693 2.355 1.547 2.355 1.375 2.354 1.179 2.355.956 2.355.707 2.354.432 2.355.13 2.355-.195 2.355-.548 2.354-.926 2.355-1.31 2.355-1.663 2.354-1.978 2.355-2.26 2.355-2.505 2.354-2.715 2.355-2.89 2.355-3.027 2.355-3.13 2.354-3.199 2.355-3.23 2.355-3.226 2.354-3.186 2.355-3.112 2.355-3 2.354-2.856 2.355-2.673 2.355-2.455 2.355-2.203 2.354-1.914 2.355-1.59 2.355-1.23 2.354-.835 2.355-.404 2.355.063 2.354.565 2.355 1.102 2.355 1.66 2.355 2.188 2.354 2.678 2.355 3.129 2.355 3.542 2.354 3.917 2.355 4.253 2.355 4.551 2.354 4.81 2.355 5.033 2.355 5.214 2.355 5.358 2.354 5.465 2.355 5.532 2.355 5.561 2.354 5.552 2.355 5.504 2.355 5.418 2.354 5.294 2.355 5.131 2.355 4.93 2.355 4.69 2.354 4.412 2.355 4.096 2.355 3.74 2.354 3.349 2.355 2.916 2.355 2.453 2.354 1.997 2.355 1.557 2.355 1.137 2.355.733 2.354.35 2.355-.019 2.355-.366 2.354-.697 2.355-1.01 2.355-1.305 2.354-1.58 2.355-1.84 2.355-2.079 2.355-2.302 2.354-2.506 2.355-2.692 2.355-2.86 2.354-3.011 2.355-3.143 2.355-3.256 2.354-3.353 2.355-3.43 2.355-3.49 2.355-3.532 2.354-3.555 2.355-3.561 2.355-3.55 2.354-3.528 2.355-3.501 2.355-3.468 2.354-3.43 2.355-3.386 2.355-3.336 2.355-3.28 2.354-3.22 2.355-3.153 2.355-3.08 2.354-3.003 2.355-2.92 2.355-2.829 2.354-2.734 2.355-2.634 2.355-2.528 2.355-2.416 2.354-2.298 2.355-2.175 2.355-2.046 2.354-1.912 2.355-1.771 2.355-1.626 2.354-1.474 2.355-1.316 2.355-1.154 2.355-.986 2.354-.817 2.355-.655 2.355-.495 2.354-.342 2.355-.193 2.355-.049 2.354.09 2.355.224 2.355.354 2.355.477 2.354.598 2.355.711 2.355.821 2.354.927 2.355 1.025 2.355 1.121 2.354 1.211 2.355 1.296 2.355 1.377 2.355 1.452 2.354 1.522 2.355 1.588 2.355 1.648 2.354 1.705 2.355 1.755 2.355 1.802 2.354 1.842 2.355 1.88 2.355 1.912 2.355 1.942 2.354 1.968 2.355 1.992 2.355 2.01 2.354 2.026 2.355 2.038 2.355 2.047 2.354 2.052 2.355 2.053 2.355 2.052 2.355 2.046 2.354 2.038 2.355 2.025 2.355 2.009 2.354 1.99 2.355 1.966 2.355 1.94 2.354 1.91 2.355 1.877 2.355 1.84 2.355 1.799 2.354 1.755 2.355 1.708 2.355 1.656 2.354 1.603 2.355 1.544 2.355 1.482 2.354 1.417 2.355 1.35 2.355 1.276 2.355 1.201 2.354 1.122 2.355 1.04 2.355.953 2.354.863 2.355.77 2.355.674 2.354.573 2.355.47 2.355.363 2.355.252 2.354.137 2.355.02 2.355-.101 2.354-.227 2.355-.354 2.355-.486 2.354-.622 2.355-.76 2.355-.903 2.355-1.048 2.354-1.198V25.007H134.3z" clip-path="url(#a)"/><path fill="none" stroke="#fff" stroke-linecap="square" stroke-opacity=".3" stroke-width=".75" d="M134.3 381.1V7.2" clip-path="url(#a)"/><defs><path id="b" stroke="#000" stroke-width=".8" d="M0 0v3.5"/></defs><use xlink:href="#b" x="134.3" y="381.1" stroke="#000" stroke-width=".8"/><text fill="#767676" font-family="'Montserrat'" font-size="24" font-weight="600" transform="rotate(-90 328.05 187.17)">01-01-2023</text><path fill="none" stroke="#fff" stroke-linecap="square" stroke-opacity=".3" stroke-width=".75" d="M198.31 381.1V7.2" clip-path="url(#a)"/><use xlink:href="#b" x="198.306" y="381.1" stroke="#000" stroke-width=".8"/><text fill="#767676" font-family="'Montserrat'" font-size="24" font-weight="600" transform="rotate(-90 362.465 157.585)">01-02-2023</text><path fill="none" stroke="#fff" stroke-linecap="square" stroke-opacity=".3" stroke-width=".75" d="M262.31 381.1V7.2" clip-path="url(#a)"/><use xlink:href="#b" x="262.312" y="381.1" stroke="#000" stroke-width=".8"/><text fill="#767676" font-family="'Montserrat'" font-size="24" font-weight="600" transform="rotate(-90 394.47 125.58)">01-03-2023</text><path fill="none" stroke="#fff" stroke-linecap="square" stroke-opacity=".3" stroke-width=".75" d="M326.32 381.1V7.2" clip-path="url(#a)"/><use xlink:href="#b" x="326.317" y="381.1" stroke="#000" stroke-width=".8"/><text fill="#767676" font-family="'Montserrat'" font-size="24" font-weight="600" transform="rotate(-90 427.635 94.745)">01-04-2023</text><path fill="none" stroke="#fff" stroke-linecap="square" stroke-opacity=".3" stroke-width=".75" d="M390.32 381.1V7.2" clip-path="url(#a)"/><use xlink:href="#b" x="390.323" y="381.1" stroke="#000" stroke-width=".8"/><text fill="#767676" font-family="'Montserrat'" font-size="24" font-weight="600" transform="rotate(-90 458.5 61.6)">01-05-2023</text><path fill="none" stroke="#fff" stroke-linecap="square" stroke-opacity=".3" stroke-width=".75" d="M454.33 381.1V7.2" clip-path="url(#a)"/><use xlink:href="#b" x="454.328" y="381.1" stroke="#000" stroke-width=".8"/><text fill="#767676" font-family="'Montserrat'" font-size="24" font-weight="600" transform="rotate(-90 491.015 30.115)">01-06-2023</text><path fill="none" stroke="#fff" stroke-linecap="square" stroke-opacity=".3" stroke-width=".75" d="M518.33 381.1V7.2" clip-path="url(#a)"/><use xlink:href="#b" x="518.334" y="381.1" stroke="#000" stroke-width=".8"/><text fill="#767676" font-family="'Montserrat'" font-size="24" font-weight="600" transform="rotate(-90 522.79 -2.12)">01-07-2023</text><path fill="none" stroke="#fff" stroke-linecap="square" stroke-opacity=".3" stroke-width=".75" d="M582.34 381.1V7.2" clip-path="url(#a)"/><use xlink:href="#b" x="582.34" y="381.1" stroke="#000" stroke-width=".8"/><text fill="#767676" font-family="'Montserrat'" font-size="24" font-weight="600" transform="rotate(-90 555.325 -33.595)">01-08-2023</text><path fill="none" stroke="#fff" stroke-linecap="square" stroke-opacity=".3" stroke-width=".75" d="M646.35 381.1V7.2" clip-path="url(#a)"/><use xlink:href="#b" x="646.345" y="381.1" stroke="#000" stroke-width=".8"/><text fill="#767676" font-family="'Montserrat'" font-size="24" font-weight="600" transform="rotate(-90 587.025 -65.895)">01-09-2023</text><path fill="none" stroke="#fff" stroke-linecap="square" stroke-opacity=".3" stroke-width=".75" d="M710.35 381.1V7.2" clip-path="url(#a)"/><use xlink:href="#b" x="710.351" y="381.1" stroke="#000" stroke-width=".8"/><text fill="#767676" font-family="'Montserrat'" font-size="24" font-weight="600" transform="rotate(-90 616.075 -100.855)">01-10-2023</text><path fill="none" stroke="#fff" stroke-linecap="square" stroke-opacity=".3" stroke-width=".75" d="M774.36 381.1V7.2" clip-path="url(#a)"/><use xlink:href="#b" x="774.357" y="381.1" stroke="#000" stroke-width=".8"/><text fill="#767676" font-family="'Montserrat'" font-size="24" font-weight="600" transform="rotate(-90 644.575 -136.355)">01-11-2023</text><path fill="none" stroke="#fff" stroke-linecap="square" stroke-opacity=".3" stroke-width=".75" d="M838.36 381.1V7.2" clip-path="url(#a)"/><use xlink:href="#b" x="838.362" y="381.1" stroke="#000" stroke-width=".8"/><text fill="#767676" font-family="'Montserrat'" font-size="24" font-weight="600" transform="rotate(-90 678.99 -165.95)">01-12-2023</text><text x="486.331" y="556.189" font-family="'Montserrat'" font-size="24" font-weight="500" text-anchor="middle">Fecha</text><path fill="none" stroke="#fff" stroke-linecap="square" stroke-opacity=".8" stroke-width="1.25" d="M102.3 381.1h768.07" clip-path="url(#a)"/><defs><path id="c" stroke="#000" stroke-width=".8" d="M0 0h-3.5"/></defs><use xlink:href="#c" x="102.297" y="381.1" stroke="#000" stroke-width=".8"/><text x="95.297" y="390.004" fill="#767676" font-family="'Montserrat'" font-size="24" font-weight="500" text-anchor="end">0%</text><path fill="none" stroke="#fff" stroke-linecap="square" stroke-opacity=".8" stroke-width="1.25" d="M102.3 292.08h768.07" clip-path="url(#a)"/><use xlink:href="#c" x="102.297" y="292.076" stroke="#000" stroke-width=".8"/><text x="95.297" y="300.981" fill="#767676" font-family="'Montserrat'" font-size="24" font-weight="500" text-anchor="end">25%</text><path fill="none" stroke="#fff" stroke-linecap="square" stroke-opacity=".8" stroke-width="1.25" d="M102.3 203.05h768.07" clip-path="url(#a)"/><use xlink:href="#c" x="102.297" y="203.052" stroke="#000" stroke-width=".8"/><text x="95.297" y="211.957" fill="#767676" font-family="'Montserrat'" font-size="24" font-weight="500" text-anchor="end">50%</text><path fill="none" stroke="#fff" stroke-linecap="square" stroke-opacity=".8" stroke-width="1.25" d="M102.3 114.03h768.07" clip-path="url(#a)"/><use xlink:href="#c" x="102.297" y="114.029" stroke="#000" stroke-width=".8"/><text x="95.297" y="122.933" fill="#767676" font-family="'Montserrat'" font-size="24" font-weight="500" text-anchor="end">75%</text><path fill="none" stroke="#fff" stroke-linecap="square" stroke-opacity=".8" stroke-width="1.25" d="M102.3 25.005h768.07" clip-path="url(#a)"/><use xlink:href="#c" x="102.297" y="25.005" stroke="#000" stroke-width=".8"/><text x="95.297" y="33.909" fill="#767676" font-family="'Montserrat'" font-size="24" font-weight="500" text-anchor="end">100%</text><text x="25.369" y="194.15" font-family="'Montserrat'" font-size="24" font-weight="500" text-anchor="middle" transform="rotate(-90 25.369 194.15)">Porcentaje</text><path fill="none" stroke="#000" stroke-linecap="square" stroke-width="2" d="M102.3 381.1h768.07"/><path fill="#fff" stroke="#215f53" stroke-width="1.8" d="M188.87 349.05h18.862q20 0 20-20v-2.722q0-20-20-20H188.87q-20 0-20 20v2.722q0 20 20 20z"/><text x="198.306" y="333.165" fill="#767676" font-family="'Montserrat'" font-size="20" font-weight="500" text-anchor="middle">5.13</text><path fill="#fff" stroke="#7570b3" stroke-width="1.8" d="M475.95 224.41h20.762q20 0 20-20v-2.722q0-20-20-20H475.95q-20 0-20 20v2.722q0 20 20 20z"/><text x="486.331" y="208.532" fill="#767676" font-family="'Montserrat'" font-size="20" font-weight="500" text-anchor="middle">4.31</text><path fill="#fff" stroke="#c7eae5" stroke-width="1.8" d="M762.43 99.78h23.844q20 0 20-20v-2.722q0-20-20-20H762.43q-20 0-20 20v2.722q0 20 20 20z"/><text x="774.357" y="83.899" fill="#767676" font-family="'Montserrat'" font-size="20" font-weight="500" text-anchor="middle">2.56</text><path fill="#fff" d="M881.16 381.1h256.02V7.2H881.16z"/><path fill="#215f53" stroke="#fff" stroke-width=".5" d="M945.17 381.1h128.01V221.07H945.17z" clip-path="url(#d)"/><path fill="#7570b3" stroke="#fff" stroke-width=".5" d="M945.17 221.07h128.01V86.84H945.17z" clip-path="url(#d)"/><path fill="#c7eae5" stroke="#fff" stroke-width=".5" d="M945.17 86.841h128.01V7.2H945.17z" clip-path="url(#d)"/><text x="1009.176" y="306.565" fill="#fff" font-family="'Montserrat'" font-size="20" font-weight="500" text-anchor="middle">42.8%</text><text x="1009.176" y="159.435" fill="#fff" font-family="'Montserrat'" font-size="20" font-weight="500" text-anchor="middle">35.9%</text><text x="1009.176" y="52.5" fill="#fff" font-family="'Montserrat'" font-size="20" font-weight="500" text-anchor="middle">21.3%</text><defs><clipPath id="a"><path d="M102.3 7.2h768.07v373.9H102.3z"/></clipPath><clipPath id="d"><path d="M881.16 7.2h256.02v373.9H881.16z"/></clipPath></defs></svg>