<?xml version="1.0" encoding="utf-8" standalone="no"?>
<!DOCTYPE svg PUBLIC "-//W3C//DTD SVG 1.1//EN"
  "http://www.w3.org/Graphics/SVG/1.1/DTD/svg11.dtd">
<svg xmlns:xlink="http://www.w3.org/1999/xlink" width="1144.65375pt" height="593.2125pt" viewBox="0 0 1144.65375 593.2125" xmlns="http://www.w3.org/2000/svg" version="1.1">
 <metadata>
  <rdf:RDF xmlns:dc="http://purl.org/dc/elements/1.1/" xmlns:cc="http://creativecommons.org/ns#" xmlns:rdf="http://www.w3.org/1999/02/22-rdf-syntax-ns#">
   <cc:Work>
    <dc:type rdf:resource="http://purl.org/dc/dcmitype/StillImage"/>
    <dc:date>2025-05-28T12:26:01.030490</dc:date>
    <dc:format>image/svg+xml</dc:format>
    <dc:creator>
     <cc:Agent>
      <dc:title>Matplotlib v3.10.0, https://matplotlib.org/</dc:title>
     </cc:Agent>
    </dc:creator>
   </cc:Work>
  </rdf:RDF>
 </metadata>
 <defs>
  <style type="text/css">*{stroke-linejoin: round; stroke-linecap: butt}</style>
 </defs>
 <g id="figure_1">
  <g id="patch_1">
   <path d="M 0 593.2125 
L 1144.65375 593.2125 
L 1144.65375 0 
L 0 0 
z
" style="fill: #ffffff"/>
  </g>
  <g id="axes_1">
   <g id="patch_2">
    <path d="M 82.81375 468.86 
L 865.69375 468.86 
L 865.69375 32.324797 
L 82.81375 32.324797 
z
" style="fill: #ffffff"/>
   </g>
   <g id="FillBetweenPolyCollection_1">
    <path d="M 115.43375 281.044095 
L 115.43375 468.86 
L 117.833884 468.86 
L 120.234018 468.86 
L 122.634151 468.86 
L 125.034285 468.86 
L 127.434419 468.86 
L 129.834553 468.86 
L 132.234686 468.86 
L 134.63482 468.86 
L 137.034954 468.86 
L 139.435088 468.86 
L 141.835222 468.86 
L 144.235355 468.86 
L 146.635489 468.86 
L 149.035623 468.86 
L 151.435757 468.86 
L 153.83589 468.86 
L 156.236024 468.86 
L 158.636158 468.86 
L 161.036292 468.86 
L 163.436426 468.86 
L 165.836559 468.86 
L 168.236693 468.86 
L 170.636827 468.86 
L 173.036961 468.86 
L 175.437094 468.86 
L 177.837228 468.86 
L 180.237362 468.86 
L 182.637496 468.86 
L 185.03763 468.86 
L 187.437763 468.86 
L 189.837897 468.86 
L 192.238031 468.86 
L 194.638165 468.86 
L 197.038298 468.86 
L 199.438432 468.86 
L 201.838566 468.86 
L 204.2387 468.86 
L 206.638834 468.86 
L 209.038967 468.86 
L 211.439101 468.86 
L 213.839235 468.86 
L 216.239369 468.86 
L 218.639503 468.86 
L 221.039636 468.86 
L 223.43977 468.86 
L 225.839904 468.86 
L 228.240038 468.86 
L 230.640171 468.86 
L 233.040305 468.86 
L 235.440439 468.86 
L 237.840573 468.86 
L 240.240707 468.86 
L 242.64084 468.86 
L 245.040974 468.86 
L 247.441108 468.86 
L 249.841242 468.86 
L 252.241375 468.86 
L 254.641509 468.86 
L 257.041643 468.86 
L 259.441777 468.86 
L 261.841911 468.86 
L 264.242044 468.86 
L 266.642178 468.86 
L 269.042312 468.86 
L 271.442446 468.86 
L 273.842579 468.86 
L 276.242713 468.86 
L 278.642847 468.86 
L 281.042981 468.86 
L 283.443115 468.86 
L 285.843248 468.86 
L 288.243382 468.86 
L 290.643516 468.86 
L 293.04365 468.86 
L 295.443783 468.86 
L 297.843917 468.86 
L 300.244051 468.86 
L 302.644185 468.86 
L 305.044319 468.86 
L 307.444452 468.86 
L 309.844586 468.86 
L 312.24472 468.86 
L 314.644854 468.86 
L 317.044987 468.86 
L 319.445121 468.86 
L 321.845255 468.86 
L 324.245389 468.86 
L 326.645523 468.86 
L 329.045656 468.86 
L 331.44579 468.86 
L 333.845924 468.86 
L 336.246058 468.86 
L 338.646191 468.86 
L 341.046325 468.86 
L 343.446459 468.86 
L 345.846593 468.86 
L 348.246727 468.86 
L 350.64686 468.86 
L 353.046994 468.86 
L 355.447128 468.86 
L 357.847262 468.86 
L 360.247395 468.86 
L 362.647529 468.86 
L 365.047663 468.86 
L 367.447797 468.86 
L 369.847931 468.86 
L 372.248064 468.86 
L 374.648198 468.86 
L 377.048332 468.86 
L 379.448466 468.86 
L 381.848599 468.86 
L 384.248733 468.86 
L 386.648867 468.86 
L 389.049001 468.86 
L 391.449135 468.86 
L 393.849268 468.86 
L 396.249402 468.86 
L 398.649536 468.86 
L 401.04967 468.86 
L 403.449804 468.86 
L 405.849937 468.86 
L 408.250071 468.86 
L 410.650205 468.86 
L 413.050339 468.86 
L 415.450472 468.86 
L 417.850606 468.86 
L 420.25074 468.86 
L 422.650874 468.86 
L 425.051008 468.86 
L 427.451141 468.86 
L 429.851275 468.86 
L 432.251409 468.86 
L 434.651543 468.86 
L 437.051676 468.86 
L 439.45181 468.86 
L 441.851944 468.86 
L 444.252078 468.86 
L 446.652212 468.86 
L 449.052345 468.86 
L 451.452479 468.86 
L 453.852613 468.86 
L 456.252747 468.86 
L 458.65288 468.86 
L 461.053014 468.86 
L 463.453148 468.86 
L 465.853282 468.86 
L 468.253416 468.86 
L 470.653549 468.86 
L 473.053683 468.86 
L 475.453817 468.86 
L 477.853951 468.86 
L 480.254084 468.86 
L 482.654218 468.86 
L 485.054352 468.86 
L 487.454486 468.86 
L 489.85462 468.86 
L 492.254753 468.86 
L 494.654887 468.86 
L 497.055021 468.86 
L 499.455155 468.86 
L 501.855288 468.86 
L 504.255422 468.86 
L 506.655556 468.86 
L 509.05569 468.86 
L 511.455824 468.86 
L 513.855957 468.86 
L 516.256091 468.86 
L 518.656225 468.86 
L 521.056359 468.86 
L 523.456492 468.86 
L 525.856626 468.86 
L 528.25676 468.86 
L 530.656894 468.86 
L 533.057028 468.86 
L 535.457161 468.86 
L 537.857295 468.86 
L 540.257429 468.86 
L 542.657563 468.86 
L 545.057696 468.86 
L 547.45783 468.86 
L 549.857964 468.86 
L 552.258098 468.86 
L 554.658232 468.86 
L 557.058365 468.86 
L 559.458499 468.86 
L 561.858633 468.86 
L 564.258767 468.86 
L 566.658901 468.86 
L 569.059034 468.86 
L 571.459168 468.86 
L 573.859302 468.86 
L 576.259436 468.86 
L 578.659569 468.86 
L 581.059703 468.86 
L 583.459837 468.86 
L 585.859971 468.86 
L 588.260105 468.86 
L 590.660238 468.86 
L 593.060372 468.86 
L 595.460506 468.86 
L 597.86064 468.86 
L 600.260773 468.86 
L 602.660907 468.86 
L 605.061041 468.86 
L 607.461175 468.86 
L 609.861309 468.86 
L 612.261442 468.86 
L 614.661576 468.86 
L 617.06171 468.86 
L 619.461844 468.86 
L 621.861977 468.86 
L 624.262111 468.86 
L 626.662245 468.86 
L 629.062379 468.86 
L 631.462513 468.86 
L 633.862646 468.86 
L 636.26278 468.86 
L 638.662914 468.86 
L 641.063048 468.86 
L 643.463181 468.86 
L 645.863315 468.86 
L 648.263449 468.86 
L 650.663583 468.86 
L 653.063717 468.86 
L 655.46385 468.86 
L 657.863984 468.86 
L 660.264118 468.86 
L 662.664252 468.86 
L 665.064385 468.86 
L 667.464519 468.86 
L 669.864653 468.86 
L 672.264787 468.86 
L 674.664921 468.86 
L 677.065054 468.86 
L 679.465188 468.86 
L 681.865322 468.86 
L 684.265456 468.86 
L 686.665589 468.86 
L 689.065723 468.86 
L 691.465857 468.86 
L 693.865991 468.86 
L 696.266125 468.86 
L 698.666258 468.86 
L 701.066392 468.86 
L 703.466526 468.86 
L 705.86666 468.86 
L 708.266793 468.86 
L 710.666927 468.86 
L 713.067061 468.86 
L 715.467195 468.86 
L 717.867329 468.86 
L 720.267462 468.86 
L 722.667596 468.86 
L 725.06773 468.86 
L 727.467864 468.86 
L 729.867997 468.86 
L 732.268131 468.86 
L 734.668265 468.86 
L 737.068399 468.86 
L 739.468533 468.86 
L 741.868666 468.86 
L 744.2688 468.86 
L 746.668934 468.86 
L 749.069068 468.86 
L 751.469202 468.86 
L 753.869335 468.86 
L 756.269469 468.86 
L 758.669603 468.86 
L 761.069737 468.86 
L 763.46987 468.86 
L 765.870004 468.86 
L 768.270138 468.86 
L 770.670272 468.86 
L 773.070406 468.86 
L 775.470539 468.86 
L 777.870673 468.86 
L 780.270807 468.86 
L 782.670941 468.86 
L 785.071074 468.86 
L 787.471208 468.86 
L 789.871342 468.86 
L 792.271476 468.86 
L 794.67161 468.86 
L 797.071743 468.86 
L 799.471877 468.86 
L 801.872011 468.86 
L 804.272145 468.86 
L 806.672278 468.86 
L 809.072412 468.86 
L 811.472546 468.86 
L 813.87268 468.86 
L 816.272814 468.86 
L 818.672947 468.86 
L 821.073081 468.86 
L 823.473215 468.86 
L 825.873349 468.86 
L 828.273482 468.86 
L 830.673616 468.86 
L 833.07375 468.86 
L 833.07375 224.950154 
L 833.07375 224.950154 
L 830.673616 211.795557 
L 828.273482 200.170909 
L 825.873349 190.023823 
L 823.473215 181.301916 
L 821.073081 173.9528 
L 818.672947 167.924091 
L 816.272814 163.163404 
L 813.87268 159.618351 
L 811.472546 157.236549 
L 809.072412 155.965612 
L 806.672278 155.753154 
L 804.272145 156.546789 
L 801.872011 158.294132 
L 799.471877 160.942797 
L 797.071743 164.4404 
L 794.67161 168.734554 
L 792.271476 173.772875 
L 789.871342 179.502975 
L 787.471208 185.872471 
L 785.071074 192.828976 
L 782.670941 200.320105 
L 780.270807 208.293472 
L 777.870673 216.696693 
L 775.470539 225.477381 
L 773.070406 234.58315 
L 770.670272 243.961616 
L 768.270138 253.560393 
L 765.870004 263.327096 
L 763.46987 273.209338 
L 761.069737 283.154734 
L 758.669603 293.110899 
L 756.269469 303.025448 
L 753.869335 312.845994 
L 751.469202 322.520153 
L 749.069068 331.995539 
L 746.668934 341.219765 
L 744.2688 350.140448 
L 741.868666 358.7052 
L 739.468533 366.861638 
L 737.068399 374.557375 
L 734.668265 381.740025 
L 732.268131 388.357203 
L 729.867997 394.356525 
L 727.467864 399.685603 
L 725.06773 404.292053 
L 722.667596 408.123489 
L 720.267462 411.127526 
L 717.867329 413.251778 
L 715.467195 414.44386 
L 713.067061 414.651385 
L 710.666927 413.82197 
L 708.266793 411.903227 
L 705.86666 408.842772 
L 703.466526 404.588219 
L 701.066392 399.093903 
L 698.666258 392.401554 
L 696.266125 384.614016 
L 693.865991 375.83539 
L 691.465857 366.169773 
L 689.065723 355.721266 
L 686.665589 344.593967 
L 684.265456 332.891977 
L 681.865322 320.719394 
L 679.465188 308.180317 
L 677.065054 295.378847 
L 674.664921 282.419081 
L 672.264787 269.40512 
L 669.864653 256.441063 
L 667.464519 243.631009 
L 665.064385 231.079057 
L 662.664252 218.889307 
L 660.264118 207.165858 
L 657.863984 196.012809 
L 655.46385 185.53426 
L 653.063717 175.834309 
L 650.663583 167.017057 
L 648.263449 159.186602 
L 645.863315 152.447044 
L 643.463181 146.902482 
L 641.063048 142.657015 
L 638.662914 139.814742 
L 636.26278 138.476647 
L 633.862646 138.654059 
L 631.462513 140.257361 
L 629.062379 143.19155 
L 626.662245 147.361624 
L 624.262111 152.672579 
L 621.861977 159.029413 
L 619.461844 166.337124 
L 617.06171 174.500708 
L 614.661576 183.425164 
L 612.261442 193.015489 
L 609.861309 203.17668 
L 607.461175 213.813734 
L 605.061041 224.831649 
L 602.660907 236.135421 
L 600.260773 247.63005 
L 597.86064 259.220531 
L 595.460506 270.811863 
L 593.060372 282.309042 
L 590.660238 293.617066 
L 588.260105 304.640933 
L 585.859971 315.285639 
L 583.459837 325.456183 
L 581.059703 335.05756 
L 578.659569 343.99477 
L 576.259436 352.172809 
L 573.859302 359.496675 
L 571.459168 365.871891 
L 569.059034 371.255428 
L 566.658901 375.698147 
L 564.258767 379.260902 
L 561.858633 382.004548 
L 559.458499 383.989939 
L 557.058365 385.277929 
L 554.658232 385.929373 
L 552.258098 386.005125 
L 549.857964 385.566039 
L 547.45783 384.67297 
L 545.057696 383.386772 
L 542.657563 381.768299 
L 540.257429 379.878405 
L 537.857295 377.777946 
L 535.457161 375.527775 
L 533.057028 373.188746 
L 530.656894 370.821714 
L 528.25676 368.487533 
L 525.856626 366.247058 
L 523.456492 364.161142 
L 521.056359 362.29064 
L 518.656225 360.696407 
L 516.256091 359.439297 
L 513.855957 358.580163 
L 511.455824 358.179861 
L 509.05569 358.299245 
L 506.655556 358.999155 
L 504.255422 360.316444 
L 501.855288 362.214765 
L 499.455155 364.64386 
L 497.055021 367.553467 
L 494.654887 370.893327 
L 492.254753 374.613179 
L 489.85462 378.662763 
L 487.454486 382.99182 
L 485.054352 387.550089 
L 482.654218 392.287309 
L 480.254084 397.153221 
L 477.853951 402.097566 
L 475.453817 407.070081 
L 473.053683 412.020508 
L 470.653549 416.898587 
L 468.253416 421.654057 
L 465.853282 426.236657 
L 463.453148 430.596129 
L 461.053014 434.682212 
L 458.65288 438.444645 
L 456.252747 441.83317 
L 453.852613 444.797524 
L 451.452479 447.28745 
L 449.052345 449.252685 
L 446.652212 450.642971 
L 444.252078 451.408047 
L 441.851944 451.497652 
L 439.45181 450.873806 
L 437.051676 449.563117 
L 434.651543 447.613365 
L 432.251409 445.072339 
L 429.851275 441.987828 
L 427.451141 438.407623 
L 425.051008 434.379513 
L 422.650874 429.951289 
L 420.25074 425.17074 
L 417.850606 420.085657 
L 415.450472 414.743828 
L 413.050339 409.193044 
L 410.650205 403.481095 
L 408.250071 397.655771 
L 405.849937 391.764861 
L 403.449804 385.856156 
L 401.04967 379.977445 
L 398.649536 374.176518 
L 396.249402 368.501165 
L 393.849268 362.999176 
L 391.449135 357.718342 
L 389.049001 352.70645 
L 386.648867 348.011293 
L 384.248733 343.680659 
L 381.848599 339.762338 
L 379.448466 336.304121 
L 377.048332 333.353796 
L 374.648198 330.953974 
L 372.248064 329.098571 
L 369.847931 327.75483 
L 367.447797 326.889719 
L 365.047663 326.470206 
L 362.647529 326.46326 
L 360.247395 326.835848 
L 357.847262 327.554939 
L 355.447128 328.587501 
L 353.046994 329.900502 
L 350.64686 331.460911 
L 348.246727 333.235695 
L 345.846593 335.191823 
L 343.446459 337.296264 
L 341.046325 339.515984 
L 338.646191 341.817954 
L 336.246058 344.16914 
L 333.845924 346.536511 
L 331.44579 348.887035 
L 329.045656 351.187681 
L 326.645523 353.405416 
L 324.245389 355.507209 
L 321.845255 357.460028 
L 319.445121 359.230842 
L 317.044987 360.786618 
L 314.644854 362.094324 
L 312.24472 363.12093 
L 309.844586 363.834642 
L 307.444452 364.226889 
L 305.044319 364.309725 
L 302.644185 364.09592 
L 300.244051 363.598245 
L 297.843917 362.829471 
L 295.443783 361.802368 
L 293.04365 360.529706 
L 290.643516 359.024256 
L 288.243382 357.298789 
L 285.843248 355.366074 
L 283.443115 353.238883 
L 281.042981 350.929986 
L 278.642847 348.452153 
L 276.242713 345.818156 
L 273.842579 343.040764 
L 271.442446 340.132747 
L 269.042312 337.106878 
L 266.642178 333.975925 
L 264.242044 330.75266 
L 261.841911 327.449852 
L 259.441777 324.080274 
L 257.041643 320.656694 
L 254.641509 317.191883 
L 252.241375 313.698613 
L 249.841242 310.189653 
L 247.441108 306.677774 
L 245.040974 303.175687 
L 242.64084 299.693159 
L 240.240707 296.235755 
L 237.840573 292.808715 
L 235.440439 289.417278 
L 233.040305 286.066685 
L 230.640171 282.762176 
L 228.240038 279.50899 
L 225.839904 276.312368 
L 223.43977 273.177549 
L 221.039636 270.109774 
L 218.639503 267.114283 
L 216.239369 264.196316 
L 213.839235 261.361112 
L 211.439101 258.613911 
L 209.038967 255.959955 
L 206.638834 253.404482 
L 204.2387 250.952732 
L 201.838566 248.609947 
L 199.438432 246.381365 
L 197.038298 244.272226 
L 194.638165 242.287771 
L 192.238031 240.43324 
L 189.837897 238.713873 
L 187.437763 237.134909 
L 185.03763 235.701589 
L 182.637496 234.419152 
L 180.237362 233.292839 
L 177.837228 232.32789 
L 175.437094 231.529545 
L 173.036961 230.903043 
L 170.636827 230.453624 
L 168.236693 230.18653 
L 165.836559 230.106999 
L 163.436426 230.220272 
L 161.036292 230.531588 
L 158.636158 231.046188 
L 156.236024 231.769312 
L 153.83589 232.706199 
L 151.435757 233.86209 
L 149.035623 235.242225 
L 146.635489 236.851843 
L 144.235355 238.696185 
L 141.835222 240.780491 
L 139.435088 243.11 
L 137.034954 245.689953 
L 134.63482 248.52559 
L 132.234686 251.62215 
L 129.834553 254.984874 
L 127.434419 258.619002 
L 125.034285 262.529773 
L 122.634151 266.722428 
L 120.234018 271.202207 
L 117.833884 275.974349 
L 115.43375 281.044095 
z
" clip-path="url(#pa01a8a0bab)" style="fill: #215f53"/>
   </g>
   <g id="FillBetweenPolyCollection_2">
    <path d="M 115.43375 71.025944 
L 115.43375 281.044095 
L 117.833884 275.974349 
L 120.234018 271.202207 
L 122.634151 266.722428 
L 125.034285 262.529773 
L 127.434419 258.619002 
L 129.834553 254.984874 
L 132.234686 251.62215 
L 134.63482 248.52559 
L 137.034954 245.689953 
L 139.435088 243.11 
L 141.835222 240.780491 
L 144.235355 238.696185 
L 146.635489 236.851843 
L 149.035623 235.242225 
L 151.435757 233.86209 
L 153.83589 232.706199 
L 156.236024 231.769312 
L 158.636158 231.046188 
L 161.036292 230.531588 
L 163.436426 230.220272 
L 165.836559 230.106999 
L 168.236693 230.18653 
L 170.636827 230.453624 
L 173.036961 230.903043 
L 175.437094 231.529545 
L 177.837228 232.32789 
L 180.237362 233.292839 
L 182.637496 234.419152 
L 185.03763 235.701589 
L 187.437763 237.134909 
L 189.837897 238.713873 
L 192.238031 240.43324 
L 194.638165 242.287771 
L 197.038298 244.272226 
L 199.438432 246.381365 
L 201.838566 248.609947 
L 204.2387 250.952732 
L 206.638834 253.404482 
L 209.038967 255.959955 
L 211.439101 258.613911 
L 213.839235 261.361112 
L 216.239369 264.196316 
L 218.639503 267.114283 
L 221.039636 270.109774 
L 223.43977 273.177549 
L 225.839904 276.312368 
L 228.240038 279.50899 
L 230.640171 282.762176 
L 233.040305 286.066685 
L 235.440439 289.417278 
L 237.840573 292.808715 
L 240.240707 296.235755 
L 242.64084 299.693159 
L 245.040974 303.175687 
L 247.441108 306.677774 
L 249.841242 310.189653 
L 252.241375 313.698613 
L 254.641509 317.191883 
L 257.041643 320.656694 
L 259.441777 324.080274 
L 261.841911 327.449852 
L 264.242044 330.75266 
L 266.642178 333.975925 
L 269.042312 337.106878 
L 271.442446 340.132747 
L 273.842579 343.040764 
L 276.242713 345.818156 
L 278.642847 348.452153 
L 281.042981 350.929986 
L 283.443115 353.238883 
L 285.843248 355.366074 
L 288.243382 357.298789 
L 290.643516 359.024256 
L 293.04365 360.529706 
L 295.443783 361.802368 
L 297.843917 362.829471 
L 300.244051 363.598245 
L 302.644185 364.09592 
L 305.044319 364.309725 
L 307.444452 364.226889 
L 309.844586 363.834642 
L 312.24472 363.12093 
L 314.644854 362.094324 
L 317.044987 360.786618 
L 319.445121 359.230842 
L 321.845255 357.460028 
L 324.245389 355.507209 
L 326.645523 353.405416 
L 329.045656 351.187681 
L 331.44579 348.887035 
L 333.845924 346.536511 
L 336.246058 344.16914 
L 338.646191 341.817954 
L 341.046325 339.515984 
L 343.446459 337.296264 
L 345.846593 335.191823 
L 348.246727 333.235695 
L 350.64686 331.460911 
L 353.046994 329.900502 
L 355.447128 328.587501 
L 357.847262 327.554939 
L 360.247395 326.835848 
L 362.647529 326.46326 
L 365.047663 326.470206 
L 367.447797 326.889719 
L 369.847931 327.75483 
L 372.248064 329.098571 
L 374.648198 330.953974 
L 377.048332 333.353796 
L 379.448466 336.304121 
L 381.848599 339.762338 
L 384.248733 343.680659 
L 386.648867 348.011293 
L 389.049001 352.70645 
L 391.449135 357.718342 
L 393.849268 362.999176 
L 396.249402 368.501165 
L 398.649536 374.176518 
L 401.04967 379.977445 
L 403.449804 385.856156 
L 405.849937 391.764861 
L 408.250071 397.655771 
L 410.650205 403.481095 
L 413.050339 409.193044 
L 415.450472 414.743828 
L 417.850606 420.085657 
L 420.25074 425.17074 
L 422.650874 429.951289 
L 425.051008 434.379513 
L 427.451141 438.407623 
L 429.851275 441.987828 
L 432.251409 445.072339 
L 434.651543 447.613365 
L 437.051676 449.563117 
L 439.45181 450.873806 
L 441.851944 451.497652 
L 444.252078 451.408047 
L 446.652212 450.642971 
L 449.052345 449.252685 
L 451.452479 447.28745 
L 453.852613 444.797524 
L 456.252747 441.83317 
L 458.65288 438.444645 
L 461.053014 434.682212 
L 463.453148 430.596129 
L 465.853282 426.236657 
L 468.253416 421.654057 
L 470.653549 416.898587 
L 473.053683 412.020508 
L 475.453817 407.070081 
L 477.853951 402.097566 
L 480.254084 397.153221 
L 482.654218 392.287309 
L 485.054352 387.550089 
L 487.454486 382.99182 
L 489.85462 378.662763 
L 492.254753 374.613179 
L 494.654887 370.893327 
L 497.055021 367.553467 
L 499.455155 364.64386 
L 501.855288 362.214765 
L 504.255422 360.316444 
L 506.655556 358.999155 
L 509.05569 358.299245 
L 511.455824 358.179861 
L 513.855957 358.580163 
L 516.256091 359.439297 
L 518.656225 360.696407 
L 521.056359 362.29064 
L 523.456492 364.161142 
L 525.856626 366.247058 
L 528.25676 368.487533 
L 530.656894 370.821714 
L 533.057028 373.188746 
L 535.457161 375.527775 
L 537.857295 377.777946 
L 540.257429 379.878405 
L 542.657563 381.768299 
L 545.057696 383.386772 
L 547.45783 384.67297 
L 549.857964 385.566039 
L 552.258098 386.005125 
L 554.658232 385.929373 
L 557.058365 385.277929 
L 559.458499 383.989939 
L 561.858633 382.004548 
L 564.258767 379.260902 
L 566.658901 375.698147 
L 569.059034 371.255428 
L 571.459168 365.871891 
L 573.859302 359.496675 
L 576.259436 352.172809 
L 578.659569 343.99477 
L 581.059703 335.05756 
L 583.459837 325.456183 
L 585.859971 315.285639 
L 588.260105 304.640933 
L 590.660238 293.617066 
L 593.060372 282.309042 
L 595.460506 270.811863 
L 597.86064 259.220531 
L 600.260773 247.63005 
L 602.660907 236.135421 
L 605.061041 224.831649 
L 607.461175 213.813734 
L 609.861309 203.17668 
L 612.261442 193.015489 
L 614.661576 183.425164 
L 617.06171 174.500708 
L 619.461844 166.337124 
L 621.861977 159.029413 
L 624.262111 152.672579 
L 626.662245 147.361624 
L 629.062379 143.19155 
L 631.462513 140.257361 
L 633.862646 138.654059 
L 636.26278 138.476647 
L 638.662914 139.814742 
L 641.063048 142.657015 
L 643.463181 146.902482 
L 645.863315 152.447044 
L 648.263449 159.186602 
L 650.663583 167.017057 
L 653.063717 175.834309 
L 655.46385 185.53426 
L 657.863984 196.012809 
L 660.264118 207.165858 
L 662.664252 218.889307 
L 665.064385 231.079057 
L 667.464519 243.631009 
L 669.864653 256.441063 
L 672.264787 269.40512 
L 674.664921 282.419081 
L 677.065054 295.378847 
L 679.465188 308.180317 
L 681.865322 320.719394 
L 684.265456 332.891977 
L 686.665589 344.593967 
L 689.065723 355.721266 
L 691.465857 366.169773 
L 693.865991 375.83539 
L 696.266125 384.614016 
L 698.666258 392.401554 
L 701.066392 399.093903 
L 703.466526 404.588219 
L 705.86666 408.842772 
L 708.266793 411.903227 
L 710.666927 413.82197 
L 713.067061 414.651385 
L 715.467195 414.44386 
L 717.867329 413.251778 
L 720.267462 411.127526 
L 722.667596 408.123489 
L 725.06773 404.292053 
L 727.467864 399.685603 
L 729.867997 394.356525 
L 732.268131 388.357203 
L 734.668265 381.740025 
L 737.068399 374.557375 
L 739.468533 366.861638 
L 741.868666 358.7052 
L 744.2688 350.140448 
L 746.668934 341.219765 
L 749.069068 331.995539 
L 751.469202 322.520153 
L 753.869335 312.845994 
L 756.269469 303.025448 
L 758.669603 293.110899 
L 761.069737 283.154734 
L 763.46987 273.209338 
L 765.870004 263.327096 
L 768.270138 253.560393 
L 770.670272 243.961616 
L 773.070406 234.58315 
L 775.470539 225.477381 
L 777.870673 216.696693 
L 780.270807 208.293472 
L 782.670941 200.320105 
L 785.071074 192.828976 
L 787.471208 185.872471 
L 789.871342 179.502975 
L 792.271476 173.772875 
L 794.67161 168.734554 
L 797.071743 164.4404 
L 799.471877 160.942797 
L 801.872011 158.294132 
L 804.272145 156.546789 
L 806.672278 155.753154 
L 809.072412 155.965612 
L 811.472546 157.236549 
L 813.87268 159.618351 
L 816.272814 163.163404 
L 818.672947 167.924091 
L 821.073081 173.9528 
L 823.473215 181.301916 
L 825.873349 190.023823 
L 828.273482 200.170909 
L 830.673616 211.795557 
L 833.07375 224.950154 
L 833.07375 114.903344 
L 833.07375 114.903344 
L 830.673616 120.455841 
L 828.273482 125.578814 
L 825.873349 130.283327 
L 823.473215 134.580443 
L 821.073081 138.481224 
L 818.672947 141.996734 
L 816.272814 145.138035 
L 813.87268 147.916191 
L 811.472546 150.342264 
L 809.072412 152.427319 
L 806.672278 154.182417 
L 804.272145 155.618622 
L 801.872011 156.746996 
L 799.471877 157.578604 
L 797.071743 158.124507 
L 794.67161 158.395769 
L 792.271476 158.403453 
L 789.871342 158.158622 
L 787.471208 157.672339 
L 785.071074 156.955666 
L 782.670941 156.019668 
L 780.270807 154.875407 
L 777.870673 153.533946 
L 775.470539 152.006348 
L 773.070406 150.303675 
L 770.670272 148.436993 
L 768.270138 146.417362 
L 765.870004 144.255846 
L 763.46987 141.963509 
L 761.069737 139.551412 
L 758.669603 137.03062 
L 756.269469 134.412196 
L 753.869335 131.707201 
L 751.469202 128.9267 
L 749.069068 126.081755 
L 746.668934 123.18343 
L 744.2688 120.242787 
L 741.868666 117.27089 
L 739.468533 114.2788 
L 737.068399 111.277583 
L 734.668265 108.2783 
L 732.268131 105.292014 
L 729.867997 102.329789 
L 727.467864 99.402688 
L 725.06773 96.521773 
L 722.667596 93.698108 
L 720.267462 90.942755 
L 717.867329 88.266778 
L 715.467195 85.68124 
L 713.067061 83.197204 
L 710.666927 80.825732 
L 708.266793 78.577888 
L 705.86666 76.464735 
L 703.466526 74.497336 
L 701.066392 72.686573 
L 698.666258 71.040979 
L 696.266125 69.567444 
L 693.865991 68.272824 
L 691.465857 67.163975 
L 689.065723 66.247753 
L 686.665589 65.531014 
L 684.265456 65.020614 
L 681.865322 64.72341 
L 679.465188 64.646258 
L 677.065054 64.796013 
L 674.664921 65.179531 
L 672.264787 65.80367 
L 669.864653 66.675284 
L 667.464519 67.80123 
L 665.064385 69.188365 
L 662.664252 70.843543 
L 660.264118 72.773622 
L 657.863984 74.985457 
L 655.46385 77.485904 
L 653.063717 80.28182 
L 650.663583 83.380061 
L 648.263449 86.787482 
L 645.863315 90.51094 
L 643.463181 94.557291 
L 641.063048 98.933391 
L 638.662914 103.646096 
L 636.26278 108.701567 
L 633.862646 114.085985 
L 631.462513 119.763029 
L 629.062379 125.695181 
L 626.662245 131.844919 
L 624.262111 138.174725 
L 621.861977 144.647079 
L 619.461844 151.224461 
L 617.06171 157.869351 
L 614.661576 164.544229 
L 612.261442 171.211576 
L 609.861309 177.833873 
L 607.461175 184.373598 
L 605.061041 190.793233 
L 602.660907 197.055258 
L 600.260773 203.122154 
L 597.86064 208.956399 
L 595.460506 214.520475 
L 593.060372 219.776862 
L 590.660238 224.68804 
L 588.260105 229.216489 
L 585.859971 233.32469 
L 583.459837 236.975123 
L 581.059703 240.130269 
L 578.659569 242.752606 
L 576.259436 244.804616 
L 573.859302 246.24878 
L 571.459168 247.047862 
L 569.059034 247.192511 
L 566.658901 246.724263 
L 564.258767 245.690071 
L 561.858633 244.136887 
L 559.458499 242.111663 
L 557.058365 239.66135 
L 554.658232 236.832901 
L 552.258098 233.673269 
L 549.857964 230.229405 
L 547.45783 226.548262 
L 545.057696 222.676791 
L 542.657563 218.661945 
L 540.257429 214.550675 
L 537.857295 210.389935 
L 535.457161 206.226676 
L 533.057028 202.10785 
L 530.656894 198.08041 
L 528.25676 194.191307 
L 525.856626 190.487494 
L 523.456492 187.015922 
L 521.056359 183.823545 
L 518.656225 180.957314 
L 516.256091 178.46418 
L 513.855957 176.391098 
L 511.455824 174.785017 
L 509.05569 173.692891 
L 506.655556 173.16166 
L 504.255422 173.217267 
L 501.855288 173.821584 
L 499.455155 174.924303 
L 497.055021 176.475117 
L 494.654887 178.423718 
L 492.254753 180.719799 
L 489.85462 183.313053 
L 487.454486 186.153172 
L 485.054352 189.189848 
L 482.654218 192.372774 
L 480.254084 195.651643 
L 477.853951 198.976147 
L 475.453817 202.295979 
L 473.053683 205.560832 
L 470.653549 208.720397 
L 468.253416 211.724368 
L 465.853282 214.522437 
L 463.453148 217.064297 
L 461.053014 219.299639 
L 458.65288 221.178158 
L 456.252747 222.649545 
L 453.852613 223.663493 
L 451.452479 224.169694 
L 449.052345 224.117841 
L 446.652212 223.457627 
L 444.252078 222.138743 
L 441.851944 220.110884 
L 439.45181 217.337268 
L 437.051676 213.852278 
L 434.651543 209.71362 
L 432.251409 204.979011 
L 429.851275 199.706169 
L 427.451141 193.952812 
L 425.051008 187.776658 
L 422.650874 181.235423 
L 420.25074 174.386827 
L 417.850606 167.288587 
L 415.450472 159.998421 
L 413.050339 152.574046 
L 410.650205 145.07318 
L 408.250071 137.553542 
L 405.849937 130.072848 
L 403.449804 122.688818 
L 401.04967 115.459167 
L 398.649536 108.441616 
L 396.249402 101.69388 
L 393.849268 95.273678 
L 391.449135 89.238728 
L 389.049001 83.646748 
L 386.648867 78.555454 
L 384.248733 74.022566 
L 381.848599 70.105801 
L 379.448466 66.862877 
L 377.048332 64.351511 
L 374.648198 62.622482 
L 372.248064 61.661355 
L 369.847931 61.417969 
L 367.447797 61.841794 
L 365.047663 62.882301 
L 362.647529 64.488962 
L 360.247395 66.611246 
L 357.847262 69.198625 
L 355.447128 72.200571 
L 353.046994 75.566553 
L 350.64686 79.246044 
L 348.246727 83.188514 
L 345.846593 87.343433 
L 343.446459 91.660274 
L 341.046325 96.088506 
L 338.646191 100.577602 
L 336.246058 105.077031 
L 333.845924 109.536266 
L 331.44579 113.904776 
L 329.045656 118.132033 
L 326.645523 122.167509 
L 324.245389 125.960673 
L 321.845255 129.460997 
L 319.445121 132.617951 
L 317.044987 135.381008 
L 314.644854 137.699637 
L 312.24472 139.52331 
L 309.844586 140.803722 
L 307.444452 141.534249 
L 305.044319 141.745286 
L 302.644185 141.468516 
L 300.244051 140.735622 
L 297.843917 139.578285 
L 295.443783 138.028188 
L 293.04365 136.117014 
L 290.643516 133.876444 
L 288.243382 131.338161 
L 285.843248 128.533847 
L 283.443115 125.495184 
L 281.042981 122.253856 
L 278.642847 118.841544 
L 276.242713 115.28993 
L 273.842579 111.630697 
L 271.442446 107.895527 
L 269.042312 104.116103 
L 266.642178 100.324106 
L 264.242044 96.55122 
L 261.841911 92.829126 
L 259.441777 89.189506 
L 257.041643 85.664044 
L 254.641509 82.284421 
L 252.241375 79.08232 
L 249.841242 76.089423 
L 247.441108 73.337413 
L 245.040974 70.857627 
L 242.64084 68.664647 
L 240.240707 66.749091 
L 237.840573 65.099736 
L 235.440439 63.705357 
L 233.040305 62.554729 
L 230.640171 61.636629 
L 228.240038 60.939833 
L 225.839904 60.453116 
L 223.43977 60.165253 
L 221.039636 60.065022 
L 218.639503 60.141197 
L 216.239369 60.382555 
L 213.839235 60.777871 
L 211.439101 61.31592 
L 209.038967 61.98548 
L 206.638834 62.775325 
L 204.2387 63.674232 
L 201.838566 64.670976 
L 199.438432 65.754332 
L 197.038298 66.913078 
L 194.638165 68.135988 
L 192.238031 69.411839 
L 189.837897 70.729405 
L 187.437763 72.077464 
L 185.03763 73.44479 
L 182.637496 74.82016 
L 180.237362 76.19235 
L 177.837228 77.550134 
L 175.437094 78.88229 
L 173.036961 80.177592 
L 170.636827 81.424817 
L 168.236693 82.61274 
L 165.836559 83.730137 
L 163.436426 84.765784 
L 161.036292 85.708457 
L 158.636158 86.546932 
L 156.236024 87.269984 
L 153.83589 87.866389 
L 151.435757 88.324923 
L 149.035623 88.634361 
L 146.635489 88.78348 
L 144.235355 88.761056 
L 141.835222 88.555863 
L 139.435088 88.156679 
L 137.034954 87.552278 
L 134.63482 86.731437 
L 132.234686 85.682931 
L 129.834553 84.395536 
L 127.434419 82.858028 
L 125.034285 81.059183 
L 122.634151 78.987776 
L 120.234018 76.632583 
L 117.833884 73.982381 
L 115.43375 71.025944 
z
" clip-path="url(#pa01a8a0bab)" style="fill: #7570b3"/>
   </g>
   <g id="FillBetweenPolyCollection_3">
    <path d="M 115.43375 53.112188 
L 115.43375 71.025944 
L 117.833884 73.982381 
L 120.234018 76.632583 
L 122.634151 78.987776 
L 125.034285 81.059183 
L 127.434419 82.858028 
L 129.834553 84.395536 
L 132.234686 85.682931 
L 134.63482 86.731437 
L 137.034954 87.552278 
L 139.435088 88.156679 
L 141.835222 88.555863 
L 144.235355 88.761056 
L 146.635489 88.78348 
L 149.035623 88.634361 
L 151.435757 88.324923 
L 153.83589 87.866389 
L 156.236024 87.269984 
L 158.636158 86.546932 
L 161.036292 85.708457 
L 163.436426 84.765784 
L 165.836559 83.730137 
L 168.236693 82.61274 
L 170.636827 81.424817 
L 173.036961 80.177592 
L 175.437094 78.88229 
L 177.837228 77.550134 
L 180.237362 76.19235 
L 182.637496 74.82016 
L 185.03763 73.44479 
L 187.437763 72.077464 
L 189.837897 70.729405 
L 192.238031 69.411839 
L 194.638165 68.135988 
L 197.038298 66.913078 
L 199.438432 65.754332 
L 201.838566 64.670976 
L 204.2387 63.674232 
L 206.638834 62.775325 
L 209.038967 61.98548 
L 211.439101 61.31592 
L 213.839235 60.777871 
L 216.239369 60.382555 
L 218.639503 60.141197 
L 221.039636 60.065022 
L 223.43977 60.165253 
L 225.839904 60.453116 
L 228.240038 60.939833 
L 230.640171 61.636629 
L 233.040305 62.554729 
L 235.440439 63.705357 
L 237.840573 65.099736 
L 240.240707 66.749091 
L 242.64084 68.664647 
L 245.040974 70.857627 
L 247.441108 73.337413 
L 249.841242 76.089423 
L 252.241375 79.08232 
L 254.641509 82.284421 
L 257.041643 85.664044 
L 259.441777 89.189506 
L 261.841911 92.829126 
L 264.242044 96.55122 
L 266.642178 100.324106 
L 269.042312 104.116103 
L 271.442446 107.895527 
L 273.842579 111.630697 
L 276.242713 115.28993 
L 278.642847 118.841544 
L 281.042981 122.253856 
L 283.443115 125.495184 
L 285.843248 128.533847 
L 288.243382 131.338161 
L 290.643516 133.876444 
L 293.04365 136.117014 
L 295.443783 138.028188 
L 297.843917 139.578285 
L 300.244051 140.735622 
L 302.644185 141.468516 
L 305.044319 141.745286 
L 307.444452 141.534249 
L 309.844586 140.803722 
L 312.24472 139.52331 
L 314.644854 137.699637 
L 317.044987 135.381008 
L 319.445121 132.617951 
L 321.845255 129.460997 
L 324.245389 125.960673 
L 326.645523 122.167509 
L 329.045656 118.132033 
L 331.44579 113.904776 
L 333.845924 109.536266 
L 336.246058 105.077031 
L 338.646191 100.577602 
L 341.046325 96.088506 
L 343.446459 91.660274 
L 345.846593 87.343433 
L 348.246727 83.188514 
L 350.64686 79.246044 
L 353.046994 75.566553 
L 355.447128 72.200571 
L 357.847262 69.198625 
L 360.247395 66.611246 
L 362.647529 64.488962 
L 365.047663 62.882301 
L 367.447797 61.841794 
L 369.847931 61.417969 
L 372.248064 61.661355 
L 374.648198 62.622482 
L 377.048332 64.351511 
L 379.448466 66.862877 
L 381.848599 70.105801 
L 384.248733 74.022566 
L 386.648867 78.555454 
L 389.049001 83.646748 
L 391.449135 89.238728 
L 393.849268 95.273678 
L 396.249402 101.69388 
L 398.649536 108.441616 
L 401.04967 115.459167 
L 403.449804 122.688818 
L 405.849937 130.072848 
L 408.250071 137.553542 
L 410.650205 145.07318 
L 413.050339 152.574046 
L 415.450472 159.998421 
L 417.850606 167.288587 
L 420.25074 174.386827 
L 422.650874 181.235423 
L 425.051008 187.776658 
L 427.451141 193.952812 
L 429.851275 199.706169 
L 432.251409 204.979011 
L 434.651543 209.71362 
L 437.051676 213.852278 
L 439.45181 217.337268 
L 441.851944 220.110884 
L 444.252078 222.138743 
L 446.652212 223.457627 
L 449.052345 224.117841 
L 451.452479 224.169694 
L 453.852613 223.663493 
L 456.252747 222.649545 
L 458.65288 221.178158 
L 461.053014 219.299639 
L 463.453148 217.064297 
L 465.853282 214.522437 
L 468.253416 211.724368 
L 470.653549 208.720397 
L 473.053683 205.560832 
L 475.453817 202.295979 
L 477.853951 198.976147 
L 480.254084 195.651643 
L 482.654218 192.372774 
L 485.054352 189.189848 
L 487.454486 186.153172 
L 489.85462 183.313053 
L 492.254753 180.719799 
L 494.654887 178.423718 
L 497.055021 176.475117 
L 499.455155 174.924303 
L 501.855288 173.821584 
L 504.255422 173.217267 
L 506.655556 173.16166 
L 509.05569 173.692891 
L 511.455824 174.785017 
L 513.855957 176.391098 
L 516.256091 178.46418 
L 518.656225 180.957314 
L 521.056359 183.823545 
L 523.456492 187.015922 
L 525.856626 190.487494 
L 528.25676 194.191307 
L 530.656894 198.08041 
L 533.057028 202.10785 
L 535.457161 206.226676 
L 537.857295 210.389935 
L 540.257429 214.550675 
L 542.657563 218.661945 
L 545.057696 222.676791 
L 547.45783 226.548262 
L 549.857964 230.229405 
L 552.258098 233.673269 
L 554.658232 236.832901 
L 557.058365 239.66135 
L 559.458499 242.111663 
L 561.858633 244.136887 
L 564.258767 245.690071 
L 566.658901 246.724263 
L 569.059034 247.192511 
L 571.459168 247.047862 
L 573.859302 246.24878 
L 576.259436 244.804616 
L 578.659569 242.752606 
L 581.059703 240.130269 
L 583.459837 236.975123 
L 585.859971 233.32469 
L 588.260105 229.216489 
L 590.660238 224.68804 
L 593.060372 219.776862 
L 595.460506 214.520475 
L 597.86064 208.956399 
L 600.260773 203.122154 
L 602.660907 197.055258 
L 605.061041 190.793233 
L 607.461175 184.373598 
L 609.861309 177.833873 
L 612.261442 171.211576 
L 614.661576 164.544229 
L 617.06171 157.869351 
L 619.461844 151.224461 
L 621.861977 144.647079 
L 624.262111 138.174725 
L 626.662245 131.844919 
L 629.062379 125.695181 
L 631.462513 119.763029 
L 633.862646 114.085985 
L 636.26278 108.701567 
L 638.662914 103.646096 
L 641.063048 98.933391 
L 643.463181 94.557291 
L 645.863315 90.51094 
L 648.263449 86.787482 
L 650.663583 83.380061 
L 653.063717 80.28182 
L 655.46385 77.485904 
L 657.863984 74.985457 
L 660.264118 72.773622 
L 662.664252 70.843543 
L 665.064385 69.188365 
L 667.464519 67.80123 
L 669.864653 66.675284 
L 672.264787 65.80367 
L 674.664921 65.179531 
L 677.065054 64.796013 
L 679.465188 64.646258 
L 681.865322 64.72341 
L 684.265456 65.020614 
L 686.665589 65.531014 
L 689.065723 66.247753 
L 691.465857 67.163975 
L 693.865991 68.272824 
L 696.266125 69.567444 
L 698.666258 71.040979 
L 701.066392 72.686573 
L 703.466526 74.497336 
L 705.86666 76.464735 
L 708.266793 78.577888 
L 710.666927 80.825732 
L 713.067061 83.197204 
L 715.467195 85.68124 
L 717.867329 88.266778 
L 720.267462 90.942755 
L 722.667596 93.698108 
L 725.06773 96.521773 
L 727.467864 99.402688 
L 729.867997 102.329789 
L 732.268131 105.292014 
L 734.668265 108.2783 
L 737.068399 111.277583 
L 739.468533 114.2788 
L 741.868666 117.27089 
L 744.2688 120.242787 
L 746.668934 123.18343 
L 749.069068 126.081755 
L 751.469202 128.9267 
L 753.869335 131.707201 
L 756.269469 134.412196 
L 758.669603 137.03062 
L 761.069737 139.551412 
L 763.46987 141.963509 
L 765.870004 144.255846 
L 768.270138 146.417362 
L 770.670272 148.436993 
L 773.070406 150.303675 
L 775.470539 152.006348 
L 777.870673 153.533946 
L 780.270807 154.875407 
L 782.670941 156.019668 
L 785.071074 156.955666 
L 787.471208 157.672339 
L 789.871342 158.158622 
L 792.271476 158.403453 
L 794.67161 158.395769 
L 797.071743 158.124507 
L 799.471877 157.578604 
L 801.872011 156.746996 
L 804.272145 155.618622 
L 806.672278 154.182417 
L 809.072412 152.427319 
L 811.472546 150.342264 
L 813.87268 147.916191 
L 816.272814 145.138035 
L 818.672947 141.996734 
L 821.073081 138.481224 
L 823.473215 134.580443 
L 825.873349 130.283327 
L 828.273482 125.578814 
L 830.673616 120.455841 
L 833.07375 114.903344 
L 833.07375 53.112188 
L 833.07375 53.112188 
L 830.673616 53.112188 
L 828.273482 53.112188 
L 825.873349 53.112188 
L 823.473215 53.112188 
L 821.073081 53.112188 
L 818.672947 53.112188 
L 816.272814 53.112188 
L 813.87268 53.112188 
L 811.472546 53.112188 
L 809.072412 53.112188 
L 806.672278 53.112188 
L 804.272145 53.112188 
L 801.872011 53.112188 
L 799.471877 53.112188 
L 797.071743 53.112188 
L 794.67161 53.112188 
L 792.271476 53.112188 
L 789.871342 53.112188 
L 787.471208 53.112188 
L 785.071074 53.112188 
L 782.670941 53.112188 
L 780.270807 53.112188 
L 777.870673 53.112188 
L 775.470539 53.112188 
L 773.070406 53.112188 
L 770.670272 53.112188 
L 768.270138 53.112188 
L 765.870004 53.112188 
L 763.46987 53.112188 
L 761.069737 53.112188 
L 758.669603 53.112188 
L 756.269469 53.112188 
L 753.869335 53.112188 
L 751.469202 53.112188 
L 749.069068 53.112188 
L 746.668934 53.112188 
L 744.2688 53.112188 
L 741.868666 53.112188 
L 739.468533 53.112188 
L 737.068399 53.112188 
L 734.668265 53.112188 
L 732.268131 53.112188 
L 729.867997 53.112188 
L 727.467864 53.112188 
L 725.06773 53.112188 
L 722.667596 53.112188 
L 720.267462 53.112188 
L 717.867329 53.112188 
L 715.467195 53.112188 
L 713.067061 53.112188 
L 710.666927 53.112188 
L 708.266793 53.112188 
L 705.86666 53.112188 
L 703.466526 53.112188 
L 701.066392 53.112188 
L 698.666258 53.112188 
L 696.266125 53.112188 
L 693.865991 53.112188 
L 691.465857 53.112188 
L 689.065723 53.112188 
L 686.665589 53.112188 
L 684.265456 53.112188 
L 681.865322 53.112188 
L 679.465188 53.112188 
L 677.065054 53.112188 
L 674.664921 53.112188 
L 672.264787 53.112188 
L 669.864653 53.112188 
L 667.464519 53.112188 
L 665.064385 53.112188 
L 662.664252 53.112188 
L 660.264118 53.112188 
L 657.863984 53.112188 
L 655.46385 53.112188 
L 653.063717 53.112188 
L 650.663583 53.112188 
L 648.263449 53.112188 
L 645.863315 53.112188 
L 643.463181 53.112188 
L 641.063048 53.112188 
L 638.662914 53.112188 
L 636.26278 53.112188 
L 633.862646 53.112188 
L 631.462513 53.112188 
L 629.062379 53.112188 
L 626.662245 53.112188 
L 624.262111 53.112188 
L 621.861977 53.112188 
L 619.461844 53.112188 
L 617.06171 53.112188 
L 614.661576 53.112188 
L 612.261442 53.112188 
L 609.861309 53.112188 
L 607.461175 53.112188 
L 605.061041 53.112188 
L 602.660907 53.112188 
L 600.260773 53.112188 
L 597.86064 53.112188 
L 595.460506 53.112188 
L 593.060372 53.112188 
L 590.660238 53.112188 
L 588.260105 53.112188 
L 585.859971 53.112188 
L 583.459837 53.112188 
L 581.059703 53.112188 
L 578.659569 53.112188 
L 576.259436 53.112188 
L 573.859302 53.112188 
L 571.459168 53.112188 
L 569.059034 53.112188 
L 566.658901 53.112188 
L 564.258767 53.112188 
L 561.858633 53.112188 
L 559.458499 53.112188 
L 557.058365 53.112188 
L 554.658232 53.112188 
L 552.258098 53.112188 
L 549.857964 53.112188 
L 547.45783 53.112188 
L 545.057696 53.112188 
L 542.657563 53.112188 
L 540.257429 53.112188 
L 537.857295 53.112188 
L 535.457161 53.112188 
L 533.057028 53.112188 
L 530.656894 53.112188 
L 528.25676 53.112188 
L 525.856626 53.112188 
L 523.456492 53.112188 
L 521.056359 53.112188 
L 518.656225 53.112188 
L 516.256091 53.112188 
L 513.855957 53.112188 
L 511.455824 53.112188 
L 509.05569 53.112188 
L 506.655556 53.112188 
L 504.255422 53.112188 
L 501.855288 53.112188 
L 499.455155 53.112188 
L 497.055021 53.112188 
L 494.654887 53.112188 
L 492.254753 53.112188 
L 489.85462 53.112188 
L 487.454486 53.112188 
L 485.054352 53.112188 
L 482.654218 53.112188 
L 480.254084 53.112188 
L 477.853951 53.112188 
L 475.453817 53.112188 
L 473.053683 53.112188 
L 470.653549 53.112188 
L 468.253416 53.112188 
L 465.853282 53.112188 
L 463.453148 53.112188 
L 461.053014 53.112188 
L 458.65288 53.112188 
L 456.252747 53.112188 
L 453.852613 53.112188 
L 451.452479 53.112188 
L 449.052345 53.112188 
L 446.652212 53.112188 
L 444.252078 53.112188 
L 441.851944 53.112188 
L 439.45181 53.112188 
L 437.051676 53.112188 
L 434.651543 53.112188 
L 432.251409 53.112188 
L 429.851275 53.112188 
L 427.451141 53.112188 
L 425.051008 53.112188 
L 422.650874 53.112188 
L 420.25074 53.112188 
L 417.850606 53.112188 
L 415.450472 53.112188 
L 413.050339 53.112188 
L 410.650205 53.112188 
L 408.250071 53.112188 
L 405.849937 53.112188 
L 403.449804 53.112188 
L 401.04967 53.112188 
L 398.649536 53.112188 
L 396.249402 53.112188 
L 393.849268 53.112188 
L 391.449135 53.112188 
L 389.049001 53.112188 
L 386.648867 53.112188 
L 384.248733 53.112188 
L 381.848599 53.112188 
L 379.448466 53.112188 
L 377.048332 53.112188 
L 374.648198 53.112188 
L 372.248064 53.112188 
L 369.847931 53.112188 
L 367.447797 53.112188 
L 365.047663 53.112188 
L 362.647529 53.112188 
L 360.247395 53.112188 
L 357.847262 53.112188 
L 355.447128 53.112188 
L 353.046994 53.112188 
L 350.64686 53.112188 
L 348.246727 53.112188 
L 345.846593 53.112188 
L 343.446459 53.112188 
L 341.046325 53.112188 
L 338.646191 53.112188 
L 336.246058 53.112188 
L 333.845924 53.112188 
L 331.44579 53.112188 
L 329.045656 53.112188 
L 326.645523 53.112188 
L 324.245389 53.112188 
L 321.845255 53.112188 
L 319.445121 53.112188 
L 317.044987 53.112188 
L 314.644854 53.112188 
L 312.24472 53.112188 
L 309.844586 53.112188 
L 307.444452 53.112188 
L 305.044319 53.112188 
L 302.644185 53.112188 
L 300.244051 53.112188 
L 297.843917 53.112188 
L 295.443783 53.112188 
L 293.04365 53.112188 
L 290.643516 53.112188 
L 288.243382 53.112188 
L 285.843248 53.112188 
L 283.443115 53.112188 
L 281.042981 53.112188 
L 278.642847 53.112188 
L 276.242713 53.112188 
L 273.842579 53.112188 
L 271.442446 53.112188 
L 269.042312 53.112188 
L 266.642178 53.112188 
L 264.242044 53.112188 
L 261.841911 53.112188 
L 259.441777 53.112188 
L 257.041643 53.112188 
L 254.641509 53.112188 
L 252.241375 53.112188 
L 249.841242 53.112188 
L 247.441108 53.112188 
L 245.040974 53.112188 
L 242.64084 53.112188 
L 240.240707 53.112188 
L 237.840573 53.112188 
L 235.440439 53.112188 
L 233.040305 53.112188 
L 230.640171 53.112188 
L 228.240038 53.112188 
L 225.839904 53.112188 
L 223.43977 53.112188 
L 221.039636 53.112188 
L 218.639503 53.112188 
L 216.239369 53.112188 
L 213.839235 53.112188 
L 211.439101 53.112188 
L 209.038967 53.112188 
L 206.638834 53.112188 
L 204.2387 53.112188 
L 201.838566 53.112188 
L 199.438432 53.112188 
L 197.038298 53.112188 
L 194.638165 53.112188 
L 192.238031 53.112188 
L 189.837897 53.112188 
L 187.437763 53.112188 
L 185.03763 53.112188 
L 182.637496 53.112188 
L 180.237362 53.112188 
L 177.837228 53.112188 
L 175.437094 53.112188 
L 173.036961 53.112188 
L 170.636827 53.112188 
L 168.236693 53.112188 
L 165.836559 53.112188 
L 163.436426 53.112188 
L 161.036292 53.112188 
L 158.636158 53.112188 
L 156.236024 53.112188 
L 153.83589 53.112188 
L 151.435757 53.112188 
L 149.035623 53.112188 
L 146.635489 53.112188 
L 144.235355 53.112188 
L 141.835222 53.112188 
L 139.435088 53.112188 
L 137.034954 53.112188 
L 134.63482 53.112188 
L 132.234686 53.112188 
L 129.834553 53.112188 
L 127.434419 53.112188 
L 125.034285 53.112188 
L 122.634151 53.112188 
L 120.234018 53.112188 
L 117.833884 53.112188 
L 115.43375 53.112188 
z
" clip-path="url(#pa01a8a0bab)" style="fill: #c7eae5"/>
   </g>
   <g id="matplotlib.axis_1">
    <g id="xtick_1">
     <g id="line2d_1">
      <path d="M 115.43375 468.86 
L 115.43375 32.324797 
" clip-path="url(#pa01a8a0bab)" style="fill: none; stroke: #ffffff; stroke-opacity: 0.3; stroke-width: 0.75; stroke-linecap: square"/>
     </g>
     <g id="line2d_2">
      <defs>
       <path id="m892e11cf6d" d="M 0 0 
L 0 3.5 
" style="stroke: #000000; stroke-width: 0.8"/>
      </defs>
      <g>
       <use xlink:href="#m892e11cf6d" x="115.43375" y="468.86" style="stroke: #000000; stroke-width: 0.8"/>
      </g>
     </g>
     <g id="text_1">
      <text style="font-weight: 600; font-size: 24px; font-family: 'DejaVu Sans', 'Bitstream Vera Sans', 'Computer Modern Sans Serif', 'Lucida Grande', 'Verdana', 'Geneva', 'Lucid', 'Arial', 'Helvetica', 'Avant Garde', sans-serif; fill: #767676" transform="translate(122.05625 586.0125) rotate(-90)">2023-01</text>
     </g>
    </g>
    <g id="xtick_2">
     <g id="line2d_3">
      <path d="M 180.67375 468.86 
L 180.67375 32.324797 
" clip-path="url(#pa01a8a0bab)" style="fill: none; stroke: #ffffff; stroke-opacity: 0.3; stroke-width: 0.75; stroke-linecap: square"/>
     </g>
     <g id="line2d_4">
      <g>
       <use xlink:href="#m892e11cf6d" x="180.67375" y="468.86" style="stroke: #000000; stroke-width: 0.8"/>
      </g>
     </g>
     <g id="text_2">
      <text style="font-weight: 600; font-size: 24px; font-family: 'DejaVu Sans', 'Bitstream Vera Sans', 'Computer Modern Sans Serif', 'Lucida Grande', 'Verdana', 'Geneva', 'Lucid', 'Arial', 'Helvetica', 'Avant Garde', sans-serif; fill: #767676" transform="translate(187.29625 586.0125) rotate(-90)">2023-02</text>
     </g>
    </g>
    <g id="xtick_3">
     <g id="line2d_5">
      <path d="M 245.91375 468.86 
L 245.91375 32.324797 
" clip-path="url(#pa01a8a0bab)" style="fill: none; stroke: #ffffff; stroke-opacity: 0.3; stroke-width: 0.75; stroke-linecap: square"/>
     </g>
     <g id="line2d_6">
      <g>
       <use xlink:href="#m892e11cf6d" x="245.91375" y="468.86" style="stroke: #000000; stroke-width: 0.8"/>
      </g>
     </g>
     <g id="text_3">
      <text style="font-weight: 600; font-size: 24px; font-family: 'DejaVu Sans', 'Bitstream Vera Sans', 'Computer Modern Sans Serif', 'Lucida Grande', 'Verdana', 'Geneva', 'Lucid', 'Arial', 'Helvetica', 'Avant Garde', sans-serif; fill: #767676" transform="translate(252.53625 586.0125) rotate(-90)">2023-03</text>
     </g>
    </g>
    <g id="xtick_4">
     <g id="line2d_7">
      <path d="M 311.15375 468.86 
L 311.15375 32.324797 
" clip-path="url(#pa01a8a0bab)" style="fill: none; stroke: #ffffff; stroke-opacity: 0.3; stroke-width: 0.75; stroke-linecap: square"/>
     </g>
     <g id="line2d_8">
      <g>
       <use xlink:href="#m892e11cf6d" x="311.15375" y="468.86" style="stroke: #000000; stroke-width: 0.8"/>
      </g>
     </g>
     <g id="text_4">
      <text style="font-weight: 600; font-size: 24px; font-family: 'DejaVu Sans', 'Bitstream Vera Sans', 'Computer Modern Sans Serif', 'Lucida Grande', 'Verdana', 'Geneva', 'Lucid', 'Arial', 'Helvetica', 'Avant Garde', sans-serif; fill: #767676" transform="translate(317.77625 586.0125) rotate(-90)">2023-04</text>
     </g>
    </g>
    <g id="xtick_5">
     <g id="line2d_9">
      <path d="M 376.39375 468.86 
L 376.39375 32.324797 
" clip-path="url(#pa01a8a0bab)" style="fill: none; stroke: #ffffff; stroke-opacity: 0.3; stroke-width: 0.75; stroke-linecap: square"/>
     </g>
     <g id="line2d_10">
      <g>
       <use xlink:href="#m892e11cf6d" x="376.39375" y="468.86" style="stroke: #000000; stroke-width: 0.8"/>
      </g>
     </g>
     <g id="text_5">
      <text style="font-weight: 600; font-size: 24px; font-family: 'DejaVu Sans', 'Bitstream Vera Sans', 'Computer Modern Sans Serif', 'Lucida Grande', 'Verdana', 'Geneva', 'Lucid', 'Arial', 'Helvetica', 'Avant Garde', sans-serif; fill: #767676" transform="translate(383.01625 586.0125) rotate(-90)">2023-05</text>
     </g>
    </g>
    <g id="xtick_6">
     <g id="line2d_11">
      <path d="M 441.63375 468.86 
L 441.63375 32.324797 
" clip-path="url(#pa01a8a0bab)" style="fill: none; stroke: #ffffff; stroke-opacity: 0.3; stroke-width: 0.75; stroke-linecap: square"/>
     </g>
     <g id="line2d_12">
      <g>
       <use xlink:href="#m892e11cf6d" x="441.63375" y="468.86" style="stroke: #000000; stroke-width: 0.8"/>
      </g>
     </g>
     <g id="text_6">
      <text style="font-weight: 600; font-size: 24px; font-family: 'DejaVu Sans', 'Bitstream Vera Sans', 'Computer Modern Sans Serif', 'Lucida Grande', 'Verdana', 'Geneva', 'Lucid', 'Arial', 'Helvetica', 'Avant Garde', sans-serif; fill: #767676" transform="translate(448.25625 586.0125) rotate(-90)">2023-06</text>
     </g>
    </g>
    <g id="xtick_7">
     <g id="line2d_13">
      <path d="M 506.87375 468.86 
L 506.87375 32.324797 
" clip-path="url(#pa01a8a0bab)" style="fill: none; stroke: #ffffff; stroke-opacity: 0.3; stroke-width: 0.75; stroke-linecap: square"/>
     </g>
     <g id="line2d_14">
      <g>
       <use xlink:href="#m892e11cf6d" x="506.87375" y="468.86" style="stroke: #000000; stroke-width: 0.8"/>
      </g>
     </g>
     <g id="text_7">
      <text style="font-weight: 600; font-size: 24px; font-family: 'DejaVu Sans', 'Bitstream Vera Sans', 'Computer Modern Sans Serif', 'Lucida Grande', 'Verdana', 'Geneva', 'Lucid', 'Arial', 'Helvetica', 'Avant Garde', sans-serif; fill: #767676" transform="translate(513.49625 586.0125) rotate(-90)">2023-07</text>
     </g>
    </g>
    <g id="xtick_8">
     <g id="line2d_15">
      <path d="M 572.11375 468.86 
L 572.11375 32.324797 
" clip-path="url(#pa01a8a0bab)" style="fill: none; stroke: #ffffff; stroke-opacity: 0.3; stroke-width: 0.75; stroke-linecap: square"/>
     </g>
     <g id="line2d_16">
      <g>
       <use xlink:href="#m892e11cf6d" x="572.11375" y="468.86" style="stroke: #000000; stroke-width: 0.8"/>
      </g>
     </g>
     <g id="text_8">
      <text style="font-weight: 600; font-size: 24px; font-family: 'DejaVu Sans', 'Bitstream Vera Sans', 'Computer Modern Sans Serif', 'Lucida Grande', 'Verdana', 'Geneva', 'Lucid', 'Arial', 'Helvetica', 'Avant Garde', sans-serif; fill: #767676" transform="translate(578.73625 586.0125) rotate(-90)">2023-08</text>
     </g>
    </g>
    <g id="xtick_9">
     <g id="line2d_17">
      <path d="M 637.35375 468.86 
L 637.35375 32.324797 
" clip-path="url(#pa01a8a0bab)" style="fill: none; stroke: #ffffff; stroke-opacity: 0.3; stroke-width: 0.75; stroke-linecap: square"/>
     </g>
     <g id="line2d_18">
      <g>
       <use xlink:href="#m892e11cf6d" x="637.35375" y="468.86" style="stroke: #000000; stroke-width: 0.8"/>
      </g>
     </g>
     <g id="text_9">
      <text style="font-weight: 600; font-size: 24px; font-family: 'DejaVu Sans', 'Bitstream Vera Sans', 'Computer Modern Sans Serif', 'Lucida Grande', 'Verdana', 'Geneva', 'Lucid', 'Arial', 'Helvetica', 'Avant Garde', sans-serif; fill: #767676" transform="translate(643.97625 586.0125) rotate(-90)">2023-09</text>
     </g>
    </g>
    <g id="xtick_10">
     <g id="line2d_19">
      <path d="M 702.59375 468.86 
L 702.59375 32.324797 
" clip-path="url(#pa01a8a0bab)" style="fill: none; stroke: #ffffff; stroke-opacity: 0.3; stroke-width: 0.75; stroke-linecap: square"/>
     </g>
     <g id="line2d_20">
      <g>
       <use xlink:href="#m892e11cf6d" x="702.59375" y="468.86" style="stroke: #000000; stroke-width: 0.8"/>
      </g>
     </g>
     <g id="text_10">
      <text style="font-weight: 600; font-size: 24px; font-family: 'DejaVu Sans', 'Bitstream Vera Sans', 'Computer Modern Sans Serif', 'Lucida Grande', 'Verdana', 'Geneva', 'Lucid', 'Arial', 'Helvetica', 'Avant Garde', sans-serif; fill: #767676" transform="translate(709.21625 586.0125) rotate(-90)">2023-10</text>
     </g>
    </g>
    <g id="xtick_11">
     <g id="line2d_21">
      <path d="M 767.83375 468.86 
L 767.83375 32.324797 
" clip-path="url(#pa01a8a0bab)" style="fill: none; stroke: #ffffff; stroke-opacity: 0.3; stroke-width: 0.75; stroke-linecap: square"/>
     </g>
     <g id="line2d_22">
      <g>
       <use xlink:href="#m892e11cf6d" x="767.83375" y="468.86" style="stroke: #000000; stroke-width: 0.8"/>
      </g>
     </g>
     <g id="text_11">
      <text style="font-weight: 600; font-size: 24px; font-family: 'DejaVu Sans', 'Bitstream Vera Sans', 'Computer Modern Sans Serif', 'Lucida Grande', 'Verdana', 'Geneva', 'Lucid', 'Arial', 'Helvetica', 'Avant Garde', sans-serif; fill: #767676" transform="translate(774.45625 586.0125) rotate(-90)">2023-11</text>
     </g>
    </g>
    <g id="xtick_12">
     <g id="line2d_23">
      <path d="M 833.07375 468.86 
L 833.07375 32.324797 
" clip-path="url(#pa01a8a0bab)" style="fill: none; stroke: #ffffff; stroke-opacity: 0.3; stroke-width: 0.75; stroke-linecap: square"/>
     </g>
     <g id="line2d_24">
      <g>
       <use xlink:href="#m892e11cf6d" x="833.07375" y="468.86" style="stroke: #000000; stroke-width: 0.8"/>
      </g>
     </g>
     <g id="text_12">
      <text style="font-weight: 600; font-size: 24px; font-family: 'DejaVu Sans', 'Bitstream Vera Sans', 'Computer Modern Sans Serif', 'Lucida Grande', 'Verdana', 'Geneva', 'Lucid', 'Arial', 'Helvetica', 'Avant Garde', sans-serif; fill: #767676" transform="translate(839.69625 586.0125) rotate(-90)">2023-12</text>
     </g>
    </g>
   </g>
   <g id="matplotlib.axis_2">
    <g id="ytick_1">
     <g id="line2d_25">
      <path d="M 82.81375 468.86 
L 865.69375 468.86 
" clip-path="url(#pa01a8a0bab)" style="fill: none; stroke: #ffffff; stroke-opacity: 0.8; stroke-width: 1.25; stroke-linecap: square"/>
     </g>
     <g id="line2d_26">
      <defs>
       <path id="mb33217f515" d="M 0 0 
L -3.5 0 
" style="stroke: #000000; stroke-width: 0.8"/>
      </defs>
      <g>
       <use xlink:href="#mb33217f515" x="82.81375" y="468.86" style="stroke: #000000; stroke-width: 0.8"/>
      </g>
     </g>
     <g id="text_13">
      <text style="font-weight: 500; font-size: 24px; font-family: 'DejaVu Sans', 'Bitstream Vera Sans', 'Computer Modern Sans Serif', 'Lucida Grande', 'Verdana', 'Geneva', 'Lucid', 'Arial', 'Helvetica', 'Avant Garde', sans-serif; text-anchor: end; fill: #767676" x="75.81375" y="477.978125" transform="rotate(-0 75.81375 477.978125)">0%</text>
     </g>
    </g>
    <g id="ytick_2">
     <g id="line2d_27">
      <path d="M 82.81375 364.923047 
L 865.69375 364.923047 
" clip-path="url(#pa01a8a0bab)" style="fill: none; stroke: #ffffff; stroke-opacity: 0.8; stroke-width: 1.25; stroke-linecap: square"/>
     </g>
     <g id="line2d_28">
      <g>
       <use xlink:href="#mb33217f515" x="82.81375" y="364.923047" style="stroke: #000000; stroke-width: 0.8"/>
      </g>
     </g>
     <g id="text_14">
      <text style="font-weight: 500; font-size: 24px; font-family: 'DejaVu Sans', 'Bitstream Vera Sans', 'Computer Modern Sans Serif', 'Lucida Grande', 'Verdana', 'Geneva', 'Lucid', 'Arial', 'Helvetica', 'Avant Garde', sans-serif; text-anchor: end; fill: #767676" x="75.81375" y="374.041172" transform="rotate(-0 75.81375 374.041172)">25%</text>
     </g>
    </g>
    <g id="ytick_3">
     <g id="line2d_29">
      <path d="M 82.81375 260.986094 
L 865.69375 260.986094 
" clip-path="url(#pa01a8a0bab)" style="fill: none; stroke: #ffffff; stroke-opacity: 0.8; stroke-width: 1.25; stroke-linecap: square"/>
     </g>
     <g id="line2d_30">
      <g>
       <use xlink:href="#mb33217f515" x="82.81375" y="260.986094" style="stroke: #000000; stroke-width: 0.8"/>
      </g>
     </g>
     <g id="text_15">
      <text style="font-weight: 500; font-size: 24px; font-family: 'DejaVu Sans', 'Bitstream Vera Sans', 'Computer Modern Sans Serif', 'Lucida Grande', 'Verdana', 'Geneva', 'Lucid', 'Arial', 'Helvetica', 'Avant Garde', sans-serif; text-anchor: end; fill: #767676" x="75.81375" y="270.104219" transform="rotate(-0 75.81375 270.104219)">50%</text>
     </g>
    </g>
    <g id="ytick_4">
     <g id="line2d_31">
      <path d="M 82.81375 157.049141 
L 865.69375 157.049141 
" clip-path="url(#pa01a8a0bab)" style="fill: none; stroke: #ffffff; stroke-opacity: 0.8; stroke-width: 1.25; stroke-linecap: square"/>
     </g>
     <g id="line2d_32">
      <g>
       <use xlink:href="#mb33217f515" x="82.81375" y="157.049141" style="stroke: #000000; stroke-width: 0.8"/>
      </g>
     </g>
     <g id="text_16">
      <text style="font-weight: 500; font-size: 24px; font-family: 'DejaVu Sans', 'Bitstream Vera Sans', 'Computer Modern Sans Serif', 'Lucida Grande', 'Verdana', 'Geneva', 'Lucid', 'Arial', 'Helvetica', 'Avant Garde', sans-serif; text-anchor: end; fill: #767676" x="75.81375" y="166.167266" transform="rotate(-0 75.81375 166.167266)">75%</text>
     </g>
    </g>
    <g id="ytick_5">
     <g id="line2d_33">
      <path d="M 82.81375 53.112188 
L 865.69375 53.112188 
" clip-path="url(#pa01a8a0bab)" style="fill: none; stroke: #ffffff; stroke-opacity: 0.8; stroke-width: 1.25; stroke-linecap: square"/>
     </g>
     <g id="line2d_34">
      <g>
       <use xlink:href="#mb33217f515" x="82.81375" y="53.112188" style="stroke: #000000; stroke-width: 0.8"/>
      </g>
     </g>
     <g id="text_17">
      <text style="font-weight: 500; font-size: 24px; font-family: 'DejaVu Sans', 'Bitstream Vera Sans', 'Computer Modern Sans Serif', 'Lucida Grande', 'Verdana', 'Geneva', 'Lucid', 'Arial', 'Helvetica', 'Avant Garde', sans-serif; text-anchor: end; fill: #767676" x="75.81375" y="62.230313" transform="rotate(-0 75.81375 62.230313)">100%</text>
     </g>
    </g>
   </g>
   <g id="patch_3">
    <path d="M 82.81375 468.86 
L 865.69375 468.86 
" style="fill: none; stroke: #000000; stroke-width: 2; stroke-linejoin: miter; stroke-linecap: square"/>
   </g>
   <g id="text_18">
    <g id="patch_4">
     <path d="M 166.408125 428.175953 
L 194.939375 428.175953 
Q 214.939375 428.175953 214.939375 408.175953 
L 214.939375 404.819703 
Q 214.939375 384.819703 194.939375 384.819703 
L 166.408125 384.819703 
Q 146.408125 384.819703 146.408125 404.819703 
L 146.408125 408.175953 
Q 146.408125 428.175953 166.408125 428.175953 
z
" style="fill: #ffffff; stroke: #d9d9d9; stroke-width: 1.8; stroke-linejoin: miter"/>
    </g>
    <text style="font-size: 20px; font-family: 'DejaVu Sans', 'Bitstream Vera Sans', 'Computer Modern Sans Serif', 'Lucida Grande', 'Verdana', 'Geneva', 'Lucid', 'Arial', 'Helvetica', 'Avant Garde', sans-serif; text-anchor: middle; fill: #10302c" x="180.67375" y="412.016578" transform="rotate(-0 180.67375 412.016578)">4.61</text>
   </g>
   <g id="text_19">
    <g id="patch_5">
     <path d="M 459.988125 303.451609 
L 488.519375 303.451609 
Q 508.519375 303.451609 508.519375 283.451609 
L 508.519375 280.095359 
Q 508.519375 260.095359 488.519375 260.095359 
L 459.988125 260.095359 
Q 439.988125 260.095359 439.988125 280.095359 
L 439.988125 283.451609 
Q 439.988125 303.451609 459.988125 303.451609 
z
" style="fill: #ffffff; stroke: #d9d9d9; stroke-width: 1.8; stroke-linejoin: miter"/>
    </g>
    <text style="font-size: 20px; font-family: 'DejaVu Sans', 'Bitstream Vera Sans', 'Computer Modern Sans Serif', 'Lucida Grande', 'Verdana', 'Geneva', 'Lucid', 'Arial', 'Helvetica', 'Avant Garde', sans-serif; text-anchor: middle; fill: #10302c" x="474.25375" y="287.292234" transform="rotate(-0 474.25375 287.292234)">5.31</text>
   </g>
   <g id="text_20">
    <g id="patch_6">
     <path d="M 753.568125 137.152485 
L 782.099375 137.152485 
Q 802.099375 137.152485 802.099375 117.152485 
L 802.099375 113.796235 
Q 802.099375 93.796235 782.099375 93.796235 
L 753.568125 93.796235 
Q 733.568125 93.796235 733.568125 113.796235 
L 733.568125 117.152485 
Q 733.568125 137.152485 753.568125 137.152485 
z
" style="fill: #ffffff; stroke: #d9d9d9; stroke-width: 1.8; stroke-linejoin: miter"/>
    </g>
    <text style="font-size: 20px; font-family: 'DejaVu Sans', 'Bitstream Vera Sans', 'Computer Modern Sans Serif', 'Lucida Grande', 'Verdana', 'Geneva', 'Lucid', 'Arial', 'Helvetica', 'Avant Garde', sans-serif; text-anchor: middle; fill: #10302c" x="767.83375" y="120.99311" transform="rotate(-0 767.83375 120.99311)">2.08</text>
   </g>
  </g>
  <g id="axes_2">
   <g id="patch_7">
    <path d="M 876.49375 468.86 
L 1137.45375 468.86 
L 1137.45375 32.324797 
L 876.49375 32.324797 
z
" style="fill: #ffffff"/>
   </g>
   <g id="patch_8">
    <path d="M 941.73375 468.86 
L 1072.21375 468.86 
L 1072.21375 271.6533 
L 941.73375 271.6533 
z
" clip-path="url(#p561faa0e9d)" style="fill: #215f53; stroke: #ffffff; stroke-width: 0.5; stroke-linejoin: miter"/>
   </g>
   <g id="patch_9">
    <path d="M 941.73375 271.6533 
L 1072.21375 271.6533 
L 1072.21375 51.134242 
L 941.73375 51.134242 
z
" clip-path="url(#p561faa0e9d)" style="fill: #7570b3; stroke: #ffffff; stroke-width: 0.5; stroke-linejoin: miter"/>
   </g>
   <g id="patch_10">
    <path d="M 941.73375 51.134242 
L 1072.21375 51.134242 
L 1072.21375 32.324797 
L 941.73375 32.324797 
z
" clip-path="url(#p561faa0e9d)" style="fill: #c7eae5; stroke: #ffffff; stroke-width: 0.5; stroke-linejoin: miter"/>
   </g>
   <g id="matplotlib.axis_3"/>
   <g id="matplotlib.axis_4"/>
   <g id="text_21">
    <text style="font-weight: 500; font-size: 20px; font-family: 'DejaVu Sans', 'Bitstream Vera Sans', 'Computer Modern Sans Serif', 'Lucida Grande', 'Verdana', 'Geneva', 'Lucid', 'Arial', 'Helvetica', 'Avant Garde', sans-serif; text-anchor: middle; fill: #ffffff" x="1006.97375" y="375.7754" transform="rotate(-0 1006.97375 375.7754)">45.2%</text>
   </g>
   <g id="text_22">
    <text style="font-weight: 500; font-size: 20px; font-family: 'DejaVu Sans', 'Bitstream Vera Sans', 'Computer Modern Sans Serif', 'Lucida Grande', 'Verdana', 'Geneva', 'Lucid', 'Arial', 'Helvetica', 'Avant Garde', sans-serif; text-anchor: middle; fill: #ffffff" x="1006.97375" y="166.912521" transform="rotate(-0 1006.97375 166.912521)">50.5%</text>
   </g>
   <g id="text_23">
    <text style="font-weight: 500; font-size: 20px; font-family: 'DejaVu Sans', 'Bitstream Vera Sans', 'Computer Modern Sans Serif', 'Lucida Grande', 'Verdana', 'Geneva', 'Lucid', 'Arial', 'Helvetica', 'Avant Garde', sans-serif; text-anchor: middle; fill: #ffffff" x="1006.97375" y="47.248269" transform="rotate(-0 1006.97375 47.248269)">4.3%</text>
   </g>
  </g>
  <g id="legend_1">
   <g id="patch_11">
    <path d="M 209.535 40.673437 
L 269.535 40.673437 
L 269.535 19.673437 
L 209.535 19.673437 
z
" style="fill: #215f53"/>
   </g>
   <g id="text_24">
    <text style="font-weight: 500; font-size: 30px; font-family: 'Arial'; text-anchor: start" x="293.535" y="40.673437" transform="rotate(-0 293.535 40.673437)">Comisiones</text>
   </g>
   <g id="patch_12">
    <path d="M 510.252187 40.673437 
L 570.252187 40.673437 
L 570.252187 19.673437 
L 510.252187 19.673437 
z
" style="fill: #7570b3"/>
   </g>
   <g id="text_25">
    <text style="font-weight: 500; font-size: 30px; font-family: 'Arial'; text-anchor: start" x="594.252187" y="40.673437" transform="rotate(-0 594.252187 40.673437)">Fiscalas</text>
   </g>
   <g id="patch_13">
    <path d="M 772.606875 40.673437 
L 832.606875 40.673437 
L 832.606875 19.673437 
L 772.606875 19.673437 
z
" style="fill: #c7eae5"/>
   </g>
   <g id="text_26">
    <text style="font-weight: 500; font-size: 30px; font-family: 'Arial'; text-anchor: start" x="856.606875" y="40.673437" transform="rotate(-0 856.606875 40.673437)">Portal</text>
   </g>
  </g>
 </g>
 <defs>
  <clipPath id="pa01a8a0bab">
   <rect x="82.81375" y="32.324797" width="782.88" height="436.535203"/>
  </clipPath>
  <clipPath id="p561faa0e9d">
   <rect x="876.49375" y="32.324797" width="260.96" height="436.535203"/>
  </clipPath>
 </defs>
</svg>
