<?xml version="1.0" encoding="UTF-8"?>
<!DOCTYPE svg  PUBLIC '-//W3C//DTD SVG 1.1//EN'  'http://www.w3.org/Graphics/SVG/1.1/DTD/svg11.dtd'>
<svg width="1144.7pt" height="593.21pt" version="1.1" viewBox="0 0 1144.7 593.21" xmlns="http://www.w3.org/2000/svg" xmlns:xlink="http://www.w3.org/1999/xlink">
 <defs>
  <style type="text/css">*{stroke-linejoin: round; stroke-linecap: butt}</style>
 </defs>
 <path d="m0 593.21h1144.7v-593.21h-1144.7z" fill="#fff"/>
 <path d="m82.814 468.86h782.88v-437.06h-782.88z" fill="#fff"/>
 <path d="m115.43 278.14v152.88h2.4001 2.4001 2.4001 2.4001 2.4001 2.4001 2.4001 2.4001 2.4001 2.4001 2.4001 2.4001 2.4001 2.4001 2.4001 2.4001 2.4001 2.4001 2.4001 2.4001 2.4001 2.4001 2.4001 2.4001 2.4001 2.4001 2.4001 2.4001 2.4001 2.4001 2.4001 2.4001 2.4001 2.4001 2.4001 2.4001 2.4001 2.4001 2.4001 2.4001 2.4001 2.4001 2.4001 2.4001 2.4001 2.4001 2.4001 2.4001 2.4001 2.4001 2.4001 2.4001 2.4001 2.4001 2.4001 2.4001 2.4001 2.4001 2.4001 2.4001 2.4001 2.4001 2.4001 2.4001 2.4001 2.4001 2.4001 2.4001 2.4001 2.4001 2.4001 2.4001 2.4001 2.4001 2.4001 2.4001 2.4001 2.4001 2.4001 2.4001 2.4001 2.4001 2.4001 2.4001 2.4001 2.4001 2.4001 2.4001 2.4001 2.4001 2.4001 2.4001 2.4001 2.4001 2.4001 2.4001 2.4001 2.4001 2.4001 2.4001 2.4001 2.4001 2.4001 2.4001 2.4001 2.4001 2.4001 2.4001 2.4001 2.4001 2.4001 2.4001 2.4001 2.4001 2.4001 2.4001 2.4001 2.4001 2.4001 2.4001 2.4001 2.4001 2.4001 2.4001 2.4001 2.4001 2.4001 2.4001 2.4001 2.4001 2.4001 2.4001 2.4001 2.4001 2.4001 2.4001 2.4001 2.4001 2.4001 2.4001 2.4001 2.4001 2.4001 2.4001 2.4001 2.4001 2.4001 2.4001 2.4001 2.4001 2.4001 2.4001 2.4001 2.4001 2.4001 2.4001 2.4001 2.4001 2.4001 2.4001 2.4001 2.4001 2.4001 2.4001 2.4001 2.4001 2.4001 2.4001 2.4001 2.4001 2.4001 2.4001 2.4001 2.4001 2.4001 2.4001 2.4001 2.4001 2.4001 2.4001 2.4001 2.4001 2.4001 2.4001 2.4001 2.4001 2.4001 2.4001 2.4001 2.4001 2.4001 2.4001 2.4001 2.4001 2.4001 2.4001 2.4001 2.4001 2.4001 2.4001 2.4001 2.4001 2.4001 2.4001 2.4001 2.4001 2.4001 2.4001 2.4001 2.4001 2.4001 2.4001 2.4001 2.4001 2.4001 2.4001 2.4001 2.4001 2.4001 2.4001 2.4001 2.4001 2.4001 2.4001 2.4001 2.4001 2.4001 2.4001 2.4001 2.4001 2.4001 2.4001 2.4001 2.4001 2.4001 2.4001 2.4001 2.4001 2.4001 2.4001 2.4001 2.4001 2.4001 2.4001 2.4001 2.4001 2.4001 2.4001 2.4001 2.4001 2.4001 2.4001 2.4001 2.4001 2.4001 2.4001 2.4001 2.4001 2.4001 2.4001 2.4001 2.4001 2.4001 2.4001 2.4001 2.4001 2.4001 2.4001 2.4001 2.4001 2.4001 2.4001 2.4001 2.4001 2.4001 2.4001 2.4001 2.4001 2.4001 2.4001 2.4001 2.4001 2.4001 2.4001 2.4001 2.4001 2.4001 2.4001 2.4001 2.4001 2.4001 2.4001 2.4001 2.4001 2.4001 2.4001 2.4001 2.4001 2.4001v-172.47l-2.4001 9.6912-2.4001 8.8142-2.4001 7.9633-2.4001 7.1385-2.4001 6.3399-2.4001 5.5674-2.4001 4.821-2.4001 4.1008-2.4001 3.4068-2.4001 2.7388-2.4001 2.0971-2.4001 1.4814-2.4001 0.89194-2.4001 0.32858-2.4001-0.20863-2.4001-0.7197-2.4001-1.2046-2.4001-1.6634-2.4001-2.0961-2.4001-2.5026-2.4001-2.8829-2.4001-3.2371-2.4001-3.5652-2.4001-3.8671-2.4001-4.1429-2.4001-4.3926-2.4001-4.6161-2.4001-4.8135-2.4001-4.9847-2.4001-5.1298-2.4001-5.2487-2.4001-5.3415-2.4001-5.4082-2.4001-5.4487-2.4001-5.4631-2.4001-5.4513-2.4001-5.4134-2.4001-5.3494-2.4001-5.2592-2.4001-5.1428-2.4001-5.0004-2.4001-4.8317-2.4001-4.637-2.4001-4.4161-2.4001-4.169-2.4001-3.8959-2.4001-3.5965-2.4001-3.2711-2.4001-2.9195-2.4001-2.5417-2.4001-2.1378-2.4001-1.7078-2.4001-1.2516-2.4001-0.76928-2.4001-0.26333-2.4001 0.23368-2.4001 0.69897-2.4001 1.1321-2.4001 1.533-2.4001 1.9017-2.4001 2.2382-2.4001 2.5425-2.4001 2.8147-2.4001 3.0546-2.4001 3.2624-2.4001 3.438-2.4001 3.5813-2.4001 3.6925-2.4001 3.7715-2.4001 3.8183-2.4001 3.8329-2.4001 3.8153-2.4001 3.7656-2.4001 3.6836-2.4001 3.5694-2.4001 3.4231-2.4001 3.2445-2.4001 3.0338-2.4001 2.7909-2.4001 2.5158-2.4001 2.2085-2.4001 1.8698-2.4001 1.5255-2.4001 1.2043-2.4001 0.90761-2.4001 0.63558-2.4001 0.38816-2.4001 0.16536-2.4001-0.032837-2.4001-0.20642-2.4001-0.35538-2.4001-0.47974-2.4001-0.57948-2.4001-0.65461-2.4001-0.70513-2.4001-0.73103-2.4001-0.73233-2.4001-0.709-2.4001-0.66107-2.4001-0.58852-2.4001-0.49136-2.4001-0.36959-2.4001-0.22321-2.4001-0.05221-2.4001 0.1434-2.4001 0.36362-2.4001 0.60846-2.4001 0.87791-2.4001 1.1718-2.4001 1.4732-2.4001 1.7513-2.4001 2.0028-2.4001 2.2277-2.4001 2.426-2.4001 2.5977-2.4001 2.7427-2.4001 2.8612-2.4001 2.9531-2.4001 3.0183-2.4001 3.057-2.4001 3.069-2.4001 3.0545-2.4001 3.0133-2.4001 2.9456-2.4001 2.8512-2.4001 2.7302-2.4001 2.5826-2.4001 2.4084-2.4001 2.2076-2.4001 1.9802-2.4001 1.7262-2.4001 1.4456-2.4001 1.1384-2.4001 0.80461-2.4001 0.44419-2.4001 0.057164-2.4001-0.34482-2.4001-0.72623-2.4001-1.0803-2.4001-1.4071-2.4001-1.7066-2.4001-1.9788-2.4001-2.2236-2.4001-2.4412-2.4001-2.6314-2.4001-2.7943-2.4001-2.9299-2.4001-3.0382-2.4001-3.1191-2.4001-3.1728-2.4001-3.1991-2.4001-3.1982-2.4001-3.1699-2.4001-3.1143-2.4001-3.0314-2.4001-2.9211-2.4001-2.7836-2.4001-2.6187-2.4001-2.4266-2.4001-2.2071-2.4001-1.9603-2.4001-1.6862-2.4001-1.3848-2.4001-1.0602-2.4001-0.73448-2.4001-0.41481-2.4001-0.10119-2.4001 0.20639-2.4001 0.50791-2.4001 0.80339-2.4001 1.0928-2.4001 1.3762-2.4001 1.6535-2.4001 1.9248-2.4001 2.19-2.4001 2.4492-2.4001 2.7023-2.4001 2.9494-2.4001 3.1905-2.4001 3.4254-2.4001 3.6544-2.4001 3.8773-2.4001 4.0941-2.4001 4.3049-2.4001 4.5096-2.4001 4.7083-2.4001 4.901-2.4001 5.0876-2.4001 5.2681-2.4001 5.4426-2.4001 5.6092-2.4001 5.7501-2.4001 5.8558-2.4001 5.9262-2.4001 5.9612-2.4001 5.9608-2.4001 5.9251-2.4001 5.854-2.4001 5.7475-2.4001 5.6057-2.4001 5.4285-2.4001 5.2159-2.4001 4.968-2.4001 4.6847-2.4001 4.3661-2.4001 4.012-2.4001 3.6227-2.4001 3.1979-2.4001 2.7378-2.4001 2.2424-2.4001 1.7115-2.4001 1.1454-2.4001 0.5438-2.4001-0.093124-2.4001-0.7654-2.4001-1.4731-2.4001-2.2161-2.4001-2.9917-2.4001-3.7497-2.4001-4.4452-2.4001-5.0767-2.4001-5.6442-2.4001-6.1477-2.4001-6.5871-2.4001-6.9625-2.4001-7.2739-2.4001-7.5213-2.4001-7.7047-2.4001-7.8241-2.4001-7.8794-2.4001-7.8708-2.4001-7.7981-2.4001-7.6614-2.4001-7.4606-2.4001-7.1959-2.4001-6.8671-2.4001-6.4744-2.4001-6.0176-2.4001-5.4968-2.4001-4.912-2.4001-4.2631-2.4001-3.5503-2.4001-2.7734-2.4001-1.9325-2.4001-1.0285-2.4001-0.10568-2.4001 0.77264-2.4001 1.6016-2.4001 2.3812-2.4001 3.1114-2.4001 3.7922-2.4001 4.4237-2.4001 5.0058-2.4001 5.5385-2.4001 6.0219-2.4001 6.4559-2.4001 6.8405-2.4001 7.1757-2.4001 7.4616-2.4001 7.6981-2.4001 7.8852-2.4001 8.023-2.4001 8.1114-2.4001 8.1504-2.4001 8.1401-2.4001 8.0803-2.4001 7.9713-2.4001 7.8128-2.4001 7.605-2.4001 7.3478-2.4001 7.0412-2.4001 6.6853-2.4001 6.2799-2.4001 5.8253-2.4001 5.3212-2.4001 4.7678-2.4001 4.165-2.4001 3.5128-2.4001 2.8113-2.4001 2.0604-2.4001 1.2601-2.4001 0.41047-2.4001-0.48854-2.4001-1.4369-2.4001-2.4347-2.4001-3.4818-2.4001-4.5783-2.4001-5.7242-2.4001-6.9194-2.4001-8.164-2.4001-9.458-2.4001-10.801-2.4001-12.194-2.4001-13.636-2.4001-15.128-2.4001-16.668-2.4001-18.259-2.4001-19.898-2.4001-21.587z" clip-path="url(#a)" fill="#215f53"/>
 <path d="m115.43 146.96v131.18l2.4001 21.587 2.4001 19.898 2.4001 18.259 2.4001 16.668 2.4001 15.128 2.4001 13.636 2.4001 12.194 2.4001 10.801 2.4001 9.458 2.4001 8.164 2.4001 6.9194 2.4001 5.7242 2.4001 4.5783 2.4001 3.4818 2.4001 2.4347 2.4001 1.4369 2.4001 0.48854 2.4001-0.41047 2.4001-1.2601 2.4001-2.0604 2.4001-2.8113 2.4001-3.5128 2.4001-4.165 2.4001-4.7678 2.4001-5.3212 2.4001-5.8253 2.4001-6.2799 2.4001-6.6853 2.4001-7.0412 2.4001-7.3478 2.4001-7.605 2.4001-7.8128 2.4001-7.9713 2.4001-8.0803 2.4001-8.1401 2.4001-8.1504 2.4001-8.1114 2.4001-8.023 2.4001-7.8852 2.4001-7.6981 2.4001-7.4616 2.4001-7.1757 2.4001-6.8405 2.4001-6.4559 2.4001-6.0219 2.4001-5.5385 2.4001-5.0058 2.4001-4.4237 2.4001-3.7922 2.4001-3.1114 2.4001-2.3812 2.4001-1.6016 2.4001-0.77264 2.4001 0.10568 2.4001 1.0285 2.4001 1.9325 2.4001 2.7734 2.4001 3.5503 2.4001 4.2631 2.4001 4.912 2.4001 5.4968 2.4001 6.0176 2.4001 6.4744 2.4001 6.8671 2.4001 7.1959 2.4001 7.4606 2.4001 7.6614 2.4001 7.7981 2.4001 7.8708 2.4001 7.8794 2.4001 7.8241 2.4001 7.7047 2.4001 7.5213 2.4001 7.2739 2.4001 6.9625 2.4001 6.5871 2.4001 6.1477 2.4001 5.6442 2.4001 5.0767 2.4001 4.4452 2.4001 3.7497 2.4001 2.9917 2.4001 2.2161 2.4001 1.4731 2.4001 0.7654 2.4001 0.093124 2.4001-0.5438 2.4001-1.1454 2.4001-1.7115 2.4001-2.2424 2.4001-2.7378 2.4001-3.1979 2.4001-3.6227 2.4001-4.012 2.4001-4.3661 2.4001-4.6847 2.4001-4.968 2.4001-5.2159 2.4001-5.4285 2.4001-5.6057 2.4001-5.7475 2.4001-5.854 2.4001-5.9251 2.4001-5.9608 2.4001-5.9612 2.4001-5.9262 2.4001-5.8558 2.4001-5.7501 2.4001-5.6092 2.4001-5.4426 2.4001-5.2681 2.4001-5.0876 2.4001-4.901 2.4001-4.7083 2.4001-4.5096 2.4001-4.3049 2.4001-4.0941 2.4001-3.8773 2.4001-3.6544 2.4001-3.4254 2.4001-3.1905 2.4001-2.9494 2.4001-2.7023 2.4001-2.4492 2.4001-2.19 2.4001-1.9248 2.4001-1.6535 2.4001-1.3762 2.4001-1.0928 2.4001-0.80339 2.4001-0.50791 2.4001-0.20639 2.4001 0.10119 2.4001 0.41481 2.4001 0.73448 2.4001 1.0602 2.4001 1.3848 2.4001 1.6862 2.4001 1.9603 2.4001 2.2071 2.4001 2.4266 2.4001 2.6187 2.4001 2.7836 2.4001 2.9211 2.4001 3.0314 2.4001 3.1143 2.4001 3.1699 2.4001 3.1982 2.4001 3.1991 2.4001 3.1728 2.4001 3.1191 2.4001 3.0382 2.4001 2.9299 2.4001 2.7943 2.4001 2.6314 2.4001 2.4412 2.4001 2.2236 2.4001 1.9788 2.4001 1.7066 2.4001 1.4071 2.4001 1.0803 2.4001 0.72623 2.4001 0.34482 2.4001-0.057164 2.4001-0.44419 2.4001-0.80461 2.4001-1.1384 2.4001-1.4456 2.4001-1.7262 2.4001-1.9802 2.4001-2.2076 2.4001-2.4084 2.4001-2.5826 2.4001-2.7302 2.4001-2.8512 2.4001-2.9456 2.4001-3.0133 2.4001-3.0545 2.4001-3.069 2.4001-3.057 2.4001-3.0183 2.4001-2.9531 2.4001-2.8612 2.4001-2.7427 2.4001-2.5977 2.4001-2.426 2.4001-2.2277 2.4001-2.0028 2.4001-1.7513 2.4001-1.4732 2.4001-1.1718 2.4001-0.87791 2.4001-0.60846 2.4001-0.36362 2.4001-0.1434 2.4001 0.05221 2.4001 0.22321 2.4001 0.36959 2.4001 0.49136 2.4001 0.58852 2.4001 0.66107 2.4001 0.709 2.4001 0.73233 2.4001 0.73103 2.4001 0.70513 2.4001 0.65461 2.4001 0.57948 2.4001 0.47974 2.4001 0.35538 2.4001 0.20642 2.4001 0.032837 2.4001-0.16536 2.4001-0.38816 2.4001-0.63558 2.4001-0.90761 2.4001-1.2043 2.4001-1.5255 2.4001-1.8698 2.4001-2.2085 2.4001-2.5158 2.4001-2.7909 2.4001-3.0338 2.4001-3.2445 2.4001-3.4231 2.4001-3.5694 2.4001-3.6836 2.4001-3.7656 2.4001-3.8153 2.4001-3.8329 2.4001-3.8183 2.4001-3.7715 2.4001-3.6925 2.4001-3.5813 2.4001-3.438 2.4001-3.2624 2.4001-3.0546 2.4001-2.8147 2.4001-2.5425 2.4001-2.2382 2.4001-1.9017 2.4001-1.533 2.4001-1.1321 2.4001-0.69897 2.4001-0.23368 2.4001 0.26333 2.4001 0.76928 2.4001 1.2516 2.4001 1.7078 2.4001 2.1378 2.4001 2.5417 2.4001 2.9195 2.4001 3.2711 2.4001 3.5965 2.4001 3.8959 2.4001 4.169 2.4001 4.4161 2.4001 4.637 2.4001 4.8317 2.4001 5.0004 2.4001 5.1428 2.4001 5.2592 2.4001 5.3494 2.4001 5.4134 2.4001 5.4513 2.4001 5.4631 2.4001 5.4487 2.4001 5.4082 2.4001 5.3415 2.4001 5.2487 2.4001 5.1298 2.4001 4.9847 2.4001 4.8135 2.4001 4.6161 2.4001 4.3926 2.4001 4.1429 2.4001 3.8671 2.4001 3.5652 2.4001 3.2371 2.4001 2.8829 2.4001 2.5026 2.4001 2.0961 2.4001 1.6634 2.4001 1.2046 2.4001 0.7197 2.4001 0.20863 2.4001-0.32858 2.4001-0.89194 2.4001-1.4814 2.4001-2.0971 2.4001-2.7388 2.4001-3.4068 2.4001-4.1008 2.4001-4.821 2.4001-5.5674 2.4001-6.3399 2.4001-7.1385 2.4001-7.9633 2.4001-8.8142 2.4001-9.6912v-123.53l-2.4001 12.416-2.4001 11.662-2.4001 10.925-2.4001 10.206-2.4001 9.5044-2.4001 8.8198-2.4001 8.1526-2.4001 7.5026-2.4001 6.87-2.4001 6.2547-2.4001 5.6567-2.4001 5.076-2.4001 4.5126-2.4001 3.9665-2.4001 3.4377-2.4001 2.9263-2.4001 2.4321-2.4001 1.9553-2.4001 1.4958-2.4001 1.0536-2.4001 0.6287-2.4001 0.22112-2.4001-0.16915-2.4001-0.54211-2.4001-0.89776-2.4001-1.2361-2.4001-1.5571-2.4001-1.8608-2.4001-2.1472-2.4001-2.4163-2.4001-2.6681-2.4001-2.9026-2.4001-3.1197-2.4001-3.3196-2.4001-3.5021-2.4001-3.6673-2.4001-3.8152-2.4001-3.9458-2.4001-4.0591-2.4001-4.1551-2.4001-4.2338-2.4001-4.2951-2.4001-4.3392-2.4001-4.3659-2.4001-4.3753-2.4001-4.3674-2.4001-4.3422-2.4001-4.2997-2.4001-4.2399-2.4001-4.1627-2.4001-4.0683-2.4001-3.9565-2.4001-3.8274-2.4001-3.681-2.4001-3.518-2.4001-3.3466-2.4001-3.1727-2.4001-2.9965-2.4001-2.8179-2.4001-2.6369-2.4001-2.4536-2.4001-2.2679-2.4001-2.0798-2.4001-1.8893-2.4001-1.6965-2.4001-1.5013-2.4001-1.3037-2.4001-1.1038-2.4001-0.90152-2.4001-0.69685-2.4001-0.48982-2.4001-0.28041-2.4001-0.068636-2.4001 0.14551-2.4001 0.36202-2.4001 0.5809-2.4001 0.80215-2.4001 1.0258-2.4001 1.2518-2.4001 1.4801-2.4001 1.7108-2.4001 1.9435-2.4001 2.1663-2.4001 2.3657-2.4001 2.5411-2.4001 2.6925-2.4001 2.8198-2.4001 2.9231-2.4001 3.0023-2.4001 3.0576-2.4001 3.0888-2.4001 3.0959-2.4001 3.079-2.4001 3.0381-2.4001 2.9732-2.4001 2.8842-2.4001 2.7712-2.4001 2.6341-2.4001 2.4731-2.4001 2.2879-2.4001 2.0788-2.4001 1.8456-2.4001 1.5884-2.4001 1.3071-2.4001 1.0019-2.4001 0.67254-2.4001 0.31918-2.4001-0.058204-2.4001-0.45943-2.4001-0.86552-2.4001-1.2418-2.4001-1.5847-2.4001-1.8941-2.4001-2.1701-2.4001-2.4126-2.4001-2.6216-2.4001-2.7972-2.4001-2.9393-2.4001-3.048-2.4001-3.1232-2.4001-3.165-2.4001-3.1733-2.4001-3.1481-2.4001-3.0895-2.4001-2.9974-2.4001-2.8719-2.4001-2.7129-2.4001-2.5205-2.4001-2.2946-2.4001-2.0353-2.4001-1.7425-2.4001-1.4162-2.4001-1.0565-2.4001-0.66335-2.4001-0.23672-2.4001 0.22335-2.4001 0.70093-2.4001 1.1474-2.4001 1.5535-2.4001 1.9193-2.4001 2.2448-2.4001 2.5298-2.4001 2.7746-2.4001 2.979-2.4001 3.143-2.4001 3.2667-2.4001 3.3501-2.4001 3.393-2.4001 3.3957-2.4001 3.358-2.4001 3.28-2.4001 3.1616-2.4001 3.0028-2.4001 2.8037-2.4001 2.5643-2.4001 2.2845-2.4001 1.9644-2.4001 1.6039-2.4001 1.2031-2.4001 0.76187-2.4001 0.28035-2.4001-0.24153-2.4001-0.80375-2.4001-1.3933-2.4001-1.9414-2.4001-2.4257-2.4001-2.8461-2.4001-3.2026-2.4001-3.4952-2.4001-3.7239-2.4001-3.8887-2.4001-3.9897-2.4001-4.0268-2.4001-3.9999-2.4001-3.9092-2.4001-3.7546-2.4001-3.5361-2.4001-3.2537-2.4001-2.9075-2.4001-2.4973-2.4001-2.0233-2.4001-1.4854-2.4001-0.88356-2.4001-0.21786-2.4001 0.51172-2.4001 1.3052-2.4001 2.1626-2.4001 3.0838-2.4001 4.0689-2.4001 5.118-2.4001 6.2204-2.4001 7.2775-2.4001 8.2351-2.4001 9.0929-2.4001 9.8506-2.4001 10.508-2.4001 11.066-2.4001 11.524-2.4001 11.882-2.4001 12.14-2.4001 12.298-2.4001 12.356-2.4001 12.314-2.4001 12.172-2.4001 11.931-2.4001 11.589-2.4001 11.147-2.4001 10.605-2.4001 9.9637-2.4001 9.2221-2.4001 8.3806-2.4001 7.4391-2.4001 6.3976-2.4001 5.2561-2.4001 4.0148-2.4001 2.6734-2.4001 1.2321-2.4001-0.30381-2.4001-1.8338-2.4001-3.2686-2.4001-4.6051-2.4001-5.8434-2.4001-6.9833-2.4001-8.025-2.4001-8.9684-2.4001-9.8135-2.4001-10.56-2.4001-11.209-2.4001-11.759-2.4001-12.211-2.4001-12.565-2.4001-12.82-2.4001-12.977-2.4001-13.036-2.4001-12.997-2.4001-12.859-2.4001-12.623-2.4001-12.289-2.4001-11.856-2.4001-11.325-2.4001-10.696-2.4001-9.9686-2.4001-9.1429-2.4001-8.2189-2.4001-7.1977-2.4001-6.1354-2.4001-5.1117-2.4001-4.1329-2.4001-3.199-2.4001-2.3099-2.4001-1.4657-2.4001-0.66633-2.4001 0.088163-2.4001 0.7978-2.4001 1.4626-2.4001 2.0825-2.4001 2.6575-2.4001 3.1877-2.4001 3.6731-2.4001 4.1135-2.4001 4.5091-2.4001 4.8599-2.4001 5.1658-2.4001 5.4268-2.4001 5.643-2.4001 5.8143-2.4001 5.9407-2.4001 6.0223-2.4001 6.059-2.4001 6.0509-2.4001 5.9979-2.4001 5.9-2.4001 5.7573-2.4001 5.5698-2.4001 5.3373-2.4001 5.06-2.4001 4.7379-2.4001 4.3708-2.4001 3.959-2.4001 3.5022-2.4001 3.0006-2.4001 2.4542-2.4001 1.8628-2.4001 1.2267-2.4001 0.54561-2.4001-0.18029-2.4001-0.95106-2.4001-1.7667-2.4001-2.6272-2.4001-3.5325-2.4001-4.4827-2.4001-5.4778-2.4001-6.5177-2.4001-7.6025-2.4001-8.7321-2.4001-9.9067-2.4001-11.126-2.4001-12.39-2.4001-13.699z" clip-path="url(#a)" fill="#7570b3"/>
 <path d="m115.43 51.666v95.293l2.4001 13.699 2.4001 12.39 2.4001 11.126 2.4001 9.9067 2.4001 8.7321 2.4001 7.6025 2.4001 6.5177 2.4001 5.4778 2.4001 4.4827 2.4001 3.5325 2.4001 2.6272 2.4001 1.7667 2.4001 0.95106 2.4001 0.18029 2.4001-0.54561 2.4001-1.2267 2.4001-1.8628 2.4001-2.4542 2.4001-3.0006 2.4001-3.5022 2.4001-3.959 2.4001-4.3708 2.4001-4.7379 2.4001-5.06 2.4001-5.3373 2.4001-5.5698 2.4001-5.7573 2.4001-5.9 2.4001-5.9979 2.4001-6.0509 2.4001-6.059 2.4001-6.0223 2.4001-5.9407 2.4001-5.8143 2.4001-5.643 2.4001-5.4268 2.4001-5.1658 2.4001-4.8599 2.4001-4.5091 2.4001-4.1135 2.4001-3.6731 2.4001-3.1877 2.4001-2.6575 2.4001-2.0825 2.4001-1.4626 2.4001-0.7978 2.4001-0.088163 2.4001 0.66633 2.4001 1.4657 2.4001 2.3099 2.4001 3.199 2.4001 4.1329 2.4001 5.1117 2.4001 6.1354 2.4001 7.1977 2.4001 8.2189 2.4001 9.1429 2.4001 9.9686 2.4001 10.696 2.4001 11.325 2.4001 11.856 2.4001 12.289 2.4001 12.623 2.4001 12.859 2.4001 12.997 2.4001 13.036 2.4001 12.977 2.4001 12.82 2.4001 12.565 2.4001 12.211 2.4001 11.759 2.4001 11.209 2.4001 10.56 2.4001 9.8135 2.4001 8.9684 2.4001 8.025 2.4001 6.9833 2.4001 5.8434 2.4001 4.6051 2.4001 3.2686 2.4001 1.8338 2.4001 0.30381 2.4001-1.2321 2.4001-2.6734 2.4001-4.0148 2.4001-5.2561 2.4001-6.3976 2.4001-7.4391 2.4001-8.3806 2.4001-9.2221 2.4001-9.9637 2.4001-10.605 2.4001-11.147 2.4001-11.589 2.4001-11.931 2.4001-12.172 2.4001-12.314 2.4001-12.356 2.4001-12.298 2.4001-12.14 2.4001-11.882 2.4001-11.524 2.4001-11.066 2.4001-10.508 2.4001-9.8506 2.4001-9.0929 2.4001-8.2351 2.4001-7.2775 2.4001-6.2204 2.4001-5.118 2.4001-4.0689 2.4001-3.0838 2.4001-2.1626 2.4001-1.3052 2.4001-0.51172 2.4001 0.21786 2.4001 0.88356 2.4001 1.4854 2.4001 2.0233 2.4001 2.4973 2.4001 2.9075 2.4001 3.2537 2.4001 3.5361 2.4001 3.7546 2.4001 3.9092 2.4001 3.9999 2.4001 4.0268 2.4001 3.9897 2.4001 3.8887 2.4001 3.7239 2.4001 3.4952 2.4001 3.2026 2.4001 2.8461 2.4001 2.4257 2.4001 1.9414 2.4001 1.3933 2.4001 0.80375 2.4001 0.24153 2.4001-0.28035 2.4001-0.76187 2.4001-1.2031 2.4001-1.6039 2.4001-1.9644 2.4001-2.2845 2.4001-2.5643 2.4001-2.8037 2.4001-3.0028 2.4001-3.1616 2.4001-3.28 2.4001-3.358 2.4001-3.3957 2.4001-3.393 2.4001-3.3501 2.4001-3.2667 2.4001-3.143 2.4001-2.979 2.4001-2.7746 2.4001-2.5298 2.4001-2.2448 2.4001-1.9193 2.4001-1.5535 2.4001-1.1474 2.4001-0.70093 2.4001-0.22335 2.4001 0.23672 2.4001 0.66335 2.4001 1.0565 2.4001 1.4162 2.4001 1.7425 2.4001 2.0353 2.4001 2.2946 2.4001 2.5205 2.4001 2.7129 2.4001 2.8719 2.4001 2.9974 2.4001 3.0895 2.4001 3.1481 2.4001 3.1733 2.4001 3.165 2.4001 3.1232 2.4001 3.048 2.4001 2.9393 2.4001 2.7972 2.4001 2.6216 2.4001 2.4126 2.4001 2.1701 2.4001 1.8941 2.4001 1.5847 2.4001 1.2418 2.4001 0.86552 2.4001 0.45943 2.4001 0.058204 2.4001-0.31918 2.4001-0.67254 2.4001-1.0019 2.4001-1.3071 2.4001-1.5884 2.4001-1.8456 2.4001-2.0788 2.4001-2.2879 2.4001-2.4731 2.4001-2.6341 2.4001-2.7712 2.4001-2.8842 2.4001-2.9732 2.4001-3.0381 2.4001-3.079 2.4001-3.0959 2.4001-3.0888 2.4001-3.0576 2.4001-3.0023 2.4001-2.9231 2.4001-2.8198 2.4001-2.6925 2.4001-2.5411 2.4001-2.3657 2.4001-2.1663 2.4001-1.9435 2.4001-1.7108 2.4001-1.4801 2.4001-1.2518 2.4001-1.0258 2.4001-0.80215 2.4001-0.5809 2.4001-0.36202 2.4001-0.14551 2.4001 0.068636 2.4001 0.28041 2.4001 0.48982 2.4001 0.69685 2.4001 0.90152 2.4001 1.1038 2.4001 1.3037 2.4001 1.5013 2.4001 1.6965 2.4001 1.8893 2.4001 2.0798 2.4001 2.2679 2.4001 2.4536 2.4001 2.6369 2.4001 2.8179 2.4001 2.9965 2.4001 3.1727 2.4001 3.3466 2.4001 3.518 2.4001 3.681 2.4001 3.8274 2.4001 3.9565 2.4001 4.0683 2.4001 4.1627 2.4001 4.2399 2.4001 4.2997 2.4001 4.3422 2.4001 4.3674 2.4001 4.3753 2.4001 4.3659 2.4001 4.3392 2.4001 4.2951 2.4001 4.2338 2.4001 4.1551 2.4001 4.0591 2.4001 3.9458 2.4001 3.8152 2.4001 3.6673 2.4001 3.5021 2.4001 3.3196 2.4001 3.1197 2.4001 2.9026 2.4001 2.6681 2.4001 2.4163 2.4001 2.1472 2.4001 1.8608 2.4001 1.5571 2.4001 1.2361 2.4001 0.89776 2.4001 0.54211 2.4001 0.16915 2.4001-0.22112 2.4001-0.6287 2.4001-1.0536 2.4001-1.4958 2.4001-1.9553 2.4001-2.4321 2.4001-2.9263 2.4001-3.4377 2.4001-3.9665 2.4001-4.5126 2.4001-5.076 2.4001-5.6567 2.4001-6.2547 2.4001-6.87 2.4001-7.5026 2.4001-8.1526 2.4001-8.8198 2.4001-9.5044 2.4001-10.206 2.4001-10.925 2.4001-11.662 2.4001-12.416v-83.354h-2.4001-2.4001-2.4001-2.4001-2.4001-2.4001-2.4001-2.4001-2.4001-2.4001-2.4001-2.4001-2.4001-2.4001-2.4001-2.4001-2.4001-2.4001-2.4001-2.4001-2.4001-2.4001-2.4001-2.4001-2.4001-2.4001-2.4001-2.4001-2.4001-2.4001-2.4001-2.4001-2.4001-2.4001-2.4001-2.4001-2.4001-2.4001-2.4001-2.4001-2.4001-2.4001-2.4001-2.4001-2.4001-2.4001-2.4001-2.4001-2.4001-2.4001-2.4001-2.4001-2.4001-2.4001-2.4001-2.4001-2.4001-2.4001-2.4001-2.4001-2.4001-2.4001-2.4001-2.4001-2.4001-2.4001-2.4001-2.4001-2.4001-2.4001-2.4001-2.4001-2.4001-2.4001-2.4001-2.4001-2.4001-2.4001-2.4001-2.4001-2.4001-2.4001-2.4001-2.4001-2.4001-2.4001-2.4001-2.4001-2.4001-2.4001-2.4001-2.4001-2.4001-2.4001-2.4001-2.4001-2.4001-2.4001-2.4001-2.4001-2.4001-2.4001-2.4001-2.4001-2.4001-2.4001-2.4001-2.4001-2.4001-2.4001-2.4001-2.4001-2.4001-2.4001-2.4001-2.4001-2.4001-2.4001-2.4001-2.4001-2.4001-2.4001-2.4001-2.4001-2.4001-2.4001-2.4001-2.4001-2.4001-2.4001-2.4001-2.4001-2.4001-2.4001-2.4001-2.4001-2.4001-2.4001-2.4001-2.4001-2.4001-2.4001-2.4001-2.4001-2.4001-2.4001-2.4001-2.4001-2.4001-2.4001-2.4001-2.4001-2.4001-2.4001-2.4001-2.4001-2.4001-2.4001-2.4001-2.4001-2.4001-2.4001-2.4001-2.4001-2.4001-2.4001-2.4001-2.4001-2.4001-2.4001-2.4001-2.4001-2.4001-2.4001-2.4001-2.4001-2.4001-2.4001-2.4001-2.4001-2.4001-2.4001-2.4001-2.4001-2.4001-2.4001-2.4001-2.4001-2.4001-2.4001-2.4001-2.4001-2.4001-2.4001-2.4001-2.4001-2.4001-2.4001-2.4001-2.4001-2.4001-2.4001-2.4001-2.4001-2.4001-2.4001-2.4001-2.4001-2.4001-2.4001-2.4001-2.4001-2.4001-2.4001-2.4001-2.4001-2.4001-2.4001-2.4001-2.4001-2.4001-2.4001-2.4001-2.4001-2.4001-2.4001-2.4001-2.4001-2.4001-2.4001-2.4001-2.4001-2.4001-2.4001-2.4001-2.4001-2.4001-2.4001-2.4001-2.4001-2.4001-2.4001-2.4001-2.4001-2.4001-2.4001-2.4001-2.4001-2.4001-2.4001-2.4001-2.4001-2.4001-2.4001-2.4001-2.4001-2.4001-2.4001-2.4001-2.4001-2.4001-2.4001-2.4001-2.4001-2.4001-2.4001-2.4001-2.4001-2.4001-2.4001-2.4001-2.4001-2.4001-2.4001-2.4001-2.4001-2.4001-2.4001-2.4001-2.4001-2.4001-2.4001-2.4001-2.4001-2.4001-2.4001-2.4001-2.4001-2.4001-2.4001-2.4001-2.4001-2.4001-2.4001-2.4001-2.4001-2.4001-2.4001-2.4001z" clip-path="url(#a)" fill="#c7eae5"/>
 <path d="m115.43 468.86v-437.06" clip-path="url(#a)" fill="none" stroke="#fff" stroke-linecap="square" stroke-opacity=".3" stroke-width=".75"/>
 <defs>
  <path id="b" d="m0 0v3.5" stroke="#000" stroke-width=".8"/>
 </defs>
 <use x="115.43375" y="468.86" stroke="#000000" stroke-width=".8" xlink:href="#b"/>
 <text transform="translate(122.06 586.01) rotate(-90)" fill="#767676" font-family="'DejaVu Sans', 'Bitstream Vera Sans', 'Computer Modern Sans Serif', 'Lucida Grande', 'Verdana', 'Geneva', 'Lucid', 'Arial', 'Helvetica', 'Avant Garde', sans-serif" font-size="24px" font-weight="600">2023-01</text>
 <path d="m180.67 468.86v-437.06" clip-path="url(#a)" fill="none" stroke="#fff" stroke-linecap="square" stroke-opacity=".3" stroke-width=".75"/>
 <use x="180.67375" y="468.86" stroke="#000000" stroke-width=".8" xlink:href="#b"/>
 <text transform="translate(187.3 586.01) rotate(-90)" fill="#767676" font-family="'DejaVu Sans', 'Bitstream Vera Sans', 'Computer Modern Sans Serif', 'Lucida Grande', 'Verdana', 'Geneva', 'Lucid', 'Arial', 'Helvetica', 'Avant Garde', sans-serif" font-size="24px" font-weight="600">2023-02</text>
 <path d="m245.91 468.86v-437.06" clip-path="url(#a)" fill="none" stroke="#fff" stroke-linecap="square" stroke-opacity=".3" stroke-width=".75"/>
 <use x="245.91375" y="468.86" stroke="#000000" stroke-width=".8" xlink:href="#b"/>
 <text transform="translate(252.54 586.01) rotate(-90)" fill="#767676" font-family="'DejaVu Sans', 'Bitstream Vera Sans', 'Computer Modern Sans Serif', 'Lucida Grande', 'Verdana', 'Geneva', 'Lucid', 'Arial', 'Helvetica', 'Avant Garde', sans-serif" font-size="24px" font-weight="600">2023-03</text>
 <path d="m311.15 468.86v-437.06" clip-path="url(#a)" fill="none" stroke="#fff" stroke-linecap="square" stroke-opacity=".3" stroke-width=".75"/>
 <use x="311.15375" y="468.86" stroke="#000000" stroke-width=".8" xlink:href="#b"/>
 <text transform="translate(317.78 586.01) rotate(-90)" fill="#767676" font-family="'DejaVu Sans', 'Bitstream Vera Sans', 'Computer Modern Sans Serif', 'Lucida Grande', 'Verdana', 'Geneva', 'Lucid', 'Arial', 'Helvetica', 'Avant Garde', sans-serif" font-size="24px" font-weight="600">2023-04</text>
 <path d="m376.39 468.86v-437.06" clip-path="url(#a)" fill="none" stroke="#fff" stroke-linecap="square" stroke-opacity=".3" stroke-width=".75"/>
 <use x="376.39375" y="468.86" stroke="#000000" stroke-width=".8" xlink:href="#b"/>
 <text transform="translate(383.02 586.01) rotate(-90)" fill="#767676" font-family="'DejaVu Sans', 'Bitstream Vera Sans', 'Computer Modern Sans Serif', 'Lucida Grande', 'Verdana', 'Geneva', 'Lucid', 'Arial', 'Helvetica', 'Avant Garde', sans-serif" font-size="24px" font-weight="600">2023-05</text>
 <path d="m441.63 468.86v-437.06" clip-path="url(#a)" fill="none" stroke="#fff" stroke-linecap="square" stroke-opacity=".3" stroke-width=".75"/>
 <use x="441.63375" y="468.86" stroke="#000000" stroke-width=".8" xlink:href="#b"/>
 <text transform="translate(448.26 586.01) rotate(-90)" fill="#767676" font-family="'DejaVu Sans', 'Bitstream Vera Sans', 'Computer Modern Sans Serif', 'Lucida Grande', 'Verdana', 'Geneva', 'Lucid', 'Arial', 'Helvetica', 'Avant Garde', sans-serif" font-size="24px" font-weight="600">2023-06</text>
 <path d="m506.87 468.86v-437.06" clip-path="url(#a)" fill="none" stroke="#fff" stroke-linecap="square" stroke-opacity=".3" stroke-width=".75"/>
 <use x="506.87375" y="468.86" stroke="#000000" stroke-width=".8" xlink:href="#b"/>
 <text transform="translate(513.5 586.01) rotate(-90)" fill="#767676" font-family="'DejaVu Sans', 'Bitstream Vera Sans', 'Computer Modern Sans Serif', 'Lucida Grande', 'Verdana', 'Geneva', 'Lucid', 'Arial', 'Helvetica', 'Avant Garde', sans-serif" font-size="24px" font-weight="600">2023-07</text>
 <path d="m572.11 468.86v-437.06" clip-path="url(#a)" fill="none" stroke="#fff" stroke-linecap="square" stroke-opacity=".3" stroke-width=".75"/>
 <use x="572.11375" y="468.86" stroke="#000000" stroke-width=".8" xlink:href="#b"/>
 <text transform="translate(578.74 586.01) rotate(-90)" fill="#767676" font-family="'DejaVu Sans', 'Bitstream Vera Sans', 'Computer Modern Sans Serif', 'Lucida Grande', 'Verdana', 'Geneva', 'Lucid', 'Arial', 'Helvetica', 'Avant Garde', sans-serif" font-size="24px" font-weight="600">2023-08</text>
 <path d="m637.35 468.86v-437.06" clip-path="url(#a)" fill="none" stroke="#fff" stroke-linecap="square" stroke-opacity=".3" stroke-width=".75"/>
 <use x="637.35375" y="468.86" stroke="#000000" stroke-width=".8" xlink:href="#b"/>
 <text transform="translate(643.98 586.01) rotate(-90)" fill="#767676" font-family="'DejaVu Sans', 'Bitstream Vera Sans', 'Computer Modern Sans Serif', 'Lucida Grande', 'Verdana', 'Geneva', 'Lucid', 'Arial', 'Helvetica', 'Avant Garde', sans-serif" font-size="24px" font-weight="600">2023-09</text>
 <path d="m702.59 468.86v-437.06" clip-path="url(#a)" fill="none" stroke="#fff" stroke-linecap="square" stroke-opacity=".3" stroke-width=".75"/>
 <use x="702.59375" y="468.86" stroke="#000000" stroke-width=".8" xlink:href="#b"/>
 <text transform="translate(709.22 586.01) rotate(-90)" fill="#767676" font-family="'DejaVu Sans', 'Bitstream Vera Sans', 'Computer Modern Sans Serif', 'Lucida Grande', 'Verdana', 'Geneva', 'Lucid', 'Arial', 'Helvetica', 'Avant Garde', sans-serif" font-size="24px" font-weight="600">2023-10</text>
 <path d="m767.83 468.86v-437.06" clip-path="url(#a)" fill="none" stroke="#fff" stroke-linecap="square" stroke-opacity=".3" stroke-width=".75"/>
 <use x="767.83375" y="468.86" stroke="#000000" stroke-width=".8" xlink:href="#b"/>
 <text transform="translate(774.46 586.01) rotate(-90)" fill="#767676" font-family="'DejaVu Sans', 'Bitstream Vera Sans', 'Computer Modern Sans Serif', 'Lucida Grande', 'Verdana', 'Geneva', 'Lucid', 'Arial', 'Helvetica', 'Avant Garde', sans-serif" font-size="24px" font-weight="600">2023-11</text>
 <path d="m833.07 468.86v-437.06" clip-path="url(#a)" fill="none" stroke="#fff" stroke-linecap="square" stroke-opacity=".3" stroke-width=".75"/>
 <use x="833.07375" y="468.86" stroke="#000000" stroke-width=".8" xlink:href="#b"/>
 <text transform="translate(839.7 586.01) rotate(-90)" fill="#767676" font-family="'DejaVu Sans', 'Bitstream Vera Sans', 'Computer Modern Sans Serif', 'Lucida Grande', 'Verdana', 'Geneva', 'Lucid', 'Arial', 'Helvetica', 'Avant Garde', sans-serif" font-size="24px" font-weight="600">2023-12</text>
 <path d="m82.814 431.02h782.88" clip-path="url(#a)" fill="none" stroke="#fff" stroke-linecap="square" stroke-opacity=".8" stroke-width="1.25"/>
 <defs>
  <path id="c" d="m0 0h-3.5" stroke="#000" stroke-width=".8"/>
 </defs>
 <use x="82.81375" y="431.019042" stroke="#000000" stroke-width=".8" xlink:href="#c"/>
 <text transform="rotate(-0 75.814 440.14)" x="75.81375" y="440.137167" fill="#767676" font-family="'DejaVu Sans', 'Bitstream Vera Sans', 'Computer Modern Sans Serif', 'Lucida Grande', 'Verdana', 'Geneva', 'Lucid', 'Arial', 'Helvetica', 'Avant Garde', sans-serif" font-size="24px" font-weight="500" text-anchor="end">0%</text>
 <path d="m82.814 336.18h782.88" clip-path="url(#a)" fill="none" stroke="#fff" stroke-linecap="square" stroke-opacity=".8" stroke-width="1.25"/>
 <use x="82.81375" y="336.180873" stroke="#000000" stroke-width=".8" xlink:href="#c"/>
 <text transform="rotate(-0 75.814 345.3)" x="75.81375" y="345.298998" fill="#767676" font-family="'DejaVu Sans', 'Bitstream Vera Sans', 'Computer Modern Sans Serif', 'Lucida Grande', 'Verdana', 'Geneva', 'Lucid', 'Arial', 'Helvetica', 'Avant Garde', sans-serif" font-size="24px" font-weight="500" text-anchor="end">25%</text>
 <path d="m82.814 241.34h782.88" clip-path="url(#a)" fill="none" stroke="#fff" stroke-linecap="square" stroke-opacity=".8" stroke-width="1.25"/>
 <use x="82.81375" y="241.342703" stroke="#000000" stroke-width=".8" xlink:href="#c"/>
 <text transform="rotate(-0 75.814 250.46)" x="75.81375" y="250.460828" fill="#767676" font-family="'DejaVu Sans', 'Bitstream Vera Sans', 'Computer Modern Sans Serif', 'Lucida Grande', 'Verdana', 'Geneva', 'Lucid', 'Arial', 'Helvetica', 'Avant Garde', sans-serif" font-size="24px" font-weight="500" text-anchor="end">50%</text>
 <path d="m82.814 146.5h782.88" clip-path="url(#a)" fill="none" stroke="#fff" stroke-linecap="square" stroke-opacity=".8" stroke-width="1.25"/>
 <use x="82.81375" y="146.504533" stroke="#000000" stroke-width=".8" xlink:href="#c"/>
 <text transform="rotate(-0 75.814 155.62)" x="75.81375" y="155.622658" fill="#767676" font-family="'DejaVu Sans', 'Bitstream Vera Sans', 'Computer Modern Sans Serif', 'Lucida Grande', 'Verdana', 'Geneva', 'Lucid', 'Arial', 'Helvetica', 'Avant Garde', sans-serif" font-size="24px" font-weight="500" text-anchor="end">75%</text>
 <path d="m82.814 51.666h782.88" clip-path="url(#a)" fill="none" stroke="#fff" stroke-linecap="square" stroke-opacity=".8" stroke-width="1.25"/>
 <use x="82.81375" y="51.666364" stroke="#000000" stroke-width=".8" xlink:href="#c"/>
 <text transform="rotate(-0 75.814 60.784)" x="75.81375" y="60.784489" fill="#767676" font-family="'DejaVu Sans', 'Bitstream Vera Sans', 'Computer Modern Sans Serif', 'Lucida Grande', 'Verdana', 'Geneva', 'Lucid', 'Arial', 'Helvetica', 'Avant Garde', sans-serif" font-size="24px" font-weight="500" text-anchor="end">100%</text>
 <path d="m82.814 468.86h782.88" fill="none" stroke="#000" stroke-linecap="square" stroke-width="2"/>
 <path d="m166.41 395.79h28.531q20 0 20-20v-3.3562q0-20-20-20h-28.531q-20 0-20 20v3.3562q0 20 20 20z" fill="#fff" stroke="#d9d9d9" stroke-width="1.8"/>
 <text transform="rotate(-0 180.67 379.63)" x="180.67375" y="379.634891" fill="#10302c" font-family="'DejaVu Sans', 'Bitstream Vera Sans', 'Computer Modern Sans Serif', 'Lucida Grande', 'Verdana', 'Geneva', 'Lucid', 'Arial', 'Helvetica', 'Avant Garde', sans-serif" font-size="20px" text-anchor="middle">4.54</text>
 <path d="m459.99 281.99h28.531q20 0 20-20v-3.3562q0-20-20-20h-28.531q-20 0-20 20v3.3562q0 20 20 20z" fill="#fff" stroke="#d9d9d9" stroke-width="1.8"/>
 <text transform="rotate(-0 474.25 265.83)" x="474.25375" y="265.829087" fill="#10302c" font-family="'DejaVu Sans', 'Bitstream Vera Sans', 'Computer Modern Sans Serif', 'Lucida Grande', 'Verdana', 'Geneva', 'Lucid', 'Arial', 'Helvetica', 'Avant Garde', sans-serif" font-size="20px" text-anchor="middle">3.33</text>
 <path d="m753.57 130.25h28.531q20 0 20-20v-3.3562q0-20-20-20h-28.531q-20 0-20 20v3.3562q0 20 20 20z" fill="#fff" stroke="#d9d9d9" stroke-width="1.8"/>
 <text transform="rotate(-0 767.83 114.09)" x="767.83375" y="114.088015" fill="#10302c" font-family="'DejaVu Sans', 'Bitstream Vera Sans', 'Computer Modern Sans Serif', 'Lucida Grande', 'Verdana', 'Geneva', 'Lucid', 'Arial', 'Helvetica', 'Avant Garde', sans-serif" font-size="20px" text-anchor="middle">4.13</text>
 <path d="m876.49 468.86h260.96v-437.06h-260.96z" fill="#fff"/>
 <path d="m941.73 468.86h130.48v-176.14h-130.48z" clip-path="url(#d)" fill="#215f53" stroke="#fff" stroke-width=".5"/>
 <path d="m941.73 292.72h130.48v-151.13h-130.48z" clip-path="url(#d)" fill="#7570b3" stroke="#fff" stroke-width=".5"/>
 <path d="m941.73 141.59h130.48v-109.79h-130.48z" clip-path="url(#d)" fill="#c7eae5" stroke="#fff" stroke-width=".5"/>
 <text transform="rotate(-0 1007 386.31)" x="1006.97375" y="386.308847" fill="#ffffff" font-family="'DejaVu Sans', 'Bitstream Vera Sans', 'Computer Modern Sans Serif', 'Lucida Grande', 'Verdana', 'Geneva', 'Lucid', 'Arial', 'Helvetica', 'Avant Garde', sans-serif" font-size="20px" font-weight="500" text-anchor="middle">40.3%</text>
 <text transform="rotate(-0 1007 222.67)" x="1006.97375" y="222.673344" fill="#ffffff" font-family="'DejaVu Sans', 'Bitstream Vera Sans', 'Computer Modern Sans Serif', 'Lucida Grande', 'Verdana', 'Geneva', 'Lucid', 'Arial', 'Helvetica', 'Avant Garde', sans-serif" font-size="20px" font-weight="500" text-anchor="middle">34.6%</text>
 <text transform="rotate(-0 1007 92.213)" x="1006.97375" y="92.213247" fill="#ffffff" font-family="'DejaVu Sans', 'Bitstream Vera Sans', 'Computer Modern Sans Serif', 'Lucida Grande', 'Verdana', 'Geneva', 'Lucid', 'Arial', 'Helvetica', 'Avant Garde', sans-serif" font-size="20px" font-weight="500" text-anchor="middle">25.1%</text>
 <path d="m209.54 40.673h60v-21h-60z" fill="#215f53"/>
 <text transform="rotate(-0 293.54 40.673)" x="293.535" y="40.673437" font-family="'Arial'" font-size="30px" font-weight="500">Comisiones</text>
 <path d="m510.25 40.673h60v-21h-60z" fill="#7570b3"/>
 <text transform="rotate(-0 594.25 40.673)" x="594.252187" y="40.673437" font-family="'Arial'" font-size="30px" font-weight="500">Fiscalías</text>
 <path d="m772.61 40.673h60v-21h-60z" fill="#c7eae5"/>
 <text transform="rotate(-0 856.61 40.673)" x="856.606875" y="40.673437" font-family="'Arial'" font-size="30px" font-weight="500">Portal</text>
 <defs>
  <clipPath id="a">
   <rect x="82.814" y="31.8" width="782.88" height="437.06"/>
  </clipPath>
  <clipPath id="d">
   <rect x="876.49" y="31.8" width="260.96" height="437.06"/>
  </clipPath>
 </defs>
</svg>
