<?xml version="1.0" encoding="utf-8" standalone="no"?>
<!DOCTYPE svg PUBLIC "-//W3C//DTD SVG 1.1//EN"
  "http://www.w3.org/Graphics/SVG/1.1/DTD/svg11.dtd">
<svg xmlns:xlink="http://www.w3.org/1999/xlink" width="1144.3875pt" height="650.24625pt" viewBox="0 0 1144.3875 650.24625" xmlns="http://www.w3.org/2000/svg" version="1.1">
 <metadata>
  <rdf:RDF xmlns:dc="http://purl.org/dc/elements/1.1/" xmlns:cc="http://creativecommons.org/ns#" xmlns:rdf="http://www.w3.org/1999/02/22-rdf-syntax-ns#">
   <cc:Work>
    <dc:type rdf:resource="http://purl.org/dc/dcmitype/StillImage"/>
    <dc:date>2025-06-03T13:56:55.840247</dc:date>
    <dc:format>image/svg+xml</dc:format>
    <dc:creator>
     <cc:Agent>
      <dc:title>Matplotlib v3.10.1, https://matplotlib.org/</dc:title>
     </cc:Agent>
    </dc:creator>
   </cc:Work>
  </rdf:RDF>
 </metadata>
 <defs>
  <style type="text/css">*{stroke-linejoin: round; stroke-linecap: butt}</style>
 </defs>
 <g id="figure_1">
  <g id="patch_1">
   <path d="M 0 650.24625 
L 1144.3875 650.24625 
L 1144.3875 0 
L 0 0 
z
" style="fill: #ffffff"/>
  </g>
  <g id="axes_1">
   <g id="patch_2">
    <path d="M 102.2975 463.3 
L 870.365 463.3 
L 870.365 89.4 
L 102.2975 89.4 
z
" style="fill: #ffffff"/>
   </g>
   <g id="FillBetweenPolyCollection_1">
    <path d="M 134.300312 409.489879 
L 134.300312 463.3 
L 136.655034 463.3 
L 139.009756 463.3 
L 141.364478 463.3 
L 143.7192 463.3 
L 146.073922 463.3 
L 148.428644 463.3 
L 150.783366 463.3 
L 153.138088 463.3 
L 155.49281 463.3 
L 157.847532 463.3 
L 160.202254 463.3 
L 162.556976 463.3 
L 164.911698 463.3 
L 167.26642 463.3 
L 169.621142 463.3 
L 171.975864 463.3 
L 174.330586 463.3 
L 176.685308 463.3 
L 179.04003 463.3 
L 181.394752 463.3 
L 183.749474 463.3 
L 186.104196 463.3 
L 188.458918 463.3 
L 190.81364 463.3 
L 193.168362 463.3 
L 195.523084 463.3 
L 197.877806 463.3 
L 200.232528 463.3 
L 202.58725 463.3 
L 204.941972 463.3 
L 207.296694 463.3 
L 209.651416 463.3 
L 212.006138 463.3 
L 214.36086 463.3 
L 216.715582 463.3 
L 219.070304 463.3 
L 221.425026 463.3 
L 223.779748 463.3 
L 226.13447 463.3 
L 228.489192 463.3 
L 230.843914 463.3 
L 233.198636 463.3 
L 235.553358 463.3 
L 237.90808 463.3 
L 240.262802 463.3 
L 242.617524 463.3 
L 244.972246 463.3 
L 247.326968 463.3 
L 249.68169 463.3 
L 252.036412 463.3 
L 254.391134 463.3 
L 256.745856 463.3 
L 259.100578 463.3 
L 261.4553 463.3 
L 263.810022 463.3 
L 266.164744 463.3 
L 268.519466 463.3 
L 270.874188 463.3 
L 273.22891 463.3 
L 275.583632 463.3 
L 277.938354 463.3 
L 280.293076 463.3 
L 282.647798 463.3 
L 285.00252 463.3 
L 287.357242 463.3 
L 289.711964 463.3 
L 292.066686 463.3 
L 294.421408 463.3 
L 296.77613 463.3 
L 299.130852 463.3 
L 301.485574 463.3 
L 303.840296 463.3 
L 306.195018 463.3 
L 308.54974 463.3 
L 310.904462 463.3 
L 313.259184 463.3 
L 315.613906 463.3 
L 317.968628 463.3 
L 320.32335 463.3 
L 322.678072 463.3 
L 325.032794 463.3 
L 327.387516 463.3 
L 329.742238 463.3 
L 332.09696 463.3 
L 334.451682 463.3 
L 336.806404 463.3 
L 339.161126 463.3 
L 341.515848 463.3 
L 343.87057 463.3 
L 346.225292 463.3 
L 348.580014 463.3 
L 350.934736 463.3 
L 353.289458 463.3 
L 355.64418 463.3 
L 357.998902 463.3 
L 360.353624 463.3 
L 362.708346 463.3 
L 365.063068 463.3 
L 367.41779 463.3 
L 369.772511 463.3 
L 372.127233 463.3 
L 374.481955 463.3 
L 376.836677 463.3 
L 379.191399 463.3 
L 381.546121 463.3 
L 383.900843 463.3 
L 386.255565 463.3 
L 388.610287 463.3 
L 390.965009 463.3 
L 393.319731 463.3 
L 395.674453 463.3 
L 398.029175 463.3 
L 400.383897 463.3 
L 402.738619 463.3 
L 405.093341 463.3 
L 407.448063 463.3 
L 409.802785 463.3 
L 412.157507 463.3 
L 414.512229 463.3 
L 416.866951 463.3 
L 419.221673 463.3 
L 421.576395 463.3 
L 423.931117 463.3 
L 426.285839 463.3 
L 428.640561 463.3 
L 430.995283 463.3 
L 433.350005 463.3 
L 435.704727 463.3 
L 438.059449 463.3 
L 440.414171 463.3 
L 442.768893 463.3 
L 445.123615 463.3 
L 447.478337 463.3 
L 449.833059 463.3 
L 452.187781 463.3 
L 454.542503 463.3 
L 456.897225 463.3 
L 459.251947 463.3 
L 461.606669 463.3 
L 463.961391 463.3 
L 466.316113 463.3 
L 468.670835 463.3 
L 471.025557 463.3 
L 473.380279 463.3 
L 475.735001 463.3 
L 478.089723 463.3 
L 480.444445 463.3 
L 482.799167 463.3 
L 485.153889 463.3 
L 487.508611 463.3 
L 489.863333 463.3 
L 492.218055 463.3 
L 494.572777 463.3 
L 496.927499 463.3 
L 499.282221 463.3 
L 501.636943 463.3 
L 503.991665 463.3 
L 506.346387 463.3 
L 508.701109 463.3 
L 511.055831 463.3 
L 513.410553 463.3 
L 515.765275 463.3 
L 518.119997 463.3 
L 520.474719 463.3 
L 522.829441 463.3 
L 525.184163 463.3 
L 527.538885 463.3 
L 529.893607 463.3 
L 532.248329 463.3 
L 534.603051 463.3 
L 536.957773 463.3 
L 539.312495 463.3 
L 541.667217 463.3 
L 544.021939 463.3 
L 546.376661 463.3 
L 548.731383 463.3 
L 551.086105 463.3 
L 553.440827 463.3 
L 555.795549 463.3 
L 558.150271 463.3 
L 560.504993 463.3 
L 562.859715 463.3 
L 565.214437 463.3 
L 567.569159 463.3 
L 569.923881 463.3 
L 572.278603 463.3 
L 574.633325 463.3 
L 576.988047 463.3 
L 579.342769 463.3 
L 581.697491 463.3 
L 584.052213 463.3 
L 586.406935 463.3 
L 588.761657 463.3 
L 591.116379 463.3 
L 593.471101 463.3 
L 595.825823 463.3 
L 598.180545 463.3 
L 600.535267 463.3 
L 602.889989 463.3 
L 605.24471 463.3 
L 607.599432 463.3 
L 609.954154 463.3 
L 612.308876 463.3 
L 614.663598 463.3 
L 617.01832 463.3 
L 619.373042 463.3 
L 621.727764 463.3 
L 624.082486 463.3 
L 626.437208 463.3 
L 628.79193 463.3 
L 631.146652 463.3 
L 633.501374 463.3 
L 635.856096 463.3 
L 638.210818 463.3 
L 640.56554 463.3 
L 642.920262 463.3 
L 645.274984 463.3 
L 647.629706 463.3 
L 649.984428 463.3 
L 652.33915 463.3 
L 654.693872 463.3 
L 657.048594 463.3 
L 659.403316 463.3 
L 661.758038 463.3 
L 664.11276 463.3 
L 666.467482 463.3 
L 668.822204 463.3 
L 671.176926 463.3 
L 673.531648 463.3 
L 675.88637 463.3 
L 678.241092 463.3 
L 680.595814 463.3 
L 682.950536 463.3 
L 685.305258 463.3 
L 687.65998 463.3 
L 690.014702 463.3 
L 692.369424 463.3 
L 694.724146 463.3 
L 697.078868 463.3 
L 699.43359 463.3 
L 701.788312 463.3 
L 704.143034 463.3 
L 706.497756 463.3 
L 708.852478 463.3 
L 711.2072 463.3 
L 713.561922 463.3 
L 715.916644 463.3 
L 718.271366 463.3 
L 720.626088 463.3 
L 722.98081 463.3 
L 725.335532 463.3 
L 727.690254 463.3 
L 730.044976 463.3 
L 732.399698 463.3 
L 734.75442 463.3 
L 737.109142 463.3 
L 739.463864 463.3 
L 741.818586 463.3 
L 744.173308 463.3 
L 746.52803 463.3 
L 748.882752 463.3 
L 751.237474 463.3 
L 753.592196 463.3 
L 755.946918 463.3 
L 758.30164 463.3 
L 760.656362 463.3 
L 763.011084 463.3 
L 765.365806 463.3 
L 767.720528 463.3 
L 770.07525 463.3 
L 772.429972 463.3 
L 774.784694 463.3 
L 777.139416 463.3 
L 779.494138 463.3 
L 781.84886 463.3 
L 784.203582 463.3 
L 786.558304 463.3 
L 788.913026 463.3 
L 791.267748 463.3 
L 793.62247 463.3 
L 795.977192 463.3 
L 798.331914 463.3 
L 800.686636 463.3 
L 803.041358 463.3 
L 805.39608 463.3 
L 807.750802 463.3 
L 810.105524 463.3 
L 812.460246 463.3 
L 814.814968 463.3 
L 817.16969 463.3 
L 819.524412 463.3 
L 821.879134 463.3 
L 824.233856 463.3 
L 826.588578 463.3 
L 828.9433 463.3 
L 831.298022 463.3 
L 833.652744 463.3 
L 836.007466 463.3 
L 838.362187 463.3 
L 838.362187 318.656907 
L 838.362187 318.656907 
L 836.007466 319.575281 
L 833.652744 320.247623 
L 831.298022 320.684526 
L 828.9433 320.896582 
L 826.588578 320.894383 
L 824.233856 320.68852 
L 821.879134 320.289586 
L 819.524412 319.708172 
L 817.16969 318.954871 
L 814.814968 318.040274 
L 812.460246 316.974973 
L 810.105524 315.76956 
L 807.750802 314.434627 
L 805.39608 312.980767 
L 803.041358 311.41857 
L 800.686636 309.758629 
L 798.331914 308.011536 
L 795.977192 306.187882 
L 793.62247 304.29826 
L 791.267748 302.353262 
L 788.913026 300.363479 
L 786.558304 298.339503 
L 784.203582 296.291927 
L 781.84886 294.231342 
L 779.494138 292.16834 
L 777.139416 290.113513 
L 774.784694 288.077453 
L 772.429972 286.070752 
L 770.07525 284.104001 
L 767.720528 282.187794 
L 765.365806 280.332721 
L 763.011084 278.549375 
L 760.656362 276.848347 
L 758.30164 275.24023 
L 755.946918 273.735615 
L 753.592196 272.345094 
L 751.237474 271.079259 
L 748.882752 269.948703 
L 746.52803 268.964017 
L 744.173308 268.135792 
L 741.818586 267.474622 
L 739.463864 266.991097 
L 737.109142 266.69581 
L 734.75442 266.599353 
L 732.399698 266.712318 
L 730.044976 267.045295 
L 727.690254 267.608879 
L 725.335532 268.413659 
L 722.98081 269.470229 
L 720.626088 270.78918 
L 718.271366 272.381104 
L 715.916644 274.256594 
L 713.561922 276.42624 
L 711.2072 278.900635 
L 708.852478 281.688767 
L 706.497756 284.778766 
L 704.143034 288.144178 
L 701.788312 291.758249 
L 699.43359 295.594223 
L 697.078868 299.625346 
L 694.724146 303.824865 
L 692.369424 308.166024 
L 690.014702 312.62207 
L 687.65998 317.166248 
L 685.305258 321.771804 
L 682.950536 326.411983 
L 680.595814 331.060031 
L 678.241092 335.689193 
L 675.88637 340.272716 
L 673.531648 344.783845 
L 671.176926 349.195825 
L 668.822204 353.481902 
L 666.467482 357.615322 
L 664.11276 361.569331 
L 661.758038 365.317174 
L 659.403316 368.832096 
L 657.048594 372.087344 
L 654.693872 375.056163 
L 652.33915 377.711799 
L 649.984428 380.027497 
L 647.629706 381.976502 
L 645.274984 383.532807 
L 642.920262 384.691848 
L 640.56554 385.47321 
L 638.210818 385.897764 
L 635.856096 385.986385 
L 633.501374 385.759943 
L 631.146652 385.239313 
L 628.79193 384.445365 
L 626.437208 383.398975 
L 624.082486 382.121012 
L 621.727764 380.632351 
L 619.373042 378.953865 
L 617.01832 377.106424 
L 614.663598 375.110903 
L 612.308876 372.988174 
L 609.954154 370.759109 
L 607.599432 368.444581 
L 605.24471 366.065463 
L 602.889989 363.642626 
L 600.535267 361.196945 
L 598.180545 358.749291 
L 595.825823 356.320538 
L 593.471101 353.931556 
L 591.116379 351.603221 
L 588.761657 349.356403 
L 586.406935 347.211975 
L 584.052213 345.190811 
L 581.697491 343.313699 
L 579.342769 341.593281 
L 576.988047 340.027329 
L 574.633325 338.612033 
L 572.278603 337.343582 
L 569.923881 336.218166 
L 567.569159 335.231974 
L 565.214437 334.381196 
L 562.859715 333.662022 
L 560.504993 333.070641 
L 558.150271 332.603242 
L 555.795549 332.256015 
L 553.440827 332.02515 
L 551.086105 331.906837 
L 548.731383 331.897264 
L 546.376661 331.992621 
L 544.021939 332.189099 
L 541.667217 332.482885 
L 539.312495 332.870171 
L 536.957773 333.347146 
L 534.603051 333.909998 
L 532.248329 334.554918 
L 529.893607 335.278096 
L 527.538885 336.07572 
L 525.184163 336.943981 
L 522.829441 337.879067 
L 520.474719 338.877169 
L 518.119997 339.934477 
L 515.765275 341.048752 
L 513.410553 342.222547 
L 511.055831 343.459326 
L 508.701109 344.762554 
L 506.346387 346.135694 
L 503.991665 347.582212 
L 501.636943 349.105571 
L 499.282221 350.709235 
L 496.927499 352.396669 
L 494.572777 354.171337 
L 492.218055 356.036703 
L 489.863333 357.996232 
L 487.508611 360.053387 
L 485.153889 362.211633 
L 482.799167 364.474433 
L 480.444445 366.845254 
L 478.089723 369.327557 
L 475.735001 371.924808 
L 473.380279 374.640472 
L 471.025557 377.478011 
L 468.670835 380.440891 
L 466.316113 383.532575 
L 463.961391 386.756528 
L 461.606669 390.116215 
L 459.251947 393.615098 
L 456.897225 397.256643 
L 454.542503 401.044314 
L 452.187781 404.976317 
L 449.833059 409.023204 
L 447.478337 413.146462 
L 445.123615 417.307572 
L 442.768893 421.468016 
L 440.414171 425.589277 
L 438.059449 429.632837 
L 435.704727 433.560177 
L 433.350005 437.33278 
L 430.995283 440.912127 
L 428.640561 444.259701 
L 426.285839 447.336984 
L 423.931117 450.105457 
L 421.576395 452.526603 
L 419.221673 454.561904 
L 416.866951 456.172841 
L 414.512229 457.320897 
L 412.157507 457.967553 
L 409.802785 458.074292 
L 407.448063 457.602596 
L 405.093341 456.513947 
L 402.738619 454.769826 
L 400.383897 452.331716 
L 398.029175 449.161099 
L 395.674453 445.219456 
L 393.319731 440.46827 
L 390.965009 434.869023 
L 388.610287 428.390968 
L 386.255565 421.076382 
L 383.900843 413.00755 
L 381.546121 404.267169 
L 379.191399 394.937935 
L 376.836677 385.102545 
L 374.481955 374.843694 
L 372.127233 364.24408 
L 369.772511 353.386397 
L 367.41779 342.353342 
L 365.063068 331.227612 
L 362.708346 320.091903 
L 360.353624 309.02891 
L 357.998902 298.121331 
L 355.64418 287.45186 
L 353.289458 277.103196 
L 350.934736 267.158033 
L 348.580014 257.699067 
L 346.225292 248.808997 
L 343.87057 240.570516 
L 341.515848 233.066322 
L 339.161126 226.379111 
L 336.806404 220.591578 
L 334.451682 215.786421 
L 332.09696 212.046335 
L 329.742238 209.454017 
L 327.387516 208.092163 
L 325.032794 208.039132 
L 322.678072 209.291994 
L 320.32335 211.775625 
L 317.968628 215.412389 
L 315.613906 220.124651 
L 313.259184 225.834776 
L 310.904462 232.465131 
L 308.54974 239.938079 
L 306.195018 248.175986 
L 303.840296 257.101217 
L 301.485574 266.636137 
L 299.130852 276.703112 
L 296.77613 287.224506 
L 294.421408 298.122685 
L 292.066686 309.320013 
L 289.711964 320.738857 
L 287.357242 332.30158 
L 285.00252 343.930549 
L 282.647798 355.548129 
L 280.293076 367.076683 
L 277.938354 378.438579 
L 275.583632 389.55618 
L 273.22891 400.351852 
L 270.874188 410.74796 
L 268.519466 420.66687 
L 266.164744 430.030945 
L 263.810022 438.762553 
L 261.4553 446.784875 
L 259.100578 454.061004 
L 256.745856 460.611093 
L 254.391134 463.3 
L 252.036412 463.3 
L 249.68169 463.3 
L 247.326968 463.3 
L 244.972246 463.3 
L 242.617524 463.3 
L 240.262802 463.3 
L 237.90808 463.3 
L 235.553358 463.3 
L 233.198636 463.3 
L 230.843914 463.3 
L 228.489192 463.3 
L 226.13447 463.3 
L 223.779748 463.3 
L 221.425026 463.3 
L 219.070304 463.3 
L 216.715582 463.3 
L 214.36086 463.3 
L 212.006138 463.3 
L 209.651416 463.3 
L 207.296694 463.3 
L 204.941972 463.3 
L 202.58725 463.3 
L 200.232528 463.3 
L 197.877806 460.187725 
L 195.523084 456.475264 
L 193.168362 452.699415 
L 190.81364 448.884723 
L 188.458918 445.055729 
L 186.104196 441.236976 
L 183.749474 437.453007 
L 181.394752 433.728365 
L 179.04003 430.680417 
L 176.685308 427.804237 
L 174.330586 425.097312 
L 171.975864 422.560531 
L 169.621142 420.195085 
L 167.26642 418.002634 
L 164.911698 415.985474 
L 162.556976 414.146719 
L 160.202254 412.490491 
L 157.847532 411.022142 
L 155.49281 409.748508 
L 153.138088 408.678209 
L 150.783366 407.822029 
L 148.428644 407.19337 
L 146.073922 406.808838 
L 143.7192 406.688989 
L 141.364478 406.859296 
L 139.009756 407.35143 
L 136.655034 408.204957 
L 134.300312 409.489879 
z
" clip-path="url(#pcc10a500d2)" style="fill: #215f53"/>
   </g>
   <g id="FillBetweenPolyCollection_2">
    <path d="M 134.300312 107.338558 
L 134.300312 409.489879 
L 136.655034 408.204957 
L 139.009756 407.35143 
L 141.364478 406.859296 
L 143.7192 406.688989 
L 146.073922 406.808838 
L 148.428644 407.19337 
L 150.783366 407.822029 
L 153.138088 408.678209 
L 155.49281 409.748508 
L 157.847532 411.022142 
L 160.202254 412.490491 
L 162.556976 414.146719 
L 164.911698 415.985474 
L 167.26642 418.002634 
L 169.621142 420.195085 
L 171.975864 422.560531 
L 174.330586 425.097312 
L 176.685308 427.804237 
L 179.04003 430.680417 
L 181.394752 433.728365 
L 183.749474 437.453007 
L 186.104196 441.236976 
L 188.458918 445.055729 
L 190.81364 448.884723 
L 193.168362 452.699415 
L 195.523084 456.475264 
L 197.877806 460.187725 
L 200.232528 463.3 
L 202.58725 463.3 
L 204.941972 463.3 
L 207.296694 463.3 
L 209.651416 463.3 
L 212.006138 463.3 
L 214.36086 463.3 
L 216.715582 463.3 
L 219.070304 463.3 
L 221.425026 463.3 
L 223.779748 463.3 
L 226.13447 463.3 
L 228.489192 463.3 
L 230.843914 463.3 
L 233.198636 463.3 
L 235.553358 463.3 
L 237.90808 463.3 
L 240.262802 463.3 
L 242.617524 463.3 
L 244.972246 463.3 
L 247.326968 463.3 
L 249.68169 463.3 
L 252.036412 463.3 
L 254.391134 463.3 
L 256.745856 460.611093 
L 259.100578 454.061004 
L 261.4553 446.784875 
L 263.810022 438.762553 
L 266.164744 430.030945 
L 268.519466 420.66687 
L 270.874188 410.74796 
L 273.22891 400.351852 
L 275.583632 389.55618 
L 277.938354 378.438579 
L 280.293076 367.076683 
L 282.647798 355.548129 
L 285.00252 343.930549 
L 287.357242 332.30158 
L 289.711964 320.738857 
L 292.066686 309.320013 
L 294.421408 298.122685 
L 296.77613 287.224506 
L 299.130852 276.703112 
L 301.485574 266.636137 
L 303.840296 257.101217 
L 306.195018 248.175986 
L 308.54974 239.938079 
L 310.904462 232.465131 
L 313.259184 225.834776 
L 315.613906 220.124651 
L 317.968628 215.412389 
L 320.32335 211.775625 
L 322.678072 209.291994 
L 325.032794 208.039132 
L 327.387516 208.092163 
L 329.742238 209.454017 
L 332.09696 212.046335 
L 334.451682 215.786421 
L 336.806404 220.591578 
L 339.161126 226.379111 
L 341.515848 233.066322 
L 343.87057 240.570516 
L 346.225292 248.808997 
L 348.580014 257.699067 
L 350.934736 267.158033 
L 353.289458 277.103196 
L 355.64418 287.45186 
L 357.998902 298.121331 
L 360.353624 309.02891 
L 362.708346 320.091903 
L 365.063068 331.227612 
L 367.41779 342.353342 
L 369.772511 353.386397 
L 372.127233 364.24408 
L 374.481955 374.843694 
L 376.836677 385.102545 
L 379.191399 394.937935 
L 381.546121 404.267169 
L 383.900843 413.00755 
L 386.255565 421.076382 
L 388.610287 428.390968 
L 390.965009 434.869023 
L 393.319731 440.46827 
L 395.674453 445.219456 
L 398.029175 449.161099 
L 400.383897 452.331716 
L 402.738619 454.769826 
L 405.093341 456.513947 
L 407.448063 457.602596 
L 409.802785 458.074292 
L 412.157507 457.967553 
L 414.512229 457.320897 
L 416.866951 456.172841 
L 419.221673 454.561904 
L 421.576395 452.526603 
L 423.931117 450.105457 
L 426.285839 447.336984 
L 428.640561 444.259701 
L 430.995283 440.912127 
L 433.350005 437.33278 
L 435.704727 433.560177 
L 438.059449 429.632837 
L 440.414171 425.589277 
L 442.768893 421.468016 
L 445.123615 417.307572 
L 447.478337 413.146462 
L 449.833059 409.023204 
L 452.187781 404.976317 
L 454.542503 401.044314 
L 456.897225 397.256643 
L 459.251947 393.615098 
L 461.606669 390.116215 
L 463.961391 386.756528 
L 466.316113 383.532575 
L 468.670835 380.440891 
L 471.025557 377.478011 
L 473.380279 374.640472 
L 475.735001 371.924808 
L 478.089723 369.327557 
L 480.444445 366.845254 
L 482.799167 364.474433 
L 485.153889 362.211633 
L 487.508611 360.053387 
L 489.863333 357.996232 
L 492.218055 356.036703 
L 494.572777 354.171337 
L 496.927499 352.396669 
L 499.282221 350.709235 
L 501.636943 349.105571 
L 503.991665 347.582212 
L 506.346387 346.135694 
L 508.701109 344.762554 
L 511.055831 343.459326 
L 513.410553 342.222547 
L 515.765275 341.048752 
L 518.119997 339.934477 
L 520.474719 338.877169 
L 522.829441 337.879067 
L 525.184163 336.943981 
L 527.538885 336.07572 
L 529.893607 335.278096 
L 532.248329 334.554918 
L 534.603051 333.909998 
L 536.957773 333.347146 
L 539.312495 332.870171 
L 541.667217 332.482885 
L 544.021939 332.189099 
L 546.376661 331.992621 
L 548.731383 331.897264 
L 551.086105 331.906837 
L 553.440827 332.02515 
L 555.795549 332.256015 
L 558.150271 332.603242 
L 560.504993 333.070641 
L 562.859715 333.662022 
L 565.214437 334.381196 
L 567.569159 335.231974 
L 569.923881 336.218166 
L 572.278603 337.343582 
L 574.633325 338.612033 
L 576.988047 340.027329 
L 579.342769 341.593281 
L 581.697491 343.313699 
L 584.052213 345.190811 
L 586.406935 347.211975 
L 588.761657 349.356403 
L 591.116379 351.603221 
L 593.471101 353.931556 
L 595.825823 356.320538 
L 598.180545 358.749291 
L 600.535267 361.196945 
L 602.889989 363.642626 
L 605.24471 366.065463 
L 607.599432 368.444581 
L 609.954154 370.759109 
L 612.308876 372.988174 
L 614.663598 375.110903 
L 617.01832 377.106424 
L 619.373042 378.953865 
L 621.727764 380.632351 
L 624.082486 382.121012 
L 626.437208 383.398975 
L 628.79193 384.445365 
L 631.146652 385.239313 
L 633.501374 385.759943 
L 635.856096 385.986385 
L 638.210818 385.897764 
L 640.56554 385.47321 
L 642.920262 384.691848 
L 645.274984 383.532807 
L 647.629706 381.976502 
L 649.984428 380.027497 
L 652.33915 377.711799 
L 654.693872 375.056163 
L 657.048594 372.087344 
L 659.403316 368.832096 
L 661.758038 365.317174 
L 664.11276 361.569331 
L 666.467482 357.615322 
L 668.822204 353.481902 
L 671.176926 349.195825 
L 673.531648 344.783845 
L 675.88637 340.272716 
L 678.241092 335.689193 
L 680.595814 331.060031 
L 682.950536 326.411983 
L 685.305258 321.771804 
L 687.65998 317.166248 
L 690.014702 312.62207 
L 692.369424 308.166024 
L 694.724146 303.824865 
L 697.078868 299.625346 
L 699.43359 295.594223 
L 701.788312 291.758249 
L 704.143034 288.144178 
L 706.497756 284.778766 
L 708.852478 281.688767 
L 711.2072 278.900635 
L 713.561922 276.42624 
L 715.916644 274.256594 
L 718.271366 272.381104 
L 720.626088 270.78918 
L 722.98081 269.470229 
L 725.335532 268.413659 
L 727.690254 267.608879 
L 730.044976 267.045295 
L 732.399698 266.712318 
L 734.75442 266.599353 
L 737.109142 266.69581 
L 739.463864 266.991097 
L 741.818586 267.474622 
L 744.173308 268.135792 
L 746.52803 268.964017 
L 748.882752 269.948703 
L 751.237474 271.079259 
L 753.592196 272.345094 
L 755.946918 273.735615 
L 758.30164 275.24023 
L 760.656362 276.848347 
L 763.011084 278.549375 
L 765.365806 280.332721 
L 767.720528 282.187794 
L 770.07525 284.104001 
L 772.429972 286.070752 
L 774.784694 288.077453 
L 777.139416 290.113513 
L 779.494138 292.16834 
L 781.84886 294.231342 
L 784.203582 296.291927 
L 786.558304 298.339503 
L 788.913026 300.363479 
L 791.267748 302.353262 
L 793.62247 304.29826 
L 795.977192 306.187882 
L 798.331914 308.011536 
L 800.686636 309.758629 
L 803.041358 311.41857 
L 805.39608 312.980767 
L 807.750802 314.434627 
L 810.105524 315.76956 
L 812.460246 316.974973 
L 814.814968 318.040274 
L 817.16969 318.954871 
L 819.524412 319.708172 
L 821.879134 320.289586 
L 824.233856 320.68852 
L 826.588578 320.894383 
L 828.9433 320.896582 
L 831.298022 320.684526 
L 833.652744 320.247623 
L 836.007466 319.575281 
L 838.362187 318.656907 
L 838.362187 177.040644 
L 838.362187 177.040644 
L 836.007466 184.320793 
L 833.652744 190.829689 
L 831.298022 196.594918 
L 828.9433 201.644066 
L 826.588578 206.004719 
L 824.233856 209.704465 
L 821.879134 212.770888 
L 819.524412 215.231576 
L 817.16969 217.114115 
L 814.814968 218.44609 
L 812.460246 219.255089 
L 810.105524 219.568697 
L 807.750802 219.414501 
L 805.39608 218.820087 
L 803.041358 217.813041 
L 800.686636 216.42095 
L 798.331914 214.671399 
L 795.977192 212.591976 
L 793.62247 210.210266 
L 791.267748 207.553855 
L 788.913026 204.65033 
L 786.558304 201.527278 
L 784.203582 198.212283 
L 781.84886 194.732934 
L 779.494138 191.116815 
L 777.139416 187.391514 
L 774.784694 183.584616 
L 772.429972 179.723708 
L 770.07525 175.836375 
L 767.720528 171.950205 
L 765.365806 168.092784 
L 763.011084 164.291697 
L 760.656362 160.574532 
L 758.30164 156.968873 
L 755.946918 153.502309 
L 753.592196 150.202424 
L 751.237474 147.096805 
L 748.882752 144.213039 
L 746.52803 141.578712 
L 744.173308 139.221409 
L 741.818586 137.168718 
L 739.463864 135.448224 
L 737.109142 134.087513 
L 734.75442 133.114173 
L 732.399698 132.555789 
L 730.044976 132.439948 
L 727.690254 132.794235 
L 725.335532 133.646238 
L 722.98081 135.023542 
L 720.626088 136.953733 
L 718.271366 139.464399 
L 715.916644 142.583124 
L 713.561922 146.337496 
L 711.2072 150.755101 
L 708.852478 155.859522 
L 706.497756 161.622291 
L 704.143034 167.978541 
L 701.788312 174.862657 
L 699.43359 182.209024 
L 697.078868 189.952027 
L 694.724146 198.026053 
L 692.369424 206.365485 
L 690.014702 214.90471 
L 687.65998 223.578112 
L 685.305258 232.320077 
L 682.950536 241.064989 
L 680.595814 249.747236 
L 678.241092 258.3012 
L 675.88637 266.661269 
L 673.531648 274.761826 
L 671.176926 282.537258 
L 668.822204 289.921949 
L 666.467482 296.850285 
L 664.11276 303.25665 
L 661.758038 309.075432 
L 659.403316 314.241013 
L 657.048594 318.687781 
L 654.693872 322.350119 
L 652.33915 325.162414 
L 649.984428 327.05905 
L 647.629706 327.974413 
L 645.274984 327.844944 
L 642.920262 326.666235 
L 640.56554 324.500476 
L 638.210818 321.413413 
L 635.856096 317.47079 
L 633.501374 312.738353 
L 631.146652 307.281845 
L 628.79193 301.167013 
L 626.437208 294.4596 
L 624.082486 287.225352 
L 621.727764 279.530012 
L 619.373042 271.439327 
L 617.01832 263.01904 
L 614.663598 254.334897 
L 612.308876 245.452642 
L 609.954154 236.438021 
L 607.599432 227.356777 
L 605.24471 218.274655 
L 602.889989 209.257401 
L 600.535267 200.37076 
L 598.180545 191.680475 
L 595.825823 183.252292 
L 593.471101 175.151956 
L 591.116379 167.44521 
L 588.761657 160.197801 
L 586.406935 153.475473 
L 584.052213 147.343971 
L 581.697491 141.868761 
L 579.342769 137.088241 
L 576.988047 132.991396 
L 574.633325 129.561954 
L 572.278603 126.783646 
L 569.923881 124.640197 
L 567.569159 123.115338 
L 565.214437 122.192797 
L 562.859715 121.856301 
L 560.504993 122.089579 
L 558.150271 122.876361 
L 555.795549 124.200373 
L 553.440827 126.045345 
L 551.086105 128.395005 
L 548.731383 131.233081 
L 546.376661 134.543301 
L 544.021939 138.309395 
L 541.667217 142.51509 
L 539.312495 147.144115 
L 536.957773 152.180198 
L 534.603051 157.607068 
L 532.248329 163.408454 
L 529.893607 169.568082 
L 527.538885 176.069682 
L 525.184163 182.896983 
L 522.829441 190.033712 
L 520.474719 197.463599 
L 518.119997 205.170367 
L 515.765275 213.132499 
L 513.410553 221.312468 
L 511.055831 229.669708 
L 508.701109 238.16365 
L 506.346387 246.753727 
L 503.991665 255.399371 
L 501.636943 264.060016 
L 499.282221 272.695094 
L 496.927499 281.264036 
L 494.572777 289.726277 
L 492.218055 298.041247 
L 489.863333 306.16838 
L 487.508611 314.067108 
L 485.153889 321.696863 
L 482.799167 329.017079 
L 480.444445 335.987187 
L 478.089723 342.566621 
L 475.735001 348.714812 
L 473.380279 354.391193 
L 471.025557 359.555197 
L 468.670835 364.166255 
L 466.316113 368.183802 
L 463.961391 371.567268 
L 461.606669 374.276087 
L 459.251947 376.269691 
L 456.897225 377.507513 
L 454.542503 377.948985 
L 452.187781 377.563616 
L 449.833059 376.373932 
L 447.478337 374.41983 
L 445.123615 371.741218 
L 442.768893 368.378004 
L 440.414171 364.370095 
L 438.059449 359.7574 
L 435.704727 354.579826 
L 433.350005 348.877281 
L 430.995283 342.689673 
L 428.640561 336.05691 
L 426.285839 329.018898 
L 423.931117 321.615547 
L 421.576395 313.886764 
L 419.221673 305.872457 
L 416.866951 297.612533 
L 414.512229 289.1469 
L 412.157507 280.515467 
L 409.802785 271.75814 
L 407.448063 262.914828 
L 405.093341 254.025439 
L 402.738619 245.12988 
L 400.383897 236.268059 
L 398.029175 227.479884 
L 395.674453 218.805262 
L 393.319731 210.284102 
L 390.965009 201.956311 
L 388.610287 193.860344 
L 386.255565 186.020992 
L 383.900843 178.455563 
L 381.546121 171.181287 
L 379.191399 164.215396 
L 376.836677 157.57512 
L 374.481955 151.277689 
L 372.127233 145.340334 
L 369.772511 139.780286 
L 367.41779 134.614775 
L 365.063068 129.861033 
L 362.708346 125.536288 
L 360.353624 121.657773 
L 357.998902 118.242718 
L 355.64418 115.308353 
L 353.289458 112.871909 
L 350.934736 110.950617 
L 348.580014 109.561707 
L 346.225292 108.72241 
L 343.87057 108.449957 
L 341.515848 108.761578 
L 339.161126 109.674503 
L 336.806404 111.205964 
L 334.451682 113.373191 
L 332.09696 116.193414 
L 329.742238 119.683865 
L 327.387516 123.861774 
L 325.032794 128.742279 
L 322.678072 134.301297 
L 320.32335 140.479912 
L 317.968628 147.217997 
L 315.613906 154.455424 
L 313.259184 162.132067 
L 310.904462 170.187798 
L 308.54974 178.562491 
L 306.195018 187.196018 
L 303.840296 196.028252 
L 301.485574 204.999067 
L 299.130852 214.048334 
L 296.77613 223.115927 
L 294.421408 232.141719 
L 292.066686 241.065582 
L 289.711964 249.82739 
L 287.357242 258.367016 
L 285.00252 266.624331 
L 282.647798 274.53921 
L 280.293076 282.051525 
L 277.938354 289.101149 
L 275.583632 295.627955 
L 273.22891 301.571816 
L 270.874188 306.872604 
L 268.519466 311.470193 
L 266.164744 315.304455 
L 263.810022 318.315264 
L 261.4553 320.443285 
L 259.100578 321.667849 
L 256.745856 322.023571 
L 254.391134 319.664136 
L 252.036412 315.412661 
L 249.68169 310.914997 
L 247.326968 306.18051 
L 244.972246 301.21698 
L 242.617524 296.030958 
L 240.262802 290.628069 
L 237.90808 285.013267 
L 235.553358 279.191062 
L 233.198636 273.165723 
L 230.843914 266.941471 
L 228.489192 260.522653 
L 226.13447 253.913925 
L 223.779748 247.120421 
L 221.425026 240.147935 
L 219.070304 233.003102 
L 216.715582 225.693588 
L 214.36086 218.228291 
L 212.006138 210.617546 
L 209.651416 202.873355 
L 207.296694 195.009609 
L 204.941972 187.042336 
L 202.58725 178.989958 
L 200.232528 170.873544 
L 197.877806 162.231906 
L 195.523084 153.640404 
L 193.168362 145.229496 
L 190.81364 137.038049 
L 188.458918 129.104932 
L 186.104196 121.469012 
L 183.749474 114.169159 
L 181.394752 107.244238 
L 179.04003 107.204762 
L 176.685308 107.204762 
L 174.330586 107.204762 
L 171.975864 107.204762 
L 169.621142 107.204762 
L 167.26642 107.204762 
L 164.911698 107.204762 
L 162.556976 107.204762 
L 160.202254 107.204762 
L 157.847532 107.204762 
L 155.49281 107.204762 
L 153.138088 107.204762 
L 150.783366 107.204762 
L 148.428644 107.204762 
L 146.073922 107.204762 
L 143.7192 107.204762 
L 141.364478 107.204762 
L 139.009756 107.204762 
L 136.655034 107.204762 
L 134.300312 107.338558 
z
" clip-path="url(#pcc10a500d2)" style="fill: #7570b3"/>
   </g>
   <g id="FillBetweenPolyCollection_3">
    <path d="M 134.300312 107.204762 
L 134.300312 107.338558 
L 136.655034 107.204762 
L 139.009756 107.204762 
L 141.364478 107.204762 
L 143.7192 107.204762 
L 146.073922 107.204762 
L 148.428644 107.204762 
L 150.783366 107.204762 
L 153.138088 107.204762 
L 155.49281 107.204762 
L 157.847532 107.204762 
L 160.202254 107.204762 
L 162.556976 107.204762 
L 164.911698 107.204762 
L 167.26642 107.204762 
L 169.621142 107.204762 
L 171.975864 107.204762 
L 174.330586 107.204762 
L 176.685308 107.204762 
L 179.04003 107.204762 
L 181.394752 107.244238 
L 183.749474 114.169159 
L 186.104196 121.469012 
L 188.458918 129.104932 
L 190.81364 137.038049 
L 193.168362 145.229496 
L 195.523084 153.640404 
L 197.877806 162.231906 
L 200.232528 170.873544 
L 202.58725 178.989958 
L 204.941972 187.042336 
L 207.296694 195.009609 
L 209.651416 202.873355 
L 212.006138 210.617546 
L 214.36086 218.228291 
L 216.715582 225.693588 
L 219.070304 233.003102 
L 221.425026 240.147935 
L 223.779748 247.120421 
L 226.13447 253.913925 
L 228.489192 260.522653 
L 230.843914 266.941471 
L 233.198636 273.165723 
L 235.553358 279.191062 
L 237.90808 285.013267 
L 240.262802 290.628069 
L 242.617524 296.030958 
L 244.972246 301.21698 
L 247.326968 306.18051 
L 249.68169 310.914997 
L 252.036412 315.412661 
L 254.391134 319.664136 
L 256.745856 322.023571 
L 259.100578 321.667849 
L 261.4553 320.443285 
L 263.810022 318.315264 
L 266.164744 315.304455 
L 268.519466 311.470193 
L 270.874188 306.872604 
L 273.22891 301.571816 
L 275.583632 295.627955 
L 277.938354 289.101149 
L 280.293076 282.051525 
L 282.647798 274.53921 
L 285.00252 266.624331 
L 287.357242 258.367016 
L 289.711964 249.82739 
L 292.066686 241.065582 
L 294.421408 232.141719 
L 296.77613 223.115927 
L 299.130852 214.048334 
L 301.485574 204.999067 
L 303.840296 196.028252 
L 306.195018 187.196018 
L 308.54974 178.562491 
L 310.904462 170.187798 
L 313.259184 162.132067 
L 315.613906 154.455424 
L 317.968628 147.217997 
L 320.32335 140.479912 
L 322.678072 134.301297 
L 325.032794 128.742279 
L 327.387516 123.861774 
L 329.742238 119.683865 
L 332.09696 116.193414 
L 334.451682 113.373191 
L 336.806404 111.205964 
L 339.161126 109.674503 
L 341.515848 108.761578 
L 343.87057 108.449957 
L 346.225292 108.72241 
L 348.580014 109.561707 
L 350.934736 110.950617 
L 353.289458 112.871909 
L 355.64418 115.308353 
L 357.998902 118.242718 
L 360.353624 121.657773 
L 362.708346 125.536288 
L 365.063068 129.861033 
L 367.41779 134.614775 
L 369.772511 139.780286 
L 372.127233 145.340334 
L 374.481955 151.277689 
L 376.836677 157.57512 
L 379.191399 164.215396 
L 381.546121 171.181287 
L 383.900843 178.455563 
L 386.255565 186.020992 
L 388.610287 193.860344 
L 390.965009 201.956311 
L 393.319731 210.284102 
L 395.674453 218.805262 
L 398.029175 227.479884 
L 400.383897 236.268059 
L 402.738619 245.12988 
L 405.093341 254.025439 
L 407.448063 262.914828 
L 409.802785 271.75814 
L 412.157507 280.515467 
L 414.512229 289.1469 
L 416.866951 297.612533 
L 419.221673 305.872457 
L 421.576395 313.886764 
L 423.931117 321.615547 
L 426.285839 329.018898 
L 428.640561 336.05691 
L 430.995283 342.689673 
L 433.350005 348.877281 
L 435.704727 354.579826 
L 438.059449 359.7574 
L 440.414171 364.370095 
L 442.768893 368.378004 
L 445.123615 371.741218 
L 447.478337 374.41983 
L 449.833059 376.373932 
L 452.187781 377.563616 
L 454.542503 377.948985 
L 456.897225 377.507513 
L 459.251947 376.269691 
L 461.606669 374.276087 
L 463.961391 371.567268 
L 466.316113 368.183802 
L 468.670835 364.166255 
L 471.025557 359.555197 
L 473.380279 354.391193 
L 475.735001 348.714812 
L 478.089723 342.566621 
L 480.444445 335.987187 
L 482.799167 329.017079 
L 485.153889 321.696863 
L 487.508611 314.067108 
L 489.863333 306.16838 
L 492.218055 298.041247 
L 494.572777 289.726277 
L 496.927499 281.264036 
L 499.282221 272.695094 
L 501.636943 264.060016 
L 503.991665 255.399371 
L 506.346387 246.753727 
L 508.701109 238.16365 
L 511.055831 229.669708 
L 513.410553 221.312468 
L 515.765275 213.132499 
L 518.119997 205.170367 
L 520.474719 197.463599 
L 522.829441 190.033712 
L 525.184163 182.896983 
L 527.538885 176.069682 
L 529.893607 169.568082 
L 532.248329 163.408454 
L 534.603051 157.607068 
L 536.957773 152.180198 
L 539.312495 147.144115 
L 541.667217 142.51509 
L 544.021939 138.309395 
L 546.376661 134.543301 
L 548.731383 131.233081 
L 551.086105 128.395005 
L 553.440827 126.045345 
L 555.795549 124.200373 
L 558.150271 122.876361 
L 560.504993 122.089579 
L 562.859715 121.856301 
L 565.214437 122.192797 
L 567.569159 123.115338 
L 569.923881 124.640197 
L 572.278603 126.783646 
L 574.633325 129.561954 
L 576.988047 132.991396 
L 579.342769 137.088241 
L 581.697491 141.868761 
L 584.052213 147.343971 
L 586.406935 153.475473 
L 588.761657 160.197801 
L 591.116379 167.44521 
L 593.471101 175.151956 
L 595.825823 183.252292 
L 598.180545 191.680475 
L 600.535267 200.37076 
L 602.889989 209.257401 
L 605.24471 218.274655 
L 607.599432 227.356777 
L 609.954154 236.438021 
L 612.308876 245.452642 
L 614.663598 254.334897 
L 617.01832 263.01904 
L 619.373042 271.439327 
L 621.727764 279.530012 
L 624.082486 287.225352 
L 626.437208 294.4596 
L 628.79193 301.167013 
L 631.146652 307.281845 
L 633.501374 312.738353 
L 635.856096 317.47079 
L 638.210818 321.413413 
L 640.56554 324.500476 
L 642.920262 326.666235 
L 645.274984 327.844944 
L 647.629706 327.974413 
L 649.984428 327.05905 
L 652.33915 325.162414 
L 654.693872 322.350119 
L 657.048594 318.687781 
L 659.403316 314.241013 
L 661.758038 309.075432 
L 664.11276 303.25665 
L 666.467482 296.850285 
L 668.822204 289.921949 
L 671.176926 282.537258 
L 673.531648 274.761826 
L 675.88637 266.661269 
L 678.241092 258.3012 
L 680.595814 249.747236 
L 682.950536 241.064989 
L 685.305258 232.320077 
L 687.65998 223.578112 
L 690.014702 214.90471 
L 692.369424 206.365485 
L 694.724146 198.026053 
L 697.078868 189.952027 
L 699.43359 182.209024 
L 701.788312 174.862657 
L 704.143034 167.978541 
L 706.497756 161.622291 
L 708.852478 155.859522 
L 711.2072 150.755101 
L 713.561922 146.337496 
L 715.916644 142.583124 
L 718.271366 139.464399 
L 720.626088 136.953733 
L 722.98081 135.023542 
L 725.335532 133.646238 
L 727.690254 132.794235 
L 730.044976 132.439948 
L 732.399698 132.555789 
L 734.75442 133.114173 
L 737.109142 134.087513 
L 739.463864 135.448224 
L 741.818586 137.168718 
L 744.173308 139.221409 
L 746.52803 141.578712 
L 748.882752 144.213039 
L 751.237474 147.096805 
L 753.592196 150.202424 
L 755.946918 153.502309 
L 758.30164 156.968873 
L 760.656362 160.574532 
L 763.011084 164.291697 
L 765.365806 168.092784 
L 767.720528 171.950205 
L 770.07525 175.836375 
L 772.429972 179.723708 
L 774.784694 183.584616 
L 777.139416 187.391514 
L 779.494138 191.116815 
L 781.84886 194.732934 
L 784.203582 198.212283 
L 786.558304 201.527278 
L 788.913026 204.65033 
L 791.267748 207.553855 
L 793.62247 210.210266 
L 795.977192 212.591976 
L 798.331914 214.671399 
L 800.686636 216.42095 
L 803.041358 217.813041 
L 805.39608 218.820087 
L 807.750802 219.414501 
L 810.105524 219.568697 
L 812.460246 219.255089 
L 814.814968 218.44609 
L 817.16969 217.114115 
L 819.524412 215.231576 
L 821.879134 212.770888 
L 824.233856 209.704465 
L 826.588578 206.004719 
L 828.9433 201.644066 
L 831.298022 196.594918 
L 833.652744 190.829689 
L 836.007466 184.320793 
L 838.362187 177.040644 
L 838.362187 107.204762 
L 838.362187 107.204762 
L 836.007466 107.204762 
L 833.652744 107.204762 
L 831.298022 107.204762 
L 828.9433 107.204762 
L 826.588578 107.204762 
L 824.233856 107.204762 
L 821.879134 107.204762 
L 819.524412 107.204762 
L 817.16969 107.204762 
L 814.814968 107.204762 
L 812.460246 107.204762 
L 810.105524 107.204762 
L 807.750802 107.204762 
L 805.39608 107.204762 
L 803.041358 107.204762 
L 800.686636 107.204762 
L 798.331914 107.204762 
L 795.977192 107.204762 
L 793.62247 107.204762 
L 791.267748 107.204762 
L 788.913026 107.204762 
L 786.558304 107.204762 
L 784.203582 107.204762 
L 781.84886 107.204762 
L 779.494138 107.204762 
L 777.139416 107.204762 
L 774.784694 107.204762 
L 772.429972 107.204762 
L 770.07525 107.204762 
L 767.720528 107.204762 
L 765.365806 107.204762 
L 763.011084 107.204762 
L 760.656362 107.204762 
L 758.30164 107.204762 
L 755.946918 107.204762 
L 753.592196 107.204762 
L 751.237474 107.204762 
L 748.882752 107.204762 
L 746.52803 107.204762 
L 744.173308 107.204762 
L 741.818586 107.204762 
L 739.463864 107.204762 
L 737.109142 107.204762 
L 734.75442 107.204762 
L 732.399698 107.204762 
L 730.044976 107.204762 
L 727.690254 107.204762 
L 725.335532 107.204762 
L 722.98081 107.204762 
L 720.626088 107.204762 
L 718.271366 107.204762 
L 715.916644 107.204762 
L 713.561922 107.204762 
L 711.2072 107.204762 
L 708.852478 107.204762 
L 706.497756 107.204762 
L 704.143034 107.204762 
L 701.788312 107.204762 
L 699.43359 107.204762 
L 697.078868 107.204762 
L 694.724146 107.204762 
L 692.369424 107.204762 
L 690.014702 107.204762 
L 687.65998 107.204762 
L 685.305258 107.204762 
L 682.950536 107.204762 
L 680.595814 107.204762 
L 678.241092 107.204762 
L 675.88637 107.204762 
L 673.531648 107.204762 
L 671.176926 107.204762 
L 668.822204 107.204762 
L 666.467482 107.204762 
L 664.11276 107.204762 
L 661.758038 107.204762 
L 659.403316 107.204762 
L 657.048594 107.204762 
L 654.693872 107.204762 
L 652.33915 107.204762 
L 649.984428 107.204762 
L 647.629706 107.204762 
L 645.274984 107.204762 
L 642.920262 107.204762 
L 640.56554 107.204762 
L 638.210818 107.204762 
L 635.856096 107.204762 
L 633.501374 107.204762 
L 631.146652 107.204762 
L 628.79193 107.204762 
L 626.437208 107.204762 
L 624.082486 107.204762 
L 621.727764 107.204762 
L 619.373042 107.204762 
L 617.01832 107.204762 
L 614.663598 107.204762 
L 612.308876 107.204762 
L 609.954154 107.204762 
L 607.599432 107.204762 
L 605.24471 107.204762 
L 602.889989 107.204762 
L 600.535267 107.204762 
L 598.180545 107.204762 
L 595.825823 107.204762 
L 593.471101 107.204762 
L 591.116379 107.204762 
L 588.761657 107.204762 
L 586.406935 107.204762 
L 584.052213 107.204762 
L 581.697491 107.204762 
L 579.342769 107.204762 
L 576.988047 107.204762 
L 574.633325 107.204762 
L 572.278603 107.204762 
L 569.923881 107.204762 
L 567.569159 107.204762 
L 565.214437 107.204762 
L 562.859715 107.204762 
L 560.504993 107.204762 
L 558.150271 107.204762 
L 555.795549 107.204762 
L 553.440827 107.204762 
L 551.086105 107.204762 
L 548.731383 107.204762 
L 546.376661 107.204762 
L 544.021939 107.204762 
L 541.667217 107.204762 
L 539.312495 107.204762 
L 536.957773 107.204762 
L 534.603051 107.204762 
L 532.248329 107.204762 
L 529.893607 107.204762 
L 527.538885 107.204762 
L 525.184163 107.204762 
L 522.829441 107.204762 
L 520.474719 107.204762 
L 518.119997 107.204762 
L 515.765275 107.204762 
L 513.410553 107.204762 
L 511.055831 107.204762 
L 508.701109 107.204762 
L 506.346387 107.204762 
L 503.991665 107.204762 
L 501.636943 107.204762 
L 499.282221 107.204762 
L 496.927499 107.204762 
L 494.572777 107.204762 
L 492.218055 107.204762 
L 489.863333 107.204762 
L 487.508611 107.204762 
L 485.153889 107.204762 
L 482.799167 107.204762 
L 480.444445 107.204762 
L 478.089723 107.204762 
L 475.735001 107.204762 
L 473.380279 107.204762 
L 471.025557 107.204762 
L 468.670835 107.204762 
L 466.316113 107.204762 
L 463.961391 107.204762 
L 461.606669 107.204762 
L 459.251947 107.204762 
L 456.897225 107.204762 
L 454.542503 107.204762 
L 452.187781 107.204762 
L 449.833059 107.204762 
L 447.478337 107.204762 
L 445.123615 107.204762 
L 442.768893 107.204762 
L 440.414171 107.204762 
L 438.059449 107.204762 
L 435.704727 107.204762 
L 433.350005 107.204762 
L 430.995283 107.204762 
L 428.640561 107.204762 
L 426.285839 107.204762 
L 423.931117 107.204762 
L 421.576395 107.204762 
L 419.221673 107.204762 
L 416.866951 107.204762 
L 414.512229 107.204762 
L 412.157507 107.204762 
L 409.802785 107.204762 
L 407.448063 107.204762 
L 405.093341 107.204762 
L 402.738619 107.204762 
L 400.383897 107.204762 
L 398.029175 107.204762 
L 395.674453 107.204762 
L 393.319731 107.204762 
L 390.965009 107.204762 
L 388.610287 107.204762 
L 386.255565 107.204762 
L 383.900843 107.204762 
L 381.546121 107.204762 
L 379.191399 107.204762 
L 376.836677 107.204762 
L 374.481955 107.204762 
L 372.127233 107.204762 
L 369.772511 107.204762 
L 367.41779 107.204762 
L 365.063068 107.204762 
L 362.708346 107.204762 
L 360.353624 107.204762 
L 357.998902 107.204762 
L 355.64418 107.204762 
L 353.289458 107.204762 
L 350.934736 107.204762 
L 348.580014 107.204762 
L 346.225292 107.204762 
L 343.87057 107.204762 
L 341.515848 107.204762 
L 339.161126 107.204762 
L 336.806404 107.204762 
L 334.451682 107.204762 
L 332.09696 107.204762 
L 329.742238 107.204762 
L 327.387516 107.204762 
L 325.032794 107.204762 
L 322.678072 107.204762 
L 320.32335 107.204762 
L 317.968628 107.204762 
L 315.613906 107.204762 
L 313.259184 107.204762 
L 310.904462 107.204762 
L 308.54974 107.204762 
L 306.195018 107.204762 
L 303.840296 107.204762 
L 301.485574 107.204762 
L 299.130852 107.204762 
L 296.77613 107.204762 
L 294.421408 107.204762 
L 292.066686 107.204762 
L 289.711964 107.204762 
L 287.357242 107.204762 
L 285.00252 107.204762 
L 282.647798 107.204762 
L 280.293076 107.204762 
L 277.938354 107.204762 
L 275.583632 107.204762 
L 273.22891 107.204762 
L 270.874188 107.204762 
L 268.519466 107.204762 
L 266.164744 107.204762 
L 263.810022 107.204762 
L 261.4553 107.204762 
L 259.100578 107.204762 
L 256.745856 107.204762 
L 254.391134 107.204762 
L 252.036412 107.204762 
L 249.68169 107.204762 
L 247.326968 107.204762 
L 244.972246 107.204762 
L 242.617524 107.204762 
L 240.262802 107.204762 
L 237.90808 107.204762 
L 235.553358 107.204762 
L 233.198636 107.204762 
L 230.843914 107.204762 
L 228.489192 107.204762 
L 226.13447 107.204762 
L 223.779748 107.204762 
L 221.425026 107.204762 
L 219.070304 107.204762 
L 216.715582 107.204762 
L 214.36086 107.204762 
L 212.006138 107.204762 
L 209.651416 107.204762 
L 207.296694 107.204762 
L 204.941972 107.204762 
L 202.58725 107.204762 
L 200.232528 107.204762 
L 197.877806 107.204762 
L 195.523084 107.204762 
L 193.168362 107.204762 
L 190.81364 107.204762 
L 188.458918 107.204762 
L 186.104196 107.204762 
L 183.749474 107.204762 
L 181.394752 107.204762 
L 179.04003 107.204762 
L 176.685308 107.204762 
L 174.330586 107.204762 
L 171.975864 107.204762 
L 169.621142 107.204762 
L 167.26642 107.204762 
L 164.911698 107.204762 
L 162.556976 107.204762 
L 160.202254 107.204762 
L 157.847532 107.204762 
L 155.49281 107.204762 
L 153.138088 107.204762 
L 150.783366 107.204762 
L 148.428644 107.204762 
L 146.073922 107.204762 
L 143.7192 107.204762 
L 141.364478 107.204762 
L 139.009756 107.204762 
L 136.655034 107.204762 
L 134.300312 107.204762 
z
" clip-path="url(#pcc10a500d2)" style="fill: #c7eae5"/>
   </g>
   <g id="matplotlib.axis_1">
    <g id="xtick_1">
     <g id="line2d_1">
      <path d="M 134.300312 463.3 
L 134.300312 89.4 
" clip-path="url(#pcc10a500d2)" style="fill: none; stroke: #ffffff; stroke-opacity: 0.3; stroke-width: 0.75; stroke-linecap: square"/>
     </g>
     <g id="line2d_2">
      <defs>
       <path id="m78e47d7a4f" d="M 0 0 
L 0 3.5 
" style="stroke: #000000; stroke-width: 0.8"/>
      </defs>
      <g>
       <use xlink:href="#m78e47d7a4f" x="134.300312" y="463.3" style="stroke: #000000; stroke-width: 0.8"/>
      </g>
     </g>
     <g id="text_1">
      <text style="font-weight: 600; font-size: 24px; font-family: 'Montserrat'; fill: #767676" transform="translate(140.875937 597.425) rotate(-90)">01-01-2023</text>
     </g>
    </g>
    <g id="xtick_2">
     <g id="line2d_3">
      <path d="M 198.305937 463.3 
L 198.305937 89.4 
" clip-path="url(#pcc10a500d2)" style="fill: none; stroke: #ffffff; stroke-opacity: 0.3; stroke-width: 0.75; stroke-linecap: square"/>
     </g>
     <g id="line2d_4">
      <g>
       <use xlink:href="#m78e47d7a4f" x="198.305937" y="463.3" style="stroke: #000000; stroke-width: 0.8"/>
      </g>
     </g>
     <g id="text_2">
      <text style="font-weight: 600; font-size: 24px; font-family: 'Montserrat'; fill: #767676" transform="translate(204.881562 602.25125) rotate(-90)">01-02-2023</text>
     </g>
    </g>
    <g id="xtick_3">
     <g id="line2d_5">
      <path d="M 262.311562 463.3 
L 262.311562 89.4 
" clip-path="url(#pcc10a500d2)" style="fill: none; stroke: #ffffff; stroke-opacity: 0.3; stroke-width: 0.75; stroke-linecap: square"/>
     </g>
     <g id="line2d_6">
      <g>
       <use xlink:href="#m78e47d7a4f" x="262.311562" y="463.3" style="stroke: #000000; stroke-width: 0.8"/>
      </g>
     </g>
     <g id="text_3">
      <text style="font-weight: 600; font-size: 24px; font-family: 'Montserrat'; fill: #767676" transform="translate(268.887187 602.25125) rotate(-90)">01-03-2023</text>
     </g>
    </g>
    <g id="xtick_4">
     <g id="line2d_7">
      <path d="M 326.317187 463.3 
L 326.317187 89.4 
" clip-path="url(#pcc10a500d2)" style="fill: none; stroke: #ffffff; stroke-opacity: 0.3; stroke-width: 0.75; stroke-linecap: square"/>
     </g>
     <g id="line2d_8">
      <g>
       <use xlink:href="#m78e47d7a4f" x="326.317187" y="463.3" style="stroke: #000000; stroke-width: 0.8"/>
      </g>
     </g>
     <g id="text_4">
      <text style="font-weight: 600; font-size: 24px; font-family: 'Montserrat'; fill: #767676" transform="translate(332.892812 604.58) rotate(-90)">01-04-2023</text>
     </g>
    </g>
    <g id="xtick_5">
     <g id="line2d_9">
      <path d="M 390.322812 463.3 
L 390.322812 89.4 
" clip-path="url(#pcc10a500d2)" style="fill: none; stroke: #ffffff; stroke-opacity: 0.3; stroke-width: 0.75; stroke-linecap: square"/>
     </g>
     <g id="line2d_10">
      <g>
       <use xlink:href="#m78e47d7a4f" x="390.322812" y="463.3" style="stroke: #000000; stroke-width: 0.8"/>
      </g>
     </g>
     <g id="text_5">
      <text style="font-weight: 600; font-size: 24px; font-family: 'Montserrat'; fill: #767676" transform="translate(396.898437 602.3) rotate(-90)">01-05-2023</text>
     </g>
    </g>
    <g id="xtick_6">
     <g id="line2d_11">
      <path d="M 454.328437 463.3 
L 454.328437 89.4 
" clip-path="url(#pcc10a500d2)" style="fill: none; stroke: #ffffff; stroke-opacity: 0.3; stroke-width: 0.75; stroke-linecap: square"/>
     </g>
     <g id="line2d_12">
      <g>
       <use xlink:href="#m78e47d7a4f" x="454.328437" y="463.3" style="stroke: #000000; stroke-width: 0.8"/>
      </g>
     </g>
     <g id="text_6">
      <text style="font-weight: 600; font-size: 24px; font-family: 'Montserrat'; fill: #767676" transform="translate(460.904062 603.33125) rotate(-90)">01-06-2023</text>
     </g>
    </g>
    <g id="xtick_7">
     <g id="line2d_13">
      <path d="M 518.334062 463.3 
L 518.334062 89.4 
" clip-path="url(#pcc10a500d2)" style="fill: none; stroke: #ffffff; stroke-opacity: 0.3; stroke-width: 0.75; stroke-linecap: square"/>
     </g>
     <g id="line2d_14">
      <g>
       <use xlink:href="#m78e47d7a4f" x="518.334062" y="463.3" style="stroke: #000000; stroke-width: 0.8"/>
      </g>
     </g>
     <g id="text_7">
      <text style="font-weight: 600; font-size: 24px; font-family: 'Montserrat'; fill: #767676" transform="translate(524.909687 602.87375) rotate(-90)">01-07-2023</text>
     </g>
    </g>
    <g id="xtick_8">
     <g id="line2d_15">
      <path d="M 582.339687 463.3 
L 582.339687 89.4 
" clip-path="url(#pcc10a500d2)" style="fill: none; stroke: #ffffff; stroke-opacity: 0.3; stroke-width: 0.75; stroke-linecap: square"/>
     </g>
     <g id="line2d_16">
      <g>
       <use xlink:href="#m78e47d7a4f" x="582.339687" y="463.3" style="stroke: #000000; stroke-width: 0.8"/>
      </g>
     </g>
     <g id="text_8">
      <text style="font-weight: 600; font-size: 24px; font-family: 'Montserrat'; fill: #767676" transform="translate(588.915312 603.93125) rotate(-90)">01-08-2023</text>
     </g>
    </g>
    <g id="xtick_9">
     <g id="line2d_17">
      <path d="M 646.345312 463.3 
L 646.345312 89.4 
" clip-path="url(#pcc10a500d2)" style="fill: none; stroke: #ffffff; stroke-opacity: 0.3; stroke-width: 0.75; stroke-linecap: square"/>
     </g>
     <g id="line2d_18">
      <g>
       <use xlink:href="#m78e47d7a4f" x="646.345312" y="463.3" style="stroke: #000000; stroke-width: 0.8"/>
      </g>
     </g>
     <g id="text_9">
      <text style="font-weight: 600; font-size: 24px; font-family: 'Montserrat'; fill: #767676" transform="translate(652.920937 603.33125) rotate(-90)">01-09-2023</text>
     </g>
    </g>
    <g id="xtick_10">
     <g id="line2d_19">
      <path d="M 710.350937 463.3 
L 710.350937 89.4 
" clip-path="url(#pcc10a500d2)" style="fill: none; stroke: #ffffff; stroke-opacity: 0.3; stroke-width: 0.75; stroke-linecap: square"/>
     </g>
     <g id="line2d_20">
      <g>
       <use xlink:href="#m78e47d7a4f" x="710.350937" y="463.3" style="stroke: #000000; stroke-width: 0.8"/>
      </g>
     </g>
     <g id="text_10">
      <text style="font-weight: 600; font-size: 24px; font-family: 'Montserrat'; fill: #767676" transform="translate(716.926562 597.425) rotate(-90)">01-10-2023</text>
     </g>
    </g>
    <g id="xtick_11">
     <g id="line2d_21">
      <path d="M 774.356562 463.3 
L 774.356562 89.4 
" clip-path="url(#pcc10a500d2)" style="fill: none; stroke: #ffffff; stroke-opacity: 0.3; stroke-width: 0.75; stroke-linecap: square"/>
     </g>
     <g id="line2d_22">
      <g>
       <use xlink:href="#m78e47d7a4f" x="774.356562" y="463.3" style="stroke: #000000; stroke-width: 0.8"/>
      </g>
     </g>
     <g id="text_11">
      <text style="font-weight: 600; font-size: 24px; font-family: 'Montserrat'; fill: #767676" transform="translate(780.932187 590.41625) rotate(-90)">01-11-2023</text>
     </g>
    </g>
    <g id="xtick_12">
     <g id="line2d_23">
      <path d="M 838.362187 463.3 
L 838.362187 89.4 
" clip-path="url(#pcc10a500d2)" style="fill: none; stroke: #ffffff; stroke-opacity: 0.3; stroke-width: 0.75; stroke-linecap: square"/>
     </g>
     <g id="line2d_24">
      <g>
       <use xlink:href="#m78e47d7a4f" x="838.362187" y="463.3" style="stroke: #000000; stroke-width: 0.8"/>
      </g>
     </g>
     <g id="text_12">
      <text style="font-weight: 600; font-size: 24px; font-family: 'Montserrat'; fill: #767676" transform="translate(844.937812 595.2425) rotate(-90)">01-12-2023</text>
     </g>
    </g>
    <g id="text_13">
     <text style="font-weight: 500; font-size: 24px; font-family: 'Montserrat'; text-anchor: middle" x="486.33125" y="638.38875" transform="rotate(-0 486.33125 638.38875)">Fecha</text>
    </g>
   </g>
   <g id="matplotlib.axis_2">
    <g id="ytick_1">
     <g id="line2d_25">
      <path d="M 102.2975 463.3 
L 870.365 463.3 
" clip-path="url(#pcc10a500d2)" style="fill: none; stroke: #ffffff; stroke-opacity: 0.8; stroke-width: 1.25; stroke-linecap: square"/>
     </g>
     <g id="line2d_26">
      <defs>
       <path id="mb4d5bb05b3" d="M 0 0 
L -3.5 0 
" style="stroke: #000000; stroke-width: 0.8"/>
      </defs>
      <g>
       <use xlink:href="#mb4d5bb05b3" x="102.2975" y="463.3" style="stroke: #000000; stroke-width: 0.8"/>
      </g>
     </g>
     <g id="text_14">
      <text style="font-weight: 500; font-size: 24px; font-family: 'Montserrat'; text-anchor: end; fill: #767676" x="95.2975" y="472.204375" transform="rotate(-0 95.2975 472.204375)">0%</text>
     </g>
    </g>
    <g id="ytick_2">
     <g id="line2d_27">
      <path d="M 102.2975 374.27619 
L 870.365 374.27619 
" clip-path="url(#pcc10a500d2)" style="fill: none; stroke: #ffffff; stroke-opacity: 0.8; stroke-width: 1.25; stroke-linecap: square"/>
     </g>
     <g id="line2d_28">
      <g>
       <use xlink:href="#mb4d5bb05b3" x="102.2975" y="374.27619" style="stroke: #000000; stroke-width: 0.8"/>
      </g>
     </g>
     <g id="text_15">
      <text style="font-weight: 500; font-size: 24px; font-family: 'Montserrat'; text-anchor: end; fill: #767676" x="95.2975" y="383.180565" transform="rotate(-0 95.2975 383.180565)">25%</text>
     </g>
    </g>
    <g id="ytick_3">
     <g id="line2d_29">
      <path d="M 102.2975 285.252381 
L 870.365 285.252381 
" clip-path="url(#pcc10a500d2)" style="fill: none; stroke: #ffffff; stroke-opacity: 0.8; stroke-width: 1.25; stroke-linecap: square"/>
     </g>
     <g id="line2d_30">
      <g>
       <use xlink:href="#mb4d5bb05b3" x="102.2975" y="285.252381" style="stroke: #000000; stroke-width: 0.8"/>
      </g>
     </g>
     <g id="text_16">
      <text style="font-weight: 500; font-size: 24px; font-family: 'Montserrat'; text-anchor: end; fill: #767676" x="95.2975" y="294.156756" transform="rotate(-0 95.2975 294.156756)">50%</text>
     </g>
    </g>
    <g id="ytick_4">
     <g id="line2d_31">
      <path d="M 102.2975 196.228571 
L 870.365 196.228571 
" clip-path="url(#pcc10a500d2)" style="fill: none; stroke: #ffffff; stroke-opacity: 0.8; stroke-width: 1.25; stroke-linecap: square"/>
     </g>
     <g id="line2d_32">
      <g>
       <use xlink:href="#mb4d5bb05b3" x="102.2975" y="196.228571" style="stroke: #000000; stroke-width: 0.8"/>
      </g>
     </g>
     <g id="text_17">
      <text style="font-weight: 500; font-size: 24px; font-family: 'Montserrat'; text-anchor: end; fill: #767676" x="95.2975" y="205.132946" transform="rotate(-0 95.2975 205.132946)">75%</text>
     </g>
    </g>
    <g id="ytick_5">
     <g id="line2d_33">
      <path d="M 102.2975 107.204762 
L 870.365 107.204762 
" clip-path="url(#pcc10a500d2)" style="fill: none; stroke: #ffffff; stroke-opacity: 0.8; stroke-width: 1.25; stroke-linecap: square"/>
     </g>
     <g id="line2d_34">
      <g>
       <use xlink:href="#mb4d5bb05b3" x="102.2975" y="107.204762" style="stroke: #000000; stroke-width: 0.8"/>
      </g>
     </g>
     <g id="text_18">
      <text style="font-weight: 500; font-size: 24px; font-family: 'Montserrat'; text-anchor: end; fill: #767676" x="95.2975" y="116.109137" transform="rotate(-0 95.2975 116.109137)">100%</text>
     </g>
    </g>
    <g id="text_19">
     <text style="font-weight: 500; font-size: 24px; font-family: 'Montserrat'; text-anchor: middle" x="25.36875" y="276.35" transform="rotate(-90 25.36875 276.35)">Porcentaje</text>
    </g>
   </g>
   <g id="patch_3">
    <path d="M 102.2975 463.3 
L 870.365 463.3 
" style="fill: none; stroke: #000000; stroke-width: 2; stroke-linejoin: miter; stroke-linecap: square"/>
   </g>
   <g id="text_20">
    <g id="patch_4">
     <path d="M 188.874687 431.246652 
L 207.737187 431.246652 
Q 227.737187 431.246652 227.737187 411.246652 
L 227.737187 408.524777 
Q 227.737187 388.524777 207.737187 388.524777 
L 188.874687 388.524777 
Q 168.874687 388.524777 168.874687 408.524777 
L 168.874687 411.246652 
Q 168.874687 431.246652 188.874687 431.246652 
z
" style="fill: #ffffff; stroke: #215f53; stroke-width: 1.8; stroke-linejoin: miter"/>
    </g>
    <text style="font-weight: 500; font-size: 20px; font-family: 'Montserrat'; text-anchor: middle; fill: #767676" x="198.305937" y="415.365402" transform="rotate(-0 198.305937 415.365402)">3.51</text>
   </g>
   <g id="text_21">
    <g id="patch_5">
     <path d="M 476.9 306.613318 
L 495.7625 306.613318 
Q 515.7625 306.613318 515.7625 286.613318 
L 515.7625 283.891443 
Q 515.7625 263.891443 495.7625 263.891443 
L 476.9 263.891443 
Q 456.9 263.891443 456.9 283.891443 
L 456.9 286.613318 
Q 456.9 306.613318 476.9 306.613318 
z
" style="fill: #ffffff; stroke: #7570b3; stroke-width: 1.8; stroke-linejoin: miter"/>
    </g>
    <text style="font-weight: 500; font-size: 20px; font-family: 'Montserrat'; text-anchor: middle; fill: #767676" x="486.33125" y="290.732068" transform="rotate(-0 486.33125 290.732068)">5.13</text>
   </g>
   <g id="text_22">
    <g id="patch_6">
     <path d="M 762.475312 181.979985 
L 786.237812 181.979985 
Q 806.237812 181.979985 806.237812 161.979985 
L 806.237812 159.25811 
Q 806.237812 139.25811 786.237812 139.25811 
L 762.475312 139.25811 
Q 742.475312 139.25811 742.475312 159.25811 
L 742.475312 161.979985 
Q 742.475312 181.979985 762.475312 181.979985 
z
" style="fill: #ffffff; stroke: #c7eae5; stroke-width: 1.8; stroke-linejoin: miter"/>
    </g>
    <text style="font-weight: 500; font-size: 20px; font-family: 'Montserrat'; text-anchor: middle; fill: #767676" x="774.356562" y="166.098735" transform="rotate(-0 774.356562 166.098735)">3.36</text>
   </g>
  </g>
  <g id="axes_2">
   <g id="patch_7">
    <path d="M 881.165 463.3 
L 1137.1875 463.3 
L 1137.1875 89.4 
L 881.165 89.4 
z
" style="fill: #ffffff"/>
   </g>
   <g id="patch_8">
    <path d="M 945.170625 463.3 
L 1073.181875 463.3 
L 1073.181875 353.7473 
L 945.170625 353.7473 
z
" clip-path="url(#p0a9551ca55)" style="fill: #215f53; stroke: #ffffff; stroke-width: 0.5; stroke-linejoin: miter"/>
   </g>
   <g id="patch_9">
    <path d="M 945.170625 353.7473 
L 1073.181875 353.7473 
L 1073.181875 194.092 
L 945.170625 194.092 
z
" clip-path="url(#p0a9551ca55)" style="fill: #7570b3; stroke: #ffffff; stroke-width: 0.5; stroke-linejoin: miter"/>
   </g>
   <g id="patch_10">
    <path d="M 945.170625 194.092 
L 1073.181875 194.092 
L 1073.181875 89.4 
L 945.170625 89.4 
z
" clip-path="url(#p0a9551ca55)" style="fill: #c7eae5; stroke: #ffffff; stroke-width: 0.5; stroke-linejoin: miter"/>
   </g>
   <g id="matplotlib.axis_3"/>
   <g id="matplotlib.axis_4"/>
   <g id="text_23">
    <text style="font-weight: 500; font-size: 20px; font-family: 'Montserrat'; text-anchor: middle; fill: #ffffff" x="1009.17625" y="414.003337" transform="rotate(-0 1009.17625 414.003337)">29.3%</text>
   </g>
   <g id="text_24">
    <text style="font-weight: 500; font-size: 20px; font-family: 'Montserrat'; text-anchor: middle; fill: #ffffff" x="1009.17625" y="279.399337" transform="rotate(-0 1009.17625 279.399337)">42.7%</text>
   </g>
   <g id="text_25">
    <text style="font-weight: 500; font-size: 20px; font-family: 'Montserrat'; text-anchor: middle; fill: #ffffff" x="1009.17625" y="147.225687" transform="rotate(-0 1009.17625 147.225687)">28.0%</text>
   </g>
  </g>
  <g id="legend_1">
   <g id="patch_11">
    <path d="M 187.957031 41.460937 
L 247.957031 41.460937 
L 247.957031 20.460937 
L 187.957031 20.460937 
z
" style="fill: #215f53"/>
   </g>
   <g id="text_26">
    <text style="font-weight: 500; font-size: 30px; font-family: 'Montserrat'; text-anchor: start" x="271.957031" y="41.460937" transform="rotate(-0 271.957031 41.460937)">Comisiones</text>
   </g>
   <g id="patch_12">
    <path d="M 509.046094 41.460937 
L 569.046094 41.460937 
L 569.046094 20.460937 
L 509.046094 20.460937 
z
" style="fill: #7570b3"/>
   </g>
   <g id="text_27">
    <text style="font-weight: 500; font-size: 30px; font-family: 'Montserrat'; text-anchor: start" x="593.046094" y="41.460937" transform="rotate(-0 593.046094 41.460937)">Fiscalas</text>
   </g>
   <g id="patch_13">
    <path d="M 780.274219 41.460937 
L 840.274219 41.460937 
L 840.274219 20.460937 
L 780.274219 20.460937 
z
" style="fill: #c7eae5"/>
   </g>
   <g id="text_28">
    <text style="font-weight: 500; font-size: 30px; font-family: 'Montserrat'; text-anchor: start" x="864.274219" y="41.460937" transform="rotate(-0 864.274219 41.460937)">Portal</text>
   </g>
  </g>
 </g>
 <defs>
  <clipPath id="pcc10a500d2">
   <rect x="102.2975" y="89.4" width="768.0675" height="373.9"/>
  </clipPath>
  <clipPath id="p0a9551ca55">
   <rect x="881.165" y="89.4" width="256.0225" height="373.9"/>
  </clipPath>
 </defs>
</svg>
