<?xml version="1.0" encoding="utf-8" standalone="no"?>
<!DOCTYPE svg PUBLIC "-//W3C//DTD SVG 1.1//EN"
  "http://www.w3.org/Graphics/SVG/1.1/DTD/svg11.dtd">
<svg xmlns:xlink="http://www.w3.org/1999/xlink" width="1144.3875pt" height="650.3625pt" viewBox="0 0 1144.3875 650.3625" xmlns="http://www.w3.org/2000/svg" version="1.1">
 <metadata>
  <rdf:RDF xmlns:dc="http://purl.org/dc/elements/1.1/" xmlns:cc="http://creativecommons.org/ns#" xmlns:rdf="http://www.w3.org/1999/02/22-rdf-syntax-ns#">
   <cc:Work>
    <dc:type rdf:resource="http://purl.org/dc/dcmitype/StillImage"/>
    <dc:date>2025-05-29T12:55:06.967651</dc:date>
    <dc:format>image/svg+xml</dc:format>
    <dc:creator>
     <cc:Agent>
      <dc:title>Matplotlib v3.10.1, https://matplotlib.org/</dc:title>
     </cc:Agent>
    </dc:creator>
   </cc:Work>
  </rdf:RDF>
 </metadata>
 <defs>
  <style type="text/css">*{stroke-linejoin: round; stroke-linecap: butt}</style>
 </defs>
 <g id="figure_1">
  <g id="patch_1">
   <path d="M 0 650.3625 
L 1144.3875 650.3625 
L 1144.3875 0 
L 0 0 
z
" style="fill: #ffffff"/>
  </g>
  <g id="axes_1">
   <g id="patch_2">
    <path d="M 102.2975 509.95 
L 870.365 509.95 
L 870.365 89.4 
L 102.2975 89.4 
z
" style="fill: #ffffff"/>
   </g>
   <g id="FillBetweenPolyCollection_1">
    <path d="M 134.300312 270.052558 
L 134.300312 509.95 
L 136.655034 509.95 
L 139.009756 509.95 
L 141.364478 509.95 
L 143.7192 509.95 
L 146.073922 509.95 
L 148.428644 509.95 
L 150.783366 509.95 
L 153.138088 509.95 
L 155.49281 509.95 
L 157.847532 509.95 
L 160.202254 509.95 
L 162.556976 509.95 
L 164.911698 509.95 
L 167.26642 509.95 
L 169.621142 509.95 
L 171.975864 509.95 
L 174.330586 509.95 
L 176.685308 509.95 
L 179.04003 509.95 
L 181.394752 509.95 
L 183.749474 509.95 
L 186.104196 509.95 
L 188.458918 509.95 
L 190.81364 509.95 
L 193.168362 509.95 
L 195.523084 509.95 
L 197.877806 509.95 
L 200.232528 509.95 
L 202.58725 509.95 
L 204.941972 509.95 
L 207.296694 509.95 
L 209.651416 509.95 
L 212.006138 509.95 
L 214.36086 509.95 
L 216.715582 509.95 
L 219.070304 509.95 
L 221.425026 509.95 
L 223.779748 509.95 
L 226.13447 509.95 
L 228.489192 509.95 
L 230.843914 509.95 
L 233.198636 509.95 
L 235.553358 509.95 
L 237.90808 509.95 
L 240.262802 509.95 
L 242.617524 509.95 
L 244.972246 509.95 
L 247.326968 509.95 
L 249.68169 509.95 
L 252.036412 509.95 
L 254.391134 509.95 
L 256.745856 509.95 
L 259.100578 509.95 
L 261.4553 509.95 
L 263.810022 509.95 
L 266.164744 509.95 
L 268.519466 509.95 
L 270.874188 509.95 
L 273.22891 509.95 
L 275.583632 509.95 
L 277.938354 509.95 
L 280.293076 509.95 
L 282.647798 509.95 
L 285.00252 509.95 
L 287.357242 509.95 
L 289.711964 509.95 
L 292.066686 509.95 
L 294.421408 509.95 
L 296.77613 509.95 
L 299.130852 509.95 
L 301.485574 509.95 
L 303.840296 509.95 
L 306.195018 509.95 
L 308.54974 509.95 
L 310.904462 509.95 
L 313.259184 509.95 
L 315.613906 509.95 
L 317.968628 509.95 
L 320.32335 509.95 
L 322.678072 509.95 
L 325.032794 509.95 
L 327.387516 509.95 
L 329.742238 509.95 
L 332.09696 509.95 
L 334.451682 509.95 
L 336.806404 509.95 
L 339.161126 509.95 
L 341.515848 509.95 
L 343.87057 509.95 
L 346.225292 509.95 
L 348.580014 509.95 
L 350.934736 509.95 
L 353.289458 509.95 
L 355.64418 509.95 
L 357.998902 509.95 
L 360.353624 509.95 
L 362.708346 509.95 
L 365.063068 509.95 
L 367.41779 509.95 
L 369.772511 509.95 
L 372.127233 509.95 
L 374.481955 509.95 
L 376.836677 509.95 
L 379.191399 509.95 
L 381.546121 509.95 
L 383.900843 509.95 
L 386.255565 509.95 
L 388.610287 509.95 
L 390.965009 509.95 
L 393.319731 509.95 
L 395.674453 509.95 
L 398.029175 509.95 
L 400.383897 509.95 
L 402.738619 509.95 
L 405.093341 509.95 
L 407.448063 509.95 
L 409.802785 509.95 
L 412.157507 509.95 
L 414.512229 509.95 
L 416.866951 509.95 
L 419.221673 509.95 
L 421.576395 509.95 
L 423.931117 509.95 
L 426.285839 509.95 
L 428.640561 509.95 
L 430.995283 509.95 
L 433.350005 509.95 
L 435.704727 509.95 
L 438.059449 509.95 
L 440.414171 509.95 
L 442.768893 509.95 
L 445.123615 509.95 
L 447.478337 509.95 
L 449.833059 509.95 
L 452.187781 509.95 
L 454.542503 509.95 
L 456.897225 509.95 
L 459.251947 509.95 
L 461.606669 509.95 
L 463.961391 509.95 
L 466.316113 509.95 
L 468.670835 509.95 
L 471.025557 509.95 
L 473.380279 509.95 
L 475.735001 509.95 
L 478.089723 509.95 
L 480.444445 509.95 
L 482.799167 509.95 
L 485.153889 509.95 
L 487.508611 509.95 
L 489.863333 509.95 
L 492.218055 509.95 
L 494.572777 509.95 
L 496.927499 509.95 
L 499.282221 509.95 
L 501.636943 509.95 
L 503.991665 509.95 
L 506.346387 509.95 
L 508.701109 509.95 
L 511.055831 509.95 
L 513.410553 509.95 
L 515.765275 509.95 
L 518.119997 509.95 
L 520.474719 509.95 
L 522.829441 509.95 
L 525.184163 509.95 
L 527.538885 509.95 
L 529.893607 509.95 
L 532.248329 509.95 
L 534.603051 509.95 
L 536.957773 509.95 
L 539.312495 509.95 
L 541.667217 509.95 
L 544.021939 509.95 
L 546.376661 509.95 
L 548.731383 509.95 
L 551.086105 509.95 
L 553.440827 509.95 
L 555.795549 509.95 
L 558.150271 509.95 
L 560.504993 509.95 
L 562.859715 509.95 
L 565.214437 509.95 
L 567.569159 509.95 
L 569.923881 509.95 
L 572.278603 509.95 
L 574.633325 509.95 
L 576.988047 509.95 
L 579.342769 509.95 
L 581.697491 509.95 
L 584.052213 509.95 
L 586.406935 509.95 
L 588.761657 509.95 
L 591.116379 509.95 
L 593.471101 509.95 
L 595.825823 509.95 
L 598.180545 509.95 
L 600.535267 509.95 
L 602.889989 509.95 
L 605.24471 509.95 
L 607.599432 509.95 
L 609.954154 509.95 
L 612.308876 509.95 
L 614.663598 509.95 
L 617.01832 509.95 
L 619.373042 509.95 
L 621.727764 509.95 
L 624.082486 509.95 
L 626.437208 509.95 
L 628.79193 509.95 
L 631.146652 509.95 
L 633.501374 509.95 
L 635.856096 509.95 
L 638.210818 509.95 
L 640.56554 509.95 
L 642.920262 509.95 
L 645.274984 509.95 
L 647.629706 509.95 
L 649.984428 509.95 
L 652.33915 509.95 
L 654.693872 509.95 
L 657.048594 509.95 
L 659.403316 509.95 
L 661.758038 509.95 
L 664.11276 509.95 
L 666.467482 509.95 
L 668.822204 509.95 
L 671.176926 509.95 
L 673.531648 509.95 
L 675.88637 509.95 
L 678.241092 509.95 
L 680.595814 509.95 
L 682.950536 509.95 
L 685.305258 509.95 
L 687.65998 509.95 
L 690.014702 509.95 
L 692.369424 509.95 
L 694.724146 509.95 
L 697.078868 509.95 
L 699.43359 509.95 
L 701.788312 509.95 
L 704.143034 509.95 
L 706.497756 509.95 
L 708.852478 509.95 
L 711.2072 509.95 
L 713.561922 509.95 
L 715.916644 509.95 
L 718.271366 509.95 
L 720.626088 509.95 
L 722.98081 509.95 
L 725.335532 509.95 
L 727.690254 509.95 
L 730.044976 509.95 
L 732.399698 509.95 
L 734.75442 509.95 
L 737.109142 509.95 
L 739.463864 509.95 
L 741.818586 509.95 
L 744.173308 509.95 
L 746.52803 509.95 
L 748.882752 509.95 
L 751.237474 509.95 
L 753.592196 509.95 
L 755.946918 509.95 
L 758.30164 509.95 
L 760.656362 509.95 
L 763.011084 509.95 
L 765.365806 509.95 
L 767.720528 509.95 
L 770.07525 509.95 
L 772.429972 509.95 
L 774.784694 509.95 
L 777.139416 509.95 
L 779.494138 509.95 
L 781.84886 509.95 
L 784.203582 509.95 
L 786.558304 509.95 
L 788.913026 509.95 
L 791.267748 509.95 
L 793.62247 509.95 
L 795.977192 509.95 
L 798.331914 509.95 
L 800.686636 509.95 
L 803.041358 509.95 
L 805.39608 509.95 
L 807.750802 509.95 
L 810.105524 509.95 
L 812.460246 509.95 
L 814.814968 509.95 
L 817.16969 509.95 
L 819.524412 509.95 
L 821.879134 509.95 
L 824.233856 509.95 
L 826.588578 509.95 
L 828.9433 509.95 
L 831.298022 509.95 
L 833.652744 509.95 
L 836.007466 509.95 
L 838.362187 509.95 
L 838.362187 357.095778 
L 838.362187 357.095778 
L 836.007466 344.444271 
L 833.652744 333.091953 
L 831.298022 322.996505 
L 828.9433 314.115611 
L 826.588578 306.406952 
L 824.233856 299.828212 
L 821.879134 294.337073 
L 819.524412 289.891217 
L 817.16969 286.448328 
L 814.814968 283.966087 
L 812.460246 282.402178 
L 810.105524 281.714282 
L 807.750802 281.860082 
L 805.39608 282.797262 
L 803.041358 284.483503 
L 800.686636 286.876488 
L 798.331914 289.933899 
L 795.977192 293.61342 
L 793.62247 297.872733 
L 791.267748 302.66952 
L 788.913026 307.961463 
L 786.558304 313.706246 
L 784.203582 319.861551 
L 781.84886 326.385061 
L 779.494138 333.234458 
L 777.139416 340.367424 
L 774.784694 347.741643 
L 772.429972 355.314796 
L 770.07525 363.044567 
L 767.720528 370.888637 
L 765.365806 378.804691 
L 763.011084 386.750409 
L 760.656362 394.683474 
L 758.30164 402.56157 
L 755.946918 410.342379 
L 753.592196 417.983583 
L 751.237474 425.442865 
L 748.882752 432.677907 
L 746.52803 439.646392 
L 744.173308 446.306002 
L 741.818586 452.614421 
L 739.463864 458.52933 
L 737.109142 464.008413 
L 734.75442 469.009351 
L 732.399698 473.489828 
L 730.044976 477.407526 
L 727.690254 480.720127 
L 725.335532 483.385314 
L 722.98081 485.360769 
L 720.626088 486.604176 
L 718.271366 487.073217 
L 715.916644 486.725574 
L 713.561922 485.518929 
L 711.2072 483.410966 
L 708.852478 480.364047 
L 706.497756 476.401379 
L 704.143034 471.588724 
L 701.788312 465.992715 
L 699.43359 459.679985 
L 697.078868 452.717167 
L 694.724146 445.170896 
L 692.369424 437.107805 
L 690.014702 428.594527 
L 687.65998 419.697695 
L 685.305258 410.483943 
L 682.950536 401.019905 
L 680.595814 391.372214 
L 678.241092 381.607503 
L 675.88637 371.792407 
L 673.531648 361.993557 
L 671.176926 352.277589 
L 668.822204 342.711134 
L 666.467482 333.360828 
L 664.11276 324.293302 
L 661.758038 315.575191 
L 659.403316 307.273129 
L 657.048594 299.453748 
L 654.693872 292.183682 
L 652.33915 285.529564 
L 649.984428 279.558029 
L 647.629706 274.335708 
L 645.274984 269.927621 
L 642.920262 266.352289 
L 640.56554 263.575884 
L 638.210818 261.561784 
L 635.856096 260.273367 
L 633.501374 259.674013 
L 631.146652 259.727099 
L 628.79193 260.396003 
L 626.437208 261.644106 
L 624.082486 263.434784 
L 621.727764 265.731416 
L 619.373042 268.497382 
L 617.01832 271.696058 
L 614.663598 275.290824 
L 612.308876 279.245058 
L 609.954154 283.522139 
L 607.599432 288.085444 
L 605.24471 292.898353 
L 602.889989 297.924244 
L 600.535267 303.126495 
L 598.180545 308.468485 
L 595.825823 313.913593 
L 593.471101 319.425196 
L 591.116379 324.966673 
L 588.761657 330.501402 
L 586.406935 335.992763 
L 584.052213 341.404133 
L 581.697491 346.698964 
L 579.342769 351.847796 
L 576.988047 356.834108 
L 574.633325 361.642758 
L 572.278603 366.258602 
L 569.923881 370.666496 
L 567.569159 374.851298 
L 565.214437 378.797863 
L 562.859715 382.491049 
L 560.504993 385.915712 
L 558.150271 389.056709 
L 555.795549 391.898897 
L 553.440827 394.427131 
L 551.086105 396.62627 
L 548.731383 398.481168 
L 546.376661 399.976684 
L 544.021939 401.097673 
L 541.667217 401.828992 
L 539.312495 402.155499 
L 536.957773 402.062048 
L 534.603051 401.533498 
L 532.248329 400.554705 
L 529.893607 399.110525 
L 527.538885 397.185816 
L 525.184163 394.765433 
L 522.829441 391.834233 
L 520.474719 388.377074 
L 518.119997 384.37882 
L 515.765275 379.841238 
L 513.410553 374.817658 
L 511.055831 369.371213 
L 508.701109 363.565035 
L 506.346387 357.462257 
L 503.991665 351.126013 
L 501.636943 344.619434 
L 499.282221 338.005654 
L 496.927499 331.347805 
L 494.572777 324.70902 
L 492.218055 318.152432 
L 489.863333 311.741173 
L 487.508611 305.538377 
L 485.153889 299.607176 
L 482.799167 294.010703 
L 480.444445 288.81209 
L 478.089723 284.074471 
L 475.735001 279.860977 
L 473.380279 276.234743 
L 471.025557 273.2589 
L 468.670835 270.996581 
L 466.316113 269.51092 
L 463.961391 268.865048 
L 461.606669 269.122099 
L 459.251947 270.345206 
L 456.897225 272.5975 
L 454.542503 275.942115 
L 452.187781 280.421467 
L 449.833059 285.968982 
L 447.478337 292.48237 
L 445.123615 299.85932 
L 442.768893 307.997522 
L 440.414171 316.794665 
L 438.059449 326.148439 
L 435.704727 335.956533 
L 433.350005 346.116637 
L 430.995283 356.52644 
L 428.640561 367.083631 
L 426.285839 377.685901 
L 423.931117 388.230938 
L 421.576395 398.616433 
L 419.221673 408.740074 
L 416.866951 418.499551 
L 414.512229 427.792553 
L 412.157507 436.516771 
L 409.802785 444.569893 
L 407.448063 451.849609 
L 405.093341 458.253608 
L 402.738619 463.67958 
L 400.383897 468.025214 
L 398.029175 471.188201 
L 395.674453 473.066228 
L 393.319731 473.556987 
L 390.965009 472.558165 
L 388.610287 469.981444 
L 386.255565 465.869963 
L 383.900843 460.338892 
L 381.546121 453.504138 
L 379.191399 445.481608 
L 376.836677 436.387209 
L 374.481955 426.336848 
L 372.127233 415.446432 
L 369.772511 403.831867 
L 367.41779 391.609062 
L 365.063068 378.893922 
L 362.708346 365.802356 
L 360.353624 352.450269 
L 357.998902 338.95357 
L 355.64418 325.428164 
L 353.289458 311.989959 
L 350.934736 298.754863 
L 348.580014 285.838781 
L 346.225292 273.357622 
L 343.87057 261.427291 
L 341.515848 250.163697 
L 339.161126 239.682745 
L 336.806404 230.100344 
L 334.451682 221.5324 
L 332.09696 214.09482 
L 329.742238 207.903511 
L 327.387516 203.07438 
L 325.032794 199.717921 
L 322.678072 197.843166 
L 320.32335 197.369035 
L 317.968628 198.211314 
L 315.613906 200.285791 
L 313.259184 203.508253 
L 310.904462 207.794488 
L 308.54974 213.060283 
L 306.195018 219.221426 
L 303.840296 226.193703 
L 301.485574 233.892903 
L 299.130852 242.234811 
L 296.77613 251.135217 
L 294.421408 260.509906 
L 292.066686 270.274668 
L 289.711964 280.345287 
L 287.357242 290.637553 
L 285.00252 301.067253 
L 282.647798 311.550174 
L 280.293076 322.002102 
L 277.938354 332.338826 
L 275.583632 342.476133 
L 273.22891 352.329811 
L 270.874188 361.815646 
L 268.519466 370.849425 
L 266.164744 379.346938 
L 263.810022 387.223969 
L 261.4553 394.397167 
L 259.100578 400.825024 
L 256.745856 406.525874 
L 254.391134 411.522652 
L 252.036412 415.838296 
L 249.68169 419.495739 
L 247.326968 422.517919 
L 244.972246 424.927771 
L 242.617524 426.74823 
L 240.262802 428.002232 
L 237.90808 428.712713 
L 235.553358 428.902609 
L 233.198636 428.594856 
L 230.843914 427.812389 
L 228.489192 426.578143 
L 226.13447 424.915056 
L 223.779748 422.846061 
L 221.425026 420.394096 
L 219.070304 417.582096 
L 216.715582 414.432996 
L 214.36086 410.969733 
L 212.006138 407.215242 
L 209.651416 403.192458 
L 207.296694 398.924318 
L 204.941972 394.433758 
L 202.58725 389.743712 
L 200.232528 384.877118 
L 197.877806 379.856909 
L 195.523084 374.706023 
L 193.168362 369.447395 
L 190.81364 364.103961 
L 188.458918 358.698656 
L 186.104196 353.254416 
L 183.749474 347.794177 
L 181.394752 342.340875 
L 179.04003 336.917445 
L 176.685308 331.546823 
L 174.330586 326.251945 
L 171.975864 321.055747 
L 169.621142 315.981164 
L 167.26642 311.051132 
L 164.911698 306.288587 
L 162.556976 301.716464 
L 160.202254 297.3577 
L 157.847532 293.23523 
L 155.49281 289.371989 
L 153.138088 285.790914 
L 150.783366 282.51494 
L 148.428644 279.567003 
L 146.073922 276.970039 
L 143.7192 274.746983 
L 141.364478 272.920771 
L 139.009756 271.514339 
L 136.655034 270.550623 
L 134.300312 270.052558 
z
" clip-path="url(#p61511be40b)" style="fill: #215f53"/>
   </g>
   <g id="FillBetweenPolyCollection_2">
    <path d="M 134.300312 234.825362 
L 134.300312 270.052558 
L 136.655034 270.550623 
L 139.009756 271.514339 
L 141.364478 272.920771 
L 143.7192 274.746983 
L 146.073922 276.970039 
L 148.428644 279.567003 
L 150.783366 282.51494 
L 153.138088 285.790914 
L 155.49281 289.371989 
L 157.847532 293.23523 
L 160.202254 297.3577 
L 162.556976 301.716464 
L 164.911698 306.288587 
L 167.26642 311.051132 
L 169.621142 315.981164 
L 171.975864 321.055747 
L 174.330586 326.251945 
L 176.685308 331.546823 
L 179.04003 336.917445 
L 181.394752 342.340875 
L 183.749474 347.794177 
L 186.104196 353.254416 
L 188.458918 358.698656 
L 190.81364 364.103961 
L 193.168362 369.447395 
L 195.523084 374.706023 
L 197.877806 379.856909 
L 200.232528 384.877118 
L 202.58725 389.743712 
L 204.941972 394.433758 
L 207.296694 398.924318 
L 209.651416 403.192458 
L 212.006138 407.215242 
L 214.36086 410.969733 
L 216.715582 414.432996 
L 219.070304 417.582096 
L 221.425026 420.394096 
L 223.779748 422.846061 
L 226.13447 424.915056 
L 228.489192 426.578143 
L 230.843914 427.812389 
L 233.198636 428.594856 
L 235.553358 428.902609 
L 237.90808 428.712713 
L 240.262802 428.002232 
L 242.617524 426.74823 
L 244.972246 424.927771 
L 247.326968 422.517919 
L 249.68169 419.495739 
L 252.036412 415.838296 
L 254.391134 411.522652 
L 256.745856 406.525874 
L 259.100578 400.825024 
L 261.4553 394.397167 
L 263.810022 387.223969 
L 266.164744 379.346938 
L 268.519466 370.849425 
L 270.874188 361.815646 
L 273.22891 352.329811 
L 275.583632 342.476133 
L 277.938354 332.338826 
L 280.293076 322.002102 
L 282.647798 311.550174 
L 285.00252 301.067253 
L 287.357242 290.637553 
L 289.711964 280.345287 
L 292.066686 270.274668 
L 294.421408 260.509906 
L 296.77613 251.135217 
L 299.130852 242.234811 
L 301.485574 233.892903 
L 303.840296 226.193703 
L 306.195018 219.221426 
L 308.54974 213.060283 
L 310.904462 207.794488 
L 313.259184 203.508253 
L 315.613906 200.285791 
L 317.968628 198.211314 
L 320.32335 197.369035 
L 322.678072 197.843166 
L 325.032794 199.717921 
L 327.387516 203.07438 
L 329.742238 207.903511 
L 332.09696 214.09482 
L 334.451682 221.5324 
L 336.806404 230.100344 
L 339.161126 239.682745 
L 341.515848 250.163697 
L 343.87057 261.427291 
L 346.225292 273.357622 
L 348.580014 285.838781 
L 350.934736 298.754863 
L 353.289458 311.989959 
L 355.64418 325.428164 
L 357.998902 338.95357 
L 360.353624 352.450269 
L 362.708346 365.802356 
L 365.063068 378.893922 
L 367.41779 391.609062 
L 369.772511 403.831867 
L 372.127233 415.446432 
L 374.481955 426.336848 
L 376.836677 436.387209 
L 379.191399 445.481608 
L 381.546121 453.504138 
L 383.900843 460.338892 
L 386.255565 465.869963 
L 388.610287 469.981444 
L 390.965009 472.558165 
L 393.319731 473.556987 
L 395.674453 473.066228 
L 398.029175 471.188201 
L 400.383897 468.025214 
L 402.738619 463.67958 
L 405.093341 458.253608 
L 407.448063 451.849609 
L 409.802785 444.569893 
L 412.157507 436.516771 
L 414.512229 427.792553 
L 416.866951 418.499551 
L 419.221673 408.740074 
L 421.576395 398.616433 
L 423.931117 388.230938 
L 426.285839 377.685901 
L 428.640561 367.083631 
L 430.995283 356.52644 
L 433.350005 346.116637 
L 435.704727 335.956533 
L 438.059449 326.148439 
L 440.414171 316.794665 
L 442.768893 307.997522 
L 445.123615 299.85932 
L 447.478337 292.48237 
L 449.833059 285.968982 
L 452.187781 280.421467 
L 454.542503 275.942115 
L 456.897225 272.5975 
L 459.251947 270.345206 
L 461.606669 269.122099 
L 463.961391 268.865048 
L 466.316113 269.51092 
L 468.670835 270.996581 
L 471.025557 273.2589 
L 473.380279 276.234743 
L 475.735001 279.860977 
L 478.089723 284.074471 
L 480.444445 288.81209 
L 482.799167 294.010703 
L 485.153889 299.607176 
L 487.508611 305.538377 
L 489.863333 311.741173 
L 492.218055 318.152432 
L 494.572777 324.70902 
L 496.927499 331.347805 
L 499.282221 338.005654 
L 501.636943 344.619434 
L 503.991665 351.126013 
L 506.346387 357.462257 
L 508.701109 363.565035 
L 511.055831 369.371213 
L 513.410553 374.817658 
L 515.765275 379.841238 
L 518.119997 384.37882 
L 520.474719 388.377074 
L 522.829441 391.834233 
L 525.184163 394.765433 
L 527.538885 397.185816 
L 529.893607 399.110525 
L 532.248329 400.554705 
L 534.603051 401.533498 
L 536.957773 402.062048 
L 539.312495 402.155499 
L 541.667217 401.828992 
L 544.021939 401.097673 
L 546.376661 399.976684 
L 548.731383 398.481168 
L 551.086105 396.62627 
L 553.440827 394.427131 
L 555.795549 391.898897 
L 558.150271 389.056709 
L 560.504993 385.915712 
L 562.859715 382.491049 
L 565.214437 378.797863 
L 567.569159 374.851298 
L 569.923881 370.666496 
L 572.278603 366.258602 
L 574.633325 361.642758 
L 576.988047 356.834108 
L 579.342769 351.847796 
L 581.697491 346.698964 
L 584.052213 341.404133 
L 586.406935 335.992763 
L 588.761657 330.501402 
L 591.116379 324.966673 
L 593.471101 319.425196 
L 595.825823 313.913593 
L 598.180545 308.468485 
L 600.535267 303.126495 
L 602.889989 297.924244 
L 605.24471 292.898353 
L 607.599432 288.085444 
L 609.954154 283.522139 
L 612.308876 279.245058 
L 614.663598 275.290824 
L 617.01832 271.696058 
L 619.373042 268.497382 
L 621.727764 265.731416 
L 624.082486 263.434784 
L 626.437208 261.644106 
L 628.79193 260.396003 
L 631.146652 259.727099 
L 633.501374 259.674013 
L 635.856096 260.273367 
L 638.210818 261.561784 
L 640.56554 263.575884 
L 642.920262 266.352289 
L 645.274984 269.927621 
L 647.629706 274.335708 
L 649.984428 279.558029 
L 652.33915 285.529564 
L 654.693872 292.183682 
L 657.048594 299.453748 
L 659.403316 307.273129 
L 661.758038 315.575191 
L 664.11276 324.293302 
L 666.467482 333.360828 
L 668.822204 342.711134 
L 671.176926 352.277589 
L 673.531648 361.993557 
L 675.88637 371.792407 
L 678.241092 381.607503 
L 680.595814 391.372214 
L 682.950536 401.019905 
L 685.305258 410.483943 
L 687.65998 419.697695 
L 690.014702 428.594527 
L 692.369424 437.107805 
L 694.724146 445.170896 
L 697.078868 452.717167 
L 699.43359 459.679985 
L 701.788312 465.992715 
L 704.143034 471.588724 
L 706.497756 476.401379 
L 708.852478 480.364047 
L 711.2072 483.410966 
L 713.561922 485.518929 
L 715.916644 486.725574 
L 718.271366 487.073217 
L 720.626088 486.604176 
L 722.98081 485.360769 
L 725.335532 483.385314 
L 727.690254 480.720127 
L 730.044976 477.407526 
L 732.399698 473.489828 
L 734.75442 469.009351 
L 737.109142 464.008413 
L 739.463864 458.52933 
L 741.818586 452.614421 
L 744.173308 446.306002 
L 746.52803 439.646392 
L 748.882752 432.677907 
L 751.237474 425.442865 
L 753.592196 417.983583 
L 755.946918 410.342379 
L 758.30164 402.56157 
L 760.656362 394.683474 
L 763.011084 386.750409 
L 765.365806 378.804691 
L 767.720528 370.888637 
L 770.07525 363.044567 
L 772.429972 355.314796 
L 774.784694 347.741643 
L 777.139416 340.367424 
L 779.494138 333.234458 
L 781.84886 326.385061 
L 784.203582 319.861551 
L 786.558304 313.706246 
L 788.913026 307.961463 
L 791.267748 302.66952 
L 793.62247 297.872733 
L 795.977192 293.61342 
L 798.331914 289.933899 
L 800.686636 286.876488 
L 803.041358 284.483503 
L 805.39608 282.797262 
L 807.750802 281.860082 
L 810.105524 281.714282 
L 812.460246 282.402178 
L 814.814968 283.966087 
L 817.16969 286.448328 
L 819.524412 289.891217 
L 821.879134 294.337073 
L 824.233856 299.828212 
L 826.588578 306.406952 
L 828.9433 314.115611 
L 831.298022 322.996505 
L 833.652744 333.091953 
L 836.007466 344.444271 
L 838.362187 357.095778 
L 838.362187 199.115111 
L 838.362187 199.115111 
L 836.007466 206.810651 
L 833.652744 213.896446 
L 831.298022 220.388162 
L 828.9433 226.301466 
L 826.588578 231.652023 
L 824.233856 236.455498 
L 821.879134 240.727557 
L 819.524412 244.483867 
L 817.16969 247.740092 
L 814.814968 250.5119 
L 812.460246 252.814954 
L 810.105524 254.664922 
L 807.750802 256.077469 
L 805.39608 257.068261 
L 803.041358 257.652963 
L 800.686636 257.847241 
L 798.331914 257.666761 
L 795.977192 257.127189 
L 793.62247 256.244191 
L 791.267748 255.033432 
L 788.913026 253.510578 
L 786.558304 251.691294 
L 784.203582 249.591248 
L 781.84886 247.226103 
L 779.494138 244.611527 
L 777.139416 241.763185 
L 774.784694 238.696742 
L 772.429972 235.427865 
L 770.07525 231.972218 
L 767.720528 228.345469 
L 765.365806 224.563283 
L 763.011084 220.641324 
L 760.656362 216.59526 
L 758.30164 212.440756 
L 755.946918 208.193478 
L 753.592196 203.869091 
L 751.237474 199.483262 
L 748.882752 195.051655 
L 746.52803 190.589937 
L 744.173308 186.113774 
L 741.818586 181.638831 
L 739.463864 177.180774 
L 737.109142 172.755269 
L 734.75442 168.377981 
L 732.399698 164.064577 
L 730.044976 159.830722 
L 727.690254 155.692082 
L 725.335532 151.664322 
L 722.98081 147.763109 
L 720.626088 144.004108 
L 718.271366 140.402985 
L 715.916644 136.975405 
L 713.561922 133.737035 
L 711.2072 130.70354 
L 708.852478 127.889684 
L 706.497756 125.298495 
L 704.143034 122.924797 
L 701.788312 120.763244 
L 699.43359 118.80849 
L 697.078868 117.055191 
L 694.724146 115.498001 
L 692.369424 114.131574 
L 690.014702 112.950565 
L 687.65998 111.949629 
L 685.305258 111.123419 
L 682.950536 110.466592 
L 680.595814 109.973801 
L 678.241092 109.6397 
L 675.88637 109.458945 
L 673.531648 109.42619 
L 671.176926 109.53609 
L 668.822204 109.783299 
L 666.467482 110.162471 
L 664.11276 110.668262 
L 661.758038 111.295326 
L 659.403316 112.038317 
L 657.048594 112.89189 
L 654.693872 113.8507 
L 652.33915 114.909401 
L 649.984428 116.062648 
L 647.629706 117.305095 
L 645.274984 118.631385 
L 642.920262 120.035807 
L 640.56554 121.512256 
L 638.210818 123.054605 
L 635.856096 124.656724 
L 633.501374 126.312489 
L 631.146652 128.015769 
L 628.79193 129.760439 
L 626.437208 131.540371 
L 624.082486 133.349438 
L 621.727764 135.181511 
L 619.373042 137.030464 
L 617.01832 138.890168 
L 614.663598 140.754498 
L 612.308876 142.617324 
L 609.954154 144.47252 
L 607.599432 146.313958 
L 605.24471 148.135511 
L 602.889989 149.931052 
L 600.535267 151.694452 
L 598.180545 153.419584 
L 595.825823 155.100322 
L 593.471101 156.730537 
L 591.116379 158.304102 
L 588.761657 159.814889 
L 586.406935 161.256772 
L 584.052213 162.623622 
L 581.697491 163.909355 
L 579.342769 165.111966 
L 576.988047 166.236906 
L 574.633325 167.290414 
L 572.278603 168.278734 
L 569.923881 169.208106 
L 567.569159 170.084773 
L 565.214437 170.914975 
L 562.859715 171.704955 
L 560.504993 172.460953 
L 558.150271 173.189213 
L 555.795549 173.895974 
L 553.440827 174.58748 
L 551.086105 175.269971 
L 548.731383 175.949689 
L 546.376661 176.632876 
L 544.021939 177.325773 
L 541.667217 178.034622 
L 539.312495 178.765665 
L 536.957773 179.525143 
L 534.603051 180.319298 
L 532.248329 181.154371 
L 529.893607 182.036604 
L 527.538885 182.972238 
L 525.184163 183.967516 
L 522.829441 185.028679 
L 520.474719 186.161968 
L 518.119997 187.373624 
L 515.765275 188.667384 
L 513.410553 190.039353 
L 511.055831 191.48418 
L 508.701109 192.996517 
L 506.346387 194.571017 
L 503.991665 196.202331 
L 501.636943 197.885109 
L 499.282221 199.614005 
L 496.927499 201.383668 
L 494.572777 203.188752 
L 492.218055 205.023906 
L 489.863333 206.883783 
L 487.508611 208.763035 
L 485.153889 210.656312 
L 482.799167 212.558267 
L 480.444445 214.46355 
L 478.089723 216.366814 
L 475.735001 218.262709 
L 473.380279 220.145888 
L 471.025557 222.011002 
L 468.670835 223.852703 
L 466.316113 225.665641 
L 463.961391 227.444469 
L 461.606669 229.183838 
L 459.251947 230.878399 
L 456.897225 232.522804 
L 454.542503 234.111705 
L 452.187781 235.639802 
L 449.833059 237.102049 
L 447.478337 238.493487 
L 445.123615 239.809154 
L 442.768893 241.04409 
L 440.414171 242.193334 
L 438.059449 243.251925 
L 435.704727 244.214902 
L 433.350005 245.077305 
L 430.995283 245.834172 
L 428.640561 246.480543 
L 426.285839 247.011458 
L 423.931117 247.421954 
L 421.576395 247.707072 
L 419.221673 247.861851 
L 416.866951 247.88133 
L 414.512229 247.760548 
L 412.157507 247.494544 
L 409.802785 247.078358 
L 407.448063 246.507029 
L 405.093341 245.775595 
L 402.738619 244.879097 
L 400.383897 243.812573 
L 398.029175 242.571063 
L 395.674453 241.149605 
L 393.319731 239.54324 
L 390.965009 237.747005 
L 388.610287 235.757599 
L 386.255565 233.587292 
L 383.900843 231.256888 
L 381.546121 228.78728 
L 379.191399 226.19936 
L 376.836677 223.51402 
L 374.481955 220.752152 
L 372.127233 217.934647 
L 369.772511 215.082398 
L 367.41779 212.216298 
L 365.063068 209.357237 
L 362.708346 206.526108 
L 360.353624 203.743804 
L 357.998902 201.031215 
L 355.64418 198.409235 
L 353.289458 195.898754 
L 350.934736 193.520666 
L 348.580014 191.295863 
L 346.225292 189.245235 
L 343.87057 187.389676 
L 341.515848 185.750077 
L 339.161126 184.34733 
L 336.806404 183.202328 
L 334.451682 182.335962 
L 332.09696 181.769125 
L 329.742238 181.522708 
L 327.387516 181.617604 
L 325.032794 182.073406 
L 322.678072 182.885386 
L 320.32335 184.027211 
L 317.968628 185.471797 
L 315.613906 187.192061 
L 313.259184 189.160919 
L 310.904462 191.351289 
L 308.54974 193.736086 
L 306.195018 196.288228 
L 303.840296 198.98063 
L 301.485574 201.78621 
L 299.130852 204.677884 
L 296.77613 207.628569 
L 294.421408 210.611181 
L 292.066686 213.598637 
L 289.711964 216.563853 
L 287.357242 219.479746 
L 285.00252 222.319233 
L 282.647798 225.05523 
L 280.293076 227.660654 
L 277.938354 230.108421 
L 275.583632 232.371448 
L 273.22891 234.422651 
L 270.874188 236.234948 
L 268.519466 237.781255 
L 266.164744 239.034488 
L 263.810022 239.967563 
L 261.4553 240.553767 
L 259.100578 240.784307 
L 256.745856 240.676028 
L 254.391134 240.247745 
L 252.036412 239.51827 
L 249.68169 238.50642 
L 247.326968 237.231008 
L 244.972246 235.710849 
L 242.617524 233.964757 
L 240.262802 232.011546 
L 237.90808 229.870032 
L 235.553358 227.559028 
L 233.198636 225.097348 
L 230.843914 222.503808 
L 228.489192 219.797222 
L 226.13447 216.996404 
L 223.779748 214.120168 
L 221.425026 211.18733 
L 219.070304 208.216702 
L 216.715582 205.227101 
L 214.36086 202.237339 
L 212.006138 199.266233 
L 209.651416 196.332595 
L 207.296694 193.455241 
L 204.941972 190.652985 
L 202.58725 187.944641 
L 200.232528 185.349024 
L 197.877806 182.884948 
L 195.523084 180.571228 
L 193.168362 178.426678 
L 190.81364 176.470112 
L 188.458918 174.720345 
L 186.104196 173.196191 
L 183.749474 171.916465 
L 181.394752 170.899981 
L 179.04003 170.165554 
L 176.685308 169.731998 
L 174.330586 169.618127 
L 171.975864 169.842756 
L 169.621142 170.424699 
L 167.26642 171.382771 
L 164.911698 172.735786 
L 162.556976 174.502558 
L 160.202254 176.701902 
L 157.847532 179.352633 
L 155.49281 182.473565 
L 153.138088 186.083511 
L 150.783366 190.201288 
L 148.428644 194.845708 
L 146.073922 200.035587 
L 143.7192 205.789738 
L 141.364478 212.126977 
L 139.009756 219.066118 
L 136.655034 226.625975 
L 134.300312 234.825362 
z
" clip-path="url(#p61511be40b)" style="fill: #7570b3"/>
   </g>
   <g id="FillBetweenPolyCollection_3">
    <path d="M 134.300312 116.635313 
L 134.300312 234.825362 
L 136.655034 226.625975 
L 139.009756 219.066118 
L 141.364478 212.126977 
L 143.7192 205.789738 
L 146.073922 200.035587 
L 148.428644 194.845708 
L 150.783366 190.201288 
L 153.138088 186.083511 
L 155.49281 182.473565 
L 157.847532 179.352633 
L 160.202254 176.701902 
L 162.556976 174.502558 
L 164.911698 172.735786 
L 167.26642 171.382771 
L 169.621142 170.424699 
L 171.975864 169.842756 
L 174.330586 169.618127 
L 176.685308 169.731998 
L 179.04003 170.165554 
L 181.394752 170.899981 
L 183.749474 171.916465 
L 186.104196 173.196191 
L 188.458918 174.720345 
L 190.81364 176.470112 
L 193.168362 178.426678 
L 195.523084 180.571228 
L 197.877806 182.884948 
L 200.232528 185.349024 
L 202.58725 187.944641 
L 204.941972 190.652985 
L 207.296694 193.455241 
L 209.651416 196.332595 
L 212.006138 199.266233 
L 214.36086 202.237339 
L 216.715582 205.227101 
L 219.070304 208.216702 
L 221.425026 211.18733 
L 223.779748 214.120168 
L 226.13447 216.996404 
L 228.489192 219.797222 
L 230.843914 222.503808 
L 233.198636 225.097348 
L 235.553358 227.559028 
L 237.90808 229.870032 
L 240.262802 232.011546 
L 242.617524 233.964757 
L 244.972246 235.710849 
L 247.326968 237.231008 
L 249.68169 238.50642 
L 252.036412 239.51827 
L 254.391134 240.247745 
L 256.745856 240.676028 
L 259.100578 240.784307 
L 261.4553 240.553767 
L 263.810022 239.967563 
L 266.164744 239.034488 
L 268.519466 237.781255 
L 270.874188 236.234948 
L 273.22891 234.422651 
L 275.583632 232.371448 
L 277.938354 230.108421 
L 280.293076 227.660654 
L 282.647798 225.05523 
L 285.00252 222.319233 
L 287.357242 219.479746 
L 289.711964 216.563853 
L 292.066686 213.598637 
L 294.421408 210.611181 
L 296.77613 207.628569 
L 299.130852 204.677884 
L 301.485574 201.78621 
L 303.840296 198.98063 
L 306.195018 196.288228 
L 308.54974 193.736086 
L 310.904462 191.351289 
L 313.259184 189.160919 
L 315.613906 187.192061 
L 317.968628 185.471797 
L 320.32335 184.027211 
L 322.678072 182.885386 
L 325.032794 182.073406 
L 327.387516 181.617604 
L 329.742238 181.522708 
L 332.09696 181.769125 
L 334.451682 182.335962 
L 336.806404 183.202328 
L 339.161126 184.34733 
L 341.515848 185.750077 
L 343.87057 187.389676 
L 346.225292 189.245235 
L 348.580014 191.295863 
L 350.934736 193.520666 
L 353.289458 195.898754 
L 355.64418 198.409235 
L 357.998902 201.031215 
L 360.353624 203.743804 
L 362.708346 206.526108 
L 365.063068 209.357237 
L 367.41779 212.216298 
L 369.772511 215.082398 
L 372.127233 217.934647 
L 374.481955 220.752152 
L 376.836677 223.51402 
L 379.191399 226.19936 
L 381.546121 228.78728 
L 383.900843 231.256888 
L 386.255565 233.587292 
L 388.610287 235.757599 
L 390.965009 237.747005 
L 393.319731 239.54324 
L 395.674453 241.149605 
L 398.029175 242.571063 
L 400.383897 243.812573 
L 402.738619 244.879097 
L 405.093341 245.775595 
L 407.448063 246.507029 
L 409.802785 247.078358 
L 412.157507 247.494544 
L 414.512229 247.760548 
L 416.866951 247.88133 
L 419.221673 247.861851 
L 421.576395 247.707072 
L 423.931117 247.421954 
L 426.285839 247.011458 
L 428.640561 246.480543 
L 430.995283 245.834172 
L 433.350005 245.077305 
L 435.704727 244.214902 
L 438.059449 243.251925 
L 440.414171 242.193334 
L 442.768893 241.04409 
L 445.123615 239.809154 
L 447.478337 238.493487 
L 449.833059 237.102049 
L 452.187781 235.639802 
L 454.542503 234.111705 
L 456.897225 232.522804 
L 459.251947 230.878399 
L 461.606669 229.183838 
L 463.961391 227.444469 
L 466.316113 225.665641 
L 468.670835 223.852703 
L 471.025557 222.011002 
L 473.380279 220.145888 
L 475.735001 218.262709 
L 478.089723 216.366814 
L 480.444445 214.46355 
L 482.799167 212.558267 
L 485.153889 210.656312 
L 487.508611 208.763035 
L 489.863333 206.883783 
L 492.218055 205.023906 
L 494.572777 203.188752 
L 496.927499 201.383668 
L 499.282221 199.614005 
L 501.636943 197.885109 
L 503.991665 196.202331 
L 506.346387 194.571017 
L 508.701109 192.996517 
L 511.055831 191.48418 
L 513.410553 190.039353 
L 515.765275 188.667384 
L 518.119997 187.373624 
L 520.474719 186.161968 
L 522.829441 185.028679 
L 525.184163 183.967516 
L 527.538885 182.972238 
L 529.893607 182.036604 
L 532.248329 181.154371 
L 534.603051 180.319298 
L 536.957773 179.525143 
L 539.312495 178.765665 
L 541.667217 178.034622 
L 544.021939 177.325773 
L 546.376661 176.632876 
L 548.731383 175.949689 
L 551.086105 175.269971 
L 553.440827 174.58748 
L 555.795549 173.895974 
L 558.150271 173.189213 
L 560.504993 172.460953 
L 562.859715 171.704955 
L 565.214437 170.914975 
L 567.569159 170.084773 
L 569.923881 169.208106 
L 572.278603 168.278734 
L 574.633325 167.290414 
L 576.988047 166.236906 
L 579.342769 165.111966 
L 581.697491 163.909355 
L 584.052213 162.623622 
L 586.406935 161.256772 
L 588.761657 159.814889 
L 591.116379 158.304102 
L 593.471101 156.730537 
L 595.825823 155.100322 
L 598.180545 153.419584 
L 600.535267 151.694452 
L 602.889989 149.931052 
L 605.24471 148.135511 
L 607.599432 146.313958 
L 609.954154 144.47252 
L 612.308876 142.617324 
L 614.663598 140.754498 
L 617.01832 138.890168 
L 619.373042 137.030464 
L 621.727764 135.181511 
L 624.082486 133.349438 
L 626.437208 131.540371 
L 628.79193 129.760439 
L 631.146652 128.015769 
L 633.501374 126.312489 
L 635.856096 124.656724 
L 638.210818 123.054605 
L 640.56554 121.512256 
L 642.920262 120.035807 
L 645.274984 118.631385 
L 647.629706 117.305095 
L 649.984428 116.062648 
L 652.33915 114.909401 
L 654.693872 113.8507 
L 657.048594 112.89189 
L 659.403316 112.038317 
L 661.758038 111.295326 
L 664.11276 110.668262 
L 666.467482 110.162471 
L 668.822204 109.783299 
L 671.176926 109.53609 
L 673.531648 109.42619 
L 675.88637 109.458945 
L 678.241092 109.6397 
L 680.595814 109.973801 
L 682.950536 110.466592 
L 685.305258 111.123419 
L 687.65998 111.949629 
L 690.014702 112.950565 
L 692.369424 114.131574 
L 694.724146 115.498001 
L 697.078868 117.055191 
L 699.43359 118.80849 
L 701.788312 120.763244 
L 704.143034 122.924797 
L 706.497756 125.298495 
L 708.852478 127.889684 
L 711.2072 130.70354 
L 713.561922 133.737035 
L 715.916644 136.975405 
L 718.271366 140.402985 
L 720.626088 144.004108 
L 722.98081 147.763109 
L 725.335532 151.664322 
L 727.690254 155.692082 
L 730.044976 159.830722 
L 732.399698 164.064577 
L 734.75442 168.377981 
L 737.109142 172.755269 
L 739.463864 177.180774 
L 741.818586 181.638831 
L 744.173308 186.113774 
L 746.52803 190.589937 
L 748.882752 195.051655 
L 751.237474 199.483262 
L 753.592196 203.869091 
L 755.946918 208.193478 
L 758.30164 212.440756 
L 760.656362 216.59526 
L 763.011084 220.641324 
L 765.365806 224.563283 
L 767.720528 228.345469 
L 770.07525 231.972218 
L 772.429972 235.427865 
L 774.784694 238.696742 
L 777.139416 241.763185 
L 779.494138 244.611527 
L 781.84886 247.226103 
L 784.203582 249.591248 
L 786.558304 251.691294 
L 788.913026 253.510578 
L 791.267748 255.033432 
L 793.62247 256.244191 
L 795.977192 257.127189 
L 798.331914 257.666761 
L 800.686636 257.847241 
L 803.041358 257.652963 
L 805.39608 257.068261 
L 807.750802 256.077469 
L 810.105524 254.664922 
L 812.460246 252.814954 
L 814.814968 250.5119 
L 817.16969 247.740092 
L 819.524412 244.483867 
L 821.879134 240.727557 
L 824.233856 236.455498 
L 826.588578 231.652023 
L 828.9433 226.301466 
L 831.298022 220.388162 
L 833.652744 213.896446 
L 836.007466 206.810651 
L 838.362187 199.115111 
L 838.362187 116.635313 
L 838.362187 116.635313 
L 836.007466 116.635313 
L 833.652744 116.635313 
L 831.298022 116.635313 
L 828.9433 116.635313 
L 826.588578 116.635313 
L 824.233856 116.635313 
L 821.879134 116.635313 
L 819.524412 116.635313 
L 817.16969 116.635313 
L 814.814968 116.635313 
L 812.460246 116.635313 
L 810.105524 116.635313 
L 807.750802 116.635313 
L 805.39608 116.635313 
L 803.041358 116.635313 
L 800.686636 116.635313 
L 798.331914 116.635313 
L 795.977192 116.635313 
L 793.62247 116.635313 
L 791.267748 116.635313 
L 788.913026 116.635313 
L 786.558304 116.635313 
L 784.203582 116.635313 
L 781.84886 116.635313 
L 779.494138 116.635313 
L 777.139416 116.635313 
L 774.784694 116.635313 
L 772.429972 116.635313 
L 770.07525 116.635313 
L 767.720528 116.635313 
L 765.365806 116.635313 
L 763.011084 116.635313 
L 760.656362 116.635313 
L 758.30164 116.635313 
L 755.946918 116.635313 
L 753.592196 116.635313 
L 751.237474 116.635313 
L 748.882752 116.635313 
L 746.52803 116.635313 
L 744.173308 116.635313 
L 741.818586 116.635313 
L 739.463864 116.635313 
L 737.109142 116.635313 
L 734.75442 116.635313 
L 732.399698 116.635313 
L 730.044976 116.635313 
L 727.690254 116.635313 
L 725.335532 116.635313 
L 722.98081 116.635313 
L 720.626088 116.635313 
L 718.271366 116.635313 
L 715.916644 116.635313 
L 713.561922 116.635313 
L 711.2072 116.635313 
L 708.852478 116.635313 
L 706.497756 116.635313 
L 704.143034 116.635313 
L 701.788312 116.635313 
L 699.43359 116.635313 
L 697.078868 116.635313 
L 694.724146 116.635313 
L 692.369424 116.635313 
L 690.014702 116.635313 
L 687.65998 116.635313 
L 685.305258 116.635313 
L 682.950536 116.635313 
L 680.595814 116.635313 
L 678.241092 116.635313 
L 675.88637 116.635313 
L 673.531648 116.635313 
L 671.176926 116.635313 
L 668.822204 116.635313 
L 666.467482 116.635313 
L 664.11276 116.635313 
L 661.758038 116.635313 
L 659.403316 116.635313 
L 657.048594 116.635313 
L 654.693872 116.635313 
L 652.33915 116.635313 
L 649.984428 116.635313 
L 647.629706 116.635313 
L 645.274984 116.635313 
L 642.920262 116.635313 
L 640.56554 116.635313 
L 638.210818 116.635313 
L 635.856096 116.635313 
L 633.501374 116.635313 
L 631.146652 116.635313 
L 628.79193 116.635313 
L 626.437208 116.635313 
L 624.082486 116.635313 
L 621.727764 116.635313 
L 619.373042 116.635313 
L 617.01832 116.635313 
L 614.663598 116.635313 
L 612.308876 116.635313 
L 609.954154 116.635313 
L 607.599432 116.635313 
L 605.24471 116.635313 
L 602.889989 116.635313 
L 600.535267 116.635313 
L 598.180545 116.635313 
L 595.825823 116.635313 
L 593.471101 116.635313 
L 591.116379 116.635313 
L 588.761657 116.635313 
L 586.406935 116.635313 
L 584.052213 116.635313 
L 581.697491 116.635313 
L 579.342769 116.635313 
L 576.988047 116.635313 
L 574.633325 116.635313 
L 572.278603 116.635313 
L 569.923881 116.635313 
L 567.569159 116.635313 
L 565.214437 116.635313 
L 562.859715 116.635313 
L 560.504993 116.635313 
L 558.150271 116.635313 
L 555.795549 116.635313 
L 553.440827 116.635313 
L 551.086105 116.635313 
L 548.731383 116.635313 
L 546.376661 116.635313 
L 544.021939 116.635313 
L 541.667217 116.635313 
L 539.312495 116.635313 
L 536.957773 116.635313 
L 534.603051 116.635313 
L 532.248329 116.635313 
L 529.893607 116.635313 
L 527.538885 116.635313 
L 525.184163 116.635313 
L 522.829441 116.635313 
L 520.474719 116.635313 
L 518.119997 116.635313 
L 515.765275 116.635313 
L 513.410553 116.635313 
L 511.055831 116.635313 
L 508.701109 116.635313 
L 506.346387 116.635313 
L 503.991665 116.635313 
L 501.636943 116.635313 
L 499.282221 116.635313 
L 496.927499 116.635313 
L 494.572777 116.635313 
L 492.218055 116.635313 
L 489.863333 116.635313 
L 487.508611 116.635313 
L 485.153889 116.635313 
L 482.799167 116.635313 
L 480.444445 116.635313 
L 478.089723 116.635313 
L 475.735001 116.635313 
L 473.380279 116.635313 
L 471.025557 116.635313 
L 468.670835 116.635313 
L 466.316113 116.635313 
L 463.961391 116.635313 
L 461.606669 116.635313 
L 459.251947 116.635313 
L 456.897225 116.635313 
L 454.542503 116.635313 
L 452.187781 116.635313 
L 449.833059 116.635313 
L 447.478337 116.635313 
L 445.123615 116.635313 
L 442.768893 116.635313 
L 440.414171 116.635313 
L 438.059449 116.635313 
L 435.704727 116.635313 
L 433.350005 116.635313 
L 430.995283 116.635313 
L 428.640561 116.635313 
L 426.285839 116.635313 
L 423.931117 116.635313 
L 421.576395 116.635313 
L 419.221673 116.635313 
L 416.866951 116.635313 
L 414.512229 116.635313 
L 412.157507 116.635313 
L 409.802785 116.635313 
L 407.448063 116.635313 
L 405.093341 116.635313 
L 402.738619 116.635313 
L 400.383897 116.635313 
L 398.029175 116.635313 
L 395.674453 116.635313 
L 393.319731 116.635313 
L 390.965009 116.635313 
L 388.610287 116.635313 
L 386.255565 116.635313 
L 383.900843 116.635313 
L 381.546121 116.635313 
L 379.191399 116.635313 
L 376.836677 116.635313 
L 374.481955 116.635313 
L 372.127233 116.635313 
L 369.772511 116.635313 
L 367.41779 116.635313 
L 365.063068 116.635313 
L 362.708346 116.635313 
L 360.353624 116.635313 
L 357.998902 116.635313 
L 355.64418 116.635313 
L 353.289458 116.635313 
L 350.934736 116.635313 
L 348.580014 116.635313 
L 346.225292 116.635313 
L 343.87057 116.635313 
L 341.515848 116.635313 
L 339.161126 116.635313 
L 336.806404 116.635313 
L 334.451682 116.635313 
L 332.09696 116.635313 
L 329.742238 116.635313 
L 327.387516 116.635313 
L 325.032794 116.635313 
L 322.678072 116.635313 
L 320.32335 116.635313 
L 317.968628 116.635313 
L 315.613906 116.635313 
L 313.259184 116.635313 
L 310.904462 116.635313 
L 308.54974 116.635313 
L 306.195018 116.635313 
L 303.840296 116.635313 
L 301.485574 116.635313 
L 299.130852 116.635313 
L 296.77613 116.635313 
L 294.421408 116.635313 
L 292.066686 116.635313 
L 289.711964 116.635313 
L 287.357242 116.635313 
L 285.00252 116.635313 
L 282.647798 116.635313 
L 280.293076 116.635313 
L 277.938354 116.635313 
L 275.583632 116.635313 
L 273.22891 116.635313 
L 270.874188 116.635313 
L 268.519466 116.635313 
L 266.164744 116.635313 
L 263.810022 116.635313 
L 261.4553 116.635313 
L 259.100578 116.635313 
L 256.745856 116.635313 
L 254.391134 116.635313 
L 252.036412 116.635313 
L 249.68169 116.635313 
L 247.326968 116.635313 
L 244.972246 116.635313 
L 242.617524 116.635313 
L 240.262802 116.635313 
L 237.90808 116.635313 
L 235.553358 116.635313 
L 233.198636 116.635313 
L 230.843914 116.635313 
L 228.489192 116.635313 
L 226.13447 116.635313 
L 223.779748 116.635313 
L 221.425026 116.635313 
L 219.070304 116.635313 
L 216.715582 116.635313 
L 214.36086 116.635313 
L 212.006138 116.635313 
L 209.651416 116.635313 
L 207.296694 116.635313 
L 204.941972 116.635313 
L 202.58725 116.635313 
L 200.232528 116.635313 
L 197.877806 116.635313 
L 195.523084 116.635313 
L 193.168362 116.635313 
L 190.81364 116.635313 
L 188.458918 116.635313 
L 186.104196 116.635313 
L 183.749474 116.635313 
L 181.394752 116.635313 
L 179.04003 116.635313 
L 176.685308 116.635313 
L 174.330586 116.635313 
L 171.975864 116.635313 
L 169.621142 116.635313 
L 167.26642 116.635313 
L 164.911698 116.635313 
L 162.556976 116.635313 
L 160.202254 116.635313 
L 157.847532 116.635313 
L 155.49281 116.635313 
L 153.138088 116.635313 
L 150.783366 116.635313 
L 148.428644 116.635313 
L 146.073922 116.635313 
L 143.7192 116.635313 
L 141.364478 116.635313 
L 139.009756 116.635313 
L 136.655034 116.635313 
L 134.300312 116.635313 
z
" clip-path="url(#p61511be40b)" style="fill: #c7eae5"/>
   </g>
   <g id="matplotlib.axis_1">
    <g id="xtick_1">
     <g id="line2d_1">
      <path d="M 134.300312 509.95 
L 134.300312 89.4 
" clip-path="url(#p61511be40b)" style="fill: none; stroke: #ffffff; stroke-opacity: 0.3; stroke-width: 0.75; stroke-linecap: square"/>
     </g>
     <g id="line2d_2">
      <defs>
       <path id="m521a3ee3c7" d="M 0 0 
L 0 3.5 
" style="stroke: #000000; stroke-width: 0.8"/>
      </defs>
      <g>
       <use xlink:href="#m521a3ee3c7" x="134.300312" y="509.95" style="stroke: #000000; stroke-width: 0.8"/>
      </g>
     </g>
     <g id="text_1">
      <text style="font-weight: 600; font-size: 24px; font-family: 'Montserrat'; fill: #767676" transform="translate(140.875937 609.54125) rotate(-90)">2023-01</text>
     </g>
    </g>
    <g id="xtick_2">
     <g id="line2d_3">
      <path d="M 198.305937 509.95 
L 198.305937 89.4 
" clip-path="url(#p61511be40b)" style="fill: none; stroke: #ffffff; stroke-opacity: 0.3; stroke-width: 0.75; stroke-linecap: square"/>
     </g>
     <g id="line2d_4">
      <g>
       <use xlink:href="#m521a3ee3c7" x="198.305937" y="509.95" style="stroke: #000000; stroke-width: 0.8"/>
      </g>
     </g>
     <g id="text_2">
      <text style="font-weight: 600; font-size: 24px; font-family: 'Montserrat'; fill: #767676" transform="translate(204.881562 614.3675) rotate(-90)">2023-02</text>
     </g>
    </g>
    <g id="xtick_3">
     <g id="line2d_5">
      <path d="M 262.311562 509.95 
L 262.311562 89.4 
" clip-path="url(#p61511be40b)" style="fill: none; stroke: #ffffff; stroke-opacity: 0.3; stroke-width: 0.75; stroke-linecap: square"/>
     </g>
     <g id="line2d_6">
      <g>
       <use xlink:href="#m521a3ee3c7" x="262.311562" y="509.95" style="stroke: #000000; stroke-width: 0.8"/>
      </g>
     </g>
     <g id="text_3">
      <text style="font-weight: 600; font-size: 24px; font-family: 'Montserrat'; fill: #767676" transform="translate(268.887187 614.3675) rotate(-90)">2023-03</text>
     </g>
    </g>
    <g id="xtick_4">
     <g id="line2d_7">
      <path d="M 326.317187 509.95 
L 326.317187 89.4 
" clip-path="url(#p61511be40b)" style="fill: none; stroke: #ffffff; stroke-opacity: 0.3; stroke-width: 0.75; stroke-linecap: square"/>
     </g>
     <g id="line2d_8">
      <g>
       <use xlink:href="#m521a3ee3c7" x="326.317187" y="509.95" style="stroke: #000000; stroke-width: 0.8"/>
      </g>
     </g>
     <g id="text_4">
      <text style="font-weight: 600; font-size: 24px; font-family: 'Montserrat'; fill: #767676" transform="translate(332.892812 616.69625) rotate(-90)">2023-04</text>
     </g>
    </g>
    <g id="xtick_5">
     <g id="line2d_9">
      <path d="M 390.322812 509.95 
L 390.322812 89.4 
" clip-path="url(#p61511be40b)" style="fill: none; stroke: #ffffff; stroke-opacity: 0.3; stroke-width: 0.75; stroke-linecap: square"/>
     </g>
     <g id="line2d_10">
      <g>
       <use xlink:href="#m521a3ee3c7" x="390.322812" y="509.95" style="stroke: #000000; stroke-width: 0.8"/>
      </g>
     </g>
     <g id="text_5">
      <text style="font-weight: 600; font-size: 24px; font-family: 'Montserrat'; fill: #767676" transform="translate(396.898437 614.41625) rotate(-90)">2023-05</text>
     </g>
    </g>
    <g id="xtick_6">
     <g id="line2d_11">
      <path d="M 454.328437 509.95 
L 454.328437 89.4 
" clip-path="url(#p61511be40b)" style="fill: none; stroke: #ffffff; stroke-opacity: 0.3; stroke-width: 0.75; stroke-linecap: square"/>
     </g>
     <g id="line2d_12">
      <g>
       <use xlink:href="#m521a3ee3c7" x="454.328437" y="509.95" style="stroke: #000000; stroke-width: 0.8"/>
      </g>
     </g>
     <g id="text_6">
      <text style="font-weight: 600; font-size: 24px; font-family: 'Montserrat'; fill: #767676" transform="translate(460.904062 615.4475) rotate(-90)">2023-06</text>
     </g>
    </g>
    <g id="xtick_7">
     <g id="line2d_13">
      <path d="M 518.334062 509.95 
L 518.334062 89.4 
" clip-path="url(#p61511be40b)" style="fill: none; stroke: #ffffff; stroke-opacity: 0.3; stroke-width: 0.75; stroke-linecap: square"/>
     </g>
     <g id="line2d_14">
      <g>
       <use xlink:href="#m521a3ee3c7" x="518.334062" y="509.95" style="stroke: #000000; stroke-width: 0.8"/>
      </g>
     </g>
     <g id="text_7">
      <text style="font-weight: 600; font-size: 24px; font-family: 'Montserrat'; fill: #767676" transform="translate(524.909687 614.99) rotate(-90)">2023-07</text>
     </g>
    </g>
    <g id="xtick_8">
     <g id="line2d_15">
      <path d="M 582.339687 509.95 
L 582.339687 89.4 
" clip-path="url(#p61511be40b)" style="fill: none; stroke: #ffffff; stroke-opacity: 0.3; stroke-width: 0.75; stroke-linecap: square"/>
     </g>
     <g id="line2d_16">
      <g>
       <use xlink:href="#m521a3ee3c7" x="582.339687" y="509.95" style="stroke: #000000; stroke-width: 0.8"/>
      </g>
     </g>
     <g id="text_8">
      <text style="font-weight: 600; font-size: 24px; font-family: 'Montserrat'; fill: #767676" transform="translate(588.915312 616.0475) rotate(-90)">2023-08</text>
     </g>
    </g>
    <g id="xtick_9">
     <g id="line2d_17">
      <path d="M 646.345312 509.95 
L 646.345312 89.4 
" clip-path="url(#p61511be40b)" style="fill: none; stroke: #ffffff; stroke-opacity: 0.3; stroke-width: 0.75; stroke-linecap: square"/>
     </g>
     <g id="line2d_18">
      <g>
       <use xlink:href="#m521a3ee3c7" x="646.345312" y="509.95" style="stroke: #000000; stroke-width: 0.8"/>
      </g>
     </g>
     <g id="text_9">
      <text style="font-weight: 600; font-size: 24px; font-family: 'Montserrat'; fill: #767676" transform="translate(652.920937 615.4475) rotate(-90)">2023-09</text>
     </g>
    </g>
    <g id="xtick_10">
     <g id="line2d_19">
      <path d="M 710.350937 509.95 
L 710.350937 89.4 
" clip-path="url(#p61511be40b)" style="fill: none; stroke: #ffffff; stroke-opacity: 0.3; stroke-width: 0.75; stroke-linecap: square"/>
     </g>
     <g id="line2d_20">
      <g>
       <use xlink:href="#m521a3ee3c7" x="710.350937" y="509.95" style="stroke: #000000; stroke-width: 0.8"/>
      </g>
     </g>
     <g id="text_10">
      <text style="font-weight: 600; font-size: 24px; font-family: 'Montserrat'; fill: #767676" transform="translate(716.926562 609.54125) rotate(-90)">2023-10</text>
     </g>
    </g>
    <g id="xtick_11">
     <g id="line2d_21">
      <path d="M 774.356562 509.95 
L 774.356562 89.4 
" clip-path="url(#p61511be40b)" style="fill: none; stroke: #ffffff; stroke-opacity: 0.3; stroke-width: 0.75; stroke-linecap: square"/>
     </g>
     <g id="line2d_22">
      <g>
       <use xlink:href="#m521a3ee3c7" x="774.356562" y="509.95" style="stroke: #000000; stroke-width: 0.8"/>
      </g>
     </g>
     <g id="text_11">
      <text style="font-weight: 600; font-size: 24px; font-family: 'Montserrat'; fill: #767676" transform="translate(780.932187 602.5325) rotate(-90)">2023-11</text>
     </g>
    </g>
    <g id="xtick_12">
     <g id="line2d_23">
      <path d="M 838.362187 509.95 
L 838.362187 89.4 
" clip-path="url(#p61511be40b)" style="fill: none; stroke: #ffffff; stroke-opacity: 0.3; stroke-width: 0.75; stroke-linecap: square"/>
     </g>
     <g id="line2d_24">
      <g>
       <use xlink:href="#m521a3ee3c7" x="838.362187" y="509.95" style="stroke: #000000; stroke-width: 0.8"/>
      </g>
     </g>
     <g id="text_12">
      <text style="font-weight: 600; font-size: 24px; font-family: 'Montserrat'; fill: #767676" transform="translate(844.937812 607.35875) rotate(-90)">2023-12</text>
     </g>
    </g>
    <g id="text_13">
     <text style="font-weight: 500; font-size: 24px; font-family: 'Montserrat'; text-anchor: middle" x="486.33125" y="638.505" transform="rotate(-0 486.33125 638.505)">Fecha</text>
    </g>
   </g>
   <g id="matplotlib.axis_2">
    <g id="ytick_1">
     <g id="line2d_25">
      <path d="M 102.2975 509.95 
L 870.365 509.95 
" clip-path="url(#p61511be40b)" style="fill: none; stroke: #ffffff; stroke-opacity: 0.8; stroke-width: 1.25; stroke-linecap: square"/>
     </g>
     <g id="line2d_26">
      <defs>
       <path id="md8d111e681" d="M 0 0 
L -3.5 0 
" style="stroke: #000000; stroke-width: 0.8"/>
      </defs>
      <g>
       <use xlink:href="#md8d111e681" x="102.2975" y="509.95" style="stroke: #000000; stroke-width: 0.8"/>
      </g>
     </g>
     <g id="text_14">
      <text style="font-weight: 500; font-size: 24px; font-family: 'Montserrat'; text-anchor: end; fill: #767676" x="95.2975" y="518.854375" transform="rotate(-0 95.2975 518.854375)">0%</text>
     </g>
    </g>
    <g id="ytick_2">
     <g id="line2d_27">
      <path d="M 102.2975 411.621328 
L 870.365 411.621328 
" clip-path="url(#p61511be40b)" style="fill: none; stroke: #ffffff; stroke-opacity: 0.8; stroke-width: 1.25; stroke-linecap: square"/>
     </g>
     <g id="line2d_28">
      <g>
       <use xlink:href="#md8d111e681" x="102.2975" y="411.621328" style="stroke: #000000; stroke-width: 0.8"/>
      </g>
     </g>
     <g id="text_15">
      <text style="font-weight: 500; font-size: 24px; font-family: 'Montserrat'; text-anchor: end; fill: #767676" x="95.2975" y="420.525703" transform="rotate(-0 95.2975 420.525703)">25%</text>
     </g>
    </g>
    <g id="ytick_3">
     <g id="line2d_29">
      <path d="M 102.2975 313.292657 
L 870.365 313.292657 
" clip-path="url(#p61511be40b)" style="fill: none; stroke: #ffffff; stroke-opacity: 0.8; stroke-width: 1.25; stroke-linecap: square"/>
     </g>
     <g id="line2d_30">
      <g>
       <use xlink:href="#md8d111e681" x="102.2975" y="313.292657" style="stroke: #000000; stroke-width: 0.8"/>
      </g>
     </g>
     <g id="text_16">
      <text style="font-weight: 500; font-size: 24px; font-family: 'Montserrat'; text-anchor: end; fill: #767676" x="95.2975" y="322.197032" transform="rotate(-0 95.2975 322.197032)">50%</text>
     </g>
    </g>
    <g id="ytick_4">
     <g id="line2d_31">
      <path d="M 102.2975 214.963985 
L 870.365 214.963985 
" clip-path="url(#p61511be40b)" style="fill: none; stroke: #ffffff; stroke-opacity: 0.8; stroke-width: 1.25; stroke-linecap: square"/>
     </g>
     <g id="line2d_32">
      <g>
       <use xlink:href="#md8d111e681" x="102.2975" y="214.963985" style="stroke: #000000; stroke-width: 0.8"/>
      </g>
     </g>
     <g id="text_17">
      <text style="font-weight: 500; font-size: 24px; font-family: 'Montserrat'; text-anchor: end; fill: #767676" x="95.2975" y="223.86836" transform="rotate(-0 95.2975 223.86836)">75%</text>
     </g>
    </g>
    <g id="ytick_5">
     <g id="line2d_33">
      <path d="M 102.2975 116.635313 
L 870.365 116.635313 
" clip-path="url(#p61511be40b)" style="fill: none; stroke: #ffffff; stroke-opacity: 0.8; stroke-width: 1.25; stroke-linecap: square"/>
     </g>
     <g id="line2d_34">
      <g>
       <use xlink:href="#md8d111e681" x="102.2975" y="116.635313" style="stroke: #000000; stroke-width: 0.8"/>
      </g>
     </g>
     <g id="text_18">
      <text style="font-weight: 500; font-size: 24px; font-family: 'Montserrat'; text-anchor: end; fill: #767676" x="95.2975" y="125.539688" transform="rotate(-0 95.2975 125.539688)">100%</text>
     </g>
    </g>
    <g id="text_19">
     <text style="font-weight: 500; font-size: 24px; font-family: 'Montserrat'; text-anchor: middle" x="25.36875" y="299.675" transform="rotate(-90 25.36875 299.675)">Porcentaje</text>
    </g>
   </g>
   <g id="patch_3">
    <path d="M 102.2975 509.95 
L 870.365 509.95 
" style="fill: none; stroke: #000000; stroke-width: 2; stroke-linejoin: miter; stroke-linecap: square"/>
   </g>
   <g id="text_20">
    <g id="patch_4">
     <path d="M 121.428437 472.313734 
L 147.172188 472.313734 
Q 167.172188 472.313734 167.172188 452.313734 
L 167.172188 449.591859 
Q 167.172188 429.591859 147.172188 429.591859 
L 121.428437 429.591859 
Q 101.428437 429.591859 101.428437 449.591859 
L 101.428437 452.313734 
Q 101.428437 472.313734 121.428437 472.313734 
z
" style="fill: #ffffff; stroke: #d9d9d9; stroke-width: 1.8; stroke-linejoin: miter"/>
    </g>
    <text style="font-weight: 500; font-size: 20px; font-family: 'Montserrat'; text-anchor: middle; fill: #10302c" x="134.300312" y="456.432484" transform="rotate(-0 134.300312 456.432484)">4.92</text>
   </g>
   <g id="text_21">
    <g id="patch_5">
     <path d="M 473.220312 334.653594 
L 499.442187 334.653594 
Q 519.442187 334.653594 519.442187 314.653594 
L 519.442187 311.931719 
Q 519.442187 291.931719 499.442187 291.931719 
L 473.220312 291.931719 
Q 453.220312 291.931719 453.220312 311.931719 
L 453.220312 314.653594 
Q 453.220312 334.653594 473.220312 334.653594 
z
" style="fill: #ffffff; stroke: #d9d9d9; stroke-width: 1.8; stroke-linejoin: miter"/>
    </g>
    <text style="font-weight: 500; font-size: 20px; font-family: 'Montserrat'; text-anchor: middle; fill: #10302c" x="486.33125" y="318.772344" transform="rotate(-0 486.33125 318.772344)">4.67</text>
   </g>
   <g id="text_22">
    <g id="patch_6">
     <path d="M 827.960625 196.993454 
L 848.76375 196.993454 
Q 868.76375 196.993454 868.76375 176.993454 
L 868.76375 174.271579 
Q 868.76375 154.271579 848.76375 154.271579 
L 827.960625 154.271579 
Q 807.960625 154.271579 807.960625 174.271579 
L 807.960625 176.993454 
Q 807.960625 196.993454 827.960625 196.993454 
z
" style="fill: #ffffff; stroke: #d9d9d9; stroke-width: 1.8; stroke-linejoin: miter"/>
    </g>
    <text style="font-weight: 500; font-size: 20px; font-family: 'Montserrat'; text-anchor: middle; fill: #10302c" x="838.362187" y="181.112204" transform="rotate(-0 838.362187 181.112204)">2.41</text>
   </g>
  </g>
  <g id="axes_2">
   <g id="patch_7">
    <path d="M 881.165 509.95 
L 1137.1875 509.95 
L 1137.1875 89.4 
L 881.165 89.4 
z
" style="fill: #ffffff"/>
   </g>
   <g id="patch_8">
    <path d="M 945.170625 509.95 
L 1073.181875 509.95 
L 1073.181875 253.440715 
L 945.170625 253.440715 
z
" clip-path="url(#pe286ceaeeb)" style="fill: #215f53; stroke: #ffffff; stroke-width: 0.5; stroke-linejoin: miter"/>
   </g>
   <g id="patch_9">
    <path d="M 945.170625 253.440715 
L 1073.181875 253.440715 
L 1073.181875 215.77419 
L 945.170625 215.77419 
z
" clip-path="url(#pe286ceaeeb)" style="fill: #7570b3; stroke: #ffffff; stroke-width: 0.5; stroke-linejoin: miter"/>
   </g>
   <g id="patch_10">
    <path d="M 945.170625 215.77419 
L 1073.181875 215.77419 
L 1073.181875 89.4 
L 945.170625 89.4 
z
" clip-path="url(#pe286ceaeeb)" style="fill: #c7eae5; stroke: #ffffff; stroke-width: 0.5; stroke-linejoin: miter"/>
   </g>
   <g id="matplotlib.axis_3"/>
   <g id="matplotlib.axis_4"/>
   <g id="text_23">
    <text style="font-weight: 500; font-size: 20px; font-family: 'Montserrat'; text-anchor: middle; fill: #ffffff" x="1009.17625" y="387.175045" transform="rotate(-0 1009.17625 387.175045)">61.0%</text>
   </g>
   <g id="text_24">
    <text style="font-weight: 500; font-size: 20px; font-family: 'Montserrat'; text-anchor: middle; fill: #ffffff" x="1009.17625" y="240.08714" transform="rotate(-0 1009.17625 240.08714)">9.0%</text>
   </g>
   <g id="text_25">
    <text style="font-weight: 500; font-size: 20px; font-family: 'Montserrat'; text-anchor: middle; fill: #ffffff" x="1009.17625" y="158.066783" transform="rotate(-0 1009.17625 158.066783)">30.0%</text>
   </g>
  </g>
  <g id="legend_1">
   <g id="patch_11">
    <path d="M 187.957031 41.460937 
L 247.957031 41.460937 
L 247.957031 20.460937 
L 187.957031 20.460937 
z
" style="fill: #215f53"/>
   </g>
   <g id="text_26">
    <text style="font-weight: 500; font-size: 30px; font-family: 'Montserrat'; text-anchor: start" x="271.957031" y="41.460937" transform="rotate(-0 271.957031 41.460937)">Comisiones</text>
   </g>
   <g id="patch_12">
    <path d="M 509.046094 41.460937 
L 569.046094 41.460937 
L 569.046094 20.460937 
L 509.046094 20.460937 
z
" style="fill: #7570b3"/>
   </g>
   <g id="text_27">
    <text style="font-weight: 500; font-size: 30px; font-family: 'Montserrat'; text-anchor: start" x="593.046094" y="41.460937" transform="rotate(-0 593.046094 41.460937)">Fiscalas</text>
   </g>
   <g id="patch_13">
    <path d="M 780.274219 41.460937 
L 840.274219 41.460937 
L 840.274219 20.460937 
L 780.274219 20.460937 
z
" style="fill: #c7eae5"/>
   </g>
   <g id="text_28">
    <text style="font-weight: 500; font-size: 30px; font-family: 'Montserrat'; text-anchor: start" x="864.274219" y="41.460937" transform="rotate(-0 864.274219 41.460937)">Portal</text>
   </g>
  </g>
 </g>
 <defs>
  <clipPath id="p61511be40b">
   <rect x="102.2975" y="89.4" width="768.0675" height="420.55"/>
  </clipPath>
  <clipPath id="pe286ceaeeb">
   <rect x="881.165" y="89.4" width="256.0225" height="420.55"/>
  </clipPath>
 </defs>
</svg>
