<?xml version="1.0" encoding="utf-8" standalone="no"?>
<!DOCTYPE svg PUBLIC "-//W3C//DTD SVG 1.1//EN"
  "http://www.w3.org/Graphics/SVG/1.1/DTD/svg11.dtd">
<svg xmlns:xlink="http://www.w3.org/1999/xlink" width="1144.3875pt" height="568.04625pt" viewBox="0 0 1144.3875 568.04625" xmlns="http://www.w3.org/2000/svg" version="1.1">
 <metadata>
  <rdf:RDF xmlns:dc="http://purl.org/dc/elements/1.1/" xmlns:cc="http://creativecommons.org/ns#" xmlns:rdf="http://www.w3.org/1999/02/22-rdf-syntax-ns#">
   <cc:Work>
    <dc:type rdf:resource="http://purl.org/dc/dcmitype/StillImage"/>
    <dc:date>2025-06-03T18:05:25.520928</dc:date>
    <dc:format>image/svg+xml</dc:format>
    <dc:creator>
     <cc:Agent>
      <dc:title>Matplotlib v3.10.1, https://matplotlib.org/</dc:title>
     </cc:Agent>
    </dc:creator>
   </cc:Work>
  </rdf:RDF>
 </metadata>
 <defs>
  <style type="text/css">*{stroke-linejoin: round; stroke-linecap: butt}</style>
 </defs>
 <g id="figure_1">
  <g id="patch_1">
   <path d="M 0 568.04625 
L 1144.3875 568.04625 
L 1144.3875 0 
L 0 0 
z
" style="fill: #ffffff"/>
  </g>
  <g id="axes_1">
   <g id="patch_2">
    <path d="M 102.2975 381.1 
L 870.365 381.1 
L 870.365 7.2 
L 102.2975 7.2 
z
" style="fill: #ffffff"/>
   </g>
   <g id="FillBetweenPolyCollection_1">
    <path d="M 134.300312 129.254995 
L 134.300312 381.1 
L 136.655034 381.1 
L 139.009756 381.1 
L 141.364478 381.1 
L 143.7192 381.1 
L 146.073922 381.1 
L 148.428644 381.1 
L 150.783366 381.1 
L 153.138088 381.1 
L 155.49281 381.1 
L 157.847532 381.1 
L 160.202254 381.1 
L 162.556976 381.1 
L 164.911698 381.1 
L 167.26642 381.1 
L 169.621142 381.1 
L 171.975864 381.1 
L 174.330586 381.1 
L 176.685308 381.1 
L 179.04003 381.1 
L 181.394752 381.1 
L 183.749474 381.1 
L 186.104196 381.1 
L 188.458918 381.1 
L 190.81364 381.1 
L 193.168362 381.1 
L 195.523084 381.1 
L 197.877806 381.1 
L 200.232528 381.1 
L 202.58725 381.1 
L 204.941972 381.1 
L 207.296694 381.1 
L 209.651416 381.1 
L 212.006138 381.1 
L 214.36086 381.1 
L 216.715582 381.1 
L 219.070304 381.1 
L 221.425026 381.1 
L 223.779748 381.1 
L 226.13447 381.1 
L 228.489192 381.1 
L 230.843914 381.1 
L 233.198636 381.1 
L 235.553358 381.1 
L 237.90808 381.1 
L 240.262802 381.1 
L 242.617524 381.1 
L 244.972246 381.1 
L 247.326968 381.1 
L 249.68169 381.1 
L 252.036412 381.1 
L 254.391134 381.1 
L 256.745856 381.1 
L 259.100578 381.1 
L 261.4553 381.1 
L 263.810022 381.1 
L 266.164744 381.1 
L 268.519466 381.1 
L 270.874188 381.1 
L 273.22891 381.1 
L 275.583632 381.1 
L 277.938354 381.1 
L 280.293076 381.1 
L 282.647798 381.1 
L 285.00252 381.1 
L 287.357242 381.1 
L 289.711964 381.1 
L 292.066686 381.1 
L 294.421408 381.1 
L 296.77613 381.1 
L 299.130852 381.1 
L 301.485574 381.1 
L 303.840296 381.1 
L 306.195018 381.1 
L 308.54974 381.1 
L 310.904462 381.1 
L 313.259184 381.1 
L 315.613906 381.1 
L 317.968628 381.1 
L 320.32335 381.1 
L 322.678072 381.1 
L 325.032794 381.1 
L 327.387516 381.1 
L 329.742238 381.1 
L 332.09696 381.1 
L 334.451682 381.1 
L 336.806404 381.1 
L 339.161126 381.1 
L 341.515848 381.1 
L 343.87057 381.1 
L 346.225292 381.1 
L 348.580014 381.1 
L 350.934736 381.1 
L 353.289458 381.1 
L 355.64418 381.1 
L 357.998902 381.1 
L 360.353624 381.1 
L 362.708346 381.1 
L 365.063068 381.1 
L 367.41779 381.1 
L 369.772511 381.1 
L 372.127233 381.1 
L 374.481955 381.1 
L 376.836677 381.1 
L 379.191399 381.1 
L 381.546121 381.1 
L 383.900843 381.1 
L 386.255565 381.1 
L 388.610287 381.1 
L 390.965009 381.1 
L 393.319731 381.1 
L 395.674453 381.1 
L 398.029175 381.1 
L 400.383897 381.1 
L 402.738619 381.1 
L 405.093341 381.1 
L 407.448063 381.1 
L 409.802785 381.1 
L 412.157507 381.1 
L 414.512229 381.1 
L 416.866951 381.1 
L 419.221673 381.1 
L 421.576395 381.1 
L 423.931117 381.1 
L 426.285839 381.1 
L 428.640561 381.1 
L 430.995283 381.1 
L 433.350005 381.1 
L 435.704727 381.1 
L 438.059449 381.1 
L 440.414171 381.1 
L 442.768893 381.1 
L 445.123615 381.1 
L 447.478337 381.1 
L 449.833059 381.1 
L 452.187781 381.1 
L 454.542503 381.1 
L 456.897225 381.1 
L 459.251947 381.1 
L 461.606669 381.1 
L 463.961391 381.1 
L 466.316113 381.1 
L 468.670835 381.1 
L 471.025557 381.1 
L 473.380279 381.1 
L 475.735001 381.1 
L 478.089723 381.1 
L 480.444445 381.1 
L 482.799167 381.1 
L 485.153889 381.1 
L 487.508611 381.1 
L 489.863333 381.1 
L 492.218055 381.1 
L 494.572777 381.1 
L 496.927499 381.1 
L 499.282221 381.1 
L 501.636943 381.1 
L 503.991665 381.1 
L 506.346387 381.1 
L 508.701109 381.1 
L 511.055831 381.1 
L 513.410553 381.1 
L 515.765275 381.1 
L 518.119997 381.1 
L 520.474719 381.1 
L 522.829441 381.1 
L 525.184163 381.1 
L 527.538885 381.1 
L 529.893607 381.1 
L 532.248329 381.1 
L 534.603051 381.1 
L 536.957773 381.1 
L 539.312495 381.1 
L 541.667217 381.1 
L 544.021939 381.1 
L 546.376661 381.1 
L 548.731383 381.1 
L 551.086105 381.1 
L 553.440827 381.1 
L 555.795549 381.1 
L 558.150271 381.1 
L 560.504993 381.1 
L 562.859715 381.1 
L 565.214437 381.1 
L 567.569159 381.1 
L 569.923881 381.1 
L 572.278603 381.1 
L 574.633325 381.1 
L 576.988047 381.1 
L 579.342769 381.1 
L 581.697491 381.1 
L 584.052213 381.1 
L 586.406935 381.1 
L 588.761657 381.1 
L 591.116379 381.1 
L 593.471101 381.1 
L 595.825823 381.1 
L 598.180545 381.1 
L 600.535267 381.1 
L 602.889989 381.1 
L 605.24471 381.1 
L 607.599432 381.1 
L 609.954154 381.1 
L 612.308876 381.1 
L 614.663598 381.1 
L 617.01832 381.1 
L 619.373042 381.1 
L 621.727764 381.1 
L 624.082486 381.1 
L 626.437208 381.1 
L 628.79193 381.1 
L 631.146652 381.1 
L 633.501374 381.1 
L 635.856096 381.1 
L 638.210818 381.1 
L 640.56554 381.1 
L 642.920262 381.1 
L 645.274984 381.1 
L 647.629706 381.1 
L 649.984428 381.1 
L 652.33915 381.1 
L 654.693872 381.1 
L 657.048594 381.1 
L 659.403316 381.1 
L 661.758038 381.1 
L 664.11276 381.1 
L 666.467482 381.1 
L 668.822204 381.1 
L 671.176926 381.1 
L 673.531648 381.1 
L 675.88637 381.1 
L 678.241092 381.1 
L 680.595814 381.1 
L 682.950536 381.1 
L 685.305258 381.1 
L 687.65998 381.1 
L 690.014702 381.1 
L 692.369424 381.1 
L 694.724146 381.1 
L 697.078868 381.1 
L 699.43359 381.1 
L 701.788312 381.1 
L 704.143034 381.1 
L 706.497756 381.1 
L 708.852478 381.1 
L 711.2072 381.1 
L 713.561922 381.1 
L 715.916644 381.1 
L 718.271366 381.1 
L 720.626088 381.1 
L 722.98081 381.1 
L 725.335532 381.1 
L 727.690254 381.1 
L 730.044976 381.1 
L 732.399698 381.1 
L 734.75442 381.1 
L 737.109142 381.1 
L 739.463864 381.1 
L 741.818586 381.1 
L 744.173308 381.1 
L 746.52803 381.1 
L 748.882752 381.1 
L 751.237474 381.1 
L 753.592196 381.1 
L 755.946918 381.1 
L 758.30164 381.1 
L 760.656362 381.1 
L 763.011084 381.1 
L 765.365806 381.1 
L 767.720528 381.1 
L 770.07525 381.1 
L 772.429972 381.1 
L 774.784694 381.1 
L 777.139416 381.1 
L 779.494138 381.1 
L 781.84886 381.1 
L 784.203582 381.1 
L 786.558304 381.1 
L 788.913026 381.1 
L 791.267748 381.1 
L 793.62247 381.1 
L 795.977192 381.1 
L 798.331914 381.1 
L 800.686636 381.1 
L 803.041358 381.1 
L 805.39608 381.1 
L 807.750802 381.1 
L 810.105524 381.1 
L 812.460246 381.1 
L 814.814968 381.1 
L 817.16969 381.1 
L 819.524412 381.1 
L 821.879134 381.1 
L 824.233856 381.1 
L 826.588578 381.1 
L 828.9433 381.1 
L 831.298022 381.1 
L 833.652744 381.1 
L 836.007466 381.1 
L 838.362187 381.1 
L 838.362187 175.49719 
L 838.362187 175.49719 
L 836.007466 187.145853 
L 833.652744 197.835136 
L 831.298022 207.594595 
L 828.9433 216.453788 
L 826.588578 224.442271 
L 824.233856 231.5896 
L 821.879134 237.925331 
L 819.524412 243.47902 
L 817.16969 248.280225 
L 814.814968 252.358502 
L 812.460246 255.743406 
L 810.105524 258.464494 
L 807.750802 260.551323 
L 805.39608 262.033449 
L 803.041358 262.940428 
L 800.686636 263.301817 
L 798.331914 263.147173 
L 795.977192 262.50605 
L 793.62247 261.408007 
L 791.267748 259.882598 
L 788.913026 257.959382 
L 786.558304 255.667913 
L 784.203582 253.037749 
L 781.84886 250.098445 
L 779.494138 246.879559 
L 777.139416 243.410645 
L 774.784694 239.721262 
L 772.429972 235.840965 
L 770.07525 231.799311 
L 767.720528 227.625856 
L 765.365806 223.350156 
L 763.011084 219.001767 
L 760.656362 214.610247 
L 758.30164 210.205151 
L 755.946918 205.816036 
L 753.592196 201.472459 
L 751.237474 197.203975 
L 748.882752 193.04014 
L 746.52803 189.010513 
L 744.173308 185.144648 
L 741.818586 181.472102 
L 739.463864 178.022431 
L 737.109142 174.825192 
L 734.75442 171.909942 
L 732.399698 169.306236 
L 730.044976 167.043631 
L 727.690254 165.151684 
L 725.335532 163.65995 
L 722.98081 162.597986 
L 720.626088 161.995349 
L 718.271366 161.881594 
L 715.916644 162.286279 
L 713.561922 163.23896 
L 711.2072 164.769192 
L 708.852478 166.903272 
L 706.497756 169.625105 
L 704.143034 172.888946 
L 701.788312 176.648446 
L 699.43359 180.857253 
L 697.078868 185.469017 
L 694.724146 190.437387 
L 692.369424 195.716011 
L 690.014702 201.258539 
L 687.65998 207.018621 
L 685.305258 212.949904 
L 682.950536 219.006039 
L 680.595814 225.140675 
L 678.241092 231.30746 
L 675.88637 237.460044 
L 673.531648 243.552075 
L 671.176926 249.537204 
L 668.822204 255.369078 
L 666.467482 261.001348 
L 664.11276 266.387662 
L 661.758038 271.481669 
L 659.403316 276.237019 
L 657.048594 280.607361 
L 654.693872 284.546344 
L 652.33915 288.007616 
L 649.984428 290.944828 
L 647.629706 293.311627 
L 645.274984 295.062994 
L 642.920262 296.192139 
L 640.56554 296.735328 
L 638.210818 296.731122 
L 635.856096 296.218082 
L 633.501374 295.234768 
L 631.146652 293.819742 
L 628.79193 292.011565 
L 626.437208 289.848797 
L 624.082486 287.37 
L 621.727764 284.613735 
L 619.373042 281.618563 
L 617.01832 278.423044 
L 614.663598 275.06574 
L 612.308876 271.585211 
L 609.954154 268.02002 
L 607.599432 264.408726 
L 605.24471 260.78989 
L 602.889989 257.202074 
L 600.535267 253.683839 
L 598.180545 250.273746 
L 595.825823 247.010355 
L 593.471101 243.932228 
L 591.116379 241.077925 
L 588.761657 238.486008 
L 586.406935 236.195038 
L 584.052213 234.243575 
L 581.697491 232.669947 
L 579.342769 231.489552 
L 576.988047 230.675952 
L 574.633325 230.198251 
L 572.278603 230.025556 
L 569.923881 230.126973 
L 567.569159 230.47161 
L 565.214437 231.02857 
L 562.859715 231.766962 
L 560.504993 232.655891 
L 558.150271 233.664464 
L 555.795549 234.761786 
L 553.440827 235.916964 
L 551.086105 237.099104 
L 548.731383 238.277313 
L 546.376661 239.420696 
L 544.021939 240.498359 
L 541.667217 241.47941 
L 539.312495 242.332954 
L 536.957773 243.028098 
L 534.603051 243.533947 
L 532.248329 243.819609 
L 529.893607 243.854188 
L 527.538885 243.606792 
L 525.184163 243.046526 
L 522.829441 242.142497 
L 520.474719 240.863811 
L 518.119997 239.179584 
L 515.765275 237.075332 
L 513.410553 234.586619 
L 511.055831 231.758523 
L 508.701109 228.636119 
L 506.346387 225.264487 
L 503.991665 221.688702 
L 501.636943 217.953842 
L 499.282221 214.104984 
L 496.927499 210.187205 
L 494.572777 206.245583 
L 492.218055 202.325194 
L 489.863333 198.471116 
L 487.508611 194.728426 
L 485.153889 191.1422 
L 482.799167 187.757517 
L 480.444445 184.619454 
L 478.089723 181.773087 
L 475.735001 179.263493 
L 473.380279 177.13575 
L 471.025557 175.434936 
L 468.670835 174.206126 
L 466.316113 173.494399 
L 463.961391 173.344831 
L 461.606669 173.802499 
L 459.251947 174.912482 
L 456.897225 176.719855 
L 454.542503 179.269697 
L 452.187781 182.593721 
L 449.833059 186.653343 
L 447.478337 191.386941 
L 445.123615 196.732878 
L 442.768893 202.629521 
L 440.414171 209.015233 
L 438.059449 215.828379 
L 435.704727 223.007324 
L 433.350005 230.490432 
L 430.995283 238.216068 
L 428.640561 246.122596 
L 426.285839 254.148382 
L 423.931117 262.231789 
L 421.576395 270.311182 
L 419.221673 278.324927 
L 416.866951 286.211387 
L 414.512229 293.908927 
L 412.157507 301.355912 
L 409.802785 308.490706 
L 407.448063 315.251674 
L 405.093341 321.577181 
L 402.738619 327.405591 
L 400.383897 332.675269 
L 398.029175 337.32458 
L 395.674453 341.291887 
L 393.319731 344.515556 
L 390.965009 346.933951 
L 388.610287 348.492339 
L 386.255565 349.200837 
L 383.900843 349.105094 
L 381.546121 348.251124 
L 379.191399 346.684942 
L 376.836677 344.45256 
L 374.481955 341.599993 
L 372.127233 338.173255 
L 369.772511 334.218359 
L 367.41779 329.781318 
L 365.063068 324.908148 
L 362.708346 319.644861 
L 360.353624 314.037472 
L 357.998902 308.131994 
L 355.64418 301.974441 
L 353.289458 295.610826 
L 350.934736 289.087164 
L 348.580014 282.449468 
L 346.225292 275.743752 
L 343.87057 269.01603 
L 341.515848 262.312316 
L 339.161126 255.678623 
L 336.806404 249.160965 
L 334.451682 242.805356 
L 332.09696 236.65781 
L 329.742238 230.76434 
L 327.387516 225.170961 
L 325.032794 219.92235 
L 322.678072 215.038133 
L 320.32335 210.515691 
L 317.968628 206.351631 
L 315.613906 202.542558 
L 313.259184 199.085079 
L 310.904462 195.975801 
L 308.54974 193.211329 
L 306.195018 190.788271 
L 303.840296 188.703233 
L 301.485574 186.95282 
L 299.130852 185.533641 
L 296.77613 184.4423 
L 294.421408 183.675405 
L 292.066686 183.229562 
L 289.711964 183.101376 
L 287.357242 183.287456 
L 285.00252 183.784407 
L 282.647798 184.588835 
L 280.293076 185.697347 
L 277.938354 187.10655 
L 275.583632 188.813049 
L 273.22891 190.813452 
L 270.874188 193.104364 
L 268.519466 195.682392 
L 266.164744 198.544143 
L 263.810022 201.686223 
L 261.4553 205.105065 
L 259.100578 208.788678 
L 256.745856 212.713022 
L 254.391134 216.853132 
L 252.036412 221.184042 
L 249.68169 225.680786 
L 247.326968 230.318398 
L 244.972246 235.071913 
L 242.617524 239.916364 
L 240.262802 244.826786 
L 237.90808 249.778213 
L 235.553358 254.745679 
L 233.198636 259.704219 
L 230.843914 264.628866 
L 228.489192 269.494655 
L 226.13447 274.27662 
L 223.779748 278.949795 
L 221.425026 283.489215 
L 219.070304 287.869913 
L 216.715582 292.066924 
L 214.36086 296.055282 
L 212.006138 299.81002 
L 209.651416 303.306175 
L 207.296694 306.518778 
L 204.941972 309.422866 
L 202.58725 311.993471 
L 200.232528 314.205628 
L 197.877806 316.034372 
L 195.523084 317.454736 
L 193.168362 318.441755 
L 190.81364 318.970462 
L 188.458918 319.015893 
L 186.104196 318.553081 
L 183.749474 317.55706 
L 181.394752 316.002865 
L 179.04003 313.86553 
L 176.685308 311.120088 
L 174.330586 307.741575 
L 171.975864 303.705024 
L 169.621142 298.98547 
L 167.26642 293.557947 
L 164.911698 287.397488 
L 162.556976 280.479129 
L 160.202254 272.777903 
L 157.847532 264.268844 
L 155.49281 254.926987 
L 153.138088 244.727367 
L 150.783366 233.645016 
L 148.428644 221.654969 
L 146.073922 208.732261 
L 143.7192 194.851926 
L 141.364478 179.988997 
L 139.009756 164.11851 
L 136.655034 147.215498 
L 134.300312 129.254995 
z
" clip-path="url(#p538ae3f0ff)" style="fill: #215f53"/>
   </g>
   <g id="FillBetweenPolyCollection_2">
    <path d="M 134.300312 117.508647 
L 134.300312 129.254995 
L 136.655034 147.215498 
L 139.009756 164.11851 
L 141.364478 179.988997 
L 143.7192 194.851926 
L 146.073922 208.732261 
L 148.428644 221.654969 
L 150.783366 233.645016 
L 153.138088 244.727367 
L 155.49281 254.926987 
L 157.847532 264.268844 
L 160.202254 272.777903 
L 162.556976 280.479129 
L 164.911698 287.397488 
L 167.26642 293.557947 
L 169.621142 298.98547 
L 171.975864 303.705024 
L 174.330586 307.741575 
L 176.685308 311.120088 
L 179.04003 313.86553 
L 181.394752 316.002865 
L 183.749474 317.55706 
L 186.104196 318.553081 
L 188.458918 319.015893 
L 190.81364 318.970462 
L 193.168362 318.441755 
L 195.523084 317.454736 
L 197.877806 316.034372 
L 200.232528 314.205628 
L 202.58725 311.993471 
L 204.941972 309.422866 
L 207.296694 306.518778 
L 209.651416 303.306175 
L 212.006138 299.81002 
L 214.36086 296.055282 
L 216.715582 292.066924 
L 219.070304 287.869913 
L 221.425026 283.489215 
L 223.779748 278.949795 
L 226.13447 274.27662 
L 228.489192 269.494655 
L 230.843914 264.628866 
L 233.198636 259.704219 
L 235.553358 254.745679 
L 237.90808 249.778213 
L 240.262802 244.826786 
L 242.617524 239.916364 
L 244.972246 235.071913 
L 247.326968 230.318398 
L 249.68169 225.680786 
L 252.036412 221.184042 
L 254.391134 216.853132 
L 256.745856 212.713022 
L 259.100578 208.788678 
L 261.4553 205.105065 
L 263.810022 201.686223 
L 266.164744 198.544143 
L 268.519466 195.682392 
L 270.874188 193.104364 
L 273.22891 190.813452 
L 275.583632 188.813049 
L 277.938354 187.10655 
L 280.293076 185.697347 
L 282.647798 184.588835 
L 285.00252 183.784407 
L 287.357242 183.287456 
L 289.711964 183.101376 
L 292.066686 183.229562 
L 294.421408 183.675405 
L 296.77613 184.4423 
L 299.130852 185.533641 
L 301.485574 186.95282 
L 303.840296 188.703233 
L 306.195018 190.788271 
L 308.54974 193.211329 
L 310.904462 195.975801 
L 313.259184 199.085079 
L 315.613906 202.542558 
L 317.968628 206.351631 
L 320.32335 210.515691 
L 322.678072 215.038133 
L 325.032794 219.92235 
L 327.387516 225.170961 
L 329.742238 230.76434 
L 332.09696 236.65781 
L 334.451682 242.805356 
L 336.806404 249.160965 
L 339.161126 255.678623 
L 341.515848 262.312316 
L 343.87057 269.01603 
L 346.225292 275.743752 
L 348.580014 282.449468 
L 350.934736 289.087164 
L 353.289458 295.610826 
L 355.64418 301.974441 
L 357.998902 308.131994 
L 360.353624 314.037472 
L 362.708346 319.644861 
L 365.063068 324.908148 
L 367.41779 329.781318 
L 369.772511 334.218359 
L 372.127233 338.173255 
L 374.481955 341.599993 
L 376.836677 344.45256 
L 379.191399 346.684942 
L 381.546121 348.251124 
L 383.900843 349.105094 
L 386.255565 349.200837 
L 388.610287 348.492339 
L 390.965009 346.933951 
L 393.319731 344.515556 
L 395.674453 341.291887 
L 398.029175 337.32458 
L 400.383897 332.675269 
L 402.738619 327.405591 
L 405.093341 321.577181 
L 407.448063 315.251674 
L 409.802785 308.490706 
L 412.157507 301.355912 
L 414.512229 293.908927 
L 416.866951 286.211387 
L 419.221673 278.324927 
L 421.576395 270.311182 
L 423.931117 262.231789 
L 426.285839 254.148382 
L 428.640561 246.122596 
L 430.995283 238.216068 
L 433.350005 230.490432 
L 435.704727 223.007324 
L 438.059449 215.828379 
L 440.414171 209.015233 
L 442.768893 202.629521 
L 445.123615 196.732878 
L 447.478337 191.386941 
L 449.833059 186.653343 
L 452.187781 182.593721 
L 454.542503 179.269697 
L 456.897225 176.719855 
L 459.251947 174.912482 
L 461.606669 173.802499 
L 463.961391 173.344831 
L 466.316113 173.494399 
L 468.670835 174.206126 
L 471.025557 175.434936 
L 473.380279 177.13575 
L 475.735001 179.263493 
L 478.089723 181.773087 
L 480.444445 184.619454 
L 482.799167 187.757517 
L 485.153889 191.1422 
L 487.508611 194.728426 
L 489.863333 198.471116 
L 492.218055 202.325194 
L 494.572777 206.245583 
L 496.927499 210.187205 
L 499.282221 214.104984 
L 501.636943 217.953842 
L 503.991665 221.688702 
L 506.346387 225.264487 
L 508.701109 228.636119 
L 511.055831 231.758523 
L 513.410553 234.586619 
L 515.765275 237.075332 
L 518.119997 239.179584 
L 520.474719 240.863811 
L 522.829441 242.142497 
L 525.184163 243.046526 
L 527.538885 243.606792 
L 529.893607 243.854188 
L 532.248329 243.819609 
L 534.603051 243.533947 
L 536.957773 243.028098 
L 539.312495 242.332954 
L 541.667217 241.47941 
L 544.021939 240.498359 
L 546.376661 239.420696 
L 548.731383 238.277313 
L 551.086105 237.099104 
L 553.440827 235.916964 
L 555.795549 234.761786 
L 558.150271 233.664464 
L 560.504993 232.655891 
L 562.859715 231.766962 
L 565.214437 231.02857 
L 567.569159 230.47161 
L 569.923881 230.126973 
L 572.278603 230.025556 
L 574.633325 230.198251 
L 576.988047 230.675952 
L 579.342769 231.489552 
L 581.697491 232.669947 
L 584.052213 234.243575 
L 586.406935 236.195038 
L 588.761657 238.486008 
L 591.116379 241.077925 
L 593.471101 243.932228 
L 595.825823 247.010355 
L 598.180545 250.273746 
L 600.535267 253.683839 
L 602.889989 257.202074 
L 605.24471 260.78989 
L 607.599432 264.408726 
L 609.954154 268.02002 
L 612.308876 271.585211 
L 614.663598 275.06574 
L 617.01832 278.423044 
L 619.373042 281.618563 
L 621.727764 284.613735 
L 624.082486 287.37 
L 626.437208 289.848797 
L 628.79193 292.011565 
L 631.146652 293.819742 
L 633.501374 295.234768 
L 635.856096 296.218082 
L 638.210818 296.731122 
L 640.56554 296.735328 
L 642.920262 296.192139 
L 645.274984 295.062994 
L 647.629706 293.311627 
L 649.984428 290.944828 
L 652.33915 288.007616 
L 654.693872 284.546344 
L 657.048594 280.607361 
L 659.403316 276.237019 
L 661.758038 271.481669 
L 664.11276 266.387662 
L 666.467482 261.001348 
L 668.822204 255.369078 
L 671.176926 249.537204 
L 673.531648 243.552075 
L 675.88637 237.460044 
L 678.241092 231.30746 
L 680.595814 225.140675 
L 682.950536 219.006039 
L 685.305258 212.949904 
L 687.65998 207.018621 
L 690.014702 201.258539 
L 692.369424 195.716011 
L 694.724146 190.437387 
L 697.078868 185.469017 
L 699.43359 180.857253 
L 701.788312 176.648446 
L 704.143034 172.888946 
L 706.497756 169.625105 
L 708.852478 166.903272 
L 711.2072 164.769192 
L 713.561922 163.23896 
L 715.916644 162.286279 
L 718.271366 161.881594 
L 720.626088 161.995349 
L 722.98081 162.597986 
L 725.335532 163.65995 
L 727.690254 165.151684 
L 730.044976 167.043631 
L 732.399698 169.306236 
L 734.75442 171.909942 
L 737.109142 174.825192 
L 739.463864 178.022431 
L 741.818586 181.472102 
L 744.173308 185.144648 
L 746.52803 189.010513 
L 748.882752 193.04014 
L 751.237474 197.203975 
L 753.592196 201.472459 
L 755.946918 205.816036 
L 758.30164 210.205151 
L 760.656362 214.610247 
L 763.011084 219.001767 
L 765.365806 223.350156 
L 767.720528 227.625856 
L 770.07525 231.799311 
L 772.429972 235.840965 
L 774.784694 239.721262 
L 777.139416 243.410645 
L 779.494138 246.879559 
L 781.84886 250.098445 
L 784.203582 253.037749 
L 786.558304 255.667913 
L 788.913026 257.959382 
L 791.267748 259.882598 
L 793.62247 261.408007 
L 795.977192 262.50605 
L 798.331914 263.147173 
L 800.686636 263.301817 
L 803.041358 262.940428 
L 805.39608 262.033449 
L 807.750802 260.551323 
L 810.105524 258.464494 
L 812.460246 255.743406 
L 814.814968 252.358502 
L 817.16969 248.280225 
L 819.524412 243.47902 
L 821.879134 237.925331 
L 824.233856 231.5896 
L 826.588578 224.442271 
L 828.9433 216.453788 
L 831.298022 207.594595 
L 833.652744 197.835136 
L 836.007466 187.145853 
L 838.362187 175.49719 
L 838.362187 125.936239 
L 838.362187 125.936239 
L 836.007466 127.134107 
L 833.652744 128.18263 
L 831.298022 129.085319 
L 828.9433 129.845685 
L 826.588578 130.467238 
L 824.233856 130.953489 
L 821.879134 131.307951 
L 819.524412 131.534132 
L 817.16969 131.635546 
L 814.814968 131.615702 
L 812.460246 131.478111 
L 810.105524 131.226285 
L 807.750802 130.863735 
L 805.39608 130.39397 
L 803.041358 129.820504 
L 800.686636 129.146846 
L 798.331914 128.376507 
L 795.977192 127.512998 
L 793.62247 126.559831 
L 791.267748 125.520517 
L 788.913026 124.398565 
L 786.558304 123.197488 
L 784.203582 121.920796 
L 781.84886 120.572001 
L 779.494138 119.154613 
L 777.139416 117.672143 
L 774.784694 116.128102 
L 772.429972 114.526002 
L 770.07525 112.869352 
L 767.720528 111.161665 
L 765.365806 109.406451 
L 763.011084 107.607221 
L 760.656362 105.767486 
L 758.30164 103.890758 
L 755.946918 101.980546 
L 753.592196 100.040363 
L 751.237474 98.073718 
L 748.882752 96.084124 
L 746.52803 94.07509 
L 744.173308 92.050129 
L 741.818586 90.01275 
L 739.463864 87.966466 
L 737.109142 85.914786 
L 734.75442 83.861223 
L 732.399698 81.809286 
L 730.044976 79.762487 
L 727.690254 77.724337 
L 725.335532 75.698347 
L 722.98081 73.688027 
L 720.626088 71.69689 
L 718.271366 69.728445 
L 715.916644 67.786204 
L 713.561922 65.873678 
L 711.2072 63.994377 
L 708.852478 62.151873 
L 706.497756 60.350508 
L 704.143034 58.595165 
L 701.788312 56.890739 
L 699.43359 55.242125 
L 697.078868 53.654217 
L 694.724146 52.131909 
L 692.369424 50.680095 
L 690.014702 49.303671 
L 687.65998 48.007531 
L 685.305258 46.796568 
L 682.950536 45.675678 
L 680.595814 44.649755 
L 678.241092 43.723694 
L 675.88637 42.902388 
L 673.531648 42.190733 
L 671.176926 41.593623 
L 668.822204 41.115952 
L 666.467482 40.762614 
L 664.11276 40.538505 
L 661.758038 40.448518 
L 659.403316 40.497548 
L 657.048594 40.690489 
L 654.693872 41.032237 
L 652.33915 41.527685 
L 649.984428 42.181727 
L 647.629706 42.999259 
L 645.274984 43.985009 
L 642.920262 45.138957 
L 640.56554 46.455733 
L 638.210818 47.929682 
L 635.856096 49.555148 
L 633.501374 51.326477 
L 631.146652 53.238014 
L 628.79193 55.284104 
L 626.437208 57.459091 
L 624.082486 59.757321 
L 621.727764 62.173138 
L 619.373042 64.700888 
L 617.01832 67.334915 
L 614.663598 70.069565 
L 612.308876 72.899182 
L 609.954154 75.818111 
L 607.599432 78.820698 
L 605.24471 81.901287 
L 602.889989 85.054223 
L 600.535267 88.273852 
L 598.180545 91.554518 
L 595.825823 94.890565 
L 593.471101 98.27634 
L 591.116379 101.706187 
L 588.761657 105.174451 
L 586.406935 108.675476 
L 584.052213 112.203609 
L 581.697491 115.753152 
L 579.342769 119.314314 
L 576.988047 122.869837 
L 574.633325 126.401664 
L 572.278603 129.89174 
L 569.923881 133.322011 
L 567.569159 136.674421 
L 565.214437 139.930915 
L 562.859715 143.073438 
L 560.504993 146.083935 
L 558.150271 148.94435 
L 555.795549 151.636629 
L 553.440827 154.142716 
L 551.086105 156.444555 
L 548.731383 158.524093 
L 546.376661 160.363274 
L 544.021939 161.944042 
L 541.667217 163.248342 
L 539.312495 164.25812 
L 536.957773 164.955319 
L 534.603051 165.321886 
L 532.248329 165.339764 
L 529.893607 164.990899 
L 527.538885 164.257236 
L 525.184163 163.120719 
L 522.829441 161.563292 
L 520.474719 159.566902 
L 518.119997 157.1135 
L 515.765275 154.197223 
L 513.410553 150.849393 
L 511.055831 147.1084 
L 508.701109 143.012636 
L 506.346387 138.600489 
L 503.991665 133.910351 
L 501.636943 128.980612 
L 499.282221 123.849661 
L 496.927499 118.55589 
L 494.572777 113.137688 
L 492.218055 107.633446 
L 489.863333 102.081554 
L 487.508611 96.520402 
L 485.153889 90.98838 
L 482.799167 85.523879 
L 480.444445 80.16529 
L 478.089723 74.951001 
L 475.735001 69.919405 
L 473.380279 65.10889 
L 471.025557 60.557847 
L 468.670835 56.304667 
L 466.316113 52.387739 
L 463.961391 48.845454 
L 461.606669 45.716202 
L 459.251947 43.038374 
L 456.897225 40.85036 
L 454.542503 39.190549 
L 452.187781 38.088069 
L 449.833059 37.523305 
L 447.478337 37.460672 
L 445.123615 37.864576 
L 442.768893 38.699423 
L 440.414171 39.929618 
L 438.059449 41.519567 
L 435.704727 43.433675 
L 433.350005 45.636349 
L 430.995283 48.091993 
L 428.640561 50.765013 
L 426.285839 53.619815 
L 423.931117 56.620804 
L 421.576395 59.732387 
L 419.221673 62.918969 
L 416.866951 66.144954 
L 414.512229 69.37475 
L 412.157507 72.572761 
L 409.802785 75.703394 
L 407.448063 78.731053 
L 405.093341 81.620145 
L 402.738619 84.335075 
L 400.383897 86.840248 
L 398.029175 89.10007 
L 395.674453 91.078948 
L 393.319731 92.741286 
L 390.965009 94.05149 
L 388.610287 94.97791 
L 386.255565 95.525967 
L 383.900843 95.72139 
L 381.546121 95.590116 
L 379.191399 95.158084 
L 376.836677 94.451232 
L 374.481955 93.495497 
L 372.127233 92.316817 
L 369.772511 90.941131 
L 367.41779 89.394375 
L 365.063068 87.702488 
L 362.708346 85.891409 
L 360.353624 83.987073 
L 357.998902 82.015421 
L 355.64418 80.002388 
L 353.289458 77.973914 
L 350.934736 75.955936 
L 348.580014 73.974392 
L 346.225292 72.05522 
L 343.87057 70.224357 
L 341.515848 68.507742 
L 339.161126 66.931313 
L 336.806404 65.521007 
L 334.451682 64.302762 
L 332.09696 63.302516 
L 329.742238 62.546207 
L 327.387516 62.059773 
L 325.032794 61.868049 
L 322.678072 61.975191 
L 320.32335 62.366991 
L 317.968628 63.028603 
L 315.613906 63.945181 
L 313.259184 65.101879 
L 310.904462 66.48385 
L 308.54974 68.076247 
L 306.195018 69.864225 
L 303.840296 71.832937 
L 301.485574 73.967538 
L 299.130852 76.253179 
L 296.77613 78.675017 
L 294.421408 81.218203 
L 292.066686 83.867892 
L 289.711964 86.609237 
L 287.357242 89.427393 
L 285.00252 92.307512 
L 282.647798 95.234749 
L 280.293076 98.194258 
L 277.938354 101.171191 
L 275.583632 104.150702 
L 273.22891 107.117947 
L 270.874188 110.058077 
L 268.519466 112.956247 
L 266.164744 115.79761 
L 263.810022 118.56732 
L 261.4553 121.250649 
L 259.100578 123.838574 
L 256.745856 126.330237 
L 254.391134 128.725406 
L 252.036412 131.02385 
L 249.68169 133.225338 
L 247.326968 135.329638 
L 244.972246 137.336519 
L 242.617524 139.245749 
L 240.262802 141.057098 
L 237.90808 142.770333 
L 235.553358 144.385224 
L 233.198636 145.901539 
L 230.843914 147.319047 
L 228.489192 148.637516 
L 226.13447 149.856716 
L 223.779748 150.976414 
L 221.425026 151.996379 
L 219.070304 152.91638 
L 216.715582 153.736186 
L 214.36086 154.455565 
L 212.006138 155.074286 
L 209.651416 155.592118 
L 207.296694 156.008829 
L 204.941972 156.324187 
L 202.58725 156.537962 
L 200.232528 156.649922 
L 197.877806 156.659836 
L 195.523084 156.567473 
L 193.168362 156.3726 
L 190.81364 156.074987 
L 188.458918 155.674402 
L 186.104196 155.170614 
L 183.749474 154.563392 
L 181.394752 153.852504 
L 179.04003 153.037719 
L 176.685308 152.118806 
L 174.330586 151.095533 
L 171.975864 149.967668 
L 169.621142 148.734981 
L 167.26642 147.39724 
L 164.911698 145.954214 
L 162.556976 144.405671 
L 160.202254 142.75138 
L 157.847532 140.99111 
L 155.49281 139.124629 
L 153.138088 137.151706 
L 150.783366 135.07211 
L 148.428644 132.885609 
L 146.073922 130.591972 
L 143.7192 128.190967 
L 141.364478 125.682364 
L 139.009756 123.06593 
L 136.655034 120.341435 
L 134.300312 117.508647 
z
" clip-path="url(#p538ae3f0ff)" style="fill: #7570b3"/>
   </g>
   <g id="FillBetweenPolyCollection_3">
    <path d="M 134.300312 25.004762 
L 134.300312 117.508647 
L 136.655034 120.341435 
L 139.009756 123.06593 
L 141.364478 125.682364 
L 143.7192 128.190967 
L 146.073922 130.591972 
L 148.428644 132.885609 
L 150.783366 135.07211 
L 153.138088 137.151706 
L 155.49281 139.124629 
L 157.847532 140.99111 
L 160.202254 142.75138 
L 162.556976 144.405671 
L 164.911698 145.954214 
L 167.26642 147.39724 
L 169.621142 148.734981 
L 171.975864 149.967668 
L 174.330586 151.095533 
L 176.685308 152.118806 
L 179.04003 153.037719 
L 181.394752 153.852504 
L 183.749474 154.563392 
L 186.104196 155.170614 
L 188.458918 155.674402 
L 190.81364 156.074987 
L 193.168362 156.3726 
L 195.523084 156.567473 
L 197.877806 156.659836 
L 200.232528 156.649922 
L 202.58725 156.537962 
L 204.941972 156.324187 
L 207.296694 156.008829 
L 209.651416 155.592118 
L 212.006138 155.074286 
L 214.36086 154.455565 
L 216.715582 153.736186 
L 219.070304 152.91638 
L 221.425026 151.996379 
L 223.779748 150.976414 
L 226.13447 149.856716 
L 228.489192 148.637516 
L 230.843914 147.319047 
L 233.198636 145.901539 
L 235.553358 144.385224 
L 237.90808 142.770333 
L 240.262802 141.057098 
L 242.617524 139.245749 
L 244.972246 137.336519 
L 247.326968 135.329638 
L 249.68169 133.225338 
L 252.036412 131.02385 
L 254.391134 128.725406 
L 256.745856 126.330237 
L 259.100578 123.838574 
L 261.4553 121.250649 
L 263.810022 118.56732 
L 266.164744 115.79761 
L 268.519466 112.956247 
L 270.874188 110.058077 
L 273.22891 107.117947 
L 275.583632 104.150702 
L 277.938354 101.171191 
L 280.293076 98.194258 
L 282.647798 95.234749 
L 285.00252 92.307512 
L 287.357242 89.427393 
L 289.711964 86.609237 
L 292.066686 83.867892 
L 294.421408 81.218203 
L 296.77613 78.675017 
L 299.130852 76.253179 
L 301.485574 73.967538 
L 303.840296 71.832937 
L 306.195018 69.864225 
L 308.54974 68.076247 
L 310.904462 66.48385 
L 313.259184 65.101879 
L 315.613906 63.945181 
L 317.968628 63.028603 
L 320.32335 62.366991 
L 322.678072 61.975191 
L 325.032794 61.868049 
L 327.387516 62.059773 
L 329.742238 62.546207 
L 332.09696 63.302516 
L 334.451682 64.302762 
L 336.806404 65.521007 
L 339.161126 66.931313 
L 341.515848 68.507742 
L 343.87057 70.224357 
L 346.225292 72.05522 
L 348.580014 73.974392 
L 350.934736 75.955936 
L 353.289458 77.973914 
L 355.64418 80.002388 
L 357.998902 82.015421 
L 360.353624 83.987073 
L 362.708346 85.891409 
L 365.063068 87.702488 
L 367.41779 89.394375 
L 369.772511 90.941131 
L 372.127233 92.316817 
L 374.481955 93.495497 
L 376.836677 94.451232 
L 379.191399 95.158084 
L 381.546121 95.590116 
L 383.900843 95.72139 
L 386.255565 95.525967 
L 388.610287 94.97791 
L 390.965009 94.05149 
L 393.319731 92.741286 
L 395.674453 91.078948 
L 398.029175 89.10007 
L 400.383897 86.840248 
L 402.738619 84.335075 
L 405.093341 81.620145 
L 407.448063 78.731053 
L 409.802785 75.703394 
L 412.157507 72.572761 
L 414.512229 69.37475 
L 416.866951 66.144954 
L 419.221673 62.918969 
L 421.576395 59.732387 
L 423.931117 56.620804 
L 426.285839 53.619815 
L 428.640561 50.765013 
L 430.995283 48.091993 
L 433.350005 45.636349 
L 435.704727 43.433675 
L 438.059449 41.519567 
L 440.414171 39.929618 
L 442.768893 38.699423 
L 445.123615 37.864576 
L 447.478337 37.460672 
L 449.833059 37.523305 
L 452.187781 38.088069 
L 454.542503 39.190549 
L 456.897225 40.85036 
L 459.251947 43.038374 
L 461.606669 45.716202 
L 463.961391 48.845454 
L 466.316113 52.387739 
L 468.670835 56.304667 
L 471.025557 60.557847 
L 473.380279 65.10889 
L 475.735001 69.919405 
L 478.089723 74.951001 
L 480.444445 80.16529 
L 482.799167 85.523879 
L 485.153889 90.98838 
L 487.508611 96.520402 
L 489.863333 102.081554 
L 492.218055 107.633446 
L 494.572777 113.137688 
L 496.927499 118.55589 
L 499.282221 123.849661 
L 501.636943 128.980612 
L 503.991665 133.910351 
L 506.346387 138.600489 
L 508.701109 143.012636 
L 511.055831 147.1084 
L 513.410553 150.849393 
L 515.765275 154.197223 
L 518.119997 157.1135 
L 520.474719 159.566902 
L 522.829441 161.563292 
L 525.184163 163.120719 
L 527.538885 164.257236 
L 529.893607 164.990899 
L 532.248329 165.339764 
L 534.603051 165.321886 
L 536.957773 164.955319 
L 539.312495 164.25812 
L 541.667217 163.248342 
L 544.021939 161.944042 
L 546.376661 160.363274 
L 548.731383 158.524093 
L 551.086105 156.444555 
L 553.440827 154.142716 
L 555.795549 151.636629 
L 558.150271 148.94435 
L 560.504993 146.083935 
L 562.859715 143.073438 
L 565.214437 139.930915 
L 567.569159 136.674421 
L 569.923881 133.322011 
L 572.278603 129.89174 
L 574.633325 126.401664 
L 576.988047 122.869837 
L 579.342769 119.314314 
L 581.697491 115.753152 
L 584.052213 112.203609 
L 586.406935 108.675476 
L 588.761657 105.174451 
L 591.116379 101.706187 
L 593.471101 98.27634 
L 595.825823 94.890565 
L 598.180545 91.554518 
L 600.535267 88.273852 
L 602.889989 85.054223 
L 605.24471 81.901287 
L 607.599432 78.820698 
L 609.954154 75.818111 
L 612.308876 72.899182 
L 614.663598 70.069565 
L 617.01832 67.334915 
L 619.373042 64.700888 
L 621.727764 62.173138 
L 624.082486 59.757321 
L 626.437208 57.459091 
L 628.79193 55.284104 
L 631.146652 53.238014 
L 633.501374 51.326477 
L 635.856096 49.555148 
L 638.210818 47.929682 
L 640.56554 46.455733 
L 642.920262 45.138957 
L 645.274984 43.985009 
L 647.629706 42.999259 
L 649.984428 42.181727 
L 652.33915 41.527685 
L 654.693872 41.032237 
L 657.048594 40.690489 
L 659.403316 40.497548 
L 661.758038 40.448518 
L 664.11276 40.538505 
L 666.467482 40.762614 
L 668.822204 41.115952 
L 671.176926 41.593623 
L 673.531648 42.190733 
L 675.88637 42.902388 
L 678.241092 43.723694 
L 680.595814 44.649755 
L 682.950536 45.675678 
L 685.305258 46.796568 
L 687.65998 48.007531 
L 690.014702 49.303671 
L 692.369424 50.680095 
L 694.724146 52.131909 
L 697.078868 53.654217 
L 699.43359 55.242125 
L 701.788312 56.890739 
L 704.143034 58.595165 
L 706.497756 60.350508 
L 708.852478 62.151873 
L 711.2072 63.994377 
L 713.561922 65.873678 
L 715.916644 67.786204 
L 718.271366 69.728445 
L 720.626088 71.69689 
L 722.98081 73.688027 
L 725.335532 75.698347 
L 727.690254 77.724337 
L 730.044976 79.762487 
L 732.399698 81.809286 
L 734.75442 83.861223 
L 737.109142 85.914786 
L 739.463864 87.966466 
L 741.818586 90.01275 
L 744.173308 92.050129 
L 746.52803 94.07509 
L 748.882752 96.084124 
L 751.237474 98.073718 
L 753.592196 100.040363 
L 755.946918 101.980546 
L 758.30164 103.890758 
L 760.656362 105.767486 
L 763.011084 107.607221 
L 765.365806 109.406451 
L 767.720528 111.161665 
L 770.07525 112.869352 
L 772.429972 114.526002 
L 774.784694 116.128102 
L 777.139416 117.672143 
L 779.494138 119.154613 
L 781.84886 120.572001 
L 784.203582 121.920796 
L 786.558304 123.197488 
L 788.913026 124.398565 
L 791.267748 125.520517 
L 793.62247 126.559831 
L 795.977192 127.512998 
L 798.331914 128.376507 
L 800.686636 129.146846 
L 803.041358 129.820504 
L 805.39608 130.39397 
L 807.750802 130.863735 
L 810.105524 131.226285 
L 812.460246 131.478111 
L 814.814968 131.615702 
L 817.16969 131.635546 
L 819.524412 131.534132 
L 821.879134 131.307951 
L 824.233856 130.953489 
L 826.588578 130.467238 
L 828.9433 129.845685 
L 831.298022 129.085319 
L 833.652744 128.18263 
L 836.007466 127.134107 
L 838.362187 125.936239 
L 838.362187 25.004762 
L 838.362187 25.004762 
L 836.007466 25.004762 
L 833.652744 25.004762 
L 831.298022 25.004762 
L 828.9433 25.004762 
L 826.588578 25.004762 
L 824.233856 25.004762 
L 821.879134 25.004762 
L 819.524412 25.004762 
L 817.16969 25.004762 
L 814.814968 25.004762 
L 812.460246 25.004762 
L 810.105524 25.004762 
L 807.750802 25.004762 
L 805.39608 25.004762 
L 803.041358 25.004762 
L 800.686636 25.004762 
L 798.331914 25.004762 
L 795.977192 25.004762 
L 793.62247 25.004762 
L 791.267748 25.004762 
L 788.913026 25.004762 
L 786.558304 25.004762 
L 784.203582 25.004762 
L 781.84886 25.004762 
L 779.494138 25.004762 
L 777.139416 25.004762 
L 774.784694 25.004762 
L 772.429972 25.004762 
L 770.07525 25.004762 
L 767.720528 25.004762 
L 765.365806 25.004762 
L 763.011084 25.004762 
L 760.656362 25.004762 
L 758.30164 25.004762 
L 755.946918 25.004762 
L 753.592196 25.004762 
L 751.237474 25.004762 
L 748.882752 25.004762 
L 746.52803 25.004762 
L 744.173308 25.004762 
L 741.818586 25.004762 
L 739.463864 25.004762 
L 737.109142 25.004762 
L 734.75442 25.004762 
L 732.399698 25.004762 
L 730.044976 25.004762 
L 727.690254 25.004762 
L 725.335532 25.004762 
L 722.98081 25.004762 
L 720.626088 25.004762 
L 718.271366 25.004762 
L 715.916644 25.004762 
L 713.561922 25.004762 
L 711.2072 25.004762 
L 708.852478 25.004762 
L 706.497756 25.004762 
L 704.143034 25.004762 
L 701.788312 25.004762 
L 699.43359 25.004762 
L 697.078868 25.004762 
L 694.724146 25.004762 
L 692.369424 25.004762 
L 690.014702 25.004762 
L 687.65998 25.004762 
L 685.305258 25.004762 
L 682.950536 25.004762 
L 680.595814 25.004762 
L 678.241092 25.004762 
L 675.88637 25.004762 
L 673.531648 25.004762 
L 671.176926 25.004762 
L 668.822204 25.004762 
L 666.467482 25.004762 
L 664.11276 25.004762 
L 661.758038 25.004762 
L 659.403316 25.004762 
L 657.048594 25.004762 
L 654.693872 25.004762 
L 652.33915 25.004762 
L 649.984428 25.004762 
L 647.629706 25.004762 
L 645.274984 25.004762 
L 642.920262 25.004762 
L 640.56554 25.004762 
L 638.210818 25.004762 
L 635.856096 25.004762 
L 633.501374 25.004762 
L 631.146652 25.004762 
L 628.79193 25.004762 
L 626.437208 25.004762 
L 624.082486 25.004762 
L 621.727764 25.004762 
L 619.373042 25.004762 
L 617.01832 25.004762 
L 614.663598 25.004762 
L 612.308876 25.004762 
L 609.954154 25.004762 
L 607.599432 25.004762 
L 605.24471 25.004762 
L 602.889989 25.004762 
L 600.535267 25.004762 
L 598.180545 25.004762 
L 595.825823 25.004762 
L 593.471101 25.004762 
L 591.116379 25.004762 
L 588.761657 25.004762 
L 586.406935 25.004762 
L 584.052213 25.004762 
L 581.697491 25.004762 
L 579.342769 25.004762 
L 576.988047 25.004762 
L 574.633325 25.004762 
L 572.278603 25.004762 
L 569.923881 25.004762 
L 567.569159 25.004762 
L 565.214437 25.004762 
L 562.859715 25.004762 
L 560.504993 25.004762 
L 558.150271 25.004762 
L 555.795549 25.004762 
L 553.440827 25.004762 
L 551.086105 25.004762 
L 548.731383 25.004762 
L 546.376661 25.004762 
L 544.021939 25.004762 
L 541.667217 25.004762 
L 539.312495 25.004762 
L 536.957773 25.004762 
L 534.603051 25.004762 
L 532.248329 25.004762 
L 529.893607 25.004762 
L 527.538885 25.004762 
L 525.184163 25.004762 
L 522.829441 25.004762 
L 520.474719 25.004762 
L 518.119997 25.004762 
L 515.765275 25.004762 
L 513.410553 25.004762 
L 511.055831 25.004762 
L 508.701109 25.004762 
L 506.346387 25.004762 
L 503.991665 25.004762 
L 501.636943 25.004762 
L 499.282221 25.004762 
L 496.927499 25.004762 
L 494.572777 25.004762 
L 492.218055 25.004762 
L 489.863333 25.004762 
L 487.508611 25.004762 
L 485.153889 25.004762 
L 482.799167 25.004762 
L 480.444445 25.004762 
L 478.089723 25.004762 
L 475.735001 25.004762 
L 473.380279 25.004762 
L 471.025557 25.004762 
L 468.670835 25.004762 
L 466.316113 25.004762 
L 463.961391 25.004762 
L 461.606669 25.004762 
L 459.251947 25.004762 
L 456.897225 25.004762 
L 454.542503 25.004762 
L 452.187781 25.004762 
L 449.833059 25.004762 
L 447.478337 25.004762 
L 445.123615 25.004762 
L 442.768893 25.004762 
L 440.414171 25.004762 
L 438.059449 25.004762 
L 435.704727 25.004762 
L 433.350005 25.004762 
L 430.995283 25.004762 
L 428.640561 25.004762 
L 426.285839 25.004762 
L 423.931117 25.004762 
L 421.576395 25.004762 
L 419.221673 25.004762 
L 416.866951 25.004762 
L 414.512229 25.004762 
L 412.157507 25.004762 
L 409.802785 25.004762 
L 407.448063 25.004762 
L 405.093341 25.004762 
L 402.738619 25.004762 
L 400.383897 25.004762 
L 398.029175 25.004762 
L 395.674453 25.004762 
L 393.319731 25.004762 
L 390.965009 25.004762 
L 388.610287 25.004762 
L 386.255565 25.004762 
L 383.900843 25.004762 
L 381.546121 25.004762 
L 379.191399 25.004762 
L 376.836677 25.004762 
L 374.481955 25.004762 
L 372.127233 25.004762 
L 369.772511 25.004762 
L 367.41779 25.004762 
L 365.063068 25.004762 
L 362.708346 25.004762 
L 360.353624 25.004762 
L 357.998902 25.004762 
L 355.64418 25.004762 
L 353.289458 25.004762 
L 350.934736 25.004762 
L 348.580014 25.004762 
L 346.225292 25.004762 
L 343.87057 25.004762 
L 341.515848 25.004762 
L 339.161126 25.004762 
L 336.806404 25.004762 
L 334.451682 25.004762 
L 332.09696 25.004762 
L 329.742238 25.004762 
L 327.387516 25.004762 
L 325.032794 25.004762 
L 322.678072 25.004762 
L 320.32335 25.004762 
L 317.968628 25.004762 
L 315.613906 25.004762 
L 313.259184 25.004762 
L 310.904462 25.004762 
L 308.54974 25.004762 
L 306.195018 25.004762 
L 303.840296 25.004762 
L 301.485574 25.004762 
L 299.130852 25.004762 
L 296.77613 25.004762 
L 294.421408 25.004762 
L 292.066686 25.004762 
L 289.711964 25.004762 
L 287.357242 25.004762 
L 285.00252 25.004762 
L 282.647798 25.004762 
L 280.293076 25.004762 
L 277.938354 25.004762 
L 275.583632 25.004762 
L 273.22891 25.004762 
L 270.874188 25.004762 
L 268.519466 25.004762 
L 266.164744 25.004762 
L 263.810022 25.004762 
L 261.4553 25.004762 
L 259.100578 25.004762 
L 256.745856 25.004762 
L 254.391134 25.004762 
L 252.036412 25.004762 
L 249.68169 25.004762 
L 247.326968 25.004762 
L 244.972246 25.004762 
L 242.617524 25.004762 
L 240.262802 25.004762 
L 237.90808 25.004762 
L 235.553358 25.004762 
L 233.198636 25.004762 
L 230.843914 25.004762 
L 228.489192 25.004762 
L 226.13447 25.004762 
L 223.779748 25.004762 
L 221.425026 25.004762 
L 219.070304 25.004762 
L 216.715582 25.004762 
L 214.36086 25.004762 
L 212.006138 25.004762 
L 209.651416 25.004762 
L 207.296694 25.004762 
L 204.941972 25.004762 
L 202.58725 25.004762 
L 200.232528 25.004762 
L 197.877806 25.004762 
L 195.523084 25.004762 
L 193.168362 25.004762 
L 190.81364 25.004762 
L 188.458918 25.004762 
L 186.104196 25.004762 
L 183.749474 25.004762 
L 181.394752 25.004762 
L 179.04003 25.004762 
L 176.685308 25.004762 
L 174.330586 25.004762 
L 171.975864 25.004762 
L 169.621142 25.004762 
L 167.26642 25.004762 
L 164.911698 25.004762 
L 162.556976 25.004762 
L 160.202254 25.004762 
L 157.847532 25.004762 
L 155.49281 25.004762 
L 153.138088 25.004762 
L 150.783366 25.004762 
L 148.428644 25.004762 
L 146.073922 25.004762 
L 143.7192 25.004762 
L 141.364478 25.004762 
L 139.009756 25.004762 
L 136.655034 25.004762 
L 134.300312 25.004762 
z
" clip-path="url(#p538ae3f0ff)" style="fill: #c7eae5"/>
   </g>
   <g id="matplotlib.axis_1">
    <g id="xtick_1">
     <g id="line2d_1">
      <path d="M 134.300312 381.1 
L 134.300312 7.2 
" clip-path="url(#p538ae3f0ff)" style="fill: none; stroke: #ffffff; stroke-opacity: 0.3; stroke-width: 0.75; stroke-linecap: square"/>
     </g>
     <g id="line2d_2">
      <defs>
       <path id="m7367aa3cc3" d="M 0 0 
L 0 3.5 
" style="stroke: #000000; stroke-width: 0.8"/>
      </defs>
      <g>
       <use xlink:href="#m7367aa3cc3" x="134.300312" y="381.1" style="stroke: #000000; stroke-width: 0.8"/>
      </g>
     </g>
     <g id="text_1">
      <text style="font-weight: 600; font-size: 24px; font-family: 'Montserrat'; fill: #767676" transform="translate(140.875937 515.225) rotate(-90)">01-01-2023</text>
     </g>
    </g>
    <g id="xtick_2">
     <g id="line2d_3">
      <path d="M 198.305937 381.1 
L 198.305937 7.2 
" clip-path="url(#p538ae3f0ff)" style="fill: none; stroke: #ffffff; stroke-opacity: 0.3; stroke-width: 0.75; stroke-linecap: square"/>
     </g>
     <g id="line2d_4">
      <g>
       <use xlink:href="#m7367aa3cc3" x="198.305937" y="381.1" style="stroke: #000000; stroke-width: 0.8"/>
      </g>
     </g>
     <g id="text_2">
      <text style="font-weight: 600; font-size: 24px; font-family: 'Montserrat'; fill: #767676" transform="translate(204.881562 520.05125) rotate(-90)">01-02-2023</text>
     </g>
    </g>
    <g id="xtick_3">
     <g id="line2d_5">
      <path d="M 262.311562 381.1 
L 262.311562 7.2 
" clip-path="url(#p538ae3f0ff)" style="fill: none; stroke: #ffffff; stroke-opacity: 0.3; stroke-width: 0.75; stroke-linecap: square"/>
     </g>
     <g id="line2d_6">
      <g>
       <use xlink:href="#m7367aa3cc3" x="262.311562" y="381.1" style="stroke: #000000; stroke-width: 0.8"/>
      </g>
     </g>
     <g id="text_3">
      <text style="font-weight: 600; font-size: 24px; font-family: 'Montserrat'; fill: #767676" transform="translate(268.887187 520.05125) rotate(-90)">01-03-2023</text>
     </g>
    </g>
    <g id="xtick_4">
     <g id="line2d_7">
      <path d="M 326.317187 381.1 
L 326.317187 7.2 
" clip-path="url(#p538ae3f0ff)" style="fill: none; stroke: #ffffff; stroke-opacity: 0.3; stroke-width: 0.75; stroke-linecap: square"/>
     </g>
     <g id="line2d_8">
      <g>
       <use xlink:href="#m7367aa3cc3" x="326.317187" y="381.1" style="stroke: #000000; stroke-width: 0.8"/>
      </g>
     </g>
     <g id="text_4">
      <text style="font-weight: 600; font-size: 24px; font-family: 'Montserrat'; fill: #767676" transform="translate(332.892812 522.38) rotate(-90)">01-04-2023</text>
     </g>
    </g>
    <g id="xtick_5">
     <g id="line2d_9">
      <path d="M 390.322812 381.1 
L 390.322812 7.2 
" clip-path="url(#p538ae3f0ff)" style="fill: none; stroke: #ffffff; stroke-opacity: 0.3; stroke-width: 0.75; stroke-linecap: square"/>
     </g>
     <g id="line2d_10">
      <g>
       <use xlink:href="#m7367aa3cc3" x="390.322812" y="381.1" style="stroke: #000000; stroke-width: 0.8"/>
      </g>
     </g>
     <g id="text_5">
      <text style="font-weight: 600; font-size: 24px; font-family: 'Montserrat'; fill: #767676" transform="translate(396.898437 520.1) rotate(-90)">01-05-2023</text>
     </g>
    </g>
    <g id="xtick_6">
     <g id="line2d_11">
      <path d="M 454.328437 381.1 
L 454.328437 7.2 
" clip-path="url(#p538ae3f0ff)" style="fill: none; stroke: #ffffff; stroke-opacity: 0.3; stroke-width: 0.75; stroke-linecap: square"/>
     </g>
     <g id="line2d_12">
      <g>
       <use xlink:href="#m7367aa3cc3" x="454.328437" y="381.1" style="stroke: #000000; stroke-width: 0.8"/>
      </g>
     </g>
     <g id="text_6">
      <text style="font-weight: 600; font-size: 24px; font-family: 'Montserrat'; fill: #767676" transform="translate(460.904062 521.13125) rotate(-90)">01-06-2023</text>
     </g>
    </g>
    <g id="xtick_7">
     <g id="line2d_13">
      <path d="M 518.334062 381.1 
L 518.334062 7.2 
" clip-path="url(#p538ae3f0ff)" style="fill: none; stroke: #ffffff; stroke-opacity: 0.3; stroke-width: 0.75; stroke-linecap: square"/>
     </g>
     <g id="line2d_14">
      <g>
       <use xlink:href="#m7367aa3cc3" x="518.334062" y="381.1" style="stroke: #000000; stroke-width: 0.8"/>
      </g>
     </g>
     <g id="text_7">
      <text style="font-weight: 600; font-size: 24px; font-family: 'Montserrat'; fill: #767676" transform="translate(524.909687 520.67375) rotate(-90)">01-07-2023</text>
     </g>
    </g>
    <g id="xtick_8">
     <g id="line2d_15">
      <path d="M 582.339687 381.1 
L 582.339687 7.2 
" clip-path="url(#p538ae3f0ff)" style="fill: none; stroke: #ffffff; stroke-opacity: 0.3; stroke-width: 0.75; stroke-linecap: square"/>
     </g>
     <g id="line2d_16">
      <g>
       <use xlink:href="#m7367aa3cc3" x="582.339687" y="381.1" style="stroke: #000000; stroke-width: 0.8"/>
      </g>
     </g>
     <g id="text_8">
      <text style="font-weight: 600; font-size: 24px; font-family: 'Montserrat'; fill: #767676" transform="translate(588.915312 521.73125) rotate(-90)">01-08-2023</text>
     </g>
    </g>
    <g id="xtick_9">
     <g id="line2d_17">
      <path d="M 646.345312 381.1 
L 646.345312 7.2 
" clip-path="url(#p538ae3f0ff)" style="fill: none; stroke: #ffffff; stroke-opacity: 0.3; stroke-width: 0.75; stroke-linecap: square"/>
     </g>
     <g id="line2d_18">
      <g>
       <use xlink:href="#m7367aa3cc3" x="646.345312" y="381.1" style="stroke: #000000; stroke-width: 0.8"/>
      </g>
     </g>
     <g id="text_9">
      <text style="font-weight: 600; font-size: 24px; font-family: 'Montserrat'; fill: #767676" transform="translate(652.920937 521.13125) rotate(-90)">01-09-2023</text>
     </g>
    </g>
    <g id="xtick_10">
     <g id="line2d_19">
      <path d="M 710.350937 381.1 
L 710.350937 7.2 
" clip-path="url(#p538ae3f0ff)" style="fill: none; stroke: #ffffff; stroke-opacity: 0.3; stroke-width: 0.75; stroke-linecap: square"/>
     </g>
     <g id="line2d_20">
      <g>
       <use xlink:href="#m7367aa3cc3" x="710.350937" y="381.1" style="stroke: #000000; stroke-width: 0.8"/>
      </g>
     </g>
     <g id="text_10">
      <text style="font-weight: 600; font-size: 24px; font-family: 'Montserrat'; fill: #767676" transform="translate(716.926562 515.225) rotate(-90)">01-10-2023</text>
     </g>
    </g>
    <g id="xtick_11">
     <g id="line2d_21">
      <path d="M 774.356562 381.1 
L 774.356562 7.2 
" clip-path="url(#p538ae3f0ff)" style="fill: none; stroke: #ffffff; stroke-opacity: 0.3; stroke-width: 0.75; stroke-linecap: square"/>
     </g>
     <g id="line2d_22">
      <g>
       <use xlink:href="#m7367aa3cc3" x="774.356562" y="381.1" style="stroke: #000000; stroke-width: 0.8"/>
      </g>
     </g>
     <g id="text_11">
      <text style="font-weight: 600; font-size: 24px; font-family: 'Montserrat'; fill: #767676" transform="translate(780.932187 508.21625) rotate(-90)">01-11-2023</text>
     </g>
    </g>
    <g id="xtick_12">
     <g id="line2d_23">
      <path d="M 838.362187 381.1 
L 838.362187 7.2 
" clip-path="url(#p538ae3f0ff)" style="fill: none; stroke: #ffffff; stroke-opacity: 0.3; stroke-width: 0.75; stroke-linecap: square"/>
     </g>
     <g id="line2d_24">
      <g>
       <use xlink:href="#m7367aa3cc3" x="838.362187" y="381.1" style="stroke: #000000; stroke-width: 0.8"/>
      </g>
     </g>
     <g id="text_12">
      <text style="font-weight: 600; font-size: 24px; font-family: 'Montserrat'; fill: #767676" transform="translate(844.937812 513.0425) rotate(-90)">01-12-2023</text>
     </g>
    </g>
    <g id="text_13">
     <text style="font-weight: 500; font-size: 24px; font-family: 'Montserrat'; text-anchor: middle" x="486.33125" y="556.18875" transform="rotate(-0 486.33125 556.18875)">Fecha</text>
    </g>
   </g>
   <g id="matplotlib.axis_2">
    <g id="ytick_1">
     <g id="line2d_25">
      <path d="M 102.2975 381.1 
L 870.365 381.1 
" clip-path="url(#p538ae3f0ff)" style="fill: none; stroke: #ffffff; stroke-opacity: 0.8; stroke-width: 1.25; stroke-linecap: square"/>
     </g>
     <g id="line2d_26">
      <defs>
       <path id="m3dde779071" d="M 0 0 
L -3.5 0 
" style="stroke: #000000; stroke-width: 0.8"/>
      </defs>
      <g>
       <use xlink:href="#m3dde779071" x="102.2975" y="381.1" style="stroke: #000000; stroke-width: 0.8"/>
      </g>
     </g>
     <g id="text_14">
      <text style="font-weight: 500; font-size: 24px; font-family: 'Montserrat'; text-anchor: end; fill: #767676" x="95.2975" y="390.004375" transform="rotate(-0 95.2975 390.004375)">0%</text>
     </g>
    </g>
    <g id="ytick_2">
     <g id="line2d_27">
      <path d="M 102.2975 292.07619 
L 870.365 292.07619 
" clip-path="url(#p538ae3f0ff)" style="fill: none; stroke: #ffffff; stroke-opacity: 0.8; stroke-width: 1.25; stroke-linecap: square"/>
     </g>
     <g id="line2d_28">
      <g>
       <use xlink:href="#m3dde779071" x="102.2975" y="292.07619" style="stroke: #000000; stroke-width: 0.8"/>
      </g>
     </g>
     <g id="text_15">
      <text style="font-weight: 500; font-size: 24px; font-family: 'Montserrat'; text-anchor: end; fill: #767676" x="95.2975" y="300.980565" transform="rotate(-0 95.2975 300.980565)">25%</text>
     </g>
    </g>
    <g id="ytick_3">
     <g id="line2d_29">
      <path d="M 102.2975 203.052381 
L 870.365 203.052381 
" clip-path="url(#p538ae3f0ff)" style="fill: none; stroke: #ffffff; stroke-opacity: 0.8; stroke-width: 1.25; stroke-linecap: square"/>
     </g>
     <g id="line2d_30">
      <g>
       <use xlink:href="#m3dde779071" x="102.2975" y="203.052381" style="stroke: #000000; stroke-width: 0.8"/>
      </g>
     </g>
     <g id="text_16">
      <text style="font-weight: 500; font-size: 24px; font-family: 'Montserrat'; text-anchor: end; fill: #767676" x="95.2975" y="211.956756" transform="rotate(-0 95.2975 211.956756)">50%</text>
     </g>
    </g>
    <g id="ytick_4">
     <g id="line2d_31">
      <path d="M 102.2975 114.028571 
L 870.365 114.028571 
" clip-path="url(#p538ae3f0ff)" style="fill: none; stroke: #ffffff; stroke-opacity: 0.8; stroke-width: 1.25; stroke-linecap: square"/>
     </g>
     <g id="line2d_32">
      <g>
       <use xlink:href="#m3dde779071" x="102.2975" y="114.028571" style="stroke: #000000; stroke-width: 0.8"/>
      </g>
     </g>
     <g id="text_17">
      <text style="font-weight: 500; font-size: 24px; font-family: 'Montserrat'; text-anchor: end; fill: #767676" x="95.2975" y="122.932946" transform="rotate(-0 95.2975 122.932946)">75%</text>
     </g>
    </g>
    <g id="ytick_5">
     <g id="line2d_33">
      <path d="M 102.2975 25.004762 
L 870.365 25.004762 
" clip-path="url(#p538ae3f0ff)" style="fill: none; stroke: #ffffff; stroke-opacity: 0.8; stroke-width: 1.25; stroke-linecap: square"/>
     </g>
     <g id="line2d_34">
      <g>
       <use xlink:href="#m3dde779071" x="102.2975" y="25.004762" style="stroke: #000000; stroke-width: 0.8"/>
      </g>
     </g>
     <g id="text_18">
      <text style="font-weight: 500; font-size: 24px; font-family: 'Montserrat'; text-anchor: end; fill: #767676" x="95.2975" y="33.909137" transform="rotate(-0 95.2975 33.909137)">100%</text>
     </g>
    </g>
    <g id="text_19">
     <text style="font-weight: 500; font-size: 24px; font-family: 'Montserrat'; text-anchor: middle" x="25.36875" y="194.15" transform="rotate(-90 25.36875 194.15)">Porcentaje</text>
    </g>
   </g>
   <g id="patch_3">
    <path d="M 102.2975 381.1 
L 870.365 381.1 
" style="fill: none; stroke: #000000; stroke-width: 2; stroke-linejoin: miter; stroke-linecap: square"/>
   </g>
   <g id="text_20">
    <g id="patch_4">
     <path d="M 188.874687 349.046652 
L 207.737187 349.046652 
Q 227.737187 349.046652 227.737187 329.046652 
L 227.737187 326.324777 
Q 227.737187 306.324777 207.737187 306.324777 
L 188.874687 306.324777 
Q 168.874687 306.324777 168.874687 326.324777 
L 168.874687 329.046652 
Q 168.874687 349.046652 188.874687 349.046652 
z
" style="fill: #ffffff; stroke: #215f53; stroke-width: 1.8; stroke-linejoin: miter"/>
    </g>
    <text style="font-weight: 500; font-size: 20px; font-family: 'Montserrat'; text-anchor: middle; fill: #767676" x="198.305937" y="333.165402" transform="rotate(-0 198.305937 333.165402)">5.13</text>
   </g>
   <g id="text_21">
    <g id="patch_5">
     <path d="M 475.95 224.413318 
L 496.7125 224.413318 
Q 516.7125 224.413318 516.7125 204.413318 
L 516.7125 201.691443 
Q 516.7125 181.691443 496.7125 181.691443 
L 475.95 181.691443 
Q 455.95 181.691443 455.95 201.691443 
L 455.95 204.413318 
Q 455.95 224.413318 475.95 224.413318 
z
" style="fill: #ffffff; stroke: #7570b3; stroke-width: 1.8; stroke-linejoin: miter"/>
    </g>
    <text style="font-weight: 500; font-size: 20px; font-family: 'Montserrat'; text-anchor: middle; fill: #767676" x="486.33125" y="208.532068" transform="rotate(-0 486.33125 208.532068)">4.31</text>
   </g>
   <g id="text_22">
    <g id="patch_6">
     <path d="M 762.434687 99.779985 
L 786.278437 99.779985 
Q 806.278437 99.779985 806.278437 79.779985 
L 806.278437 77.05811 
Q 806.278437 57.05811 786.278437 57.05811 
L 762.434687 57.05811 
Q 742.434687 57.05811 742.434687 77.05811 
L 742.434687 79.779985 
Q 742.434687 99.779985 762.434687 99.779985 
z
" style="fill: #ffffff; stroke: #c7eae5; stroke-width: 1.8; stroke-linejoin: miter"/>
    </g>
    <text style="font-weight: 500; font-size: 20px; font-family: 'Montserrat'; text-anchor: middle; fill: #767676" x="774.356562" y="83.898735" transform="rotate(-0 774.356562 83.898735)">2.56</text>
   </g>
  </g>
  <g id="axes_2">
   <g id="patch_7">
    <path d="M 881.165 381.1 
L 1137.1875 381.1 
L 1137.1875 7.2 
L 881.165 7.2 
z
" style="fill: #ffffff"/>
   </g>
   <g id="patch_8">
    <path d="M 945.170625 381.1 
L 1073.181875 381.1 
L 1073.181875 221.0708 
L 945.170625 221.0708 
z
" clip-path="url(#pe1d2d26fed)" style="fill: #215f53; stroke: #ffffff; stroke-width: 0.5; stroke-linejoin: miter"/>
   </g>
   <g id="patch_9">
    <path d="M 945.170625 221.0708 
L 1073.181875 221.0708 
L 1073.181875 86.8407 
L 945.170625 86.8407 
z
" clip-path="url(#pe1d2d26fed)" style="fill: #7570b3; stroke: #ffffff; stroke-width: 0.5; stroke-linejoin: miter"/>
   </g>
   <g id="patch_10">
    <path d="M 945.170625 86.8407 
L 1073.181875 86.8407 
L 1073.181875 7.2 
L 945.170625 7.2 
z
" clip-path="url(#pe1d2d26fed)" style="fill: #c7eae5; stroke: #ffffff; stroke-width: 0.5; stroke-linejoin: miter"/>
   </g>
   <g id="matplotlib.axis_3"/>
   <g id="matplotlib.axis_4"/>
   <g id="text_23">
    <text style="font-weight: 500; font-size: 20px; font-family: 'Montserrat'; text-anchor: middle; fill: #ffffff" x="1009.17625" y="306.565087" transform="rotate(-0 1009.17625 306.565087)">42.8%</text>
   </g>
   <g id="text_24">
    <text style="font-weight: 500; font-size: 20px; font-family: 'Montserrat'; text-anchor: middle; fill: #ffffff" x="1009.17625" y="159.435437" transform="rotate(-0 1009.17625 159.435437)">35.9%</text>
   </g>
   <g id="text_25">
    <text style="font-weight: 500; font-size: 20px; font-family: 'Montserrat'; text-anchor: middle; fill: #ffffff" x="1009.17625" y="52.500037" transform="rotate(-0 1009.17625 52.500037)">21.3%</text>
   </g>
  </g>
 </g>
 <defs>
  <clipPath id="p538ae3f0ff">
   <rect x="102.2975" y="7.2" width="768.0675" height="373.9"/>
  </clipPath>
  <clipPath id="pe1d2d26fed">
   <rect x="881.165" y="7.2" width="256.0225" height="373.9"/>
  </clipPath>
 </defs>
</svg>
