<?xml version="1.0" encoding="utf-8" standalone="no"?>
<!DOCTYPE svg PUBLIC "-//W3C//DTD SVG 1.1//EN"
  "http://www.w3.org/Graphics/SVG/1.1/DTD/svg11.dtd">
<svg xmlns:xlink="http://www.w3.org/1999/xlink" width="856.3875pt" height="609.92625pt" viewBox="0 0 856.3875 609.92625" xmlns="http://www.w3.org/2000/svg" version="1.1">
 <metadata>
  <rdf:RDF xmlns:dc="http://purl.org/dc/elements/1.1/" xmlns:cc="http://creativecommons.org/ns#" xmlns:rdf="http://www.w3.org/1999/02/22-rdf-syntax-ns#">
   <cc:Work>
    <dc:type rdf:resource="http://purl.org/dc/dcmitype/StillImage"/>
    <dc:date>2025-05-29T17:44:50.342344</dc:date>
    <dc:format>image/svg+xml</dc:format>
    <dc:creator>
     <cc:Agent>
      <dc:title>Matplotlib v3.10.1, https://matplotlib.org/</dc:title>
     </cc:Agent>
    </dc:creator>
   </cc:Work>
  </rdf:RDF>
 </metadata>
 <defs>
  <style type="text/css">*{stroke-linejoin: round; stroke-linecap: butt}</style>
 </defs>
 <g id="figure_1">
  <g id="patch_1">
   <path d="M 0 609.92625 
L 856.3875 609.92625 
L 856.3875 0 
L 0 0 
z
" style="fill: #ffffff"/>
  </g>
  <g id="axes_1">
   <g id="patch_2">
    <path d="M 102.2975 434.98 
L 849.1875 434.98 
L 849.1875 49.08 
L 102.2975 49.08 
z
" style="fill: #ffffff"/>
   </g>
   <g id="FillBetweenPolyCollection_1">
    <path d="M 133.417917 338.23566 
L 133.417917 434.98 
L 135.707713 434.98 
L 137.99751 434.98 
L 140.287306 434.98 
L 142.577103 434.98 
L 144.866899 434.98 
L 147.156696 434.98 
L 149.446492 434.98 
L 151.736289 434.98 
L 154.026086 434.98 
L 156.315882 434.98 
L 158.605679 434.98 
L 160.895475 434.98 
L 163.185272 434.98 
L 165.475068 434.98 
L 167.764865 434.98 
L 170.054661 434.98 
L 172.344458 434.98 
L 174.634254 434.98 
L 176.924051 434.98 
L 179.213848 434.98 
L 181.503644 434.98 
L 183.793441 434.98 
L 186.083237 434.98 
L 188.373034 434.98 
L 190.66283 434.98 
L 192.952627 434.98 
L 195.242423 434.98 
L 197.53222 434.98 
L 199.822016 434.98 
L 202.111813 434.98 
L 204.40161 434.98 
L 206.691406 434.98 
L 208.981203 434.98 
L 211.270999 434.98 
L 213.560796 434.98 
L 215.850592 434.98 
L 218.140389 434.98 
L 220.430185 434.98 
L 222.719982 434.98 
L 225.009778 434.98 
L 227.299575 434.98 
L 229.589372 434.98 
L 231.879168 434.98 
L 234.168965 434.98 
L 236.458761 434.98 
L 238.748558 434.98 
L 241.038354 434.98 
L 243.328151 434.98 
L 245.617947 434.98 
L 247.907744 434.98 
L 250.19754 434.98 
L 252.487337 434.98 
L 254.777134 434.98 
L 257.06693 434.98 
L 259.356727 434.98 
L 261.646523 434.98 
L 263.93632 434.98 
L 266.226116 434.98 
L 268.515913 434.98 
L 270.805709 434.98 
L 273.095506 434.98 
L 275.385302 434.98 
L 277.675099 434.98 
L 279.964895 434.98 
L 282.254692 434.98 
L 284.544489 434.98 
L 286.834285 434.98 
L 289.124082 434.98 
L 291.413878 434.98 
L 293.703675 434.98 
L 295.993471 434.98 
L 298.283268 434.98 
L 300.573064 434.98 
L 302.862861 434.98 
L 305.152657 434.98 
L 307.442454 434.98 
L 309.732251 434.98 
L 312.022047 434.98 
L 314.311844 434.98 
L 316.60164 434.98 
L 318.891437 434.98 
L 321.181233 434.98 
L 323.47103 434.98 
L 325.760826 434.98 
L 328.050623 434.98 
L 330.340419 434.98 
L 332.630216 434.98 
L 334.920013 434.98 
L 337.209809 434.98 
L 339.499606 434.98 
L 341.789402 434.98 
L 344.079199 434.98 
L 346.368995 434.98 
L 348.658792 434.98 
L 350.948588 434.98 
L 353.238385 434.98 
L 355.528181 434.98 
L 357.817978 434.98 
L 360.107775 434.98 
L 362.397571 434.98 
L 364.687368 434.98 
L 366.977164 434.98 
L 369.266961 434.98 
L 371.556757 434.98 
L 373.846554 434.98 
L 376.13635 434.98 
L 378.426147 434.98 
L 380.715943 434.98 
L 383.00574 434.98 
L 385.295537 434.98 
L 387.585333 434.98 
L 389.87513 434.98 
L 392.164926 434.98 
L 394.454723 434.98 
L 396.744519 434.98 
L 399.034316 434.98 
L 401.324112 434.98 
L 403.613909 434.98 
L 405.903705 434.98 
L 408.193502 434.98 
L 410.483298 434.98 
L 412.773095 434.98 
L 415.062892 434.98 
L 417.352688 434.98 
L 419.642485 434.98 
L 421.932281 434.98 
L 424.222078 434.98 
L 426.511874 434.98 
L 428.801671 434.98 
L 431.091467 434.98 
L 433.381264 434.98 
L 435.67106 434.98 
L 437.960857 434.98 
L 440.250654 434.98 
L 442.54045 434.98 
L 444.830247 434.98 
L 447.120043 434.98 
L 449.40984 434.98 
L 451.699636 434.98 
L 453.989433 434.98 
L 456.279229 434.98 
L 458.569026 434.98 
L 460.858822 434.98 
L 463.148619 434.98 
L 465.438416 434.98 
L 467.728212 434.98 
L 470.018009 434.98 
L 472.307805 434.98 
L 474.597602 434.98 
L 476.887398 434.98 
L 479.177195 434.98 
L 481.466991 434.98 
L 483.756788 434.98 
L 486.046584 434.98 
L 488.336381 434.98 
L 490.626178 434.98 
L 492.915974 434.98 
L 495.205771 434.98 
L 497.495567 434.98 
L 499.785364 434.98 
L 502.07516 434.98 
L 504.364957 434.98 
L 506.654753 434.98 
L 508.94455 434.98 
L 511.234346 434.98 
L 513.524143 434.98 
L 515.81394 434.98 
L 518.103736 434.98 
L 520.393533 434.98 
L 522.683329 434.98 
L 524.973126 434.98 
L 527.262922 434.98 
L 529.552719 434.98 
L 531.842515 434.98 
L 534.132312 434.98 
L 536.422108 434.98 
L 538.711905 434.98 
L 541.001702 434.98 
L 543.291498 434.98 
L 545.581295 434.98 
L 547.871091 434.98 
L 550.160888 434.98 
L 552.450684 434.98 
L 554.740481 434.98 
L 557.030277 434.98 
L 559.320074 434.98 
L 561.60987 434.98 
L 563.899667 434.98 
L 566.189463 434.98 
L 568.47926 434.98 
L 570.769057 434.98 
L 573.058853 434.98 
L 575.34865 434.98 
L 577.638446 434.98 
L 579.928243 434.98 
L 582.218039 434.98 
L 584.507836 434.98 
L 586.797632 434.98 
L 589.087429 434.98 
L 591.377225 434.98 
L 593.667022 434.98 
L 595.956819 434.98 
L 598.246615 434.98 
L 600.536412 434.98 
L 602.826208 434.98 
L 605.116005 434.98 
L 607.405801 434.98 
L 609.695598 434.98 
L 611.985394 434.98 
L 614.275191 434.98 
L 616.564987 434.98 
L 618.854784 434.98 
L 621.144581 434.98 
L 623.434377 434.98 
L 625.724174 434.98 
L 628.01397 434.98 
L 630.303767 434.98 
L 632.593563 434.98 
L 634.88336 434.98 
L 637.173156 434.98 
L 639.462953 434.98 
L 641.752749 434.98 
L 644.042546 434.98 
L 646.332343 434.98 
L 648.622139 434.98 
L 650.911936 434.98 
L 653.201732 434.98 
L 655.491529 434.98 
L 657.781325 434.98 
L 660.071122 434.98 
L 662.360918 434.98 
L 664.650715 434.98 
L 666.940511 434.98 
L 669.230308 434.98 
L 671.520105 434.98 
L 673.809901 434.98 
L 676.099698 434.98 
L 678.389494 434.98 
L 680.679291 434.98 
L 682.969087 434.98 
L 685.258884 434.98 
L 687.54868 434.98 
L 689.838477 434.98 
L 692.128273 434.98 
L 694.41807 434.98 
L 696.707866 434.98 
L 698.997663 434.98 
L 701.28746 434.98 
L 703.577256 434.98 
L 705.867053 434.98 
L 708.156849 434.98 
L 710.446646 434.98 
L 712.736442 434.98 
L 715.026239 434.98 
L 717.316035 434.98 
L 719.605832 434.98 
L 721.895628 434.98 
L 724.185425 434.98 
L 726.475222 434.98 
L 728.765018 434.98 
L 731.054815 434.98 
L 733.344611 434.98 
L 735.634408 434.98 
L 737.924204 434.98 
L 740.214001 434.98 
L 742.503797 434.98 
L 744.793594 434.98 
L 747.08339 434.98 
L 749.373187 434.98 
L 751.662984 434.98 
L 753.95278 434.98 
L 756.242577 434.98 
L 758.532373 434.98 
L 760.82217 434.98 
L 763.111966 434.98 
L 765.401763 434.98 
L 767.691559 434.98 
L 769.981356 434.98 
L 772.271152 434.98 
L 774.560949 434.98 
L 776.850746 434.98 
L 779.140542 434.98 
L 781.430339 434.98 
L 783.720135 434.98 
L 786.009932 434.98 
L 788.299728 434.98 
L 790.589525 434.98 
L 792.879321 434.98 
L 795.169118 434.98 
L 797.458914 434.98 
L 799.748711 434.98 
L 802.038508 434.98 
L 804.328304 434.98 
L 806.618101 434.98 
L 808.907897 434.98 
L 811.197694 434.98 
L 813.48749 434.98 
L 815.777287 434.98 
L 818.067083 434.98 
L 818.067083 237.040206 
L 818.067083 237.040206 
L 815.777287 225.635648 
L 813.48749 215.497139 
L 811.197694 206.584105 
L 808.907897 198.855976 
L 806.618101 192.272177 
L 804.328304 186.792137 
L 802.038508 182.375284 
L 799.748711 178.981045 
L 797.458914 176.568847 
L 795.169118 175.098119 
L 792.879321 174.528287 
L 790.589525 174.81878 
L 788.299728 175.929025 
L 786.009932 177.81845 
L 783.720135 180.446482 
L 781.430339 183.772549 
L 779.140542 187.756079 
L 776.850746 192.356499 
L 774.560949 197.533237 
L 772.271152 203.24572 
L 769.981356 209.453376 
L 767.691559 216.115633 
L 765.401763 223.191917 
L 763.111966 230.641658 
L 760.82217 238.424283 
L 758.532373 246.499218 
L 756.242577 254.825892 
L 753.95278 263.363732 
L 751.662984 272.072167 
L 749.373187 280.910622 
L 747.08339 289.838527 
L 744.793594 298.815309 
L 742.503797 307.800395 
L 740.214001 316.753213 
L 737.924204 325.633191 
L 735.634408 334.399756 
L 733.344611 343.012336 
L 731.054815 351.430358 
L 728.765018 359.61325 
L 726.475222 367.52044 
L 724.185425 375.111355 
L 721.895628 382.345423 
L 719.605832 389.182072 
L 717.316035 395.580729 
L 715.026239 401.500821 
L 712.736442 406.901777 
L 710.446646 411.743024 
L 708.156849 415.983989 
L 705.867053 419.584101 
L 703.577256 422.502786 
L 701.28746 424.699473 
L 698.997663 426.133588 
L 696.707866 426.764561 
L 694.41807 426.551818 
L 692.128273 425.458963 
L 689.838477 423.503908 
L 687.54868 420.742545 
L 685.258884 417.231543 
L 682.969087 413.027572 
L 680.679291 408.187303 
L 678.389494 402.767405 
L 676.099698 396.824549 
L 673.809901 390.415405 
L 671.520105 383.596642 
L 669.230308 376.424932 
L 666.940511 368.956944 
L 664.650715 361.249347 
L 662.360918 353.358813 
L 660.071122 345.342012 
L 657.781325 337.255613 
L 655.491529 329.156286 
L 653.201732 321.100702 
L 650.911936 313.145531 
L 648.622139 305.347443 
L 646.332343 297.763107 
L 644.042546 290.449195 
L 641.752749 283.462376 
L 639.462953 276.85932 
L 637.173156 270.696697 
L 634.88336 265.031178 
L 632.593563 259.919433 
L 630.303767 255.416915 
L 628.01397 251.544084 
L 625.724174 248.282002 
L 623.434377 245.609624 
L 621.144581 243.505909 
L 618.854784 241.949814 
L 616.564987 240.920298 
L 614.275191 240.396317 
L 611.985394 240.356829 
L 609.695598 240.780792 
L 607.405801 241.647163 
L 605.116005 242.934901 
L 602.826208 244.622962 
L 600.536412 246.690304 
L 598.246615 249.115885 
L 595.956819 251.878663 
L 593.667022 254.957594 
L 591.377225 258.331638 
L 589.087429 261.979751 
L 586.797632 265.88089 
L 584.507836 270.014014 
L 582.218039 274.358081 
L 579.928243 278.892047 
L 577.638446 283.59487 
L 575.34865 288.445509 
L 573.058853 293.42292 
L 570.769057 298.506061 
L 568.47926 303.673905 
L 566.189463 308.906854 
L 563.899667 314.187925 
L 561.60987 319.50041 
L 559.320074 324.827602 
L 557.030277 330.152795 
L 554.740481 335.459281 
L 552.450684 340.730354 
L 550.160888 345.949308 
L 547.871091 351.099434 
L 545.581295 356.164027 
L 543.291498 361.12638 
L 541.001702 365.969785 
L 538.711905 370.677537 
L 536.422108 375.232927 
L 534.132312 379.61925 
L 531.842515 383.819798 
L 529.552719 387.817865 
L 527.262922 391.596743 
L 524.973126 395.139727 
L 522.683329 398.430108 
L 520.393533 401.451181 
L 518.103736 404.186239 
L 515.81394 406.618574 
L 513.524143 408.731479 
L 511.234346 410.508249 
L 508.94455 411.932176 
L 506.654753 412.986556 
L 504.364957 413.658873 
L 502.07516 413.949393 
L 499.785364 413.860814 
L 497.495567 413.395832 
L 495.205771 412.557143 
L 492.915974 411.347443 
L 490.626178 409.76943 
L 488.336381 407.825799 
L 486.046584 405.519247 
L 483.756788 402.85247 
L 481.466991 399.828166 
L 479.177195 396.449029 
L 476.887398 392.717757 
L 474.597602 388.637046 
L 472.307805 384.209593 
L 470.018009 379.438094 
L 467.728212 374.325245 
L 465.438416 368.873743 
L 463.148619 363.086284 
L 460.858822 356.965565 
L 458.569026 350.514282 
L 456.279229 343.735132 
L 453.989433 336.630811 
L 451.699636 329.204015 
L 449.40984 321.457441 
L 447.120043 313.393786 
L 444.830247 305.015745 
L 442.54045 296.331036 
L 440.250654 287.373781 
L 437.960857 278.186759 
L 435.67106 268.812754 
L 433.381264 259.294548 
L 431.091467 249.674925 
L 428.801671 239.996668 
L 426.511874 230.302559 
L 424.222078 220.635382 
L 421.932281 211.037919 
L 419.642485 201.552955 
L 417.352688 192.223272 
L 415.062892 183.091654 
L 412.773095 174.200883 
L 410.483298 165.593742 
L 408.193502 157.313015 
L 405.903705 149.401484 
L 403.613909 141.901933 
L 401.324112 134.857145 
L 399.034316 128.309904 
L 396.744519 122.302991 
L 394.454723 116.87919 
L 392.164926 112.081285 
L 389.87513 107.952059 
L 387.585333 104.534293 
L 385.295537 101.870773 
L 383.00574 100.00428 
L 380.715943 98.972285 
L 378.426147 98.762336 
L 376.13635 99.334625 
L 373.846554 100.649066 
L 371.556757 102.665573 
L 369.266961 105.34406 
L 366.977164 108.64444 
L 364.687368 112.526627 
L 362.397571 116.950533 
L 360.107775 121.876074 
L 357.817978 127.263162 
L 355.528181 133.071711 
L 353.238385 139.261635 
L 350.948588 145.792846 
L 348.658792 152.625259 
L 346.368995 159.718788 
L 344.079199 167.033345 
L 341.789402 174.528845 
L 339.499606 182.165201 
L 337.209809 189.902326 
L 334.920013 197.700134 
L 332.630216 205.51854 
L 330.340419 213.317455 
L 328.050623 221.056794 
L 325.760826 228.696471 
L 323.47103 236.196398 
L 321.181233 243.51649 
L 318.891437 250.617716 
L 316.60164 257.480817 
L 314.311844 264.104101 
L 312.022047 270.486485 
L 309.732251 276.626883 
L 307.442454 282.524214 
L 305.152657 288.177393 
L 302.862861 293.585337 
L 300.573064 298.746962 
L 298.283268 303.661186 
L 295.993471 308.326923 
L 293.703675 312.743092 
L 291.413878 316.908607 
L 289.124082 320.822387 
L 286.834285 324.483347 
L 284.544489 327.890404 
L 282.254692 331.042474 
L 279.964895 333.938474 
L 277.675099 336.57732 
L 275.385302 338.957928 
L 273.095506 341.079216 
L 270.805709 342.9401 
L 268.515913 344.539496 
L 266.226116 345.87632 
L 263.93632 346.94949 
L 261.646523 347.757921 
L 259.356727 348.30053 
L 257.06693 348.576354 
L 254.777134 348.59028 
L 252.487337 348.355562 
L 250.19754 347.886099 
L 247.907744 347.195787 
L 245.617947 346.298524 
L 243.328151 345.208208 
L 241.038354 343.938737 
L 238.748558 342.504007 
L 236.458761 340.917917 
L 234.168965 339.194365 
L 231.879168 337.347247 
L 229.589372 335.390462 
L 227.299575 333.337906 
L 225.009778 331.203479 
L 222.719982 329.001077 
L 220.430185 326.744597 
L 218.140389 324.447939 
L 215.850592 322.124998 
L 213.560796 319.789673 
L 211.270999 317.455862 
L 208.981203 315.137461 
L 206.691406 312.848369 
L 204.40161 310.602483 
L 202.111813 308.413701 
L 199.822016 306.295921 
L 197.53222 304.263039 
L 195.242423 302.328954 
L 192.952627 300.507564 
L 190.66283 298.812765 
L 188.373034 297.258455 
L 186.083237 295.858533 
L 183.793441 294.626896 
L 181.503644 293.57744 
L 179.213848 292.724065 
L 176.924051 292.080667 
L 174.634254 291.661144 
L 172.344458 291.479395 
L 170.054661 291.549315 
L 167.764865 291.884803 
L 165.475068 292.499757 
L 163.185272 293.408074 
L 160.895475 294.623652 
L 158.605679 296.160389 
L 156.315882 298.032181 
L 154.026086 300.252927 
L 151.736289 302.836524 
L 149.446492 305.79687 
L 147.156696 309.147863 
L 144.866899 312.9034 
L 142.577103 317.077378 
L 140.287306 321.683696 
L 137.99751 326.73625 
L 135.707713 332.248939 
L 133.417917 338.23566 
z
" clip-path="url(#pbdc99655fe)" style="fill: #215f53"/>
   </g>
   <g id="FillBetweenPolyCollection_2">
    <path d="M 133.417917 212.965137 
L 133.417917 338.23566 
L 135.707713 332.248939 
L 137.99751 326.73625 
L 140.287306 321.683696 
L 142.577103 317.077378 
L 144.866899 312.9034 
L 147.156696 309.147863 
L 149.446492 305.79687 
L 151.736289 302.836524 
L 154.026086 300.252927 
L 156.315882 298.032181 
L 158.605679 296.160389 
L 160.895475 294.623652 
L 163.185272 293.408074 
L 165.475068 292.499757 
L 167.764865 291.884803 
L 170.054661 291.549315 
L 172.344458 291.479395 
L 174.634254 291.661144 
L 176.924051 292.080667 
L 179.213848 292.724065 
L 181.503644 293.57744 
L 183.793441 294.626896 
L 186.083237 295.858533 
L 188.373034 297.258455 
L 190.66283 298.812765 
L 192.952627 300.507564 
L 195.242423 302.328954 
L 197.53222 304.263039 
L 199.822016 306.295921 
L 202.111813 308.413701 
L 204.40161 310.602483 
L 206.691406 312.848369 
L 208.981203 315.137461 
L 211.270999 317.455862 
L 213.560796 319.789673 
L 215.850592 322.124998 
L 218.140389 324.447939 
L 220.430185 326.744597 
L 222.719982 329.001077 
L 225.009778 331.203479 
L 227.299575 333.337906 
L 229.589372 335.390462 
L 231.879168 337.347247 
L 234.168965 339.194365 
L 236.458761 340.917917 
L 238.748558 342.504007 
L 241.038354 343.938737 
L 243.328151 345.208208 
L 245.617947 346.298524 
L 247.907744 347.195787 
L 250.19754 347.886099 
L 252.487337 348.355562 
L 254.777134 348.59028 
L 257.06693 348.576354 
L 259.356727 348.30053 
L 261.646523 347.757921 
L 263.93632 346.94949 
L 266.226116 345.87632 
L 268.515913 344.539496 
L 270.805709 342.9401 
L 273.095506 341.079216 
L 275.385302 338.957928 
L 277.675099 336.57732 
L 279.964895 333.938474 
L 282.254692 331.042474 
L 284.544489 327.890404 
L 286.834285 324.483347 
L 289.124082 320.822387 
L 291.413878 316.908607 
L 293.703675 312.743092 
L 295.993471 308.326923 
L 298.283268 303.661186 
L 300.573064 298.746962 
L 302.862861 293.585337 
L 305.152657 288.177393 
L 307.442454 282.524214 
L 309.732251 276.626883 
L 312.022047 270.486485 
L 314.311844 264.104101 
L 316.60164 257.480817 
L 318.891437 250.617716 
L 321.181233 243.51649 
L 323.47103 236.196398 
L 325.760826 228.696471 
L 328.050623 221.056794 
L 330.340419 213.317455 
L 332.630216 205.51854 
L 334.920013 197.700134 
L 337.209809 189.902326 
L 339.499606 182.165201 
L 341.789402 174.528845 
L 344.079199 167.033345 
L 346.368995 159.718788 
L 348.658792 152.625259 
L 350.948588 145.792846 
L 353.238385 139.261635 
L 355.528181 133.071711 
L 357.817978 127.263162 
L 360.107775 121.876074 
L 362.397571 116.950533 
L 364.687368 112.526627 
L 366.977164 108.64444 
L 369.266961 105.34406 
L 371.556757 102.665573 
L 373.846554 100.649066 
L 376.13635 99.334625 
L 378.426147 98.762336 
L 380.715943 98.972285 
L 383.00574 100.00428 
L 385.295537 101.870773 
L 387.585333 104.534293 
L 389.87513 107.952059 
L 392.164926 112.081285 
L 394.454723 116.87919 
L 396.744519 122.302991 
L 399.034316 128.309904 
L 401.324112 134.857145 
L 403.613909 141.901933 
L 405.903705 149.401484 
L 408.193502 157.313015 
L 410.483298 165.593742 
L 412.773095 174.200883 
L 415.062892 183.091654 
L 417.352688 192.223272 
L 419.642485 201.552955 
L 421.932281 211.037919 
L 424.222078 220.635382 
L 426.511874 230.302559 
L 428.801671 239.996668 
L 431.091467 249.674925 
L 433.381264 259.294548 
L 435.67106 268.812754 
L 437.960857 278.186759 
L 440.250654 287.373781 
L 442.54045 296.331036 
L 444.830247 305.015745 
L 447.120043 313.393786 
L 449.40984 321.457441 
L 451.699636 329.204015 
L 453.989433 336.630811 
L 456.279229 343.735132 
L 458.569026 350.514282 
L 460.858822 356.965565 
L 463.148619 363.086284 
L 465.438416 368.873743 
L 467.728212 374.325245 
L 470.018009 379.438094 
L 472.307805 384.209593 
L 474.597602 388.637046 
L 476.887398 392.717757 
L 479.177195 396.449029 
L 481.466991 399.828166 
L 483.756788 402.85247 
L 486.046584 405.519247 
L 488.336381 407.825799 
L 490.626178 409.76943 
L 492.915974 411.347443 
L 495.205771 412.557143 
L 497.495567 413.395832 
L 499.785364 413.860814 
L 502.07516 413.949393 
L 504.364957 413.658873 
L 506.654753 412.986556 
L 508.94455 411.932176 
L 511.234346 410.508249 
L 513.524143 408.731479 
L 515.81394 406.618574 
L 518.103736 404.186239 
L 520.393533 401.451181 
L 522.683329 398.430108 
L 524.973126 395.139727 
L 527.262922 391.596743 
L 529.552719 387.817865 
L 531.842515 383.819798 
L 534.132312 379.61925 
L 536.422108 375.232927 
L 538.711905 370.677537 
L 541.001702 365.969785 
L 543.291498 361.12638 
L 545.581295 356.164027 
L 547.871091 351.099434 
L 550.160888 345.949308 
L 552.450684 340.730354 
L 554.740481 335.459281 
L 557.030277 330.152795 
L 559.320074 324.827602 
L 561.60987 319.50041 
L 563.899667 314.187925 
L 566.189463 308.906854 
L 568.47926 303.673905 
L 570.769057 298.506061 
L 573.058853 293.42292 
L 575.34865 288.445509 
L 577.638446 283.59487 
L 579.928243 278.892047 
L 582.218039 274.358081 
L 584.507836 270.014014 
L 586.797632 265.88089 
L 589.087429 261.979751 
L 591.377225 258.331638 
L 593.667022 254.957594 
L 595.956819 251.878663 
L 598.246615 249.115885 
L 600.536412 246.690304 
L 602.826208 244.622962 
L 605.116005 242.934901 
L 607.405801 241.647163 
L 609.695598 240.780792 
L 611.985394 240.356829 
L 614.275191 240.396317 
L 616.564987 240.920298 
L 618.854784 241.949814 
L 621.144581 243.505909 
L 623.434377 245.609624 
L 625.724174 248.282002 
L 628.01397 251.544084 
L 630.303767 255.416915 
L 632.593563 259.919433 
L 634.88336 265.031178 
L 637.173156 270.696697 
L 639.462953 276.85932 
L 641.752749 283.462376 
L 644.042546 290.449195 
L 646.332343 297.763107 
L 648.622139 305.347443 
L 650.911936 313.145531 
L 653.201732 321.100702 
L 655.491529 329.156286 
L 657.781325 337.255613 
L 660.071122 345.342012 
L 662.360918 353.358813 
L 664.650715 361.249347 
L 666.940511 368.956944 
L 669.230308 376.424932 
L 671.520105 383.596642 
L 673.809901 390.415405 
L 676.099698 396.824549 
L 678.389494 402.767405 
L 680.679291 408.187303 
L 682.969087 413.027572 
L 685.258884 417.231543 
L 687.54868 420.742545 
L 689.838477 423.503908 
L 692.128273 425.458963 
L 694.41807 426.551818 
L 696.707866 426.764561 
L 698.997663 426.133588 
L 701.28746 424.699473 
L 703.577256 422.502786 
L 705.867053 419.584101 
L 708.156849 415.983989 
L 710.446646 411.743024 
L 712.736442 406.901777 
L 715.026239 401.500821 
L 717.316035 395.580729 
L 719.605832 389.182072 
L 721.895628 382.345423 
L 724.185425 375.111355 
L 726.475222 367.52044 
L 728.765018 359.61325 
L 731.054815 351.430358 
L 733.344611 343.012336 
L 735.634408 334.399756 
L 737.924204 325.633191 
L 740.214001 316.753213 
L 742.503797 307.800395 
L 744.793594 298.815309 
L 747.08339 289.838527 
L 749.373187 280.910622 
L 751.662984 272.072167 
L 753.95278 263.363732 
L 756.242577 254.825892 
L 758.532373 246.499218 
L 760.82217 238.424283 
L 763.111966 230.641658 
L 765.401763 223.191917 
L 767.691559 216.115633 
L 769.981356 209.453376 
L 772.271152 203.24572 
L 774.560949 197.533237 
L 776.850746 192.356499 
L 779.140542 187.756079 
L 781.430339 183.772549 
L 783.720135 180.446482 
L 786.009932 177.81845 
L 788.299728 175.929025 
L 790.589525 174.81878 
L 792.879321 174.528287 
L 795.169118 175.098119 
L 797.458914 176.568847 
L 799.748711 178.981045 
L 802.038508 182.375284 
L 804.328304 186.792137 
L 806.618101 192.272177 
L 808.907897 198.855976 
L 811.197694 206.584105 
L 813.48749 215.497139 
L 815.777287 225.635648 
L 818.067083 237.040206 
L 818.067083 70.443945 
L 818.067083 70.443945 
L 815.777287 85.495994 
L 813.48749 99.440752 
L 811.197694 112.309425 
L 808.907897 124.133223 
L 806.618101 134.943354 
L 804.328304 144.771026 
L 802.038508 153.647448 
L 799.748711 161.603828 
L 797.458914 168.671374 
L 795.169118 174.881296 
L 792.879321 180.264801 
L 790.589525 184.853097 
L 788.299728 188.677393 
L 786.009932 191.768898 
L 783.720135 194.15882 
L 781.430339 195.878367 
L 779.140542 196.958747 
L 776.850746 197.43117 
L 774.560949 197.326843 
L 772.271152 196.676974 
L 769.981356 195.512773 
L 767.691559 193.865448 
L 765.401763 191.766206 
L 763.111966 189.246257 
L 760.82217 186.336808 
L 758.532373 183.069069 
L 756.242577 179.474247 
L 753.95278 175.583551 
L 751.662984 171.428189 
L 749.373187 167.03937 
L 747.08339 162.448303 
L 744.793594 157.686194 
L 742.503797 152.784254 
L 740.214001 147.773689 
L 737.924204 142.68571 
L 735.634408 137.551523 
L 733.344611 132.402338 
L 731.054815 127.269362 
L 728.765018 122.183805 
L 726.475222 117.176874 
L 724.185425 112.279779 
L 721.895628 107.523726 
L 719.605832 102.939926 
L 717.316035 98.559585 
L 715.026239 94.413914 
L 712.736442 90.534119 
L 710.446646 86.951409 
L 708.156849 83.696993 
L 705.867053 80.802079 
L 703.577256 78.297876 
L 701.28746 76.215591 
L 698.997663 74.586434 
L 696.707866 73.441613 
L 694.41807 72.812335 
L 692.128273 72.726813 
L 689.838477 73.174282 
L 687.54868 74.116723 
L 685.258884 75.515557 
L 682.969087 77.332206 
L 680.679291 79.52809 
L 678.389494 82.064632 
L 676.099698 84.903251 
L 673.809901 88.005369 
L 671.520105 91.332408 
L 669.230308 94.845789 
L 666.940511 98.506933 
L 664.650715 102.27726 
L 662.360918 106.118193 
L 660.071122 109.991152 
L 657.781325 113.857559 
L 655.491529 117.678835 
L 653.201732 121.416401 
L 650.911936 125.031679 
L 648.622139 128.486089 
L 646.332343 131.741052 
L 644.042546 134.757991 
L 641.752749 137.498326 
L 639.462953 139.923478 
L 637.173156 141.994868 
L 634.88336 143.673919 
L 632.593563 144.92205 
L 630.303767 145.701872 
L 628.01397 146.010186 
L 625.724174 145.88229 
L 623.434377 145.355537 
L 621.144581 144.46728 
L 618.854784 143.254873 
L 616.564987 141.755667 
L 614.275191 140.007015 
L 611.985394 138.046271 
L 609.695598 135.910786 
L 607.405801 133.637914 
L 605.116005 131.265008 
L 602.826208 128.829421 
L 600.536412 126.368504 
L 598.246615 123.919611 
L 595.956819 121.520095 
L 593.667022 119.207309 
L 591.377225 117.018605 
L 589.087429 114.991335 
L 586.797632 113.162854 
L 584.507836 111.570513 
L 582.218039 110.251666 
L 579.928243 109.243664 
L 577.638446 108.583862 
L 575.34865 108.309612 
L 573.058853 108.458266 
L 570.769057 109.067177 
L 568.47926 110.173444 
L 566.189463 111.789369 
L 563.899667 113.881992 
L 561.60987 116.413541 
L 559.320074 119.34624 
L 557.030277 122.642315 
L 554.740481 126.263992 
L 552.450684 130.173497 
L 550.160888 134.333054 
L 547.871091 138.70489 
L 545.581295 143.251231 
L 543.291498 147.934301 
L 541.001702 152.716327 
L 538.711905 157.559535 
L 536.422108 162.426149 
L 534.132312 167.278395 
L 531.842515 172.0785 
L 529.552719 176.788688 
L 527.262922 181.371185 
L 524.973126 185.788218 
L 522.683329 190.002011 
L 520.393533 193.974791 
L 518.103736 197.668782 
L 515.81394 201.046211 
L 513.524143 204.069303 
L 511.234346 206.700283 
L 508.94455 208.901378 
L 506.654753 210.634821 
L 504.364957 211.875949 
L 502.07516 212.640089 
L 499.785364 212.95017 
L 497.495567 212.82912 
L 495.205771 212.299867 
L 492.915974 211.38534 
L 490.626178 210.108467 
L 488.336381 208.492176 
L 486.046584 206.559396 
L 483.756788 204.333054 
L 481.466991 201.83608 
L 479.177195 199.091402 
L 476.887398 196.121947 
L 474.597602 192.950644 
L 472.307805 189.600422 
L 470.018009 186.094209 
L 467.728212 182.454932 
L 465.438416 178.705521 
L 463.148619 174.868904 
L 460.858822 170.968009 
L 458.569026 167.025765 
L 456.279229 163.065099 
L 453.989433 159.10894 
L 451.699636 155.180216 
L 449.40984 151.301856 
L 447.120043 147.496788 
L 444.830247 143.78794 
L 442.54045 140.195676 
L 440.250654 136.726871 
L 437.960857 133.383976 
L 435.67106 130.169442 
L 433.381264 127.08572 
L 431.091467 124.13526 
L 428.801671 121.320511 
L 426.511874 118.643925 
L 424.222078 116.107952 
L 421.932281 113.715042 
L 419.642485 111.467645 
L 417.352688 109.368211 
L 415.062892 107.419192 
L 412.773095 105.623036 
L 410.483298 103.982195 
L 408.193502 102.499119 
L 405.903705 101.176259 
L 403.613909 100.016063 
L 401.324112 99.020984 
L 399.034316 98.19347 
L 396.744519 97.535973 
L 394.454723 97.050942 
L 392.164926 96.740829 
L 389.87513 96.608083 
L 387.585333 96.655154 
L 385.295537 96.884493 
L 383.00574 97.298551 
L 380.715943 97.899096 
L 378.426147 98.681502 
L 376.13635 99.637636 
L 373.846554 100.75933 
L 371.556757 102.038417 
L 369.266961 103.466727 
L 366.977164 105.036094 
L 364.687368 106.738349 
L 362.397571 108.565324 
L 360.107775 110.50885 
L 357.817978 112.560761 
L 355.528181 114.712887 
L 353.238385 116.95706 
L 350.948588 119.285114 
L 348.658792 121.688879 
L 346.368995 124.160187 
L 344.079199 126.690871 
L 341.789402 129.272763 
L 339.499606 131.897693 
L 337.209809 134.557495 
L 334.920013 137.244 
L 332.630216 139.94904 
L 330.340419 142.664447 
L 328.050623 145.382053 
L 325.760826 148.093691 
L 323.47103 150.79119 
L 321.181233 153.466385 
L 318.891437 156.111126 
L 316.60164 158.717625 
L 314.311844 161.278418 
L 312.022047 163.786048 
L 309.732251 166.233061 
L 307.442454 168.612002 
L 305.152657 170.915416 
L 302.862861 173.135848 
L 300.573064 175.265843 
L 298.283268 177.297946 
L 295.993471 179.224703 
L 293.703675 181.038658 
L 291.413878 182.732356 
L 289.124082 184.298343 
L 286.834285 185.729164 
L 284.544489 187.017364 
L 282.254692 188.155487 
L 279.964895 189.136079 
L 277.675099 189.951684 
L 275.385302 190.594849 
L 273.095506 191.058118 
L 270.805709 191.334036 
L 268.515913 191.415148 
L 266.226116 191.293999 
L 263.93632 190.963135 
L 261.646523 190.4151 
L 259.356727 189.64244 
L 257.06693 188.637888 
L 254.777134 187.403364 
L 252.487337 185.953926 
L 250.19754 184.30564 
L 247.907744 182.474575 
L 245.617947 180.476797 
L 243.328151 178.328374 
L 241.038354 176.045373 
L 238.748558 173.643862 
L 236.458761 171.139908 
L 234.168965 168.549578 
L 231.879168 165.888939 
L 229.589372 163.174059 
L 227.299575 160.421005 
L 225.009778 157.645845 
L 222.719982 154.864646 
L 220.430185 152.093475 
L 218.140389 149.3484 
L 215.850592 146.645487 
L 213.560796 144.000805 
L 211.270999 141.43042 
L 208.981203 138.9504 
L 206.691406 136.576812 
L 204.40161 134.325724 
L 202.111813 132.213202 
L 199.822016 130.255315 
L 197.53222 128.46813 
L 195.242423 126.867713 
L 192.952627 125.470132 
L 190.66283 124.291455 
L 188.373034 123.347749 
L 186.083237 122.655081 
L 183.793441 122.229519 
L 181.503644 122.087129 
L 179.213848 122.24398 
L 176.924051 122.716139 
L 174.634254 123.519672 
L 172.344458 124.670647 
L 170.054661 126.185132 
L 167.764865 128.079194 
L 165.475068 130.3689 
L 163.185272 133.070318 
L 160.895475 136.199514 
L 158.605679 139.772557 
L 156.315882 143.805514 
L 154.026086 148.314451 
L 151.736289 153.315436 
L 149.446492 158.824537 
L 147.156696 164.857821 
L 144.866899 171.431356 
L 142.577103 178.561207 
L 140.287306 186.263444 
L 137.99751 194.554133 
L 135.707713 203.449342 
L 133.417917 212.965137 
z
" clip-path="url(#pbdc99655fe)" style="fill: #7570b3"/>
   </g>
   <g id="FillBetweenPolyCollection_3">
    <path d="M 133.417917 67.45619 
L 133.417917 212.965137 
L 135.707713 203.449342 
L 137.99751 194.554133 
L 140.287306 186.263444 
L 142.577103 178.561207 
L 144.866899 171.431356 
L 147.156696 164.857821 
L 149.446492 158.824537 
L 151.736289 153.315436 
L 154.026086 148.314451 
L 156.315882 143.805514 
L 158.605679 139.772557 
L 160.895475 136.199514 
L 163.185272 133.070318 
L 165.475068 130.3689 
L 167.764865 128.079194 
L 170.054661 126.185132 
L 172.344458 124.670647 
L 174.634254 123.519672 
L 176.924051 122.716139 
L 179.213848 122.24398 
L 181.503644 122.087129 
L 183.793441 122.229519 
L 186.083237 122.655081 
L 188.373034 123.347749 
L 190.66283 124.291455 
L 192.952627 125.470132 
L 195.242423 126.867713 
L 197.53222 128.46813 
L 199.822016 130.255315 
L 202.111813 132.213202 
L 204.40161 134.325724 
L 206.691406 136.576812 
L 208.981203 138.9504 
L 211.270999 141.43042 
L 213.560796 144.000805 
L 215.850592 146.645487 
L 218.140389 149.3484 
L 220.430185 152.093475 
L 222.719982 154.864646 
L 225.009778 157.645845 
L 227.299575 160.421005 
L 229.589372 163.174059 
L 231.879168 165.888939 
L 234.168965 168.549578 
L 236.458761 171.139908 
L 238.748558 173.643862 
L 241.038354 176.045373 
L 243.328151 178.328374 
L 245.617947 180.476797 
L 247.907744 182.474575 
L 250.19754 184.30564 
L 252.487337 185.953926 
L 254.777134 187.403364 
L 257.06693 188.637888 
L 259.356727 189.64244 
L 261.646523 190.4151 
L 263.93632 190.963135 
L 266.226116 191.293999 
L 268.515913 191.415148 
L 270.805709 191.334036 
L 273.095506 191.058118 
L 275.385302 190.594849 
L 277.675099 189.951684 
L 279.964895 189.136079 
L 282.254692 188.155487 
L 284.544489 187.017364 
L 286.834285 185.729164 
L 289.124082 184.298343 
L 291.413878 182.732356 
L 293.703675 181.038658 
L 295.993471 179.224703 
L 298.283268 177.297946 
L 300.573064 175.265843 
L 302.862861 173.135848 
L 305.152657 170.915416 
L 307.442454 168.612002 
L 309.732251 166.233061 
L 312.022047 163.786048 
L 314.311844 161.278418 
L 316.60164 158.717625 
L 318.891437 156.111126 
L 321.181233 153.466385 
L 323.47103 150.79119 
L 325.760826 148.093691 
L 328.050623 145.382053 
L 330.340419 142.664447 
L 332.630216 139.94904 
L 334.920013 137.244 
L 337.209809 134.557495 
L 339.499606 131.897693 
L 341.789402 129.272763 
L 344.079199 126.690871 
L 346.368995 124.160187 
L 348.658792 121.688879 
L 350.948588 119.285114 
L 353.238385 116.95706 
L 355.528181 114.712887 
L 357.817978 112.560761 
L 360.107775 110.50885 
L 362.397571 108.565324 
L 364.687368 106.738349 
L 366.977164 105.036094 
L 369.266961 103.466727 
L 371.556757 102.038417 
L 373.846554 100.75933 
L 376.13635 99.637636 
L 378.426147 98.681502 
L 380.715943 97.899096 
L 383.00574 97.298551 
L 385.295537 96.884493 
L 387.585333 96.655154 
L 389.87513 96.608083 
L 392.164926 96.740829 
L 394.454723 97.050942 
L 396.744519 97.535973 
L 399.034316 98.19347 
L 401.324112 99.020984 
L 403.613909 100.016063 
L 405.903705 101.176259 
L 408.193502 102.499119 
L 410.483298 103.982195 
L 412.773095 105.623036 
L 415.062892 107.419192 
L 417.352688 109.368211 
L 419.642485 111.467645 
L 421.932281 113.715042 
L 424.222078 116.107952 
L 426.511874 118.643925 
L 428.801671 121.320511 
L 431.091467 124.13526 
L 433.381264 127.08572 
L 435.67106 130.169442 
L 437.960857 133.383976 
L 440.250654 136.726871 
L 442.54045 140.195676 
L 444.830247 143.78794 
L 447.120043 147.496788 
L 449.40984 151.301856 
L 451.699636 155.180216 
L 453.989433 159.10894 
L 456.279229 163.065099 
L 458.569026 167.025765 
L 460.858822 170.968009 
L 463.148619 174.868904 
L 465.438416 178.705521 
L 467.728212 182.454932 
L 470.018009 186.094209 
L 472.307805 189.600422 
L 474.597602 192.950644 
L 476.887398 196.121947 
L 479.177195 199.091402 
L 481.466991 201.83608 
L 483.756788 204.333054 
L 486.046584 206.559396 
L 488.336381 208.492176 
L 490.626178 210.108467 
L 492.915974 211.38534 
L 495.205771 212.299867 
L 497.495567 212.82912 
L 499.785364 212.95017 
L 502.07516 212.640089 
L 504.364957 211.875949 
L 506.654753 210.634821 
L 508.94455 208.901378 
L 511.234346 206.700283 
L 513.524143 204.069303 
L 515.81394 201.046211 
L 518.103736 197.668782 
L 520.393533 193.974791 
L 522.683329 190.002011 
L 524.973126 185.788218 
L 527.262922 181.371185 
L 529.552719 176.788688 
L 531.842515 172.0785 
L 534.132312 167.278395 
L 536.422108 162.426149 
L 538.711905 157.559535 
L 541.001702 152.716327 
L 543.291498 147.934301 
L 545.581295 143.251231 
L 547.871091 138.70489 
L 550.160888 134.333054 
L 552.450684 130.173497 
L 554.740481 126.263992 
L 557.030277 122.642315 
L 559.320074 119.34624 
L 561.60987 116.413541 
L 563.899667 113.881992 
L 566.189463 111.789369 
L 568.47926 110.173444 
L 570.769057 109.067177 
L 573.058853 108.458266 
L 575.34865 108.309612 
L 577.638446 108.583862 
L 579.928243 109.243664 
L 582.218039 110.251666 
L 584.507836 111.570513 
L 586.797632 113.162854 
L 589.087429 114.991335 
L 591.377225 117.018605 
L 593.667022 119.207309 
L 595.956819 121.520095 
L 598.246615 123.919611 
L 600.536412 126.368504 
L 602.826208 128.829421 
L 605.116005 131.265008 
L 607.405801 133.637914 
L 609.695598 135.910786 
L 611.985394 138.046271 
L 614.275191 140.007015 
L 616.564987 141.755667 
L 618.854784 143.254873 
L 621.144581 144.46728 
L 623.434377 145.355537 
L 625.724174 145.88229 
L 628.01397 146.010186 
L 630.303767 145.701872 
L 632.593563 144.92205 
L 634.88336 143.673919 
L 637.173156 141.994868 
L 639.462953 139.923478 
L 641.752749 137.498326 
L 644.042546 134.757991 
L 646.332343 131.741052 
L 648.622139 128.486089 
L 650.911936 125.031679 
L 653.201732 121.416401 
L 655.491529 117.678835 
L 657.781325 113.857559 
L 660.071122 109.991152 
L 662.360918 106.118193 
L 664.650715 102.27726 
L 666.940511 98.506933 
L 669.230308 94.845789 
L 671.520105 91.332408 
L 673.809901 88.005369 
L 676.099698 84.903251 
L 678.389494 82.064632 
L 680.679291 79.52809 
L 682.969087 77.332206 
L 685.258884 75.515557 
L 687.54868 74.116723 
L 689.838477 73.174282 
L 692.128273 72.726813 
L 694.41807 72.812335 
L 696.707866 73.441613 
L 698.997663 74.586434 
L 701.28746 76.215591 
L 703.577256 78.297876 
L 705.867053 80.802079 
L 708.156849 83.696993 
L 710.446646 86.951409 
L 712.736442 90.534119 
L 715.026239 94.413914 
L 717.316035 98.559585 
L 719.605832 102.939926 
L 721.895628 107.523726 
L 724.185425 112.279779 
L 726.475222 117.176874 
L 728.765018 122.183805 
L 731.054815 127.269362 
L 733.344611 132.402338 
L 735.634408 137.551523 
L 737.924204 142.68571 
L 740.214001 147.773689 
L 742.503797 152.784254 
L 744.793594 157.686194 
L 747.08339 162.448303 
L 749.373187 167.03937 
L 751.662984 171.428189 
L 753.95278 175.583551 
L 756.242577 179.474247 
L 758.532373 183.069069 
L 760.82217 186.336808 
L 763.111966 189.246257 
L 765.401763 191.766206 
L 767.691559 193.865448 
L 769.981356 195.512773 
L 772.271152 196.676974 
L 774.560949 197.326843 
L 776.850746 197.43117 
L 779.140542 196.958747 
L 781.430339 195.878367 
L 783.720135 194.15882 
L 786.009932 191.768898 
L 788.299728 188.677393 
L 790.589525 184.853097 
L 792.879321 180.264801 
L 795.169118 174.881296 
L 797.458914 168.671374 
L 799.748711 161.603828 
L 802.038508 153.647448 
L 804.328304 144.771026 
L 806.618101 134.943354 
L 808.907897 124.133223 
L 811.197694 112.309425 
L 813.48749 99.440752 
L 815.777287 85.495994 
L 818.067083 70.443945 
L 818.067083 67.45619 
L 818.067083 67.45619 
L 815.777287 67.45619 
L 813.48749 67.45619 
L 811.197694 67.45619 
L 808.907897 67.45619 
L 806.618101 67.45619 
L 804.328304 67.45619 
L 802.038508 67.45619 
L 799.748711 67.45619 
L 797.458914 67.45619 
L 795.169118 67.45619 
L 792.879321 67.45619 
L 790.589525 67.45619 
L 788.299728 67.45619 
L 786.009932 67.45619 
L 783.720135 67.45619 
L 781.430339 67.45619 
L 779.140542 67.45619 
L 776.850746 67.45619 
L 774.560949 67.45619 
L 772.271152 67.45619 
L 769.981356 67.45619 
L 767.691559 67.45619 
L 765.401763 67.45619 
L 763.111966 67.45619 
L 760.82217 67.45619 
L 758.532373 67.45619 
L 756.242577 67.45619 
L 753.95278 67.45619 
L 751.662984 67.45619 
L 749.373187 67.45619 
L 747.08339 67.45619 
L 744.793594 67.45619 
L 742.503797 67.45619 
L 740.214001 67.45619 
L 737.924204 67.45619 
L 735.634408 67.45619 
L 733.344611 67.45619 
L 731.054815 67.45619 
L 728.765018 67.45619 
L 726.475222 67.45619 
L 724.185425 67.45619 
L 721.895628 67.45619 
L 719.605832 67.45619 
L 717.316035 67.45619 
L 715.026239 67.45619 
L 712.736442 67.45619 
L 710.446646 67.45619 
L 708.156849 67.45619 
L 705.867053 67.45619 
L 703.577256 67.45619 
L 701.28746 67.45619 
L 698.997663 67.45619 
L 696.707866 67.45619 
L 694.41807 67.45619 
L 692.128273 67.45619 
L 689.838477 67.45619 
L 687.54868 67.45619 
L 685.258884 67.45619 
L 682.969087 67.45619 
L 680.679291 67.45619 
L 678.389494 67.45619 
L 676.099698 67.45619 
L 673.809901 67.45619 
L 671.520105 67.45619 
L 669.230308 67.45619 
L 666.940511 67.45619 
L 664.650715 67.45619 
L 662.360918 67.45619 
L 660.071122 67.45619 
L 657.781325 67.45619 
L 655.491529 67.45619 
L 653.201732 67.45619 
L 650.911936 67.45619 
L 648.622139 67.45619 
L 646.332343 67.45619 
L 644.042546 67.45619 
L 641.752749 67.45619 
L 639.462953 67.45619 
L 637.173156 67.45619 
L 634.88336 67.45619 
L 632.593563 67.45619 
L 630.303767 67.45619 
L 628.01397 67.45619 
L 625.724174 67.45619 
L 623.434377 67.45619 
L 621.144581 67.45619 
L 618.854784 67.45619 
L 616.564987 67.45619 
L 614.275191 67.45619 
L 611.985394 67.45619 
L 609.695598 67.45619 
L 607.405801 67.45619 
L 605.116005 67.45619 
L 602.826208 67.45619 
L 600.536412 67.45619 
L 598.246615 67.45619 
L 595.956819 67.45619 
L 593.667022 67.45619 
L 591.377225 67.45619 
L 589.087429 67.45619 
L 586.797632 67.45619 
L 584.507836 67.45619 
L 582.218039 67.45619 
L 579.928243 67.45619 
L 577.638446 67.45619 
L 575.34865 67.45619 
L 573.058853 67.45619 
L 570.769057 67.45619 
L 568.47926 67.45619 
L 566.189463 67.45619 
L 563.899667 67.45619 
L 561.60987 67.45619 
L 559.320074 67.45619 
L 557.030277 67.45619 
L 554.740481 67.45619 
L 552.450684 67.45619 
L 550.160888 67.45619 
L 547.871091 67.45619 
L 545.581295 67.45619 
L 543.291498 67.45619 
L 541.001702 67.45619 
L 538.711905 67.45619 
L 536.422108 67.45619 
L 534.132312 67.45619 
L 531.842515 67.45619 
L 529.552719 67.45619 
L 527.262922 67.45619 
L 524.973126 67.45619 
L 522.683329 67.45619 
L 520.393533 67.45619 
L 518.103736 67.45619 
L 515.81394 67.45619 
L 513.524143 67.45619 
L 511.234346 67.45619 
L 508.94455 67.45619 
L 506.654753 67.45619 
L 504.364957 67.45619 
L 502.07516 67.45619 
L 499.785364 67.45619 
L 497.495567 67.45619 
L 495.205771 67.45619 
L 492.915974 67.45619 
L 490.626178 67.45619 
L 488.336381 67.45619 
L 486.046584 67.45619 
L 483.756788 67.45619 
L 481.466991 67.45619 
L 479.177195 67.45619 
L 476.887398 67.45619 
L 474.597602 67.45619 
L 472.307805 67.45619 
L 470.018009 67.45619 
L 467.728212 67.45619 
L 465.438416 67.45619 
L 463.148619 67.45619 
L 460.858822 67.45619 
L 458.569026 67.45619 
L 456.279229 67.45619 
L 453.989433 67.45619 
L 451.699636 67.45619 
L 449.40984 67.45619 
L 447.120043 67.45619 
L 444.830247 67.45619 
L 442.54045 67.45619 
L 440.250654 67.45619 
L 437.960857 67.45619 
L 435.67106 67.45619 
L 433.381264 67.45619 
L 431.091467 67.45619 
L 428.801671 67.45619 
L 426.511874 67.45619 
L 424.222078 67.45619 
L 421.932281 67.45619 
L 419.642485 67.45619 
L 417.352688 67.45619 
L 415.062892 67.45619 
L 412.773095 67.45619 
L 410.483298 67.45619 
L 408.193502 67.45619 
L 405.903705 67.45619 
L 403.613909 67.45619 
L 401.324112 67.45619 
L 399.034316 67.45619 
L 396.744519 67.45619 
L 394.454723 67.45619 
L 392.164926 67.45619 
L 389.87513 67.45619 
L 387.585333 67.45619 
L 385.295537 67.45619 
L 383.00574 67.45619 
L 380.715943 67.45619 
L 378.426147 67.45619 
L 376.13635 67.45619 
L 373.846554 67.45619 
L 371.556757 67.45619 
L 369.266961 67.45619 
L 366.977164 67.45619 
L 364.687368 67.45619 
L 362.397571 67.45619 
L 360.107775 67.45619 
L 357.817978 67.45619 
L 355.528181 67.45619 
L 353.238385 67.45619 
L 350.948588 67.45619 
L 348.658792 67.45619 
L 346.368995 67.45619 
L 344.079199 67.45619 
L 341.789402 67.45619 
L 339.499606 67.45619 
L 337.209809 67.45619 
L 334.920013 67.45619 
L 332.630216 67.45619 
L 330.340419 67.45619 
L 328.050623 67.45619 
L 325.760826 67.45619 
L 323.47103 67.45619 
L 321.181233 67.45619 
L 318.891437 67.45619 
L 316.60164 67.45619 
L 314.311844 67.45619 
L 312.022047 67.45619 
L 309.732251 67.45619 
L 307.442454 67.45619 
L 305.152657 67.45619 
L 302.862861 67.45619 
L 300.573064 67.45619 
L 298.283268 67.45619 
L 295.993471 67.45619 
L 293.703675 67.45619 
L 291.413878 67.45619 
L 289.124082 67.45619 
L 286.834285 67.45619 
L 284.544489 67.45619 
L 282.254692 67.45619 
L 279.964895 67.45619 
L 277.675099 67.45619 
L 275.385302 67.45619 
L 273.095506 67.45619 
L 270.805709 67.45619 
L 268.515913 67.45619 
L 266.226116 67.45619 
L 263.93632 67.45619 
L 261.646523 67.45619 
L 259.356727 67.45619 
L 257.06693 67.45619 
L 254.777134 67.45619 
L 252.487337 67.45619 
L 250.19754 67.45619 
L 247.907744 67.45619 
L 245.617947 67.45619 
L 243.328151 67.45619 
L 241.038354 67.45619 
L 238.748558 67.45619 
L 236.458761 67.45619 
L 234.168965 67.45619 
L 231.879168 67.45619 
L 229.589372 67.45619 
L 227.299575 67.45619 
L 225.009778 67.45619 
L 222.719982 67.45619 
L 220.430185 67.45619 
L 218.140389 67.45619 
L 215.850592 67.45619 
L 213.560796 67.45619 
L 211.270999 67.45619 
L 208.981203 67.45619 
L 206.691406 67.45619 
L 204.40161 67.45619 
L 202.111813 67.45619 
L 199.822016 67.45619 
L 197.53222 67.45619 
L 195.242423 67.45619 
L 192.952627 67.45619 
L 190.66283 67.45619 
L 188.373034 67.45619 
L 186.083237 67.45619 
L 183.793441 67.45619 
L 181.503644 67.45619 
L 179.213848 67.45619 
L 176.924051 67.45619 
L 174.634254 67.45619 
L 172.344458 67.45619 
L 170.054661 67.45619 
L 167.764865 67.45619 
L 165.475068 67.45619 
L 163.185272 67.45619 
L 160.895475 67.45619 
L 158.605679 67.45619 
L 156.315882 67.45619 
L 154.026086 67.45619 
L 151.736289 67.45619 
L 149.446492 67.45619 
L 147.156696 67.45619 
L 144.866899 67.45619 
L 142.577103 67.45619 
L 140.287306 67.45619 
L 137.99751 67.45619 
L 135.707713 67.45619 
L 133.417917 67.45619 
z
" clip-path="url(#pbdc99655fe)" style="fill: #c7eae5"/>
   </g>
   <g id="matplotlib.axis_1">
    <g id="xtick_1">
     <g id="line2d_1">
      <path d="M 133.417917 434.98 
L 133.417917 49.08 
" clip-path="url(#pbdc99655fe)" style="fill: none; stroke: #ffffff; stroke-opacity: 0.3; stroke-width: 0.75; stroke-linecap: square"/>
     </g>
     <g id="line2d_2">
      <defs>
       <path id="md840cc4312" d="M 0 0 
L 0 3.5 
" style="stroke: #000000; stroke-width: 0.8"/>
      </defs>
      <g>
       <use xlink:href="#md840cc4312" x="133.417917" y="434.98" style="stroke: #000000; stroke-width: 0.8"/>
      </g>
     </g>
     <g id="text_1">
      <text style="font-weight: 600; font-size: 24px; font-family: 'Montserrat'; fill: #767676" transform="translate(139.993542 569.105) rotate(-90)">01-01-2023</text>
     </g>
    </g>
    <g id="xtick_2">
     <g id="line2d_3">
      <path d="M 195.65875 434.98 
L 195.65875 49.08 
" clip-path="url(#pbdc99655fe)" style="fill: none; stroke: #ffffff; stroke-opacity: 0.3; stroke-width: 0.75; stroke-linecap: square"/>
     </g>
     <g id="line2d_4">
      <g>
       <use xlink:href="#md840cc4312" x="195.65875" y="434.98" style="stroke: #000000; stroke-width: 0.8"/>
      </g>
     </g>
     <g id="text_2">
      <text style="font-weight: 600; font-size: 24px; font-family: 'Montserrat'; fill: #767676" transform="translate(202.234375 573.93125) rotate(-90)">01-02-2023</text>
     </g>
    </g>
    <g id="xtick_3">
     <g id="line2d_5">
      <path d="M 257.899583 434.98 
L 257.899583 49.08 
" clip-path="url(#pbdc99655fe)" style="fill: none; stroke: #ffffff; stroke-opacity: 0.3; stroke-width: 0.75; stroke-linecap: square"/>
     </g>
     <g id="line2d_6">
      <g>
       <use xlink:href="#md840cc4312" x="257.899583" y="434.98" style="stroke: #000000; stroke-width: 0.8"/>
      </g>
     </g>
     <g id="text_3">
      <text style="font-weight: 600; font-size: 24px; font-family: 'Montserrat'; fill: #767676" transform="translate(264.475208 573.93125) rotate(-90)">01-03-2023</text>
     </g>
    </g>
    <g id="xtick_4">
     <g id="line2d_7">
      <path d="M 320.140417 434.98 
L 320.140417 49.08 
" clip-path="url(#pbdc99655fe)" style="fill: none; stroke: #ffffff; stroke-opacity: 0.3; stroke-width: 0.75; stroke-linecap: square"/>
     </g>
     <g id="line2d_8">
      <g>
       <use xlink:href="#md840cc4312" x="320.140417" y="434.98" style="stroke: #000000; stroke-width: 0.8"/>
      </g>
     </g>
     <g id="text_4">
      <text style="font-weight: 600; font-size: 24px; font-family: 'Montserrat'; fill: #767676" transform="translate(326.716042 576.26) rotate(-90)">01-04-2023</text>
     </g>
    </g>
    <g id="xtick_5">
     <g id="line2d_9">
      <path d="M 382.38125 434.98 
L 382.38125 49.08 
" clip-path="url(#pbdc99655fe)" style="fill: none; stroke: #ffffff; stroke-opacity: 0.3; stroke-width: 0.75; stroke-linecap: square"/>
     </g>
     <g id="line2d_10">
      <g>
       <use xlink:href="#md840cc4312" x="382.38125" y="434.98" style="stroke: #000000; stroke-width: 0.8"/>
      </g>
     </g>
     <g id="text_5">
      <text style="font-weight: 600; font-size: 24px; font-family: 'Montserrat'; fill: #767676" transform="translate(388.956875 573.98) rotate(-90)">01-05-2023</text>
     </g>
    </g>
    <g id="xtick_6">
     <g id="line2d_11">
      <path d="M 444.622083 434.98 
L 444.622083 49.08 
" clip-path="url(#pbdc99655fe)" style="fill: none; stroke: #ffffff; stroke-opacity: 0.3; stroke-width: 0.75; stroke-linecap: square"/>
     </g>
     <g id="line2d_12">
      <g>
       <use xlink:href="#md840cc4312" x="444.622083" y="434.98" style="stroke: #000000; stroke-width: 0.8"/>
      </g>
     </g>
     <g id="text_6">
      <text style="font-weight: 600; font-size: 24px; font-family: 'Montserrat'; fill: #767676" transform="translate(451.197708 575.01125) rotate(-90)">01-06-2023</text>
     </g>
    </g>
    <g id="xtick_7">
     <g id="line2d_13">
      <path d="M 506.862917 434.98 
L 506.862917 49.08 
" clip-path="url(#pbdc99655fe)" style="fill: none; stroke: #ffffff; stroke-opacity: 0.3; stroke-width: 0.75; stroke-linecap: square"/>
     </g>
     <g id="line2d_14">
      <g>
       <use xlink:href="#md840cc4312" x="506.862917" y="434.98" style="stroke: #000000; stroke-width: 0.8"/>
      </g>
     </g>
     <g id="text_7">
      <text style="font-weight: 600; font-size: 24px; font-family: 'Montserrat'; fill: #767676" transform="translate(513.438542 574.55375) rotate(-90)">01-07-2023</text>
     </g>
    </g>
    <g id="xtick_8">
     <g id="line2d_15">
      <path d="M 569.10375 434.98 
L 569.10375 49.08 
" clip-path="url(#pbdc99655fe)" style="fill: none; stroke: #ffffff; stroke-opacity: 0.3; stroke-width: 0.75; stroke-linecap: square"/>
     </g>
     <g id="line2d_16">
      <g>
       <use xlink:href="#md840cc4312" x="569.10375" y="434.98" style="stroke: #000000; stroke-width: 0.8"/>
      </g>
     </g>
     <g id="text_8">
      <text style="font-weight: 600; font-size: 24px; font-family: 'Montserrat'; fill: #767676" transform="translate(575.679375 575.61125) rotate(-90)">01-08-2023</text>
     </g>
    </g>
    <g id="xtick_9">
     <g id="line2d_17">
      <path d="M 631.344583 434.98 
L 631.344583 49.08 
" clip-path="url(#pbdc99655fe)" style="fill: none; stroke: #ffffff; stroke-opacity: 0.3; stroke-width: 0.75; stroke-linecap: square"/>
     </g>
     <g id="line2d_18">
      <g>
       <use xlink:href="#md840cc4312" x="631.344583" y="434.98" style="stroke: #000000; stroke-width: 0.8"/>
      </g>
     </g>
     <g id="text_9">
      <text style="font-weight: 600; font-size: 24px; font-family: 'Montserrat'; fill: #767676" transform="translate(637.920208 575.01125) rotate(-90)">01-09-2023</text>
     </g>
    </g>
    <g id="xtick_10">
     <g id="line2d_19">
      <path d="M 693.585417 434.98 
L 693.585417 49.08 
" clip-path="url(#pbdc99655fe)" style="fill: none; stroke: #ffffff; stroke-opacity: 0.3; stroke-width: 0.75; stroke-linecap: square"/>
     </g>
     <g id="line2d_20">
      <g>
       <use xlink:href="#md840cc4312" x="693.585417" y="434.98" style="stroke: #000000; stroke-width: 0.8"/>
      </g>
     </g>
     <g id="text_10">
      <text style="font-weight: 600; font-size: 24px; font-family: 'Montserrat'; fill: #767676" transform="translate(700.161042 569.105) rotate(-90)">01-10-2023</text>
     </g>
    </g>
    <g id="xtick_11">
     <g id="line2d_21">
      <path d="M 755.82625 434.98 
L 755.82625 49.08 
" clip-path="url(#pbdc99655fe)" style="fill: none; stroke: #ffffff; stroke-opacity: 0.3; stroke-width: 0.75; stroke-linecap: square"/>
     </g>
     <g id="line2d_22">
      <g>
       <use xlink:href="#md840cc4312" x="755.82625" y="434.98" style="stroke: #000000; stroke-width: 0.8"/>
      </g>
     </g>
     <g id="text_11">
      <text style="font-weight: 600; font-size: 24px; font-family: 'Montserrat'; fill: #767676" transform="translate(762.401875 562.09625) rotate(-90)">01-11-2023</text>
     </g>
    </g>
    <g id="xtick_12">
     <g id="line2d_23">
      <path d="M 818.067083 434.98 
L 818.067083 49.08 
" clip-path="url(#pbdc99655fe)" style="fill: none; stroke: #ffffff; stroke-opacity: 0.3; stroke-width: 0.75; stroke-linecap: square"/>
     </g>
     <g id="line2d_24">
      <g>
       <use xlink:href="#md840cc4312" x="818.067083" y="434.98" style="stroke: #000000; stroke-width: 0.8"/>
      </g>
     </g>
     <g id="text_12">
      <text style="font-weight: 600; font-size: 24px; font-family: 'Montserrat'; fill: #767676" transform="translate(824.642708 566.9225) rotate(-90)">01-12-2023</text>
     </g>
    </g>
    <g id="text_13">
     <text style="font-weight: 500; font-size: 24px; font-family: 'Montserrat'; text-anchor: middle" x="475.7425" y="598.06875" transform="rotate(-0 475.7425 598.06875)">Fecha</text>
    </g>
   </g>
   <g id="matplotlib.axis_2">
    <g id="ytick_1">
     <g id="line2d_25">
      <path d="M 102.2975 434.98 
L 849.1875 434.98 
" clip-path="url(#pbdc99655fe)" style="fill: none; stroke: #ffffff; stroke-opacity: 0.8; stroke-width: 1.25; stroke-linecap: square"/>
     </g>
     <g id="line2d_26">
      <defs>
       <path id="md7914ee0cf" d="M 0 0 
L -3.5 0 
" style="stroke: #000000; stroke-width: 0.8"/>
      </defs>
      <g>
       <use xlink:href="#md7914ee0cf" x="102.2975" y="434.98" style="stroke: #000000; stroke-width: 0.8"/>
      </g>
     </g>
     <g id="text_14">
      <text style="font-weight: 500; font-size: 24px; font-family: 'Montserrat'; text-anchor: end; fill: #767676" x="95.2975" y="443.884375" transform="rotate(-0 95.2975 443.884375)">0%</text>
     </g>
    </g>
    <g id="ytick_2">
     <g id="line2d_27">
      <path d="M 102.2975 343.099048 
L 849.1875 343.099048 
" clip-path="url(#pbdc99655fe)" style="fill: none; stroke: #ffffff; stroke-opacity: 0.8; stroke-width: 1.25; stroke-linecap: square"/>
     </g>
     <g id="line2d_28">
      <g>
       <use xlink:href="#md7914ee0cf" x="102.2975" y="343.099048" style="stroke: #000000; stroke-width: 0.8"/>
      </g>
     </g>
     <g id="text_15">
      <text style="font-weight: 500; font-size: 24px; font-family: 'Montserrat'; text-anchor: end; fill: #767676" x="95.2975" y="352.003423" transform="rotate(-0 95.2975 352.003423)">25%</text>
     </g>
    </g>
    <g id="ytick_3">
     <g id="line2d_29">
      <path d="M 102.2975 251.218095 
L 849.1875 251.218095 
" clip-path="url(#pbdc99655fe)" style="fill: none; stroke: #ffffff; stroke-opacity: 0.8; stroke-width: 1.25; stroke-linecap: square"/>
     </g>
     <g id="line2d_30">
      <g>
       <use xlink:href="#md7914ee0cf" x="102.2975" y="251.218095" style="stroke: #000000; stroke-width: 0.8"/>
      </g>
     </g>
     <g id="text_16">
      <text style="font-weight: 500; font-size: 24px; font-family: 'Montserrat'; text-anchor: end; fill: #767676" x="95.2975" y="260.12247" transform="rotate(-0 95.2975 260.12247)">50%</text>
     </g>
    </g>
    <g id="ytick_4">
     <g id="line2d_31">
      <path d="M 102.2975 159.337143 
L 849.1875 159.337143 
" clip-path="url(#pbdc99655fe)" style="fill: none; stroke: #ffffff; stroke-opacity: 0.8; stroke-width: 1.25; stroke-linecap: square"/>
     </g>
     <g id="line2d_32">
      <g>
       <use xlink:href="#md7914ee0cf" x="102.2975" y="159.337143" style="stroke: #000000; stroke-width: 0.8"/>
      </g>
     </g>
     <g id="text_17">
      <text style="font-weight: 500; font-size: 24px; font-family: 'Montserrat'; text-anchor: end; fill: #767676" x="95.2975" y="168.241518" transform="rotate(-0 95.2975 168.241518)">75%</text>
     </g>
    </g>
    <g id="ytick_5">
     <g id="line2d_33">
      <path d="M 102.2975 67.45619 
L 849.1875 67.45619 
" clip-path="url(#pbdc99655fe)" style="fill: none; stroke: #ffffff; stroke-opacity: 0.8; stroke-width: 1.25; stroke-linecap: square"/>
     </g>
     <g id="line2d_34">
      <g>
       <use xlink:href="#md7914ee0cf" x="102.2975" y="67.45619" style="stroke: #000000; stroke-width: 0.8"/>
      </g>
     </g>
     <g id="text_18">
      <text style="font-weight: 500; font-size: 24px; font-family: 'Montserrat'; text-anchor: end; fill: #767676" x="95.2975" y="76.360565" transform="rotate(-0 95.2975 76.360565)">100%</text>
     </g>
    </g>
    <g id="text_19">
     <text style="font-weight: 500; font-size: 24px; font-family: 'Montserrat'; text-anchor: middle" x="25.36875" y="242.03" transform="rotate(-90 25.36875 242.03)">Porcentaje</text>
    </g>
   </g>
   <g id="patch_3">
    <path d="M 102.2975 434.98 
L 849.1875 434.98 
" style="fill: none; stroke: #000000; stroke-width: 2; stroke-linejoin: miter; stroke-linecap: square"/>
   </g>
   <g id="text_20">
    <g id="patch_4">
     <path d="M 120.546042 401.212366 
L 146.289792 401.212366 
Q 166.289792 401.212366 166.289792 381.212366 
L 166.289792 378.490491 
Q 166.289792 358.490491 146.289792 358.490491 
L 120.546042 358.490491 
Q 100.546042 358.490491 100.546042 378.490491 
L 100.546042 381.212366 
Q 100.546042 401.212366 120.546042 401.212366 
z
" style="fill: #ffffff; stroke: #d9d9d9; stroke-width: 1.8; stroke-linejoin: miter"/>
    </g>
    <text style="font-weight: 500; font-size: 20px; font-family: 'Montserrat'; text-anchor: middle; fill: #10302c" x="133.417917" y="385.331116" transform="rotate(-0 133.417917 385.331116)">4.59</text>
   </g>
   <g id="text_21">
    <g id="patch_5">
     <path d="M 462.870625 272.579033 
L 488.614375 272.579033 
Q 508.614375 272.579033 508.614375 252.579033 
L 508.614375 249.857158 
Q 508.614375 229.857158 488.614375 229.857158 
L 462.870625 229.857158 
Q 442.870625 229.857158 442.870625 249.857158 
L 442.870625 252.579033 
Q 442.870625 272.579033 462.870625 272.579033 
z
" style="fill: #ffffff; stroke: #d9d9d9; stroke-width: 1.8; stroke-linejoin: miter"/>
    </g>
    <text style="font-weight: 500; font-size: 20px; font-family: 'Montserrat'; text-anchor: middle; fill: #10302c" x="475.7425" y="256.697783" transform="rotate(-0 475.7425 256.697783)">4.95</text>
   </g>
   <g id="text_22">
    <g id="patch_6">
     <path d="M 805.195208 143.945699 
L 830.938958 143.945699 
Q 850.938958 143.945699 850.938958 123.945699 
L 850.938958 121.223824 
Q 850.938958 101.223824 830.938958 101.223824 
L 805.195208 101.223824 
Q 785.195208 101.223824 785.195208 121.223824 
L 785.195208 123.945699 
Q 785.195208 143.945699 805.195208 143.945699 
z
" style="fill: #ffffff; stroke: #d9d9d9; stroke-width: 1.8; stroke-linejoin: miter"/>
    </g>
    <text style="font-weight: 500; font-size: 20px; font-family: 'Montserrat'; text-anchor: middle; fill: #10302c" x="818.067083" y="128.064449" transform="rotate(-0 818.067083 128.064449)">2.46</text>
   </g>
  </g>
  <g id="legend_1">
   <g id="patch_7">
    <path d="M 43.957031 41.460937 
L 103.957031 41.460937 
L 103.957031 20.460937 
L 43.957031 20.460937 
z
" style="fill: #215f53"/>
   </g>
   <g id="text_23">
    <text style="font-weight: 500; font-size: 30px; font-family: 'Montserrat'; text-anchor: start" x="127.957031" y="41.460937" transform="rotate(-0 127.957031 41.460937)">Comisiones</text>
   </g>
   <g id="patch_8">
    <path d="M 365.046094 41.460937 
L 425.046094 41.460937 
L 425.046094 20.460937 
L 365.046094 20.460937 
z
" style="fill: #7570b3"/>
   </g>
   <g id="text_24">
    <text style="font-weight: 500; font-size: 30px; font-family: 'Montserrat'; text-anchor: start" x="449.046094" y="41.460937" transform="rotate(-0 449.046094 41.460937)">Fiscalas</text>
   </g>
   <g id="patch_9">
    <path d="M 636.274219 41.460937 
L 696.274219 41.460937 
L 696.274219 20.460937 
L 636.274219 20.460937 
z
" style="fill: #c7eae5"/>
   </g>
   <g id="text_25">
    <text style="font-weight: 500; font-size: 30px; font-family: 'Montserrat'; text-anchor: start" x="720.274219" y="41.460937" transform="rotate(-0 720.274219 41.460937)">Portal</text>
   </g>
  </g>
 </g>
 <defs>
  <clipPath id="pbdc99655fe">
   <rect x="102.2975" y="49.08" width="746.89" height="385.9"/>
  </clipPath>
 </defs>
</svg>
