<svg xmlns="http://www.w3.org/2000/svg" xmlns:xlink="http://www.w3.org/1999/xlink" width="996.89pt" height="649.853" viewBox="0 0 996.89 487.39"><defs><style>*{stroke-linejoin:round;stroke-linecap:butt}</style></defs><path fill="#fff" d="M0 487.39h996.89V0H0z"/><path fill="#fff" d="M232.06 450.72h669.6V7.2h-669.6z"/><path fill="#8b0000" d="M232.06 430.56h608.73v-21.795H232.06z" clip-path="url(#a)"/><path fill="#10302c" d="M232.06 403.32h501.7v-21.795h-501.7zM232.06 376.07h444.17v-21.795H232.06zM232.06 348.83h345.17v-21.795H232.06zM232.06 321.59h339.82v-21.795H232.06zM232.06 294.34h324.43v-21.795H232.06zM232.06 267.1h254.19v-21.795H232.06zM232.06 239.86h214.06v-21.795H232.06zM232.06 212.61h176.6v-21.795h-176.6zM232.06 185.37h114.39v-21.795H232.06zM232.06 158.13h104.35v-21.795H232.06zM232.06 130.88h101.68v-21.795H232.06zM232.06 103.64h91.644V81.845H232.06zM232.06 76.398h80.941V54.603H232.06zM232.06 49.155h46.825V27.36H232.06z" clip-path="url(#a)"/><path fill="none" stroke="#b9b9b9" stroke-linecap="square" stroke-width=".75" d="M232.06 450.72V7.2" clip-path="url(#a)"/><defs><path id="c" stroke="#000" stroke-width=".8" d="M0 0v3.5"/></defs><use xlink:href="#c" x="232.056" y="450.72" stroke="#000" stroke-width=".8"/><text x="232.056" y="475.529" fill="#767676" font-family="'Montserrat'" font-size="24" font-weight="600" text-anchor="middle">0</text><path fill="none" stroke="#b9b9b9" stroke-linecap="square" stroke-width=".75" d="M365.84 450.72V7.2" clip-path="url(#a)"/><use xlink:href="#c" x="365.842" y="450.72" stroke="#000" stroke-width=".8"/><text x="365.842" y="475.529" fill="#767676" font-family="'Montserrat'" font-size="24" font-weight="600" text-anchor="middle">200</text><path fill="none" stroke="#b9b9b9" stroke-linecap="square" stroke-width=".75" d="M499.63 450.72V7.2" clip-path="url(#a)"/><use xlink:href="#c" x="499.629" y="450.72" stroke="#000" stroke-width=".8"/><text x="499.629" y="475.529" fill="#767676" font-family="'Montserrat'" font-size="24" font-weight="600" text-anchor="middle">400</text><path fill="none" stroke="#b9b9b9" stroke-linecap="square" stroke-width=".75" d="M633.41 450.72V7.2" clip-path="url(#a)"/><use xlink:href="#c" x="633.415" y="450.72" stroke="#000" stroke-width=".8"/><text x="633.415" y="475.529" fill="#767676" font-family="'Montserrat'" font-size="24" font-weight="600" text-anchor="middle">600</text><path fill="none" stroke="#b9b9b9" stroke-linecap="square" stroke-width=".75" d="M767.2 450.72V7.2" clip-path="url(#a)"/><use xlink:href="#c" x="767.201" y="450.72" stroke="#000" stroke-width=".8"/><text x="767.201" y="475.529" fill="#767676" font-family="'Montserrat'" font-size="24" font-weight="600" text-anchor="middle">800</text><path fill="none" stroke="#b9b9b9" stroke-linecap="square" stroke-width=".75" d="M900.99 450.72V7.2" clip-path="url(#a)"/><use xlink:href="#c" x="900.987" y="450.72" stroke="#000" stroke-width=".8"/><text x="900.987" y="475.529" fill="#767676" font-family="'Montserrat'" font-size="24" font-weight="600" text-anchor="middle">1,000</text><defs><path id="b" stroke="#000" stroke-width=".8" d="M0 0h-3.5"/></defs><use xlink:href="#b" x="232.056" y="419.663" stroke="#000" stroke-width=".8"/><text x="225.056" y="428.567" fill="#767676" font-family="'Montserrat'" font-size="24" font-weight="500" text-anchor="end">Jalisco</text><use xlink:href="#b" x="232.056" y="392.419" stroke="#000" stroke-width=".8"/><text x="225.056" y="401.504" fill="#767676" font-family="'Montserrat'" font-size="24" font-weight="500" text-anchor="end">Guanajuato</text><use xlink:href="#b" x="232.056" y="365.176" stroke="#000" stroke-width=".8"/><text x="225.056" y="374.081" fill="#767676" font-family="'Montserrat'" font-size="24" font-weight="500" text-anchor="end">Michoacán</text><use xlink:href="#b" x="232.056" y="337.933" stroke="#000" stroke-width=".8"/><text x="225.056" y="346.837" fill="#767676" font-family="'Montserrat'" font-size="24" font-weight="500" text-anchor="end">Sonora</text><use xlink:href="#b" x="232.056" y="310.69" stroke="#000" stroke-width=".8"/><text x="225.056" y="319.594" fill="#767676" font-family="'Montserrat'" font-size="24" font-weight="500" text-anchor="end">Oaxaca</text><use xlink:href="#b" x="232.056" y="283.446" stroke="#000" stroke-width=".8"/><text x="225.056" y="292.351" fill="#767676" font-family="'Montserrat'" font-size="24" font-weight="500" text-anchor="end">Estado de México</text><use xlink:href="#b" x="232.056" y="256.203" stroke="#000" stroke-width=".8"/><text x="225.056" y="265.036" fill="#767676" font-family="'Montserrat'" font-size="24" font-weight="500" text-anchor="end">Durango</text><use xlink:href="#b" x="232.056" y="228.96" stroke="#000" stroke-width=".8"/><text x="225.056" y="237.864" fill="#767676" font-family="'Montserrat'" font-size="24" font-weight="500" text-anchor="end">Nuevo León</text><use xlink:href="#b" x="232.056" y="201.717" stroke="#000" stroke-width=".8"/><text x="225.056" y="210.621" fill="#767676" font-family="'Montserrat'" font-size="24" font-weight="500" text-anchor="end">Coahuila</text><use xlink:href="#b" x="232.056" y="174.474" stroke="#000" stroke-width=".8"/><text x="225.056" y="183.558" fill="#767676" font-family="'Montserrat'" font-size="24" font-weight="500" text-anchor="end">Tamaulipas</text><use xlink:href="#b" x="232.056" y="147.23" stroke="#000" stroke-width=".8"/><text x="225.056" y="156.135" fill="#767676" font-family="'Montserrat'" font-size="24" font-weight="500" text-anchor="end">Puebla</text><use xlink:href="#b" x="232.056" y="119.987" stroke="#000" stroke-width=".8"/><text x="225.056" y="128.891" fill="#767676" font-family="'Montserrat'" font-size="24" font-weight="500" text-anchor="end">Ciudad de México</text><use xlink:href="#b" x="232.056" y="92.744" stroke="#000" stroke-width=".8"/><text x="225.056" y="101.648" fill="#767676" font-family="'Montserrat'" font-size="24" font-weight="500" text-anchor="end">Guerrero</text><use xlink:href="#b" x="232.056" y="65.501" stroke="#000" stroke-width=".8"/><text x="225.056" y="74.405" fill="#767676" font-family="'Montserrat'" font-size="24" font-weight="500" text-anchor="end">Veracruz</text><use xlink:href="#b" x="232.056" y="38.257" stroke="#000" stroke-width=".8"/><text x="225.056" y="47.342" fill="#767676" font-family="'Montserrat'" font-size="24" font-weight="500" text-anchor="end">Chiapas</text><path fill="#8b0000" d="M866.85 427.08h32.062q9.6 0 9.6-9.6v4.367q0-9.6-9.6-9.6H866.85q-9.6 0-9.6 9.6v-4.367q0 9.6 9.6 9.6"/><text x="859.045" y="422.951" fill="#fff" font-family="'Montserrat'" font-size="12" font-weight="700">910 </text><text x="941.123" y="423.526" font-family="'DejaVu Sans', 'Bitstream Vera Sans', 'Computer Modern Sans Serif', 'Lucida Grande', 'Verdana', 'Geneva', 'Lucid', 'Arial', 'Helvetica', 'Avant Garde', sans-serif" font-size="14" font-weight="700">16.2%</text><path fill="#fff" stroke="#002f2a" stroke-width="1.5" d="M759.82 399.84h34.294q9.6 0 9.6-9.6v4.367q0-9.6-9.6-9.6H759.82q-9.6 0-9.6 9.6v-4.367q0 9.6 9.6 9.6z"/><text x="752.016" y="395.707" fill="#10302c" font-family="'Montserrat'" font-size="12" font-weight="700">750 </text><text x="834.094" y="396.283" font-family="'DejaVu Sans', 'Bitstream Vera Sans', 'Computer Modern Sans Serif', 'Lucida Grande', 'Verdana', 'Geneva', 'Lucid', 'Arial', 'Helvetica', 'Avant Garde', sans-serif" font-size="14" font-weight="700">13.4%</text><path fill="#fff" stroke="#002f2a" stroke-width="1.5" d="M702.29 372.59h35.122q9.6 0 9.6-9.6v4.367q0-9.6-9.6-9.6H702.29q-9.6 0-9.6 9.6v-4.367q0 9.6 9.6 9.6z"/><text x="694.488" y="368.464" fill="#10302c" font-family="'Montserrat'" font-size="12" font-weight="700">664 </text><text x="776.566" y="369.039" font-family="'DejaVu Sans', 'Bitstream Vera Sans', 'Computer Modern Sans Serif', 'Lucida Grande', 'Verdana', 'Geneva', 'Lucid', 'Arial', 'Helvetica', 'Avant Garde', sans-serif" font-size="14" font-weight="700">11.8%</text><path fill="#fff" stroke="#002f2a" stroke-width="1.5" d="M603.29 345.35h31.054q9.6 0 9.6-9.6v4.367q0-9.6-9.6-9.6H603.29q-9.6 0-9.6 9.6v-4.367q0 9.6 9.6 9.6z"/><text x="595.486" y="341.221" fill="#10302c" font-family="'Montserrat'" font-size="12" font-weight="700">516 </text><text x="677.564" y="341.796" font-family="'DejaVu Sans', 'Bitstream Vera Sans', 'Computer Modern Sans Serif', 'Lucida Grande', 'Verdana', 'Geneva', 'Lucid', 'Arial', 'Helvetica', 'Avant Garde', sans-serif" font-size="14" font-weight="700">9.2%</text><path fill="#fff" stroke="#002f2a" stroke-width="1.5" d="M597.94 318.11h34.774q9.6 0 9.6-9.6v4.367q0-9.6-9.6-9.6H597.94q-9.6 0-9.6 9.6v-4.367q0 9.6 9.6 9.6z"/><text x="590.135" y="313.978" fill="#10302c" font-family="'Montserrat'" font-size="12" font-weight="700">508 </text><text x="672.213" y="314.553" font-family="'DejaVu Sans', 'Bitstream Vera Sans', 'Computer Modern Sans Serif', 'Lucida Grande', 'Verdana', 'Geneva', 'Lucid', 'Arial', 'Helvetica', 'Avant Garde', sans-serif" font-size="14" font-weight="700">9.1%</text><path fill="#fff" stroke="#002f2a" stroke-width="1.5" d="M582.55 290.86h34.894q9.6 0 9.6-9.6v4.367q0-9.6-9.6-9.6H582.55q-9.6 0-9.6 9.6v-4.367q0 9.6 9.6 9.6z"/><text x="574.75" y="286.734" fill="#10302c" font-family="'Montserrat'" font-size="12" font-weight="700">485 </text><text x="656.827" y="287.31" font-family="'DejaVu Sans', 'Bitstream Vera Sans', 'Computer Modern Sans Serif', 'Lucida Grande', 'Verdana', 'Geneva', 'Lucid', 'Arial', 'Helvetica', 'Avant Garde', sans-serif" font-size="14" font-weight="700">8.7%</text><path fill="#fff" stroke="#002f2a" stroke-width="1.5" d="M512.31 263.62h34.738q9.6 0 9.6-9.6v4.367q0-9.6-9.6-9.6H512.31q-9.6 0-9.6 9.6v-4.367q0 9.6 9.6 9.6z"/><text x="504.512" y="259.491" fill="#10302c" font-family="'Montserrat'" font-size="12" font-weight="700">380 </text><text x="586.59" y="260.066" font-family="'DejaVu Sans', 'Bitstream Vera Sans', 'Computer Modern Sans Serif', 'Lucida Grande', 'Verdana', 'Geneva', 'Lucid', 'Arial', 'Helvetica', 'Avant Garde', sans-serif" font-size="14" font-weight="700">6.8%</text><path fill="#fff" stroke="#002f2a" stroke-width="1.5" d="M472.18 236.38h33.898q9.6 0 9.6-9.6v4.367q0-9.6-9.6-9.6H472.18q-9.6 0-9.6 9.6v-4.367q0 9.6 9.6 9.6z"/><text x="464.376" y="232.248" fill="#10302c" font-family="'Montserrat'" font-size="12" font-weight="700">320 </text><text x="546.454" y="232.823" font-family="'DejaVu Sans', 'Bitstream Vera Sans', 'Computer Modern Sans Serif', 'Lucida Grande', 'Verdana', 'Geneva', 'Lucid', 'Arial', 'Helvetica', 'Avant Garde', sans-serif" font-size="14" font-weight="700">5.7%</text><path fill="#fff" stroke="#002f2a" stroke-width="1.5" d="M434.72 209.13h34.558q9.6 0 9.6-9.6v4.367q0-9.6-9.6-9.6H434.72q-9.6 0-9.6 9.6v-4.367q0 9.6 9.6 9.6z"/><text x="426.916" y="205.005" fill="#10302c" font-family="'Montserrat'" font-size="12" font-weight="700">264 </text><text x="508.994" y="205.58" font-family="'DejaVu Sans', 'Bitstream Vera Sans', 'Computer Modern Sans Serif', 'Lucida Grande', 'Verdana', 'Geneva', 'Lucid', 'Arial', 'Helvetica', 'Avant Garde', sans-serif" font-size="14" font-weight="700">4.7%</text><path fill="#fff" stroke="#002f2a" stroke-width="1.5" d="M372.51 181.89h28.414q9.6 0 9.6-9.6v4.367q0-9.6-9.6-9.6H372.51q-9.6 0-9.6 9.6v-4.367q0 9.6 9.6 9.6z"/><text x="364.705" y="177.761" fill="#10302c" font-family="'Montserrat'" font-size="12" font-weight="700">171 </text><text x="446.783" y="178.337" font-family="'DejaVu Sans', 'Bitstream Vera Sans', 'Computer Modern Sans Serif', 'Lucida Grande', 'Verdana', 'Geneva', 'Lucid', 'Arial', 'Helvetica', 'Avant Garde', sans-serif" font-size="14" font-weight="700">3.1%</text><path fill="#fff" stroke="#002f2a" stroke-width="1.5" d="M362.47 154.65h31.054q9.6 0 9.6-9.6v4.367q0-9.6-9.6-9.6H362.47q-9.6 0-9.6 9.6v-4.367q0 9.6 9.6 9.6z"/><text x="354.671" y="150.518" fill="#10302c" font-family="'Montserrat'" font-size="12" font-weight="700">156 </text><text x="436.749" y="151.093" font-family="'DejaVu Sans', 'Bitstream Vera Sans', 'Computer Modern Sans Serif', 'Lucida Grande', 'Verdana', 'Geneva', 'Lucid', 'Arial', 'Helvetica', 'Avant Garde', sans-serif" font-size="14" font-weight="700">2.8%</text><path fill="#fff" stroke="#002f2a" stroke-width="1.5" d="M359.8 127.4h30.489q9.6 0 9.6-9.6v4.367q0-9.6-9.6-9.6H359.8q-9.6 0-9.6 9.6V117.8q0 9.6 9.6 9.6z"/><text x="351.996" y="123.275" fill="#10302c" font-family="'Montserrat'" font-size="12" font-weight="700">152 </text><text x="434.073" y="123.85" font-family="'DejaVu Sans', 'Bitstream Vera Sans', 'Computer Modern Sans Serif', 'Lucida Grande', 'Verdana', 'Geneva', 'Lucid', 'Arial', 'Helvetica', 'Avant Garde', sans-serif" font-size="14" font-weight="700">2.7%</text><path fill="#fff" stroke="#002f2a" stroke-width="1.5" d="M349.76 100.16h30.814q9.6 0 9.6-9.6v4.367q0-9.6-9.6-9.6H349.76q-9.6 0-9.6 9.6V90.56q0 9.6 9.6 9.6z"/><text x="341.962" y="96.032" fill="#10302c" font-family="'Montserrat'" font-size="12" font-weight="700">137 </text><text x="424.039" y="96.607" font-family="'DejaVu Sans', 'Bitstream Vera Sans', 'Computer Modern Sans Serif', 'Lucida Grande', 'Verdana', 'Geneva', 'Lucid', 'Arial', 'Helvetica', 'Avant Garde', sans-serif" font-size="14" font-weight="700">2.4%</text><path fill="#fff" stroke="#002f2a" stroke-width="1.5" d="M339.06 72.917h28.054q9.6 0 9.6-9.6v4.367q0-9.6-9.6-9.6H339.06q-9.6 0-9.6 9.6v-4.367q0 9.6 9.6 9.6z"/><text x="331.259" y="68.788" fill="#10302c" font-family="'Montserrat'" font-size="12" font-weight="700">121 </text><text x="413.337" y="69.364" font-family="'DejaVu Sans', 'Bitstream Vera Sans', 'Computer Modern Sans Serif', 'Lucida Grande', 'Verdana', 'Geneva', 'Lucid', 'Arial', 'Helvetica', 'Avant Garde', sans-serif" font-size="14" font-weight="700">2.2%</text><path fill="#fff" stroke="#002f2a" stroke-width="1.5" d="M304.94 45.674h27.154q9.6 0 9.6-9.6v4.367q0-9.6-9.6-9.6H304.94q-9.6 0-9.6 9.6v-4.367q0 9.6 9.6 9.6z"/><text x="297.143" y="41.545" fill="#10302c" font-family="'Montserrat'" font-size="12" font-weight="700">70 </text><text x="379.221" y="42.12" font-family="'DejaVu Sans', 'Bitstream Vera Sans', 'Computer Modern Sans Serif', 'Lucida Grande', 'Verdana', 'Geneva', 'Lucid', 'Arial', 'Helvetica', 'Avant Garde', sans-serif" font-size="14" font-weight="700">1.2%</text><defs><clipPath id="a"><path d="M232.06 7.2h669.6v443.52h-669.6z"/></clipPath></defs></svg>