<svg width="1526.4" height="950.4" viewBox="0 0 1144.8 712.8" xmlns="http://www.w3.org/2000/svg"><defs><style>*{stroke-linejoin:round;stroke-linecap:butt}</style></defs><path d="M0 712.8h1144.8V0H0z" fill="#fff"/><path d="M7.2 705.6h468.781V432.13H7.2z" clip-path="url(#a)" fill="#10302c" stroke="#fff"/><path d="M7.2 432.13h468.781V206.743H7.2z" clip-path="url(#a)" fill="#4c6a67" stroke="#fff"/><path d="M7.2 206.743h468.781V7.2H7.2z" clip-path="url(#a)" fill="#4c6a67" stroke="#fff"/><path d="m475.98 705.6h333.39v-218.04h-333.39z" clip-path="url(#a)" fill="#4c6a67" stroke="#fff"/><path d="m809.38 705.6h328.22v-218.04h-328.22z" clip-path="url(#a)" fill="#4c6a67" stroke="#fff"/><path d="m475.98 487.56h370.97v-184.18h-370.97z" clip-path="url(#a)" fill="#4c6a67" stroke="#fff"/><path d="m846.95 487.56h290.65v-184.18h-290.65z" clip-path="url(#a)" fill="#4c6a67" stroke="#fff"/><path d="m475.98 303.38h277.78v-162.29h-277.78z" clip-path="url(#a)" fill="#4c6a67" stroke="#fff"/><path d="M475.981 141.09h277.775V7.2H475.981z" clip-path="url(#a)" fill="#4c6a67" stroke="#fff"/><path d="m753.76 303.38h200.73v-120.01h-200.73z" clip-path="url(#a)" fill="#4c6a67" stroke="#fff"/><path d="m954.48 303.38h183.12v-120.01h-183.12z" clip-path="url(#a)" fill="#4c6a67" stroke="#fff"/><path d="m753.76 183.37h231.11v-92.655h-231.11z" clip-path="url(#a)" fill="#4c6a67" stroke="#fff"/><path d="M753.756 90.712h231.106V7.2H753.756z" clip-path="url(#a)" fill="#4c6a67" stroke="#fff"/><path d="m984.86 183.37h152.74v-111.6h-152.74z" clip-path="url(#a)" fill="#4c6a67" stroke="#fff"/><path d="M984.862 71.764H1137.6V7.2H984.862z" clip-path="url(#a)" fill="#4c6a67" stroke="#fff"/><text x="25.951" y="550.146" fill="#fff" font-family='"Montserrat"' font-size="26px" font-weight="700">Jalisco</text><text x="25.951" y="599.371" fill="#fff" font-family='"Montserrat"' font-size="26px" font-weight="700">910</text><text x="25.951" y="648.595" fill="#fff" font-family='"Montserrat"' font-size="26px" font-weight="500">16.2%</text><text x="25.951" y="302.914" fill="#fff" font-family='"Montserrat"' font-size="26px" font-weight="700">Guanajuato</text><text x="25.951" y="343.691" fill="#fff" font-family='"Montserrat"' font-size="26px" font-weight="700">750</text><text x="25.951" y="384.261" fill="#fff" font-family='"Montserrat"' font-size="26px" font-weight="500">13.4%</text><text x="25.951" y="91.949" fill="#fff" font-family='"Montserrat"' font-size="26px" font-weight="700">Michoacán</text><text x="25.951" y="127.866" fill="#fff" font-family='"Montserrat"' font-size="26px" font-weight="700">664</text><text x="25.951" y="163.784" fill="#fff" font-family='"Montserrat"' font-size="26px" font-weight="500">11.8%</text><text x="489.317" y="580.634" fill="#fff" font-family='"Montserrat"' font-size="26px" font-weight="700">Sonora</text><text x="489.317" y="619.881" fill="#fff" font-family='"Montserrat"' font-size="26px" font-weight="700">516</text><text x="489.317" y="659.127" fill="#fff" font-family='"Montserrat"' font-size="26px" font-weight="500">9.2%</text><text x="822.504" y="580.634" fill="#fff" font-family='"Montserrat"' font-size="26px" font-weight="700">Oaxaca</text><text x="822.504" y="619.881" fill="#fff" font-family='"Montserrat"' font-size="26px" font-weight="700">508</text><text x="822.504" y="659.127" fill="#fff" font-family='"Montserrat"' font-size="26px" font-weight="500">9.1%</text><g fill="#fff" font-family='"Montserrat"' font-size="26px" font-weight="700"><text transform="translate(490.82 353.02)">Estado de</text><text transform="translate(490.82 381.22)">México</text></g><text x="490.82" y="414.37" fill="#fff" font-family='"Montserrat"' font-size="26px" font-weight="700">485</text><text x="490.82" y="447.523" fill="#fff" font-family='"Montserrat"' font-size="26px" font-weight="500">8.7%</text><text x="858.573" y="382.222" fill="#fff" font-family='"Montserrat"' font-size="20px" font-weight="700">Durango</text><text x="858.573" y="415.534" fill="#fff" font-family='"Montserrat"' font-size="20px" font-weight="700">380</text><text x="858.573" y="448.687" fill="#fff" font-family='"Montserrat"' font-size="20px" font-weight="500">6.8%</text><text x="487.092" y="210.628" fill="#fff" font-family='"Montserrat"' font-size="18px" font-weight="700">Nuevo León</text><text x="487.092" y="239.84" fill="#fff" font-family='"Montserrat"' font-size="18px" font-weight="700">320</text><text x="487.092" y="269.053" fill="#fff" font-family='"Montserrat"' font-size="18px" font-weight="500">5.7%</text><text x="487.092" y="63.957" fill="#fff" font-family='"Montserrat"' font-size="18px" font-weight="700">Coahuila</text><text x="487.092" y="88.058" fill="#fff" font-family='"Montserrat"' font-size="18px" font-weight="700">264</text><text x="487.092" y="112.158" fill="#fff" font-family='"Montserrat"' font-size="18px" font-weight="500">4.7%</text><text x="761.785" y="234.657" fill="#fff" font-family='"Montserrat"' font-size="14px" font-weight="700">Tamaulipas</text><text x="761.785" y="256.259" fill="#fff" font-family='"Montserrat"' font-size="14px" font-weight="700">171</text><text x="761.785" y="277.862" fill="#fff" font-family='"Montserrat"' font-size="14px" font-weight="500">3.1%</text><text x="961.807" y="234.657" fill="#fff" font-family='"Montserrat"' font-size="14px" font-weight="700">Puebla</text><text x="961.807" y="256.259" fill="#fff" font-family='"Montserrat"' font-size="14px" font-weight="700">156</text><text x="961.807" y="277.862" fill="#fff" font-family='"Montserrat"' font-size="14px" font-weight="500">2.8%</text><g fill="#fff" font-family='"Montserrat"' font-size="14px" font-weight="700"><text transform="translate(763 114.51)">Ciudad de</text><text transform="translate(763 129.69)">México</text></g><text x="763.001" y="146.368" fill="#fff" font-family='"Montserrat"' font-size="14px" font-weight="700">152</text><text x="763.001" y="163.046" fill="#fff" font-family='"Montserrat"' font-size="14px" font-weight="500">2.7%</text><text x="763.001" y="42.063" fill="#fff" font-family='"Montserrat"' font-size="14px" font-weight="700">Guerrero</text><text x="763.001" y="57.096" fill="#fff" font-family='"Montserrat"' font-size="14px" font-weight="700">137</text><text x="763.001" y="72.128" fill="#fff" font-family='"Montserrat"' font-size="14px" font-weight="500">2.4%</text><text x="990.972" y="119.269" fill="#fff" font-family='"Montserrat"' font-size="14px" font-weight="700">Veracruz</text><text x="990.972" y="139.357" fill="#fff" font-family='"Montserrat"' font-size="14px" font-weight="700">121</text><text x="990.972" y="159.446" fill="#fff" font-family='"Montserrat"' font-size="14px" font-weight="500">2.2%</text><text x="990.972" y="34.119" fill="#fff" font-family='"Montserrat"' font-size="11px" font-weight="700">Chiapas</text><text x="990.972" y="45.741" fill="#fff" font-family='"Montserrat"' font-size="11px" font-weight="700">70</text><text x="990.972" y="57.362" fill="#fff" font-family='"Montserrat"' font-size="11px" font-weight="500">1.2%</text><defs><clipPath id="a"><path d="M7.2 7.2h1130.4v698.4H7.2z"/></clipPath></defs></svg>
