<?xml version="1.0" encoding="UTF-8"?>
<!DOCTYPE svg  PUBLIC '-//W3C//DTD SVG 1.1//EN'  'http://www.w3.org/Graphics/SVG/1.1/DTD/svg11.dtd'>
<svg width="1144.8pt" height="712.8pt" version="1.1" viewBox="0 0 1144.8 712.8" xmlns="http://www.w3.org/2000/svg">
<metadata>
<rdf:RDF xmlns:cc="http://creativecommons.org/ns#" xmlns:dc="http://purl.org/dc/elements/1.1/" xmlns:rdf="http://www.w3.org/1999/02/22-rdf-syntax-ns#">
<cc:Work>
<dc:type rdf:resource="http://purl.org/dc/dcmitype/StillImage"/>
<dc:date>2025-05-28T12:59:09.016391</dc:date>
<dc:format>image/svg+xml</dc:format>
<dc:creator>
<cc:Agent>
<dc:title>Matplotlib v3.10.0, https://matplotlib.org/</dc:title>
</cc:Agent>
</dc:creator>
</cc:Work>
</rdf:RDF>
</metadata>
<defs>
<style type="text/css">*{stroke-linejoin: round; stroke-linecap: butt}</style>
</defs>
<path d="m0 712.8h1144.8v-712.8h-1144.8z" fill="#fff"/>
<path d="m7.2 705.6h468.78v-273.47h-468.78z" clip-path="url(#a)" fill="#10302c" stroke="#fff"/>
<path d="m7.2 432.13h468.78v-225.39h-468.78z" clip-path="url(#a)" fill="#4c6a67" stroke="#fff"/>
<path d="m7.2 206.74h468.78v-199.54h-468.78z" clip-path="url(#a)" fill="#4c6a67" stroke="#fff"/>
<path d="m475.98 705.6h333.39v-218.04h-333.39z" clip-path="url(#a)" fill="#4c6a67" stroke="#fff"/>
<path d="m809.38 705.6h328.22v-218.04h-328.22z" clip-path="url(#a)" fill="#4c6a67" stroke="#fff"/>
<path d="m475.98 487.56h370.97v-184.18h-370.97z" clip-path="url(#a)" fill="#4c6a67" stroke="#fff"/>
<path d="m846.95 487.56h290.65v-184.18h-290.65z" clip-path="url(#a)" fill="#4c6a67" stroke="#fff"/>
<path d="m475.98 303.38h277.78v-162.29h-277.78z" clip-path="url(#a)" fill="#4c6a67" stroke="#fff"/>
<path d="m475.98 141.09h277.78v-133.89h-277.78z" clip-path="url(#a)" fill="#4c6a67" stroke="#fff"/>
<path d="m753.76 303.38h200.73v-120.01h-200.73z" clip-path="url(#a)" fill="#4c6a67" stroke="#fff"/>
<path d="m954.48 303.38h183.12v-120.01h-183.12z" clip-path="url(#a)" fill="#4c6a67" stroke="#fff"/>
<path d="m753.76 183.37h231.11v-92.655h-231.11z" clip-path="url(#a)" fill="#4c6a67" stroke="#fff"/>
<path d="m753.76 90.712h231.11v-83.512h-231.11z" clip-path="url(#a)" fill="#4c6a67" stroke="#fff"/>
<path d="m984.86 183.37h152.74v-111.6h-152.74z" clip-path="url(#a)" fill="#4c6a67" stroke="#fff"/>
<path d="m984.86 71.764h152.74v-64.564h-152.74z" clip-path="url(#a)" fill="#4c6a67" stroke="#fff"/>
<text transform="rotate(-0 25.951 550.15)" x="25.951246" y="550.145941" fill="#ffffff" font-family="'Montserrat'" font-size="26px" font-weight="700">Jalisco</text>
<text transform="rotate(-0 25.951 599.37)" x="25.951246" y="599.37052" fill="#ffffff" font-family="'Montserrat'" font-size="26px" font-weight="700">910</text>
<text transform="rotate(-0 25.951 648.6)" x="25.951246" y="648.595098" fill="#ffffff" font-family="'Montserrat'" font-size="26px" font-weight="500">16.2%</text>
<text transform="rotate(-0 25.951 302.91)" x="25.951246" y="302.914313" fill="#ffffff" font-family="'Montserrat'" font-size="26px" font-weight="700">Guanajuato</text>
<text transform="rotate(-0 25.951 343.69)" x="25.951246" y="343.691208" fill="#ffffff" font-family="'Montserrat'" font-size="26px" font-weight="700">750</text>
<text transform="rotate(-0 25.951 384.26)" x="25.951246" y="384.260915" fill="#ffffff" font-family="'Montserrat'" font-size="26px" font-weight="500">13.4%</text>
<text transform="rotate(-0 25.951 91.949)" x="25.951246" y="91.948661" fill="#ffffff" font-family="'Montserrat'" font-size="26px" font-weight="700">Michoacán</text>
<text transform="rotate(-0 25.951 127.87)" x="25.951246" y="127.866375" fill="#ffffff" font-family="'Montserrat'" font-size="26px" font-weight="700">664</text>
<text transform="rotate(-0 25.951 163.78)" x="25.951246" y="163.784089" fill="#ffffff" font-family="'Montserrat'" font-size="26px" font-weight="500">11.8%</text>
<text transform="rotate(-0 489.32 580.63)" x="489.316911" y="580.633985" fill="#ffffff" font-family="'Montserrat'" font-size="26px" font-weight="700">Sonora</text>
<text transform="rotate(-0 489.32 619.88)" x="489.316911" y="619.880658" fill="#ffffff" font-family="'Montserrat'" font-size="26px" font-weight="700">516</text>
<text transform="rotate(-0 489.32 659.13)" x="489.316911" y="659.127331" fill="#ffffff" font-family="'Montserrat'" font-size="26px" font-weight="500">9.2%</text>
<text transform="rotate(-0 822.5 580.63)" x="822.504026" y="580.633985" fill="#ffffff" font-family="'Montserrat'" font-size="26px" font-weight="700">Oaxaca</text>
<text transform="rotate(-0 822.5 619.88)" x="822.504026" y="619.880658" fill="#ffffff" font-family="'Montserrat'" font-size="26px" font-weight="700">508</text>
<text transform="rotate(-0 822.5 659.13)" x="822.504026" y="659.127331" fill="#ffffff" font-family="'Montserrat'" font-size="26px" font-weight="500">9.1%</text>
<g fill="#ffffff" font-family="'Montserrat'" font-size="26px" font-weight="700">
<text transform="translate(490.82 353.02)">Estado de</text>
<text transform="translate(490.82 381.22)">México</text>
</g>
<text transform="rotate(-0 490.82 414.37)" x="490.819775" y="414.37007" fill="#ffffff" font-family="'Montserrat'" font-size="26px" font-weight="700">485</text>
<text transform="rotate(-0 490.82 447.52)" x="490.819775" y="447.522777" fill="#ffffff" font-family="'Montserrat'" font-size="26px" font-weight="500">8.7%</text>
<text transform="rotate(-0 858.57 382.22)" x="858.57277" y="382.222363" fill="#ffffff" font-family="'Montserrat'" font-size="20px" font-weight="700">Durango</text>
<text transform="rotate(-0 858.57 415.53)" x="858.57277" y="415.534445" fill="#ffffff" font-family="'Montserrat'" font-size="20px" font-weight="700">380</text>
<text transform="rotate(-0 858.57 448.69)" x="858.57277" y="448.687152" fill="#ffffff" font-family="'Montserrat'" font-size="20px" font-weight="500">6.8%</text>
<text transform="rotate(-0 487.09 210.63)" x="487.092167" y="210.628001" fill="#ffffff" font-family="'Montserrat'" font-size="18px" font-weight="700">Nuevo León</text>
<text transform="rotate(-0 487.09 239.84)" x="487.092167" y="239.840395" fill="#ffffff" font-family="'Montserrat'" font-size="18px" font-weight="700">320</text>
<text transform="rotate(-0 487.09 269.05)" x="487.092167" y="269.052789" fill="#ffffff" font-family="'Montserrat'" font-size="18px" font-weight="500">5.7%</text>
<text transform="rotate(-0 487.09 63.957)" x="487.092167" y="63.957438" fill="#ffffff" font-family="'Montserrat'" font-size="18px" font-weight="700">Coahuila</text>
<text transform="rotate(-0 487.09 88.058)" x="487.092167" y="88.057663" fill="#ffffff" font-family="'Montserrat'" font-size="18px" font-weight="700">264</text>
<text transform="rotate(-0 487.09 112.16)" x="487.092167" y="112.157889" fill="#ffffff" font-family="'Montserrat'" font-size="18px" font-weight="500">4.7%</text>
<text transform="rotate(-0 761.79 234.66)" x="761.785451" y="234.656671" fill="#ffffff" font-family="'Montserrat'" font-size="14px" font-weight="700">Tamaulipas</text>
<text transform="rotate(-0 761.79 256.26)" x="761.785451" y="256.259182" fill="#ffffff" font-family="'Montserrat'" font-size="14px" font-weight="700">171</text>
<text transform="rotate(-0 761.79 277.86)" x="761.785451" y="277.861694" fill="#ffffff" font-family="'Montserrat'" font-size="14px" font-weight="500">3.1%</text>
<text transform="rotate(-0 961.81 234.66)" x="961.806688" y="234.656671" fill="#ffffff" font-family="'Montserrat'" font-size="14px" font-weight="700">Puebla</text>
<text transform="rotate(-0 961.81 256.26)" x="961.806688" y="256.259182" fill="#ffffff" font-family="'Montserrat'" font-size="14px" font-weight="700">156</text>
<text transform="rotate(-0 961.81 277.86)" x="961.806688" y="277.861694" fill="#ffffff" font-family="'Montserrat'" font-size="14px" font-weight="500">2.8%</text>
<g fill="#ffffff" font-family="'Montserrat'" font-size="14px" font-weight="700">
<text transform="translate(763 114.51)">Ciudad de</text>
<text transform="translate(763 129.69)">México</text>
</g>
<text transform="rotate(-0 763 146.37)" x="763.000662" y="146.367877" fill="#ffffff" font-family="'Montserrat'" font-size="14px" font-weight="700">152</text>
<text transform="rotate(-0 763 163.05)" x="763.000662" y="163.045858" fill="#ffffff" font-family="'Montserrat'" font-size="14px" font-weight="500">2.7%</text>
<text transform="rotate(-0 763 42.063)" x="763.000662" y="42.063444" fill="#ffffff" font-family="'Montserrat'" font-size="14px" font-weight="700">Guerrero</text>
<text transform="rotate(-0 763 57.096)" x="763.000662" y="57.095571" fill="#ffffff" font-family="'Montserrat'" font-size="14px" font-weight="700">137</text>
<text transform="rotate(-0 763 72.128)" x="763.000662" y="72.127699" fill="#ffffff" font-family="'Montserrat'" font-size="14px" font-weight="500">2.4%</text>
<text transform="rotate(-0 990.97 119.27)" x="990.971756" y="119.268552" fill="#ffffff" font-family="'Montserrat'" font-size="14px" font-weight="700">Veracruz</text>
<text transform="rotate(-0 990.97 139.36)" x="990.971756" y="139.357154" fill="#ffffff" font-family="'Montserrat'" font-size="14px" font-weight="700">121</text>
<text transform="rotate(-0 990.97 159.45)" x="990.971756" y="159.445757" fill="#ffffff" font-family="'Montserrat'" font-size="14px" font-weight="500">2.2%</text>
<text transform="rotate(-0 990.97 34.119)" x="990.971756" y="34.119077" fill="#ffffff" font-family="'Montserrat'" font-size="11px" font-weight="700">Chiapas</text>
<text transform="rotate(-0 990.97 45.741)" x="990.971756" y="45.740582" fill="#ffffff" font-family="'Montserrat'" font-size="11px" font-weight="700">70</text>
<text transform="rotate(-0 990.97 57.362)" x="990.971756" y="57.362088" fill="#ffffff" font-family="'Montserrat'" font-size="11px" font-weight="500">1.2%</text>
<defs>
<clipPath id="a">
<rect x="7.2" y="7.2" width="1130.4" height="698.4"/>
</clipPath>
</defs>
</svg>
